<?xml version="1.0" encoding="UTF-8" standalone="no"?>
<!DOCTYPE svg PUBLIC "-//W3C//DTD SVG 1.1//EN"
 "http://www.w3.org/Graphics/SVG/1.1/DTD/svg11.dtd">
<!-- Generated by graphviz version 2.43.0 (0)
 -->
<!-- Title: G Pages: 1 -->
<svg width="870pt" height="810pt"
 viewBox="0.00 0.00 869.50 810.00" xmlns="http://www.w3.org/2000/svg" xmlns:xlink="http://www.w3.org/1999/xlink">
<g id="graph0" class="graph" transform="scale(1 1) rotate(0) translate(4 806)">
<title>G</title>
<polygon fill="white" stroke="transparent" points="-4,4 -4,-806 865.5,-806 865.5,4 -4,4"/>
<!-- node0 -->
<g id="node1" class="node">
<title>node0</title>
<polygon fill="none" stroke="black" points="312.5,-763.5 312.5,-801.5 413.5,-801.5 413.5,-763.5 312.5,-763.5"/>
<text text-anchor="start" x="320.5" y="-786.3" font-family="Times,serif" font-size="14.00">Let l0 =</text>
<text text-anchor="start" x="320.5" y="-771.3" font-family="Times,serif" font-size="14.00"> Constant ()</text>
</g>
<!-- node2 -->
<g id="node3" class="node">
<title>node2</title>
<polygon fill="none" stroke="black" points="28.5,-658.5 28.5,-711.5 297.5,-711.5 297.5,-658.5 28.5,-658.5"/>
<text text-anchor="start" x="36.5" y="-696.3" font-family="Times,serif" font-size="14.00">Let l1 =</text>
<text text-anchor="start" x="36.5" y="-681.3" font-family="Times,serif" font-size="14.00"> Join %0 %1</text>
<text text-anchor="start" x="36.5" y="-666.3" font-family="Times,serif" font-size="14.00"> implementation = Unimplemented</text>
</g>
<!-- node0&#45;&gt;node2 -->
<g id="edge3" class="edge">
<title>node0&#45;&gt;node2</title>
<path fill="none" stroke="black" d="M324.91,-763.31C296.96,-749.96 258.36,-731.53 225.86,-716.02"/>
<polygon fill="black" stroke="black" points="226.97,-712.66 216.43,-711.51 223.95,-718.98 226.97,-712.66"/>
<text text-anchor="start" x="281" y="-733.8" font-family="Times,serif" font-size="14.00">%0</text>
</g>
<!-- node4 -->
<g id="node5" class="node">
<title>node4</title>
<polygon fill="none" stroke="black" points="429.5,-658.5 429.5,-711.5 698.5,-711.5 698.5,-658.5 429.5,-658.5"/>
<text text-anchor="start" x="437.5" y="-696.3" font-family="Times,serif" font-size="14.00">Let l2 =</text>
<text text-anchor="start" x="437.5" y="-681.3" font-family="Times,serif" font-size="14.00"> Join %0 %3</text>
<text text-anchor="start" x="437.5" y="-666.3" font-family="Times,serif" font-size="14.00"> implementation = Unimplemented</text>
</g>
<!-- node0&#45;&gt;node4 -->
<g id="edge15" class="edge">
<title>node0&#45;&gt;node4</title>
<path fill="none" stroke="black" d="M401.28,-763.31C429.49,-749.91 468.5,-731.38 501.24,-715.82"/>
<polygon fill="black" stroke="black" points="502.77,-718.97 510.3,-711.51 499.77,-712.64 502.77,-718.97"/>
<text text-anchor="start" x="469" y="-733.8" font-family="Times,serif" font-size="14.00">%0</text>
</g>
<!-- node1 -->
<g id="node2" class="node">
<title>node1</title>
<polygon fill="none" stroke="black" points="6,-764.5 6,-800.5 294,-800.5 294,-764.5 6,-764.5"/>
<text text-anchor="start" x="14" y="-778.8" font-family="Times,serif" font-size="14.00">Get simplify_outer_joins.public.l (u95)</text>
</g>
<!-- node1&#45;&gt;node2 -->
<g id="edge17" class="edge">
<title>node1&#45;&gt;node2</title>
<path fill="none" stroke="black" d="M152.32,-764.43C153.93,-752.6 156.14,-736.41 158.12,-721.82"/>
<polygon fill="black" stroke="black" points="161.64,-721.94 159.52,-711.55 154.7,-720.99 161.64,-721.94"/>
<text text-anchor="start" x="157" y="-733.8" font-family="Times,serif" font-size="14.00">%1</text>
</g>
<!-- node5 -->
<g id="node6" class="node">
<title>node5</title>
<polygon fill="none" stroke="black" points="232.5,-523.5 232.5,-606.5 501.5,-606.5 501.5,-523.5 232.5,-523.5"/>
<text text-anchor="start" x="240.5" y="-591.3" font-family="Times,serif" font-size="14.00">Let l3 =</text>
<text text-anchor="start" x="240.5" y="-576.3" font-family="Times,serif" font-size="14.00"> Join %2 %4</text>
<text text-anchor="start" x="240.5" y="-561.3" font-family="Times,serif" font-size="14.00"> implementation = Unimplemented</text>
<text text-anchor="start" x="240.5" y="-546.3" font-family="Times,serif" font-size="14.00"> Project (#0..=#3)</text>
<text text-anchor="start" x="240.5" y="-531.3" font-family="Times,serif" font-size="14.00"> Filter (#1 = #2)</text>
</g>
<!-- node2&#45;&gt;node5 -->
<g id="edge2" class="edge">
<title>node2&#45;&gt;node5</title>
<path fill="none" stroke="black" d="M207.26,-658.4C230.84,-644.76 260.56,-627.57 287.95,-611.72"/>
<polygon fill="black" stroke="black" points="289.85,-614.67 296.75,-606.63 286.34,-608.61 289.85,-614.67"/>
<text text-anchor="start" x="265" y="-628.8" font-family="Times,serif" font-size="14.00">%2</text>
</g>
<!-- node9 -->
<g id="node10" class="node">
<title>node9</title>
<polygon fill="none" stroke="black" points="28.5,-283.5 28.5,-351.5 297.5,-351.5 297.5,-283.5 28.5,-283.5"/>
<text text-anchor="start" x="36.5" y="-336.3" font-family="Times,serif" font-size="14.00">Join %2 %6 (= #1 #2)</text>
<text text-anchor="start" x="36.5" y="-321.3" font-family="Times,serif" font-size="14.00"> implementation = Unimplemented</text>
<text text-anchor="start" x="36.5" y="-306.3" font-family="Times,serif" font-size="14.00"> Project (#0, #1)</text>
<text text-anchor="start" x="36.5" y="-291.3" font-family="Times,serif" font-size="14.00"> Negate</text>
</g>
<!-- node2&#45;&gt;node9 -->
<g id="edge19" class="edge">
<title>node2&#45;&gt;node9</title>
<path fill="none" stroke="black" d="M163,-658.3C163,-596.45 163,-438.79 163,-361.94"/>
<polygon fill="black" stroke="black" points="166.5,-361.65 163,-351.65 159.5,-361.65 166.5,-361.65"/>
<text text-anchor="start" x="163" y="-493.8" font-family="Times,serif" font-size="14.00">%2</text>
</g>
<!-- node10 -->
<g id="node11" class="node">
<title>node10</title>
<polygon fill="none" stroke="black" points="103,-186 103,-224 223,-224 223,-186 103,-186"/>
<text text-anchor="start" x="111" y="-208.8" font-family="Times,serif" font-size="14.00">Union %9 %2</text>
<text text-anchor="start" x="111" y="-193.8" font-family="Times,serif" font-size="14.00"> Map null, null</text>
</g>
<!-- node2&#45;&gt;node10 -->
<g id="edge18" class="edge">
<title>node2&#45;&gt;node10</title>
<path fill="none" stroke="black" d="M81.02,-658.32C40.43,-639.99 0,-610.54 0,-566 0,-566 0,-566 0,-316.5 0,-268.56 48.9,-239.99 93.13,-223.95"/>
<polygon fill="black" stroke="black" points="94.46,-227.19 102.77,-220.62 92.17,-220.57 94.46,-227.19"/>
<text text-anchor="start" x="0" y="-433.8" font-family="Times,serif" font-size="14.00">%2</text>
</g>
<!-- node3 -->
<g id="node4" class="node">
<title>node3</title>
<polygon fill="none" stroke="black" points="432,-764.5 432,-800.5 722,-800.5 722,-764.5 432,-764.5"/>
<text text-anchor="start" x="440" y="-778.8" font-family="Times,serif" font-size="14.00">Get simplify_outer_joins.public.r (u97)</text>
</g>
<!-- node3&#45;&gt;node4 -->
<g id="edge7" class="edge">
<title>node3&#45;&gt;node4</title>
<path fill="none" stroke="black" d="M574.68,-764.43C573.07,-752.6 570.86,-736.41 568.88,-721.82"/>
<polygon fill="black" stroke="black" points="572.3,-720.99 567.48,-711.55 565.36,-721.94 572.3,-720.99"/>
<text text-anchor="start" x="571" y="-733.8" font-family="Times,serif" font-size="14.00">%3</text>
</g>
<!-- node4&#45;&gt;node5 -->
<g id="edge5" class="edge">
<title>node4&#45;&gt;node5</title>
<path fill="none" stroke="black" d="M521.25,-658.4C498.58,-644.82 470.03,-627.72 443.68,-611.93"/>
<polygon fill="black" stroke="black" points="445.21,-608.77 434.84,-606.63 441.62,-614.77 445.21,-608.77"/>
<text text-anchor="start" x="488" y="-628.8" font-family="Times,serif" font-size="14.00">%4</text>
</g>
<!-- node7 -->
<g id="node8" class="node">
<title>node7</title>
<polygon fill="none" stroke="black" points="592.5,-283.5 592.5,-351.5 861.5,-351.5 861.5,-283.5 592.5,-283.5"/>
<text text-anchor="start" x="600.5" y="-336.3" font-family="Times,serif" font-size="14.00">Join %4 %6 (= #0 #2)</text>
<text text-anchor="start" x="600.5" y="-321.3" font-family="Times,serif" font-size="14.00"> implementation = Unimplemented</text>
<text text-anchor="start" x="600.5" y="-306.3" font-family="Times,serif" font-size="14.00"> Project (#0, #1)</text>
<text text-anchor="start" x="600.5" y="-291.3" font-family="Times,serif" font-size="14.00"> Negate</text>
</g>
<!-- node4&#45;&gt;node7 -->
<g id="edge16" class="edge">
<title>node4&#45;&gt;node7</title>
<path fill="none" stroke="black" d="M575.46,-658.3C603.15,-596.2 673.93,-437.5 708.05,-361"/>
<polygon fill="black" stroke="black" points="711.34,-362.2 712.22,-351.65 704.95,-359.35 711.34,-362.2"/>
<text text-anchor="start" x="649" y="-493.8" font-family="Times,serif" font-size="14.00">%4</text>
</g>
<!-- node8 -->
<g id="node9" class="node">
<title>node8</title>
<polygon fill="none" stroke="black" points="465,-178.5 465,-231.5 663,-231.5 663,-178.5 465,-178.5"/>
<text text-anchor="start" x="473" y="-216.3" font-family="Times,serif" font-size="14.00">Union %7 %4</text>
<text text-anchor="start" x="473" y="-201.3" font-family="Times,serif" font-size="14.00"> Map null, null</text>
<text text-anchor="start" x="473" y="-186.3" font-family="Times,serif" font-size="14.00"> Project (#2, #3, #0, #1)</text>
</g>
<!-- node4&#45;&gt;node8 -->
<g id="edge1" class="edge">
<title>node4&#45;&gt;node8</title>
<path fill="none" stroke="black" d="M564,-658.22C564,-634.31 564,-597.75 564,-566 564,-566 564,-566 564,-316.5 564,-291.61 564,-263.56 564,-241.95"/>
<polygon fill="black" stroke="black" points="567.5,-241.9 564,-231.9 560.5,-241.9 567.5,-241.9"/>
<text text-anchor="start" x="564" y="-433.8" font-family="Times,serif" font-size="14.00">%4</text>
</g>
<!-- node6 -->
<g id="node7" class="node">
<title>node6</title>
<polygon fill="none" stroke="black" points="361.5,-403.5 361.5,-471.5 528.5,-471.5 528.5,-403.5 361.5,-403.5"/>
<text text-anchor="start" x="369.5" y="-456.3" font-family="Times,serif" font-size="14.00">Let l4 =</text>
<text text-anchor="start" x="369.5" y="-441.3" font-family="Times,serif" font-size="14.00"> Get %5 (l3)</text>
<text text-anchor="start" x="369.5" y="-426.3" font-family="Times,serif" font-size="14.00"> Project (#1)</text>
<text text-anchor="start" x="369.5" y="-411.3" font-family="Times,serif" font-size="14.00"> Distinct group=(#0)</text>
</g>
<!-- node5&#45;&gt;node6 -->
<g id="edge9" class="edge">
<title>node5&#45;&gt;node6</title>
<path fill="none" stroke="black" d="M392.32,-523.25C400.86,-509.52 410.4,-494.17 418.99,-480.34"/>
<polygon fill="black" stroke="black" points="422.18,-481.85 424.48,-471.51 416.23,-478.16 422.18,-481.85"/>
<text text-anchor="start" x="412" y="-493.8" font-family="Times,serif" font-size="14.00">%5</text>
</g>
<!-- node11 -->
<g id="node12" class="node">
<title>node11</title>
<polygon fill="none" stroke="black" points="273,-90.5 273,-126.5 395,-126.5 395,-90.5 273,-90.5"/>
<text text-anchor="start" x="281" y="-104.8" font-family="Times,serif" font-size="14.00">Union %10 %5</text>
</g>
<!-- node5&#45;&gt;node11 -->
<g id="edge8" class="edge">
<title>node5&#45;&gt;node11</title>
<path fill="none" stroke="black" d="M350.69,-523.44C342.38,-499.2 334,-467.56 334,-438.5 334,-438.5 334,-438.5 334,-204 334,-181.37 334,-155.69 334,-136.82"/>
<polygon fill="black" stroke="black" points="337.5,-136.57 334,-126.57 330.5,-136.57 337.5,-136.57"/>
<text text-anchor="start" x="334" y="-313.8" font-family="Times,serif" font-size="14.00">%5</text>
</g>
<!-- node6&#45;&gt;node7 -->
<g id="edge10" class="edge">
<title>node6&#45;&gt;node7</title>
<path fill="none" stroke="black" d="M523.93,-403.47C559.53,-388.58 601.72,-370.92 638.4,-355.57"/>
<polygon fill="black" stroke="black" points="640.22,-358.61 648.09,-351.52 637.52,-352.15 640.22,-358.61"/>
<text text-anchor="start" x="602" y="-373.8" font-family="Times,serif" font-size="14.00">%6</text>
</g>
<!-- node6&#45;&gt;node9 -->
<g id="edge13" class="edge">
<title>node6&#45;&gt;node9</title>
<path fill="none" stroke="black" d="M366.07,-403.47C330.47,-388.58 288.28,-370.92 251.6,-355.57"/>
<polygon fill="black" stroke="black" points="252.48,-352.15 241.91,-351.52 249.78,-358.61 252.48,-352.15"/>
<text text-anchor="start" x="320" y="-373.8" font-family="Times,serif" font-size="14.00">%6</text>
</g>
<!-- node7&#45;&gt;node8 -->
<g id="edge14" class="edge">
<title>node7&#45;&gt;node8</title>
<path fill="none" stroke="black" d="M678.09,-283.35C656.58,-268.76 631.44,-251.72 610.25,-237.35"/>
<polygon fill="black" stroke="black" points="611.97,-234.29 601.73,-231.58 608.04,-240.09 611.97,-234.29"/>
<text text-anchor="start" x="650" y="-253.8" font-family="Times,serif" font-size="14.00">%7</text>
</g>
<!-- node12 -->
<g id="node13" class="node">
<title>node12</title>
<polygon fill="none" stroke="black" points="380,-0.5 380,-38.5 516,-38.5 516,-0.5 380,-0.5"/>
<text text-anchor="start" x="388" y="-23.3" font-family="Times,serif" font-size="14.00">Union %8 %11</text>
<text text-anchor="start" x="388" y="-8.3" font-family="Times,serif" font-size="14.00"> Filter (#0 &lt; 42)</text>
</g>
<!-- node8&#45;&gt;node12 -->
<g id="edge12" class="edge">
<title>node8&#45;&gt;node12</title>
<path fill="none" stroke="black" d="M547.87,-178.49C526.04,-143.95 487.27,-82.62 465,-47.39"/>
<polygon fill="black" stroke="black" points="467.75,-45.19 459.45,-38.61 461.83,-48.93 467.75,-45.19"/>
<text text-anchor="start" x="513" y="-104.8" font-family="Times,serif" font-size="14.00">%8</text>
</g>
<!-- node9&#45;&gt;node10 -->
<g id="edge4" class="edge">
<title>node9&#45;&gt;node10</title>
<path fill="none" stroke="black" d="M163,-283.35C163,-267.69 163,-249.21 163,-234.23"/>
<polygon fill="black" stroke="black" points="166.5,-234.04 163,-224.04 159.5,-234.04 166.5,-234.04"/>
<text text-anchor="start" x="163" y="-253.8" font-family="Times,serif" font-size="14.00">%9</text>
</g>
<!-- node10&#45;&gt;node11 -->
<g id="edge11" class="edge">
<title>node10&#45;&gt;node11</title>
<path fill="none" stroke="black" d="M195.97,-185.78C224.03,-170.27 264.41,-147.96 294.25,-131.47"/>
<polygon fill="black" stroke="black" points="296.09,-134.45 303.14,-126.55 292.7,-128.33 296.09,-134.45"/>
<text text-anchor="start" x="269" y="-148.8" font-family="Times,serif" font-size="14.00">%10</text>
</g>
<!-- node11&#45;&gt;node12 -->
<g id="edge6" class="edge">
<title>node11&#45;&gt;node12</title>
<path fill="none" stroke="black" d="M356.52,-90.31C373.59,-77.28 397.27,-59.21 416.26,-44.72"/>
<polygon fill="black" stroke="black" points="418.52,-47.4 424.35,-38.55 414.27,-41.84 418.52,-47.4"/>
<text text-anchor="start" x="397" y="-60.8" font-family="Times,serif" font-size="14.00">%11</text>
</g>
</g>
</svg>
