<?xml version="1.0" encoding="UTF-8" standalone="no"?>
<!DOCTYPE svg PUBLIC "-//W3C//DTD SVG 1.1//EN"
 "http://www.w3.org/Graphics/SVG/1.1/DTD/svg11.dtd">
<!-- Generated by graphviz version 2.43.0 (0)
 -->
<!-- Title: G Pages: 1 -->
<svg width="789pt" height="639pt"
 viewBox="0.00 0.00 788.50 639.00" xmlns="http://www.w3.org/2000/svg" xmlns:xlink="http://www.w3.org/1999/xlink">
<g id="graph0" class="graph" transform="scale(1 1) rotate(0) translate(4 635)">
<title>G</title>
<polygon fill="white" stroke="transparent" points="-4,4 -4,-635 784.5,-635 784.5,4 -4,4"/>
<!-- node0 -->
<g id="node1" class="node">
<title>node0</title>
<polygon fill="none" stroke="black" points="0,-577.5 0,-630.5 288,-630.5 288,-577.5 0,-577.5"/>
<text text-anchor="start" x="8" y="-615.3" font-family="Times,serif" font-size="14.00">Get simplify_outer_joins.public.l (u94)</text>
<text text-anchor="start" x="8" y="-600.3" font-family="Times,serif" font-size="14.00"> Filter !(isnull(#1))</text>
<text text-anchor="start" x="8" y="-585.3" font-family="Times,serif" font-size="14.00"> ArrangeBy (#1)</text>
</g>
<!-- node2 -->
<g id="node3" class="node">
<title>node2</title>
<polygon fill="none" stroke="black" points="134,-457.5 134,-525.5 460,-525.5 460,-457.5 134,-457.5"/>
<text text-anchor="start" x="142" y="-510.3" font-family="Times,serif" font-size="14.00">Let l0 =</text>
<text text-anchor="start" x="142" y="-495.3" font-family="Times,serif" font-size="14.00"> Join %0 %1 (= #1 #2)</text>
<text text-anchor="start" x="142" y="-480.3" font-family="Times,serif" font-size="14.00"> implementation = Differential %1 %0.(#1)</text>
<text text-anchor="start" x="142" y="-465.3" font-family="Times,serif" font-size="14.00"> Project (#0, #1, #3)</text>
</g>
<!-- node0&#45;&gt;node2 -->
<g id="edge10" class="edge">
<title>node0&#45;&gt;node2</title>
<path fill="none" stroke="black" d="M179.49,-577.37C198.35,-563.75 221.93,-546.72 243.01,-531.5"/>
<polygon fill="black" stroke="black" points="245.19,-534.23 251.25,-525.54 241.09,-528.56 245.19,-534.23"/>
<text text-anchor="start" x="226" y="-547.8" font-family="Times,serif" font-size="14.00">%0</text>
</g>
<!-- node1 -->
<g id="node2" class="node">
<title>node1</title>
<polygon fill="none" stroke="black" points="306,-585 306,-623 596,-623 596,-585 306,-585"/>
<text text-anchor="start" x="314" y="-607.8" font-family="Times,serif" font-size="14.00">Get simplify_outer_joins.public.r (u96)</text>
<text text-anchor="start" x="314" y="-592.8" font-family="Times,serif" font-size="14.00"> Filter !(isnull(#0))</text>
</g>
<!-- node1&#45;&gt;node2 -->
<g id="edge3" class="edge">
<title>node1&#45;&gt;node2</title>
<path fill="none" stroke="black" d="M425.57,-584.75C405.46,-570.32 376.67,-549.66 351.42,-531.55"/>
<polygon fill="black" stroke="black" points="353.18,-528.5 343.02,-525.52 349.1,-534.19 353.18,-528.5"/>
<text text-anchor="start" x="388" y="-547.8" font-family="Times,serif" font-size="14.00">%1</text>
</g>
<!-- node4 -->
<g id="node5" class="node">
<title>node4</title>
<polygon fill="none" stroke="black" points="613.5,-337.5 613.5,-405.5 780.5,-405.5 780.5,-337.5 613.5,-337.5"/>
<text text-anchor="start" x="621.5" y="-390.3" font-family="Times,serif" font-size="14.00">Get %2 (l0)</text>
<text text-anchor="start" x="621.5" y="-375.3" font-family="Times,serif" font-size="14.00"> Project (#1)</text>
<text text-anchor="start" x="621.5" y="-360.3" font-family="Times,serif" font-size="14.00"> Distinct group=(#0)</text>
<text text-anchor="start" x="621.5" y="-345.3" font-family="Times,serif" font-size="14.00"> ArrangeBy (#0)</text>
</g>
<!-- node2&#45;&gt;node4 -->
<g id="edge2" class="edge">
<title>node2&#45;&gt;node4</title>
<path fill="none" stroke="black" d="M426.56,-457.47C479.15,-443.44 540.56,-426.29 603.64,-406.37"/>
<polygon fill="black" stroke="black" points="604.89,-409.65 613.36,-403.28 602.77,-402.97 604.89,-409.65"/>
<text text-anchor="start" x="538" y="-427.8" font-family="Times,serif" font-size="14.00">%2</text>
</g>
<!-- node7 -->
<g id="node8" class="node">
<title>node7</title>
<polygon fill="none" stroke="black" points="189,-265.5 189,-318.5 387,-318.5 387,-265.5 189,-265.5"/>
<text text-anchor="start" x="197" y="-303.3" font-family="Times,serif" font-size="14.00">Get %2 (l0)</text>
<text text-anchor="start" x="197" y="-288.3" font-family="Times,serif" font-size="14.00"> Filter (#0 &lt; 42)</text>
<text text-anchor="start" x="197" y="-273.3" font-family="Times,serif" font-size="14.00"> Project (#0, #1, #1, #2)</text>
</g>
<!-- node2&#45;&gt;node7 -->
<g id="edge9" class="edge">
<title>node2&#45;&gt;node7</title>
<path fill="none" stroke="black" d="M295.4,-457.19C294.66,-441.64 293.77,-422.87 293,-406 291.81,-380.09 290.52,-350.84 289.55,-328.59"/>
<polygon fill="black" stroke="black" points="293.04,-328.42 289.11,-318.58 286.05,-328.73 293.04,-328.42"/>
<text text-anchor="start" x="295" y="-427.8" font-family="Times,serif" font-size="14.00">%2</text>
</g>
<!-- node3 -->
<g id="node4" class="node">
<title>node3</title>
<polygon fill="none" stroke="black" points="302.5,-345 302.5,-398 595.5,-398 595.5,-345 302.5,-345"/>
<text text-anchor="start" x="310.5" y="-382.8" font-family="Times,serif" font-size="14.00">Let l1 =</text>
<text text-anchor="start" x="310.5" y="-367.8" font-family="Times,serif" font-size="14.00"> Get simplify_outer_joins.public.l (u94)</text>
<text text-anchor="start" x="310.5" y="-352.8" font-family="Times,serif" font-size="14.00"> Filter (#0 &lt; 42)</text>
</g>
<!-- node5 -->
<g id="node6" class="node">
<title>node5</title>
<polygon fill="none" stroke="black" points="450,-178.5 450,-246.5 776,-246.5 776,-178.5 450,-178.5"/>
<text text-anchor="start" x="458" y="-231.3" font-family="Times,serif" font-size="14.00">Join %3 %4 (= #1 #2)</text>
<text text-anchor="start" x="458" y="-216.3" font-family="Times,serif" font-size="14.00"> implementation = Differential %3 %4.(#0)</text>
<text text-anchor="start" x="458" y="-201.3" font-family="Times,serif" font-size="14.00"> Project (#0, #1)</text>
<text text-anchor="start" x="458" y="-186.3" font-family="Times,serif" font-size="14.00"> Negate</text>
</g>
<!-- node3&#45;&gt;node5 -->
<g id="edge1" class="edge">
<title>node3&#45;&gt;node5</title>
<path fill="none" stroke="black" d="M475.71,-344.93C501.49,-320.25 540.89,-282.53 570.89,-253.81"/>
<polygon fill="black" stroke="black" points="573.49,-256.16 578.3,-246.72 568.65,-251.11 573.49,-256.16"/>
<text text-anchor="start" x="555" y="-288.3" font-family="Times,serif" font-size="14.00">%3</text>
</g>
<!-- node6 -->
<g id="node7" class="node">
<title>node6</title>
<polygon fill="none" stroke="black" points="349,-88.5 349,-126.5 469,-126.5 469,-88.5 349,-88.5"/>
<text text-anchor="start" x="357" y="-111.3" font-family="Times,serif" font-size="14.00">Union %5 %3</text>
<text text-anchor="start" x="357" y="-96.3" font-family="Times,serif" font-size="14.00"> Map null, null</text>
</g>
<!-- node3&#45;&gt;node6 -->
<g id="edge8" class="edge">
<title>node3&#45;&gt;node6</title>
<path fill="none" stroke="black" d="M441.09,-344.76C433.81,-319.97 423.37,-281.29 418,-247 412.07,-209.17 410.04,-164.94 409.34,-136.83"/>
<polygon fill="black" stroke="black" points="412.84,-136.47 409.13,-126.54 405.84,-136.61 412.84,-136.47"/>
<text text-anchor="start" x="418" y="-208.8" font-family="Times,serif" font-size="14.00">%3</text>
</g>
<!-- node4&#45;&gt;node5 -->
<g id="edge7" class="edge">
<title>node4&#45;&gt;node5</title>
<path fill="none" stroke="black" d="M679.19,-337.2C666.49,-313.48 649.32,-281.39 635.65,-255.84"/>
<polygon fill="black" stroke="black" points="638.59,-253.91 630.79,-246.75 632.42,-257.22 638.59,-253.91"/>
<text text-anchor="start" x="667" y="-288.3" font-family="Times,serif" font-size="14.00">%4</text>
</g>
<!-- node5&#45;&gt;node6 -->
<g id="edge5" class="edge">
<title>node5&#45;&gt;node6</title>
<path fill="none" stroke="black" d="M547.61,-178.49C517.04,-163.05 481.4,-145.06 453.92,-131.18"/>
<polygon fill="black" stroke="black" points="455.44,-128.03 444.93,-126.64 452.28,-134.27 455.44,-128.03"/>
<text text-anchor="start" x="511" y="-148.8" font-family="Times,serif" font-size="14.00">%5</text>
</g>
<!-- node8 -->
<g id="node9" class="node">
<title>node8</title>
<polygon fill="none" stroke="black" points="267.5,-0.5 267.5,-36.5 380.5,-36.5 380.5,-0.5 267.5,-0.5"/>
<text text-anchor="start" x="275.5" y="-14.8" font-family="Times,serif" font-size="14.00">Union %6 %7</text>
</g>
<!-- node6&#45;&gt;node8 -->
<g id="edge6" class="edge">
<title>node6&#45;&gt;node8</title>
<path fill="none" stroke="black" d="M391.39,-88.47C378.83,-75.62 361.8,-58.19 348.01,-44.07"/>
<polygon fill="black" stroke="black" points="350.21,-41.32 340.72,-36.62 345.21,-46.21 350.21,-41.32"/>
<text text-anchor="start" x="372" y="-58.8" font-family="Times,serif" font-size="14.00">%6</text>
</g>
<!-- node7&#45;&gt;node8 -->
<g id="edge4" class="edge">
<title>node7&#45;&gt;node8</title>
<path fill="none" stroke="black" d="M291.39,-265.46C298.18,-214.21 313.43,-99.25 320.4,-46.68"/>
<polygon fill="black" stroke="black" points="323.87,-47.11 321.71,-36.74 316.93,-46.19 323.87,-47.11"/>
<text text-anchor="start" x="307" y="-148.8" font-family="Times,serif" font-size="14.00">%7</text>
</g>
</g>
</svg>
