<?xml version="1.0" encoding="UTF-8" standalone="no"?>
<!DOCTYPE svg PUBLIC "-//W3C//DTD SVG 1.1//EN"
 "http://www.w3.org/Graphics/SVG/1.1/DTD/svg11.dtd">
<!-- Generated by graphviz version 2.43.0 (0)
 -->
<!-- Title: G Pages: 1 -->
<svg width="1077pt" height="1307pt"
 viewBox="0.00 0.00 1076.50 1307.00" xmlns="http://www.w3.org/2000/svg" xmlns:xlink="http://www.w3.org/1999/xlink">
<g id="graph0" class="graph" transform="scale(1 1) rotate(0) translate(4 1303)">
<title>G</title>
<polygon fill="white" stroke="transparent" points="-4,4 -4,-1303 1072.5,-1303 1072.5,4 -4,4"/>
<!-- node0 -->
<g id="node1" class="node">
<title>node0</title>
<polygon fill="none" stroke="black" points="436.5,-1230.5 436.5,-1298.5 537.5,-1298.5 537.5,-1230.5 436.5,-1230.5"/>
<text text-anchor="start" x="444.5" y="-1283.3" font-family="Times,serif" font-size="14.00">Let l0 =</text>
<text text-anchor="start" x="444.5" y="-1268.3" font-family="Times,serif" font-size="14.00"> Constant ()</text>
<text text-anchor="start" x="444.5" y="-1253.3" font-family="Times,serif" font-size="14.00"> types = ()</text>
<text text-anchor="start" x="444.5" y="-1238.3" font-family="Times,serif" font-size="14.00"> keys = (())</text>
</g>
<!-- node2 -->
<g id="node3" class="node">
<title>node2</title>
<polygon fill="none" stroke="black" points="87.5,-1095.5 87.5,-1178.5 356.5,-1178.5 356.5,-1095.5 87.5,-1095.5"/>
<text text-anchor="start" x="95.5" y="-1163.3" font-family="Times,serif" font-size="14.00">Let l1 =</text>
<text text-anchor="start" x="95.5" y="-1148.3" font-family="Times,serif" font-size="14.00"> Join %0 %1</text>
<text text-anchor="start" x="95.5" y="-1133.3" font-family="Times,serif" font-size="14.00"> implementation = Unimplemented</text>
<text text-anchor="start" x="95.5" y="-1118.3" font-family="Times,serif" font-size="14.00"> types = (integer?, integer?)</text>
<text text-anchor="start" x="95.5" y="-1103.3" font-family="Times,serif" font-size="14.00"> keys = ()</text>
</g>
<!-- node0&#45;&gt;node2 -->
<g id="edge3" class="edge">
<title>node0&#45;&gt;node2</title>
<path fill="none" stroke="black" d="M436.22,-1239.45C402.41,-1223.44 356.95,-1201.91 316.6,-1182.8"/>
<polygon fill="black" stroke="black" points="318.08,-1179.63 307.54,-1178.51 315.08,-1185.96 318.08,-1179.63"/>
<text text-anchor="start" x="378" y="-1200.8" font-family="Times,serif" font-size="14.00">%0</text>
</g>
<!-- node4 -->
<g id="node5" class="node">
<title>node4</title>
<polygon fill="none" stroke="black" points="592.5,-1095.5 592.5,-1178.5 861.5,-1178.5 861.5,-1095.5 592.5,-1095.5"/>
<text text-anchor="start" x="600.5" y="-1163.3" font-family="Times,serif" font-size="14.00">Let l2 =</text>
<text text-anchor="start" x="600.5" y="-1148.3" font-family="Times,serif" font-size="14.00"> Join %0 %3</text>
<text text-anchor="start" x="600.5" y="-1133.3" font-family="Times,serif" font-size="14.00"> implementation = Unimplemented</text>
<text text-anchor="start" x="600.5" y="-1118.3" font-family="Times,serif" font-size="14.00"> types = (integer?, integer)</text>
<text text-anchor="start" x="600.5" y="-1103.3" font-family="Times,serif" font-size="14.00"> keys = ()</text>
</g>
<!-- node0&#45;&gt;node4 -->
<g id="edge15" class="edge">
<title>node0&#45;&gt;node4</title>
<path fill="none" stroke="black" d="M537.6,-1237.04C567.4,-1221.46 605.89,-1201.33 640.38,-1183.3"/>
<polygon fill="black" stroke="black" points="642.28,-1186.25 649.52,-1178.51 639.04,-1180.05 642.28,-1186.25"/>
<text text-anchor="start" x="607" y="-1200.8" font-family="Times,serif" font-size="14.00">%0</text>
</g>
<!-- node1 -->
<g id="node2" class="node">
<title>node1</title>
<polygon fill="none" stroke="black" points="78,-1238 78,-1291 366,-1291 366,-1238 78,-1238"/>
<text text-anchor="start" x="86" y="-1275.8" font-family="Times,serif" font-size="14.00">Get simplify_outer_joins.public.l (u95)</text>
<text text-anchor="start" x="86" y="-1260.8" font-family="Times,serif" font-size="14.00"> types = (integer?, integer?)</text>
<text text-anchor="start" x="86" y="-1245.8" font-family="Times,serif" font-size="14.00"> keys = ()</text>
</g>
<!-- node1&#45;&gt;node2 -->
<g id="edge17" class="edge">
<title>node1&#45;&gt;node2</title>
<path fill="none" stroke="black" d="M222,-1237.8C222,-1223.79 222,-1205.93 222,-1189.2"/>
<polygon fill="black" stroke="black" points="225.5,-1188.98 222,-1178.98 218.5,-1188.98 225.5,-1188.98"/>
<text text-anchor="start" x="222" y="-1200.8" font-family="Times,serif" font-size="14.00">%1</text>
</g>
<!-- node5 -->
<g id="node6" class="node">
<title>node5</title>
<polygon fill="none" stroke="black" points="324,-870.5 324,-1043.5 672,-1043.5 672,-870.5 324,-870.5"/>
<text text-anchor="start" x="332" y="-1028.3" font-family="Times,serif" font-size="14.00">Let l3 =</text>
<text text-anchor="start" x="332" y="-1013.3" font-family="Times,serif" font-size="14.00"> Join %2 %4</text>
<text text-anchor="start" x="332" y="-998.3" font-family="Times,serif" font-size="14.00"> implementation = Unimplemented</text>
<text text-anchor="start" x="332" y="-983.3" font-family="Times,serif" font-size="14.00"> types = (integer?, integer?, integer?, integer)</text>
<text text-anchor="start" x="332" y="-968.3" font-family="Times,serif" font-size="14.00"> keys = ()</text>
<text text-anchor="start" x="332" y="-953.3" font-family="Times,serif" font-size="14.00"> Project (#0..=#3)</text>
<text text-anchor="start" x="332" y="-938.3" font-family="Times,serif" font-size="14.00"> types = (integer?, integer?, integer?, integer)</text>
<text text-anchor="start" x="332" y="-923.3" font-family="Times,serif" font-size="14.00"> keys = ()</text>
<text text-anchor="start" x="332" y="-908.3" font-family="Times,serif" font-size="14.00"> Filter (#1 = #2)</text>
<text text-anchor="start" x="332" y="-893.3" font-family="Times,serif" font-size="14.00"> types = (integer?, integer, integer, integer)</text>
<text text-anchor="start" x="332" y="-878.3" font-family="Times,serif" font-size="14.00"> keys = ()</text>
</g>
<!-- node2&#45;&gt;node5 -->
<g id="edge2" class="edge">
<title>node2&#45;&gt;node5</title>
<path fill="none" stroke="black" d="M284.97,-1095.39C306.49,-1081.51 331.49,-1065.38 356.65,-1049.16"/>
<polygon fill="black" stroke="black" points="358.67,-1052.02 365.18,-1043.66 354.88,-1046.14 358.67,-1052.02"/>
<text text-anchor="start" x="336" y="-1065.8" font-family="Times,serif" font-size="14.00">%2</text>
</g>
<!-- node9 -->
<g id="node10" class="node">
<title>node9</title>
<polygon fill="none" stroke="black" points="68,-450.5 68,-608.5 348,-608.5 348,-450.5 68,-450.5"/>
<text text-anchor="start" x="76" y="-593.3" font-family="Times,serif" font-size="14.00">Join %2 %6 (= #1 #2)</text>
<text text-anchor="start" x="76" y="-578.3" font-family="Times,serif" font-size="14.00"> implementation = Unimplemented</text>
<text text-anchor="start" x="76" y="-563.3" font-family="Times,serif" font-size="14.00"> types = (integer?, integer?, integer)</text>
<text text-anchor="start" x="76" y="-548.3" font-family="Times,serif" font-size="14.00"> keys = ()</text>
<text text-anchor="start" x="76" y="-533.3" font-family="Times,serif" font-size="14.00"> Project (#0, #1)</text>
<text text-anchor="start" x="76" y="-518.3" font-family="Times,serif" font-size="14.00"> types = (integer?, integer?)</text>
<text text-anchor="start" x="76" y="-503.3" font-family="Times,serif" font-size="14.00"> keys = ()</text>
<text text-anchor="start" x="76" y="-488.3" font-family="Times,serif" font-size="14.00"> Negate</text>
<text text-anchor="start" x="76" y="-473.3" font-family="Times,serif" font-size="14.00"> types = (integer?, integer?)</text>
<text text-anchor="start" x="76" y="-458.3" font-family="Times,serif" font-size="14.00"> keys = ()</text>
</g>
<!-- node2&#45;&gt;node9 -->
<g id="edge19" class="edge">
<title>node2&#45;&gt;node9</title>
<path fill="none" stroke="black" d="M221.06,-1095.33C218.82,-998.36 213.12,-751.73 210.04,-618.72"/>
<polygon fill="black" stroke="black" points="213.54,-618.48 209.8,-608.56 206.54,-618.64 213.54,-618.48"/>
<text text-anchor="start" x="216" y="-840.8" font-family="Times,serif" font-size="14.00">%2</text>
</g>
<!-- node10 -->
<g id="node11" class="node">
<title>node10</title>
<polygon fill="none" stroke="black" points="0,-278 0,-376 356,-376 356,-278 0,-278"/>
<text text-anchor="start" x="8" y="-360.8" font-family="Times,serif" font-size="14.00">Union %9 %2</text>
<text text-anchor="start" x="8" y="-345.8" font-family="Times,serif" font-size="14.00"> types = (integer?, integer?)</text>
<text text-anchor="start" x="8" y="-330.8" font-family="Times,serif" font-size="14.00"> keys = ()</text>
<text text-anchor="start" x="8" y="-315.8" font-family="Times,serif" font-size="14.00"> Map null, null</text>
<text text-anchor="start" x="8" y="-300.8" font-family="Times,serif" font-size="14.00"> types = (integer?, integer?, integer?, integer?)</text>
<text text-anchor="start" x="8" y="-285.8" font-family="Times,serif" font-size="14.00"> keys = ()</text>
</g>
<!-- node2&#45;&gt;node10 -->
<g id="edge18" class="edge">
<title>node2&#45;&gt;node10</title>
<path fill="none" stroke="black" d="M140.32,-1095.46C91.93,-1065.1 40,-1018.44 40,-958 40,-958 40,-958 40,-528.5 40,-492.6 41.63,-481.41 59,-450 72.58,-425.44 92.44,-402.33 112.05,-382.97"/>
<polygon fill="black" stroke="black" points="114.49,-385.48 119.25,-376.01 109.63,-380.44 114.49,-385.48"/>
<text text-anchor="start" x="40" y="-735.8" font-family="Times,serif" font-size="14.00">%2</text>
</g>
<!-- node3 -->
<g id="node4" class="node">
<title>node3</title>
<polygon fill="none" stroke="black" points="582,-1238 582,-1291 872,-1291 872,-1238 582,-1238"/>
<text text-anchor="start" x="590" y="-1275.8" font-family="Times,serif" font-size="14.00">Get simplify_outer_joins.public.r (u97)</text>
<text text-anchor="start" x="590" y="-1260.8" font-family="Times,serif" font-size="14.00"> types = (integer?, integer)</text>
<text text-anchor="start" x="590" y="-1245.8" font-family="Times,serif" font-size="14.00"> keys = ()</text>
</g>
<!-- node3&#45;&gt;node4 -->
<g id="edge7" class="edge">
<title>node3&#45;&gt;node4</title>
<path fill="none" stroke="black" d="M727,-1237.8C727,-1223.79 727,-1205.93 727,-1189.2"/>
<polygon fill="black" stroke="black" points="730.5,-1188.98 727,-1178.98 723.5,-1188.98 730.5,-1188.98"/>
<text text-anchor="start" x="727" y="-1200.8" font-family="Times,serif" font-size="14.00">%3</text>
</g>
<!-- node4&#45;&gt;node5 -->
<g id="edge5" class="edge">
<title>node4&#45;&gt;node5</title>
<path fill="none" stroke="black" d="M674.75,-1095.39C657.27,-1081.8 637.01,-1066.05 616.57,-1050.17"/>
<polygon fill="black" stroke="black" points="618.48,-1047.21 608.43,-1043.84 614.18,-1052.74 618.48,-1047.21"/>
<text text-anchor="start" x="646" y="-1065.8" font-family="Times,serif" font-size="14.00">%4</text>
</g>
<!-- node7 -->
<g id="node8" class="node">
<title>node7</title>
<polygon fill="none" stroke="black" points="797.5,-450.5 797.5,-608.5 1068.5,-608.5 1068.5,-450.5 797.5,-450.5"/>
<text text-anchor="start" x="805.5" y="-593.3" font-family="Times,serif" font-size="14.00">Join %4 %6 (= #0 #2)</text>
<text text-anchor="start" x="805.5" y="-578.3" font-family="Times,serif" font-size="14.00"> implementation = Unimplemented</text>
<text text-anchor="start" x="805.5" y="-563.3" font-family="Times,serif" font-size="14.00"> types = (integer?, integer, integer)</text>
<text text-anchor="start" x="805.5" y="-548.3" font-family="Times,serif" font-size="14.00"> keys = ()</text>
<text text-anchor="start" x="805.5" y="-533.3" font-family="Times,serif" font-size="14.00"> Project (#0, #1)</text>
<text text-anchor="start" x="805.5" y="-518.3" font-family="Times,serif" font-size="14.00"> types = (integer?, integer)</text>
<text text-anchor="start" x="805.5" y="-503.3" font-family="Times,serif" font-size="14.00"> keys = ()</text>
<text text-anchor="start" x="805.5" y="-488.3" font-family="Times,serif" font-size="14.00"> Negate</text>
<text text-anchor="start" x="805.5" y="-473.3" font-family="Times,serif" font-size="14.00"> types = (integer?, integer)</text>
<text text-anchor="start" x="805.5" y="-458.3" font-family="Times,serif" font-size="14.00"> keys = ()</text>
</g>
<!-- node4&#45;&gt;node7 -->
<g id="edge16" class="edge">
<title>node4&#45;&gt;node7</title>
<path fill="none" stroke="black" d="M770.13,-1095.5C774.94,-1089.63 779.39,-1083.4 783,-1077 866.64,-928.73 905.74,-731.23 922.3,-618.78"/>
<polygon fill="black" stroke="black" points="925.77,-619.24 923.74,-608.84 918.84,-618.24 925.77,-619.24"/>
<text text-anchor="start" x="876" y="-840.8" font-family="Times,serif" font-size="14.00">%4</text>
</g>
<!-- node8 -->
<g id="node9" class="node">
<title>node8</title>
<polygon fill="none" stroke="black" points="595,-255.5 595,-398.5 943,-398.5 943,-255.5 595,-255.5"/>
<text text-anchor="start" x="603" y="-383.3" font-family="Times,serif" font-size="14.00">Union %7 %4</text>
<text text-anchor="start" x="603" y="-368.3" font-family="Times,serif" font-size="14.00"> types = (integer?, integer)</text>
<text text-anchor="start" x="603" y="-353.3" font-family="Times,serif" font-size="14.00"> keys = ()</text>
<text text-anchor="start" x="603" y="-338.3" font-family="Times,serif" font-size="14.00"> Map null, null</text>
<text text-anchor="start" x="603" y="-323.3" font-family="Times,serif" font-size="14.00"> types = (integer?, integer, integer?, integer?)</text>
<text text-anchor="start" x="603" y="-308.3" font-family="Times,serif" font-size="14.00"> keys = ()</text>
<text text-anchor="start" x="603" y="-293.3" font-family="Times,serif" font-size="14.00"> Project (#2, #3, #0, #1)</text>
<text text-anchor="start" x="603" y="-278.3" font-family="Times,serif" font-size="14.00"> types = (integer?, integer?, integer?, integer)</text>
<text text-anchor="start" x="603" y="-263.3" font-family="Times,serif" font-size="14.00"> keys = ()</text>
</g>
<!-- node4&#45;&gt;node8 -->
<g id="edge1" class="edge">
<title>node4&#45;&gt;node8</title>
<path fill="none" stroke="black" d="M742.28,-1095.28C754.29,-1059.61 769,-1006.1 769,-958 769,-958 769,-958 769,-528.5 769,-489.05 769,-445.23 769,-408.64"/>
<polygon fill="black" stroke="black" points="772.5,-408.52 769,-398.52 765.5,-408.52 772.5,-408.52"/>
<text text-anchor="start" x="769" y="-735.8" font-family="Times,serif" font-size="14.00">%4</text>
</g>
<!-- node6 -->
<g id="node7" class="node">
<title>node6</title>
<polygon fill="none" stroke="black" points="403,-660.5 403,-818.5 733,-818.5 733,-660.5 403,-660.5"/>
<text text-anchor="start" x="411" y="-803.3" font-family="Times,serif" font-size="14.00">Let l4 =</text>
<text text-anchor="start" x="411" y="-788.3" font-family="Times,serif" font-size="14.00"> Get %5 (l3)</text>
<text text-anchor="start" x="411" y="-773.3" font-family="Times,serif" font-size="14.00"> types = (integer?, integer, integer, integer)</text>
<text text-anchor="start" x="411" y="-758.3" font-family="Times,serif" font-size="14.00"> keys = ()</text>
<text text-anchor="start" x="411" y="-743.3" font-family="Times,serif" font-size="14.00"> Project (#1)</text>
<text text-anchor="start" x="411" y="-728.3" font-family="Times,serif" font-size="14.00"> types = (integer)</text>
<text text-anchor="start" x="411" y="-713.3" font-family="Times,serif" font-size="14.00"> keys = ()</text>
<text text-anchor="start" x="411" y="-698.3" font-family="Times,serif" font-size="14.00"> Distinct group=(#0)</text>
<text text-anchor="start" x="411" y="-683.3" font-family="Times,serif" font-size="14.00"> types = (integer)</text>
<text text-anchor="start" x="411" y="-668.3" font-family="Times,serif" font-size="14.00"> keys = ((#0))</text>
</g>
<!-- node5&#45;&gt;node6 -->
<g id="edge9" class="edge">
<title>node5&#45;&gt;node6</title>
<path fill="none" stroke="black" d="M525.87,-870.21C530.36,-856.38 535.01,-842.05 539.52,-828.18"/>
<polygon fill="black" stroke="black" points="542.85,-829.25 542.61,-818.66 536.19,-827.09 542.85,-829.25"/>
<text text-anchor="start" x="535" y="-840.8" font-family="Times,serif" font-size="14.00">%5</text>
</g>
<!-- node11 -->
<g id="node12" class="node">
<title>node11</title>
<polygon fill="none" stroke="black" points="206,-150.5 206,-203.5 562,-203.5 562,-150.5 206,-150.5"/>
<text text-anchor="start" x="214" y="-188.3" font-family="Times,serif" font-size="14.00">Union %10 %5</text>
<text text-anchor="start" x="214" y="-173.3" font-family="Times,serif" font-size="14.00"> types = (integer?, integer?, integer?, integer?)</text>
<text text-anchor="start" x="214" y="-158.3" font-family="Times,serif" font-size="14.00"> keys = ()</text>
</g>
<!-- node5&#45;&gt;node11 -->
<g id="edge8" class="edge">
<title>node5&#45;&gt;node11</title>
<path fill="none" stroke="black" d="M420.26,-870.13C409.56,-854.11 400.14,-836.78 394,-819 355.03,-706.14 374.36,-332.22 381.64,-214.09"/>
<polygon fill="black" stroke="black" points="385.15,-213.99 382.28,-203.79 378.16,-213.56 385.15,-213.99"/>
<text text-anchor="start" x="371" y="-525.8" font-family="Times,serif" font-size="14.00">%5</text>
</g>
<!-- node6&#45;&gt;node7 -->
<g id="edge10" class="edge">
<title>node6&#45;&gt;node7</title>
<path fill="none" stroke="black" d="M704.95,-660.46C732.24,-644.91 760.98,-628.53 788.51,-612.84"/>
<polygon fill="black" stroke="black" points="790.45,-615.76 797.4,-607.77 786.98,-609.68 790.45,-615.76"/>
<text text-anchor="start" x="761" y="-630.8" font-family="Times,serif" font-size="14.00">%6</text>
</g>
<!-- node6&#45;&gt;node9 -->
<g id="edge13" class="edge">
<title>node6&#45;&gt;node9</title>
<path fill="none" stroke="black" d="M432.93,-660.46C406.58,-645.23 378.85,-629.22 352.22,-613.83"/>
<polygon fill="black" stroke="black" points="353.64,-610.61 343.23,-608.63 350.14,-616.67 353.64,-610.61"/>
<text text-anchor="start" x="398" y="-630.8" font-family="Times,serif" font-size="14.00">%6</text>
</g>
<!-- node7&#45;&gt;node8 -->
<g id="edge14" class="edge">
<title>node7&#45;&gt;node8</title>
<path fill="none" stroke="black" d="M869.12,-450.41C857.36,-436.03 845.08,-421.01 833.3,-406.61"/>
<polygon fill="black" stroke="black" points="835.86,-404.21 826.82,-398.69 830.44,-408.64 835.86,-404.21"/>
<text text-anchor="start" x="851" y="-420.8" font-family="Times,serif" font-size="14.00">%7</text>
</g>
<!-- node12 -->
<g id="node13" class="node">
<title>node12</title>
<polygon fill="none" stroke="black" points="389,-0.5 389,-98.5 745,-98.5 745,-0.5 389,-0.5"/>
<text text-anchor="start" x="397" y="-83.3" font-family="Times,serif" font-size="14.00">Union %8 %11</text>
<text text-anchor="start" x="397" y="-68.3" font-family="Times,serif" font-size="14.00"> types = (integer?, integer?, integer?, integer?)</text>
<text text-anchor="start" x="397" y="-53.3" font-family="Times,serif" font-size="14.00"> keys = ()</text>
<text text-anchor="start" x="397" y="-38.3" font-family="Times,serif" font-size="14.00"> Filter (#0 &lt; 42)</text>
<text text-anchor="start" x="397" y="-23.3" font-family="Times,serif" font-size="14.00"> types = (integer, integer?, integer?, integer?)</text>
<text text-anchor="start" x="397" y="-8.3" font-family="Times,serif" font-size="14.00"> keys = ()</text>
</g>
<!-- node8&#45;&gt;node12 -->
<g id="edge12" class="edge">
<title>node8&#45;&gt;node12</title>
<path fill="none" stroke="black" d="M717.24,-255.41C683.42,-209.28 639.84,-149.84 608.34,-106.88"/>
<polygon fill="black" stroke="black" points="611.14,-104.78 602.4,-98.78 605.49,-108.92 611.14,-104.78"/>
<text text-anchor="start" x="678" y="-173.3" font-family="Times,serif" font-size="14.00">%8</text>
</g>
<!-- node9&#45;&gt;node10 -->
<g id="edge4" class="edge">
<title>node9&#45;&gt;node10</title>
<path fill="none" stroke="black" d="M196.32,-450.41C193.11,-428.96 189.68,-406.09 186.68,-385.99"/>
<polygon fill="black" stroke="black" points="190.13,-385.44 185.19,-376.06 183.21,-386.47 190.13,-385.44"/>
<text text-anchor="start" x="193" y="-420.8" font-family="Times,serif" font-size="14.00">%9</text>
</g>
<!-- node10&#45;&gt;node11 -->
<g id="edge11" class="edge">
<title>node10&#45;&gt;node11</title>
<path fill="none" stroke="black" d="M244.88,-277.95C276.08,-255.54 312.33,-229.49 340.01,-209.6"/>
<polygon fill="black" stroke="black" points="342.23,-212.32 348.31,-203.64 338.15,-206.63 342.23,-212.32"/>
<text text-anchor="start" x="318" y="-225.8" font-family="Times,serif" font-size="14.00">%10</text>
</g>
<!-- node11&#45;&gt;node12 -->
<g id="edge6" class="edge">
<title>node11&#45;&gt;node12</title>
<path fill="none" stroke="black" d="M421.47,-150.3C440.75,-137.08 465.02,-120.44 488.17,-104.56"/>
<polygon fill="black" stroke="black" points="490.38,-107.29 496.65,-98.75 486.42,-101.52 490.38,-107.29"/>
<text text-anchor="start" x="470" y="-120.8" font-family="Times,serif" font-size="14.00">%11</text>
</g>
</g>
</svg>
