<?xml version="1.0" encoding="UTF-8" standalone="no"?>
<!DOCTYPE svg PUBLIC "-//W3C//DTD SVG 1.1//EN"
 "http://www.w3.org/Graphics/SVG/1.1/DTD/svg11.dtd">
<!-- Generated by graphviz version 2.43.0 (0)
 -->
<!-- Title: G Pages: 1 -->
<svg width="815pt" height="1337pt"
 viewBox="0.00 0.00 814.50 1337.00" xmlns="http://www.w3.org/2000/svg" xmlns:xlink="http://www.w3.org/1999/xlink">
<g id="graph0" class="graph" transform="scale(1 1) rotate(0) translate(4 1333)">
<title>G</title>
<polygon fill="white" stroke="transparent" points="-4,4 -4,-1333 810.5,-1333 810.5,4 -4,4"/>
<!-- node0 -->
<g id="node1" class="node">
<title>node0</title>
<polygon fill="none" stroke="black" points="306.5,-1260.5 306.5,-1328.5 407.5,-1328.5 407.5,-1260.5 306.5,-1260.5"/>
<text text-anchor="start" x="314.5" y="-1313.3" font-family="Times,serif" font-size="14.00">Let l0 =</text>
<text text-anchor="start" x="314.5" y="-1298.3" font-family="Times,serif" font-size="14.00"> Constant ()</text>
<text text-anchor="start" x="314.5" y="-1283.3" font-family="Times,serif" font-size="14.00"> types = ()</text>
<text text-anchor="start" x="314.5" y="-1268.3" font-family="Times,serif" font-size="14.00"> keys = (())</text>
</g>
<!-- node2 -->
<g id="node3" class="node">
<title>node2</title>
<polygon fill="none" stroke="black" points="79.5,-1125.5 79.5,-1208.5 348.5,-1208.5 348.5,-1125.5 79.5,-1125.5"/>
<text text-anchor="start" x="87.5" y="-1193.3" font-family="Times,serif" font-size="14.00">Let l1 =</text>
<text text-anchor="start" x="87.5" y="-1178.3" font-family="Times,serif" font-size="14.00"> Join %0 %1</text>
<text text-anchor="start" x="87.5" y="-1163.3" font-family="Times,serif" font-size="14.00"> implementation = Unimplemented</text>
<text text-anchor="start" x="87.5" y="-1148.3" font-family="Times,serif" font-size="14.00"> types = (integer?, integer?)</text>
<text text-anchor="start" x="87.5" y="-1133.3" font-family="Times,serif" font-size="14.00"> keys = ()</text>
</g>
<!-- node0&#45;&gt;node2 -->
<g id="edge11" class="edge">
<title>node0&#45;&gt;node2</title>
<path fill="none" stroke="black" d="M319.05,-1260.2C303.41,-1246.47 285,-1230.31 267.99,-1215.39"/>
<polygon fill="black" stroke="black" points="270.12,-1212.59 260.29,-1208.63 265.5,-1217.86 270.12,-1212.59"/>
<text text-anchor="start" x="298" y="-1230.8" font-family="Times,serif" font-size="14.00">%0</text>
</g>
<!-- node4 -->
<g id="node5" class="node">
<title>node4</title>
<polygon fill="none" stroke="black" points="366.5,-1125.5 366.5,-1208.5 635.5,-1208.5 635.5,-1125.5 366.5,-1125.5"/>
<text text-anchor="start" x="374.5" y="-1193.3" font-family="Times,serif" font-size="14.00">Let l2 =</text>
<text text-anchor="start" x="374.5" y="-1178.3" font-family="Times,serif" font-size="14.00"> Join %0 %3</text>
<text text-anchor="start" x="374.5" y="-1163.3" font-family="Times,serif" font-size="14.00"> implementation = Unimplemented</text>
<text text-anchor="start" x="374.5" y="-1148.3" font-family="Times,serif" font-size="14.00"> types = (integer?, integer)</text>
<text text-anchor="start" x="374.5" y="-1133.3" font-family="Times,serif" font-size="14.00"> keys = ()</text>
</g>
<!-- node0&#45;&gt;node4 -->
<g id="edge7" class="edge">
<title>node0&#45;&gt;node4</title>
<path fill="none" stroke="black" d="M395.21,-1260.2C410.96,-1246.47 429.51,-1230.31 446.63,-1215.39"/>
<polygon fill="black" stroke="black" points="449.14,-1217.84 454.38,-1208.63 444.54,-1212.56 449.14,-1217.84"/>
<text text-anchor="start" x="429" y="-1230.8" font-family="Times,serif" font-size="14.00">%0</text>
</g>
<!-- node1 -->
<g id="node2" class="node">
<title>node1</title>
<polygon fill="none" stroke="black" points="0,-1268 0,-1321 288,-1321 288,-1268 0,-1268"/>
<text text-anchor="start" x="8" y="-1305.8" font-family="Times,serif" font-size="14.00">Get simplify_outer_joins.public.l (u94)</text>
<text text-anchor="start" x="8" y="-1290.8" font-family="Times,serif" font-size="14.00"> types = (integer?, integer?)</text>
<text text-anchor="start" x="8" y="-1275.8" font-family="Times,serif" font-size="14.00"> keys = ()</text>
</g>
<!-- node1&#45;&gt;node2 -->
<g id="edge2" class="edge">
<title>node1&#45;&gt;node2</title>
<path fill="none" stroke="black" d="M158.33,-1267.8C166.37,-1253.39 176.68,-1234.91 186.23,-1217.79"/>
<polygon fill="black" stroke="black" points="189.33,-1219.42 191.14,-1208.98 183.21,-1216.01 189.33,-1219.42"/>
<text text-anchor="start" x="179" y="-1230.8" font-family="Times,serif" font-size="14.00">%1</text>
</g>
<!-- node5 -->
<g id="node6" class="node">
<title>node5</title>
<polygon fill="none" stroke="black" points="297,-900.5 297,-1073.5 645,-1073.5 645,-900.5 297,-900.5"/>
<text text-anchor="start" x="305" y="-1058.3" font-family="Times,serif" font-size="14.00">Let l3 =</text>
<text text-anchor="start" x="305" y="-1043.3" font-family="Times,serif" font-size="14.00"> Join %2 %4</text>
<text text-anchor="start" x="305" y="-1028.3" font-family="Times,serif" font-size="14.00"> implementation = Unimplemented</text>
<text text-anchor="start" x="305" y="-1013.3" font-family="Times,serif" font-size="14.00"> types = (integer?, integer?, integer?, integer)</text>
<text text-anchor="start" x="305" y="-998.3" font-family="Times,serif" font-size="14.00"> keys = ()</text>
<text text-anchor="start" x="305" y="-983.3" font-family="Times,serif" font-size="14.00"> Project (#0..#3)</text>
<text text-anchor="start" x="305" y="-968.3" font-family="Times,serif" font-size="14.00"> types = (integer?, integer?, integer?, integer)</text>
<text text-anchor="start" x="305" y="-953.3" font-family="Times,serif" font-size="14.00"> keys = ()</text>
<text text-anchor="start" x="305" y="-938.3" font-family="Times,serif" font-size="14.00"> Filter (#1 = #2)</text>
<text text-anchor="start" x="305" y="-923.3" font-family="Times,serif" font-size="14.00"> types = (integer?, integer, integer, integer)</text>
<text text-anchor="start" x="305" y="-908.3" font-family="Times,serif" font-size="14.00"> keys = ()</text>
</g>
<!-- node2&#45;&gt;node5 -->
<g id="edge9" class="edge">
<title>node2&#45;&gt;node5</title>
<path fill="none" stroke="black" d="M272.64,-1125.39C292.58,-1111.57 315.75,-1095.52 339.07,-1079.37"/>
<polygon fill="black" stroke="black" points="341.1,-1082.23 347.33,-1073.66 337.11,-1076.47 341.1,-1082.23"/>
<text text-anchor="start" x="319" y="-1095.8" font-family="Times,serif" font-size="14.00">%2</text>
</g>
<!-- node7 -->
<g id="node8" class="node">
<title>node7</title>
<polygon fill="none" stroke="black" points="248,-480.5 248,-638.5 528,-638.5 528,-480.5 248,-480.5"/>
<text text-anchor="start" x="256" y="-623.3" font-family="Times,serif" font-size="14.00">Join %2 %6 (= #1 #2)</text>
<text text-anchor="start" x="256" y="-608.3" font-family="Times,serif" font-size="14.00"> implementation = Unimplemented</text>
<text text-anchor="start" x="256" y="-593.3" font-family="Times,serif" font-size="14.00"> types = (integer?, integer?, integer)</text>
<text text-anchor="start" x="256" y="-578.3" font-family="Times,serif" font-size="14.00"> keys = ()</text>
<text text-anchor="start" x="256" y="-563.3" font-family="Times,serif" font-size="14.00"> Project (#0, #1)</text>
<text text-anchor="start" x="256" y="-548.3" font-family="Times,serif" font-size="14.00"> types = (integer?, integer?)</text>
<text text-anchor="start" x="256" y="-533.3" font-family="Times,serif" font-size="14.00"> keys = ()</text>
<text text-anchor="start" x="256" y="-518.3" font-family="Times,serif" font-size="14.00"> Negate</text>
<text text-anchor="start" x="256" y="-503.3" font-family="Times,serif" font-size="14.00"> types = (integer?, integer?)</text>
<text text-anchor="start" x="256" y="-488.3" font-family="Times,serif" font-size="14.00"> keys = ()</text>
</g>
<!-- node2&#45;&gt;node7 -->
<g id="edge8" class="edge">
<title>node2&#45;&gt;node7</title>
<path fill="none" stroke="black" d="M214.35,-1125.29C215.77,-1024.66 222.94,-766.83 259,-690 266.21,-674.63 276.05,-660.03 287.09,-646.55"/>
<polygon fill="black" stroke="black" points="289.91,-648.63 293.72,-638.74 284.58,-644.1 289.91,-648.63"/>
<text text-anchor="start" x="227" y="-870.8" font-family="Times,serif" font-size="14.00">%2</text>
</g>
<!-- node8 -->
<g id="node9" class="node">
<title>node8</title>
<polygon fill="none" stroke="black" points="210,-330.5 210,-428.5 566,-428.5 566,-330.5 210,-330.5"/>
<text text-anchor="start" x="218" y="-413.3" font-family="Times,serif" font-size="14.00">Union %7 %2</text>
<text text-anchor="start" x="218" y="-398.3" font-family="Times,serif" font-size="14.00"> types = (integer?, integer?)</text>
<text text-anchor="start" x="218" y="-383.3" font-family="Times,serif" font-size="14.00"> keys = ()</text>
<text text-anchor="start" x="218" y="-368.3" font-family="Times,serif" font-size="14.00"> Map null, null</text>
<text text-anchor="start" x="218" y="-353.3" font-family="Times,serif" font-size="14.00"> types = (integer?, integer?, integer?, integer?)</text>
<text text-anchor="start" x="218" y="-338.3" font-family="Times,serif" font-size="14.00"> keys = ()</text>
</g>
<!-- node2&#45;&gt;node8 -->
<g id="edge12" class="edge">
<title>node2&#45;&gt;node8</title>
<path fill="none" stroke="black" d="M204.97,-1125.22C197.81,-1089.29 189,-1035.43 189,-988 189,-988 189,-988 189,-558.5 189,-504.94 229.54,-463.46 274.03,-434.08"/>
<polygon fill="black" stroke="black" points="276.14,-436.88 282.67,-428.55 272.36,-430.99 276.14,-436.88"/>
<text text-anchor="start" x="189" y="-765.8" font-family="Times,serif" font-size="14.00">%2</text>
</g>
<!-- node3 -->
<g id="node4" class="node">
<title>node3</title>
<polygon fill="none" stroke="black" points="426,-1268 426,-1321 716,-1321 716,-1268 426,-1268"/>
<text text-anchor="start" x="434" y="-1305.8" font-family="Times,serif" font-size="14.00">Get simplify_outer_joins.public.r (u96)</text>
<text text-anchor="start" x="434" y="-1290.8" font-family="Times,serif" font-size="14.00"> types = (integer?, integer)</text>
<text text-anchor="start" x="434" y="-1275.8" font-family="Times,serif" font-size="14.00"> keys = ()</text>
</g>
<!-- node3&#45;&gt;node4 -->
<g id="edge3" class="edge">
<title>node3&#45;&gt;node4</title>
<path fill="none" stroke="black" d="M556.67,-1267.8C548.63,-1253.39 538.32,-1234.91 528.77,-1217.79"/>
<polygon fill="black" stroke="black" points="531.79,-1216.01 523.86,-1208.98 525.67,-1219.42 531.79,-1216.01"/>
<text text-anchor="start" x="542" y="-1230.8" font-family="Times,serif" font-size="14.00">%3</text>
</g>
<!-- node4&#45;&gt;node5 -->
<g id="edge5" class="edge">
<title>node4&#45;&gt;node5</title>
<path fill="none" stroke="black" d="M494.12,-1125.16C492.01,-1112.65 489.59,-1098.33 487.14,-1083.76"/>
<polygon fill="black" stroke="black" points="490.55,-1082.93 485.44,-1073.65 483.65,-1084.1 490.55,-1082.93"/>
<text text-anchor="start" x="490" y="-1095.8" font-family="Times,serif" font-size="14.00">%4</text>
</g>
<!-- node6 -->
<g id="node7" class="node">
<title>node6</title>
<polygon fill="none" stroke="black" points="268,-690.5 268,-848.5 598,-848.5 598,-690.5 268,-690.5"/>
<text text-anchor="start" x="276" y="-833.3" font-family="Times,serif" font-size="14.00">Let l4 =</text>
<text text-anchor="start" x="276" y="-818.3" font-family="Times,serif" font-size="14.00"> Get %5 (l3)</text>
<text text-anchor="start" x="276" y="-803.3" font-family="Times,serif" font-size="14.00"> types = (integer?, integer, integer, integer)</text>
<text text-anchor="start" x="276" y="-788.3" font-family="Times,serif" font-size="14.00"> keys = ()</text>
<text text-anchor="start" x="276" y="-773.3" font-family="Times,serif" font-size="14.00"> Project (#1)</text>
<text text-anchor="start" x="276" y="-758.3" font-family="Times,serif" font-size="14.00"> types = (integer)</text>
<text text-anchor="start" x="276" y="-743.3" font-family="Times,serif" font-size="14.00"> keys = ()</text>
<text text-anchor="start" x="276" y="-728.3" font-family="Times,serif" font-size="14.00"> Distinct group=(#0)</text>
<text text-anchor="start" x="276" y="-713.3" font-family="Times,serif" font-size="14.00"> types = (integer)</text>
<text text-anchor="start" x="276" y="-698.3" font-family="Times,serif" font-size="14.00"> keys = ((#0))</text>
</g>
<!-- node5&#45;&gt;node6 -->
<g id="edge4" class="edge">
<title>node5&#45;&gt;node6</title>
<path fill="none" stroke="black" d="M455.87,-900.21C453.46,-886.51 450.96,-872.32 448.53,-858.58"/>
<polygon fill="black" stroke="black" points="451.97,-857.9 446.78,-848.66 445.07,-859.11 451.97,-857.9"/>
<text text-anchor="start" x="452" y="-870.8" font-family="Times,serif" font-size="14.00">%5</text>
</g>
<!-- node9 -->
<g id="node10" class="node">
<title>node9</title>
<polygon fill="none" stroke="black" points="177.5,-0.5 177.5,-278.5 806.5,-278.5 806.5,-0.5 177.5,-0.5"/>
<text text-anchor="start" x="185.5" y="-263.3" font-family="Times,serif" font-size="14.00">Union %8 %5</text>
<text text-anchor="start" x="185.5" y="-248.3" font-family="Times,serif" font-size="14.00"> types = (integer?, integer?, integer?, integer?)</text>
<text text-anchor="start" x="185.5" y="-233.3" font-family="Times,serif" font-size="14.00"> keys = ()</text>
<text text-anchor="start" x="185.5" y="-218.3" font-family="Times,serif" font-size="14.00"> Map #0, #1, #2, #3</text>
<text text-anchor="start" x="185.5" y="-203.3" font-family="Times,serif" font-size="14.00"> types = (integer?, integer?, integer?, integer?, integer?, integer?, integer?, integer?)</text>
<text text-anchor="start" x="185.5" y="-188.3" font-family="Times,serif" font-size="14.00"> keys = ()</text>
<text text-anchor="start" x="185.5" y="-173.3" font-family="Times,serif" font-size="14.00"> Project (#4..#7)</text>
<text text-anchor="start" x="185.5" y="-158.3" font-family="Times,serif" font-size="14.00"> types = (integer?, integer?, integer?, integer?)</text>
<text text-anchor="start" x="185.5" y="-143.3" font-family="Times,serif" font-size="14.00"> keys = ()</text>
<text text-anchor="start" x="185.5" y="-128.3" font-family="Times,serif" font-size="14.00"> Filter (#0 &lt; 42)</text>
<text text-anchor="start" x="185.5" y="-113.3" font-family="Times,serif" font-size="14.00"> types = (integer, integer?, integer?, integer?)</text>
<text text-anchor="start" x="185.5" y="-98.3" font-family="Times,serif" font-size="14.00"> keys = ()</text>
<text text-anchor="start" x="185.5" y="-83.3" font-family="Times,serif" font-size="14.00"> Map #0, #1, #2, #3</text>
<text text-anchor="start" x="185.5" y="-68.3" font-family="Times,serif" font-size="14.00"> types = (integer, integer?, integer?, integer?, integer, integer?, integer?, integer?)</text>
<text text-anchor="start" x="185.5" y="-53.3" font-family="Times,serif" font-size="14.00"> keys = ()</text>
<text text-anchor="start" x="185.5" y="-38.3" font-family="Times,serif" font-size="14.00"> Project (#4..#7)</text>
<text text-anchor="start" x="185.5" y="-23.3" font-family="Times,serif" font-size="14.00"> types = (integer, integer?, integer?, integer?)</text>
<text text-anchor="start" x="185.5" y="-8.3" font-family="Times,serif" font-size="14.00"> keys = ()</text>
</g>
<!-- node5&#45;&gt;node9 -->
<g id="edge13" class="edge">
<title>node5&#45;&gt;node9</title>
<path fill="none" stroke="black" d="M569.47,-900.46C583.66,-884.53 596.86,-867.14 607,-849 624.51,-817.66 626,-806.4 626,-770.5 626,-770.5 626,-770.5 626,-378.5 626,-347.37 617.19,-316.56 604.09,-287.94"/>
<polygon fill="black" stroke="black" points="607.15,-286.25 599.69,-278.73 600.84,-289.27 607.15,-286.25"/>
<text text-anchor="start" x="626" y="-555.8" font-family="Times,serif" font-size="14.00">%5</text>
</g>
<!-- node6&#45;&gt;node7 -->
<g id="edge10" class="edge">
<title>node6&#45;&gt;node7</title>
<path fill="none" stroke="black" d="M416.12,-690.46C413.17,-676.82 410.08,-662.55 407.07,-648.66"/>
<polygon fill="black" stroke="black" points="410.44,-647.67 404.9,-638.63 403.6,-649.15 410.44,-647.67"/>
<text text-anchor="start" x="411" y="-660.8" font-family="Times,serif" font-size="14.00">%6</text>
</g>
<!-- node7&#45;&gt;node8 -->
<g id="edge1" class="edge">
<title>node7&#45;&gt;node8</title>
<path fill="none" stroke="black" d="M388,-480.43C388,-466.5 388,-452.2 388,-438.94"/>
<polygon fill="black" stroke="black" points="391.5,-438.55 388,-428.55 384.5,-438.55 391.5,-438.55"/>
<text text-anchor="start" x="388" y="-450.8" font-family="Times,serif" font-size="14.00">%7</text>
</g>
<!-- node8&#45;&gt;node9 -->
<g id="edge6" class="edge">
<title>node8&#45;&gt;node9</title>
<path fill="none" stroke="black" d="M409.05,-330.34C414.6,-317.63 420.9,-303.22 427.47,-288.16"/>
<polygon fill="black" stroke="black" points="430.81,-289.28 431.6,-278.71 424.39,-286.48 430.81,-289.28"/>
<text text-anchor="start" x="421" y="-300.8" font-family="Times,serif" font-size="14.00">%8</text>
</g>
</g>
</svg>
