<?xml version="1.0" encoding="UTF-8" standalone="no"?>
<!DOCTYPE svg PUBLIC "-//W3C//DTD SVG 1.1//EN"
 "http://www.w3.org/Graphics/SVG/1.1/DTD/svg11.dtd">
<!-- Generated by graphviz version 2.43.0 (0)
 -->
<!-- Title: G Pages: 1 -->
<svg width="604pt" height="212pt"
 viewBox="0.00 0.00 604.00 212.00" xmlns="http://www.w3.org/2000/svg" xmlns:xlink="http://www.w3.org/1999/xlink">
<g id="graph0" class="graph" transform="scale(1 1) rotate(0) translate(4 208)">
<title>G</title>
<polygon fill="white" stroke="transparent" points="-4,4 -4,-208 600,-208 600,4 -4,4"/>
<!-- node0 -->
<g id="node1" class="node">
<title>node0</title>
<polygon fill="none" stroke="black" points="0,-150.5 0,-203.5 288,-203.5 288,-150.5 0,-150.5"/>
<text text-anchor="start" x="8" y="-188.3" font-family="Times,serif" font-size="14.00">Get simplify_outer_joins.public.l (u95)</text>
<text text-anchor="start" x="8" y="-173.3" font-family="Times,serif" font-size="14.00"> types = (integer?, integer?)</text>
<text text-anchor="start" x="8" y="-158.3" font-family="Times,serif" font-size="14.00"> keys = ()</text>
</g>
<!-- node2 -->
<g id="node3" class="node">
<title>node2</title>
<polygon fill="none" stroke="black" points="119,-0.5 119,-98.5 475,-98.5 475,-0.5 119,-0.5"/>
<text text-anchor="start" x="127" y="-83.3" font-family="Times,serif" font-size="14.00">FullOuterJoin %0 %1 on (#1 = #2)</text>
<text text-anchor="start" x="127" y="-68.3" font-family="Times,serif" font-size="14.00"> types = (integer?, integer?, integer?, integer?)</text>
<text text-anchor="start" x="127" y="-53.3" font-family="Times,serif" font-size="14.00"> keys = ()</text>
<text text-anchor="start" x="127" y="-38.3" font-family="Times,serif" font-size="14.00"> Filter (#0 &lt; 42)</text>
<text text-anchor="start" x="127" y="-23.3" font-family="Times,serif" font-size="14.00"> types = (integer?, integer?, integer?, integer?)</text>
<text text-anchor="start" x="127" y="-8.3" font-family="Times,serif" font-size="14.00"> keys = ()</text>
</g>
<!-- node0&#45;&gt;node2 -->
<g id="edge2" class="edge">
<title>node0&#45;&gt;node2</title>
<path fill="none" stroke="black" d="M175.33,-150.3C191.24,-137.25 211.2,-120.88 230.33,-105.19"/>
<polygon fill="black" stroke="black" points="232.67,-107.8 238.18,-98.75 228.23,-102.38 232.67,-107.8"/>
<text text-anchor="start" x="216" y="-120.8" font-family="Times,serif" font-size="14.00">%0</text>
</g>
<!-- node1 -->
<g id="node2" class="node">
<title>node1</title>
<polygon fill="none" stroke="black" points="306,-150.5 306,-203.5 596,-203.5 596,-150.5 306,-150.5"/>
<text text-anchor="start" x="314" y="-188.3" font-family="Times,serif" font-size="14.00">Get simplify_outer_joins.public.r (u97)</text>
<text text-anchor="start" x="314" y="-173.3" font-family="Times,serif" font-size="14.00"> types = (integer?, integer)</text>
<text text-anchor="start" x="314" y="-158.3" font-family="Times,serif" font-size="14.00"> keys = ()</text>
</g>
<!-- node1&#45;&gt;node2 -->
<g id="edge1" class="edge">
<title>node1&#45;&gt;node2</title>
<path fill="none" stroke="black" d="M419.46,-150.3C403.45,-137.25 383.36,-120.88 364.1,-105.19"/>
<polygon fill="black" stroke="black" points="366.17,-102.35 356.21,-98.75 361.75,-107.78 366.17,-102.35"/>
<text text-anchor="start" x="397" y="-120.8" font-family="Times,serif" font-size="14.00">%1</text>
</g>
</g>
</svg>
