<?xml version="1.0" encoding="UTF-8" standalone="no"?>
<!DOCTYPE svg PUBLIC "-//W3C//DTD SVG 1.1//EN"
 "http://www.w3.org/Graphics/SVG/1.1/DTD/svg11.dtd">
<!-- Generated by graphviz version 2.43.0 (0)
 -->
<!-- Title: G Pages: 1 -->
<svg width="770pt" height="527pt"
 viewBox="0.00 0.00 770.00 527.00" xmlns="http://www.w3.org/2000/svg" xmlns:xlink="http://www.w3.org/1999/xlink">
<g id="graph0" class="graph" transform="scale(1 1) rotate(0) translate(4 523)">
<title>G</title>
<polygon fill="white" stroke="transparent" points="-4,4 -4,-523 766,-523 766,4 -4,4"/>
<g id="clust1" class="cluster">
<title>cluster3</title>
<polygon fill="none" stroke="black" points="453,-356 453,-511 707,-511 707,-356 453,-356"/>
<text text-anchor="middle" x="503.5" y="-495.8" font-family="Times,serif" font-size="14.00">Box3:Select</text>
</g>
<g id="clust3" class="cluster">
<title>cluster0</title>
<polygon fill="none" stroke="black" points="154,-159 154,-337 579,-337 579,-159 154,-159"/>
<text text-anchor="middle" x="216.5" y="-321.8" font-family="Times,serif" font-size="14.00">Box0:OuterJoin</text>
</g>
<g id="clust5" class="cluster">
<title>cluster1</title>
<polygon fill="none" stroke="black" points="8,-19.5 8,-128.5 170,-128.5 170,-19.5 8,-19.5"/>
<text text-anchor="middle" x="49.5" y="-113.3" font-family="Times,serif" font-size="14.00">Box1:Get</text>
</g>
<g id="clust7" class="cluster">
<title>cluster2</title>
<polygon fill="none" stroke="black" points="178,-8 178,-140 754,-140 754,-8 178,-8"/>
<text text-anchor="middle" x="239.5" y="-124.8" font-family="Times,serif" font-size="14.00">Box2:CallTable</text>
</g>
<!-- boxhead3 -->
<g id="node1" class="node">
<title>boxhead3</title>
<polygon fill="none" stroke="black" points="553,-364.5 553,-479.5 699,-479.5 699,-364.5 553,-364.5"/>
<text text-anchor="middle" x="626" y="-464.3" font-family="Times,serif" font-size="14.00">Distinct: Preserve</text>
<polyline fill="none" stroke="black" points="553,-456.5 699,-456.5 "/>
<text text-anchor="middle" x="626" y="-441.3" font-family="Times,serif" font-size="14.00">0: Q2.C0</text>
<polyline fill="none" stroke="black" points="553,-433.5 699,-433.5 "/>
<text text-anchor="middle" x="626" y="-418.3" font-family="Times,serif" font-size="14.00">1: Q2.C1</text>
<polyline fill="none" stroke="black" points="553,-410.5 699,-410.5 "/>
<text text-anchor="middle" x="626" y="-395.3" font-family="Times,serif" font-size="14.00">2: Q2.C2</text>
<polyline fill="none" stroke="black" points="553,-387.5 699,-387.5 "/>
<text text-anchor="middle" x="626" y="-372.3" font-family="Times,serif" font-size="14.00">3: Q2.C3</text>
</g>
<!-- Q2 -->
<g id="node2" class="node">
<title>Q2</title>
<ellipse fill="none" stroke="black" cx="498" cy="-422" rx="37.09" ry="37.09"/>
<text text-anchor="middle" x="498" y="-418.3" font-family="Times,serif" font-size="14.00">Q2(F)</text>
</g>
<!-- boxhead0 -->
<g id="node3" class="node">
<title>boxhead0</title>
<polygon fill="none" stroke="black" points="425,-167.5 425,-305.5 571,-305.5 571,-167.5 425,-167.5"/>
<text text-anchor="middle" x="498" y="-290.3" font-family="Times,serif" font-size="14.00">Distinct: Preserve</text>
<polyline fill="none" stroke="black" points="425,-282.5 571,-282.5 "/>
<text text-anchor="middle" x="498" y="-267.3" font-family="Times,serif" font-size="14.00">0: Q0.C0</text>
<polyline fill="none" stroke="black" points="425,-259.5 571,-259.5 "/>
<text text-anchor="middle" x="498" y="-244.3" font-family="Times,serif" font-size="14.00">1: Q0.C1</text>
<polyline fill="none" stroke="black" points="425,-236.5 571,-236.5 "/>
<text text-anchor="middle" x="498" y="-221.3" font-family="Times,serif" font-size="14.00">2: Q1.C0</text>
<polyline fill="none" stroke="black" points="425,-213.5 571,-213.5 "/>
<text text-anchor="middle" x="498" y="-198.3" font-family="Times,serif" font-size="14.00">3: Q1.C1</text>
<polyline fill="none" stroke="black" points="425,-190.5 571,-190.5 "/>
<text text-anchor="middle" x="498" y="-175.3" font-family="Times,serif" font-size="14.00">(Q0.C0 = Q1.C0)</text>
</g>
<!-- Q2&#45;&gt;boxhead0 -->
<g id="edge2" class="edge">
<title>Q2&#45;&gt;boxhead0</title>
<path fill="none" stroke="black" stroke-dasharray="5,2" d="M498,-384.75C498,-370.78 498,-354.07 498,-337"/>
</g>
<!-- Q0 -->
<g id="node4" class="node">
<title>Q0</title>
<ellipse fill="none" stroke="black" cx="199" cy="-236.5" rx="37.09" ry="37.09"/>
<text text-anchor="middle" x="199" y="-232.8" font-family="Times,serif" font-size="14.00">Q0(P)</text>
</g>
<!-- boxhead1 -->
<g id="node6" class="node">
<title>boxhead1</title>
<polygon fill="none" stroke="black" points="16,-28 16,-97 162,-97 162,-28 16,-28"/>
<text text-anchor="middle" x="89" y="-81.8" font-family="Times,serif" font-size="14.00">Distinct: Preserve</text>
<polyline fill="none" stroke="black" points="16,-74 162,-74 "/>
<text text-anchor="middle" x="89" y="-58.8" font-family="Times,serif" font-size="14.00">0: C0</text>
<polyline fill="none" stroke="black" points="16,-51 162,-51 "/>
<text text-anchor="middle" x="89" y="-35.8" font-family="Times,serif" font-size="14.00">1: C1</text>
</g>
<!-- Q0&#45;&gt;boxhead1 -->
<g id="edge3" class="edge">
<title>Q0&#45;&gt;boxhead1</title>
<path fill="none" stroke="black" stroke-dasharray="5,2" d="M179.33,-204.75C165.79,-183.58 147.3,-154.65 130.57,-128.5"/>
</g>
<!-- Q1 -->
<g id="node5" class="node">
<title>Q1</title>
<ellipse fill="none" stroke="black" cx="370" cy="-236.5" rx="37.09" ry="37.09"/>
<text text-anchor="middle" x="370" y="-232.8" font-family="Times,serif" font-size="14.00">Q1(F)</text>
</g>
<!-- Q1&#45;&gt;Q0 -->
<g id="edge1" class="edge">
<title>Q1&#45;&gt;Q0</title>
<path fill="none" stroke="red" d="M332.67,-236.5C307.28,-236.5 273.47,-236.5 246.2,-236.5"/>
<polygon fill="red" stroke="red" points="246.1,-233 236.1,-236.5 246.1,-240 246.1,-233"/>
<text text-anchor="middle" x="284.5" y="-243.3" font-family="Times,serif" font-size="14.00">correlation</text>
</g>
<!-- boxhead2 -->
<g id="node7" class="node">
<title>boxhead2</title>
<polygon fill="none" stroke="black" points="186,-16.5 186,-108.5 746,-108.5 746,-16.5 186,-16.5"/>
<text text-anchor="middle" x="466" y="-93.3" font-family="Times,serif" font-size="14.00">Distinct: Preserve</text>
<polyline fill="none" stroke="black" points="186,-85.5 746,-85.5 "/>
<text text-anchor="middle" x="466" y="-70.3" font-family="Times,serif" font-size="14.00">0: C0</text>
<polyline fill="none" stroke="black" points="186,-62.5 746,-62.5 "/>
<text text-anchor="middle" x="466" y="-47.3" font-family="Times,serif" font-size="14.00">1: C1</text>
<polyline fill="none" stroke="black" points="186,-39.5 746,-39.5 "/>
<text text-anchor="middle" x="466" y="-24.3" font-family="Times,serif" font-size="14.00">CALL: wrap2((Q0.C0 * i32toi64(Q0.C1)), &quot;a&quot;, (Q0.C0 * i32toi64(Q0.C1)), &quot;b&quot;)</text>
</g>
<!-- Q1&#45;&gt;boxhead2 -->
<g id="edge4" class="edge">
<title>Q1&#45;&gt;boxhead2</title>
<path fill="none" stroke="black" stroke-dasharray="5,2" d="M387.83,-203.55C397.85,-185.6 410.82,-162.36 423.3,-140"/>
</g>
</g>
</svg>
