<?xml version="1.0" encoding="UTF-8" standalone="no"?>
<!DOCTYPE svg PUBLIC "-//W3C//DTD SVG 1.1//EN"
 "http://www.w3.org/Graphics/SVG/1.1/DTD/svg11.dtd">
<!-- Generated by graphviz version 2.43.0 (0)
 -->
<!-- Title: G Pages: 1 -->
<svg width="792pt" height="133pt"
 viewBox="0.00 0.00 791.50 133.00" xmlns="http://www.w3.org/2000/svg" xmlns:xlink="http://www.w3.org/1999/xlink">
<g id="graph0" class="graph" transform="scale(1 1) rotate(0) translate(4 129)">
<title>G</title>
<polygon fill="white" stroke="transparent" points="-4,4 -4,-129 787.5,-129 787.5,4 -4,4"/>
<!-- node0 -->
<g id="node1" class="node">
<title>node0</title>
<polygon fill="none" stroke="black" points="0,-88.5 0,-124.5 227,-124.5 227,-88.5 0,-88.5"/>
<text text-anchor="start" x="8" y="-102.8" font-family="Times,serif" font-size="14.00">Get hir_to_qgm.public.r (u39)</text>
</g>
<!-- node2 -->
<g id="node3" class="node">
<title>node2</title>
<polygon fill="none" stroke="black" points="180,-0.5 180,-36.5 447,-36.5 447,-0.5 180,-0.5"/>
<text text-anchor="start" x="188" y="-14.8" font-family="Times,serif" font-size="14.00">LeftOuterJoin %0 %1 on (#0 = #2)</text>
</g>
<!-- node0&#45;&gt;node2 -->
<g id="edge2" class="edge">
<title>node0&#45;&gt;node2</title>
<path fill="none" stroke="black" d="M153.49,-88.3C185.48,-74.55 230.47,-55.2 264.6,-40.53"/>
<polygon fill="black" stroke="black" points="266.11,-43.69 273.92,-36.52 263.35,-37.26 266.11,-43.69"/>
<text text-anchor="start" x="225.5" y="-58.8" font-family="Times,serif" font-size="14.00">%0</text>
</g>
<!-- node1 -->
<g id="node2" class="node">
<title>node1</title>
<polygon fill="none" stroke="black" points="245.5,-88.5 245.5,-124.5 783.5,-124.5 783.5,-88.5 245.5,-88.5"/>
<text text-anchor="start" x="253.5" y="-102.8" font-family="Times,serif" font-size="14.00">CallTable wrap2((#^0 * i32toi64(#^1)), &quot;a&quot;, (#^0 * i32toi64(#^1)), &quot;b&quot;)</text>
</g>
<!-- node1&#45;&gt;node2 -->
<g id="edge1" class="edge">
<title>node1&#45;&gt;node2</title>
<path fill="none" stroke="black" d="M474.31,-88.3C442.16,-74.55 396.95,-55.2 362.64,-40.53"/>
<polygon fill="black" stroke="black" points="363.85,-37.24 353.28,-36.52 361.1,-43.67 363.85,-37.24"/>
<text text-anchor="start" x="426.5" y="-58.8" font-family="Times,serif" font-size="14.00">%1</text>
</g>
</g>
</svg>
