<?xml version="1.0" encoding="UTF-8" standalone="no"?>
<!DOCTYPE svg PUBLIC "-//W3C//DTD SVG 1.1//EN"
 "http://www.w3.org/Graphics/SVG/1.1/DTD/svg11.dtd">
<!-- Generated by graphviz version 2.43.0 (0)
 -->
<!-- Title: G Pages: 1 -->
<svg width="792pt" height="167pt"
 viewBox="0.00 0.00 791.50 167.00" xmlns="http://www.w3.org/2000/svg" xmlns:xlink="http://www.w3.org/1999/xlink">
<g id="graph0" class="graph" transform="scale(1 1) rotate(0) translate(4 163)">
<title>G</title>
<polygon fill="white" stroke="transparent" points="-4,4 -4,-163 787.5,-163 787.5,4 -4,4"/>
<!-- node0 -->
<g id="node1" class="node">
<title>node0</title>
<polygon fill="none" stroke="black" points="0,-105.5 0,-158.5 227,-158.5 227,-105.5 0,-105.5"/>
<text text-anchor="start" x="8" y="-143.3" font-family="Times,serif" font-size="14.00">Get hir_to_qgm.public.r (u39)</text>
<text text-anchor="start" x="8" y="-128.3" font-family="Times,serif" font-size="14.00">&#45; types = (bigint?, integer?)</text>
<text text-anchor="start" x="8" y="-113.3" font-family="Times,serif" font-size="14.00">&#45; keys = ()</text>
</g>
<!-- node2 -->
<g id="node3" class="node">
<title>node2</title>
<polygon fill="none" stroke="black" points="155,-0.5 155,-53.5 472,-53.5 472,-0.5 155,-0.5"/>
<text text-anchor="start" x="163" y="-38.3" font-family="Times,serif" font-size="14.00">LeftOuterJoin %0 %1 on (#0 = #2)</text>
<text text-anchor="start" x="163" y="-23.3" font-family="Times,serif" font-size="14.00">&#45; types = (bigint?, integer?, bigint?, text?)</text>
<text text-anchor="start" x="163" y="-8.3" font-family="Times,serif" font-size="14.00">&#45; keys = ()</text>
</g>
<!-- node0&#45;&gt;node2 -->
<g id="edge2" class="edge">
<title>node0&#45;&gt;node2</title>
<path fill="none" stroke="black" d="M163.2,-105.41C190.86,-91.16 225.47,-73.34 254.5,-58.39"/>
<polygon fill="black" stroke="black" points="256.43,-61.33 263.71,-53.64 253.22,-55.11 256.43,-61.33"/>
<text text-anchor="start" x="225.5" y="-75.8" font-family="Times,serif" font-size="14.00">%0</text>
</g>
<!-- node1 -->
<g id="node2" class="node">
<title>node1</title>
<polygon fill="none" stroke="black" points="245.5,-105.5 245.5,-158.5 783.5,-158.5 783.5,-105.5 245.5,-105.5"/>
<text text-anchor="start" x="253.5" y="-143.3" font-family="Times,serif" font-size="14.00">CallTable wrap2((#^0 * i32toi64(#^1)), &quot;a&quot;, (#^0 * i32toi64(#^1)), &quot;b&quot;)</text>
<text text-anchor="start" x="253.5" y="-128.3" font-family="Times,serif" font-size="14.00">&#45; types = (bigint?, text)</text>
<text text-anchor="start" x="253.5" y="-113.3" font-family="Times,serif" font-size="14.00">&#45; keys = ()</text>
</g>
<!-- node1&#45;&gt;node2 -->
<g id="edge1" class="edge">
<title>node1&#45;&gt;node2</title>
<path fill="none" stroke="black" d="M464.56,-105.41C436.75,-91.16 401.97,-73.34 372.8,-58.39"/>
<polygon fill="black" stroke="black" points="374.03,-55.09 363.54,-53.64 370.84,-61.32 374.03,-55.09"/>
<text text-anchor="start" x="426.5" y="-75.8" font-family="Times,serif" font-size="14.00">%1</text>
</g>
</g>
</svg>
