<?xml version="1.0" encoding="UTF-8" standalone="no"?>
<!DOCTYPE svg PUBLIC "-//W3C//DTD SVG 1.1//EN"
 "http://www.w3.org/Graphics/SVG/1.1/DTD/svg11.dtd">
<!-- Generated by graphviz version 2.43.0 (0)
 -->
<!-- Title: G Pages: 1 -->
<svg width="311pt" height="272pt"
 viewBox="0.00 0.00 311.00 272.00" xmlns="http://www.w3.org/2000/svg" xmlns:xlink="http://www.w3.org/1999/xlink">
<g id="graph0" class="graph" transform="scale(1 1) rotate(0) translate(4 268)">
<title>G</title>
<polygon fill="white" stroke="transparent" points="-4,4 -4,-268 307,-268 307,4 -4,4"/>
<!-- node0 -->
<g id="node1" class="node">
<title>node0</title>
<polygon fill="none" stroke="black" points="5,-225.5 5,-263.5 106,-263.5 106,-225.5 5,-225.5"/>
<text text-anchor="start" x="13" y="-248.3" font-family="Times,serif" font-size="14.00">Let l0 =</text>
<text text-anchor="start" x="13" y="-233.3" font-family="Times,serif" font-size="14.00"> Constant ()</text>
</g>
<!-- node2 -->
<g id="node3" class="node">
<title>node2</title>
<polygon fill="none" stroke="black" points="0,-120.5 0,-173.5 269,-173.5 269,-120.5 0,-120.5"/>
<text text-anchor="start" x="8" y="-158.3" font-family="Times,serif" font-size="14.00">Let l1 =</text>
<text text-anchor="start" x="8" y="-143.3" font-family="Times,serif" font-size="14.00"> Join %0 %1</text>
<text text-anchor="start" x="8" y="-128.3" font-family="Times,serif" font-size="14.00"> implementation = Unimplemented</text>
</g>
<!-- node0&#45;&gt;node2 -->
<g id="edge3" class="edge">
<title>node0&#45;&gt;node2</title>
<path fill="none" stroke="black" d="M70.73,-225.09C80.95,-212.74 94.7,-196.12 106.81,-181.47"/>
<polygon fill="black" stroke="black" points="109.67,-183.51 113.34,-173.58 104.27,-179.05 109.67,-183.51"/>
<text text-anchor="start" x="97.5" y="-195.8" font-family="Times,serif" font-size="14.00">%0</text>
</g>
<!-- node1 -->
<g id="node2" class="node">
<title>node1</title>
<polygon fill="none" stroke="black" points="124,-226.5 124,-262.5 303,-262.5 303,-226.5 124,-226.5"/>
<text text-anchor="start" x="132" y="-240.8" font-family="Times,serif" font-size="14.00">Get qgm.public.t (u56)</text>
</g>
<!-- node1&#45;&gt;node2 -->
<g id="edge1" class="edge">
<title>node1&#45;&gt;node2</title>
<path fill="none" stroke="black" d="M199.38,-226.43C189.02,-213.91 174.63,-196.51 162.03,-181.28"/>
<polygon fill="black" stroke="black" points="164.71,-179.03 155.64,-173.55 159.32,-183.49 164.71,-179.03"/>
<text text-anchor="start" x="180.5" y="-195.8" font-family="Times,serif" font-size="14.00">%1</text>
</g>
<!-- node3 -->
<g id="node4" class="node">
<title>node3</title>
<polygon fill="none" stroke="black" points="45,-0.5 45,-68.5 224,-68.5 224,-0.5 45,-0.5"/>
<text text-anchor="start" x="53" y="-53.3" font-family="Times,serif" font-size="14.00">Get %2 (l1)</text>
<text text-anchor="start" x="53" y="-38.3" font-family="Times,serif" font-size="14.00"> Map coalesce(#0, #1)</text>
<text text-anchor="start" x="53" y="-23.3" font-family="Times,serif" font-size="14.00"> Project (#0..#2)</text>
<text text-anchor="start" x="53" y="-8.3" font-family="Times,serif" font-size="14.00"> Project (#2)</text>
</g>
<!-- node2&#45;&gt;node3 -->
<g id="edge2" class="edge">
<title>node2&#45;&gt;node3</title>
<path fill="none" stroke="black" d="M134.5,-120.37C134.5,-107.96 134.5,-92.71 134.5,-78.58"/>
<polygon fill="black" stroke="black" points="138,-78.54 134.5,-68.54 131,-78.54 138,-78.54"/>
<text text-anchor="start" x="134.5" y="-90.8" font-family="Times,serif" font-size="14.00">%2</text>
</g>
</g>
</svg>
