<?xml version="1.0" encoding="UTF-8" standalone="no"?>
<!DOCTYPE svg PUBLIC "-//W3C//DTD SVG 1.1//EN"
 "http://www.w3.org/Graphics/SVG/1.1/DTD/svg11.dtd">
<!-- Generated by graphviz version 2.43.0 (0)
 -->
<!-- Title: G Pages: 1 -->
<svg width="350pt" height="452pt"
 viewBox="0.00 0.00 350.00 452.00" xmlns="http://www.w3.org/2000/svg" xmlns:xlink="http://www.w3.org/1999/xlink">
<g id="graph0" class="graph" transform="scale(1 1) rotate(0) translate(4 448)">
<title>G</title>
<polygon fill="white" stroke="transparent" points="-4,4 -4,-448 346,-448 346,4 -4,4"/>
<!-- node0 -->
<g id="node1" class="node">
<title>node0</title>
<polygon fill="none" stroke="black" points="4,-375.5 4,-443.5 105,-443.5 105,-375.5 4,-375.5"/>
<text text-anchor="start" x="12" y="-428.3" font-family="Times,serif" font-size="14.00">Let l0 =</text>
<text text-anchor="start" x="12" y="-413.3" font-family="Times,serif" font-size="14.00"> Constant ()</text>
<text text-anchor="start" x="12" y="-398.3" font-family="Times,serif" font-size="14.00"> types = ()</text>
<text text-anchor="start" x="12" y="-383.3" font-family="Times,serif" font-size="14.00"> keys = (())</text>
</g>
<!-- node2 -->
<g id="node3" class="node">
<title>node2</title>
<polygon fill="none" stroke="black" points="9,-240.5 9,-323.5 278,-323.5 278,-240.5 9,-240.5"/>
<text text-anchor="start" x="17" y="-308.3" font-family="Times,serif" font-size="14.00">Let l1 =</text>
<text text-anchor="start" x="17" y="-293.3" font-family="Times,serif" font-size="14.00"> Join %0 %1</text>
<text text-anchor="start" x="17" y="-278.3" font-family="Times,serif" font-size="14.00"> implementation = Unimplemented</text>
<text text-anchor="start" x="17" y="-263.3" font-family="Times,serif" font-size="14.00"> types = (integer?, integer?)</text>
<text text-anchor="start" x="17" y="-248.3" font-family="Times,serif" font-size="14.00"> keys = ()</text>
</g>
<!-- node0&#45;&gt;node2 -->
<g id="edge3" class="edge">
<title>node0&#45;&gt;node2</title>
<path fill="none" stroke="black" d="M78.12,-375.2C87.5,-361.96 98.49,-346.47 108.75,-332"/>
<polygon fill="black" stroke="black" points="111.76,-333.81 114.69,-323.63 106.05,-329.76 111.76,-333.81"/>
<text text-anchor="start" x="99.5" y="-345.8" font-family="Times,serif" font-size="14.00">%0</text>
</g>
<!-- node1 -->
<g id="node2" class="node">
<title>node1</title>
<polygon fill="none" stroke="black" points="123,-383 123,-436 342,-436 342,-383 123,-383"/>
<text text-anchor="start" x="131" y="-420.8" font-family="Times,serif" font-size="14.00">Get qgm.public.t (u56)</text>
<text text-anchor="start" x="131" y="-405.8" font-family="Times,serif" font-size="14.00"> types = (integer?, integer?)</text>
<text text-anchor="start" x="131" y="-390.8" font-family="Times,serif" font-size="14.00"> keys = ()</text>
</g>
<!-- node1&#45;&gt;node2 -->
<g id="edge1" class="edge">
<title>node1&#45;&gt;node2</title>
<path fill="none" stroke="black" d="M214.27,-382.8C203.96,-368.26 190.71,-349.57 178.47,-332.32"/>
<polygon fill="black" stroke="black" points="181.2,-330.11 172.56,-323.98 175.49,-334.16 181.2,-330.11"/>
<text text-anchor="start" x="195.5" y="-345.8" font-family="Times,serif" font-size="14.00">%1</text>
</g>
<!-- node3 -->
<g id="node4" class="node">
<title>node3</title>
<polygon fill="none" stroke="black" points="0,-0.5 0,-188.5 287,-188.5 287,-0.5 0,-0.5"/>
<text text-anchor="start" x="8" y="-173.3" font-family="Times,serif" font-size="14.00">Get %2 (l1)</text>
<text text-anchor="start" x="8" y="-158.3" font-family="Times,serif" font-size="14.00"> types = (integer?, integer?)</text>
<text text-anchor="start" x="8" y="-143.3" font-family="Times,serif" font-size="14.00"> keys = ()</text>
<text text-anchor="start" x="8" y="-128.3" font-family="Times,serif" font-size="14.00"> Map coalesce(#0, #1)</text>
<text text-anchor="start" x="8" y="-113.3" font-family="Times,serif" font-size="14.00"> types = (integer?, integer?, integer?)</text>
<text text-anchor="start" x="8" y="-98.3" font-family="Times,serif" font-size="14.00"> keys = ()</text>
<text text-anchor="start" x="8" y="-83.3" font-family="Times,serif" font-size="14.00"> Project (#0..#2)</text>
<text text-anchor="start" x="8" y="-68.3" font-family="Times,serif" font-size="14.00"> types = (integer?, integer?, integer?)</text>
<text text-anchor="start" x="8" y="-53.3" font-family="Times,serif" font-size="14.00"> keys = ()</text>
<text text-anchor="start" x="8" y="-38.3" font-family="Times,serif" font-size="14.00"> Project (#2)</text>
<text text-anchor="start" x="8" y="-23.3" font-family="Times,serif" font-size="14.00"> types = (integer?)</text>
<text text-anchor="start" x="8" y="-8.3" font-family="Times,serif" font-size="14.00"> keys = ()</text>
</g>
<!-- node2&#45;&gt;node3 -->
<g id="edge2" class="edge">
<title>node2&#45;&gt;node3</title>
<path fill="none" stroke="black" d="M143.5,-240.29C143.5,-227.81 143.5,-213.48 143.5,-198.78"/>
<polygon fill="black" stroke="black" points="147,-198.57 143.5,-188.57 140,-198.57 147,-198.57"/>
<text text-anchor="start" x="143.5" y="-210.8" font-family="Times,serif" font-size="14.00">%2</text>
</g>
</g>
</svg>
