<?xml version="1.0" encoding="UTF-8" standalone="no"?>
<!DOCTYPE svg PUBLIC "-//W3C//DTD SVG 1.1//EN"
 "http://www.w3.org/Graphics/SVG/1.1/DTD/svg11.dtd">
<!-- Generated by graphviz version 2.43.0 (0)
 -->
<!-- Title: G Pages: 1 -->
<svg width="389pt" height="240pt"
 viewBox="0.00 0.00 388.50 240.00" xmlns="http://www.w3.org/2000/svg" xmlns:xlink="http://www.w3.org/1999/xlink">
<g id="graph0" class="graph" transform="scale(1 1) rotate(0) translate(4 236)">
<title>G</title>
<polygon fill="white" stroke="transparent" points="-4,4 -4,-236 384.5,-236 384.5,4 -4,4"/>
<!-- node0 -->
<g id="node1" class="node">
<title>node0</title>
<polygon fill="none" stroke="black" points="21,-195.5 21,-231.5 117,-231.5 117,-195.5 21,-195.5"/>
<text text-anchor="start" x="29" y="-209.8" font-family="Times,serif" font-size="14.00">Constant ()</text>
</g>
<!-- node2 -->
<g id="node3" class="node">
<title>node2</title>
<polygon fill="none" stroke="black" points="26,-105.5 26,-143.5 300,-143.5 300,-105.5 26,-105.5"/>
<text text-anchor="start" x="34" y="-128.3" font-family="Times,serif" font-size="14.00">Join %0 %1</text>
<text text-anchor="start" x="34" y="-113.3" font-family="Times,serif" font-size="14.00">&#45; implementation = Unimplemented</text>
</g>
<!-- node0&#45;&gt;node2 -->
<g id="edge3" class="edge">
<title>node0&#45;&gt;node2</title>
<path fill="none" stroke="black" d="M87.57,-195.31C101.33,-182.58 120.3,-165.02 135.77,-150.7"/>
<polygon fill="black" stroke="black" points="138.53,-152.91 143.5,-143.55 133.78,-147.78 138.53,-152.91"/>
<text text-anchor="start" x="122" y="-165.8" font-family="Times,serif" font-size="14.00">%0</text>
</g>
<!-- node1 -->
<g id="node2" class="node">
<title>node1</title>
<polygon fill="none" stroke="black" points="135.5,-195.5 135.5,-231.5 380.5,-231.5 380.5,-195.5 135.5,-195.5"/>
<text text-anchor="start" x="143.5" y="-209.8" font-family="Times,serif" font-size="14.00">Get issue_10871.public.t3 (u26)</text>
</g>
<!-- node1&#45;&gt;node2 -->
<g id="edge1" class="edge">
<title>node1&#45;&gt;node2</title>
<path fill="none" stroke="black" d="M239.23,-195.31C225.2,-182.46 205.8,-164.7 190.09,-150.31"/>
<polygon fill="black" stroke="black" points="192.45,-147.72 182.71,-143.55 187.72,-152.89 192.45,-147.72"/>
<text text-anchor="start" x="219" y="-165.8" font-family="Times,serif" font-size="14.00">%1</text>
</g>
<!-- node3 -->
<g id="node4" class="node">
<title>node3</title>
<polygon fill="none" stroke="black" points="0,-0.5 0,-53.5 326,-53.5 326,-0.5 0,-0.5"/>
<text text-anchor="start" x="8" y="-38.3" font-family="Times,serif" font-size="14.00">Map (varchartostr(#0) = varchartostr(#0))</text>
<text text-anchor="start" x="8" y="-23.3" font-family="Times,serif" font-size="14.00">Project (#0..=#2)</text>
<text text-anchor="start" x="8" y="-8.3" font-family="Times,serif" font-size="14.00">Project (#2)</text>
</g>
<!-- node2&#45;&gt;node3 -->
<g id="edge2" class="edge">
<title>node2&#45;&gt;node3</title>
<path fill="none" stroke="black" d="M163,-105.09C163,-93.42 163,-77.95 163,-63.93"/>
<polygon fill="black" stroke="black" points="166.5,-63.58 163,-53.58 159.5,-63.58 166.5,-63.58"/>
<text text-anchor="start" x="163" y="-75.8" font-family="Times,serif" font-size="14.00">%2</text>
</g>
</g>
</svg>
