<?xml version="1.0" encoding="UTF-8" standalone="no"?>
<!DOCTYPE svg PUBLIC "-//W3C//DTD SVG 1.1//EN"
 "http://www.w3.org/Graphics/SVG/1.1/DTD/svg11.dtd">
<!-- Generated by graphviz version 2.43.0 (0)
 -->
<!-- Title: G Pages: 1 -->
<svg width="422pt" height="407pt"
 viewBox="0.00 0.00 422.00 407.00" xmlns="http://www.w3.org/2000/svg" xmlns:xlink="http://www.w3.org/1999/xlink">
<g id="graph0" class="graph" transform="scale(1 1) rotate(0) translate(4 403)">
<title>G</title>
<polygon fill="white" stroke="transparent" points="-4,4 -4,-403 418,-403 418,4 -4,4"/>
<!-- node0 -->
<g id="node1" class="node">
<title>node0</title>
<polygon fill="none" stroke="black" points="20.5,-345.5 20.5,-398.5 120.5,-398.5 120.5,-345.5 20.5,-345.5"/>
<text text-anchor="start" x="28.5" y="-383.3" font-family="Times,serif" font-size="14.00">Constant ()</text>
<text text-anchor="start" x="28.5" y="-368.3" font-family="Times,serif" font-size="14.00">&#45; types = ()</text>
<text text-anchor="start" x="28.5" y="-353.3" font-family="Times,serif" font-size="14.00">&#45; keys = (())</text>
</g>
<!-- node2 -->
<g id="node3" class="node">
<title>node2</title>
<polygon fill="none" stroke="black" points="36,-225.5 36,-293.5 311,-293.5 311,-225.5 36,-225.5"/>
<text text-anchor="start" x="44" y="-278.3" font-family="Times,serif" font-size="14.00">Join %0 %1</text>
<text text-anchor="start" x="44" y="-263.3" font-family="Times,serif" font-size="14.00">&#45; implementation = Unimplemented</text>
<text text-anchor="start" x="44" y="-248.3" font-family="Times,serif" font-size="14.00">&#45; types = (character varying?, text?)</text>
<text text-anchor="start" x="44" y="-233.3" font-family="Times,serif" font-size="14.00">&#45; keys = ()</text>
</g>
<!-- node0&#45;&gt;node2 -->
<g id="edge3" class="edge">
<title>node0&#45;&gt;node2</title>
<path fill="none" stroke="black" d="M94.39,-345.37C106.64,-332.23 121.84,-315.92 135.64,-301.12"/>
<polygon fill="black" stroke="black" points="138.44,-303.24 142.7,-293.54 133.32,-298.47 138.44,-303.24"/>
<text text-anchor="start" x="125.5" y="-315.8" font-family="Times,serif" font-size="14.00">%0</text>
</g>
<!-- node1 -->
<g id="node2" class="node">
<title>node1</title>
<polygon fill="none" stroke="black" points="139,-345.5 139,-398.5 414,-398.5 414,-345.5 139,-345.5"/>
<text text-anchor="start" x="147" y="-383.3" font-family="Times,serif" font-size="14.00">Get issue_10871.public.t3 (u26)</text>
<text text-anchor="start" x="147" y="-368.3" font-family="Times,serif" font-size="14.00">&#45; types = (character varying?, text?)</text>
<text text-anchor="start" x="147" y="-353.3" font-family="Times,serif" font-size="14.00">&#45; keys = ()</text>
</g>
<!-- node1&#45;&gt;node2 -->
<g id="edge1" class="edge">
<title>node1&#45;&gt;node2</title>
<path fill="none" stroke="black" d="M252.61,-345.37C240.36,-332.23 225.16,-315.92 211.36,-301.12"/>
<polygon fill="black" stroke="black" points="213.68,-298.47 204.3,-293.54 208.56,-303.24 213.68,-298.47"/>
<text text-anchor="start" x="233.5" y="-315.8" font-family="Times,serif" font-size="14.00">%1</text>
</g>
<!-- node3 -->
<g id="node4" class="node">
<title>node3</title>
<polygon fill="none" stroke="black" points="0,-0.5 0,-173.5 347,-173.5 347,-0.5 0,-0.5"/>
<text text-anchor="start" x="8" y="-158.3" font-family="Times,serif" font-size="14.00">&#45; types = (character varying?, text?)</text>
<text text-anchor="start" x="8" y="-143.3" font-family="Times,serif" font-size="14.00">&#45; keys = ()</text>
<text text-anchor="start" x="8" y="-128.3" font-family="Times,serif" font-size="14.00">Map (varchartostr(#0) = varchartostr(#0))</text>
<text text-anchor="start" x="8" y="-113.3" font-family="Times,serif" font-size="14.00">&#45; types = (character varying?, text?, boolean?)</text>
<text text-anchor="start" x="8" y="-98.3" font-family="Times,serif" font-size="14.00">&#45; keys = ()</text>
<text text-anchor="start" x="8" y="-83.3" font-family="Times,serif" font-size="14.00">Project (#0..=#2)</text>
<text text-anchor="start" x="8" y="-68.3" font-family="Times,serif" font-size="14.00">&#45; types = (character varying?, text?, boolean?)</text>
<text text-anchor="start" x="8" y="-53.3" font-family="Times,serif" font-size="14.00">&#45; keys = ()</text>
<text text-anchor="start" x="8" y="-38.3" font-family="Times,serif" font-size="14.00">Project (#2)</text>
<text text-anchor="start" x="8" y="-23.3" font-family="Times,serif" font-size="14.00">&#45; types = (boolean?)</text>
<text text-anchor="start" x="8" y="-8.3" font-family="Times,serif" font-size="14.00">&#45; keys = ()</text>
</g>
<!-- node2&#45;&gt;node3 -->
<g id="edge2" class="edge">
<title>node2&#45;&gt;node3</title>
<path fill="none" stroke="black" d="M173.5,-225.22C173.5,-213.1 173.5,-198.7 173.5,-183.87"/>
<polygon fill="black" stroke="black" points="177,-183.56 173.5,-173.56 170,-183.56 177,-183.56"/>
<text text-anchor="start" x="173.5" y="-195.8" font-family="Times,serif" font-size="14.00">%2</text>
</g>
</g>
</svg>
