<?xml version="1.0" encoding="UTF-8" standalone="no"?>
<!DOCTYPE svg PUBLIC "-//W3C//DTD SVG 1.1//EN"
 "http://www.w3.org/Graphics/SVG/1.1/DTD/svg11.dtd">
<!-- Generated by graphviz version 2.43.0 (0)
 -->
<!-- Title: G Pages: 1 -->
<svg width="311pt" height="287pt"
 viewBox="0.00 0.00 311.00 287.00" xmlns="http://www.w3.org/2000/svg" xmlns:xlink="http://www.w3.org/1999/xlink">
<g id="graph0" class="graph" transform="scale(1 1) rotate(0) translate(4 283)">
<title>G</title>
<polygon fill="white" stroke="transparent" points="-4,4 -4,-283 307,-283 307,4 -4,4"/>
<!-- node0 -->
<g id="node1" class="node">
<title>node0</title>
<polygon fill="none" stroke="black" points="5,-240.5 5,-278.5 106,-278.5 106,-240.5 5,-240.5"/>
<text text-anchor="start" x="13" y="-263.3" font-family="Times,serif" font-size="14.00">Let l0 =</text>
<text text-anchor="start" x="13" y="-248.3" font-family="Times,serif" font-size="14.00"> Constant ()</text>
</g>
<!-- node2 -->
<g id="node3" class="node">
<title>node2</title>
<polygon fill="none" stroke="black" points="0,-120.5 0,-188.5 269,-188.5 269,-120.5 0,-120.5"/>
<text text-anchor="start" x="8" y="-173.3" font-family="Times,serif" font-size="14.00">Let l1 =</text>
<text text-anchor="start" x="8" y="-158.3" font-family="Times,serif" font-size="14.00"> Join %0 %1</text>
<text text-anchor="start" x="8" y="-143.3" font-family="Times,serif" font-size="14.00"> implementation = Unimplemented</text>
<text text-anchor="start" x="8" y="-128.3" font-family="Times,serif" font-size="14.00"> Filter !(isnull(#0))</text>
</g>
<!-- node0&#45;&gt;node2 -->
<g id="edge1" class="edge">
<title>node0&#45;&gt;node2</title>
<path fill="none" stroke="black" d="M69.62,-240.09C78.84,-228.08 91.24,-211.9 102.74,-196.91"/>
<polygon fill="black" stroke="black" points="105.69,-198.81 109,-188.74 100.14,-194.55 105.69,-198.81"/>
<text text-anchor="start" x="95.5" y="-210.8" font-family="Times,serif" font-size="14.00">%0</text>
</g>
<!-- node1 -->
<g id="node2" class="node">
<title>node1</title>
<polygon fill="none" stroke="black" points="124,-241.5 124,-277.5 303,-277.5 303,-241.5 124,-241.5"/>
<text text-anchor="start" x="132" y="-255.8" font-family="Times,serif" font-size="14.00">Get qgm.public.t (u56)</text>
</g>
<!-- node1&#45;&gt;node2 -->
<g id="edge3" class="edge">
<title>node1&#45;&gt;node2</title>
<path fill="none" stroke="black" d="M200.45,-241.49C191.12,-229.33 178.15,-212.41 166.18,-196.8"/>
<polygon fill="black" stroke="black" points="168.89,-194.59 160.03,-188.79 163.34,-198.85 168.89,-194.59"/>
<text text-anchor="start" x="182.5" y="-210.8" font-family="Times,serif" font-size="14.00">%1</text>
</g>
<!-- node3 -->
<g id="node4" class="node">
<title>node3</title>
<polygon fill="none" stroke="black" points="45,-0.5 45,-68.5 224,-68.5 224,-0.5 45,-0.5"/>
<text text-anchor="start" x="53" y="-53.3" font-family="Times,serif" font-size="14.00">Get %2 (l1)</text>
<text text-anchor="start" x="53" y="-38.3" font-family="Times,serif" font-size="14.00"> Map coalesce(#0, #1)</text>
<text text-anchor="start" x="53" y="-23.3" font-family="Times,serif" font-size="14.00"> Project (#0..#2)</text>
<text text-anchor="start" x="53" y="-8.3" font-family="Times,serif" font-size="14.00"> Project (#2)</text>
</g>
<!-- node2&#45;&gt;node3 -->
<g id="edge2" class="edge">
<title>node2&#45;&gt;node3</title>
<path fill="none" stroke="black" d="M134.5,-120.32C134.5,-107.5 134.5,-92.65 134.5,-79"/>
<polygon fill="black" stroke="black" points="138,-78.84 134.5,-68.84 131,-78.84 138,-78.84"/>
<text text-anchor="start" x="134.5" y="-90.8" font-family="Times,serif" font-size="14.00">%2</text>
</g>
</g>
</svg>
