<?xml version="1.0" encoding="UTF-8" standalone="no"?>
<!DOCTYPE svg PUBLIC "-//W3C//DTD SVG 1.1//EN"
 "http://www.w3.org/Graphics/SVG/1.1/DTD/svg11.dtd">
<!-- Generated by graphviz version 2.43.0 (0)
 -->
<!-- Title: G Pages: 1 -->
<svg width="346pt" height="497pt"
 viewBox="0.00 0.00 346.00 497.00" xmlns="http://www.w3.org/2000/svg" xmlns:xlink="http://www.w3.org/1999/xlink">
<g id="graph0" class="graph" transform="scale(1 1) rotate(0) translate(4 493)">
<title>G</title>
<polygon fill="white" stroke="transparent" points="-4,4 -4,-493 342,-493 342,4 -4,4"/>
<!-- node0 -->
<g id="node1" class="node">
<title>node0</title>
<polygon fill="none" stroke="black" points="0,-420.5 0,-488.5 101,-488.5 101,-420.5 0,-420.5"/>
<text text-anchor="start" x="8" y="-473.3" font-family="Times,serif" font-size="14.00">Let l0 =</text>
<text text-anchor="start" x="8" y="-458.3" font-family="Times,serif" font-size="14.00"> Constant ()</text>
<text text-anchor="start" x="8" y="-443.3" font-family="Times,serif" font-size="14.00"> types = ()</text>
<text text-anchor="start" x="8" y="-428.3" font-family="Times,serif" font-size="14.00"> keys = (())</text>
</g>
<!-- node2 -->
<g id="node3" class="node">
<title>node2</title>
<polygon fill="none" stroke="black" points="5,-240.5 5,-368.5 274,-368.5 274,-240.5 5,-240.5"/>
<text text-anchor="start" x="13" y="-353.3" font-family="Times,serif" font-size="14.00">Let l1 =</text>
<text text-anchor="start" x="13" y="-338.3" font-family="Times,serif" font-size="14.00"> Join %0 %1</text>
<text text-anchor="start" x="13" y="-323.3" font-family="Times,serif" font-size="14.00"> implementation = Unimplemented</text>
<text text-anchor="start" x="13" y="-308.3" font-family="Times,serif" font-size="14.00"> types = (integer?, integer?)</text>
<text text-anchor="start" x="13" y="-293.3" font-family="Times,serif" font-size="14.00"> keys = ()</text>
<text text-anchor="start" x="13" y="-278.3" font-family="Times,serif" font-size="14.00"> Filter !(isnull(#0))</text>
<text text-anchor="start" x="13" y="-263.3" font-family="Times,serif" font-size="14.00"> types = (integer, integer?)</text>
<text text-anchor="start" x="13" y="-248.3" font-family="Times,serif" font-size="14.00"> keys = ()</text>
</g>
<!-- node0&#45;&gt;node2 -->
<g id="edge1" class="edge">
<title>node0&#45;&gt;node2</title>
<path fill="none" stroke="black" d="M70.47,-420.29C78.14,-407.53 87.22,-392.43 96.24,-377.44"/>
<polygon fill="black" stroke="black" points="99.37,-379.02 101.53,-368.65 93.37,-375.41 99.37,-379.02"/>
<text text-anchor="start" x="90.5" y="-390.8" font-family="Times,serif" font-size="14.00">%0</text>
</g>
<!-- node1 -->
<g id="node2" class="node">
<title>node1</title>
<polygon fill="none" stroke="black" points="119,-428 119,-481 338,-481 338,-428 119,-428"/>
<text text-anchor="start" x="127" y="-465.8" font-family="Times,serif" font-size="14.00">Get qgm.public.t (u56)</text>
<text text-anchor="start" x="127" y="-450.8" font-family="Times,serif" font-size="14.00"> types = (integer?, integer?)</text>
<text text-anchor="start" x="127" y="-435.8" font-family="Times,serif" font-size="14.00"> keys = ()</text>
</g>
<!-- node1&#45;&gt;node2 -->
<g id="edge3" class="edge">
<title>node1&#45;&gt;node2</title>
<path fill="none" stroke="black" d="M213,-427.72C204.52,-413.63 193.56,-395.4 182.71,-377.35"/>
<polygon fill="black" stroke="black" points="185.55,-375.29 177.4,-368.52 179.55,-378.89 185.55,-375.29"/>
<text text-anchor="start" x="196.5" y="-390.8" font-family="Times,serif" font-size="14.00">%1</text>
</g>
<!-- node3 -->
<g id="node4" class="node">
<title>node3</title>
<polygon fill="none" stroke="black" points="0.5,-0.5 0.5,-188.5 278.5,-188.5 278.5,-0.5 0.5,-0.5"/>
<text text-anchor="start" x="8.5" y="-173.3" font-family="Times,serif" font-size="14.00">Get %2 (l1)</text>
<text text-anchor="start" x="8.5" y="-158.3" font-family="Times,serif" font-size="14.00"> types = (integer, integer?)</text>
<text text-anchor="start" x="8.5" y="-143.3" font-family="Times,serif" font-size="14.00"> keys = ()</text>
<text text-anchor="start" x="8.5" y="-128.3" font-family="Times,serif" font-size="14.00"> Map coalesce(#0, #1)</text>
<text text-anchor="start" x="8.5" y="-113.3" font-family="Times,serif" font-size="14.00"> types = (integer, integer?, integer?)</text>
<text text-anchor="start" x="8.5" y="-98.3" font-family="Times,serif" font-size="14.00"> keys = ()</text>
<text text-anchor="start" x="8.5" y="-83.3" font-family="Times,serif" font-size="14.00"> Project (#0..#2)</text>
<text text-anchor="start" x="8.5" y="-68.3" font-family="Times,serif" font-size="14.00"> types = (integer, integer?, integer?)</text>
<text text-anchor="start" x="8.5" y="-53.3" font-family="Times,serif" font-size="14.00"> keys = ()</text>
<text text-anchor="start" x="8.5" y="-38.3" font-family="Times,serif" font-size="14.00"> Project (#2)</text>
<text text-anchor="start" x="8.5" y="-23.3" font-family="Times,serif" font-size="14.00"> types = (integer?)</text>
<text text-anchor="start" x="8.5" y="-8.3" font-family="Times,serif" font-size="14.00"> keys = ()</text>
</g>
<!-- node2&#45;&gt;node3 -->
<g id="edge2" class="edge">
<title>node2&#45;&gt;node3</title>
<path fill="none" stroke="black" d="M139.5,-240.25C139.5,-227.17 139.5,-213.06 139.5,-198.98"/>
<polygon fill="black" stroke="black" points="143,-198.73 139.5,-188.73 136,-198.73 143,-198.73"/>
<text text-anchor="start" x="139.5" y="-210.8" font-family="Times,serif" font-size="14.00">%2</text>
</g>
</g>
</svg>
