<?xml version="1.0" encoding="UTF-8" standalone="no"?>
<!DOCTYPE svg PUBLIC "-//W3C//DTD SVG 1.1//EN"
 "http://www.w3.org/Graphics/SVG/1.1/DTD/svg11.dtd">
<!-- Generated by graphviz version 2.43.0 (0)
 -->
<!-- Title: G Pages: 1 -->
<svg width="636pt" height="534pt"
 viewBox="0.00 0.00 636.00 534.09" xmlns="http://www.w3.org/2000/svg" xmlns:xlink="http://www.w3.org/1999/xlink">
<g id="graph0" class="graph" transform="scale(1 1) rotate(0) translate(4 530.09)">
<title>G</title>
<polygon fill="white" stroke="transparent" points="-4,4 -4,-530.09 632,-530.09 632,4 -4,4"/>
<g id="clust1" class="cluster">
<title>cluster3</title>
<polygon fill="none" stroke="black" points="366,-405 366,-518.09 620,-518.09 620,-405 366,-405"/>
<text text-anchor="middle" x="416.5" y="-502.89" font-family="Times,serif" font-size="14.00">Box3:Select</text>
</g>
<g id="clust3" class="cluster">
<title>cluster2</title>
<polygon fill="none" stroke="black" points="176,-265 176,-397 554,-397 554,-265 176,-265"/>
<text text-anchor="middle" x="226.5" y="-381.8" font-family="Times,serif" font-size="14.00">Box2:Select</text>
</g>
<g id="clust5" class="cluster">
<title>cluster1</title>
<polygon fill="none" stroke="black" points="44,-125 44,-257 306,-257 306,-125 44,-125"/>
<text text-anchor="middle" x="94.5" y="-241.8" font-family="Times,serif" font-size="14.00">Box1:Select</text>
</g>
<g id="clust7" class="cluster">
<title>cluster0</title>
<polygon fill="none" stroke="black" points="8,-8 8,-117 170,-117 170,-8 8,-8"/>
<text text-anchor="middle" x="49.5" y="-101.8" font-family="Times,serif" font-size="14.00">Box0:Get</text>
</g>
<!-- boxhead3 -->
<g id="node1" class="node">
<title>boxhead3</title>
<polygon fill="none" stroke="black" points="466,-427.05 466,-473.05 612,-473.05 612,-427.05 466,-427.05"/>
<text text-anchor="middle" x="539" y="-457.85" font-family="Times,serif" font-size="14.00">Distinct: Preserve</text>
<polyline fill="none" stroke="black" points="466,-450.05 612,-450.05 "/>
<text text-anchor="middle" x="539" y="-434.85" font-family="Times,serif" font-size="14.00">0: Q2.C2 (integer)</text>
</g>
<!-- Q2 -->
<g id="node2" class="node">
<title>Q2</title>
<ellipse fill="none" stroke="black" cx="411" cy="-450.05" rx="37.09" ry="37.09"/>
<text text-anchor="middle" x="411" y="-446.35" font-family="Times,serif" font-size="14.00">Q2(F)</text>
</g>
<!-- boxhead2 -->
<g id="node3" class="node">
<title>boxhead2</title>
<polygon fill="none" stroke="black" points="276.5,-273.5 276.5,-365.5 545.5,-365.5 545.5,-273.5 276.5,-273.5"/>
<text text-anchor="middle" x="411" y="-350.3" font-family="Times,serif" font-size="14.00">Distinct: Preserve</text>
<polyline fill="none" stroke="black" points="276.5,-342.5 545.5,-342.5 "/>
<text text-anchor="middle" x="411" y="-327.3" font-family="Times,serif" font-size="14.00">0: Q1.C0 (integer?)</text>
<polyline fill="none" stroke="black" points="276.5,-319.5 545.5,-319.5 "/>
<text text-anchor="middle" x="411" y="-304.3" font-family="Times,serif" font-size="14.00">1: Q1.C1 (integer?)</text>
<polyline fill="none" stroke="black" points="276.5,-296.5 545.5,-296.5 "/>
<text text-anchor="middle" x="411" y="-281.3" font-family="Times,serif" font-size="14.00">2: coalesce(Q1.C0, Q1.C1) (integer)</text>
</g>
<!-- Q2&#45;&gt;boxhead2 -->
<g id="edge1" class="edge">
<title>Q2&#45;&gt;boxhead2</title>
<path fill="none" stroke="black" stroke-dasharray="5,2" d="M411,-412.9C411,-407.83 411,-402.48 411,-397"/>
</g>
<!-- Q1 -->
<g id="node4" class="node">
<title>Q1</title>
<ellipse fill="none" stroke="black" cx="221" cy="-319.5" rx="37.09" ry="37.09"/>
<text text-anchor="middle" x="221" y="-315.8" font-family="Times,serif" font-size="14.00">Q1(F)</text>
</g>
<!-- boxhead1 -->
<g id="node5" class="node">
<title>boxhead1</title>
<polygon fill="none" stroke="black" points="144.5,-133.5 144.5,-225.5 297.5,-225.5 297.5,-133.5 144.5,-133.5"/>
<text text-anchor="middle" x="221" y="-210.3" font-family="Times,serif" font-size="14.00">Distinct: Preserve</text>
<polyline fill="none" stroke="black" points="144.5,-202.5 297.5,-202.5 "/>
<text text-anchor="middle" x="221" y="-187.3" font-family="Times,serif" font-size="14.00">0: Q0.C0 (integer?)</text>
<polyline fill="none" stroke="black" points="144.5,-179.5 297.5,-179.5 "/>
<text text-anchor="middle" x="221" y="-164.3" font-family="Times,serif" font-size="14.00">1: Q0.C1 (integer?)</text>
<polyline fill="none" stroke="black" points="144.5,-156.5 297.5,-156.5 "/>
<text text-anchor="middle" x="221" y="-141.3" font-family="Times,serif" font-size="14.00">!(isnull(Q0.C0))</text>
</g>
<!-- Q1&#45;&gt;boxhead1 -->
<g id="edge2" class="edge">
<title>Q1&#45;&gt;boxhead1</title>
<path fill="none" stroke="black" stroke-dasharray="5,2" d="M221,-282.24C221,-274.38 221,-265.77 221,-257"/>
</g>
<!-- Q0 -->
<g id="node6" class="node">
<title>Q0</title>
<ellipse fill="none" stroke="black" cx="89" cy="-179.5" rx="37.09" ry="37.09"/>
<text text-anchor="middle" x="89" y="-175.8" font-family="Times,serif" font-size="14.00">Q0(F)</text>
</g>
<!-- boxhead0 -->
<g id="node7" class="node">
<title>boxhead0</title>
<polygon fill="none" stroke="black" points="16,-16.5 16,-85.5 162,-85.5 162,-16.5 16,-16.5"/>
<text text-anchor="middle" x="89" y="-70.3" font-family="Times,serif" font-size="14.00">Distinct: Preserve</text>
<polyline fill="none" stroke="black" points="16,-62.5 162,-62.5 "/>
<text text-anchor="middle" x="89" y="-47.3" font-family="Times,serif" font-size="14.00">0: C0 (integer?)</text>
<polyline fill="none" stroke="black" points="16,-39.5 162,-39.5 "/>
<text text-anchor="middle" x="89" y="-24.3" font-family="Times,serif" font-size="14.00">1: C1 (integer?)</text>
</g>
<!-- Q0&#45;&gt;boxhead0 -->
<g id="edge3" class="edge">
<title>Q0&#45;&gt;boxhead0</title>
<path fill="none" stroke="black" stroke-dasharray="5,2" d="M89,-142.25C89,-134.31 89,-125.68 89,-117"/>
</g>
</g>
</svg>
