<?xml version="1.0" encoding="UTF-8" standalone="no"?>
<!DOCTYPE svg PUBLIC "-//W3C//DTD SVG 1.1//EN"
 "http://www.w3.org/Graphics/SVG/1.1/DTD/svg11.dtd">
<!-- Generated by graphviz version 2.43.0 (0)
 -->
<!-- Title: G Pages: 1 -->
<svg width="319pt" height="392pt"
 viewBox="0.00 0.00 319.00 392.00" xmlns="http://www.w3.org/2000/svg" xmlns:xlink="http://www.w3.org/1999/xlink">
<g id="graph0" class="graph" transform="scale(1 1) rotate(0) translate(4 388)">
<title>G</title>
<polygon fill="white" stroke="transparent" points="-4,4 -4,-388 315,-388 315,4 -4,4"/>
<!-- node0 -->
<g id="node1" class="node">
<title>node0</title>
<polygon fill="none" stroke="black" points="3,-345.5 3,-383.5 104,-383.5 104,-345.5 3,-345.5"/>
<text text-anchor="start" x="11" y="-368.3" font-family="Times,serif" font-size="14.00">Let l0 =</text>
<text text-anchor="start" x="11" y="-353.3" font-family="Times,serif" font-size="14.00"> Constant ()</text>
</g>
<!-- node2 -->
<g id="node3" class="node">
<title>node2</title>
<polygon fill="none" stroke="black" points="0,-240.5 0,-293.5 269,-293.5 269,-240.5 0,-240.5"/>
<text text-anchor="start" x="8" y="-278.3" font-family="Times,serif" font-size="14.00">Let l1 =</text>
<text text-anchor="start" x="8" y="-263.3" font-family="Times,serif" font-size="14.00"> Join %0 %1</text>
<text text-anchor="start" x="8" y="-248.3" font-family="Times,serif" font-size="14.00"> implementation = Unimplemented</text>
</g>
<!-- node0&#45;&gt;node2 -->
<g id="edge4" class="edge">
<title>node0&#45;&gt;node2</title>
<path fill="none" stroke="black" d="M69.12,-345.09C79.59,-332.74 93.69,-316.12 106.11,-301.47"/>
<polygon fill="black" stroke="black" points="109.01,-303.47 112.81,-293.58 103.67,-298.94 109.01,-303.47"/>
<text text-anchor="start" x="96.5" y="-315.8" font-family="Times,serif" font-size="14.00">%0</text>
</g>
<!-- node1 -->
<g id="node2" class="node">
<title>node1</title>
<polygon fill="none" stroke="black" points="122,-346.5 122,-382.5 311,-382.5 311,-346.5 122,-346.5"/>
<text text-anchor="start" x="130" y="-360.8" font-family="Times,serif" font-size="14.00">Get types.public.u (u33)</text>
</g>
<!-- node1&#45;&gt;node2 -->
<g id="edge2" class="edge">
<title>node1&#45;&gt;node2</title>
<path fill="none" stroke="black" d="M201.84,-346.43C191.09,-333.91 176.15,-316.51 163.08,-301.28"/>
<polygon fill="black" stroke="black" points="165.61,-298.86 156.44,-293.55 160.3,-303.42 165.61,-298.86"/>
<text text-anchor="start" x="182.5" y="-315.8" font-family="Times,serif" font-size="14.00">%1</text>
</g>
<!-- node3 -->
<g id="node4" class="node">
<title>node3</title>
<polygon fill="none" stroke="black" points="65.5,-105.5 65.5,-188.5 203.5,-188.5 203.5,-105.5 65.5,-105.5"/>
<text text-anchor="start" x="73.5" y="-173.3" font-family="Times,serif" font-size="14.00">Let l2 =</text>
<text text-anchor="start" x="73.5" y="-158.3" font-family="Times,serif" font-size="14.00"> Get %2 (l1)</text>
<text text-anchor="start" x="73.5" y="-143.3" font-family="Times,serif" font-size="14.00"> Map (#0 + #1)</text>
<text text-anchor="start" x="73.5" y="-128.3" font-family="Times,serif" font-size="14.00"> Map (#0 &#45; #1)</text>
<text text-anchor="start" x="73.5" y="-113.3" font-family="Times,serif" font-size="14.00"> Project (#0..#3)</text>
</g>
<!-- node2&#45;&gt;node3 -->
<g id="edge3" class="edge">
<title>node2&#45;&gt;node3</title>
<path fill="none" stroke="black" d="M134.5,-240.4C134.5,-228.29 134.5,-213.38 134.5,-199.1"/>
<polygon fill="black" stroke="black" points="138,-198.86 134.5,-188.86 131,-198.86 138,-198.86"/>
<text text-anchor="start" x="134.5" y="-210.8" font-family="Times,serif" font-size="14.00">%2</text>
</g>
<!-- node4 -->
<g id="node5" class="node">
<title>node4</title>
<polygon fill="none" stroke="black" points="30,-0.5 30,-53.5 239,-53.5 239,-0.5 30,-0.5"/>
<text text-anchor="start" x="38" y="-38.3" font-family="Times,serif" font-size="14.00">Get %3 (l2)</text>
<text text-anchor="start" x="38" y="-23.3" font-family="Times,serif" font-size="14.00"> Map coalesce(#2, #3, #1)</text>
<text text-anchor="start" x="38" y="-8.3" font-family="Times,serif" font-size="14.00"> Project (#0..#4)</text>
</g>
<!-- node3&#45;&gt;node4 -->
<g id="edge1" class="edge">
<title>node3&#45;&gt;node4</title>
<path fill="none" stroke="black" d="M134.5,-105.39C134.5,-91.82 134.5,-76.8 134.5,-63.64"/>
<polygon fill="black" stroke="black" points="138,-63.54 134.5,-53.54 131,-63.54 138,-63.54"/>
<text text-anchor="start" x="134.5" y="-75.8" font-family="Times,serif" font-size="14.00">%3</text>
</g>
</g>
</svg>
