<?xml version="1.0" encoding="UTF-8" standalone="no"?>
<!DOCTYPE svg PUBLIC "-//W3C//DTD SVG 1.1//EN"
 "http://www.w3.org/Graphics/SVG/1.1/DTD/svg11.dtd">
<!-- Generated by graphviz version 2.43.0 (0)
 -->
<!-- Title: G Pages: 1 -->
<svg width="423pt" height="662pt"
 viewBox="0.00 0.00 423.00 662.00" xmlns="http://www.w3.org/2000/svg" xmlns:xlink="http://www.w3.org/1999/xlink">
<g id="graph0" class="graph" transform="scale(1 1) rotate(0) translate(4 658)">
<title>G</title>
<polygon fill="white" stroke="transparent" points="-4,4 -4,-658 419,-658 419,4 -4,4"/>
<!-- node0 -->
<g id="node1" class="node">
<title>node0</title>
<polygon fill="none" stroke="black" points="70,-585.5 70,-653.5 171,-653.5 171,-585.5 70,-585.5"/>
<text text-anchor="start" x="78" y="-638.3" font-family="Times,serif" font-size="14.00">Let l0 =</text>
<text text-anchor="start" x="78" y="-623.3" font-family="Times,serif" font-size="14.00"> Constant ()</text>
<text text-anchor="start" x="78" y="-608.3" font-family="Times,serif" font-size="14.00"> types = ()</text>
<text text-anchor="start" x="78" y="-593.3" font-family="Times,serif" font-size="14.00"> keys = (())</text>
</g>
<!-- node2 -->
<g id="node3" class="node">
<title>node2</title>
<polygon fill="none" stroke="black" points="73,-450.5 73,-533.5 342,-533.5 342,-450.5 73,-450.5"/>
<text text-anchor="start" x="81" y="-518.3" font-family="Times,serif" font-size="14.00">Let l1 =</text>
<text text-anchor="start" x="81" y="-503.3" font-family="Times,serif" font-size="14.00"> Join %0 %1</text>
<text text-anchor="start" x="81" y="-488.3" font-family="Times,serif" font-size="14.00"> implementation = Unimplemented</text>
<text text-anchor="start" x="81" y="-473.3" font-family="Times,serif" font-size="14.00"> types = (integer?, integer)</text>
<text text-anchor="start" x="81" y="-458.3" font-family="Times,serif" font-size="14.00"> keys = ()</text>
</g>
<!-- node0&#45;&gt;node2 -->
<g id="edge4" class="edge">
<title>node0&#45;&gt;node2</title>
<path fill="none" stroke="black" d="M143.59,-585.2C152.76,-571.96 163.5,-556.47 173.53,-542"/>
<polygon fill="black" stroke="black" points="176.51,-543.84 179.34,-533.63 170.76,-539.85 176.51,-543.84"/>
<text text-anchor="start" x="164.5" y="-555.8" font-family="Times,serif" font-size="14.00">%0</text>
</g>
<!-- node1 -->
<g id="node2" class="node">
<title>node1</title>
<polygon fill="none" stroke="black" points="189.5,-593 189.5,-646 401.5,-646 401.5,-593 189.5,-593"/>
<text text-anchor="start" x="197.5" y="-630.8" font-family="Times,serif" font-size="14.00">Get types.public.u (u33)</text>
<text text-anchor="start" x="197.5" y="-615.8" font-family="Times,serif" font-size="14.00"> types = (integer?, integer)</text>
<text text-anchor="start" x="197.5" y="-600.8" font-family="Times,serif" font-size="14.00"> keys = ()</text>
</g>
<!-- node1&#45;&gt;node2 -->
<g id="edge2" class="edge">
<title>node1&#45;&gt;node2</title>
<path fill="none" stroke="black" d="M277.48,-592.8C267.28,-578.26 254.18,-559.57 242.08,-542.32"/>
<polygon fill="black" stroke="black" points="244.84,-540.16 236.24,-533.98 239.11,-544.18 244.84,-540.16"/>
<text text-anchor="start" x="258.5" y="-555.8" font-family="Times,serif" font-size="14.00">%1</text>
</g>
<!-- node3 -->
<g id="node4" class="node">
<title>node3</title>
<polygon fill="none" stroke="black" points="34,-195.5 34,-398.5 381,-398.5 381,-195.5 34,-195.5"/>
<text text-anchor="start" x="42" y="-383.3" font-family="Times,serif" font-size="14.00">Let l2 =</text>
<text text-anchor="start" x="42" y="-368.3" font-family="Times,serif" font-size="14.00"> Get %2 (l1)</text>
<text text-anchor="start" x="42" y="-353.3" font-family="Times,serif" font-size="14.00"> types = (integer?, integer)</text>
<text text-anchor="start" x="42" y="-338.3" font-family="Times,serif" font-size="14.00"> keys = ()</text>
<text text-anchor="start" x="42" y="-323.3" font-family="Times,serif" font-size="14.00"> Map (#0 + #1)</text>
<text text-anchor="start" x="42" y="-308.3" font-family="Times,serif" font-size="14.00"> types = (integer?, integer, integer?)</text>
<text text-anchor="start" x="42" y="-293.3" font-family="Times,serif" font-size="14.00"> keys = ()</text>
<text text-anchor="start" x="42" y="-278.3" font-family="Times,serif" font-size="14.00"> Map (#0 &#45; #1)</text>
<text text-anchor="start" x="42" y="-263.3" font-family="Times,serif" font-size="14.00"> types = (integer?, integer, integer?, integer?)</text>
<text text-anchor="start" x="42" y="-248.3" font-family="Times,serif" font-size="14.00"> keys = ()</text>
<text text-anchor="start" x="42" y="-233.3" font-family="Times,serif" font-size="14.00"> Project (#0..#3)</text>
<text text-anchor="start" x="42" y="-218.3" font-family="Times,serif" font-size="14.00"> types = (integer?, integer, integer?, integer?)</text>
<text text-anchor="start" x="42" y="-203.3" font-family="Times,serif" font-size="14.00"> keys = ()</text>
</g>
<!-- node2&#45;&gt;node3 -->
<g id="edge3" class="edge">
<title>node2&#45;&gt;node3</title>
<path fill="none" stroke="black" d="M207.5,-450.07C207.5,-437.75 207.5,-423.6 207.5,-409"/>
<polygon fill="black" stroke="black" points="211,-408.84 207.5,-398.84 204,-408.84 211,-408.84"/>
<text text-anchor="start" x="207.5" y="-420.8" font-family="Times,serif" font-size="14.00">%2</text>
</g>
<!-- node4 -->
<g id="node5" class="node">
<title>node4</title>
<polygon fill="none" stroke="black" points="0,-0.5 0,-143.5 415,-143.5 415,-0.5 0,-0.5"/>
<text text-anchor="start" x="8" y="-128.3" font-family="Times,serif" font-size="14.00">Get %3 (l2)</text>
<text text-anchor="start" x="8" y="-113.3" font-family="Times,serif" font-size="14.00"> types = (integer?, integer, integer?, integer?)</text>
<text text-anchor="start" x="8" y="-98.3" font-family="Times,serif" font-size="14.00"> keys = ()</text>
<text text-anchor="start" x="8" y="-83.3" font-family="Times,serif" font-size="14.00"> Map coalesce(#2, #3, #1)</text>
<text text-anchor="start" x="8" y="-68.3" font-family="Times,serif" font-size="14.00"> types = (integer?, integer, integer?, integer?, integer?)</text>
<text text-anchor="start" x="8" y="-53.3" font-family="Times,serif" font-size="14.00"> keys = ()</text>
<text text-anchor="start" x="8" y="-38.3" font-family="Times,serif" font-size="14.00"> Project (#0..#4)</text>
<text text-anchor="start" x="8" y="-23.3" font-family="Times,serif" font-size="14.00"> types = (integer?, integer, integer?, integer?, integer?)</text>
<text text-anchor="start" x="8" y="-8.3" font-family="Times,serif" font-size="14.00"> keys = ()</text>
</g>
<!-- node3&#45;&gt;node4 -->
<g id="edge1" class="edge">
<title>node3&#45;&gt;node4</title>
<path fill="none" stroke="black" d="M207.5,-195.26C207.5,-181.38 207.5,-167.26 207.5,-153.8"/>
<polygon fill="black" stroke="black" points="211,-153.64 207.5,-143.64 204,-153.64 211,-153.64"/>
<text text-anchor="start" x="207.5" y="-165.8" font-family="Times,serif" font-size="14.00">%3</text>
</g>
</g>
</svg>
