<?xml version="1.0" encoding="UTF-8" standalone="no"?>
<!DOCTYPE svg PUBLIC "-//W3C//DTD SVG 1.1//EN"
 "http://www.w3.org/Graphics/SVG/1.1/DTD/svg11.dtd">
<!-- Generated by graphviz version 2.43.0 (0)
 -->
<!-- Title: G Pages: 1 -->
<svg width="561pt" height="272pt"
 viewBox="0.00 0.00 560.50 272.00" xmlns="http://www.w3.org/2000/svg" xmlns:xlink="http://www.w3.org/1999/xlink">
<g id="graph0" class="graph" transform="scale(1 1) rotate(0) translate(4 268)">
<title>G</title>
<polygon fill="white" stroke="transparent" points="-4,4 -4,-268 556.5,-268 556.5,4 -4,4"/>
<!-- node0 -->
<g id="node1" class="node">
<title>node0</title>
<polygon fill="none" stroke="black" points="0,-90.5 0,-143.5 227,-143.5 227,-90.5 0,-90.5"/>
<text text-anchor="start" x="8" y="-128.3" font-family="Times,serif" font-size="14.00">Get hir_to_qgm.public.r (u39)</text>
<text text-anchor="start" x="8" y="-113.3" font-family="Times,serif" font-size="14.00">Map #0, #1</text>
<text text-anchor="start" x="8" y="-98.3" font-family="Times,serif" font-size="14.00">Project (#2, #3)</text>
</g>
<!-- node4 -->
<g id="node5" class="node">
<title>node4</title>
<polygon fill="none" stroke="black" points="80,-0.5 80,-38.5 193,-38.5 193,-0.5 80,-0.5"/>
<text text-anchor="start" x="88" y="-23.3" font-family="Times,serif" font-size="14.00">Union %0 %3</text>
<text text-anchor="start" x="88" y="-8.3" font-family="Times,serif" font-size="14.00">Distinct</text>
</g>
<!-- node0&#45;&gt;node4 -->
<g id="edge2" class="edge">
<title>node0&#45;&gt;node4</title>
<path fill="none" stroke="black" d="M119.66,-90.41C122.77,-77.5 126.55,-61.82 129.74,-48.59"/>
<polygon fill="black" stroke="black" points="133.2,-49.14 132.14,-38.6 126.4,-47.5 133.2,-49.14"/>
<text text-anchor="start" x="127.5" y="-60.8" font-family="Times,serif" font-size="14.00">%0</text>
</g>
<!-- node1 -->
<g id="node2" class="node">
<title>node1</title>
<polygon fill="none" stroke="black" points="79,-203 79,-256 306,-256 306,-203 79,-203"/>
<text text-anchor="start" x="87" y="-240.8" font-family="Times,serif" font-size="14.00">Get hir_to_qgm.public.r (u39)</text>
<text text-anchor="start" x="87" y="-225.8" font-family="Times,serif" font-size="14.00">Map #0, #1</text>
<text text-anchor="start" x="87" y="-210.8" font-family="Times,serif" font-size="14.00">Project (#2, #3)</text>
</g>
<!-- node3 -->
<g id="node4" class="node">
<title>node3</title>
<polygon fill="none" stroke="black" points="245.5,-98 245.5,-136 385.5,-136 385.5,-98 245.5,-98"/>
<text text-anchor="start" x="253.5" y="-120.8" font-family="Times,serif" font-size="14.00">Union %1 %2</text>
<text text-anchor="start" x="253.5" y="-105.8" font-family="Times,serif" font-size="14.00">ThresholdNegate</text>
</g>
<!-- node1&#45;&gt;node3 -->
<g id="edge4" class="edge">
<title>node1&#45;&gt;node3</title>
<path fill="none" stroke="black" d="M221.03,-202.87C241.08,-184.86 267.76,-160.89 287.66,-143.01"/>
<polygon fill="black" stroke="black" points="290.09,-145.53 295.19,-136.25 285.41,-140.33 290.09,-145.53"/>
<text text-anchor="start" x="265.5" y="-165.8" font-family="Times,serif" font-size="14.00">%1</text>
</g>
<!-- node2 -->
<g id="node3" class="node">
<title>node2</title>
<polygon fill="none" stroke="black" points="324.5,-195.5 324.5,-263.5 552.5,-263.5 552.5,-195.5 324.5,-195.5"/>
<text text-anchor="start" x="332.5" y="-248.3" font-family="Times,serif" font-size="14.00">Get hir_to_qgm.public.s (u40)</text>
<text text-anchor="start" x="332.5" y="-233.3" font-family="Times,serif" font-size="14.00">Map #0, #1</text>
<text text-anchor="start" x="332.5" y="-218.3" font-family="Times,serif" font-size="14.00">Project (#2, #3)</text>
<text text-anchor="start" x="332.5" y="-203.3" font-family="Times,serif" font-size="14.00">Negate</text>
</g>
<!-- node2&#45;&gt;node3 -->
<g id="edge3" class="edge">
<title>node2&#45;&gt;node3</title>
<path fill="none" stroke="black" d="M401.6,-195.35C382.82,-178.48 360.38,-158.32 343.12,-142.81"/>
<polygon fill="black" stroke="black" points="345.36,-140.12 335.58,-136.04 340.68,-145.33 345.36,-140.12"/>
<text text-anchor="start" x="381.5" y="-165.8" font-family="Times,serif" font-size="14.00">%2</text>
</g>
<!-- node3&#45;&gt;node4 -->
<g id="edge1" class="edge">
<title>node3&#45;&gt;node4</title>
<path fill="none" stroke="black" d="M281.41,-97.81C252.42,-82.35 210.64,-60.06 179.39,-43.38"/>
<polygon fill="black" stroke="black" points="180.93,-40.24 170.46,-38.62 177.64,-46.42 180.93,-40.24"/>
<text text-anchor="start" x="231.5" y="-60.8" font-family="Times,serif" font-size="14.00">%3</text>
</g>
</g>
</svg>
