<?xml version="1.0" encoding="UTF-8" standalone="no"?>
<!DOCTYPE svg PUBLIC "-//W3C//DTD SVG 1.1//EN"
 "http://www.w3.org/Graphics/SVG/1.1/DTD/svg11.dtd">
<!-- Generated by graphviz version 2.43.0 (0)
 -->
<!-- Title: G Pages: 1 -->
<svg width="856pt" height="542pt"
 viewBox="0.00 0.00 856.00 542.00" xmlns="http://www.w3.org/2000/svg" xmlns:xlink="http://www.w3.org/1999/xlink">
<g id="graph0" class="graph" transform="scale(1 1) rotate(0) translate(4 538)">
<title>G</title>
<polygon fill="white" stroke="transparent" points="-4,4 -4,-538 852,-538 852,4 -4,4"/>
<!-- node0 -->
<g id="node1" class="node">
<title>node0</title>
<polygon fill="none" stroke="black" points="0,-150.5 0,-293.5 341,-293.5 341,-150.5 0,-150.5"/>
<text text-anchor="start" x="8" y="-278.3" font-family="Times,serif" font-size="14.00">Get hir_to_qgm.public.r (u39)</text>
<text text-anchor="start" x="8" y="-263.3" font-family="Times,serif" font-size="14.00">&#45; types = (bigint?, integer?)</text>
<text text-anchor="start" x="8" y="-248.3" font-family="Times,serif" font-size="14.00">&#45; keys = ()</text>
<text text-anchor="start" x="8" y="-233.3" font-family="Times,serif" font-size="14.00">Map #0, #1</text>
<text text-anchor="start" x="8" y="-218.3" font-family="Times,serif" font-size="14.00">&#45; types = (bigint?, integer?, bigint?, integer?)</text>
<text text-anchor="start" x="8" y="-203.3" font-family="Times,serif" font-size="14.00">&#45; keys = ()</text>
<text text-anchor="start" x="8" y="-188.3" font-family="Times,serif" font-size="14.00">Project (#2, #3)</text>
<text text-anchor="start" x="8" y="-173.3" font-family="Times,serif" font-size="14.00">&#45; types = (bigint?, integer?)</text>
<text text-anchor="start" x="8" y="-158.3" font-family="Times,serif" font-size="14.00">&#45; keys = ()</text>
</g>
<!-- node4 -->
<g id="node5" class="node">
<title>node4</title>
<polygon fill="none" stroke="black" points="86.5,-0.5 86.5,-98.5 300.5,-98.5 300.5,-0.5 86.5,-0.5"/>
<text text-anchor="start" x="94.5" y="-83.3" font-family="Times,serif" font-size="14.00">Union %0 %3</text>
<text text-anchor="start" x="94.5" y="-68.3" font-family="Times,serif" font-size="14.00">&#45; types = (bigint?, integer?)</text>
<text text-anchor="start" x="94.5" y="-53.3" font-family="Times,serif" font-size="14.00">&#45; keys = ()</text>
<text text-anchor="start" x="94.5" y="-38.3" font-family="Times,serif" font-size="14.00">Distinct</text>
<text text-anchor="start" x="94.5" y="-23.3" font-family="Times,serif" font-size="14.00">&#45; types = (bigint?, integer?)</text>
<text text-anchor="start" x="94.5" y="-8.3" font-family="Times,serif" font-size="14.00">&#45; keys = ()</text>
</g>
<!-- node0&#45;&gt;node4 -->
<g id="edge2" class="edge">
<title>node0&#45;&gt;node4</title>
<path fill="none" stroke="black" d="M180.05,-150.17C181.92,-136.32 183.86,-121.95 185.67,-108.57"/>
<polygon fill="black" stroke="black" points="189.15,-108.93 187.02,-98.56 182.21,-108 189.15,-108.93"/>
<text text-anchor="start" x="184.5" y="-120.8" font-family="Times,serif" font-size="14.00">%0</text>
</g>
<!-- node1 -->
<g id="node2" class="node">
<title>node1</title>
<polygon fill="none" stroke="black" points="148,-368 148,-511 489,-511 489,-368 148,-368"/>
<text text-anchor="start" x="156" y="-495.8" font-family="Times,serif" font-size="14.00">Get hir_to_qgm.public.r (u39)</text>
<text text-anchor="start" x="156" y="-480.8" font-family="Times,serif" font-size="14.00">&#45; types = (bigint?, integer?)</text>
<text text-anchor="start" x="156" y="-465.8" font-family="Times,serif" font-size="14.00">&#45; keys = ()</text>
<text text-anchor="start" x="156" y="-450.8" font-family="Times,serif" font-size="14.00">Map #0, #1</text>
<text text-anchor="start" x="156" y="-435.8" font-family="Times,serif" font-size="14.00">&#45; types = (bigint?, integer?, bigint?, integer?)</text>
<text text-anchor="start" x="156" y="-420.8" font-family="Times,serif" font-size="14.00">&#45; keys = ()</text>
<text text-anchor="start" x="156" y="-405.8" font-family="Times,serif" font-size="14.00">Project (#2, #3)</text>
<text text-anchor="start" x="156" y="-390.8" font-family="Times,serif" font-size="14.00">&#45; types = (bigint?, integer?)</text>
<text text-anchor="start" x="156" y="-375.8" font-family="Times,serif" font-size="14.00">&#45; keys = ()</text>
</g>
<!-- node3 -->
<g id="node4" class="node">
<title>node3</title>
<polygon fill="none" stroke="black" points="359.5,-158 359.5,-286 635.5,-286 635.5,-158 359.5,-158"/>
<text text-anchor="start" x="367.5" y="-270.8" font-family="Times,serif" font-size="14.00">Union %1 %2</text>
<text text-anchor="start" x="367.5" y="-255.8" font-family="Times,serif" font-size="14.00">&#45; types = (bigint?, integer?)</text>
<text text-anchor="start" x="367.5" y="-240.8" font-family="Times,serif" font-size="14.00">&#45; keys = ()</text>
<text text-anchor="start" x="367.5" y="-225.8" font-family="Times,serif" font-size="14.00">Thresholdtypes = (bigint?, integer?)</text>
<text text-anchor="start" x="367.5" y="-210.8" font-family="Times,serif" font-size="14.00">&#45; keys = ()</text>
<text text-anchor="start" x="367.5" y="-195.8" font-family="Times,serif" font-size="14.00">Negate</text>
<text text-anchor="start" x="367.5" y="-180.8" font-family="Times,serif" font-size="14.00">&#45; types = (bigint?, integer?)</text>
<text text-anchor="start" x="367.5" y="-165.8" font-family="Times,serif" font-size="14.00">&#45; keys = ()</text>
</g>
<!-- node1&#45;&gt;node3 -->
<g id="edge4" class="edge">
<title>node1&#45;&gt;node3</title>
<path fill="none" stroke="black" d="M377.11,-367.94C396.81,-344.23 418.78,-317.78 438.5,-294.03"/>
<polygon fill="black" stroke="black" points="441.4,-296.02 445.1,-286.09 436.02,-291.54 441.4,-296.02"/>
<text text-anchor="start" x="419.5" y="-315.8" font-family="Times,serif" font-size="14.00">%1</text>
</g>
<!-- node2 -->
<g id="node3" class="node">
<title>node2</title>
<polygon fill="none" stroke="black" points="507,-345.5 507,-533.5 848,-533.5 848,-345.5 507,-345.5"/>
<text text-anchor="start" x="515" y="-518.3" font-family="Times,serif" font-size="14.00">Get hir_to_qgm.public.s (u40)</text>
<text text-anchor="start" x="515" y="-503.3" font-family="Times,serif" font-size="14.00">&#45; types = (bigint?, integer?)</text>
<text text-anchor="start" x="515" y="-488.3" font-family="Times,serif" font-size="14.00">&#45; keys = ()</text>
<text text-anchor="start" x="515" y="-473.3" font-family="Times,serif" font-size="14.00">Map #0, #1</text>
<text text-anchor="start" x="515" y="-458.3" font-family="Times,serif" font-size="14.00">&#45; types = (bigint?, integer?, bigint?, integer?)</text>
<text text-anchor="start" x="515" y="-443.3" font-family="Times,serif" font-size="14.00">&#45; keys = ()</text>
<text text-anchor="start" x="515" y="-428.3" font-family="Times,serif" font-size="14.00">Project (#2, #3)</text>
<text text-anchor="start" x="515" y="-413.3" font-family="Times,serif" font-size="14.00">&#45; types = (bigint?, integer?)</text>
<text text-anchor="start" x="515" y="-398.3" font-family="Times,serif" font-size="14.00">&#45; keys = ()</text>
<text text-anchor="start" x="515" y="-383.3" font-family="Times,serif" font-size="14.00">Negate</text>
<text text-anchor="start" x="515" y="-368.3" font-family="Times,serif" font-size="14.00">&#45; types = (bigint?, integer?)</text>
<text text-anchor="start" x="515" y="-353.3" font-family="Times,serif" font-size="14.00">&#45; keys = ()</text>
</g>
<!-- node2&#45;&gt;node3 -->
<g id="edge3" class="edge">
<title>node2&#45;&gt;node3</title>
<path fill="none" stroke="black" d="M599.6,-345.23C585.31,-328.12 570.6,-310.52 556.96,-294.19"/>
<polygon fill="black" stroke="black" points="559.45,-291.71 550.36,-286.28 554.08,-296.2 559.45,-291.71"/>
<text text-anchor="start" x="582.5" y="-315.8" font-family="Times,serif" font-size="14.00">%2</text>
</g>
<!-- node3&#45;&gt;node4 -->
<g id="edge1" class="edge">
<title>node3&#45;&gt;node4</title>
<path fill="none" stroke="black" d="M385.17,-158C353.3,-140.12 318.93,-120.85 288.22,-103.62"/>
<polygon fill="black" stroke="black" points="289.67,-100.43 279.24,-98.59 286.25,-106.53 289.67,-100.43"/>
<text text-anchor="start" x="336.5" y="-120.8" font-family="Times,serif" font-size="14.00">%3</text>
</g>
</g>
</svg>
