<?xml version="1.0" encoding="UTF-8" standalone="no"?>
<!DOCTYPE svg PUBLIC "-//W3C//DTD SVG 1.1//EN"
 "http://www.w3.org/Graphics/SVG/1.1/DTD/svg11.dtd">
<!-- Generated by graphviz version 2.43.0 (0)
 -->
<!-- Title: G Pages: 1 -->
<svg width="482pt" height="182pt"
 viewBox="0.00 0.00 481.50 182.00" xmlns="http://www.w3.org/2000/svg" xmlns:xlink="http://www.w3.org/1999/xlink">
<g id="graph0" class="graph" transform="scale(1 1) rotate(0) translate(4 178)">
<title>G</title>
<polygon fill="white" stroke="transparent" points="-4,4 -4,-178 477.5,-178 477.5,4 -4,4"/>
<!-- node0 -->
<g id="node1" class="node">
<title>node0</title>
<polygon fill="none" stroke="black" points="0,-98 0,-166 227,-166 227,-98 0,-98"/>
<text text-anchor="start" x="8" y="-150.8" font-family="Times,serif" font-size="14.00">Get hir_to_qgm.public.r (u39)</text>
<text text-anchor="start" x="8" y="-135.8" font-family="Times,serif" font-size="14.00">Map #0, #1</text>
<text text-anchor="start" x="8" y="-120.8" font-family="Times,serif" font-size="14.00">Project (#2, #3)</text>
<text text-anchor="start" x="8" y="-105.8" font-family="Times,serif" font-size="14.00">Distinct</text>
</g>
<!-- node2 -->
<g id="node3" class="node">
<title>node2</title>
<polygon fill="none" stroke="black" points="180,-0.5 180,-38.5 293,-38.5 293,-0.5 180,-0.5"/>
<text text-anchor="start" x="188" y="-23.3" font-family="Times,serif" font-size="14.00">Union %0 %1</text>
<text text-anchor="start" x="188" y="-8.3" font-family="Times,serif" font-size="14.00">Threshold</text>
</g>
<!-- node0&#45;&gt;node2 -->
<g id="edge1" class="edge">
<title>node0&#45;&gt;node2</title>
<path fill="none" stroke="black" d="M150.4,-97.85C169.18,-80.98 191.62,-60.82 208.88,-45.31"/>
<polygon fill="black" stroke="black" points="211.32,-47.83 216.42,-38.54 206.64,-42.62 211.32,-47.83"/>
<text text-anchor="start" x="193.5" y="-60.8" font-family="Times,serif" font-size="14.00">%0</text>
</g>
<!-- node1 -->
<g id="node2" class="node">
<title>node1</title>
<polygon fill="none" stroke="black" points="245.5,-90.5 245.5,-173.5 473.5,-173.5 473.5,-90.5 245.5,-90.5"/>
<text text-anchor="start" x="253.5" y="-158.3" font-family="Times,serif" font-size="14.00">Get hir_to_qgm.public.s (u40)</text>
<text text-anchor="start" x="253.5" y="-143.3" font-family="Times,serif" font-size="14.00">Map #0, #1</text>
<text text-anchor="start" x="253.5" y="-128.3" font-family="Times,serif" font-size="14.00">Project (#2, #3)</text>
<text text-anchor="start" x="253.5" y="-113.3" font-family="Times,serif" font-size="14.00">Distinct</text>
<text text-anchor="start" x="253.5" y="-98.3" font-family="Times,serif" font-size="14.00">Negate</text>
</g>
<!-- node1&#45;&gt;node2 -->
<g id="edge2" class="edge">
<title>node1&#45;&gt;node2</title>
<path fill="none" stroke="black" d="M314.4,-90.48C297.74,-75.51 279.34,-58.99 264.62,-45.76"/>
<polygon fill="black" stroke="black" points="266.62,-42.86 256.85,-38.78 261.95,-48.06 266.62,-42.86"/>
<text text-anchor="start" x="291.5" y="-60.8" font-family="Times,serif" font-size="14.00">%1</text>
</g>
</g>
</svg>
