<?xml version="1.0" encoding="UTF-8" standalone="no"?>
<!DOCTYPE svg PUBLIC "-//W3C//DTD SVG 1.1//EN"
 "http://www.w3.org/Graphics/SVG/1.1/DTD/svg11.dtd">
<!-- Generated by graphviz version 2.43.0 (0)
 -->
<!-- Title: G Pages: 1 -->
<svg width="368pt" height="255pt"
 viewBox="0.00 0.00 367.50 255.00" xmlns="http://www.w3.org/2000/svg" xmlns:xlink="http://www.w3.org/1999/xlink">
<g id="graph0" class="graph" transform="scale(1 1) rotate(0) translate(4 251)">
<title>G</title>
<polygon fill="white" stroke="transparent" points="-4,4 -4,-251 363.5,-251 363.5,4 -4,4"/>
<!-- node0 -->
<g id="node1" class="node">
<title>node0</title>
<polygon fill="none" stroke="black" points="0,-210.5 0,-246.5 96,-246.5 96,-210.5 0,-210.5"/>
<text text-anchor="start" x="8" y="-224.8" font-family="Times,serif" font-size="14.00">Constant ()</text>
</g>
<!-- node2 -->
<g id="node3" class="node">
<title>node2</title>
<polygon fill="none" stroke="black" points="5,-120.5 5,-158.5 279,-158.5 279,-120.5 5,-120.5"/>
<text text-anchor="start" x="13" y="-143.3" font-family="Times,serif" font-size="14.00">Join %0 %1</text>
<text text-anchor="start" x="13" y="-128.3" font-family="Times,serif" font-size="14.00">&#45; implementation = Unimplemented</text>
</g>
<!-- node0&#45;&gt;node2 -->
<g id="edge2" class="edge">
<title>node0&#45;&gt;node2</title>
<path fill="none" stroke="black" d="M66.57,-210.31C80.33,-197.58 99.3,-180.02 114.77,-165.7"/>
<polygon fill="black" stroke="black" points="117.53,-167.91 122.5,-158.55 112.78,-162.78 117.53,-167.91"/>
<text text-anchor="start" x="101" y="-180.8" font-family="Times,serif" font-size="14.00">%0</text>
</g>
<!-- node1 -->
<g id="node2" class="node">
<title>node1</title>
<polygon fill="none" stroke="black" points="114.5,-210.5 114.5,-246.5 359.5,-246.5 359.5,-210.5 114.5,-210.5"/>
<text text-anchor="start" x="122.5" y="-224.8" font-family="Times,serif" font-size="14.00">Get issue_10871.public.t3 (u26)</text>
</g>
<!-- node1&#45;&gt;node2 -->
<g id="edge3" class="edge">
<title>node1&#45;&gt;node2</title>
<path fill="none" stroke="black" d="M218.23,-210.31C204.2,-197.46 184.8,-179.7 169.09,-165.31"/>
<polygon fill="black" stroke="black" points="171.45,-162.72 161.71,-158.55 166.72,-167.89 171.45,-162.72"/>
<text text-anchor="start" x="198" y="-180.8" font-family="Times,serif" font-size="14.00">%1</text>
</g>
<!-- node3 -->
<g id="node4" class="node">
<title>node3</title>
<polygon fill="none" stroke="black" points="5.5,-0.5 5.5,-68.5 278.5,-68.5 278.5,-0.5 5.5,-0.5"/>
<text text-anchor="start" x="13.5" y="-53.3" font-family="Times,serif" font-size="14.00">Map strtovarchar(varchartostr(#0))</text>
<text text-anchor="start" x="13.5" y="-38.3" font-family="Times,serif" font-size="14.00">Map varchartostr(strtovarchar(#1))</text>
<text text-anchor="start" x="13.5" y="-23.3" font-family="Times,serif" font-size="14.00">Project (#0..=#3)</text>
<text text-anchor="start" x="13.5" y="-8.3" font-family="Times,serif" font-size="14.00">Project (#2, #3)</text>
</g>
<!-- node2&#45;&gt;node3 -->
<g id="edge1" class="edge">
<title>node2&#45;&gt;node3</title>
<path fill="none" stroke="black" d="M142,-120.09C142,-108.63 142,-93.39 142,-79"/>
<polygon fill="black" stroke="black" points="145.5,-78.74 142,-68.74 138.5,-78.74 145.5,-78.74"/>
<text text-anchor="start" x="142" y="-90.8" font-family="Times,serif" font-size="14.00">%2</text>
</g>
</g>
</svg>
