<?xml version="1.0" encoding="UTF-8" standalone="no"?>
<!DOCTYPE svg PUBLIC "-//W3C//DTD SVG 1.1//EN"
 "http://www.w3.org/Graphics/SVG/1.1/DTD/svg11.dtd">
<!-- Generated by graphviz version 2.43.0 (0)
 -->
<!-- Title: G Pages: 1 -->
<svg width="851pt" height="752pt"
 viewBox="0.00 0.00 851.00 752.00" xmlns="http://www.w3.org/2000/svg" xmlns:xlink="http://www.w3.org/1999/xlink">
<g id="graph0" class="graph" transform="scale(1 1) rotate(0) translate(4 748)">
<title>G</title>
<polygon fill="white" stroke="transparent" points="-4,4 -4,-748 847,-748 847,4 -4,4"/>
<!-- node0 -->
<g id="node1" class="node">
<title>node0</title>
<polygon fill="none" stroke="black" points="258,-705.5 258,-743.5 359,-743.5 359,-705.5 258,-705.5"/>
<text text-anchor="start" x="266" y="-728.3" font-family="Times,serif" font-size="14.00">Let l0 =</text>
<text text-anchor="start" x="266" y="-713.3" font-family="Times,serif" font-size="14.00"> Constant ()</text>
</g>
<!-- node2 -->
<g id="node3" class="node">
<title>node2</title>
<polygon fill="none" stroke="black" points="0,-600.5 0,-653.5 269,-653.5 269,-600.5 0,-600.5"/>
<text text-anchor="start" x="8" y="-638.3" font-family="Times,serif" font-size="14.00">Let l1 =</text>
<text text-anchor="start" x="8" y="-623.3" font-family="Times,serif" font-size="14.00"> Join %0 %1</text>
<text text-anchor="start" x="8" y="-608.3" font-family="Times,serif" font-size="14.00"> implementation = Unimplemented</text>
</g>
<!-- node0&#45;&gt;node2 -->
<g id="edge14" class="edge">
<title>node0&#45;&gt;node2</title>
<path fill="none" stroke="black" d="M275.36,-705.31C251.25,-692.08 218.04,-673.85 189.92,-658.42"/>
<polygon fill="black" stroke="black" points="191.44,-655.26 180.99,-653.51 188.07,-661.39 191.44,-655.26"/>
<text text-anchor="start" x="237.5" y="-675.8" font-family="Times,serif" font-size="14.00">%0</text>
</g>
<!-- node4 -->
<g id="node5" class="node">
<title>node4</title>
<polygon fill="none" stroke="black" points="287,-600.5 287,-653.5 556,-653.5 556,-600.5 287,-600.5"/>
<text text-anchor="start" x="295" y="-638.3" font-family="Times,serif" font-size="14.00">Let l2 =</text>
<text text-anchor="start" x="295" y="-623.3" font-family="Times,serif" font-size="14.00"> Join %0 %3</text>
<text text-anchor="start" x="295" y="-608.3" font-family="Times,serif" font-size="14.00"> implementation = Unimplemented</text>
</g>
<!-- node0&#45;&gt;node4 -->
<g id="edge13" class="edge">
<title>node0&#45;&gt;node4</title>
<path fill="none" stroke="black" d="M321.18,-705.06C328.9,-694.62 339.4,-681.75 350.5,-672 355.55,-667.56 361.1,-663.29 366.8,-659.27"/>
<polygon fill="black" stroke="black" points="368.91,-662.07 375.23,-653.56 364.98,-656.27 368.91,-662.07"/>
<text text-anchor="start" x="350.5" y="-675.8" font-family="Times,serif" font-size="14.00">%0</text>
</g>
<!-- node6 -->
<g id="node7" class="node">
<title>node6</title>
<polygon fill="none" stroke="black" points="574,-600.5 574,-653.5 843,-653.5 843,-600.5 574,-600.5"/>
<text text-anchor="start" x="582" y="-638.3" font-family="Times,serif" font-size="14.00">Let l3 =</text>
<text text-anchor="start" x="582" y="-623.3" font-family="Times,serif" font-size="14.00"> Join %0 %5</text>
<text text-anchor="start" x="582" y="-608.3" font-family="Times,serif" font-size="14.00"> implementation = Unimplemented</text>
</g>
<!-- node0&#45;&gt;node6 -->
<g id="edge9" class="edge">
<title>node0&#45;&gt;node6</title>
<path fill="none" stroke="black" d="M341.42,-705.44C363.67,-694.05 394.07,-680.01 422.5,-672 481.14,-655.47 500.32,-662.91 563.69,-654.18"/>
<polygon fill="black" stroke="black" points="564.42,-657.61 573.81,-652.7 563.41,-650.68 564.42,-657.61"/>
<text text-anchor="start" x="422.5" y="-675.8" font-family="Times,serif" font-size="14.00">%0</text>
</g>
<!-- node1 -->
<g id="node2" class="node">
<title>node1</title>
<polygon fill="none" stroke="black" points="31,-706.5 31,-742.5 238,-742.5 238,-706.5 31,-706.5"/>
<text text-anchor="start" x="39" y="-720.8" font-family="Times,serif" font-size="14.00">Get pr_10752.public.z (u5)</text>
</g>
<!-- node1&#45;&gt;node2 -->
<g id="edge12" class="edge">
<title>node1&#45;&gt;node2</title>
<path fill="none" stroke="black" d="M134.5,-706.43C134.5,-694.6 134.5,-678.41 134.5,-663.82"/>
<polygon fill="black" stroke="black" points="138,-663.55 134.5,-653.55 131,-663.56 138,-663.55"/>
<text text-anchor="start" x="134.5" y="-675.8" font-family="Times,serif" font-size="14.00">%1</text>
</g>
<!-- node10 -->
<g id="node11" class="node">
<title>node10</title>
<polygon fill="none" stroke="black" points="28,-210.5 28,-293.5 297,-293.5 297,-210.5 28,-210.5"/>
<text text-anchor="start" x="36" y="-278.3" font-family="Times,serif" font-size="14.00">Let l7 =</text>
<text text-anchor="start" x="36" y="-263.3" font-family="Times,serif" font-size="14.00"> Join %2 %9</text>
<text text-anchor="start" x="36" y="-248.3" font-family="Times,serif" font-size="14.00"> implementation = Unimplemented</text>
<text text-anchor="start" x="36" y="-233.3" font-family="Times,serif" font-size="14.00"> Project (#0..#2)</text>
<text text-anchor="start" x="36" y="-218.3" font-family="Times,serif" font-size="14.00"> Filter true</text>
</g>
<!-- node2&#45;&gt;node10 -->
<g id="edge1" class="edge">
<title>node2&#45;&gt;node10</title>
<path fill="none" stroke="black" d="M136.42,-600.36C141,-539.4 152.6,-384.87 158.67,-304.04"/>
<polygon fill="black" stroke="black" points="162.19,-303.85 159.45,-293.61 155.21,-303.32 162.19,-303.85"/>
<text text-anchor="start" x="149.5" y="-435.8" font-family="Times,serif" font-size="14.00">%2</text>
</g>
<!-- node3 -->
<g id="node4" class="node">
<title>node3</title>
<polygon fill="none" stroke="black" points="377.5,-706.5 377.5,-742.5 585.5,-742.5 585.5,-706.5 377.5,-706.5"/>
<text text-anchor="start" x="385.5" y="-720.8" font-family="Times,serif" font-size="14.00">Get pr_10752.public.x (u1)</text>
</g>
<!-- node3&#45;&gt;node4 -->
<g id="edge7" class="edge">
<title>node3&#45;&gt;node4</title>
<path fill="none" stroke="black" d="M470.77,-706.43C463.05,-694.14 452.38,-677.15 442.94,-662.12"/>
<polygon fill="black" stroke="black" points="445.84,-660.16 437.56,-653.55 439.91,-663.88 445.84,-660.16"/>
<text text-anchor="start" x="456.5" y="-675.8" font-family="Times,serif" font-size="14.00">%3</text>
</g>
<!-- node7 -->
<g id="node8" class="node">
<title>node7</title>
<polygon fill="none" stroke="black" points="287,-465.5 287,-548.5 556,-548.5 556,-465.5 287,-465.5"/>
<text text-anchor="start" x="295" y="-533.3" font-family="Times,serif" font-size="14.00">Let l4 =</text>
<text text-anchor="start" x="295" y="-518.3" font-family="Times,serif" font-size="14.00"> Join %4 %6</text>
<text text-anchor="start" x="295" y="-503.3" font-family="Times,serif" font-size="14.00"> implementation = Unimplemented</text>
<text text-anchor="start" x="295" y="-488.3" font-family="Times,serif" font-size="14.00"> Project (#0, #1)</text>
<text text-anchor="start" x="295" y="-473.3" font-family="Times,serif" font-size="14.00"> Filter (#0 = #1)</text>
</g>
<!-- node4&#45;&gt;node7 -->
<g id="edge8" class="edge">
<title>node4&#45;&gt;node7</title>
<path fill="none" stroke="black" d="M421.5,-600.4C421.5,-588.29 421.5,-573.38 421.5,-559.1"/>
<polygon fill="black" stroke="black" points="425,-558.86 421.5,-548.86 418,-558.86 425,-558.86"/>
<text text-anchor="start" x="421.5" y="-570.8" font-family="Times,serif" font-size="14.00">%4</text>
</g>
<!-- node5 -->
<g id="node6" class="node">
<title>node5</title>
<polygon fill="none" stroke="black" points="604.5,-706.5 604.5,-742.5 812.5,-742.5 812.5,-706.5 604.5,-706.5"/>
<text text-anchor="start" x="612.5" y="-720.8" font-family="Times,serif" font-size="14.00">Get pr_10752.public.y (u3)</text>
</g>
<!-- node5&#45;&gt;node6 -->
<g id="edge10" class="edge">
<title>node5&#45;&gt;node6</title>
<path fill="none" stroke="black" d="M708.5,-706.43C708.5,-694.6 708.5,-678.41 708.5,-663.82"/>
<polygon fill="black" stroke="black" points="712,-663.55 708.5,-653.55 705,-663.56 712,-663.55"/>
<text text-anchor="start" x="708.5" y="-675.8" font-family="Times,serif" font-size="14.00">%5</text>
</g>
<!-- node6&#45;&gt;node7 -->
<g id="edge6" class="edge">
<title>node6&#45;&gt;node7</title>
<path fill="none" stroke="black" d="M646.23,-600.4C612.11,-586.37 568.87,-568.59 529.45,-552.38"/>
<polygon fill="black" stroke="black" points="530.63,-549.08 520.05,-548.52 527.97,-555.56 530.63,-549.08"/>
<text text-anchor="start" x="598.5" y="-570.8" font-family="Times,serif" font-size="14.00">%6</text>
</g>
<!-- node8 -->
<g id="node9" class="node">
<title>node8</title>
<polygon fill="none" stroke="black" points="186,-345.5 186,-413.5 353,-413.5 353,-345.5 186,-345.5"/>
<text text-anchor="start" x="194" y="-398.3" font-family="Times,serif" font-size="14.00">Let l5 =</text>
<text text-anchor="start" x="194" y="-383.3" font-family="Times,serif" font-size="14.00"> Get %7 (l4)</text>
<text text-anchor="start" x="194" y="-368.3" font-family="Times,serif" font-size="14.00"> Project (#0)</text>
<text text-anchor="start" x="194" y="-353.3" font-family="Times,serif" font-size="14.00"> Distinct group=(#0)</text>
</g>
<!-- node7&#45;&gt;node8 -->
<g id="edge11" class="edge">
<title>node7&#45;&gt;node8</title>
<path fill="none" stroke="black" d="M372.15,-465.25C354.56,-450.73 334.79,-434.41 317.33,-419.99"/>
<polygon fill="black" stroke="black" points="319.42,-417.18 309.48,-413.51 314.97,-422.58 319.42,-417.18"/>
<text text-anchor="start" x="345.5" y="-435.8" font-family="Times,serif" font-size="14.00">%7</text>
</g>
<!-- node9 -->
<g id="node10" class="node">
<title>node9</title>
<polygon fill="none" stroke="black" points="370.5,-360.5 370.5,-398.5 472.5,-398.5 472.5,-360.5 370.5,-360.5"/>
<text text-anchor="start" x="378.5" y="-383.3" font-family="Times,serif" font-size="14.00">Let l6 =</text>
<text text-anchor="start" x="378.5" y="-368.3" font-family="Times,serif" font-size="14.00"> Get %7 (l4)</text>
</g>
<!-- node7&#45;&gt;node9 -->
<g id="edge2" class="edge">
<title>node7&#45;&gt;node9</title>
<path fill="none" stroke="black" d="M421.5,-465.25C421.5,-446.82 421.5,-425.48 421.5,-408.83"/>
<polygon fill="black" stroke="black" points="425,-408.64 421.5,-398.64 418,-408.64 425,-408.64"/>
<text text-anchor="start" x="421.5" y="-435.8" font-family="Times,serif" font-size="14.00">%7</text>
</g>
<!-- node9&#45;&gt;node10 -->
<g id="edge3" class="edge">
<title>node9&#45;&gt;node10</title>
<path fill="none" stroke="black" d="M390.29,-360.48C381.1,-355.34 370.96,-349.82 361.5,-345 330.01,-328.96 295.19,-312.46 263.6,-297.93"/>
<polygon fill="black" stroke="black" points="264.89,-294.68 254.34,-293.69 261.98,-301.04 264.89,-294.68"/>
<text text-anchor="start" x="324.5" y="-315.8" font-family="Times,serif" font-size="14.00">%9</text>
</g>
<!-- node11 -->
<g id="node12" class="node">
<title>node11</title>
<polygon fill="none" stroke="black" points="107,-120.5 107,-158.5 218,-158.5 218,-120.5 107,-120.5"/>
<text text-anchor="start" x="115" y="-143.3" font-family="Times,serif" font-size="14.00">Let l8 =</text>
<text text-anchor="start" x="115" y="-128.3" font-family="Times,serif" font-size="14.00"> Get %10 (l7)</text>
</g>
<!-- node10&#45;&gt;node11 -->
<g id="edge5" class="edge">
<title>node10&#45;&gt;node11</title>
<path fill="none" stroke="black" d="M162.5,-210.48C162.5,-196.76 162.5,-181.73 162.5,-169.13"/>
<polygon fill="black" stroke="black" points="166,-168.78 162.5,-158.78 159,-168.78 166,-168.78"/>
<text text-anchor="start" x="162.5" y="-180.8" font-family="Times,serif" font-size="14.00">%10</text>
</g>
<!-- node12 -->
<g id="node13" class="node">
<title>node12</title>
<polygon fill="none" stroke="black" points="78.5,-0.5 78.5,-68.5 246.5,-68.5 246.5,-0.5 78.5,-0.5"/>
<text text-anchor="start" x="86.5" y="-53.3" font-family="Times,serif" font-size="14.00">Get %11 (l8)</text>
<text text-anchor="start" x="86.5" y="-38.3" font-family="Times,serif" font-size="14.00"> Map &quot;v0.10.0&quot;</text>
<text text-anchor="start" x="86.5" y="-23.3" font-family="Times,serif" font-size="14.00"> Project (#0..#3)</text>
<text text-anchor="start" x="86.5" y="-8.3" font-family="Times,serif" font-size="14.00"> Project (#3, #0..#2)</text>
</g>
<!-- node11&#45;&gt;node12 -->
<g id="edge4" class="edge">
<title>node11&#45;&gt;node12</title>
<path fill="none" stroke="black" d="M162.5,-120.09C162.5,-108.63 162.5,-93.39 162.5,-79"/>
<polygon fill="black" stroke="black" points="166,-78.74 162.5,-68.74 159,-78.74 166,-78.74"/>
<text text-anchor="start" x="162.5" y="-90.8" font-family="Times,serif" font-size="14.00">%11</text>
</g>
</g>
</svg>
