<?xml version="1.0" encoding="UTF-8" standalone="no"?>
<!DOCTYPE svg PUBLIC "-//W3C//DTD SVG 1.1//EN"
 "http://www.w3.org/Graphics/SVG/1.1/DTD/svg11.dtd">
<!-- Generated by graphviz version 2.43.0 (0)
 -->
<!-- Title: G Pages: 1 -->
<svg width="668pt" height="182pt"
 viewBox="0.00 0.00 667.50 182.00" xmlns="http://www.w3.org/2000/svg" xmlns:xlink="http://www.w3.org/1999/xlink">
<g id="graph0" class="graph" transform="scale(1 1) rotate(0) translate(4 178)">
<title>G</title>
<polygon fill="white" stroke="transparent" points="-4,4 -4,-178 663.5,-178 663.5,4 -4,4"/>
<!-- node0 -->
<g id="node1" class="node">
<title>node0</title>
<polygon fill="none" stroke="black" points="0,-135.5 0,-173.5 207,-173.5 207,-135.5 0,-135.5"/>
<text text-anchor="start" x="8" y="-158.3" font-family="Times,serif" font-size="14.00">Get pr_10752.public.z (u5)</text>
<text text-anchor="start" x="8" y="-143.3" font-family="Times,serif" font-size="14.00"> ArrangeBy ()</text>
</g>
<!-- node3 -->
<g id="node4" class="node">
<title>node3</title>
<polygon fill="none" stroke="black" points="127.5,-0.5 127.5,-83.5 531.5,-83.5 531.5,-0.5 127.5,-0.5"/>
<text text-anchor="start" x="135.5" y="-68.3" font-family="Times,serif" font-size="14.00">Join %0 %1 %2 (= #1 #2)</text>
<text text-anchor="start" x="135.5" y="-53.3" font-family="Times,serif" font-size="14.00"> implementation = Differential %1.(#0) %2.(#0) %0.()</text>
<text text-anchor="start" x="135.5" y="-38.3" font-family="Times,serif" font-size="14.00"> Filter !(isnull(#1))</text>
<text text-anchor="start" x="135.5" y="-23.3" font-family="Times,serif" font-size="14.00"> Map &quot;v0.10.0&quot;</text>
<text text-anchor="start" x="135.5" y="-8.3" font-family="Times,serif" font-size="14.00"> Project (#3, #0, #1, #1)</text>
</g>
<!-- node0&#45;&gt;node3 -->
<g id="edge3" class="edge">
<title>node0&#45;&gt;node3</title>
<path fill="none" stroke="black" d="M140.57,-135.38C166.89,-122.51 203.45,-104.63 237.4,-88.03"/>
<polygon fill="black" stroke="black" points="238.98,-91.15 246.43,-83.62 235.91,-84.87 238.98,-91.15"/>
<text text-anchor="start" x="203.5" y="-105.8" font-family="Times,serif" font-size="14.00">%0</text>
</g>
<!-- node1 -->
<g id="node2" class="node">
<title>node1</title>
<polygon fill="none" stroke="black" points="225.5,-135.5 225.5,-173.5 433.5,-173.5 433.5,-135.5 225.5,-135.5"/>
<text text-anchor="start" x="233.5" y="-158.3" font-family="Times,serif" font-size="14.00">Get pr_10752.public.x (u1)</text>
<text text-anchor="start" x="233.5" y="-143.3" font-family="Times,serif" font-size="14.00"> ArrangeBy (#0)</text>
</g>
<!-- node1&#45;&gt;node3 -->
<g id="edge2" class="edge">
<title>node1&#45;&gt;node3</title>
<path fill="none" stroke="black" d="M329.5,-135.25C329.5,-123.9 329.5,-108.68 329.5,-93.89"/>
<polygon fill="black" stroke="black" points="333,-93.76 329.5,-83.76 326,-93.76 333,-93.76"/>
<text text-anchor="start" x="329.5" y="-105.8" font-family="Times,serif" font-size="14.00">%1</text>
</g>
<!-- node2 -->
<g id="node3" class="node">
<title>node2</title>
<polygon fill="none" stroke="black" points="451.5,-135.5 451.5,-173.5 659.5,-173.5 659.5,-135.5 451.5,-135.5"/>
<text text-anchor="start" x="459.5" y="-158.3" font-family="Times,serif" font-size="14.00">Get pr_10752.public.y (u3)</text>
<text text-anchor="start" x="459.5" y="-143.3" font-family="Times,serif" font-size="14.00"> ArrangeBy (#0)</text>
</g>
<!-- node2&#45;&gt;node3 -->
<g id="edge1" class="edge">
<title>node2&#45;&gt;node3</title>
<path fill="none" stroke="black" d="M518.43,-135.38C492.11,-122.51 455.55,-104.63 421.6,-88.03"/>
<polygon fill="black" stroke="black" points="423.09,-84.87 412.57,-83.62 420.02,-91.15 423.09,-84.87"/>
<text text-anchor="start" x="475.5" y="-105.8" font-family="Times,serif" font-size="14.00">%2</text>
</g>
</g>
</svg>
