<?xml version="1.0" encoding="UTF-8" standalone="no"?>
<!DOCTYPE svg PUBLIC "-//W3C//DTD SVG 1.1//EN"
 "http://www.w3.org/Graphics/SVG/1.1/DTD/svg11.dtd">
<!-- Generated by graphviz version 2.43.0 (0)
 -->
<!-- Title: G Pages: 1 -->
<svg width="569pt" height="238pt"
 viewBox="0.00 0.00 568.50 238.00" xmlns="http://www.w3.org/2000/svg" xmlns:xlink="http://www.w3.org/1999/xlink">
<g id="graph0" class="graph" transform="scale(1 1) rotate(0) translate(4 234)">
<title>G</title>
<polygon fill="white" stroke="transparent" points="-4,4 -4,-234 564.5,-234 564.5,4 -4,4"/>
<!-- node0 -->
<g id="node1" class="node">
<title>node0</title>
<polygon fill="none" stroke="black" points="0,-105.5 0,-141.5 207,-141.5 207,-105.5 0,-105.5"/>
<text text-anchor="start" x="8" y="-119.8" font-family="Times,serif" font-size="14.00">Get pr_10752.public.z (u5)</text>
</g>
<!-- node4 -->
<g id="node5" class="node">
<title>node4</title>
<polygon fill="none" stroke="black" points="30.5,-0.5 30.5,-53.5 222.5,-53.5 222.5,-0.5 30.5,-0.5"/>
<text text-anchor="start" x="38.5" y="-38.3" font-family="Times,serif" font-size="14.00">InnerJoin %0 %3 on true</text>
<text text-anchor="start" x="38.5" y="-23.3" font-family="Times,serif" font-size="14.00"> Map &quot;v0.10.0&quot;</text>
<text text-anchor="start" x="38.5" y="-8.3" font-family="Times,serif" font-size="14.00"> Project (#3, #0..#2)</text>
</g>
<!-- node0&#45;&gt;node4 -->
<g id="edge3" class="edge">
<title>node0&#45;&gt;node4</title>
<path fill="none" stroke="black" d="M107.72,-105.17C110.54,-93.59 114.34,-77.94 117.8,-63.76"/>
<polygon fill="black" stroke="black" points="121.26,-64.32 120.23,-53.78 114.46,-62.67 121.26,-64.32"/>
<text text-anchor="start" x="116.5" y="-75.8" font-family="Times,serif" font-size="14.00">%0</text>
</g>
<!-- node1 -->
<g id="node2" class="node">
<title>node1</title>
<polygon fill="none" stroke="black" points="126.5,-193.5 126.5,-229.5 334.5,-229.5 334.5,-193.5 126.5,-193.5"/>
<text text-anchor="start" x="134.5" y="-207.8" font-family="Times,serif" font-size="14.00">Get pr_10752.public.x (u1)</text>
</g>
<!-- node3 -->
<g id="node4" class="node">
<title>node3</title>
<polygon fill="none" stroke="black" points="225.5,-105.5 225.5,-141.5 461.5,-141.5 461.5,-105.5 225.5,-105.5"/>
<text text-anchor="start" x="233.5" y="-119.8" font-family="Times,serif" font-size="14.00">InnerJoin %1 %2 on (#0 = #1)</text>
</g>
<!-- node1&#45;&gt;node3 -->
<g id="edge2" class="edge">
<title>node1&#45;&gt;node3</title>
<path fill="none" stroke="black" d="M253.1,-193.3C270.26,-180.24 294.06,-162.13 312.93,-147.77"/>
<polygon fill="black" stroke="black" points="315.11,-150.51 320.94,-141.67 310.87,-144.94 315.11,-150.51"/>
<text text-anchor="start" x="294.5" y="-163.8" font-family="Times,serif" font-size="14.00">%1</text>
</g>
<!-- node2 -->
<g id="node3" class="node">
<title>node2</title>
<polygon fill="none" stroke="black" points="352.5,-193.5 352.5,-229.5 560.5,-229.5 560.5,-193.5 352.5,-193.5"/>
<text text-anchor="start" x="360.5" y="-207.8" font-family="Times,serif" font-size="14.00">Get pr_10752.public.y (u3)</text>
</g>
<!-- node2&#45;&gt;node3 -->
<g id="edge1" class="edge">
<title>node2&#45;&gt;node3</title>
<path fill="none" stroke="black" d="M433.9,-193.3C416.74,-180.24 392.94,-162.13 374.07,-147.77"/>
<polygon fill="black" stroke="black" points="376.13,-144.94 366.06,-141.67 371.89,-150.51 376.13,-144.94"/>
<text text-anchor="start" x="407.5" y="-163.8" font-family="Times,serif" font-size="14.00">%2</text>
</g>
<!-- node3&#45;&gt;node4 -->
<g id="edge4" class="edge">
<title>node3&#45;&gt;node4</title>
<path fill="none" stroke="black" d="M304.45,-105.5C273.99,-92.23 230.91,-73.47 194.78,-57.73"/>
<polygon fill="black" stroke="black" points="195.83,-54.38 185.27,-53.59 193.04,-60.79 195.83,-54.38"/>
<text text-anchor="start" x="261.5" y="-75.8" font-family="Times,serif" font-size="14.00">%3</text>
</g>
</g>
</svg>
