<?xml version="1.0" encoding="UTF-8" standalone="no"?>
<!DOCTYPE svg PUBLIC "-//W3C//DTD SVG 1.1//EN"
 "http://www.w3.org/Graphics/SVG/1.1/DTD/svg11.dtd">
<!-- Generated by graphviz version 2.43.0 (0)
 -->
<!-- Title: G Pages: 1 -->
<svg width="605pt" height="362pt"
 viewBox="0.00 0.00 604.50 362.00" xmlns="http://www.w3.org/2000/svg" xmlns:xlink="http://www.w3.org/1999/xlink">
<g id="graph0" class="graph" transform="scale(1 1) rotate(0) translate(4 358)">
<title>G</title>
<polygon fill="white" stroke="transparent" points="-4,4 -4,-358 600.5,-358 600.5,4 -4,4"/>
<!-- node0 -->
<g id="node1" class="node">
<title>node0</title>
<polygon fill="none" stroke="black" points="36,-195.5 36,-248.5 243,-248.5 243,-195.5 36,-195.5"/>
<text text-anchor="start" x="44" y="-233.3" font-family="Times,serif" font-size="14.00">Get pr_10752.public.z (u5)</text>
<text text-anchor="start" x="44" y="-218.3" font-family="Times,serif" font-size="14.00"> types = (integer?)</text>
<text text-anchor="start" x="44" y="-203.3" font-family="Times,serif" font-size="14.00"> keys = ()</text>
</g>
<!-- node4 -->
<g id="node5" class="node">
<title>node4</title>
<polygon fill="none" stroke="black" points="0,-0.5 0,-143.5 325,-143.5 325,-0.5 0,-0.5"/>
<text text-anchor="start" x="8" y="-128.3" font-family="Times,serif" font-size="14.00">InnerJoin %0 %3 on true</text>
<text text-anchor="start" x="8" y="-113.3" font-family="Times,serif" font-size="14.00"> types = (integer?, integer?, integer?)</text>
<text text-anchor="start" x="8" y="-98.3" font-family="Times,serif" font-size="14.00"> keys = ()</text>
<text text-anchor="start" x="8" y="-83.3" font-family="Times,serif" font-size="14.00"> Map &quot;v0.10.0&quot;</text>
<text text-anchor="start" x="8" y="-68.3" font-family="Times,serif" font-size="14.00"> types = (integer?, integer?, integer?, text)</text>
<text text-anchor="start" x="8" y="-53.3" font-family="Times,serif" font-size="14.00"> keys = ()</text>
<text text-anchor="start" x="8" y="-38.3" font-family="Times,serif" font-size="14.00"> Project (#3, #0..#2)</text>
<text text-anchor="start" x="8" y="-23.3" font-family="Times,serif" font-size="14.00"> types = (text, integer?, integer?, integer?)</text>
<text text-anchor="start" x="8" y="-8.3" font-family="Times,serif" font-size="14.00"> keys = ()</text>
</g>
<!-- node0&#45;&gt;node4 -->
<g id="edge3" class="edge">
<title>node0&#45;&gt;node4</title>
<path fill="none" stroke="black" d="M143.51,-195.22C145.34,-183.4 147.63,-168.67 149.98,-153.57"/>
<polygon fill="black" stroke="black" points="153.45,-154.05 151.52,-143.63 146.53,-152.97 153.45,-154.05"/>
<text text-anchor="start" x="148.5" y="-165.8" font-family="Times,serif" font-size="14.00">%0</text>
</g>
<!-- node1 -->
<g id="node2" class="node">
<title>node1</title>
<polygon fill="none" stroke="black" points="162.5,-300.5 162.5,-353.5 370.5,-353.5 370.5,-300.5 162.5,-300.5"/>
<text text-anchor="start" x="170.5" y="-338.3" font-family="Times,serif" font-size="14.00">Get pr_10752.public.x (u1)</text>
<text text-anchor="start" x="170.5" y="-323.3" font-family="Times,serif" font-size="14.00"> types = (integer?)</text>
<text text-anchor="start" x="170.5" y="-308.3" font-family="Times,serif" font-size="14.00"> keys = ()</text>
</g>
<!-- node3 -->
<g id="node4" class="node">
<title>node3</title>
<polygon fill="none" stroke="black" points="261.5,-195.5 261.5,-248.5 497.5,-248.5 497.5,-195.5 261.5,-195.5"/>
<text text-anchor="start" x="269.5" y="-233.3" font-family="Times,serif" font-size="14.00">InnerJoin %1 %2 on (#0 = #1)</text>
<text text-anchor="start" x="269.5" y="-218.3" font-family="Times,serif" font-size="14.00"> types = (integer?, integer?)</text>
<text text-anchor="start" x="269.5" y="-203.3" font-family="Times,serif" font-size="14.00"> keys = ()</text>
</g>
<!-- node1&#45;&gt;node3 -->
<g id="edge2" class="edge">
<title>node1&#45;&gt;node3</title>
<path fill="none" stroke="black" d="M294.72,-300.27C309.55,-286.76 327.89,-270.05 343.71,-255.63"/>
<polygon fill="black" stroke="black" points="346.21,-258.08 351.24,-248.75 341.5,-252.9 346.21,-258.08"/>
<text text-anchor="start" x="330.5" y="-270.8" font-family="Times,serif" font-size="14.00">%1</text>
</g>
<!-- node2 -->
<g id="node3" class="node">
<title>node2</title>
<polygon fill="none" stroke="black" points="388.5,-300.5 388.5,-353.5 596.5,-353.5 596.5,-300.5 388.5,-300.5"/>
<text text-anchor="start" x="396.5" y="-338.3" font-family="Times,serif" font-size="14.00">Get pr_10752.public.y (u3)</text>
<text text-anchor="start" x="396.5" y="-323.3" font-family="Times,serif" font-size="14.00"> types = (integer?)</text>
<text text-anchor="start" x="396.5" y="-308.3" font-family="Times,serif" font-size="14.00"> keys = ()</text>
</g>
<!-- node2&#45;&gt;node3 -->
<g id="edge1" class="edge">
<title>node2&#45;&gt;node3</title>
<path fill="none" stroke="black" d="M464.28,-300.27C449.45,-286.76 431.11,-270.05 415.29,-255.63"/>
<polygon fill="black" stroke="black" points="417.5,-252.9 407.76,-248.75 412.79,-258.08 417.5,-252.9"/>
<text text-anchor="start" x="443.5" y="-270.8" font-family="Times,serif" font-size="14.00">%2</text>
</g>
<!-- node3&#45;&gt;node4 -->
<g id="edge4" class="edge">
<title>node3&#45;&gt;node4</title>
<path fill="none" stroke="black" d="M341.7,-195.22C322.8,-182.33 298.83,-165.98 274.62,-149.47"/>
<polygon fill="black" stroke="black" points="276.29,-146.37 266.05,-143.63 272.34,-152.15 276.29,-146.37"/>
<text text-anchor="start" x="309.5" y="-165.8" font-family="Times,serif" font-size="14.00">%3</text>
</g>
</g>
</svg>
