<?xml version="1.0" encoding="UTF-8" standalone="no"?>
<!DOCTYPE svg PUBLIC "-//W3C//DTD SVG 1.1//EN"
 "http://www.w3.org/Graphics/SVG/1.1/DTD/svg11.dtd">
<!-- Generated by graphviz version 2.43.0 (0)
 -->
<!-- Title: G Pages: 1 -->
<svg width="668pt" height="362pt"
 viewBox="0.00 0.00 667.50 362.00" xmlns="http://www.w3.org/2000/svg" xmlns:xlink="http://www.w3.org/1999/xlink">
<g id="graph0" class="graph" transform="scale(1 1) rotate(0) translate(4 358)">
<title>G</title>
<polygon fill="white" stroke="transparent" points="-4,4 -4,-358 663.5,-358 663.5,4 -4,4"/>
<!-- node0 -->
<g id="node1" class="node">
<title>node0</title>
<polygon fill="none" stroke="black" points="0,-255.5 0,-353.5 207,-353.5 207,-255.5 0,-255.5"/>
<text text-anchor="start" x="8" y="-338.3" font-family="Times,serif" font-size="14.00">Get pr_10752.public.z (u5)</text>
<text text-anchor="start" x="8" y="-323.3" font-family="Times,serif" font-size="14.00"> types = (integer?)</text>
<text text-anchor="start" x="8" y="-308.3" font-family="Times,serif" font-size="14.00"> keys = ()</text>
<text text-anchor="start" x="8" y="-293.3" font-family="Times,serif" font-size="14.00"> ArrangeBy ()</text>
<text text-anchor="start" x="8" y="-278.3" font-family="Times,serif" font-size="14.00"> types = (integer?)</text>
<text text-anchor="start" x="8" y="-263.3" font-family="Times,serif" font-size="14.00"> keys = ()</text>
</g>
<!-- node3 -->
<g id="node4" class="node">
<title>node3</title>
<polygon fill="none" stroke="black" points="127.5,-0.5 127.5,-203.5 531.5,-203.5 531.5,-0.5 127.5,-0.5"/>
<text text-anchor="start" x="135.5" y="-188.3" font-family="Times,serif" font-size="14.00">Join %0 %1 %2 (= #1 #2)</text>
<text text-anchor="start" x="135.5" y="-173.3" font-family="Times,serif" font-size="14.00"> implementation = Differential %1.(#0) %2.(#0) %0.()</text>
<text text-anchor="start" x="135.5" y="-158.3" font-family="Times,serif" font-size="14.00"> types = (integer?, integer?, integer?)</text>
<text text-anchor="start" x="135.5" y="-143.3" font-family="Times,serif" font-size="14.00"> keys = ()</text>
<text text-anchor="start" x="135.5" y="-128.3" font-family="Times,serif" font-size="14.00"> Filter !(isnull(#1))</text>
<text text-anchor="start" x="135.5" y="-113.3" font-family="Times,serif" font-size="14.00"> types = (integer?, integer, integer?)</text>
<text text-anchor="start" x="135.5" y="-98.3" font-family="Times,serif" font-size="14.00"> keys = ()</text>
<text text-anchor="start" x="135.5" y="-83.3" font-family="Times,serif" font-size="14.00"> Map &quot;v0.10.0&quot;</text>
<text text-anchor="start" x="135.5" y="-68.3" font-family="Times,serif" font-size="14.00"> types = (integer?, integer, integer?, text)</text>
<text text-anchor="start" x="135.5" y="-53.3" font-family="Times,serif" font-size="14.00"> keys = ()</text>
<text text-anchor="start" x="135.5" y="-38.3" font-family="Times,serif" font-size="14.00"> Project (#3, #0, #1, #1)</text>
<text text-anchor="start" x="135.5" y="-23.3" font-family="Times,serif" font-size="14.00"> types = (text, integer?, integer, integer)</text>
<text text-anchor="start" x="135.5" y="-8.3" font-family="Times,serif" font-size="14.00"> keys = ()</text>
</g>
<!-- node0&#45;&gt;node3 -->
<g id="edge3" class="edge">
<title>node0&#45;&gt;node3</title>
<path fill="none" stroke="black" d="M157.63,-255.48C173.06,-241.79 190.51,-226.3 208.24,-210.58"/>
<polygon fill="black" stroke="black" points="210.69,-213.08 215.85,-203.82 206.05,-207.84 210.69,-213.08"/>
<text text-anchor="start" x="190.5" y="-225.8" font-family="Times,serif" font-size="14.00">%0</text>
</g>
<!-- node1 -->
<g id="node2" class="node">
<title>node1</title>
<polygon fill="none" stroke="black" points="225.5,-255.5 225.5,-353.5 433.5,-353.5 433.5,-255.5 225.5,-255.5"/>
<text text-anchor="start" x="233.5" y="-338.3" font-family="Times,serif" font-size="14.00">Get pr_10752.public.x (u1)</text>
<text text-anchor="start" x="233.5" y="-323.3" font-family="Times,serif" font-size="14.00"> types = (integer?)</text>
<text text-anchor="start" x="233.5" y="-308.3" font-family="Times,serif" font-size="14.00"> keys = ()</text>
<text text-anchor="start" x="233.5" y="-293.3" font-family="Times,serif" font-size="14.00"> ArrangeBy (#0)</text>
<text text-anchor="start" x="233.5" y="-278.3" font-family="Times,serif" font-size="14.00"> types = (integer?)</text>
<text text-anchor="start" x="233.5" y="-263.3" font-family="Times,serif" font-size="14.00"> keys = ()</text>
</g>
<!-- node1&#45;&gt;node3 -->
<g id="edge2" class="edge">
<title>node1&#45;&gt;node3</title>
<path fill="none" stroke="black" d="M329.5,-255.48C329.5,-242.77 329.5,-228.51 329.5,-213.94"/>
<polygon fill="black" stroke="black" points="333,-213.82 329.5,-203.82 326,-213.82 333,-213.82"/>
<text text-anchor="start" x="329.5" y="-225.8" font-family="Times,serif" font-size="14.00">%1</text>
</g>
<!-- node2 -->
<g id="node3" class="node">
<title>node2</title>
<polygon fill="none" stroke="black" points="451.5,-255.5 451.5,-353.5 659.5,-353.5 659.5,-255.5 451.5,-255.5"/>
<text text-anchor="start" x="459.5" y="-338.3" font-family="Times,serif" font-size="14.00">Get pr_10752.public.y (u3)</text>
<text text-anchor="start" x="459.5" y="-323.3" font-family="Times,serif" font-size="14.00"> types = (integer?)</text>
<text text-anchor="start" x="459.5" y="-308.3" font-family="Times,serif" font-size="14.00"> keys = ()</text>
<text text-anchor="start" x="459.5" y="-293.3" font-family="Times,serif" font-size="14.00"> ArrangeBy (#0)</text>
<text text-anchor="start" x="459.5" y="-278.3" font-family="Times,serif" font-size="14.00"> types = (integer?)</text>
<text text-anchor="start" x="459.5" y="-263.3" font-family="Times,serif" font-size="14.00"> keys = ()</text>
</g>
<!-- node2&#45;&gt;node3 -->
<g id="edge1" class="edge">
<title>node2&#45;&gt;node3</title>
<path fill="none" stroke="black" d="M501.37,-255.48C485.94,-241.79 468.49,-226.3 450.76,-210.58"/>
<polygon fill="black" stroke="black" points="452.95,-207.84 443.15,-203.82 448.31,-213.08 452.95,-207.84"/>
<text text-anchor="start" x="475.5" y="-225.8" font-family="Times,serif" font-size="14.00">%2</text>
</g>
</g>
</svg>
