<?xml version="1.0" encoding="UTF-8" standalone="no"?>
<!DOCTYPE svg PUBLIC "-//W3C//DTD SVG 1.1//EN"
 "http://www.w3.org/Graphics/SVG/1.1/DTD/svg11.dtd">
<!-- Generated by graphviz version 2.43.0 (0)
 -->
<!-- Title: G Pages: 1 -->
<svg width="855pt" height="1232pt"
 viewBox="0.00 0.00 854.50 1232.00" xmlns="http://www.w3.org/2000/svg" xmlns:xlink="http://www.w3.org/1999/xlink">
<g id="graph0" class="graph" transform="scale(1 1) rotate(0) translate(4 1228)">
<title>G</title>
<polygon fill="white" stroke="transparent" points="-4,4 -4,-1228 850.5,-1228 850.5,4 -4,4"/>
<!-- node0 -->
<g id="node1" class="node">
<title>node0</title>
<polygon fill="none" stroke="black" points="261.5,-1155.5 261.5,-1223.5 362.5,-1223.5 362.5,-1155.5 261.5,-1155.5"/>
<text text-anchor="start" x="269.5" y="-1208.3" font-family="Times,serif" font-size="14.00">Let l0 =</text>
<text text-anchor="start" x="269.5" y="-1193.3" font-family="Times,serif" font-size="14.00"> Constant ()</text>
<text text-anchor="start" x="269.5" y="-1178.3" font-family="Times,serif" font-size="14.00"> types = ()</text>
<text text-anchor="start" x="269.5" y="-1163.3" font-family="Times,serif" font-size="14.00"> keys = (())</text>
</g>
<!-- node2 -->
<g id="node3" class="node">
<title>node2</title>
<polygon fill="none" stroke="black" points="3.5,-1020.5 3.5,-1103.5 272.5,-1103.5 272.5,-1020.5 3.5,-1020.5"/>
<text text-anchor="start" x="11.5" y="-1088.3" font-family="Times,serif" font-size="14.00">Let l1 =</text>
<text text-anchor="start" x="11.5" y="-1073.3" font-family="Times,serif" font-size="14.00"> Join %0 %1</text>
<text text-anchor="start" x="11.5" y="-1058.3" font-family="Times,serif" font-size="14.00"> implementation = Unimplemented</text>
<text text-anchor="start" x="11.5" y="-1043.3" font-family="Times,serif" font-size="14.00"> types = (integer?)</text>
<text text-anchor="start" x="11.5" y="-1028.3" font-family="Times,serif" font-size="14.00"> keys = ()</text>
</g>
<!-- node0&#45;&gt;node2 -->
<g id="edge14" class="edge">
<title>node0&#45;&gt;node2</title>
<path fill="none" stroke="black" d="M265.83,-1155.2C246.45,-1141.22 223.58,-1124.73 202.58,-1109.58"/>
<polygon fill="black" stroke="black" points="204.49,-1106.64 194.33,-1103.63 200.39,-1112.32 204.49,-1106.64"/>
<text text-anchor="start" x="241" y="-1125.8" font-family="Times,serif" font-size="14.00">%0</text>
</g>
<!-- node4 -->
<g id="node5" class="node">
<title>node4</title>
<polygon fill="none" stroke="black" points="290.5,-1020.5 290.5,-1103.5 559.5,-1103.5 559.5,-1020.5 290.5,-1020.5"/>
<text text-anchor="start" x="298.5" y="-1088.3" font-family="Times,serif" font-size="14.00">Let l2 =</text>
<text text-anchor="start" x="298.5" y="-1073.3" font-family="Times,serif" font-size="14.00"> Join %0 %3</text>
<text text-anchor="start" x="298.5" y="-1058.3" font-family="Times,serif" font-size="14.00"> implementation = Unimplemented</text>
<text text-anchor="start" x="298.5" y="-1043.3" font-family="Times,serif" font-size="14.00"> types = (integer?)</text>
<text text-anchor="start" x="298.5" y="-1028.3" font-family="Times,serif" font-size="14.00"> keys = ()</text>
</g>
<!-- node0&#45;&gt;node4 -->
<g id="edge13" class="edge">
<title>node0&#45;&gt;node4</title>
<path fill="none" stroke="black" d="M330.16,-1155.27C336.95,-1144.16 345.17,-1132.06 354,-1122 357.35,-1118.18 360.96,-1114.41 364.71,-1110.72"/>
<polygon fill="black" stroke="black" points="367.21,-1113.17 372.07,-1103.75 362.4,-1108.09 367.21,-1113.17"/>
<text text-anchor="start" x="354" y="-1125.8" font-family="Times,serif" font-size="14.00">%0</text>
</g>
<!-- node6 -->
<g id="node7" class="node">
<title>node6</title>
<polygon fill="none" stroke="black" points="577.5,-1020.5 577.5,-1103.5 846.5,-1103.5 846.5,-1020.5 577.5,-1020.5"/>
<text text-anchor="start" x="585.5" y="-1088.3" font-family="Times,serif" font-size="14.00">Let l3 =</text>
<text text-anchor="start" x="585.5" y="-1073.3" font-family="Times,serif" font-size="14.00"> Join %0 %5</text>
<text text-anchor="start" x="585.5" y="-1058.3" font-family="Times,serif" font-size="14.00"> implementation = Unimplemented</text>
<text text-anchor="start" x="585.5" y="-1043.3" font-family="Times,serif" font-size="14.00"> types = (integer?)</text>
<text text-anchor="start" x="585.5" y="-1028.3" font-family="Times,serif" font-size="14.00"> keys = ()</text>
</g>
<!-- node0&#45;&gt;node6 -->
<g id="edge9" class="edge">
<title>node0&#45;&gt;node6</title>
<path fill="none" stroke="black" d="M359.93,-1155.34C380.1,-1142.94 404.34,-1129.94 428,-1122 484.97,-1102.88 505.15,-1115.38 567.47,-1104.13"/>
<polygon fill="black" stroke="black" points="568.26,-1107.54 577.42,-1102.2 566.93,-1100.67 568.26,-1107.54"/>
<text text-anchor="start" x="428" y="-1125.8" font-family="Times,serif" font-size="14.00">%0</text>
</g>
<!-- node1 -->
<g id="node2" class="node">
<title>node1</title>
<polygon fill="none" stroke="black" points="34.5,-1163 34.5,-1216 241.5,-1216 241.5,-1163 34.5,-1163"/>
<text text-anchor="start" x="42.5" y="-1200.8" font-family="Times,serif" font-size="14.00">Get pr_10752.public.z (u5)</text>
<text text-anchor="start" x="42.5" y="-1185.8" font-family="Times,serif" font-size="14.00"> types = (integer?)</text>
<text text-anchor="start" x="42.5" y="-1170.8" font-family="Times,serif" font-size="14.00"> keys = ()</text>
</g>
<!-- node1&#45;&gt;node2 -->
<g id="edge12" class="edge">
<title>node1&#45;&gt;node2</title>
<path fill="none" stroke="black" d="M138,-1162.8C138,-1148.79 138,-1130.93 138,-1114.2"/>
<polygon fill="black" stroke="black" points="141.5,-1113.98 138,-1103.98 134.5,-1113.98 141.5,-1113.98"/>
<text text-anchor="start" x="138" y="-1125.8" font-family="Times,serif" font-size="14.00">%1</text>
</g>
<!-- node10 -->
<g id="node11" class="node">
<title>node10</title>
<polygon fill="none" stroke="black" points="18.5,-360.5 18.5,-533.5 289.5,-533.5 289.5,-360.5 18.5,-360.5"/>
<text text-anchor="start" x="26.5" y="-518.3" font-family="Times,serif" font-size="14.00">Let l7 =</text>
<text text-anchor="start" x="26.5" y="-503.3" font-family="Times,serif" font-size="14.00"> Join %2 %9</text>
<text text-anchor="start" x="26.5" y="-488.3" font-family="Times,serif" font-size="14.00"> implementation = Unimplemented</text>
<text text-anchor="start" x="26.5" y="-473.3" font-family="Times,serif" font-size="14.00"> types = (integer?, integer, integer)</text>
<text text-anchor="start" x="26.5" y="-458.3" font-family="Times,serif" font-size="14.00"> keys = ()</text>
<text text-anchor="start" x="26.5" y="-443.3" font-family="Times,serif" font-size="14.00"> Project (#0..#2)</text>
<text text-anchor="start" x="26.5" y="-428.3" font-family="Times,serif" font-size="14.00"> types = (integer?, integer, integer)</text>
<text text-anchor="start" x="26.5" y="-413.3" font-family="Times,serif" font-size="14.00"> keys = ()</text>
<text text-anchor="start" x="26.5" y="-398.3" font-family="Times,serif" font-size="14.00"> Filter true</text>
<text text-anchor="start" x="26.5" y="-383.3" font-family="Times,serif" font-size="14.00"> types = (integer?, integer, integer)</text>
<text text-anchor="start" x="26.5" y="-368.3" font-family="Times,serif" font-size="14.00"> keys = ()</text>
</g>
<!-- node2&#45;&gt;node10 -->
<g id="edge1" class="edge">
<title>node2&#45;&gt;node10</title>
<path fill="none" stroke="black" d="M139.06,-1020.3C141.58,-923.98 147.95,-679.89 151.5,-543.65"/>
<polygon fill="black" stroke="black" points="155,-543.72 151.76,-533.63 148.01,-543.53 155,-543.72"/>
<text text-anchor="start" x="146" y="-765.8" font-family="Times,serif" font-size="14.00">%2</text>
</g>
<!-- node3 -->
<g id="node4" class="node">
<title>node3</title>
<polygon fill="none" stroke="black" points="381,-1163 381,-1216 589,-1216 589,-1163 381,-1163"/>
<text text-anchor="start" x="389" y="-1200.8" font-family="Times,serif" font-size="14.00">Get pr_10752.public.x (u1)</text>
<text text-anchor="start" x="389" y="-1185.8" font-family="Times,serif" font-size="14.00"> types = (integer?)</text>
<text text-anchor="start" x="389" y="-1170.8" font-family="Times,serif" font-size="14.00"> keys = ()</text>
</g>
<!-- node3&#45;&gt;node4 -->
<g id="edge7" class="edge">
<title>node3&#45;&gt;node4</title>
<path fill="none" stroke="black" d="M472.71,-1162.8C465.89,-1148.52 457.15,-1130.25 449.03,-1113.26"/>
<polygon fill="black" stroke="black" points="452.06,-1111.49 444.59,-1103.98 445.75,-1114.51 452.06,-1111.49"/>
<text text-anchor="start" x="460" y="-1125.8" font-family="Times,serif" font-size="14.00">%3</text>
</g>
<!-- node7 -->
<g id="node8" class="node">
<title>node7</title>
<polygon fill="none" stroke="black" points="320.5,-795.5 320.5,-968.5 589.5,-968.5 589.5,-795.5 320.5,-795.5"/>
<text text-anchor="start" x="328.5" y="-953.3" font-family="Times,serif" font-size="14.00">Let l4 =</text>
<text text-anchor="start" x="328.5" y="-938.3" font-family="Times,serif" font-size="14.00"> Join %4 %6</text>
<text text-anchor="start" x="328.5" y="-923.3" font-family="Times,serif" font-size="14.00"> implementation = Unimplemented</text>
<text text-anchor="start" x="328.5" y="-908.3" font-family="Times,serif" font-size="14.00"> types = (integer?, integer?)</text>
<text text-anchor="start" x="328.5" y="-893.3" font-family="Times,serif" font-size="14.00"> keys = ()</text>
<text text-anchor="start" x="328.5" y="-878.3" font-family="Times,serif" font-size="14.00"> Project (#0, #1)</text>
<text text-anchor="start" x="328.5" y="-863.3" font-family="Times,serif" font-size="14.00"> types = (integer?, integer?)</text>
<text text-anchor="start" x="328.5" y="-848.3" font-family="Times,serif" font-size="14.00"> keys = ()</text>
<text text-anchor="start" x="328.5" y="-833.3" font-family="Times,serif" font-size="14.00"> Filter (#0 = #1)</text>
<text text-anchor="start" x="328.5" y="-818.3" font-family="Times,serif" font-size="14.00"> types = (integer, integer)</text>
<text text-anchor="start" x="328.5" y="-803.3" font-family="Times,serif" font-size="14.00"> keys = ()</text>
</g>
<!-- node4&#45;&gt;node7 -->
<g id="edge8" class="edge">
<title>node4&#45;&gt;node7</title>
<path fill="none" stroke="black" d="M431.52,-1020.28C433.28,-1009.46 435.19,-997.78 437,-987 437.45,-984.3 437.91,-981.56 438.38,-978.79"/>
<polygon fill="black" stroke="black" points="441.87,-979.13 440.1,-968.69 434.97,-977.96 441.87,-979.13"/>
<text text-anchor="start" x="437" y="-990.8" font-family="Times,serif" font-size="14.00">%4</text>
</g>
<!-- node5 -->
<g id="node6" class="node">
<title>node5</title>
<polygon fill="none" stroke="black" points="608,-1163 608,-1216 816,-1216 816,-1163 608,-1163"/>
<text text-anchor="start" x="616" y="-1200.8" font-family="Times,serif" font-size="14.00">Get pr_10752.public.y (u3)</text>
<text text-anchor="start" x="616" y="-1185.8" font-family="Times,serif" font-size="14.00"> types = (integer?)</text>
<text text-anchor="start" x="616" y="-1170.8" font-family="Times,serif" font-size="14.00"> keys = ()</text>
</g>
<!-- node5&#45;&gt;node6 -->
<g id="edge10" class="edge">
<title>node5&#45;&gt;node6</title>
<path fill="none" stroke="black" d="M712,-1162.8C712,-1148.79 712,-1130.93 712,-1114.2"/>
<polygon fill="black" stroke="black" points="715.5,-1113.98 712,-1103.98 708.5,-1113.98 715.5,-1113.98"/>
<text text-anchor="start" x="712" y="-1125.8" font-family="Times,serif" font-size="14.00">%5</text>
</g>
<!-- node6&#45;&gt;node7 -->
<g id="edge6" class="edge">
<title>node6&#45;&gt;node7</title>
<path fill="none" stroke="black" d="M653.36,-1020.39C633.42,-1006.57 610.25,-990.52 586.93,-974.37"/>
<polygon fill="black" stroke="black" points="588.89,-971.47 578.67,-968.66 584.9,-977.23 588.89,-971.47"/>
<text text-anchor="start" x="621" y="-990.8" font-family="Times,serif" font-size="14.00">%6</text>
</g>
<!-- node8 -->
<g id="node9" class="node">
<title>node8</title>
<polygon fill="none" stroke="black" points="166.5,-585.5 166.5,-743.5 369.5,-743.5 369.5,-585.5 166.5,-585.5"/>
<text text-anchor="start" x="174.5" y="-728.3" font-family="Times,serif" font-size="14.00">Let l5 =</text>
<text text-anchor="start" x="174.5" y="-713.3" font-family="Times,serif" font-size="14.00"> Get %7 (l4)</text>
<text text-anchor="start" x="174.5" y="-698.3" font-family="Times,serif" font-size="14.00"> types = (integer, integer)</text>
<text text-anchor="start" x="174.5" y="-683.3" font-family="Times,serif" font-size="14.00"> keys = ()</text>
<text text-anchor="start" x="174.5" y="-668.3" font-family="Times,serif" font-size="14.00"> Project (#0)</text>
<text text-anchor="start" x="174.5" y="-653.3" font-family="Times,serif" font-size="14.00"> types = (integer)</text>
<text text-anchor="start" x="174.5" y="-638.3" font-family="Times,serif" font-size="14.00"> keys = ()</text>
<text text-anchor="start" x="174.5" y="-623.3" font-family="Times,serif" font-size="14.00"> Distinct group=(#0)</text>
<text text-anchor="start" x="174.5" y="-608.3" font-family="Times,serif" font-size="14.00"> types = (integer)</text>
<text text-anchor="start" x="174.5" y="-593.3" font-family="Times,serif" font-size="14.00"> keys = ((#0))</text>
</g>
<!-- node7&#45;&gt;node8 -->
<g id="edge11" class="edge">
<title>node7&#45;&gt;node8</title>
<path fill="none" stroke="black" d="M380.56,-795.21C368.09,-780.85 355.16,-765.95 342.69,-751.58"/>
<polygon fill="black" stroke="black" points="345.02,-748.92 335.82,-743.66 339.73,-753.51 345.02,-748.92"/>
<text text-anchor="start" x="362" y="-765.8" font-family="Times,serif" font-size="14.00">%7</text>
</g>
<!-- node9 -->
<g id="node10" class="node">
<title>node9</title>
<polygon fill="none" stroke="black" points="387.5,-630.5 387.5,-698.5 590.5,-698.5 590.5,-630.5 387.5,-630.5"/>
<text text-anchor="start" x="395.5" y="-683.3" font-family="Times,serif" font-size="14.00">Let l6 =</text>
<text text-anchor="start" x="395.5" y="-668.3" font-family="Times,serif" font-size="14.00"> Get %7 (l4)</text>
<text text-anchor="start" x="395.5" y="-653.3" font-family="Times,serif" font-size="14.00"> types = (integer, integer)</text>
<text text-anchor="start" x="395.5" y="-638.3" font-family="Times,serif" font-size="14.00"> keys = ()</text>
</g>
<!-- node7&#45;&gt;node9 -->
<g id="edge2" class="edge">
<title>node7&#45;&gt;node9</title>
<path fill="none" stroke="black" d="M468.54,-795.21C473.22,-765.53 478.27,-733.53 482.18,-708.73"/>
<polygon fill="black" stroke="black" points="485.68,-709 483.78,-698.58 478.77,-707.91 485.68,-709"/>
<text text-anchor="start" x="473" y="-765.8" font-family="Times,serif" font-size="14.00">%7</text>
</g>
<!-- node9&#45;&gt;node10 -->
<g id="edge3" class="edge">
<title>node9&#45;&gt;node10</title>
<path fill="none" stroke="black" d="M443.57,-630.34C423.66,-616.08 399.88,-599.41 378,-585 352.49,-568.21 324.99,-550.82 298.29,-534.3"/>
<polygon fill="black" stroke="black" points="300,-531.24 289.65,-528.97 296.32,-537.2 300,-531.24"/>
<text text-anchor="start" x="349" y="-555.8" font-family="Times,serif" font-size="14.00">%9</text>
</g>
<!-- node11 -->
<g id="node12" class="node">
<title>node11</title>
<polygon fill="none" stroke="black" points="18.5,-240.5 18.5,-308.5 289.5,-308.5 289.5,-240.5 18.5,-240.5"/>
<text text-anchor="start" x="26.5" y="-293.3" font-family="Times,serif" font-size="14.00">Let l8 =</text>
<text text-anchor="start" x="26.5" y="-278.3" font-family="Times,serif" font-size="14.00"> Get %10 (l7)</text>
<text text-anchor="start" x="26.5" y="-263.3" font-family="Times,serif" font-size="14.00"> types = (integer?, integer, integer)</text>
<text text-anchor="start" x="26.5" y="-248.3" font-family="Times,serif" font-size="14.00"> keys = ()</text>
</g>
<!-- node10&#45;&gt;node11 -->
<g id="edge5" class="edge">
<title>node10&#45;&gt;node11</title>
<path fill="none" stroke="black" d="M154,-360.25C154,-345.87 154,-331.5 154,-318.8"/>
<polygon fill="black" stroke="black" points="157.5,-318.55 154,-308.55 150.5,-318.55 157.5,-318.55"/>
<text text-anchor="start" x="154" y="-330.8" font-family="Times,serif" font-size="14.00">%10</text>
</g>
<!-- node12 -->
<g id="node13" class="node">
<title>node12</title>
<polygon fill="none" stroke="black" points="0,-0.5 0,-188.5 308,-188.5 308,-0.5 0,-0.5"/>
<text text-anchor="start" x="8" y="-173.3" font-family="Times,serif" font-size="14.00">Get %11 (l8)</text>
<text text-anchor="start" x="8" y="-158.3" font-family="Times,serif" font-size="14.00"> types = (integer?, integer, integer)</text>
<text text-anchor="start" x="8" y="-143.3" font-family="Times,serif" font-size="14.00"> keys = ()</text>
<text text-anchor="start" x="8" y="-128.3" font-family="Times,serif" font-size="14.00"> Map &quot;v0.10.0&quot;</text>
<text text-anchor="start" x="8" y="-113.3" font-family="Times,serif" font-size="14.00"> types = (integer?, integer, integer, text)</text>
<text text-anchor="start" x="8" y="-98.3" font-family="Times,serif" font-size="14.00"> keys = ()</text>
<text text-anchor="start" x="8" y="-83.3" font-family="Times,serif" font-size="14.00"> Project (#0..#3)</text>
<text text-anchor="start" x="8" y="-68.3" font-family="Times,serif" font-size="14.00"> types = (integer?, integer, integer, text)</text>
<text text-anchor="start" x="8" y="-53.3" font-family="Times,serif" font-size="14.00"> keys = ()</text>
<text text-anchor="start" x="8" y="-38.3" font-family="Times,serif" font-size="14.00"> Project (#3, #0..#2)</text>
<text text-anchor="start" x="8" y="-23.3" font-family="Times,serif" font-size="14.00"> types = (text, integer?, integer, integer)</text>
<text text-anchor="start" x="8" y="-8.3" font-family="Times,serif" font-size="14.00"> keys = ()</text>
</g>
<!-- node11&#45;&gt;node12 -->
<g id="edge4" class="edge">
<title>node11&#45;&gt;node12</title>
<path fill="none" stroke="black" d="M154,-240.44C154,-228.35 154,-213.94 154,-198.97"/>
<polygon fill="black" stroke="black" points="157.5,-198.54 154,-188.54 150.5,-198.54 157.5,-198.54"/>
<text text-anchor="start" x="154" y="-210.8" font-family="Times,serif" font-size="14.00">%11</text>
</g>
</g>
</svg>
