<?xml version="1.0" encoding="UTF-8" standalone="no"?>
<!DOCTYPE svg PUBLIC "-//W3C//DTD SVG 1.1//EN"
 "http://www.w3.org/Graphics/SVG/1.1/DTD/svg11.dtd">
<!-- Generated by graphviz version 2.43.0 (0)
 -->
<!-- Title: G Pages: 1 -->
<svg width="851pt" height="722pt"
 viewBox="0.00 0.00 851.00 722.00" xmlns="http://www.w3.org/2000/svg" xmlns:xlink="http://www.w3.org/1999/xlink">
<g id="graph0" class="graph" transform="scale(1 1) rotate(0) translate(4 718)">
<title>G</title>
<polygon fill="white" stroke="transparent" points="-4,4 -4,-718 847,-718 847,4 -4,4"/>
<!-- node0 -->
<g id="node1" class="node">
<title>node0</title>
<polygon fill="none" stroke="black" points="253,-675.5 253,-713.5 354,-713.5 354,-675.5 253,-675.5"/>
<text text-anchor="start" x="261" y="-698.3" font-family="Times,serif" font-size="14.00">Let l0 =</text>
<text text-anchor="start" x="261" y="-683.3" font-family="Times,serif" font-size="14.00"> Constant ()</text>
</g>
<!-- node2 -->
<g id="node3" class="node">
<title>node2</title>
<polygon fill="none" stroke="black" points="0,-570.5 0,-623.5 269,-623.5 269,-570.5 0,-570.5"/>
<text text-anchor="start" x="8" y="-608.3" font-family="Times,serif" font-size="14.00">Let l1 =</text>
<text text-anchor="start" x="8" y="-593.3" font-family="Times,serif" font-size="14.00"> Join %0 %1</text>
<text text-anchor="start" x="8" y="-578.3" font-family="Times,serif" font-size="14.00"> implementation = Unimplemented</text>
</g>
<!-- node0&#45;&gt;node2 -->
<g id="edge8" class="edge">
<title>node0&#45;&gt;node2</title>
<path fill="none" stroke="black" d="M271.31,-675.31C248,-662.14 215.92,-644.01 188.68,-628.62"/>
<polygon fill="black" stroke="black" points="190.08,-625.39 179.65,-623.51 186.64,-631.48 190.08,-625.39"/>
<text text-anchor="start" x="234.5" y="-645.8" font-family="Times,serif" font-size="14.00">%0</text>
</g>
<!-- node4 -->
<g id="node5" class="node">
<title>node4</title>
<polygon fill="none" stroke="black" points="287,-570.5 287,-623.5 556,-623.5 556,-570.5 287,-570.5"/>
<text text-anchor="start" x="295" y="-608.3" font-family="Times,serif" font-size="14.00">Let l2 =</text>
<text text-anchor="start" x="295" y="-593.3" font-family="Times,serif" font-size="14.00"> Join %0 %3</text>
<text text-anchor="start" x="295" y="-578.3" font-family="Times,serif" font-size="14.00"> implementation = Unimplemented</text>
</g>
<!-- node0&#45;&gt;node4 -->
<g id="edge11" class="edge">
<title>node0&#45;&gt;node4</title>
<path fill="none" stroke="black" d="M316.87,-675.02C324.99,-664.57 335.99,-651.7 347.5,-642 352.72,-637.6 358.44,-633.37 364.3,-629.39"/>
<polygon fill="black" stroke="black" points="366.5,-632.13 372.97,-623.74 362.68,-626.27 366.5,-632.13"/>
<text text-anchor="start" x="347.5" y="-645.8" font-family="Times,serif" font-size="14.00">%0</text>
</g>
<!-- node6 -->
<g id="node7" class="node">
<title>node6</title>
<polygon fill="none" stroke="black" points="574,-570.5 574,-623.5 843,-623.5 843,-570.5 574,-570.5"/>
<text text-anchor="start" x="582" y="-608.3" font-family="Times,serif" font-size="14.00">Let l3 =</text>
<text text-anchor="start" x="582" y="-593.3" font-family="Times,serif" font-size="14.00"> Join %0 %5</text>
<text text-anchor="start" x="582" y="-578.3" font-family="Times,serif" font-size="14.00"> implementation = Unimplemented</text>
</g>
<!-- node0&#45;&gt;node6 -->
<g id="edge7" class="edge">
<title>node0&#45;&gt;node6</title>
<path fill="none" stroke="black" d="M337.65,-675.47C360.72,-664.08 392.19,-650.05 421.5,-642 480.66,-625.76 499.88,-632.97 563.63,-624.19"/>
<polygon fill="black" stroke="black" points="564.42,-627.61 573.81,-622.7 563.41,-620.68 564.42,-627.61"/>
<text text-anchor="start" x="421.5" y="-645.8" font-family="Times,serif" font-size="14.00">%0</text>
</g>
<!-- node1 -->
<g id="node2" class="node">
<title>node1</title>
<polygon fill="none" stroke="black" points="18.5,-676.5 18.5,-712.5 234.5,-712.5 234.5,-676.5 18.5,-676.5"/>
<text text-anchor="start" x="26.5" y="-690.8" font-family="Times,serif" font-size="14.00">Get pr_10752.public.z (u74)</text>
</g>
<!-- node1&#45;&gt;node2 -->
<g id="edge10" class="edge">
<title>node1&#45;&gt;node2</title>
<path fill="none" stroke="black" d="M127.93,-676.43C128.92,-664.6 130.28,-648.41 131.5,-633.82"/>
<polygon fill="black" stroke="black" points="135.01,-633.81 132.36,-623.55 128.04,-633.23 135.01,-633.81"/>
<text text-anchor="start" x="131.5" y="-645.8" font-family="Times,serif" font-size="14.00">%1</text>
</g>
<!-- node9 -->
<g id="node10" class="node">
<title>node9</title>
<polygon fill="none" stroke="black" points="78,-210.5 78,-293.5 347,-293.5 347,-210.5 78,-210.5"/>
<text text-anchor="start" x="86" y="-278.3" font-family="Times,serif" font-size="14.00">Let l6 =</text>
<text text-anchor="start" x="86" y="-263.3" font-family="Times,serif" font-size="14.00"> Join %2 %8</text>
<text text-anchor="start" x="86" y="-248.3" font-family="Times,serif" font-size="14.00"> implementation = Unimplemented</text>
<text text-anchor="start" x="86" y="-233.3" font-family="Times,serif" font-size="14.00"> Project (#0..#2)</text>
<text text-anchor="start" x="86" y="-218.3" font-family="Times,serif" font-size="14.00"> Filter true</text>
</g>
<!-- node2&#45;&gt;node9 -->
<g id="edge3" class="edge">
<title>node2&#45;&gt;node9</title>
<path fill="none" stroke="black" d="M140.3,-570.5C153.11,-514.15 184.04,-378.16 200.96,-303.74"/>
<polygon fill="black" stroke="black" points="204.45,-304.19 203.25,-293.66 197.62,-302.64 204.45,-304.19"/>
<text text-anchor="start" x="178.5" y="-405.8" font-family="Times,serif" font-size="14.00">%2</text>
</g>
<!-- node3 -->
<g id="node4" class="node">
<title>node3</title>
<polygon fill="none" stroke="black" points="372,-676.5 372,-712.5 589,-712.5 589,-676.5 372,-676.5"/>
<text text-anchor="start" x="380" y="-690.8" font-family="Times,serif" font-size="14.00">Get pr_10752.public.x (u70)</text>
</g>
<!-- node3&#45;&gt;node4 -->
<g id="edge13" class="edge">
<title>node3&#45;&gt;node4</title>
<path fill="none" stroke="black" d="M469.95,-676.43C462.36,-664.14 451.86,-647.15 442.58,-632.12"/>
<polygon fill="black" stroke="black" points="445.52,-630.22 437.29,-623.55 439.57,-633.9 445.52,-630.22"/>
<text text-anchor="start" x="455.5" y="-645.8" font-family="Times,serif" font-size="14.00">%3</text>
</g>
<!-- node7 -->
<g id="node8" class="node">
<title>node7</title>
<polygon fill="none" stroke="black" points="287,-435.5 287,-518.5 556,-518.5 556,-435.5 287,-435.5"/>
<text text-anchor="start" x="295" y="-503.3" font-family="Times,serif" font-size="14.00">Let l4 =</text>
<text text-anchor="start" x="295" y="-488.3" font-family="Times,serif" font-size="14.00"> Join %4 %6</text>
<text text-anchor="start" x="295" y="-473.3" font-family="Times,serif" font-size="14.00"> implementation = Unimplemented</text>
<text text-anchor="start" x="295" y="-458.3" font-family="Times,serif" font-size="14.00"> Project (#0, #1)</text>
<text text-anchor="start" x="295" y="-443.3" font-family="Times,serif" font-size="14.00"> Filter (#0 = #1)</text>
</g>
<!-- node4&#45;&gt;node7 -->
<g id="edge1" class="edge">
<title>node4&#45;&gt;node7</title>
<path fill="none" stroke="black" d="M421.5,-570.4C421.5,-558.29 421.5,-543.38 421.5,-529.1"/>
<polygon fill="black" stroke="black" points="425,-528.86 421.5,-518.86 418,-528.86 425,-528.86"/>
<text text-anchor="start" x="421.5" y="-540.8" font-family="Times,serif" font-size="14.00">%4</text>
</g>
<!-- node5 -->
<g id="node6" class="node">
<title>node5</title>
<polygon fill="none" stroke="black" points="607,-676.5 607,-712.5 824,-712.5 824,-676.5 607,-676.5"/>
<text text-anchor="start" x="615" y="-690.8" font-family="Times,serif" font-size="14.00">Get pr_10752.public.y (u72)</text>
</g>
<!-- node5&#45;&gt;node6 -->
<g id="edge5" class="edge">
<title>node5&#45;&gt;node6</title>
<path fill="none" stroke="black" d="M714.25,-676.43C713.38,-664.6 712.2,-648.41 711.13,-633.82"/>
<polygon fill="black" stroke="black" points="714.59,-633.27 710.37,-623.55 707.61,-633.78 714.59,-633.27"/>
<text text-anchor="start" x="712.5" y="-645.8" font-family="Times,serif" font-size="14.00">%5</text>
</g>
<!-- node6&#45;&gt;node7 -->
<g id="edge12" class="edge">
<title>node6&#45;&gt;node7</title>
<path fill="none" stroke="black" d="M646.23,-570.4C612.11,-556.37 568.87,-538.59 529.45,-522.38"/>
<polygon fill="black" stroke="black" points="530.63,-519.08 520.05,-518.52 527.97,-525.56 530.63,-519.08"/>
<text text-anchor="start" x="598.5" y="-540.8" font-family="Times,serif" font-size="14.00">%6</text>
</g>
<!-- node8 -->
<g id="node9" class="node">
<title>node8</title>
<polygon fill="none" stroke="black" points="266.5,-345.5 266.5,-383.5 368.5,-383.5 368.5,-345.5 266.5,-345.5"/>
<text text-anchor="start" x="274.5" y="-368.3" font-family="Times,serif" font-size="14.00">Let l5 =</text>
<text text-anchor="start" x="274.5" y="-353.3" font-family="Times,serif" font-size="14.00"> Get %7 (l4)</text>
</g>
<!-- node7&#45;&gt;node8 -->
<g id="edge6" class="edge">
<title>node7&#45;&gt;node8</title>
<path fill="none" stroke="black" d="M383.36,-435.48C369.41,-420.65 354.01,-404.3 341.62,-391.13"/>
<polygon fill="black" stroke="black" points="344.11,-388.66 334.7,-383.78 339.01,-393.46 344.11,-388.66"/>
<text text-anchor="start" x="362.5" y="-405.8" font-family="Times,serif" font-size="14.00">%7</text>
</g>
<!-- node8&#45;&gt;node9 -->
<g id="edge4" class="edge">
<title>node8&#45;&gt;node9</title>
<path fill="none" stroke="black" d="M300.16,-345.25C288.75,-333.24 273.23,-316.91 258.43,-301.33"/>
<polygon fill="black" stroke="black" points="260.66,-298.6 251.23,-293.76 255.59,-303.42 260.66,-298.6"/>
<text text-anchor="start" x="281.5" y="-315.8" font-family="Times,serif" font-size="14.00">%8</text>
</g>
<!-- node10 -->
<g id="node11" class="node">
<title>node10</title>
<polygon fill="none" stroke="black" points="161.5,-120.5 161.5,-158.5 263.5,-158.5 263.5,-120.5 161.5,-120.5"/>
<text text-anchor="start" x="169.5" y="-143.3" font-family="Times,serif" font-size="14.00">Let l7 =</text>
<text text-anchor="start" x="169.5" y="-128.3" font-family="Times,serif" font-size="14.00"> Get %9 (l6)</text>
</g>
<!-- node9&#45;&gt;node10 -->
<g id="edge9" class="edge">
<title>node9&#45;&gt;node10</title>
<path fill="none" stroke="black" d="M212.5,-210.48C212.5,-196.76 212.5,-181.73 212.5,-169.13"/>
<polygon fill="black" stroke="black" points="216,-168.78 212.5,-158.78 209,-168.78 216,-168.78"/>
<text text-anchor="start" x="212.5" y="-180.8" font-family="Times,serif" font-size="14.00">%9</text>
</g>
<!-- node11 -->
<g id="node12" class="node">
<title>node11</title>
<polygon fill="none" stroke="black" points="128.5,-0.5 128.5,-68.5 296.5,-68.5 296.5,-0.5 128.5,-0.5"/>
<text text-anchor="start" x="136.5" y="-53.3" font-family="Times,serif" font-size="14.00">Get %10 (l7)</text>
<text text-anchor="start" x="136.5" y="-38.3" font-family="Times,serif" font-size="14.00"> Map &quot;pr_10752&quot;</text>
<text text-anchor="start" x="136.5" y="-23.3" font-family="Times,serif" font-size="14.00"> Project (#0..#3)</text>
<text text-anchor="start" x="136.5" y="-8.3" font-family="Times,serif" font-size="14.00"> Project (#3, #0..#2)</text>
</g>
<!-- node10&#45;&gt;node11 -->
<g id="edge2" class="edge">
<title>node10&#45;&gt;node11</title>
<path fill="none" stroke="black" d="M212.5,-120.09C212.5,-108.63 212.5,-93.39 212.5,-79"/>
<polygon fill="black" stroke="black" points="216,-78.74 212.5,-68.74 209,-78.74 216,-78.74"/>
<text text-anchor="start" x="212.5" y="-90.8" font-family="Times,serif" font-size="14.00">%10</text>
</g>
</g>
</svg>
