<?xml version="1.0" encoding="UTF-8" standalone="no"?>
<!DOCTYPE svg PUBLIC "-//W3C//DTD SVG 1.1//EN"
 "http://www.w3.org/Graphics/SVG/1.1/DTD/svg11.dtd">
<!-- Generated by graphviz version 2.43.0 (0)
 -->
<!-- Title: G Pages: 1 -->
<svg width="695pt" height="182pt"
 viewBox="0.00 0.00 694.50 182.00" xmlns="http://www.w3.org/2000/svg" xmlns:xlink="http://www.w3.org/1999/xlink">
<g id="graph0" class="graph" transform="scale(1 1) rotate(0) translate(4 178)">
<title>G</title>
<polygon fill="white" stroke="transparent" points="-4,4 -4,-178 690.5,-178 690.5,4 -4,4"/>
<!-- node0 -->
<g id="node1" class="node">
<title>node0</title>
<polygon fill="none" stroke="black" points="0,-135.5 0,-173.5 216,-173.5 216,-135.5 0,-135.5"/>
<text text-anchor="start" x="8" y="-158.3" font-family="Times,serif" font-size="14.00">Get pr_10752.public.z (u74)</text>
<text text-anchor="start" x="8" y="-143.3" font-family="Times,serif" font-size="14.00"> ArrangeBy ()</text>
</g>
<!-- node3 -->
<g id="node4" class="node">
<title>node3</title>
<polygon fill="none" stroke="black" points="141,-0.5 141,-83.5 545,-83.5 545,-0.5 141,-0.5"/>
<text text-anchor="start" x="149" y="-68.3" font-family="Times,serif" font-size="14.00">Join %0 %1 %2 (= #1 #2)</text>
<text text-anchor="start" x="149" y="-53.3" font-family="Times,serif" font-size="14.00"> implementation = Differential %1.(#0) %2.(#0) %0.()</text>
<text text-anchor="start" x="149" y="-38.3" font-family="Times,serif" font-size="14.00"> Filter !(isnull(#1))</text>
<text text-anchor="start" x="149" y="-23.3" font-family="Times,serif" font-size="14.00"> Map &quot;pr_10752&quot;</text>
<text text-anchor="start" x="149" y="-8.3" font-family="Times,serif" font-size="14.00"> Project (#3, #0, #1, #1)</text>
</g>
<!-- node0&#45;&gt;node3 -->
<g id="edge3" class="edge">
<title>node0&#45;&gt;node3</title>
<path fill="none" stroke="black" d="M146.54,-135.38C173.91,-122.51 211.93,-104.63 247.23,-88.03"/>
<polygon fill="black" stroke="black" points="249.06,-91.04 256.62,-83.62 246.08,-84.71 249.06,-91.04"/>
<text text-anchor="start" x="212" y="-105.8" font-family="Times,serif" font-size="14.00">%0</text>
</g>
<!-- node1 -->
<g id="node2" class="node">
<title>node1</title>
<polygon fill="none" stroke="black" points="234.5,-135.5 234.5,-173.5 451.5,-173.5 451.5,-135.5 234.5,-135.5"/>
<text text-anchor="start" x="242.5" y="-158.3" font-family="Times,serif" font-size="14.00">Get pr_10752.public.x (u70)</text>
<text text-anchor="start" x="242.5" y="-143.3" font-family="Times,serif" font-size="14.00"> ArrangeBy (#0)</text>
</g>
<!-- node1&#45;&gt;node3 -->
<g id="edge2" class="edge">
<title>node1&#45;&gt;node3</title>
<path fill="none" stroke="black" d="M343,-135.25C343,-123.9 343,-108.68 343,-93.89"/>
<polygon fill="black" stroke="black" points="346.5,-93.76 343,-83.76 339.5,-93.76 346.5,-93.76"/>
<text text-anchor="start" x="343" y="-105.8" font-family="Times,serif" font-size="14.00">%1</text>
</g>
<!-- node2 -->
<g id="node3" class="node">
<title>node2</title>
<polygon fill="none" stroke="black" points="469.5,-135.5 469.5,-173.5 686.5,-173.5 686.5,-135.5 469.5,-135.5"/>
<text text-anchor="start" x="477.5" y="-158.3" font-family="Times,serif" font-size="14.00">Get pr_10752.public.y (u72)</text>
<text text-anchor="start" x="477.5" y="-143.3" font-family="Times,serif" font-size="14.00"> ArrangeBy (#0)</text>
</g>
<!-- node2&#45;&gt;node3 -->
<g id="edge1" class="edge">
<title>node2&#45;&gt;node3</title>
<path fill="none" stroke="black" d="M539.46,-135.38C512.09,-122.51 474.07,-104.63 438.77,-88.03"/>
<polygon fill="black" stroke="black" points="439.92,-84.71 429.38,-83.62 436.94,-91.04 439.92,-84.71"/>
<text text-anchor="start" x="495" y="-105.8" font-family="Times,serif" font-size="14.00">%2</text>
</g>
</g>
</svg>
