<?xml version="1.0" encoding="UTF-8" standalone="no"?>
<!DOCTYPE svg PUBLIC "-//W3C//DTD SVG 1.1//EN"
 "http://www.w3.org/Graphics/SVG/1.1/DTD/svg11.dtd">
<!-- Generated by graphviz version 2.43.0 (0)
 -->
<!-- Title: G Pages: 1 -->
<svg width="586pt" height="238pt"
 viewBox="0.00 0.00 585.50 238.00" xmlns="http://www.w3.org/2000/svg" xmlns:xlink="http://www.w3.org/1999/xlink">
<g id="graph0" class="graph" transform="scale(1 1) rotate(0) translate(4 234)">
<title>G</title>
<polygon fill="white" stroke="transparent" points="-4,4 -4,-234 581.5,-234 581.5,4 -4,4"/>
<!-- node0 -->
<g id="node1" class="node">
<title>node0</title>
<polygon fill="none" stroke="black" points="0,-105.5 0,-141.5 216,-141.5 216,-105.5 0,-105.5"/>
<text text-anchor="start" x="8" y="-119.8" font-family="Times,serif" font-size="14.00">Get pr_10752.public.z (u74)</text>
</g>
<!-- node4 -->
<g id="node5" class="node">
<title>node4</title>
<polygon fill="none" stroke="black" points="84,-0.5 84,-53.5 276,-53.5 276,-0.5 84,-0.5"/>
<text text-anchor="start" x="92" y="-38.3" font-family="Times,serif" font-size="14.00">InnerJoin %0 %3 on true</text>
<text text-anchor="start" x="92" y="-23.3" font-family="Times,serif" font-size="14.00"> Map &quot;pr_10752&quot;</text>
<text text-anchor="start" x="92" y="-8.3" font-family="Times,serif" font-size="14.00"> Project (#3, #0..#2)</text>
</g>
<!-- node0&#45;&gt;node4 -->
<g id="edge3" class="edge">
<title>node0&#45;&gt;node4</title>
<path fill="none" stroke="black" d="M121.21,-105.17C130.37,-93.14 142.88,-76.72 154,-62.12"/>
<polygon fill="black" stroke="black" points="157.08,-63.86 160.36,-53.78 151.51,-59.61 157.08,-63.86"/>
<text text-anchor="start" x="147" y="-75.8" font-family="Times,serif" font-size="14.00">%0</text>
</g>
<!-- node1 -->
<g id="node2" class="node">
<title>node1</title>
<polygon fill="none" stroke="black" points="125.5,-193.5 125.5,-229.5 342.5,-229.5 342.5,-193.5 125.5,-193.5"/>
<text text-anchor="start" x="133.5" y="-207.8" font-family="Times,serif" font-size="14.00">Get pr_10752.public.x (u70)</text>
</g>
<!-- node3 -->
<g id="node4" class="node">
<title>node3</title>
<polygon fill="none" stroke="black" points="234,-105.5 234,-141.5 470,-141.5 470,-105.5 234,-105.5"/>
<text text-anchor="start" x="242" y="-119.8" font-family="Times,serif" font-size="14.00">InnerJoin %1 %2 on (#0 = #1)</text>
</g>
<!-- node1&#45;&gt;node3 -->
<g id="edge2" class="edge">
<title>node1&#45;&gt;node3</title>
<path fill="none" stroke="black" d="M257.6,-193.3C275.6,-180.18 300.59,-161.97 320.34,-147.57"/>
<polygon fill="black" stroke="black" points="322.43,-150.39 328.45,-141.67 318.3,-144.73 322.43,-150.39"/>
<text text-anchor="start" x="300" y="-163.8" font-family="Times,serif" font-size="14.00">%1</text>
</g>
<!-- node2 -->
<g id="node3" class="node">
<title>node2</title>
<polygon fill="none" stroke="black" points="360.5,-193.5 360.5,-229.5 577.5,-229.5 577.5,-193.5 360.5,-193.5"/>
<text text-anchor="start" x="368.5" y="-207.8" font-family="Times,serif" font-size="14.00">Get pr_10752.public.y (u72)</text>
</g>
<!-- node2&#45;&gt;node3 -->
<g id="edge1" class="edge">
<title>node2&#45;&gt;node3</title>
<path fill="none" stroke="black" d="M445.6,-193.3C427.83,-180.24 403.19,-162.13 383.65,-147.77"/>
<polygon fill="black" stroke="black" points="385.49,-144.77 375.35,-141.67 381.34,-150.41 385.49,-144.77"/>
<text text-anchor="start" x="417" y="-163.8" font-family="Times,serif" font-size="14.00">%2</text>
</g>
<!-- node3&#45;&gt;node4 -->
<g id="edge4" class="edge">
<title>node3&#45;&gt;node4</title>
<path fill="none" stroke="black" d="M320.85,-105.39C297.09,-92.33 263.74,-74.01 235.46,-58.47"/>
<polygon fill="black" stroke="black" points="236.92,-55.28 226.47,-53.53 233.55,-61.42 236.92,-55.28"/>
<text text-anchor="start" x="286" y="-75.8" font-family="Times,serif" font-size="14.00">%3</text>
</g>
</g>
</svg>
