<?xml version="1.0" encoding="UTF-8" standalone="no"?>
<!DOCTYPE svg PUBLIC "-//W3C//DTD SVG 1.1//EN"
 "http://www.w3.org/Graphics/SVG/1.1/DTD/svg11.dtd">
<!-- Generated by graphviz version 2.43.0 (0)
 -->
<!-- Title: G Pages: 1 -->
<svg width="586pt" height="362pt"
 viewBox="0.00 0.00 585.50 362.00" xmlns="http://www.w3.org/2000/svg" xmlns:xlink="http://www.w3.org/1999/xlink">
<g id="graph0" class="graph" transform="scale(1 1) rotate(0) translate(4 358)">
<title>G</title>
<polygon fill="white" stroke="transparent" points="-4,4 -4,-358 581.5,-358 581.5,4 -4,4"/>
<!-- node0 -->
<g id="node1" class="node">
<title>node0</title>
<polygon fill="none" stroke="black" points="0,-195.5 0,-248.5 216,-248.5 216,-195.5 0,-195.5"/>
<text text-anchor="start" x="8" y="-233.3" font-family="Times,serif" font-size="14.00">Get pr_10752.public.z (u74)</text>
<text text-anchor="start" x="8" y="-218.3" font-family="Times,serif" font-size="14.00"> types = (integer?)</text>
<text text-anchor="start" x="8" y="-203.3" font-family="Times,serif" font-size="14.00"> keys = ()</text>
</g>
<!-- node4 -->
<g id="node5" class="node">
<title>node4</title>
<polygon fill="none" stroke="black" points="17.5,-0.5 17.5,-143.5 342.5,-143.5 342.5,-0.5 17.5,-0.5"/>
<text text-anchor="start" x="25.5" y="-128.3" font-family="Times,serif" font-size="14.00">InnerJoin %0 %3 on true</text>
<text text-anchor="start" x="25.5" y="-113.3" font-family="Times,serif" font-size="14.00"> types = (integer?, integer?, integer?)</text>
<text text-anchor="start" x="25.5" y="-98.3" font-family="Times,serif" font-size="14.00"> keys = ()</text>
<text text-anchor="start" x="25.5" y="-83.3" font-family="Times,serif" font-size="14.00"> Map &quot;pr_10752&quot;</text>
<text text-anchor="start" x="25.5" y="-68.3" font-family="Times,serif" font-size="14.00"> types = (integer?, integer?, integer?, text)</text>
<text text-anchor="start" x="25.5" y="-53.3" font-family="Times,serif" font-size="14.00"> keys = ()</text>
<text text-anchor="start" x="25.5" y="-38.3" font-family="Times,serif" font-size="14.00"> Project (#3, #0..#2)</text>
<text text-anchor="start" x="25.5" y="-23.3" font-family="Times,serif" font-size="14.00"> types = (text, integer?, integer?, integer?)</text>
<text text-anchor="start" x="25.5" y="-8.3" font-family="Times,serif" font-size="14.00"> keys = ()</text>
</g>
<!-- node0&#45;&gt;node4 -->
<g id="edge3" class="edge">
<title>node0&#45;&gt;node4</title>
<path fill="none" stroke="black" d="M120.54,-195.22C126.4,-183.17 133.73,-168.11 141.22,-152.71"/>
<polygon fill="black" stroke="black" points="144.41,-154.15 145.64,-143.63 138.12,-151.09 144.41,-154.15"/>
<text text-anchor="start" x="136" y="-165.8" font-family="Times,serif" font-size="14.00">%0</text>
</g>
<!-- node1 -->
<g id="node2" class="node">
<title>node1</title>
<polygon fill="none" stroke="black" points="125.5,-300.5 125.5,-353.5 342.5,-353.5 342.5,-300.5 125.5,-300.5"/>
<text text-anchor="start" x="133.5" y="-338.3" font-family="Times,serif" font-size="14.00">Get pr_10752.public.x (u70)</text>
<text text-anchor="start" x="133.5" y="-323.3" font-family="Times,serif" font-size="14.00"> types = (integer?)</text>
<text text-anchor="start" x="133.5" y="-308.3" font-family="Times,serif" font-size="14.00"> keys = ()</text>
</g>
<!-- node3 -->
<g id="node4" class="node">
<title>node3</title>
<polygon fill="none" stroke="black" points="234,-195.5 234,-248.5 470,-248.5 470,-195.5 234,-195.5"/>
<text text-anchor="start" x="242" y="-233.3" font-family="Times,serif" font-size="14.00">InnerJoin %1 %2 on (#0 = #1)</text>
<text text-anchor="start" x="242" y="-218.3" font-family="Times,serif" font-size="14.00"> types = (integer?, integer?)</text>
<text text-anchor="start" x="242" y="-203.3" font-family="Times,serif" font-size="14.00"> keys = ()</text>
</g>
<!-- node1&#45;&gt;node3 -->
<g id="edge2" class="edge">
<title>node1&#45;&gt;node3</title>
<path fill="none" stroke="black" d="M263.47,-300.27C278.96,-286.76 298.1,-270.05 314.62,-255.63"/>
<polygon fill="black" stroke="black" points="317.26,-257.97 322.49,-248.75 312.66,-252.69 317.26,-257.97"/>
<text text-anchor="start" x="300" y="-270.8" font-family="Times,serif" font-size="14.00">%1</text>
</g>
<!-- node2 -->
<g id="node3" class="node">
<title>node2</title>
<polygon fill="none" stroke="black" points="360.5,-300.5 360.5,-353.5 577.5,-353.5 577.5,-300.5 360.5,-300.5"/>
<text text-anchor="start" x="368.5" y="-338.3" font-family="Times,serif" font-size="14.00">Get pr_10752.public.y (u72)</text>
<text text-anchor="start" x="368.5" y="-323.3" font-family="Times,serif" font-size="14.00"> types = (integer?)</text>
<text text-anchor="start" x="368.5" y="-308.3" font-family="Times,serif" font-size="14.00"> keys = ()</text>
</g>
<!-- node2&#45;&gt;node3 -->
<g id="edge1" class="edge">
<title>node2&#45;&gt;node3</title>
<path fill="none" stroke="black" d="M439.78,-300.27C424.42,-286.76 405.44,-270.05 389.06,-255.63"/>
<polygon fill="black" stroke="black" points="391.07,-252.74 381.26,-248.75 386.45,-257.99 391.07,-252.74"/>
<text text-anchor="start" x="417" y="-270.8" font-family="Times,serif" font-size="14.00">%2</text>
</g>
<!-- node3&#45;&gt;node4 -->
<g id="edge4" class="edge">
<title>node3&#45;&gt;node4</title>
<path fill="none" stroke="black" d="M322.04,-195.22C307.32,-182.55 288.72,-166.55 269.88,-150.33"/>
<polygon fill="black" stroke="black" points="271.94,-147.5 262.08,-143.63 267.38,-152.8 271.94,-147.5"/>
<text text-anchor="start" x="296" y="-165.8" font-family="Times,serif" font-size="14.00">%3</text>
</g>
</g>
</svg>
