<?xml version="1.0" encoding="UTF-8" standalone="no"?>
<!DOCTYPE svg PUBLIC "-//W3C//DTD SVG 1.1//EN"
 "http://www.w3.org/Graphics/SVG/1.1/DTD/svg11.dtd">
<!-- Generated by graphviz version 2.43.0 (0)
 -->
<!-- Title: G Pages: 1 -->
<svg width="851pt" height="1142pt"
 viewBox="0.00 0.00 851.00 1142.00" xmlns="http://www.w3.org/2000/svg" xmlns:xlink="http://www.w3.org/1999/xlink">
<g id="graph0" class="graph" transform="scale(1 1) rotate(0) translate(4 1138)">
<title>G</title>
<polygon fill="white" stroke="transparent" points="-4,4 -4,-1138 847,-1138 847,4 -4,4"/>
<!-- node0 -->
<g id="node1" class="node">
<title>node0</title>
<polygon fill="none" stroke="black" points="253,-1065.5 253,-1133.5 354,-1133.5 354,-1065.5 253,-1065.5"/>
<text text-anchor="start" x="261" y="-1118.3" font-family="Times,serif" font-size="14.00">Let l0 =</text>
<text text-anchor="start" x="261" y="-1103.3" font-family="Times,serif" font-size="14.00"> Constant ()</text>
<text text-anchor="start" x="261" y="-1088.3" font-family="Times,serif" font-size="14.00"> types = ()</text>
<text text-anchor="start" x="261" y="-1073.3" font-family="Times,serif" font-size="14.00"> keys = (())</text>
</g>
<!-- node2 -->
<g id="node3" class="node">
<title>node2</title>
<polygon fill="none" stroke="black" points="0,-930.5 0,-1013.5 269,-1013.5 269,-930.5 0,-930.5"/>
<text text-anchor="start" x="8" y="-998.3" font-family="Times,serif" font-size="14.00">Let l1 =</text>
<text text-anchor="start" x="8" y="-983.3" font-family="Times,serif" font-size="14.00"> Join %0 %1</text>
<text text-anchor="start" x="8" y="-968.3" font-family="Times,serif" font-size="14.00"> implementation = Unimplemented</text>
<text text-anchor="start" x="8" y="-953.3" font-family="Times,serif" font-size="14.00"> types = (integer?)</text>
<text text-anchor="start" x="8" y="-938.3" font-family="Times,serif" font-size="14.00"> keys = ()</text>
</g>
<!-- node0&#45;&gt;node2 -->
<g id="edge8" class="edge">
<title>node0&#45;&gt;node2</title>
<path fill="none" stroke="black" d="M258.65,-1065.2C239.92,-1051.28 217.82,-1034.87 197.5,-1019.78"/>
<polygon fill="black" stroke="black" points="199.33,-1016.78 189.21,-1013.63 195.15,-1022.4 199.33,-1016.78"/>
<text text-anchor="start" x="234.5" y="-1035.8" font-family="Times,serif" font-size="14.00">%0</text>
</g>
<!-- node4 -->
<g id="node5" class="node">
<title>node4</title>
<polygon fill="none" stroke="black" points="287,-930.5 287,-1013.5 556,-1013.5 556,-930.5 287,-930.5"/>
<text text-anchor="start" x="295" y="-998.3" font-family="Times,serif" font-size="14.00">Let l2 =</text>
<text text-anchor="start" x="295" y="-983.3" font-family="Times,serif" font-size="14.00"> Join %0 %3</text>
<text text-anchor="start" x="295" y="-968.3" font-family="Times,serif" font-size="14.00"> implementation = Unimplemented</text>
<text text-anchor="start" x="295" y="-953.3" font-family="Times,serif" font-size="14.00"> types = (integer?)</text>
<text text-anchor="start" x="295" y="-938.3" font-family="Times,serif" font-size="14.00"> keys = ()</text>
</g>
<!-- node0&#45;&gt;node4 -->
<g id="edge11" class="edge">
<title>node0&#45;&gt;node4</title>
<path fill="none" stroke="black" d="M322.63,-1065.21C329.75,-1054.1 338.34,-1042.01 347.5,-1032 351.01,-1028.16 354.79,-1024.37 358.72,-1020.67"/>
<polygon fill="black" stroke="black" points="361.36,-1022.99 366.41,-1013.68 356.65,-1017.81 361.36,-1022.99"/>
<text text-anchor="start" x="347.5" y="-1035.8" font-family="Times,serif" font-size="14.00">%0</text>
</g>
<!-- node6 -->
<g id="node7" class="node">
<title>node6</title>
<polygon fill="none" stroke="black" points="574,-930.5 574,-1013.5 843,-1013.5 843,-930.5 574,-930.5"/>
<text text-anchor="start" x="582" y="-998.3" font-family="Times,serif" font-size="14.00">Let l3 =</text>
<text text-anchor="start" x="582" y="-983.3" font-family="Times,serif" font-size="14.00"> Join %0 %5</text>
<text text-anchor="start" x="582" y="-968.3" font-family="Times,serif" font-size="14.00"> implementation = Unimplemented</text>
<text text-anchor="start" x="582" y="-953.3" font-family="Times,serif" font-size="14.00"> types = (integer?)</text>
<text text-anchor="start" x="582" y="-938.3" font-family="Times,serif" font-size="14.00"> keys = ()</text>
</g>
<!-- node0&#45;&gt;node6 -->
<g id="edge7" class="edge">
<title>node0&#45;&gt;node6</title>
<path fill="none" stroke="black" d="M352.92,-1065.5C373.86,-1053.04 399.04,-1039.96 423.5,-1032 481.04,-1013.28 501.21,-1025.47 563.91,-1014.15"/>
<polygon fill="black" stroke="black" points="564.76,-1017.55 573.92,-1012.21 563.43,-1010.67 564.76,-1017.55"/>
<text text-anchor="start" x="423.5" y="-1035.8" font-family="Times,serif" font-size="14.00">%0</text>
</g>
<!-- node1 -->
<g id="node2" class="node">
<title>node1</title>
<polygon fill="none" stroke="black" points="18.5,-1073 18.5,-1126 234.5,-1126 234.5,-1073 18.5,-1073"/>
<text text-anchor="start" x="26.5" y="-1110.8" font-family="Times,serif" font-size="14.00">Get pr_10752.public.z (u74)</text>
<text text-anchor="start" x="26.5" y="-1095.8" font-family="Times,serif" font-size="14.00"> types = (integer?)</text>
<text text-anchor="start" x="26.5" y="-1080.8" font-family="Times,serif" font-size="14.00"> keys = ()</text>
</g>
<!-- node1&#45;&gt;node2 -->
<g id="edge10" class="edge">
<title>node1&#45;&gt;node2</title>
<path fill="none" stroke="black" d="M128.14,-1072.8C129.03,-1058.79 130.17,-1040.93 131.24,-1024.2"/>
<polygon fill="black" stroke="black" points="134.74,-1024.18 131.89,-1013.98 127.76,-1023.74 134.74,-1024.18"/>
<text text-anchor="start" x="130.5" y="-1035.8" font-family="Times,serif" font-size="14.00">%1</text>
</g>
<!-- node9 -->
<g id="node10" class="node">
<title>node9</title>
<polygon fill="none" stroke="black" points="77,-360.5 77,-533.5 348,-533.5 348,-360.5 77,-360.5"/>
<text text-anchor="start" x="85" y="-518.3" font-family="Times,serif" font-size="14.00">Let l6 =</text>
<text text-anchor="start" x="85" y="-503.3" font-family="Times,serif" font-size="14.00"> Join %2 %8</text>
<text text-anchor="start" x="85" y="-488.3" font-family="Times,serif" font-size="14.00"> implementation = Unimplemented</text>
<text text-anchor="start" x="85" y="-473.3" font-family="Times,serif" font-size="14.00"> types = (integer?, integer, integer)</text>
<text text-anchor="start" x="85" y="-458.3" font-family="Times,serif" font-size="14.00"> keys = ()</text>
<text text-anchor="start" x="85" y="-443.3" font-family="Times,serif" font-size="14.00"> Project (#0..#2)</text>
<text text-anchor="start" x="85" y="-428.3" font-family="Times,serif" font-size="14.00"> types = (integer?, integer, integer)</text>
<text text-anchor="start" x="85" y="-413.3" font-family="Times,serif" font-size="14.00"> keys = ()</text>
<text text-anchor="start" x="85" y="-398.3" font-family="Times,serif" font-size="14.00"> Filter true</text>
<text text-anchor="start" x="85" y="-383.3" font-family="Times,serif" font-size="14.00"> types = (integer?, integer, integer)</text>
<text text-anchor="start" x="85" y="-368.3" font-family="Times,serif" font-size="14.00"> keys = ()</text>
</g>
<!-- node2&#45;&gt;node9 -->
<g id="edge3" class="edge">
<title>node2&#45;&gt;node9</title>
<path fill="none" stroke="black" d="M140.56,-930.4C152.85,-847.96 181.03,-659.02 198.25,-543.58"/>
<polygon fill="black" stroke="black" points="201.71,-544.08 199.72,-533.67 194.79,-543.05 201.71,-544.08"/>
<text text-anchor="start" x="179.5" y="-675.8" font-family="Times,serif" font-size="14.00">%2</text>
</g>
<!-- node3 -->
<g id="node4" class="node">
<title>node3</title>
<polygon fill="none" stroke="black" points="372,-1073 372,-1126 589,-1126 589,-1073 372,-1073"/>
<text text-anchor="start" x="380" y="-1110.8" font-family="Times,serif" font-size="14.00">Get pr_10752.public.x (u70)</text>
<text text-anchor="start" x="380" y="-1095.8" font-family="Times,serif" font-size="14.00"> types = (integer?)</text>
<text text-anchor="start" x="380" y="-1080.8" font-family="Times,serif" font-size="14.00"> keys = ()</text>
</g>
<!-- node3&#45;&gt;node4 -->
<g id="edge13" class="edge">
<title>node3&#45;&gt;node4</title>
<path fill="none" stroke="black" d="M468.42,-1072.8C461.7,-1058.52 453.12,-1040.25 445.13,-1023.26"/>
<polygon fill="black" stroke="black" points="448.19,-1021.54 440.77,-1013.98 441.85,-1024.52 448.19,-1021.54"/>
<text text-anchor="start" x="455.5" y="-1035.8" font-family="Times,serif" font-size="14.00">%3</text>
</g>
<!-- node7 -->
<g id="node8" class="node">
<title>node7</title>
<polygon fill="none" stroke="black" points="287,-705.5 287,-878.5 556,-878.5 556,-705.5 287,-705.5"/>
<text text-anchor="start" x="295" y="-863.3" font-family="Times,serif" font-size="14.00">Let l4 =</text>
<text text-anchor="start" x="295" y="-848.3" font-family="Times,serif" font-size="14.00"> Join %4 %6</text>
<text text-anchor="start" x="295" y="-833.3" font-family="Times,serif" font-size="14.00"> implementation = Unimplemented</text>
<text text-anchor="start" x="295" y="-818.3" font-family="Times,serif" font-size="14.00"> types = (integer?, integer?)</text>
<text text-anchor="start" x="295" y="-803.3" font-family="Times,serif" font-size="14.00"> keys = ()</text>
<text text-anchor="start" x="295" y="-788.3" font-family="Times,serif" font-size="14.00"> Project (#0, #1)</text>
<text text-anchor="start" x="295" y="-773.3" font-family="Times,serif" font-size="14.00"> types = (integer?, integer?)</text>
<text text-anchor="start" x="295" y="-758.3" font-family="Times,serif" font-size="14.00"> keys = ()</text>
<text text-anchor="start" x="295" y="-743.3" font-family="Times,serif" font-size="14.00"> Filter (#0 = #1)</text>
<text text-anchor="start" x="295" y="-728.3" font-family="Times,serif" font-size="14.00"> types = (integer, integer)</text>
<text text-anchor="start" x="295" y="-713.3" font-family="Times,serif" font-size="14.00"> keys = ()</text>
</g>
<!-- node4&#45;&gt;node7 -->
<g id="edge1" class="edge">
<title>node4&#45;&gt;node7</title>
<path fill="none" stroke="black" d="M421.5,-930.16C421.5,-917.65 421.5,-903.33 421.5,-888.76"/>
<polygon fill="black" stroke="black" points="425,-888.65 421.5,-878.65 418,-888.65 425,-888.65"/>
<text text-anchor="start" x="421.5" y="-900.8" font-family="Times,serif" font-size="14.00">%4</text>
</g>
<!-- node5 -->
<g id="node6" class="node">
<title>node5</title>
<polygon fill="none" stroke="black" points="607,-1073 607,-1126 824,-1126 824,-1073 607,-1073"/>
<text text-anchor="start" x="615" y="-1110.8" font-family="Times,serif" font-size="14.00">Get pr_10752.public.y (u72)</text>
<text text-anchor="start" x="615" y="-1095.8" font-family="Times,serif" font-size="14.00"> types = (integer?)</text>
<text text-anchor="start" x="615" y="-1080.8" font-family="Times,serif" font-size="14.00"> keys = ()</text>
</g>
<!-- node5&#45;&gt;node6 -->
<g id="edge5" class="edge">
<title>node5&#45;&gt;node6</title>
<path fill="none" stroke="black" d="M714.07,-1072.8C713.28,-1058.79 712.29,-1040.93 711.36,-1024.2"/>
<polygon fill="black" stroke="black" points="714.84,-1023.77 710.79,-1013.98 707.85,-1024.16 714.84,-1023.77"/>
<text text-anchor="start" x="712.5" y="-1035.8" font-family="Times,serif" font-size="14.00">%5</text>
</g>
<!-- node6&#45;&gt;node7 -->
<g id="edge12" class="edge">
<title>node6&#45;&gt;node7</title>
<path fill="none" stroke="black" d="M643.02,-930.39C619.55,-915.83 592.09,-898.8 564.64,-881.78"/>
<polygon fill="black" stroke="black" points="566.48,-878.8 556.13,-876.5 562.79,-884.75 566.48,-878.8"/>
<text text-anchor="start" x="606.5" y="-900.8" font-family="Times,serif" font-size="14.00">%6</text>
</g>
<!-- node8 -->
<g id="node9" class="node">
<title>node8</title>
<polygon fill="none" stroke="black" points="241,-585.5 241,-653.5 444,-653.5 444,-585.5 241,-585.5"/>
<text text-anchor="start" x="249" y="-638.3" font-family="Times,serif" font-size="14.00">Let l5 =</text>
<text text-anchor="start" x="249" y="-623.3" font-family="Times,serif" font-size="14.00"> Get %7 (l4)</text>
<text text-anchor="start" x="249" y="-608.3" font-family="Times,serif" font-size="14.00"> types = (integer, integer)</text>
<text text-anchor="start" x="249" y="-593.3" font-family="Times,serif" font-size="14.00"> keys = ()</text>
</g>
<!-- node7&#45;&gt;node8 -->
<g id="edge6" class="edge">
<title>node7&#45;&gt;node8</title>
<path fill="none" stroke="black" d="M381.77,-705.25C374.9,-690.44 368.05,-675.64 362.03,-662.66"/>
<polygon fill="black" stroke="black" points="365.19,-661.15 357.81,-653.55 358.84,-664.09 365.19,-661.15"/>
<text text-anchor="start" x="372.5" y="-675.8" font-family="Times,serif" font-size="14.00">%7</text>
</g>
<!-- node8&#45;&gt;node9 -->
<g id="edge4" class="edge">
<title>node8&#45;&gt;node9</title>
<path fill="none" stroke="black" d="M317.13,-585.22C307.44,-572.51 295.85,-557.31 283.96,-541.73"/>
<polygon fill="black" stroke="black" points="286.58,-539.39 277.73,-533.56 281.01,-543.63 286.58,-539.39"/>
<text text-anchor="start" x="300.5" y="-555.8" font-family="Times,serif" font-size="14.00">%8</text>
</g>
<!-- node10 -->
<g id="node11" class="node">
<title>node10</title>
<polygon fill="none" stroke="black" points="77,-240.5 77,-308.5 348,-308.5 348,-240.5 77,-240.5"/>
<text text-anchor="start" x="85" y="-293.3" font-family="Times,serif" font-size="14.00">Let l7 =</text>
<text text-anchor="start" x="85" y="-278.3" font-family="Times,serif" font-size="14.00"> Get %9 (l6)</text>
<text text-anchor="start" x="85" y="-263.3" font-family="Times,serif" font-size="14.00"> types = (integer?, integer, integer)</text>
<text text-anchor="start" x="85" y="-248.3" font-family="Times,serif" font-size="14.00"> keys = ()</text>
</g>
<!-- node9&#45;&gt;node10 -->
<g id="edge9" class="edge">
<title>node9&#45;&gt;node10</title>
<path fill="none" stroke="black" d="M212.5,-360.25C212.5,-345.87 212.5,-331.5 212.5,-318.8"/>
<polygon fill="black" stroke="black" points="216,-318.55 212.5,-308.55 209,-318.55 216,-318.55"/>
<text text-anchor="start" x="212.5" y="-330.8" font-family="Times,serif" font-size="14.00">%9</text>
</g>
<!-- node11 -->
<g id="node12" class="node">
<title>node11</title>
<polygon fill="none" stroke="black" points="58.5,-0.5 58.5,-188.5 366.5,-188.5 366.5,-0.5 58.5,-0.5"/>
<text text-anchor="start" x="66.5" y="-173.3" font-family="Times,serif" font-size="14.00">Get %10 (l7)</text>
<text text-anchor="start" x="66.5" y="-158.3" font-family="Times,serif" font-size="14.00"> types = (integer?, integer, integer)</text>
<text text-anchor="start" x="66.5" y="-143.3" font-family="Times,serif" font-size="14.00"> keys = ()</text>
<text text-anchor="start" x="66.5" y="-128.3" font-family="Times,serif" font-size="14.00"> Map &quot;pr_10752&quot;</text>
<text text-anchor="start" x="66.5" y="-113.3" font-family="Times,serif" font-size="14.00"> types = (integer?, integer, integer, text)</text>
<text text-anchor="start" x="66.5" y="-98.3" font-family="Times,serif" font-size="14.00"> keys = ()</text>
<text text-anchor="start" x="66.5" y="-83.3" font-family="Times,serif" font-size="14.00"> Project (#0..#3)</text>
<text text-anchor="start" x="66.5" y="-68.3" font-family="Times,serif" font-size="14.00"> types = (integer?, integer, integer, text)</text>
<text text-anchor="start" x="66.5" y="-53.3" font-family="Times,serif" font-size="14.00"> keys = ()</text>
<text text-anchor="start" x="66.5" y="-38.3" font-family="Times,serif" font-size="14.00"> Project (#3, #0..#2)</text>
<text text-anchor="start" x="66.5" y="-23.3" font-family="Times,serif" font-size="14.00"> types = (text, integer?, integer, integer)</text>
<text text-anchor="start" x="66.5" y="-8.3" font-family="Times,serif" font-size="14.00"> keys = ()</text>
</g>
<!-- node10&#45;&gt;node11 -->
<g id="edge2" class="edge">
<title>node10&#45;&gt;node11</title>
<path fill="none" stroke="black" d="M212.5,-240.44C212.5,-228.35 212.5,-213.94 212.5,-198.97"/>
<polygon fill="black" stroke="black" points="216,-198.54 212.5,-188.54 209,-198.54 216,-198.54"/>
<text text-anchor="start" x="212.5" y="-210.8" font-family="Times,serif" font-size="14.00">%10</text>
</g>
</g>
</svg>
