<?xml version="1.0" encoding="UTF-8" standalone="no"?>
<!DOCTYPE svg PUBLIC "-//W3C//DTD SVG 1.1//EN"
 "http://www.w3.org/Graphics/SVG/1.1/DTD/svg11.dtd">
<!-- Generated by graphviz version 2.43.0 (0)
 -->
<!-- Title: G Pages: 1 -->
<svg width="695pt" height="362pt"
 viewBox="0.00 0.00 694.50 362.00" xmlns="http://www.w3.org/2000/svg" xmlns:xlink="http://www.w3.org/1999/xlink">
<g id="graph0" class="graph" transform="scale(1 1) rotate(0) translate(4 358)">
<title>G</title>
<polygon fill="white" stroke="transparent" points="-4,4 -4,-358 690.5,-358 690.5,4 -4,4"/>
<!-- node0 -->
<g id="node1" class="node">
<title>node0</title>
<polygon fill="none" stroke="black" points="0,-255.5 0,-353.5 216,-353.5 216,-255.5 0,-255.5"/>
<text text-anchor="start" x="8" y="-338.3" font-family="Times,serif" font-size="14.00">Get pr_10752.public.z (u74)</text>
<text text-anchor="start" x="8" y="-323.3" font-family="Times,serif" font-size="14.00"> types = (integer?)</text>
<text text-anchor="start" x="8" y="-308.3" font-family="Times,serif" font-size="14.00"> keys = ()</text>
<text text-anchor="start" x="8" y="-293.3" font-family="Times,serif" font-size="14.00"> ArrangeBy ()</text>
<text text-anchor="start" x="8" y="-278.3" font-family="Times,serif" font-size="14.00"> types = (integer?)</text>
<text text-anchor="start" x="8" y="-263.3" font-family="Times,serif" font-size="14.00"> keys = ()</text>
</g>
<!-- node3 -->
<g id="node4" class="node">
<title>node3</title>
<polygon fill="none" stroke="black" points="141,-0.5 141,-203.5 545,-203.5 545,-0.5 141,-0.5"/>
<text text-anchor="start" x="149" y="-188.3" font-family="Times,serif" font-size="14.00">Join %0 %1 %2 (= #1 #2)</text>
<text text-anchor="start" x="149" y="-173.3" font-family="Times,serif" font-size="14.00"> implementation = Differential %1.(#0) %2.(#0) %0.()</text>
<text text-anchor="start" x="149" y="-158.3" font-family="Times,serif" font-size="14.00"> types = (integer?, integer?, integer?)</text>
<text text-anchor="start" x="149" y="-143.3" font-family="Times,serif" font-size="14.00"> keys = ()</text>
<text text-anchor="start" x="149" y="-128.3" font-family="Times,serif" font-size="14.00"> Filter !(isnull(#1))</text>
<text text-anchor="start" x="149" y="-113.3" font-family="Times,serif" font-size="14.00"> types = (integer?, integer, integer?)</text>
<text text-anchor="start" x="149" y="-98.3" font-family="Times,serif" font-size="14.00"> keys = ()</text>
<text text-anchor="start" x="149" y="-83.3" font-family="Times,serif" font-size="14.00"> Map &quot;pr_10752&quot;</text>
<text text-anchor="start" x="149" y="-68.3" font-family="Times,serif" font-size="14.00"> types = (integer?, integer, integer?, text)</text>
<text text-anchor="start" x="149" y="-53.3" font-family="Times,serif" font-size="14.00"> keys = ()</text>
<text text-anchor="start" x="149" y="-38.3" font-family="Times,serif" font-size="14.00"> Project (#3, #0, #1, #1)</text>
<text text-anchor="start" x="149" y="-23.3" font-family="Times,serif" font-size="14.00"> types = (text, integer?, integer, integer)</text>
<text text-anchor="start" x="149" y="-8.3" font-family="Times,serif" font-size="14.00"> keys = ()</text>
</g>
<!-- node0&#45;&gt;node3 -->
<g id="edge3" class="edge">
<title>node0&#45;&gt;node3</title>
<path fill="none" stroke="black" d="M164.29,-255.48C180.33,-241.79 198.48,-226.3 216.91,-210.58"/>
<polygon fill="black" stroke="black" points="219.49,-212.98 224.83,-203.82 214.95,-207.65 219.49,-212.98"/>
<text text-anchor="start" x="198" y="-225.8" font-family="Times,serif" font-size="14.00">%0</text>
</g>
<!-- node1 -->
<g id="node2" class="node">
<title>node1</title>
<polygon fill="none" stroke="black" points="234.5,-255.5 234.5,-353.5 451.5,-353.5 451.5,-255.5 234.5,-255.5"/>
<text text-anchor="start" x="242.5" y="-338.3" font-family="Times,serif" font-size="14.00">Get pr_10752.public.x (u70)</text>
<text text-anchor="start" x="242.5" y="-323.3" font-family="Times,serif" font-size="14.00"> types = (integer?)</text>
<text text-anchor="start" x="242.5" y="-308.3" font-family="Times,serif" font-size="14.00"> keys = ()</text>
<text text-anchor="start" x="242.5" y="-293.3" font-family="Times,serif" font-size="14.00"> ArrangeBy (#0)</text>
<text text-anchor="start" x="242.5" y="-278.3" font-family="Times,serif" font-size="14.00"> types = (integer?)</text>
<text text-anchor="start" x="242.5" y="-263.3" font-family="Times,serif" font-size="14.00"> keys = ()</text>
</g>
<!-- node1&#45;&gt;node3 -->
<g id="edge2" class="edge">
<title>node1&#45;&gt;node3</title>
<path fill="none" stroke="black" d="M343,-255.48C343,-242.77 343,-228.51 343,-213.94"/>
<polygon fill="black" stroke="black" points="346.5,-213.82 343,-203.82 339.5,-213.82 346.5,-213.82"/>
<text text-anchor="start" x="343" y="-225.8" font-family="Times,serif" font-size="14.00">%1</text>
</g>
<!-- node2 -->
<g id="node3" class="node">
<title>node2</title>
<polygon fill="none" stroke="black" points="469.5,-255.5 469.5,-353.5 686.5,-353.5 686.5,-255.5 469.5,-255.5"/>
<text text-anchor="start" x="477.5" y="-338.3" font-family="Times,serif" font-size="14.00">Get pr_10752.public.y (u72)</text>
<text text-anchor="start" x="477.5" y="-323.3" font-family="Times,serif" font-size="14.00"> types = (integer?)</text>
<text text-anchor="start" x="477.5" y="-308.3" font-family="Times,serif" font-size="14.00"> keys = ()</text>
<text text-anchor="start" x="477.5" y="-293.3" font-family="Times,serif" font-size="14.00"> ArrangeBy (#0)</text>
<text text-anchor="start" x="477.5" y="-278.3" font-family="Times,serif" font-size="14.00"> types = (integer?)</text>
<text text-anchor="start" x="477.5" y="-263.3" font-family="Times,serif" font-size="14.00"> keys = ()</text>
</g>
<!-- node2&#45;&gt;node3 -->
<g id="edge1" class="edge">
<title>node2&#45;&gt;node3</title>
<path fill="none" stroke="black" d="M521.71,-255.48C505.67,-241.79 487.52,-226.3 469.09,-210.58"/>
<polygon fill="black" stroke="black" points="471.05,-207.65 461.17,-203.82 466.51,-212.98 471.05,-207.65"/>
<text text-anchor="start" x="495" y="-225.8" font-family="Times,serif" font-size="14.00">%2</text>
</g>
</g>
</svg>
