<?xml version="1.0" encoding="UTF-8" standalone="no"?>
<!DOCTYPE svg PUBLIC "-//W3C//DTD SVG 1.1//EN"
 "http://www.w3.org/Graphics/SVG/1.1/DTD/svg11.dtd">
<!-- Generated by graphviz version 2.43.0 (0)
 -->
<!-- Title: G Pages: 1 -->
<svg width="684pt" height="345pt"
 viewBox="0.00 0.00 684.00 345.00" xmlns="http://www.w3.org/2000/svg" xmlns:xlink="http://www.w3.org/1999/xlink">
<g id="graph0" class="graph" transform="scale(1 1) rotate(0) translate(4 341)">
<title>G</title>
<polygon fill="white" stroke="transparent" points="-4,4 -4,-341 680,-341 680,4 -4,4"/>
<!-- node0 -->
<g id="node1" class="node">
<title>node0</title>
<polygon fill="none" stroke="black" points="290,-300.5 290,-336.5 386,-336.5 386,-300.5 290,-300.5"/>
<text text-anchor="start" x="298" y="-314.8" font-family="Times,serif" font-size="14.00">Constant ()</text>
</g>
<!-- node2 -->
<g id="node3" class="node">
<title>node2</title>
<polygon fill="none" stroke="black" points="55,-210.5 55,-248.5 329,-248.5 329,-210.5 55,-210.5"/>
<text text-anchor="start" x="63" y="-233.3" font-family="Times,serif" font-size="14.00">Join %0 %1</text>
<text text-anchor="start" x="63" y="-218.3" font-family="Times,serif" font-size="14.00">&#45; implementation = Unimplemented</text>
</g>
<!-- node0&#45;&gt;node2 -->
<g id="edge8" class="edge">
<title>node0&#45;&gt;node2</title>
<path fill="none" stroke="black" d="M309.16,-300.31C286.8,-286.99 255.6,-268.4 231.02,-253.75"/>
<polygon fill="black" stroke="black" points="232.67,-250.66 222.29,-248.55 229.09,-256.68 232.67,-250.66"/>
<text text-anchor="start" x="278" y="-270.8" font-family="Times,serif" font-size="14.00">%0</text>
</g>
<!-- node5 -->
<g id="node6" class="node">
<title>node5</title>
<polygon fill="none" stroke="black" points="347,-210.5 347,-248.5 621,-248.5 621,-210.5 347,-210.5"/>
<text text-anchor="start" x="355" y="-233.3" font-family="Times,serif" font-size="14.00">Join %0 %4</text>
<text text-anchor="start" x="355" y="-218.3" font-family="Times,serif" font-size="14.00">&#45; implementation = Unimplemented</text>
</g>
<!-- node0&#45;&gt;node5 -->
<g id="edge3" class="edge">
<title>node0&#45;&gt;node5</title>
<path fill="none" stroke="black" d="M366.84,-300.31C389.2,-286.99 420.4,-268.4 444.98,-253.75"/>
<polygon fill="black" stroke="black" points="446.91,-256.68 453.71,-248.55 443.33,-250.66 446.91,-256.68"/>
<text text-anchor="start" x="419" y="-270.8" font-family="Times,serif" font-size="14.00">%0</text>
</g>
<!-- node1 -->
<g id="node2" class="node">
<title>node1</title>
<polygon fill="none" stroke="black" points="0,-300.5 0,-336.5 272,-336.5 272,-300.5 0,-300.5"/>
<text text-anchor="start" x="8" y="-314.8" font-family="Times,serif" font-size="14.00">Get negate_threshold.public.r (u51)</text>
</g>
<!-- node1&#45;&gt;node2 -->
<g id="edge5" class="edge">
<title>node1&#45;&gt;node2</title>
<path fill="none" stroke="black" d="M147.06,-300.31C154.96,-288.04 165.74,-271.3 174.76,-257.29"/>
<polygon fill="black" stroke="black" points="177.91,-258.85 180.38,-248.55 172.03,-255.07 177.91,-258.85"/>
<text text-anchor="start" x="167" y="-270.8" font-family="Times,serif" font-size="14.00">%1</text>
</g>
<!-- node3 -->
<g id="node4" class="node">
<title>node3</title>
<polygon fill="none" stroke="black" points="215,-90.5 215,-158.5 361,-158.5 361,-90.5 215,-90.5"/>
<text text-anchor="start" x="223" y="-143.3" font-family="Times,serif" font-size="14.00">Map #0</text>
<text text-anchor="start" x="223" y="-128.3" font-family="Times,serif" font-size="14.00">Map #1</text>
<text text-anchor="start" x="223" y="-113.3" font-family="Times,serif" font-size="14.00">Project (#0..=#3)</text>
<text text-anchor="start" x="223" y="-98.3" font-family="Times,serif" font-size="14.00">Project (#2, #3)</text>
</g>
<!-- node2&#45;&gt;node3 -->
<g id="edge1" class="edge">
<title>node2&#45;&gt;node3</title>
<path fill="none" stroke="black" d="M209.16,-210.09C220.56,-197.85 235.99,-181.3 250.18,-166.08"/>
<polygon fill="black" stroke="black" points="252.76,-168.45 257.02,-158.74 247.64,-163.67 252.76,-168.45"/>
<text text-anchor="start" x="240" y="-180.8" font-family="Times,serif" font-size="14.00">%2</text>
</g>
<!-- node7 -->
<g id="node8" class="node">
<title>node7</title>
<polygon fill="none" stroke="black" points="273.5,-0.5 273.5,-38.5 466.5,-38.5 466.5,-0.5 273.5,-0.5"/>
<text text-anchor="start" x="281.5" y="-23.3" font-family="Times,serif" font-size="14.00">Union %3 %6</text>
<text text-anchor="start" x="281.5" y="-8.3" font-family="Times,serif" font-size="14.00">Distinct group=(#0, #1)</text>
</g>
<!-- node3&#45;&gt;node7 -->
<g id="edge4" class="edge">
<title>node3&#45;&gt;node7</title>
<path fill="none" stroke="black" d="M314.4,-90.34C325.72,-76.12 338.75,-59.76 349.35,-46.44"/>
<polygon fill="black" stroke="black" points="352.11,-48.6 355.6,-38.59 346.63,-44.24 352.11,-48.6"/>
<text text-anchor="start" x="338" y="-60.8" font-family="Times,serif" font-size="14.00">%3</text>
</g>
<!-- node4 -->
<g id="node5" class="node">
<title>node4</title>
<polygon fill="none" stroke="black" points="404,-300.5 404,-336.5 676,-336.5 676,-300.5 404,-300.5"/>
<text text-anchor="start" x="412" y="-314.8" font-family="Times,serif" font-size="14.00">Get negate_threshold.public.s (u52)</text>
</g>
<!-- node4&#45;&gt;node5 -->
<g id="edge6" class="edge">
<title>node4&#45;&gt;node5</title>
<path fill="none" stroke="black" d="M528.94,-300.31C521.04,-288.04 510.26,-271.3 501.24,-257.29"/>
<polygon fill="black" stroke="black" points="503.97,-255.07 495.62,-248.55 498.09,-258.85 503.97,-255.07"/>
<text text-anchor="start" x="517" y="-270.8" font-family="Times,serif" font-size="14.00">%4</text>
</g>
<!-- node6 -->
<g id="node7" class="node">
<title>node6</title>
<polygon fill="none" stroke="black" points="395,-90.5 395,-158.5 541,-158.5 541,-90.5 395,-90.5"/>
<text text-anchor="start" x="403" y="-143.3" font-family="Times,serif" font-size="14.00">Map #0</text>
<text text-anchor="start" x="403" y="-128.3" font-family="Times,serif" font-size="14.00">Map #1</text>
<text text-anchor="start" x="403" y="-113.3" font-family="Times,serif" font-size="14.00">Project (#0..=#3)</text>
<text text-anchor="start" x="403" y="-98.3" font-family="Times,serif" font-size="14.00">Project (#2, #3)</text>
</g>
<!-- node5&#45;&gt;node6 -->
<g id="edge2" class="edge">
<title>node5&#45;&gt;node6</title>
<path fill="none" stroke="black" d="M481.14,-210.09C479.36,-198.63 476.99,-183.39 474.76,-169"/>
<polygon fill="black" stroke="black" points="478.16,-168.09 473.16,-158.74 471.24,-169.16 478.16,-168.09"/>
<text text-anchor="start" x="477" y="-180.8" font-family="Times,serif" font-size="14.00">%5</text>
</g>
<!-- node6&#45;&gt;node7 -->
<g id="edge7" class="edge">
<title>node6&#45;&gt;node7</title>
<path fill="none" stroke="black" d="M436.45,-90.34C422.79,-75.99 407.06,-59.45 394.32,-46.07"/>
<polygon fill="black" stroke="black" points="396.64,-43.42 387.21,-38.59 391.57,-48.25 396.64,-43.42"/>
<text text-anchor="start" x="419" y="-60.8" font-family="Times,serif" font-size="14.00">%6</text>
</g>
</g>
</svg>
