<?xml version="1.0" encoding="UTF-8" standalone="no"?>
<!DOCTYPE svg PUBLIC "-//W3C//DTD SVG 1.1//EN"
 "http://www.w3.org/Graphics/SVG/1.1/DTD/svg11.dtd">
<!-- Generated by graphviz version 2.43.0 (0)
 -->
<!-- Title: G Pages: 1 -->
<svg width="570pt" height="135pt"
 viewBox="0.00 0.00 570.00 135.00" xmlns="http://www.w3.org/2000/svg" xmlns:xlink="http://www.w3.org/1999/xlink">
<g id="graph0" class="graph" transform="scale(1 1) rotate(0) translate(4 131)">
<title>G</title>
<polygon fill="white" stroke="transparent" points="-4,4 -4,-131 566,-131 566,4 -4,4"/>
<!-- node0 -->
<g id="node1" class="node">
<title>node0</title>
<polygon fill="none" stroke="black" points="0,-90.5 0,-126.5 272,-126.5 272,-90.5 0,-90.5"/>
<text text-anchor="start" x="8" y="-104.8" font-family="Times,serif" font-size="14.00">Get negate_threshold.public.r (u51)</text>
</g>
<!-- node2 -->
<g id="node3" class="node">
<title>node2</title>
<polygon fill="none" stroke="black" points="184.5,-0.5 184.5,-38.5 377.5,-38.5 377.5,-0.5 184.5,-0.5"/>
<text text-anchor="start" x="192.5" y="-23.3" font-family="Times,serif" font-size="14.00">Union %0 %1</text>
<text text-anchor="start" x="192.5" y="-8.3" font-family="Times,serif" font-size="14.00">Distinct group=(#0, #1)</text>
</g>
<!-- node0&#45;&gt;node2 -->
<g id="edge2" class="edge">
<title>node0&#45;&gt;node2</title>
<path fill="none" stroke="black" d="M164.65,-90.31C186.85,-76.99 217.83,-58.4 242.25,-43.75"/>
<polygon fill="black" stroke="black" points="244.14,-46.7 250.91,-38.55 240.54,-40.69 244.14,-46.7"/>
<text text-anchor="start" x="218" y="-60.8" font-family="Times,serif" font-size="14.00">%0</text>
</g>
<!-- node1 -->
<g id="node2" class="node">
<title>node1</title>
<polygon fill="none" stroke="black" points="290,-90.5 290,-126.5 562,-126.5 562,-90.5 290,-90.5"/>
<text text-anchor="start" x="298" y="-104.8" font-family="Times,serif" font-size="14.00">Get negate_threshold.public.s (u52)</text>
</g>
<!-- node1&#45;&gt;node2 -->
<g id="edge1" class="edge">
<title>node1&#45;&gt;node2</title>
<path fill="none" stroke="black" d="M397.35,-90.31C375.15,-76.99 344.17,-58.4 319.75,-43.75"/>
<polygon fill="black" stroke="black" points="321.46,-40.69 311.09,-38.55 317.86,-46.7 321.46,-40.69"/>
<text text-anchor="start" x="367" y="-60.8" font-family="Times,serif" font-size="14.00">%1</text>
</g>
</g>
</svg>
