<?xml version="1.0" encoding="UTF-8" standalone="no"?>
<!DOCTYPE svg PUBLIC "-//W3C//DTD SVG 1.1//EN"
 "http://www.w3.org/Graphics/SVG/1.1/DTD/svg11.dtd">
<!-- Generated by graphviz version 2.43.0 (0)
 -->
<!-- Title: G Pages: 1 -->
<svg width="708pt" height="602pt"
 viewBox="0.00 0.00 708.00 602.00" xmlns="http://www.w3.org/2000/svg" xmlns:xlink="http://www.w3.org/1999/xlink">
<g id="graph0" class="graph" transform="scale(1 1) rotate(0) translate(4 598)">
<title>G</title>
<polygon fill="white" stroke="transparent" points="-4,4 -4,-598 704,-598 704,4 -4,4"/>
<!-- node0 -->
<g id="node1" class="node">
<title>node0</title>
<polygon fill="none" stroke="black" points="299.5,-540.5 299.5,-593.5 399.5,-593.5 399.5,-540.5 299.5,-540.5"/>
<text text-anchor="start" x="307.5" y="-578.3" font-family="Times,serif" font-size="14.00">Constant ()</text>
<text text-anchor="start" x="307.5" y="-563.3" font-family="Times,serif" font-size="14.00">&#45; types = ()</text>
<text text-anchor="start" x="307.5" y="-548.3" font-family="Times,serif" font-size="14.00">&#45; keys = (())</text>
</g>
<!-- node2 -->
<g id="node3" class="node">
<title>node2</title>
<polygon fill="none" stroke="black" points="33.5,-420.5 33.5,-488.5 307.5,-488.5 307.5,-420.5 33.5,-420.5"/>
<text text-anchor="start" x="41.5" y="-473.3" font-family="Times,serif" font-size="14.00">Join %0 %1</text>
<text text-anchor="start" x="41.5" y="-458.3" font-family="Times,serif" font-size="14.00">&#45; implementation = Unimplemented</text>
<text text-anchor="start" x="41.5" y="-443.3" font-family="Times,serif" font-size="14.00">&#45; types = (bigint?, integer?)</text>
<text text-anchor="start" x="41.5" y="-428.3" font-family="Times,serif" font-size="14.00">&#45; keys = ()</text>
</g>
<!-- node0&#45;&gt;node2 -->
<g id="edge8" class="edge">
<title>node0&#45;&gt;node2</title>
<path fill="none" stroke="black" d="M307.98,-540.37C285.63,-526.57 257.6,-509.27 232.69,-493.89"/>
<polygon fill="black" stroke="black" points="234.37,-490.82 224.02,-488.54 230.69,-496.77 234.37,-490.82"/>
<text text-anchor="start" x="275.5" y="-510.8" font-family="Times,serif" font-size="14.00">%0</text>
</g>
<!-- node5 -->
<g id="node6" class="node">
<title>node5</title>
<polygon fill="none" stroke="black" points="392.5,-420.5 392.5,-488.5 666.5,-488.5 666.5,-420.5 392.5,-420.5"/>
<text text-anchor="start" x="400.5" y="-473.3" font-family="Times,serif" font-size="14.00">Join %0 %4</text>
<text text-anchor="start" x="400.5" y="-458.3" font-family="Times,serif" font-size="14.00">&#45; implementation = Unimplemented</text>
<text text-anchor="start" x="400.5" y="-443.3" font-family="Times,serif" font-size="14.00">&#45; types = (bigint?, integer?)</text>
<text text-anchor="start" x="400.5" y="-428.3" font-family="Times,serif" font-size="14.00">&#45; keys = ()</text>
</g>
<!-- node0&#45;&gt;node5 -->
<g id="edge3" class="edge">
<title>node0&#45;&gt;node5</title>
<path fill="none" stroke="black" d="M391.25,-540.37C413.73,-526.57 441.92,-509.27 466.96,-493.89"/>
<polygon fill="black" stroke="black" points="468.99,-496.76 475.68,-488.54 465.32,-490.79 468.99,-496.76"/>
<text text-anchor="start" x="444.5" y="-510.8" font-family="Times,serif" font-size="14.00">%0</text>
</g>
<!-- node1 -->
<g id="node2" class="node">
<title>node1</title>
<polygon fill="none" stroke="black" points="9.5,-540.5 9.5,-593.5 281.5,-593.5 281.5,-540.5 9.5,-540.5"/>
<text text-anchor="start" x="17.5" y="-578.3" font-family="Times,serif" font-size="14.00">Get negate_threshold.public.r (u51)</text>
<text text-anchor="start" x="17.5" y="-563.3" font-family="Times,serif" font-size="14.00">&#45; types = (bigint?, integer?)</text>
<text text-anchor="start" x="17.5" y="-548.3" font-family="Times,serif" font-size="14.00">&#45; keys = ()</text>
</g>
<!-- node1&#45;&gt;node2 -->
<g id="edge5" class="edge">
<title>node1&#45;&gt;node2</title>
<path fill="none" stroke="black" d="M151.3,-540.37C154.11,-527.96 157.56,-512.71 160.75,-498.58"/>
<polygon fill="black" stroke="black" points="164.23,-499.07 163.02,-488.54 157.4,-497.52 164.23,-499.07"/>
<text text-anchor="start" x="158.5" y="-510.8" font-family="Times,serif" font-size="14.00">%1</text>
</g>
<!-- node3 -->
<g id="node4" class="node">
<title>node3</title>
<polygon fill="none" stroke="black" points="0,-150.5 0,-368.5 341,-368.5 341,-150.5 0,-150.5"/>
<text text-anchor="start" x="8" y="-353.3" font-family="Times,serif" font-size="14.00">&#45; types = (bigint?, integer?)</text>
<text text-anchor="start" x="8" y="-338.3" font-family="Times,serif" font-size="14.00">&#45; keys = ()</text>
<text text-anchor="start" x="8" y="-323.3" font-family="Times,serif" font-size="14.00">Map #0</text>
<text text-anchor="start" x="8" y="-308.3" font-family="Times,serif" font-size="14.00">&#45; types = (bigint?, integer?, bigint?)</text>
<text text-anchor="start" x="8" y="-293.3" font-family="Times,serif" font-size="14.00">&#45; keys = ()</text>
<text text-anchor="start" x="8" y="-278.3" font-family="Times,serif" font-size="14.00">Map #1</text>
<text text-anchor="start" x="8" y="-263.3" font-family="Times,serif" font-size="14.00">&#45; types = (bigint?, integer?, bigint?, integer?)</text>
<text text-anchor="start" x="8" y="-248.3" font-family="Times,serif" font-size="14.00">&#45; keys = ()</text>
<text text-anchor="start" x="8" y="-233.3" font-family="Times,serif" font-size="14.00">Project (#0..=#3)</text>
<text text-anchor="start" x="8" y="-218.3" font-family="Times,serif" font-size="14.00">&#45; types = (bigint?, integer?, bigint?, integer?)</text>
<text text-anchor="start" x="8" y="-203.3" font-family="Times,serif" font-size="14.00">&#45; keys = ()</text>
<text text-anchor="start" x="8" y="-188.3" font-family="Times,serif" font-size="14.00">Project (#2, #3)</text>
<text text-anchor="start" x="8" y="-173.3" font-family="Times,serif" font-size="14.00">&#45; types = (bigint?, integer?)</text>
<text text-anchor="start" x="8" y="-158.3" font-family="Times,serif" font-size="14.00">&#45; keys = ()</text>
</g>
<!-- node2&#45;&gt;node3 -->
<g id="edge1" class="edge">
<title>node2&#45;&gt;node3</title>
<path fill="none" stroke="black" d="M170.5,-420.32C170.5,-408.3 170.5,-393.93 170.5,-378.8"/>
<polygon fill="black" stroke="black" points="174,-378.77 170.5,-368.77 167,-378.77 174,-378.77"/>
<text text-anchor="start" x="170.5" y="-390.8" font-family="Times,serif" font-size="14.00">%2</text>
</g>
<!-- node7 -->
<g id="node8" class="node">
<title>node7</title>
<polygon fill="none" stroke="black" points="242.5,-0.5 242.5,-98.5 456.5,-98.5 456.5,-0.5 242.5,-0.5"/>
<text text-anchor="start" x="250.5" y="-83.3" font-family="Times,serif" font-size="14.00">Union %3 %6</text>
<text text-anchor="start" x="250.5" y="-68.3" font-family="Times,serif" font-size="14.00">&#45; types = (bigint?, integer?)</text>
<text text-anchor="start" x="250.5" y="-53.3" font-family="Times,serif" font-size="14.00">&#45; keys = ()</text>
<text text-anchor="start" x="250.5" y="-38.3" font-family="Times,serif" font-size="14.00">Distinct group=(#0, #1)</text>
<text text-anchor="start" x="250.5" y="-23.3" font-family="Times,serif" font-size="14.00">&#45; types = (bigint?, integer?)</text>
<text text-anchor="start" x="250.5" y="-8.3" font-family="Times,serif" font-size="14.00">&#45; keys = ((#0, #1))</text>
</g>
<!-- node3&#45;&gt;node7 -->
<g id="edge4" class="edge">
<title>node3&#45;&gt;node7</title>
<path fill="none" stroke="black" d="M263.67,-150.24C276.67,-135.13 289.56,-120.15 301.25,-106.57"/>
<polygon fill="black" stroke="black" points="304.11,-108.61 307.98,-98.74 298.81,-104.04 304.11,-108.61"/>
<text text-anchor="start" x="291.5" y="-120.8" font-family="Times,serif" font-size="14.00">%3</text>
</g>
<!-- node4 -->
<g id="node5" class="node">
<title>node4</title>
<polygon fill="none" stroke="black" points="417.5,-540.5 417.5,-593.5 689.5,-593.5 689.5,-540.5 417.5,-540.5"/>
<text text-anchor="start" x="425.5" y="-578.3" font-family="Times,serif" font-size="14.00">Get negate_threshold.public.s (u52)</text>
<text text-anchor="start" x="425.5" y="-563.3" font-family="Times,serif" font-size="14.00">&#45; types = (bigint?, integer?)</text>
<text text-anchor="start" x="425.5" y="-548.3" font-family="Times,serif" font-size="14.00">&#45; keys = ()</text>
</g>
<!-- node4&#45;&gt;node5 -->
<g id="edge6" class="edge">
<title>node4&#45;&gt;node5</title>
<path fill="none" stroke="black" d="M547.93,-540.37C545.24,-527.96 541.93,-512.71 538.86,-498.58"/>
<polygon fill="black" stroke="black" points="542.22,-497.57 536.68,-488.54 535.38,-499.06 542.22,-497.57"/>
<text text-anchor="start" x="543.5" y="-510.8" font-family="Times,serif" font-size="14.00">%4</text>
</g>
<!-- node6 -->
<g id="node7" class="node">
<title>node6</title>
<polygon fill="none" stroke="black" points="359,-150.5 359,-368.5 700,-368.5 700,-150.5 359,-150.5"/>
<text text-anchor="start" x="367" y="-353.3" font-family="Times,serif" font-size="14.00">&#45; types = (bigint?, integer?)</text>
<text text-anchor="start" x="367" y="-338.3" font-family="Times,serif" font-size="14.00">&#45; keys = ()</text>
<text text-anchor="start" x="367" y="-323.3" font-family="Times,serif" font-size="14.00">Map #0</text>
<text text-anchor="start" x="367" y="-308.3" font-family="Times,serif" font-size="14.00">&#45; types = (bigint?, integer?, bigint?)</text>
<text text-anchor="start" x="367" y="-293.3" font-family="Times,serif" font-size="14.00">&#45; keys = ()</text>
<text text-anchor="start" x="367" y="-278.3" font-family="Times,serif" font-size="14.00">Map #1</text>
<text text-anchor="start" x="367" y="-263.3" font-family="Times,serif" font-size="14.00">&#45; types = (bigint?, integer?, bigint?, integer?)</text>
<text text-anchor="start" x="367" y="-248.3" font-family="Times,serif" font-size="14.00">&#45; keys = ()</text>
<text text-anchor="start" x="367" y="-233.3" font-family="Times,serif" font-size="14.00">Project (#0..=#3)</text>
<text text-anchor="start" x="367" y="-218.3" font-family="Times,serif" font-size="14.00">&#45; types = (bigint?, integer?, bigint?, integer?)</text>
<text text-anchor="start" x="367" y="-203.3" font-family="Times,serif" font-size="14.00">&#45; keys = ()</text>
<text text-anchor="start" x="367" y="-188.3" font-family="Times,serif" font-size="14.00">Project (#2, #3)</text>
<text text-anchor="start" x="367" y="-173.3" font-family="Times,serif" font-size="14.00">&#45; types = (bigint?, integer?)</text>
<text text-anchor="start" x="367" y="-158.3" font-family="Times,serif" font-size="14.00">&#45; keys = ()</text>
</g>
<!-- node5&#45;&gt;node6 -->
<g id="edge2" class="edge">
<title>node5&#45;&gt;node6</title>
<path fill="none" stroke="black" d="M529.5,-420.32C529.5,-408.3 529.5,-393.93 529.5,-378.8"/>
<polygon fill="black" stroke="black" points="533,-378.77 529.5,-368.77 526,-378.77 533,-378.77"/>
<text text-anchor="start" x="529.5" y="-390.8" font-family="Times,serif" font-size="14.00">%5</text>
</g>
<!-- node6&#45;&gt;node7 -->
<g id="edge7" class="edge">
<title>node6&#45;&gt;node7</title>
<path fill="none" stroke="black" d="M435.81,-150.24C422.74,-135.13 409.78,-120.15 398.02,-106.57"/>
<polygon fill="black" stroke="black" points="400.44,-104.01 391.25,-98.74 395.15,-108.6 400.44,-104.01"/>
<text text-anchor="start" x="417.5" y="-120.8" font-family="Times,serif" font-size="14.00">%6</text>
</g>
</g>
</svg>
