<?xml version="1.0" encoding="UTF-8" standalone="no"?>
<!DOCTYPE svg PUBLIC "-//W3C//DTD SVG 1.1//EN"
 "http://www.w3.org/Graphics/SVG/1.1/DTD/svg11.dtd">
<!-- Generated by graphviz version 2.43.0 (0)
 -->
<!-- Title: G Pages: 1 -->
<svg width="570pt" height="212pt"
 viewBox="0.00 0.00 570.00 212.00" xmlns="http://www.w3.org/2000/svg" xmlns:xlink="http://www.w3.org/1999/xlink">
<g id="graph0" class="graph" transform="scale(1 1) rotate(0) translate(4 208)">
<title>G</title>
<polygon fill="white" stroke="transparent" points="-4,4 -4,-208 566,-208 566,4 -4,4"/>
<!-- node0 -->
<g id="node1" class="node">
<title>node0</title>
<polygon fill="none" stroke="black" points="0,-150.5 0,-203.5 272,-203.5 272,-150.5 0,-150.5"/>
<text text-anchor="start" x="8" y="-188.3" font-family="Times,serif" font-size="14.00">Get negate_threshold.public.r (u51)</text>
<text text-anchor="start" x="8" y="-173.3" font-family="Times,serif" font-size="14.00">&#45; types = (bigint?, integer?)</text>
<text text-anchor="start" x="8" y="-158.3" font-family="Times,serif" font-size="14.00">&#45; keys = ()</text>
</g>
<!-- node2 -->
<g id="node3" class="node">
<title>node2</title>
<polygon fill="none" stroke="black" points="174,-0.5 174,-98.5 388,-98.5 388,-0.5 174,-0.5"/>
<text text-anchor="start" x="182" y="-83.3" font-family="Times,serif" font-size="14.00">Union %0 %1</text>
<text text-anchor="start" x="182" y="-68.3" font-family="Times,serif" font-size="14.00">&#45; types = (bigint?, integer?)</text>
<text text-anchor="start" x="182" y="-53.3" font-family="Times,serif" font-size="14.00">&#45; keys = ()</text>
<text text-anchor="start" x="182" y="-38.3" font-family="Times,serif" font-size="14.00">Distinct group=(#0, #1)</text>
<text text-anchor="start" x="182" y="-23.3" font-family="Times,serif" font-size="14.00">&#45; types = (bigint?, integer?)</text>
<text text-anchor="start" x="182" y="-8.3" font-family="Times,serif" font-size="14.00">&#45; keys = ((#0, #1))</text>
</g>
<!-- node0&#45;&gt;node2 -->
<g id="edge2" class="edge">
<title>node0&#45;&gt;node2</title>
<path fill="none" stroke="black" d="M165.69,-150.3C180.7,-137.31 199.52,-121.02 217.58,-105.39"/>
<polygon fill="black" stroke="black" points="219.98,-107.94 225.25,-98.75 215.4,-102.65 219.98,-107.94"/>
<text text-anchor="start" x="205" y="-120.8" font-family="Times,serif" font-size="14.00">%0</text>
</g>
<!-- node1 -->
<g id="node2" class="node">
<title>node1</title>
<polygon fill="none" stroke="black" points="290,-150.5 290,-203.5 562,-203.5 562,-150.5 290,-150.5"/>
<text text-anchor="start" x="298" y="-188.3" font-family="Times,serif" font-size="14.00">Get negate_threshold.public.s (u52)</text>
<text text-anchor="start" x="298" y="-173.3" font-family="Times,serif" font-size="14.00">&#45; types = (bigint?, integer?)</text>
<text text-anchor="start" x="298" y="-158.3" font-family="Times,serif" font-size="14.00">&#45; keys = ()</text>
</g>
<!-- node1&#45;&gt;node2 -->
<g id="edge1" class="edge">
<title>node1&#45;&gt;node2</title>
<path fill="none" stroke="black" d="M396.31,-150.3C381.3,-137.31 362.48,-121.02 344.42,-105.39"/>
<polygon fill="black" stroke="black" points="346.6,-102.65 336.75,-98.75 342.02,-107.94 346.6,-102.65"/>
<text text-anchor="start" x="375" y="-120.8" font-family="Times,serif" font-size="14.00">%1</text>
</g>
</g>
</svg>
