<?xml version="1.0" encoding="UTF-8" standalone="no"?>
<!DOCTYPE svg PUBLIC "-//W3C//DTD SVG 1.1//EN"
 "http://www.w3.org/Graphics/SVG/1.1/DTD/svg11.dtd">
<!-- Generated by graphviz version 2.43.0 (0)
 -->
<!-- Title: G Pages: 1 -->
<svg width="533pt" height="255pt"
 viewBox="0.00 0.00 533.00 255.00" xmlns="http://www.w3.org/2000/svg" xmlns:xlink="http://www.w3.org/1999/xlink">
<g id="graph0" class="graph" transform="scale(1 1) rotate(0) translate(4 251)">
<title>G</title>
<polygon fill="white" stroke="transparent" points="-4,4 -4,-251 529,-251 529,4 -4,4"/>
<!-- node0 -->
<g id="node1" class="node">
<title>node0</title>
<polygon fill="none" stroke="black" points="120.5,-210.5 120.5,-246.5 216.5,-246.5 216.5,-210.5 120.5,-210.5"/>
<text text-anchor="start" x="128.5" y="-224.8" font-family="Times,serif" font-size="14.00">Constant ()</text>
</g>
<!-- node2 -->
<g id="node3" class="node">
<title>node2</title>
<polygon fill="none" stroke="black" points="125.5,-120.5 125.5,-158.5 399.5,-158.5 399.5,-120.5 125.5,-120.5"/>
<text text-anchor="start" x="133.5" y="-143.3" font-family="Times,serif" font-size="14.00">Join %0 %1</text>
<text text-anchor="start" x="133.5" y="-128.3" font-family="Times,serif" font-size="14.00">&#45; implementation = Unimplemented</text>
</g>
<!-- node0&#45;&gt;node2 -->
<g id="edge2" class="edge">
<title>node0&#45;&gt;node2</title>
<path fill="none" stroke="black" d="M187.07,-210.31C200.83,-197.58 219.8,-180.02 235.27,-165.7"/>
<polygon fill="black" stroke="black" points="238.03,-167.91 243,-158.55 233.28,-162.78 238.03,-167.91"/>
<text text-anchor="start" x="221.5" y="-180.8" font-family="Times,serif" font-size="14.00">%0</text>
</g>
<!-- node1 -->
<g id="node2" class="node">
<title>node1</title>
<polygon fill="none" stroke="black" points="235,-210.5 235,-246.5 480,-246.5 480,-210.5 235,-210.5"/>
<text text-anchor="start" x="243" y="-224.8" font-family="Times,serif" font-size="14.00">Get issue_10871.public.t3 (u26)</text>
</g>
<!-- node1&#45;&gt;node2 -->
<g id="edge1" class="edge">
<title>node1&#45;&gt;node2</title>
<path fill="none" stroke="black" d="M338.73,-210.31C324.7,-197.46 305.3,-179.7 289.59,-165.31"/>
<polygon fill="black" stroke="black" points="291.95,-162.72 282.21,-158.55 287.22,-167.89 291.95,-162.72"/>
<text text-anchor="start" x="318.5" y="-180.8" font-family="Times,serif" font-size="14.00">%1</text>
</g>
<!-- node3 -->
<g id="node4" class="node">
<title>node3</title>
<polygon fill="none" stroke="black" points="0,-0.5 0,-68.5 525,-68.5 525,-0.5 0,-0.5"/>
<text text-anchor="start" x="8" y="-53.3" font-family="Times,serif" font-size="14.00">Map (varchartostr(strtovarchar(varchartostr(#0))) = varchartostr(#0))</text>
<text text-anchor="start" x="8" y="-38.3" font-family="Times,serif" font-size="14.00">Map (varchartostr(strtovarchar(#1)) = #1)</text>
<text text-anchor="start" x="8" y="-23.3" font-family="Times,serif" font-size="14.00">Project (#0..=#3)</text>
<text text-anchor="start" x="8" y="-8.3" font-family="Times,serif" font-size="14.00">Project (#2, #3)</text>
</g>
<!-- node2&#45;&gt;node3 -->
<g id="edge3" class="edge">
<title>node2&#45;&gt;node3</title>
<path fill="none" stroke="black" d="M262.5,-120.09C262.5,-108.63 262.5,-93.39 262.5,-79"/>
<polygon fill="black" stroke="black" points="266,-78.74 262.5,-68.74 259,-78.74 266,-78.74"/>
<text text-anchor="start" x="262.5" y="-90.8" font-family="Times,serif" font-size="14.00">%2</text>
</g>
</g>
</svg>
