<?xml version="1.0" encoding="UTF-8" standalone="no"?>
<!DOCTYPE svg PUBLIC "-//W3C//DTD SVG 1.1//EN"
 "http://www.w3.org/Graphics/SVG/1.1/DTD/svg11.dtd">
<!-- Generated by graphviz version 2.43.0 (0)
 -->
<!-- Title: G Pages: 1 -->
<svg width="533pt" height="452pt"
 viewBox="0.00 0.00 533.00 452.00" xmlns="http://www.w3.org/2000/svg" xmlns:xlink="http://www.w3.org/1999/xlink">
<g id="graph0" class="graph" transform="scale(1 1) rotate(0) translate(4 448)">
<title>G</title>
<polygon fill="white" stroke="transparent" points="-4,4 -4,-448 529,-448 529,4 -4,4"/>
<!-- node0 -->
<g id="node1" class="node">
<title>node0</title>
<polygon fill="none" stroke="black" points="109.5,-390.5 109.5,-443.5 209.5,-443.5 209.5,-390.5 109.5,-390.5"/>
<text text-anchor="start" x="117.5" y="-428.3" font-family="Times,serif" font-size="14.00">Constant ()</text>
<text text-anchor="start" x="117.5" y="-413.3" font-family="Times,serif" font-size="14.00">&#45; types = ()</text>
<text text-anchor="start" x="117.5" y="-398.3" font-family="Times,serif" font-size="14.00">&#45; keys = (())</text>
</g>
<!-- node2 -->
<g id="node3" class="node">
<title>node2</title>
<polygon fill="none" stroke="black" points="125,-270.5 125,-338.5 400,-338.5 400,-270.5 125,-270.5"/>
<text text-anchor="start" x="133" y="-323.3" font-family="Times,serif" font-size="14.00">Join %0 %1</text>
<text text-anchor="start" x="133" y="-308.3" font-family="Times,serif" font-size="14.00">&#45; implementation = Unimplemented</text>
<text text-anchor="start" x="133" y="-293.3" font-family="Times,serif" font-size="14.00">&#45; types = (character varying?, text?)</text>
<text text-anchor="start" x="133" y="-278.3" font-family="Times,serif" font-size="14.00">&#45; keys = ()</text>
</g>
<!-- node0&#45;&gt;node2 -->
<g id="edge2" class="edge">
<title>node0&#45;&gt;node2</title>
<path fill="none" stroke="black" d="M183.39,-390.37C195.64,-377.23 210.84,-360.92 224.64,-346.12"/>
<polygon fill="black" stroke="black" points="227.44,-348.24 231.7,-338.54 222.32,-343.47 227.44,-348.24"/>
<text text-anchor="start" x="214.5" y="-360.8" font-family="Times,serif" font-size="14.00">%0</text>
</g>
<!-- node1 -->
<g id="node2" class="node">
<title>node1</title>
<polygon fill="none" stroke="black" points="228,-390.5 228,-443.5 503,-443.5 503,-390.5 228,-390.5"/>
<text text-anchor="start" x="236" y="-428.3" font-family="Times,serif" font-size="14.00">Get issue_10871.public.t3 (u26)</text>
<text text-anchor="start" x="236" y="-413.3" font-family="Times,serif" font-size="14.00">&#45; types = (character varying?, text?)</text>
<text text-anchor="start" x="236" y="-398.3" font-family="Times,serif" font-size="14.00">&#45; keys = ()</text>
</g>
<!-- node1&#45;&gt;node2 -->
<g id="edge1" class="edge">
<title>node1&#45;&gt;node2</title>
<path fill="none" stroke="black" d="M341.61,-390.37C329.36,-377.23 314.16,-360.92 300.36,-346.12"/>
<polygon fill="black" stroke="black" points="302.68,-343.47 293.3,-338.54 297.56,-348.24 302.68,-343.47"/>
<text text-anchor="start" x="322.5" y="-360.8" font-family="Times,serif" font-size="14.00">%1</text>
</g>
<!-- node3 -->
<g id="node4" class="node">
<title>node3</title>
<polygon fill="none" stroke="black" points="0,-0.5 0,-218.5 525,-218.5 525,-0.5 0,-0.5"/>
<text text-anchor="start" x="8" y="-203.3" font-family="Times,serif" font-size="14.00">&#45; types = (character varying?, text?)</text>
<text text-anchor="start" x="8" y="-188.3" font-family="Times,serif" font-size="14.00">&#45; keys = ()</text>
<text text-anchor="start" x="8" y="-173.3" font-family="Times,serif" font-size="14.00">Map (varchartostr(strtovarchar(varchartostr(#0))) = varchartostr(#0))</text>
<text text-anchor="start" x="8" y="-158.3" font-family="Times,serif" font-size="14.00">&#45; types = (character varying?, text?, boolean?)</text>
<text text-anchor="start" x="8" y="-143.3" font-family="Times,serif" font-size="14.00">&#45; keys = ()</text>
<text text-anchor="start" x="8" y="-128.3" font-family="Times,serif" font-size="14.00">Map (varchartostr(strtovarchar(#1)) = #1)</text>
<text text-anchor="start" x="8" y="-113.3" font-family="Times,serif" font-size="14.00">&#45; types = (character varying?, text?, boolean?, boolean?)</text>
<text text-anchor="start" x="8" y="-98.3" font-family="Times,serif" font-size="14.00">&#45; keys = ()</text>
<text text-anchor="start" x="8" y="-83.3" font-family="Times,serif" font-size="14.00">Project (#0..=#3)</text>
<text text-anchor="start" x="8" y="-68.3" font-family="Times,serif" font-size="14.00">&#45; types = (character varying?, text?, boolean?, boolean?)</text>
<text text-anchor="start" x="8" y="-53.3" font-family="Times,serif" font-size="14.00">&#45; keys = ()</text>
<text text-anchor="start" x="8" y="-38.3" font-family="Times,serif" font-size="14.00">Project (#2, #3)</text>
<text text-anchor="start" x="8" y="-23.3" font-family="Times,serif" font-size="14.00">&#45; types = (boolean?, boolean?)</text>
<text text-anchor="start" x="8" y="-8.3" font-family="Times,serif" font-size="14.00">&#45; keys = ()</text>
</g>
<!-- node2&#45;&gt;node3 -->
<g id="edge3" class="edge">
<title>node2&#45;&gt;node3</title>
<path fill="none" stroke="black" d="M262.5,-270.32C262.5,-258.3 262.5,-243.93 262.5,-228.8"/>
<polygon fill="black" stroke="black" points="266,-228.77 262.5,-218.77 259,-228.77 266,-228.77"/>
<text text-anchor="start" x="262.5" y="-240.8" font-family="Times,serif" font-size="14.00">%2</text>
</g>
</g>
</svg>
