<?xml version="1.0" encoding="UTF-8" standalone="no"?>
<!DOCTYPE svg PUBLIC "-//W3C//DTD SVG 1.1//EN"
 "http://www.w3.org/Graphics/SVG/1.1/DTD/svg11.dtd">
<!-- Generated by graphviz version 2.43.0 (0)
 -->
<!-- Title: G Pages: 1 -->
<svg width="368pt" height="240pt"
 viewBox="0.00 0.00 367.50 240.00" xmlns="http://www.w3.org/2000/svg" xmlns:xlink="http://www.w3.org/1999/xlink">
<g id="graph0" class="graph" transform="scale(1 1) rotate(0) translate(4 236)">
<title>G</title>
<polygon fill="white" stroke="transparent" points="-4,4 -4,-236 363.5,-236 363.5,4 -4,4"/>
<!-- node0 -->
<g id="node1" class="node">
<title>node0</title>
<polygon fill="none" stroke="black" points="0,-195.5 0,-231.5 96,-231.5 96,-195.5 0,-195.5"/>
<text text-anchor="start" x="8" y="-209.8" font-family="Times,serif" font-size="14.00">Constant ()</text>
</g>
<!-- node2 -->
<g id="node3" class="node">
<title>node2</title>
<polygon fill="none" stroke="black" points="5,-105.5 5,-143.5 279,-143.5 279,-105.5 5,-105.5"/>
<text text-anchor="start" x="13" y="-128.3" font-family="Times,serif" font-size="14.00">Join %0 %1</text>
<text text-anchor="start" x="13" y="-113.3" font-family="Times,serif" font-size="14.00">&#45; implementation = Unimplemented</text>
</g>
<!-- node0&#45;&gt;node2 -->
<g id="edge2" class="edge">
<title>node0&#45;&gt;node2</title>
<path fill="none" stroke="black" d="M66.57,-195.31C80.33,-182.58 99.3,-165.02 114.77,-150.7"/>
<polygon fill="black" stroke="black" points="117.53,-152.91 122.5,-143.55 112.78,-147.78 117.53,-152.91"/>
<text text-anchor="start" x="101" y="-165.8" font-family="Times,serif" font-size="14.00">%0</text>
</g>
<!-- node1 -->
<g id="node2" class="node">
<title>node1</title>
<polygon fill="none" stroke="black" points="114.5,-195.5 114.5,-231.5 359.5,-231.5 359.5,-195.5 114.5,-195.5"/>
<text text-anchor="start" x="122.5" y="-209.8" font-family="Times,serif" font-size="14.00">Get issue_10871.public.t3 (u26)</text>
</g>
<!-- node1&#45;&gt;node2 -->
<g id="edge3" class="edge">
<title>node1&#45;&gt;node2</title>
<path fill="none" stroke="black" d="M218.23,-195.31C204.2,-182.46 184.8,-164.7 169.09,-150.31"/>
<polygon fill="black" stroke="black" points="171.45,-147.72 161.71,-143.55 166.72,-152.89 171.45,-147.72"/>
<text text-anchor="start" x="198" y="-165.8" font-family="Times,serif" font-size="14.00">%1</text>
</g>
<!-- node3 -->
<g id="node4" class="node">
<title>node3</title>
<polygon fill="none" stroke="black" points="29,-0.5 29,-53.5 255,-53.5 255,-0.5 29,-0.5"/>
<text text-anchor="start" x="37" y="-38.3" font-family="Times,serif" font-size="14.00">Map (varchartostr(#0) = #1)</text>
<text text-anchor="start" x="37" y="-23.3" font-family="Times,serif" font-size="14.00">Project (#0..=#2)</text>
<text text-anchor="start" x="37" y="-8.3" font-family="Times,serif" font-size="14.00">Project (#2)</text>
</g>
<!-- node2&#45;&gt;node3 -->
<g id="edge1" class="edge">
<title>node2&#45;&gt;node3</title>
<path fill="none" stroke="black" d="M142,-105.09C142,-93.42 142,-77.95 142,-63.93"/>
<polygon fill="black" stroke="black" points="145.5,-63.58 142,-53.58 138.5,-63.58 145.5,-63.58"/>
<text text-anchor="start" x="142" y="-75.8" font-family="Times,serif" font-size="14.00">%2</text>
</g>
</g>
</svg>
