<?xml version="1.0" encoding="UTF-8" standalone="no"?>
<!DOCTYPE svg PUBLIC "-//W3C//DTD SVG 1.1//EN"
 "http://www.w3.org/Graphics/SVG/1.1/DTD/svg11.dtd">
<!-- Generated by graphviz version 2.43.0 (0)
 -->
<!-- Title: G Pages: 1 -->
<svg width="346pt" height="242pt"
 viewBox="0.00 0.00 346.00 242.00" xmlns="http://www.w3.org/2000/svg" xmlns:xlink="http://www.w3.org/1999/xlink">
<g id="graph0" class="graph" transform="scale(1 1) rotate(0) translate(4 238)">
<title>G</title>
<polygon fill="white" stroke="transparent" points="-4,4 -4,-238 342,-238 342,4 -4,4"/>
<!-- node0 -->
<g id="node1" class="node">
<title>node0</title>
<polygon fill="none" stroke="black" points="0,-165.5 0,-233.5 101,-233.5 101,-165.5 0,-165.5"/>
<text text-anchor="start" x="8" y="-218.3" font-family="Times,serif" font-size="14.00">Let l0 =</text>
<text text-anchor="start" x="8" y="-203.3" font-family="Times,serif" font-size="14.00"> Constant ()</text>
<text text-anchor="start" x="8" y="-188.3" font-family="Times,serif" font-size="14.00"> types = ()</text>
<text text-anchor="start" x="8" y="-173.3" font-family="Times,serif" font-size="14.00"> keys = (())</text>
</g>
<!-- node2 -->
<g id="node3" class="node">
<title>node2</title>
<polygon fill="none" stroke="black" points="5,-0.5 5,-113.5 274,-113.5 274,-0.5 5,-0.5"/>
<text text-anchor="start" x="13" y="-98.3" font-family="Times,serif" font-size="14.00">Join %0 %1</text>
<text text-anchor="start" x="13" y="-83.3" font-family="Times,serif" font-size="14.00"> implementation = Unimplemented</text>
<text text-anchor="start" x="13" y="-68.3" font-family="Times,serif" font-size="14.00"> types = (integer?, integer?)</text>
<text text-anchor="start" x="13" y="-53.3" font-family="Times,serif" font-size="14.00"> keys = ()</text>
<text text-anchor="start" x="13" y="-38.3" font-family="Times,serif" font-size="14.00"> Filter (coalesce(#0, #1) &gt; 0)</text>
<text text-anchor="start" x="13" y="-23.3" font-family="Times,serif" font-size="14.00"> types = (integer?, integer?)</text>
<text text-anchor="start" x="13" y="-8.3" font-family="Times,serif" font-size="14.00"> keys = ()</text>
</g>
<!-- node0&#45;&gt;node2 -->
<g id="edge2" class="edge">
<title>node0&#45;&gt;node2</title>
<path fill="none" stroke="black" d="M71.59,-165.2C79.76,-152.31 89.39,-137.11 98.8,-122.26"/>
<polygon fill="black" stroke="black" points="101.9,-123.9 104.29,-113.58 95.99,-120.15 101.9,-123.9"/>
<text text-anchor="start" x="92.5" y="-135.8" font-family="Times,serif" font-size="14.00">%0</text>
</g>
<!-- node1 -->
<g id="node2" class="node">
<title>node1</title>
<polygon fill="none" stroke="black" points="119,-173 119,-226 338,-226 338,-173 119,-173"/>
<text text-anchor="start" x="127" y="-210.8" font-family="Times,serif" font-size="14.00">Get types.public.t (u31)</text>
<text text-anchor="start" x="127" y="-195.8" font-family="Times,serif" font-size="14.00"> types = (integer?, integer?)</text>
<text text-anchor="start" x="127" y="-180.8" font-family="Times,serif" font-size="14.00"> keys = ()</text>
</g>
<!-- node1&#45;&gt;node2 -->
<g id="edge1" class="edge">
<title>node1&#45;&gt;node2</title>
<path fill="none" stroke="black" d="M212.18,-172.73C203.16,-158.5 191.53,-140.14 180.22,-122.29"/>
<polygon fill="black" stroke="black" points="183.02,-120.16 174.71,-113.59 177.11,-123.91 183.02,-120.16"/>
<text text-anchor="start" x="194.5" y="-135.8" font-family="Times,serif" font-size="14.00">%1</text>
</g>
</g>
</svg>
