<?xml version="1.0" encoding="UTF-8" standalone="no"?>
<!DOCTYPE svg PUBLIC "-//W3C//DTD SVG 1.1//EN"
 "http://www.w3.org/Graphics/SVG/1.1/DTD/svg11.dtd">
<!-- Generated by graphviz version 2.43.0 (0)
 -->
<!-- Title: G Pages: 1 -->
<svg width="772pt" height="1171pt"
 viewBox="0.00 0.00 771.50 1171.00" xmlns="http://www.w3.org/2000/svg" xmlns:xlink="http://www.w3.org/1999/xlink">
<g id="graph0" class="graph" transform="scale(1 1) rotate(0) translate(4 1167)">
<title>G</title>
<polygon fill="white" stroke="transparent" points="-4,4 -4,-1167 767.5,-1167 767.5,4 -4,4"/>
<!-- node0 -->
<g id="node1" class="node">
<title>node0</title>
<polygon fill="none" stroke="black" points="593.5,-412 593.5,-448 689.5,-448 689.5,-412 593.5,-412"/>
<text text-anchor="start" x="601.5" y="-426.3" font-family="Times,serif" font-size="14.00">Constant ()</text>
</g>
<!-- node2 -->
<g id="node3" class="node">
<title>node2</title>
<polygon fill="none" stroke="black" points="489.5,-313.5 489.5,-351.5 763.5,-351.5 763.5,-313.5 489.5,-313.5"/>
<text text-anchor="start" x="497.5" y="-336.3" font-family="Times,serif" font-size="14.00">Join %0 %1</text>
<text text-anchor="start" x="497.5" y="-321.3" font-family="Times,serif" font-size="14.00">&#45; implementation = Unimplemented</text>
</g>
<!-- node0&#45;&gt;node2 -->
<g id="edge3" class="edge">
<title>node0&#45;&gt;node2</title>
<path fill="none" stroke="black" d="M638.82,-411.93C636.63,-398.02 633.5,-378.09 630.95,-361.8"/>
<polygon fill="black" stroke="black" points="634.37,-361.06 629.36,-351.73 627.46,-362.15 634.37,-361.06"/>
<text text-anchor="start" x="633.5" y="-373.8" font-family="Times,serif" font-size="14.00">%0</text>
</g>
<!-- node1 -->
<g id="node2" class="node">
<title>node1</title>
<polygon fill="none" stroke="black" points="479.5,-412 479.5,-448 575.5,-448 575.5,-412 479.5,-412"/>
<text text-anchor="start" x="487.5" y="-426.3" font-family="Times,serif" font-size="14.00">Constant ()</text>
</g>
<!-- node1&#45;&gt;node2 -->
<g id="edge17" class="edge">
<title>node1&#45;&gt;node2</title>
<path fill="none" stroke="black" d="M545.2,-411.93C560.44,-397.22 582.66,-375.79 600.01,-359.05"/>
<polygon fill="black" stroke="black" points="602.84,-361.19 607.61,-351.73 597.98,-356.15 602.84,-361.19"/>
<text text-anchor="start" x="585.5" y="-373.8" font-family="Times,serif" font-size="14.00">%1</text>
</g>
<!-- node3 -->
<g id="node4" class="node">
<title>node3</title>
<polygon fill="none" stroke="black" points="490.5,-225.5 490.5,-261.5 632.5,-261.5 632.5,-225.5 490.5,-225.5"/>
<text text-anchor="start" x="498.5" y="-239.8" font-family="Times,serif" font-size="14.00">Distinct group=()</text>
</g>
<!-- node2&#45;&gt;node3 -->
<g id="edge15" class="edge">
<title>node2&#45;&gt;node3</title>
<path fill="none" stroke="black" d="M613.03,-313.47C603.61,-300.86 590.89,-283.84 580.45,-269.86"/>
<polygon fill="black" stroke="black" points="583.08,-267.53 574.29,-261.62 577.47,-271.72 583.08,-267.53"/>
<text text-anchor="start" x="597.5" y="-283.8" font-family="Times,serif" font-size="14.00">%2</text>
</g>
<!-- node18 -->
<g id="node19" class="node">
<title>node18</title>
<polygon fill="none" stroke="black" points="440.5,-0.5 440.5,-68.5 714.5,-68.5 714.5,-0.5 440.5,-0.5"/>
<text text-anchor="start" x="448.5" y="-53.3" font-family="Times,serif" font-size="14.00">Join %2 %17</text>
<text text-anchor="start" x="448.5" y="-38.3" font-family="Times,serif" font-size="14.00">&#45; implementation = Unimplemented</text>
<text text-anchor="start" x="448.5" y="-23.3" font-family="Times,serif" font-size="14.00">Map (null = #0)</text>
<text text-anchor="start" x="448.5" y="-8.3" font-family="Times,serif" font-size="14.00">Project (#1)</text>
</g>
<!-- node2&#45;&gt;node18 -->
<g id="edge10" class="edge">
<title>node2&#45;&gt;node18</title>
<path fill="none" stroke="black" d="M632.37,-313.36C643.48,-276.04 664.48,-188.39 641.5,-120 636.31,-104.54 627.04,-89.67 617.15,-76.82"/>
<polygon fill="black" stroke="black" points="619.59,-74.27 610.59,-68.68 614.14,-78.66 619.59,-74.27"/>
<text text-anchor="start" x="651.5" y="-195.8" font-family="Times,serif" font-size="14.00">%2</text>
</g>
<!-- node17 -->
<g id="node18" class="node">
<title>node17</title>
<polygon fill="none" stroke="black" points="358.5,-120.5 358.5,-173.5 632.5,-173.5 632.5,-120.5 358.5,-120.5"/>
<text text-anchor="start" x="366.5" y="-158.3" font-family="Times,serif" font-size="14.00">Join %3 %16</text>
<text text-anchor="start" x="366.5" y="-143.3" font-family="Times,serif" font-size="14.00">&#45; implementation = Unimplemented</text>
<text text-anchor="start" x="366.5" y="-128.3" font-family="Times,serif" font-size="14.00">Project (#0)</text>
</g>
<!-- node3&#45;&gt;node17 -->
<g id="edge18" class="edge">
<title>node3&#45;&gt;node17</title>
<path fill="none" stroke="black" d="M549.39,-225.17C541,-213.14 529.53,-196.72 519.33,-182.12"/>
<polygon fill="black" stroke="black" points="522.1,-179.97 513.5,-173.78 516.36,-183.98 522.1,-179.97"/>
<text text-anchor="start" x="535.5" y="-195.8" font-family="Times,serif" font-size="14.00">%3</text>
</g>
<!-- node4 -->
<g id="node5" class="node">
<title>node4</title>
<polygon fill="none" stroke="black" points="212.5,-1126.5 212.5,-1162.5 308.5,-1162.5 308.5,-1126.5 212.5,-1126.5"/>
<text text-anchor="start" x="220.5" y="-1140.8" font-family="Times,serif" font-size="14.00">Constant ()</text>
</g>
<!-- node6 -->
<g id="node7" class="node">
<title>node6</title>
<polygon fill="none" stroke="black" points="311.5,-1036.5 311.5,-1074.5 585.5,-1074.5 585.5,-1036.5 311.5,-1036.5"/>
<text text-anchor="start" x="319.5" y="-1059.3" font-family="Times,serif" font-size="14.00">Join %4 %5</text>
<text text-anchor="start" x="319.5" y="-1044.3" font-family="Times,serif" font-size="14.00">&#45; implementation = Unimplemented</text>
</g>
<!-- node4&#45;&gt;node6 -->
<g id="edge8" class="edge">
<title>node4&#45;&gt;node6</title>
<path fill="none" stroke="black" d="M297.64,-1126.31C327.06,-1112.7 368.37,-1093.58 400.32,-1078.79"/>
<polygon fill="black" stroke="black" points="401.89,-1081.93 409.49,-1074.55 398.95,-1075.57 401.89,-1081.93"/>
<text text-anchor="start" x="366.5" y="-1096.8" font-family="Times,serif" font-size="14.00">%4</text>
</g>
<!-- node11 -->
<g id="node12" class="node">
<title>node11</title>
<polygon fill="none" stroke="black" points="189.5,-981.5 189.5,-1017.5 331.5,-1017.5 331.5,-981.5 189.5,-981.5"/>
<text text-anchor="start" x="197.5" y="-995.8" font-family="Times,serif" font-size="14.00">Distinct group=()</text>
</g>
<!-- node4&#45;&gt;node11 -->
<g id="edge19" class="edge">
<title>node4&#45;&gt;node11</title>
<path fill="none" stroke="black" d="M260.5,-1126.25C260.5,-1101.88 260.5,-1057.11 260.5,-1028.09"/>
<polygon fill="black" stroke="black" points="264,-1027.81 260.5,-1017.81 257,-1027.81 264,-1027.81"/>
<text text-anchor="start" x="260.5" y="-1096.8" font-family="Times,serif" font-size="14.00">%4</text>
</g>
<!-- node13 -->
<g id="node14" class="node">
<title>node13</title>
<polygon fill="none" stroke="black" points="141.5,-403.5 141.5,-456.5 415.5,-456.5 415.5,-403.5 141.5,-403.5"/>
<text text-anchor="start" x="149.5" y="-441.3" font-family="Times,serif" font-size="14.00">Join %12 %4</text>
<text text-anchor="start" x="149.5" y="-426.3" font-family="Times,serif" font-size="14.00">&#45; implementation = Unimplemented</text>
<text text-anchor="start" x="149.5" y="-411.3" font-family="Times,serif" font-size="14.00">Project ()</text>
</g>
<!-- node4&#45;&gt;node13 -->
<g id="edge23" class="edge">
<title>node4&#45;&gt;node13</title>
<path fill="none" stroke="black" d="M226.51,-1126.29C202.47,-1111.44 174.5,-1087.51 174.5,-1056.5 174.5,-1056.5 174.5,-1056.5 174.5,-525.5 174.5,-498.78 193.53,-477.63 215.31,-462.17"/>
<polygon fill="black" stroke="black" points="217.39,-464.99 223.76,-456.53 213.5,-459.17 217.39,-464.99"/>
<text text-anchor="start" x="174.5" y="-744.8" font-family="Times,serif" font-size="14.00">%4</text>
</g>
<!-- node5 -->
<g id="node6" class="node">
<title>node5</title>
<polygon fill="none" stroke="black" points="330.5,-1126.5 330.5,-1162.5 566.5,-1162.5 566.5,-1126.5 330.5,-1126.5"/>
<text text-anchor="start" x="338.5" y="-1140.8" font-family="Times,serif" font-size="14.00">Get issue_9284.public.t1 (u31)</text>
</g>
<!-- node5&#45;&gt;node6 -->
<g id="edge14" class="edge">
<title>node5&#45;&gt;node6</title>
<path fill="none" stroke="black" d="M448.5,-1126.31C448.5,-1114.51 448.5,-1098.57 448.5,-1084.9"/>
<polygon fill="black" stroke="black" points="452,-1084.55 448.5,-1074.55 445,-1084.55 452,-1084.55"/>
<text text-anchor="start" x="448.5" y="-1096.8" font-family="Times,serif" font-size="14.00">%5</text>
</g>
<!-- node7 -->
<g id="node8" class="node">
<title>node7</title>
<polygon fill="none" stroke="black" points="380.5,-909.5 380.5,-962.5 526.5,-962.5 526.5,-909.5 380.5,-909.5"/>
<text text-anchor="start" x="388.5" y="-947.3" font-family="Times,serif" font-size="14.00">Map true</text>
<text text-anchor="start" x="388.5" y="-932.3" font-family="Times,serif" font-size="14.00">Project (#0..=#2)</text>
<text text-anchor="start" x="388.5" y="-917.3" font-family="Times,serif" font-size="14.00">Project (#2)</text>
</g>
<!-- node6&#45;&gt;node7 -->
<g id="edge13" class="edge">
<title>node6&#45;&gt;node7</title>
<path fill="none" stroke="black" d="M449.27,-1036.4C449.99,-1019.55 451.08,-993.94 451.97,-972.94"/>
<polygon fill="black" stroke="black" points="455.48,-972.9 452.4,-962.76 448.48,-972.6 455.48,-972.9"/>
<text text-anchor="start" x="452.5" y="-995.8" font-family="Times,serif" font-size="14.00">%6</text>
</g>
<!-- node8 -->
<g id="node9" class="node">
<title>node8</title>
<polygon fill="none" stroke="black" points="249,-774.5 249,-857.5 658,-857.5 658,-774.5 249,-774.5"/>
<text text-anchor="start" x="257" y="-842.3" font-family="Times,serif" font-size="14.00">Reduce group=()</text>
<text text-anchor="start" x="257" y="-827.3" font-family="Times,serif" font-size="14.00">&#45; agg count(true)</text>
<text text-anchor="start" x="257" y="-812.3" font-family="Times,serif" font-size="14.00">Filter (#0 &gt; 1)</text>
<text text-anchor="start" x="257" y="-797.3" font-family="Times,serif" font-size="14.00">Project ()</text>
<text text-anchor="start" x="257" y="-782.3" font-family="Times,serif" font-size="14.00">Map (err: more than one record produced in subquery)</text>
</g>
<!-- node7&#45;&gt;node8 -->
<g id="edge2" class="edge">
<title>node7&#45;&gt;node8</title>
<path fill="none" stroke="black" d="M453.5,-909.4C453.5,-897.29 453.5,-882.38 453.5,-868.1"/>
<polygon fill="black" stroke="black" points="457,-867.86 453.5,-857.86 450,-867.86 457,-867.86"/>
<text text-anchor="start" x="453.5" y="-879.8" font-family="Times,serif" font-size="14.00">%7</text>
</g>
<!-- node9 -->
<g id="node10" class="node">
<title>node9</title>
<polygon fill="none" stroke="black" points="394,-686.5 394,-722.5 507,-722.5 507,-686.5 394,-686.5"/>
<text text-anchor="start" x="402" y="-700.8" font-family="Times,serif" font-size="14.00">Union %7 %8</text>
</g>
<!-- node7&#45;&gt;node9 -->
<g id="edge7" class="edge">
<title>node7&#45;&gt;node9</title>
<path fill="none" stroke="black" d="M526.7,-929.63C575.34,-921.81 635.88,-902.98 667.5,-858 688.97,-827.46 689.57,-804.11 667.5,-774 633.41,-727.5 567.67,-711.75 517.43,-706.81"/>
<polygon fill="black" stroke="black" points="517.55,-703.31 507.29,-705.94 516.95,-710.28 517.55,-703.31"/>
<text text-anchor="start" x="683.5" y="-812.3" font-family="Times,serif" font-size="14.00">%7</text>
</g>
<!-- node8&#45;&gt;node9 -->
<g id="edge6" class="edge">
<title>node8&#45;&gt;node9</title>
<path fill="none" stroke="black" d="M452.38,-774.23C452,-760.4 451.59,-745.3 451.25,-732.78"/>
<polygon fill="black" stroke="black" points="454.74,-732.45 450.97,-722.55 447.74,-732.64 454.74,-732.45"/>
<text text-anchor="start" x="452.5" y="-744.8" font-family="Times,serif" font-size="14.00">%8</text>
</g>
<!-- node10 -->
<g id="node11" class="node">
<title>node10</title>
<polygon fill="none" stroke="black" points="263.5,-596.5 263.5,-634.5 405.5,-634.5 405.5,-596.5 263.5,-596.5"/>
<text text-anchor="start" x="271.5" y="-619.3" font-family="Times,serif" font-size="14.00">Distinct group=()</text>
<text text-anchor="start" x="271.5" y="-604.3" font-family="Times,serif" font-size="14.00">Negate</text>
</g>
<!-- node9&#45;&gt;node10 -->
<g id="edge5" class="edge">
<title>node9&#45;&gt;node10</title>
<path fill="none" stroke="black" d="M427.58,-686.31C410.21,-673.28 386.12,-655.21 366.8,-640.72"/>
<polygon fill="black" stroke="black" points="368.67,-637.75 358.57,-634.55 364.47,-643.35 368.67,-637.75"/>
<text text-anchor="start" x="403.5" y="-656.8" font-family="Times,serif" font-size="14.00">%9</text>
</g>
<!-- node16 -->
<g id="node17" class="node">
<title>node16</title>
<polygon fill="none" stroke="black" points="350.5,-225.5 350.5,-261.5 472.5,-261.5 472.5,-225.5 350.5,-225.5"/>
<text text-anchor="start" x="358.5" y="-239.8" font-family="Times,serif" font-size="14.00">Union %9 %15</text>
</g>
<!-- node9&#45;&gt;node16 -->
<g id="edge21" class="edge">
<title>node9&#45;&gt;node16</title>
<path fill="none" stroke="black" d="M448.92,-686.18C447.45,-668.64 445.5,-640.71 445.5,-616.5 445.5,-616.5 445.5,-616.5 445.5,-331.5 445.5,-310.08 436.45,-287.61 427.69,-270.87"/>
<polygon fill="black" stroke="black" points="430.53,-268.78 422.63,-261.72 424.41,-272.17 430.53,-268.78"/>
<text text-anchor="start" x="445.5" y="-478.8" font-family="Times,serif" font-size="14.00">%9</text>
</g>
<!-- node12 -->
<g id="node13" class="node">
<title>node12</title>
<polygon fill="none" stroke="black" points="213,-508.5 213,-544.5 344,-544.5 344,-508.5 213,-508.5"/>
<text text-anchor="start" x="221" y="-522.8" font-family="Times,serif" font-size="14.00">Union %10 %11</text>
</g>
<!-- node10&#45;&gt;node12 -->
<g id="edge16" class="edge">
<title>node10&#45;&gt;node12</title>
<path fill="none" stroke="black" d="M322.9,-596.47C314.86,-583.98 304.03,-567.16 295.08,-553.26"/>
<polygon fill="black" stroke="black" points="297.87,-551.13 289.52,-544.62 291.99,-554.92 297.87,-551.13"/>
<text text-anchor="start" x="310.5" y="-566.8" font-family="Times,serif" font-size="14.00">%10</text>
</g>
<!-- node11&#45;&gt;node12 -->
<g id="edge12" class="edge">
<title>node11&#45;&gt;node12</title>
<path fill="none" stroke="black" d="M250.41,-981.39C238.56,-959.64 220.5,-920.58 220.5,-884.5 220.5,-884.5 220.5,-884.5 220.5,-614.5 220.5,-590.48 236,-568.04 250.98,-551.97"/>
<polygon fill="black" stroke="black" points="253.7,-554.2 258.21,-544.61 248.71,-549.29 253.7,-554.2"/>
<text text-anchor="start" x="220.5" y="-744.8" font-family="Times,serif" font-size="14.00">%11</text>
</g>
<!-- node12&#45;&gt;node13 -->
<g id="edge1" class="edge">
<title>node12&#45;&gt;node13</title>
<path fill="none" stroke="black" d="M278.5,-508.17C278.5,-496.7 278.5,-481.25 278.5,-467.18"/>
<polygon fill="black" stroke="black" points="282,-466.78 278.5,-456.78 275,-466.78 282,-466.78"/>
<text text-anchor="start" x="278.5" y="-478.8" font-family="Times,serif" font-size="14.00">%12</text>
</g>
<!-- node15 -->
<g id="node16" class="node">
<title>node15</title>
<polygon fill="none" stroke="black" points="141.5,-313.5 141.5,-351.5 415.5,-351.5 415.5,-313.5 141.5,-313.5"/>
<text text-anchor="start" x="149.5" y="-336.3" font-family="Times,serif" font-size="14.00">Join %13 %14</text>
<text text-anchor="start" x="149.5" y="-321.3" font-family="Times,serif" font-size="14.00">&#45; implementation = Unimplemented</text>
</g>
<!-- node13&#45;&gt;node15 -->
<g id="edge20" class="edge">
<title>node13&#45;&gt;node15</title>
<path fill="none" stroke="black" d="M278.5,-403.41C278.5,-390.63 278.5,-375.13 278.5,-361.98"/>
<polygon fill="black" stroke="black" points="282,-361.6 278.5,-351.6 275,-361.6 282,-361.6"/>
<text text-anchor="start" x="278.5" y="-373.8" font-family="Times,serif" font-size="14.00">%13</text>
</g>
<!-- node14 -->
<g id="node15" class="node">
<title>node14</title>
<polygon fill="none" stroke="black" points="0,-412 0,-448 123,-448 123,-412 0,-412"/>
<text text-anchor="start" x="8" y="-426.3" font-family="Times,serif" font-size="14.00">Constant (null)</text>
</g>
<!-- node14&#45;&gt;node15 -->
<g id="edge22" class="edge">
<title>node14&#45;&gt;node15</title>
<path fill="none" stroke="black" d="M100.3,-411.93C135.92,-396.25 188.93,-372.92 227.88,-355.78"/>
<polygon fill="black" stroke="black" points="229.72,-358.79 237.46,-351.56 226.9,-352.39 229.72,-358.79"/>
<text text-anchor="start" x="189.5" y="-373.8" font-family="Times,serif" font-size="14.00">%14</text>
</g>
<!-- node15&#45;&gt;node16 -->
<g id="edge4" class="edge">
<title>node15&#45;&gt;node16</title>
<path fill="none" stroke="black" d="M306.06,-313.47C326.61,-300.03 354.83,-281.57 376.9,-267.13"/>
<polygon fill="black" stroke="black" points="378.88,-270.02 385.34,-261.62 375.05,-264.16 378.88,-270.02"/>
<text text-anchor="start" x="357.5" y="-283.8" font-family="Times,serif" font-size="14.00">%15</text>
</g>
<!-- node16&#45;&gt;node17 -->
<g id="edge9" class="edge">
<title>node16&#45;&gt;node17</title>
<path fill="none" stroke="black" d="M426.91,-225.17C437.8,-212.92 452.74,-196.11 465.9,-181.3"/>
<polygon fill="black" stroke="black" points="468.56,-183.58 472.58,-173.78 463.33,-178.93 468.56,-183.58"/>
<text text-anchor="start" x="456.5" y="-195.8" font-family="Times,serif" font-size="14.00">%16</text>
</g>
<!-- node17&#45;&gt;node18 -->
<g id="edge11" class="edge">
<title>node17&#45;&gt;node18</title>
<path fill="none" stroke="black" d="M514.52,-120.37C524.09,-107.47 535.93,-91.52 546.75,-76.94"/>
<polygon fill="black" stroke="black" points="549.83,-78.66 552.98,-68.54 544.21,-74.49 549.83,-78.66"/>
<text text-anchor="start" x="538.5" y="-90.8" font-family="Times,serif" font-size="14.00">%17</text>
</g>
</g>
</svg>
