<?xml version="1.0" encoding="UTF-8" standalone="no"?>
<!DOCTYPE svg PUBLIC "-//W3C//DTD SVG 1.1//EN"
 "http://www.w3.org/Graphics/SVG/1.1/DTD/svg11.dtd">
<!-- Generated by graphviz version 2.43.0 (0)
 -->
<!-- Title: G Pages: 1 -->
<svg width="323pt" height="435pt"
 viewBox="0.00 0.00 323.00 435.00" xmlns="http://www.w3.org/2000/svg" xmlns:xlink="http://www.w3.org/1999/xlink">
<g id="graph0" class="graph" transform="scale(1 1) rotate(0) translate(4 431)">
<title>G</title>
<polygon fill="white" stroke="transparent" points="-4,4 -4,-431 319,-431 319,4 -4,4"/>
<!-- node0 -->
<g id="node1" class="node">
<title>node0</title>
<polygon fill="none" stroke="black" points="32,-388.5 32,-426.5 268,-426.5 268,-388.5 32,-388.5"/>
<text text-anchor="start" x="40" y="-411.3" font-family="Times,serif" font-size="14.00">Get issue_9284.public.t1 (u31)</text>
<text text-anchor="start" x="40" y="-396.3" font-family="Times,serif" font-size="14.00">Project ()</text>
</g>
<!-- node1 -->
<g id="node2" class="node">
<title>node1</title>
<polygon fill="none" stroke="black" points="3,-268.5 3,-336.5 141,-336.5 141,-268.5 3,-268.5"/>
<text text-anchor="start" x="11" y="-321.3" font-family="Times,serif" font-size="14.00">Reduce group=()</text>
<text text-anchor="start" x="11" y="-306.3" font-family="Times,serif" font-size="14.00">&#45; agg count(true)</text>
<text text-anchor="start" x="11" y="-291.3" font-family="Times,serif" font-size="14.00">Filter (#0 &gt; 1)</text>
<text text-anchor="start" x="11" y="-276.3" font-family="Times,serif" font-size="14.00">Project ()</text>
</g>
<!-- node0&#45;&gt;node1 -->
<g id="edge2" class="edge">
<title>node0&#45;&gt;node1</title>
<path fill="none" stroke="black" d="M136.06,-388.09C126.96,-376.08 114.71,-359.9 103.36,-344.91"/>
<polygon fill="black" stroke="black" points="106,-342.6 97.17,-336.74 100.42,-346.83 106,-342.6"/>
<text text-anchor="start" x="121" y="-358.8" font-family="Times,serif" font-size="14.00">%0</text>
</g>
<!-- node2 -->
<g id="node3" class="node">
<title>node2</title>
<polygon fill="none" stroke="black" points="68.5,-180.5 68.5,-216.5 181.5,-216.5 181.5,-180.5 68.5,-180.5"/>
<text text-anchor="start" x="76.5" y="-194.8" font-family="Times,serif" font-size="14.00">Union %0 %1</text>
</g>
<!-- node0&#45;&gt;node2 -->
<g id="edge6" class="edge">
<title>node0&#45;&gt;node2</title>
<path fill="none" stroke="black" d="M151.99,-388.4C154.47,-361.78 157.53,-310.62 150,-268 147.48,-253.74 142.22,-238.54 137.17,-226.09"/>
<polygon fill="black" stroke="black" points="140.34,-224.62 133.22,-216.77 133.9,-227.34 140.34,-224.62"/>
<text text-anchor="start" x="154" y="-298.8" font-family="Times,serif" font-size="14.00">%0</text>
</g>
<!-- node1&#45;&gt;node2 -->
<g id="edge5" class="edge">
<title>node1&#45;&gt;node2</title>
<path fill="none" stroke="black" d="M89.21,-268.38C96.41,-254.53 104.65,-238.66 111.42,-225.64"/>
<polygon fill="black" stroke="black" points="114.54,-227.23 116.04,-216.74 108.32,-224 114.54,-227.23"/>
<text text-anchor="start" x="107" y="-238.8" font-family="Times,serif" font-size="14.00">%1</text>
</g>
<!-- node3 -->
<g id="node4" class="node">
<title>node3</title>
<polygon fill="none" stroke="black" points="0,-90.5 0,-128.5 142,-128.5 142,-90.5 0,-90.5"/>
<text text-anchor="start" x="8" y="-113.3" font-family="Times,serif" font-size="14.00">Distinct group=()</text>
<text text-anchor="start" x="8" y="-98.3" font-family="Times,serif" font-size="14.00">Negate</text>
</g>
<!-- node2&#45;&gt;node3 -->
<g id="edge3" class="edge">
<title>node2&#45;&gt;node3</title>
<path fill="none" stroke="black" d="M114.33,-180.31C106.72,-168.04 96.33,-151.3 87.63,-137.29"/>
<polygon fill="black" stroke="black" points="90.45,-135.2 82.2,-128.55 84.5,-138.89 90.45,-135.2"/>
<text text-anchor="start" x="103" y="-150.8" font-family="Times,serif" font-size="14.00">%2</text>
</g>
<!-- node5 -->
<g id="node6" class="node">
<title>node5</title>
<polygon fill="none" stroke="black" points="108,-0.5 108,-38.5 248,-38.5 248,-0.5 108,-0.5"/>
<text text-anchor="start" x="116" y="-23.3" font-family="Times,serif" font-size="14.00">Union %2 %3 %4</text>
<text text-anchor="start" x="116" y="-8.3" font-family="Times,serif" font-size="14.00">Map null</text>
</g>
<!-- node2&#45;&gt;node5 -->
<g id="edge1" class="edge">
<title>node2&#45;&gt;node5</title>
<path fill="none" stroke="black" d="M132.2,-180.24C137.78,-166.51 145.45,-146.72 151,-129 159.42,-102.1 166.98,-70.8 171.94,-48.75"/>
<polygon fill="black" stroke="black" points="175.41,-49.25 174.16,-38.73 168.58,-47.73 175.41,-49.25"/>
<text text-anchor="start" x="161" y="-105.8" font-family="Times,serif" font-size="14.00">%2</text>
</g>
<!-- node3&#45;&gt;node5 -->
<g id="edge7" class="edge">
<title>node3&#45;&gt;node5</title>
<path fill="none" stroke="black" d="M92.91,-90.48C108.67,-77.52 130.14,-59.86 147.56,-45.53"/>
<polygon fill="black" stroke="black" points="150.25,-47.85 155.75,-38.8 145.8,-42.45 150.25,-47.85"/>
<text text-anchor="start" x="131" y="-60.8" font-family="Times,serif" font-size="14.00">%3</text>
</g>
<!-- node4 -->
<g id="node5" class="node">
<title>node4</title>
<polygon fill="none" stroke="black" points="219,-91.5 219,-127.5 315,-127.5 315,-91.5 219,-91.5"/>
<text text-anchor="start" x="227" y="-105.8" font-family="Times,serif" font-size="14.00">Constant ()</text>
</g>
<!-- node4&#45;&gt;node5 -->
<g id="edge4" class="edge">
<title>node4&#45;&gt;node5</title>
<path fill="none" stroke="black" d="M249.42,-91.11C236.39,-78.23 218.43,-60.48 203.78,-45.99"/>
<polygon fill="black" stroke="black" points="206.04,-43.3 196.47,-38.76 201.12,-48.28 206.04,-43.3"/>
<text text-anchor="start" x="227" y="-60.8" font-family="Times,serif" font-size="14.00">%4</text>
</g>
</g>
</svg>
