<?xml version="1.0" encoding="UTF-8" standalone="no"?>
<!DOCTYPE svg PUBLIC "-//W3C//DTD SVG 1.1//EN"
 "http://www.w3.org/Graphics/SVG/1.1/DTD/svg11.dtd">
<!-- Generated by graphviz version 2.43.0 (0)
 -->
<!-- Title: G Pages: 1 -->
<svg width="253pt" height="224pt"
 viewBox="0.00 0.00 253.00 224.00" xmlns="http://www.w3.org/2000/svg" xmlns:xlink="http://www.w3.org/1999/xlink">
<g id="graph0" class="graph" transform="scale(1 1) rotate(0) translate(4 220)">
<title>G</title>
<polygon fill="white" stroke="transparent" points="-4,4 -4,-220 249,-220 249,4 -4,4"/>
<!-- node0 -->
<g id="node1" class="node">
<title>node0</title>
<polygon fill="none" stroke="black" points="0,-0.5 0,-128.5 245,-128.5 245,-0.5 0,-0.5"/>
<text text-anchor="start" x="8" y="-113.3" font-family="Times,serif" font-size="14.00">Constant ()</text>
<text text-anchor="start" x="8" y="-98.3" font-family="Times,serif" font-size="14.00">Map (null = select(%1))</text>
<text text-anchor="start" x="8" y="-83.3" font-family="Times,serif" font-size="14.00">&#45;</text>
<text text-anchor="start" x="8" y="-68.3" font-family="Times,serif" font-size="14.00">&#45; %1 =</text>
<text text-anchor="start" x="8" y="-53.3" font-family="Times,serif" font-size="14.00">&#45; Get issue_9284.public.t1 (u31)</text>
<text text-anchor="start" x="8" y="-38.3" font-family="Times,serif" font-size="14.00">&#45; Map true</text>
<text text-anchor="start" x="8" y="-23.3" font-family="Times,serif" font-size="14.00">&#45; Project (#2)</text>
<text text-anchor="start" x="8" y="-8.3" font-family="Times,serif" font-size="14.00">&#45;</text>
</g>
<!-- node1 -->
<g id="node2" class="node">
<title>node1</title>
<ellipse fill="none" stroke="black" cx="122.5" cy="-198" rx="38.99" ry="18"/>
<text text-anchor="middle" x="122.5" y="-194.3" font-family="Times,serif" font-size="14.00">node1</text>
</g>
<!-- node1&#45;&gt;node0 -->
<g id="edge1" class="edge">
<title>node1&#45;&gt;node0</title>
<path fill="none" stroke="black" d="M122.5,-179.81C122.5,-168.96 122.5,-154.12 122.5,-138.73"/>
<polygon fill="black" stroke="black" points="126,-138.57 122.5,-128.57 119,-138.57 126,-138.57"/>
<text text-anchor="start" x="122.5" y="-150.8" font-family="Times,serif" font-size="14.00">%1</text>
</g>
</g>
</svg>
