<?xml version="1.0" encoding="UTF-8" standalone="no"?>
<!DOCTYPE svg PUBLIC "-//W3C//DTD SVG 1.1//EN"
 "http://www.w3.org/Graphics/SVG/1.1/DTD/svg11.dtd">
<!-- Generated by graphviz version 2.43.0 (0)
 -->
<!-- Title: G Pages: 1 -->
<svg width="286pt" height="374pt"
 viewBox="0.00 0.00 286.00 374.00" xmlns="http://www.w3.org/2000/svg" xmlns:xlink="http://www.w3.org/1999/xlink">
<g id="graph0" class="graph" transform="scale(1 1) rotate(0) translate(4 370)">
<title>G</title>
<polygon fill="white" stroke="transparent" points="-4,4 -4,-370 282,-370 282,4 -4,4"/>
<!-- node0 -->
<g id="node1" class="node">
<title>node0</title>
<polygon fill="none" stroke="black" points="0,-0.5 0,-278.5 278,-278.5 278,-0.5 0,-0.5"/>
<text text-anchor="start" x="8" y="-263.3" font-family="Times,serif" font-size="14.00">Constant ()</text>
<text text-anchor="start" x="8" y="-248.3" font-family="Times,serif" font-size="14.00">&#45; types = ()</text>
<text text-anchor="start" x="8" y="-233.3" font-family="Times,serif" font-size="14.00">&#45; keys = ()</text>
<text text-anchor="start" x="8" y="-218.3" font-family="Times,serif" font-size="14.00">Map (null = select(%1))</text>
<text text-anchor="start" x="8" y="-203.3" font-family="Times,serif" font-size="14.00">&#45; types = (boolean?)</text>
<text text-anchor="start" x="8" y="-188.3" font-family="Times,serif" font-size="14.00">&#45; keys = ()</text>
<text text-anchor="start" x="8" y="-173.3" font-family="Times,serif" font-size="14.00">&#45;</text>
<text text-anchor="start" x="8" y="-158.3" font-family="Times,serif" font-size="14.00">&#45; %1 =</text>
<text text-anchor="start" x="8" y="-143.3" font-family="Times,serif" font-size="14.00">&#45; Get issue_9284.public.t1 (u31)</text>
<text text-anchor="start" x="8" y="-128.3" font-family="Times,serif" font-size="14.00">&#45; types = (bigint?, integer?)</text>
<text text-anchor="start" x="8" y="-113.3" font-family="Times,serif" font-size="14.00">&#45; keys = ()</text>
<text text-anchor="start" x="8" y="-98.3" font-family="Times,serif" font-size="14.00">&#45; Map true</text>
<text text-anchor="start" x="8" y="-83.3" font-family="Times,serif" font-size="14.00">&#45; types = (bigint?, integer?, boolean)</text>
<text text-anchor="start" x="8" y="-68.3" font-family="Times,serif" font-size="14.00">&#45; keys = ()</text>
<text text-anchor="start" x="8" y="-53.3" font-family="Times,serif" font-size="14.00">&#45; Project (#2)</text>
<text text-anchor="start" x="8" y="-38.3" font-family="Times,serif" font-size="14.00">&#45; types = (boolean)</text>
<text text-anchor="start" x="8" y="-23.3" font-family="Times,serif" font-size="14.00">&#45; keys = ()</text>
<text text-anchor="start" x="8" y="-8.3" font-family="Times,serif" font-size="14.00">&#45;</text>
</g>
<!-- node1 -->
<g id="node2" class="node">
<title>node1</title>
<ellipse fill="none" stroke="black" cx="139" cy="-348" rx="38.99" ry="18"/>
<text text-anchor="middle" x="139" y="-344.3" font-family="Times,serif" font-size="14.00">node1</text>
</g>
<!-- node1&#45;&gt;node0 -->
<g id="edge1" class="edge">
<title>node1&#45;&gt;node0</title>
<path fill="none" stroke="black" d="M139,-329.75C139,-319.39 139,-305.12 139,-289.02"/>
<polygon fill="black" stroke="black" points="142.5,-288.77 139,-278.77 135.5,-288.77 142.5,-288.77"/>
<text text-anchor="start" x="139" y="-300.8" font-family="Times,serif" font-size="14.00">%1</text>
</g>
</g>
</svg>
