<?xml version="1.0" encoding="UTF-8" standalone="no"?>
<!DOCTYPE svg PUBLIC "-//W3C//DTD SVG 1.1//EN"
 "http://www.w3.org/Graphics/SVG/1.1/DTD/svg11.dtd">
<!-- Generated by graphviz version 2.43.0 (0)
 -->
<!-- Title: G Pages: 1 -->
<svg width="327pt" height="782pt"
 viewBox="0.00 0.00 327.00 782.00" xmlns="http://www.w3.org/2000/svg" xmlns:xlink="http://www.w3.org/1999/xlink">
<g id="graph0" class="graph" transform="scale(1 1) rotate(0) translate(4 778)">
<title>G</title>
<polygon fill="white" stroke="transparent" points="-4,4 -4,-778 323,-778 323,4 -4,4"/>
<!-- node0 -->
<g id="node1" class="node">
<title>node0</title>
<polygon fill="none" stroke="black" points="32,-675.5 32,-773.5 268,-773.5 268,-675.5 32,-675.5"/>
<text text-anchor="start" x="40" y="-758.3" font-family="Times,serif" font-size="14.00">Get issue_9284.public.t1 (u31)</text>
<text text-anchor="start" x="40" y="-743.3" font-family="Times,serif" font-size="14.00">&#45; types = (bigint?, integer?)</text>
<text text-anchor="start" x="40" y="-728.3" font-family="Times,serif" font-size="14.00">&#45; keys = ()</text>
<text text-anchor="start" x="40" y="-713.3" font-family="Times,serif" font-size="14.00">Project ()</text>
<text text-anchor="start" x="40" y="-698.3" font-family="Times,serif" font-size="14.00">&#45; types = ()</text>
<text text-anchor="start" x="40" y="-683.3" font-family="Times,serif" font-size="14.00">&#45; keys = ()</text>
</g>
<!-- node1 -->
<g id="node2" class="node">
<title>node1</title>
<polygon fill="none" stroke="black" points="3,-435.5 3,-623.5 141,-623.5 141,-435.5 3,-435.5"/>
<text text-anchor="start" x="11" y="-608.3" font-family="Times,serif" font-size="14.00">&#45; types = ()</text>
<text text-anchor="start" x="11" y="-593.3" font-family="Times,serif" font-size="14.00">&#45; keys = ()</text>
<text text-anchor="start" x="11" y="-578.3" font-family="Times,serif" font-size="14.00">Reduce group=()</text>
<text text-anchor="start" x="11" y="-563.3" font-family="Times,serif" font-size="14.00">&#45; agg count(true)</text>
<text text-anchor="start" x="11" y="-548.3" font-family="Times,serif" font-size="14.00">&#45; types = (bigint)</text>
<text text-anchor="start" x="11" y="-533.3" font-family="Times,serif" font-size="14.00">&#45; keys = (())</text>
<text text-anchor="start" x="11" y="-518.3" font-family="Times,serif" font-size="14.00">Filter (#0 &gt; 1)</text>
<text text-anchor="start" x="11" y="-503.3" font-family="Times,serif" font-size="14.00">&#45; types = (bigint)</text>
<text text-anchor="start" x="11" y="-488.3" font-family="Times,serif" font-size="14.00">&#45; keys = (())</text>
<text text-anchor="start" x="11" y="-473.3" font-family="Times,serif" font-size="14.00">Project ()</text>
<text text-anchor="start" x="11" y="-458.3" font-family="Times,serif" font-size="14.00">&#45; types = ()</text>
<text text-anchor="start" x="11" y="-443.3" font-family="Times,serif" font-size="14.00">&#45; keys = (())</text>
</g>
<!-- node0&#45;&gt;node1 -->
<g id="edge2" class="edge">
<title>node0&#45;&gt;node1</title>
<path fill="none" stroke="black" d="M130.52,-675.3C125.3,-662.38 119.45,-647.91 113.53,-633.25"/>
<polygon fill="black" stroke="black" points="116.62,-631.56 109.63,-623.6 110.13,-634.19 116.62,-631.56"/>
<text text-anchor="start" x="123" y="-645.8" font-family="Times,serif" font-size="14.00">%0</text>
</g>
<!-- node2 -->
<g id="node3" class="node">
<title>node2</title>
<polygon fill="none" stroke="black" points="68.5,-330.5 68.5,-383.5 181.5,-383.5 181.5,-330.5 68.5,-330.5"/>
<text text-anchor="start" x="76.5" y="-368.3" font-family="Times,serif" font-size="14.00">Union %0 %1</text>
<text text-anchor="start" x="76.5" y="-353.3" font-family="Times,serif" font-size="14.00">&#45; types = ()</text>
<text text-anchor="start" x="76.5" y="-338.3" font-family="Times,serif" font-size="14.00">&#45; keys = ()</text>
</g>
<!-- node0&#45;&gt;node2 -->
<g id="edge6" class="edge">
<title>node0&#45;&gt;node2</title>
<path fill="none" stroke="black" d="M154.57,-675.41C158.98,-617.85 163.25,-518.73 150,-435 147.78,-420.95 143.4,-405.98 138.93,-393"/>
<polygon fill="black" stroke="black" points="142.2,-391.75 135.52,-383.52 135.61,-394.12 142.2,-391.75"/>
<text text-anchor="start" x="158" y="-525.8" font-family="Times,serif" font-size="14.00">%0</text>
</g>
<!-- node1&#45;&gt;node2 -->
<g id="edge5" class="edge">
<title>node1&#45;&gt;node2</title>
<path fill="none" stroke="black" d="M100.98,-435.27C105.59,-420.45 110.09,-405.95 113.94,-393.59"/>
<polygon fill="black" stroke="black" points="117.37,-394.34 116.99,-383.76 110.68,-392.27 117.37,-394.34"/>
<text text-anchor="start" x="111" y="-405.8" font-family="Times,serif" font-size="14.00">%1</text>
</g>
<!-- node3 -->
<g id="node4" class="node">
<title>node3</title>
<polygon fill="none" stroke="black" points="0,-150.5 0,-278.5 142,-278.5 142,-150.5 0,-150.5"/>
<text text-anchor="start" x="8" y="-263.3" font-family="Times,serif" font-size="14.00">&#45; types = ()</text>
<text text-anchor="start" x="8" y="-248.3" font-family="Times,serif" font-size="14.00">&#45; keys = ()</text>
<text text-anchor="start" x="8" y="-233.3" font-family="Times,serif" font-size="14.00">Distinct group=()</text>
<text text-anchor="start" x="8" y="-218.3" font-family="Times,serif" font-size="14.00">&#45; types = ()</text>
<text text-anchor="start" x="8" y="-203.3" font-family="Times,serif" font-size="14.00">&#45; keys = (())</text>
<text text-anchor="start" x="8" y="-188.3" font-family="Times,serif" font-size="14.00">Negate</text>
<text text-anchor="start" x="8" y="-173.3" font-family="Times,serif" font-size="14.00">&#45; types = ()</text>
<text text-anchor="start" x="8" y="-158.3" font-family="Times,serif" font-size="14.00">&#45; keys = ()</text>
</g>
<!-- node2&#45;&gt;node3 -->
<g id="edge3" class="edge">
<title>node2&#45;&gt;node3</title>
<path fill="none" stroke="black" d="M115.1,-330.23C110.48,-318.22 104.74,-303.27 98.93,-288.17"/>
<polygon fill="black" stroke="black" points="102.18,-286.86 95.32,-278.78 95.64,-289.37 102.18,-286.86"/>
<text text-anchor="start" x="108" y="-300.8" font-family="Times,serif" font-size="14.00">%2</text>
</g>
<!-- node5 -->
<g id="node6" class="node">
<title>node5</title>
<polygon fill="none" stroke="black" points="98.5,-0.5 98.5,-98.5 257.5,-98.5 257.5,-0.5 98.5,-0.5"/>
<text text-anchor="start" x="106.5" y="-83.3" font-family="Times,serif" font-size="14.00">Union %2 %3 %4</text>
<text text-anchor="start" x="106.5" y="-68.3" font-family="Times,serif" font-size="14.00">&#45; types = ()</text>
<text text-anchor="start" x="106.5" y="-53.3" font-family="Times,serif" font-size="14.00">&#45; keys = ()</text>
<text text-anchor="start" x="106.5" y="-38.3" font-family="Times,serif" font-size="14.00">Map null</text>
<text text-anchor="start" x="106.5" y="-23.3" font-family="Times,serif" font-size="14.00">&#45; types = (boolean?)</text>
<text text-anchor="start" x="106.5" y="-8.3" font-family="Times,serif" font-size="14.00">&#45; keys = ()</text>
</g>
<!-- node2&#45;&gt;node5 -->
<g id="edge1" class="edge">
<title>node2&#45;&gt;node5</title>
<path fill="none" stroke="black" d="M135.15,-330.37C140.63,-315.57 147.06,-296.48 151,-279 163.86,-221.94 170.84,-155.4 174.46,-108.89"/>
<polygon fill="black" stroke="black" points="177.97,-108.93 175.23,-98.69 170.99,-108.4 177.97,-108.93"/>
<text text-anchor="start" x="170" y="-210.8" font-family="Times,serif" font-size="14.00">%2</text>
</g>
<!-- node3&#45;&gt;node5 -->
<g id="edge7" class="edge">
<title>node3&#45;&gt;node5</title>
<path fill="none" stroke="black" d="M112.37,-150.48C121.72,-136.24 131.59,-121.2 140.76,-107.23"/>
<polygon fill="black" stroke="black" points="143.81,-108.97 146.37,-98.69 137.95,-105.13 143.81,-108.97"/>
<text text-anchor="start" x="135" y="-120.8" font-family="Times,serif" font-size="14.00">%3</text>
</g>
<!-- node4 -->
<g id="node5" class="node">
<title>node4</title>
<polygon fill="none" stroke="black" points="219,-188 219,-241 319,-241 319,-188 219,-188"/>
<text text-anchor="start" x="227" y="-225.8" font-family="Times,serif" font-size="14.00">Constant ()</text>
<text text-anchor="start" x="227" y="-210.8" font-family="Times,serif" font-size="14.00">&#45; types = ()</text>
<text text-anchor="start" x="227" y="-195.8" font-family="Times,serif" font-size="14.00">&#45; keys = (())</text>
</g>
<!-- node4&#45;&gt;node5 -->
<g id="edge4" class="edge">
<title>node4&#45;&gt;node5</title>
<path fill="none" stroke="black" d="M254.58,-187.67C242.6,-166.22 225.12,-134.91 209.89,-107.61"/>
<polygon fill="black" stroke="black" points="212.75,-105.56 204.82,-98.53 206.63,-108.97 212.75,-105.56"/>
<text text-anchor="start" x="223" y="-120.8" font-family="Times,serif" font-size="14.00">%4</text>
</g>
</g>
</svg>
