<?xml version="1.0" encoding="UTF-8" standalone="no"?>
<!DOCTYPE svg PUBLIC "-//W3C//DTD SVG 1.1//EN"
 "http://www.w3.org/Graphics/SVG/1.1/DTD/svg11.dtd">
<!-- Generated by graphviz version 2.43.0 (0)
 -->
<!-- Title: G Pages: 1 -->
<svg width="814pt" height="1946pt"
 viewBox="0.00 0.00 813.50 1946.00" xmlns="http://www.w3.org/2000/svg" xmlns:xlink="http://www.w3.org/1999/xlink">
<g id="graph0" class="graph" transform="scale(1 1) rotate(0) translate(4 1942)">
<title>G</title>
<polygon fill="white" stroke="transparent" points="-4,4 -4,-1942 809.5,-1942 809.5,4 -4,4"/>
<!-- node0 -->
<g id="node1" class="node">
<title>node0</title>
<polygon fill="none" stroke="black" points="639.5,-660.5 639.5,-713.5 739.5,-713.5 739.5,-660.5 639.5,-660.5"/>
<text text-anchor="start" x="647.5" y="-698.3" font-family="Times,serif" font-size="14.00">Constant ()</text>
<text text-anchor="start" x="647.5" y="-683.3" font-family="Times,serif" font-size="14.00">&#45; types = ()</text>
<text text-anchor="start" x="647.5" y="-668.3" font-family="Times,serif" font-size="14.00">&#45; keys = (())</text>
</g>
<!-- node2 -->
<g id="node3" class="node">
<title>node2</title>
<polygon fill="none" stroke="black" points="531.5,-510.5 531.5,-578.5 805.5,-578.5 805.5,-510.5 531.5,-510.5"/>
<text text-anchor="start" x="539.5" y="-563.3" font-family="Times,serif" font-size="14.00">Join %0 %1</text>
<text text-anchor="start" x="539.5" y="-548.3" font-family="Times,serif" font-size="14.00">&#45; implementation = Unimplemented</text>
<text text-anchor="start" x="539.5" y="-533.3" font-family="Times,serif" font-size="14.00">&#45; types = ()</text>
<text text-anchor="start" x="539.5" y="-518.3" font-family="Times,serif" font-size="14.00">&#45; keys = (())</text>
</g>
<!-- node0&#45;&gt;node2 -->
<g id="edge3" class="edge">
<title>node0&#45;&gt;node2</title>
<path fill="none" stroke="black" d="M685.65,-660.23C682.66,-640.22 678.44,-612.02 674.94,-588.59"/>
<polygon fill="black" stroke="black" points="678.38,-587.92 673.44,-578.55 671.46,-588.95 678.38,-587.92"/>
<text text-anchor="start" x="677.5" y="-600.8" font-family="Times,serif" font-size="14.00">%0</text>
</g>
<!-- node1 -->
<g id="node2" class="node">
<title>node1</title>
<polygon fill="none" stroke="black" points="521.5,-660.5 521.5,-713.5 621.5,-713.5 621.5,-660.5 521.5,-660.5"/>
<text text-anchor="start" x="529.5" y="-698.3" font-family="Times,serif" font-size="14.00">Constant ()</text>
<text text-anchor="start" x="529.5" y="-683.3" font-family="Times,serif" font-size="14.00">&#45; types = ()</text>
<text text-anchor="start" x="529.5" y="-668.3" font-family="Times,serif" font-size="14.00">&#45; keys = (())</text>
</g>
<!-- node1&#45;&gt;node2 -->
<g id="edge17" class="edge">
<title>node1&#45;&gt;node2</title>
<path fill="none" stroke="black" d="M589.29,-660.23C603.42,-639.77 623.45,-610.76 639.83,-587.02"/>
<polygon fill="black" stroke="black" points="642.88,-588.76 645.69,-578.55 637.12,-584.79 642.88,-588.76"/>
<text text-anchor="start" x="631.5" y="-600.8" font-family="Times,serif" font-size="14.00">%1</text>
</g>
<!-- node3 -->
<g id="node4" class="node">
<title>node3</title>
<polygon fill="none" stroke="black" points="532.5,-375.5 532.5,-458.5 674.5,-458.5 674.5,-375.5 532.5,-375.5"/>
<text text-anchor="start" x="540.5" y="-443.3" font-family="Times,serif" font-size="14.00">&#45; types = ()</text>
<text text-anchor="start" x="540.5" y="-428.3" font-family="Times,serif" font-size="14.00">&#45; keys = (())</text>
<text text-anchor="start" x="540.5" y="-413.3" font-family="Times,serif" font-size="14.00">Distinct group=()</text>
<text text-anchor="start" x="540.5" y="-398.3" font-family="Times,serif" font-size="14.00">&#45; types = ()</text>
<text text-anchor="start" x="540.5" y="-383.3" font-family="Times,serif" font-size="14.00">&#45; keys = (())</text>
</g>
<!-- node2&#45;&gt;node3 -->
<g id="edge15" class="edge">
<title>node2&#45;&gt;node3</title>
<path fill="none" stroke="black" d="M651.25,-510.2C644.53,-497.21 636.67,-482.05 629.3,-467.82"/>
<polygon fill="black" stroke="black" points="632.25,-465.9 624.54,-458.63 626.03,-469.12 632.25,-465.9"/>
<text text-anchor="start" x="641.5" y="-480.8" font-family="Times,serif" font-size="14.00">%2</text>
</g>
<!-- node18 -->
<g id="node19" class="node">
<title>node18</title>
<polygon fill="none" stroke="black" points="482.5,-0.5 482.5,-158.5 756.5,-158.5 756.5,-0.5 482.5,-0.5"/>
<text text-anchor="start" x="490.5" y="-143.3" font-family="Times,serif" font-size="14.00">Join %2 %17</text>
<text text-anchor="start" x="490.5" y="-128.3" font-family="Times,serif" font-size="14.00">&#45; implementation = Unimplemented</text>
<text text-anchor="start" x="490.5" y="-113.3" font-family="Times,serif" font-size="14.00">&#45; types = (boolean?)</text>
<text text-anchor="start" x="490.5" y="-98.3" font-family="Times,serif" font-size="14.00">&#45; keys = ()</text>
<text text-anchor="start" x="490.5" y="-83.3" font-family="Times,serif" font-size="14.00">Map (null = #0)</text>
<text text-anchor="start" x="490.5" y="-68.3" font-family="Times,serif" font-size="14.00">&#45; types = (boolean?, boolean?)</text>
<text text-anchor="start" x="490.5" y="-53.3" font-family="Times,serif" font-size="14.00">&#45; keys = ()</text>
<text text-anchor="start" x="490.5" y="-38.3" font-family="Times,serif" font-size="14.00">Project (#1)</text>
<text text-anchor="start" x="490.5" y="-23.3" font-family="Times,serif" font-size="14.00">&#45; types = (boolean?)</text>
<text text-anchor="start" x="490.5" y="-8.3" font-family="Times,serif" font-size="14.00">&#45; keys = ()</text>
</g>
<!-- node2&#45;&gt;node18 -->
<g id="edge10" class="edge">
<title>node2&#45;&gt;node18</title>
<path fill="none" stroke="black" d="M675.88,-510.29C688.05,-449.69 708.62,-317.51 683.5,-210 680.23,-196.01 675.22,-181.8 669.41,-168.16"/>
<polygon fill="black" stroke="black" points="672.53,-166.55 665.28,-158.83 666.13,-169.39 672.53,-166.55"/>
<text text-anchor="start" x="694.5" y="-345.8" font-family="Times,serif" font-size="14.00">%2</text>
</g>
<!-- node17 -->
<g id="node18" class="node">
<title>node17</title>
<polygon fill="none" stroke="black" points="400.5,-210.5 400.5,-323.5 674.5,-323.5 674.5,-210.5 400.5,-210.5"/>
<text text-anchor="start" x="408.5" y="-308.3" font-family="Times,serif" font-size="14.00">Join %3 %16</text>
<text text-anchor="start" x="408.5" y="-293.3" font-family="Times,serif" font-size="14.00">&#45; implementation = Unimplemented</text>
<text text-anchor="start" x="408.5" y="-278.3" font-family="Times,serif" font-size="14.00">&#45; types = (boolean?)</text>
<text text-anchor="start" x="408.5" y="-263.3" font-family="Times,serif" font-size="14.00">&#45; keys = ()</text>
<text text-anchor="start" x="408.5" y="-248.3" font-family="Times,serif" font-size="14.00">Project (#0)</text>
<text text-anchor="start" x="408.5" y="-233.3" font-family="Times,serif" font-size="14.00">&#45; types = (boolean?)</text>
<text text-anchor="start" x="408.5" y="-218.3" font-family="Times,serif" font-size="14.00">&#45; keys = ()</text>
</g>
<!-- node3&#45;&gt;node17 -->
<g id="edge18" class="edge">
<title>node3&#45;&gt;node17</title>
<path fill="none" stroke="black" d="M585.29,-375.17C579.47,-362.11 572.87,-347.32 566.48,-332.99"/>
<polygon fill="black" stroke="black" points="569.59,-331.37 562.32,-323.66 563.2,-334.22 569.59,-331.37"/>
<text text-anchor="start" x="575.5" y="-345.8" font-family="Times,serif" font-size="14.00">%3</text>
</g>
<!-- node4 -->
<g id="node5" class="node">
<title>node4</title>
<polygon fill="none" stroke="black" points="246.5,-1884.5 246.5,-1937.5 346.5,-1937.5 346.5,-1884.5 246.5,-1884.5"/>
<text text-anchor="start" x="254.5" y="-1922.3" font-family="Times,serif" font-size="14.00">Constant ()</text>
<text text-anchor="start" x="254.5" y="-1907.3" font-family="Times,serif" font-size="14.00">&#45; types = ()</text>
<text text-anchor="start" x="254.5" y="-1892.3" font-family="Times,serif" font-size="14.00">&#45; keys = (())</text>
</g>
<!-- node6 -->
<g id="node7" class="node">
<title>node6</title>
<polygon fill="none" stroke="black" points="348.5,-1764.5 348.5,-1832.5 622.5,-1832.5 622.5,-1764.5 348.5,-1764.5"/>
<text text-anchor="start" x="356.5" y="-1817.3" font-family="Times,serif" font-size="14.00">Join %4 %5</text>
<text text-anchor="start" x="356.5" y="-1802.3" font-family="Times,serif" font-size="14.00">&#45; implementation = Unimplemented</text>
<text text-anchor="start" x="356.5" y="-1787.3" font-family="Times,serif" font-size="14.00">&#45; types = (bigint?, integer?)</text>
<text text-anchor="start" x="356.5" y="-1772.3" font-family="Times,serif" font-size="14.00">&#45; keys = ()</text>
</g>
<!-- node4&#45;&gt;node6 -->
<g id="edge8" class="edge">
<title>node4&#45;&gt;node6</title>
<path fill="none" stroke="black" d="M340.34,-1884.37C364.04,-1870.51 393.8,-1853.12 420.18,-1837.69"/>
<polygon fill="black" stroke="black" points="422.12,-1840.61 428.99,-1832.54 418.59,-1834.57 422.12,-1840.61"/>
<text text-anchor="start" x="397.5" y="-1854.8" font-family="Times,serif" font-size="14.00">%4</text>
</g>
<!-- node11 -->
<g id="node12" class="node">
<title>node11</title>
<polygon fill="none" stroke="black" points="225.5,-1662.5 225.5,-1745.5 367.5,-1745.5 367.5,-1662.5 225.5,-1662.5"/>
<text text-anchor="start" x="233.5" y="-1730.3" font-family="Times,serif" font-size="14.00">&#45; types = ()</text>
<text text-anchor="start" x="233.5" y="-1715.3" font-family="Times,serif" font-size="14.00">&#45; keys = (())</text>
<text text-anchor="start" x="233.5" y="-1700.3" font-family="Times,serif" font-size="14.00">Distinct group=()</text>
<text text-anchor="start" x="233.5" y="-1685.3" font-family="Times,serif" font-size="14.00">&#45; types = ()</text>
<text text-anchor="start" x="233.5" y="-1670.3" font-family="Times,serif" font-size="14.00">&#45; keys = (())</text>
</g>
<!-- node4&#45;&gt;node11 -->
<g id="edge19" class="edge">
<title>node4&#45;&gt;node11</title>
<path fill="none" stroke="black" d="M296.5,-1884.45C296.5,-1852.39 296.5,-1796.67 296.5,-1755.8"/>
<polygon fill="black" stroke="black" points="300,-1755.75 296.5,-1745.75 293,-1755.75 300,-1755.75"/>
<text text-anchor="start" x="296.5" y="-1854.8" font-family="Times,serif" font-size="14.00">%4</text>
</g>
<!-- node13 -->
<g id="node14" class="node">
<title>node13</title>
<polygon fill="none" stroke="black" points="177.5,-630.5 177.5,-743.5 451.5,-743.5 451.5,-630.5 177.5,-630.5"/>
<text text-anchor="start" x="185.5" y="-728.3" font-family="Times,serif" font-size="14.00">Join %12 %4</text>
<text text-anchor="start" x="185.5" y="-713.3" font-family="Times,serif" font-size="14.00">&#45; implementation = Unimplemented</text>
<text text-anchor="start" x="185.5" y="-698.3" font-family="Times,serif" font-size="14.00">&#45; types = ()</text>
<text text-anchor="start" x="185.5" y="-683.3" font-family="Times,serif" font-size="14.00">&#45; keys = ()</text>
<text text-anchor="start" x="185.5" y="-668.3" font-family="Times,serif" font-size="14.00">Project ()</text>
<text text-anchor="start" x="185.5" y="-653.3" font-family="Times,serif" font-size="14.00">&#45; types = ()</text>
<text text-anchor="start" x="185.5" y="-638.3" font-family="Times,serif" font-size="14.00">&#45; keys = ()</text>
</g>
<!-- node4&#45;&gt;node13 -->
<g id="edge23" class="edge">
<title>node4&#45;&gt;node13</title>
<path fill="none" stroke="black" d="M260.53,-1884.31C236.96,-1864.24 210.5,-1834.02 210.5,-1799.5 210.5,-1799.5 210.5,-1799.5 210.5,-821 210.5,-795.25 222.74,-771.52 238.83,-751.44"/>
<polygon fill="black" stroke="black" points="241.64,-753.54 245.42,-743.64 236.29,-749.02 241.64,-753.54"/>
<text text-anchor="start" x="210.5" y="-1155.8" font-family="Times,serif" font-size="14.00">%4</text>
</g>
<!-- node5 -->
<g id="node6" class="node">
<title>node5</title>
<polygon fill="none" stroke="black" points="367.5,-1884.5 367.5,-1937.5 603.5,-1937.5 603.5,-1884.5 367.5,-1884.5"/>
<text text-anchor="start" x="375.5" y="-1922.3" font-family="Times,serif" font-size="14.00">Get issue_9284.public.t1 (u31)</text>
<text text-anchor="start" x="375.5" y="-1907.3" font-family="Times,serif" font-size="14.00">&#45; types = (bigint?, integer?)</text>
<text text-anchor="start" x="375.5" y="-1892.3" font-family="Times,serif" font-size="14.00">&#45; keys = ()</text>
</g>
<!-- node5&#45;&gt;node6 -->
<g id="edge14" class="edge">
<title>node5&#45;&gt;node6</title>
<path fill="none" stroke="black" d="M485.5,-1884.37C485.5,-1871.96 485.5,-1856.71 485.5,-1842.58"/>
<polygon fill="black" stroke="black" points="489,-1842.54 485.5,-1832.54 482,-1842.54 489,-1842.54"/>
<text text-anchor="start" x="485.5" y="-1854.8" font-family="Times,serif" font-size="14.00">%5</text>
</g>
<!-- node7 -->
<g id="node8" class="node">
<title>node7</title>
<polygon fill="none" stroke="black" points="350.5,-1470.5 350.5,-1643.5 628.5,-1643.5 628.5,-1470.5 350.5,-1470.5"/>
<text text-anchor="start" x="358.5" y="-1628.3" font-family="Times,serif" font-size="14.00">&#45; types = (bigint?, integer?)</text>
<text text-anchor="start" x="358.5" y="-1613.3" font-family="Times,serif" font-size="14.00">&#45; keys = ()</text>
<text text-anchor="start" x="358.5" y="-1598.3" font-family="Times,serif" font-size="14.00">Map true</text>
<text text-anchor="start" x="358.5" y="-1583.3" font-family="Times,serif" font-size="14.00">&#45; types = (bigint?, integer?, boolean)</text>
<text text-anchor="start" x="358.5" y="-1568.3" font-family="Times,serif" font-size="14.00">&#45; keys = ()</text>
<text text-anchor="start" x="358.5" y="-1553.3" font-family="Times,serif" font-size="14.00">Project (#0..=#2)</text>
<text text-anchor="start" x="358.5" y="-1538.3" font-family="Times,serif" font-size="14.00">&#45; types = (bigint?, integer?, boolean)</text>
<text text-anchor="start" x="358.5" y="-1523.3" font-family="Times,serif" font-size="14.00">&#45; keys = ()</text>
<text text-anchor="start" x="358.5" y="-1508.3" font-family="Times,serif" font-size="14.00">Project (#2)</text>
<text text-anchor="start" x="358.5" y="-1493.3" font-family="Times,serif" font-size="14.00">&#45; types = (boolean)</text>
<text text-anchor="start" x="358.5" y="-1478.3" font-family="Times,serif" font-size="14.00">&#45; keys = ()</text>
</g>
<!-- node6&#45;&gt;node7 -->
<g id="edge13" class="edge">
<title>node6&#45;&gt;node7</title>
<path fill="none" stroke="black" d="M486.06,-1764.2C486.53,-1735.65 487.24,-1693.05 487.9,-1653.98"/>
<polygon fill="black" stroke="black" points="491.4,-1653.66 488.07,-1643.6 484.4,-1653.54 491.4,-1653.66"/>
<text text-anchor="start" x="488.5" y="-1700.3" font-family="Times,serif" font-size="14.00">%6</text>
</g>
<!-- node8 -->
<g id="node9" class="node">
<title>node8</title>
<polygon fill="none" stroke="black" points="285,-1185.5 285,-1418.5 694,-1418.5 694,-1185.5 285,-1185.5"/>
<text text-anchor="start" x="293" y="-1403.3" font-family="Times,serif" font-size="14.00">&#45; types = (boolean)</text>
<text text-anchor="start" x="293" y="-1388.3" font-family="Times,serif" font-size="14.00">&#45; keys = ()</text>
<text text-anchor="start" x="293" y="-1373.3" font-family="Times,serif" font-size="14.00">Reduce group=()</text>
<text text-anchor="start" x="293" y="-1358.3" font-family="Times,serif" font-size="14.00">&#45; agg count(true)</text>
<text text-anchor="start" x="293" y="-1343.3" font-family="Times,serif" font-size="14.00">&#45; types = (bigint)</text>
<text text-anchor="start" x="293" y="-1328.3" font-family="Times,serif" font-size="14.00">&#45; keys = (())</text>
<text text-anchor="start" x="293" y="-1313.3" font-family="Times,serif" font-size="14.00">Filter (#0 &gt; 1)</text>
<text text-anchor="start" x="293" y="-1298.3" font-family="Times,serif" font-size="14.00">&#45; types = (bigint)</text>
<text text-anchor="start" x="293" y="-1283.3" font-family="Times,serif" font-size="14.00">&#45; keys = (())</text>
<text text-anchor="start" x="293" y="-1268.3" font-family="Times,serif" font-size="14.00">Project ()</text>
<text text-anchor="start" x="293" y="-1253.3" font-family="Times,serif" font-size="14.00">&#45; types = ()</text>
<text text-anchor="start" x="293" y="-1238.3" font-family="Times,serif" font-size="14.00">&#45; keys = (())</text>
<text text-anchor="start" x="293" y="-1223.3" font-family="Times,serif" font-size="14.00">Map (err: more than one record produced in subquery)</text>
<text text-anchor="start" x="293" y="-1208.3" font-family="Times,serif" font-size="14.00">&#45; types = (boolean)</text>
<text text-anchor="start" x="293" y="-1193.3" font-family="Times,serif" font-size="14.00">&#45; keys = (())</text>
</g>
<!-- node7&#45;&gt;node8 -->
<g id="edge2" class="edge">
<title>node7&#45;&gt;node8</title>
<path fill="none" stroke="black" d="M489.5,-1470.35C489.5,-1456.96 489.5,-1442.9 489.5,-1428.85"/>
<polygon fill="black" stroke="black" points="493,-1428.63 489.5,-1418.63 486,-1428.63 493,-1428.63"/>
<text text-anchor="start" x="489.5" y="-1440.8" font-family="Times,serif" font-size="14.00">%7</text>
</g>
<!-- node9 -->
<g id="node10" class="node">
<title>node9</title>
<polygon fill="none" stroke="black" points="410.5,-1080.5 410.5,-1133.5 562.5,-1133.5 562.5,-1080.5 410.5,-1080.5"/>
<text text-anchor="start" x="418.5" y="-1118.3" font-family="Times,serif" font-size="14.00">Union %7 %8</text>
<text text-anchor="start" x="418.5" y="-1103.3" font-family="Times,serif" font-size="14.00">&#45; types = (boolean)</text>
<text text-anchor="start" x="418.5" y="-1088.3" font-family="Times,serif" font-size="14.00">&#45; keys = ()</text>
</g>
<!-- node7&#45;&gt;node9 -->
<g id="edge7" class="edge">
<title>node7&#45;&gt;node9</title>
<path fill="none" stroke="black" d="M628.74,-1495.41C658.63,-1475.57 686.35,-1450.35 703.5,-1419 753.42,-1327.77 763.5,-1269.95 703.5,-1185 673.9,-1143.08 619.42,-1123.84 572.46,-1115.08"/>
<polygon fill="black" stroke="black" points="573.01,-1111.62 562.56,-1113.36 571.82,-1118.52 573.01,-1111.62"/>
<text text-anchor="start" x="744.5" y="-1298.3" font-family="Times,serif" font-size="14.00">%7</text>
</g>
<!-- node8&#45;&gt;node9 -->
<g id="edge6" class="edge">
<title>node8&#45;&gt;node9</title>
<path fill="none" stroke="black" d="M487.7,-1185.39C487.47,-1170.36 487.25,-1155.98 487.06,-1143.78"/>
<polygon fill="black" stroke="black" points="490.55,-1143.6 486.9,-1133.66 483.55,-1143.71 490.55,-1143.6"/>
<text text-anchor="start" x="487.5" y="-1155.8" font-family="Times,serif" font-size="14.00">%8</text>
</g>
<!-- node10 -->
<g id="node11" class="node">
<title>node10</title>
<polygon fill="none" stroke="black" points="294.5,-900.5 294.5,-1028.5 446.5,-1028.5 446.5,-900.5 294.5,-900.5"/>
<text text-anchor="start" x="302.5" y="-1013.3" font-family="Times,serif" font-size="14.00">&#45; types = (boolean)</text>
<text text-anchor="start" x="302.5" y="-998.3" font-family="Times,serif" font-size="14.00">&#45; keys = ()</text>
<text text-anchor="start" x="302.5" y="-983.3" font-family="Times,serif" font-size="14.00">Distinct group=()</text>
<text text-anchor="start" x="302.5" y="-968.3" font-family="Times,serif" font-size="14.00">&#45; types = ()</text>
<text text-anchor="start" x="302.5" y="-953.3" font-family="Times,serif" font-size="14.00">&#45; keys = (())</text>
<text text-anchor="start" x="302.5" y="-938.3" font-family="Times,serif" font-size="14.00">Negate</text>
<text text-anchor="start" x="302.5" y="-923.3" font-family="Times,serif" font-size="14.00">&#45; types = ()</text>
<text text-anchor="start" x="302.5" y="-908.3" font-family="Times,serif" font-size="14.00">&#45; keys = ()</text>
</g>
<!-- node9&#45;&gt;node10 -->
<g id="edge5" class="edge">
<title>node9&#45;&gt;node10</title>
<path fill="none" stroke="black" d="M461.15,-1080.37C455.54,-1074.45 449.72,-1068.1 444.5,-1062 437.56,-1053.9 430.48,-1045.23 423.58,-1036.54"/>
<polygon fill="black" stroke="black" points="426.24,-1034.27 417.3,-1028.58 420.74,-1038.6 426.24,-1034.27"/>
<text text-anchor="start" x="444.5" y="-1050.8" font-family="Times,serif" font-size="14.00">%9</text>
</g>
<!-- node16 -->
<g id="node17" class="node">
<title>node16</title>
<polygon fill="none" stroke="black" points="355,-390.5 355,-443.5 514,-443.5 514,-390.5 355,-390.5"/>
<text text-anchor="start" x="363" y="-428.3" font-family="Times,serif" font-size="14.00">Union %9 %15</text>
<text text-anchor="start" x="363" y="-413.3" font-family="Times,serif" font-size="14.00">&#45; types = (boolean?)</text>
<text text-anchor="start" x="363" y="-398.3" font-family="Times,serif" font-size="14.00">&#45; keys = ()</text>
</g>
<!-- node9&#45;&gt;node16 -->
<g id="edge21" class="edge">
<title>node9&#45;&gt;node16</title>
<path fill="none" stroke="black" d="M485.04,-1080.37C483.56,-1052.21 481.5,-1005.65 481.5,-965.5 481.5,-965.5 481.5,-965.5 481.5,-543.5 481.5,-511.32 467.78,-477.27 455.16,-452.77"/>
<polygon fill="black" stroke="black" points="458.21,-451.05 450.41,-443.87 452.03,-454.34 458.21,-451.05"/>
<text text-anchor="start" x="481.5" y="-765.8" font-family="Times,serif" font-size="14.00">%9</text>
</g>
<!-- node12 -->
<g id="node13" class="node">
<title>node12</title>
<polygon fill="none" stroke="black" points="249,-795.5 249,-848.5 380,-848.5 380,-795.5 249,-795.5"/>
<text text-anchor="start" x="257" y="-833.3" font-family="Times,serif" font-size="14.00">Union %10 %11</text>
<text text-anchor="start" x="257" y="-818.3" font-family="Times,serif" font-size="14.00">&#45; types = ()</text>
<text text-anchor="start" x="257" y="-803.3" font-family="Times,serif" font-size="14.00">&#45; keys = ()</text>
</g>
<!-- node10&#45;&gt;node12 -->
<g id="edge16" class="edge">
<title>node10&#45;&gt;node12</title>
<path fill="none" stroke="black" d="M345.28,-900.24C339.5,-885.73 333.56,-870.81 328.45,-858.01"/>
<polygon fill="black" stroke="black" points="331.69,-856.66 324.73,-848.67 325.18,-859.26 331.69,-856.66"/>
<text text-anchor="start" x="337.5" y="-870.8" font-family="Times,serif" font-size="14.00">%10</text>
</g>
<!-- node11&#45;&gt;node12 -->
<g id="edge12" class="edge">
<title>node11&#45;&gt;node12</title>
<path fill="none" stroke="black" d="M286.2,-1662.27C274.35,-1611.77 256.5,-1522.86 256.5,-1445.5 256.5,-1445.5 256.5,-1445.5 256.5,-963.5 256.5,-925.09 275.25,-884.94 291.43,-857.45"/>
<polygon fill="black" stroke="black" points="294.58,-858.99 296.78,-848.63 288.6,-855.36 294.58,-858.99"/>
<text text-anchor="start" x="256.5" y="-1155.8" font-family="Times,serif" font-size="14.00">%11</text>
</g>
<!-- node12&#45;&gt;node13 -->
<g id="edge1" class="edge">
<title>node12&#45;&gt;node13</title>
<path fill="none" stroke="black" d="M314.5,-795.36C314.5,-783.4 314.5,-768.56 314.5,-753.77"/>
<polygon fill="black" stroke="black" points="318,-753.57 314.5,-743.57 311,-753.57 318,-753.57"/>
<text text-anchor="start" x="314.5" y="-765.8" font-family="Times,serif" font-size="14.00">%12</text>
</g>
<!-- node15 -->
<g id="node16" class="node">
<title>node15</title>
<polygon fill="none" stroke="black" points="177.5,-510.5 177.5,-578.5 451.5,-578.5 451.5,-510.5 177.5,-510.5"/>
<text text-anchor="start" x="185.5" y="-563.3" font-family="Times,serif" font-size="14.00">Join %13 %14</text>
<text text-anchor="start" x="185.5" y="-548.3" font-family="Times,serif" font-size="14.00">&#45; implementation = Unimplemented</text>
<text text-anchor="start" x="185.5" y="-533.3" font-family="Times,serif" font-size="14.00">&#45; types = (boolean?)</text>
<text text-anchor="start" x="185.5" y="-518.3" font-family="Times,serif" font-size="14.00">&#45; keys = ()</text>
</g>
<!-- node13&#45;&gt;node15 -->
<g id="edge20" class="edge">
<title>node13&#45;&gt;node15</title>
<path fill="none" stroke="black" d="M314.5,-630.47C314.5,-616.67 314.5,-602.08 314.5,-588.95"/>
<polygon fill="black" stroke="black" points="318,-588.79 314.5,-578.79 311,-588.79 318,-588.79"/>
<text text-anchor="start" x="314.5" y="-600.8" font-family="Times,serif" font-size="14.00">%13</text>
</g>
<!-- node14 -->
<g id="node15" class="node">
<title>node14</title>
<polygon fill="none" stroke="black" points="0,-660.5 0,-713.5 159,-713.5 159,-660.5 0,-660.5"/>
<text text-anchor="start" x="8" y="-698.3" font-family="Times,serif" font-size="14.00">Constant (null)</text>
<text text-anchor="start" x="8" y="-683.3" font-family="Times,serif" font-size="14.00">&#45; types = (boolean?)</text>
<text text-anchor="start" x="8" y="-668.3" font-family="Times,serif" font-size="14.00">&#45; keys = (())</text>
</g>
<!-- node14&#45;&gt;node15 -->
<g id="edge22" class="edge">
<title>node14&#45;&gt;node15</title>
<path fill="none" stroke="black" d="M119.62,-660.31C134.85,-650.68 152.4,-639.72 168.5,-630 194.07,-614.56 222.43,-598.02 247.31,-583.7"/>
<polygon fill="black" stroke="black" points="249.38,-586.54 256.31,-578.52 245.89,-580.47 249.38,-586.54"/>
<text text-anchor="start" x="220.5" y="-600.8" font-family="Times,serif" font-size="14.00">%14</text>
</g>
<!-- node15&#45;&gt;node16 -->
<g id="edge4" class="edge">
<title>node15&#45;&gt;node16</title>
<path fill="none" stroke="black" d="M346.34,-510.2C363.72,-492.03 385.17,-469.59 402.56,-451.4"/>
<polygon fill="black" stroke="black" points="405.36,-453.54 409.74,-443.89 400.3,-448.7 405.36,-453.54"/>
<text text-anchor="start" x="374.5" y="-480.8" font-family="Times,serif" font-size="14.00">%15</text>
</g>
<!-- node16&#45;&gt;node17 -->
<g id="edge9" class="edge">
<title>node16&#45;&gt;node17</title>
<path fill="none" stroke="black" d="M452.44,-390.22C463.69,-374.06 478.71,-352.47 493.01,-331.93"/>
<polygon fill="black" stroke="black" points="496.02,-333.72 498.86,-323.52 490.28,-329.73 496.02,-333.72"/>
<text text-anchor="start" x="486.5" y="-345.8" font-family="Times,serif" font-size="14.00">%16</text>
</g>
<!-- node17&#45;&gt;node18 -->
<g id="edge11" class="edge">
<title>node17&#45;&gt;node18</title>
<path fill="none" stroke="black" d="M562.1,-210.34C567.98,-197.04 574.41,-182.51 580.75,-168.15"/>
<polygon fill="black" stroke="black" points="584.07,-169.31 584.91,-158.75 577.67,-166.48 584.07,-169.31"/>
<text text-anchor="start" x="575.5" y="-180.8" font-family="Times,serif" font-size="14.00">%17</text>
</g>
</g>
</svg>
