<?xml version="1.0" encoding="UTF-8" standalone="no"?>
<!DOCTYPE svg PUBLIC "-//W3C//DTD SVG 1.1//EN"
 "http://www.w3.org/Graphics/SVG/1.1/DTD/svg11.dtd">
<!-- Generated by graphviz version 2.43.0 (0)
 -->
<!-- Title: G Pages: 1 -->
<svg width="887pt" height="849pt"
 viewBox="0.00 0.00 887.00 849.00" xmlns="http://www.w3.org/2000/svg" xmlns:xlink="http://www.w3.org/1999/xlink">
<g id="graph0" class="graph" transform="scale(1 1) rotate(0) translate(4 845)">
<title>G</title>
<polygon fill="white" stroke="transparent" points="-4,4 -4,-845 883,-845 883,4 -4,4"/>
<!-- node0 -->
<g id="node1" class="node">
<title>node0</title>
<polygon fill="none" stroke="black" points="389,-802.5 389,-840.5 490,-840.5 490,-802.5 389,-802.5"/>
<text text-anchor="start" x="397" y="-825.3" font-family="Times,serif" font-size="14.00">Let l0 =</text>
<text text-anchor="start" x="397" y="-810.3" font-family="Times,serif" font-size="14.00"> Constant ()</text>
</g>
<!-- node2 -->
<g id="node3" class="node">
<title>node2</title>
<polygon fill="none" stroke="black" points="209,-697.5 209,-750.5 478,-750.5 478,-697.5 209,-697.5"/>
<text text-anchor="start" x="217" y="-735.3" font-family="Times,serif" font-size="14.00">Let l1 =</text>
<text text-anchor="start" x="217" y="-720.3" font-family="Times,serif" font-size="14.00"> Join %0 %1</text>
<text text-anchor="start" x="217" y="-705.3" font-family="Times,serif" font-size="14.00"> implementation = Unimplemented</text>
</g>
<!-- node0&#45;&gt;node2 -->
<g id="edge15" class="edge">
<title>node0&#45;&gt;node2</title>
<path fill="none" stroke="black" d="M420.99,-802.09C408.35,-789.51 391.25,-772.5 376.33,-757.66"/>
<polygon fill="black" stroke="black" points="378.77,-755.15 369.21,-750.58 373.83,-760.11 378.77,-755.15"/>
<text text-anchor="start" x="399.5" y="-772.8" font-family="Times,serif" font-size="14.00">%0</text>
</g>
<!-- node4 -->
<g id="node5" class="node">
<title>node4</title>
<polygon fill="none" stroke="black" points="496,-697.5 496,-750.5 765,-750.5 765,-697.5 496,-697.5"/>
<text text-anchor="start" x="504" y="-735.3" font-family="Times,serif" font-size="14.00">Let l2 =</text>
<text text-anchor="start" x="504" y="-720.3" font-family="Times,serif" font-size="14.00"> Join %0 %3</text>
<text text-anchor="start" x="504" y="-705.3" font-family="Times,serif" font-size="14.00"> implementation = Unimplemented</text>
</g>
<!-- node0&#45;&gt;node4 -->
<g id="edge9" class="edge">
<title>node0&#45;&gt;node4</title>
<path fill="none" stroke="black" d="M475.88,-802.31C502.57,-788.96 539.43,-770.53 570.47,-755.02"/>
<polygon fill="black" stroke="black" points="572.09,-758.12 579.47,-750.51 568.96,-751.86 572.09,-758.12"/>
<text text-anchor="start" x="540.5" y="-772.8" font-family="Times,serif" font-size="14.00">%0</text>
</g>
<!-- node1 -->
<g id="node2" class="node">
<title>node1</title>
<polygon fill="none" stroke="black" points="0,-803.5 0,-839.5 371,-839.5 371,-803.5 0,-803.5"/>
<text text-anchor="start" x="8" y="-817.8" font-family="Times,serif" font-size="14.00">Get simplify_outer_joins.public.table_f4_f5 (u109)</text>
</g>
<!-- node1&#45;&gt;node2 -->
<g id="edge8" class="edge">
<title>node1&#45;&gt;node2</title>
<path fill="none" stroke="black" d="M213.75,-803.43C235.6,-790.22 266.43,-771.58 292.56,-755.79"/>
<polygon fill="black" stroke="black" points="294.47,-758.72 301.22,-750.55 290.85,-752.73 294.47,-758.72"/>
<text text-anchor="start" x="269.5" y="-772.8" font-family="Times,serif" font-size="14.00">%1</text>
</g>
<!-- node5 -->
<g id="node6" class="node">
<title>node5</title>
<polygon fill="none" stroke="black" points="243,-562.5 243,-645.5 512,-645.5 512,-562.5 243,-562.5"/>
<text text-anchor="start" x="251" y="-630.3" font-family="Times,serif" font-size="14.00">Let l3 =</text>
<text text-anchor="start" x="251" y="-615.3" font-family="Times,serif" font-size="14.00"> Join %2 %4</text>
<text text-anchor="start" x="251" y="-600.3" font-family="Times,serif" font-size="14.00"> implementation = Unimplemented</text>
<text text-anchor="start" x="251" y="-585.3" font-family="Times,serif" font-size="14.00"> Project (#0..=#3)</text>
<text text-anchor="start" x="251" y="-570.3" font-family="Times,serif" font-size="14.00"> Filter (true &amp;&amp; (#1 = #2))</text>
</g>
<!-- node2&#45;&gt;node5 -->
<g id="edge6" class="edge">
<title>node2&#45;&gt;node5</title>
<path fill="none" stroke="black" d="M350.88,-697.4C354.4,-685.17 358.75,-670.09 362.9,-655.69"/>
<polygon fill="black" stroke="black" points="366.32,-656.44 365.73,-645.86 359.59,-654.5 366.32,-656.44"/>
<text text-anchor="start" x="360.5" y="-667.8" font-family="Times,serif" font-size="14.00">%2</text>
</g>
<!-- node3 -->
<g id="node4" class="node">
<title>node3</title>
<polygon fill="none" stroke="black" points="508,-803.5 508,-839.5 879,-839.5 879,-803.5 508,-803.5"/>
<text text-anchor="start" x="516" y="-817.8" font-family="Times,serif" font-size="14.00">Get simplify_outer_joins.public.table_f5_f6 (u111)</text>
</g>
<!-- node3&#45;&gt;node4 -->
<g id="edge12" class="edge">
<title>node3&#45;&gt;node4</title>
<path fill="none" stroke="black" d="M682.24,-803.43C674.13,-791.14 662.92,-774.15 653.01,-759.12"/>
<polygon fill="black" stroke="black" points="655.79,-756.97 647.36,-750.55 649.94,-760.83 655.79,-756.97"/>
<text text-anchor="start" x="667.5" y="-772.8" font-family="Times,serif" font-size="14.00">%3</text>
</g>
<!-- node4&#45;&gt;node5 -->
<g id="edge4" class="edge">
<title>node4&#45;&gt;node5</title>
<path fill="none" stroke="black" d="M575.6,-697.4C545.85,-683.52 508.22,-665.97 473.77,-649.9"/>
<polygon fill="black" stroke="black" points="475.16,-646.69 464.62,-645.63 472.2,-653.03 475.16,-646.69"/>
<text text-anchor="start" x="533.5" y="-667.8" font-family="Times,serif" font-size="14.00">%4</text>
</g>
<!-- node7 -->
<g id="node8" class="node">
<title>node7</title>
<polygon fill="none" stroke="black" points="450,-505.5 450,-543.5 647,-543.5 647,-505.5 450,-505.5"/>
<text text-anchor="start" x="458" y="-528.3" font-family="Times,serif" font-size="14.00">Get %4 (l2)</text>
<text text-anchor="start" x="458" y="-513.3" font-family="Times,serif" font-size="14.00"> Distinct group=(#0, #1)</text>
</g>
<!-- node4&#45;&gt;node7 -->
<g id="edge16" class="edge">
<title>node4&#45;&gt;node7</title>
<path fill="none" stroke="black" d="M619.78,-697.18C604.32,-659.94 575.87,-591.43 559.99,-553.18"/>
<polygon fill="black" stroke="black" points="563.12,-551.59 556.05,-543.69 556.66,-554.27 563.12,-551.59"/>
<text text-anchor="start" x="610.5" y="-667.8" font-family="Times,serif" font-size="14.00">%4</text>
</g>
<!-- node9 -->
<g id="node10" class="node">
<title>node9</title>
<polygon fill="none" stroke="black" points="519,-225.5 519,-278.5 788,-278.5 788,-225.5 519,-225.5"/>
<text text-anchor="start" x="527" y="-263.3" font-family="Times,serif" font-size="14.00">Join %8 %4 (= #0 #2) (= #1 #3)</text>
<text text-anchor="start" x="527" y="-248.3" font-family="Times,serif" font-size="14.00"> implementation = Unimplemented</text>
<text text-anchor="start" x="527" y="-233.3" font-family="Times,serif" font-size="14.00"> Project (#0, #1)</text>
</g>
<!-- node4&#45;&gt;node9 -->
<g id="edge13" class="edge">
<title>node4&#45;&gt;node9</title>
<path fill="none" stroke="black" d="M641.69,-697.3C650.92,-673.75 662.5,-637.69 662.5,-605 662.5,-605 662.5,-605 662.5,-347.5 662.5,-328.12 660.6,-306.6 658.55,-289"/>
<polygon fill="black" stroke="black" points="661.96,-288.1 657.26,-278.61 655.02,-288.96 661.96,-288.1"/>
<text text-anchor="start" x="662.5" y="-448.8" font-family="Times,serif" font-size="14.00">%4</text>
</g>
<!-- node6 -->
<g id="node7" class="node">
<title>node6</title>
<polygon fill="none" stroke="black" points="333.5,-418.5 333.5,-486.5 531.5,-486.5 531.5,-418.5 333.5,-418.5"/>
<text text-anchor="start" x="341.5" y="-471.3" font-family="Times,serif" font-size="14.00">Get %5 (l3)</text>
<text text-anchor="start" x="341.5" y="-456.3" font-family="Times,serif" font-size="14.00"> Project (#2, #3, #0, #1)</text>
<text text-anchor="start" x="341.5" y="-441.3" font-family="Times,serif" font-size="14.00"> Distinct group=(#0, #1)</text>
<text text-anchor="start" x="341.5" y="-426.3" font-family="Times,serif" font-size="14.00"> Negate</text>
</g>
<!-- node5&#45;&gt;node6 -->
<g id="edge5" class="edge">
<title>node5&#45;&gt;node6</title>
<path fill="none" stroke="black" d="M392.53,-562.15C400.05,-541.7 409.16,-516.95 416.77,-496.25"/>
<polygon fill="black" stroke="black" points="420.1,-497.34 420.27,-486.75 413.53,-494.93 420.1,-497.34"/>
<text text-anchor="start" x="412.5" y="-520.8" font-family="Times,serif" font-size="14.00">%5</text>
</g>
<!-- node12 -->
<g id="node13" class="node">
<title>node12</title>
<polygon fill="none" stroke="black" points="214.5,-0.5 214.5,-68.5 428.5,-68.5 428.5,-0.5 214.5,-0.5"/>
<text text-anchor="start" x="222.5" y="-53.3" font-family="Times,serif" font-size="14.00">Union %5 %11</text>
<text text-anchor="start" x="222.5" y="-38.3" font-family="Times,serif" font-size="14.00"> Project (#2, #0, #1, #3)</text>
<text text-anchor="start" x="222.5" y="-23.3" font-family="Times,serif" font-size="14.00"> Filter (true &amp;&amp; (#0 = #1))</text>
<text text-anchor="start" x="222.5" y="-8.3" font-family="Times,serif" font-size="14.00"> Project (#0, #1, #3)</text>
</g>
<!-- node5&#45;&gt;node12 -->
<g id="edge10" class="edge">
<title>node5&#45;&gt;node12</title>
<path fill="none" stroke="black" d="M345.71,-562.33C326.42,-533.59 305.5,-493.26 305.5,-453.5 305.5,-453.5 305.5,-453.5 305.5,-146 305.5,-123.61 308.76,-98.94 312.33,-78.59"/>
<polygon fill="black" stroke="black" points="315.79,-79.15 314.16,-68.68 308.9,-77.88 315.79,-79.15"/>
<text text-anchor="start" x="305.5" y="-300.8" font-family="Times,serif" font-size="14.00">%5</text>
</g>
<!-- node8 -->
<g id="node9" class="node">
<title>node8</title>
<polygon fill="none" stroke="black" points="511,-330.5 511,-366.5 624,-366.5 624,-330.5 511,-330.5"/>
<text text-anchor="start" x="519" y="-344.8" font-family="Times,serif" font-size="14.00">Union %6 %7</text>
</g>
<!-- node6&#45;&gt;node8 -->
<g id="edge1" class="edge">
<title>node6&#45;&gt;node8</title>
<path fill="none" stroke="black" d="M476.33,-418.38C495.92,-403.59 518.54,-386.49 536.36,-373.03"/>
<polygon fill="black" stroke="black" points="538.81,-375.56 544.68,-366.74 534.59,-369.98 538.81,-375.56"/>
<text text-anchor="start" x="519.5" y="-388.8" font-family="Times,serif" font-size="14.00">%6</text>
</g>
<!-- node7&#45;&gt;node8 -->
<g id="edge2" class="edge">
<title>node7&#45;&gt;node8</title>
<path fill="none" stroke="black" d="M550.5,-505.21C553.85,-474.53 560.62,-412.55 564.53,-376.73"/>
<polygon fill="black" stroke="black" points="568.04,-376.84 565.64,-366.52 561.08,-376.08 568.04,-376.84"/>
<text text-anchor="start" x="559.5" y="-448.8" font-family="Times,serif" font-size="14.00">%7</text>
</g>
<!-- node8&#45;&gt;node9 -->
<g id="edge11" class="edge">
<title>node8&#45;&gt;node9</title>
<path fill="none" stroke="black" d="M583.27,-330.17C594.42,-317.92 609.72,-301.11 623.19,-286.3"/>
<polygon fill="black" stroke="black" points="625.9,-288.53 630.04,-278.78 620.72,-283.82 625.9,-288.53"/>
<text text-anchor="start" x="612.5" y="-300.8" font-family="Times,serif" font-size="14.00">%8</text>
</g>
<!-- node11 -->
<g id="node12" class="node">
<title>node11</title>
<polygon fill="none" stroke="black" points="334,-120.5 334,-173.5 603,-173.5 603,-120.5 334,-120.5"/>
<text text-anchor="start" x="342" y="-158.3" font-family="Times,serif" font-size="14.00">Join %9 %10</text>
<text text-anchor="start" x="342" y="-143.3" font-family="Times,serif" font-size="14.00"> implementation = Unimplemented</text>
<text text-anchor="start" x="342" y="-128.3" font-family="Times,serif" font-size="14.00"> Project (#2, #3, #0, #1)</text>
</g>
<!-- node9&#45;&gt;node11 -->
<g id="edge3" class="edge">
<title>node9&#45;&gt;node11</title>
<path fill="none" stroke="black" d="M607.29,-225.27C581.81,-211.09 550.02,-193.39 523.29,-178.51"/>
<polygon fill="black" stroke="black" points="524.88,-175.38 514.44,-173.58 521.47,-181.5 524.88,-175.38"/>
<text text-anchor="start" x="571.5" y="-195.8" font-family="Times,serif" font-size="14.00">%9</text>
</g>
<!-- node10 -->
<g id="node11" class="node">
<title>node10</title>
<polygon fill="none" stroke="black" points="342,-234 342,-270 501,-270 501,-234 342,-234"/>
<text text-anchor="start" x="350" y="-248.3" font-family="Times,serif" font-size="14.00">Constant (null, null)</text>
</g>
<!-- node10&#45;&gt;node11 -->
<g id="edge7" class="edge">
<title>node10&#45;&gt;node11</title>
<path fill="none" stroke="black" d="M429.26,-233.99C435.6,-220.11 444.76,-200.03 452.63,-182.77"/>
<polygon fill="black" stroke="black" points="455.88,-184.08 456.85,-173.53 449.52,-181.17 455.88,-184.08"/>
<text text-anchor="start" x="447.5" y="-195.8" font-family="Times,serif" font-size="14.00">%10</text>
</g>
<!-- node11&#45;&gt;node12 -->
<g id="edge14" class="edge">
<title>node11&#45;&gt;node12</title>
<path fill="none" stroke="black" d="M434.41,-120.37C416.37,-106.81 393.83,-89.87 373.65,-74.7"/>
<polygon fill="black" stroke="black" points="375.55,-71.75 365.46,-68.54 371.35,-77.35 375.55,-71.75"/>
<text text-anchor="start" x="407.5" y="-90.8" font-family="Times,serif" font-size="14.00">%11</text>
</g>
</g>
</svg>
