<?xml version="1.0" encoding="UTF-8" standalone="no"?>
<!DOCTYPE svg PUBLIC "-//W3C//DTD SVG 1.1//EN"
 "http://www.w3.org/Graphics/SVG/1.1/DTD/svg11.dtd">
<!-- Generated by graphviz version 2.43.0 (0)
 -->
<!-- Title: G Pages: 1 -->
<svg width="895pt" height="808pt"
 viewBox="0.00 0.00 895.00 808.00" xmlns="http://www.w3.org/2000/svg" xmlns:xlink="http://www.w3.org/1999/xlink">
<g id="graph0" class="graph" transform="scale(1 1) rotate(0) translate(4 804)">
<title>G</title>
<polygon fill="white" stroke="transparent" points="-4,4 -4,-804 891,-804 891,4 -4,4"/>
<g id="clust1" class="cluster">
<title>cluster5</title>
<polygon fill="none" stroke="black" points="625,-660 625,-792 879,-792 879,-660 625,-660"/>
<text text-anchor="middle" x="675.5" y="-776.8" font-family="Times,serif" font-size="14.00">Box5:Select</text>
</g>
<g id="clust3" class="cluster">
<title>cluster4</title>
<polygon fill="none" stroke="black" points="464,-474 464,-652 784,-652 784,-474 464,-474"/>
<text text-anchor="middle" x="514.5" y="-636.8" font-family="Times,serif" font-size="14.00">Box4:Select</text>
</g>
<g id="clust5" class="cluster">
<title>cluster3</title>
<polygon fill="none" stroke="black" points="336,-311 336,-466 590,-466 590,-311 336,-311"/>
<text text-anchor="middle" x="386.5" y="-450.8" font-family="Times,serif" font-size="14.00">Box3:Select</text>
</g>
<g id="clust7" class="cluster">
<title>cluster0</title>
<polygon fill="none" stroke="black" points="83,-125 83,-303 495,-303 495,-125 83,-125"/>
<text text-anchor="middle" x="145.5" y="-287.8" font-family="Times,serif" font-size="14.00">Box0:OuterJoin</text>
</g>
<g id="clust9" class="cluster">
<title>cluster1</title>
<polygon fill="none" stroke="black" points="8,-8 8,-117 170,-117 170,-8 8,-8"/>
<text text-anchor="middle" x="49.5" y="-101.8" font-family="Times,serif" font-size="14.00">Box1:Get</text>
</g>
<g id="clust11" class="cluster">
<title>cluster2</title>
<polygon fill="none" stroke="black" points="178,-8 178,-117 340,-117 340,-8 178,-8"/>
<text text-anchor="middle" x="219.5" y="-101.8" font-family="Times,serif" font-size="14.00">Box2:Get</text>
</g>
<!-- boxhead5 -->
<g id="node1" class="node">
<title>boxhead5</title>
<polygon fill="none" stroke="black" points="725,-668.5 725,-760.5 871,-760.5 871,-668.5 725,-668.5"/>
<text text-anchor="middle" x="798" y="-745.3" font-family="Times,serif" font-size="14.00">Distinct: Preserve</text>
<polyline fill="none" stroke="black" points="725,-737.5 871,-737.5 "/>
<text text-anchor="middle" x="798" y="-722.3" font-family="Times,serif" font-size="14.00">0: Q4.C0</text>
<polyline fill="none" stroke="black" points="725,-714.5 871,-714.5 "/>
<text text-anchor="middle" x="798" y="-699.3" font-family="Times,serif" font-size="14.00">1: Q4.C1</text>
<polyline fill="none" stroke="black" points="725,-691.5 871,-691.5 "/>
<text text-anchor="middle" x="798" y="-676.3" font-family="Times,serif" font-size="14.00">2: Q4.C3</text>
</g>
<!-- Q4 -->
<g id="node2" class="node">
<title>Q4</title>
<ellipse fill="none" stroke="black" cx="670" cy="-714.5" rx="37.09" ry="37.09"/>
<text text-anchor="middle" x="670" y="-710.8" font-family="Times,serif" font-size="14.00">Q4(F)</text>
</g>
<!-- boxhead4 -->
<g id="node3" class="node">
<title>boxhead4</title>
<polygon fill="none" stroke="black" points="564,-482.5 564,-620.5 776,-620.5 776,-482.5 564,-482.5"/>
<text text-anchor="middle" x="670" y="-605.3" font-family="Times,serif" font-size="14.00">Distinct: Preserve</text>
<polyline fill="none" stroke="black" points="564,-597.5 776,-597.5 "/>
<text text-anchor="middle" x="670" y="-582.3" font-family="Times,serif" font-size="14.00">0: Q3.C0</text>
<polyline fill="none" stroke="black" points="564,-574.5 776,-574.5 "/>
<text text-anchor="middle" x="670" y="-559.3" font-family="Times,serif" font-size="14.00">1: Q3.C1</text>
<polyline fill="none" stroke="black" points="564,-551.5 776,-551.5 "/>
<text text-anchor="middle" x="670" y="-536.3" font-family="Times,serif" font-size="14.00">2: Q3.C2</text>
<polyline fill="none" stroke="black" points="564,-528.5 776,-528.5 "/>
<text text-anchor="middle" x="670" y="-513.3" font-family="Times,serif" font-size="14.00">3: Q3.C3</text>
<polyline fill="none" stroke="black" points="564,-505.5 776,-505.5 "/>
<text text-anchor="middle" x="670" y="-490.3" font-family="Times,serif" font-size="14.00">(true &amp;&amp; (Q3.C0 = Q3.C1))</text>
</g>
<!-- Q4&#45;&gt;boxhead4 -->
<g id="edge1" class="edge">
<title>Q4&#45;&gt;boxhead4</title>
<path fill="none" stroke="black" stroke-dasharray="5,2" d="M670,-677.37C670,-669.56 670,-660.95 670,-652"/>
</g>
<!-- Q3 -->
<g id="node4" class="node">
<title>Q3</title>
<ellipse fill="none" stroke="black" cx="509" cy="-551.5" rx="37.09" ry="37.09"/>
<text text-anchor="middle" x="509" y="-547.8" font-family="Times,serif" font-size="14.00">Q3(F)</text>
</g>
<!-- boxhead3 -->
<g id="node5" class="node">
<title>boxhead3</title>
<polygon fill="none" stroke="black" points="436,-319.5 436,-434.5 582,-434.5 582,-319.5 436,-319.5"/>
<text text-anchor="middle" x="509" y="-419.3" font-family="Times,serif" font-size="14.00">Distinct: Preserve</text>
<polyline fill="none" stroke="black" points="436,-411.5 582,-411.5 "/>
<text text-anchor="middle" x="509" y="-396.3" font-family="Times,serif" font-size="14.00">0: Q2.C2</text>
<polyline fill="none" stroke="black" points="436,-388.5 582,-388.5 "/>
<text text-anchor="middle" x="509" y="-373.3" font-family="Times,serif" font-size="14.00">1: Q2.C0</text>
<polyline fill="none" stroke="black" points="436,-365.5 582,-365.5 "/>
<text text-anchor="middle" x="509" y="-350.3" font-family="Times,serif" font-size="14.00">2: Q2.C1</text>
<polyline fill="none" stroke="black" points="436,-342.5 582,-342.5 "/>
<text text-anchor="middle" x="509" y="-327.3" font-family="Times,serif" font-size="14.00">3: Q2.C3</text>
</g>
<!-- Q3&#45;&gt;boxhead3 -->
<g id="edge2" class="edge">
<title>Q3&#45;&gt;boxhead3</title>
<path fill="none" stroke="black" stroke-dasharray="5,2" d="M509,-514.34C509,-500.11 509,-483.1 509,-466"/>
</g>
<!-- Q2 -->
<g id="node6" class="node">
<title>Q2</title>
<ellipse fill="none" stroke="black" cx="381" cy="-377" rx="37.09" ry="37.09"/>
<text text-anchor="middle" x="381" y="-373.3" font-family="Times,serif" font-size="14.00">Q2(F)</text>
</g>
<!-- boxhead0 -->
<g id="node7" class="node">
<title>boxhead0</title>
<polygon fill="none" stroke="black" points="275,-133.5 275,-271.5 487,-271.5 487,-133.5 275,-133.5"/>
<text text-anchor="middle" x="381" y="-256.3" font-family="Times,serif" font-size="14.00">Distinct: Preserve</text>
<polyline fill="none" stroke="black" points="275,-248.5 487,-248.5 "/>
<text text-anchor="middle" x="381" y="-233.3" font-family="Times,serif" font-size="14.00">0: Q0.C0</text>
<polyline fill="none" stroke="black" points="275,-225.5 487,-225.5 "/>
<text text-anchor="middle" x="381" y="-210.3" font-family="Times,serif" font-size="14.00">1: Q0.C1</text>
<polyline fill="none" stroke="black" points="275,-202.5 487,-202.5 "/>
<text text-anchor="middle" x="381" y="-187.3" font-family="Times,serif" font-size="14.00">2: Q1.C0</text>
<polyline fill="none" stroke="black" points="275,-179.5 487,-179.5 "/>
<text text-anchor="middle" x="381" y="-164.3" font-family="Times,serif" font-size="14.00">3: Q1.C1</text>
<polyline fill="none" stroke="black" points="275,-156.5 487,-156.5 "/>
<text text-anchor="middle" x="381" y="-141.3" font-family="Times,serif" font-size="14.00">(true &amp;&amp; (Q0.C1 = Q1.C0))</text>
</g>
<!-- Q2&#45;&gt;boxhead0 -->
<g id="edge3" class="edge">
<title>Q2&#45;&gt;boxhead0</title>
<path fill="none" stroke="black" stroke-dasharray="5,2" d="M381,-339.84C381,-328.81 381,-316.11 381,-303"/>
</g>
<!-- Q0 -->
<g id="node8" class="node">
<title>Q0</title>
<ellipse fill="none" stroke="black" cx="128" cy="-202.5" rx="37.09" ry="37.09"/>
<text text-anchor="middle" x="128" y="-198.8" font-family="Times,serif" font-size="14.00">Q0(F)</text>
</g>
<!-- boxhead1 -->
<g id="node10" class="node">
<title>boxhead1</title>
<polygon fill="none" stroke="black" points="16,-16.5 16,-85.5 162,-85.5 162,-16.5 16,-16.5"/>
<text text-anchor="middle" x="89" y="-70.3" font-family="Times,serif" font-size="14.00">Distinct: Preserve</text>
<polyline fill="none" stroke="black" points="16,-62.5 162,-62.5 "/>
<text text-anchor="middle" x="89" y="-47.3" font-family="Times,serif" font-size="14.00">0: C0</text>
<polyline fill="none" stroke="black" points="16,-39.5 162,-39.5 "/>
<text text-anchor="middle" x="89" y="-24.3" font-family="Times,serif" font-size="14.00">1: C1</text>
</g>
<!-- Q0&#45;&gt;boxhead1 -->
<g id="edge4" class="edge">
<title>Q0&#45;&gt;boxhead1</title>
<path fill="none" stroke="black" stroke-dasharray="5,2" d="M118.86,-166.45C115,-151.68 110.39,-134 105.96,-117"/>
</g>
<!-- Q1 -->
<g id="node9" class="node">
<title>Q1</title>
<ellipse fill="none" stroke="black" cx="220" cy="-202.5" rx="37.09" ry="37.09"/>
<text text-anchor="middle" x="220" y="-198.8" font-family="Times,serif" font-size="14.00">Q1(P)</text>
</g>
<!-- boxhead2 -->
<g id="node11" class="node">
<title>boxhead2</title>
<polygon fill="none" stroke="black" points="186,-16.5 186,-85.5 332,-85.5 332,-16.5 186,-16.5"/>
<text text-anchor="middle" x="259" y="-70.3" font-family="Times,serif" font-size="14.00">Distinct: Preserve</text>
<polyline fill="none" stroke="black" points="186,-62.5 332,-62.5 "/>
<text text-anchor="middle" x="259" y="-47.3" font-family="Times,serif" font-size="14.00">0: C0</text>
<polyline fill="none" stroke="black" points="186,-39.5 332,-39.5 "/>
<text text-anchor="middle" x="259" y="-24.3" font-family="Times,serif" font-size="14.00">1: C1</text>
</g>
<!-- Q1&#45;&gt;boxhead2 -->
<g id="edge5" class="edge">
<title>Q1&#45;&gt;boxhead2</title>
<path fill="none" stroke="black" stroke-dasharray="5,2" d="M229.14,-166.45C233,-151.68 237.61,-134 242.04,-117"/>
</g>
</g>
</svg>
