<?xml version="1.0" encoding="UTF-8" standalone="no"?>
<!DOCTYPE svg PUBLIC "-//W3C//DTD SVG 1.1//EN"
 "http://www.w3.org/Graphics/SVG/1.1/DTD/svg11.dtd">
<!-- Generated by graphviz version 2.43.0 (0)
 -->
<!-- Title: G Pages: 1 -->
<svg width="768pt" height="165pt"
 viewBox="0.00 0.00 768.00 165.00" xmlns="http://www.w3.org/2000/svg" xmlns:xlink="http://www.w3.org/1999/xlink">
<g id="graph0" class="graph" transform="scale(1 1) rotate(0) translate(4 161)">
<title>G</title>
<polygon fill="white" stroke="transparent" points="-4,4 -4,-161 764,-161 764,4 -4,4"/>
<!-- node0 -->
<g id="node1" class="node">
<title>node0</title>
<polygon fill="none" stroke="black" points="0,-120.5 0,-156.5 371,-156.5 371,-120.5 0,-120.5"/>
<text text-anchor="start" x="8" y="-134.8" font-family="Times,serif" font-size="14.00">Get simplify_outer_joins.public.table_f4_f5 (u109)</text>
</g>
<!-- node2 -->
<g id="node3" class="node">
<title>node2</title>
<polygon fill="none" stroke="black" points="203,-0.5 203,-68.5 556,-68.5 556,-0.5 203,-0.5"/>
<text text-anchor="start" x="211" y="-53.3" font-family="Times,serif" font-size="14.00">RightOuterJoin %0 %1 on (true &amp;&amp; (#1 = #2))</text>
<text text-anchor="start" x="211" y="-38.3" font-family="Times,serif" font-size="14.00"> Project (#2, #0, #1, #3)</text>
<text text-anchor="start" x="211" y="-23.3" font-family="Times,serif" font-size="14.00"> Filter (true &amp;&amp; (#0 = #1))</text>
<text text-anchor="start" x="211" y="-8.3" font-family="Times,serif" font-size="14.00"> Project (#0, #1, #3)</text>
</g>
<!-- node0&#45;&gt;node2 -->
<g id="edge1" class="edge">
<title>node0&#45;&gt;node2</title>
<path fill="none" stroke="black" d="M217.97,-120.43C242.42,-107.57 276.87,-89.46 307.68,-73.26"/>
<polygon fill="black" stroke="black" points="309.46,-76.28 316.68,-68.53 306.2,-70.08 309.46,-76.28"/>
<text text-anchor="start" x="277.5" y="-90.8" font-family="Times,serif" font-size="14.00">%0</text>
</g>
<!-- node1 -->
<g id="node2" class="node">
<title>node1</title>
<polygon fill="none" stroke="black" points="389,-120.5 389,-156.5 760,-156.5 760,-120.5 389,-120.5"/>
<text text-anchor="start" x="397" y="-134.8" font-family="Times,serif" font-size="14.00">Get simplify_outer_joins.public.table_f5_f6 (u111)</text>
</g>
<!-- node1&#45;&gt;node2 -->
<g id="edge2" class="edge">
<title>node1&#45;&gt;node2</title>
<path fill="none" stroke="black" d="M541.86,-120.43C517.29,-107.57 482.66,-89.46 451.69,-73.26"/>
<polygon fill="black" stroke="black" points="453.12,-70.06 442.64,-68.53 449.88,-76.26 453.12,-70.06"/>
<text text-anchor="start" x="506.5" y="-90.8" font-family="Times,serif" font-size="14.00">%1</text>
</g>
</g>
</svg>
