<?xml version="1.0" encoding="UTF-8" standalone="no"?>
<!DOCTYPE svg PUBLIC "-//W3C//DTD SVG 1.1//EN"
 "http://www.w3.org/Graphics/SVG/1.1/DTD/svg11.dtd">
<!-- Generated by graphviz version 2.43.0 (0)
 -->
<!-- Title: G Pages: 1 -->
<svg width="768pt" height="317pt"
 viewBox="0.00 0.00 768.00 317.00" xmlns="http://www.w3.org/2000/svg" xmlns:xlink="http://www.w3.org/1999/xlink">
<g id="graph0" class="graph" transform="scale(1 1) rotate(0) translate(4 313)">
<title>G</title>
<polygon fill="white" stroke="transparent" points="-4,4 -4,-313 764,-313 764,4 -4,4"/>
<!-- node0 -->
<g id="node1" class="node">
<title>node0</title>
<polygon fill="none" stroke="black" points="0,-165.5 0,-308.5 371,-308.5 371,-165.5 0,-165.5"/>
<text text-anchor="start" x="8" y="-293.3" font-family="Times,serif" font-size="14.00">Get simplify_outer_joins.public.table_f4_f5 (u109)</text>
<text text-anchor="start" x="8" y="-278.3" font-family="Times,serif" font-size="14.00"> types = (integer?, integer?)</text>
<text text-anchor="start" x="8" y="-263.3" font-family="Times,serif" font-size="14.00"> keys = ()</text>
<text text-anchor="start" x="8" y="-248.3" font-family="Times,serif" font-size="14.00"> Filter (#0 = #1)</text>
<text text-anchor="start" x="8" y="-233.3" font-family="Times,serif" font-size="14.00"> types = (integer, integer)</text>
<text text-anchor="start" x="8" y="-218.3" font-family="Times,serif" font-size="14.00"> keys = ()</text>
<text text-anchor="start" x="8" y="-203.3" font-family="Times,serif" font-size="14.00"> ArrangeBy (#0)</text>
<text text-anchor="start" x="8" y="-188.3" font-family="Times,serif" font-size="14.00"> types = (integer, integer)</text>
<text text-anchor="start" x="8" y="-173.3" font-family="Times,serif" font-size="14.00"> keys = ()</text>
</g>
<!-- node2 -->
<g id="node3" class="node">
<title>node2</title>
<polygon fill="none" stroke="black" points="215,-0.5 215,-113.5 544,-113.5 544,-0.5 215,-0.5"/>
<text text-anchor="start" x="223" y="-98.3" font-family="Times,serif" font-size="14.00">Join %0 %1 (= #0 #2)</text>
<text text-anchor="start" x="223" y="-83.3" font-family="Times,serif" font-size="14.00"> implementation = Differential %1 %0.(#0)</text>
<text text-anchor="start" x="223" y="-68.3" font-family="Times,serif" font-size="14.00"> types = (integer, integer, integer, integer?)</text>
<text text-anchor="start" x="223" y="-53.3" font-family="Times,serif" font-size="14.00"> keys = ()</text>
<text text-anchor="start" x="223" y="-38.3" font-family="Times,serif" font-size="14.00"> Project (#1, #0, #3)</text>
<text text-anchor="start" x="223" y="-23.3" font-family="Times,serif" font-size="14.00"> types = (integer, integer, integer?)</text>
<text text-anchor="start" x="223" y="-8.3" font-family="Times,serif" font-size="14.00"> keys = ()</text>
</g>
<!-- node0&#45;&gt;node2 -->
<g id="edge1" class="edge">
<title>node0&#45;&gt;node2</title>
<path fill="none" stroke="black" d="M262.45,-165.39C278.54,-150.63 295.41,-135.16 311.16,-120.71"/>
<polygon fill="black" stroke="black" points="313.79,-123.04 318.79,-113.7 309.06,-117.88 313.79,-123.04"/>
<text text-anchor="start" x="294.5" y="-135.8" font-family="Times,serif" font-size="14.00">%0</text>
</g>
<!-- node1 -->
<g id="node2" class="node">
<title>node1</title>
<polygon fill="none" stroke="black" points="389,-188 389,-286 760,-286 760,-188 389,-188"/>
<text text-anchor="start" x="397" y="-270.8" font-family="Times,serif" font-size="14.00">Get simplify_outer_joins.public.table_f5_f6 (u111)</text>
<text text-anchor="start" x="397" y="-255.8" font-family="Times,serif" font-size="14.00"> types = (integer?, integer?)</text>
<text text-anchor="start" x="397" y="-240.8" font-family="Times,serif" font-size="14.00"> keys = ()</text>
<text text-anchor="start" x="397" y="-225.8" font-family="Times,serif" font-size="14.00"> Filter !(isnull(#0))</text>
<text text-anchor="start" x="397" y="-210.8" font-family="Times,serif" font-size="14.00"> types = (integer, integer?)</text>
<text text-anchor="start" x="397" y="-195.8" font-family="Times,serif" font-size="14.00"> keys = ()</text>
</g>
<!-- node1&#45;&gt;node2 -->
<g id="edge2" class="edge">
<title>node1&#45;&gt;node2</title>
<path fill="none" stroke="black" d="M521.73,-187.83C499.04,-167.12 472.22,-142.63 448.02,-120.54"/>
<polygon fill="black" stroke="black" points="450.34,-117.93 440.6,-113.77 445.63,-123.1 450.34,-117.93"/>
<text text-anchor="start" x="477.5" y="-135.8" font-family="Times,serif" font-size="14.00">%1</text>
</g>
</g>
</svg>
