<?xml version="1.0" encoding="UTF-8" standalone="no"?>
<!DOCTYPE svg PUBLIC "-//W3C//DTD SVG 1.1//EN"
 "http://www.w3.org/Graphics/SVG/1.1/DTD/svg11.dtd">
<!-- Generated by graphviz version 2.43.0 (0)
 -->
<!-- Title: G Pages: 1 -->
<svg width="887pt" height="1436pt"
 viewBox="0.00 0.00 887.00 1436.00" xmlns="http://www.w3.org/2000/svg" xmlns:xlink="http://www.w3.org/1999/xlink">
<g id="graph0" class="graph" transform="scale(1 1) rotate(0) translate(4 1432)">
<title>G</title>
<polygon fill="white" stroke="transparent" points="-4,4 -4,-1432 883,-1432 883,4 -4,4"/>
<!-- node0 -->
<g id="node1" class="node">
<title>node0</title>
<polygon fill="none" stroke="black" points="389,-1359.5 389,-1427.5 490,-1427.5 490,-1359.5 389,-1359.5"/>
<text text-anchor="start" x="397" y="-1412.3" font-family="Times,serif" font-size="14.00">Let l0 =</text>
<text text-anchor="start" x="397" y="-1397.3" font-family="Times,serif" font-size="14.00"> Constant ()</text>
<text text-anchor="start" x="397" y="-1382.3" font-family="Times,serif" font-size="14.00"> types = ()</text>
<text text-anchor="start" x="397" y="-1367.3" font-family="Times,serif" font-size="14.00"> keys = (())</text>
</g>
<!-- node2 -->
<g id="node3" class="node">
<title>node2</title>
<polygon fill="none" stroke="black" points="209,-1224.5 209,-1307.5 478,-1307.5 478,-1224.5 209,-1224.5"/>
<text text-anchor="start" x="217" y="-1292.3" font-family="Times,serif" font-size="14.00">Let l1 =</text>
<text text-anchor="start" x="217" y="-1277.3" font-family="Times,serif" font-size="14.00"> Join %0 %1</text>
<text text-anchor="start" x="217" y="-1262.3" font-family="Times,serif" font-size="14.00"> implementation = Unimplemented</text>
<text text-anchor="start" x="217" y="-1247.3" font-family="Times,serif" font-size="14.00"> types = (integer?, integer?)</text>
<text text-anchor="start" x="217" y="-1232.3" font-family="Times,serif" font-size="14.00"> keys = ()</text>
</g>
<!-- node0&#45;&gt;node2 -->
<g id="edge15" class="edge">
<title>node0&#45;&gt;node2</title>
<path fill="none" stroke="black" d="M414.03,-1359.2C403.81,-1345.84 391.83,-1330.18 380.67,-1315.6"/>
<polygon fill="black" stroke="black" points="383.43,-1313.44 374.58,-1307.63 377.87,-1317.7 383.43,-1313.44"/>
<text text-anchor="start" x="399.5" y="-1329.8" font-family="Times,serif" font-size="14.00">%0</text>
</g>
<!-- node4 -->
<g id="node5" class="node">
<title>node4</title>
<polygon fill="none" stroke="black" points="496,-1224.5 496,-1307.5 765,-1307.5 765,-1224.5 496,-1224.5"/>
<text text-anchor="start" x="504" y="-1292.3" font-family="Times,serif" font-size="14.00">Let l2 =</text>
<text text-anchor="start" x="504" y="-1277.3" font-family="Times,serif" font-size="14.00"> Join %0 %3</text>
<text text-anchor="start" x="504" y="-1262.3" font-family="Times,serif" font-size="14.00"> implementation = Unimplemented</text>
<text text-anchor="start" x="504" y="-1247.3" font-family="Times,serif" font-size="14.00"> types = (integer?, integer?)</text>
<text text-anchor="start" x="504" y="-1232.3" font-family="Times,serif" font-size="14.00"> keys = ()</text>
</g>
<!-- node0&#45;&gt;node4 -->
<g id="edge9" class="edge">
<title>node0&#45;&gt;node4</title>
<path fill="none" stroke="black" d="M489.93,-1359.36C511.39,-1345.26 536.79,-1328.57 560.05,-1313.29"/>
<polygon fill="black" stroke="black" points="562.08,-1316.14 568.52,-1307.73 558.24,-1310.29 562.08,-1316.14"/>
<text text-anchor="start" x="534.5" y="-1329.8" font-family="Times,serif" font-size="14.00">%0</text>
</g>
<!-- node1 -->
<g id="node2" class="node">
<title>node1</title>
<polygon fill="none" stroke="black" points="0,-1367 0,-1420 371,-1420 371,-1367 0,-1367"/>
<text text-anchor="start" x="8" y="-1404.8" font-family="Times,serif" font-size="14.00">Get simplify_outer_joins.public.table_f4_f5 (u109)</text>
<text text-anchor="start" x="8" y="-1389.8" font-family="Times,serif" font-size="14.00"> types = (integer?, integer?)</text>
<text text-anchor="start" x="8" y="-1374.8" font-family="Times,serif" font-size="14.00"> keys = ()</text>
</g>
<!-- node1&#45;&gt;node2 -->
<g id="edge8" class="edge">
<title>node1&#45;&gt;node2</title>
<path fill="none" stroke="black" d="M217.85,-1366.8C237,-1351.6 261.83,-1331.87 284.36,-1313.98"/>
<polygon fill="black" stroke="black" points="286.56,-1316.7 292.21,-1307.74 282.21,-1311.22 286.56,-1316.7"/>
<text text-anchor="start" x="264.5" y="-1329.8" font-family="Times,serif" font-size="14.00">%1</text>
</g>
<!-- node5 -->
<g id="node6" class="node">
<title>node5</title>
<polygon fill="none" stroke="black" points="219.5,-999.5 219.5,-1172.5 575.5,-1172.5 575.5,-999.5 219.5,-999.5"/>
<text text-anchor="start" x="227.5" y="-1157.3" font-family="Times,serif" font-size="14.00">Let l3 =</text>
<text text-anchor="start" x="227.5" y="-1142.3" font-family="Times,serif" font-size="14.00"> Join %2 %4</text>
<text text-anchor="start" x="227.5" y="-1127.3" font-family="Times,serif" font-size="14.00"> implementation = Unimplemented</text>
<text text-anchor="start" x="227.5" y="-1112.3" font-family="Times,serif" font-size="14.00"> types = (integer?, integer?, integer?, integer?)</text>
<text text-anchor="start" x="227.5" y="-1097.3" font-family="Times,serif" font-size="14.00"> keys = ()</text>
<text text-anchor="start" x="227.5" y="-1082.3" font-family="Times,serif" font-size="14.00"> Project (#0..=#3)</text>
<text text-anchor="start" x="227.5" y="-1067.3" font-family="Times,serif" font-size="14.00"> types = (integer?, integer?, integer?, integer?)</text>
<text text-anchor="start" x="227.5" y="-1052.3" font-family="Times,serif" font-size="14.00"> keys = ()</text>
<text text-anchor="start" x="227.5" y="-1037.3" font-family="Times,serif" font-size="14.00"> Filter (true &amp;&amp; (#1 = #2))</text>
<text text-anchor="start" x="227.5" y="-1022.3" font-family="Times,serif" font-size="14.00"> types = (integer?, integer?, integer?, integer?)</text>
<text text-anchor="start" x="227.5" y="-1007.3" font-family="Times,serif" font-size="14.00"> keys = ()</text>
</g>
<!-- node2&#45;&gt;node5 -->
<g id="edge6" class="edge">
<title>node2&#45;&gt;node5</title>
<path fill="none" stroke="black" d="M355.89,-1224.16C359.72,-1211.53 364.11,-1197.05 368.58,-1182.34"/>
<polygon fill="black" stroke="black" points="371.96,-1183.24 371.52,-1172.65 365.26,-1181.21 371.96,-1183.24"/>
<text text-anchor="start" x="365.5" y="-1194.8" font-family="Times,serif" font-size="14.00">%2</text>
</g>
<!-- node3 -->
<g id="node4" class="node">
<title>node3</title>
<polygon fill="none" stroke="black" points="508,-1367 508,-1420 879,-1420 879,-1367 508,-1367"/>
<text text-anchor="start" x="516" y="-1404.8" font-family="Times,serif" font-size="14.00">Get simplify_outer_joins.public.table_f5_f6 (u111)</text>
<text text-anchor="start" x="516" y="-1389.8" font-family="Times,serif" font-size="14.00"> types = (integer?, integer?)</text>
<text text-anchor="start" x="516" y="-1374.8" font-family="Times,serif" font-size="14.00"> keys = ()</text>
</g>
<!-- node3&#45;&gt;node4 -->
<g id="edge12" class="edge">
<title>node3&#45;&gt;node4</title>
<path fill="none" stroke="black" d="M680.6,-1366.8C673.43,-1352.52 664.26,-1334.25 655.73,-1317.26"/>
<polygon fill="black" stroke="black" points="658.69,-1315.35 651.07,-1307.98 652.43,-1318.49 658.69,-1315.35"/>
<text text-anchor="start" x="667.5" y="-1329.8" font-family="Times,serif" font-size="14.00">%3</text>
</g>
<!-- node4&#45;&gt;node5 -->
<g id="edge4" class="edge">
<title>node4&#45;&gt;node5</title>
<path fill="none" stroke="black" d="M577.34,-1224.39C559.47,-1210.74 538.75,-1194.91 517.87,-1178.96"/>
<polygon fill="black" stroke="black" points="519.93,-1176.13 509.86,-1172.84 515.68,-1181.69 519.93,-1176.13"/>
<text text-anchor="start" x="547.5" y="-1194.8" font-family="Times,serif" font-size="14.00">%4</text>
</g>
<!-- node7 -->
<g id="node8" class="node">
<title>node7</title>
<polygon fill="none" stroke="black" points="516,-882.5 516,-980.5 735,-980.5 735,-882.5 516,-882.5"/>
<text text-anchor="start" x="524" y="-965.3" font-family="Times,serif" font-size="14.00">Get %4 (l2)</text>
<text text-anchor="start" x="524" y="-950.3" font-family="Times,serif" font-size="14.00"> types = (integer?, integer?)</text>
<text text-anchor="start" x="524" y="-935.3" font-family="Times,serif" font-size="14.00"> keys = ()</text>
<text text-anchor="start" x="524" y="-920.3" font-family="Times,serif" font-size="14.00"> Distinct group=(#0, #1)</text>
<text text-anchor="start" x="524" y="-905.3" font-family="Times,serif" font-size="14.00"> types = (integer?, integer?)</text>
<text text-anchor="start" x="524" y="-890.3" font-family="Times,serif" font-size="14.00"> keys = ((#0, #1))</text>
</g>
<!-- node4&#45;&gt;node7 -->
<g id="edge16" class="edge">
<title>node4&#45;&gt;node7</title>
<path fill="none" stroke="black" d="M629.89,-1224.23C629.01,-1165.79 627.39,-1057.91 626.38,-990.98"/>
<polygon fill="black" stroke="black" points="629.87,-990.55 626.22,-980.6 622.87,-990.66 629.87,-990.55"/>
<text text-anchor="start" x="629.5" y="-1194.8" font-family="Times,serif" font-size="14.00">%4</text>
</g>
<!-- node9 -->
<g id="node10" class="node">
<title>node9</title>
<polygon fill="none" stroke="black" points="512.5,-405.5 512.5,-518.5 868.5,-518.5 868.5,-405.5 512.5,-405.5"/>
<text text-anchor="start" x="520.5" y="-503.3" font-family="Times,serif" font-size="14.00">Join %8 %4 (= #0 #2) (= #1 #3)</text>
<text text-anchor="start" x="520.5" y="-488.3" font-family="Times,serif" font-size="14.00"> implementation = Unimplemented</text>
<text text-anchor="start" x="520.5" y="-473.3" font-family="Times,serif" font-size="14.00"> types = (integer?, integer?, integer?, integer?)</text>
<text text-anchor="start" x="520.5" y="-458.3" font-family="Times,serif" font-size="14.00"> keys = ()</text>
<text text-anchor="start" x="520.5" y="-443.3" font-family="Times,serif" font-size="14.00"> Project (#0, #1)</text>
<text text-anchor="start" x="520.5" y="-428.3" font-family="Times,serif" font-size="14.00"> types = (integer?, integer?)</text>
<text text-anchor="start" x="520.5" y="-413.3" font-family="Times,serif" font-size="14.00"> keys = ()</text>
</g>
<!-- node4&#45;&gt;node9 -->
<g id="edge13" class="edge">
<title>node4&#45;&gt;node9</title>
<path fill="none" stroke="black" d="M678.27,-1224.45C711.74,-1191.31 750.5,-1141.23 750.5,-1087 750.5,-1087 750.5,-1087 750.5,-596 750.5,-572.61 742.69,-548.79 732.71,-527.89"/>
<polygon fill="black" stroke="black" points="735.77,-526.19 728.16,-518.82 729.52,-529.33 735.77,-526.19"/>
<text text-anchor="start" x="750.5" y="-765.8" font-family="Times,serif" font-size="14.00">%4</text>
</g>
<!-- node6 -->
<g id="node7" class="node">
<title>node6</title>
<polygon fill="none" stroke="black" points="233.5,-675.5 233.5,-863.5 589.5,-863.5 589.5,-675.5 233.5,-675.5"/>
<text text-anchor="start" x="241.5" y="-848.3" font-family="Times,serif" font-size="14.00">Get %5 (l3)</text>
<text text-anchor="start" x="241.5" y="-833.3" font-family="Times,serif" font-size="14.00"> types = (integer?, integer?, integer?, integer?)</text>
<text text-anchor="start" x="241.5" y="-818.3" font-family="Times,serif" font-size="14.00"> keys = ()</text>
<text text-anchor="start" x="241.5" y="-803.3" font-family="Times,serif" font-size="14.00"> Project (#2, #3, #0, #1)</text>
<text text-anchor="start" x="241.5" y="-788.3" font-family="Times,serif" font-size="14.00"> types = (integer?, integer?, integer?, integer?)</text>
<text text-anchor="start" x="241.5" y="-773.3" font-family="Times,serif" font-size="14.00"> keys = ()</text>
<text text-anchor="start" x="241.5" y="-758.3" font-family="Times,serif" font-size="14.00"> Distinct group=(#0, #1)</text>
<text text-anchor="start" x="241.5" y="-743.3" font-family="Times,serif" font-size="14.00"> types = (integer?, integer?)</text>
<text text-anchor="start" x="241.5" y="-728.3" font-family="Times,serif" font-size="14.00"> keys = ((#0, #1))</text>
<text text-anchor="start" x="241.5" y="-713.3" font-family="Times,serif" font-size="14.00"> Negate</text>
<text text-anchor="start" x="241.5" y="-698.3" font-family="Times,serif" font-size="14.00"> types = (integer?, integer?)</text>
<text text-anchor="start" x="241.5" y="-683.3" font-family="Times,serif" font-size="14.00"> keys = ()</text>
</g>
<!-- node5&#45;&gt;node6 -->
<g id="edge5" class="edge">
<title>node5&#45;&gt;node6</title>
<path fill="none" stroke="black" d="M401.31,-999.48C403.03,-960.74 405.08,-914.62 406.89,-873.95"/>
<polygon fill="black" stroke="black" points="410.4,-873.88 407.35,-863.74 403.41,-873.57 410.4,-873.88"/>
<text text-anchor="start" x="405.5" y="-927.8" font-family="Times,serif" font-size="14.00">%5</text>
</g>
<!-- node12 -->
<g id="node13" class="node">
<title>node12</title>
<polygon fill="none" stroke="black" points="43.5,-0.5 43.5,-188.5 399.5,-188.5 399.5,-0.5 43.5,-0.5"/>
<text text-anchor="start" x="51.5" y="-173.3" font-family="Times,serif" font-size="14.00">Union %5 %11</text>
<text text-anchor="start" x="51.5" y="-158.3" font-family="Times,serif" font-size="14.00"> types = (integer?, integer?, integer?, integer?)</text>
<text text-anchor="start" x="51.5" y="-143.3" font-family="Times,serif" font-size="14.00"> keys = ()</text>
<text text-anchor="start" x="51.5" y="-128.3" font-family="Times,serif" font-size="14.00"> Project (#2, #0, #1, #3)</text>
<text text-anchor="start" x="51.5" y="-113.3" font-family="Times,serif" font-size="14.00"> types = (integer?, integer?, integer?, integer?)</text>
<text text-anchor="start" x="51.5" y="-98.3" font-family="Times,serif" font-size="14.00"> keys = ()</text>
<text text-anchor="start" x="51.5" y="-83.3" font-family="Times,serif" font-size="14.00"> Filter (true &amp;&amp; (#0 = #1))</text>
<text text-anchor="start" x="51.5" y="-68.3" font-family="Times,serif" font-size="14.00"> types = (integer?, integer?, integer?, integer?)</text>
<text text-anchor="start" x="51.5" y="-53.3" font-family="Times,serif" font-size="14.00"> keys = ()</text>
<text text-anchor="start" x="51.5" y="-38.3" font-family="Times,serif" font-size="14.00"> Project (#0, #1, #3)</text>
<text text-anchor="start" x="51.5" y="-23.3" font-family="Times,serif" font-size="14.00"> types = (integer?, integer?, integer?)</text>
<text text-anchor="start" x="51.5" y="-8.3" font-family="Times,serif" font-size="14.00"> keys = ()</text>
</g>
<!-- node5&#45;&gt;node12 -->
<g id="edge10" class="edge">
<title>node5&#45;&gt;node12</title>
<path fill="none" stroke="black" d="M315.23,-999.36C282.38,-960.75 247.06,-912.89 224.5,-864 206.73,-825.5 205.5,-812.9 205.5,-770.5 205.5,-770.5 205.5,-770.5 205.5,-296 205.5,-264.33 207.51,-229.94 210.1,-198.73"/>
<polygon fill="black" stroke="black" points="213.59,-198.98 210.96,-188.71 206.62,-198.38 213.59,-198.98"/>
<text text-anchor="start" x="205.5" y="-540.8" font-family="Times,serif" font-size="14.00">%5</text>
</g>
<!-- node8 -->
<g id="node9" class="node">
<title>node8</title>
<polygon fill="none" stroke="black" points="503,-570.5 503,-623.5 722,-623.5 722,-570.5 503,-570.5"/>
<text text-anchor="start" x="511" y="-608.3" font-family="Times,serif" font-size="14.00">Union %6 %7</text>
<text text-anchor="start" x="511" y="-593.3" font-family="Times,serif" font-size="14.00"> types = (integer?, integer?)</text>
<text text-anchor="start" x="511" y="-578.3" font-family="Times,serif" font-size="14.00"> keys = ()</text>
</g>
<!-- node6&#45;&gt;node8 -->
<g id="edge1" class="edge">
<title>node6&#45;&gt;node8</title>
<path fill="none" stroke="black" d="M521.41,-675.27C540.45,-659.11 559.04,-643.35 574.41,-630.31"/>
<polygon fill="black" stroke="black" points="576.77,-632.89 582.14,-623.76 572.25,-627.56 576.77,-632.89"/>
<text text-anchor="start" x="558.5" y="-645.8" font-family="Times,serif" font-size="14.00">%6</text>
</g>
<!-- node7&#45;&gt;node8 -->
<g id="edge2" class="edge">
<title>node7&#45;&gt;node8</title>
<path fill="none" stroke="black" d="M623.61,-882.15C620.97,-814.7 616.25,-693.89 613.9,-633.87"/>
<polygon fill="black" stroke="black" points="617.39,-633.6 613.51,-623.74 610.4,-633.87 617.39,-633.6"/>
<text text-anchor="start" x="622.5" y="-765.8" font-family="Times,serif" font-size="14.00">%7</text>
</g>
<!-- node8&#45;&gt;node9 -->
<g id="edge11" class="edge">
<title>node8&#45;&gt;node9</title>
<path fill="none" stroke="black" d="M627.54,-570.36C634.76,-558.05 643.76,-542.7 652.68,-527.49"/>
<polygon fill="black" stroke="black" points="655.87,-528.97 657.91,-518.57 649.83,-525.43 655.87,-528.97"/>
<text text-anchor="start" x="646.5" y="-540.8" font-family="Times,serif" font-size="14.00">%8</text>
</g>
<!-- node11 -->
<g id="node12" class="node">
<title>node11</title>
<polygon fill="none" stroke="black" points="233.5,-240.5 233.5,-353.5 589.5,-353.5 589.5,-240.5 233.5,-240.5"/>
<text text-anchor="start" x="241.5" y="-338.3" font-family="Times,serif" font-size="14.00">Join %9 %10</text>
<text text-anchor="start" x="241.5" y="-323.3" font-family="Times,serif" font-size="14.00"> implementation = Unimplemented</text>
<text text-anchor="start" x="241.5" y="-308.3" font-family="Times,serif" font-size="14.00"> types = (integer?, integer?, integer?, integer?)</text>
<text text-anchor="start" x="241.5" y="-293.3" font-family="Times,serif" font-size="14.00"> keys = ()</text>
<text text-anchor="start" x="241.5" y="-278.3" font-family="Times,serif" font-size="14.00"> Project (#2, #3, #0, #1)</text>
<text text-anchor="start" x="241.5" y="-263.3" font-family="Times,serif" font-size="14.00"> types = (integer?, integer?, integer?, integer?)</text>
<text text-anchor="start" x="241.5" y="-248.3" font-family="Times,serif" font-size="14.00"> keys = ()</text>
</g>
<!-- node9&#45;&gt;node11 -->
<g id="edge3" class="edge">
<title>node9&#45;&gt;node11</title>
<path fill="none" stroke="black" d="M595.26,-405.36C569.59,-390.36 541.69,-374.06 515.57,-358.8"/>
<polygon fill="black" stroke="black" points="517.18,-355.69 506.78,-353.67 513.65,-361.73 517.18,-355.69"/>
<text text-anchor="start" x="558.5" y="-375.8" font-family="Times,serif" font-size="14.00">%9</text>
</g>
<!-- node10 -->
<g id="node11" class="node">
<title>node10</title>
<polygon fill="none" stroke="black" points="275,-435.5 275,-488.5 494,-488.5 494,-435.5 275,-435.5"/>
<text text-anchor="start" x="283" y="-473.3" font-family="Times,serif" font-size="14.00">Constant (null, null)</text>
<text text-anchor="start" x="283" y="-458.3" font-family="Times,serif" font-size="14.00"> types = (integer?, integer?)</text>
<text text-anchor="start" x="283" y="-443.3" font-family="Times,serif" font-size="14.00"> keys = (())</text>
</g>
<!-- node10&#45;&gt;node11 -->
<g id="edge7" class="edge">
<title>node10&#45;&gt;node11</title>
<path fill="none" stroke="black" d="M388.78,-435.17C391.95,-416 396.43,-388.95 400.58,-363.94"/>
<polygon fill="black" stroke="black" points="404.09,-364.18 402.27,-353.74 397.18,-363.04 404.09,-364.18"/>
<text text-anchor="start" x="398.5" y="-375.8" font-family="Times,serif" font-size="14.00">%10</text>
</g>
<!-- node11&#45;&gt;node12 -->
<g id="edge14" class="edge">
<title>node11&#45;&gt;node12</title>
<path fill="none" stroke="black" d="M358.83,-240.42C345.71,-226.57 331.24,-211.3 316.76,-196.02"/>
<polygon fill="black" stroke="black" points="319.07,-193.37 309.65,-188.52 313.99,-198.19 319.07,-193.37"/>
<text text-anchor="start" x="338.5" y="-210.8" font-family="Times,serif" font-size="14.00">%11</text>
</g>
</g>
</svg>
