<?xml version="1.0" encoding="UTF-8" standalone="no"?>
<!DOCTYPE svg PUBLIC "-//W3C//DTD SVG 1.1//EN"
 "http://www.w3.org/Graphics/SVG/1.1/DTD/svg11.dtd">
<!-- Generated by graphviz version 2.43.0 (0)
 -->
<!-- Title: G Pages: 1 -->
<svg width="372pt" height="227pt"
 viewBox="0.00 0.00 372.00 227.00" xmlns="http://www.w3.org/2000/svg" xmlns:xlink="http://www.w3.org/1999/xlink">
<g id="graph0" class="graph" transform="scale(1 1) rotate(0) translate(4 223)">
<title>G</title>
<polygon fill="white" stroke="transparent" points="-4,4 -4,-223 368,-223 368,4 -4,4"/>
<!-- node0 -->
<g id="node1" class="node">
<title>node0</title>
<polygon fill="none" stroke="black" points="0,-180.5 0,-218.5 101,-218.5 101,-180.5 0,-180.5"/>
<text text-anchor="start" x="8" y="-203.3" font-family="Times,serif" font-size="14.00">Let l0 =</text>
<text text-anchor="start" x="8" y="-188.3" font-family="Times,serif" font-size="14.00"> Constant ()</text>
</g>
<!-- node2 -->
<g id="node3" class="node">
<title>node2</title>
<polygon fill="none" stroke="black" points="11,-0.5 11,-128.5 280,-128.5 280,-0.5 11,-0.5"/>
<text text-anchor="start" x="19" y="-113.3" font-family="Times,serif" font-size="14.00">Join %0 %1</text>
<text text-anchor="start" x="19" y="-98.3" font-family="Times,serif" font-size="14.00"> implementation = Unimplemented</text>
<text text-anchor="start" x="19" y="-83.3" font-family="Times,serif" font-size="14.00"> Map true</text>
<text text-anchor="start" x="19" y="-68.3" font-family="Times,serif" font-size="14.00"> Project (#2)</text>
<text text-anchor="start" x="19" y="-53.3" font-family="Times,serif" font-size="14.00"> Reduce group=()</text>
<text text-anchor="start" x="19" y="-38.3" font-family="Times,serif" font-size="14.00"> agg count(#0)</text>
<text text-anchor="start" x="19" y="-23.3" font-family="Times,serif" font-size="14.00"> Project (#0)</text>
<text text-anchor="start" x="19" y="-8.3" font-family="Times,serif" font-size="14.00"> Project (#0)</text>
</g>
<!-- node0&#45;&gt;node2 -->
<g id="edge1" class="edge">
<title>node0&#45;&gt;node2</title>
<path fill="none" stroke="black" d="M63.51,-180.29C71.73,-168.78 82.95,-153.08 94.44,-136.99"/>
<polygon fill="black" stroke="black" points="97.49,-138.73 100.46,-128.56 91.8,-134.66 97.49,-138.73"/>
<text text-anchor="start" x="87.5" y="-150.8" font-family="Times,serif" font-size="14.00">%0</text>
</g>
<!-- node1 -->
<g id="node2" class="node">
<title>node1</title>
<polygon fill="none" stroke="black" points="119,-181.5 119,-217.5 364,-217.5 364,-181.5 119,-181.5"/>
<text text-anchor="start" x="127" y="-195.8" font-family="Times,serif" font-size="14.00">Get issue_10800.public.t1 (u87)</text>
</g>
<!-- node1&#45;&gt;node2 -->
<g id="edge2" class="edge">
<title>node1&#45;&gt;node2</title>
<path fill="none" stroke="black" d="M229.15,-181.38C220.75,-169.75 209.01,-153.49 196.98,-136.83"/>
<polygon fill="black" stroke="black" points="199.76,-134.69 191.07,-128.63 194.08,-138.79 199.76,-134.69"/>
<text text-anchor="start" x="212.5" y="-150.8" font-family="Times,serif" font-size="14.00">%1</text>
</g>
</g>
</svg>
