<?xml version="1.0" encoding="UTF-8" standalone="no"?>
<!DOCTYPE svg PUBLIC "-//W3C//DTD SVG 1.1//EN"
 "http://www.w3.org/Graphics/SVG/1.1/DTD/svg11.dtd">
<!-- Generated by graphviz version 2.43.0 (0)
 -->
<!-- Title: G Pages: 1 -->
<svg width="633pt" height="467pt"
 viewBox="0.00 0.00 633.00 467.00" xmlns="http://www.w3.org/2000/svg" xmlns:xlink="http://www.w3.org/1999/xlink">
<g id="graph0" class="graph" transform="scale(1 1) rotate(0) translate(4 463)">
<title>G</title>
<polygon fill="white" stroke="transparent" points="-4,4 -4,-463 629,-463 629,4 -4,4"/>
<!-- node0 -->
<g id="node1" class="node">
<title>node0</title>
<polygon fill="none" stroke="black" points="175,-390.5 175,-458.5 276,-458.5 276,-390.5 175,-390.5"/>
<text text-anchor="start" x="183" y="-443.3" font-family="Times,serif" font-size="14.00">Let l0 =</text>
<text text-anchor="start" x="183" y="-428.3" font-family="Times,serif" font-size="14.00"> Constant ()</text>
<text text-anchor="start" x="183" y="-413.3" font-family="Times,serif" font-size="14.00"> types = ()</text>
<text text-anchor="start" x="183" y="-398.3" font-family="Times,serif" font-size="14.00"> keys = (())</text>
</g>
<!-- node2 -->
<g id="node3" class="node">
<title>node2</title>
<polygon fill="none" stroke="black" points="0,-0.5 0,-338.5 625,-338.5 625,-0.5 0,-0.5"/>
<text text-anchor="start" x="8" y="-323.3" font-family="Times,serif" font-size="14.00">Join %0 %1</text>
<text text-anchor="start" x="8" y="-308.3" font-family="Times,serif" font-size="14.00"> implementation = Unimplemented</text>
<text text-anchor="start" x="8" y="-293.3" font-family="Times,serif" font-size="14.00"> types = (integer?, integer)</text>
<text text-anchor="start" x="8" y="-278.3" font-family="Times,serif" font-size="14.00"> keys = ()</text>
<text text-anchor="start" x="8" y="-263.3" font-family="Times,serif" font-size="14.00"> Filter (#0 &gt; 0)</text>
<text text-anchor="start" x="8" y="-248.3" font-family="Times,serif" font-size="14.00"> types = (integer, integer)</text>
<text text-anchor="start" x="8" y="-233.3" font-family="Times,serif" font-size="14.00"> keys = ()</text>
<text text-anchor="start" x="8" y="-218.3" font-family="Times,serif" font-size="14.00"> Project (#0, #1)</text>
<text text-anchor="start" x="8" y="-203.3" font-family="Times,serif" font-size="14.00"> types = (integer, integer)</text>
<text text-anchor="start" x="8" y="-188.3" font-family="Times,serif" font-size="14.00"> keys = ()</text>
<text text-anchor="start" x="8" y="-173.3" font-family="Times,serif" font-size="14.00"> Map #0, #1, (#0 + #1), (#0 &#45; #1)</text>
<text text-anchor="start" x="8" y="-158.3" font-family="Times,serif" font-size="14.00"> types = (integer, integer, integer, integer, integer, integer)</text>
<text text-anchor="start" x="8" y="-143.3" font-family="Times,serif" font-size="14.00"> keys = ()</text>
<text text-anchor="start" x="8" y="-128.3" font-family="Times,serif" font-size="14.00"> Project (#2..=#5)</text>
<text text-anchor="start" x="8" y="-113.3" font-family="Times,serif" font-size="14.00"> types = (integer, integer, integer, integer)</text>
<text text-anchor="start" x="8" y="-98.3" font-family="Times,serif" font-size="14.00"> keys = ()</text>
<text text-anchor="start" x="8" y="-83.3" font-family="Times,serif" font-size="14.00"> Map #0, #1, #2, #3, coalesce(#2, #3, #0)</text>
<text text-anchor="start" x="8" y="-68.3" font-family="Times,serif" font-size="14.00"> types = (integer, integer, integer, integer, integer, integer, integer, integer, integer?)</text>
<text text-anchor="start" x="8" y="-53.3" font-family="Times,serif" font-size="14.00"> keys = ()</text>
<text text-anchor="start" x="8" y="-38.3" font-family="Times,serif" font-size="14.00"> Project (#4..=#8)</text>
<text text-anchor="start" x="8" y="-23.3" font-family="Times,serif" font-size="14.00"> types = (integer, integer, integer, integer, integer?)</text>
<text text-anchor="start" x="8" y="-8.3" font-family="Times,serif" font-size="14.00"> keys = ()</text>
</g>
<!-- node0&#45;&gt;node2 -->
<g id="edge1" class="edge">
<title>node0&#45;&gt;node2</title>
<path fill="none" stroke="black" d="M236.87,-390.42C240.96,-378.56 245.89,-364.21 251.26,-348.6"/>
<polygon fill="black" stroke="black" points="254.71,-349.32 254.65,-338.72 248.09,-347.04 254.71,-349.32"/>
<text text-anchor="start" x="247.5" y="-360.8" font-family="Times,serif" font-size="14.00">%0</text>
</g>
<!-- node1 -->
<g id="node2" class="node">
<title>node1</title>
<polygon fill="none" stroke="black" points="294.5,-398 294.5,-451 506.5,-451 506.5,-398 294.5,-398"/>
<text text-anchor="start" x="302.5" y="-435.8" font-family="Times,serif" font-size="14.00">Get types.public.u (u129)</text>
<text text-anchor="start" x="302.5" y="-420.8" font-family="Times,serif" font-size="14.00"> types = (integer?, integer)</text>
<text text-anchor="start" x="302.5" y="-405.8" font-family="Times,serif" font-size="14.00"> keys = ()</text>
</g>
<!-- node1&#45;&gt;node2 -->
<g id="edge2" class="edge">
<title>node1&#45;&gt;node2</title>
<path fill="none" stroke="black" d="M391.58,-397.85C387,-384.68 380.98,-367.37 374.3,-348.17"/>
<polygon fill="black" stroke="black" points="377.56,-346.89 370.97,-338.6 370.95,-349.19 377.56,-346.89"/>
<text text-anchor="start" x="380.5" y="-360.8" font-family="Times,serif" font-size="14.00">%1</text>
</g>
</g>
</svg>
