<?xml version="1.0" encoding="UTF-8" standalone="no"?>
<!DOCTYPE svg PUBLIC "-//W3C//DTD SVG 1.1//EN"
 "http://www.w3.org/Graphics/SVG/1.1/DTD/svg11.dtd">
<!-- Generated by graphviz version 2.43.0 (0)
 -->
<!-- Title: G Pages: 1 -->
<svg width="515pt" height="699pt"
 viewBox="0.00 0.00 515.00 699.00" xmlns="http://www.w3.org/2000/svg" xmlns:xlink="http://www.w3.org/1999/xlink">
<g id="graph0" class="graph" transform="scale(1 1) rotate(0) translate(4 695)">
<title>G</title>
<polygon fill="white" stroke="transparent" points="-4,4 -4,-695 511,-695 511,4 -4,4"/>
<!-- node0 -->
<g id="node1" class="node">
<title>node0</title>
<polygon fill="none" stroke="black" points="153,-652.5 153,-690.5 254,-690.5 254,-652.5 153,-652.5"/>
<text text-anchor="start" x="161" y="-675.3" font-family="Times,serif" font-size="14.00">Let l0 =</text>
<text text-anchor="start" x="161" y="-660.3" font-family="Times,serif" font-size="14.00"> Constant ()</text>
</g>
<!-- node2 -->
<g id="node3" class="node">
<title>node2</title>
<polygon fill="none" stroke="black" points="238,-502.5 238,-600.5 507,-600.5 507,-502.5 238,-502.5"/>
<text text-anchor="start" x="246" y="-585.3" font-family="Times,serif" font-size="14.00">Let l1 =</text>
<text text-anchor="start" x="246" y="-570.3" font-family="Times,serif" font-size="14.00"> Join %0 %1</text>
<text text-anchor="start" x="246" y="-555.3" font-family="Times,serif" font-size="14.00"> implementation = Unimplemented</text>
<text text-anchor="start" x="246" y="-540.3" font-family="Times,serif" font-size="14.00"> Project (#1)</text>
<text text-anchor="start" x="246" y="-525.3" font-family="Times,serif" font-size="14.00"> Reduce group=()</text>
<text text-anchor="start" x="246" y="-510.3" font-family="Times,serif" font-size="14.00"> agg min(#0)</text>
</g>
<!-- node0&#45;&gt;node2 -->
<g id="edge11" class="edge">
<title>node0&#45;&gt;node2</title>
<path fill="none" stroke="black" d="M229.54,-652.32C247.26,-639.95 271.72,-622.87 295.39,-606.34"/>
<polygon fill="black" stroke="black" points="297.53,-609.12 303.72,-600.52 293.52,-603.38 297.53,-609.12"/>
<text text-anchor="start" x="273.5" y="-622.8" font-family="Times,serif" font-size="14.00">%0</text>
</g>
<!-- node4 -->
<g id="node5" class="node">
<title>node4</title>
<polygon fill="none" stroke="black" points="149.5,-445.5 149.5,-483.5 295.5,-483.5 295.5,-445.5 149.5,-445.5"/>
<text text-anchor="start" x="157.5" y="-468.3" font-family="Times,serif" font-size="14.00">Get %0 (l0)</text>
<text text-anchor="start" x="157.5" y="-453.3" font-family="Times,serif" font-size="14.00"> Distinct group=()</text>
</g>
<!-- node0&#45;&gt;node4 -->
<g id="edge8" class="edge">
<title>node0&#45;&gt;node4</title>
<path fill="none" stroke="black" d="M205.19,-652.31C208.51,-616.44 215.93,-536.4 219.89,-493.66"/>
<polygon fill="black" stroke="black" points="223.38,-493.93 220.82,-483.65 216.41,-493.29 223.38,-493.93"/>
<text text-anchor="start" x="208.5" y="-622.8" font-family="Times,serif" font-size="14.00">%0</text>
</g>
<!-- node6 -->
<g id="node7" class="node">
<title>node6</title>
<polygon fill="none" stroke="black" points="0,-180.5 0,-233.5 269,-233.5 269,-180.5 0,-180.5"/>
<text text-anchor="start" x="8" y="-218.3" font-family="Times,serif" font-size="14.00">Join %5 %0</text>
<text text-anchor="start" x="8" y="-203.3" font-family="Times,serif" font-size="14.00"> implementation = Unimplemented</text>
<text text-anchor="start" x="8" y="-188.3" font-family="Times,serif" font-size="14.00"> Project ()</text>
</g>
<!-- node0&#45;&gt;node6 -->
<g id="edge7" class="edge">
<title>node0&#45;&gt;node6</title>
<path fill="none" stroke="black" d="M184.65,-652.39C164.22,-630.73 134.5,-592.37 134.5,-552.5 134.5,-552.5 134.5,-552.5 134.5,-302.5 134.5,-283.21 134.5,-261.7 134.5,-244.08"/>
<polygon fill="black" stroke="black" points="138,-243.67 134.5,-233.67 131,-243.67 138,-243.67"/>
<text text-anchor="start" x="134.5" y="-396.3" font-family="Times,serif" font-size="14.00">%0</text>
</g>
<!-- node1 -->
<g id="node2" class="node">
<title>node1</title>
<polygon fill="none" stroke="black" points="272.5,-653.5 272.5,-689.5 476.5,-689.5 476.5,-653.5 272.5,-653.5"/>
<text text-anchor="start" x="280.5" y="-667.8" font-family="Times,serif" font-size="14.00">Get types.public.t1 (u139)</text>
</g>
<!-- node1&#45;&gt;node2 -->
<g id="edge12" class="edge">
<title>node1&#45;&gt;node2</title>
<path fill="none" stroke="black" d="M374.21,-653.34C374.02,-641.96 373.75,-626.31 373.49,-610.72"/>
<polygon fill="black" stroke="black" points="376.98,-610.48 373.31,-600.54 369.98,-610.6 376.98,-610.48"/>
<text text-anchor="start" x="373.5" y="-622.8" font-family="Times,serif" font-size="14.00">%1</text>
</g>
<!-- node3 -->
<g id="node4" class="node">
<title>node3</title>
<polygon fill="none" stroke="black" points="263.5,-373.5 263.5,-426.5 409.5,-426.5 409.5,-373.5 263.5,-373.5"/>
<text text-anchor="start" x="271.5" y="-411.3" font-family="Times,serif" font-size="14.00">Get %2 (l1)</text>
<text text-anchor="start" x="271.5" y="-396.3" font-family="Times,serif" font-size="14.00"> Distinct group=()</text>
<text text-anchor="start" x="271.5" y="-381.3" font-family="Times,serif" font-size="14.00"> Negate</text>
</g>
<!-- node2&#45;&gt;node3 -->
<g id="edge6" class="edge">
<title>node2&#45;&gt;node3</title>
<path fill="none" stroke="black" d="M360.91,-502.37C355.77,-481 349.81,-456.29 345.08,-436.62"/>
<polygon fill="black" stroke="black" points="348.47,-435.74 342.72,-426.84 341.66,-437.38 348.47,-435.74"/>
<text text-anchor="start" x="356.5" y="-460.8" font-family="Times,serif" font-size="14.00">%2</text>
</g>
<!-- node9 -->
<g id="node10" class="node">
<title>node9</title>
<polygon fill="none" stroke="black" points="301,-0.5 301,-38.5 414,-38.5 414,-0.5 301,-0.5"/>
<text text-anchor="start" x="309" y="-23.3" font-family="Times,serif" font-size="14.00">Union %2 %8</text>
<text text-anchor="start" x="309" y="-8.3" font-family="Times,serif" font-size="14.00"> Project (#0)</text>
</g>
<!-- node2&#45;&gt;node9 -->
<g id="edge2" class="edge">
<title>node2&#45;&gt;node9</title>
<path fill="none" stroke="black" d="M405.89,-502.32C422.26,-474.11 438.5,-437.03 438.5,-401 438.5,-401 438.5,-401 438.5,-108.5 438.5,-82.04 418.43,-60.11 398.27,-44.77"/>
<polygon fill="black" stroke="black" points="400.14,-41.8 389.98,-38.8 396.05,-47.49 400.14,-41.8"/>
<text text-anchor="start" x="438.5" y="-255.8" font-family="Times,serif" font-size="14.00">%2</text>
</g>
<!-- node5 -->
<g id="node6" class="node">
<title>node5</title>
<polygon fill="none" stroke="black" points="166,-285.5 166,-321.5 279,-321.5 279,-285.5 166,-285.5"/>
<text text-anchor="start" x="174" y="-299.8" font-family="Times,serif" font-size="14.00">Union %3 %4</text>
</g>
<!-- node3&#45;&gt;node5 -->
<g id="edge1" class="edge">
<title>node3&#45;&gt;node5</title>
<path fill="none" stroke="black" d="M305.65,-373.43C288.65,-359.33 267.69,-341.96 251.06,-328.18"/>
<polygon fill="black" stroke="black" points="253.22,-325.42 243.29,-321.73 248.75,-330.81 253.22,-325.42"/>
<text text-anchor="start" x="283.5" y="-343.8" font-family="Times,serif" font-size="14.00">%3</text>
</g>
<!-- node4&#45;&gt;node5 -->
<g id="edge10" class="edge">
<title>node4&#45;&gt;node5</title>
<path fill="none" stroke="black" d="M222.5,-445.26C222.5,-417.41 222.5,-364.12 222.5,-331.69"/>
<polygon fill="black" stroke="black" points="226,-331.56 222.5,-321.56 219,-331.56 226,-331.56"/>
<text text-anchor="start" x="222.5" y="-396.3" font-family="Times,serif" font-size="14.00">%4</text>
</g>
<!-- node5&#45;&gt;node6 -->
<g id="edge4" class="edge">
<title>node5&#45;&gt;node6</title>
<path fill="none" stroke="black" d="M206.36,-285.17C194.95,-272.92 179.3,-256.11 165.51,-241.3"/>
<polygon fill="black" stroke="black" points="167.88,-238.71 158.51,-233.78 162.76,-243.48 167.88,-238.71"/>
<text text-anchor="start" x="189.5" y="-255.8" font-family="Times,serif" font-size="14.00">%5</text>
</g>
<!-- node8 -->
<g id="node9" class="node">
<title>node8</title>
<polygon fill="none" stroke="black" points="141,-90.5 141,-128.5 410,-128.5 410,-90.5 141,-90.5"/>
<text text-anchor="start" x="149" y="-113.3" font-family="Times,serif" font-size="14.00">Join %6 %7</text>
<text text-anchor="start" x="149" y="-98.3" font-family="Times,serif" font-size="14.00"> implementation = Unimplemented</text>
</g>
<!-- node6&#45;&gt;node8 -->
<g id="edge9" class="edge">
<title>node6&#45;&gt;node8</title>
<path fill="none" stroke="black" d="M172.29,-180.41C193.41,-166.1 219.58,-148.38 240.28,-134.36"/>
<polygon fill="black" stroke="black" points="242.47,-137.1 248.78,-128.6 238.54,-131.31 242.47,-137.1"/>
<text text-anchor="start" x="218.5" y="-150.8" font-family="Times,serif" font-size="14.00">%6</text>
</g>
<!-- node7 -->
<g id="node8" class="node">
<title>node7</title>
<polygon fill="none" stroke="black" points="287,-189 287,-225 410,-225 410,-189 287,-189"/>
<text text-anchor="start" x="295" y="-203.3" font-family="Times,serif" font-size="14.00">Constant (null)</text>
</g>
<!-- node7&#45;&gt;node8 -->
<g id="edge5" class="edge">
<title>node7&#45;&gt;node8</title>
<path fill="none" stroke="black" d="M335.45,-188.93C324.41,-174.49 308.42,-153.56 295.73,-136.96"/>
<polygon fill="black" stroke="black" points="298.29,-134.55 289.43,-128.73 292.72,-138.8 298.29,-134.55"/>
<text text-anchor="start" x="314.5" y="-150.8" font-family="Times,serif" font-size="14.00">%7</text>
</g>
<!-- node8&#45;&gt;node9 -->
<g id="edge3" class="edge">
<title>node8&#45;&gt;node9</title>
<path fill="none" stroke="black" d="M292.49,-90.27C304.36,-77.52 320.39,-60.33 333.55,-46.2"/>
<polygon fill="black" stroke="black" points="336.27,-48.41 340.53,-38.71 331.15,-43.64 336.27,-48.41"/>
<text text-anchor="start" x="321.5" y="-60.8" font-family="Times,serif" font-size="14.00">%8</text>
</g>
</g>
</svg>
