<?xml version="1.0" encoding="UTF-8" standalone="no"?>
<!DOCTYPE svg PUBLIC "-//W3C//DTD SVG 1.1//EN"
 "http://www.w3.org/Graphics/SVG/1.1/DTD/svg11.dtd">
<!-- Generated by graphviz version 2.43.0 (0)
 -->
<!-- Title: G Pages: 1 -->
<svg width="263pt" height="375pt"
 viewBox="0.00 0.00 263.00 375.00" xmlns="http://www.w3.org/2000/svg" xmlns:xlink="http://www.w3.org/1999/xlink">
<g id="graph0" class="graph" transform="scale(1 1) rotate(0) translate(4 371)">
<title>G</title>
<polygon fill="white" stroke="transparent" points="-4,4 -4,-371 259,-371 259,4 -4,4"/>
<!-- node0 -->
<g id="node1" class="node">
<title>node0</title>
<polygon fill="none" stroke="black" points="40.5,-283.5 40.5,-366.5 249.5,-366.5 249.5,-283.5 40.5,-283.5"/>
<text text-anchor="start" x="48.5" y="-351.3" font-family="Times,serif" font-size="14.00">Let l0 =</text>
<text text-anchor="start" x="48.5" y="-336.3" font-family="Times,serif" font-size="14.00"> Get types.public.t1 (u139)</text>
<text text-anchor="start" x="48.5" y="-321.3" font-family="Times,serif" font-size="14.00"> Project (#1)</text>
<text text-anchor="start" x="48.5" y="-306.3" font-family="Times,serif" font-size="14.00"> Reduce group=()</text>
<text text-anchor="start" x="48.5" y="-291.3" font-family="Times,serif" font-size="14.00"> agg min(#0)</text>
</g>
<!-- node1 -->
<g id="node2" class="node">
<title>node1</title>
<polygon fill="none" stroke="black" points="0,-178.5 0,-231.5 98,-231.5 98,-178.5 0,-178.5"/>
<text text-anchor="start" x="8" y="-216.3" font-family="Times,serif" font-size="14.00">Get %0 (l0)</text>
<text text-anchor="start" x="8" y="-201.3" font-family="Times,serif" font-size="14.00"> Project ()</text>
<text text-anchor="start" x="8" y="-186.3" font-family="Times,serif" font-size="14.00"> Negate</text>
</g>
<!-- node0&#45;&gt;node1 -->
<g id="edge1" class="edge">
<title>node0&#45;&gt;node1</title>
<path fill="none" stroke="black" d="M111.96,-283.39C100.26,-269.01 87.25,-253.02 76.1,-239.31"/>
<polygon fill="black" stroke="black" points="78.81,-237.09 69.78,-231.54 73.38,-241.51 78.81,-237.09"/>
<text text-anchor="start" x="97" y="-253.8" font-family="Times,serif" font-size="14.00">%0</text>
</g>
<!-- node4 -->
<g id="node5" class="node">
<title>node4</title>
<polygon fill="none" stroke="black" points="141.5,-0.5 141.5,-36.5 254.5,-36.5 254.5,-0.5 141.5,-0.5"/>
<text text-anchor="start" x="149.5" y="-14.8" font-family="Times,serif" font-size="14.00">Union %0 %3</text>
</g>
<!-- node0&#45;&gt;node4 -->
<g id="edge5" class="edge">
<title>node0&#45;&gt;node4</title>
<path fill="none" stroke="black" d="M188.66,-283.5C201.64,-268.7 214.2,-250.91 221,-232 242.66,-171.78 231.32,-151.16 221,-88 218.67,-73.74 213.78,-58.44 209.1,-45.93"/>
<polygon fill="black" stroke="black" points="212.35,-44.61 205.45,-36.56 205.82,-47.15 212.35,-44.61"/>
<text text-anchor="start" x="232" y="-148.8" font-family="Times,serif" font-size="14.00">%0</text>
</g>
<!-- node3 -->
<g id="node4" class="node">
<title>node3</title>
<polygon fill="none" stroke="black" points="98.5,-88.5 98.5,-126.5 211.5,-126.5 211.5,-88.5 98.5,-88.5"/>
<text text-anchor="start" x="106.5" y="-111.3" font-family="Times,serif" font-size="14.00">Union %1 %2</text>
<text text-anchor="start" x="106.5" y="-96.3" font-family="Times,serif" font-size="14.00"> Map null</text>
</g>
<!-- node1&#45;&gt;node3 -->
<g id="edge2" class="edge">
<title>node1&#45;&gt;node3</title>
<path fill="none" stroke="black" d="M77.41,-178.41C92.86,-164.48 111.91,-147.32 127.26,-133.49"/>
<polygon fill="black" stroke="black" points="129.83,-135.89 134.91,-126.6 125.14,-130.69 129.83,-135.89"/>
<text text-anchor="start" x="112" y="-148.8" font-family="Times,serif" font-size="14.00">%1</text>
</g>
<!-- node2 -->
<g id="node3" class="node">
<title>node2</title>
<polygon fill="none" stroke="black" points="116,-187 116,-223 212,-223 212,-187 116,-187"/>
<text text-anchor="start" x="124" y="-201.3" font-family="Times,serif" font-size="14.00">Constant ()</text>
</g>
<!-- node2&#45;&gt;node3 -->
<g id="edge3" class="edge">
<title>node2&#45;&gt;node3</title>
<path fill="none" stroke="black" d="M162.39,-186.93C161.08,-173.02 159.2,-153.09 157.67,-136.8"/>
<polygon fill="black" stroke="black" points="161.14,-136.35 156.72,-126.73 154.17,-137.01 161.14,-136.35"/>
<text text-anchor="start" x="159" y="-148.8" font-family="Times,serif" font-size="14.00">%2</text>
</g>
<!-- node3&#45;&gt;node4 -->
<g id="edge4" class="edge">
<title>node3&#45;&gt;node4</title>
<path fill="none" stroke="black" d="M163.91,-88.47C170.03,-76.1 178.24,-59.48 185.07,-45.65"/>
<polygon fill="black" stroke="black" points="188.25,-47.13 189.54,-36.62 181.97,-44.03 188.25,-47.13"/>
<text text-anchor="start" x="180" y="-58.8" font-family="Times,serif" font-size="14.00">%3</text>
</g>
</g>
</svg>
