<?xml version="1.0" encoding="UTF-8" standalone="no"?>
<!DOCTYPE svg PUBLIC "-//W3C//DTD SVG 1.1//EN"
 "http://www.w3.org/Graphics/SVG/1.1/DTD/svg11.dtd">
<!-- Generated by graphviz version 2.43.0 (0)
 -->
<!-- Title: G Pages: 1 -->
<svg width="570pt" height="496pt"
 viewBox="0.00 0.00 570.00 496.28" xmlns="http://www.w3.org/2000/svg" xmlns:xlink="http://www.w3.org/1999/xlink">
<g id="graph0" class="graph" transform="scale(1 1) rotate(0) translate(4 492.28)">
<title>G</title>
<polygon fill="white" stroke="transparent" points="-4,4 -4,-492.28 566,-492.28 566,4 -4,4"/>
<g id="clust1" class="cluster">
<title>cluster3</title>
<polygon fill="none" stroke="black" points="300,-367.19 300,-480.28 554,-480.28 554,-367.19 300,-367.19"/>
<text text-anchor="middle" x="350.5" y="-465.08" font-family="Times,serif" font-size="14.00">Box3:Select</text>
</g>
<g id="clust3" class="cluster">
<title>cluster2</title>
<polygon fill="none" stroke="black" points="172,-246.09 172,-359.19 426,-359.19 426,-246.09 172,-246.09"/>
<text text-anchor="middle" x="234" y="-343.99" font-family="Times,serif" font-size="14.00">Box2:Grouping</text>
</g>
<g id="clust5" class="cluster">
<title>cluster1</title>
<polygon fill="none" stroke="black" points="44,-125 44,-238.09 298,-238.09 298,-125 44,-125"/>
<text text-anchor="middle" x="94.5" y="-222.89" font-family="Times,serif" font-size="14.00">Box1:Select</text>
</g>
<g id="clust7" class="cluster">
<title>cluster0</title>
<polygon fill="none" stroke="black" points="8,-8 8,-117 170,-117 170,-8 8,-8"/>
<text text-anchor="middle" x="49.5" y="-101.8" font-family="Times,serif" font-size="14.00">Box0:Get</text>
</g>
<!-- boxhead3 -->
<g id="node1" class="node">
<title>boxhead3</title>
<polygon fill="none" stroke="black" points="400,-389.23 400,-435.23 546,-435.23 546,-389.23 400,-389.23"/>
<text text-anchor="middle" x="473" y="-420.03" font-family="Times,serif" font-size="14.00">Distinct: Preserve</text>
<polyline fill="none" stroke="black" points="400,-412.23 546,-412.23 "/>
<text text-anchor="middle" x="473" y="-397.03" font-family="Times,serif" font-size="14.00">0: Q2.C0</text>
</g>
<!-- Q2 -->
<g id="node2" class="node">
<title>Q2</title>
<ellipse fill="none" stroke="black" cx="345" cy="-412.23" rx="37.09" ry="37.09"/>
<text text-anchor="middle" x="345" y="-408.53" font-family="Times,serif" font-size="14.00">Q2(F)</text>
</g>
<!-- boxhead2 -->
<g id="node3" class="node">
<title>boxhead2</title>
<polygon fill="none" stroke="black" points="272,-268.14 272,-314.14 418,-314.14 418,-268.14 272,-268.14"/>
<text text-anchor="middle" x="345" y="-298.94" font-family="Times,serif" font-size="14.00">Distinct: Preserve</text>
<polyline fill="none" stroke="black" points="272,-291.14 418,-291.14 "/>
<text text-anchor="middle" x="345" y="-275.94" font-family="Times,serif" font-size="14.00">0: min(Q1.C0)</text>
</g>
<!-- Q2&#45;&gt;boxhead2 -->
<g id="edge1" class="edge">
<title>Q2&#45;&gt;boxhead2</title>
<path fill="none" stroke="black" stroke-dasharray="5,2" d="M345,-375.18C345,-370.06 345,-364.67 345,-359.19"/>
</g>
<!-- Q1 -->
<g id="node4" class="node">
<title>Q1</title>
<ellipse fill="none" stroke="black" cx="217" cy="-291.14" rx="37.09" ry="37.09"/>
<text text-anchor="middle" x="217" y="-287.44" font-family="Times,serif" font-size="14.00">Q1(F)</text>
</g>
<!-- boxhead1 -->
<g id="node5" class="node">
<title>boxhead1</title>
<polygon fill="none" stroke="black" points="144,-147.05 144,-193.05 290,-193.05 290,-147.05 144,-147.05"/>
<text text-anchor="middle" x="217" y="-177.85" font-family="Times,serif" font-size="14.00">Distinct: Preserve</text>
<polyline fill="none" stroke="black" points="144,-170.05 290,-170.05 "/>
<text text-anchor="middle" x="217" y="-154.85" font-family="Times,serif" font-size="14.00">0: Q0.C1</text>
</g>
<!-- Q1&#45;&gt;boxhead1 -->
<g id="edge2" class="edge">
<title>Q1&#45;&gt;boxhead1</title>
<path fill="none" stroke="black" stroke-dasharray="5,2" d="M217,-254.08C217,-248.97 217,-243.57 217,-238.09"/>
</g>
<!-- Q0 -->
<g id="node6" class="node">
<title>Q0</title>
<ellipse fill="none" stroke="black" cx="89" cy="-170.05" rx="37.09" ry="37.09"/>
<text text-anchor="middle" x="89" y="-166.35" font-family="Times,serif" font-size="14.00">Q0(F)</text>
</g>
<!-- boxhead0 -->
<g id="node7" class="node">
<title>boxhead0</title>
<polygon fill="none" stroke="black" points="16,-16.5 16,-85.5 162,-85.5 162,-16.5 16,-16.5"/>
<text text-anchor="middle" x="89" y="-70.3" font-family="Times,serif" font-size="14.00">Distinct: Preserve</text>
<polyline fill="none" stroke="black" points="16,-62.5 162,-62.5 "/>
<text text-anchor="middle" x="89" y="-47.3" font-family="Times,serif" font-size="14.00">0: C0</text>
<polyline fill="none" stroke="black" points="16,-39.5 162,-39.5 "/>
<text text-anchor="middle" x="89" y="-24.3" font-family="Times,serif" font-size="14.00">1: C1</text>
</g>
<!-- Q0&#45;&gt;boxhead0 -->
<g id="edge3" class="edge">
<title>Q0&#45;&gt;boxhead0</title>
<path fill="none" stroke="black" stroke-dasharray="5,2" d="M89,-132.97C89,-127.85 89,-122.46 89,-117"/>
</g>
</g>
</svg>
