<?xml version="1.0" encoding="UTF-8" standalone="no"?>
<!DOCTYPE svg PUBLIC "-//W3C//DTD SVG 1.1//EN"
 "http://www.w3.org/Graphics/SVG/1.1/DTD/svg11.dtd">
<!-- Generated by graphviz version 2.43.0 (0)
 -->
<!-- Title: G Pages: 1 -->
<svg width="521pt" height="1136pt"
 viewBox="0.00 0.00 521.00 1136.00" xmlns="http://www.w3.org/2000/svg" xmlns:xlink="http://www.w3.org/1999/xlink">
<g id="graph0" class="graph" transform="scale(1 1) rotate(0) translate(4 1132)">
<title>G</title>
<polygon fill="white" stroke="transparent" points="-4,4 -4,-1132 517,-1132 517,4 -4,4"/>
<!-- node0 -->
<g id="node1" class="node">
<title>node0</title>
<polygon fill="none" stroke="black" points="156,-1059.5 156,-1127.5 257,-1127.5 257,-1059.5 156,-1059.5"/>
<text text-anchor="start" x="164" y="-1112.3" font-family="Times,serif" font-size="14.00">Let l0 =</text>
<text text-anchor="start" x="164" y="-1097.3" font-family="Times,serif" font-size="14.00"> Constant ()</text>
<text text-anchor="start" x="164" y="-1082.3" font-family="Times,serif" font-size="14.00"> types = ()</text>
<text text-anchor="start" x="164" y="-1067.3" font-family="Times,serif" font-size="14.00"> keys = (())</text>
</g>
<!-- node2 -->
<g id="node3" class="node">
<title>node2</title>
<polygon fill="none" stroke="black" points="244,-819.5 244,-1007.5 513,-1007.5 513,-819.5 244,-819.5"/>
<text text-anchor="start" x="252" y="-992.3" font-family="Times,serif" font-size="14.00">Let l1 =</text>
<text text-anchor="start" x="252" y="-977.3" font-family="Times,serif" font-size="14.00"> Join %0 %1</text>
<text text-anchor="start" x="252" y="-962.3" font-family="Times,serif" font-size="14.00"> implementation = Unimplemented</text>
<text text-anchor="start" x="252" y="-947.3" font-family="Times,serif" font-size="14.00"> types = (integer?, integer)</text>
<text text-anchor="start" x="252" y="-932.3" font-family="Times,serif" font-size="14.00"> keys = ()</text>
<text text-anchor="start" x="252" y="-917.3" font-family="Times,serif" font-size="14.00"> Project (#1)</text>
<text text-anchor="start" x="252" y="-902.3" font-family="Times,serif" font-size="14.00"> types = (integer)</text>
<text text-anchor="start" x="252" y="-887.3" font-family="Times,serif" font-size="14.00"> keys = ()</text>
<text text-anchor="start" x="252" y="-872.3" font-family="Times,serif" font-size="14.00"> Reduce group=()</text>
<text text-anchor="start" x="252" y="-857.3" font-family="Times,serif" font-size="14.00"> agg min(#0)</text>
<text text-anchor="start" x="252" y="-842.3" font-family="Times,serif" font-size="14.00"> types = (integer)</text>
<text text-anchor="start" x="252" y="-827.3" font-family="Times,serif" font-size="14.00"> keys = (())</text>
</g>
<!-- node0&#45;&gt;node2 -->
<g id="edge11" class="edge">
<title>node0&#45;&gt;node2</title>
<path fill="none" stroke="black" d="M238.45,-1059.44C250.92,-1046.53 265.94,-1030.99 281.44,-1014.94"/>
<polygon fill="black" stroke="black" points="284.16,-1017.17 288.59,-1007.54 279.13,-1012.3 284.16,-1017.17"/>
<text text-anchor="start" x="267.5" y="-1029.8" font-family="Times,serif" font-size="14.00">%0</text>
</g>
<!-- node4 -->
<g id="node5" class="node">
<title>node4</title>
<polygon fill="none" stroke="black" points="149.5,-702.5 149.5,-800.5 295.5,-800.5 295.5,-702.5 149.5,-702.5"/>
<text text-anchor="start" x="157.5" y="-785.3" font-family="Times,serif" font-size="14.00">Get %0 (l0)</text>
<text text-anchor="start" x="157.5" y="-770.3" font-family="Times,serif" font-size="14.00"> types = ()</text>
<text text-anchor="start" x="157.5" y="-755.3" font-family="Times,serif" font-size="14.00"> keys = (())</text>
<text text-anchor="start" x="157.5" y="-740.3" font-family="Times,serif" font-size="14.00"> Distinct group=()</text>
<text text-anchor="start" x="157.5" y="-725.3" font-family="Times,serif" font-size="14.00"> types = ()</text>
<text text-anchor="start" x="157.5" y="-710.3" font-family="Times,serif" font-size="14.00"> keys = (())</text>
</g>
<!-- node0&#45;&gt;node4 -->
<g id="edge8" class="edge">
<title>node0&#45;&gt;node4</title>
<path fill="none" stroke="black" d="M208.06,-1059.28C210.77,-1001.71 216.37,-882.69 219.75,-811"/>
<polygon fill="black" stroke="black" points="223.25,-810.93 220.23,-800.78 216.26,-810.6 223.25,-810.93"/>
<text text-anchor="start" x="209.5" y="-1029.8" font-family="Times,serif" font-size="14.00">%0</text>
</g>
<!-- node6 -->
<g id="node7" class="node">
<title>node6</title>
<polygon fill="none" stroke="black" points="0,-270.5 0,-383.5 269,-383.5 269,-270.5 0,-270.5"/>
<text text-anchor="start" x="8" y="-368.3" font-family="Times,serif" font-size="14.00">Join %5 %0</text>
<text text-anchor="start" x="8" y="-353.3" font-family="Times,serif" font-size="14.00"> implementation = Unimplemented</text>
<text text-anchor="start" x="8" y="-338.3" font-family="Times,serif" font-size="14.00"> types = ()</text>
<text text-anchor="start" x="8" y="-323.3" font-family="Times,serif" font-size="14.00"> keys = ()</text>
<text text-anchor="start" x="8" y="-308.3" font-family="Times,serif" font-size="14.00"> Project ()</text>
<text text-anchor="start" x="8" y="-293.3" font-family="Times,serif" font-size="14.00"> types = ()</text>
<text text-anchor="start" x="8" y="-278.3" font-family="Times,serif" font-size="14.00"> keys = ()</text>
</g>
<!-- node0&#45;&gt;node6 -->
<g id="edge7" class="edge">
<title>node0&#45;&gt;node6</title>
<path fill="none" stroke="black" d="M184.11,-1059.33C162.98,-1024.74 134.5,-968.17 134.5,-914.5 134.5,-914.5 134.5,-914.5 134.5,-461 134.5,-439.17 134.5,-415.33 134.5,-393.94"/>
<polygon fill="black" stroke="black" points="138,-393.65 134.5,-383.65 131,-393.65 138,-393.65"/>
<text text-anchor="start" x="134.5" y="-608.3" font-family="Times,serif" font-size="14.00">%0</text>
</g>
<!-- node1 -->
<g id="node2" class="node">
<title>node1</title>
<polygon fill="none" stroke="black" points="275.5,-1067 275.5,-1120 487.5,-1120 487.5,-1067 275.5,-1067"/>
<text text-anchor="start" x="283.5" y="-1104.8" font-family="Times,serif" font-size="14.00">Get types.public.t1 (u139)</text>
<text text-anchor="start" x="283.5" y="-1089.8" font-family="Times,serif" font-size="14.00"> types = (integer?, integer)</text>
<text text-anchor="start" x="283.5" y="-1074.8" font-family="Times,serif" font-size="14.00"> keys = ()</text>
</g>
<!-- node1&#45;&gt;node2 -->
<g id="edge12" class="edge">
<title>node1&#45;&gt;node2</title>
<path fill="none" stroke="black" d="M381.07,-1067C380.84,-1053.61 380.55,-1036.23 380.24,-1018.02"/>
<polygon fill="black" stroke="black" points="383.74,-1017.77 380.07,-1007.84 376.74,-1017.89 383.74,-1017.77"/>
<text text-anchor="start" x="380.5" y="-1029.8" font-family="Times,serif" font-size="14.00">%1</text>
</g>
<!-- node3 -->
<g id="node4" class="node">
<title>node3</title>
<polygon fill="none" stroke="black" points="275.5,-540.5 275.5,-683.5 421.5,-683.5 421.5,-540.5 275.5,-540.5"/>
<text text-anchor="start" x="283.5" y="-668.3" font-family="Times,serif" font-size="14.00">Get %2 (l1)</text>
<text text-anchor="start" x="283.5" y="-653.3" font-family="Times,serif" font-size="14.00"> types = (integer)</text>
<text text-anchor="start" x="283.5" y="-638.3" font-family="Times,serif" font-size="14.00"> keys = (())</text>
<text text-anchor="start" x="283.5" y="-623.3" font-family="Times,serif" font-size="14.00"> Distinct group=()</text>
<text text-anchor="start" x="283.5" y="-608.3" font-family="Times,serif" font-size="14.00"> types = ()</text>
<text text-anchor="start" x="283.5" y="-593.3" font-family="Times,serif" font-size="14.00"> keys = (())</text>
<text text-anchor="start" x="283.5" y="-578.3" font-family="Times,serif" font-size="14.00"> Negate</text>
<text text-anchor="start" x="283.5" y="-563.3" font-family="Times,serif" font-size="14.00"> types = ()</text>
<text text-anchor="start" x="283.5" y="-548.3" font-family="Times,serif" font-size="14.00"> keys = ()</text>
</g>
<!-- node2&#45;&gt;node3 -->
<g id="edge6" class="edge">
<title>node2&#45;&gt;node3</title>
<path fill="none" stroke="black" d="M369.17,-819.38C365.15,-779.18 360.48,-732.6 356.6,-693.88"/>
<polygon fill="black" stroke="black" points="360.06,-693.3 355.58,-683.7 353.1,-693.99 360.06,-693.3"/>
<text text-anchor="start" x="367.5" y="-747.8" font-family="Times,serif" font-size="14.00">%2</text>
</g>
<!-- node9 -->
<g id="node10" class="node">
<title>node9</title>
<polygon fill="none" stroke="black" points="310,-0.5 310,-98.5 461,-98.5 461,-0.5 310,-0.5"/>
<text text-anchor="start" x="318" y="-83.3" font-family="Times,serif" font-size="14.00">Union %2 %8</text>
<text text-anchor="start" x="318" y="-68.3" font-family="Times,serif" font-size="14.00"> types = (integer?)</text>
<text text-anchor="start" x="318" y="-53.3" font-family="Times,serif" font-size="14.00"> keys = ()</text>
<text text-anchor="start" x="318" y="-38.3" font-family="Times,serif" font-size="14.00"> Project (#0)</text>
<text text-anchor="start" x="318" y="-23.3" font-family="Times,serif" font-size="14.00"> types = (integer?)</text>
<text text-anchor="start" x="318" y="-8.3" font-family="Times,serif" font-size="14.00"> keys = ()</text>
</g>
<!-- node2&#45;&gt;node9 -->
<g id="edge2" class="edge">
<title>node2&#45;&gt;node9</title>
<path fill="none" stroke="black" d="M420.7,-819.46C443.28,-761.34 466.5,-684.27 466.5,-613 466.5,-613 466.5,-613 466.5,-183.5 466.5,-155.93 453.65,-129.22 438.18,-107.06"/>
<polygon fill="black" stroke="black" points="440.87,-104.81 432.15,-98.8 435.22,-108.94 440.87,-104.81"/>
<text text-anchor="start" x="466.5" y="-405.8" font-family="Times,serif" font-size="14.00">%2</text>
</g>
<!-- node5 -->
<g id="node6" class="node">
<title>node5</title>
<polygon fill="none" stroke="black" points="166,-435.5 166,-488.5 279,-488.5 279,-435.5 166,-435.5"/>
<text text-anchor="start" x="174" y="-473.3" font-family="Times,serif" font-size="14.00">Union %3 %4</text>
<text text-anchor="start" x="174" y="-458.3" font-family="Times,serif" font-size="14.00"> types = ()</text>
<text text-anchor="start" x="174" y="-443.3" font-family="Times,serif" font-size="14.00"> keys = ()</text>
</g>
<!-- node3&#45;&gt;node5 -->
<g id="edge1" class="edge">
<title>node3&#45;&gt;node5</title>
<path fill="none" stroke="black" d="M288.45,-540.47C275.43,-525.18 262.25,-509.69 251.12,-496.62"/>
<polygon fill="black" stroke="black" points="253.63,-494.17 244.48,-488.82 248.3,-498.71 253.63,-494.17"/>
<text text-anchor="start" x="271.5" y="-510.8" font-family="Times,serif" font-size="14.00">%3</text>
</g>
<!-- node4&#45;&gt;node5 -->
<g id="edge10" class="edge">
<title>node4&#45;&gt;node5</title>
<path fill="none" stroke="black" d="M222.5,-702.38C222.5,-644.92 222.5,-550.16 222.5,-498.79"/>
<polygon fill="black" stroke="black" points="226,-498.52 222.5,-488.52 219,-498.52 226,-498.52"/>
<text text-anchor="start" x="222.5" y="-608.3" font-family="Times,serif" font-size="14.00">%4</text>
</g>
<!-- node5&#45;&gt;node6 -->
<g id="edge4" class="edge">
<title>node5&#45;&gt;node6</title>
<path fill="none" stroke="black" d="M205.53,-435.36C197.32,-422.94 187.04,-407.41 176.89,-392.06"/>
<polygon fill="black" stroke="black" points="179.71,-389.98 171.27,-383.57 173.87,-393.84 179.71,-389.98"/>
<text text-anchor="start" x="192.5" y="-405.8" font-family="Times,serif" font-size="14.00">%5</text>
</g>
<!-- node8 -->
<g id="node9" class="node">
<title>node8</title>
<polygon fill="none" stroke="black" points="169,-150.5 169,-218.5 438,-218.5 438,-150.5 169,-150.5"/>
<text text-anchor="start" x="177" y="-203.3" font-family="Times,serif" font-size="14.00">Join %6 %7</text>
<text text-anchor="start" x="177" y="-188.3" font-family="Times,serif" font-size="14.00"> implementation = Unimplemented</text>
<text text-anchor="start" x="177" y="-173.3" font-family="Times,serif" font-size="14.00"> types = (integer?)</text>
<text text-anchor="start" x="177" y="-158.3" font-family="Times,serif" font-size="14.00"> keys = ()</text>
</g>
<!-- node6&#45;&gt;node8 -->
<g id="edge9" class="edge">
<title>node6&#45;&gt;node8</title>
<path fill="none" stroke="black" d="M201.29,-270.47C219.37,-255.44 238.58,-239.47 255.41,-225.48"/>
<polygon fill="black" stroke="black" points="258.01,-227.87 263.46,-218.79 253.54,-222.49 258.01,-227.87"/>
<text text-anchor="start" x="239.5" y="-240.8" font-family="Times,serif" font-size="14.00">%6</text>
</g>
<!-- node7 -->
<g id="node8" class="node">
<title>node7</title>
<polygon fill="none" stroke="black" points="287,-300.5 287,-353.5 438,-353.5 438,-300.5 287,-300.5"/>
<text text-anchor="start" x="295" y="-338.3" font-family="Times,serif" font-size="14.00">Constant (null)</text>
<text text-anchor="start" x="295" y="-323.3" font-family="Times,serif" font-size="14.00"> types = (integer?)</text>
<text text-anchor="start" x="295" y="-308.3" font-family="Times,serif" font-size="14.00"> keys = (())</text>
</g>
<!-- node7&#45;&gt;node8 -->
<g id="edge5" class="edge">
<title>node7&#45;&gt;node8</title>
<path fill="none" stroke="black" d="M351.68,-300.23C343.2,-280.04 331.22,-251.52 321.33,-227.96"/>
<polygon fill="black" stroke="black" points="324.48,-226.41 317.38,-218.55 318.02,-229.12 324.48,-226.41"/>
<text text-anchor="start" x="331.5" y="-240.8" font-family="Times,serif" font-size="14.00">%7</text>
</g>
<!-- node8&#45;&gt;node9 -->
<g id="edge3" class="edge">
<title>node8&#45;&gt;node9</title>
<path fill="none" stroke="black" d="M323.98,-150.28C332.03,-137.23 341.5,-121.86 350.57,-107.16"/>
<polygon fill="black" stroke="black" points="353.58,-108.95 355.85,-98.6 347.62,-105.27 353.58,-108.95"/>
<text text-anchor="start" x="344.5" y="-120.8" font-family="Times,serif" font-size="14.00">%8</text>
</g>
</g>
</svg>
