<?xml version="1.0" encoding="UTF-8" standalone="no"?>
<!DOCTYPE svg PUBLIC "-//W3C//DTD SVG 1.1//EN"
 "http://www.w3.org/Graphics/SVG/1.1/DTD/svg11.dtd">
<!-- Generated by graphviz version 2.43.0 (0)
 -->
<!-- Title: G Pages: 1 -->
<svg width="320pt" height="632pt"
 viewBox="0.00 0.00 319.50 632.00" xmlns="http://www.w3.org/2000/svg" xmlns:xlink="http://www.w3.org/1999/xlink">
<g id="graph0" class="graph" transform="scale(1 1) rotate(0) translate(4 628)">
<title>G</title>
<polygon fill="white" stroke="transparent" points="-4,4 -4,-628 315.5,-628 315.5,4 -4,4"/>
<!-- node0 -->
<g id="node1" class="node">
<title>node0</title>
<polygon fill="none" stroke="black" points="72.5,-450.5 72.5,-623.5 284.5,-623.5 284.5,-450.5 72.5,-450.5"/>
<text text-anchor="start" x="80.5" y="-608.3" font-family="Times,serif" font-size="14.00">Let l0 =</text>
<text text-anchor="start" x="80.5" y="-593.3" font-family="Times,serif" font-size="14.00"> Get types.public.t1 (u139)</text>
<text text-anchor="start" x="80.5" y="-578.3" font-family="Times,serif" font-size="14.00"> types = (integer?, integer)</text>
<text text-anchor="start" x="80.5" y="-563.3" font-family="Times,serif" font-size="14.00"> keys = ()</text>
<text text-anchor="start" x="80.5" y="-548.3" font-family="Times,serif" font-size="14.00"> Project (#1)</text>
<text text-anchor="start" x="80.5" y="-533.3" font-family="Times,serif" font-size="14.00"> types = (integer)</text>
<text text-anchor="start" x="80.5" y="-518.3" font-family="Times,serif" font-size="14.00"> keys = ()</text>
<text text-anchor="start" x="80.5" y="-503.3" font-family="Times,serif" font-size="14.00"> Reduce group=()</text>
<text text-anchor="start" x="80.5" y="-488.3" font-family="Times,serif" font-size="14.00"> agg min(#0)</text>
<text text-anchor="start" x="80.5" y="-473.3" font-family="Times,serif" font-size="14.00"> types = (integer)</text>
<text text-anchor="start" x="80.5" y="-458.3" font-family="Times,serif" font-size="14.00"> keys = (())</text>
</g>
<!-- node1 -->
<g id="node2" class="node">
<title>node1</title>
<polygon fill="none" stroke="black" points="0,-255.5 0,-398.5 143,-398.5 143,-255.5 0,-255.5"/>
<text text-anchor="start" x="8" y="-383.3" font-family="Times,serif" font-size="14.00">Get %0 (l0)</text>
<text text-anchor="start" x="8" y="-368.3" font-family="Times,serif" font-size="14.00"> types = (integer)</text>
<text text-anchor="start" x="8" y="-353.3" font-family="Times,serif" font-size="14.00"> keys = (())</text>
<text text-anchor="start" x="8" y="-338.3" font-family="Times,serif" font-size="14.00"> Project ()</text>
<text text-anchor="start" x="8" y="-323.3" font-family="Times,serif" font-size="14.00"> types = ()</text>
<text text-anchor="start" x="8" y="-308.3" font-family="Times,serif" font-size="14.00"> keys = (())</text>
<text text-anchor="start" x="8" y="-293.3" font-family="Times,serif" font-size="14.00"> Negate</text>
<text text-anchor="start" x="8" y="-278.3" font-family="Times,serif" font-size="14.00"> types = ()</text>
<text text-anchor="start" x="8" y="-263.3" font-family="Times,serif" font-size="14.00"> keys = ()</text>
</g>
<!-- node0&#45;&gt;node1 -->
<g id="edge1" class="edge">
<title>node0&#45;&gt;node1</title>
<path fill="none" stroke="black" d="M134.52,-450.5C127.23,-436.34 119.71,-421.72 112.51,-407.71"/>
<polygon fill="black" stroke="black" points="115.51,-405.9 107.82,-398.61 109.28,-409.1 115.51,-405.9"/>
<text text-anchor="start" x="125.5" y="-420.8" font-family="Times,serif" font-size="14.00">%0</text>
</g>
<!-- node4 -->
<g id="node5" class="node">
<title>node4</title>
<polygon fill="none" stroke="black" points="158,-0.5 158,-53.5 309,-53.5 309,-0.5 158,-0.5"/>
<text text-anchor="start" x="166" y="-38.3" font-family="Times,serif" font-size="14.00">Union %0 %3</text>
<text text-anchor="start" x="166" y="-23.3" font-family="Times,serif" font-size="14.00"> types = (integer?)</text>
<text text-anchor="start" x="166" y="-8.3" font-family="Times,serif" font-size="14.00"> keys = ()</text>
</g>
<!-- node0&#45;&gt;node4 -->
<g id="edge5" class="edge">
<title>node0&#45;&gt;node4</title>
<path fill="none" stroke="black" d="M243.72,-450.45C253.11,-434.14 261.33,-416.63 266.5,-399 303.3,-273.62 292.77,-233 266.5,-105 263.56,-90.7 257.85,-75.77 252,-62.9"/>
<polygon fill="black" stroke="black" points="254.99,-61.04 247.54,-53.51 248.67,-64.05 254.99,-61.04"/>
<text text-anchor="start" x="288.5" y="-225.8" font-family="Times,serif" font-size="14.00">%0</text>
</g>
<!-- node3 -->
<g id="node4" class="node">
<title>node3</title>
<polygon fill="none" stroke="black" points="106,-105.5 106,-203.5 257,-203.5 257,-105.5 106,-105.5"/>
<text text-anchor="start" x="114" y="-188.3" font-family="Times,serif" font-size="14.00">Union %1 %2</text>
<text text-anchor="start" x="114" y="-173.3" font-family="Times,serif" font-size="14.00"> types = ()</text>
<text text-anchor="start" x="114" y="-158.3" font-family="Times,serif" font-size="14.00"> keys = ()</text>
<text text-anchor="start" x="114" y="-143.3" font-family="Times,serif" font-size="14.00"> Map null</text>
<text text-anchor="start" x="114" y="-128.3" font-family="Times,serif" font-size="14.00"> types = (integer?)</text>
<text text-anchor="start" x="114" y="-113.3" font-family="Times,serif" font-size="14.00"> keys = ()</text>
</g>
<!-- node1&#45;&gt;node3 -->
<g id="edge2" class="edge">
<title>node1&#45;&gt;node3</title>
<path fill="none" stroke="black" d="M117.19,-255.17C126.48,-240.78 136.13,-225.82 145.05,-212"/>
<polygon fill="black" stroke="black" points="148.02,-213.86 150.5,-203.56 142.13,-210.06 148.02,-213.86"/>
<text text-anchor="start" x="136.5" y="-225.8" font-family="Times,serif" font-size="14.00">%1</text>
</g>
<!-- node2 -->
<g id="node3" class="node">
<title>node2</title>
<polygon fill="none" stroke="black" points="161.5,-300.5 161.5,-353.5 257.5,-353.5 257.5,-300.5 161.5,-300.5"/>
<text text-anchor="start" x="169.5" y="-338.3" font-family="Times,serif" font-size="14.00">Constant ()</text>
<text text-anchor="start" x="169.5" y="-323.3" font-family="Times,serif" font-size="14.00"> types = ()</text>
<text text-anchor="start" x="169.5" y="-308.3" font-family="Times,serif" font-size="14.00"> keys = (())</text>
</g>
<!-- node2&#45;&gt;node3 -->
<g id="edge3" class="edge">
<title>node2&#45;&gt;node3</title>
<path fill="none" stroke="black" d="M205.31,-300.47C201.56,-277.62 195.91,-243.26 191.06,-213.73"/>
<polygon fill="black" stroke="black" points="194.46,-212.81 189.38,-203.51 187.55,-213.95 194.46,-212.81"/>
<text text-anchor="start" x="194.5" y="-225.8" font-family="Times,serif" font-size="14.00">%2</text>
</g>
<!-- node3&#45;&gt;node4 -->
<g id="edge4" class="edge">
<title>node3&#45;&gt;node4</title>
<path fill="none" stroke="black" d="M201.46,-105.34C207.25,-91.35 213.47,-76.33 218.88,-63.29"/>
<polygon fill="black" stroke="black" points="222.24,-64.33 222.83,-53.75 215.77,-61.65 222.24,-64.33"/>
<text text-anchor="start" x="214.5" y="-75.8" font-family="Times,serif" font-size="14.00">%3</text>
</g>
</g>
</svg>
