<?xml version="1.0" encoding="UTF-8" standalone="no"?>
<!DOCTYPE svg PUBLIC "-//W3C//DTD SVG 1.1//EN"
 "http://www.w3.org/Graphics/SVG/1.1/DTD/svg11.dtd">
<!-- Generated by graphviz version 2.43.0 (0)
 -->
<!-- Title: G Pages: 1 -->
<svg width="596pt" height="787pt"
 viewBox="0.00 0.00 595.50 787.00" xmlns="http://www.w3.org/2000/svg" xmlns:xlink="http://www.w3.org/1999/xlink">
<g id="graph0" class="graph" transform="scale(1 1) rotate(0) translate(4 783)">
<title>G</title>
<polygon fill="white" stroke="transparent" points="-4,4 -4,-783 591.5,-783 591.5,4 -4,4"/>
<!-- node0 -->
<g id="node1" class="node">
<title>node0</title>
<polygon fill="none" stroke="black" points="250,-740.5 250,-778.5 351,-778.5 351,-740.5 250,-740.5"/>
<text text-anchor="start" x="258" y="-763.3" font-family="Times,serif" font-size="14.00">Let l0 =</text>
<text text-anchor="start" x="258" y="-748.3" font-family="Times,serif" font-size="14.00"> Constant ()</text>
</g>
<!-- node2 -->
<g id="node3" class="node">
<title>node2</title>
<polygon fill="none" stroke="black" points="24,-635.5 24,-688.5 293,-688.5 293,-635.5 24,-635.5"/>
<text text-anchor="start" x="32" y="-673.3" font-family="Times,serif" font-size="14.00">Let l1 =</text>
<text text-anchor="start" x="32" y="-658.3" font-family="Times,serif" font-size="14.00"> Join %0 %1</text>
<text text-anchor="start" x="32" y="-643.3" font-family="Times,serif" font-size="14.00"> implementation = Unimplemented</text>
</g>
<!-- node0&#45;&gt;node2 -->
<g id="edge3" class="edge">
<title>node0&#45;&gt;node2</title>
<path fill="none" stroke="black" d="M273.46,-740.31C254.12,-727.31 227.61,-709.48 204.92,-694.22"/>
<polygon fill="black" stroke="black" points="206.69,-691.19 196.44,-688.51 202.78,-697 206.69,-691.19"/>
<text text-anchor="start" x="242.5" y="-710.8" font-family="Times,serif" font-size="14.00">%0</text>
</g>
<!-- node4 -->
<g id="node5" class="node">
<title>node4</title>
<polygon fill="none" stroke="black" points="311,-635.5 311,-688.5 580,-688.5 580,-635.5 311,-635.5"/>
<text text-anchor="start" x="319" y="-673.3" font-family="Times,serif" font-size="14.00">Let l2 =</text>
<text text-anchor="start" x="319" y="-658.3" font-family="Times,serif" font-size="14.00"> Join %0 %3</text>
<text text-anchor="start" x="319" y="-643.3" font-family="Times,serif" font-size="14.00"> implementation = Unimplemented</text>
</g>
<!-- node0&#45;&gt;node4 -->
<g id="edge8" class="edge">
<title>node0&#45;&gt;node4</title>
<path fill="none" stroke="black" d="M328.11,-740.31C347.95,-727.25 375.17,-709.32 398.4,-694.02"/>
<polygon fill="black" stroke="black" points="400.33,-696.94 406.76,-688.51 396.48,-691.09 400.33,-696.94"/>
<text text-anchor="start" x="376.5" y="-710.8" font-family="Times,serif" font-size="14.00">%0</text>
</g>
<!-- node1 -->
<g id="node2" class="node">
<title>node1</title>
<polygon fill="none" stroke="black" points="17,-741.5 17,-777.5 232,-777.5 232,-741.5 17,-741.5"/>
<text text-anchor="start" x="25" y="-755.8" font-family="Times,serif" font-size="14.00">Get outer_joins.public.l (u2)</text>
</g>
<!-- node1&#45;&gt;node2 -->
<g id="edge5" class="edge">
<title>node1&#45;&gt;node2</title>
<path fill="none" stroke="black" d="M130.58,-741.43C134.83,-729.48 140.66,-713.1 145.9,-698.39"/>
<polygon fill="black" stroke="black" points="149.35,-699.15 149.4,-688.55 142.75,-696.8 149.35,-699.15"/>
<text text-anchor="start" x="143.5" y="-710.8" font-family="Times,serif" font-size="14.00">%1</text>
</g>
<!-- node5 -->
<g id="node6" class="node">
<title>node5</title>
<polygon fill="none" stroke="black" points="268,-500.5 268,-583.5 537,-583.5 537,-500.5 268,-500.5"/>
<text text-anchor="start" x="276" y="-568.3" font-family="Times,serif" font-size="14.00">Let l3 =</text>
<text text-anchor="start" x="276" y="-553.3" font-family="Times,serif" font-size="14.00"> Join %2 %4</text>
<text text-anchor="start" x="276" y="-538.3" font-family="Times,serif" font-size="14.00"> implementation = Unimplemented</text>
<text text-anchor="start" x="276" y="-523.3" font-family="Times,serif" font-size="14.00"> Project (#0..#3)</text>
<text text-anchor="start" x="276" y="-508.3" font-family="Times,serif" font-size="14.00"> Filter (#1 &gt;= #2)</text>
</g>
<!-- node2&#45;&gt;node5 -->
<g id="edge15" class="edge">
<title>node2&#45;&gt;node5</title>
<path fill="none" stroke="black" d="M211.44,-635.4C240.01,-621.58 276.12,-604.12 309.23,-588.11"/>
<polygon fill="black" stroke="black" points="311,-591.14 318.48,-583.63 307.95,-584.84 311,-591.14"/>
<text text-anchor="start" x="280.5" y="-605.8" font-family="Times,serif" font-size="14.00">%2</text>
</g>
<!-- node7 -->
<g id="node8" class="node">
<title>node7</title>
<polygon fill="none" stroke="black" points="138,-443.5 138,-481.5 335,-481.5 335,-443.5 138,-443.5"/>
<text text-anchor="start" x="146" y="-466.3" font-family="Times,serif" font-size="14.00">Get %2 (l1)</text>
<text text-anchor="start" x="146" y="-451.3" font-family="Times,serif" font-size="14.00"> Distinct group=(#0, #1)</text>
</g>
<!-- node2&#45;&gt;node7 -->
<g id="edge6" class="edge">
<title>node2&#45;&gt;node7</title>
<path fill="none" stroke="black" d="M168.7,-635.18C183.41,-597.94 210.46,-529.43 225.57,-491.18"/>
<polygon fill="black" stroke="black" points="228.9,-492.28 229.31,-481.69 222.39,-489.71 228.9,-492.28"/>
<text text-anchor="start" x="181.5" y="-605.8" font-family="Times,serif" font-size="14.00">%2</text>
</g>
<!-- node9 -->
<g id="node10" class="node">
<title>node9</title>
<polygon fill="none" stroke="black" points="0,-178.5 0,-231.5 269,-231.5 269,-178.5 0,-178.5"/>
<text text-anchor="start" x="8" y="-216.3" font-family="Times,serif" font-size="14.00">Join %8 %2 (= #0 #2) (= #1 #3)</text>
<text text-anchor="start" x="8" y="-201.3" font-family="Times,serif" font-size="14.00"> implementation = Unimplemented</text>
<text text-anchor="start" x="8" y="-186.3" font-family="Times,serif" font-size="14.00"> Project (#0, #1)</text>
</g>
<!-- node2&#45;&gt;node9 -->
<g id="edge4" class="edge">
<title>node2&#45;&gt;node9</title>
<path fill="none" stroke="black" d="M145.91,-635.44C135.53,-611.99 122.5,-575.98 122.5,-543 122.5,-543 122.5,-543 122.5,-300.5 122.5,-280.87 125.08,-259.13 127.85,-241.45"/>
<polygon fill="black" stroke="black" points="131.3,-241.99 129.48,-231.56 124.4,-240.85 131.3,-241.99"/>
<text text-anchor="start" x="122.5" y="-394.3" font-family="Times,serif" font-size="14.00">%2</text>
</g>
<!-- node3 -->
<g id="node4" class="node">
<title>node3</title>
<polygon fill="none" stroke="black" points="369.5,-741.5 369.5,-777.5 587.5,-777.5 587.5,-741.5 369.5,-741.5"/>
<text text-anchor="start" x="377.5" y="-755.8" font-family="Times,serif" font-size="14.00">Get outer_joins.public.r (u4)</text>
</g>
<!-- node3&#45;&gt;node4 -->
<g id="edge16" class="edge">
<title>node3&#45;&gt;node4</title>
<path fill="none" stroke="black" d="M472.6,-741.43C468.47,-729.48 462.81,-713.1 457.73,-698.39"/>
<polygon fill="black" stroke="black" points="460.9,-696.86 454.33,-688.55 454.29,-699.15 460.9,-696.86"/>
<text text-anchor="start" x="464.5" y="-710.8" font-family="Times,serif" font-size="14.00">%3</text>
</g>
<!-- node4&#45;&gt;node5 -->
<g id="edge7" class="edge">
<title>node4&#45;&gt;node5</title>
<path fill="none" stroke="black" d="M436.17,-635.4C431.67,-623.05 426.11,-607.8 420.82,-593.27"/>
<polygon fill="black" stroke="black" points="424.1,-592.06 417.39,-583.86 417.53,-594.46 424.1,-592.06"/>
<text text-anchor="start" x="428.5" y="-605.8" font-family="Times,serif" font-size="14.00">%4</text>
</g>
<!-- node6 -->
<g id="node7" class="node">
<title>node6</title>
<polygon fill="none" stroke="black" points="254,-371.5 254,-424.5 451,-424.5 451,-371.5 254,-371.5"/>
<text text-anchor="start" x="262" y="-409.3" font-family="Times,serif" font-size="14.00">Get %5 (l3)</text>
<text text-anchor="start" x="262" y="-394.3" font-family="Times,serif" font-size="14.00"> Distinct group=(#0, #1)</text>
<text text-anchor="start" x="262" y="-379.3" font-family="Times,serif" font-size="14.00"> Negate</text>
</g>
<!-- node5&#45;&gt;node6 -->
<g id="edge1" class="edge">
<title>node5&#45;&gt;node6</title>
<path fill="none" stroke="black" d="M388.17,-500.31C380.82,-479.42 371.94,-454.21 364.88,-434.17"/>
<polygon fill="black" stroke="black" points="368.1,-432.77 361.48,-424.5 361.5,-435.1 368.1,-432.77"/>
<text text-anchor="start" x="379.5" y="-458.8" font-family="Times,serif" font-size="14.00">%5</text>
</g>
<!-- node12 -->
<g id="node13" class="node">
<title>node12</title>
<polygon fill="none" stroke="black" points="336.5,-0.5 336.5,-36.5 458.5,-36.5 458.5,-0.5 336.5,-0.5"/>
<text text-anchor="start" x="344.5" y="-14.8" font-family="Times,serif" font-size="14.00">Union %5 %11</text>
</g>
<!-- node5&#45;&gt;node12 -->
<g id="edge2" class="edge">
<title>node5&#45;&gt;node12</title>
<path fill="none" stroke="black" d="M438.52,-500.29C458.56,-473.45 479.5,-436.44 479.5,-399 479.5,-399 479.5,-399 479.5,-106.5 479.5,-79.68 458.61,-57.78 437.92,-42.65"/>
<polygon fill="black" stroke="black" points="439.66,-39.59 429.44,-36.79 435.68,-45.35 439.66,-39.59"/>
<text text-anchor="start" x="479.5" y="-253.8" font-family="Times,serif" font-size="14.00">%5</text>
</g>
<!-- node8 -->
<g id="node9" class="node">
<title>node8</title>
<polygon fill="none" stroke="black" points="156,-283.5 156,-319.5 269,-319.5 269,-283.5 156,-283.5"/>
<text text-anchor="start" x="164" y="-297.8" font-family="Times,serif" font-size="14.00">Union %6 %7</text>
</g>
<!-- node6&#45;&gt;node8 -->
<g id="edge9" class="edge">
<title>node6&#45;&gt;node8</title>
<path fill="none" stroke="black" d="M314.61,-371.43C293.36,-357.08 267.06,-339.32 246.47,-325.43"/>
<polygon fill="black" stroke="black" points="248.27,-322.43 238.03,-319.73 244.36,-328.23 248.27,-322.43"/>
<text text-anchor="start" x="286.5" y="-341.8" font-family="Times,serif" font-size="14.00">%6</text>
</g>
<!-- node7&#45;&gt;node8 -->
<g id="edge14" class="edge">
<title>node7&#45;&gt;node8</title>
<path fill="none" stroke="black" d="M227.7,-443.31C225.29,-437.57 222.95,-431.13 221.5,-425 213.95,-393 212.23,-355.11 212.06,-330.03"/>
<polygon fill="black" stroke="black" points="215.56,-329.81 212.07,-319.8 208.56,-329.8 215.56,-329.81"/>
<text text-anchor="start" x="221.5" y="-394.3" font-family="Times,serif" font-size="14.00">%7</text>
</g>
<!-- node8&#45;&gt;node9 -->
<g id="edge10" class="edge">
<title>node8&#45;&gt;node9</title>
<path fill="none" stroke="black" d="M198.19,-283.17C188.17,-271.03 174.46,-254.41 162.33,-239.71"/>
<polygon fill="black" stroke="black" points="164.84,-237.26 155.78,-231.78 159.44,-241.72 164.84,-237.26"/>
<text text-anchor="start" x="183.5" y="-253.8" font-family="Times,serif" font-size="14.00">%8</text>
</g>
<!-- node11 -->
<g id="node12" class="node">
<title>node11</title>
<polygon fill="none" stroke="black" points="182,-88.5 182,-126.5 451,-126.5 451,-88.5 182,-88.5"/>
<text text-anchor="start" x="190" y="-111.3" font-family="Times,serif" font-size="14.00">Join %9 %10</text>
<text text-anchor="start" x="190" y="-96.3" font-family="Times,serif" font-size="14.00"> implementation = Unimplemented</text>
</g>
<!-- node9&#45;&gt;node11 -->
<g id="edge11" class="edge">
<title>node9&#45;&gt;node11</title>
<path fill="none" stroke="black" d="M183.27,-178.41C211.15,-163.78 245.83,-145.58 272.81,-131.42"/>
<polygon fill="black" stroke="black" points="274.78,-134.34 282.01,-126.6 271.53,-128.14 274.78,-134.34"/>
<text text-anchor="start" x="242.5" y="-148.8" font-family="Times,serif" font-size="14.00">%9</text>
</g>
<!-- node10 -->
<g id="node11" class="node">
<title>node10</title>
<polygon fill="none" stroke="black" points="287,-187 287,-223 446,-223 446,-187 287,-187"/>
<text text-anchor="start" x="295" y="-201.3" font-family="Times,serif" font-size="14.00">Constant (null, null)</text>
</g>
<!-- node10&#45;&gt;node11 -->
<g id="edge13" class="edge">
<title>node10&#45;&gt;node11</title>
<path fill="none" stroke="black" d="M357.56,-186.93C350.14,-172.75 339.45,-152.33 330.83,-135.88"/>
<polygon fill="black" stroke="black" points="333.78,-133.96 326.04,-126.73 327.58,-137.21 333.78,-133.96"/>
<text text-anchor="start" x="342.5" y="-148.8" font-family="Times,serif" font-size="14.00">%10</text>
</g>
<!-- node11&#45;&gt;node12 -->
<g id="edge12" class="edge">
<title>node11&#45;&gt;node12</title>
<path fill="none" stroke="black" d="M333.28,-88.47C345.25,-75.62 361.47,-58.19 374.62,-44.07"/>
<polygon fill="black" stroke="black" points="377.31,-46.32 381.56,-36.62 372.19,-41.55 377.31,-46.32"/>
<text text-anchor="start" x="363.5" y="-58.8" font-family="Times,serif" font-size="14.00">%11</text>
</g>
</g>
</svg>
