<?xml version="1.0" encoding="UTF-8" standalone="no"?>
<!DOCTYPE svg PUBLIC "-//W3C//DTD SVG 1.1//EN"
 "http://www.w3.org/Graphics/SVG/1.1/DTD/svg11.dtd">
<!-- Generated by graphviz version 2.43.0 (0)
 -->
<!-- Title: G Pages: 1 -->
<svg width="675pt" height="585pt"
 viewBox="0.00 0.00 675.00 585.00" xmlns="http://www.w3.org/2000/svg" xmlns:xlink="http://www.w3.org/1999/xlink">
<g id="graph0" class="graph" transform="scale(1 1) rotate(0) translate(4 581)">
<title>G</title>
<polygon fill="white" stroke="transparent" points="-4,4 -4,-581 671,-581 671,4 -4,4"/>
<!-- node0 -->
<g id="node1" class="node">
<title>node0</title>
<polygon fill="none" stroke="black" points="0,-538.5 0,-576.5 215,-576.5 215,-538.5 0,-538.5"/>
<text text-anchor="start" x="8" y="-561.3" font-family="Times,serif" font-size="14.00">Get outer_joins.public.l (u2)</text>
<text text-anchor="start" x="8" y="-546.3" font-family="Times,serif" font-size="14.00"> ArrangeBy ()</text>
</g>
<!-- node2 -->
<g id="node3" class="node">
<title>node2</title>
<polygon fill="none" stroke="black" points="72,-418.5 72,-486.5 377,-486.5 377,-418.5 72,-418.5"/>
<text text-anchor="start" x="80" y="-471.3" font-family="Times,serif" font-size="14.00">Let l0 =</text>
<text text-anchor="start" x="80" y="-456.3" font-family="Times,serif" font-size="14.00"> Join %0 %1</text>
<text text-anchor="start" x="80" y="-441.3" font-family="Times,serif" font-size="14.00"> implementation = Differential %1 %0.()</text>
<text text-anchor="start" x="80" y="-426.3" font-family="Times,serif" font-size="14.00"> Filter (#1 &gt;= #2)</text>
</g>
<!-- node0&#45;&gt;node2 -->
<g id="edge3" class="edge">
<title>node0&#45;&gt;node2</title>
<path fill="none" stroke="black" d="M128.15,-538.32C142.14,-526 161.2,-509.22 178.68,-493.84"/>
<polygon fill="black" stroke="black" points="181.38,-496.13 186.57,-486.89 176.75,-490.87 181.38,-496.13"/>
<text text-anchor="start" x="166.5" y="-508.8" font-family="Times,serif" font-size="14.00">%0</text>
</g>
<!-- node1 -->
<g id="node2" class="node">
<title>node1</title>
<polygon fill="none" stroke="black" points="233.5,-539.5 233.5,-575.5 451.5,-575.5 451.5,-539.5 233.5,-539.5"/>
<text text-anchor="start" x="241.5" y="-553.8" font-family="Times,serif" font-size="14.00">Get outer_joins.public.r (u4)</text>
</g>
<!-- node1&#45;&gt;node2 -->
<g id="edge4" class="edge">
<title>node1&#45;&gt;node2</title>
<path fill="none" stroke="black" d="M323.01,-539.49C308.7,-526.99 288.63,-509.48 270.34,-493.51"/>
<polygon fill="black" stroke="black" points="272.47,-490.72 262.63,-486.79 267.87,-496 272.47,-490.72"/>
<text text-anchor="start" x="297.5" y="-508.8" font-family="Times,serif" font-size="14.00">%1</text>
</g>
<!-- node3 -->
<g id="node4" class="node">
<title>node3</title>
<polygon fill="none" stroke="black" points="470,-298.5 470,-366.5 667,-366.5 667,-298.5 470,-298.5"/>
<text text-anchor="start" x="478" y="-351.3" font-family="Times,serif" font-size="14.00">Get %2 (l0)</text>
<text text-anchor="start" x="478" y="-336.3" font-family="Times,serif" font-size="14.00"> Project (#0, #1)</text>
<text text-anchor="start" x="478" y="-321.3" font-family="Times,serif" font-size="14.00"> Distinct group=(#0, #1)</text>
<text text-anchor="start" x="478" y="-306.3" font-family="Times,serif" font-size="14.00"> Negate</text>
</g>
<!-- node2&#45;&gt;node3 -->
<g id="edge2" class="edge">
<title>node2&#45;&gt;node3</title>
<path fill="none" stroke="black" d="M320.78,-418.47C364.95,-403.32 417.43,-385.32 462.7,-369.79"/>
<polygon fill="black" stroke="black" points="463.92,-373.07 472.24,-366.52 461.65,-366.45 463.92,-373.07"/>
<text text-anchor="start" x="416.5" y="-388.8" font-family="Times,serif" font-size="14.00">%2</text>
</g>
<!-- node8 -->
<g id="node9" class="node">
<title>node8</title>
<polygon fill="none" stroke="black" points="168,-0.5 168,-36.5 281,-36.5 281,-0.5 168,-0.5"/>
<text text-anchor="start" x="176" y="-14.8" font-family="Times,serif" font-size="14.00">Union %2 %7</text>
</g>
<!-- node2&#45;&gt;node8 -->
<g id="edge1" class="edge">
<title>node2&#45;&gt;node8</title>
<path fill="none" stroke="black" d="M217.58,-418.35C213.25,-394.79 208.5,-362.34 208.5,-333.5 208.5,-333.5 208.5,-333.5 208.5,-121.5 208.5,-95.86 213.5,-67.02 217.91,-46.57"/>
<polygon fill="black" stroke="black" points="221.35,-47.22 220.13,-36.7 214.52,-45.68 221.35,-47.22"/>
<text text-anchor="start" x="208.5" y="-223.8" font-family="Times,serif" font-size="14.00">%2</text>
</g>
<!-- node5 -->
<g id="node6" class="node">
<title>node5</title>
<polygon fill="none" stroke="black" points="488,-209.5 488,-245.5 601,-245.5 601,-209.5 488,-209.5"/>
<text text-anchor="start" x="496" y="-223.8" font-family="Times,serif" font-size="14.00">Union %3 %4</text>
</g>
<!-- node3&#45;&gt;node5 -->
<g id="edge6" class="edge">
<title>node3&#45;&gt;node5</title>
<path fill="none" stroke="black" d="M560.77,-298.34C557.55,-284.51 553.86,-268.66 550.8,-255.55"/>
<polygon fill="black" stroke="black" points="554.19,-254.66 548.51,-245.72 547.37,-256.25 554.19,-254.66"/>
<text text-anchor="start" x="556.5" y="-268.8" font-family="Times,serif" font-size="14.00">%3</text>
</g>
<!-- node4 -->
<g id="node5" class="node">
<title>node4</title>
<polygon fill="none" stroke="black" points="237,-313.5 237,-351.5 452,-351.5 452,-313.5 237,-313.5"/>
<text text-anchor="start" x="245" y="-336.3" font-family="Times,serif" font-size="14.00">Get outer_joins.public.l (u2)</text>
<text text-anchor="start" x="245" y="-321.3" font-family="Times,serif" font-size="14.00"> Distinct group=(#0, #1)</text>
</g>
<!-- node4&#45;&gt;node5 -->
<g id="edge5" class="edge">
<title>node4&#45;&gt;node5</title>
<path fill="none" stroke="black" d="M379.8,-313.32C414.01,-295.7 465.95,-268.95 502.33,-250.22"/>
<polygon fill="black" stroke="black" points="503.93,-253.33 511.22,-245.64 500.73,-247.11 503.93,-253.33"/>
<text text-anchor="start" x="467.5" y="-268.8" font-family="Times,serif" font-size="14.00">%4</text>
</g>
<!-- node7 -->
<g id="node8" class="node">
<title>node7</title>
<polygon fill="none" stroke="black" points="236.5,-88.5 236.5,-156.5 592.5,-156.5 592.5,-88.5 236.5,-88.5"/>
<text text-anchor="start" x="244.5" y="-141.3" font-family="Times,serif" font-size="14.00">Join %5 %6 (= #0 #2) (= #1 #3)</text>
<text text-anchor="start" x="244.5" y="-126.3" font-family="Times,serif" font-size="14.00"> implementation = Differential %5 %6.(#0, #1)</text>
<text text-anchor="start" x="244.5" y="-111.3" font-family="Times,serif" font-size="14.00"> Map null, null</text>
<text text-anchor="start" x="244.5" y="-96.3" font-family="Times,serif" font-size="14.00"> Project (#0, #1, #4, #5)</text>
</g>
<!-- node5&#45;&gt;node7 -->
<g id="edge8" class="edge">
<title>node5&#45;&gt;node7</title>
<path fill="none" stroke="black" d="M523.03,-209.49C507.05,-196.83 484.58,-179.02 464.22,-162.89"/>
<polygon fill="black" stroke="black" points="466.26,-160.04 456.24,-156.57 461.91,-165.53 466.26,-160.04"/>
<text text-anchor="start" x="494.5" y="-178.8" font-family="Times,serif" font-size="14.00">%5</text>
</g>
<!-- node6 -->
<g id="node7" class="node">
<title>node6</title>
<polygon fill="none" stroke="black" points="255,-208.5 255,-246.5 470,-246.5 470,-208.5 255,-208.5"/>
<text text-anchor="start" x="263" y="-231.3" font-family="Times,serif" font-size="14.00">Get outer_joins.public.l (u2)</text>
<text text-anchor="start" x="263" y="-216.3" font-family="Times,serif" font-size="14.00"> ArrangeBy (#0, #1)</text>
</g>
<!-- node6&#45;&gt;node7 -->
<g id="edge9" class="edge">
<title>node6&#45;&gt;node7</title>
<path fill="none" stroke="black" d="M371.8,-208.09C377.75,-196.3 385.72,-180.5 393.17,-165.75"/>
<polygon fill="black" stroke="black" points="396.33,-167.25 397.72,-156.74 390.09,-164.09 396.33,-167.25"/>
<text text-anchor="start" x="388.5" y="-178.8" font-family="Times,serif" font-size="14.00">%6</text>
</g>
<!-- node7&#45;&gt;node8 -->
<g id="edge7" class="edge">
<title>node7&#45;&gt;node8</title>
<path fill="none" stroke="black" d="M352.81,-88.38C324.15,-73 290.86,-55.12 265.37,-41.44"/>
<polygon fill="black" stroke="black" points="266.82,-38.25 256.35,-36.6 263.51,-44.41 266.82,-38.25"/>
<text text-anchor="start" x="313.5" y="-58.8" font-family="Times,serif" font-size="14.00">%7</text>
</g>
</g>
</svg>
