<?xml version="1.0" encoding="UTF-8" standalone="no"?>
<!DOCTYPE svg PUBLIC "-//W3C//DTD SVG 1.1//EN"
 "http://www.w3.org/Graphics/SVG/1.1/DTD/svg11.dtd">
<!-- Generated by graphviz version 2.43.0 (0)
 -->
<!-- Title: G Pages: 1 -->
<svg width="460pt" height="167pt"
 viewBox="0.00 0.00 459.50 167.00" xmlns="http://www.w3.org/2000/svg" xmlns:xlink="http://www.w3.org/1999/xlink">
<g id="graph0" class="graph" transform="scale(1 1) rotate(0) translate(4 163)">
<title>G</title>
<polygon fill="white" stroke="transparent" points="-4,4 -4,-163 455.5,-163 455.5,4 -4,4"/>
<!-- node0 -->
<g id="node1" class="node">
<title>node0</title>
<polygon fill="none" stroke="black" points="0,-105.5 0,-158.5 215,-158.5 215,-105.5 0,-105.5"/>
<text text-anchor="start" x="8" y="-143.3" font-family="Times,serif" font-size="14.00">Get outer_joins.public.l (u2)</text>
<text text-anchor="start" x="8" y="-128.3" font-family="Times,serif" font-size="14.00"> types = (integer, integer)</text>
<text text-anchor="start" x="8" y="-113.3" font-family="Times,serif" font-size="14.00"> keys = ()</text>
</g>
<!-- node2 -->
<g id="node3" class="node">
<title>node2</title>
<polygon fill="none" stroke="black" points="55.5,-0.5 55.5,-53.5 393.5,-53.5 393.5,-0.5 55.5,-0.5"/>
<text text-anchor="start" x="63.5" y="-38.3" font-family="Times,serif" font-size="14.00">LeftOuterJoin %0 %1 on (#1 &gt;= #2)</text>
<text text-anchor="start" x="63.5" y="-23.3" font-family="Times,serif" font-size="14.00"> types = (integer, integer, integer?, integer?)</text>
<text text-anchor="start" x="63.5" y="-8.3" font-family="Times,serif" font-size="14.00"> keys = ()</text>
</g>
<!-- node0&#45;&gt;node2 -->
<g id="edge1" class="edge">
<title>node0&#45;&gt;node2</title>
<path fill="none" stroke="black" d="M136.72,-105.27C152.08,-91.76 171.06,-75.05 187.44,-60.63"/>
<polygon fill="black" stroke="black" points="190.05,-62.99 195.24,-53.75 185.43,-57.74 190.05,-62.99"/>
<text text-anchor="start" x="173.5" y="-75.8" font-family="Times,serif" font-size="14.00">%0</text>
</g>
<!-- node1 -->
<g id="node2" class="node">
<title>node1</title>
<polygon fill="none" stroke="black" points="233.5,-105.5 233.5,-158.5 451.5,-158.5 451.5,-105.5 233.5,-105.5"/>
<text text-anchor="start" x="241.5" y="-143.3" font-family="Times,serif" font-size="14.00">Get outer_joins.public.r (u4)</text>
<text text-anchor="start" x="241.5" y="-128.3" font-family="Times,serif" font-size="14.00"> types = (integer, integer)</text>
<text text-anchor="start" x="241.5" y="-113.3" font-family="Times,serif" font-size="14.00"> keys = ()</text>
</g>
<!-- node1&#45;&gt;node2 -->
<g id="edge2" class="edge">
<title>node1&#45;&gt;node2</title>
<path fill="none" stroke="black" d="M313.03,-105.27C297.54,-91.76 278.4,-75.05 261.88,-60.63"/>
<polygon fill="black" stroke="black" points="263.84,-57.69 254.01,-53.75 259.24,-62.97 263.84,-57.69"/>
<text text-anchor="start" x="291.5" y="-75.8" font-family="Times,serif" font-size="14.00">%1</text>
</g>
</g>
</svg>
