<?xml version="1.0" encoding="UTF-8" standalone="no"?>
<!DOCTYPE svg PUBLIC "-//W3C//DTD SVG 1.1//EN"
 "http://www.w3.org/Graphics/SVG/1.1/DTD/svg11.dtd">
<!-- Generated by graphviz version 2.43.0 (0)
 -->
<!-- Title: G Pages: 1 -->
<svg width="799pt" height="992pt"
 viewBox="0.00 0.00 799.00 992.00" xmlns="http://www.w3.org/2000/svg" xmlns:xlink="http://www.w3.org/1999/xlink">
<g id="graph0" class="graph" transform="scale(1 1) rotate(0) translate(4 988)">
<title>G</title>
<polygon fill="white" stroke="transparent" points="-4,4 -4,-988 795,-988 795,4 -4,4"/>
<!-- node0 -->
<g id="node1" class="node">
<title>node0</title>
<polygon fill="none" stroke="black" points="0,-885.5 0,-983.5 215,-983.5 215,-885.5 0,-885.5"/>
<text text-anchor="start" x="8" y="-968.3" font-family="Times,serif" font-size="14.00">Get outer_joins.public.l (u2)</text>
<text text-anchor="start" x="8" y="-953.3" font-family="Times,serif" font-size="14.00"> types = (integer, integer)</text>
<text text-anchor="start" x="8" y="-938.3" font-family="Times,serif" font-size="14.00"> keys = ()</text>
<text text-anchor="start" x="8" y="-923.3" font-family="Times,serif" font-size="14.00"> ArrangeBy ()</text>
<text text-anchor="start" x="8" y="-908.3" font-family="Times,serif" font-size="14.00"> types = (integer, integer)</text>
<text text-anchor="start" x="8" y="-893.3" font-family="Times,serif" font-size="14.00"> keys = ()</text>
</g>
<!-- node2 -->
<g id="node3" class="node">
<title>node2</title>
<polygon fill="none" stroke="black" points="64,-705.5 64,-833.5 385,-833.5 385,-705.5 64,-705.5"/>
<text text-anchor="start" x="72" y="-818.3" font-family="Times,serif" font-size="14.00">Let l0 =</text>
<text text-anchor="start" x="72" y="-803.3" font-family="Times,serif" font-size="14.00"> Join %0 %1</text>
<text text-anchor="start" x="72" y="-788.3" font-family="Times,serif" font-size="14.00"> implementation = Differential %1 %0.()</text>
<text text-anchor="start" x="72" y="-773.3" font-family="Times,serif" font-size="14.00"> types = (integer, integer, integer, integer)</text>
<text text-anchor="start" x="72" y="-758.3" font-family="Times,serif" font-size="14.00"> keys = ()</text>
<text text-anchor="start" x="72" y="-743.3" font-family="Times,serif" font-size="14.00"> Filter (#1 &gt;= #2)</text>
<text text-anchor="start" x="72" y="-728.3" font-family="Times,serif" font-size="14.00"> types = (integer, integer, integer, integer)</text>
<text text-anchor="start" x="72" y="-713.3" font-family="Times,serif" font-size="14.00"> keys = ()</text>
</g>
<!-- node0&#45;&gt;node2 -->
<g id="edge3" class="edge">
<title>node0&#45;&gt;node2</title>
<path fill="none" stroke="black" d="M141.97,-885.48C151.81,-871.77 162.75,-856.53 173.36,-841.75"/>
<polygon fill="black" stroke="black" points="176.22,-843.77 179.21,-833.6 170.53,-839.68 176.22,-843.77"/>
<text text-anchor="start" x="166.5" y="-855.8" font-family="Times,serif" font-size="14.00">%0</text>
</g>
<!-- node1 -->
<g id="node2" class="node">
<title>node1</title>
<polygon fill="none" stroke="black" points="233.5,-908 233.5,-961 451.5,-961 451.5,-908 233.5,-908"/>
<text text-anchor="start" x="241.5" y="-945.8" font-family="Times,serif" font-size="14.00">Get outer_joins.public.r (u4)</text>
<text text-anchor="start" x="241.5" y="-930.8" font-family="Times,serif" font-size="14.00"> types = (integer, integer)</text>
<text text-anchor="start" x="241.5" y="-915.8" font-family="Times,serif" font-size="14.00"> keys = ()</text>
</g>
<!-- node1&#45;&gt;node2 -->
<g id="edge4" class="edge">
<title>node1&#45;&gt;node2</title>
<path fill="none" stroke="black" d="M323.8,-907.67C310.96,-889.93 293.22,-865.43 276.3,-842.05"/>
<polygon fill="black" stroke="black" points="279.05,-839.89 270.35,-833.84 273.38,-843.99 279.05,-839.89"/>
<text text-anchor="start" x="294.5" y="-855.8" font-family="Times,serif" font-size="14.00">%1</text>
</g>
<!-- node3 -->
<g id="node4" class="node">
<title>node3</title>
<polygon fill="none" stroke="black" points="470,-465.5 470,-653.5 791,-653.5 791,-465.5 470,-465.5"/>
<text text-anchor="start" x="478" y="-638.3" font-family="Times,serif" font-size="14.00">Get %2 (l0)</text>
<text text-anchor="start" x="478" y="-623.3" font-family="Times,serif" font-size="14.00"> types = (integer, integer, integer, integer)</text>
<text text-anchor="start" x="478" y="-608.3" font-family="Times,serif" font-size="14.00"> keys = ()</text>
<text text-anchor="start" x="478" y="-593.3" font-family="Times,serif" font-size="14.00"> Project (#0, #1)</text>
<text text-anchor="start" x="478" y="-578.3" font-family="Times,serif" font-size="14.00"> types = (integer, integer)</text>
<text text-anchor="start" x="478" y="-563.3" font-family="Times,serif" font-size="14.00"> keys = ()</text>
<text text-anchor="start" x="478" y="-548.3" font-family="Times,serif" font-size="14.00"> Distinct group=(#0, #1)</text>
<text text-anchor="start" x="478" y="-533.3" font-family="Times,serif" font-size="14.00"> types = (integer, integer)</text>
<text text-anchor="start" x="478" y="-518.3" font-family="Times,serif" font-size="14.00"> keys = ((#0, #1))</text>
<text text-anchor="start" x="478" y="-503.3" font-family="Times,serif" font-size="14.00"> Negate</text>
<text text-anchor="start" x="478" y="-488.3" font-family="Times,serif" font-size="14.00"> types = (integer, integer)</text>
<text text-anchor="start" x="478" y="-473.3" font-family="Times,serif" font-size="14.00"> keys = ()</text>
</g>
<!-- node2&#45;&gt;node3 -->
<g id="edge2" class="edge">
<title>node2&#45;&gt;node3</title>
<path fill="none" stroke="black" d="M358.32,-705.44C389.66,-690.27 422.97,-673.82 460.49,-654.49"/>
<polygon fill="black" stroke="black" points="462.32,-657.49 469.6,-649.79 459.11,-651.27 462.32,-657.49"/>
<text text-anchor="start" x="422.5" y="-675.8" font-family="Times,serif" font-size="14.00">%2</text>
</g>
<!-- node8 -->
<g id="node9" class="node">
<title>node8</title>
<polygon fill="none" stroke="black" points="55.5,-0.5 55.5,-53.5 393.5,-53.5 393.5,-0.5 55.5,-0.5"/>
<text text-anchor="start" x="63.5" y="-38.3" font-family="Times,serif" font-size="14.00">Union %2 %7</text>
<text text-anchor="start" x="63.5" y="-23.3" font-family="Times,serif" font-size="14.00"> types = (integer, integer, integer?, integer?)</text>
<text text-anchor="start" x="63.5" y="-8.3" font-family="Times,serif" font-size="14.00"> keys = ()</text>
</g>
<!-- node2&#45;&gt;node8 -->
<g id="edge1" class="edge">
<title>node2&#45;&gt;node8</title>
<path fill="none" stroke="black" d="M217.11,-705.33C212.92,-664.15 208.5,-609.21 208.5,-560.5 208.5,-560.5 208.5,-560.5 208.5,-183.5 208.5,-142.17 214.16,-94.99 218.75,-63.54"/>
<polygon fill="black" stroke="black" points="222.23,-63.92 220.25,-53.51 215.31,-62.88 222.23,-63.92"/>
<text text-anchor="start" x="208.5" y="-360.8" font-family="Times,serif" font-size="14.00">%2</text>
</g>
<!-- node5 -->
<g id="node6" class="node">
<title>node5</title>
<polygon fill="none" stroke="black" points="506,-338 506,-391 709,-391 709,-338 506,-338"/>
<text text-anchor="start" x="514" y="-375.8" font-family="Times,serif" font-size="14.00">Union %3 %4</text>
<text text-anchor="start" x="514" y="-360.8" font-family="Times,serif" font-size="14.00"> types = (integer, integer)</text>
<text text-anchor="start" x="514" y="-345.8" font-family="Times,serif" font-size="14.00"> keys = ()</text>
</g>
<!-- node3&#45;&gt;node5 -->
<g id="edge6" class="edge">
<title>node3&#45;&gt;node5</title>
<path fill="none" stroke="black" d="M619.4,-465.39C616.7,-442.67 613.96,-419.69 611.79,-401.52"/>
<polygon fill="black" stroke="black" points="615.25,-400.92 610.59,-391.41 608.3,-401.75 615.25,-400.92"/>
<text text-anchor="start" x="616.5" y="-435.8" font-family="Times,serif" font-size="14.00">%3</text>
</g>
<!-- node4 -->
<g id="node5" class="node">
<title>node4</title>
<polygon fill="none" stroke="black" points="237,-510.5 237,-608.5 452,-608.5 452,-510.5 237,-510.5"/>
<text text-anchor="start" x="245" y="-593.3" font-family="Times,serif" font-size="14.00">Get outer_joins.public.l (u2)</text>
<text text-anchor="start" x="245" y="-578.3" font-family="Times,serif" font-size="14.00"> types = (integer, integer)</text>
<text text-anchor="start" x="245" y="-563.3" font-family="Times,serif" font-size="14.00"> keys = ()</text>
<text text-anchor="start" x="245" y="-548.3" font-family="Times,serif" font-size="14.00"> Distinct group=(#0, #1)</text>
<text text-anchor="start" x="245" y="-533.3" font-family="Times,serif" font-size="14.00"> types = (integer, integer)</text>
<text text-anchor="start" x="245" y="-518.3" font-family="Times,serif" font-size="14.00"> keys = ((#0, #1))</text>
</g>
<!-- node4&#45;&gt;node5 -->
<g id="edge5" class="edge">
<title>node4&#45;&gt;node5</title>
<path fill="none" stroke="black" d="M403.04,-510.29C421.51,-495.46 442.15,-479.29 461.5,-465 493.59,-441.3 530.75,-416 559.55,-396.84"/>
<polygon fill="black" stroke="black" points="561.81,-399.55 568.21,-391.11 557.94,-393.72 561.81,-399.55"/>
<text text-anchor="start" x="504.5" y="-435.8" font-family="Times,serif" font-size="14.00">%4</text>
</g>
<!-- node7 -->
<g id="node8" class="node">
<title>node7</title>
<polygon fill="none" stroke="black" points="236.5,-105.5 236.5,-263.5 692.5,-263.5 692.5,-105.5 236.5,-105.5"/>
<text text-anchor="start" x="244.5" y="-248.3" font-family="Times,serif" font-size="14.00">Join %5 %6 (= #0 #2) (= #1 #3)</text>
<text text-anchor="start" x="244.5" y="-233.3" font-family="Times,serif" font-size="14.00"> implementation = Differential %5 %6.(#0, #1)</text>
<text text-anchor="start" x="244.5" y="-218.3" font-family="Times,serif" font-size="14.00"> types = (integer, integer, integer, integer)</text>
<text text-anchor="start" x="244.5" y="-203.3" font-family="Times,serif" font-size="14.00"> keys = ()</text>
<text text-anchor="start" x="244.5" y="-188.3" font-family="Times,serif" font-size="14.00"> Map null, null</text>
<text text-anchor="start" x="244.5" y="-173.3" font-family="Times,serif" font-size="14.00"> types = (integer, integer, integer, integer, integer?, integer?)</text>
<text text-anchor="start" x="244.5" y="-158.3" font-family="Times,serif" font-size="14.00"> keys = ()</text>
<text text-anchor="start" x="244.5" y="-143.3" font-family="Times,serif" font-size="14.00"> Project (#0, #1, #4, #5)</text>
<text text-anchor="start" x="244.5" y="-128.3" font-family="Times,serif" font-size="14.00"> types = (integer, integer, integer?, integer?)</text>
<text text-anchor="start" x="244.5" y="-113.3" font-family="Times,serif" font-size="14.00"> keys = ()</text>
</g>
<!-- node5&#45;&gt;node7 -->
<g id="edge8" class="edge">
<title>node5&#45;&gt;node7</title>
<path fill="none" stroke="black" d="M587.01,-338C572.87,-320.39 553.16,-295.86 533.68,-271.62"/>
<polygon fill="black" stroke="black" points="536.37,-269.37 527.38,-263.77 530.91,-273.75 536.37,-269.37"/>
<text text-anchor="start" x="552.5" y="-285.8" font-family="Times,serif" font-size="14.00">%5</text>
</g>
<!-- node6 -->
<g id="node7" class="node">
<title>node6</title>
<polygon fill="none" stroke="black" points="273,-315.5 273,-413.5 488,-413.5 488,-315.5 273,-315.5"/>
<text text-anchor="start" x="281" y="-398.3" font-family="Times,serif" font-size="14.00">Get outer_joins.public.l (u2)</text>
<text text-anchor="start" x="281" y="-383.3" font-family="Times,serif" font-size="14.00"> types = (integer, integer)</text>
<text text-anchor="start" x="281" y="-368.3" font-family="Times,serif" font-size="14.00"> keys = ()</text>
<text text-anchor="start" x="281" y="-353.3" font-family="Times,serif" font-size="14.00"> ArrangeBy (#0, #1)</text>
<text text-anchor="start" x="281" y="-338.3" font-family="Times,serif" font-size="14.00"> types = (integer, integer)</text>
<text text-anchor="start" x="281" y="-323.3" font-family="Times,serif" font-size="14.00"> keys = ()</text>
</g>
<!-- node6&#45;&gt;node7 -->
<g id="edge9" class="edge">
<title>node6&#45;&gt;node7</title>
<path fill="none" stroke="black" d="M403.23,-315.33C409.47,-302.11 416.43,-287.37 423.36,-272.68"/>
<polygon fill="black" stroke="black" points="426.56,-274.1 427.66,-263.56 420.23,-271.11 426.56,-274.1"/>
<text text-anchor="start" x="416.5" y="-285.8" font-family="Times,serif" font-size="14.00">%6</text>
</g>
<!-- node7&#45;&gt;node8 -->
<g id="edge7" class="edge">
<title>node7&#45;&gt;node8</title>
<path fill="none" stroke="black" d="M343.8,-105.29C318.57,-88.95 293.38,-72.63 272.7,-59.23"/>
<polygon fill="black" stroke="black" points="274.42,-56.17 264.12,-53.67 270.61,-62.05 274.42,-56.17"/>
<text text-anchor="start" x="308.5" y="-75.8" font-family="Times,serif" font-size="14.00">%7</text>
</g>
</g>
</svg>
