<?xml version="1.0" encoding="UTF-8" standalone="no"?>
<!DOCTYPE svg PUBLIC "-//W3C//DTD SVG 1.1//EN"
 "http://www.w3.org/Graphics/SVG/1.1/DTD/svg11.dtd">
<!-- Generated by graphviz version 2.43.0 (0)
 -->
<!-- Title: G Pages: 1 -->
<svg width="694pt" height="1211pt"
 viewBox="0.00 0.00 693.50 1211.00" xmlns="http://www.w3.org/2000/svg" xmlns:xlink="http://www.w3.org/1999/xlink">
<g id="graph0" class="graph" transform="scale(1 1) rotate(0) translate(4 1207)">
<title>G</title>
<polygon fill="white" stroke="transparent" points="-4,4 -4,-1207 689.5,-1207 689.5,4 -4,4"/>
<!-- node0 -->
<g id="node1" class="node">
<title>node0</title>
<polygon fill="none" stroke="black" points="308,-1134.5 308,-1202.5 409,-1202.5 409,-1134.5 308,-1134.5"/>
<text text-anchor="start" x="316" y="-1187.3" font-family="Times,serif" font-size="14.00">Let l0 =</text>
<text text-anchor="start" x="316" y="-1172.3" font-family="Times,serif" font-size="14.00"> Constant ()</text>
<text text-anchor="start" x="316" y="-1157.3" font-family="Times,serif" font-size="14.00"> types = ()</text>
<text text-anchor="start" x="316" y="-1142.3" font-family="Times,serif" font-size="14.00"> keys = (())</text>
</g>
<!-- node2 -->
<g id="node3" class="node">
<title>node2</title>
<polygon fill="none" stroke="black" points="82,-999.5 82,-1082.5 351,-1082.5 351,-999.5 82,-999.5"/>
<text text-anchor="start" x="90" y="-1067.3" font-family="Times,serif" font-size="14.00">Let l1 =</text>
<text text-anchor="start" x="90" y="-1052.3" font-family="Times,serif" font-size="14.00"> Join %0 %1</text>
<text text-anchor="start" x="90" y="-1037.3" font-family="Times,serif" font-size="14.00"> implementation = Unimplemented</text>
<text text-anchor="start" x="90" y="-1022.3" font-family="Times,serif" font-size="14.00"> types = (integer, integer)</text>
<text text-anchor="start" x="90" y="-1007.3" font-family="Times,serif" font-size="14.00"> keys = ()</text>
</g>
<!-- node0&#45;&gt;node2 -->
<g id="edge3" class="edge">
<title>node0&#45;&gt;node2</title>
<path fill="none" stroke="black" d="M320.82,-1134.2C305.29,-1120.47 287,-1104.31 270.12,-1089.39"/>
<polygon fill="black" stroke="black" points="272.28,-1086.63 262.47,-1082.63 267.65,-1091.87 272.28,-1086.63"/>
<text text-anchor="start" x="300.5" y="-1104.8" font-family="Times,serif" font-size="14.00">%0</text>
</g>
<!-- node4 -->
<g id="node5" class="node">
<title>node4</title>
<polygon fill="none" stroke="black" points="369,-999.5 369,-1082.5 638,-1082.5 638,-999.5 369,-999.5"/>
<text text-anchor="start" x="377" y="-1067.3" font-family="Times,serif" font-size="14.00">Let l2 =</text>
<text text-anchor="start" x="377" y="-1052.3" font-family="Times,serif" font-size="14.00"> Join %0 %3</text>
<text text-anchor="start" x="377" y="-1037.3" font-family="Times,serif" font-size="14.00"> implementation = Unimplemented</text>
<text text-anchor="start" x="377" y="-1022.3" font-family="Times,serif" font-size="14.00"> types = (integer, integer)</text>
<text text-anchor="start" x="377" y="-1007.3" font-family="Times,serif" font-size="14.00"> keys = ()</text>
</g>
<!-- node0&#45;&gt;node4 -->
<g id="edge8" class="edge">
<title>node0&#45;&gt;node4</title>
<path fill="none" stroke="black" d="M396.98,-1134.2C412.84,-1120.47 431.51,-1104.31 448.75,-1089.39"/>
<polygon fill="black" stroke="black" points="451.29,-1091.82 456.56,-1082.63 446.71,-1086.53 451.29,-1091.82"/>
<text text-anchor="start" x="430.5" y="-1104.8" font-family="Times,serif" font-size="14.00">%0</text>
</g>
<!-- node1 -->
<g id="node2" class="node">
<title>node1</title>
<polygon fill="none" stroke="black" points="75,-1142 75,-1195 290,-1195 290,-1142 75,-1142"/>
<text text-anchor="start" x="83" y="-1179.8" font-family="Times,serif" font-size="14.00">Get outer_joins.public.l (u2)</text>
<text text-anchor="start" x="83" y="-1164.8" font-family="Times,serif" font-size="14.00"> types = (integer, integer)</text>
<text text-anchor="start" x="83" y="-1149.8" font-family="Times,serif" font-size="14.00"> keys = ()</text>
</g>
<!-- node1&#45;&gt;node2 -->
<g id="edge5" class="edge">
<title>node1&#45;&gt;node2</title>
<path fill="none" stroke="black" d="M189.46,-1141.8C193.3,-1127.65 198.19,-1109.59 202.76,-1092.73"/>
<polygon fill="black" stroke="black" points="206.16,-1093.55 205.4,-1082.98 199.4,-1091.72 206.16,-1093.55"/>
<text text-anchor="start" x="199.5" y="-1104.8" font-family="Times,serif" font-size="14.00">%1</text>
</g>
<!-- node5 -->
<g id="node6" class="node">
<title>node5</title>
<polygon fill="none" stroke="black" points="298,-774.5 298,-947.5 619,-947.5 619,-774.5 298,-774.5"/>
<text text-anchor="start" x="306" y="-932.3" font-family="Times,serif" font-size="14.00">Let l3 =</text>
<text text-anchor="start" x="306" y="-917.3" font-family="Times,serif" font-size="14.00"> Join %2 %4</text>
<text text-anchor="start" x="306" y="-902.3" font-family="Times,serif" font-size="14.00"> implementation = Unimplemented</text>
<text text-anchor="start" x="306" y="-887.3" font-family="Times,serif" font-size="14.00"> types = (integer, integer, integer, integer)</text>
<text text-anchor="start" x="306" y="-872.3" font-family="Times,serif" font-size="14.00"> keys = ()</text>
<text text-anchor="start" x="306" y="-857.3" font-family="Times,serif" font-size="14.00"> Project (#0..#3)</text>
<text text-anchor="start" x="306" y="-842.3" font-family="Times,serif" font-size="14.00"> types = (integer, integer, integer, integer)</text>
<text text-anchor="start" x="306" y="-827.3" font-family="Times,serif" font-size="14.00"> keys = ()</text>
<text text-anchor="start" x="306" y="-812.3" font-family="Times,serif" font-size="14.00"> Filter (#1 &gt;= #2)</text>
<text text-anchor="start" x="306" y="-797.3" font-family="Times,serif" font-size="14.00"> types = (integer, integer, integer, integer)</text>
<text text-anchor="start" x="306" y="-782.3" font-family="Times,serif" font-size="14.00"> keys = ()</text>
</g>
<!-- node2&#45;&gt;node5 -->
<g id="edge15" class="edge">
<title>node2&#45;&gt;node5</title>
<path fill="none" stroke="black" d="M271.72,-999.39C290.27,-985.74 311.79,-969.91 333.48,-953.96"/>
<polygon fill="black" stroke="black" points="335.82,-956.58 341.8,-947.84 331.67,-950.94 335.82,-956.58"/>
<text text-anchor="start" x="316.5" y="-969.8" font-family="Times,serif" font-size="14.00">%2</text>
</g>
<!-- node7 -->
<g id="node8" class="node">
<title>node7</title>
<polygon fill="none" stroke="black" points="123,-657.5 123,-755.5 326,-755.5 326,-657.5 123,-657.5"/>
<text text-anchor="start" x="131" y="-740.3" font-family="Times,serif" font-size="14.00">Get %2 (l1)</text>
<text text-anchor="start" x="131" y="-725.3" font-family="Times,serif" font-size="14.00"> types = (integer, integer)</text>
<text text-anchor="start" x="131" y="-710.3" font-family="Times,serif" font-size="14.00"> keys = ()</text>
<text text-anchor="start" x="131" y="-695.3" font-family="Times,serif" font-size="14.00"> Distinct group=(#0, #1)</text>
<text text-anchor="start" x="131" y="-680.3" font-family="Times,serif" font-size="14.00"> types = (integer, integer)</text>
<text text-anchor="start" x="131" y="-665.3" font-family="Times,serif" font-size="14.00"> keys = ((#0, #1))</text>
</g>
<!-- node2&#45;&gt;node7 -->
<g id="edge6" class="edge">
<title>node2&#45;&gt;node7</title>
<path fill="none" stroke="black" d="M217.48,-999.23C218.89,-940.79 221.48,-832.91 223.09,-765.98"/>
<polygon fill="black" stroke="black" points="226.6,-765.69 223.34,-755.6 219.6,-765.52 226.6,-765.69"/>
<text text-anchor="start" x="218.5" y="-969.8" font-family="Times,serif" font-size="14.00">%2</text>
</g>
<!-- node9 -->
<g id="node10" class="node">
<title>node9</title>
<polygon fill="none" stroke="black" points="0,-225.5 0,-338.5 321,-338.5 321,-225.5 0,-225.5"/>
<text text-anchor="start" x="8" y="-323.3" font-family="Times,serif" font-size="14.00">Join %8 %2 (= #0 #2) (= #1 #3)</text>
<text text-anchor="start" x="8" y="-308.3" font-family="Times,serif" font-size="14.00"> implementation = Unimplemented</text>
<text text-anchor="start" x="8" y="-293.3" font-family="Times,serif" font-size="14.00"> types = (integer, integer, integer, integer)</text>
<text text-anchor="start" x="8" y="-278.3" font-family="Times,serif" font-size="14.00"> keys = ()</text>
<text text-anchor="start" x="8" y="-263.3" font-family="Times,serif" font-size="14.00"> Project (#0, #1)</text>
<text text-anchor="start" x="8" y="-248.3" font-family="Times,serif" font-size="14.00"> types = (integer, integer)</text>
<text text-anchor="start" x="8" y="-233.3" font-family="Times,serif" font-size="14.00"> keys = ()</text>
</g>
<!-- node2&#45;&gt;node9 -->
<g id="edge4" class="edge">
<title>node2&#45;&gt;node9</title>
<path fill="none" stroke="black" d="M174.13,-999.23C143.87,-965.59 108.5,-914.95 108.5,-862 108.5,-862 108.5,-862 108.5,-416 108.5,-393 115.33,-369.19 124.04,-348.2"/>
<polygon fill="black" stroke="black" points="127.37,-349.32 128.16,-338.76 120.95,-346.53 127.37,-349.32"/>
<text text-anchor="start" x="108.5" y="-563.3" font-family="Times,serif" font-size="14.00">%2</text>
</g>
<!-- node3 -->
<g id="node4" class="node">
<title>node3</title>
<polygon fill="none" stroke="black" points="427.5,-1142 427.5,-1195 645.5,-1195 645.5,-1142 427.5,-1142"/>
<text text-anchor="start" x="435.5" y="-1179.8" font-family="Times,serif" font-size="14.00">Get outer_joins.public.r (u4)</text>
<text text-anchor="start" x="435.5" y="-1164.8" font-family="Times,serif" font-size="14.00"> types = (integer, integer)</text>
<text text-anchor="start" x="435.5" y="-1149.8" font-family="Times,serif" font-size="14.00"> keys = ()</text>
</g>
<!-- node3&#45;&gt;node4 -->
<g id="edge16" class="edge">
<title>node3&#45;&gt;node4</title>
<path fill="none" stroke="black" d="M529.74,-1141.8C526.02,-1127.65 521.27,-1109.59 516.84,-1092.73"/>
<polygon fill="black" stroke="black" points="520.2,-1091.76 514.28,-1082.98 513.43,-1093.54 520.2,-1091.76"/>
<text text-anchor="start" x="522.5" y="-1104.8" font-family="Times,serif" font-size="14.00">%3</text>
</g>
<!-- node4&#45;&gt;node5 -->
<g id="edge7" class="edge">
<title>node4&#45;&gt;node5</title>
<path fill="none" stroke="black" d="M493.18,-999.16C490.01,-986.65 486.39,-972.33 482.71,-957.76"/>
<polygon fill="black" stroke="black" points="486,-956.49 480.15,-947.65 479.21,-958.21 486,-956.49"/>
<text text-anchor="start" x="487.5" y="-969.8" font-family="Times,serif" font-size="14.00">%4</text>
</g>
<!-- node6 -->
<g id="node7" class="node">
<title>node6</title>
<polygon fill="none" stroke="black" points="266,-495.5 266,-638.5 587,-638.5 587,-495.5 266,-495.5"/>
<text text-anchor="start" x="274" y="-623.3" font-family="Times,serif" font-size="14.00">Get %5 (l3)</text>
<text text-anchor="start" x="274" y="-608.3" font-family="Times,serif" font-size="14.00"> types = (integer, integer, integer, integer)</text>
<text text-anchor="start" x="274" y="-593.3" font-family="Times,serif" font-size="14.00"> keys = ()</text>
<text text-anchor="start" x="274" y="-578.3" font-family="Times,serif" font-size="14.00"> Distinct group=(#0, #1)</text>
<text text-anchor="start" x="274" y="-563.3" font-family="Times,serif" font-size="14.00"> types = (integer, integer)</text>
<text text-anchor="start" x="274" y="-548.3" font-family="Times,serif" font-size="14.00"> keys = ((#0, #1))</text>
<text text-anchor="start" x="274" y="-533.3" font-family="Times,serif" font-size="14.00"> Negate</text>
<text text-anchor="start" x="274" y="-518.3" font-family="Times,serif" font-size="14.00"> types = (integer, integer)</text>
<text text-anchor="start" x="274" y="-503.3" font-family="Times,serif" font-size="14.00"> keys = ()</text>
</g>
<!-- node5&#45;&gt;node6 -->
<g id="edge1" class="edge">
<title>node5&#45;&gt;node6</title>
<path fill="none" stroke="black" d="M449.12,-774.36C444.78,-734.82 439.66,-688.1 435.39,-649.12"/>
<polygon fill="black" stroke="black" points="438.84,-648.43 434.27,-638.87 431.88,-649.19 438.84,-648.43"/>
<text text-anchor="start" x="445.5" y="-702.8" font-family="Times,serif" font-size="14.00">%5</text>
</g>
<!-- node12 -->
<g id="node13" class="node">
<title>node12</title>
<polygon fill="none" stroke="black" points="347.5,-0.5 347.5,-53.5 685.5,-53.5 685.5,-0.5 347.5,-0.5"/>
<text text-anchor="start" x="355.5" y="-38.3" font-family="Times,serif" font-size="14.00">Union %5 %11</text>
<text text-anchor="start" x="355.5" y="-23.3" font-family="Times,serif" font-size="14.00"> types = (integer, integer, integer?, integer?)</text>
<text text-anchor="start" x="355.5" y="-8.3" font-family="Times,serif" font-size="14.00"> keys = ()</text>
</g>
<!-- node5&#45;&gt;node12 -->
<g id="edge2" class="edge">
<title>node5&#45;&gt;node12</title>
<path fill="none" stroke="black" d="M533.32,-774.32C573.76,-719.24 615.5,-643.98 615.5,-568 615.5,-568 615.5,-568 615.5,-138.5 615.5,-106.22 591.77,-79.06 567.55,-59.75"/>
<polygon fill="black" stroke="black" points="569.42,-56.77 559.35,-53.5 565.18,-62.34 569.42,-56.77"/>
<text text-anchor="start" x="615.5" y="-360.8" font-family="Times,serif" font-size="14.00">%5</text>
</g>
<!-- node8 -->
<g id="node9" class="node">
<title>node8</title>
<polygon fill="none" stroke="black" points="137,-390.5 137,-443.5 340,-443.5 340,-390.5 137,-390.5"/>
<text text-anchor="start" x="145" y="-428.3" font-family="Times,serif" font-size="14.00">Union %6 %7</text>
<text text-anchor="start" x="145" y="-413.3" font-family="Times,serif" font-size="14.00"> types = (integer, integer)</text>
<text text-anchor="start" x="145" y="-398.3" font-family="Times,serif" font-size="14.00"> keys = ()</text>
</g>
<!-- node6&#45;&gt;node8 -->
<g id="edge9" class="edge">
<title>node6&#45;&gt;node8</title>
<path fill="none" stroke="black" d="M336.9,-495.47C316.75,-479.6 296.32,-463.52 279.34,-450.15"/>
<polygon fill="black" stroke="black" points="281.32,-447.26 271.3,-443.82 276.99,-452.76 281.32,-447.26"/>
<text text-anchor="start" x="310.5" y="-465.8" font-family="Times,serif" font-size="14.00">%6</text>
</g>
<!-- node7&#45;&gt;node8 -->
<g id="edge14" class="edge">
<title>node7&#45;&gt;node8</title>
<path fill="none" stroke="black" d="M226.25,-657.41C227.88,-614.74 230.5,-550.7 233.5,-495 234.23,-481.49 235.16,-466.65 236.02,-453.64"/>
<polygon fill="black" stroke="black" points="239.51,-453.87 236.69,-443.66 232.53,-453.4 239.51,-453.87"/>
<text text-anchor="start" x="233.5" y="-563.3" font-family="Times,serif" font-size="14.00">%7</text>
</g>
<!-- node8&#45;&gt;node9 -->
<g id="edge10" class="edge">
<title>node8&#45;&gt;node9</title>
<path fill="none" stroke="black" d="M223.46,-390.36C216.24,-378.05 207.24,-362.7 198.32,-347.49"/>
<polygon fill="black" stroke="black" points="201.17,-345.43 193.09,-338.57 195.13,-348.97 201.17,-345.43"/>
<text text-anchor="start" x="211.5" y="-360.8" font-family="Times,serif" font-size="14.00">%8</text>
</g>
<!-- node11 -->
<g id="node12" class="node">
<title>node11</title>
<polygon fill="none" stroke="black" points="249.5,-105.5 249.5,-173.5 587.5,-173.5 587.5,-105.5 249.5,-105.5"/>
<text text-anchor="start" x="257.5" y="-158.3" font-family="Times,serif" font-size="14.00">Join %9 %10</text>
<text text-anchor="start" x="257.5" y="-143.3" font-family="Times,serif" font-size="14.00"> implementation = Unimplemented</text>
<text text-anchor="start" x="257.5" y="-128.3" font-family="Times,serif" font-size="14.00"> types = (integer, integer, integer?, integer?)</text>
<text text-anchor="start" x="257.5" y="-113.3" font-family="Times,serif" font-size="14.00"> keys = ()</text>
</g>
<!-- node9&#45;&gt;node11 -->
<g id="edge11" class="edge">
<title>node9&#45;&gt;node11</title>
<path fill="none" stroke="black" d="M262.47,-225.47C291.45,-209.69 322.33,-192.87 348.91,-178.4"/>
<polygon fill="black" stroke="black" points="350.64,-181.44 357.75,-173.58 347.29,-175.29 350.64,-181.44"/>
<text text-anchor="start" x="319.5" y="-195.8" font-family="Times,serif" font-size="14.00">%9</text>
</g>
<!-- node10 -->
<g id="node11" class="node">
<title>node10</title>
<polygon fill="none" stroke="black" points="339,-255.5 339,-308.5 558,-308.5 558,-255.5 339,-255.5"/>
<text text-anchor="start" x="347" y="-293.3" font-family="Times,serif" font-size="14.00">Constant (null, null)</text>
<text text-anchor="start" x="347" y="-278.3" font-family="Times,serif" font-size="14.00"> types = (integer?, integer?)</text>
<text text-anchor="start" x="347" y="-263.3" font-family="Times,serif" font-size="14.00"> keys = (())</text>
</g>
<!-- node10&#45;&gt;node11 -->
<g id="edge13" class="edge">
<title>node10&#45;&gt;node11</title>
<path fill="none" stroke="black" d="M443,-255.23C438.72,-235.22 432.7,-207.02 427.7,-183.59"/>
<polygon fill="black" stroke="black" points="431.07,-182.6 425.56,-173.55 424.22,-184.06 431.07,-182.6"/>
<text text-anchor="start" x="432.5" y="-195.8" font-family="Times,serif" font-size="14.00">%10</text>
</g>
<!-- node11&#45;&gt;node12 -->
<g id="edge12" class="edge">
<title>node11&#45;&gt;node12</title>
<path fill="none" stroke="black" d="M447.9,-105.35C460.27,-91.4 474.63,-75.21 487.01,-61.25"/>
<polygon fill="black" stroke="black" points="489.64,-63.56 493.66,-53.75 484.4,-58.91 489.64,-63.56"/>
<text text-anchor="start" x="475.5" y="-75.8" font-family="Times,serif" font-size="14.00">%11</text>
</g>
</g>
</svg>
