<?xml version="1.0" encoding="UTF-8" standalone="no"?>
<!DOCTYPE svg PUBLIC "-//W3C//DTD SVG 1.1//EN"
 "http://www.w3.org/Graphics/SVG/1.1/DTD/svg11.dtd">
<!-- Generated by graphviz version 2.43.0 (0)
 -->
<!-- Title: G Pages: 1 -->
<svg width="724pt" height="1168pt"
 viewBox="0.00 0.00 724.00 1168.00" xmlns="http://www.w3.org/2000/svg" xmlns:xlink="http://www.w3.org/1999/xlink">
<g id="graph0" class="graph" transform="scale(1 1) rotate(0) translate(4 1164)">
<title>G</title>
<polygon fill="white" stroke="transparent" points="-4,4 -4,-1164 720,-1164 720,4 -4,4"/>
<!-- node0 -->
<g id="node1" class="node">
<title>node0</title>
<polygon fill="none" stroke="black" points="65,-1123.5 65,-1159.5 161,-1159.5 161,-1123.5 65,-1123.5"/>
<text text-anchor="start" x="73" y="-1137.8" font-family="Times,serif" font-size="14.00">Constant ()</text>
</g>
<!-- node2 -->
<g id="node3" class="node">
<title>node2</title>
<polygon fill="none" stroke="black" points="150,-1033.5 150,-1071.5 424,-1071.5 424,-1033.5 150,-1033.5"/>
<text text-anchor="start" x="158" y="-1056.3" font-family="Times,serif" font-size="14.00">Join %0 %1</text>
<text text-anchor="start" x="158" y="-1041.3" font-family="Times,serif" font-size="14.00">&#45; implementation = Unimplemented</text>
</g>
<!-- node0&#45;&gt;node2 -->
<g id="edge1" class="edge">
<title>node0&#45;&gt;node2</title>
<path fill="none" stroke="black" d="M134.09,-1123.43C147.96,-1112.8 166.83,-1099.41 185,-1090 195.57,-1084.53 207.15,-1079.53 218.59,-1075.11"/>
<polygon fill="black" stroke="black" points="220,-1078.32 228.14,-1071.53 217.55,-1071.76 220,-1078.32"/>
<text text-anchor="start" x="185" y="-1093.8" font-family="Times,serif" font-size="14.00">%0</text>
</g>
<!-- node4 -->
<g id="node5" class="node">
<title>node4</title>
<polygon fill="none" stroke="black" points="442,-1033.5 442,-1071.5 716,-1071.5 716,-1033.5 442,-1033.5"/>
<text text-anchor="start" x="450" y="-1056.3" font-family="Times,serif" font-size="14.00">Join %0 %3</text>
<text text-anchor="start" x="450" y="-1041.3" font-family="Times,serif" font-size="14.00">&#45; implementation = Unimplemented</text>
</g>
<!-- node0&#45;&gt;node4 -->
<g id="edge17" class="edge">
<title>node0&#45;&gt;node4</title>
<path fill="none" stroke="black" d="M156.51,-1123.41C186.76,-1112.2 228.27,-1098.16 266,-1090 335.83,-1074.89 357.05,-1080.18 431.49,-1072.12"/>
<polygon fill="black" stroke="black" points="432.3,-1075.55 441.84,-1070.96 431.51,-1068.6 432.3,-1075.55"/>
<text text-anchor="start" x="266" y="-1093.8" font-family="Times,serif" font-size="14.00">%0</text>
</g>
<!-- node11 -->
<g id="node12" class="node">
<title>node11</title>
<polygon fill="none" stroke="black" points="0,-523.5 0,-561.5 274,-561.5 274,-523.5 0,-523.5"/>
<text text-anchor="start" x="8" y="-546.3" font-family="Times,serif" font-size="14.00">Join %0 %10</text>
<text text-anchor="start" x="8" y="-531.3" font-family="Times,serif" font-size="14.00">&#45; implementation = Unimplemented</text>
</g>
<!-- node0&#45;&gt;node11 -->
<g id="edge12" class="edge">
<title>node0&#45;&gt;node11</title>
<path fill="none" stroke="black" d="M74.09,-1123.46C47.85,-1109.04 18,-1085.59 18,-1053.5 18,-1053.5 18,-1053.5 18,-631.5 18,-601.03 43.54,-579.9 70.95,-566"/>
<polygon fill="black" stroke="black" points="72.76,-569.02 80.29,-561.57 69.75,-562.7 72.76,-569.02"/>
<text text-anchor="start" x="18" y="-838.8" font-family="Times,serif" font-size="14.00">%0</text>
</g>
<!-- node1 -->
<g id="node2" class="node">
<title>node1</title>
<polygon fill="none" stroke="black" points="179,-1123.5 179,-1159.5 421,-1159.5 421,-1123.5 179,-1123.5"/>
<text text-anchor="start" x="187" y="-1137.8" font-family="Times,serif" font-size="14.00">Get optimizer_101.public.a (u9)</text>
</g>
<!-- node1&#45;&gt;node2 -->
<g id="edge22" class="edge">
<title>node1&#45;&gt;node2</title>
<path fill="none" stroke="black" d="M297.43,-1123.31C295.65,-1111.39 293.24,-1095.26 291.18,-1081.5"/>
<polygon fill="black" stroke="black" points="294.64,-1080.92 289.7,-1071.55 287.71,-1081.96 294.64,-1080.92"/>
<text text-anchor="start" x="295" y="-1093.8" font-family="Times,serif" font-size="14.00">%1</text>
</g>
<!-- node5 -->
<g id="node6" class="node">
<title>node5</title>
<polygon fill="none" stroke="black" points="244,-913.5 244,-981.5 518,-981.5 518,-913.5 244,-913.5"/>
<text text-anchor="start" x="252" y="-966.3" font-family="Times,serif" font-size="14.00">Join %2 %4</text>
<text text-anchor="start" x="252" y="-951.3" font-family="Times,serif" font-size="14.00">&#45; implementation = Unimplemented</text>
<text text-anchor="start" x="252" y="-936.3" font-family="Times,serif" font-size="14.00">Project (#0..=#4)</text>
<text text-anchor="start" x="252" y="-921.3" font-family="Times,serif" font-size="14.00">Filter (#0 = #3)</text>
</g>
<!-- node2&#45;&gt;node5 -->
<g id="edge11" class="edge">
<title>node2&#45;&gt;node5</title>
<path fill="none" stroke="black" d="M303.81,-1033.09C314.87,-1020.96 329.8,-1004.6 343.58,-989.5"/>
<polygon fill="black" stroke="black" points="346.51,-991.49 350.66,-981.74 341.34,-986.77 346.51,-991.49"/>
<text text-anchor="start" x="334" y="-1003.8" font-family="Times,serif" font-size="14.00">%2</text>
</g>
<!-- node7 -->
<g id="node8" class="node">
<title>node7</title>
<polygon fill="none" stroke="black" points="367,-703.5 367,-771.5 641,-771.5 641,-703.5 367,-703.5"/>
<text text-anchor="start" x="375" y="-756.3" font-family="Times,serif" font-size="14.00">Join %2 %6 (= #0 #3)</text>
<text text-anchor="start" x="375" y="-741.3" font-family="Times,serif" font-size="14.00">&#45; implementation = Unimplemented</text>
<text text-anchor="start" x="375" y="-726.3" font-family="Times,serif" font-size="14.00">Project (#0..=#2)</text>
<text text-anchor="start" x="375" y="-711.3" font-family="Times,serif" font-size="14.00">Negate</text>
</g>
<!-- node2&#45;&gt;node7 -->
<g id="edge9" class="edge">
<title>node2&#45;&gt;node7</title>
<path fill="none" stroke="black" d="M394.16,-1033.46C450.09,-1021.64 510.29,-1004.24 527,-982 570.83,-923.68 545.47,-833.97 524.05,-781.26"/>
<polygon fill="black" stroke="black" points="527.2,-779.74 520.11,-771.87 520.75,-782.45 527.2,-779.74"/>
<text text-anchor="start" x="550" y="-883.8" font-family="Times,serif" font-size="14.00">%2</text>
</g>
<!-- node8 -->
<g id="node9" class="node">
<title>node8</title>
<polygon fill="none" stroke="black" points="354,-613.5 354,-651.5 470,-651.5 470,-613.5 354,-613.5"/>
<text text-anchor="start" x="362" y="-636.3" font-family="Times,serif" font-size="14.00">Union %7 %2</text>
<text text-anchor="start" x="362" y="-621.3" font-family="Times,serif" font-size="14.00">Map null, null</text>
</g>
<!-- node2&#45;&gt;node8 -->
<g id="edge24" class="edge">
<title>node2&#45;&gt;node8</title>
<path fill="none" stroke="black" d="M264.14,-1033.22C243.39,-1014.4 216,-983.03 216,-948.5 216,-948.5 216,-948.5 216,-736.5 216,-706.66 288.1,-675.13 344.84,-654.93"/>
<polygon fill="black" stroke="black" points="346.24,-658.15 354.52,-651.54 343.92,-651.54 346.24,-658.15"/>
<text text-anchor="start" x="216" y="-838.8" font-family="Times,serif" font-size="14.00">%2</text>
</g>
<!-- node3 -->
<g id="node4" class="node">
<title>node3</title>
<polygon fill="none" stroke="black" points="453,-1123.5 453,-1159.5 705,-1159.5 705,-1123.5 453,-1123.5"/>
<text text-anchor="start" x="461" y="-1137.8" font-family="Times,serif" font-size="14.00">Get optimizer_101.public.b (u10)</text>
</g>
<!-- node3&#45;&gt;node4 -->
<g id="edge21" class="edge">
<title>node3&#45;&gt;node4</title>
<path fill="none" stroke="black" d="M579,-1123.31C579,-1111.51 579,-1095.57 579,-1081.9"/>
<polygon fill="black" stroke="black" points="582.5,-1081.55 579,-1071.55 575.5,-1081.55 582.5,-1081.55"/>
<text text-anchor="start" x="579" y="-1093.8" font-family="Times,serif" font-size="14.00">%3</text>
</g>
<!-- node4&#45;&gt;node5 -->
<g id="edge18" class="edge">
<title>node4&#45;&gt;node5</title>
<path fill="none" stroke="black" d="M544.06,-1033.32C519.1,-1020.34 484.62,-1002.4 453.8,-986.37"/>
<polygon fill="black" stroke="black" points="455.28,-983.19 444.79,-981.68 452.04,-989.4 455.28,-983.19"/>
<text text-anchor="start" x="503" y="-1003.8" font-family="Times,serif" font-size="14.00">%4</text>
</g>
<!-- node6 -->
<g id="node7" class="node">
<title>node6</title>
<polygon fill="none" stroke="black" points="354.5,-823.5 354.5,-861.5 517.5,-861.5 517.5,-823.5 354.5,-823.5"/>
<text text-anchor="start" x="362.5" y="-846.3" font-family="Times,serif" font-size="14.00">Project (#0)</text>
<text text-anchor="start" x="362.5" y="-831.3" font-family="Times,serif" font-size="14.00">Distinct group=(#0)</text>
</g>
<!-- node5&#45;&gt;node6 -->
<g id="edge14" class="edge">
<title>node5&#45;&gt;node6</title>
<path fill="none" stroke="black" d="M398.71,-913.34C406.08,-899.52 414.54,-883.68 421.54,-870.58"/>
<polygon fill="black" stroke="black" points="424.72,-872.06 426.34,-861.59 418.54,-868.76 424.72,-872.06"/>
<text text-anchor="start" x="415" y="-883.8" font-family="Times,serif" font-size="14.00">%5</text>
</g>
<!-- node9 -->
<g id="node10" class="node">
<title>node9</title>
<polygon fill="none" stroke="black" points="292.5,-524.5 292.5,-560.5 405.5,-560.5 405.5,-524.5 292.5,-524.5"/>
<text text-anchor="start" x="300.5" y="-538.8" font-family="Times,serif" font-size="14.00">Union %8 %5</text>
</g>
<!-- node5&#45;&gt;node9 -->
<g id="edge3" class="edge">
<title>node5&#45;&gt;node9</title>
<path fill="none" stroke="black" d="M352.53,-913.1C339.11,-893.99 326,-868.84 326,-843.5 326,-843.5 326,-843.5 326,-631.5 326,-610.38 332.28,-587.31 338.27,-570.09"/>
<polygon fill="black" stroke="black" points="341.57,-571.28 341.72,-560.68 334.99,-568.87 341.57,-571.28"/>
<text text-anchor="start" x="326" y="-733.8" font-family="Times,serif" font-size="14.00">%5</text>
</g>
<!-- node6&#45;&gt;node7 -->
<g id="edge7" class="edge">
<title>node6&#45;&gt;node7</title>
<path fill="none" stroke="black" d="M448.16,-823.09C456.01,-811.19 466.57,-795.2 476.38,-780.33"/>
<polygon fill="black" stroke="black" points="479.46,-782.02 482.05,-771.74 473.62,-778.16 479.46,-782.02"/>
<text text-anchor="start" x="470" y="-793.8" font-family="Times,serif" font-size="14.00">%6</text>
</g>
<!-- node7&#45;&gt;node8 -->
<g id="edge4" class="edge">
<title>node7&#45;&gt;node8</title>
<path fill="none" stroke="black" d="M474.38,-703.34C461.56,-688.99 446.79,-672.45 434.83,-659.07"/>
<polygon fill="black" stroke="black" points="437.43,-656.72 428.16,-651.59 432.21,-661.38 437.43,-656.72"/>
<text text-anchor="start" x="458" y="-673.8" font-family="Times,serif" font-size="14.00">%7</text>
</g>
<!-- node8&#45;&gt;node9 -->
<g id="edge6" class="edge">
<title>node8&#45;&gt;node9</title>
<path fill="none" stroke="black" d="M398.95,-613.27C389.75,-600.43 377.32,-583.06 367.17,-568.87"/>
<polygon fill="black" stroke="black" points="369.85,-566.61 361.18,-560.52 364.16,-570.68 369.85,-566.61"/>
<text text-anchor="start" x="384" y="-583.8" font-family="Times,serif" font-size="14.00">%8</text>
</g>
<!-- node12 -->
<g id="node13" class="node">
<title>node12</title>
<polygon fill="none" stroke="black" points="194,-403.5 194,-471.5 468,-471.5 468,-403.5 194,-403.5"/>
<text text-anchor="start" x="202" y="-456.3" font-family="Times,serif" font-size="14.00">Join %9 %11</text>
<text text-anchor="start" x="202" y="-441.3" font-family="Times,serif" font-size="14.00">&#45; implementation = Unimplemented</text>
<text text-anchor="start" x="202" y="-426.3" font-family="Times,serif" font-size="14.00">Project (#0..=#5)</text>
<text text-anchor="start" x="202" y="-411.3" font-family="Times,serif" font-size="14.00">Filter (#4 = #5)</text>
</g>
<!-- node9&#45;&gt;node12 -->
<g id="edge2" class="edge">
<title>node9&#45;&gt;node12</title>
<path fill="none" stroke="black" d="M346.03,-524.49C344,-512.89 341.22,-496.95 338.59,-481.96"/>
<polygon fill="black" stroke="black" points="341.99,-481.03 336.82,-471.79 335.09,-482.24 341.99,-481.03"/>
<text text-anchor="start" x="342" y="-493.8" font-family="Times,serif" font-size="14.00">%9</text>
</g>
<!-- node10 -->
<g id="node11" class="node">
<title>node10</title>
<polygon fill="none" stroke="black" points="46.5,-614.5 46.5,-650.5 297.5,-650.5 297.5,-614.5 46.5,-614.5"/>
<text text-anchor="start" x="54.5" y="-628.8" font-family="Times,serif" font-size="14.00">Get optimizer_101.public.c (u11)</text>
</g>
<!-- node10&#45;&gt;node11 -->
<g id="edge10" class="edge">
<title>node10&#45;&gt;node11</title>
<path fill="none" stroke="black" d="M165.09,-614.11C160.24,-601.94 153.67,-585.42 148.1,-571.41"/>
<polygon fill="black" stroke="black" points="151.21,-569.76 144.26,-561.76 144.71,-572.34 151.21,-569.76"/>
<text text-anchor="start" x="157" y="-583.8" font-family="Times,serif" font-size="14.00">%10</text>
</g>
<!-- node11&#45;&gt;node12 -->
<g id="edge8" class="edge">
<title>node11&#45;&gt;node12</title>
<path fill="none" stroke="black" d="M171.24,-523.32C195.59,-510.4 229.18,-492.56 259.28,-476.58"/>
<polygon fill="black" stroke="black" points="261.31,-479.46 268.5,-471.68 258.03,-473.28 261.31,-479.46"/>
<text text-anchor="start" x="234" y="-493.8" font-family="Times,serif" font-size="14.00">%11</text>
</g>
<!-- node14 -->
<g id="node15" class="node">
<title>node14</title>
<polygon fill="none" stroke="black" points="95,-193.5 95,-261.5 369,-261.5 369,-193.5 95,-193.5"/>
<text text-anchor="start" x="103" y="-246.3" font-family="Times,serif" font-size="14.00">Join %11 %13 (= #0 #1)</text>
<text text-anchor="start" x="103" y="-231.3" font-family="Times,serif" font-size="14.00">&#45; implementation = Unimplemented</text>
<text text-anchor="start" x="103" y="-216.3" font-family="Times,serif" font-size="14.00">Project (#0)</text>
<text text-anchor="start" x="103" y="-201.3" font-family="Times,serif" font-size="14.00">Negate</text>
</g>
<!-- node11&#45;&gt;node14 -->
<g id="edge16" class="edge">
<title>node11&#45;&gt;node14</title>
<path fill="none" stroke="black" d="M139.58,-523.29C145.47,-484.01 161.59,-388.75 189,-313 194.14,-298.79 201.13,-283.9 207.97,-270.65"/>
<polygon fill="black" stroke="black" points="211.09,-272.25 212.66,-261.77 204.9,-268.98 211.09,-272.25"/>
<text text-anchor="start" x="171" y="-373.8" font-family="Times,serif" font-size="14.00">%11</text>
</g>
<!-- node15 -->
<g id="node16" class="node">
<title>node15</title>
<polygon fill="none" stroke="black" points="120,-88.5 120,-141.5 344,-141.5 344,-88.5 120,-88.5"/>
<text text-anchor="start" x="128" y="-126.3" font-family="Times,serif" font-size="14.00">Union %14 %11</text>
<text text-anchor="start" x="128" y="-111.3" font-family="Times,serif" font-size="14.00">Map null, null, null, null, null</text>
<text text-anchor="start" x="128" y="-96.3" font-family="Times,serif" font-size="14.00">Project (#1..=#5, #0)</text>
</g>
<!-- node11&#45;&gt;node15 -->
<g id="edge15" class="edge">
<title>node11&#45;&gt;node15</title>
<path fill="none" stroke="black" d="M114.47,-523.15C94,-504.28 67,-472.88 67,-438.5 67,-438.5 67,-438.5 67,-226.5 67,-188.68 97.3,-162.98 131.93,-145.96"/>
<polygon fill="black" stroke="black" points="133.7,-149 141.29,-141.61 130.75,-142.65 133.7,-149"/>
<text text-anchor="start" x="67" y="-328.8" font-family="Times,serif" font-size="14.00">%11</text>
</g>
<!-- node13 -->
<g id="node14" class="node">
<title>node13</title>
<polygon fill="none" stroke="black" points="198.5,-313.5 198.5,-351.5 361.5,-351.5 361.5,-313.5 198.5,-313.5"/>
<text text-anchor="start" x="206.5" y="-336.3" font-family="Times,serif" font-size="14.00">Project (#4)</text>
<text text-anchor="start" x="206.5" y="-321.3" font-family="Times,serif" font-size="14.00">Distinct group=(#0)</text>
</g>
<!-- node12&#45;&gt;node13 -->
<g id="edge5" class="edge">
<title>node12&#45;&gt;node13</title>
<path fill="none" stroke="black" d="M314.58,-403.34C307.74,-389.52 299.89,-373.68 293.41,-360.58"/>
<polygon fill="black" stroke="black" points="296.53,-359 288.96,-351.59 290.26,-362.11 296.53,-359"/>
<text text-anchor="start" x="305" y="-373.8" font-family="Times,serif" font-size="14.00">%12</text>
</g>
<!-- node16 -->
<g id="node17" class="node">
<title>node16</title>
<polygon fill="none" stroke="black" points="252.5,-0.5 252.5,-36.5 383.5,-36.5 383.5,-0.5 252.5,-0.5"/>
<text text-anchor="start" x="260.5" y="-14.8" font-family="Times,serif" font-size="14.00">Union %15 %12</text>
</g>
<!-- node12&#45;&gt;node16 -->
<g id="edge23" class="edge">
<title>node12&#45;&gt;node16</title>
<path fill="none" stroke="black" d="M370.6,-403.46C388.19,-385.01 405,-360.36 405,-333.5 405,-333.5 405,-333.5 405,-114 405,-83.61 380.35,-58.8 357.29,-42.24"/>
<polygon fill="black" stroke="black" points="359.15,-39.27 348.92,-36.51 355.2,-45.05 359.15,-39.27"/>
<text text-anchor="start" x="405" y="-223.8" font-family="Times,serif" font-size="14.00">%12</text>
</g>
<!-- node13&#45;&gt;node14 -->
<g id="edge19" class="edge">
<title>node13&#45;&gt;node14</title>
<path fill="none" stroke="black" d="M271.42,-313.09C265.98,-301.41 258.7,-285.8 251.88,-271.17"/>
<polygon fill="black" stroke="black" points="254.89,-269.33 247.49,-261.74 248.54,-272.29 254.89,-269.33"/>
<text text-anchor="start" x="262" y="-283.8" font-family="Times,serif" font-size="14.00">%13</text>
</g>
<!-- node14&#45;&gt;node15 -->
<g id="edge13" class="edge">
<title>node14&#45;&gt;node15</title>
<path fill="none" stroke="black" d="M232,-193.35C232,-180.3 232,-165.3 232,-151.99"/>
<polygon fill="black" stroke="black" points="235.5,-151.75 232,-141.75 228.5,-151.75 235.5,-151.75"/>
<text text-anchor="start" x="232" y="-163.8" font-family="Times,serif" font-size="14.00">%14</text>
</g>
<!-- node15&#45;&gt;node16 -->
<g id="edge20" class="edge">
<title>node15&#45;&gt;node16</title>
<path fill="none" stroke="black" d="M255.5,-88.18C267.97,-74.47 283.22,-57.72 295.53,-44.19"/>
<polygon fill="black" stroke="black" points="298.26,-46.39 302.4,-36.64 293.08,-41.68 298.26,-46.39"/>
<text text-anchor="start" x="286" y="-58.8" font-family="Times,serif" font-size="14.00">%15</text>
</g>
</g>
</svg>
