<?xml version="1.0" encoding="UTF-8" standalone="no"?>
<!DOCTYPE svg PUBLIC "-//W3C//DTD SVG 1.1//EN"
 "http://www.w3.org/Graphics/SVG/1.1/DTD/svg11.dtd">
<!-- Generated by graphviz version 2.43.0 (0)
 -->
<!-- Title: G Pages: 1 -->
<svg width="936pt" height="607pt"
 viewBox="0.00 0.00 936.00 607.00" xmlns="http://www.w3.org/2000/svg" xmlns:xlink="http://www.w3.org/1999/xlink">
<g id="graph0" class="graph" transform="scale(1 1) rotate(0) translate(4 603)">
<title>G</title>
<polygon fill="white" stroke="transparent" points="-4,4 -4,-603 932,-603 932,4 -4,4"/>
<!-- node0 -->
<g id="node1" class="node">
<title>node0</title>
<polygon fill="none" stroke="black" points="0,-545.5 0,-598.5 242,-598.5 242,-545.5 0,-545.5"/>
<text text-anchor="start" x="8" y="-583.3" font-family="Times,serif" font-size="14.00">Get optimizer_101.public.a (u9)</text>
<text text-anchor="start" x="8" y="-568.3" font-family="Times,serif" font-size="14.00">Filter !(isnull(#0))</text>
<text text-anchor="start" x="8" y="-553.3" font-family="Times,serif" font-size="14.00">ArrangeBy (#0)</text>
</g>
<!-- node3 -->
<g id="node4" class="node">
<title>node3</title>
<polygon fill="none" stroke="black" points="189.5,-440.5 189.5,-493.5 582.5,-493.5 582.5,-440.5 189.5,-440.5"/>
<text text-anchor="start" x="197.5" y="-478.3" font-family="Times,serif" font-size="14.00">Join %0 %1 %2 (= #0 #3) (= #4 #5)</text>
<text text-anchor="start" x="197.5" y="-463.3" font-family="Times,serif" font-size="14.00">&#45; implementation = Differential %2 %1.(#1) %0.(#0)</text>
<text text-anchor="start" x="197.5" y="-448.3" font-family="Times,serif" font-size="14.00">Project (#0..=#2, #4)</text>
</g>
<!-- node0&#45;&gt;node3 -->
<g id="edge1" class="edge">
<title>node0&#45;&gt;node3</title>
<path fill="none" stroke="black" d="M186.85,-545.41C224.29,-530.85 271.35,-512.56 310.31,-497.42"/>
<polygon fill="black" stroke="black" points="311.98,-500.52 320.03,-493.64 309.44,-494 311.98,-500.52"/>
<text text-anchor="start" x="270" y="-515.8" font-family="Times,serif" font-size="14.00">%0</text>
</g>
<!-- node1 -->
<g id="node2" class="node">
<title>node1</title>
<polygon fill="none" stroke="black" points="260,-545.5 260,-598.5 512,-598.5 512,-545.5 260,-545.5"/>
<text text-anchor="start" x="268" y="-583.3" font-family="Times,serif" font-size="14.00">Get optimizer_101.public.b (u10)</text>
<text text-anchor="start" x="268" y="-568.3" font-family="Times,serif" font-size="14.00">Filter !(isnull(#0)), !(isnull(#1))</text>
<text text-anchor="start" x="268" y="-553.3" font-family="Times,serif" font-size="14.00">ArrangeBy (#1)</text>
</g>
<!-- node1&#45;&gt;node3 -->
<g id="edge9" class="edge">
<title>node1&#45;&gt;node3</title>
<path fill="none" stroke="black" d="M386,-545.27C386,-532.74 386,-517.46 386,-503.81"/>
<polygon fill="black" stroke="black" points="389.5,-503.75 386,-493.75 382.5,-503.75 389.5,-503.75"/>
<text text-anchor="start" x="386" y="-515.8" font-family="Times,serif" font-size="14.00">%1</text>
</g>
<!-- node2 -->
<g id="node3" class="node">
<title>node2</title>
<polygon fill="none" stroke="black" points="530.5,-553 530.5,-591 781.5,-591 781.5,-553 530.5,-553"/>
<text text-anchor="start" x="538.5" y="-575.8" font-family="Times,serif" font-size="14.00">Get optimizer_101.public.c (u11)</text>
<text text-anchor="start" x="538.5" y="-560.8" font-family="Times,serif" font-size="14.00">Filter !(isnull(#0))</text>
</g>
<!-- node2&#45;&gt;node3 -->
<g id="edge7" class="edge">
<title>node2&#45;&gt;node3</title>
<path fill="none" stroke="black" d="M608.66,-552.94C568.34,-537.56 509.63,-515.16 462.62,-497.23"/>
<polygon fill="black" stroke="black" points="463.67,-493.88 453.08,-493.59 461.17,-500.42 463.67,-493.88"/>
<text text-anchor="start" x="538" y="-515.8" font-family="Times,serif" font-size="14.00">%2</text>
</g>
<!-- node5 -->
<g id="node6" class="node">
<title>node5</title>
<polygon fill="none" stroke="black" points="681.5,-335.5 681.5,-388.5 844.5,-388.5 844.5,-335.5 681.5,-335.5"/>
<text text-anchor="start" x="689.5" y="-373.3" font-family="Times,serif" font-size="14.00">Project (#3)</text>
<text text-anchor="start" x="689.5" y="-358.3" font-family="Times,serif" font-size="14.00">Distinct group=(#0)</text>
<text text-anchor="start" x="689.5" y="-343.3" font-family="Times,serif" font-size="14.00">ArrangeBy (#0)</text>
</g>
<!-- node3&#45;&gt;node5 -->
<g id="edge2" class="edge">
<title>node3&#45;&gt;node5</title>
<path fill="none" stroke="black" d="M482.41,-440.44C535.42,-426.29 602.6,-408.2 671.44,-389.14"/>
<polygon fill="black" stroke="black" points="672.46,-392.49 681.16,-386.45 670.59,-385.74 672.46,-392.49"/>
<text text-anchor="start" x="601" y="-410.8" font-family="Times,serif" font-size="14.00">%3</text>
</g>
<!-- node9 -->
<g id="node10" class="node">
<title>node9</title>
<polygon fill="none" stroke="black" points="224,-280.5 224,-316.5 460,-316.5 460,-280.5 224,-280.5"/>
<text text-anchor="start" x="232" y="-294.8" font-family="Times,serif" font-size="14.00">Project (#0..=#2, #0, #3, #3)</text>
</g>
<!-- node3&#45;&gt;node9 -->
<g id="edge4" class="edge">
<title>node3&#45;&gt;node9</title>
<path fill="none" stroke="black" d="M379.22,-440.35C371.08,-409.53 357.48,-358.07 349.17,-326.61"/>
<polygon fill="black" stroke="black" points="352.5,-325.55 346.56,-316.77 345.74,-327.34 352.5,-325.55"/>
<text text-anchor="start" x="375" y="-410.8" font-family="Times,serif" font-size="14.00">%3</text>
</g>
<!-- node4 -->
<g id="node5" class="node">
<title>node4</title>
<polygon fill="none" stroke="black" points="412.5,-344 412.5,-380 663.5,-380 663.5,-344 412.5,-344"/>
<text text-anchor="start" x="420.5" y="-358.3" font-family="Times,serif" font-size="14.00">Get optimizer_101.public.c (u11)</text>
</g>
<!-- node6 -->
<g id="node7" class="node">
<title>node6</title>
<polygon fill="none" stroke="black" points="598,-193.5 598,-261.5 928,-261.5 928,-193.5 598,-193.5"/>
<text text-anchor="start" x="606" y="-246.3" font-family="Times,serif" font-size="14.00">Join %4 %5 (= #0 #1)</text>
<text text-anchor="start" x="606" y="-231.3" font-family="Times,serif" font-size="14.00">&#45; implementation = Differential %4 %5.(#0)</text>
<text text-anchor="start" x="606" y="-216.3" font-family="Times,serif" font-size="14.00">Project (#0)</text>
<text text-anchor="start" x="606" y="-201.3" font-family="Times,serif" font-size="14.00">Negate</text>
</g>
<!-- node4&#45;&gt;node6 -->
<g id="edge6" class="edge">
<title>node4&#45;&gt;node6</title>
<path fill="none" stroke="black" d="M566.95,-343.95C599.82,-324.59 654.49,-292.4 697.75,-266.92"/>
<polygon fill="black" stroke="black" points="699.68,-269.85 706.52,-261.76 696.13,-263.82 699.68,-269.85"/>
<text text-anchor="start" x="670" y="-294.8" font-family="Times,serif" font-size="14.00">%4</text>
</g>
<!-- node5&#45;&gt;node6 -->
<g id="edge5" class="edge">
<title>node5&#45;&gt;node6</title>
<path fill="none" stroke="black" d="M763,-335.45C763,-317.36 763,-292.65 763,-271.54"/>
<polygon fill="black" stroke="black" points="766.5,-271.51 763,-261.51 759.5,-271.51 766.5,-271.51"/>
<text text-anchor="start" x="763" y="-294.8" font-family="Times,serif" font-size="14.00">%5</text>
</g>
<!-- node8 -->
<g id="node9" class="node">
<title>node8</title>
<polygon fill="none" stroke="black" points="342,-88.5 342,-141.5 566,-141.5 566,-88.5 342,-88.5"/>
<text text-anchor="start" x="350" y="-126.3" font-family="Times,serif" font-size="14.00">Union %6 %7</text>
<text text-anchor="start" x="350" y="-111.3" font-family="Times,serif" font-size="14.00">Map null, null, null, null, null</text>
<text text-anchor="start" x="350" y="-96.3" font-family="Times,serif" font-size="14.00">Project (#1..=#5, #0)</text>
</g>
<!-- node6&#45;&gt;node8 -->
<g id="edge8" class="edge">
<title>node6&#45;&gt;node8</title>
<path fill="none" stroke="black" d="M670.71,-193.5C627.65,-178.1 576.85,-159.93 535.26,-145.06"/>
<polygon fill="black" stroke="black" points="536.31,-141.72 525.72,-141.65 533.95,-148.31 536.31,-141.72"/>
<text text-anchor="start" x="617" y="-163.8" font-family="Times,serif" font-size="14.00">%6</text>
</g>
<!-- node7 -->
<g id="node8" class="node">
<title>node7</title>
<polygon fill="none" stroke="black" points="328.5,-209.5 328.5,-245.5 579.5,-245.5 579.5,-209.5 328.5,-209.5"/>
<text text-anchor="start" x="336.5" y="-223.8" font-family="Times,serif" font-size="14.00">Get optimizer_101.public.c (u11)</text>
</g>
<!-- node7&#45;&gt;node8 -->
<g id="edge10" class="edge">
<title>node7&#45;&gt;node8</title>
<path fill="none" stroke="black" d="M454,-209.23C454,-193.97 454,-171.22 454,-152.01"/>
<polygon fill="black" stroke="black" points="457.5,-151.77 454,-141.77 450.5,-151.77 457.5,-151.77"/>
<text text-anchor="start" x="454" y="-163.8" font-family="Times,serif" font-size="14.00">%7</text>
</g>
<!-- node10 -->
<g id="node11" class="node">
<title>node10</title>
<polygon fill="none" stroke="black" points="259.5,-0.5 259.5,-36.5 372.5,-36.5 372.5,-0.5 259.5,-0.5"/>
<text text-anchor="start" x="267.5" y="-14.8" font-family="Times,serif" font-size="14.00">Union %8 %9</text>
</g>
<!-- node8&#45;&gt;node10 -->
<g id="edge11" class="edge">
<title>node8&#45;&gt;node10</title>
<path fill="none" stroke="black" d="M416.66,-88.43C395.7,-74.08 369.78,-56.32 349.48,-42.43"/>
<polygon fill="black" stroke="black" points="351.39,-39.49 341.16,-36.73 347.44,-45.27 351.39,-39.49"/>
<text text-anchor="start" x="390" y="-58.8" font-family="Times,serif" font-size="14.00">%8</text>
</g>
<!-- node9&#45;&gt;node10 -->
<g id="edge3" class="edge">
<title>node9&#45;&gt;node10</title>
<path fill="none" stroke="black" d="M328.18,-280.42C324.48,-274.87 320.96,-268.47 319,-262 296.27,-186.82 305.07,-92.44 311.52,-46.76"/>
<polygon fill="black" stroke="black" points="315,-47.16 313.01,-36.75 308.08,-46.13 315,-47.16"/>
<text text-anchor="start" x="305" y="-163.8" font-family="Times,serif" font-size="14.00">%9</text>
</g>
</g>
</svg>
