<?xml version="1.0" encoding="UTF-8" standalone="no"?>
<!DOCTYPE svg PUBLIC "-//W3C//DTD SVG 1.1//EN"
 "http://www.w3.org/Graphics/SVG/1.1/DTD/svg11.dtd">
<!-- Generated by graphviz version 2.43.0 (0)
 -->
<!-- Title: G Pages: 1 -->
<svg width="664pt" height="221pt"
 viewBox="0.00 0.00 663.50 221.00" xmlns="http://www.w3.org/2000/svg" xmlns:xlink="http://www.w3.org/1999/xlink">
<g id="graph0" class="graph" transform="scale(1 1) rotate(0) translate(4 217)">
<title>G</title>
<polygon fill="white" stroke="transparent" points="-4,4 -4,-217 659.5,-217 659.5,4 -4,4"/>
<!-- node0 -->
<g id="node1" class="node">
<title>node0</title>
<polygon fill="none" stroke="black" points="0,-176.5 0,-212.5 242,-212.5 242,-176.5 0,-176.5"/>
<text text-anchor="start" x="8" y="-190.8" font-family="Times,serif" font-size="14.00">Get optimizer_101.public.a (u9)</text>
</g>
<!-- node2 -->
<g id="node3" class="node">
<title>node2</title>
<polygon fill="none" stroke="black" points="119.5,-88.5 119.5,-124.5 386.5,-124.5 386.5,-88.5 119.5,-88.5"/>
<text text-anchor="start" x="127.5" y="-102.8" font-family="Times,serif" font-size="14.00">LeftOuterJoin %0 %1 on (#0 = #3)</text>
</g>
<!-- node0&#45;&gt;node2 -->
<g id="edge2" class="edge">
<title>node0&#45;&gt;node2</title>
<path fill="none" stroke="black" d="M147.39,-176.3C167.72,-163.06 196,-144.64 218.17,-130.19"/>
<polygon fill="black" stroke="black" points="220.18,-133.06 226.65,-124.67 216.36,-127.19 220.18,-133.06"/>
<text text-anchor="start" x="195" y="-146.8" font-family="Times,serif" font-size="14.00">%0</text>
</g>
<!-- node1 -->
<g id="node2" class="node">
<title>node1</title>
<polygon fill="none" stroke="black" points="260,-176.5 260,-212.5 512,-212.5 512,-176.5 260,-176.5"/>
<text text-anchor="start" x="268" y="-190.8" font-family="Times,serif" font-size="14.00">Get optimizer_101.public.b (u10)</text>
</g>
<!-- node1&#45;&gt;node2 -->
<g id="edge1" class="edge">
<title>node1&#45;&gt;node2</title>
<path fill="none" stroke="black" d="M359.41,-176.3C338.93,-163.06 310.44,-144.64 288.09,-130.19"/>
<polygon fill="black" stroke="black" points="289.85,-127.16 279.55,-124.67 286.05,-133.04 289.85,-127.16"/>
<text text-anchor="start" x="328" y="-146.8" font-family="Times,serif" font-size="14.00">%1</text>
</g>
<!-- node4 -->
<g id="node5" class="node">
<title>node4</title>
<polygon fill="none" stroke="black" points="253,-0.5 253,-36.5 531,-36.5 531,-0.5 253,-0.5"/>
<text text-anchor="start" x="261" y="-14.8" font-family="Times,serif" font-size="14.00">RightOuterJoin %2 %3 on (#4 = #5)</text>
</g>
<!-- node2&#45;&gt;node4 -->
<g id="edge3" class="edge">
<title>node2&#45;&gt;node4</title>
<path fill="none" stroke="black" d="M280.79,-88.3C302.29,-75 332.24,-56.48 355.64,-42"/>
<polygon fill="black" stroke="black" points="357.59,-44.9 364.25,-36.67 353.91,-38.95 357.59,-44.9"/>
<text text-anchor="start" x="331" y="-58.8" font-family="Times,serif" font-size="14.00">%2</text>
</g>
<!-- node3 -->
<g id="node4" class="node">
<title>node3</title>
<polygon fill="none" stroke="black" points="404.5,-88.5 404.5,-124.5 655.5,-124.5 655.5,-88.5 404.5,-88.5"/>
<text text-anchor="start" x="412.5" y="-102.8" font-family="Times,serif" font-size="14.00">Get optimizer_101.public.c (u11)</text>
</g>
<!-- node3&#45;&gt;node4 -->
<g id="edge4" class="edge">
<title>node3&#45;&gt;node4</title>
<path fill="none" stroke="black" d="M502.41,-88.3C481.06,-75 451.33,-56.48 428.1,-42"/>
<polygon fill="black" stroke="black" points="429.88,-38.99 419.55,-36.67 426.18,-44.93 429.88,-38.99"/>
<text text-anchor="start" x="469" y="-58.8" font-family="Times,serif" font-size="14.00">%3</text>
</g>
</g>
</svg>
