<?xml version="1.0" encoding="UTF-8" standalone="no"?>
<!DOCTYPE svg PUBLIC "-//W3C//DTD SVG 1.1//EN"
 "http://www.w3.org/Graphics/SVG/1.1/DTD/svg11.dtd">
<!-- Generated by graphviz version 2.43.0 (0)
 -->
<!-- Title: G Pages: 1 -->
<svg width="782pt" height="272pt"
 viewBox="0.00 0.00 781.50 272.00" xmlns="http://www.w3.org/2000/svg" xmlns:xlink="http://www.w3.org/1999/xlink">
<g id="graph0" class="graph" transform="scale(1 1) rotate(0) translate(4 268)">
<title>G</title>
<polygon fill="white" stroke="transparent" points="-4,4 -4,-268 777.5,-268 777.5,4 -4,4"/>
<!-- node0 -->
<g id="node1" class="node">
<title>node0</title>
<polygon fill="none" stroke="black" points="0,-210.5 0,-263.5 292,-263.5 292,-210.5 0,-210.5"/>
<text text-anchor="start" x="8" y="-248.3" font-family="Times,serif" font-size="14.00">Get optimizer_101.public.a (u9)</text>
<text text-anchor="start" x="8" y="-233.3" font-family="Times,serif" font-size="14.00">&#45; types = (integer?, integer?, integer?)</text>
<text text-anchor="start" x="8" y="-218.3" font-family="Times,serif" font-size="14.00">&#45; keys = ()</text>
</g>
<!-- node2 -->
<g id="node3" class="node">
<title>node2</title>
<polygon fill="none" stroke="black" points="77,-105.5 77,-158.5 505,-158.5 505,-105.5 77,-105.5"/>
<text text-anchor="start" x="85" y="-143.3" font-family="Times,serif" font-size="14.00">LeftOuterJoin %0 %1 on (#0 = #3)</text>
<text text-anchor="start" x="85" y="-128.3" font-family="Times,serif" font-size="14.00">&#45; types = (integer?, integer?, integer?, integer?, integer?)</text>
<text text-anchor="start" x="85" y="-113.3" font-family="Times,serif" font-size="14.00">&#45; keys = ()</text>
</g>
<!-- node0&#45;&gt;node2 -->
<g id="edge2" class="edge">
<title>node0&#45;&gt;node2</title>
<path fill="none" stroke="black" d="M182.22,-210.27C201.75,-196.4 226.03,-179.15 246.68,-164.48"/>
<polygon fill="black" stroke="black" points="248.87,-167.22 255,-158.58 244.82,-161.51 248.87,-167.22"/>
<text text-anchor="start" x="228" y="-180.8" font-family="Times,serif" font-size="14.00">%0</text>
</g>
<!-- node1 -->
<g id="node2" class="node">
<title>node1</title>
<polygon fill="none" stroke="black" points="310,-210.5 310,-263.5 562,-263.5 562,-210.5 310,-210.5"/>
<text text-anchor="start" x="318" y="-248.3" font-family="Times,serif" font-size="14.00">Get optimizer_101.public.b (u10)</text>
<text text-anchor="start" x="318" y="-233.3" font-family="Times,serif" font-size="14.00">&#45; types = (integer?, integer?)</text>
<text text-anchor="start" x="318" y="-218.3" font-family="Times,serif" font-size="14.00">&#45; keys = ()</text>
</g>
<!-- node1&#45;&gt;node2 -->
<g id="edge1" class="edge">
<title>node1&#45;&gt;node2</title>
<path fill="none" stroke="black" d="M399.78,-210.27C380.25,-196.4 355.97,-179.15 335.32,-164.48"/>
<polygon fill="black" stroke="black" points="337.18,-161.51 327,-158.58 333.13,-167.22 337.18,-161.51"/>
<text text-anchor="start" x="373" y="-180.8" font-family="Times,serif" font-size="14.00">%1</text>
</g>
<!-- node4 -->
<g id="node5" class="node">
<title>node4</title>
<polygon fill="none" stroke="black" points="221.5,-0.5 221.5,-53.5 718.5,-53.5 718.5,-0.5 221.5,-0.5"/>
<text text-anchor="start" x="229.5" y="-38.3" font-family="Times,serif" font-size="14.00">RightOuterJoin %2 %3 on (#4 = #5)</text>
<text text-anchor="start" x="229.5" y="-23.3" font-family="Times,serif" font-size="14.00">&#45; types = (integer?, integer?, integer?, integer?, integer?, integer?)</text>
<text text-anchor="start" x="229.5" y="-8.3" font-family="Times,serif" font-size="14.00">&#45; keys = ()</text>
</g>
<!-- node2&#45;&gt;node4 -->
<g id="edge3" class="edge">
<title>node2&#45;&gt;node4</title>
<path fill="none" stroke="black" d="M335.71,-105.27C360.25,-91.15 390.86,-73.54 416.65,-58.7"/>
<polygon fill="black" stroke="black" points="418.63,-61.6 425.55,-53.58 415.14,-55.53 418.63,-61.6"/>
<text text-anchor="start" x="391" y="-75.8" font-family="Times,serif" font-size="14.00">%2</text>
</g>
<!-- node3 -->
<g id="node4" class="node">
<title>node3</title>
<polygon fill="none" stroke="black" points="522.5,-105.5 522.5,-158.5 773.5,-158.5 773.5,-105.5 522.5,-105.5"/>
<text text-anchor="start" x="530.5" y="-143.3" font-family="Times,serif" font-size="14.00">Get optimizer_101.public.c (u11)</text>
<text text-anchor="start" x="530.5" y="-128.3" font-family="Times,serif" font-size="14.00">&#45; types = (integer?)</text>
<text text-anchor="start" x="530.5" y="-113.3" font-family="Times,serif" font-size="14.00">&#45; keys = ()</text>
</g>
<!-- node3&#45;&gt;node4 -->
<g id="edge4" class="edge">
<title>node3&#45;&gt;node4</title>
<path fill="none" stroke="black" d="M603.54,-105.27C579.13,-91.15 548.7,-73.54 523.05,-58.7"/>
<polygon fill="black" stroke="black" points="524.61,-55.56 514.2,-53.58 521.1,-61.61 524.61,-55.56"/>
<text text-anchor="start" x="569" y="-75.8" font-family="Times,serif" font-size="14.00">%3</text>
</g>
</g>
</svg>
