<?xml version="1.0" encoding="UTF-8" standalone="no"?>
<!DOCTYPE svg PUBLIC "-//W3C//DTD SVG 1.1//EN"
 "http://www.w3.org/Graphics/SVG/1.1/DTD/svg11.dtd">
<!-- Generated by graphviz version 2.43.0 (0)
 -->
<!-- Title: G Pages: 1 -->
<svg width="1088pt" height="1121pt"
 viewBox="0.00 0.00 1088.00 1121.00" xmlns="http://www.w3.org/2000/svg" xmlns:xlink="http://www.w3.org/1999/xlink">
<g id="graph0" class="graph" transform="scale(1 1) rotate(0) translate(4 1117)">
<title>G</title>
<polygon fill="white" stroke="transparent" points="-4,4 -4,-1117 1084,-1117 1084,4 -4,4"/>
<!-- node0 -->
<g id="node1" class="node">
<title>node0</title>
<polygon fill="none" stroke="black" points="0,-969.5 0,-1112.5 292,-1112.5 292,-969.5 0,-969.5"/>
<text text-anchor="start" x="8" y="-1097.3" font-family="Times,serif" font-size="14.00">Get optimizer_101.public.a (u9)</text>
<text text-anchor="start" x="8" y="-1082.3" font-family="Times,serif" font-size="14.00">&#45; types = (integer?, integer?, integer?)</text>
<text text-anchor="start" x="8" y="-1067.3" font-family="Times,serif" font-size="14.00">&#45; keys = ()</text>
<text text-anchor="start" x="8" y="-1052.3" font-family="Times,serif" font-size="14.00">Filter !(isnull(#0))</text>
<text text-anchor="start" x="8" y="-1037.3" font-family="Times,serif" font-size="14.00">&#45; types = (integer, integer?, integer?)</text>
<text text-anchor="start" x="8" y="-1022.3" font-family="Times,serif" font-size="14.00">&#45; keys = ()</text>
<text text-anchor="start" x="8" y="-1007.3" font-family="Times,serif" font-size="14.00">ArrangeBy (#0)</text>
<text text-anchor="start" x="8" y="-992.3" font-family="Times,serif" font-size="14.00">&#45; types = (integer, integer?, integer?)</text>
<text text-anchor="start" x="8" y="-977.3" font-family="Times,serif" font-size="14.00">&#45; keys = ()</text>
</g>
<!-- node3 -->
<g id="node4" class="node">
<title>node3</title>
<polygon fill="none" stroke="black" points="205,-804.5 205,-917.5 667,-917.5 667,-804.5 205,-804.5"/>
<text text-anchor="start" x="213" y="-902.3" font-family="Times,serif" font-size="14.00">Join %0 %1 %2 (= #0 #3) (= #4 #5)</text>
<text text-anchor="start" x="213" y="-887.3" font-family="Times,serif" font-size="14.00">&#45; implementation = Differential %2 %1.(#1) %0.(#0)</text>
<text text-anchor="start" x="213" y="-872.3" font-family="Times,serif" font-size="14.00">&#45; types = (integer, integer?, integer?, integer, integer, integer)</text>
<text text-anchor="start" x="213" y="-857.3" font-family="Times,serif" font-size="14.00">&#45; keys = ()</text>
<text text-anchor="start" x="213" y="-842.3" font-family="Times,serif" font-size="14.00">Project (#0..=#2, #4)</text>
<text text-anchor="start" x="213" y="-827.3" font-family="Times,serif" font-size="14.00">&#45; types = (integer, integer?, integer?, integer)</text>
<text text-anchor="start" x="213" y="-812.3" font-family="Times,serif" font-size="14.00">&#45; keys = ()</text>
</g>
<!-- node0&#45;&gt;node3 -->
<g id="edge1" class="edge">
<title>node0&#45;&gt;node3</title>
<path fill="none" stroke="black" d="M261.03,-969.39C286.07,-954.03 312.36,-937.89 336.72,-922.94"/>
<polygon fill="black" stroke="black" points="338.56,-925.91 345.25,-917.7 334.9,-919.95 338.56,-925.91"/>
<text text-anchor="start" x="309" y="-939.8" font-family="Times,serif" font-size="14.00">%0</text>
</g>
<!-- node1 -->
<g id="node2" class="node">
<title>node1</title>
<polygon fill="none" stroke="black" points="310,-969.5 310,-1112.5 562,-1112.5 562,-969.5 310,-969.5"/>
<text text-anchor="start" x="318" y="-1097.3" font-family="Times,serif" font-size="14.00">Get optimizer_101.public.b (u10)</text>
<text text-anchor="start" x="318" y="-1082.3" font-family="Times,serif" font-size="14.00">&#45; types = (integer?, integer?)</text>
<text text-anchor="start" x="318" y="-1067.3" font-family="Times,serif" font-size="14.00">&#45; keys = ()</text>
<text text-anchor="start" x="318" y="-1052.3" font-family="Times,serif" font-size="14.00">Filter !(isnull(#0)), !(isnull(#1))</text>
<text text-anchor="start" x="318" y="-1037.3" font-family="Times,serif" font-size="14.00">&#45; types = (integer, integer)</text>
<text text-anchor="start" x="318" y="-1022.3" font-family="Times,serif" font-size="14.00">&#45; keys = ()</text>
<text text-anchor="start" x="318" y="-1007.3" font-family="Times,serif" font-size="14.00">ArrangeBy (#1)</text>
<text text-anchor="start" x="318" y="-992.3" font-family="Times,serif" font-size="14.00">&#45; types = (integer, integer)</text>
<text text-anchor="start" x="318" y="-977.3" font-family="Times,serif" font-size="14.00">&#45; keys = ()</text>
</g>
<!-- node1&#45;&gt;node3 -->
<g id="edge9" class="edge">
<title>node1&#45;&gt;node3</title>
<path fill="none" stroke="black" d="M436,-969.39C436,-955.7 436,-941.41 436,-927.87"/>
<polygon fill="black" stroke="black" points="439.5,-927.7 436,-917.7 432.5,-927.7 439.5,-927.7"/>
<text text-anchor="start" x="436" y="-939.8" font-family="Times,serif" font-size="14.00">%1</text>
</g>
<!-- node2 -->
<g id="node3" class="node">
<title>node2</title>
<polygon fill="none" stroke="black" points="580.5,-992 580.5,-1090 831.5,-1090 831.5,-992 580.5,-992"/>
<text text-anchor="start" x="588.5" y="-1074.8" font-family="Times,serif" font-size="14.00">Get optimizer_101.public.c (u11)</text>
<text text-anchor="start" x="588.5" y="-1059.8" font-family="Times,serif" font-size="14.00">&#45; types = (integer?)</text>
<text text-anchor="start" x="588.5" y="-1044.8" font-family="Times,serif" font-size="14.00">&#45; keys = ()</text>
<text text-anchor="start" x="588.5" y="-1029.8" font-family="Times,serif" font-size="14.00">Filter !(isnull(#0))</text>
<text text-anchor="start" x="588.5" y="-1014.8" font-family="Times,serif" font-size="14.00">&#45; types = (integer)</text>
<text text-anchor="start" x="588.5" y="-999.8" font-family="Times,serif" font-size="14.00">&#45; keys = ()</text>
</g>
<!-- node2&#45;&gt;node3 -->
<g id="edge7" class="edge">
<title>node2&#45;&gt;node3</title>
<path fill="none" stroke="black" d="M632.93,-991.83C600.97,-970.76 563.1,-945.79 529.14,-923.4"/>
<polygon fill="black" stroke="black" points="530.87,-920.35 520.6,-917.77 527.02,-926.2 530.87,-920.35"/>
<text text-anchor="start" x="571" y="-939.8" font-family="Times,serif" font-size="14.00">%2</text>
</g>
<!-- node5 -->
<g id="node6" class="node">
<title>node5</title>
<polygon fill="none" stroke="black" points="736,-579.5 736,-752.5 1080,-752.5 1080,-579.5 736,-579.5"/>
<text text-anchor="start" x="744" y="-737.3" font-family="Times,serif" font-size="14.00">&#45; types = (integer, integer?, integer?, integer)</text>
<text text-anchor="start" x="744" y="-722.3" font-family="Times,serif" font-size="14.00">&#45; keys = ()</text>
<text text-anchor="start" x="744" y="-707.3" font-family="Times,serif" font-size="14.00">Project (#3)</text>
<text text-anchor="start" x="744" y="-692.3" font-family="Times,serif" font-size="14.00">&#45; types = (integer)</text>
<text text-anchor="start" x="744" y="-677.3" font-family="Times,serif" font-size="14.00">&#45; keys = ()</text>
<text text-anchor="start" x="744" y="-662.3" font-family="Times,serif" font-size="14.00">Distinct group=(#0)</text>
<text text-anchor="start" x="744" y="-647.3" font-family="Times,serif" font-size="14.00">&#45; types = (integer)</text>
<text text-anchor="start" x="744" y="-632.3" font-family="Times,serif" font-size="14.00">&#45; keys = ((#0))</text>
<text text-anchor="start" x="744" y="-617.3" font-family="Times,serif" font-size="14.00">ArrangeBy (#0)</text>
<text text-anchor="start" x="744" y="-602.3" font-family="Times,serif" font-size="14.00">&#45; types = (integer)</text>
<text text-anchor="start" x="744" y="-587.3" font-family="Times,serif" font-size="14.00">&#45; keys = ((#0))</text>
</g>
<!-- node3&#45;&gt;node5 -->
<g id="edge2" class="edge">
<title>node3&#45;&gt;node5</title>
<path fill="none" stroke="black" d="M594.26,-804.47C637.3,-788.59 683.69,-770.76 726,-753 726.1,-752.96 726.2,-752.92 726.3,-752.87"/>
<polygon fill="black" stroke="black" points="727.9,-756 735.74,-748.87 725.17,-749.55 727.9,-756"/>
<text text-anchor="start" x="679" y="-774.8" font-family="Times,serif" font-size="14.00">%3</text>
</g>
<!-- node9 -->
<g id="node10" class="node">
<title>node9</title>
<polygon fill="none" stroke="black" points="132,-477.5 132,-560.5 594,-560.5 594,-477.5 132,-477.5"/>
<text text-anchor="start" x="140" y="-545.3" font-family="Times,serif" font-size="14.00">&#45; types = (integer, integer?, integer?, integer)</text>
<text text-anchor="start" x="140" y="-530.3" font-family="Times,serif" font-size="14.00">&#45; keys = ()</text>
<text text-anchor="start" x="140" y="-515.3" font-family="Times,serif" font-size="14.00">Project (#0..=#2, #0, #3, #3)</text>
<text text-anchor="start" x="140" y="-500.3" font-family="Times,serif" font-size="14.00">&#45; types = (integer, integer?, integer?, integer, integer, integer)</text>
<text text-anchor="start" x="140" y="-485.3" font-family="Times,serif" font-size="14.00">&#45; keys = ()</text>
</g>
<!-- node3&#45;&gt;node9 -->
<g id="edge4" class="edge">
<title>node3&#45;&gt;node9</title>
<path fill="none" stroke="black" d="M424.03,-804.24C410.1,-739.37 387.3,-633.19 373.87,-570.61"/>
<polygon fill="black" stroke="black" points="377.23,-569.62 371.71,-560.58 370.39,-571.09 377.23,-569.62"/>
<text text-anchor="start" x="419" y="-774.8" font-family="Times,serif" font-size="14.00">%3</text>
</g>
<!-- node4 -->
<g id="node5" class="node">
<title>node4</title>
<polygon fill="none" stroke="black" points="466.5,-639.5 466.5,-692.5 717.5,-692.5 717.5,-639.5 466.5,-639.5"/>
<text text-anchor="start" x="474.5" y="-677.3" font-family="Times,serif" font-size="14.00">Get optimizer_101.public.c (u11)</text>
<text text-anchor="start" x="474.5" y="-662.3" font-family="Times,serif" font-size="14.00">&#45; types = (integer?)</text>
<text text-anchor="start" x="474.5" y="-647.3" font-family="Times,serif" font-size="14.00">&#45; keys = ()</text>
</g>
<!-- node6 -->
<g id="node7" class="node">
<title>node6</title>
<polygon fill="none" stroke="black" points="689,-300.5 689,-458.5 1019,-458.5 1019,-300.5 689,-300.5"/>
<text text-anchor="start" x="697" y="-443.3" font-family="Times,serif" font-size="14.00">Join %4 %5 (= #0 #1)</text>
<text text-anchor="start" x="697" y="-428.3" font-family="Times,serif" font-size="14.00">&#45; implementation = Differential %4 %5.(#0)</text>
<text text-anchor="start" x="697" y="-413.3" font-family="Times,serif" font-size="14.00">&#45; types = (integer?, integer)</text>
<text text-anchor="start" x="697" y="-398.3" font-family="Times,serif" font-size="14.00">&#45; keys = ()</text>
<text text-anchor="start" x="697" y="-383.3" font-family="Times,serif" font-size="14.00">Project (#0)</text>
<text text-anchor="start" x="697" y="-368.3" font-family="Times,serif" font-size="14.00">&#45; types = (integer?)</text>
<text text-anchor="start" x="697" y="-353.3" font-family="Times,serif" font-size="14.00">&#45; keys = ()</text>
<text text-anchor="start" x="697" y="-338.3" font-family="Times,serif" font-size="14.00">Negate</text>
<text text-anchor="start" x="697" y="-323.3" font-family="Times,serif" font-size="14.00">&#45; types = (integer?)</text>
<text text-anchor="start" x="697" y="-308.3" font-family="Times,serif" font-size="14.00">&#45; keys = ()</text>
</g>
<!-- node4&#45;&gt;node6 -->
<g id="edge6" class="edge">
<title>node4&#45;&gt;node6</title>
<path fill="none" stroke="black" d="M615.71,-639.25C651.35,-600.56 720.35,-525.62 774.97,-466.32"/>
<polygon fill="black" stroke="black" points="777.7,-468.52 781.9,-458.8 772.55,-463.78 777.7,-468.52"/>
<text text-anchor="start" x="761" y="-515.3" font-family="Times,serif" font-size="14.00">%4</text>
</g>
<!-- node5&#45;&gt;node6 -->
<g id="edge5" class="edge">
<title>node5&#45;&gt;node6</title>
<path fill="none" stroke="black" d="M891.72,-579.25C885.11,-544.41 877.47,-504.16 870.8,-469.04"/>
<polygon fill="black" stroke="black" points="874.16,-467.97 868.86,-458.8 867.29,-469.27 874.16,-467.97"/>
<text text-anchor="start" x="887" y="-515.3" font-family="Times,serif" font-size="14.00">%5</text>
</g>
<!-- node8 -->
<g id="node9" class="node">
<title>node8</title>
<polygon fill="none" stroke="black" points="391.5,-105.5 391.5,-248.5 888.5,-248.5 888.5,-105.5 391.5,-105.5"/>
<text text-anchor="start" x="399.5" y="-233.3" font-family="Times,serif" font-size="14.00">Union %6 %7</text>
<text text-anchor="start" x="399.5" y="-218.3" font-family="Times,serif" font-size="14.00">&#45; types = (integer?)</text>
<text text-anchor="start" x="399.5" y="-203.3" font-family="Times,serif" font-size="14.00">&#45; keys = ()</text>
<text text-anchor="start" x="399.5" y="-188.3" font-family="Times,serif" font-size="14.00">Map null, null, null, null, null</text>
<text text-anchor="start" x="399.5" y="-173.3" font-family="Times,serif" font-size="14.00">&#45; types = (integer?, integer?, integer?, integer?, integer?, integer?)</text>
<text text-anchor="start" x="399.5" y="-158.3" font-family="Times,serif" font-size="14.00">&#45; keys = ()</text>
<text text-anchor="start" x="399.5" y="-143.3" font-family="Times,serif" font-size="14.00">Project (#1..=#5, #0)</text>
<text text-anchor="start" x="399.5" y="-128.3" font-family="Times,serif" font-size="14.00">&#45; types = (integer?, integer?, integer?, integer?, integer?, integer?)</text>
<text text-anchor="start" x="399.5" y="-113.3" font-family="Times,serif" font-size="14.00">&#45; keys = ()</text>
</g>
<!-- node6&#45;&gt;node8 -->
<g id="edge8" class="edge">
<title>node6&#45;&gt;node8</title>
<path fill="none" stroke="black" d="M770.65,-300.41C755.02,-285.76 738.68,-270.45 723.05,-255.81"/>
<polygon fill="black" stroke="black" points="725.14,-252.97 715.45,-248.69 720.35,-258.08 725.14,-252.97"/>
<text text-anchor="start" x="747" y="-270.8" font-family="Times,serif" font-size="14.00">%6</text>
</g>
<!-- node7 -->
<g id="node8" class="node">
<title>node7</title>
<polygon fill="none" stroke="black" points="419.5,-353 419.5,-406 670.5,-406 670.5,-353 419.5,-353"/>
<text text-anchor="start" x="427.5" y="-390.8" font-family="Times,serif" font-size="14.00">Get optimizer_101.public.c (u11)</text>
<text text-anchor="start" x="427.5" y="-375.8" font-family="Times,serif" font-size="14.00">&#45; types = (integer?)</text>
<text text-anchor="start" x="427.5" y="-360.8" font-family="Times,serif" font-size="14.00">&#45; keys = ()</text>
</g>
<!-- node7&#45;&gt;node8 -->
<g id="edge10" class="edge">
<title>node7&#45;&gt;node8</title>
<path fill="none" stroke="black" d="M557.23,-352.7C568.59,-328.72 586.11,-291.73 602.12,-257.95"/>
<polygon fill="black" stroke="black" points="605.47,-259.06 606.59,-248.52 599.14,-256.06 605.47,-259.06"/>
<text text-anchor="start" x="596" y="-270.8" font-family="Times,serif" font-size="14.00">%7</text>
</g>
<!-- node10 -->
<g id="node11" class="node">
<title>node10</title>
<polygon fill="none" stroke="black" points="130.5,-0.5 130.5,-53.5 627.5,-53.5 627.5,-0.5 130.5,-0.5"/>
<text text-anchor="start" x="138.5" y="-38.3" font-family="Times,serif" font-size="14.00">Union %8 %9</text>
<text text-anchor="start" x="138.5" y="-23.3" font-family="Times,serif" font-size="14.00">&#45; types = (integer?, integer?, integer?, integer?, integer?, integer?)</text>
<text text-anchor="start" x="138.5" y="-8.3" font-family="Times,serif" font-size="14.00">&#45; keys = ()</text>
</g>
<!-- node8&#45;&gt;node10 -->
<g id="edge11" class="edge">
<title>node8&#45;&gt;node10</title>
<path fill="none" stroke="black" d="M515.62,-105.47C486.63,-89.03 457.23,-72.36 433.18,-58.72"/>
<polygon fill="black" stroke="black" points="434.66,-55.54 424.23,-53.65 431.2,-61.62 434.66,-55.54"/>
<text text-anchor="start" x="479" y="-75.8" font-family="Times,serif" font-size="14.00">%8</text>
</g>
<!-- node9&#45;&gt;node10 -->
<g id="edge3" class="edge">
<title>node9&#45;&gt;node10</title>
<path fill="none" stroke="black" d="M364.32,-477.48C367.39,-383.62 374.93,-152.52 377.84,-63.63"/>
<polygon fill="black" stroke="black" points="381.34,-63.63 378.17,-53.52 374.34,-63.4 381.34,-63.63"/>
<text text-anchor="start" x="371" y="-270.8" font-family="Times,serif" font-size="14.00">%9</text>
</g>
</g>
</svg>
