<?xml version="1.0" encoding="UTF-8" standalone="no"?>
<!DOCTYPE svg PUBLIC "-//W3C//DTD SVG 1.1//EN"
 "http://www.w3.org/Graphics/SVG/1.1/DTD/svg11.dtd">
<!-- Generated by graphviz version 2.43.0 (0)
 -->
<!-- Title: G Pages: 1 -->
<svg width="1012pt" height="1952pt"
 viewBox="0.00 0.00 1012.00 1952.00" xmlns="http://www.w3.org/2000/svg" xmlns:xlink="http://www.w3.org/1999/xlink">
<g id="graph0" class="graph" transform="scale(1 1) rotate(0) translate(4 1948)">
<title>G</title>
<polygon fill="white" stroke="transparent" points="-4,4 -4,-1948 1008,-1948 1008,4 -4,4"/>
<!-- node0 -->
<g id="node1" class="node">
<title>node0</title>
<polygon fill="none" stroke="black" points="307,-1890.5 307,-1943.5 407,-1943.5 407,-1890.5 307,-1890.5"/>
<text text-anchor="start" x="315" y="-1928.3" font-family="Times,serif" font-size="14.00">Constant ()</text>
<text text-anchor="start" x="315" y="-1913.3" font-family="Times,serif" font-size="14.00">&#45; types = ()</text>
<text text-anchor="start" x="315" y="-1898.3" font-family="Times,serif" font-size="14.00">&#45; keys = (())</text>
</g>
<!-- node2 -->
<g id="node3" class="node">
<title>node2</title>
<polygon fill="none" stroke="black" points="420,-1770.5 420,-1838.5 712,-1838.5 712,-1770.5 420,-1770.5"/>
<text text-anchor="start" x="428" y="-1823.3" font-family="Times,serif" font-size="14.00">Join %0 %1</text>
<text text-anchor="start" x="428" y="-1808.3" font-family="Times,serif" font-size="14.00">&#45; implementation = Unimplemented</text>
<text text-anchor="start" x="428" y="-1793.3" font-family="Times,serif" font-size="14.00">&#45; types = (integer?, integer?, integer?)</text>
<text text-anchor="start" x="428" y="-1778.3" font-family="Times,serif" font-size="14.00">&#45; keys = ()</text>
</g>
<!-- node0&#45;&gt;node2 -->
<g id="edge1" class="edge">
<title>node0&#45;&gt;node2</title>
<path fill="none" stroke="black" d="M394.25,-1890.24C410.68,-1879.37 430.44,-1866.96 449,-1857 457.97,-1852.19 467.47,-1847.45 477.04,-1842.91"/>
<polygon fill="black" stroke="black" points="478.64,-1846.03 486.22,-1838.62 475.67,-1839.69 478.64,-1846.03"/>
<text text-anchor="start" x="449" y="-1860.8" font-family="Times,serif" font-size="14.00">%0</text>
</g>
<!-- node4 -->
<g id="node5" class="node">
<title>node4</title>
<polygon fill="none" stroke="black" points="730,-1770.5 730,-1838.5 1004,-1838.5 1004,-1770.5 730,-1770.5"/>
<text text-anchor="start" x="738" y="-1823.3" font-family="Times,serif" font-size="14.00">Join %0 %3</text>
<text text-anchor="start" x="738" y="-1808.3" font-family="Times,serif" font-size="14.00">&#45; implementation = Unimplemented</text>
<text text-anchor="start" x="738" y="-1793.3" font-family="Times,serif" font-size="14.00">&#45; types = (integer?, integer?)</text>
<text text-anchor="start" x="738" y="-1778.3" font-family="Times,serif" font-size="14.00">&#45; keys = ()</text>
</g>
<!-- node0&#45;&gt;node4 -->
<g id="edge17" class="edge">
<title>node0&#45;&gt;node4</title>
<path fill="none" stroke="black" d="M407.32,-1893.2C410.24,-1892.07 413.15,-1891 416,-1890 443.33,-1880.47 513.51,-1862.13 542,-1857 617.62,-1843.38 640.34,-1851.29 719.94,-1839.07"/>
<polygon fill="black" stroke="black" points="720.61,-1842.51 729.93,-1837.48 719.51,-1835.59 720.61,-1842.51"/>
<text text-anchor="start" x="542" y="-1860.8" font-family="Times,serif" font-size="14.00">%0</text>
</g>
<!-- node11 -->
<g id="node12" class="node">
<title>node11</title>
<polygon fill="none" stroke="black" points="0,-900.5 0,-968.5 274,-968.5 274,-900.5 0,-900.5"/>
<text text-anchor="start" x="8" y="-953.3" font-family="Times,serif" font-size="14.00">Join %0 %10</text>
<text text-anchor="start" x="8" y="-938.3" font-family="Times,serif" font-size="14.00">&#45; implementation = Unimplemented</text>
<text text-anchor="start" x="8" y="-923.3" font-family="Times,serif" font-size="14.00">&#45; types = (integer?)</text>
<text text-anchor="start" x="8" y="-908.3" font-family="Times,serif" font-size="14.00">&#45; keys = ()</text>
</g>
<!-- node0&#45;&gt;node11 -->
<g id="edge12" class="edge">
<title>node0&#45;&gt;node11</title>
<path fill="none" stroke="black" d="M306.95,-1908C222.31,-1893.04 60,-1857.56 60,-1805.5 60,-1805.5 60,-1805.5 60,-1068.5 60,-1034.46 79.12,-1001.32 98.31,-976.63"/>
<polygon fill="black" stroke="black" points="101.24,-978.58 104.79,-968.59 95.79,-974.18 101.24,-978.58"/>
<text text-anchor="start" x="60" y="-1440.8" font-family="Times,serif" font-size="14.00">%0</text>
</g>
<!-- node1 -->
<g id="node2" class="node">
<title>node1</title>
<polygon fill="none" stroke="black" points="425,-1890.5 425,-1943.5 717,-1943.5 717,-1890.5 425,-1890.5"/>
<text text-anchor="start" x="433" y="-1928.3" font-family="Times,serif" font-size="14.00">Get optimizer_101.public.a (u9)</text>
<text text-anchor="start" x="433" y="-1913.3" font-family="Times,serif" font-size="14.00">&#45; types = (integer?, integer?, integer?)</text>
<text text-anchor="start" x="433" y="-1898.3" font-family="Times,serif" font-size="14.00">&#45; keys = ()</text>
</g>
<!-- node1&#45;&gt;node2 -->
<g id="edge22" class="edge">
<title>node1&#45;&gt;node2</title>
<path fill="none" stroke="black" d="M569.84,-1890.37C569.28,-1877.96 568.59,-1862.71 567.95,-1848.58"/>
<polygon fill="black" stroke="black" points="571.44,-1848.37 567.5,-1838.54 564.45,-1848.69 571.44,-1848.37"/>
<text text-anchor="start" x="569" y="-1860.8" font-family="Times,serif" font-size="14.00">%1</text>
</g>
<!-- node5 -->
<g id="node6" class="node">
<title>node5</title>
<polygon fill="none" stroke="black" points="365,-1560.5 365,-1718.5 793,-1718.5 793,-1560.5 365,-1560.5"/>
<text text-anchor="start" x="373" y="-1703.3" font-family="Times,serif" font-size="14.00">Join %2 %4</text>
<text text-anchor="start" x="373" y="-1688.3" font-family="Times,serif" font-size="14.00">&#45; implementation = Unimplemented</text>
<text text-anchor="start" x="373" y="-1673.3" font-family="Times,serif" font-size="14.00">&#45; types = (integer?, integer?, integer?, integer?, integer?)</text>
<text text-anchor="start" x="373" y="-1658.3" font-family="Times,serif" font-size="14.00">&#45; keys = ()</text>
<text text-anchor="start" x="373" y="-1643.3" font-family="Times,serif" font-size="14.00">Project (#0..=#4)</text>
<text text-anchor="start" x="373" y="-1628.3" font-family="Times,serif" font-size="14.00">&#45; types = (integer?, integer?, integer?, integer?, integer?)</text>
<text text-anchor="start" x="373" y="-1613.3" font-family="Times,serif" font-size="14.00">&#45; keys = ()</text>
<text text-anchor="start" x="373" y="-1598.3" font-family="Times,serif" font-size="14.00">Filter (#0 = #3)</text>
<text text-anchor="start" x="373" y="-1583.3" font-family="Times,serif" font-size="14.00">&#45; types = (integer, integer?, integer?, integer, integer?)</text>
<text text-anchor="start" x="373" y="-1568.3" font-family="Times,serif" font-size="14.00">&#45; keys = ()</text>
</g>
<!-- node2&#45;&gt;node5 -->
<g id="edge11" class="edge">
<title>node2&#45;&gt;node5</title>
<path fill="none" stroke="black" d="M568.66,-1770.12C569.63,-1757.94 570.78,-1743.52 571.96,-1728.8"/>
<polygon fill="black" stroke="black" points="575.47,-1728.83 572.77,-1718.59 568.49,-1728.28 575.47,-1728.83"/>
<text text-anchor="start" x="570" y="-1740.8" font-family="Times,serif" font-size="14.00">%2</text>
</g>
<!-- node7 -->
<g id="node8" class="node">
<title>node7</title>
<polygon fill="none" stroke="black" points="433.5,-1170.5 433.5,-1328.5 786.5,-1328.5 786.5,-1170.5 433.5,-1170.5"/>
<text text-anchor="start" x="441.5" y="-1313.3" font-family="Times,serif" font-size="14.00">Join %2 %6 (= #0 #3)</text>
<text text-anchor="start" x="441.5" y="-1298.3" font-family="Times,serif" font-size="14.00">&#45; implementation = Unimplemented</text>
<text text-anchor="start" x="441.5" y="-1283.3" font-family="Times,serif" font-size="14.00">&#45; types = (integer?, integer?, integer?, integer)</text>
<text text-anchor="start" x="441.5" y="-1268.3" font-family="Times,serif" font-size="14.00">&#45; keys = ()</text>
<text text-anchor="start" x="441.5" y="-1253.3" font-family="Times,serif" font-size="14.00">Project (#0..=#2)</text>
<text text-anchor="start" x="441.5" y="-1238.3" font-family="Times,serif" font-size="14.00">&#45; types = (integer?, integer?, integer?)</text>
<text text-anchor="start" x="441.5" y="-1223.3" font-family="Times,serif" font-size="14.00">&#45; keys = ()</text>
<text text-anchor="start" x="441.5" y="-1208.3" font-family="Times,serif" font-size="14.00">Negate</text>
<text text-anchor="start" x="441.5" y="-1193.3" font-family="Times,serif" font-size="14.00">&#45; types = (integer?, integer?, integer?)</text>
<text text-anchor="start" x="441.5" y="-1178.3" font-family="Times,serif" font-size="14.00">&#45; keys = ()</text>
</g>
<!-- node2&#45;&gt;node7 -->
<g id="edge9" class="edge">
<title>node2&#45;&gt;node7</title>
<path fill="none" stroke="black" d="M696.63,-1770.47C743.26,-1755.93 787.82,-1737.87 802,-1719 892.57,-1598.46 887.77,-1512.05 815,-1380 805.83,-1363.36 793.52,-1348.56 779.47,-1335.47"/>
<polygon fill="black" stroke="black" points="781.76,-1332.83 771.96,-1328.79 777.1,-1338.05 781.76,-1332.83"/>
<text text-anchor="start" x="869" y="-1530.8" font-family="Times,serif" font-size="14.00">%2</text>
</g>
<!-- node8 -->
<g id="node9" class="node">
<title>node8</title>
<polygon fill="none" stroke="black" points="396,-1020.5 396,-1118.5 824,-1118.5 824,-1020.5 396,-1020.5"/>
<text text-anchor="start" x="404" y="-1103.3" font-family="Times,serif" font-size="14.00">Union %7 %2</text>
<text text-anchor="start" x="404" y="-1088.3" font-family="Times,serif" font-size="14.00">&#45; types = (integer?, integer?, integer?)</text>
<text text-anchor="start" x="404" y="-1073.3" font-family="Times,serif" font-size="14.00">&#45; keys = ()</text>
<text text-anchor="start" x="404" y="-1058.3" font-family="Times,serif" font-size="14.00">Map null, null</text>
<text text-anchor="start" x="404" y="-1043.3" font-family="Times,serif" font-size="14.00">&#45; types = (integer?, integer?, integer?, integer?, integer?)</text>
<text text-anchor="start" x="404" y="-1028.3" font-family="Times,serif" font-size="14.00">&#45; keys = ()</text>
</g>
<!-- node2&#45;&gt;node8 -->
<g id="edge24" class="edge">
<title>node2&#45;&gt;node8</title>
<path fill="none" stroke="black" d="M438.58,-1770.45C377.32,-1746.11 317,-1705.6 317,-1640.5 317,-1640.5 317,-1640.5 317,-1248.5 317,-1211.31 319.79,-1196.39 346,-1170 364.91,-1150.97 387.81,-1135.52 412.13,-1123.01"/>
<polygon fill="black" stroke="black" points="413.75,-1126.11 421.15,-1118.52 410.64,-1119.84 413.75,-1126.11"/>
<text text-anchor="start" x="317" y="-1440.8" font-family="Times,serif" font-size="14.00">%2</text>
</g>
<!-- node3 -->
<g id="node4" class="node">
<title>node3</title>
<polygon fill="none" stroke="black" points="741,-1890.5 741,-1943.5 993,-1943.5 993,-1890.5 741,-1890.5"/>
<text text-anchor="start" x="749" y="-1928.3" font-family="Times,serif" font-size="14.00">Get optimizer_101.public.b (u10)</text>
<text text-anchor="start" x="749" y="-1913.3" font-family="Times,serif" font-size="14.00">&#45; types = (integer?, integer?)</text>
<text text-anchor="start" x="749" y="-1898.3" font-family="Times,serif" font-size="14.00">&#45; keys = ()</text>
</g>
<!-- node3&#45;&gt;node4 -->
<g id="edge21" class="edge">
<title>node3&#45;&gt;node4</title>
<path fill="none" stroke="black" d="M867,-1890.37C867,-1877.96 867,-1862.71 867,-1848.58"/>
<polygon fill="black" stroke="black" points="870.5,-1848.54 867,-1838.54 863.5,-1848.54 870.5,-1848.54"/>
<text text-anchor="start" x="867" y="-1860.8" font-family="Times,serif" font-size="14.00">%3</text>
</g>
<!-- node4&#45;&gt;node5 -->
<g id="edge18" class="edge">
<title>node4&#45;&gt;node5</title>
<path fill="none" stroke="black" d="M808.37,-1770.32C784.3,-1756.69 755.25,-1740.25 726.03,-1723.71"/>
<polygon fill="black" stroke="black" points="727.39,-1720.46 716.96,-1718.58 723.94,-1726.55 727.39,-1720.46"/>
<text text-anchor="start" x="773" y="-1740.8" font-family="Times,serif" font-size="14.00">%4</text>
</g>
<!-- node6 -->
<g id="node7" class="node">
<title>node6</title>
<polygon fill="none" stroke="black" points="396,-1380.5 396,-1508.5 806,-1508.5 806,-1380.5 396,-1380.5"/>
<text text-anchor="start" x="404" y="-1493.3" font-family="Times,serif" font-size="14.00">&#45; types = (integer, integer?, integer?, integer, integer?)</text>
<text text-anchor="start" x="404" y="-1478.3" font-family="Times,serif" font-size="14.00">&#45; keys = ()</text>
<text text-anchor="start" x="404" y="-1463.3" font-family="Times,serif" font-size="14.00">Project (#0)</text>
<text text-anchor="start" x="404" y="-1448.3" font-family="Times,serif" font-size="14.00">&#45; types = (integer)</text>
<text text-anchor="start" x="404" y="-1433.3" font-family="Times,serif" font-size="14.00">&#45; keys = ()</text>
<text text-anchor="start" x="404" y="-1418.3" font-family="Times,serif" font-size="14.00">Distinct group=(#0)</text>
<text text-anchor="start" x="404" y="-1403.3" font-family="Times,serif" font-size="14.00">&#45; types = (integer)</text>
<text text-anchor="start" x="404" y="-1388.3" font-family="Times,serif" font-size="14.00">&#45; keys = ((#0))</text>
</g>
<!-- node5&#45;&gt;node6 -->
<g id="edge14" class="edge">
<title>node5&#45;&gt;node6</title>
<path fill="none" stroke="black" d="M587.92,-1560.28C589.47,-1546.62 591.09,-1532.46 592.63,-1518.94"/>
<polygon fill="black" stroke="black" points="596.14,-1519.08 593.79,-1508.74 589.18,-1518.28 596.14,-1519.08"/>
<text text-anchor="start" x="591" y="-1530.8" font-family="Times,serif" font-size="14.00">%5</text>
</g>
<!-- node9 -->
<g id="node10" class="node">
<title>node9</title>
<polygon fill="none" stroke="black" points="292,-908 292,-961 720,-961 720,-908 292,-908"/>
<text text-anchor="start" x="300" y="-945.8" font-family="Times,serif" font-size="14.00">Union %8 %5</text>
<text text-anchor="start" x="300" y="-930.8" font-family="Times,serif" font-size="14.00">&#45; types = (integer?, integer?, integer?, integer?, integer?)</text>
<text text-anchor="start" x="300" y="-915.8" font-family="Times,serif" font-size="14.00">&#45; keys = ()</text>
</g>
<!-- node5&#45;&gt;node9 -->
<g id="edge3" class="edge">
<title>node5&#45;&gt;node9</title>
<path fill="none" stroke="black" d="M432.17,-1560.28C396.3,-1530.38 368,-1492.04 368,-1445.5 368,-1445.5 368,-1445.5 368,-1068.5 368,-1023.53 406.47,-988.97 442.79,-966.36"/>
<polygon fill="black" stroke="black" points="444.69,-969.3 451.46,-961.16 441.08,-963.3 444.69,-969.3"/>
<text text-anchor="start" x="368" y="-1245.8" font-family="Times,serif" font-size="14.00">%5</text>
</g>
<!-- node6&#45;&gt;node7 -->
<g id="edge7" class="edge">
<title>node6&#45;&gt;node7</title>
<path fill="none" stroke="black" d="M603.95,-1380.3C604.57,-1367.04 605.23,-1352.81 605.88,-1338.81"/>
<polygon fill="black" stroke="black" points="609.38,-1338.83 606.35,-1328.68 602.39,-1338.5 609.38,-1338.83"/>
<text text-anchor="start" x="605" y="-1350.8" font-family="Times,serif" font-size="14.00">%6</text>
</g>
<!-- node7&#45;&gt;node8 -->
<g id="edge4" class="edge">
<title>node7&#45;&gt;node8</title>
<path fill="none" stroke="black" d="M610,-1170.43C610,-1156.5 610,-1142.2 610,-1128.94"/>
<polygon fill="black" stroke="black" points="613.5,-1128.55 610,-1118.55 606.5,-1128.55 613.5,-1128.55"/>
<text text-anchor="start" x="610" y="-1140.8" font-family="Times,serif" font-size="14.00">%7</text>
</g>
<!-- node8&#45;&gt;node9 -->
<g id="edge6" class="edge">
<title>node8&#45;&gt;node9</title>
<path fill="none" stroke="black" d="M572.45,-1020.48C559.2,-1003.53 544.58,-984.84 532.44,-969.31"/>
<polygon fill="black" stroke="black" points="534.89,-966.77 525.98,-961.05 529.38,-971.08 534.89,-966.77"/>
<text text-anchor="start" x="558" y="-990.8" font-family="Times,serif" font-size="14.00">%8</text>
</g>
<!-- node12 -->
<g id="node13" class="node">
<title>node12</title>
<polygon fill="none" stroke="black" points="226.5,-690.5 226.5,-848.5 723.5,-848.5 723.5,-690.5 226.5,-690.5"/>
<text text-anchor="start" x="234.5" y="-833.3" font-family="Times,serif" font-size="14.00">Join %9 %11</text>
<text text-anchor="start" x="234.5" y="-818.3" font-family="Times,serif" font-size="14.00">&#45; implementation = Unimplemented</text>
<text text-anchor="start" x="234.5" y="-803.3" font-family="Times,serif" font-size="14.00">&#45; types = (integer?, integer?, integer?, integer?, integer?, integer?)</text>
<text text-anchor="start" x="234.5" y="-788.3" font-family="Times,serif" font-size="14.00">&#45; keys = ()</text>
<text text-anchor="start" x="234.5" y="-773.3" font-family="Times,serif" font-size="14.00">Project (#0..=#5)</text>
<text text-anchor="start" x="234.5" y="-758.3" font-family="Times,serif" font-size="14.00">&#45; types = (integer?, integer?, integer?, integer?, integer?, integer?)</text>
<text text-anchor="start" x="234.5" y="-743.3" font-family="Times,serif" font-size="14.00">&#45; keys = ()</text>
<text text-anchor="start" x="234.5" y="-728.3" font-family="Times,serif" font-size="14.00">Filter (#4 = #5)</text>
<text text-anchor="start" x="234.5" y="-713.3" font-family="Times,serif" font-size="14.00">&#45; types = (integer?, integer?, integer?, integer?, integer, integer)</text>
<text text-anchor="start" x="234.5" y="-698.3" font-family="Times,serif" font-size="14.00">&#45; keys = ()</text>
</g>
<!-- node9&#45;&gt;node12 -->
<g id="edge2" class="edge">
<title>node9&#45;&gt;node12</title>
<path fill="none" stroke="black" d="M501.09,-907.67C498.51,-894.11 495.18,-876.62 491.77,-858.69"/>
<polygon fill="black" stroke="black" points="495.18,-857.88 489.87,-848.71 488.3,-859.18 495.18,-857.88"/>
<text text-anchor="start" x="496" y="-870.8" font-family="Times,serif" font-size="14.00">%9</text>
</g>
<!-- node10 -->
<g id="node11" class="node">
<title>node10</title>
<polygon fill="none" stroke="black" points="88.5,-1043 88.5,-1096 339.5,-1096 339.5,-1043 88.5,-1043"/>
<text text-anchor="start" x="96.5" y="-1080.8" font-family="Times,serif" font-size="14.00">Get optimizer_101.public.c (u11)</text>
<text text-anchor="start" x="96.5" y="-1065.8" font-family="Times,serif" font-size="14.00">&#45; types = (integer?)</text>
<text text-anchor="start" x="96.5" y="-1050.8" font-family="Times,serif" font-size="14.00">&#45; keys = ()</text>
</g>
<!-- node10&#45;&gt;node11 -->
<g id="edge10" class="edge">
<title>node10&#45;&gt;node11</title>
<path fill="none" stroke="black" d="M199.15,-1042.86C188.45,-1024.36 173.75,-998.99 161.34,-977.55"/>
<polygon fill="black" stroke="black" points="164.22,-975.53 156.18,-968.63 158.16,-979.04 164.22,-975.53"/>
<text text-anchor="start" x="176" y="-990.8" font-family="Times,serif" font-size="14.00">%10</text>
</g>
<!-- node11&#45;&gt;node12 -->
<g id="edge8" class="edge">
<title>node11&#45;&gt;node12</title>
<path fill="none" stroke="black" d="M205.81,-900.32C234.42,-886.52 269.04,-869.83 303.78,-853.07"/>
<polygon fill="black" stroke="black" points="305.6,-856.08 313.09,-848.58 302.56,-849.77 305.6,-856.08"/>
<text text-anchor="start" x="266" y="-870.8" font-family="Times,serif" font-size="14.00">%11</text>
</g>
<!-- node14 -->
<g id="node15" class="node">
<title>node14</title>
<polygon fill="none" stroke="black" points="212,-300.5 212,-458.5 486,-458.5 486,-300.5 212,-300.5"/>
<text text-anchor="start" x="220" y="-443.3" font-family="Times,serif" font-size="14.00">Join %11 %13 (= #0 #1)</text>
<text text-anchor="start" x="220" y="-428.3" font-family="Times,serif" font-size="14.00">&#45; implementation = Unimplemented</text>
<text text-anchor="start" x="220" y="-413.3" font-family="Times,serif" font-size="14.00">&#45; types = (integer?, integer)</text>
<text text-anchor="start" x="220" y="-398.3" font-family="Times,serif" font-size="14.00">&#45; keys = ()</text>
<text text-anchor="start" x="220" y="-383.3" font-family="Times,serif" font-size="14.00">Project (#0)</text>
<text text-anchor="start" x="220" y="-368.3" font-family="Times,serif" font-size="14.00">&#45; types = (integer?)</text>
<text text-anchor="start" x="220" y="-353.3" font-family="Times,serif" font-size="14.00">&#45; keys = ()</text>
<text text-anchor="start" x="220" y="-338.3" font-family="Times,serif" font-size="14.00">Negate</text>
<text text-anchor="start" x="220" y="-323.3" font-family="Times,serif" font-size="14.00">&#45; types = (integer?)</text>
<text text-anchor="start" x="220" y="-308.3" font-family="Times,serif" font-size="14.00">&#45; keys = ()</text>
</g>
<!-- node11&#45;&gt;node14 -->
<g id="edge16" class="edge">
<title>node11&#45;&gt;node14</title>
<path fill="none" stroke="black" d="M137.61,-900.25C139.72,-812.53 148.78,-576.96 186,-510 194.89,-494.01 206.64,-479.28 219.77,-465.93"/>
<polygon fill="black" stroke="black" points="222.49,-468.16 227.19,-458.66 217.6,-463.16 222.49,-468.16"/>
<text text-anchor="start" x="153" y="-660.8" font-family="Times,serif" font-size="14.00">%11</text>
</g>
<!-- node15 -->
<g id="node16" class="node">
<title>node15</title>
<polygon fill="none" stroke="black" points="100.5,-105.5 100.5,-248.5 597.5,-248.5 597.5,-105.5 100.5,-105.5"/>
<text text-anchor="start" x="108.5" y="-233.3" font-family="Times,serif" font-size="14.00">Union %14 %11</text>
<text text-anchor="start" x="108.5" y="-218.3" font-family="Times,serif" font-size="14.00">&#45; types = (integer?)</text>
<text text-anchor="start" x="108.5" y="-203.3" font-family="Times,serif" font-size="14.00">&#45; keys = ()</text>
<text text-anchor="start" x="108.5" y="-188.3" font-family="Times,serif" font-size="14.00">Map null, null, null, null, null</text>
<text text-anchor="start" x="108.5" y="-173.3" font-family="Times,serif" font-size="14.00">&#45; types = (integer?, integer?, integer?, integer?, integer?, integer?)</text>
<text text-anchor="start" x="108.5" y="-158.3" font-family="Times,serif" font-size="14.00">&#45; keys = ()</text>
<text text-anchor="start" x="108.5" y="-143.3" font-family="Times,serif" font-size="14.00">Project (#1..=#5, #0)</text>
<text text-anchor="start" x="108.5" y="-128.3" font-family="Times,serif" font-size="14.00">&#45; types = (integer?, integer?, integer?, integer?, integer?, integer?)</text>
<text text-anchor="start" x="108.5" y="-113.3" font-family="Times,serif" font-size="14.00">&#45; keys = ()</text>
</g>
<!-- node11&#45;&gt;node15 -->
<g id="edge15" class="edge">
<title>node11&#45;&gt;node15</title>
<path fill="none" stroke="black" d="M127.26,-900.42C118.5,-867.72 107,-816.11 107,-770.5 107,-770.5 107,-770.5 107,-378.5 107,-326.6 140.41,-285.59 182.4,-254.54"/>
<polygon fill="black" stroke="black" points="184.52,-257.32 190.62,-248.66 180.45,-251.63 184.52,-257.32"/>
<text text-anchor="start" x="107" y="-570.8" font-family="Times,serif" font-size="14.00">%11</text>
</g>
<!-- node13 -->
<g id="node14" class="node">
<title>node13</title>
<polygon fill="none" stroke="black" points="195,-510.5 195,-638.5 675,-638.5 675,-510.5 195,-510.5"/>
<text text-anchor="start" x="203" y="-623.3" font-family="Times,serif" font-size="14.00">&#45; types = (integer?, integer?, integer?, integer?, integer, integer)</text>
<text text-anchor="start" x="203" y="-608.3" font-family="Times,serif" font-size="14.00">&#45; keys = ()</text>
<text text-anchor="start" x="203" y="-593.3" font-family="Times,serif" font-size="14.00">Project (#4)</text>
<text text-anchor="start" x="203" y="-578.3" font-family="Times,serif" font-size="14.00">&#45; types = (integer)</text>
<text text-anchor="start" x="203" y="-563.3" font-family="Times,serif" font-size="14.00">&#45; keys = ()</text>
<text text-anchor="start" x="203" y="-548.3" font-family="Times,serif" font-size="14.00">Distinct group=(#0)</text>
<text text-anchor="start" x="203" y="-533.3" font-family="Times,serif" font-size="14.00">&#45; types = (integer)</text>
<text text-anchor="start" x="203" y="-518.3" font-family="Times,serif" font-size="14.00">&#45; keys = ((#0))</text>
</g>
<!-- node12&#45;&gt;node13 -->
<g id="edge5" class="edge">
<title>node12&#45;&gt;node13</title>
<path fill="none" stroke="black" d="M458.79,-690.28C455.93,-676.49 452.97,-662.18 450.14,-648.54"/>
<polygon fill="black" stroke="black" points="453.56,-647.83 448.11,-638.74 446.71,-649.25 453.56,-647.83"/>
<text text-anchor="start" x="455" y="-660.8" font-family="Times,serif" font-size="14.00">%12</text>
</g>
<!-- node16 -->
<g id="node17" class="node">
<title>node16</title>
<polygon fill="none" stroke="black" points="238.5,-0.5 238.5,-53.5 735.5,-53.5 735.5,-0.5 238.5,-0.5"/>
<text text-anchor="start" x="246.5" y="-38.3" font-family="Times,serif" font-size="14.00">Union %15 %12</text>
<text text-anchor="start" x="246.5" y="-23.3" font-family="Times,serif" font-size="14.00">&#45; types = (integer?, integer?, integer?, integer?, integer?, integer?)</text>
<text text-anchor="start" x="246.5" y="-8.3" font-family="Times,serif" font-size="14.00">&#45; keys = ()</text>
</g>
<!-- node12&#45;&gt;node16 -->
<g id="edge23" class="edge">
<title>node12&#45;&gt;node16</title>
<path fill="none" stroke="black" d="M636.75,-690.38C674.03,-660.93 703,-622.82 703,-575.5 703,-575.5 703,-575.5 703,-176 703,-116.91 647.32,-79.67 592.49,-57.33"/>
<polygon fill="black" stroke="black" points="593.59,-54 583,-53.6 591.03,-60.51 593.59,-54"/>
<text text-anchor="start" x="703" y="-375.8" font-family="Times,serif" font-size="14.00">%12</text>
</g>
<!-- node13&#45;&gt;node14 -->
<g id="edge19" class="edge">
<title>node13&#45;&gt;node14</title>
<path fill="none" stroke="black" d="M406.84,-510.3C400.81,-496.78 394.34,-482.25 387.99,-468"/>
<polygon fill="black" stroke="black" points="391.1,-466.39 383.84,-458.68 384.71,-469.24 391.1,-466.39"/>
<text text-anchor="start" x="398" y="-480.8" font-family="Times,serif" font-size="14.00">%13</text>
</g>
<!-- node14&#45;&gt;node15 -->
<g id="edge13" class="edge">
<title>node14&#45;&gt;node15</title>
<path fill="none" stroke="black" d="M349,-300.41C349,-286.83 349,-272.67 349,-259.02"/>
<polygon fill="black" stroke="black" points="352.5,-258.69 349,-248.69 345.5,-258.69 352.5,-258.69"/>
<text text-anchor="start" x="349" y="-270.8" font-family="Times,serif" font-size="14.00">%14</text>
</g>
<!-- node15&#45;&gt;node16 -->
<g id="edge20" class="edge">
<title>node15&#45;&gt;node16</title>
<path fill="none" stroke="black" d="M414.77,-105.47C429.16,-90.03 443.74,-74.4 455.99,-61.25"/>
<polygon fill="black" stroke="black" points="458.66,-63.52 462.92,-53.82 453.54,-58.75 458.66,-63.52"/>
<text text-anchor="start" x="443" y="-75.8" font-family="Times,serif" font-size="14.00">%15</text>
</g>
</g>
</svg>
