<?xml version="1.0" encoding="UTF-8" standalone="no"?>
<!DOCTYPE svg PUBLIC "-//W3C//DTD SVG 1.1//EN"
 "http://www.w3.org/Graphics/SVG/1.1/DTD/svg11.dtd">
<!-- Generated by graphviz version 2.43.0 (0)
 -->
<!-- Title: G Pages: 1 -->
<svg width="786pt" height="622pt"
 viewBox="0.00 0.00 786.00 622.00" xmlns="http://www.w3.org/2000/svg" xmlns:xlink="http://www.w3.org/1999/xlink">
<g id="graph0" class="graph" transform="scale(1 1) rotate(0) translate(4 618)">
<title>G</title>
<polygon fill="white" stroke="transparent" points="-4,4 -4,-618 782,-618 782,4 -4,4"/>
<g id="clust1" class="cluster">
<title>cluster3</title>
<polygon fill="none" stroke="black" points="338,-428 338,-606 770,-606 770,-428 338,-428"/>
<text text-anchor="middle" x="388.5" y="-590.8" font-family="Times,serif" font-size="14.00">Box3:Select</text>
</g>
<g id="clust3" class="cluster">
<title>cluster2</title>
<polygon fill="none" stroke="black" points="172,-265 172,-420 501,-420 501,-265 172,-265"/>
<text text-anchor="middle" x="222.5" y="-404.8" font-family="Times,serif" font-size="14.00">Box2:Select</text>
</g>
<g id="clust5" class="cluster">
<title>cluster1</title>
<polygon fill="none" stroke="black" points="44,-125 44,-257 298,-257 298,-125 44,-125"/>
<text text-anchor="middle" x="94.5" y="-241.8" font-family="Times,serif" font-size="14.00">Box1:Select</text>
</g>
<g id="clust7" class="cluster">
<title>cluster0</title>
<polygon fill="none" stroke="black" points="8,-8 8,-117 170,-117 170,-8 8,-8"/>
<text text-anchor="middle" x="49.5" y="-101.8" font-family="Times,serif" font-size="14.00">Box0:Get</text>
</g>
<!-- boxhead3 -->
<g id="node1" class="node">
<title>boxhead3</title>
<polygon fill="none" stroke="black" points="438.5,-436.5 438.5,-574.5 761.5,-574.5 761.5,-436.5 438.5,-436.5"/>
<text text-anchor="middle" x="600" y="-559.3" font-family="Times,serif" font-size="14.00">Distinct: Preserve</text>
<polyline fill="none" stroke="black" points="438.5,-551.5 761.5,-551.5 "/>
<text text-anchor="middle" x="600" y="-536.3" font-family="Times,serif" font-size="14.00">0: Q2.C0 (integer)</text>
<polyline fill="none" stroke="black" points="438.5,-528.5 761.5,-528.5 "/>
<text text-anchor="middle" x="600" y="-513.3" font-family="Times,serif" font-size="14.00">1: Q2.C1 (integer)</text>
<polyline fill="none" stroke="black" points="438.5,-505.5 761.5,-505.5 "/>
<text text-anchor="middle" x="600" y="-490.3" font-family="Times,serif" font-size="14.00">2: Q2.C2 (integer)</text>
<polyline fill="none" stroke="black" points="438.5,-482.5 761.5,-482.5 "/>
<text text-anchor="middle" x="600" y="-467.3" font-family="Times,serif" font-size="14.00">3: Q2.C3 (integer)</text>
<polyline fill="none" stroke="black" points="438.5,-459.5 761.5,-459.5 "/>
<text text-anchor="middle" x="600" y="-444.3" font-family="Times,serif" font-size="14.00">4: coalesce(Q2.C2, Q2.C3, Q2.C0) (integer)</text>
</g>
<!-- Q2 -->
<g id="node2" class="node">
<title>Q2</title>
<ellipse fill="none" stroke="black" cx="383" cy="-505.5" rx="37.09" ry="37.09"/>
<text text-anchor="middle" x="383" y="-501.8" font-family="Times,serif" font-size="14.00">Q2(F)</text>
</g>
<!-- boxhead2 -->
<g id="node3" class="node">
<title>boxhead2</title>
<polygon fill="none" stroke="black" points="272.5,-273.5 272.5,-388.5 493.5,-388.5 493.5,-273.5 272.5,-273.5"/>
<text text-anchor="middle" x="383" y="-373.3" font-family="Times,serif" font-size="14.00">Distinct: Preserve</text>
<polyline fill="none" stroke="black" points="272.5,-365.5 493.5,-365.5 "/>
<text text-anchor="middle" x="383" y="-350.3" font-family="Times,serif" font-size="14.00">0: Q1.C0 (integer)</text>
<polyline fill="none" stroke="black" points="272.5,-342.5 493.5,-342.5 "/>
<text text-anchor="middle" x="383" y="-327.3" font-family="Times,serif" font-size="14.00">1: Q1.C1 (integer)</text>
<polyline fill="none" stroke="black" points="272.5,-319.5 493.5,-319.5 "/>
<text text-anchor="middle" x="383" y="-304.3" font-family="Times,serif" font-size="14.00">2: (Q1.C0 + Q1.C1) (integer)</text>
<polyline fill="none" stroke="black" points="272.5,-296.5 493.5,-296.5 "/>
<text text-anchor="middle" x="383" y="-281.3" font-family="Times,serif" font-size="14.00">3: (Q1.C0 &#45; Q1.C1) (integer)</text>
</g>
<!-- Q2&#45;&gt;boxhead2 -->
<g id="edge1" class="edge">
<title>Q2&#45;&gt;boxhead2</title>
<path fill="none" stroke="black" stroke-dasharray="5,2" d="M383,-468.34C383,-454.11 383,-437.1 383,-420"/>
</g>
<!-- Q1 -->
<g id="node4" class="node">
<title>Q1</title>
<ellipse fill="none" stroke="black" cx="217" cy="-331" rx="37.09" ry="37.09"/>
<text text-anchor="middle" x="217" y="-327.3" font-family="Times,serif" font-size="14.00">Q1(F)</text>
</g>
<!-- boxhead1 -->
<g id="node5" class="node">
<title>boxhead1</title>
<polygon fill="none" stroke="black" points="144,-133.5 144,-225.5 290,-225.5 290,-133.5 144,-133.5"/>
<text text-anchor="middle" x="217" y="-210.3" font-family="Times,serif" font-size="14.00">Distinct: Preserve</text>
<polyline fill="none" stroke="black" points="144,-202.5 290,-202.5 "/>
<text text-anchor="middle" x="217" y="-187.3" font-family="Times,serif" font-size="14.00">0: Q0.C0 (integer)</text>
<polyline fill="none" stroke="black" points="144,-179.5 290,-179.5 "/>
<text text-anchor="middle" x="217" y="-164.3" font-family="Times,serif" font-size="14.00">1: Q0.C1 (integer)</text>
<polyline fill="none" stroke="black" points="144,-156.5 290,-156.5 "/>
<text text-anchor="middle" x="217" y="-141.3" font-family="Times,serif" font-size="14.00">(Q0.C0 &gt; 0)</text>
</g>
<!-- Q1&#45;&gt;boxhead1 -->
<g id="edge2" class="edge">
<title>Q1&#45;&gt;boxhead1</title>
<path fill="none" stroke="black" stroke-dasharray="5,2" d="M217,-293.81C217,-282.62 217,-269.84 217,-257"/>
</g>
<!-- Q0 -->
<g id="node6" class="node">
<title>Q0</title>
<ellipse fill="none" stroke="black" cx="89" cy="-179.5" rx="37.09" ry="37.09"/>
<text text-anchor="middle" x="89" y="-175.8" font-family="Times,serif" font-size="14.00">Q0(F)</text>
</g>
<!-- boxhead0 -->
<g id="node7" class="node">
<title>boxhead0</title>
<polygon fill="none" stroke="black" points="16,-16.5 16,-85.5 162,-85.5 162,-16.5 16,-16.5"/>
<text text-anchor="middle" x="89" y="-70.3" font-family="Times,serif" font-size="14.00">Distinct: Preserve</text>
<polyline fill="none" stroke="black" points="16,-62.5 162,-62.5 "/>
<text text-anchor="middle" x="89" y="-47.3" font-family="Times,serif" font-size="14.00">0: C0 (integer?)</text>
<polyline fill="none" stroke="black" points="16,-39.5 162,-39.5 "/>
<text text-anchor="middle" x="89" y="-24.3" font-family="Times,serif" font-size="14.00">1: C1 (integer)</text>
</g>
<!-- Q0&#45;&gt;boxhead0 -->
<g id="edge3" class="edge">
<title>Q0&#45;&gt;boxhead0</title>
<path fill="none" stroke="black" stroke-dasharray="5,2" d="M89,-142.25C89,-134.31 89,-125.68 89,-117"/>
</g>
</g>
</svg>
