<?xml version="1.0" encoding="UTF-8" standalone="no"?>
<!DOCTYPE svg PUBLIC "-//W3C//DTD SVG 1.1//EN"
 "http://www.w3.org/Graphics/SVG/1.1/DTD/svg11.dtd">
<!-- Generated by graphviz version 2.43.0 (0)
 -->
<!-- Title: G Pages: 1 -->
<svg width="396pt" height="707pt"
 viewBox="0.00 0.00 396.00 707.00" xmlns="http://www.w3.org/2000/svg" xmlns:xlink="http://www.w3.org/1999/xlink">
<g id="graph0" class="graph" transform="scale(1 1) rotate(0) translate(4 703)">
<title>G</title>
<polygon fill="white" stroke="transparent" points="-4,4 -4,-703 392,-703 392,4 -4,4"/>
<!-- node0 -->
<g id="node1" class="node">
<title>node0</title>
<polygon fill="none" stroke="black" points="56.5,-630.5 56.5,-698.5 157.5,-698.5 157.5,-630.5 56.5,-630.5"/>
<text text-anchor="start" x="64.5" y="-683.3" font-family="Times,serif" font-size="14.00">Let l0 =</text>
<text text-anchor="start" x="64.5" y="-668.3" font-family="Times,serif" font-size="14.00"> Constant ()</text>
<text text-anchor="start" x="64.5" y="-653.3" font-family="Times,serif" font-size="14.00"> types = ()</text>
<text text-anchor="start" x="64.5" y="-638.3" font-family="Times,serif" font-size="14.00"> keys = (())</text>
</g>
<!-- node2 -->
<g id="node3" class="node">
<title>node2</title>
<polygon fill="none" stroke="black" points="59.5,-450.5 59.5,-578.5 328.5,-578.5 328.5,-450.5 59.5,-450.5"/>
<text text-anchor="start" x="67.5" y="-563.3" font-family="Times,serif" font-size="14.00">Let l1 =</text>
<text text-anchor="start" x="67.5" y="-548.3" font-family="Times,serif" font-size="14.00"> Join %0 %1</text>
<text text-anchor="start" x="67.5" y="-533.3" font-family="Times,serif" font-size="14.00"> implementation = Unimplemented</text>
<text text-anchor="start" x="67.5" y="-518.3" font-family="Times,serif" font-size="14.00"> types = (integer?, integer)</text>
<text text-anchor="start" x="67.5" y="-503.3" font-family="Times,serif" font-size="14.00"> keys = ()</text>
<text text-anchor="start" x="67.5" y="-488.3" font-family="Times,serif" font-size="14.00"> Filter (#0 &gt; 0)</text>
<text text-anchor="start" x="67.5" y="-473.3" font-family="Times,serif" font-size="14.00"> types = (integer, integer)</text>
<text text-anchor="start" x="67.5" y="-458.3" font-family="Times,serif" font-size="14.00"> keys = ()</text>
</g>
<!-- node0&#45;&gt;node2 -->
<g id="edge3" class="edge">
<title>node0&#45;&gt;node2</title>
<path fill="none" stroke="black" d="M126.52,-630.29C134.02,-617.53 142.9,-602.43 151.71,-587.44"/>
<polygon fill="black" stroke="black" points="154.83,-589.04 156.88,-578.65 148.79,-585.49 154.83,-589.04"/>
<text text-anchor="start" x="146" y="-600.8" font-family="Times,serif" font-size="14.00">%0</text>
</g>
<!-- node1 -->
<g id="node2" class="node">
<title>node1</title>
<polygon fill="none" stroke="black" points="176,-638 176,-691 388,-691 388,-638 176,-638"/>
<text text-anchor="start" x="184" y="-675.8" font-family="Times,serif" font-size="14.00">Get types.public.u (u33)</text>
<text text-anchor="start" x="184" y="-660.8" font-family="Times,serif" font-size="14.00"> types = (integer?, integer)</text>
<text text-anchor="start" x="184" y="-645.8" font-family="Times,serif" font-size="14.00"> keys = ()</text>
</g>
<!-- node1&#45;&gt;node2 -->
<g id="edge4" class="edge">
<title>node1&#45;&gt;node2</title>
<path fill="none" stroke="black" d="M266.67,-637.72C258.29,-623.63 247.46,-605.4 236.72,-587.35"/>
<polygon fill="black" stroke="black" points="239.59,-585.33 231.47,-578.52 233.57,-588.9 239.59,-585.33"/>
<text text-anchor="start" x="251" y="-600.8" font-family="Times,serif" font-size="14.00">%1</text>
</g>
<!-- node3 -->
<g id="node4" class="node">
<title>node3</title>
<polygon fill="none" stroke="black" points="33.5,-195.5 33.5,-398.5 354.5,-398.5 354.5,-195.5 33.5,-195.5"/>
<text text-anchor="start" x="41.5" y="-383.3" font-family="Times,serif" font-size="14.00">Let l2 =</text>
<text text-anchor="start" x="41.5" y="-368.3" font-family="Times,serif" font-size="14.00"> Get %2 (l1)</text>
<text text-anchor="start" x="41.5" y="-353.3" font-family="Times,serif" font-size="14.00"> types = (integer, integer)</text>
<text text-anchor="start" x="41.5" y="-338.3" font-family="Times,serif" font-size="14.00"> keys = ()</text>
<text text-anchor="start" x="41.5" y="-323.3" font-family="Times,serif" font-size="14.00"> Map (#0 + #1)</text>
<text text-anchor="start" x="41.5" y="-308.3" font-family="Times,serif" font-size="14.00"> types = (integer, integer, integer)</text>
<text text-anchor="start" x="41.5" y="-293.3" font-family="Times,serif" font-size="14.00"> keys = ()</text>
<text text-anchor="start" x="41.5" y="-278.3" font-family="Times,serif" font-size="14.00"> Map (#0 &#45; #1)</text>
<text text-anchor="start" x="41.5" y="-263.3" font-family="Times,serif" font-size="14.00"> types = (integer, integer, integer, integer)</text>
<text text-anchor="start" x="41.5" y="-248.3" font-family="Times,serif" font-size="14.00"> keys = ()</text>
<text text-anchor="start" x="41.5" y="-233.3" font-family="Times,serif" font-size="14.00"> Project (#0..#3)</text>
<text text-anchor="start" x="41.5" y="-218.3" font-family="Times,serif" font-size="14.00"> types = (integer, integer, integer, integer)</text>
<text text-anchor="start" x="41.5" y="-203.3" font-family="Times,serif" font-size="14.00"> keys = ()</text>
</g>
<!-- node2&#45;&gt;node3 -->
<g id="edge2" class="edge">
<title>node2&#45;&gt;node3</title>
<path fill="none" stroke="black" d="M194,-450.3C194,-437.31 194,-423.27 194,-409.15"/>
<polygon fill="black" stroke="black" points="197.5,-408.87 194,-398.87 190.5,-408.87 197.5,-408.87"/>
<text text-anchor="start" x="194" y="-420.8" font-family="Times,serif" font-size="14.00">%2</text>
</g>
<!-- node4 -->
<g id="node5" class="node">
<title>node4</title>
<polygon fill="none" stroke="black" points="0,-0.5 0,-143.5 388,-143.5 388,-0.5 0,-0.5"/>
<text text-anchor="start" x="8" y="-128.3" font-family="Times,serif" font-size="14.00">Get %3 (l2)</text>
<text text-anchor="start" x="8" y="-113.3" font-family="Times,serif" font-size="14.00"> types = (integer, integer, integer, integer)</text>
<text text-anchor="start" x="8" y="-98.3" font-family="Times,serif" font-size="14.00"> keys = ()</text>
<text text-anchor="start" x="8" y="-83.3" font-family="Times,serif" font-size="14.00"> Map coalesce(#2, #3, #0)</text>
<text text-anchor="start" x="8" y="-68.3" font-family="Times,serif" font-size="14.00"> types = (integer, integer, integer, integer, integer?)</text>
<text text-anchor="start" x="8" y="-53.3" font-family="Times,serif" font-size="14.00"> keys = ()</text>
<text text-anchor="start" x="8" y="-38.3" font-family="Times,serif" font-size="14.00"> Project (#0..#4)</text>
<text text-anchor="start" x="8" y="-23.3" font-family="Times,serif" font-size="14.00"> types = (integer, integer, integer, integer, integer?)</text>
<text text-anchor="start" x="8" y="-8.3" font-family="Times,serif" font-size="14.00"> keys = ()</text>
</g>
<!-- node3&#45;&gt;node4 -->
<g id="edge1" class="edge">
<title>node3&#45;&gt;node4</title>
<path fill="none" stroke="black" d="M194,-195.26C194,-181.38 194,-167.26 194,-153.8"/>
<polygon fill="black" stroke="black" points="197.5,-153.64 194,-143.64 190.5,-153.64 197.5,-153.64"/>
<text text-anchor="start" x="194" y="-165.8" font-family="Times,serif" font-size="14.00">%3</text>
</g>
</g>
</svg>
