<?xml version="1.0" encoding="UTF-8" standalone="no"?>
<!DOCTYPE svg PUBLIC "-//W3C//DTD SVG 1.1//EN"
 "http://www.w3.org/Graphics/SVG/1.1/DTD/svg11.dtd">
<!-- Generated by graphviz version 2.43.0 (0)
 -->
<!-- Title: G Pages: 1 -->
<svg width="277pt" height="167pt"
 viewBox="0.00 0.00 277.00 167.00" xmlns="http://www.w3.org/2000/svg" xmlns:xlink="http://www.w3.org/1999/xlink">
<g id="graph0" class="graph" transform="scale(1 1) rotate(0) translate(4 163)">
<title>G</title>
<polygon fill="white" stroke="transparent" points="-4,4 -4,-163 273,-163 273,4 -4,4"/>
<!-- node0 -->
<g id="node1" class="node">
<title>node0</title>
<polygon fill="none" stroke="black" points="26,-120.5 26,-158.5 127,-158.5 127,-120.5 26,-120.5"/>
<text text-anchor="start" x="34" y="-143.3" font-family="Times,serif" font-size="14.00">Let l0 =</text>
<text text-anchor="start" x="34" y="-128.3" font-family="Times,serif" font-size="14.00"> Constant ()</text>
</g>
<!-- node2 -->
<g id="node3" class="node">
<title>node2</title>
<polygon fill="none" stroke="black" points="0,-0.5 0,-68.5 269,-68.5 269,-0.5 0,-0.5"/>
<text text-anchor="start" x="8" y="-53.3" font-family="Times,serif" font-size="14.00">Join %0 %1</text>
<text text-anchor="start" x="8" y="-38.3" font-family="Times,serif" font-size="14.00"> implementation = Unimplemented</text>
<text text-anchor="start" x="8" y="-23.3" font-family="Times,serif" font-size="14.00"> Map ((false (1 = 1)) (1 = null))</text>
<text text-anchor="start" x="8" y="-8.3" font-family="Times,serif" font-size="14.00"> Project (#0)</text>
</g>
<!-- node0&#45;&gt;node2 -->
<g id="edge2" class="edge">
<title>node0&#45;&gt;node2</title>
<path fill="none" stroke="black" d="M86.87,-120.09C93.51,-108.3 102.4,-92.5 110.71,-77.75"/>
<polygon fill="black" stroke="black" points="113.92,-79.17 115.78,-68.74 107.82,-75.74 113.92,-79.17"/>
<text text-anchor="start" x="105.5" y="-90.8" font-family="Times,serif" font-size="14.00">%0</text>
</g>
<!-- node1 -->
<g id="node2" class="node">
<title>node1</title>
<polygon fill="none" stroke="black" points="145.5,-121.5 145.5,-157.5 241.5,-157.5 241.5,-121.5 145.5,-121.5"/>
<text text-anchor="start" x="153.5" y="-135.8" font-family="Times,serif" font-size="14.00">Constant ()</text>
</g>
<!-- node1&#45;&gt;node2 -->
<g id="edge1" class="edge">
<title>node1&#45;&gt;node2</title>
<path fill="none" stroke="black" d="M183.76,-121.49C176.92,-109.55 167.45,-93.03 158.65,-77.66"/>
<polygon fill="black" stroke="black" points="161.57,-75.72 153.57,-68.79 155.5,-79.2 161.57,-75.72"/>
<text text-anchor="start" x="170.5" y="-90.8" font-family="Times,serif" font-size="14.00">%1</text>
</g>
</g>
</svg>
