<?xml version="1.0" encoding="UTF-8" standalone="no"?>
<!DOCTYPE svg PUBLIC "-//W3C//DTD SVG 1.1//EN"
 "http://www.w3.org/Graphics/SVG/1.1/DTD/svg11.dtd">
<!-- Generated by graphviz version 2.43.0 (0)
 -->
<!-- Title: G Pages: 1 -->
<svg width="870pt" height="422pt"
 viewBox="0.00 0.00 870.00 422.00" xmlns="http://www.w3.org/2000/svg" xmlns:xlink="http://www.w3.org/1999/xlink">
<g id="graph0" class="graph" transform="scale(1 1) rotate(0) translate(4 418)">
<title>G</title>
<polygon fill="white" stroke="transparent" points="-4,4 -4,-418 866,-418 866,4 -4,4"/>
<!-- node0 -->
<g id="node1" class="node">
<title>node0</title>
<polygon fill="none" stroke="black" points="380.5,-375.5 380.5,-413.5 481.5,-413.5 481.5,-375.5 380.5,-375.5"/>
<text text-anchor="start" x="388.5" y="-398.3" font-family="Times,serif" font-size="14.00">Let l0 =</text>
<text text-anchor="start" x="388.5" y="-383.3" font-family="Times,serif" font-size="14.00"> Constant ()</text>
</g>
<!-- node2 -->
<g id="node3" class="node">
<title>node2</title>
<polygon fill="none" stroke="black" points="197.5,-285.5 197.5,-323.5 466.5,-323.5 466.5,-285.5 197.5,-285.5"/>
<text text-anchor="start" x="205.5" y="-308.3" font-family="Times,serif" font-size="14.00">Join %0 %1</text>
<text text-anchor="start" x="205.5" y="-293.3" font-family="Times,serif" font-size="14.00"> implementation = Unimplemented</text>
</g>
<!-- node0&#45;&gt;node2 -->
<g id="edge4" class="edge">
<title>node0&#45;&gt;node2</title>
<path fill="none" stroke="black" d="M410.49,-375.27C395.89,-362.29 376.09,-344.69 360.03,-330.42"/>
<polygon fill="black" stroke="black" points="362.29,-327.74 352.49,-323.71 357.64,-332.97 362.29,-327.74"/>
<text text-anchor="start" x="387" y="-345.8" font-family="Times,serif" font-size="14.00">%0</text>
</g>
<!-- node4 -->
<g id="node5" class="node">
<title>node4</title>
<polygon fill="none" stroke="black" points="484.5,-285.5 484.5,-323.5 753.5,-323.5 753.5,-285.5 484.5,-285.5"/>
<text text-anchor="start" x="492.5" y="-308.3" font-family="Times,serif" font-size="14.00">Join %0 %3</text>
<text text-anchor="start" x="492.5" y="-293.3" font-family="Times,serif" font-size="14.00"> implementation = Unimplemented</text>
</g>
<!-- node0&#45;&gt;node4 -->
<g id="edge3" class="edge">
<title>node0&#45;&gt;node4</title>
<path fill="none" stroke="black" d="M469.5,-375.48C498.8,-361.76 539.32,-342.8 570.78,-328.07"/>
<polygon fill="black" stroke="black" points="572.66,-331.06 580.23,-323.65 569.69,-324.72 572.66,-331.06"/>
<text text-anchor="start" x="536" y="-345.8" font-family="Times,serif" font-size="14.00">%0</text>
</g>
<!-- node1 -->
<g id="node2" class="node">
<title>node1</title>
<polygon fill="none" stroke="black" points="0,-376.5 0,-412.5 362,-412.5 362,-376.5 0,-376.5"/>
<text text-anchor="start" x="8" y="-390.8" font-family="Times,serif" font-size="14.00">Get simplify_outer_joins.public.table_f4_f5 (u37)</text>
</g>
<!-- node1&#45;&gt;node2 -->
<g id="edge6" class="edge">
<title>node1&#45;&gt;node2</title>
<path fill="none" stroke="black" d="M210.47,-376.32C233.81,-362.72 266.64,-343.59 292.3,-328.64"/>
<polygon fill="black" stroke="black" points="294.17,-331.6 301.04,-323.54 290.64,-325.55 294.17,-331.6"/>
<text text-anchor="start" x="266" y="-345.8" font-family="Times,serif" font-size="14.00">%1</text>
</g>
<!-- node5 -->
<g id="node6" class="node">
<title>node5</title>
<polygon fill="none" stroke="black" points="340.5,-0.5 340.5,-233.5 609.5,-233.5 609.5,-0.5 340.5,-0.5"/>
<text text-anchor="start" x="348.5" y="-218.3" font-family="Times,serif" font-size="14.00">Join %2 %4</text>
<text text-anchor="start" x="348.5" y="-203.3" font-family="Times,serif" font-size="14.00"> implementation = Unimplemented</text>
<text text-anchor="start" x="348.5" y="-188.3" font-family="Times,serif" font-size="14.00"> Project (#0..#3)</text>
<text text-anchor="start" x="348.5" y="-173.3" font-family="Times,serif" font-size="14.00"> Filter (true &amp;&amp; (#1 = #2))</text>
<text text-anchor="start" x="348.5" y="-158.3" font-family="Times,serif" font-size="14.00"> Map #0, #1, #2, #3</text>
<text text-anchor="start" x="348.5" y="-143.3" font-family="Times,serif" font-size="14.00"> Project (#4..#7)</text>
<text text-anchor="start" x="348.5" y="-128.3" font-family="Times,serif" font-size="14.00"> Map #2, #0, #1, #3</text>
<text text-anchor="start" x="348.5" y="-113.3" font-family="Times,serif" font-size="14.00"> Project (#4..#7)</text>
<text text-anchor="start" x="348.5" y="-98.3" font-family="Times,serif" font-size="14.00"> Filter (true &amp;&amp; (#0 = #1))</text>
<text text-anchor="start" x="348.5" y="-83.3" font-family="Times,serif" font-size="14.00"> Map #0, #1, #2, #3</text>
<text text-anchor="start" x="348.5" y="-68.3" font-family="Times,serif" font-size="14.00"> Project (#4..#7)</text>
<text text-anchor="start" x="348.5" y="-53.3" font-family="Times,serif" font-size="14.00"> Map #0, #1, #2, #3, &quot;qgm(true)&quot;</text>
<text text-anchor="start" x="348.5" y="-38.3" font-family="Times,serif" font-size="14.00"> Project (#4..#8)</text>
<text text-anchor="start" x="348.5" y="-23.3" font-family="Times,serif" font-size="14.00"> Map #4, #0, #1, #3</text>
<text text-anchor="start" x="348.5" y="-8.3" font-family="Times,serif" font-size="14.00"> Project (#5..#8)</text>
</g>
<!-- node2&#45;&gt;node5 -->
<g id="edge1" class="edge">
<title>node2&#45;&gt;node5</title>
<path fill="none" stroke="black" d="M345.97,-285.38C354.63,-274.15 366.58,-258.64 379.75,-241.56"/>
<polygon fill="black" stroke="black" points="382.54,-243.67 385.88,-233.61 377,-239.4 382.54,-243.67"/>
<text text-anchor="start" x="370" y="-255.8" font-family="Times,serif" font-size="14.00">%2</text>
</g>
<!-- node3 -->
<g id="node4" class="node">
<title>node3</title>
<polygon fill="none" stroke="black" points="500,-376.5 500,-412.5 862,-412.5 862,-376.5 500,-376.5"/>
<text text-anchor="start" x="508" y="-390.8" font-family="Times,serif" font-size="14.00">Get simplify_outer_joins.public.table_f5_f6 (u39)</text>
</g>
<!-- node3&#45;&gt;node4 -->
<g id="edge5" class="edge">
<title>node3&#45;&gt;node4</title>
<path fill="none" stroke="black" d="M668.75,-376.11C659.92,-363.59 647.85,-346.45 637.81,-332.19"/>
<polygon fill="black" stroke="black" points="640.48,-329.92 631.86,-323.76 634.76,-333.95 640.48,-329.92"/>
<text text-anchor="start" x="653" y="-345.8" font-family="Times,serif" font-size="14.00">%3</text>
</g>
<!-- node4&#45;&gt;node5 -->
<g id="edge2" class="edge">
<title>node4&#45;&gt;node5</title>
<path fill="none" stroke="black" d="M604.93,-285.38C596.22,-274.15 584.18,-258.64 570.92,-241.56"/>
<polygon fill="black" stroke="black" points="573.64,-239.37 564.75,-233.61 568.11,-243.66 573.64,-239.37"/>
<text text-anchor="start" x="587" y="-255.8" font-family="Times,serif" font-size="14.00">%4</text>
</g>
</g>
</svg>
