<?xml version="1.0" encoding="UTF-8" standalone="no"?>
<!DOCTYPE svg PUBLIC "-//W3C//DTD SVG 1.1//EN"
 "http://www.w3.org/Graphics/SVG/1.1/DTD/svg11.dtd">
<!-- Generated by graphviz version 2.43.0 (0)
 -->
<!-- Title: G Pages: 1 -->
<svg width="750pt" height="197pt"
 viewBox="0.00 0.00 750.00 197.00" xmlns="http://www.w3.org/2000/svg" xmlns:xlink="http://www.w3.org/1999/xlink">
<g id="graph0" class="graph" transform="scale(1 1) rotate(0) translate(4 193)">
<title>G</title>
<polygon fill="white" stroke="transparent" points="-4,4 -4,-193 746,-193 746,4 -4,4"/>
<!-- node0 -->
<g id="node1" class="node">
<title>node0</title>
<polygon fill="none" stroke="black" points="0,-120.5 0,-188.5 362,-188.5 362,-120.5 0,-120.5"/>
<text text-anchor="start" x="8" y="-173.3" font-family="Times,serif" font-size="14.00">Get simplify_outer_joins.public.table_f4_f5 (u37)</text>
<text text-anchor="start" x="8" y="-158.3" font-family="Times,serif" font-size="14.00"> Filter (#0 = #1)</text>
<text text-anchor="start" x="8" y="-143.3" font-family="Times,serif" font-size="14.00"> Project (#0)</text>
<text text-anchor="start" x="8" y="-128.3" font-family="Times,serif" font-size="14.00"> ArrangeBy (#0)</text>
</g>
<!-- node2 -->
<g id="node3" class="node">
<title>node2</title>
<polygon fill="none" stroke="black" points="208,-0.5 208,-68.5 534,-68.5 534,-0.5 208,-0.5"/>
<text text-anchor="start" x="216" y="-53.3" font-family="Times,serif" font-size="14.00">Join %0 %1 (= #0 #1)</text>
<text text-anchor="start" x="216" y="-38.3" font-family="Times,serif" font-size="14.00"> implementation = Differential %1 %0.(#0)</text>
<text text-anchor="start" x="216" y="-23.3" font-family="Times,serif" font-size="14.00"> Map &quot;qgm(true)&quot;</text>
<text text-anchor="start" x="216" y="-8.3" font-family="Times,serif" font-size="14.00"> Project (#3, #0, #0, #2)</text>
</g>
<!-- node0&#45;&gt;node2 -->
<g id="edge1" class="edge">
<title>node0&#45;&gt;node2</title>
<path fill="none" stroke="black" d="M234.18,-120.47C257.45,-106.02 284.9,-88.97 309.09,-73.95"/>
<polygon fill="black" stroke="black" points="311.19,-76.77 317.83,-68.52 307.49,-70.82 311.19,-76.77"/>
<text text-anchor="start" x="288" y="-90.8" font-family="Times,serif" font-size="14.00">%0</text>
</g>
<!-- node1 -->
<g id="node2" class="node">
<title>node1</title>
<polygon fill="none" stroke="black" points="380,-135.5 380,-173.5 742,-173.5 742,-135.5 380,-135.5"/>
<text text-anchor="start" x="388" y="-158.3" font-family="Times,serif" font-size="14.00">Get simplify_outer_joins.public.table_f5_f6 (u39)</text>
<text text-anchor="start" x="388" y="-143.3" font-family="Times,serif" font-size="14.00"> Filter !(isnull(#0))</text>
</g>
<!-- node1&#45;&gt;node2 -->
<g id="edge2" class="edge">
<title>node1&#45;&gt;node2</title>
<path fill="none" stroke="black" d="M531.73,-135.32C505.55,-119.06 466.3,-94.69 433.14,-74.09"/>
<polygon fill="black" stroke="black" points="434.76,-70.98 424.41,-68.67 431.06,-76.92 434.76,-70.98"/>
<text text-anchor="start" x="478" y="-90.8" font-family="Times,serif" font-size="14.00">%1</text>
</g>
</g>
</svg>
