<?xml version="1.0" encoding="UTF-8" standalone="no"?>
<!DOCTYPE svg PUBLIC "-//W3C//DTD SVG 1.1//EN"
 "http://www.w3.org/Graphics/SVG/1.1/DTD/svg11.dtd">
<!-- Generated by graphviz version 2.43.0 (0)
 -->
<!-- Title: G Pages: 1 -->
<svg width="870pt" height="902pt"
 viewBox="0.00 0.00 870.00 902.00" xmlns="http://www.w3.org/2000/svg" xmlns:xlink="http://www.w3.org/1999/xlink">
<g id="graph0" class="graph" transform="scale(1 1) rotate(0) translate(4 898)">
<title>G</title>
<polygon fill="white" stroke="transparent" points="-4,4 -4,-898 866,-898 866,4 -4,4"/>
<!-- node0 -->
<g id="node1" class="node">
<title>node0</title>
<polygon fill="none" stroke="black" points="380.5,-825.5 380.5,-893.5 481.5,-893.5 481.5,-825.5 380.5,-825.5"/>
<text text-anchor="start" x="388.5" y="-878.3" font-family="Times,serif" font-size="14.00">Let l0 =</text>
<text text-anchor="start" x="388.5" y="-863.3" font-family="Times,serif" font-size="14.00"> Constant ()</text>
<text text-anchor="start" x="388.5" y="-848.3" font-family="Times,serif" font-size="14.00"> types = ()</text>
<text text-anchor="start" x="388.5" y="-833.3" font-family="Times,serif" font-size="14.00"> keys = (())</text>
</g>
<!-- node2 -->
<g id="node3" class="node">
<title>node2</title>
<polygon fill="none" stroke="black" points="197.5,-705.5 197.5,-773.5 466.5,-773.5 466.5,-705.5 197.5,-705.5"/>
<text text-anchor="start" x="205.5" y="-758.3" font-family="Times,serif" font-size="14.00">Join %0 %1</text>
<text text-anchor="start" x="205.5" y="-743.3" font-family="Times,serif" font-size="14.00"> implementation = Unimplemented</text>
<text text-anchor="start" x="205.5" y="-728.3" font-family="Times,serif" font-size="14.00"> types = (integer?, integer?)</text>
<text text-anchor="start" x="205.5" y="-713.3" font-family="Times,serif" font-size="14.00"> keys = ()</text>
</g>
<!-- node0&#45;&gt;node2 -->
<g id="edge4" class="edge">
<title>node0&#45;&gt;node2</title>
<path fill="none" stroke="black" d="M403.16,-825.32C391.77,-811.74 378.48,-795.9 366.48,-781.6"/>
<polygon fill="black" stroke="black" points="369.08,-779.25 359.97,-773.84 363.72,-783.75 369.08,-779.25"/>
<text text-anchor="start" x="387" y="-795.8" font-family="Times,serif" font-size="14.00">%0</text>
</g>
<!-- node4 -->
<g id="node5" class="node">
<title>node4</title>
<polygon fill="none" stroke="black" points="484.5,-705.5 484.5,-773.5 753.5,-773.5 753.5,-705.5 484.5,-705.5"/>
<text text-anchor="start" x="492.5" y="-758.3" font-family="Times,serif" font-size="14.00">Join %0 %3</text>
<text text-anchor="start" x="492.5" y="-743.3" font-family="Times,serif" font-size="14.00"> implementation = Unimplemented</text>
<text text-anchor="start" x="492.5" y="-728.3" font-family="Times,serif" font-size="14.00"> types = (integer?, integer?)</text>
<text text-anchor="start" x="492.5" y="-713.3" font-family="Times,serif" font-size="14.00"> keys = ()</text>
</g>
<!-- node0&#45;&gt;node4 -->
<g id="edge3" class="edge">
<title>node0&#45;&gt;node4</title>
<path fill="none" stroke="black" d="M481.88,-826.57C505.22,-811.91 533.1,-794.42 557.6,-779.04"/>
<polygon fill="black" stroke="black" points="559.51,-781.97 566.12,-773.69 555.79,-776.05 559.51,-781.97"/>
<text text-anchor="start" x="536" y="-795.8" font-family="Times,serif" font-size="14.00">%0</text>
</g>
<!-- node1 -->
<g id="node2" class="node">
<title>node1</title>
<polygon fill="none" stroke="black" points="0,-833 0,-886 362,-886 362,-833 0,-833"/>
<text text-anchor="start" x="8" y="-870.8" font-family="Times,serif" font-size="14.00">Get simplify_outer_joins.public.table_f4_f5 (u37)</text>
<text text-anchor="start" x="8" y="-855.8" font-family="Times,serif" font-size="14.00"> types = (integer?, integer?)</text>
<text text-anchor="start" x="8" y="-840.8" font-family="Times,serif" font-size="14.00"> keys = ()</text>
</g>
<!-- node1&#45;&gt;node2 -->
<g id="edge6" class="edge">
<title>node1&#45;&gt;node2</title>
<path fill="none" stroke="black" d="M213.76,-832.9C233.54,-817.44 259.15,-797.43 281.48,-779.98"/>
<polygon fill="black" stroke="black" points="283.81,-782.6 289.54,-773.68 279.5,-777.08 283.81,-782.6"/>
<text text-anchor="start" x="266" y="-795.8" font-family="Times,serif" font-size="14.00">%1</text>
</g>
<!-- node5 -->
<g id="node6" class="node">
<title>node5</title>
<polygon fill="none" stroke="black" points="142,-0.5 142,-653.5 808,-653.5 808,-0.5 142,-0.5"/>
<text text-anchor="start" x="150" y="-638.3" font-family="Times,serif" font-size="14.00">Join %2 %4</text>
<text text-anchor="start" x="150" y="-623.3" font-family="Times,serif" font-size="14.00"> implementation = Unimplemented</text>
<text text-anchor="start" x="150" y="-608.3" font-family="Times,serif" font-size="14.00"> types = (integer?, integer?, integer?, integer?)</text>
<text text-anchor="start" x="150" y="-593.3" font-family="Times,serif" font-size="14.00"> keys = ()</text>
<text text-anchor="start" x="150" y="-578.3" font-family="Times,serif" font-size="14.00"> Project (#0..#3)</text>
<text text-anchor="start" x="150" y="-563.3" font-family="Times,serif" font-size="14.00"> types = (integer?, integer?, integer?, integer?)</text>
<text text-anchor="start" x="150" y="-548.3" font-family="Times,serif" font-size="14.00"> keys = ()</text>
<text text-anchor="start" x="150" y="-533.3" font-family="Times,serif" font-size="14.00"> Filter (true &amp;&amp; (#1 = #2))</text>
<text text-anchor="start" x="150" y="-518.3" font-family="Times,serif" font-size="14.00"> types = (integer?, integer?, integer?, integer?)</text>
<text text-anchor="start" x="150" y="-503.3" font-family="Times,serif" font-size="14.00"> keys = ()</text>
<text text-anchor="start" x="150" y="-488.3" font-family="Times,serif" font-size="14.00"> Map #0, #1, #2, #3</text>
<text text-anchor="start" x="150" y="-473.3" font-family="Times,serif" font-size="14.00"> types = (integer?, integer?, integer?, integer?, integer?, integer?, integer?, integer?)</text>
<text text-anchor="start" x="150" y="-458.3" font-family="Times,serif" font-size="14.00"> keys = ()</text>
<text text-anchor="start" x="150" y="-443.3" font-family="Times,serif" font-size="14.00"> Project (#4..#7)</text>
<text text-anchor="start" x="150" y="-428.3" font-family="Times,serif" font-size="14.00"> types = (integer?, integer?, integer?, integer?)</text>
<text text-anchor="start" x="150" y="-413.3" font-family="Times,serif" font-size="14.00"> keys = ()</text>
<text text-anchor="start" x="150" y="-398.3" font-family="Times,serif" font-size="14.00"> Map #2, #0, #1, #3</text>
<text text-anchor="start" x="150" y="-383.3" font-family="Times,serif" font-size="14.00"> types = (integer?, integer?, integer?, integer?, integer?, integer?, integer?, integer?)</text>
<text text-anchor="start" x="150" y="-368.3" font-family="Times,serif" font-size="14.00"> keys = ()</text>
<text text-anchor="start" x="150" y="-353.3" font-family="Times,serif" font-size="14.00"> Project (#4..#7)</text>
<text text-anchor="start" x="150" y="-338.3" font-family="Times,serif" font-size="14.00"> types = (integer?, integer?, integer?, integer?)</text>
<text text-anchor="start" x="150" y="-323.3" font-family="Times,serif" font-size="14.00"> keys = ()</text>
<text text-anchor="start" x="150" y="-308.3" font-family="Times,serif" font-size="14.00"> Filter (true &amp;&amp; (#0 = #1))</text>
<text text-anchor="start" x="150" y="-293.3" font-family="Times,serif" font-size="14.00"> types = (integer?, integer?, integer?, integer?)</text>
<text text-anchor="start" x="150" y="-278.3" font-family="Times,serif" font-size="14.00"> keys = ()</text>
<text text-anchor="start" x="150" y="-263.3" font-family="Times,serif" font-size="14.00"> Map #0, #1, #2, #3</text>
<text text-anchor="start" x="150" y="-248.3" font-family="Times,serif" font-size="14.00"> types = (integer?, integer?, integer?, integer?, integer?, integer?, integer?, integer?)</text>
<text text-anchor="start" x="150" y="-233.3" font-family="Times,serif" font-size="14.00"> keys = ()</text>
<text text-anchor="start" x="150" y="-218.3" font-family="Times,serif" font-size="14.00"> Project (#4..#7)</text>
<text text-anchor="start" x="150" y="-203.3" font-family="Times,serif" font-size="14.00"> types = (integer?, integer?, integer?, integer?)</text>
<text text-anchor="start" x="150" y="-188.3" font-family="Times,serif" font-size="14.00"> keys = ()</text>
<text text-anchor="start" x="150" y="-173.3" font-family="Times,serif" font-size="14.00"> Map #0, #1, #2, #3, &quot;qgm(true)&quot;</text>
<text text-anchor="start" x="150" y="-158.3" font-family="Times,serif" font-size="14.00"> types = (integer?, integer?, integer?, integer?, integer?, integer?, integer?, integer?, text)</text>
<text text-anchor="start" x="150" y="-143.3" font-family="Times,serif" font-size="14.00"> keys = ()</text>
<text text-anchor="start" x="150" y="-128.3" font-family="Times,serif" font-size="14.00"> Project (#4..#8)</text>
<text text-anchor="start" x="150" y="-113.3" font-family="Times,serif" font-size="14.00"> types = (integer?, integer?, integer?, integer?, text)</text>
<text text-anchor="start" x="150" y="-98.3" font-family="Times,serif" font-size="14.00"> keys = ()</text>
<text text-anchor="start" x="150" y="-83.3" font-family="Times,serif" font-size="14.00"> Map #4, #0, #1, #3</text>
<text text-anchor="start" x="150" y="-68.3" font-family="Times,serif" font-size="14.00"> types = (integer?, integer?, integer?, integer?, text, text, integer?, integer?, integer?)</text>
<text text-anchor="start" x="150" y="-53.3" font-family="Times,serif" font-size="14.00"> keys = ()</text>
<text text-anchor="start" x="150" y="-38.3" font-family="Times,serif" font-size="14.00"> Project (#5..#8)</text>
<text text-anchor="start" x="150" y="-23.3" font-family="Times,serif" font-size="14.00"> types = (text, integer?, integer?, integer?)</text>
<text text-anchor="start" x="150" y="-8.3" font-family="Times,serif" font-size="14.00"> keys = ()</text>
</g>
<!-- node2&#45;&gt;node5 -->
<g id="edge1" class="edge">
<title>node2&#45;&gt;node5</title>
<path fill="none" stroke="black" d="M343.58,-705.25C347.64,-693.61 352.6,-679.38 358.18,-663.35"/>
<polygon fill="black" stroke="black" points="361.55,-664.3 361.54,-653.7 354.94,-662 361.55,-664.3"/>
<text text-anchor="start" x="352" y="-675.8" font-family="Times,serif" font-size="14.00">%2</text>
</g>
<!-- node3 -->
<g id="node4" class="node">
<title>node3</title>
<polygon fill="none" stroke="black" points="500,-833 500,-886 862,-886 862,-833 500,-833"/>
<text text-anchor="start" x="508" y="-870.8" font-family="Times,serif" font-size="14.00">Get simplify_outer_joins.public.table_f5_f6 (u39)</text>
<text text-anchor="start" x="508" y="-855.8" font-family="Times,serif" font-size="14.00"> types = (integer?, integer?)</text>
<text text-anchor="start" x="508" y="-840.8" font-family="Times,serif" font-size="14.00"> keys = ()</text>
</g>
<!-- node3&#45;&gt;node4 -->
<g id="edge5" class="edge">
<title>node3&#45;&gt;node4</title>
<path fill="none" stroke="black" d="M667.55,-832.9C659.85,-818.25 650.01,-799.52 641.2,-782.76"/>
<polygon fill="black" stroke="black" points="644.19,-780.91 636.44,-773.68 637.99,-784.16 644.19,-780.91"/>
<text text-anchor="start" x="653" y="-795.8" font-family="Times,serif" font-size="14.00">%3</text>
</g>
<!-- node4&#45;&gt;node5 -->
<g id="edge2" class="edge">
<title>node4&#45;&gt;node5</title>
<path fill="none" stroke="black" d="M607.34,-705.25C603.25,-693.61 598.26,-679.38 592.64,-663.35"/>
<polygon fill="black" stroke="black" points="595.87,-661.98 589.25,-653.7 589.26,-664.3 595.87,-661.98"/>
<text text-anchor="start" x="598" y="-675.8" font-family="Times,serif" font-size="14.00">%4</text>
</g>
</g>
</svg>
