<?xml version="1.0" encoding="UTF-8" standalone="no"?>
<!DOCTYPE svg PUBLIC "-//W3C//DTD SVG 1.1//EN"
 "http://www.w3.org/Graphics/SVG/1.1/DTD/svg11.dtd">
<!-- Generated by graphviz version 2.43.0 (0)
 -->
<!-- Title: G Pages: 1 -->
<svg width="750pt" height="407pt"
 viewBox="0.00 0.00 750.00 407.00" xmlns="http://www.w3.org/2000/svg" xmlns:xlink="http://www.w3.org/1999/xlink">
<g id="graph0" class="graph" transform="scale(1 1) rotate(0) translate(4 403)">
<title>G</title>
<polygon fill="white" stroke="transparent" points="-4,4 -4,-403 746,-403 746,4 -4,4"/>
<!-- node0 -->
<g id="node1" class="node">
<title>node0</title>
<polygon fill="none" stroke="black" points="0,-210.5 0,-398.5 362,-398.5 362,-210.5 0,-210.5"/>
<text text-anchor="start" x="8" y="-383.3" font-family="Times,serif" font-size="14.00">Get simplify_outer_joins.public.table_f4_f5 (u37)</text>
<text text-anchor="start" x="8" y="-368.3" font-family="Times,serif" font-size="14.00"> types = (integer?, integer?)</text>
<text text-anchor="start" x="8" y="-353.3" font-family="Times,serif" font-size="14.00"> keys = ()</text>
<text text-anchor="start" x="8" y="-338.3" font-family="Times,serif" font-size="14.00"> Filter (#0 = #1)</text>
<text text-anchor="start" x="8" y="-323.3" font-family="Times,serif" font-size="14.00"> types = (integer, integer)</text>
<text text-anchor="start" x="8" y="-308.3" font-family="Times,serif" font-size="14.00"> keys = ()</text>
<text text-anchor="start" x="8" y="-293.3" font-family="Times,serif" font-size="14.00"> Project (#0)</text>
<text text-anchor="start" x="8" y="-278.3" font-family="Times,serif" font-size="14.00"> types = (integer)</text>
<text text-anchor="start" x="8" y="-263.3" font-family="Times,serif" font-size="14.00"> keys = ()</text>
<text text-anchor="start" x="8" y="-248.3" font-family="Times,serif" font-size="14.00"> ArrangeBy (#0)</text>
<text text-anchor="start" x="8" y="-233.3" font-family="Times,serif" font-size="14.00"> types = (integer)</text>
<text text-anchor="start" x="8" y="-218.3" font-family="Times,serif" font-size="14.00"> keys = ()</text>
</g>
<!-- node2 -->
<g id="node3" class="node">
<title>node2</title>
<polygon fill="none" stroke="black" points="208,-0.5 208,-158.5 534,-158.5 534,-0.5 208,-0.5"/>
<text text-anchor="start" x="216" y="-143.3" font-family="Times,serif" font-size="14.00">Join %0 %1 (= #0 #1)</text>
<text text-anchor="start" x="216" y="-128.3" font-family="Times,serif" font-size="14.00"> implementation = Differential %1 %0.(#0)</text>
<text text-anchor="start" x="216" y="-113.3" font-family="Times,serif" font-size="14.00"> types = (integer, integer, integer?)</text>
<text text-anchor="start" x="216" y="-98.3" font-family="Times,serif" font-size="14.00"> keys = ()</text>
<text text-anchor="start" x="216" y="-83.3" font-family="Times,serif" font-size="14.00"> Map &quot;qgm(true)&quot;</text>
<text text-anchor="start" x="216" y="-68.3" font-family="Times,serif" font-size="14.00"> types = (integer, integer, integer?, text)</text>
<text text-anchor="start" x="216" y="-53.3" font-family="Times,serif" font-size="14.00"> keys = ()</text>
<text text-anchor="start" x="216" y="-38.3" font-family="Times,serif" font-size="14.00"> Project (#3, #0, #0, #2)</text>
<text text-anchor="start" x="216" y="-23.3" font-family="Times,serif" font-size="14.00"> types = (text, integer, integer, integer?)</text>
<text text-anchor="start" x="216" y="-8.3" font-family="Times,serif" font-size="14.00"> keys = ()</text>
</g>
<!-- node0&#45;&gt;node2 -->
<g id="edge1" class="edge">
<title>node0&#45;&gt;node2</title>
<path fill="none" stroke="black" d="M260.48,-210.22C272.83,-195.72 285.55,-180.8 297.76,-166.47"/>
<polygon fill="black" stroke="black" points="300.66,-168.45 304.48,-158.57 295.33,-163.91 300.66,-168.45"/>
<text text-anchor="start" x="288" y="-180.8" font-family="Times,serif" font-size="14.00">%0</text>
</g>
<!-- node1 -->
<g id="node2" class="node">
<title>node1</title>
<polygon fill="none" stroke="black" points="380,-255.5 380,-353.5 742,-353.5 742,-255.5 380,-255.5"/>
<text text-anchor="start" x="388" y="-338.3" font-family="Times,serif" font-size="14.00">Get simplify_outer_joins.public.table_f5_f6 (u39)</text>
<text text-anchor="start" x="388" y="-323.3" font-family="Times,serif" font-size="14.00"> types = (integer?, integer?)</text>
<text text-anchor="start" x="388" y="-308.3" font-family="Times,serif" font-size="14.00"> keys = ()</text>
<text text-anchor="start" x="388" y="-293.3" font-family="Times,serif" font-size="14.00"> Filter !(isnull(#0))</text>
<text text-anchor="start" x="388" y="-278.3" font-family="Times,serif" font-size="14.00"> types = (integer, integer?)</text>
<text text-anchor="start" x="388" y="-263.3" font-family="Times,serif" font-size="14.00"> keys = ()</text>
</g>
<!-- node1&#45;&gt;node2 -->
<g id="edge2" class="edge">
<title>node1&#45;&gt;node2</title>
<path fill="none" stroke="black" d="M520.01,-255.39C497.88,-229.42 469.9,-196.58 444.18,-166.39"/>
<polygon fill="black" stroke="black" points="446.85,-164.12 437.7,-158.78 441.52,-168.66 446.85,-164.12"/>
<text text-anchor="start" x="466" y="-180.8" font-family="Times,serif" font-size="14.00">%1</text>
</g>
</g>
</svg>
