<?xml version="1.0" encoding="UTF-8" standalone="no"?>
<!DOCTYPE svg PUBLIC "-//W3C//DTD SVG 1.1//EN"
 "http://www.w3.org/Graphics/SVG/1.1/DTD/svg11.dtd">
<!-- Generated by graphviz version 2.43.0 (0)
 -->
<!-- Title: G Pages: 1 -->
<svg width="356pt" height="197pt"
 viewBox="0.00 0.00 355.50 197.00" xmlns="http://www.w3.org/2000/svg" xmlns:xlink="http://www.w3.org/1999/xlink">
<g id="graph0" class="graph" transform="scale(1 1) rotate(0) translate(4 193)">
<title>G</title>
<polygon fill="white" stroke="transparent" points="-4,4 -4,-193 351.5,-193 351.5,4 -4,4"/>
<!-- node0 -->
<g id="node1" class="node">
<title>node0</title>
<polygon fill="none" stroke="black" points="30,-150.5 30,-188.5 131,-188.5 131,-150.5 30,-150.5"/>
<text text-anchor="start" x="38" y="-173.3" font-family="Times,serif" font-size="14.00">Let l0 =</text>
<text text-anchor="start" x="38" y="-158.3" font-family="Times,serif" font-size="14.00"> Constant ()</text>
</g>
<!-- node2 -->
<g id="node3" class="node">
<title>node2</title>
<polygon fill="none" stroke="black" points="0,-0.5 0,-98.5 329,-98.5 329,-0.5 0,-0.5"/>
<text text-anchor="start" x="8" y="-83.3" font-family="Times,serif" font-size="14.00">Join %0 %1</text>
<text text-anchor="start" x="8" y="-68.3" font-family="Times,serif" font-size="14.00"> implementation = Unimplemented</text>
<text text-anchor="start" x="8" y="-53.3" font-family="Times,serif" font-size="14.00"> Map #0, #1, (#0 + #1), (#0 &#45; #1)</text>
<text text-anchor="start" x="8" y="-38.3" font-family="Times,serif" font-size="14.00"> Project (#2..=#5)</text>
<text text-anchor="start" x="8" y="-23.3" font-family="Times,serif" font-size="14.00"> Map #0, #1, #2, #3, coalesce(#2, #3, #1)</text>
<text text-anchor="start" x="8" y="-8.3" font-family="Times,serif" font-size="14.00"> Project (#4..=#8)</text>
</g>
<!-- node0&#45;&gt;node2 -->
<g id="edge2" class="edge">
<title>node0&#45;&gt;node2</title>
<path fill="none" stroke="black" d="M93.44,-150.32C101.83,-138.54 113.25,-122.5 124.48,-106.72"/>
<polygon fill="black" stroke="black" points="127.37,-108.7 130.31,-98.52 121.66,-104.64 127.37,-108.7"/>
<text text-anchor="start" x="115.5" y="-120.8" font-family="Times,serif" font-size="14.00">%0</text>
</g>
<!-- node1 -->
<g id="node2" class="node">
<title>node1</title>
<polygon fill="none" stroke="black" points="149.5,-151.5 149.5,-187.5 347.5,-187.5 347.5,-151.5 149.5,-151.5"/>
<text text-anchor="start" x="157.5" y="-165.8" font-family="Times,serif" font-size="14.00">Get types.public.u (u129)</text>
</g>
<!-- node1&#45;&gt;node2 -->
<g id="edge1" class="edge">
<title>node1&#45;&gt;node2</title>
<path fill="none" stroke="black" d="M236.29,-151.34C227.88,-139.53 216.19,-123.11 204.68,-106.94"/>
<polygon fill="black" stroke="black" points="207.35,-104.66 198.7,-98.54 201.65,-108.72 207.35,-104.66"/>
<text text-anchor="start" x="220.5" y="-120.8" font-family="Times,serif" font-size="14.00">%1</text>
</g>
</g>
</svg>
