<?xml version="1.0" encoding="UTF-8" standalone="no"?>
<!DOCTYPE svg PUBLIC "-//W3C//DTD SVG 1.1//EN"
 "http://www.w3.org/Graphics/SVG/1.1/DTD/svg11.dtd">
<!-- Generated by graphviz version 2.43.0 (0)
 -->
<!-- Title: G Pages: 1 -->
<svg width="687pt" height="377pt"
 viewBox="0.00 0.00 687.00 377.00" xmlns="http://www.w3.org/2000/svg" xmlns:xlink="http://www.w3.org/1999/xlink">
<g id="graph0" class="graph" transform="scale(1 1) rotate(0) translate(4 373)">
<title>G</title>
<polygon fill="white" stroke="transparent" points="-4,4 -4,-373 683,-373 683,4 -4,4"/>
<!-- node0 -->
<g id="node1" class="node">
<title>node0</title>
<polygon fill="none" stroke="black" points="202,-300.5 202,-368.5 303,-368.5 303,-300.5 202,-300.5"/>
<text text-anchor="start" x="210" y="-353.3" font-family="Times,serif" font-size="14.00">Let l0 =</text>
<text text-anchor="start" x="210" y="-338.3" font-family="Times,serif" font-size="14.00"> Constant ()</text>
<text text-anchor="start" x="210" y="-323.3" font-family="Times,serif" font-size="14.00"> types = ()</text>
<text text-anchor="start" x="210" y="-308.3" font-family="Times,serif" font-size="14.00"> keys = (())</text>
</g>
<!-- node2 -->
<g id="node3" class="node">
<title>node2</title>
<polygon fill="none" stroke="black" points="0,-0.5 0,-248.5 679,-248.5 679,-0.5 0,-0.5"/>
<text text-anchor="start" x="8" y="-233.3" font-family="Times,serif" font-size="14.00">Join %0 %1</text>
<text text-anchor="start" x="8" y="-218.3" font-family="Times,serif" font-size="14.00"> implementation = Unimplemented</text>
<text text-anchor="start" x="8" y="-203.3" font-family="Times,serif" font-size="14.00"> types = (integer?, integer)</text>
<text text-anchor="start" x="8" y="-188.3" font-family="Times,serif" font-size="14.00"> keys = ()</text>
<text text-anchor="start" x="8" y="-173.3" font-family="Times,serif" font-size="14.00"> Map #0, #1, (#0 + #1), (#0 &#45; #1)</text>
<text text-anchor="start" x="8" y="-158.3" font-family="Times,serif" font-size="14.00"> types = (integer?, integer, integer?, integer, integer?, integer?)</text>
<text text-anchor="start" x="8" y="-143.3" font-family="Times,serif" font-size="14.00"> keys = ()</text>
<text text-anchor="start" x="8" y="-128.3" font-family="Times,serif" font-size="14.00"> Project (#2..=#5)</text>
<text text-anchor="start" x="8" y="-113.3" font-family="Times,serif" font-size="14.00"> types = (integer?, integer, integer?, integer?)</text>
<text text-anchor="start" x="8" y="-98.3" font-family="Times,serif" font-size="14.00"> keys = ()</text>
<text text-anchor="start" x="8" y="-83.3" font-family="Times,serif" font-size="14.00"> Map #0, #1, #2, #3, coalesce(#2, #3, #1)</text>
<text text-anchor="start" x="8" y="-68.3" font-family="Times,serif" font-size="14.00"> types = (integer?, integer, integer?, integer?, integer?, integer, integer?, integer?, integer?)</text>
<text text-anchor="start" x="8" y="-53.3" font-family="Times,serif" font-size="14.00"> keys = ()</text>
<text text-anchor="start" x="8" y="-38.3" font-family="Times,serif" font-size="14.00"> Project (#4..=#8)</text>
<text text-anchor="start" x="8" y="-23.3" font-family="Times,serif" font-size="14.00"> types = (integer?, integer, integer?, integer?, integer?)</text>
<text text-anchor="start" x="8" y="-8.3" font-family="Times,serif" font-size="14.00"> keys = ()</text>
</g>
<!-- node0&#45;&gt;node2 -->
<g id="edge2" class="edge">
<title>node0&#45;&gt;node2</title>
<path fill="none" stroke="black" d="M266.48,-300.08C271.49,-288.1 277.49,-273.75 283.87,-258.5"/>
<polygon fill="black" stroke="black" points="287.26,-259.47 287.89,-248.89 280.8,-256.77 287.26,-259.47"/>
<text text-anchor="start" x="278.5" y="-270.8" font-family="Times,serif" font-size="14.00">%0</text>
</g>
<!-- node1 -->
<g id="node2" class="node">
<title>node1</title>
<polygon fill="none" stroke="black" points="321.5,-308 321.5,-361 533.5,-361 533.5,-308 321.5,-308"/>
<text text-anchor="start" x="329.5" y="-345.8" font-family="Times,serif" font-size="14.00">Get types.public.u (u129)</text>
<text text-anchor="start" x="329.5" y="-330.8" font-family="Times,serif" font-size="14.00"> types = (integer?, integer)</text>
<text text-anchor="start" x="329.5" y="-315.8" font-family="Times,serif" font-size="14.00"> keys = ()</text>
</g>
<!-- node1&#45;&gt;node2 -->
<g id="edge1" class="edge">
<title>node1&#45;&gt;node2</title>
<path fill="none" stroke="black" d="M416.71,-308C411.03,-294.57 403.59,-276.97 395.56,-258.01"/>
<polygon fill="black" stroke="black" points="398.7,-256.44 391.58,-248.6 392.25,-259.17 398.7,-256.44"/>
<text text-anchor="start" x="403.5" y="-270.8" font-family="Times,serif" font-size="14.00">%1</text>
</g>
</g>
</svg>
