<?xml version="1.0" encoding="UTF-8" standalone="no"?>
<!DOCTYPE svg PUBLIC "-//W3C//DTD SVG 1.1//EN"
 "http://www.w3.org/Graphics/SVG/1.1/DTD/svg11.dtd">
<!-- Generated by graphviz version 2.43.0 (0)
 -->
<!-- Title: G Pages: 1 -->
<svg width="888pt" height="945pt"
 viewBox="0.00 0.00 887.50 945.00" xmlns="http://www.w3.org/2000/svg" xmlns:xlink="http://www.w3.org/1999/xlink">
<g id="graph0" class="graph" transform="scale(1 1) rotate(0) translate(4 941)">
<title>G</title>
<polygon fill="white" stroke="transparent" points="-4,4 -4,-941 883.5,-941 883.5,4 -4,4"/>
<!-- node0 -->
<g id="node1" class="node">
<title>node0</title>
<polygon fill="none" stroke="black" points="334.5,-898.5 334.5,-936.5 435.5,-936.5 435.5,-898.5 334.5,-898.5"/>
<text text-anchor="start" x="342.5" y="-921.3" font-family="Times,serif" font-size="14.00">Let l0 =</text>
<text text-anchor="start" x="342.5" y="-906.3" font-family="Times,serif" font-size="14.00"> Constant ()</text>
</g>
<!-- node2 -->
<g id="node3" class="node">
<title>node2</title>
<polygon fill="none" stroke="black" points="63.5,-793.5 63.5,-846.5 332.5,-846.5 332.5,-793.5 63.5,-793.5"/>
<text text-anchor="start" x="71.5" y="-831.3" font-family="Times,serif" font-size="14.00">Let l1 =</text>
<text text-anchor="start" x="71.5" y="-816.3" font-family="Times,serif" font-size="14.00"> Join %0 %1</text>
<text text-anchor="start" x="71.5" y="-801.3" font-family="Times,serif" font-size="14.00"> implementation = Unimplemented</text>
</g>
<!-- node0&#45;&gt;node2 -->
<g id="edge2" class="edge">
<title>node0&#45;&gt;node2</title>
<path fill="none" stroke="black" d="M349.39,-898.31C323.36,-885.02 287.47,-866.69 257.17,-851.22"/>
<polygon fill="black" stroke="black" points="258.46,-847.95 247.96,-846.51 255.27,-854.18 258.46,-847.95"/>
<text text-anchor="start" x="309" y="-868.8" font-family="Times,serif" font-size="14.00">%0</text>
</g>
<!-- node4 -->
<g id="node5" class="node">
<title>node4</title>
<polygon fill="none" stroke="black" points="443.5,-793.5 443.5,-846.5 712.5,-846.5 712.5,-793.5 443.5,-793.5"/>
<text text-anchor="start" x="451.5" y="-831.3" font-family="Times,serif" font-size="14.00">Let l2 =</text>
<text text-anchor="start" x="451.5" y="-816.3" font-family="Times,serif" font-size="14.00"> Join %0 %3</text>
<text text-anchor="start" x="451.5" y="-801.3" font-family="Times,serif" font-size="14.00"> implementation = Unimplemented</text>
</g>
<!-- node0&#45;&gt;node4 -->
<g id="edge9" class="edge">
<title>node0&#45;&gt;node4</title>
<path fill="none" stroke="black" d="M421.76,-898.31C448.73,-884.96 485.98,-866.53 517.34,-851.02"/>
<polygon fill="black" stroke="black" points="519.03,-854.09 526.44,-846.51 515.92,-847.81 519.03,-854.09"/>
<text text-anchor="start" x="487" y="-868.8" font-family="Times,serif" font-size="14.00">%0</text>
</g>
<!-- node1 -->
<g id="node2" class="node">
<title>node1</title>
<polygon fill="none" stroke="black" points="88.5,-899.5 88.5,-935.5 307.5,-935.5 307.5,-899.5 88.5,-899.5"/>
<text text-anchor="start" x="96.5" y="-913.8" font-family="Times,serif" font-size="14.00">Get tpch.public.orders (u24)</text>
</g>
<!-- node1&#45;&gt;node2 -->
<g id="edge6" class="edge">
<title>node1&#45;&gt;node2</title>
<path fill="none" stroke="black" d="M198,-899.43C198,-887.6 198,-871.41 198,-856.82"/>
<polygon fill="black" stroke="black" points="201.5,-856.55 198,-846.55 194.5,-856.56 201.5,-856.55"/>
<text text-anchor="start" x="198" y="-868.8" font-family="Times,serif" font-size="14.00">%1</text>
</g>
<!-- node5 -->
<g id="node6" class="node">
<title>node5</title>
<polygon fill="none" stroke="black" points="255.5,-658.5 255.5,-741.5 524.5,-741.5 524.5,-658.5 255.5,-658.5"/>
<text text-anchor="start" x="263.5" y="-726.3" font-family="Times,serif" font-size="14.00">Let l3 =</text>
<text text-anchor="start" x="263.5" y="-711.3" font-family="Times,serif" font-size="14.00"> Join %2 %4</text>
<text text-anchor="start" x="263.5" y="-696.3" font-family="Times,serif" font-size="14.00"> implementation = Unimplemented</text>
<text text-anchor="start" x="263.5" y="-681.3" font-family="Times,serif" font-size="14.00"> Project (#0..#16)</text>
<text text-anchor="start" x="263.5" y="-666.3" font-family="Times,serif" font-size="14.00"> Filter (#14 = #3)</text>
</g>
<!-- node2&#45;&gt;node5 -->
<g id="edge20" class="edge">
<title>node2&#45;&gt;node5</title>
<path fill="none" stroke="black" d="M239.66,-793.4C261.76,-779.82 289.58,-762.72 315.27,-746.93"/>
<polygon fill="black" stroke="black" points="317.2,-749.85 323.88,-741.63 313.53,-743.89 317.2,-749.85"/>
<text text-anchor="start" x="294" y="-763.8" font-family="Times,serif" font-size="14.00">%2</text>
</g>
<!-- node9 -->
<g id="node10" class="node">
<title>node9</title>
<polygon fill="none" stroke="black" points="58.5,-418.5 58.5,-486.5 327.5,-486.5 327.5,-418.5 58.5,-418.5"/>
<text text-anchor="start" x="66.5" y="-471.3" font-family="Times,serif" font-size="14.00">Join %2 %6 (= #3 #9)</text>
<text text-anchor="start" x="66.5" y="-456.3" font-family="Times,serif" font-size="14.00"> implementation = Unimplemented</text>
<text text-anchor="start" x="66.5" y="-441.3" font-family="Times,serif" font-size="14.00"> Project (#0..#8)</text>
<text text-anchor="start" x="66.5" y="-426.3" font-family="Times,serif" font-size="14.00"> Negate</text>
</g>
<!-- node2&#45;&gt;node9 -->
<g id="edge16" class="edge">
<title>node2&#45;&gt;node9</title>
<path fill="none" stroke="black" d="M197.65,-793.3C196.8,-731.45 194.65,-573.79 193.59,-496.94"/>
<polygon fill="black" stroke="black" points="197.09,-496.6 193.45,-486.65 190.09,-496.69 197.09,-496.6"/>
<text text-anchor="start" x="196" y="-628.8" font-family="Times,serif" font-size="14.00">%2</text>
</g>
<!-- node10 -->
<g id="node11" class="node">
<title>node10</title>
<polygon fill="none" stroke="black" points="0,-321 0,-359 336,-359 336,-321 0,-321"/>
<text text-anchor="start" x="8" y="-343.8" font-family="Times,serif" font-size="14.00">Union %9 %2</text>
<text text-anchor="start" x="8" y="-328.8" font-family="Times,serif" font-size="14.00"> Map null, null, null, null, null, null, null, null</text>
</g>
<!-- node2&#45;&gt;node10 -->
<g id="edge15" class="edge">
<title>node2&#45;&gt;node10</title>
<path fill="none" stroke="black" d="M112.03,-793.36C70.7,-775.2 30,-745.91 30,-701 30,-701 30,-701 30,-451.5 30,-409.62 69.2,-381 105.81,-363.39"/>
<polygon fill="black" stroke="black" points="107.41,-366.51 115.04,-359.15 104.49,-360.15 107.41,-366.51"/>
<text text-anchor="start" x="30" y="-568.8" font-family="Times,serif" font-size="14.00">%2</text>
</g>
<!-- node3 -->
<g id="node4" class="node">
<title>node3</title>
<polygon fill="none" stroke="black" points="458.5,-899.5 458.5,-935.5 697.5,-935.5 697.5,-899.5 458.5,-899.5"/>
<text text-anchor="start" x="466.5" y="-913.8" font-family="Times,serif" font-size="14.00">Get tpch.public.customer (u20)</text>
</g>
<!-- node3&#45;&gt;node4 -->
<g id="edge14" class="edge">
<title>node3&#45;&gt;node4</title>
<path fill="none" stroke="black" d="M578,-899.43C578,-887.6 578,-871.41 578,-856.82"/>
<polygon fill="black" stroke="black" points="581.5,-856.55 578,-846.55 574.5,-856.56 581.5,-856.55"/>
<text text-anchor="start" x="578" y="-868.8" font-family="Times,serif" font-size="14.00">%3</text>
</g>
<!-- node4&#45;&gt;node5 -->
<g id="edge8" class="edge">
<title>node4&#45;&gt;node5</title>
<path fill="none" stroke="black" d="M537.21,-793.4C515.66,-779.87 488.56,-762.86 463.5,-747.14"/>
<polygon fill="black" stroke="black" points="465.07,-743.99 454.74,-741.63 461.35,-749.91 465.07,-743.99"/>
<text text-anchor="start" x="506" y="-763.8" font-family="Times,serif" font-size="14.00">%4</text>
</g>
<!-- node7 -->
<g id="node8" class="node">
<title>node7</title>
<polygon fill="none" stroke="black" points="610.5,-418.5 610.5,-486.5 879.5,-486.5 879.5,-418.5 610.5,-418.5"/>
<text text-anchor="start" x="618.5" y="-471.3" font-family="Times,serif" font-size="14.00">Join %4 %6 (= #5 #8)</text>
<text text-anchor="start" x="618.5" y="-456.3" font-family="Times,serif" font-size="14.00"> implementation = Unimplemented</text>
<text text-anchor="start" x="618.5" y="-441.3" font-family="Times,serif" font-size="14.00"> Project (#0..#7)</text>
<text text-anchor="start" x="618.5" y="-426.3" font-family="Times,serif" font-size="14.00"> Negate</text>
</g>
<!-- node4&#45;&gt;node7 -->
<g id="edge19" class="edge">
<title>node4&#45;&gt;node7</title>
<path fill="none" stroke="black" d="M589.74,-793.3C618.12,-731.2 690.63,-572.5 725.58,-496"/>
<polygon fill="black" stroke="black" points="728.88,-497.2 729.86,-486.65 722.52,-494.29 728.88,-497.2"/>
<text text-anchor="start" x="665" y="-628.8" font-family="Times,serif" font-size="14.00">%4</text>
</g>
<!-- node8 -->
<g id="node9" class="node">
<title>node8</title>
<polygon fill="none" stroke="black" points="396,-313.5 396,-366.5 768,-366.5 768,-313.5 396,-313.5"/>
<text text-anchor="start" x="404" y="-351.3" font-family="Times,serif" font-size="14.00">Union %7 %4</text>
<text text-anchor="start" x="404" y="-336.3" font-family="Times,serif" font-size="14.00"> Map null, null, null, null, null, null, null, null, null</text>
<text text-anchor="start" x="404" y="-321.3" font-family="Times,serif" font-size="14.00"> Project (#8..#16, #0..#7)</text>
</g>
<!-- node4&#45;&gt;node8 -->
<g id="edge12" class="edge">
<title>node4&#45;&gt;node8</title>
<path fill="none" stroke="black" d="M579.38,-793.23C580.53,-769.33 582,-732.77 582,-701 582,-701 582,-701 582,-451.5 582,-426.61 582,-398.56 582,-376.95"/>
<polygon fill="black" stroke="black" points="585.5,-376.9 582,-366.9 578.5,-376.9 585.5,-376.9"/>
<text text-anchor="start" x="582" y="-568.8" font-family="Times,serif" font-size="14.00">%4</text>
</g>
<!-- node6 -->
<g id="node7" class="node">
<title>node6</title>
<polygon fill="none" stroke="black" points="379.5,-538.5 379.5,-606.5 546.5,-606.5 546.5,-538.5 379.5,-538.5"/>
<text text-anchor="start" x="387.5" y="-591.3" font-family="Times,serif" font-size="14.00">Let l4 =</text>
<text text-anchor="start" x="387.5" y="-576.3" font-family="Times,serif" font-size="14.00"> Get %5 (l3)</text>
<text text-anchor="start" x="387.5" y="-561.3" font-family="Times,serif" font-size="14.00"> Project (#3)</text>
<text text-anchor="start" x="387.5" y="-546.3" font-family="Times,serif" font-size="14.00"> Distinct group=(#0)</text>
</g>
<!-- node5&#45;&gt;node6 -->
<g id="edge18" class="edge">
<title>node5&#45;&gt;node6</title>
<path fill="none" stroke="black" d="M413.7,-658.25C421.69,-644.52 430.62,-629.17 438.66,-615.34"/>
<polygon fill="black" stroke="black" points="441.79,-616.92 443.8,-606.51 435.74,-613.4 441.79,-616.92"/>
<text text-anchor="start" x="433" y="-628.8" font-family="Times,serif" font-size="14.00">%5</text>
</g>
<!-- node11 -->
<g id="node12" class="node">
<title>node11</title>
<polygon fill="none" stroke="black" points="303,-225.5 303,-261.5 425,-261.5 425,-225.5 303,-225.5"/>
<text text-anchor="start" x="311" y="-239.8" font-family="Times,serif" font-size="14.00">Union %10 %5</text>
</g>
<!-- node5&#45;&gt;node11 -->
<g id="edge13" class="edge">
<title>node5&#45;&gt;node11</title>
<path fill="none" stroke="black" d="M379.96,-658.5C376.44,-642.55 372.91,-624.02 371,-607 357.06,-482.45 360.57,-332.36 362.82,-271.8"/>
<polygon fill="black" stroke="black" points="366.32,-271.69 363.22,-261.56 359.33,-271.41 366.32,-271.69"/>
<text text-anchor="start" x="362" y="-448.8" font-family="Times,serif" font-size="14.00">%5</text>
</g>
<!-- node6&#45;&gt;node7 -->
<g id="edge7" class="edge">
<title>node6&#45;&gt;node7</title>
<path fill="none" stroke="black" d="M541.93,-538.47C577.53,-523.58 619.72,-505.92 656.4,-490.57"/>
<polygon fill="black" stroke="black" points="658.22,-493.61 666.09,-486.52 655.52,-487.15 658.22,-493.61"/>
<text text-anchor="start" x="620" y="-508.8" font-family="Times,serif" font-size="14.00">%6</text>
</g>
<!-- node6&#45;&gt;node9 -->
<g id="edge17" class="edge">
<title>node6&#45;&gt;node9</title>
<path fill="none" stroke="black" d="M387.43,-538.47C353.35,-523.58 312.95,-505.92 277.83,-490.57"/>
<polygon fill="black" stroke="black" points="279.12,-487.32 268.55,-486.52 276.31,-493.73 279.12,-487.32"/>
<text text-anchor="start" x="344" y="-508.8" font-family="Times,serif" font-size="14.00">%6</text>
</g>
<!-- node7&#45;&gt;node8 -->
<g id="edge11" class="edge">
<title>node7&#45;&gt;node8</title>
<path fill="none" stroke="black" d="M696.09,-418.35C674.58,-403.76 649.44,-386.72 628.25,-372.35"/>
<polygon fill="black" stroke="black" points="629.97,-369.29 619.73,-366.58 626.04,-375.09 629.97,-369.29"/>
<text text-anchor="start" x="668" y="-388.8" font-family="Times,serif" font-size="14.00">%7</text>
</g>
<!-- node12 -->
<g id="node13" class="node">
<title>node12</title>
<polygon fill="none" stroke="black" points="250,-120.5 250,-173.5 690,-173.5 690,-120.5 250,-120.5"/>
<text text-anchor="start" x="258" y="-158.3" font-family="Times,serif" font-size="14.00">Let l5 =</text>
<text text-anchor="start" x="258" y="-143.3" font-family="Times,serif" font-size="14.00"> Union %8 %11</text>
<text text-anchor="start" x="258" y="-128.3" font-family="Times,serif" font-size="14.00"> Filter (((#14 + #3) = i32tonumeric(123)) &amp;&amp; (#14 = #3))</text>
</g>
<!-- node8&#45;&gt;node12 -->
<g id="edge4" class="edge">
<title>node8&#45;&gt;node12</title>
<path fill="none" stroke="black" d="M566.9,-313.24C547.13,-279.54 512.43,-220.37 490.37,-182.73"/>
<polygon fill="black" stroke="black" points="493.12,-180.51 485.04,-173.66 487.08,-184.05 493.12,-180.51"/>
<text text-anchor="start" x="535" y="-239.8" font-family="Times,serif" font-size="14.00">%8</text>
</g>
<!-- node9&#45;&gt;node10 -->
<g id="edge1" class="edge">
<title>node9&#45;&gt;node10</title>
<path fill="none" stroke="black" d="M185.5,-418.35C181.92,-402.54 177.69,-383.85 174.29,-368.8"/>
<polygon fill="black" stroke="black" points="177.7,-368.02 172.08,-359.04 170.87,-369.57 177.7,-368.02"/>
<text text-anchor="start" x="182" y="-388.8" font-family="Times,serif" font-size="14.00">%9</text>
</g>
<!-- node10&#45;&gt;node11 -->
<g id="edge3" class="edge">
<title>node10&#45;&gt;node11</title>
<path fill="none" stroke="black" d="M205.79,-320.78C238.23,-305.14 285.03,-282.57 319.32,-266.04"/>
<polygon fill="black" stroke="black" points="321.15,-269.05 328.63,-261.55 318.11,-262.74 321.15,-269.05"/>
<text text-anchor="start" x="290" y="-283.8" font-family="Times,serif" font-size="14.00">%10</text>
</g>
<!-- node11&#45;&gt;node12 -->
<g id="edge10" class="edge">
<title>node11&#45;&gt;node12</title>
<path fill="none" stroke="black" d="M383.44,-225.17C397.44,-212.69 416.73,-195.49 433.56,-180.49"/>
<polygon fill="black" stroke="black" points="435.95,-183.05 441.08,-173.78 431.29,-177.82 435.95,-183.05"/>
<text text-anchor="start" x="420" y="-195.8" font-family="Times,serif" font-size="14.00">%11</text>
</g>
<!-- node13 -->
<g id="node14" class="node">
<title>node13</title>
<polygon fill="none" stroke="black" points="377,-0.5 377,-68.5 563,-68.5 563,-0.5 377,-0.5"/>
<text text-anchor="start" x="385" y="-53.3" font-family="Times,serif" font-size="14.00">Get %12 (l5)</text>
<text text-anchor="start" x="385" y="-38.3" font-family="Times,serif" font-size="14.00"> Map &quot;qgm(false)&quot;</text>
<text text-anchor="start" x="385" y="-23.3" font-family="Times,serif" font-size="14.00"> Project (#0..#17)</text>
<text text-anchor="start" x="385" y="-8.3" font-family="Times,serif" font-size="14.00"> Project (#17, #0..#16)</text>
</g>
<!-- node12&#45;&gt;node13 -->
<g id="edge5" class="edge">
<title>node12&#45;&gt;node13</title>
<path fill="none" stroke="black" d="M470,-120.37C470,-107.96 470,-92.71 470,-78.58"/>
<polygon fill="black" stroke="black" points="473.5,-78.54 470,-68.54 466.5,-78.54 473.5,-78.54"/>
<text text-anchor="start" x="470" y="-90.8" font-family="Times,serif" font-size="14.00">%12</text>
</g>
</g>
</svg>
