<?xml version="1.0" encoding="UTF-8" standalone="no"?>
<!DOCTYPE svg PUBLIC "-//W3C//DTD SVG 1.1//EN"
 "http://www.w3.org/Graphics/SVG/1.1/DTD/svg11.dtd">
<!-- Generated by graphviz version 2.43.0 (0)
 -->
<!-- Title: G Pages: 1 -->
<svg width="484pt" height="182pt"
 viewBox="0.00 0.00 484.00 182.00" xmlns="http://www.w3.org/2000/svg" xmlns:xlink="http://www.w3.org/1999/xlink">
<g id="graph0" class="graph" transform="scale(1 1) rotate(0) translate(4 178)">
<title>G</title>
<polygon fill="white" stroke="transparent" points="-4,4 -4,-178 480,-178 480,4 -4,4"/>
<!-- node0 -->
<g id="node1" class="node">
<title>node0</title>
<polygon fill="none" stroke="black" points="0,-120.5 0,-173.5 219,-173.5 219,-120.5 0,-120.5"/>
<text text-anchor="start" x="8" y="-158.3" font-family="Times,serif" font-size="14.00">Get tpch.public.orders (u24)</text>
<text text-anchor="start" x="8" y="-143.3" font-family="Times,serif" font-size="14.00"> Filter (123 = (#3 + #3))</text>
<text text-anchor="start" x="8" y="-128.3" font-family="Times,serif" font-size="14.00"> ArrangeBy (#3)</text>
</g>
<!-- node2 -->
<g id="node3" class="node">
<title>node2</title>
<polygon fill="none" stroke="black" points="69.5,-0.5 69.5,-68.5 395.5,-68.5 395.5,-0.5 69.5,-0.5"/>
<text text-anchor="start" x="77.5" y="-53.3" font-family="Times,serif" font-size="14.00">Join %0 %1 (= #3 #14)</text>
<text text-anchor="start" x="77.5" y="-38.3" font-family="Times,serif" font-size="14.00"> implementation = Differential %1 %0.(#3)</text>
<text text-anchor="start" x="77.5" y="-23.3" font-family="Times,serif" font-size="14.00"> Map &quot;qgm(false)&quot;</text>
<text text-anchor="start" x="77.5" y="-8.3" font-family="Times,serif" font-size="14.00"> Project (#17, #0..#13, #3, #15, #16)</text>
</g>
<!-- node0&#45;&gt;node2 -->
<g id="edge1" class="edge">
<title>node0&#45;&gt;node2</title>
<path fill="none" stroke="black" d="M138.03,-120.37C152.92,-106.99 171.48,-90.32 188.19,-75.31"/>
<polygon fill="black" stroke="black" points="190.62,-77.83 195.72,-68.54 185.94,-72.62 190.62,-77.83"/>
<text text-anchor="start" x="175.5" y="-90.8" font-family="Times,serif" font-size="14.00">%0</text>
</g>
<!-- node1 -->
<g id="node2" class="node">
<title>node1</title>
<polygon fill="none" stroke="black" points="237,-128 237,-166 476,-166 476,-128 237,-128"/>
<text text-anchor="start" x="245" y="-150.8" font-family="Times,serif" font-size="14.00">Get tpch.public.customer (u20)</text>
<text text-anchor="start" x="245" y="-135.8" font-family="Times,serif" font-size="14.00"> Filter (123 = (#5 + #5))</text>
</g>
<!-- node1&#45;&gt;node2 -->
<g id="edge2" class="edge">
<title>node1&#45;&gt;node2</title>
<path fill="none" stroke="black" d="M336.02,-127.75C320.04,-113.51 297.25,-93.2 277.12,-75.26"/>
<polygon fill="black" stroke="black" points="279.35,-72.56 269.55,-68.52 274.69,-77.78 279.35,-72.56"/>
<text text-anchor="start" x="306.5" y="-90.8" font-family="Times,serif" font-size="14.00">%1</text>
</g>
</g>
</svg>
