<?xml version="1.0" encoding="UTF-8" standalone="no"?>
<!DOCTYPE svg PUBLIC "-//W3C//DTD SVG 1.1//EN"
 "http://www.w3.org/Graphics/SVG/1.1/DTD/svg11.dtd">
<!-- Generated by graphviz version 2.43.0 (0)
 -->
<!-- Title: G Pages: 1 -->
<svg width="484pt" height="165pt"
 viewBox="0.00 0.00 484.00 165.00" xmlns="http://www.w3.org/2000/svg" xmlns:xlink="http://www.w3.org/1999/xlink">
<g id="graph0" class="graph" transform="scale(1 1) rotate(0) translate(4 161)">
<title>G</title>
<polygon fill="white" stroke="transparent" points="-4,4 -4,-161 480,-161 480,4 -4,4"/>
<!-- node0 -->
<g id="node1" class="node">
<title>node0</title>
<polygon fill="none" stroke="black" points="0,-120.5 0,-156.5 219,-156.5 219,-120.5 0,-120.5"/>
<text text-anchor="start" x="8" y="-134.8" font-family="Times,serif" font-size="14.00">Get tpch.public.orders (u24)</text>
</g>
<!-- node2 -->
<g id="node3" class="node">
<title>node2</title>
<polygon fill="none" stroke="black" points="12.5,-0.5 12.5,-68.5 452.5,-68.5 452.5,-0.5 12.5,-0.5"/>
<text text-anchor="start" x="20.5" y="-53.3" font-family="Times,serif" font-size="14.00">FullOuterJoin %0 %1 on (#14 = #3)</text>
<text text-anchor="start" x="20.5" y="-38.3" font-family="Times,serif" font-size="14.00"> Filter (((#14 + #3) = i32tonumeric(123)) &amp;&amp; (#14 = #3))</text>
<text text-anchor="start" x="20.5" y="-23.3" font-family="Times,serif" font-size="14.00"> Map &quot;qgm(false)&quot;</text>
<text text-anchor="start" x="20.5" y="-8.3" font-family="Times,serif" font-size="14.00"> Project (#17, #0..#16)</text>
</g>
<!-- node0&#45;&gt;node2 -->
<g id="edge1" class="edge">
<title>node0&#45;&gt;node2</title>
<path fill="none" stroke="black" d="M130.09,-120.43C145.05,-108.02 165.94,-90.7 184.94,-74.94"/>
<polygon fill="black" stroke="black" points="187.21,-77.6 192.67,-68.53 182.74,-72.22 187.21,-77.6"/>
<text text-anchor="start" x="167.5" y="-90.8" font-family="Times,serif" font-size="14.00">%0</text>
</g>
<!-- node1 -->
<g id="node2" class="node">
<title>node1</title>
<polygon fill="none" stroke="black" points="237,-120.5 237,-156.5 476,-156.5 476,-120.5 237,-120.5"/>
<text text-anchor="start" x="245" y="-134.8" font-family="Times,serif" font-size="14.00">Get tpch.public.customer (u20)</text>
</g>
<!-- node1&#45;&gt;node2 -->
<g id="edge2" class="edge">
<title>node1&#45;&gt;node2</title>
<path fill="none" stroke="black" d="M335.75,-120.43C320.66,-108.02 299.6,-90.7 280.44,-74.94"/>
<polygon fill="black" stroke="black" points="282.6,-72.18 272.65,-68.53 278.15,-77.58 282.6,-72.18"/>
<text text-anchor="start" x="312.5" y="-90.8" font-family="Times,serif" font-size="14.00">%1</text>
</g>
</g>
</svg>
