<?xml version="1.0" encoding="UTF-8" standalone="no"?>
<!DOCTYPE svg PUBLIC "-//W3C//DTD SVG 1.1//EN"
 "http://www.w3.org/Graphics/SVG/1.1/DTD/svg11.dtd">
<!-- Generated by graphviz version 2.43.0 (0)
 -->
<!-- Title: G Pages: 1 -->
<svg width="2425pt" height="1562pt"
 viewBox="0.00 0.00 2424.50 1562.00" xmlns="http://www.w3.org/2000/svg" xmlns:xlink="http://www.w3.org/1999/xlink">
<g id="graph0" class="graph" transform="scale(1 1) rotate(0) translate(4 1558)">
<title>G</title>
<polygon fill="white" stroke="transparent" points="-4,4 -4,-1558 2420.5,-1558 2420.5,4 -4,4"/>
<!-- node0 -->
<g id="node1" class="node">
<title>node0</title>
<polygon fill="none" stroke="black" points="1340.5,-1485.5 1340.5,-1553.5 1441.5,-1553.5 1441.5,-1485.5 1340.5,-1485.5"/>
<text text-anchor="start" x="1348.5" y="-1538.3" font-family="Times,serif" font-size="14.00">Let l0 =</text>
<text text-anchor="start" x="1348.5" y="-1523.3" font-family="Times,serif" font-size="14.00"> Constant ()</text>
<text text-anchor="start" x="1348.5" y="-1508.3" font-family="Times,serif" font-size="14.00"> types = ()</text>
<text text-anchor="start" x="1348.5" y="-1493.3" font-family="Times,serif" font-size="14.00"> keys = (())</text>
</g>
<!-- node2 -->
<g id="node3" class="node">
<title>node2</title>
<polygon fill="none" stroke="black" points="625.5,-1350.5 625.5,-1433.5 1152.5,-1433.5 1152.5,-1350.5 625.5,-1350.5"/>
<text text-anchor="start" x="633.5" y="-1418.3" font-family="Times,serif" font-size="14.00">Let l1 =</text>
<text text-anchor="start" x="633.5" y="-1403.3" font-family="Times,serif" font-size="14.00"> Join %0 %1</text>
<text text-anchor="start" x="633.5" y="-1388.3" font-family="Times,serif" font-size="14.00"> implementation = Unimplemented</text>
<text text-anchor="start" x="633.5" y="-1373.3" font-family="Times,serif" font-size="14.00"> types = (integer?, integer, text, numeric, date, text, text, integer, text)</text>
<text text-anchor="start" x="633.5" y="-1358.3" font-family="Times,serif" font-size="14.00"> keys = ()</text>
</g>
<!-- node0&#45;&gt;node2 -->
<g id="edge2" class="edge">
<title>node0&#45;&gt;node2</title>
<path fill="none" stroke="black" d="M1340.1,-1505.78C1275.03,-1489.51 1159.04,-1460.51 1060.97,-1435.99"/>
<polygon fill="black" stroke="black" points="1061.79,-1432.59 1051.24,-1433.56 1060.09,-1439.38 1061.79,-1432.59"/>
<text text-anchor="start" x="1184" y="-1455.8" font-family="Times,serif" font-size="14.00">%0</text>
</g>
<!-- node4 -->
<g id="node5" class="node">
<title>node4</title>
<polygon fill="none" stroke="black" points="1544.5,-1350.5 1544.5,-1433.5 2009.5,-1433.5 2009.5,-1350.5 1544.5,-1350.5"/>
<text text-anchor="start" x="1552.5" y="-1418.3" font-family="Times,serif" font-size="14.00">Let l2 =</text>
<text text-anchor="start" x="1552.5" y="-1403.3" font-family="Times,serif" font-size="14.00"> Join %0 %3</text>
<text text-anchor="start" x="1552.5" y="-1388.3" font-family="Times,serif" font-size="14.00"> implementation = Unimplemented</text>
<text text-anchor="start" x="1552.5" y="-1373.3" font-family="Times,serif" font-size="14.00"> types = (integer?, text, text, integer, text, numeric, text, text)</text>
<text text-anchor="start" x="1552.5" y="-1358.3" font-family="Times,serif" font-size="14.00"> keys = ()</text>
</g>
<!-- node0&#45;&gt;node4 -->
<g id="edge9" class="edge">
<title>node0&#45;&gt;node4</title>
<path fill="none" stroke="black" d="M1441.86,-1501.96C1492.7,-1485.44 1573.05,-1459.31 1642.34,-1436.78"/>
<polygon fill="black" stroke="black" points="1643.61,-1440.05 1652.04,-1433.63 1641.45,-1433.39 1643.61,-1440.05"/>
<text text-anchor="start" x="1584" y="-1455.8" font-family="Times,serif" font-size="14.00">%0</text>
</g>
<!-- node1 -->
<g id="node2" class="node">
<title>node1</title>
<polygon fill="none" stroke="black" points="625.5,-1493 625.5,-1546 1152.5,-1546 1152.5,-1493 625.5,-1493"/>
<text text-anchor="start" x="633.5" y="-1530.8" font-family="Times,serif" font-size="14.00">Get tpch.public.orders (u24)</text>
<text text-anchor="start" x="633.5" y="-1515.8" font-family="Times,serif" font-size="14.00"> types = (integer?, integer, text, numeric, date, text, text, integer, text)</text>
<text text-anchor="start" x="633.5" y="-1500.8" font-family="Times,serif" font-size="14.00"> keys = ()</text>
</g>
<!-- node1&#45;&gt;node2 -->
<g id="edge6" class="edge">
<title>node1&#45;&gt;node2</title>
<path fill="none" stroke="black" d="M889,-1492.8C889,-1478.79 889,-1460.93 889,-1444.2"/>
<polygon fill="black" stroke="black" points="892.5,-1443.98 889,-1433.98 885.5,-1443.98 892.5,-1443.98"/>
<text text-anchor="start" x="889" y="-1455.8" font-family="Times,serif" font-size="14.00">%1</text>
</g>
<!-- node5 -->
<g id="node6" class="node">
<title>node5</title>
<polygon fill="none" stroke="black" points="770,-1125.5 770,-1298.5 1680,-1298.5 1680,-1125.5 770,-1125.5"/>
<text text-anchor="start" x="778" y="-1283.3" font-family="Times,serif" font-size="14.00">Let l3 =</text>
<text text-anchor="start" x="778" y="-1268.3" font-family="Times,serif" font-size="14.00"> Join %2 %4</text>
<text text-anchor="start" x="778" y="-1253.3" font-family="Times,serif" font-size="14.00"> implementation = Unimplemented</text>
<text text-anchor="start" x="778" y="-1238.3" font-family="Times,serif" font-size="14.00"> types = (integer?, integer, text, numeric, date, text, text, integer, text, integer?, text, text, integer, text, numeric, text, text)</text>
<text text-anchor="start" x="778" y="-1223.3" font-family="Times,serif" font-size="14.00"> keys = ()</text>
<text text-anchor="start" x="778" y="-1208.3" font-family="Times,serif" font-size="14.00"> Project (#0..#16)</text>
<text text-anchor="start" x="778" y="-1193.3" font-family="Times,serif" font-size="14.00"> types = (integer?, integer, text, numeric, date, text, text, integer, text, integer?, text, text, integer, text, numeric, text, text)</text>
<text text-anchor="start" x="778" y="-1178.3" font-family="Times,serif" font-size="14.00"> keys = ()</text>
<text text-anchor="start" x="778" y="-1163.3" font-family="Times,serif" font-size="14.00"> Filter (#14 = #3)</text>
<text text-anchor="start" x="778" y="-1148.3" font-family="Times,serif" font-size="14.00"> types = (integer?, integer, text, numeric, date, text, text, integer, text, integer?, text, text, integer, text, numeric, text, text)</text>
<text text-anchor="start" x="778" y="-1133.3" font-family="Times,serif" font-size="14.00"> keys = ()</text>
</g>
<!-- node2&#45;&gt;node5 -->
<g id="edge20" class="edge">
<title>node2&#45;&gt;node5</title>
<path fill="none" stroke="black" d="M965.66,-1350.39C992.19,-1336.33 1023.09,-1319.96 1054.12,-1303.53"/>
<polygon fill="black" stroke="black" points="1056.11,-1306.43 1063.31,-1298.66 1052.83,-1300.25 1056.11,-1306.43"/>
<text text-anchor="start" x="1026" y="-1320.8" font-family="Times,serif" font-size="14.00">%2</text>
</g>
<!-- node9 -->
<g id="node10" class="node">
<title>node9</title>
<polygon fill="none" stroke="black" points="360.5,-705.5 360.5,-863.5 955.5,-863.5 955.5,-705.5 360.5,-705.5"/>
<text text-anchor="start" x="368.5" y="-848.3" font-family="Times,serif" font-size="14.00">Join %2 %6 (= #3 #9)</text>
<text text-anchor="start" x="368.5" y="-833.3" font-family="Times,serif" font-size="14.00"> implementation = Unimplemented</text>
<text text-anchor="start" x="368.5" y="-818.3" font-family="Times,serif" font-size="14.00"> types = (integer?, integer, text, numeric, date, text, text, integer, text, numeric)</text>
<text text-anchor="start" x="368.5" y="-803.3" font-family="Times,serif" font-size="14.00"> keys = ()</text>
<text text-anchor="start" x="368.5" y="-788.3" font-family="Times,serif" font-size="14.00"> Project (#0..#8)</text>
<text text-anchor="start" x="368.5" y="-773.3" font-family="Times,serif" font-size="14.00"> types = (integer?, integer, text, numeric, date, text, text, integer, text)</text>
<text text-anchor="start" x="368.5" y="-758.3" font-family="Times,serif" font-size="14.00"> keys = ()</text>
<text text-anchor="start" x="368.5" y="-743.3" font-family="Times,serif" font-size="14.00"> Negate</text>
<text text-anchor="start" x="368.5" y="-728.3" font-family="Times,serif" font-size="14.00"> types = (integer?, integer, text, numeric, date, text, text, integer, text)</text>
<text text-anchor="start" x="368.5" y="-713.3" font-family="Times,serif" font-size="14.00"> keys = ()</text>
</g>
<!-- node2&#45;&gt;node9 -->
<g id="edge16" class="edge">
<title>node2&#45;&gt;node9</title>
<path fill="none" stroke="black" d="M812.84,-1350.29C793.26,-1336.43 774.05,-1319.24 761,-1299 676.62,-1168.16 659.04,-982.62 656.65,-874.09"/>
<polygon fill="black" stroke="black" points="660.14,-873.77 656.46,-863.83 653.14,-873.9 660.14,-873.77"/>
<text text-anchor="start" x="684" y="-1095.8" font-family="Times,serif" font-size="14.00">%2</text>
</g>
<!-- node10 -->
<g id="node11" class="node">
<title>node10</title>
<polygon fill="none" stroke="black" points="0,-533 0,-631 964,-631 964,-533 0,-533"/>
<text text-anchor="start" x="8" y="-615.8" font-family="Times,serif" font-size="14.00">Union %9 %2</text>
<text text-anchor="start" x="8" y="-600.8" font-family="Times,serif" font-size="14.00"> types = (integer?, integer, text, numeric, date, text, text, integer, text)</text>
<text text-anchor="start" x="8" y="-585.8" font-family="Times,serif" font-size="14.00"> keys = ()</text>
<text text-anchor="start" x="8" y="-570.8" font-family="Times,serif" font-size="14.00"> Map null, null, null, null, null, null, null, null</text>
<text text-anchor="start" x="8" y="-555.8" font-family="Times,serif" font-size="14.00"> types = (integer?, integer, text, numeric, date, text, text, integer, text, integer?, text?, text?, integer?, text?, numeric?, text?, text?)</text>
<text text-anchor="start" x="8" y="-540.8" font-family="Times,serif" font-size="14.00"> keys = ()</text>
</g>
<!-- node2&#45;&gt;node10 -->
<g id="edge15" class="edge">
<title>node2&#45;&gt;node10</title>
<path fill="none" stroke="black" d="M625.18,-1353.65C481.21,-1325.58 332,-1280.26 332,-1213 332,-1213 332,-1213 332,-783.5 332,-747.6 332.88,-735.99 351,-705 365.67,-679.92 387.09,-656.89 408.38,-637.76"/>
<polygon fill="black" stroke="black" points="410.69,-640.39 415.89,-631.16 406.07,-635.13 410.69,-640.39"/>
<text text-anchor="start" x="332" y="-990.8" font-family="Times,serif" font-size="14.00">%2</text>
</g>
<!-- node3 -->
<g id="node4" class="node">
<title>node3</title>
<polygon fill="none" stroke="black" points="1544.5,-1493 1544.5,-1546 2009.5,-1546 2009.5,-1493 1544.5,-1493"/>
<text text-anchor="start" x="1552.5" y="-1530.8" font-family="Times,serif" font-size="14.00">Get tpch.public.customer (u20)</text>
<text text-anchor="start" x="1552.5" y="-1515.8" font-family="Times,serif" font-size="14.00"> types = (integer?, text, text, integer, text, numeric, text, text)</text>
<text text-anchor="start" x="1552.5" y="-1500.8" font-family="Times,serif" font-size="14.00"> keys = ()</text>
</g>
<!-- node3&#45;&gt;node4 -->
<g id="edge14" class="edge">
<title>node3&#45;&gt;node4</title>
<path fill="none" stroke="black" d="M1777,-1492.8C1777,-1478.79 1777,-1460.93 1777,-1444.2"/>
<polygon fill="black" stroke="black" points="1780.5,-1443.98 1777,-1433.98 1773.5,-1443.98 1780.5,-1443.98"/>
<text text-anchor="start" x="1777" y="-1455.8" font-family="Times,serif" font-size="14.00">%3</text>
</g>
<!-- node4&#45;&gt;node5 -->
<g id="edge8" class="edge">
<title>node4&#45;&gt;node5</title>
<path fill="none" stroke="black" d="M1651.4,-1350.5C1606.08,-1335.88 1552.97,-1318.76 1499.92,-1301.65"/>
<polygon fill="black" stroke="black" points="1500.96,-1298.31 1490.36,-1298.57 1498.81,-1304.97 1500.96,-1298.31"/>
<text text-anchor="start" x="1582" y="-1320.8" font-family="Times,serif" font-size="14.00">%4</text>
</g>
<!-- node7 -->
<g id="node8" class="node">
<title>node7</title>
<polygon fill="none" stroke="black" points="1883.5,-705.5 1883.5,-863.5 2416.5,-863.5 2416.5,-705.5 1883.5,-705.5"/>
<text text-anchor="start" x="1891.5" y="-848.3" font-family="Times,serif" font-size="14.00">Join %4 %6 (= #5 #8)</text>
<text text-anchor="start" x="1891.5" y="-833.3" font-family="Times,serif" font-size="14.00"> implementation = Unimplemented</text>
<text text-anchor="start" x="1891.5" y="-818.3" font-family="Times,serif" font-size="14.00"> types = (integer?, text, text, integer, text, numeric, text, text, numeric)</text>
<text text-anchor="start" x="1891.5" y="-803.3" font-family="Times,serif" font-size="14.00"> keys = ()</text>
<text text-anchor="start" x="1891.5" y="-788.3" font-family="Times,serif" font-size="14.00"> Project (#0..#7)</text>
<text text-anchor="start" x="1891.5" y="-773.3" font-family="Times,serif" font-size="14.00"> types = (integer?, text, text, integer, text, numeric, text, text)</text>
<text text-anchor="start" x="1891.5" y="-758.3" font-family="Times,serif" font-size="14.00"> keys = ()</text>
<text text-anchor="start" x="1891.5" y="-743.3" font-family="Times,serif" font-size="14.00"> Negate</text>
<text text-anchor="start" x="1891.5" y="-728.3" font-family="Times,serif" font-size="14.00"> types = (integer?, text, text, integer, text, numeric, text, text)</text>
<text text-anchor="start" x="1891.5" y="-713.3" font-family="Times,serif" font-size="14.00"> keys = ()</text>
</g>
<!-- node4&#45;&gt;node7 -->
<g id="edge19" class="edge">
<title>node4&#45;&gt;node7</title>
<path fill="none" stroke="black" d="M1848.84,-1350.43C1856.1,-1344.76 1863,-1338.6 1869,-1332 1994.63,-1193.78 2079.85,-989.01 2121.18,-873.36"/>
<polygon fill="black" stroke="black" points="2124.52,-874.42 2124.56,-863.83 2117.92,-872.08 2124.52,-874.42"/>
<text text-anchor="start" x="2025" y="-1095.8" font-family="Times,serif" font-size="14.00">%4</text>
</g>
<!-- node8 -->
<g id="node9" class="node">
<title>node8</title>
<polygon fill="none" stroke="black" points="1368.5,-510.5 1368.5,-653.5 2341.5,-653.5 2341.5,-510.5 1368.5,-510.5"/>
<text text-anchor="start" x="1376.5" y="-638.3" font-family="Times,serif" font-size="14.00">Union %7 %4</text>
<text text-anchor="start" x="1376.5" y="-623.3" font-family="Times,serif" font-size="14.00"> types = (integer?, text, text, integer, text, numeric, text, text)</text>
<text text-anchor="start" x="1376.5" y="-608.3" font-family="Times,serif" font-size="14.00"> keys = ()</text>
<text text-anchor="start" x="1376.5" y="-593.3" font-family="Times,serif" font-size="14.00"> Map null, null, null, null, null, null, null, null, null</text>
<text text-anchor="start" x="1376.5" y="-578.3" font-family="Times,serif" font-size="14.00"> types = (integer?, text, text, integer, text, numeric, text, text, integer?, integer?, text?, numeric?, date?, text?, text?, integer?, text?)</text>
<text text-anchor="start" x="1376.5" y="-563.3" font-family="Times,serif" font-size="14.00"> keys = ()</text>
<text text-anchor="start" x="1376.5" y="-548.3" font-family="Times,serif" font-size="14.00"> Project (#8..#16, #0..#7)</text>
<text text-anchor="start" x="1376.5" y="-533.3" font-family="Times,serif" font-size="14.00"> types = (integer?, integer?, text?, numeric?, date?, text?, text?, integer?, text?, integer?, text, text, integer, text, numeric, text, text)</text>
<text text-anchor="start" x="1376.5" y="-518.3" font-family="Times,serif" font-size="14.00"> keys = ()</text>
</g>
<!-- node4&#45;&gt;node8 -->
<g id="edge12" class="edge">
<title>node4&#45;&gt;node8</title>
<path fill="none" stroke="black" d="M1806.27,-1350.4C1828.4,-1315.67 1855,-1263.44 1855,-1213 1855,-1213 1855,-1213 1855,-783.5 1855,-744.05 1855,-700.23 1855,-663.64"/>
<polygon fill="black" stroke="black" points="1858.5,-663.52 1855,-653.52 1851.5,-663.52 1858.5,-663.52"/>
<text text-anchor="start" x="1855" y="-990.8" font-family="Times,serif" font-size="14.00">%4</text>
</g>
<!-- node6 -->
<g id="node7" class="node">
<title>node6</title>
<polygon fill="none" stroke="black" points="909,-915.5 909,-1073.5 1819,-1073.5 1819,-915.5 909,-915.5"/>
<text text-anchor="start" x="917" y="-1058.3" font-family="Times,serif" font-size="14.00">Let l4 =</text>
<text text-anchor="start" x="917" y="-1043.3" font-family="Times,serif" font-size="14.00"> Get %5 (l3)</text>
<text text-anchor="start" x="917" y="-1028.3" font-family="Times,serif" font-size="14.00"> types = (integer?, integer, text, numeric, date, text, text, integer, text, integer?, text, text, integer, text, numeric, text, text)</text>
<text text-anchor="start" x="917" y="-1013.3" font-family="Times,serif" font-size="14.00"> keys = ()</text>
<text text-anchor="start" x="917" y="-998.3" font-family="Times,serif" font-size="14.00"> Project (#3)</text>
<text text-anchor="start" x="917" y="-983.3" font-family="Times,serif" font-size="14.00"> types = (numeric)</text>
<text text-anchor="start" x="917" y="-968.3" font-family="Times,serif" font-size="14.00"> keys = ()</text>
<text text-anchor="start" x="917" y="-953.3" font-family="Times,serif" font-size="14.00"> Distinct group=(#0)</text>
<text text-anchor="start" x="917" y="-938.3" font-family="Times,serif" font-size="14.00"> types = (numeric)</text>
<text text-anchor="start" x="917" y="-923.3" font-family="Times,serif" font-size="14.00"> keys = ((#0))</text>
</g>
<!-- node5&#45;&gt;node6 -->
<g id="edge18" class="edge">
<title>node5&#45;&gt;node6</title>
<path fill="none" stroke="black" d="M1280.34,-1125.21C1289.43,-1111.12 1298.86,-1096.5 1307.96,-1082.38"/>
<polygon fill="black" stroke="black" points="1311.11,-1083.96 1313.59,-1073.66 1305.23,-1080.17 1311.11,-1083.96"/>
<text text-anchor="start" x="1298" y="-1095.8" font-family="Times,serif" font-size="14.00">%5</text>
</g>
<!-- node11 -->
<g id="node12" class="node">
<title>node11</title>
<polygon fill="none" stroke="black" points="510,-405.5 510,-458.5 1474,-458.5 1474,-405.5 510,-405.5"/>
<text text-anchor="start" x="518" y="-443.3" font-family="Times,serif" font-size="14.00">Union %10 %5</text>
<text text-anchor="start" x="518" y="-428.3" font-family="Times,serif" font-size="14.00"> types = (integer?, integer, text, numeric, date, text, text, integer, text, integer?, text?, text?, integer?, text?, numeric?, text?, text?)</text>
<text text-anchor="start" x="518" y="-413.3" font-family="Times,serif" font-size="14.00"> keys = ()</text>
</g>
<!-- node5&#45;&gt;node11 -->
<g id="edge13" class="edge">
<title>node5&#45;&gt;node11</title>
<path fill="none" stroke="black" d="M948.8,-1125.46C929.93,-1110.91 913.21,-1093.9 900,-1074 860.92,-1015.12 869.33,-978.66 900,-915 915.79,-882.23 947.16,-896.24 964,-864 1032.81,-732.29 1011.86,-546.21 998.89,-468.87"/>
<polygon fill="black" stroke="black" points="1002.28,-467.95 997.12,-458.7 995.39,-469.15 1002.28,-467.95"/>
<text text-anchor="start" x="1009" y="-780.8" font-family="Times,serif" font-size="14.00">%5</text>
</g>
<!-- node6&#45;&gt;node7 -->
<g id="edge7" class="edge">
<title>node6&#45;&gt;node7</title>
<path fill="none" stroke="black" d="M1658.91,-915.46C1729.22,-896.85 1804.01,-877.06 1873.46,-858.68"/>
<polygon fill="black" stroke="black" points="1874.45,-862.04 1883.22,-856.1 1872.66,-855.27 1874.45,-862.04"/>
<text text-anchor="start" x="1780" y="-885.8" font-family="Times,serif" font-size="14.00">%6</text>
</g>
<!-- node6&#45;&gt;node9 -->
<g id="edge17" class="edge">
<title>node6&#45;&gt;node9</title>
<path fill="none" stroke="black" d="M1099.1,-915.46C1044.75,-899.44 987.42,-882.55 932.73,-866.44"/>
<polygon fill="black" stroke="black" points="933.5,-863.02 922.91,-863.55 931.52,-869.73 933.5,-863.02"/>
<text text-anchor="start" x="1032" y="-885.8" font-family="Times,serif" font-size="14.00">%6</text>
</g>
<!-- node7&#45;&gt;node8 -->
<g id="edge11" class="edge">
<title>node7&#45;&gt;node8</title>
<path fill="none" stroke="black" d="M2035.1,-705.41C2012.87,-690.29 1989.59,-674.48 1967.43,-659.42"/>
<polygon fill="black" stroke="black" points="1969.24,-656.41 1959,-653.69 1965.31,-662.2 1969.24,-656.41"/>
<text text-anchor="start" x="2002" y="-675.8" font-family="Times,serif" font-size="14.00">%7</text>
</g>
<!-- node12 -->
<g id="node13" class="node">
<title>node12</title>
<polygon fill="none" stroke="black" points="817.5,-240.5 817.5,-353.5 1844.5,-353.5 1844.5,-240.5 817.5,-240.5"/>
<text text-anchor="start" x="825.5" y="-338.3" font-family="Times,serif" font-size="14.00">Let l5 =</text>
<text text-anchor="start" x="825.5" y="-323.3" font-family="Times,serif" font-size="14.00"> Union %8 %11</text>
<text text-anchor="start" x="825.5" y="-308.3" font-family="Times,serif" font-size="14.00"> types = (integer?, integer?, text?, numeric?, date?, text?, text?, integer?, text?, integer?, text?, text?, integer?, text?, numeric?, text?, text?)</text>
<text text-anchor="start" x="825.5" y="-293.3" font-family="Times,serif" font-size="14.00"> keys = ()</text>
<text text-anchor="start" x="825.5" y="-278.3" font-family="Times,serif" font-size="14.00"> Filter (((#14 + #3) = i32tonumeric(123)) &amp;&amp; (#14 = #3))</text>
<text text-anchor="start" x="825.5" y="-263.3" font-family="Times,serif" font-size="14.00"> types = (integer?, integer?, text?, numeric?, date?, text?, text?, integer?, text?, integer?, text?, text?, integer?, text?, numeric?, text?, text?)</text>
<text text-anchor="start" x="825.5" y="-248.3" font-family="Times,serif" font-size="14.00"> keys = ()</text>
</g>
<!-- node8&#45;&gt;node12 -->
<g id="edge4" class="edge">
<title>node8&#45;&gt;node12</title>
<path fill="none" stroke="black" d="M1724.46,-510.5C1637.89,-463.75 1525.48,-403.03 1442.99,-358.48"/>
<polygon fill="black" stroke="black" points="1444.55,-355.35 1434.09,-353.68 1441.23,-361.51 1444.55,-355.35"/>
<text text-anchor="start" x="1627" y="-428.3" font-family="Times,serif" font-size="14.00">%8</text>
</g>
<!-- node9&#45;&gt;node10 -->
<g id="edge1" class="edge">
<title>node9&#45;&gt;node10</title>
<path fill="none" stroke="black" d="M589.45,-705.41C569.94,-683.18 549.08,-659.42 530.98,-638.8"/>
<polygon fill="black" stroke="black" points="533.42,-636.27 524.19,-631.06 528.16,-640.89 533.42,-636.27"/>
<text text-anchor="start" x="570" y="-675.8" font-family="Times,serif" font-size="14.00">%9</text>
</g>
<!-- node10&#45;&gt;node11 -->
<g id="edge3" class="edge">
<title>node10&#45;&gt;node11</title>
<path fill="none" stroke="black" d="M647.58,-532.95C729.11,-509.29 824.61,-481.58 894.34,-461.34"/>
<polygon fill="black" stroke="black" points="895.37,-464.69 904,-458.54 893.42,-457.96 895.37,-464.69"/>
<text text-anchor="start" x="828" y="-480.8" font-family="Times,serif" font-size="14.00">%10</text>
</g>
<!-- node11&#45;&gt;node12 -->
<g id="edge10" class="edge">
<title>node11&#45;&gt;node12</title>
<path fill="none" stroke="black" d="M1057.36,-405.36C1092.32,-391.64 1136.92,-374.15 1179.92,-357.27"/>
<polygon fill="black" stroke="black" points="1181.32,-360.48 1189.35,-353.57 1178.76,-353.97 1181.32,-360.48"/>
<text text-anchor="start" x="1141" y="-375.8" font-family="Times,serif" font-size="14.00">%11</text>
</g>
<!-- node13 -->
<g id="node14" class="node">
<title>node13</title>
<polygon fill="none" stroke="black" points="799,-0.5 799,-188.5 1863,-188.5 1863,-0.5 799,-0.5"/>
<text text-anchor="start" x="807" y="-173.3" font-family="Times,serif" font-size="14.00">Get %12 (l5)</text>
<text text-anchor="start" x="807" y="-158.3" font-family="Times,serif" font-size="14.00"> types = (integer?, integer?, text?, numeric?, date?, text?, text?, integer?, text?, integer?, text?, text?, integer?, text?, numeric?, text?, text?)</text>
<text text-anchor="start" x="807" y="-143.3" font-family="Times,serif" font-size="14.00"> keys = ()</text>
<text text-anchor="start" x="807" y="-128.3" font-family="Times,serif" font-size="14.00"> Map &quot;qgm(false)&quot;</text>
<text text-anchor="start" x="807" y="-113.3" font-family="Times,serif" font-size="14.00"> types = (integer?, integer?, text?, numeric?, date?, text?, text?, integer?, text?, integer?, text?, text?, integer?, text?, numeric?, text?, text?, text)</text>
<text text-anchor="start" x="807" y="-98.3" font-family="Times,serif" font-size="14.00"> keys = ()</text>
<text text-anchor="start" x="807" y="-83.3" font-family="Times,serif" font-size="14.00"> Project (#0..#17)</text>
<text text-anchor="start" x="807" y="-68.3" font-family="Times,serif" font-size="14.00"> types = (integer?, integer?, text?, numeric?, date?, text?, text?, integer?, text?, integer?, text?, text?, integer?, text?, numeric?, text?, text?, text)</text>
<text text-anchor="start" x="807" y="-53.3" font-family="Times,serif" font-size="14.00"> keys = ()</text>
<text text-anchor="start" x="807" y="-38.3" font-family="Times,serif" font-size="14.00"> Project (#17, #0..#16)</text>
<text text-anchor="start" x="807" y="-23.3" font-family="Times,serif" font-size="14.00"> types = (text, integer?, integer?, text?, numeric?, date?, text?, text?, integer?, text?, integer?, text?, text?, integer?, text?, numeric?, text?, text?)</text>
<text text-anchor="start" x="807" y="-8.3" font-family="Times,serif" font-size="14.00"> keys = ()</text>
</g>
<!-- node12&#45;&gt;node13 -->
<g id="edge5" class="edge">
<title>node12&#45;&gt;node13</title>
<path fill="none" stroke="black" d="M1331,-240.42C1331,-227.45 1331,-213.24 1331,-198.94"/>
<polygon fill="black" stroke="black" points="1334.5,-198.52 1331,-188.52 1327.5,-198.52 1334.5,-198.52"/>
<text text-anchor="start" x="1331" y="-210.8" font-family="Times,serif" font-size="14.00">%12</text>
</g>
</g>
</svg>
