<?xml version="1.0" encoding="UTF-8" standalone="no"?>
<!DOCTYPE svg PUBLIC "-//W3C//DTD SVG 1.1//EN"
 "http://www.w3.org/Graphics/SVG/1.1/DTD/svg11.dtd">
<!-- Generated by graphviz version 2.43.0 (0)
 -->
<!-- Title: G Pages: 1 -->
<svg width="1277pt" height="1426pt"
 viewBox="0.00 0.00 1276.50 1426.00" xmlns="http://www.w3.org/2000/svg" xmlns:xlink="http://www.w3.org/1999/xlink">
<g id="graph0" class="graph" transform="scale(1 1) rotate(0) translate(4 1422)">
<title>G</title>
<polygon fill="white" stroke="transparent" points="-4,4 -4,-1422 1272.5,-1422 1272.5,4 -4,4"/>
<!-- node0 -->
<g id="node1" class="node">
<title>node0</title>
<polygon fill="none" stroke="black" points="515,-1379.5 515,-1417.5 616,-1417.5 616,-1379.5 515,-1379.5"/>
<text text-anchor="start" x="523" y="-1402.3" font-family="Times,serif" font-size="14.00">Let l0 =</text>
<text text-anchor="start" x="523" y="-1387.3" font-family="Times,serif" font-size="14.00"> Constant ()</text>
</g>
<!-- node2 -->
<g id="node3" class="node">
<title>node2</title>
<polygon fill="none" stroke="black" points="861,-1274.5 861,-1327.5 1130,-1327.5 1130,-1274.5 861,-1274.5"/>
<text text-anchor="start" x="869" y="-1312.3" font-family="Times,serif" font-size="14.00">Let l1 =</text>
<text text-anchor="start" x="869" y="-1297.3" font-family="Times,serif" font-size="14.00"> Join %0 %1</text>
<text text-anchor="start" x="869" y="-1282.3" font-family="Times,serif" font-size="14.00"> implementation = Unimplemented</text>
</g>
<!-- node0&#45;&gt;node2 -->
<g id="edge1" class="edge">
<title>node0&#45;&gt;node2</title>
<path fill="none" stroke="black" d="M612.02,-1379.41C642.24,-1368.29 682.71,-1354.58 719.5,-1346 774.23,-1333.23 791.3,-1336.83 850.71,-1328.05"/>
<polygon fill="black" stroke="black" points="851.27,-1331.51 860.63,-1326.53 850.21,-1324.59 851.27,-1331.51"/>
<text text-anchor="start" x="719.5" y="-1349.8" font-family="Times,serif" font-size="14.00">%0</text>
</g>
<!-- node4 -->
<g id="node5" class="node">
<title>node4</title>
<polygon fill="none" stroke="black" points="574,-1274.5 574,-1327.5 843,-1327.5 843,-1274.5 574,-1274.5"/>
<text text-anchor="start" x="582" y="-1312.3" font-family="Times,serif" font-size="14.00">Let l2 =</text>
<text text-anchor="start" x="582" y="-1297.3" font-family="Times,serif" font-size="14.00"> Join %0 %3</text>
<text text-anchor="start" x="582" y="-1282.3" font-family="Times,serif" font-size="14.00"> implementation = Unimplemented</text>
</g>
<!-- node0&#45;&gt;node4 -->
<g id="edge16" class="edge">
<title>node0&#45;&gt;node4</title>
<path fill="none" stroke="black" d="M587.6,-1379.35C600.41,-1369.12 617.02,-1356.37 632.5,-1346 639.09,-1341.59 646.14,-1337.15 653.2,-1332.88"/>
<polygon fill="black" stroke="black" points="655.3,-1335.7 662.09,-1327.58 651.71,-1329.69 655.3,-1335.7"/>
<text text-anchor="start" x="632.5" y="-1349.8" font-family="Times,serif" font-size="14.00">%0</text>
</g>
<!-- node14 -->
<g id="node15" class="node">
<title>node14</title>
<polygon fill="none" stroke="black" points="287,-1274.5 287,-1327.5 556,-1327.5 556,-1274.5 287,-1274.5"/>
<text text-anchor="start" x="295" y="-1312.3" font-family="Times,serif" font-size="14.00">Let l5 =</text>
<text text-anchor="start" x="295" y="-1297.3" font-family="Times,serif" font-size="14.00"> Join %0 %13</text>
<text text-anchor="start" x="295" y="-1282.3" font-family="Times,serif" font-size="14.00"> implementation = Unimplemented</text>
</g>
<!-- node0&#45;&gt;node14 -->
<g id="edge3" class="edge">
<title>node0&#45;&gt;node14</title>
<path fill="none" stroke="black" d="M538.08,-1379.31C518.47,-1366.31 491.59,-1348.48 468.58,-1333.22"/>
<polygon fill="black" stroke="black" points="470.24,-1330.12 459.97,-1327.51 466.37,-1335.96 470.24,-1330.12"/>
<text text-anchor="start" x="506.5" y="-1349.8" font-family="Times,serif" font-size="14.00">%0</text>
</g>
<!-- node1 -->
<g id="node2" class="node">
<title>node1</title>
<polygon fill="none" stroke="black" points="960.5,-1380.5 960.5,-1416.5 1268.5,-1416.5 1268.5,-1380.5 960.5,-1380.5"/>
<text text-anchor="start" x="968.5" y="-1394.8" font-family="Times,serif" font-size="14.00">Get simplify_outer_joins.public.t1 (u101)</text>
</g>
<!-- node1&#45;&gt;node2 -->
<g id="edge2" class="edge">
<title>node1&#45;&gt;node2</title>
<path fill="none" stroke="black" d="M1093.23,-1380.43C1077.13,-1367.51 1054.55,-1349.39 1035.15,-1333.82"/>
<polygon fill="black" stroke="black" points="1037.33,-1331.08 1027.34,-1327.55 1032.95,-1336.54 1037.33,-1331.08"/>
<text text-anchor="start" x="1066.5" y="-1349.8" font-family="Times,serif" font-size="14.00">%1</text>
</g>
<!-- node5 -->
<g id="node6" class="node">
<title>node5</title>
<polygon fill="none" stroke="black" points="579,-1139.5 579,-1222.5 848,-1222.5 848,-1139.5 579,-1139.5"/>
<text text-anchor="start" x="587" y="-1207.3" font-family="Times,serif" font-size="14.00">Let l3 =</text>
<text text-anchor="start" x="587" y="-1192.3" font-family="Times,serif" font-size="14.00"> Join %2 %4</text>
<text text-anchor="start" x="587" y="-1177.3" font-family="Times,serif" font-size="14.00"> implementation = Unimplemented</text>
<text text-anchor="start" x="587" y="-1162.3" font-family="Times,serif" font-size="14.00"> Project (#0..=#3)</text>
<text text-anchor="start" x="587" y="-1147.3" font-family="Times,serif" font-size="14.00"> Filter (true &amp;&amp; (#0 = #2))</text>
</g>
<!-- node2&#45;&gt;node5 -->
<g id="edge9" class="edge">
<title>node2&#45;&gt;node5</title>
<path fill="none" stroke="black" d="M895.67,-1274.45C878.37,-1269.03 860.73,-1262.84 844.5,-1256 825.37,-1247.94 805.48,-1237.74 787.16,-1227.52"/>
<polygon fill="black" stroke="black" points="788.73,-1224.39 778.3,-1222.51 785.29,-1230.48 788.73,-1224.39"/>
<text text-anchor="start" x="844.5" y="-1244.8" font-family="Times,serif" font-size="14.00">%2</text>
</g>
<!-- node7 -->
<g id="node8" class="node">
<title>node7</title>
<polygon fill="none" stroke="black" points="897,-1082.5 897,-1120.5 1094,-1120.5 1094,-1082.5 897,-1082.5"/>
<text text-anchor="start" x="905" y="-1105.3" font-family="Times,serif" font-size="14.00">Get %2 (l1)</text>
<text text-anchor="start" x="905" y="-1090.3" font-family="Times,serif" font-size="14.00"> Distinct group=(#0, #1)</text>
</g>
<!-- node2&#45;&gt;node7 -->
<g id="edge6" class="edge">
<title>node2&#45;&gt;node7</title>
<path fill="none" stroke="black" d="M995.5,-1274.18C995.5,-1237.26 995.5,-1169.59 995.5,-1131.16"/>
<polygon fill="black" stroke="black" points="999,-1130.69 995.5,-1120.69 992,-1130.69 999,-1130.69"/>
<text text-anchor="start" x="995.5" y="-1244.8" font-family="Times,serif" font-size="14.00">%2</text>
</g>
<!-- node9 -->
<g id="node10" class="node">
<title>node9</title>
<polygon fill="none" stroke="black" points="747,-817.5 747,-870.5 1016,-870.5 1016,-817.5 747,-817.5"/>
<text text-anchor="start" x="755" y="-855.3" font-family="Times,serif" font-size="14.00">Join %8 %2 (= #0 #2) (= #1 #3)</text>
<text text-anchor="start" x="755" y="-840.3" font-family="Times,serif" font-size="14.00"> implementation = Unimplemented</text>
<text text-anchor="start" x="755" y="-825.3" font-family="Times,serif" font-size="14.00"> Project (#0, #1)</text>
</g>
<!-- node2&#45;&gt;node9 -->
<g id="edge8" class="edge">
<title>node2&#45;&gt;node9</title>
<path fill="none" stroke="black" d="M947.48,-1274.49C916.33,-1254.11 881.5,-1222.31 881.5,-1182 881.5,-1182 881.5,-1182 881.5,-939.5 881.5,-920.21 881.5,-898.7 881.5,-881.08"/>
<polygon fill="black" stroke="black" points="885,-880.67 881.5,-870.67 878,-880.67 885,-880.67"/>
<text text-anchor="start" x="881.5" y="-1033.3" font-family="Times,serif" font-size="14.00">%2</text>
</g>
<!-- node3 -->
<g id="node4" class="node">
<title>node3</title>
<polygon fill="none" stroke="black" points="634.5,-1380.5 634.5,-1416.5 942.5,-1416.5 942.5,-1380.5 634.5,-1380.5"/>
<text text-anchor="start" x="642.5" y="-1394.8" font-family="Times,serif" font-size="14.00">Get simplify_outer_joins.public.t1 (u101)</text>
</g>
<!-- node3&#45;&gt;node4 -->
<g id="edge19" class="edge">
<title>node3&#45;&gt;node4</title>
<path fill="none" stroke="black" d="M774.2,-1380.43C763.71,-1367.91 749.14,-1350.51 736.38,-1335.28"/>
<polygon fill="black" stroke="black" points="739.01,-1332.97 729.91,-1327.55 733.65,-1337.47 739.01,-1332.97"/>
<text text-anchor="start" x="756.5" y="-1349.8" font-family="Times,serif" font-size="14.00">%3</text>
</g>
<!-- node4&#45;&gt;node5 -->
<g id="edge22" class="edge">
<title>node4&#45;&gt;node5</title>
<path fill="none" stroke="black" d="M709.58,-1274.4C710.1,-1262.29 710.73,-1247.38 711.33,-1233.1"/>
<polygon fill="black" stroke="black" points="714.84,-1233 711.77,-1222.86 707.85,-1232.71 714.84,-1233"/>
<text text-anchor="start" x="711.5" y="-1244.8" font-family="Times,serif" font-size="14.00">%4</text>
</g>
<!-- node6 -->
<g id="node7" class="node">
<title>node6</title>
<polygon fill="none" stroke="black" points="648,-1010.5 648,-1063.5 845,-1063.5 845,-1010.5 648,-1010.5"/>
<text text-anchor="start" x="656" y="-1048.3" font-family="Times,serif" font-size="14.00">Get %5 (l3)</text>
<text text-anchor="start" x="656" y="-1033.3" font-family="Times,serif" font-size="14.00"> Distinct group=(#0, #1)</text>
<text text-anchor="start" x="656" y="-1018.3" font-family="Times,serif" font-size="14.00"> Negate</text>
</g>
<!-- node5&#45;&gt;node6 -->
<g id="edge15" class="edge">
<title>node5&#45;&gt;node6</title>
<path fill="none" stroke="black" d="M722.96,-1139.31C727.79,-1118.51 733.62,-1093.44 738.26,-1073.45"/>
<polygon fill="black" stroke="black" points="741.72,-1074.03 740.57,-1063.5 734.9,-1072.45 741.72,-1074.03"/>
<text text-anchor="start" x="736.5" y="-1097.8" font-family="Times,serif" font-size="14.00">%5</text>
</g>
<!-- node12 -->
<g id="node13" class="node">
<title>node12</title>
<polygon fill="none" stroke="black" points="556,-637.5 556,-675.5 683,-675.5 683,-637.5 556,-637.5"/>
<text text-anchor="start" x="564" y="-660.3" font-family="Times,serif" font-size="14.00">Let l4 =</text>
<text text-anchor="start" x="564" y="-645.3" font-family="Times,serif" font-size="14.00"> Union %5 %11</text>
</g>
<!-- node5&#45;&gt;node12 -->
<g id="edge12" class="edge">
<title>node5&#45;&gt;node12</title>
<path fill="none" stroke="black" d="M668.43,-1139.5C644.3,-1113.28 619.5,-1076.88 619.5,-1038 619.5,-1038 619.5,-1038 619.5,-745.5 619.5,-725.7 619.5,-703.39 619.5,-686.19"/>
<polygon fill="black" stroke="black" points="623,-685.7 619.5,-675.7 616,-685.7 623,-685.7"/>
<text text-anchor="start" x="619.5" y="-892.8" font-family="Times,serif" font-size="14.00">%5</text>
</g>
<!-- node8 -->
<g id="node9" class="node">
<title>node8</title>
<polygon fill="none" stroke="black" points="910,-922.5 910,-958.5 1023,-958.5 1023,-922.5 910,-922.5"/>
<text text-anchor="start" x="918" y="-936.8" font-family="Times,serif" font-size="14.00">Union %6 %7</text>
</g>
<!-- node6&#45;&gt;node8 -->
<g id="edge7" class="edge">
<title>node6&#45;&gt;node8</title>
<path fill="none" stroke="black" d="M806.04,-1010.43C840.9,-995.45 884.39,-976.77 917.3,-962.63"/>
<polygon fill="black" stroke="black" points="918.91,-965.75 926.72,-958.59 916.15,-959.32 918.91,-965.75"/>
<text text-anchor="start" x="883.5" y="-980.8" font-family="Times,serif" font-size="14.00">%6</text>
</g>
<!-- node7&#45;&gt;node8 -->
<g id="edge30" class="edge">
<title>node7&#45;&gt;node8</title>
<path fill="none" stroke="black" d="M992.17,-1082.26C987.09,-1054.41 977.37,-1001.12 971.46,-968.69"/>
<polygon fill="black" stroke="black" points="974.85,-967.77 969.61,-958.56 967.96,-969.03 974.85,-967.77"/>
<text text-anchor="start" x="989.5" y="-1033.3" font-family="Times,serif" font-size="14.00">%7</text>
</g>
<!-- node8&#45;&gt;node9 -->
<g id="edge21" class="edge">
<title>node8&#45;&gt;node9</title>
<path fill="none" stroke="black" d="M950.91,-922.17C939.89,-909.92 924.77,-893.11 911.46,-878.3"/>
<polygon fill="black" stroke="black" points="913.98,-875.87 904.69,-870.78 908.77,-880.56 913.98,-875.87"/>
<text text-anchor="start" x="934.5" y="-892.8" font-family="Times,serif" font-size="14.00">%8</text>
</g>
<!-- node11 -->
<g id="node12" class="node">
<title>node11</title>
<polygon fill="none" stroke="black" points="747,-727.5 747,-765.5 1016,-765.5 1016,-727.5 747,-727.5"/>
<text text-anchor="start" x="755" y="-750.3" font-family="Times,serif" font-size="14.00">Join %9 %10</text>
<text text-anchor="start" x="755" y="-735.3" font-family="Times,serif" font-size="14.00"> implementation = Unimplemented</text>
</g>
<!-- node9&#45;&gt;node11 -->
<g id="edge14" class="edge">
<title>node9&#45;&gt;node11</title>
<path fill="none" stroke="black" d="M881.5,-817.41C881.5,-804.63 881.5,-789.13 881.5,-775.98"/>
<polygon fill="black" stroke="black" points="885,-775.6 881.5,-765.6 878,-775.6 885,-775.6"/>
<text text-anchor="start" x="881.5" y="-787.8" font-family="Times,serif" font-size="14.00">%9</text>
</g>
<!-- node10 -->
<g id="node11" class="node">
<title>node10</title>
<polygon fill="none" stroke="black" points="1034,-826 1034,-862 1193,-862 1193,-826 1034,-826"/>
<text text-anchor="start" x="1042" y="-840.3" font-family="Times,serif" font-size="14.00">Constant (null, null)</text>
</g>
<!-- node10&#45;&gt;node11 -->
<g id="edge27" class="edge">
<title>node10&#45;&gt;node11</title>
<path fill="none" stroke="black" d="M1072.02,-825.93C1033.69,-810.15 976.54,-786.62 934.83,-769.45"/>
<polygon fill="black" stroke="black" points="935.96,-766.13 925.38,-765.56 933.29,-772.6 935.96,-766.13"/>
<text text-anchor="start" x="1004.5" y="-787.8" font-family="Times,serif" font-size="14.00">%10</text>
</g>
<!-- node11&#45;&gt;node12 -->
<g id="edge11" class="edge">
<title>node11&#45;&gt;node12</title>
<path fill="none" stroke="black" d="M827.85,-727.48C785.87,-713.38 727.37,-693.73 683.05,-678.84"/>
<polygon fill="black" stroke="black" points="684.12,-675.51 673.53,-675.65 681.89,-682.15 684.12,-675.51"/>
<text text-anchor="start" x="766.5" y="-697.8" font-family="Times,serif" font-size="14.00">%11</text>
</g>
<!-- node15 -->
<g id="node16" class="node">
<title>node15</title>
<polygon fill="none" stroke="black" points="311,-502.5 311,-585.5 580,-585.5 580,-502.5 311,-502.5"/>
<text text-anchor="start" x="319" y="-570.3" font-family="Times,serif" font-size="14.00">Let l6 =</text>
<text text-anchor="start" x="319" y="-555.3" font-family="Times,serif" font-size="14.00"> Join %12 %14</text>
<text text-anchor="start" x="319" y="-540.3" font-family="Times,serif" font-size="14.00"> implementation = Unimplemented</text>
<text text-anchor="start" x="319" y="-525.3" font-family="Times,serif" font-size="14.00"> Project (#0..=#5)</text>
<text text-anchor="start" x="319" y="-510.3" font-family="Times,serif" font-size="14.00"> Filter true</text>
</g>
<!-- node12&#45;&gt;node15 -->
<g id="edge13" class="edge">
<title>node12&#45;&gt;node15</title>
<path fill="none" stroke="black" d="M590.77,-637.25C570.91,-624.64 543.55,-607.27 517.93,-591"/>
<polygon fill="black" stroke="black" points="519.64,-587.94 509.32,-585.53 515.89,-593.85 519.64,-587.94"/>
<text text-anchor="start" x="558.5" y="-607.8" font-family="Times,serif" font-size="14.00">%12</text>
</g>
<!-- node17 -->
<g id="node18" class="node">
<title>node17</title>
<polygon fill="none" stroke="black" points="489,-445.5 489,-483.5 746,-483.5 746,-445.5 489,-445.5"/>
<text text-anchor="start" x="497" y="-468.3" font-family="Times,serif" font-size="14.00">Get %12 (l4)</text>
<text text-anchor="start" x="497" y="-453.3" font-family="Times,serif" font-size="14.00"> Distinct group=(#0, #1, #2, #3)</text>
</g>
<!-- node12&#45;&gt;node17 -->
<g id="edge29" class="edge">
<title>node12&#45;&gt;node17</title>
<path fill="none" stroke="black" d="M619.31,-637.28C618.96,-604.02 618.21,-533.23 617.8,-493.7"/>
<polygon fill="black" stroke="black" points="621.3,-493.63 617.69,-483.66 614.3,-493.7 621.3,-493.63"/>
<text text-anchor="start" x="619.5" y="-607.8" font-family="Times,serif" font-size="14.00">%12</text>
</g>
<!-- node19 -->
<g id="node20" class="node">
<title>node19</title>
<polygon fill="none" stroke="black" points="523.5,-180.5 523.5,-233.5 951.5,-233.5 951.5,-180.5 523.5,-180.5"/>
<text text-anchor="start" x="531.5" y="-218.3" font-family="Times,serif" font-size="14.00">Join %18 %12 (= #0 #4) (= #1 #5) (= #2 #6) (= #3 #7)</text>
<text text-anchor="start" x="531.5" y="-203.3" font-family="Times,serif" font-size="14.00"> implementation = Unimplemented</text>
<text text-anchor="start" x="531.5" y="-188.3" font-family="Times,serif" font-size="14.00"> Project (#0..=#3)</text>
</g>
<!-- node12&#45;&gt;node19 -->
<g id="edge28" class="edge">
<title>node12&#45;&gt;node19</title>
<path fill="none" stroke="black" d="M674.81,-637.44C714.68,-620.54 761.5,-590.92 761.5,-545 761.5,-545 761.5,-545 761.5,-302.5 761.5,-282.55 756.41,-260.94 750.92,-243.42"/>
<polygon fill="black" stroke="black" points="754.14,-242.02 747.68,-233.63 747.5,-244.22 754.14,-242.02"/>
<text text-anchor="start" x="761.5" y="-396.3" font-family="Times,serif" font-size="14.00">%12</text>
</g>
<!-- node13 -->
<g id="node14" class="node">
<title>node13</title>
<polygon fill="none" stroke="black" points="188.5,-1380.5 188.5,-1416.5 496.5,-1416.5 496.5,-1380.5 188.5,-1380.5"/>
<text text-anchor="start" x="196.5" y="-1394.8" font-family="Times,serif" font-size="14.00">Get simplify_outer_joins.public.t2 (u103)</text>
</g>
<!-- node13&#45;&gt;node14 -->
<g id="edge25" class="edge">
<title>node13&#45;&gt;node14</title>
<path fill="none" stroke="black" d="M356.62,-1380.43C366.98,-1367.91 381.37,-1350.51 393.97,-1335.28"/>
<polygon fill="black" stroke="black" points="396.68,-1337.49 400.36,-1327.55 391.29,-1333.03 396.68,-1337.49"/>
<text text-anchor="start" x="384.5" y="-1349.8" font-family="Times,serif" font-size="14.00">%13</text>
</g>
<!-- node14&#45;&gt;node15 -->
<g id="edge4" class="edge">
<title>node14&#45;&gt;node15</title>
<path fill="none" stroke="black" d="M427.01,-1274.35C431.63,-1250.54 437.5,-1214.04 437.5,-1182 437.5,-1182 437.5,-1182 437.5,-655.5 437.5,-635.94 438.76,-614.49 440.28,-595.74"/>
<polygon fill="black" stroke="black" points="443.78,-595.88 441.15,-585.62 436.81,-595.29 443.78,-595.88"/>
<text text-anchor="start" x="437.5" y="-892.8" font-family="Times,serif" font-size="14.00">%14</text>
</g>
<!-- node16 -->
<g id="node17" class="node">
<title>node16</title>
<polygon fill="none" stroke="black" points="348,-373.5 348,-426.5 605,-426.5 605,-373.5 348,-373.5"/>
<text text-anchor="start" x="356" y="-411.3" font-family="Times,serif" font-size="14.00">Get %15 (l6)</text>
<text text-anchor="start" x="356" y="-396.3" font-family="Times,serif" font-size="14.00"> Distinct group=(#0, #1, #2, #3)</text>
<text text-anchor="start" x="356" y="-381.3" font-family="Times,serif" font-size="14.00"> Negate</text>
</g>
<!-- node15&#45;&gt;node16 -->
<g id="edge18" class="edge">
<title>node15&#45;&gt;node16</title>
<path fill="none" stroke="black" d="M441.31,-502.14C440.75,-484.23 441.84,-463.2 447.5,-445 448.48,-441.86 449.75,-438.72 451.23,-435.67"/>
<polygon fill="black" stroke="black" points="454.37,-437.22 456.12,-426.77 448.24,-433.84 454.37,-437.22"/>
<text text-anchor="start" x="447.5" y="-460.8" font-family="Times,serif" font-size="14.00">%15</text>
</g>
<!-- node22 -->
<g id="node23" class="node">
<title>node22</title>
<polygon fill="none" stroke="black" points="0,-0.5 0,-38.5 671,-38.5 671,-0.5 0,-0.5"/>
<text text-anchor="start" x="8" y="-23.3" font-family="Times,serif" font-size="14.00">Union %15 %21</text>
<text text-anchor="start" x="8" y="-8.3" font-family="Times,serif" font-size="14.00"> Filter (((((#0 = #2) &amp;&amp; (#3 = #0)) &amp;&amp; (#2 = #1)) &amp;&amp; (#2 &lt; #1)) &amp;&amp; (#3 = i32tof64(5)))</text>
</g>
<!-- node15&#45;&gt;node22 -->
<g id="edge24" class="edge">
<title>node15&#45;&gt;node22</title>
<path fill="none" stroke="black" d="M381.02,-502.46C350.02,-477.58 319.5,-442.53 319.5,-401 319.5,-401 319.5,-401 319.5,-108.5 319.5,-88.18 323.68,-65.65 327.77,-48.47"/>
<polygon fill="black" stroke="black" points="331.22,-49.08 330.26,-38.53 324.43,-47.38 331.22,-49.08"/>
<text text-anchor="start" x="319.5" y="-255.8" font-family="Times,serif" font-size="14.00">%15</text>
</g>
<!-- node18 -->
<g id="node19" class="node">
<title>node18</title>
<polygon fill="none" stroke="black" points="576,-285.5 576,-321.5 707,-321.5 707,-285.5 576,-285.5"/>
<text text-anchor="start" x="584" y="-299.8" font-family="Times,serif" font-size="14.00">Union %16 %17</text>
</g>
<!-- node16&#45;&gt;node18 -->
<g id="edge20" class="edge">
<title>node16&#45;&gt;node18</title>
<path fill="none" stroke="black" d="M521.15,-373.43C546.62,-358.84 578.24,-340.73 602.68,-326.73"/>
<polygon fill="black" stroke="black" points="604.73,-329.59 611.67,-321.59 601.25,-323.52 604.73,-329.59"/>
<text text-anchor="start" x="579.5" y="-343.8" font-family="Times,serif" font-size="14.00">%16</text>
</g>
<!-- node17&#45;&gt;node18 -->
<g id="edge26" class="edge">
<title>node17&#45;&gt;node18</title>
<path fill="none" stroke="black" d="M620.25,-445.26C624.46,-417.41 632.5,-364.12 637.4,-331.69"/>
<polygon fill="black" stroke="black" points="640.89,-331.97 638.92,-321.56 633.97,-330.93 640.89,-331.97"/>
<text text-anchor="start" x="631.5" y="-396.3" font-family="Times,serif" font-size="14.00">%17</text>
</g>
<!-- node18&#45;&gt;node19 -->
<g id="edge23" class="edge">
<title>node18&#45;&gt;node19</title>
<path fill="none" stroke="black" d="M659.11,-285.17C671.67,-272.8 688.94,-255.8 704.08,-240.9"/>
<polygon fill="black" stroke="black" points="706.64,-243.29 711.31,-233.78 701.73,-238.3 706.64,-243.29"/>
<text text-anchor="start" x="692.5" y="-255.8" font-family="Times,serif" font-size="14.00">%18</text>
</g>
<!-- node21 -->
<g id="node22" class="node">
<title>node21</title>
<polygon fill="none" stroke="black" points="348,-90.5 348,-128.5 617,-128.5 617,-90.5 348,-90.5"/>
<text text-anchor="start" x="356" y="-113.3" font-family="Times,serif" font-size="14.00">Join %19 %20</text>
<text text-anchor="start" x="356" y="-98.3" font-family="Times,serif" font-size="14.00"> implementation = Unimplemented</text>
</g>
<!-- node19&#45;&gt;node21 -->
<g id="edge17" class="edge">
<title>node19&#45;&gt;node21</title>
<path fill="none" stroke="black" d="M669.16,-180.41C628.91,-165.33 578.54,-146.47 540.27,-132.14"/>
<polygon fill="black" stroke="black" points="541.41,-128.83 530.82,-128.6 538.96,-135.38 541.41,-128.83"/>
<text text-anchor="start" x="618.5" y="-150.8" font-family="Times,serif" font-size="14.00">%19</text>
</g>
<!-- node20 -->
<g id="node21" class="node">
<title>node20</title>
<polygon fill="none" stroke="black" points="347,-189 347,-225 506,-225 506,-189 347,-189"/>
<text text-anchor="start" x="355" y="-203.3" font-family="Times,serif" font-size="14.00">Constant (null, null)</text>
</g>
<!-- node20&#45;&gt;node21 -->
<g id="edge10" class="edge">
<title>node20&#45;&gt;node21</title>
<path fill="none" stroke="black" d="M436.51,-188.93C444.9,-174.62 457.02,-153.95 466.72,-137.42"/>
<polygon fill="black" stroke="black" points="469.77,-139.12 471.81,-128.73 463.73,-135.58 469.77,-139.12"/>
<text text-anchor="start" x="460.5" y="-150.8" font-family="Times,serif" font-size="14.00">%20</text>
</g>
<!-- node21&#45;&gt;node22 -->
<g id="edge5" class="edge">
<title>node21&#45;&gt;node22</title>
<path fill="none" stroke="black" d="M452.4,-90.48C429.88,-77 398.9,-58.45 374.48,-43.84"/>
<polygon fill="black" stroke="black" points="376.19,-40.78 365.81,-38.65 372.6,-46.79 376.19,-40.78"/>
<text text-anchor="start" x="418.5" y="-60.8" font-family="Times,serif" font-size="14.00">%21</text>
</g>
</g>
</svg>
