<?xml version="1.0" encoding="UTF-8" standalone="no"?>
<!DOCTYPE svg PUBLIC "-//W3C//DTD SVG 1.1//EN"
 "http://www.w3.org/Graphics/SVG/1.1/DTD/svg11.dtd">
<!-- Generated by graphviz version 2.43.0 (0)
 -->
<!-- Title: G Pages: 1 -->
<svg width="1492pt" height="783pt"
 viewBox="0.00 0.00 1492.00 783.00" xmlns="http://www.w3.org/2000/svg" xmlns:xlink="http://www.w3.org/1999/xlink">
<g id="graph0" class="graph" transform="scale(1 1) rotate(0) translate(4 779)">
<title>G</title>
<polygon fill="white" stroke="transparent" points="-4,4 -4,-779 1488,-779 1488,4 -4,4"/>
<g id="clust1" class="cluster">
<title>cluster4</title>
<polygon fill="none" stroke="black" points="536,-543 536,-767 1476,-767 1476,-543 536,-543"/>
<text text-anchor="middle" x="586.5" y="-751.8" font-family="Times,serif" font-size="14.00">Box4:Select</text>
</g>
<g id="clust3" class="cluster">
<title>cluster0</title>
<polygon fill="none" stroke="black" points="316,-311 316,-535 662,-535 662,-311 316,-311"/>
<text text-anchor="middle" x="378.5" y="-519.8" font-family="Times,serif" font-size="14.00">Box0:OuterJoin</text>
</g>
<g id="clust5" class="cluster">
<title>cluster1</title>
<polygon fill="none" stroke="black" points="8,-125 8,-303 420,-303 420,-125 8,-125"/>
<text text-anchor="middle" x="70.5" y="-287.8" font-family="Times,serif" font-size="14.00">Box1:OuterJoin</text>
</g>
<g id="clust7" class="cluster">
<title>cluster2</title>
<polygon fill="none" stroke="black" points="27,-8 27,-117 189,-117 189,-8 27,-8"/>
<text text-anchor="middle" x="68.5" y="-101.8" font-family="Times,serif" font-size="14.00">Box2:Get</text>
</g>
<g id="clust9" class="cluster">
<title>cluster3</title>
<polygon fill="none" stroke="black" points="428,-159.5 428,-268.5 590,-268.5 590,-159.5 428,-159.5"/>
<text text-anchor="middle" x="469.5" y="-253.3" font-family="Times,serif" font-size="14.00">Box3:Get</text>
</g>
<!-- boxhead4 -->
<g id="node1" class="node">
<title>boxhead4</title>
<polygon fill="none" stroke="black" points="636,-551.5 636,-735.5 1468,-735.5 1468,-551.5 636,-551.5"/>
<text text-anchor="middle" x="1052" y="-720.3" font-family="Times,serif" font-size="14.00">Distinct: Preserve</text>
<polyline fill="none" stroke="black" points="636,-712.5 1468,-712.5 "/>
<text text-anchor="middle" x="1052" y="-697.3" font-family="Times,serif" font-size="14.00">0: Q4.C0</text>
<polyline fill="none" stroke="black" points="636,-689.5 1468,-689.5 "/>
<text text-anchor="middle" x="1052" y="-674.3" font-family="Times,serif" font-size="14.00">1: Q4.C1</text>
<polyline fill="none" stroke="black" points="636,-666.5 1468,-666.5 "/>
<text text-anchor="middle" x="1052" y="-651.3" font-family="Times,serif" font-size="14.00">2: Q4.C2</text>
<polyline fill="none" stroke="black" points="636,-643.5 1468,-643.5 "/>
<text text-anchor="middle" x="1052" y="-628.3" font-family="Times,serif" font-size="14.00">3: Q4.C3</text>
<polyline fill="none" stroke="black" points="636,-620.5 1468,-620.5 "/>
<text text-anchor="middle" x="1052" y="-605.3" font-family="Times,serif" font-size="14.00">4: Q4.C4</text>
<polyline fill="none" stroke="black" points="636,-597.5 1468,-597.5 "/>
<text text-anchor="middle" x="1052" y="-582.3" font-family="Times,serif" font-size="14.00">5: Q4.C5</text>
<polyline fill="none" stroke="black" points="636,-574.5 1468,-574.5 "/>
<text text-anchor="middle" x="1052" y="-559.3" font-family="Times,serif" font-size="14.00">(((((Q4.C0 = Q4.C2) &amp;&amp; (Q4.C3 = Q4.C0)) &amp;&amp; (Q4.C2 = Q4.C1)) &amp;&amp; (Q4.C2 &lt; Q4.C1)) &amp;&amp; (Q4.C3 = i32tof64(5)))</text>
</g>
<!-- Q4 -->
<g id="node2" class="node">
<title>Q4</title>
<ellipse fill="none" stroke="black" cx="581" cy="-643.5" rx="37.09" ry="37.09"/>
<text text-anchor="middle" x="581" y="-639.8" font-family="Times,serif" font-size="14.00">Q4(F)</text>
</g>
<!-- boxhead0 -->
<g id="node3" class="node">
<title>boxhead0</title>
<polygon fill="none" stroke="black" points="508,-319.5 508,-503.5 654,-503.5 654,-319.5 508,-319.5"/>
<text text-anchor="middle" x="581" y="-488.3" font-family="Times,serif" font-size="14.00">Distinct: Preserve</text>
<polyline fill="none" stroke="black" points="508,-480.5 654,-480.5 "/>
<text text-anchor="middle" x="581" y="-465.3" font-family="Times,serif" font-size="14.00">0: Q2.C0</text>
<polyline fill="none" stroke="black" points="508,-457.5 654,-457.5 "/>
<text text-anchor="middle" x="581" y="-442.3" font-family="Times,serif" font-size="14.00">1: Q2.C1</text>
<polyline fill="none" stroke="black" points="508,-434.5 654,-434.5 "/>
<text text-anchor="middle" x="581" y="-419.3" font-family="Times,serif" font-size="14.00">2: Q2.C2</text>
<polyline fill="none" stroke="black" points="508,-411.5 654,-411.5 "/>
<text text-anchor="middle" x="581" y="-396.3" font-family="Times,serif" font-size="14.00">3: Q2.C3</text>
<polyline fill="none" stroke="black" points="508,-388.5 654,-388.5 "/>
<text text-anchor="middle" x="581" y="-373.3" font-family="Times,serif" font-size="14.00">4: Q3.C0</text>
<polyline fill="none" stroke="black" points="508,-365.5 654,-365.5 "/>
<text text-anchor="middle" x="581" y="-350.3" font-family="Times,serif" font-size="14.00">5: Q3.C1</text>
<polyline fill="none" stroke="black" points="508,-342.5 654,-342.5 "/>
<text text-anchor="middle" x="581" y="-327.3" font-family="Times,serif" font-size="14.00">true</text>
</g>
<!-- Q4&#45;&gt;boxhead0 -->
<g id="edge1" class="edge">
<title>Q4&#45;&gt;boxhead0</title>
<path fill="none" stroke="black" stroke-dasharray="5,2" d="M581,-606.31C581,-586.66 581,-561.09 581,-535"/>
</g>
<!-- Q2 -->
<g id="node4" class="node">
<title>Q2</title>
<ellipse fill="none" stroke="black" cx="361" cy="-411.5" rx="37.09" ry="37.09"/>
<text text-anchor="middle" x="361" y="-407.8" font-family="Times,serif" font-size="14.00">Q2(P)</text>
</g>
<!-- boxhead1 -->
<g id="node6" class="node">
<title>boxhead1</title>
<polygon fill="none" stroke="black" points="200,-133.5 200,-271.5 412,-271.5 412,-133.5 200,-133.5"/>
<text text-anchor="middle" x="306" y="-256.3" font-family="Times,serif" font-size="14.00">Distinct: Preserve</text>
<polyline fill="none" stroke="black" points="200,-248.5 412,-248.5 "/>
<text text-anchor="middle" x="306" y="-233.3" font-family="Times,serif" font-size="14.00">0: Q0.C0</text>
<polyline fill="none" stroke="black" points="200,-225.5 412,-225.5 "/>
<text text-anchor="middle" x="306" y="-210.3" font-family="Times,serif" font-size="14.00">1: Q0.C1</text>
<polyline fill="none" stroke="black" points="200,-202.5 412,-202.5 "/>
<text text-anchor="middle" x="306" y="-187.3" font-family="Times,serif" font-size="14.00">2: Q1.C0</text>
<polyline fill="none" stroke="black" points="200,-179.5 412,-179.5 "/>
<text text-anchor="middle" x="306" y="-164.3" font-family="Times,serif" font-size="14.00">3: Q1.C1</text>
<polyline fill="none" stroke="black" points="200,-156.5 412,-156.5 "/>
<text text-anchor="middle" x="306" y="-141.3" font-family="Times,serif" font-size="14.00">(true &amp;&amp; (Q0.C0 = Q1.C0))</text>
</g>
<!-- Q2&#45;&gt;boxhead1 -->
<g id="edge2" class="edge">
<title>Q2&#45;&gt;boxhead1</title>
<path fill="none" stroke="black" stroke-dasharray="5,2" d="M351.67,-375.39C346.33,-355.29 339.34,-328.98 332.44,-303"/>
</g>
<!-- Q3 -->
<g id="node5" class="node">
<title>Q3</title>
<ellipse fill="none" stroke="black" cx="453" cy="-411.5" rx="37.09" ry="37.09"/>
<text text-anchor="middle" x="453" y="-407.8" font-family="Times,serif" font-size="14.00">Q3(F)</text>
</g>
<!-- boxhead3 -->
<g id="node10" class="node">
<title>boxhead3</title>
<polygon fill="none" stroke="black" points="436,-168 436,-237 582,-237 582,-168 436,-168"/>
<text text-anchor="middle" x="509" y="-221.8" font-family="Times,serif" font-size="14.00">Distinct: Preserve</text>
<polyline fill="none" stroke="black" points="436,-214 582,-214 "/>
<text text-anchor="middle" x="509" y="-198.8" font-family="Times,serif" font-size="14.00">0: C0</text>
<polyline fill="none" stroke="black" points="436,-191 582,-191 "/>
<text text-anchor="middle" x="509" y="-175.8" font-family="Times,serif" font-size="14.00">1: C1</text>
</g>
<!-- Q3&#45;&gt;boxhead3 -->
<g id="edge3" class="edge">
<title>Q3&#45;&gt;boxhead3</title>
<path fill="none" stroke="black" stroke-dasharray="5,2" d="M462.5,-375.39C470.4,-346.19 481.85,-303.85 491.42,-268.5"/>
</g>
<!-- Q0 -->
<g id="node7" class="node">
<title>Q0</title>
<ellipse fill="none" stroke="black" cx="145" cy="-202.5" rx="37.09" ry="37.09"/>
<text text-anchor="middle" x="145" y="-198.8" font-family="Times,serif" font-size="14.00">Q0(P)</text>
</g>
<!-- boxhead2 -->
<g id="node9" class="node">
<title>boxhead2</title>
<polygon fill="none" stroke="black" points="35,-16.5 35,-85.5 181,-85.5 181,-16.5 35,-16.5"/>
<text text-anchor="middle" x="108" y="-70.3" font-family="Times,serif" font-size="14.00">Distinct: Preserve</text>
<polyline fill="none" stroke="black" points="35,-62.5 181,-62.5 "/>
<text text-anchor="middle" x="108" y="-47.3" font-family="Times,serif" font-size="14.00">0: C0</text>
<polyline fill="none" stroke="black" points="35,-39.5 181,-39.5 "/>
<text text-anchor="middle" x="108" y="-24.3" font-family="Times,serif" font-size="14.00">1: C1</text>
</g>
<!-- Q0&#45;&gt;boxhead2 -->
<g id="edge4" class="edge">
<title>Q0&#45;&gt;boxhead2</title>
<path fill="none" stroke="black" stroke-dasharray="5,2" d="M136.33,-166.45C132.67,-151.68 128.29,-134 124.09,-117"/>
</g>
<!-- Q1 -->
<g id="node8" class="node">
<title>Q1</title>
<ellipse fill="none" stroke="black" cx="53" cy="-202.5" rx="37.09" ry="37.09"/>
<text text-anchor="middle" x="53" y="-198.8" font-family="Times,serif" font-size="14.00">Q1(F)</text>
</g>
<!-- Q1&#45;&gt;boxhead2 -->
<g id="edge5" class="edge">
<title>Q1&#45;&gt;boxhead2</title>
<path fill="none" stroke="black" stroke-dasharray="5,2" d="M65.48,-167.58C71,-152.58 77.67,-134.43 84.09,-117"/>
</g>
</g>
</svg>
