<?xml version="1.0" encoding="UTF-8" standalone="no"?>
<!DOCTYPE svg PUBLIC "-//W3C//DTD SVG 1.1//EN"
 "http://www.w3.org/Graphics/SVG/1.1/DTD/svg11.dtd">
<!-- Generated by graphviz version 2.43.0 (0)
 -->
<!-- Title: G Pages: 1 -->
<svg width="1541pt" height="783pt"
 viewBox="0.00 0.00 1541.00 783.00" xmlns="http://www.w3.org/2000/svg" xmlns:xlink="http://www.w3.org/1999/xlink">
<g id="graph0" class="graph" transform="scale(1 1) rotate(0) translate(4 779)">
<title>G</title>
<polygon fill="white" stroke="transparent" points="-4,4 -4,-779 1537,-779 1537,4 -4,4"/>
<g id="clust1" class="cluster">
<title>cluster4</title>
<polygon fill="none" stroke="black" points="585,-543 585,-767 1525,-767 1525,-543 585,-543"/>
<text text-anchor="middle" x="635.5" y="-751.8" font-family="Times,serif" font-size="14.00">Box4:Select</text>
</g>
<g id="clust3" class="cluster">
<title>cluster0</title>
<polygon fill="none" stroke="black" points="328,-311 328,-535 748,-535 748,-311 328,-311"/>
<text text-anchor="middle" x="390.5" y="-519.8" font-family="Times,serif" font-size="14.00">Box0:OuterJoin</text>
</g>
<g id="clust5" class="cluster">
<title>cluster1</title>
<polygon fill="none" stroke="black" points="8,-125 8,-303 420,-303 420,-125 8,-125"/>
<text text-anchor="middle" x="58.5" y="-287.8" font-family="Times,serif" font-size="14.00">Box1:Select</text>
</g>
<g id="clust7" class="cluster">
<title>cluster2</title>
<polygon fill="none" stroke="black" points="9,-8 9,-117 219,-117 219,-8 9,-8"/>
<text text-anchor="middle" x="50.5" y="-101.8" font-family="Times,serif" font-size="14.00">Box2:Get</text>
</g>
<g id="clust9" class="cluster">
<title>cluster3</title>
<polygon fill="none" stroke="black" points="428,-159.5 428,-268.5 638,-268.5 638,-159.5 428,-159.5"/>
<text text-anchor="middle" x="469.5" y="-253.3" font-family="Times,serif" font-size="14.00">Box3:Get</text>
</g>
<!-- boxhead4 -->
<g id="node1" class="node">
<title>boxhead4</title>
<polygon fill="none" stroke="black" points="685,-551.5 685,-735.5 1517,-735.5 1517,-551.5 685,-551.5"/>
<text text-anchor="middle" x="1101" y="-720.3" font-family="Times,serif" font-size="14.00">Distinct: Preserve</text>
<polyline fill="none" stroke="black" points="685,-712.5 1517,-712.5 "/>
<text text-anchor="middle" x="1101" y="-697.3" font-family="Times,serif" font-size="14.00">0: double precision (Q4.C0)</text>
<polyline fill="none" stroke="black" points="685,-689.5 1517,-689.5 "/>
<text text-anchor="middle" x="1101" y="-674.3" font-family="Times,serif" font-size="14.00">1: double precision (Q4.C1)</text>
<polyline fill="none" stroke="black" points="685,-666.5 1517,-666.5 "/>
<text text-anchor="middle" x="1101" y="-651.3" font-family="Times,serif" font-size="14.00">2: double precision (Q4.C2)</text>
<polyline fill="none" stroke="black" points="685,-643.5 1517,-643.5 "/>
<text text-anchor="middle" x="1101" y="-628.3" font-family="Times,serif" font-size="14.00">3: double precision (Q4.C3)</text>
<polyline fill="none" stroke="black" points="685,-620.5 1517,-620.5 "/>
<text text-anchor="middle" x="1101" y="-605.3" font-family="Times,serif" font-size="14.00">4: double precision? (Q4.C4)</text>
<polyline fill="none" stroke="black" points="685,-597.5 1517,-597.5 "/>
<text text-anchor="middle" x="1101" y="-582.3" font-family="Times,serif" font-size="14.00">5: double precision? (Q4.C5)</text>
<polyline fill="none" stroke="black" points="685,-574.5 1517,-574.5 "/>
<text text-anchor="middle" x="1101" y="-559.3" font-family="Times,serif" font-size="14.00">(((((Q4.C0 = Q4.C2) &amp;&amp; (Q4.C3 = Q4.C0)) &amp;&amp; (Q4.C2 = Q4.C1)) &amp;&amp; (Q4.C2 &lt; Q4.C1)) &amp;&amp; (Q4.C3 = i32tof64(5)))</text>
</g>
<!-- Q4 -->
<g id="node2" class="node">
<title>Q4</title>
<ellipse fill="none" stroke="black" cx="630" cy="-643.5" rx="37.09" ry="37.09"/>
<text text-anchor="middle" x="630" y="-639.8" font-family="Times,serif" font-size="14.00">Q4(F)</text>
</g>
<!-- boxhead0 -->
<g id="node3" class="node">
<title>boxhead0</title>
<polygon fill="none" stroke="black" points="520.5,-319.5 520.5,-503.5 739.5,-503.5 739.5,-319.5 520.5,-319.5"/>
<text text-anchor="middle" x="630" y="-488.3" font-family="Times,serif" font-size="14.00">Distinct: Preserve</text>
<polyline fill="none" stroke="black" points="520.5,-480.5 739.5,-480.5 "/>
<text text-anchor="middle" x="630" y="-465.3" font-family="Times,serif" font-size="14.00">0: double precision (Q2.C0)</text>
<polyline fill="none" stroke="black" points="520.5,-457.5 739.5,-457.5 "/>
<text text-anchor="middle" x="630" y="-442.3" font-family="Times,serif" font-size="14.00">1: double precision (Q2.C1)</text>
<polyline fill="none" stroke="black" points="520.5,-434.5 739.5,-434.5 "/>
<text text-anchor="middle" x="630" y="-419.3" font-family="Times,serif" font-size="14.00">2: double precision (Q2.C2)</text>
<polyline fill="none" stroke="black" points="520.5,-411.5 739.5,-411.5 "/>
<text text-anchor="middle" x="630" y="-396.3" font-family="Times,serif" font-size="14.00">3: double precision (Q2.C3)</text>
<polyline fill="none" stroke="black" points="520.5,-388.5 739.5,-388.5 "/>
<text text-anchor="middle" x="630" y="-373.3" font-family="Times,serif" font-size="14.00">4: double precision? (Q3.C0)</text>
<polyline fill="none" stroke="black" points="520.5,-365.5 739.5,-365.5 "/>
<text text-anchor="middle" x="630" y="-350.3" font-family="Times,serif" font-size="14.00">5: double precision? (Q3.C1)</text>
<polyline fill="none" stroke="black" points="520.5,-342.5 739.5,-342.5 "/>
<text text-anchor="middle" x="630" y="-327.3" font-family="Times,serif" font-size="14.00">true</text>
</g>
<!-- Q4&#45;&gt;boxhead0 -->
<g id="edge1" class="edge">
<title>Q4&#45;&gt;boxhead0</title>
<path fill="none" stroke="black" stroke-dasharray="5,2" d="M630,-606.31C630,-586.66 630,-561.09 630,-535"/>
</g>
<!-- Q2 -->
<g id="node4" class="node">
<title>Q2</title>
<ellipse fill="none" stroke="black" cx="373" cy="-411.5" rx="37.09" ry="37.09"/>
<text text-anchor="middle" x="373" y="-407.8" font-family="Times,serif" font-size="14.00">Q2(P)</text>
</g>
<!-- boxhead1 -->
<g id="node6" class="node">
<title>boxhead1</title>
<polygon fill="none" stroke="black" points="200,-133.5 200,-271.5 412,-271.5 412,-133.5 200,-133.5"/>
<text text-anchor="middle" x="306" y="-256.3" font-family="Times,serif" font-size="14.00">Distinct: Preserve</text>
<polyline fill="none" stroke="black" points="200,-248.5 412,-248.5 "/>
<text text-anchor="middle" x="306" y="-233.3" font-family="Times,serif" font-size="14.00">0: double precision (Q0.C0)</text>
<polyline fill="none" stroke="black" points="200,-225.5 412,-225.5 "/>
<text text-anchor="middle" x="306" y="-210.3" font-family="Times,serif" font-size="14.00">1: double precision (Q0.C1)</text>
<polyline fill="none" stroke="black" points="200,-202.5 412,-202.5 "/>
<text text-anchor="middle" x="306" y="-187.3" font-family="Times,serif" font-size="14.00">2: double precision (Q1.C0)</text>
<polyline fill="none" stroke="black" points="200,-179.5 412,-179.5 "/>
<text text-anchor="middle" x="306" y="-164.3" font-family="Times,serif" font-size="14.00">3: double precision (Q1.C1)</text>
<polyline fill="none" stroke="black" points="200,-156.5 412,-156.5 "/>
<text text-anchor="middle" x="306" y="-141.3" font-family="Times,serif" font-size="14.00">(true &amp;&amp; (Q0.C0 = Q1.C0))</text>
</g>
<!-- Q2&#45;&gt;boxhead1 -->
<g id="edge2" class="edge">
<title>Q2&#45;&gt;boxhead1</title>
<path fill="none" stroke="black" stroke-dasharray="5,2" d="M361.79,-375.85C355.26,-355.7 346.68,-329.18 338.2,-303"/>
</g>
<!-- Q3 -->
<g id="node5" class="node">
<title>Q3</title>
<ellipse fill="none" stroke="black" cx="465" cy="-411.5" rx="37.09" ry="37.09"/>
<text text-anchor="middle" x="465" y="-407.8" font-family="Times,serif" font-size="14.00">Q3(F)</text>
</g>
<!-- boxhead3 -->
<g id="node10" class="node">
<title>boxhead3</title>
<polygon fill="none" stroke="black" points="436,-168 436,-237 630,-237 630,-168 436,-168"/>
<text text-anchor="middle" x="533" y="-221.8" font-family="Times,serif" font-size="14.00">Distinct: Preserve</text>
<polyline fill="none" stroke="black" points="436,-214 630,-214 "/>
<text text-anchor="middle" x="533" y="-198.8" font-family="Times,serif" font-size="14.00">0: double precision? (C0)</text>
<polyline fill="none" stroke="black" points="436,-191 630,-191 "/>
<text text-anchor="middle" x="533" y="-175.8" font-family="Times,serif" font-size="14.00">1: double precision (C1)</text>
</g>
<!-- Q3&#45;&gt;boxhead3 -->
<g id="edge3" class="edge">
<title>Q3&#45;&gt;boxhead3</title>
<path fill="none" stroke="black" stroke-dasharray="5,2" d="M476.38,-375.85C485.98,-346.64 499.97,-304.04 511.65,-268.5"/>
</g>
<!-- Q0 -->
<g id="node7" class="node">
<title>Q0</title>
<ellipse fill="none" stroke="black" cx="145" cy="-202.5" rx="37.09" ry="37.09"/>
<text text-anchor="middle" x="145" y="-198.8" font-family="Times,serif" font-size="14.00">Q0(F)</text>
</g>
<!-- boxhead2 -->
<g id="node9" class="node">
<title>boxhead2</title>
<polygon fill="none" stroke="black" points="17,-16.5 17,-85.5 211,-85.5 211,-16.5 17,-16.5"/>
<text text-anchor="middle" x="114" y="-70.3" font-family="Times,serif" font-size="14.00">Distinct: Preserve</text>
<polyline fill="none" stroke="black" points="17,-62.5 211,-62.5 "/>
<text text-anchor="middle" x="114" y="-47.3" font-family="Times,serif" font-size="14.00">0: double precision? (C0)</text>
<polyline fill="none" stroke="black" points="17,-39.5 211,-39.5 "/>
<text text-anchor="middle" x="114" y="-24.3" font-family="Times,serif" font-size="14.00">1: double precision (C1)</text>
</g>
<!-- Q0&#45;&gt;boxhead2 -->
<g id="edge4" class="edge">
<title>Q0&#45;&gt;boxhead2</title>
<path fill="none" stroke="black" stroke-dasharray="5,2" d="M137.65,-166.07C134.61,-151.38 130.97,-133.85 127.48,-117"/>
</g>
<!-- Q1 -->
<g id="node8" class="node">
<title>Q1</title>
<ellipse fill="none" stroke="black" cx="53" cy="-202.5" rx="37.09" ry="37.09"/>
<text text-anchor="middle" x="53" y="-198.8" font-family="Times,serif" font-size="14.00">Q1(F)</text>
</g>
<!-- Q1&#45;&gt;boxhead2 -->
<g id="edge5" class="edge">
<title>Q1&#45;&gt;boxhead2</title>
<path fill="none" stroke="black" stroke-dasharray="5,2" d="M66.69,-167.95C72.84,-152.89 80.31,-134.58 87.48,-117"/>
</g>
</g>
</svg>
