<?xml version="1.0" encoding="UTF-8" standalone="no"?>
<!DOCTYPE svg PUBLIC "-//W3C//DTD SVG 1.1//EN"
 "http://www.w3.org/Graphics/SVG/1.1/DTD/svg11.dtd">
<!-- Generated by graphviz version 2.43.0 (0)
 -->
<!-- Title: G Pages: 1 -->
<svg width="2322pt" height="2270pt"
 viewBox="0.00 0.00 2322.00 2270.00" xmlns="http://www.w3.org/2000/svg" xmlns:xlink="http://www.w3.org/1999/xlink">
<g id="graph0" class="graph" transform="scale(1 1) rotate(0) translate(4 2266)">
<title>G</title>
<polygon fill="white" stroke="transparent" points="-4,4 -4,-2266 2318,-2266 2318,4 -4,4"/>
<!-- node0 -->
<g id="node1" class="node">
<title>node0</title>
<polygon fill="none" stroke="black" points="1020,-2193.5 1020,-2261.5 1121,-2261.5 1121,-2193.5 1020,-2193.5"/>
<text text-anchor="start" x="1028" y="-2246.3" font-family="Times,serif" font-size="14.00">Let l0 =</text>
<text text-anchor="start" x="1028" y="-2231.3" font-family="Times,serif" font-size="14.00"> Constant ()</text>
<text text-anchor="start" x="1028" y="-2216.3" font-family="Times,serif" font-size="14.00"> types = ()</text>
<text text-anchor="start" x="1028" y="-2201.3" font-family="Times,serif" font-size="14.00"> keys = (())</text>
</g>
<!-- node2 -->
<g id="node3" class="node">
<title>node2</title>
<polygon fill="none" stroke="black" points="1471.5,-2058.5 1471.5,-2141.5 1815.5,-2141.5 1815.5,-2058.5 1471.5,-2058.5"/>
<text text-anchor="start" x="1479.5" y="-2126.3" font-family="Times,serif" font-size="14.00">Let l1 =</text>
<text text-anchor="start" x="1479.5" y="-2111.3" font-family="Times,serif" font-size="14.00"> Join %0 %1</text>
<text text-anchor="start" x="1479.5" y="-2096.3" font-family="Times,serif" font-size="14.00"> implementation = Unimplemented</text>
<text text-anchor="start" x="1479.5" y="-2081.3" font-family="Times,serif" font-size="14.00"> types = (double precision?, double precision)</text>
<text text-anchor="start" x="1479.5" y="-2066.3" font-family="Times,serif" font-size="14.00"> keys = ()</text>
</g>
<!-- node0&#45;&gt;node2 -->
<g id="edge1" class="edge">
<title>node0&#45;&gt;node2</title>
<path fill="none" stroke="black" d="M1121.1,-2197C1124.24,-2195.56 1127.39,-2194.21 1130.5,-2193 1266.63,-2140.02 1313.07,-2164.36 1461.24,-2142.11"/>
<polygon fill="black" stroke="black" points="1461.81,-2145.57 1471.15,-2140.58 1460.74,-2138.65 1461.81,-2145.57"/>
<text text-anchor="start" x="1248.5" y="-2163.8" font-family="Times,serif" font-size="14.00">%0</text>
</g>
<!-- node4 -->
<g id="node5" class="node">
<title>node4</title>
<polygon fill="none" stroke="black" points="1109.5,-2058.5 1109.5,-2141.5 1453.5,-2141.5 1453.5,-2058.5 1109.5,-2058.5"/>
<text text-anchor="start" x="1117.5" y="-2126.3" font-family="Times,serif" font-size="14.00">Let l2 =</text>
<text text-anchor="start" x="1117.5" y="-2111.3" font-family="Times,serif" font-size="14.00"> Join %0 %3</text>
<text text-anchor="start" x="1117.5" y="-2096.3" font-family="Times,serif" font-size="14.00"> implementation = Unimplemented</text>
<text text-anchor="start" x="1117.5" y="-2081.3" font-family="Times,serif" font-size="14.00"> types = (double precision?, double precision)</text>
<text text-anchor="start" x="1117.5" y="-2066.3" font-family="Times,serif" font-size="14.00"> keys = ()</text>
</g>
<!-- node0&#45;&gt;node4 -->
<g id="edge16" class="edge">
<title>node0&#45;&gt;node4</title>
<path fill="none" stroke="black" d="M1103.9,-2193.32C1116.56,-2181.84 1131.55,-2169.49 1146.5,-2160 1154.11,-2155.17 1162.19,-2150.55 1170.46,-2146.18"/>
<polygon fill="black" stroke="black" points="1172.2,-2149.22 1179.49,-2141.53 1169,-2142.99 1172.2,-2149.22"/>
<text text-anchor="start" x="1146.5" y="-2163.8" font-family="Times,serif" font-size="14.00">%0</text>
</g>
<!-- node14 -->
<g id="node15" class="node">
<title>node14</title>
<polygon fill="none" stroke="black" points="717.5,-2058.5 717.5,-2141.5 1061.5,-2141.5 1061.5,-2058.5 717.5,-2058.5"/>
<text text-anchor="start" x="725.5" y="-2126.3" font-family="Times,serif" font-size="14.00">Let l5 =</text>
<text text-anchor="start" x="725.5" y="-2111.3" font-family="Times,serif" font-size="14.00"> Join %0 %13</text>
<text text-anchor="start" x="725.5" y="-2096.3" font-family="Times,serif" font-size="14.00"> implementation = Unimplemented</text>
<text text-anchor="start" x="725.5" y="-2081.3" font-family="Times,serif" font-size="14.00"> types = (double precision?, double precision)</text>
<text text-anchor="start" x="725.5" y="-2066.3" font-family="Times,serif" font-size="14.00"> keys = ()</text>
</g>
<!-- node0&#45;&gt;node14 -->
<g id="edge3" class="edge">
<title>node0&#45;&gt;node14</title>
<path fill="none" stroke="black" d="M1022.47,-2193.2C1002.23,-2179.16 978.31,-2162.58 956.39,-2147.38"/>
<polygon fill="black" stroke="black" points="958.31,-2144.45 948.1,-2141.63 954.32,-2150.2 958.31,-2144.45"/>
<text text-anchor="start" x="996.5" y="-2163.8" font-family="Times,serif" font-size="14.00">%0</text>
</g>
<!-- node1 -->
<g id="node2" class="node">
<title>node1</title>
<polygon fill="none" stroke="black" points="1501.5,-2201 1501.5,-2254 1845.5,-2254 1845.5,-2201 1501.5,-2201"/>
<text text-anchor="start" x="1509.5" y="-2238.8" font-family="Times,serif" font-size="14.00">Get simplify_outer_joins.public.t1 (u101)</text>
<text text-anchor="start" x="1509.5" y="-2223.8" font-family="Times,serif" font-size="14.00"> types = (double precision?, double precision)</text>
<text text-anchor="start" x="1509.5" y="-2208.8" font-family="Times,serif" font-size="14.00"> keys = ()</text>
</g>
<!-- node1&#45;&gt;node2 -->
<g id="edge2" class="edge">
<title>node1&#45;&gt;node2</title>
<path fill="none" stroke="black" d="M1667.36,-2200.8C1663.97,-2186.65 1659.66,-2168.59 1655.63,-2151.73"/>
<polygon fill="black" stroke="black" points="1659.03,-2150.89 1653.3,-2141.98 1652.22,-2152.52 1659.03,-2150.89"/>
<text text-anchor="start" x="1661.5" y="-2163.8" font-family="Times,serif" font-size="14.00">%1</text>
</g>
<!-- node5 -->
<g id="node6" class="node">
<title>node5</title>
<polygon fill="none" stroke="black" points="987,-1833.5 987,-2006.5 1592,-2006.5 1592,-1833.5 987,-1833.5"/>
<text text-anchor="start" x="995" y="-1991.3" font-family="Times,serif" font-size="14.00">Let l3 =</text>
<text text-anchor="start" x="995" y="-1976.3" font-family="Times,serif" font-size="14.00"> Join %2 %4</text>
<text text-anchor="start" x="995" y="-1961.3" font-family="Times,serif" font-size="14.00"> implementation = Unimplemented</text>
<text text-anchor="start" x="995" y="-1946.3" font-family="Times,serif" font-size="14.00"> types = (double precision?, double precision, double precision?, double precision)</text>
<text text-anchor="start" x="995" y="-1931.3" font-family="Times,serif" font-size="14.00"> keys = ()</text>
<text text-anchor="start" x="995" y="-1916.3" font-family="Times,serif" font-size="14.00"> Project (#0..=#3)</text>
<text text-anchor="start" x="995" y="-1901.3" font-family="Times,serif" font-size="14.00"> types = (double precision?, double precision, double precision?, double precision)</text>
<text text-anchor="start" x="995" y="-1886.3" font-family="Times,serif" font-size="14.00"> keys = ()</text>
<text text-anchor="start" x="995" y="-1871.3" font-family="Times,serif" font-size="14.00"> Filter (true &amp;&amp; (#0 = #2))</text>
<text text-anchor="start" x="995" y="-1856.3" font-family="Times,serif" font-size="14.00"> types = (double precision?, double precision, double precision?, double precision)</text>
<text text-anchor="start" x="995" y="-1841.3" font-family="Times,serif" font-size="14.00"> keys = ()</text>
</g>
<!-- node2&#45;&gt;node5 -->
<g id="edge9" class="edge">
<title>node2&#45;&gt;node5</title>
<path fill="none" stroke="black" d="M1562.73,-2058.39C1534.66,-2044.27 1501.95,-2027.82 1469.11,-2011.31"/>
<polygon fill="black" stroke="black" points="1470.36,-2008.02 1459.85,-2006.66 1467.22,-2014.28 1470.36,-2008.02"/>
<text text-anchor="start" x="1519.5" y="-2028.8" font-family="Times,serif" font-size="14.00">%2</text>
</g>
<!-- node7 -->
<g id="node8" class="node">
<title>node7</title>
<polygon fill="none" stroke="black" points="1660.5,-1716.5 1660.5,-1814.5 2004.5,-1814.5 2004.5,-1716.5 1660.5,-1716.5"/>
<text text-anchor="start" x="1668.5" y="-1799.3" font-family="Times,serif" font-size="14.00">Get %2 (l1)</text>
<text text-anchor="start" x="1668.5" y="-1784.3" font-family="Times,serif" font-size="14.00"> types = (double precision?, double precision)</text>
<text text-anchor="start" x="1668.5" y="-1769.3" font-family="Times,serif" font-size="14.00"> keys = ()</text>
<text text-anchor="start" x="1668.5" y="-1754.3" font-family="Times,serif" font-size="14.00"> Distinct group=(#0, #1)</text>
<text text-anchor="start" x="1668.5" y="-1739.3" font-family="Times,serif" font-size="14.00"> types = (double precision?, double precision)</text>
<text text-anchor="start" x="1668.5" y="-1724.3" font-family="Times,serif" font-size="14.00"> keys = ((#0, #1))</text>
</g>
<!-- node2&#45;&gt;node7 -->
<g id="edge6" class="edge">
<title>node2&#45;&gt;node7</title>
<path fill="none" stroke="black" d="M1666.68,-2058.23C1700.16,-1999.31 1762.22,-1890.13 1800.19,-1823.34"/>
<polygon fill="black" stroke="black" points="1803.26,-1825.03 1805.16,-1814.6 1797.17,-1821.57 1803.26,-1825.03"/>
<text text-anchor="start" x="1683.5" y="-2028.8" font-family="Times,serif" font-size="14.00">%2</text>
</g>
<!-- node9 -->
<g id="node10" class="node">
<title>node9</title>
<polygon fill="none" stroke="black" points="1340,-1284.5 1340,-1397.5 1945,-1397.5 1945,-1284.5 1340,-1284.5"/>
<text text-anchor="start" x="1348" y="-1382.3" font-family="Times,serif" font-size="14.00">Join %8 %2 (= #0 #2) (= #1 #3)</text>
<text text-anchor="start" x="1348" y="-1367.3" font-family="Times,serif" font-size="14.00"> implementation = Unimplemented</text>
<text text-anchor="start" x="1348" y="-1352.3" font-family="Times,serif" font-size="14.00"> types = (double precision?, double precision, double precision?, double precision)</text>
<text text-anchor="start" x="1348" y="-1337.3" font-family="Times,serif" font-size="14.00"> keys = ()</text>
<text text-anchor="start" x="1348" y="-1322.3" font-family="Times,serif" font-size="14.00"> Project (#0, #1)</text>
<text text-anchor="start" x="1348" y="-1307.3" font-family="Times,serif" font-size="14.00"> types = (double precision?, double precision)</text>
<text text-anchor="start" x="1348" y="-1292.3" font-family="Times,serif" font-size="14.00"> keys = ()</text>
</g>
<!-- node2&#45;&gt;node9 -->
<g id="edge8" class="edge">
<title>node2&#45;&gt;node9</title>
<path fill="none" stroke="black" d="M1643.14,-2058.35C1642.85,-2022.27 1642.5,-1968.13 1642.5,-1921 1642.5,-1921 1642.5,-1921 1642.5,-1475 1642.5,-1453.17 1642.5,-1429.33 1642.5,-1407.94"/>
<polygon fill="black" stroke="black" points="1646,-1407.65 1642.5,-1397.65 1639,-1407.65 1646,-1407.65"/>
<text text-anchor="start" x="1642.5" y="-1622.3" font-family="Times,serif" font-size="14.00">%2</text>
</g>
<!-- node3 -->
<g id="node4" class="node">
<title>node3</title>
<polygon fill="none" stroke="black" points="1139.5,-2201 1139.5,-2254 1483.5,-2254 1483.5,-2201 1139.5,-2201"/>
<text text-anchor="start" x="1147.5" y="-2238.8" font-family="Times,serif" font-size="14.00">Get simplify_outer_joins.public.t1 (u101)</text>
<text text-anchor="start" x="1147.5" y="-2223.8" font-family="Times,serif" font-size="14.00"> types = (double precision?, double precision)</text>
<text text-anchor="start" x="1147.5" y="-2208.8" font-family="Times,serif" font-size="14.00"> keys = ()</text>
</g>
<!-- node3&#45;&gt;node4 -->
<g id="edge19" class="edge">
<title>node3&#45;&gt;node4</title>
<path fill="none" stroke="black" d="M1305.36,-2200.8C1301.97,-2186.65 1297.66,-2168.59 1293.63,-2151.73"/>
<polygon fill="black" stroke="black" points="1297.03,-2150.89 1291.3,-2141.98 1290.22,-2152.52 1297.03,-2150.89"/>
<text text-anchor="start" x="1299.5" y="-2163.8" font-family="Times,serif" font-size="14.00">%3</text>
</g>
<!-- node4&#45;&gt;node5 -->
<g id="edge22" class="edge">
<title>node4&#45;&gt;node5</title>
<path fill="none" stroke="black" d="M1283.34,-2058.16C1283.9,-2045.65 1284.54,-2031.33 1285.2,-2016.76"/>
<polygon fill="black" stroke="black" points="1288.7,-2016.8 1285.65,-2006.65 1281.7,-2016.49 1288.7,-2016.8"/>
<text text-anchor="start" x="1285.5" y="-2028.8" font-family="Times,serif" font-size="14.00">%4</text>
</g>
<!-- node6 -->
<g id="node7" class="node">
<title>node6</title>
<polygon fill="none" stroke="black" points="1002,-1554.5 1002,-1697.5 1607,-1697.5 1607,-1554.5 1002,-1554.5"/>
<text text-anchor="start" x="1010" y="-1682.3" font-family="Times,serif" font-size="14.00">Get %5 (l3)</text>
<text text-anchor="start" x="1010" y="-1667.3" font-family="Times,serif" font-size="14.00"> types = (double precision?, double precision, double precision?, double precision)</text>
<text text-anchor="start" x="1010" y="-1652.3" font-family="Times,serif" font-size="14.00"> keys = ()</text>
<text text-anchor="start" x="1010" y="-1637.3" font-family="Times,serif" font-size="14.00"> Distinct group=(#0, #1)</text>
<text text-anchor="start" x="1010" y="-1622.3" font-family="Times,serif" font-size="14.00"> types = (double precision?, double precision)</text>
<text text-anchor="start" x="1010" y="-1607.3" font-family="Times,serif" font-size="14.00"> keys = ((#0, #1))</text>
<text text-anchor="start" x="1010" y="-1592.3" font-family="Times,serif" font-size="14.00"> Negate</text>
<text text-anchor="start" x="1010" y="-1577.3" font-family="Times,serif" font-size="14.00"> types = (double precision?, double precision)</text>
<text text-anchor="start" x="1010" y="-1562.3" font-family="Times,serif" font-size="14.00"> keys = ()</text>
</g>
<!-- node5&#45;&gt;node6 -->
<g id="edge15" class="edge">
<title>node5&#45;&gt;node6</title>
<path fill="none" stroke="black" d="M1293.9,-1833.36C1295.93,-1793.82 1298.33,-1747.1 1300.33,-1708.12"/>
<polygon fill="black" stroke="black" points="1303.84,-1708.04 1300.86,-1697.87 1296.85,-1707.68 1303.84,-1708.04"/>
<text text-anchor="start" x="1300.5" y="-1761.8" font-family="Times,serif" font-size="14.00">%5</text>
</g>
<!-- node12 -->
<g id="node13" class="node">
<title>node12</title>
<polygon fill="none" stroke="black" points="1052.5,-1044.5 1052.5,-1112.5 1664.5,-1112.5 1664.5,-1044.5 1052.5,-1044.5"/>
<text text-anchor="start" x="1060.5" y="-1097.3" font-family="Times,serif" font-size="14.00">Let l4 =</text>
<text text-anchor="start" x="1060.5" y="-1082.3" font-family="Times,serif" font-size="14.00"> Union %5 %11</text>
<text text-anchor="start" x="1060.5" y="-1067.3" font-family="Times,serif" font-size="14.00"> types = (double precision?, double precision, double precision?, double precision?)</text>
<text text-anchor="start" x="1060.5" y="-1052.3" font-family="Times,serif" font-size="14.00"> keys = ()</text>
</g>
<!-- node5&#45;&gt;node12 -->
<g id="edge12" class="edge">
<title>node5&#45;&gt;node12</title>
<path fill="none" stroke="black" d="M1114.5,-1833.25C1041.99,-1784.49 974.5,-1715.37 974.5,-1627 974.5,-1627 974.5,-1627 974.5,-1197.5 974.5,-1160.13 1041.79,-1133.37 1120.04,-1114.88"/>
<polygon fill="black" stroke="black" points="1121.18,-1118.21 1130.13,-1112.56 1119.6,-1111.39 1121.18,-1118.21"/>
<text text-anchor="start" x="974.5" y="-1419.8" font-family="Times,serif" font-size="14.00">%5</text>
</g>
<!-- node8 -->
<g id="node9" class="node">
<title>node8</title>
<polygon fill="none" stroke="black" points="1670.5,-1449.5 1670.5,-1502.5 2014.5,-1502.5 2014.5,-1449.5 1670.5,-1449.5"/>
<text text-anchor="start" x="1678.5" y="-1487.3" font-family="Times,serif" font-size="14.00">Union %6 %7</text>
<text text-anchor="start" x="1678.5" y="-1472.3" font-family="Times,serif" font-size="14.00"> types = (double precision?, double precision)</text>
<text text-anchor="start" x="1678.5" y="-1457.3" font-family="Times,serif" font-size="14.00"> keys = ()</text>
</g>
<!-- node6&#45;&gt;node8 -->
<g id="edge7" class="edge">
<title>node6&#45;&gt;node8</title>
<path fill="none" stroke="black" d="M1560.89,-1554.47C1624.33,-1537.02 1688.7,-1519.31 1739.86,-1505.24"/>
<polygon fill="black" stroke="black" points="1740.87,-1508.59 1749.58,-1502.56 1739.01,-1501.84 1740.87,-1508.59"/>
<text text-anchor="start" x="1668.5" y="-1524.8" font-family="Times,serif" font-size="14.00">%6</text>
</g>
<!-- node7&#45;&gt;node8 -->
<g id="edge30" class="edge">
<title>node7&#45;&gt;node8</title>
<path fill="none" stroke="black" d="M1834.17,-1716.38C1836.17,-1658.92 1839.47,-1564.16 1841.26,-1512.79"/>
<polygon fill="black" stroke="black" points="1844.76,-1512.63 1841.61,-1502.52 1837.77,-1512.39 1844.76,-1512.63"/>
<text text-anchor="start" x="1839.5" y="-1622.3" font-family="Times,serif" font-size="14.00">%7</text>
</g>
<!-- node8&#45;&gt;node9 -->
<g id="edge21" class="edge">
<title>node8&#45;&gt;node9</title>
<path fill="none" stroke="black" d="M1803.94,-1449.36C1784.14,-1436.19 1759.09,-1419.53 1734.67,-1403.29"/>
<polygon fill="black" stroke="black" points="1736.33,-1400.2 1726.07,-1397.57 1732.46,-1406.03 1736.33,-1400.2"/>
<text text-anchor="start" x="1771.5" y="-1419.8" font-family="Times,serif" font-size="14.00">%8</text>
</g>
<!-- node11 -->
<g id="node12" class="node">
<title>node11</title>
<polygon fill="none" stroke="black" points="1336.5,-1164.5 1336.5,-1232.5 1948.5,-1232.5 1948.5,-1164.5 1336.5,-1164.5"/>
<text text-anchor="start" x="1344.5" y="-1217.3" font-family="Times,serif" font-size="14.00">Join %9 %10</text>
<text text-anchor="start" x="1344.5" y="-1202.3" font-family="Times,serif" font-size="14.00"> implementation = Unimplemented</text>
<text text-anchor="start" x="1344.5" y="-1187.3" font-family="Times,serif" font-size="14.00"> types = (double precision?, double precision, double precision?, double precision?)</text>
<text text-anchor="start" x="1344.5" y="-1172.3" font-family="Times,serif" font-size="14.00"> keys = ()</text>
</g>
<!-- node9&#45;&gt;node11 -->
<g id="edge14" class="edge">
<title>node9&#45;&gt;node11</title>
<path fill="none" stroke="black" d="M1642.5,-1284.47C1642.5,-1270.67 1642.5,-1256.08 1642.5,-1242.95"/>
<polygon fill="black" stroke="black" points="1646,-1242.79 1642.5,-1232.79 1639,-1242.79 1646,-1242.79"/>
<text text-anchor="start" x="1642.5" y="-1254.8" font-family="Times,serif" font-size="14.00">%9</text>
</g>
<!-- node10 -->
<g id="node11" class="node">
<title>node10</title>
<polygon fill="none" stroke="black" points="1963,-1314.5 1963,-1367.5 2314,-1367.5 2314,-1314.5 1963,-1314.5"/>
<text text-anchor="start" x="1971" y="-1352.3" font-family="Times,serif" font-size="14.00">Constant (null, null)</text>
<text text-anchor="start" x="1971" y="-1337.3" font-family="Times,serif" font-size="14.00"> types = (double precision?, double precision?)</text>
<text text-anchor="start" x="1971" y="-1322.3" font-family="Times,serif" font-size="14.00"> keys = (())</text>
</g>
<!-- node10&#45;&gt;node11 -->
<g id="edge27" class="edge">
<title>node10&#45;&gt;node11</title>
<path fill="none" stroke="black" d="M2055.77,-1314.4C2023.87,-1304.68 1987.04,-1293.63 1953.5,-1284 1895.79,-1267.43 1831.82,-1249.9 1776.97,-1235.14"/>
<polygon fill="black" stroke="black" points="1777.76,-1231.72 1767.2,-1232.51 1775.95,-1238.48 1777.76,-1231.72"/>
<text text-anchor="start" x="1885.5" y="-1254.8" font-family="Times,serif" font-size="14.00">%10</text>
</g>
<!-- node11&#45;&gt;node12 -->
<g id="edge11" class="edge">
<title>node11&#45;&gt;node12</title>
<path fill="none" stroke="black" d="M1563.01,-1164.47C1527.01,-1149.51 1484.31,-1131.77 1447.26,-1116.38"/>
<polygon fill="black" stroke="black" points="1448.55,-1113.12 1437.97,-1112.52 1445.86,-1119.59 1448.55,-1113.12"/>
<text text-anchor="start" x="1518.5" y="-1134.8" font-family="Times,serif" font-size="14.00">%11</text>
</g>
<!-- node15 -->
<g id="node16" class="node">
<title>node15</title>
<polygon fill="none" stroke="black" points="453,-819.5 453,-992.5 1326,-992.5 1326,-819.5 453,-819.5"/>
<text text-anchor="start" x="461" y="-977.3" font-family="Times,serif" font-size="14.00">Let l6 =</text>
<text text-anchor="start" x="461" y="-962.3" font-family="Times,serif" font-size="14.00"> Join %12 %14</text>
<text text-anchor="start" x="461" y="-947.3" font-family="Times,serif" font-size="14.00"> implementation = Unimplemented</text>
<text text-anchor="start" x="461" y="-932.3" font-family="Times,serif" font-size="14.00"> types = (double precision?, double precision, double precision?, double precision?, double precision?, double precision)</text>
<text text-anchor="start" x="461" y="-917.3" font-family="Times,serif" font-size="14.00"> keys = ()</text>
<text text-anchor="start" x="461" y="-902.3" font-family="Times,serif" font-size="14.00"> Project (#0..=#5)</text>
<text text-anchor="start" x="461" y="-887.3" font-family="Times,serif" font-size="14.00"> types = (double precision?, double precision, double precision?, double precision?, double precision?, double precision)</text>
<text text-anchor="start" x="461" y="-872.3" font-family="Times,serif" font-size="14.00"> keys = ()</text>
<text text-anchor="start" x="461" y="-857.3" font-family="Times,serif" font-size="14.00"> Filter true</text>
<text text-anchor="start" x="461" y="-842.3" font-family="Times,serif" font-size="14.00"> types = (double precision?, double precision, double precision?, double precision?, double precision?, double precision)</text>
<text text-anchor="start" x="461" y="-827.3" font-family="Times,serif" font-size="14.00"> keys = ()</text>
</g>
<!-- node12&#45;&gt;node15 -->
<g id="edge13" class="edge">
<title>node12&#45;&gt;node15</title>
<path fill="none" stroke="black" d="M1267.52,-1044.42C1228.93,-1030.4 1181.93,-1013.31 1134.35,-996.01"/>
<polygon fill="black" stroke="black" points="1135.42,-992.68 1124.83,-992.55 1133.03,-999.26 1135.42,-992.68"/>
<text text-anchor="start" x="1207.5" y="-1014.8" font-family="Times,serif" font-size="14.00">%12</text>
</g>
<!-- node17 -->
<g id="node18" class="node">
<title>node17</title>
<polygon fill="none" stroke="black" points="1052.5,-702.5 1052.5,-800.5 1664.5,-800.5 1664.5,-702.5 1052.5,-702.5"/>
<text text-anchor="start" x="1060.5" y="-785.3" font-family="Times,serif" font-size="14.00">Get %12 (l4)</text>
<text text-anchor="start" x="1060.5" y="-770.3" font-family="Times,serif" font-size="14.00"> types = (double precision?, double precision, double precision?, double precision?)</text>
<text text-anchor="start" x="1060.5" y="-755.3" font-family="Times,serif" font-size="14.00"> keys = ()</text>
<text text-anchor="start" x="1060.5" y="-740.3" font-family="Times,serif" font-size="14.00"> Distinct group=(#0, #1, #2, #3)</text>
<text text-anchor="start" x="1060.5" y="-725.3" font-family="Times,serif" font-size="14.00"> types = (double precision?, double precision, double precision?, double precision?)</text>
<text text-anchor="start" x="1060.5" y="-710.3" font-family="Times,serif" font-size="14.00"> keys = ((#0..=#3))</text>
</g>
<!-- node12&#45;&gt;node17 -->
<g id="edge29" class="edge">
<title>node12&#45;&gt;node17</title>
<path fill="none" stroke="black" d="M1358.5,-1044.25C1358.5,-989.31 1358.5,-878.92 1358.5,-810.79"/>
<polygon fill="black" stroke="black" points="1362,-810.65 1358.5,-800.65 1355,-810.65 1362,-810.65"/>
<text text-anchor="start" x="1358.5" y="-1014.8" font-family="Times,serif" font-size="14.00">%12</text>
</g>
<!-- node19 -->
<g id="node20" class="node">
<title>node19</title>
<polygon fill="none" stroke="black" points="1002.5,-270.5 1002.5,-383.5 2144.5,-383.5 2144.5,-270.5 1002.5,-270.5"/>
<text text-anchor="start" x="1010.5" y="-368.3" font-family="Times,serif" font-size="14.00">Join %18 %12 (= #0 #4) (= #1 #5) (= #2 #6) (= #3 #7)</text>
<text text-anchor="start" x="1010.5" y="-353.3" font-family="Times,serif" font-size="14.00"> implementation = Unimplemented</text>
<text text-anchor="start" x="1010.5" y="-338.3" font-family="Times,serif" font-size="14.00"> types = (double precision?, double precision, double precision?, double precision?, double precision?, double precision, double precision?, double precision?)</text>
<text text-anchor="start" x="1010.5" y="-323.3" font-family="Times,serif" font-size="14.00"> keys = ()</text>
<text text-anchor="start" x="1010.5" y="-308.3" font-family="Times,serif" font-size="14.00"> Project (#0..=#3)</text>
<text text-anchor="start" x="1010.5" y="-293.3" font-family="Times,serif" font-size="14.00"> types = (double precision?, double precision, double precision?, double precision?)</text>
<text text-anchor="start" x="1010.5" y="-278.3" font-family="Times,serif" font-size="14.00"> keys = ()</text>
</g>
<!-- node12&#45;&gt;node19 -->
<g id="edge28" class="edge">
<title>node12&#45;&gt;node19</title>
<path fill="none" stroke="black" d="M1546.16,-1044.4C1616.4,-1020.25 1679.5,-978.62 1679.5,-907 1679.5,-907 1679.5,-907 1679.5,-461 1679.5,-435.19 1667.15,-411.51 1650.87,-391.5"/>
<polygon fill="black" stroke="black" points="1653.37,-389.04 1644.2,-383.73 1648.06,-393.6 1653.37,-389.04"/>
<text text-anchor="start" x="1679.5" y="-608.3" font-family="Times,serif" font-size="14.00">%12</text>
</g>
<!-- node13 -->
<g id="node14" class="node">
<title>node13</title>
<polygon fill="none" stroke="black" points="657.5,-2201 657.5,-2254 1001.5,-2254 1001.5,-2201 657.5,-2201"/>
<text text-anchor="start" x="665.5" y="-2238.8" font-family="Times,serif" font-size="14.00">Get simplify_outer_joins.public.t2 (u103)</text>
<text text-anchor="start" x="665.5" y="-2223.8" font-family="Times,serif" font-size="14.00"> types = (double precision?, double precision)</text>
<text text-anchor="start" x="665.5" y="-2208.8" font-family="Times,serif" font-size="14.00"> keys = ()</text>
</g>
<!-- node13&#45;&gt;node14 -->
<g id="edge25" class="edge">
<title>node13&#45;&gt;node14</title>
<path fill="none" stroke="black" d="M841.79,-2200.8C848.61,-2186.52 857.35,-2168.25 865.47,-2151.26"/>
<polygon fill="black" stroke="black" points="868.75,-2152.51 869.91,-2141.98 862.44,-2149.49 868.75,-2152.51"/>
<text text-anchor="start" x="859.5" y="-2163.8" font-family="Times,serif" font-size="14.00">%13</text>
</g>
<!-- node14&#45;&gt;node15 -->
<g id="edge4" class="edge">
<title>node14&#45;&gt;node15</title>
<path fill="none" stroke="black" d="M889.5,-2058.35C889.5,-2022.27 889.5,-1968.13 889.5,-1921 889.5,-1921 889.5,-1921 889.5,-1077.5 889.5,-1053.41 889.5,-1027.41 889.5,-1003.15"/>
<polygon fill="black" stroke="black" points="893,-1002.86 889.5,-992.86 886,-1002.86 893,-1002.86"/>
<text text-anchor="start" x="889.5" y="-1419.8" font-family="Times,serif" font-size="14.00">%14</text>
</g>
<!-- node16 -->
<g id="node17" class="node">
<title>node16</title>
<polygon fill="none" stroke="black" points="453,-540.5 453,-683.5 1326,-683.5 1326,-540.5 453,-540.5"/>
<text text-anchor="start" x="461" y="-668.3" font-family="Times,serif" font-size="14.00">Get %15 (l6)</text>
<text text-anchor="start" x="461" y="-653.3" font-family="Times,serif" font-size="14.00"> types = (double precision?, double precision, double precision?, double precision?, double precision?, double precision)</text>
<text text-anchor="start" x="461" y="-638.3" font-family="Times,serif" font-size="14.00"> keys = ()</text>
<text text-anchor="start" x="461" y="-623.3" font-family="Times,serif" font-size="14.00"> Distinct group=(#0, #1, #2, #3)</text>
<text text-anchor="start" x="461" y="-608.3" font-family="Times,serif" font-size="14.00"> types = (double precision?, double precision, double precision?, double precision?)</text>
<text text-anchor="start" x="461" y="-593.3" font-family="Times,serif" font-size="14.00"> keys = ((#0..=#3))</text>
<text text-anchor="start" x="461" y="-578.3" font-family="Times,serif" font-size="14.00"> Negate</text>
<text text-anchor="start" x="461" y="-563.3" font-family="Times,serif" font-size="14.00"> types = (double precision?, double precision, double precision?, double precision?)</text>
<text text-anchor="start" x="461" y="-548.3" font-family="Times,serif" font-size="14.00"> keys = ()</text>
</g>
<!-- node15&#45;&gt;node16 -->
<g id="edge18" class="edge">
<title>node15&#45;&gt;node16</title>
<path fill="none" stroke="black" d="M889.5,-819.36C889.5,-779.82 889.5,-733.1 889.5,-694.12"/>
<polygon fill="black" stroke="black" points="893,-693.87 889.5,-683.87 886,-693.87 893,-693.87"/>
<text text-anchor="start" x="889.5" y="-747.8" font-family="Times,serif" font-size="14.00">%15</text>
</g>
<!-- node22 -->
<g id="node23" class="node">
<title>node22</title>
<polygon fill="none" stroke="black" points="0,-0.5 0,-98.5 881,-98.5 881,-0.5 0,-0.5"/>
<text text-anchor="start" x="8" y="-83.3" font-family="Times,serif" font-size="14.00">Union %15 %21</text>
<text text-anchor="start" x="8" y="-68.3" font-family="Times,serif" font-size="14.00"> types = (double precision?, double precision, double precision?, double precision?, double precision?, double precision?)</text>
<text text-anchor="start" x="8" y="-53.3" font-family="Times,serif" font-size="14.00"> keys = ()</text>
<text text-anchor="start" x="8" y="-38.3" font-family="Times,serif" font-size="14.00"> Filter (((((#0 = #2) &amp;&amp; (#3 = #0)) &amp;&amp; (#2 = #1)) &amp;&amp; (#2 &lt; #1)) &amp;&amp; (#3 = i32tof64(5)))</text>
<text text-anchor="start" x="8" y="-23.3" font-family="Times,serif" font-size="14.00"> types = (double precision?, double precision, double precision?, double precision?, double precision?, double precision?)</text>
<text text-anchor="start" x="8" y="-8.3" font-family="Times,serif" font-size="14.00"> keys = ()</text>
</g>
<!-- node15&#45;&gt;node22 -->
<g id="edge24" class="edge">
<title>node15&#45;&gt;node22</title>
<path fill="none" stroke="black" d="M584.53,-819.38C496.88,-775.04 424.5,-709.28 424.5,-613 424.5,-613 424.5,-613 424.5,-183.5 424.5,-158.89 427.23,-131.89 430.44,-108.69"/>
<polygon fill="black" stroke="black" points="433.93,-109.06 431.89,-98.66 427,-108.06 433.93,-109.06"/>
<text text-anchor="start" x="424.5" y="-405.8" font-family="Times,serif" font-size="14.00">%15</text>
</g>
<!-- node18 -->
<g id="node19" class="node">
<title>node18</title>
<polygon fill="none" stroke="black" points="1039.5,-435.5 1039.5,-488.5 1651.5,-488.5 1651.5,-435.5 1039.5,-435.5"/>
<text text-anchor="start" x="1047.5" y="-473.3" font-family="Times,serif" font-size="14.00">Union %16 %17</text>
<text text-anchor="start" x="1047.5" y="-458.3" font-family="Times,serif" font-size="14.00"> types = (double precision?, double precision, double precision?, double precision?)</text>
<text text-anchor="start" x="1047.5" y="-443.3" font-family="Times,serif" font-size="14.00"> keys = ()</text>
</g>
<!-- node16&#45;&gt;node18 -->
<g id="edge20" class="edge">
<title>node16&#45;&gt;node18</title>
<path fill="none" stroke="black" d="M1106.82,-540.47C1160.02,-523.2 1214.01,-505.68 1257.15,-491.68"/>
<polygon fill="black" stroke="black" points="1258.31,-494.98 1266.75,-488.56 1256.15,-488.32 1258.31,-494.98"/>
<text text-anchor="start" x="1198.5" y="-510.8" font-family="Times,serif" font-size="14.00">%16</text>
</g>
<!-- node17&#45;&gt;node18 -->
<g id="edge26" class="edge">
<title>node17&#45;&gt;node18</title>
<path fill="none" stroke="black" d="M1356.32,-702.38C1353.73,-644.92 1349.44,-550.16 1347.12,-498.79"/>
<polygon fill="black" stroke="black" points="1350.6,-498.35 1346.65,-488.52 1343.61,-498.67 1350.6,-498.35"/>
<text text-anchor="start" x="1355.5" y="-608.3" font-family="Times,serif" font-size="14.00">%17</text>
</g>
<!-- node18&#45;&gt;node19 -->
<g id="edge23" class="edge">
<title>node18&#45;&gt;node19</title>
<path fill="none" stroke="black" d="M1389.46,-435.36C1412.33,-422.02 1441.34,-405.1 1469.52,-388.66"/>
<polygon fill="black" stroke="black" points="1471.36,-391.64 1478.23,-383.57 1467.83,-385.59 1471.36,-391.64"/>
<text text-anchor="start" x="1446.5" y="-405.8" font-family="Times,serif" font-size="14.00">%18</text>
</g>
<!-- node21 -->
<g id="node22" class="node">
<title>node21</title>
<polygon fill="none" stroke="black" points="453,-150.5 453,-218.5 1334,-218.5 1334,-150.5 453,-150.5"/>
<text text-anchor="start" x="461" y="-203.3" font-family="Times,serif" font-size="14.00">Join %19 %20</text>
<text text-anchor="start" x="461" y="-188.3" font-family="Times,serif" font-size="14.00"> implementation = Unimplemented</text>
<text text-anchor="start" x="461" y="-173.3" font-family="Times,serif" font-size="14.00"> types = (double precision?, double precision, double precision?, double precision?, double precision?, double precision?)</text>
<text text-anchor="start" x="461" y="-158.3" font-family="Times,serif" font-size="14.00"> keys = ()</text>
</g>
<!-- node19&#45;&gt;node21 -->
<g id="edge17" class="edge">
<title>node19&#45;&gt;node21</title>
<path fill="none" stroke="black" d="M1304.75,-270.47C1223.55,-253.69 1136.68,-235.75 1063.8,-220.69"/>
<polygon fill="black" stroke="black" points="1064.12,-217.18 1053.61,-218.58 1062.7,-224.03 1064.12,-217.18"/>
<text text-anchor="start" x="1213.5" y="-240.8" font-family="Times,serif" font-size="14.00">%19</text>
</g>
<!-- node20 -->
<g id="node21" class="node">
<title>node20</title>
<polygon fill="none" stroke="black" points="633,-300.5 633,-353.5 984,-353.5 984,-300.5 633,-300.5"/>
<text text-anchor="start" x="641" y="-338.3" font-family="Times,serif" font-size="14.00">Constant (null, null)</text>
<text text-anchor="start" x="641" y="-323.3" font-family="Times,serif" font-size="14.00"> types = (double precision?, double precision?)</text>
<text text-anchor="start" x="641" y="-308.3" font-family="Times,serif" font-size="14.00"> keys = (())</text>
</g>
<!-- node20&#45;&gt;node21 -->
<g id="edge10" class="edge">
<title>node20&#45;&gt;node21</title>
<path fill="none" stroke="black" d="M824.09,-300.23C836.41,-279.86 853.87,-251.01 868.19,-227.34"/>
<polygon fill="black" stroke="black" points="871.33,-228.91 873.51,-218.55 865.34,-225.29 871.33,-228.91"/>
<text text-anchor="start" x="861.5" y="-240.8" font-family="Times,serif" font-size="14.00">%20</text>
</g>
<!-- node21&#45;&gt;node22 -->
<g id="edge5" class="edge">
<title>node21&#45;&gt;node22</title>
<path fill="none" stroke="black" d="M780.94,-150.45C730.53,-135.65 669.94,-117.86 613.94,-101.42"/>
<polygon fill="black" stroke="black" points="614.85,-98.04 604.27,-98.58 612.88,-104.76 614.85,-98.04"/>
<text text-anchor="start" x="708.5" y="-120.8" font-family="Times,serif" font-size="14.00">%21</text>
</g>
</g>
</svg>
