<?xml version="1.0" encoding="UTF-8" standalone="no"?>
<!DOCTYPE svg PUBLIC "-//W3C//DTD SVG 1.1//EN"
 "http://www.w3.org/Graphics/SVG/1.1/DTD/svg11.dtd">
<!-- Generated by graphviz version 2.43.0 (0)
 -->
<!-- Title: G Pages: 1 -->
<svg width="684pt" height="375pt"
 viewBox="0.00 0.00 684.00 375.00" xmlns="http://www.w3.org/2000/svg" xmlns:xlink="http://www.w3.org/1999/xlink">
<g id="graph0" class="graph" transform="scale(1 1) rotate(0) translate(4 371)">
<title>G</title>
<polygon fill="white" stroke="transparent" points="-4,4 -4,-371 680,-371 680,4 -4,4"/>
<!-- node0 -->
<g id="node1" class="node">
<title>node0</title>
<polygon fill="none" stroke="black" points="290,-330.5 290,-366.5 386,-366.5 386,-330.5 290,-330.5"/>
<text text-anchor="start" x="298" y="-344.8" font-family="Times,serif" font-size="14.00">Constant ()</text>
</g>
<!-- node2 -->
<g id="node3" class="node">
<title>node2</title>
<polygon fill="none" stroke="black" points="55,-240.5 55,-278.5 329,-278.5 329,-240.5 55,-240.5"/>
<text text-anchor="start" x="63" y="-263.3" font-family="Times,serif" font-size="14.00">Join %0 %1</text>
<text text-anchor="start" x="63" y="-248.3" font-family="Times,serif" font-size="14.00">&#45; implementation = Unimplemented</text>
</g>
<!-- node0&#45;&gt;node2 -->
<g id="edge3" class="edge">
<title>node0&#45;&gt;node2</title>
<path fill="none" stroke="black" d="M309.16,-330.31C286.8,-316.99 255.6,-298.4 231.02,-283.75"/>
<polygon fill="black" stroke="black" points="232.67,-280.66 222.29,-278.55 229.09,-286.68 232.67,-280.66"/>
<text text-anchor="start" x="278" y="-300.8" font-family="Times,serif" font-size="14.00">%0</text>
</g>
<!-- node5 -->
<g id="node6" class="node">
<title>node5</title>
<polygon fill="none" stroke="black" points="347,-240.5 347,-278.5 621,-278.5 621,-240.5 347,-240.5"/>
<text text-anchor="start" x="355" y="-263.3" font-family="Times,serif" font-size="14.00">Join %0 %4</text>
<text text-anchor="start" x="355" y="-248.3" font-family="Times,serif" font-size="14.00">&#45; implementation = Unimplemented</text>
</g>
<!-- node0&#45;&gt;node5 -->
<g id="edge1" class="edge">
<title>node0&#45;&gt;node5</title>
<path fill="none" stroke="black" d="M366.84,-330.31C389.2,-316.99 420.4,-298.4 444.98,-283.75"/>
<polygon fill="black" stroke="black" points="446.91,-286.68 453.71,-278.55 443.33,-280.66 446.91,-286.68"/>
<text text-anchor="start" x="419" y="-300.8" font-family="Times,serif" font-size="14.00">%0</text>
</g>
<!-- node1 -->
<g id="node2" class="node">
<title>node1</title>
<polygon fill="none" stroke="black" points="0,-330.5 0,-366.5 272,-366.5 272,-330.5 0,-330.5"/>
<text text-anchor="start" x="8" y="-344.8" font-family="Times,serif" font-size="14.00">Get negate_threshold.public.r (u51)</text>
</g>
<!-- node1&#45;&gt;node2 -->
<g id="edge4" class="edge">
<title>node1&#45;&gt;node2</title>
<path fill="none" stroke="black" d="M147.06,-330.31C154.96,-318.04 165.74,-301.3 174.76,-287.29"/>
<polygon fill="black" stroke="black" points="177.91,-288.85 180.38,-278.55 172.03,-285.07 177.91,-288.85"/>
<text text-anchor="start" x="167" y="-300.8" font-family="Times,serif" font-size="14.00">%1</text>
</g>
<!-- node3 -->
<g id="node4" class="node">
<title>node3</title>
<polygon fill="none" stroke="black" points="155.5,-98 155.5,-181 348.5,-181 348.5,-98 155.5,-98"/>
<text text-anchor="start" x="163.5" y="-165.8" font-family="Times,serif" font-size="14.00">Map #0</text>
<text text-anchor="start" x="163.5" y="-150.8" font-family="Times,serif" font-size="14.00">Map #1</text>
<text text-anchor="start" x="163.5" y="-135.8" font-family="Times,serif" font-size="14.00">Project (#0..=#3)</text>
<text text-anchor="start" x="163.5" y="-120.8" font-family="Times,serif" font-size="14.00">Project (#2, #3)</text>
<text text-anchor="start" x="163.5" y="-105.8" font-family="Times,serif" font-size="14.00">Distinct group=(#0, #1)</text>
</g>
<!-- node2&#45;&gt;node3 -->
<g id="edge7" class="edge">
<title>node2&#45;&gt;node3</title>
<path fill="none" stroke="black" d="M201.24,-240.32C208.02,-227 217.56,-208.23 226.55,-190.56"/>
<polygon fill="black" stroke="black" points="229.77,-191.95 231.18,-181.45 223.53,-188.78 229.77,-191.95"/>
<text text-anchor="start" x="216" y="-210.8" font-family="Times,serif" font-size="14.00">%2</text>
</g>
<!-- node7 -->
<g id="node8" class="node">
<title>node7</title>
<polygon fill="none" stroke="black" points="300.5,-0.5 300.5,-38.5 413.5,-38.5 413.5,-0.5 300.5,-0.5"/>
<text text-anchor="start" x="308.5" y="-23.3" font-family="Times,serif" font-size="14.00">Union %3 %6</text>
<text text-anchor="start" x="308.5" y="-8.3" font-family="Times,serif" font-size="14.00">Threshold</text>
</g>
<!-- node3&#45;&gt;node7 -->
<g id="edge5" class="edge">
<title>node3&#45;&gt;node7</title>
<path fill="none" stroke="black" d="M288.14,-97.89C303.39,-80.75 320.7,-61.3 334.14,-46.19"/>
<polygon fill="black" stroke="black" points="336.76,-48.51 340.79,-38.72 331.53,-43.86 336.76,-48.51"/>
<text text-anchor="start" x="323" y="-60.8" font-family="Times,serif" font-size="14.00">%3</text>
</g>
<!-- node4 -->
<g id="node5" class="node">
<title>node4</title>
<polygon fill="none" stroke="black" points="404,-330.5 404,-366.5 676,-366.5 676,-330.5 404,-330.5"/>
<text text-anchor="start" x="412" y="-344.8" font-family="Times,serif" font-size="14.00">Get negate_threshold.public.s (u52)</text>
</g>
<!-- node4&#45;&gt;node5 -->
<g id="edge2" class="edge">
<title>node4&#45;&gt;node5</title>
<path fill="none" stroke="black" d="M528.94,-330.31C521.04,-318.04 510.26,-301.3 501.24,-287.29"/>
<polygon fill="black" stroke="black" points="503.97,-285.07 495.62,-278.55 498.09,-288.85 503.97,-285.07"/>
<text text-anchor="start" x="517" y="-300.8" font-family="Times,serif" font-size="14.00">%4</text>
</g>
<!-- node6 -->
<g id="node7" class="node">
<title>node6</title>
<polygon fill="none" stroke="black" points="376.5,-90.5 376.5,-188.5 569.5,-188.5 569.5,-90.5 376.5,-90.5"/>
<text text-anchor="start" x="384.5" y="-173.3" font-family="Times,serif" font-size="14.00">Map #0</text>
<text text-anchor="start" x="384.5" y="-158.3" font-family="Times,serif" font-size="14.00">Map #1</text>
<text text-anchor="start" x="384.5" y="-143.3" font-family="Times,serif" font-size="14.00">Project (#0..=#3)</text>
<text text-anchor="start" x="384.5" y="-128.3" font-family="Times,serif" font-size="14.00">Project (#2, #3)</text>
<text text-anchor="start" x="384.5" y="-113.3" font-family="Times,serif" font-size="14.00">Distinct group=(#0, #1)</text>
<text text-anchor="start" x="384.5" y="-98.3" font-family="Times,serif" font-size="14.00">Negate</text>
</g>
<!-- node5&#45;&gt;node6 -->
<g id="edge8" class="edge">
<title>node5&#45;&gt;node6</title>
<path fill="none" stroke="black" d="M482.31,-240.32C481.26,-229.08 479.85,-213.96 478.44,-198.9"/>
<polygon fill="black" stroke="black" points="481.89,-198.15 477.48,-188.52 474.92,-198.8 481.89,-198.15"/>
<text text-anchor="start" x="480" y="-210.8" font-family="Times,serif" font-size="14.00">%5</text>
</g>
<!-- node6&#45;&gt;node7 -->
<g id="edge6" class="edge">
<title>node6&#45;&gt;node7</title>
<path fill="none" stroke="black" d="M425.48,-90.16C410.52,-74.95 394.6,-58.75 381.88,-45.81"/>
<polygon fill="black" stroke="black" points="384.3,-43.27 374.79,-38.6 379.31,-48.18 384.3,-43.27"/>
<text text-anchor="start" x="404" y="-60.8" font-family="Times,serif" font-size="14.00">%6</text>
</g>
</g>
</svg>
