<?xml version="1.0" encoding="UTF-8" standalone="no"?>
<!DOCTYPE svg PUBLIC "-//W3C//DTD SVG 1.1//EN"
 "http://www.w3.org/Graphics/SVG/1.1/DTD/svg11.dtd">
<!-- Generated by graphviz version 2.43.0 (0)
 -->
<!-- Title: G Pages: 1 -->
<svg width="570pt" height="182pt"
 viewBox="0.00 0.00 570.00 182.00" xmlns="http://www.w3.org/2000/svg" xmlns:xlink="http://www.w3.org/1999/xlink">
<g id="graph0" class="graph" transform="scale(1 1) rotate(0) translate(4 178)">
<title>G</title>
<polygon fill="white" stroke="transparent" points="-4,4 -4,-178 566,-178 566,4 -4,4"/>
<!-- node0 -->
<g id="node1" class="node">
<title>node0</title>
<polygon fill="none" stroke="black" points="0,-98 0,-166 272,-166 272,-98 0,-98"/>
<text text-anchor="start" x="8" y="-150.8" font-family="Times,serif" font-size="14.00">Get negate_threshold.public.r (u51)</text>
<text text-anchor="start" x="8" y="-135.8" font-family="Times,serif" font-size="14.00">Map #0, #1</text>
<text text-anchor="start" x="8" y="-120.8" font-family="Times,serif" font-size="14.00">Project (#2, #3)</text>
<text text-anchor="start" x="8" y="-105.8" font-family="Times,serif" font-size="14.00">Distinct</text>
</g>
<!-- node2 -->
<g id="node3" class="node">
<title>node2</title>
<polygon fill="none" stroke="black" points="224.5,-0.5 224.5,-38.5 337.5,-38.5 337.5,-0.5 224.5,-0.5"/>
<text text-anchor="start" x="232.5" y="-23.3" font-family="Times,serif" font-size="14.00">Union %0 %1</text>
<text text-anchor="start" x="232.5" y="-8.3" font-family="Times,serif" font-size="14.00">Threshold</text>
</g>
<!-- node0&#45;&gt;node2 -->
<g id="edge1" class="edge">
<title>node0&#45;&gt;node2</title>
<path fill="none" stroke="black" d="M179.5,-97.85C201.94,-80.75 228.81,-60.27 249.27,-44.68"/>
<polygon fill="black" stroke="black" points="251.5,-47.39 257.33,-38.54 247.25,-41.82 251.5,-47.39"/>
<text text-anchor="start" x="230" y="-60.8" font-family="Times,serif" font-size="14.00">%0</text>
</g>
<!-- node1 -->
<g id="node2" class="node">
<title>node1</title>
<polygon fill="none" stroke="black" points="290,-90.5 290,-173.5 562,-173.5 562,-90.5 290,-90.5"/>
<text text-anchor="start" x="298" y="-158.3" font-family="Times,serif" font-size="14.00">Get negate_threshold.public.s (u52)</text>
<text text-anchor="start" x="298" y="-143.3" font-family="Times,serif" font-size="14.00">Map #0, #1</text>
<text text-anchor="start" x="298" y="-128.3" font-family="Times,serif" font-size="14.00">Project (#2, #3)</text>
<text text-anchor="start" x="298" y="-113.3" font-family="Times,serif" font-size="14.00">Distinct</text>
<text text-anchor="start" x="298" y="-98.3" font-family="Times,serif" font-size="14.00">Negate</text>
</g>
<!-- node1&#45;&gt;node2 -->
<g id="edge2" class="edge">
<title>node1&#45;&gt;node2</title>
<path fill="none" stroke="black" d="M372.83,-90.48C352.83,-75.24 330.7,-58.38 313.19,-45.03"/>
<polygon fill="black" stroke="black" points="315.06,-42.06 304.98,-38.78 310.82,-47.62 315.06,-42.06"/>
<text text-anchor="start" x="345" y="-60.8" font-family="Times,serif" font-size="14.00">%1</text>
</g>
</g>
</svg>
