<?xml version="1.0" encoding="UTF-8" standalone="no"?>
<!DOCTYPE svg PUBLIC "-//W3C//DTD SVG 1.1//EN"
 "http://www.w3.org/Graphics/SVG/1.1/DTD/svg11.dtd">
<!-- Generated by graphviz version 2.43.0 (0)
 -->
<!-- Title: G Pages: 1 -->
<svg width="708pt" height="377pt"
 viewBox="0.00 0.00 708.00 377.00" xmlns="http://www.w3.org/2000/svg" xmlns:xlink="http://www.w3.org/1999/xlink">
<g id="graph0" class="graph" transform="scale(1 1) rotate(0) translate(4 373)">
<title>G</title>
<polygon fill="white" stroke="transparent" points="-4,4 -4,-373 704,-373 704,4 -4,4"/>
<!-- node0 -->
<g id="node1" class="node">
<title>node0</title>
<polygon fill="none" stroke="black" points="0,-158 0,-346 341,-346 341,-158 0,-158"/>
<text text-anchor="start" x="8" y="-330.8" font-family="Times,serif" font-size="14.00">Get negate_threshold.public.r (u51)</text>
<text text-anchor="start" x="8" y="-315.8" font-family="Times,serif" font-size="14.00">&#45; types = (bigint?, integer?)</text>
<text text-anchor="start" x="8" y="-300.8" font-family="Times,serif" font-size="14.00">&#45; keys = ()</text>
<text text-anchor="start" x="8" y="-285.8" font-family="Times,serif" font-size="14.00">Map #0, #1</text>
<text text-anchor="start" x="8" y="-270.8" font-family="Times,serif" font-size="14.00">&#45; types = (bigint?, integer?, bigint?, integer?)</text>
<text text-anchor="start" x="8" y="-255.8" font-family="Times,serif" font-size="14.00">&#45; keys = ()</text>
<text text-anchor="start" x="8" y="-240.8" font-family="Times,serif" font-size="14.00">Project (#2, #3)</text>
<text text-anchor="start" x="8" y="-225.8" font-family="Times,serif" font-size="14.00">&#45; types = (bigint?, integer?)</text>
<text text-anchor="start" x="8" y="-210.8" font-family="Times,serif" font-size="14.00">&#45; keys = ()</text>
<text text-anchor="start" x="8" y="-195.8" font-family="Times,serif" font-size="14.00">Distinct</text>
<text text-anchor="start" x="8" y="-180.8" font-family="Times,serif" font-size="14.00">&#45; types = (bigint?, integer?)</text>
<text text-anchor="start" x="8" y="-165.8" font-family="Times,serif" font-size="14.00">&#45; keys = ()</text>
</g>
<!-- node2 -->
<g id="node3" class="node">
<title>node2</title>
<polygon fill="none" stroke="black" points="211.5,-0.5 211.5,-83.5 487.5,-83.5 487.5,-0.5 211.5,-0.5"/>
<text text-anchor="start" x="219.5" y="-68.3" font-family="Times,serif" font-size="14.00">Union %0 %1</text>
<text text-anchor="start" x="219.5" y="-53.3" font-family="Times,serif" font-size="14.00">&#45; types = (bigint?, integer?)</text>
<text text-anchor="start" x="219.5" y="-38.3" font-family="Times,serif" font-size="14.00">&#45; keys = ()</text>
<text text-anchor="start" x="219.5" y="-23.3" font-family="Times,serif" font-size="14.00">Thresholdtypes = (bigint?, integer?)</text>
<text text-anchor="start" x="219.5" y="-8.3" font-family="Times,serif" font-size="14.00">&#45; keys = ()</text>
</g>
<!-- node0&#45;&gt;node2 -->
<g id="edge1" class="edge">
<title>node0&#45;&gt;node2</title>
<path fill="none" stroke="black" d="M250.58,-157.95C270.38,-134.94 290.81,-111.2 307.92,-91.32"/>
<polygon fill="black" stroke="black" points="310.68,-93.47 314.55,-83.61 305.37,-88.91 310.68,-93.47"/>
<text text-anchor="start" x="297.5" y="-105.8" font-family="Times,serif" font-size="14.00">%0</text>
</g>
<!-- node1 -->
<g id="node2" class="node">
<title>node1</title>
<polygon fill="none" stroke="black" points="359,-135.5 359,-368.5 700,-368.5 700,-135.5 359,-135.5"/>
<text text-anchor="start" x="367" y="-353.3" font-family="Times,serif" font-size="14.00">Get negate_threshold.public.s (u52)</text>
<text text-anchor="start" x="367" y="-338.3" font-family="Times,serif" font-size="14.00">&#45; types = (bigint?, integer?)</text>
<text text-anchor="start" x="367" y="-323.3" font-family="Times,serif" font-size="14.00">&#45; keys = ()</text>
<text text-anchor="start" x="367" y="-308.3" font-family="Times,serif" font-size="14.00">Map #0, #1</text>
<text text-anchor="start" x="367" y="-293.3" font-family="Times,serif" font-size="14.00">&#45; types = (bigint?, integer?, bigint?, integer?)</text>
<text text-anchor="start" x="367" y="-278.3" font-family="Times,serif" font-size="14.00">&#45; keys = ()</text>
<text text-anchor="start" x="367" y="-263.3" font-family="Times,serif" font-size="14.00">Project (#2, #3)</text>
<text text-anchor="start" x="367" y="-248.3" font-family="Times,serif" font-size="14.00">&#45; types = (bigint?, integer?)</text>
<text text-anchor="start" x="367" y="-233.3" font-family="Times,serif" font-size="14.00">&#45; keys = ()</text>
<text text-anchor="start" x="367" y="-218.3" font-family="Times,serif" font-size="14.00">Distinct</text>
<text text-anchor="start" x="367" y="-203.3" font-family="Times,serif" font-size="14.00">&#45; types = (bigint?, integer?)</text>
<text text-anchor="start" x="367" y="-188.3" font-family="Times,serif" font-size="14.00">&#45; keys = ()</text>
<text text-anchor="start" x="367" y="-173.3" font-family="Times,serif" font-size="14.00">Negate</text>
<text text-anchor="start" x="367" y="-158.3" font-family="Times,serif" font-size="14.00">&#45; types = (bigint?, integer?)</text>
<text text-anchor="start" x="367" y="-143.3" font-family="Times,serif" font-size="14.00">&#45; keys = ()</text>
</g>
<!-- node1&#45;&gt;node2 -->
<g id="edge2" class="edge">
<title>node1&#45;&gt;node2</title>
<path fill="none" stroke="black" d="M429.5,-135.44C416.11,-119.97 403.01,-104.84 391.42,-91.44"/>
<polygon fill="black" stroke="black" points="393.97,-89.04 384.78,-83.77 388.68,-93.62 393.97,-89.04"/>
<text text-anchor="start" x="413.5" y="-105.8" font-family="Times,serif" font-size="14.00">%1</text>
</g>
</g>
</svg>
