<?xml version="1.0" encoding="UTF-8" standalone="no"?>
<!DOCTYPE svg PUBLIC "-//W3C//DTD SVG 1.1//EN"
 "http://www.w3.org/Graphics/SVG/1.1/DTD/svg11.dtd">
<!-- Generated by graphviz version 2.43.0 (0)
 -->
<!-- Title: G Pages: 1 -->
<svg width="708pt" height="692pt"
 viewBox="0.00 0.00 708.00 692.00" xmlns="http://www.w3.org/2000/svg" xmlns:xlink="http://www.w3.org/1999/xlink">
<g id="graph0" class="graph" transform="scale(1 1) rotate(0) translate(4 688)">
<title>G</title>
<polygon fill="white" stroke="transparent" points="-4,4 -4,-688 704,-688 704,4 -4,4"/>
<!-- node0 -->
<g id="node1" class="node">
<title>node0</title>
<polygon fill="none" stroke="black" points="299.5,-630.5 299.5,-683.5 399.5,-683.5 399.5,-630.5 299.5,-630.5"/>
<text text-anchor="start" x="307.5" y="-668.3" font-family="Times,serif" font-size="14.00">Constant ()</text>
<text text-anchor="start" x="307.5" y="-653.3" font-family="Times,serif" font-size="14.00">&#45; types = ()</text>
<text text-anchor="start" x="307.5" y="-638.3" font-family="Times,serif" font-size="14.00">&#45; keys = (())</text>
</g>
<!-- node2 -->
<g id="node3" class="node">
<title>node2</title>
<polygon fill="none" stroke="black" points="33.5,-510.5 33.5,-578.5 307.5,-578.5 307.5,-510.5 33.5,-510.5"/>
<text text-anchor="start" x="41.5" y="-563.3" font-family="Times,serif" font-size="14.00">Join %0 %1</text>
<text text-anchor="start" x="41.5" y="-548.3" font-family="Times,serif" font-size="14.00">&#45; implementation = Unimplemented</text>
<text text-anchor="start" x="41.5" y="-533.3" font-family="Times,serif" font-size="14.00">&#45; types = (bigint?, integer?)</text>
<text text-anchor="start" x="41.5" y="-518.3" font-family="Times,serif" font-size="14.00">&#45; keys = ()</text>
</g>
<!-- node0&#45;&gt;node2 -->
<g id="edge3" class="edge">
<title>node0&#45;&gt;node2</title>
<path fill="none" stroke="black" d="M307.98,-630.37C285.63,-616.57 257.6,-599.27 232.69,-583.89"/>
<polygon fill="black" stroke="black" points="234.37,-580.82 224.02,-578.54 230.69,-586.77 234.37,-580.82"/>
<text text-anchor="start" x="275.5" y="-600.8" font-family="Times,serif" font-size="14.00">%0</text>
</g>
<!-- node5 -->
<g id="node6" class="node">
<title>node5</title>
<polygon fill="none" stroke="black" points="392.5,-510.5 392.5,-578.5 666.5,-578.5 666.5,-510.5 392.5,-510.5"/>
<text text-anchor="start" x="400.5" y="-563.3" font-family="Times,serif" font-size="14.00">Join %0 %4</text>
<text text-anchor="start" x="400.5" y="-548.3" font-family="Times,serif" font-size="14.00">&#45; implementation = Unimplemented</text>
<text text-anchor="start" x="400.5" y="-533.3" font-family="Times,serif" font-size="14.00">&#45; types = (bigint?, integer?)</text>
<text text-anchor="start" x="400.5" y="-518.3" font-family="Times,serif" font-size="14.00">&#45; keys = ()</text>
</g>
<!-- node0&#45;&gt;node5 -->
<g id="edge1" class="edge">
<title>node0&#45;&gt;node5</title>
<path fill="none" stroke="black" d="M391.25,-630.37C413.73,-616.57 441.92,-599.27 466.96,-583.89"/>
<polygon fill="black" stroke="black" points="468.99,-586.76 475.68,-578.54 465.32,-580.79 468.99,-586.76"/>
<text text-anchor="start" x="444.5" y="-600.8" font-family="Times,serif" font-size="14.00">%0</text>
</g>
<!-- node1 -->
<g id="node2" class="node">
<title>node1</title>
<polygon fill="none" stroke="black" points="9.5,-630.5 9.5,-683.5 281.5,-683.5 281.5,-630.5 9.5,-630.5"/>
<text text-anchor="start" x="17.5" y="-668.3" font-family="Times,serif" font-size="14.00">Get negate_threshold.public.r (u51)</text>
<text text-anchor="start" x="17.5" y="-653.3" font-family="Times,serif" font-size="14.00">&#45; types = (bigint?, integer?)</text>
<text text-anchor="start" x="17.5" y="-638.3" font-family="Times,serif" font-size="14.00">&#45; keys = ()</text>
</g>
<!-- node1&#45;&gt;node2 -->
<g id="edge4" class="edge">
<title>node1&#45;&gt;node2</title>
<path fill="none" stroke="black" d="M151.3,-630.37C154.11,-617.96 157.56,-602.71 160.75,-588.58"/>
<polygon fill="black" stroke="black" points="164.23,-589.07 163.02,-578.54 157.4,-587.52 164.23,-589.07"/>
<text text-anchor="start" x="158.5" y="-600.8" font-family="Times,serif" font-size="14.00">%1</text>
</g>
<!-- node3 -->
<g id="node4" class="node">
<title>node3</title>
<polygon fill="none" stroke="black" points="0,-173 0,-436 341,-436 341,-173 0,-173"/>
<text text-anchor="start" x="8" y="-420.8" font-family="Times,serif" font-size="14.00">&#45; types = (bigint?, integer?)</text>
<text text-anchor="start" x="8" y="-405.8" font-family="Times,serif" font-size="14.00">&#45; keys = ()</text>
<text text-anchor="start" x="8" y="-390.8" font-family="Times,serif" font-size="14.00">Map #0</text>
<text text-anchor="start" x="8" y="-375.8" font-family="Times,serif" font-size="14.00">&#45; types = (bigint?, integer?, bigint?)</text>
<text text-anchor="start" x="8" y="-360.8" font-family="Times,serif" font-size="14.00">&#45; keys = ()</text>
<text text-anchor="start" x="8" y="-345.8" font-family="Times,serif" font-size="14.00">Map #1</text>
<text text-anchor="start" x="8" y="-330.8" font-family="Times,serif" font-size="14.00">&#45; types = (bigint?, integer?, bigint?, integer?)</text>
<text text-anchor="start" x="8" y="-315.8" font-family="Times,serif" font-size="14.00">&#45; keys = ()</text>
<text text-anchor="start" x="8" y="-300.8" font-family="Times,serif" font-size="14.00">Project (#0..=#3)</text>
<text text-anchor="start" x="8" y="-285.8" font-family="Times,serif" font-size="14.00">&#45; types = (bigint?, integer?, bigint?, integer?)</text>
<text text-anchor="start" x="8" y="-270.8" font-family="Times,serif" font-size="14.00">&#45; keys = ()</text>
<text text-anchor="start" x="8" y="-255.8" font-family="Times,serif" font-size="14.00">Project (#2, #3)</text>
<text text-anchor="start" x="8" y="-240.8" font-family="Times,serif" font-size="14.00">&#45; types = (bigint?, integer?)</text>
<text text-anchor="start" x="8" y="-225.8" font-family="Times,serif" font-size="14.00">&#45; keys = ()</text>
<text text-anchor="start" x="8" y="-210.8" font-family="Times,serif" font-size="14.00">Distinct group=(#0, #1)</text>
<text text-anchor="start" x="8" y="-195.8" font-family="Times,serif" font-size="14.00">&#45; types = (bigint?, integer?)</text>
<text text-anchor="start" x="8" y="-180.8" font-family="Times,serif" font-size="14.00">&#45; keys = ((#0, #1))</text>
</g>
<!-- node2&#45;&gt;node3 -->
<g id="edge7" class="edge">
<title>node2&#45;&gt;node3</title>
<path fill="none" stroke="black" d="M170.5,-510.41C170.5,-492.97 170.5,-470.27 170.5,-446.35"/>
<polygon fill="black" stroke="black" points="174,-446.03 170.5,-436.03 167,-446.03 174,-446.03"/>
<text text-anchor="start" x="170.5" y="-480.8" font-family="Times,serif" font-size="14.00">%2</text>
</g>
<!-- node7 -->
<g id="node8" class="node">
<title>node7</title>
<polygon fill="none" stroke="black" points="242.5,-0.5 242.5,-98.5 456.5,-98.5 456.5,-0.5 242.5,-0.5"/>
<text text-anchor="start" x="250.5" y="-83.3" font-family="Times,serif" font-size="14.00">Union %3 %6</text>
<text text-anchor="start" x="250.5" y="-68.3" font-family="Times,serif" font-size="14.00">&#45; types = (bigint?, integer?)</text>
<text text-anchor="start" x="250.5" y="-53.3" font-family="Times,serif" font-size="14.00">&#45; keys = ()</text>
<text text-anchor="start" x="250.5" y="-38.3" font-family="Times,serif" font-size="14.00">Threshold</text>
<text text-anchor="start" x="250.5" y="-23.3" font-family="Times,serif" font-size="14.00">&#45; types = (bigint?, integer?)</text>
<text text-anchor="start" x="250.5" y="-8.3" font-family="Times,serif" font-size="14.00">&#45; keys = ()</text>
</g>
<!-- node3&#45;&gt;node7 -->
<g id="edge5" class="edge">
<title>node3&#45;&gt;node7</title>
<path fill="none" stroke="black" d="M262.88,-172.92C279.34,-149.67 295.67,-126.59 309.63,-106.85"/>
<polygon fill="black" stroke="black" points="312.55,-108.79 315.47,-98.6 306.83,-104.74 312.55,-108.79"/>
<text text-anchor="start" x="300.5" y="-120.8" font-family="Times,serif" font-size="14.00">%3</text>
</g>
<!-- node4 -->
<g id="node5" class="node">
<title>node4</title>
<polygon fill="none" stroke="black" points="417.5,-630.5 417.5,-683.5 689.5,-683.5 689.5,-630.5 417.5,-630.5"/>
<text text-anchor="start" x="425.5" y="-668.3" font-family="Times,serif" font-size="14.00">Get negate_threshold.public.s (u52)</text>
<text text-anchor="start" x="425.5" y="-653.3" font-family="Times,serif" font-size="14.00">&#45; types = (bigint?, integer?)</text>
<text text-anchor="start" x="425.5" y="-638.3" font-family="Times,serif" font-size="14.00">&#45; keys = ()</text>
</g>
<!-- node4&#45;&gt;node5 -->
<g id="edge2" class="edge">
<title>node4&#45;&gt;node5</title>
<path fill="none" stroke="black" d="M547.93,-630.37C545.24,-617.96 541.93,-602.71 538.86,-588.58"/>
<polygon fill="black" stroke="black" points="542.22,-587.57 536.68,-578.54 535.38,-589.06 542.22,-587.57"/>
<text text-anchor="start" x="543.5" y="-600.8" font-family="Times,serif" font-size="14.00">%4</text>
</g>
<!-- node6 -->
<g id="node7" class="node">
<title>node6</title>
<polygon fill="none" stroke="black" points="359,-150.5 359,-458.5 700,-458.5 700,-150.5 359,-150.5"/>
<text text-anchor="start" x="367" y="-443.3" font-family="Times,serif" font-size="14.00">&#45; types = (bigint?, integer?)</text>
<text text-anchor="start" x="367" y="-428.3" font-family="Times,serif" font-size="14.00">&#45; keys = ()</text>
<text text-anchor="start" x="367" y="-413.3" font-family="Times,serif" font-size="14.00">Map #0</text>
<text text-anchor="start" x="367" y="-398.3" font-family="Times,serif" font-size="14.00">&#45; types = (bigint?, integer?, bigint?)</text>
<text text-anchor="start" x="367" y="-383.3" font-family="Times,serif" font-size="14.00">&#45; keys = ()</text>
<text text-anchor="start" x="367" y="-368.3" font-family="Times,serif" font-size="14.00">Map #1</text>
<text text-anchor="start" x="367" y="-353.3" font-family="Times,serif" font-size="14.00">&#45; types = (bigint?, integer?, bigint?, integer?)</text>
<text text-anchor="start" x="367" y="-338.3" font-family="Times,serif" font-size="14.00">&#45; keys = ()</text>
<text text-anchor="start" x="367" y="-323.3" font-family="Times,serif" font-size="14.00">Project (#0..=#3)</text>
<text text-anchor="start" x="367" y="-308.3" font-family="Times,serif" font-size="14.00">&#45; types = (bigint?, integer?, bigint?, integer?)</text>
<text text-anchor="start" x="367" y="-293.3" font-family="Times,serif" font-size="14.00">&#45; keys = ()</text>
<text text-anchor="start" x="367" y="-278.3" font-family="Times,serif" font-size="14.00">Project (#2, #3)</text>
<text text-anchor="start" x="367" y="-263.3" font-family="Times,serif" font-size="14.00">&#45; types = (bigint?, integer?)</text>
<text text-anchor="start" x="367" y="-248.3" font-family="Times,serif" font-size="14.00">&#45; keys = ()</text>
<text text-anchor="start" x="367" y="-233.3" font-family="Times,serif" font-size="14.00">Distinct group=(#0, #1)</text>
<text text-anchor="start" x="367" y="-218.3" font-family="Times,serif" font-size="14.00">&#45; types = (bigint?, integer?)</text>
<text text-anchor="start" x="367" y="-203.3" font-family="Times,serif" font-size="14.00">&#45; keys = ((#0, #1))</text>
<text text-anchor="start" x="367" y="-188.3" font-family="Times,serif" font-size="14.00">Negate</text>
<text text-anchor="start" x="367" y="-173.3" font-family="Times,serif" font-size="14.00">&#45; types = (bigint?, integer?)</text>
<text text-anchor="start" x="367" y="-158.3" font-family="Times,serif" font-size="14.00">&#45; keys = ()</text>
</g>
<!-- node5&#45;&gt;node6 -->
<g id="edge8" class="edge">
<title>node5&#45;&gt;node6</title>
<path fill="none" stroke="black" d="M529.5,-510.41C529.5,-498.57 529.5,-484.3 529.5,-468.87"/>
<polygon fill="black" stroke="black" points="533,-468.57 529.5,-458.57 526,-468.57 533,-468.57"/>
<text text-anchor="start" x="529.5" y="-480.8" font-family="Times,serif" font-size="14.00">%5</text>
</g>
<!-- node6&#45;&gt;node7 -->
<g id="edge6" class="edge">
<title>node6&#45;&gt;node7</title>
<path fill="none" stroke="black" d="M420.64,-150.49C409.77,-135.21 399.28,-120.47 389.85,-107.22"/>
<polygon fill="black" stroke="black" points="392.47,-104.85 383.82,-98.73 386.76,-108.91 392.47,-104.85"/>
<text text-anchor="start" x="402.5" y="-120.8" font-family="Times,serif" font-size="14.00">%6</text>
</g>
</g>
</svg>
