<?xml version="1.0" encoding="UTF-8" standalone="no"?>
<!DOCTYPE svg PUBLIC "-//W3C//DTD SVG 1.1//EN"
 "http://www.w3.org/Graphics/SVG/1.1/DTD/svg11.dtd">
<!-- Generated by graphviz version 2.43.0 (0)
 -->
<!-- Title: G Pages: 1 -->
<svg width="570pt" height="302pt"
 viewBox="0.00 0.00 570.00 302.00" xmlns="http://www.w3.org/2000/svg" xmlns:xlink="http://www.w3.org/1999/xlink">
<g id="graph0" class="graph" transform="scale(1 1) rotate(0) translate(4 298)">
<title>G</title>
<polygon fill="white" stroke="transparent" points="-4,4 -4,-298 566,-298 566,4 -4,4"/>
<!-- node0 -->
<g id="node1" class="node">
<title>node0</title>
<polygon fill="none" stroke="black" points="0,-173 0,-271 272,-271 272,-173 0,-173"/>
<text text-anchor="start" x="8" y="-255.8" font-family="Times,serif" font-size="14.00">Get negate_threshold.public.r (u51)</text>
<text text-anchor="start" x="8" y="-240.8" font-family="Times,serif" font-size="14.00">&#45; types = (bigint?, integer?)</text>
<text text-anchor="start" x="8" y="-225.8" font-family="Times,serif" font-size="14.00">&#45; keys = ()</text>
<text text-anchor="start" x="8" y="-210.8" font-family="Times,serif" font-size="14.00">Distinct group=(#0, #1)</text>
<text text-anchor="start" x="8" y="-195.8" font-family="Times,serif" font-size="14.00">&#45; types = (bigint?, integer?)</text>
<text text-anchor="start" x="8" y="-180.8" font-family="Times,serif" font-size="14.00">&#45; keys = ((#0, #1))</text>
</g>
<!-- node2 -->
<g id="node3" class="node">
<title>node2</title>
<polygon fill="none" stroke="black" points="174,-0.5 174,-98.5 388,-98.5 388,-0.5 174,-0.5"/>
<text text-anchor="start" x="182" y="-83.3" font-family="Times,serif" font-size="14.00">Union %0 %1</text>
<text text-anchor="start" x="182" y="-68.3" font-family="Times,serif" font-size="14.00">&#45; types = (bigint?, integer?)</text>
<text text-anchor="start" x="182" y="-53.3" font-family="Times,serif" font-size="14.00">&#45; keys = ()</text>
<text text-anchor="start" x="182" y="-38.3" font-family="Times,serif" font-size="14.00">Threshold</text>
<text text-anchor="start" x="182" y="-23.3" font-family="Times,serif" font-size="14.00">&#45; types = (bigint?, integer?)</text>
<text text-anchor="start" x="182" y="-8.3" font-family="Times,serif" font-size="14.00">&#45; keys = ()</text>
</g>
<!-- node0&#45;&gt;node2 -->
<g id="edge1" class="edge">
<title>node0&#45;&gt;node2</title>
<path fill="none" stroke="black" d="M177.16,-172.6C194.69,-151.99 215.24,-127.83 233.41,-106.46"/>
<polygon fill="black" stroke="black" points="236.17,-108.61 239.98,-98.73 230.84,-104.08 236.17,-108.61"/>
<text text-anchor="start" x="222" y="-120.8" font-family="Times,serif" font-size="14.00">%0</text>
</g>
<!-- node1 -->
<g id="node2" class="node">
<title>node1</title>
<polygon fill="none" stroke="black" points="290,-150.5 290,-293.5 562,-293.5 562,-150.5 290,-150.5"/>
<text text-anchor="start" x="298" y="-278.3" font-family="Times,serif" font-size="14.00">Get negate_threshold.public.s (u52)</text>
<text text-anchor="start" x="298" y="-263.3" font-family="Times,serif" font-size="14.00">&#45; types = (bigint?, integer?)</text>
<text text-anchor="start" x="298" y="-248.3" font-family="Times,serif" font-size="14.00">&#45; keys = ()</text>
<text text-anchor="start" x="298" y="-233.3" font-family="Times,serif" font-size="14.00">Distinct group=(#0, #1)</text>
<text text-anchor="start" x="298" y="-218.3" font-family="Times,serif" font-size="14.00">&#45; types = (bigint?, integer?)</text>
<text text-anchor="start" x="298" y="-203.3" font-family="Times,serif" font-size="14.00">&#45; keys = ((#0, #1))</text>
<text text-anchor="start" x="298" y="-188.3" font-family="Times,serif" font-size="14.00">Negate</text>
<text text-anchor="start" x="298" y="-173.3" font-family="Times,serif" font-size="14.00">&#45; types = (bigint?, integer?)</text>
<text text-anchor="start" x="298" y="-158.3" font-family="Times,serif" font-size="14.00">&#45; keys = ()</text>
</g>
<!-- node1&#45;&gt;node2 -->
<g id="edge2" class="edge">
<title>node1&#45;&gt;node2</title>
<path fill="none" stroke="black" d="M365.77,-150.17C353.29,-135.51 340.32,-120.25 328.38,-106.22"/>
<polygon fill="black" stroke="black" points="331.01,-103.91 321.87,-98.56 325.68,-108.44 331.01,-103.91"/>
<text text-anchor="start" x="350" y="-120.8" font-family="Times,serif" font-size="14.00">%1</text>
</g>
</g>
</svg>
