<?xml version="1.0" encoding="UTF-8" standalone="no"?>
<!DOCTYPE svg PUBLIC "-//W3C//DTD SVG 1.1//EN"
 "http://www.w3.org/Graphics/SVG/1.1/DTD/svg11.dtd">
<!-- Generated by graphviz version 2.43.0 (0)
 -->
<!-- Title: G Pages: 1 -->
<svg width="825pt" height="1059pt"
 viewBox="0.00 0.00 824.50 1059.00" xmlns="http://www.w3.org/2000/svg" xmlns:xlink="http://www.w3.org/1999/xlink">
<g id="graph0" class="graph" transform="scale(1 1) rotate(0) translate(4 1055)">
<title>G</title>
<polygon fill="white" stroke="transparent" points="-4,4 -4,-1055 820.5,-1055 820.5,4 -4,4"/>
<!-- node0 -->
<g id="node1" class="node">
<title>node0</title>
<polygon fill="none" stroke="black" points="715.5,-458 715.5,-496 816.5,-496 816.5,-458 715.5,-458"/>
<text text-anchor="start" x="723.5" y="-480.8" font-family="Times,serif" font-size="14.00">Let l0 =</text>
<text text-anchor="start" x="723.5" y="-465.8" font-family="Times,serif" font-size="14.00"> Constant ()</text>
</g>
<!-- node2 -->
<g id="node3" class="node">
<title>node2</title>
<polygon fill="none" stroke="black" points="529.5,-345.5 529.5,-398.5 798.5,-398.5 798.5,-345.5 529.5,-345.5"/>
<text text-anchor="start" x="537.5" y="-383.3" font-family="Times,serif" font-size="14.00">Let l1 =</text>
<text text-anchor="start" x="537.5" y="-368.3" font-family="Times,serif" font-size="14.00"> Join %0 %1</text>
<text text-anchor="start" x="537.5" y="-353.3" font-family="Times,serif" font-size="14.00"> implementation = Unimplemented</text>
</g>
<!-- node0&#45;&gt;node2 -->
<g id="edge16" class="edge">
<title>node0&#45;&gt;node2</title>
<path fill="none" stroke="black" d="M747.76,-457.59C733.52,-443.21 713.38,-422.86 696.41,-405.73"/>
<polygon fill="black" stroke="black" points="698.88,-403.25 689.36,-398.61 693.91,-408.17 698.88,-403.25"/>
<text text-anchor="start" x="721" y="-420.8" font-family="Times,serif" font-size="14.00">%0</text>
</g>
<!-- node1 -->
<g id="node2" class="node">
<title>node1</title>
<polygon fill="none" stroke="black" points="493,-459 493,-495 697,-495 697,-459 493,-459"/>
<text text-anchor="start" x="501" y="-473.3" font-family="Times,serif" font-size="14.00">Get types.public.t2 (u141)</text>
</g>
<!-- node1&#45;&gt;node2 -->
<g id="edge11" class="edge">
<title>node1&#45;&gt;node2</title>
<path fill="none" stroke="black" d="M606.39,-458.99C615.78,-444.98 629.39,-424.66 641.03,-407.29"/>
<polygon fill="black" stroke="black" points="644.24,-408.78 646.9,-398.53 638.43,-404.89 644.24,-408.78"/>
<text text-anchor="start" x="633" y="-420.8" font-family="Times,serif" font-size="14.00">%1</text>
</g>
<!-- node3 -->
<g id="node4" class="node">
<title>node3</title>
<polygon fill="none" stroke="black" points="464.5,-240.5 464.5,-293.5 661.5,-293.5 661.5,-240.5 464.5,-240.5"/>
<text text-anchor="start" x="472.5" y="-278.3" font-family="Times,serif" font-size="14.00">Let l2 =</text>
<text text-anchor="start" x="472.5" y="-263.3" font-family="Times,serif" font-size="14.00"> Get %2 (l1)</text>
<text text-anchor="start" x="472.5" y="-248.3" font-family="Times,serif" font-size="14.00"> Distinct group=(#0, #1)</text>
</g>
<!-- node2&#45;&gt;node3 -->
<g id="edge15" class="edge">
<title>node2&#45;&gt;node3</title>
<path fill="none" stroke="black" d="M638.77,-345.27C625.64,-331.88 609.43,-315.35 595.38,-301.02"/>
<polygon fill="black" stroke="black" points="597.75,-298.44 588.25,-293.75 592.76,-303.35 597.75,-298.44"/>
<text text-anchor="start" x="619" y="-315.8" font-family="Times,serif" font-size="14.00">%2</text>
</g>
<!-- node17 -->
<g id="node18" class="node">
<title>node17</title>
<polygon fill="none" stroke="black" points="473.5,-0.5 473.5,-83.5 742.5,-83.5 742.5,-0.5 473.5,-0.5"/>
<text text-anchor="start" x="481.5" y="-68.3" font-family="Times,serif" font-size="14.00">Join %2 %16 (= #0 #2) (= #1 #3)</text>
<text text-anchor="start" x="481.5" y="-53.3" font-family="Times,serif" font-size="14.00"> implementation = Unimplemented</text>
<text text-anchor="start" x="481.5" y="-38.3" font-family="Times,serif" font-size="14.00"> Map #4</text>
<text text-anchor="start" x="481.5" y="-23.3" font-family="Times,serif" font-size="14.00"> Project (#0, #1, #5)</text>
<text text-anchor="start" x="481.5" y="-8.3" font-family="Times,serif" font-size="14.00"> Project (#2)</text>
</g>
<!-- node2&#45;&gt;node17 -->
<g id="edge1" class="edge">
<title>node2&#45;&gt;node17</title>
<path fill="none" stroke="black" d="M670.04,-345.47C679.33,-301.38 693.79,-208.61 671,-135 666.35,-119.98 658.31,-105.23 649.5,-92.1"/>
<polygon fill="black" stroke="black" points="652.23,-89.89 643.63,-83.71 646.5,-93.91 652.23,-89.89"/>
<text text-anchor="start" x="683" y="-210.8" font-family="Times,serif" font-size="14.00">%2</text>
</g>
<!-- node16 -->
<g id="node17" class="node">
<title>node16</title>
<polygon fill="none" stroke="black" points="392.5,-135.5 392.5,-188.5 661.5,-188.5 661.5,-135.5 392.5,-135.5"/>
<text text-anchor="start" x="400.5" y="-173.3" font-family="Times,serif" font-size="14.00">Join %3 %15</text>
<text text-anchor="start" x="400.5" y="-158.3" font-family="Times,serif" font-size="14.00"> implementation = Unimplemented</text>
<text text-anchor="start" x="400.5" y="-143.3" font-family="Times,serif" font-size="14.00"> Project (#0..=#2)</text>
</g>
<!-- node3&#45;&gt;node16 -->
<g id="edge5" class="edge">
<title>node3&#45;&gt;node16</title>
<path fill="none" stroke="black" d="M554.01,-240.27C549.58,-227.62 544.18,-212.16 539.37,-198.4"/>
<polygon fill="black" stroke="black" points="542.61,-197.04 536,-188.75 536,-199.35 542.61,-197.04"/>
<text text-anchor="start" x="548" y="-210.8" font-family="Times,serif" font-size="14.00">%3</text>
</g>
<!-- node4 -->
<g id="node5" class="node">
<title>node4</title>
<polygon fill="none" stroke="black" points="188.5,-1012.5 188.5,-1050.5 289.5,-1050.5 289.5,-1012.5 188.5,-1012.5"/>
<text text-anchor="start" x="196.5" y="-1035.3" font-family="Times,serif" font-size="14.00">Let l3 =</text>
<text text-anchor="start" x="196.5" y="-1020.3" font-family="Times,serif" font-size="14.00"> Constant ()</text>
</g>
<!-- node6 -->
<g id="node7" class="node">
<title>node6</title>
<polygon fill="none" stroke="black" points="273.5,-877.5 273.5,-960.5 542.5,-960.5 542.5,-877.5 273.5,-877.5"/>
<text text-anchor="start" x="281.5" y="-945.3" font-family="Times,serif" font-size="14.00">Join %4 %5</text>
<text text-anchor="start" x="281.5" y="-930.3" font-family="Times,serif" font-size="14.00"> implementation = Unimplemented</text>
<text text-anchor="start" x="281.5" y="-915.3" font-family="Times,serif" font-size="14.00"> Filter (#0 = 42)</text>
<text text-anchor="start" x="281.5" y="-900.3" font-family="Times,serif" font-size="14.00"> Project (#1)</text>
<text text-anchor="start" x="281.5" y="-885.3" font-family="Times,serif" font-size="14.00"> Distinct group=()</text>
</g>
<!-- node4&#45;&gt;node6 -->
<g id="edge2" class="edge">
<title>node4&#45;&gt;node6</title>
<path fill="none" stroke="black" d="M266.91,-1012.25C286.11,-999.7 312.53,-982.42 337.33,-966.21"/>
<polygon fill="black" stroke="black" points="339.56,-968.93 346.01,-960.53 335.73,-963.07 339.56,-968.93"/>
<text text-anchor="start" x="314" y="-982.8" font-family="Times,serif" font-size="14.00">%4</text>
</g>
<!-- node10 -->
<g id="node11" class="node">
<title>node10</title>
<polygon fill="none" stroke="black" points="193,-820.5 193,-858.5 339,-858.5 339,-820.5 193,-820.5"/>
<text text-anchor="start" x="201" y="-843.3" font-family="Times,serif" font-size="14.00">Get %4 (l3)</text>
<text text-anchor="start" x="201" y="-828.3" font-family="Times,serif" font-size="14.00"> Distinct group=()</text>
</g>
<!-- node4&#45;&gt;node10 -->
<g id="edge19" class="edge">
<title>node4&#45;&gt;node10</title>
<path fill="none" stroke="black" d="M241.59,-1012.28C246.32,-979.02 256.38,-908.23 261.99,-868.7"/>
<polygon fill="black" stroke="black" points="265.48,-869.06 263.42,-858.66 258.55,-868.07 265.48,-869.06"/>
<text text-anchor="start" x="246" y="-982.8" font-family="Times,serif" font-size="14.00">%4</text>
</g>
<!-- node12 -->
<g id="node13" class="node">
<title>node12</title>
<polygon fill="none" stroke="black" points="148.5,-450.5 148.5,-503.5 417.5,-503.5 417.5,-450.5 148.5,-450.5"/>
<text text-anchor="start" x="156.5" y="-488.3" font-family="Times,serif" font-size="14.00">Join %11 %4</text>
<text text-anchor="start" x="156.5" y="-473.3" font-family="Times,serif" font-size="14.00"> implementation = Unimplemented</text>
<text text-anchor="start" x="156.5" y="-458.3" font-family="Times,serif" font-size="14.00"> Project ()</text>
</g>
<!-- node4&#45;&gt;node12 -->
<g id="edge10" class="edge">
<title>node4&#45;&gt;node12</title>
<path fill="none" stroke="black" d="M221.36,-1012.24C203.34,-991.61 178,-956.16 178,-920 178,-920 178,-920 178,-572.5 178,-545.75 197.06,-524.64 218.94,-509.22"/>
<polygon fill="black" stroke="black" points="221.03,-512.04 227.43,-503.59 217.16,-506.2 221.03,-512.04"/>
<text text-anchor="start" x="178" y="-718.8" font-family="Times,serif" font-size="14.00">%4</text>
</g>
<!-- node5 -->
<g id="node6" class="node">
<title>node5</title>
<polygon fill="none" stroke="black" points="308,-1013.5 308,-1049.5 512,-1049.5 512,-1013.5 308,-1013.5"/>
<text text-anchor="start" x="316" y="-1027.8" font-family="Times,serif" font-size="14.00">Get types.public.t1 (u139)</text>
</g>
<!-- node5&#45;&gt;node6 -->
<g id="edge3" class="edge">
<title>node5&#45;&gt;node6</title>
<path fill="none" stroke="black" d="M409.69,-1013.23C409.48,-1001.79 409.2,-986.14 408.92,-970.92"/>
<polygon fill="black" stroke="black" points="412.41,-970.45 408.73,-960.52 405.42,-970.58 412.41,-970.45"/>
<text text-anchor="start" x="410" y="-982.8" font-family="Times,serif" font-size="14.00">%5</text>
</g>
<!-- node8 -->
<g id="node9" class="node">
<title>node8</title>
<polygon fill="none" stroke="black" points="295.5,-748.5 295.5,-801.5 564.5,-801.5 564.5,-748.5 295.5,-748.5"/>
<text text-anchor="start" x="303.5" y="-786.3" font-family="Times,serif" font-size="14.00">Let l4 =</text>
<text text-anchor="start" x="303.5" y="-771.3" font-family="Times,serif" font-size="14.00"> Join %6 %7</text>
<text text-anchor="start" x="303.5" y="-756.3" font-family="Times,serif" font-size="14.00"> implementation = Unimplemented</text>
</g>
<!-- node6&#45;&gt;node8 -->
<g id="edge7" class="edge">
<title>node6&#45;&gt;node8</title>
<path fill="none" stroke="black" d="M414.3,-877.31C417.53,-856.51 421.41,-831.44 424.51,-811.45"/>
<polygon fill="black" stroke="black" points="427.98,-811.92 426.05,-801.5 421.06,-810.85 427.98,-811.92"/>
<text text-anchor="start" x="423" y="-835.8" font-family="Times,serif" font-size="14.00">%6</text>
</g>
<!-- node7 -->
<g id="node8" class="node">
<title>node7</title>
<polygon fill="none" stroke="black" points="561,-901 561,-937 687,-937 687,-901 561,-901"/>
<text text-anchor="start" x="569" y="-915.3" font-family="Times,serif" font-size="14.00">Constant (true)</text>
</g>
<!-- node7&#45;&gt;node8 -->
<g id="edge8" class="edge">
<title>node7&#45;&gt;node8</title>
<path fill="none" stroke="black" d="M600.6,-900.87C569.08,-877.8 512.41,-836.32 473.08,-807.53"/>
<polygon fill="black" stroke="black" points="475.1,-804.67 464.96,-801.59 470.97,-810.32 475.1,-804.67"/>
<text text-anchor="start" x="539" y="-835.8" font-family="Times,serif" font-size="14.00">%7</text>
</g>
<!-- node9 -->
<g id="node10" class="node">
<title>node9</title>
<polygon fill="none" stroke="black" points="275,-643.5 275,-696.5 421,-696.5 421,-643.5 275,-643.5"/>
<text text-anchor="start" x="283" y="-681.3" font-family="Times,serif" font-size="14.00">Get %8 (l4)</text>
<text text-anchor="start" x="283" y="-666.3" font-family="Times,serif" font-size="14.00"> Distinct group=()</text>
<text text-anchor="start" x="283" y="-651.3" font-family="Times,serif" font-size="14.00"> Negate</text>
</g>
<!-- node8&#45;&gt;node9 -->
<g id="edge13" class="edge">
<title>node8&#45;&gt;node9</title>
<path fill="none" stroke="black" d="M409.52,-748.27C399.05,-735.12 386.18,-718.95 374.92,-704.81"/>
<polygon fill="black" stroke="black" points="377.47,-702.4 368.5,-696.75 371.99,-706.76 377.47,-702.4"/>
<text text-anchor="start" x="394" y="-718.8" font-family="Times,serif" font-size="14.00">%8</text>
</g>
<!-- node15 -->
<g id="node16" class="node">
<title>node15</title>
<polygon fill="none" stroke="black" points="324,-249 324,-285 446,-285 446,-249 324,-249"/>
<text text-anchor="start" x="332" y="-263.3" font-family="Times,serif" font-size="14.00">Union %8 %14</text>
</g>
<!-- node8&#45;&gt;node15 -->
<g id="edge18" class="edge">
<title>node8&#45;&gt;node15</title>
<path fill="none" stroke="black" d="M437.4,-748.42C442.74,-727.72 449,-697.73 449,-671 449,-671 449,-671 449,-371 449,-340.84 428.96,-312.18 411.3,-292.79"/>
<polygon fill="black" stroke="black" points="413.63,-290.15 404.2,-285.32 408.56,-294.98 413.63,-290.15"/>
<text text-anchor="start" x="449" y="-525.8" font-family="Times,serif" font-size="14.00">%8</text>
</g>
<!-- node11 -->
<g id="node12" class="node">
<title>node11</title>
<polygon fill="none" stroke="black" points="222,-555.5 222,-591.5 344,-591.5 344,-555.5 222,-555.5"/>
<text text-anchor="start" x="230" y="-569.8" font-family="Times,serif" font-size="14.00">Union %9 %10</text>
</g>
<!-- node9&#45;&gt;node11 -->
<g id="edge4" class="edge">
<title>node9&#45;&gt;node11</title>
<path fill="none" stroke="black" d="M330.24,-643.18C320.99,-629.73 309.72,-613.34 300.5,-599.95"/>
<polygon fill="black" stroke="black" points="303.34,-597.9 294.79,-591.64 297.57,-601.86 303.34,-597.9"/>
<text text-anchor="start" x="318" y="-613.8" font-family="Times,serif" font-size="14.00">%9</text>
</g>
<!-- node10&#45;&gt;node11 -->
<g id="edge20" class="edge">
<title>node10&#45;&gt;node11</title>
<path fill="none" stroke="black" d="M264.54,-820.35C262.07,-785.72 258.07,-707.85 266,-643 267.7,-629.13 271.26,-614.02 274.68,-601.53"/>
<polygon fill="black" stroke="black" points="278.1,-602.31 277.48,-591.74 271.37,-600.39 278.1,-602.31"/>
<text text-anchor="start" x="262" y="-718.8" font-family="Times,serif" font-size="14.00">%10</text>
</g>
<!-- node11&#45;&gt;node12 -->
<g id="edge6" class="edge">
<title>node11&#45;&gt;node12</title>
<path fill="none" stroke="black" d="M283,-555.17C283,-543.7 283,-528.25 283,-514.18"/>
<polygon fill="black" stroke="black" points="286.5,-513.78 283,-503.78 279.5,-513.78 286.5,-513.78"/>
<text text-anchor="start" x="283" y="-525.8" font-family="Times,serif" font-size="14.00">%11</text>
</g>
<!-- node14 -->
<g id="node15" class="node">
<title>node14</title>
<polygon fill="none" stroke="black" points="148.5,-353 148.5,-391 417.5,-391 417.5,-353 148.5,-353"/>
<text text-anchor="start" x="156.5" y="-375.8" font-family="Times,serif" font-size="14.00">Join %12 %13</text>
<text text-anchor="start" x="156.5" y="-360.8" font-family="Times,serif" font-size="14.00"> implementation = Unimplemented</text>
</g>
<!-- node12&#45;&gt;node14 -->
<g id="edge21" class="edge">
<title>node12&#45;&gt;node14</title>
<path fill="none" stroke="black" d="M283,-450.27C283,-435.51 283,-416.93 283,-401.69"/>
<polygon fill="black" stroke="black" points="286.5,-401.29 283,-391.29 279.5,-401.29 286.5,-401.29"/>
<text text-anchor="start" x="283" y="-420.8" font-family="Times,serif" font-size="14.00">%12</text>
</g>
<!-- node13 -->
<g id="node14" class="node">
<title>node13</title>
<polygon fill="none" stroke="black" points="0,-459 0,-495 130,-495 130,-459 0,-459"/>
<text text-anchor="start" x="8" y="-473.3" font-family="Times,serif" font-size="14.00">Constant (false)</text>
</g>
<!-- node13&#45;&gt;node14 -->
<g id="edge12" class="edge">
<title>node13&#45;&gt;node14</title>
<path fill="none" stroke="black" d="M101,-458.99C137.8,-441.6 195.14,-414.51 235.61,-395.39"/>
<polygon fill="black" stroke="black" points="237.2,-398.51 244.75,-391.07 234.21,-392.18 237.2,-398.51"/>
<text text-anchor="start" x="188" y="-420.8" font-family="Times,serif" font-size="14.00">%13</text>
</g>
<!-- node14&#45;&gt;node15 -->
<g id="edge9" class="edge">
<title>node14&#45;&gt;node15</title>
<path fill="none" stroke="black" d="M301.24,-352.59C317.78,-335.88 342.31,-311.11 360.55,-292.69"/>
<polygon fill="black" stroke="black" points="363.39,-294.8 367.94,-285.23 358.42,-289.87 363.39,-294.8"/>
<text text-anchor="start" x="341" y="-315.8" font-family="Times,serif" font-size="14.00">%14</text>
</g>
<!-- node15&#45;&gt;node16 -->
<g id="edge17" class="edge">
<title>node15&#45;&gt;node16</title>
<path fill="none" stroke="black" d="M408.45,-248.99C428.83,-234.21 458.89,-212.4 483.64,-194.45"/>
<polygon fill="black" stroke="black" points="485.77,-197.23 491.81,-188.53 481.66,-191.57 485.77,-197.23"/>
<text text-anchor="start" x="465" y="-210.8" font-family="Times,serif" font-size="14.00">%15</text>
</g>
<!-- node16&#45;&gt;node17 -->
<g id="edge14" class="edge">
<title>node16&#45;&gt;node17</title>
<path fill="none" stroke="black" d="M544.58,-135.4C553.21,-122.82 563.92,-107.22 574.06,-92.44"/>
<polygon fill="black" stroke="black" points="577.18,-94.09 579.95,-83.86 571.4,-90.13 577.18,-94.09"/>
<text text-anchor="start" x="568" y="-105.8" font-family="Times,serif" font-size="14.00">%16</text>
</g>
</g>
</svg>
