<?xml version="1.0" encoding="UTF-8" standalone="no"?>
<!DOCTYPE svg PUBLIC "-//W3C//DTD SVG 1.1//EN"
 "http://www.w3.org/Graphics/SVG/1.1/DTD/svg11.dtd">
<!-- Generated by graphviz version 2.43.0 (0)
 -->
<!-- Title: G Pages: 1 -->
<svg width="385pt" height="491pt"
 viewBox="0.00 0.00 384.50 491.00" xmlns="http://www.w3.org/2000/svg" xmlns:xlink="http://www.w3.org/1999/xlink">
<g id="graph0" class="graph" transform="scale(1 1) rotate(0) translate(4 487)">
<title>G</title>
<polygon fill="white" stroke="transparent" points="-4,4 -4,-487 380.5,-487 380.5,4 -4,4"/>
<!-- node0 -->
<g id="node1" class="node">
<title>node0</title>
<polygon fill="none" stroke="black" points="0,-399.5 0,-482.5 209,-482.5 209,-399.5 0,-399.5"/>
<text text-anchor="start" x="8" y="-467.3" font-family="Times,serif" font-size="14.00">Let l0 =</text>
<text text-anchor="start" x="8" y="-452.3" font-family="Times,serif" font-size="14.00"> Get types.public.t1 (u139)</text>
<text text-anchor="start" x="8" y="-437.3" font-family="Times,serif" font-size="14.00"> Filter (#0 = 42)</text>
<text text-anchor="start" x="8" y="-422.3" font-family="Times,serif" font-size="14.00"> Project ()</text>
<text text-anchor="start" x="8" y="-407.3" font-family="Times,serif" font-size="14.00"> Distinct group=()</text>
</g>
<!-- node2 -->
<g id="node3" class="node">
<title>node2</title>
<polygon fill="none" stroke="black" points="32.5,-252.5 32.5,-290.5 130.5,-290.5 130.5,-252.5 32.5,-252.5"/>
<text text-anchor="start" x="40.5" y="-275.3" font-family="Times,serif" font-size="14.00">Get %0 (l0)</text>
<text text-anchor="start" x="40.5" y="-260.3" font-family="Times,serif" font-size="14.00"> Map true</text>
</g>
<!-- node0&#45;&gt;node2 -->
<g id="edge6" class="edge">
<title>node0&#45;&gt;node2</title>
<path fill="none" stroke="black" d="M98.93,-399.45C94.73,-368.85 89.07,-327.66 85.36,-300.61"/>
<polygon fill="black" stroke="black" points="88.82,-300.07 83.99,-290.64 81.88,-301.02 88.82,-300.07"/>
<text text-anchor="start" x="96.5" y="-369.8" font-family="Times,serif" font-size="14.00">%0</text>
</g>
<!-- node3 -->
<g id="node4" class="node">
<title>node3</title>
<polygon fill="none" stroke="black" points="109.5,-309.5 109.5,-347.5 207.5,-347.5 207.5,-309.5 109.5,-309.5"/>
<text text-anchor="start" x="117.5" y="-332.3" font-family="Times,serif" font-size="14.00">Get %0 (l0)</text>
<text text-anchor="start" x="117.5" y="-317.3" font-family="Times,serif" font-size="14.00"> Negate</text>
</g>
<!-- node0&#45;&gt;node3 -->
<g id="edge3" class="edge">
<title>node0&#45;&gt;node3</title>
<path fill="none" stroke="black" d="M124.3,-399.48C131.21,-385.35 138.8,-369.82 145.06,-356.99"/>
<polygon fill="black" stroke="black" points="148.32,-358.3 149.57,-347.78 142.03,-355.23 148.32,-358.3"/>
<text text-anchor="start" x="139.5" y="-369.8" font-family="Times,serif" font-size="14.00">%0</text>
</g>
<!-- node1 -->
<g id="node2" class="node">
<title>node1</title>
<polygon fill="none" stroke="black" points="172.5,-90.5 172.5,-143.5 376.5,-143.5 376.5,-90.5 172.5,-90.5"/>
<text text-anchor="start" x="180.5" y="-128.3" font-family="Times,serif" font-size="14.00">Get types.public.t2 (u141)</text>
<text text-anchor="start" x="180.5" y="-113.3" font-family="Times,serif" font-size="14.00"> Project ()</text>
<text text-anchor="start" x="180.5" y="-98.3" font-family="Times,serif" font-size="14.00"> ArrangeBy ()</text>
</g>
<!-- node7 -->
<g id="node8" class="node">
<title>node7</title>
<polygon fill="none" stroke="black" points="34,-0.5 34,-38.5 339,-38.5 339,-0.5 34,-0.5"/>
<text text-anchor="start" x="42" y="-23.3" font-family="Times,serif" font-size="14.00">Join %1 %6</text>
<text text-anchor="start" x="42" y="-8.3" font-family="Times,serif" font-size="14.00"> implementation = Differential %6 %1.()</text>
</g>
<!-- node1&#45;&gt;node7 -->
<g id="edge2" class="edge">
<title>node1&#45;&gt;node7</title>
<path fill="none" stroke="black" d="M250.92,-90.41C238.32,-76.74 222.85,-59.95 210.23,-46.26"/>
<polygon fill="black" stroke="black" points="212.53,-43.58 203.18,-38.6 207.38,-48.32 212.53,-43.58"/>
<text text-anchor="start" x="233.5" y="-60.8" font-family="Times,serif" font-size="14.00">%1</text>
</g>
<!-- node6 -->
<g id="node7" class="node">
<title>node6</title>
<polygon fill="none" stroke="black" points="41,-99 41,-135 154,-135 154,-99 41,-99"/>
<text text-anchor="start" x="49" y="-113.3" font-family="Times,serif" font-size="14.00">Union %2 %5</text>
</g>
<!-- node2&#45;&gt;node6 -->
<g id="edge5" class="edge">
<title>node2&#45;&gt;node6</title>
<path fill="none" stroke="black" d="M83.4,-252.41C86.18,-225.87 91.39,-176.2 94.64,-145.23"/>
<polygon fill="black" stroke="black" points="98.14,-145.44 95.7,-135.13 91.18,-144.71 98.14,-145.44"/>
<text text-anchor="start" x="89.5" y="-210.8" font-family="Times,serif" font-size="14.00">%2</text>
</g>
<!-- node5 -->
<g id="node6" class="node">
<title>node5</title>
<polygon fill="none" stroke="black" points="123,-195.5 123,-233.5 236,-233.5 236,-195.5 123,-195.5"/>
<text text-anchor="start" x="131" y="-218.3" font-family="Times,serif" font-size="14.00">Union %3 %4</text>
<text text-anchor="start" x="131" y="-203.3" font-family="Times,serif" font-size="14.00"> Map false</text>
</g>
<!-- node3&#45;&gt;node5 -->
<g id="edge1" class="edge">
<title>node3&#45;&gt;node5</title>
<path fill="none" stroke="black" d="M161.97,-309.01C165.3,-291.23 170.38,-264.12 174.22,-243.66"/>
<polygon fill="black" stroke="black" points="177.69,-244.12 176.1,-233.65 170.81,-242.83 177.69,-244.12"/>
<text text-anchor="start" x="172.5" y="-267.8" font-family="Times,serif" font-size="14.00">%3</text>
</g>
<!-- node4 -->
<g id="node5" class="node">
<title>node4</title>
<polygon fill="none" stroke="black" points="225.5,-310.5 225.5,-346.5 321.5,-346.5 321.5,-310.5 225.5,-310.5"/>
<text text-anchor="start" x="233.5" y="-324.8" font-family="Times,serif" font-size="14.00">Constant ()</text>
</g>
<!-- node4&#45;&gt;node5 -->
<g id="edge7" class="edge">
<title>node4&#45;&gt;node5</title>
<path fill="none" stroke="black" d="M259.22,-310.49C243.83,-292.15 219.14,-262.73 201.31,-241.49"/>
<polygon fill="black" stroke="black" points="203.96,-239.2 194.85,-233.79 198.6,-243.7 203.96,-239.2"/>
<text text-anchor="start" x="240.5" y="-267.8" font-family="Times,serif" font-size="14.00">%4</text>
</g>
<!-- node5&#45;&gt;node6 -->
<g id="edge4" class="edge">
<title>node5&#45;&gt;node6</title>
<path fill="none" stroke="black" d="M163.69,-195.09C150.89,-180.18 132.75,-159.05 118.69,-142.68"/>
<polygon fill="black" stroke="black" points="121.33,-140.38 112.16,-135.07 116.02,-144.94 121.33,-140.38"/>
<text text-anchor="start" x="146.5" y="-165.8" font-family="Times,serif" font-size="14.00">%5</text>
</g>
<!-- node6&#45;&gt;node7 -->
<g id="edge8" class="edge">
<title>node6&#45;&gt;node7</title>
<path fill="none" stroke="black" d="M113.41,-98.93C127.11,-84.22 147.08,-62.79 162.69,-46.05"/>
<polygon fill="black" stroke="black" points="165.26,-48.43 169.51,-38.73 160.14,-43.66 165.26,-48.43"/>
<text text-anchor="start" x="150.5" y="-60.8" font-family="Times,serif" font-size="14.00">%6</text>
</g>
</g>
</svg>
