<?xml version="1.0" encoding="UTF-8" standalone="no"?>
<!DOCTYPE svg PUBLIC "-//W3C//DTD SVG 1.1//EN"
 "http://www.w3.org/Graphics/SVG/1.1/DTD/svg11.dtd">
<!-- Generated by graphviz version 2.43.0 (0)
 -->
<!-- Title: G Pages: 1 -->
<svg width="626pt" height="655pt"
 viewBox="0.00 0.00 626.00 655.19" xmlns="http://www.w3.org/2000/svg" xmlns:xlink="http://www.w3.org/1999/xlink">
<g id="graph0" class="graph" transform="scale(1 1) rotate(0) translate(4 651.19)">
<title>G</title>
<polygon fill="white" stroke="transparent" points="-4,4 -4,-651.19 622,-651.19 622,4 -4,4"/>
<g id="clust1" class="cluster">
<title>cluster5</title>
<polygon fill="none" stroke="black" points="353,-526.09 353,-639.19 610,-639.19 610,-526.09 353,-526.09"/>
<text text-anchor="middle" x="403.5" y="-623.99" font-family="Times,serif" font-size="14.00">Box5:Select</text>
</g>
<g id="clust3" class="cluster">
<title>cluster1</title>
<polygon fill="none" stroke="black" points="128,-386.09 128,-518.09 483,-518.09 483,-386.09 128,-386.09"/>
<text text-anchor="middle" x="178.5" y="-502.89" font-family="Times,serif" font-size="14.00">Box1:Select</text>
</g>
<g id="clust5" class="cluster">
<title>cluster0</title>
<polygon fill="none" stroke="black" points="8,-267.05 8,-376.05 170,-376.05 170,-267.05 8,-267.05"/>
<text text-anchor="middle" x="49.5" y="-360.85" font-family="Times,serif" font-size="14.00">Box0:Get</text>
</g>
<g id="clust7" class="cluster">
<title>cluster4</title>
<polygon fill="none" stroke="black" points="178,-265 178,-378.09 432,-378.09 432,-265 178,-265"/>
<text text-anchor="middle" x="228.5" y="-362.89" font-family="Times,serif" font-size="14.00">Box4:Select</text>
</g>
<g id="clust9" class="cluster">
<title>cluster3</title>
<polygon fill="none" stroke="black" points="50,-125 50,-257 304,-257 304,-125 50,-125"/>
<text text-anchor="middle" x="100.5" y="-241.8" font-family="Times,serif" font-size="14.00">Box3:Select</text>
</g>
<g id="clust11" class="cluster">
<title>cluster2</title>
<polygon fill="none" stroke="black" points="14,-8 14,-117 176,-117 176,-8 14,-8"/>
<text text-anchor="middle" x="55.5" y="-101.8" font-family="Times,serif" font-size="14.00">Box2:Get</text>
</g>
<!-- boxhead5 -->
<g id="node1" class="node">
<title>boxhead5</title>
<polygon fill="none" stroke="black" points="453.5,-548.14 453.5,-594.14 602.5,-594.14 602.5,-548.14 453.5,-548.14"/>
<text text-anchor="middle" x="528" y="-578.94" font-family="Times,serif" font-size="14.00">Distinct: Preserve</text>
<polyline fill="none" stroke="black" points="453.5,-571.14 602.5,-571.14 "/>
<text text-anchor="middle" x="528" y="-555.94" font-family="Times,serif" font-size="14.00">0: Q4.C2 (boolean)</text>
</g>
<!-- Q4 -->
<g id="node2" class="node">
<title>Q4</title>
<ellipse fill="none" stroke="black" cx="398" cy="-571.14" rx="37.09" ry="37.09"/>
<text text-anchor="middle" x="398" y="-567.44" font-family="Times,serif" font-size="14.00">Q4(F)</text>
</g>
<!-- boxhead1 -->
<g id="node3" class="node">
<title>boxhead1</title>
<polygon fill="none" stroke="black" points="321.5,-394.59 321.5,-486.59 474.5,-486.59 474.5,-394.59 321.5,-394.59"/>
<text text-anchor="middle" x="398" y="-471.39" font-family="Times,serif" font-size="14.00">Distinct: Preserve</text>
<polyline fill="none" stroke="black" points="321.5,-463.59 474.5,-463.59 "/>
<text text-anchor="middle" x="398" y="-448.39" font-family="Times,serif" font-size="14.00">0: Q0.C0 (integer?)</text>
<polyline fill="none" stroke="black" points="321.5,-440.59 474.5,-440.59 "/>
<text text-anchor="middle" x="398" y="-425.39" font-family="Times,serif" font-size="14.00">1: Q0.C1 (integer?)</text>
<polyline fill="none" stroke="black" points="321.5,-417.59 474.5,-417.59 "/>
<text text-anchor="middle" x="398" y="-402.39" font-family="Times,serif" font-size="14.00">2: Q3.C0 (boolean)</text>
</g>
<!-- Q4&#45;&gt;boxhead1 -->
<g id="edge1" class="edge">
<title>Q4&#45;&gt;boxhead1</title>
<path fill="none" stroke="black" stroke-dasharray="5,2" d="M398,-533.99C398,-528.93 398,-523.57 398,-518.09"/>
</g>
<!-- Q0 -->
<g id="node4" class="node">
<title>Q0</title>
<ellipse fill="none" stroke="black" cx="173" cy="-440.59" rx="37.09" ry="37.09"/>
<text text-anchor="middle" x="173" y="-436.89" font-family="Times,serif" font-size="14.00">Q0(F)</text>
</g>
<!-- boxhead0 -->
<g id="node6" class="node">
<title>boxhead0</title>
<polygon fill="none" stroke="black" points="16,-275.55 16,-344.55 162,-344.55 162,-275.55 16,-275.55"/>
<text text-anchor="middle" x="89" y="-329.35" font-family="Times,serif" font-size="14.00">Distinct: Preserve</text>
<polyline fill="none" stroke="black" points="16,-321.55 162,-321.55 "/>
<text text-anchor="middle" x="89" y="-306.35" font-family="Times,serif" font-size="14.00">0: C0 (integer?)</text>
<polyline fill="none" stroke="black" points="16,-298.55 162,-298.55 "/>
<text text-anchor="middle" x="89" y="-283.35" font-family="Times,serif" font-size="14.00">1: C1 (integer?)</text>
</g>
<!-- Q0&#45;&gt;boxhead0 -->
<g id="edge2" class="edge">
<title>Q0&#45;&gt;boxhead0</title>
<path fill="none" stroke="black" stroke-dasharray="5,2" d="M153.09,-409.13C146.56,-399.13 139.03,-387.6 131.47,-376.04"/>
</g>
<!-- Q3 -->
<g id="node5" class="node">
<title>Q3</title>
<ellipse fill="none" stroke="black" cx="266" cy="-440.59" rx="37.89" ry="37.89"/>
<text text-anchor="middle" x="266" y="-436.89" font-family="Times,serif" font-size="14.00">Q3(E)</text>
</g>
<!-- boxhead4 -->
<g id="node7" class="node">
<title>boxhead4</title>
<polygon fill="none" stroke="black" points="278,-287.05 278,-333.05 424,-333.05 424,-287.05 278,-287.05"/>
<text text-anchor="middle" x="351" y="-317.85" font-family="Times,serif" font-size="14.00">Distinct: Preserve</text>
<polyline fill="none" stroke="black" points="278,-310.05 424,-310.05 "/>
<text text-anchor="middle" x="351" y="-294.85" font-family="Times,serif" font-size="14.00">0: Q2.C1 (integer)</text>
</g>
<!-- Q3&#45;&gt;boxhead4 -->
<g id="edge3" class="edge">
<title>Q3&#45;&gt;boxhead4</title>
<path fill="none" stroke="black" stroke-dasharray="5,2" d="M286.36,-408.8C292.53,-399.47 299.57,-388.83 306.67,-378.09"/>
</g>
<!-- Q2 -->
<g id="node8" class="node">
<title>Q2</title>
<ellipse fill="none" stroke="black" cx="223" cy="-310.05" rx="37.09" ry="37.09"/>
<text text-anchor="middle" x="223" y="-306.35" font-family="Times,serif" font-size="14.00">Q2(F)</text>
</g>
<!-- boxhead3 -->
<g id="node9" class="node">
<title>boxhead3</title>
<polygon fill="none" stroke="black" points="150,-133.5 150,-225.5 296,-225.5 296,-133.5 150,-133.5"/>
<text text-anchor="middle" x="223" y="-210.3" font-family="Times,serif" font-size="14.00">Distinct: Preserve</text>
<polyline fill="none" stroke="black" points="150,-202.5 296,-202.5 "/>
<text text-anchor="middle" x="223" y="-187.3" font-family="Times,serif" font-size="14.00">0: Q1.C0 (integer)</text>
<polyline fill="none" stroke="black" points="150,-179.5 296,-179.5 "/>
<text text-anchor="middle" x="223" y="-164.3" font-family="Times,serif" font-size="14.00">1: Q1.C1 (integer)</text>
<polyline fill="none" stroke="black" points="150,-156.5 296,-156.5 "/>
<text text-anchor="middle" x="223" y="-141.3" font-family="Times,serif" font-size="14.00">(Q1.C0 = 42)</text>
</g>
<!-- Q2&#45;&gt;boxhead3 -->
<g id="edge4" class="edge">
<title>Q2&#45;&gt;boxhead3</title>
<path fill="none" stroke="black" stroke-dasharray="5,2" d="M223,-272.9C223,-267.83 223,-262.48 223,-257"/>
</g>
<!-- Q1 -->
<g id="node10" class="node">
<title>Q1</title>
<ellipse fill="none" stroke="black" cx="95" cy="-179.5" rx="37.09" ry="37.09"/>
<text text-anchor="middle" x="95" y="-175.8" font-family="Times,serif" font-size="14.00">Q1(F)</text>
</g>
<!-- boxhead2 -->
<g id="node11" class="node">
<title>boxhead2</title>
<polygon fill="none" stroke="black" points="22,-16.5 22,-85.5 168,-85.5 168,-16.5 22,-16.5"/>
<text text-anchor="middle" x="95" y="-70.3" font-family="Times,serif" font-size="14.00">Distinct: Preserve</text>
<polyline fill="none" stroke="black" points="22,-62.5 168,-62.5 "/>
<text text-anchor="middle" x="95" y="-47.3" font-family="Times,serif" font-size="14.00">0: C0 (integer?)</text>
<polyline fill="none" stroke="black" points="22,-39.5 168,-39.5 "/>
<text text-anchor="middle" x="95" y="-24.3" font-family="Times,serif" font-size="14.00">1: C1 (integer)</text>
</g>
<!-- Q1&#45;&gt;boxhead2 -->
<g id="edge5" class="edge">
<title>Q1&#45;&gt;boxhead2</title>
<path fill="none" stroke="black" stroke-dasharray="5,2" d="M95,-142.25C95,-134.31 95,-125.68 95,-117"/>
</g>
</g>
</svg>
