<?xml version="1.0" encoding="UTF-8" standalone="no"?>
<!DOCTYPE svg PUBLIC "-//W3C//DTD SVG 1.1//EN"
 "http://www.w3.org/Graphics/SVG/1.1/DTD/svg11.dtd">
<!-- Generated by graphviz version 2.43.0 (0)
 -->
<!-- Title: G Pages: 1 -->
<svg width="855pt" height="1736pt"
 viewBox="0.00 0.00 855.00 1736.00" xmlns="http://www.w3.org/2000/svg" xmlns:xlink="http://www.w3.org/1999/xlink">
<g id="graph0" class="graph" transform="scale(1 1) rotate(0) translate(4 1732)">
<title>G</title>
<polygon fill="white" stroke="transparent" points="-4,4 -4,-1732 851,-1732 851,4 -4,4"/>
<!-- node0 -->
<g id="node1" class="node">
<title>node0</title>
<polygon fill="none" stroke="black" points="746,-743 746,-811 847,-811 847,-743 746,-743"/>
<text text-anchor="start" x="754" y="-795.8" font-family="Times,serif" font-size="14.00">Let l0 =</text>
<text text-anchor="start" x="754" y="-780.8" font-family="Times,serif" font-size="14.00"> Constant ()</text>
<text text-anchor="start" x="754" y="-765.8" font-family="Times,serif" font-size="14.00"> types = ()</text>
<text text-anchor="start" x="754" y="-750.8" font-family="Times,serif" font-size="14.00"> keys = (())</text>
</g>
<!-- node2 -->
<g id="node3" class="node">
<title>node2</title>
<polygon fill="none" stroke="black" points="508,-585.5 508,-668.5 777,-668.5 777,-585.5 508,-585.5"/>
<text text-anchor="start" x="516" y="-653.3" font-family="Times,serif" font-size="14.00">Let l1 =</text>
<text text-anchor="start" x="516" y="-638.3" font-family="Times,serif" font-size="14.00"> Join %0 %1</text>
<text text-anchor="start" x="516" y="-623.3" font-family="Times,serif" font-size="14.00"> implementation = Unimplemented</text>
<text text-anchor="start" x="516" y="-608.3" font-family="Times,serif" font-size="14.00"> types = (integer?, integer?)</text>
<text text-anchor="start" x="516" y="-593.3" font-family="Times,serif" font-size="14.00"> keys = ()</text>
</g>
<!-- node0&#45;&gt;node2 -->
<g id="edge16" class="edge">
<title>node0&#45;&gt;node2</title>
<path fill="none" stroke="black" d="M761.94,-742.79C741.37,-723.02 714.94,-697.61 692.16,-675.73"/>
<polygon fill="black" stroke="black" points="694.55,-673.16 684.91,-668.76 689.69,-678.21 694.55,-673.16"/>
<text text-anchor="start" x="719.5" y="-690.8" font-family="Times,serif" font-size="14.00">%0</text>
</g>
<!-- node1 -->
<g id="node2" class="node">
<title>node1</title>
<polygon fill="none" stroke="black" points="509,-750.5 509,-803.5 728,-803.5 728,-750.5 509,-750.5"/>
<text text-anchor="start" x="517" y="-788.3" font-family="Times,serif" font-size="14.00">Get types.public.t2 (u141)</text>
<text text-anchor="start" x="517" y="-773.3" font-family="Times,serif" font-size="14.00"> types = (integer?, integer?)</text>
<text text-anchor="start" x="517" y="-758.3" font-family="Times,serif" font-size="14.00"> keys = ()</text>
</g>
<!-- node1&#45;&gt;node2 -->
<g id="edge11" class="edge">
<title>node1&#45;&gt;node2</title>
<path fill="none" stroke="black" d="M622.68,-750.22C625.88,-730.51 630.38,-702.71 634.29,-678.61"/>
<polygon fill="black" stroke="black" points="637.78,-678.97 635.93,-668.54 630.87,-677.85 637.78,-678.97"/>
<text text-anchor="start" x="632.5" y="-690.8" font-family="Times,serif" font-size="14.00">%1</text>
</g>
<!-- node3 -->
<g id="node4" class="node">
<title>node3</title>
<polygon fill="none" stroke="black" points="401,-420.5 401,-533.5 620,-533.5 620,-420.5 401,-420.5"/>
<text text-anchor="start" x="409" y="-518.3" font-family="Times,serif" font-size="14.00">Let l2 =</text>
<text text-anchor="start" x="409" y="-503.3" font-family="Times,serif" font-size="14.00"> Get %2 (l1)</text>
<text text-anchor="start" x="409" y="-488.3" font-family="Times,serif" font-size="14.00"> types = (integer?, integer?)</text>
<text text-anchor="start" x="409" y="-473.3" font-family="Times,serif" font-size="14.00"> keys = ()</text>
<text text-anchor="start" x="409" y="-458.3" font-family="Times,serif" font-size="14.00"> Distinct group=(#0, #1)</text>
<text text-anchor="start" x="409" y="-443.3" font-family="Times,serif" font-size="14.00"> types = (integer?, integer?)</text>
<text text-anchor="start" x="409" y="-428.3" font-family="Times,serif" font-size="14.00"> keys = ((#0, #1))</text>
</g>
<!-- node2&#45;&gt;node3 -->
<g id="edge15" class="edge">
<title>node2&#45;&gt;node3</title>
<path fill="none" stroke="black" d="M606.08,-585.17C593.99,-571.61 580.24,-556.19 567,-541.35"/>
<polygon fill="black" stroke="black" points="569.41,-538.79 560.14,-533.66 564.18,-543.45 569.41,-538.79"/>
<text text-anchor="start" x="588.5" y="-555.8" font-family="Times,serif" font-size="14.00">%2</text>
</g>
<!-- node17 -->
<g id="node18" class="node">
<title>node17</title>
<polygon fill="none" stroke="black" points="351,-0.5 351,-203.5 836,-203.5 836,-0.5 351,-0.5"/>
<text text-anchor="start" x="359" y="-188.3" font-family="Times,serif" font-size="14.00">Join %2 %16 (= #0 #2) (= #1 #3)</text>
<text text-anchor="start" x="359" y="-173.3" font-family="Times,serif" font-size="14.00"> implementation = Unimplemented</text>
<text text-anchor="start" x="359" y="-158.3" font-family="Times,serif" font-size="14.00"> types = (integer?, integer?, integer?, integer?, boolean)</text>
<text text-anchor="start" x="359" y="-143.3" font-family="Times,serif" font-size="14.00"> keys = ()</text>
<text text-anchor="start" x="359" y="-128.3" font-family="Times,serif" font-size="14.00"> Map #4</text>
<text text-anchor="start" x="359" y="-113.3" font-family="Times,serif" font-size="14.00"> types = (integer?, integer?, integer?, integer?, boolean, boolean)</text>
<text text-anchor="start" x="359" y="-98.3" font-family="Times,serif" font-size="14.00"> keys = ()</text>
<text text-anchor="start" x="359" y="-83.3" font-family="Times,serif" font-size="14.00"> Project (#0, #1, #5)</text>
<text text-anchor="start" x="359" y="-68.3" font-family="Times,serif" font-size="14.00"> types = (integer?, integer?, boolean)</text>
<text text-anchor="start" x="359" y="-53.3" font-family="Times,serif" font-size="14.00"> keys = ()</text>
<text text-anchor="start" x="359" y="-38.3" font-family="Times,serif" font-size="14.00"> Project (#2)</text>
<text text-anchor="start" x="359" y="-23.3" font-family="Times,serif" font-size="14.00"> types = (boolean)</text>
<text text-anchor="start" x="359" y="-8.3" font-family="Times,serif" font-size="14.00"> keys = ()</text>
</g>
<!-- node2&#45;&gt;node17 -->
<g id="edge1" class="edge">
<title>node2&#45;&gt;node17</title>
<path fill="none" stroke="black" d="M643.69,-585.43C645.1,-516.97 645.56,-374.28 629.5,-255 627.7,-241.59 625.23,-227.64 622.42,-213.86"/>
<polygon fill="black" stroke="black" points="625.8,-212.93 620.32,-203.86 618.95,-214.37 625.8,-212.93"/>
<text text-anchor="start" x="641.5" y="-390.8" font-family="Times,serif" font-size="14.00">%2</text>
</g>
<!-- node16 -->
<g id="node17" class="node">
<title>node16</title>
<polygon fill="none" stroke="black" points="336.5,-255.5 336.5,-368.5 620.5,-368.5 620.5,-255.5 336.5,-255.5"/>
<text text-anchor="start" x="344.5" y="-353.3" font-family="Times,serif" font-size="14.00">Join %3 %15</text>
<text text-anchor="start" x="344.5" y="-338.3" font-family="Times,serif" font-size="14.00"> implementation = Unimplemented</text>
<text text-anchor="start" x="344.5" y="-323.3" font-family="Times,serif" font-size="14.00"> types = (integer?, integer?, boolean)</text>
<text text-anchor="start" x="344.5" y="-308.3" font-family="Times,serif" font-size="14.00"> keys = ()</text>
<text text-anchor="start" x="344.5" y="-293.3" font-family="Times,serif" font-size="14.00"> Project (#0..=#2)</text>
<text text-anchor="start" x="344.5" y="-278.3" font-family="Times,serif" font-size="14.00"> types = (integer?, integer?, boolean)</text>
<text text-anchor="start" x="344.5" y="-263.3" font-family="Times,serif" font-size="14.00"> keys = ()</text>
</g>
<!-- node3&#45;&gt;node16 -->
<g id="edge5" class="edge">
<title>node3&#45;&gt;node16</title>
<path fill="none" stroke="black" d="M499.58,-420.36C496.94,-406.93 494.1,-392.45 491.38,-378.61"/>
<polygon fill="black" stroke="black" points="494.79,-377.8 489.43,-368.67 487.92,-379.15 494.79,-377.8"/>
<text text-anchor="start" x="495.5" y="-390.8" font-family="Times,serif" font-size="14.00">%3</text>
</g>
<!-- node4 -->
<g id="node5" class="node">
<title>node4</title>
<polygon fill="none" stroke="black" points="199,-1659.5 199,-1727.5 300,-1727.5 300,-1659.5 199,-1659.5"/>
<text text-anchor="start" x="207" y="-1712.3" font-family="Times,serif" font-size="14.00">Let l3 =</text>
<text text-anchor="start" x="207" y="-1697.3" font-family="Times,serif" font-size="14.00"> Constant ()</text>
<text text-anchor="start" x="207" y="-1682.3" font-family="Times,serif" font-size="14.00"> types = ()</text>
<text text-anchor="start" x="207" y="-1667.3" font-family="Times,serif" font-size="14.00"> keys = (())</text>
</g>
<!-- node6 -->
<g id="node7" class="node">
<title>node6</title>
<polygon fill="none" stroke="black" points="287,-1404.5 287,-1607.5 556,-1607.5 556,-1404.5 287,-1404.5"/>
<text text-anchor="start" x="295" y="-1592.3" font-family="Times,serif" font-size="14.00">Join %4 %5</text>
<text text-anchor="start" x="295" y="-1577.3" font-family="Times,serif" font-size="14.00"> implementation = Unimplemented</text>
<text text-anchor="start" x="295" y="-1562.3" font-family="Times,serif" font-size="14.00"> types = (integer?, integer)</text>
<text text-anchor="start" x="295" y="-1547.3" font-family="Times,serif" font-size="14.00"> keys = ()</text>
<text text-anchor="start" x="295" y="-1532.3" font-family="Times,serif" font-size="14.00"> Filter (#0 = 42)</text>
<text text-anchor="start" x="295" y="-1517.3" font-family="Times,serif" font-size="14.00"> types = (integer, integer)</text>
<text text-anchor="start" x="295" y="-1502.3" font-family="Times,serif" font-size="14.00"> keys = ()</text>
<text text-anchor="start" x="295" y="-1487.3" font-family="Times,serif" font-size="14.00"> Project (#1)</text>
<text text-anchor="start" x="295" y="-1472.3" font-family="Times,serif" font-size="14.00"> types = (integer)</text>
<text text-anchor="start" x="295" y="-1457.3" font-family="Times,serif" font-size="14.00"> keys = ()</text>
<text text-anchor="start" x="295" y="-1442.3" font-family="Times,serif" font-size="14.00"> Distinct group=()</text>
<text text-anchor="start" x="295" y="-1427.3" font-family="Times,serif" font-size="14.00"> types = ()</text>
<text text-anchor="start" x="295" y="-1412.3" font-family="Times,serif" font-size="14.00"> keys = (())</text>
</g>
<!-- node4&#45;&gt;node6 -->
<g id="edge2" class="edge">
<title>node4&#45;&gt;node6</title>
<path fill="none" stroke="black" d="M280.25,-1659.34C292.07,-1646.59 306.29,-1631.25 321.11,-1615.27"/>
<polygon fill="black" stroke="black" points="323.72,-1617.61 327.95,-1607.89 318.58,-1612.85 323.72,-1617.61"/>
<text text-anchor="start" x="310.5" y="-1629.8" font-family="Times,serif" font-size="14.00">%4</text>
</g>
<!-- node10 -->
<g id="node11" class="node">
<title>node10</title>
<polygon fill="none" stroke="black" points="204.5,-1287.5 204.5,-1385.5 350.5,-1385.5 350.5,-1287.5 204.5,-1287.5"/>
<text text-anchor="start" x="212.5" y="-1370.3" font-family="Times,serif" font-size="14.00">Get %4 (l3)</text>
<text text-anchor="start" x="212.5" y="-1355.3" font-family="Times,serif" font-size="14.00"> types = ()</text>
<text text-anchor="start" x="212.5" y="-1340.3" font-family="Times,serif" font-size="14.00"> keys = (())</text>
<text text-anchor="start" x="212.5" y="-1325.3" font-family="Times,serif" font-size="14.00"> Distinct group=()</text>
<text text-anchor="start" x="212.5" y="-1310.3" font-family="Times,serif" font-size="14.00"> types = ()</text>
<text text-anchor="start" x="212.5" y="-1295.3" font-family="Times,serif" font-size="14.00"> keys = (())</text>
</g>
<!-- node4&#45;&gt;node10 -->
<g id="edge19" class="edge">
<title>node4&#45;&gt;node10</title>
<path fill="none" stroke="black" d="M252.11,-1659.42C256.85,-1599.25 266.96,-1471.19 272.89,-1395.98"/>
<polygon fill="black" stroke="black" points="276.4,-1395.98 273.7,-1385.73 269.42,-1395.43 276.4,-1395.98"/>
<text text-anchor="start" x="255.5" y="-1629.8" font-family="Times,serif" font-size="14.00">%4</text>
</g>
<!-- node12 -->
<g id="node13" class="node">
<title>node12</title>
<polygon fill="none" stroke="black" points="165,-720.5 165,-833.5 434,-833.5 434,-720.5 165,-720.5"/>
<text text-anchor="start" x="173" y="-818.3" font-family="Times,serif" font-size="14.00">Join %11 %4</text>
<text text-anchor="start" x="173" y="-803.3" font-family="Times,serif" font-size="14.00"> implementation = Unimplemented</text>
<text text-anchor="start" x="173" y="-788.3" font-family="Times,serif" font-size="14.00"> types = ()</text>
<text text-anchor="start" x="173" y="-773.3" font-family="Times,serif" font-size="14.00"> keys = ()</text>
<text text-anchor="start" x="173" y="-758.3" font-family="Times,serif" font-size="14.00"> Project ()</text>
<text text-anchor="start" x="173" y="-743.3" font-family="Times,serif" font-size="14.00"> types = ()</text>
<text text-anchor="start" x="173" y="-728.3" font-family="Times,serif" font-size="14.00"> keys = ()</text>
</g>
<!-- node4&#45;&gt;node12 -->
<g id="edge10" class="edge">
<title>node4&#45;&gt;node12</title>
<path fill="none" stroke="black" d="M231.82,-1659.35C214.12,-1623.03 189.5,-1562.51 189.5,-1507 189.5,-1507 189.5,-1507 189.5,-911 189.5,-884.83 202.3,-861.03 219.18,-841.04"/>
<polygon fill="black" stroke="black" points="221.79,-843.37 225.82,-833.57 216.56,-838.71 221.79,-843.37"/>
<text text-anchor="start" x="189.5" y="-1155.8" font-family="Times,serif" font-size="14.00">%4</text>
</g>
<!-- node5 -->
<g id="node6" class="node">
<title>node5</title>
<polygon fill="none" stroke="black" points="318.5,-1667 318.5,-1720 530.5,-1720 530.5,-1667 318.5,-1667"/>
<text text-anchor="start" x="326.5" y="-1704.8" font-family="Times,serif" font-size="14.00">Get types.public.t1 (u139)</text>
<text text-anchor="start" x="326.5" y="-1689.8" font-family="Times,serif" font-size="14.00"> types = (integer?, integer)</text>
<text text-anchor="start" x="326.5" y="-1674.8" font-family="Times,serif" font-size="14.00"> keys = ()</text>
</g>
<!-- node5&#45;&gt;node6 -->
<g id="edge3" class="edge">
<title>node5&#45;&gt;node6</title>
<path fill="none" stroke="black" d="M424.08,-1666.71C423.87,-1653.44 423.59,-1636.25 423.3,-1618.08"/>
<polygon fill="black" stroke="black" points="426.79,-1617.85 423.13,-1607.91 419.79,-1617.96 426.79,-1617.85"/>
<text text-anchor="start" x="424.5" y="-1629.8" font-family="Times,serif" font-size="14.00">%5</text>
</g>
<!-- node8 -->
<g id="node9" class="node">
<title>node8</title>
<polygon fill="none" stroke="black" points="315,-1185.5 315,-1268.5 584,-1268.5 584,-1185.5 315,-1185.5"/>
<text text-anchor="start" x="323" y="-1253.3" font-family="Times,serif" font-size="14.00">Let l4 =</text>
<text text-anchor="start" x="323" y="-1238.3" font-family="Times,serif" font-size="14.00"> Join %6 %7</text>
<text text-anchor="start" x="323" y="-1223.3" font-family="Times,serif" font-size="14.00"> implementation = Unimplemented</text>
<text text-anchor="start" x="323" y="-1208.3" font-family="Times,serif" font-size="14.00"> types = (boolean)</text>
<text text-anchor="start" x="323" y="-1193.3" font-family="Times,serif" font-size="14.00"> keys = (())</text>
</g>
<!-- node6&#45;&gt;node8 -->
<g id="edge7" class="edge">
<title>node6&#45;&gt;node8</title>
<path fill="none" stroke="black" d="M431.69,-1404.21C436,-1361.55 440.83,-1313.73 444.38,-1278.67"/>
<polygon fill="black" stroke="black" points="447.86,-1278.99 445.39,-1268.69 440.9,-1278.28 447.86,-1278.99"/>
<text text-anchor="start" x="443.5" y="-1332.8" font-family="Times,serif" font-size="14.00">%6</text>
</g>
<!-- node7 -->
<g id="node8" class="node">
<title>node7</title>
<polygon fill="none" stroke="black" points="574,-1479.5 574,-1532.5 721,-1532.5 721,-1479.5 574,-1479.5"/>
<text text-anchor="start" x="582" y="-1517.3" font-family="Times,serif" font-size="14.00">Constant (true)</text>
<text text-anchor="start" x="582" y="-1502.3" font-family="Times,serif" font-size="14.00"> types = (boolean)</text>
<text text-anchor="start" x="582" y="-1487.3" font-family="Times,serif" font-size="14.00"> keys = (())</text>
</g>
<!-- node7&#45;&gt;node8 -->
<g id="edge8" class="edge">
<title>node7&#45;&gt;node8</title>
<path fill="none" stroke="black" d="M629.23,-1479.44C596.38,-1433.48 526.84,-1336.2 484.54,-1277.02"/>
<polygon fill="black" stroke="black" points="487.17,-1274.67 478.5,-1268.57 481.47,-1278.75 487.17,-1274.67"/>
<text text-anchor="start" x="560.5" y="-1332.8" font-family="Times,serif" font-size="14.00">%7</text>
</g>
<!-- node9 -->
<g id="node10" class="node">
<title>node9</title>
<polygon fill="none" stroke="black" points="293,-990.5 293,-1133.5 440,-1133.5 440,-990.5 293,-990.5"/>
<text text-anchor="start" x="301" y="-1118.3" font-family="Times,serif" font-size="14.00">Get %8 (l4)</text>
<text text-anchor="start" x="301" y="-1103.3" font-family="Times,serif" font-size="14.00"> types = (boolean)</text>
<text text-anchor="start" x="301" y="-1088.3" font-family="Times,serif" font-size="14.00"> keys = (())</text>
<text text-anchor="start" x="301" y="-1073.3" font-family="Times,serif" font-size="14.00"> Distinct group=()</text>
<text text-anchor="start" x="301" y="-1058.3" font-family="Times,serif" font-size="14.00"> types = ()</text>
<text text-anchor="start" x="301" y="-1043.3" font-family="Times,serif" font-size="14.00"> keys = (())</text>
<text text-anchor="start" x="301" y="-1028.3" font-family="Times,serif" font-size="14.00"> Negate</text>
<text text-anchor="start" x="301" y="-1013.3" font-family="Times,serif" font-size="14.00"> types = ()</text>
<text text-anchor="start" x="301" y="-998.3" font-family="Times,serif" font-size="14.00"> keys = ()</text>
</g>
<!-- node8&#45;&gt;node9 -->
<g id="edge13" class="edge">
<title>node8&#45;&gt;node9</title>
<path fill="none" stroke="black" d="M428.77,-1185.29C422.17,-1172.33 414.62,-1157.51 407.12,-1142.77"/>
<polygon fill="black" stroke="black" points="410.11,-1140.94 402.46,-1133.61 403.88,-1144.11 410.11,-1140.94"/>
<text text-anchor="start" x="418.5" y="-1155.8" font-family="Times,serif" font-size="14.00">%8</text>
</g>
<!-- node15 -->
<g id="node16" class="node">
<title>node15</title>
<polygon fill="none" stroke="black" points="236,-450.5 236,-503.5 383,-503.5 383,-450.5 236,-450.5"/>
<text text-anchor="start" x="244" y="-488.3" font-family="Times,serif" font-size="14.00">Union %8 %14</text>
<text text-anchor="start" x="244" y="-473.3" font-family="Times,serif" font-size="14.00"> types = (boolean)</text>
<text text-anchor="start" x="244" y="-458.3" font-family="Times,serif" font-size="14.00"> keys = ()</text>
</g>
<!-- node8&#45;&gt;node15 -->
<g id="edge18" class="edge">
<title>node8&#45;&gt;node15</title>
<path fill="none" stroke="black" d="M456.9,-1185.29C462.24,-1152.41 468.5,-1104.88 468.5,-1063 468.5,-1063 468.5,-1063 468.5,-626 468.5,-595.05 403.13,-542.94 356.22,-509.53"/>
<polygon fill="black" stroke="black" points="358.18,-506.63 347.99,-503.73 354.14,-512.35 358.18,-506.63"/>
<text text-anchor="start" x="468.5" y="-855.8" font-family="Times,serif" font-size="14.00">%8</text>
</g>
<!-- node11 -->
<g id="node12" class="node">
<title>node11</title>
<polygon fill="none" stroke="black" points="238.5,-885.5 238.5,-938.5 360.5,-938.5 360.5,-885.5 238.5,-885.5"/>
<text text-anchor="start" x="246.5" y="-923.3" font-family="Times,serif" font-size="14.00">Union %9 %10</text>
<text text-anchor="start" x="246.5" y="-908.3" font-family="Times,serif" font-size="14.00"> types = ()</text>
<text text-anchor="start" x="246.5" y="-893.3" font-family="Times,serif" font-size="14.00"> keys = ()</text>
</g>
<!-- node9&#45;&gt;node11 -->
<g id="edge4" class="edge">
<title>node9&#45;&gt;node11</title>
<path fill="none" stroke="black" d="M334.57,-990.47C327.91,-975.75 321.17,-960.86 315.39,-948.11"/>
<polygon fill="black" stroke="black" points="318.5,-946.49 311.19,-938.82 312.13,-949.38 318.5,-946.49"/>
<text text-anchor="start" x="325.5" y="-960.8" font-family="Times,serif" font-size="14.00">%9</text>
</g>
<!-- node10&#45;&gt;node11 -->
<g id="edge20" class="edge">
<title>node10&#45;&gt;node11</title>
<path fill="none" stroke="black" d="M275.5,-1287.25C273.36,-1220.3 271.72,-1095.53 283.5,-990 285.02,-976.4 287.8,-961.65 290.62,-948.73"/>
<polygon fill="black" stroke="black" points="294.07,-949.35 292.87,-938.82 287.24,-947.8 294.07,-949.35"/>
<text text-anchor="start" x="274.5" y="-1155.8" font-family="Times,serif" font-size="14.00">%10</text>
</g>
<!-- node11&#45;&gt;node12 -->
<g id="edge6" class="edge">
<title>node11&#45;&gt;node12</title>
<path fill="none" stroke="black" d="M299.5,-885.36C299.5,-873.4 299.5,-858.56 299.5,-843.77"/>
<polygon fill="black" stroke="black" points="303,-843.57 299.5,-833.57 296,-843.57 303,-843.57"/>
<text text-anchor="start" x="299.5" y="-855.8" font-family="Times,serif" font-size="14.00">%11</text>
</g>
<!-- node14 -->
<g id="node15" class="node">
<title>node14</title>
<polygon fill="none" stroke="black" points="165,-593 165,-661 434,-661 434,-593 165,-593"/>
<text text-anchor="start" x="173" y="-645.8" font-family="Times,serif" font-size="14.00">Join %12 %13</text>
<text text-anchor="start" x="173" y="-630.8" font-family="Times,serif" font-size="14.00"> implementation = Unimplemented</text>
<text text-anchor="start" x="173" y="-615.8" font-family="Times,serif" font-size="14.00"> types = (boolean)</text>
<text text-anchor="start" x="173" y="-600.8" font-family="Times,serif" font-size="14.00"> keys = ()</text>
</g>
<!-- node12&#45;&gt;node14 -->
<g id="edge21" class="edge">
<title>node12&#45;&gt;node14</title>
<path fill="none" stroke="black" d="M299.5,-720.47C299.5,-704.21 299.5,-686.68 299.5,-671.3"/>
<polygon fill="black" stroke="black" points="303,-671.03 299.5,-661.03 296,-671.03 303,-671.03"/>
<text text-anchor="start" x="299.5" y="-690.8" font-family="Times,serif" font-size="14.00">%12</text>
</g>
<!-- node13 -->
<g id="node14" class="node">
<title>node13</title>
<polygon fill="none" stroke="black" points="0,-750.5 0,-803.5 147,-803.5 147,-750.5 0,-750.5"/>
<text text-anchor="start" x="8" y="-788.3" font-family="Times,serif" font-size="14.00">Constant (false)</text>
<text text-anchor="start" x="8" y="-773.3" font-family="Times,serif" font-size="14.00"> types = (boolean)</text>
<text text-anchor="start" x="8" y="-758.3" font-family="Times,serif" font-size="14.00"> keys = (())</text>
</g>
<!-- node13&#45;&gt;node14 -->
<g id="edge12" class="edge">
<title>node13&#45;&gt;node14</title>
<path fill="none" stroke="black" d="M110.48,-750.39C124.52,-740.77 140.69,-729.79 155.5,-720 182.52,-702.15 212.68,-682.79 238.39,-666.46"/>
<polygon fill="black" stroke="black" points="240.36,-669.36 246.92,-661.05 236.61,-663.45 240.36,-669.36"/>
<text text-anchor="start" x="203.5" y="-690.8" font-family="Times,serif" font-size="14.00">%13</text>
</g>
<!-- node14&#45;&gt;node15 -->
<g id="edge9" class="edge">
<title>node14&#45;&gt;node15</title>
<path fill="none" stroke="black" d="M301.74,-592.79C303.33,-569.33 305.45,-537.91 307.08,-513.88"/>
<polygon fill="black" stroke="black" points="310.58,-513.96 307.76,-503.75 303.59,-513.49 310.58,-513.96"/>
<text text-anchor="start" x="304.5" y="-555.8" font-family="Times,serif" font-size="14.00">%14</text>
</g>
<!-- node15&#45;&gt;node16 -->
<g id="edge17" class="edge">
<title>node15&#45;&gt;node16</title>
<path fill="none" stroke="black" d="M336.28,-450.17C356.95,-430.23 386.45,-401.78 413.23,-375.95"/>
<polygon fill="black" stroke="black" points="415.94,-378.2 420.71,-368.74 411.08,-373.16 415.94,-378.2"/>
<text text-anchor="start" x="399.5" y="-390.8" font-family="Times,serif" font-size="14.00">%15</text>
</g>
<!-- node16&#45;&gt;node17 -->
<g id="edge14" class="edge">
<title>node16&#45;&gt;node17</title>
<path fill="none" stroke="black" d="M509.32,-255.26C516.59,-242.11 524.6,-227.63 532.69,-212.99"/>
<polygon fill="black" stroke="black" points="535.96,-214.31 537.73,-203.87 529.83,-210.93 535.96,-214.31"/>
<text text-anchor="start" x="526.5" y="-225.8" font-family="Times,serif" font-size="14.00">%16</text>
</g>
</g>
</svg>
