<?xml version="1.0" encoding="UTF-8" standalone="no"?>
<!DOCTYPE svg PUBLIC "-//W3C//DTD SVG 1.1//EN"
 "http://www.w3.org/Graphics/SVG/1.1/DTD/svg11.dtd">
<!-- Generated by graphviz version 2.43.0 (0)
 -->
<!-- Title: G Pages: 1 -->
<svg width="418pt" height="911pt"
 viewBox="0.00 0.00 417.50 911.00" xmlns="http://www.w3.org/2000/svg" xmlns:xlink="http://www.w3.org/1999/xlink">
<g id="graph0" class="graph" transform="scale(1 1) rotate(0) translate(4 907)">
<title>G</title>
<polygon fill="white" stroke="transparent" points="-4,4 -4,-907 413.5,-907 413.5,4 -4,4"/>
<!-- node0 -->
<g id="node1" class="node">
<title>node0</title>
<polygon fill="none" stroke="black" points="0,-699.5 0,-902.5 212,-902.5 212,-699.5 0,-699.5"/>
<text text-anchor="start" x="8" y="-887.3" font-family="Times,serif" font-size="14.00">Let l0 =</text>
<text text-anchor="start" x="8" y="-872.3" font-family="Times,serif" font-size="14.00"> Get types.public.t1 (u139)</text>
<text text-anchor="start" x="8" y="-857.3" font-family="Times,serif" font-size="14.00"> types = (integer?, integer)</text>
<text text-anchor="start" x="8" y="-842.3" font-family="Times,serif" font-size="14.00"> keys = ()</text>
<text text-anchor="start" x="8" y="-827.3" font-family="Times,serif" font-size="14.00"> Filter (#0 = 42)</text>
<text text-anchor="start" x="8" y="-812.3" font-family="Times,serif" font-size="14.00"> types = (integer, integer)</text>
<text text-anchor="start" x="8" y="-797.3" font-family="Times,serif" font-size="14.00"> keys = ()</text>
<text text-anchor="start" x="8" y="-782.3" font-family="Times,serif" font-size="14.00"> Project ()</text>
<text text-anchor="start" x="8" y="-767.3" font-family="Times,serif" font-size="14.00"> types = ()</text>
<text text-anchor="start" x="8" y="-752.3" font-family="Times,serif" font-size="14.00"> keys = ()</text>
<text text-anchor="start" x="8" y="-737.3" font-family="Times,serif" font-size="14.00"> Distinct group=()</text>
<text text-anchor="start" x="8" y="-722.3" font-family="Times,serif" font-size="14.00"> types = ()</text>
<text text-anchor="start" x="8" y="-707.3" font-family="Times,serif" font-size="14.00"> keys = (())</text>
</g>
<!-- node2 -->
<g id="node3" class="node">
<title>node2</title>
<polygon fill="none" stroke="black" points="9.5,-432.5 9.5,-530.5 156.5,-530.5 156.5,-432.5 9.5,-432.5"/>
<text text-anchor="start" x="17.5" y="-515.3" font-family="Times,serif" font-size="14.00">Get %0 (l0)</text>
<text text-anchor="start" x="17.5" y="-500.3" font-family="Times,serif" font-size="14.00"> types = ()</text>
<text text-anchor="start" x="17.5" y="-485.3" font-family="Times,serif" font-size="14.00"> keys = (())</text>
<text text-anchor="start" x="17.5" y="-470.3" font-family="Times,serif" font-size="14.00"> Map true</text>
<text text-anchor="start" x="17.5" y="-455.3" font-family="Times,serif" font-size="14.00"> types = (boolean)</text>
<text text-anchor="start" x="17.5" y="-440.3" font-family="Times,serif" font-size="14.00"> keys = (())</text>
</g>
<!-- node0&#45;&gt;node2 -->
<g id="edge6" class="edge">
<title>node0&#45;&gt;node2</title>
<path fill="none" stroke="black" d="M98.69,-699.1C94.91,-646.88 90.42,-584.98 87.22,-540.76"/>
<polygon fill="black" stroke="black" points="90.71,-540.48 86.5,-530.76 83.73,-540.98 90.71,-540.48"/>
<text text-anchor="start" x="97" y="-669.8" font-family="Times,serif" font-size="14.00">%0</text>
</g>
<!-- node3 -->
<g id="node4" class="node">
<title>node3</title>
<polygon fill="none" stroke="black" points="111,-549.5 111,-647.5 209,-647.5 209,-549.5 111,-549.5"/>
<text text-anchor="start" x="119" y="-632.3" font-family="Times,serif" font-size="14.00">Get %0 (l0)</text>
<text text-anchor="start" x="119" y="-617.3" font-family="Times,serif" font-size="14.00"> types = ()</text>
<text text-anchor="start" x="119" y="-602.3" font-family="Times,serif" font-size="14.00"> keys = (())</text>
<text text-anchor="start" x="119" y="-587.3" font-family="Times,serif" font-size="14.00"> Negate</text>
<text text-anchor="start" x="119" y="-572.3" font-family="Times,serif" font-size="14.00"> types = ()</text>
<text text-anchor="start" x="119" y="-557.3" font-family="Times,serif" font-size="14.00"> keys = ()</text>
</g>
<!-- node0&#45;&gt;node3 -->
<g id="edge3" class="edge">
<title>node0&#45;&gt;node3</title>
<path fill="none" stroke="black" d="M133.08,-699.46C136.96,-685.05 140.84,-670.66 144.39,-657.46"/>
<polygon fill="black" stroke="black" points="147.82,-658.18 147.04,-647.62 141.06,-656.36 147.82,-658.18"/>
<text text-anchor="start" x="141" y="-669.8" font-family="Times,serif" font-size="14.00">%0</text>
</g>
<!-- node1 -->
<g id="node2" class="node">
<title>node1</title>
<polygon fill="none" stroke="black" points="190.5,-120.5 190.5,-263.5 409.5,-263.5 409.5,-120.5 190.5,-120.5"/>
<text text-anchor="start" x="198.5" y="-248.3" font-family="Times,serif" font-size="14.00">Get types.public.t2 (u141)</text>
<text text-anchor="start" x="198.5" y="-233.3" font-family="Times,serif" font-size="14.00"> types = (integer?, integer?)</text>
<text text-anchor="start" x="198.5" y="-218.3" font-family="Times,serif" font-size="14.00"> keys = ()</text>
<text text-anchor="start" x="198.5" y="-203.3" font-family="Times,serif" font-size="14.00"> Project ()</text>
<text text-anchor="start" x="198.5" y="-188.3" font-family="Times,serif" font-size="14.00"> types = ()</text>
<text text-anchor="start" x="198.5" y="-173.3" font-family="Times,serif" font-size="14.00"> keys = ()</text>
<text text-anchor="start" x="198.5" y="-158.3" font-family="Times,serif" font-size="14.00"> ArrangeBy ()</text>
<text text-anchor="start" x="198.5" y="-143.3" font-family="Times,serif" font-size="14.00"> types = ()</text>
<text text-anchor="start" x="198.5" y="-128.3" font-family="Times,serif" font-size="14.00"> keys = ()</text>
</g>
<!-- node7 -->
<g id="node8" class="node">
<title>node7</title>
<polygon fill="none" stroke="black" points="47.5,-0.5 47.5,-68.5 352.5,-68.5 352.5,-0.5 47.5,-0.5"/>
<text text-anchor="start" x="55.5" y="-53.3" font-family="Times,serif" font-size="14.00">Join %1 %6</text>
<text text-anchor="start" x="55.5" y="-38.3" font-family="Times,serif" font-size="14.00"> implementation = Differential %6 %1.()</text>
<text text-anchor="start" x="55.5" y="-23.3" font-family="Times,serif" font-size="14.00"> types = (boolean)</text>
<text text-anchor="start" x="55.5" y="-8.3" font-family="Times,serif" font-size="14.00"> keys = ()</text>
</g>
<!-- node1&#45;&gt;node7 -->
<g id="edge2" class="edge">
<title>node1&#45;&gt;node7</title>
<path fill="none" stroke="black" d="M254.39,-120.08C244.92,-105.36 235.25,-90.31 226.73,-77.07"/>
<polygon fill="black" stroke="black" points="229.67,-75.16 221.31,-68.64 223.78,-78.95 229.67,-75.16"/>
<text text-anchor="start" x="242" y="-90.8" font-family="Times,serif" font-size="14.00">%1</text>
</g>
<!-- node6 -->
<g id="node7" class="node">
<title>node6</title>
<polygon fill="none" stroke="black" points="25.5,-165.5 25.5,-218.5 172.5,-218.5 172.5,-165.5 25.5,-165.5"/>
<text text-anchor="start" x="33.5" y="-203.3" font-family="Times,serif" font-size="14.00">Union %2 %5</text>
<text text-anchor="start" x="33.5" y="-188.3" font-family="Times,serif" font-size="14.00"> types = (boolean)</text>
<text text-anchor="start" x="33.5" y="-173.3" font-family="Times,serif" font-size="14.00"> keys = ()</text>
</g>
<!-- node2&#45;&gt;node6 -->
<g id="edge5" class="edge">
<title>node2&#45;&gt;node6</title>
<path fill="none" stroke="black" d="M85.58,-432.34C87.36,-399.32 89.79,-354.5 92,-315 93.62,-286.03 95.51,-253.2 96.91,-228.89"/>
<polygon fill="black" stroke="black" points="100.42,-228.89 97.5,-218.7 93.43,-228.48 100.42,-228.89"/>
<text text-anchor="start" x="92" y="-360.8" font-family="Times,serif" font-size="14.00">%2</text>
</g>
<!-- node5 -->
<g id="node6" class="node">
<title>node5</title>
<polygon fill="none" stroke="black" points="124.5,-315.5 124.5,-413.5 271.5,-413.5 271.5,-315.5 124.5,-315.5"/>
<text text-anchor="start" x="132.5" y="-398.3" font-family="Times,serif" font-size="14.00">Union %3 %4</text>
<text text-anchor="start" x="132.5" y="-383.3" font-family="Times,serif" font-size="14.00"> types = ()</text>
<text text-anchor="start" x="132.5" y="-368.3" font-family="Times,serif" font-size="14.00"> keys = ()</text>
<text text-anchor="start" x="132.5" y="-353.3" font-family="Times,serif" font-size="14.00"> Map false</text>
<text text-anchor="start" x="132.5" y="-338.3" font-family="Times,serif" font-size="14.00"> types = (boolean)</text>
<text text-anchor="start" x="132.5" y="-323.3" font-family="Times,serif" font-size="14.00"> keys = ()</text>
</g>
<!-- node3&#45;&gt;node5 -->
<g id="edge1" class="edge">
<title>node3&#45;&gt;node5</title>
<path fill="none" stroke="black" d="M167.87,-549.43C173.86,-512.88 182.12,-462.44 188.48,-423.62"/>
<polygon fill="black" stroke="black" points="191.97,-423.94 190.14,-413.51 185.07,-422.81 191.97,-423.94"/>
<text text-anchor="start" x="187" y="-477.8" font-family="Times,serif" font-size="14.00">%3</text>
</g>
<!-- node4 -->
<g id="node5" class="node">
<title>node4</title>
<polygon fill="none" stroke="black" points="227,-572 227,-625 323,-625 323,-572 227,-572"/>
<text text-anchor="start" x="235" y="-609.8" font-family="Times,serif" font-size="14.00">Constant ()</text>
<text text-anchor="start" x="235" y="-594.8" font-family="Times,serif" font-size="14.00"> types = ()</text>
<text text-anchor="start" x="235" y="-579.8" font-family="Times,serif" font-size="14.00"> keys = (())</text>
</g>
<!-- node4&#45;&gt;node5 -->
<g id="edge7" class="edge">
<title>node4&#45;&gt;node5</title>
<path fill="none" stroke="black" d="M266.47,-571.79C254.67,-536.25 233.05,-471.11 217.26,-423.52"/>
<polygon fill="black" stroke="black" points="220.55,-422.33 214.08,-413.95 213.91,-424.54 220.55,-422.33"/>
<text text-anchor="start" x="252" y="-477.8" font-family="Times,serif" font-size="14.00">%4</text>
</g>
<!-- node5&#45;&gt;node6 -->
<g id="edge4" class="edge">
<title>node5&#45;&gt;node6</title>
<path fill="none" stroke="black" d="M169.9,-315.1C153.71,-287.21 133.73,-252.82 119.12,-227.65"/>
<polygon fill="black" stroke="black" points="122.04,-225.71 113.99,-218.82 115.99,-229.23 122.04,-225.71"/>
<text text-anchor="start" x="158" y="-285.8" font-family="Times,serif" font-size="14.00">%5</text>
</g>
<!-- node6&#45;&gt;node7 -->
<g id="edge8" class="edge">
<title>node6&#45;&gt;node7</title>
<path fill="none" stroke="black" d="M115.68,-165.32C131.27,-141.32 154.81,-105.07 173.06,-76.97"/>
<polygon fill="black" stroke="black" points="176.03,-78.83 178.54,-68.53 170.16,-75.01 176.03,-78.83"/>
<text text-anchor="start" x="165" y="-90.8" font-family="Times,serif" font-size="14.00">%6</text>
</g>
</g>
</svg>
