<?xml version="1.0" encoding="UTF-8" standalone="no"?>
<!DOCTYPE svg PUBLIC "-//W3C//DTD SVG 1.1//EN"
 "http://www.w3.org/Graphics/SVG/1.1/DTD/svg11.dtd">
<!-- Generated by graphviz version 2.43.0 (0)
 -->
<!-- Title: G Pages: 1 -->
<svg width="413pt" height="277pt"
 viewBox="0.00 0.00 413.00 277.09" xmlns="http://www.w3.org/2000/svg" xmlns:xlink="http://www.w3.org/1999/xlink">
<g id="graph0" class="graph" transform="scale(1 1) rotate(0) translate(4 273.09)">
<title>G</title>
<polygon fill="white" stroke="transparent" points="-4,4 -4,-273.09 409,-273.09 409,4 -4,4"/>
<g id="clust1" class="cluster">
<title>cluster1</title>
<polygon fill="none" stroke="black" points="143,-148 143,-261.09 397,-261.09 397,-148 143,-148"/>
<text text-anchor="middle" x="193.5" y="-245.89" font-family="Times,serif" font-size="14.00">Box1:Select</text>
</g>
<g id="clust3" class="cluster">
<title>cluster0</title>
<polygon fill="none" stroke="black" points="8,-8 8,-140 368,-140 368,-8 8,-8"/>
<text text-anchor="middle" x="69.5" y="-124.8" font-family="Times,serif" font-size="14.00">Box0:CallTable</text>
</g>
<!-- boxhead1 -->
<g id="node1" class="node">
<title>boxhead1</title>
<polygon fill="none" stroke="black" points="243,-158.55 243,-227.55 389,-227.55 389,-158.55 243,-158.55"/>
<text text-anchor="middle" x="316" y="-212.35" font-family="Times,serif" font-size="14.00">Distinct: Preserve</text>
<polyline fill="none" stroke="black" points="243,-204.55 389,-204.55 "/>
<text text-anchor="middle" x="316" y="-189.35" font-family="Times,serif" font-size="14.00">0: Q0.C0</text>
<polyline fill="none" stroke="black" points="243,-181.55 389,-181.55 "/>
<text text-anchor="middle" x="316" y="-166.35" font-family="Times,serif" font-size="14.00">1: Q0.C1</text>
</g>
<!-- Q0 -->
<g id="node2" class="node">
<title>Q0</title>
<ellipse fill="none" stroke="black" cx="188" cy="-193.05" rx="37.09" ry="37.09"/>
<text text-anchor="middle" x="188" y="-189.35" font-family="Times,serif" font-size="14.00">Q0(F)</text>
</g>
<!-- boxhead0 -->
<g id="node3" class="node">
<title>boxhead0</title>
<polygon fill="none" stroke="black" points="16,-16.5 16,-108.5 360,-108.5 360,-16.5 16,-16.5"/>
<text text-anchor="middle" x="188" y="-93.3" font-family="Times,serif" font-size="14.00">Distinct: Preserve</text>
<polyline fill="none" stroke="black" points="16,-85.5 360,-85.5 "/>
<text text-anchor="middle" x="188" y="-70.3" font-family="Times,serif" font-size="14.00">0: C0</text>
<polyline fill="none" stroke="black" points="16,-62.5 360,-62.5 "/>
<text text-anchor="middle" x="188" y="-47.3" font-family="Times,serif" font-size="14.00">1: C1</text>
<polyline fill="none" stroke="black" points="16,-39.5 360,-39.5 "/>
<text text-anchor="middle" x="188" y="-24.3" font-family="Times,serif" font-size="14.00">CALL: wrap2((1 + 0), (2 + 0), (3 + 0), (4 + 0))</text>
</g>
<!-- Q0&#45;&gt;boxhead0 -->
<g id="edge1" class="edge">
<title>Q0&#45;&gt;boxhead0</title>
<path fill="none" stroke="black" stroke-dasharray="5,2" d="M188,-155.9C188,-150.83 188,-145.48 188,-140"/>
</g>
</g>
</svg>
