<?xml version="1.0" encoding="UTF-8" standalone="no"?>
<!DOCTYPE svg PUBLIC "-//W3C//DTD SVG 1.1//EN"
 "http://www.w3.org/Graphics/SVG/1.1/DTD/svg11.dtd">
<!-- Generated by graphviz version 2.43.0 (0)
 -->
<!-- Title: G Pages: 1 -->
<svg width="596pt" height="270pt"
 viewBox="0.00 0.00 595.50 270.00" xmlns="http://www.w3.org/2000/svg" xmlns:xlink="http://www.w3.org/1999/xlink">
<g id="graph0" class="graph" transform="scale(1 1) rotate(0) translate(4 266)">
<title>G</title>
<polygon fill="white" stroke="transparent" points="-4,4 -4,-266 591.5,-266 591.5,4 -4,4"/>
<!-- node0 -->
<g id="node1" class="node">
<title>node0</title>
<polygon fill="none" stroke="black" points="245.5,-225.5 245.5,-261.5 341.5,-261.5 341.5,-225.5 245.5,-225.5"/>
<text text-anchor="start" x="253.5" y="-239.8" font-family="Times,serif" font-size="14.00">Constant ()</text>
</g>
<!-- node2 -->
<g id="node3" class="node">
<title>node2</title>
<polygon fill="none" stroke="black" points="10.5,-135.5 10.5,-173.5 284.5,-173.5 284.5,-135.5 10.5,-135.5"/>
<text text-anchor="start" x="18.5" y="-158.3" font-family="Times,serif" font-size="14.00">Join %0 %1</text>
<text text-anchor="start" x="18.5" y="-143.3" font-family="Times,serif" font-size="14.00">&#45; implementation = Unimplemented</text>
</g>
<!-- node0&#45;&gt;node2 -->
<g id="edge6" class="edge">
<title>node0&#45;&gt;node2</title>
<path fill="none" stroke="black" d="M264.66,-225.31C242.3,-211.99 211.1,-193.4 186.52,-178.75"/>
<polygon fill="black" stroke="black" points="188.17,-175.66 177.79,-173.55 184.59,-181.68 188.17,-175.66"/>
<text text-anchor="start" x="234.5" y="-195.8" font-family="Times,serif" font-size="14.00">%0</text>
</g>
<!-- node4 -->
<g id="node5" class="node">
<title>node4</title>
<polygon fill="none" stroke="black" points="302.5,-135.5 302.5,-173.5 576.5,-173.5 576.5,-135.5 302.5,-135.5"/>
<text text-anchor="start" x="310.5" y="-158.3" font-family="Times,serif" font-size="14.00">Join %0 %3</text>
<text text-anchor="start" x="310.5" y="-143.3" font-family="Times,serif" font-size="14.00">&#45; implementation = Unimplemented</text>
</g>
<!-- node0&#45;&gt;node4 -->
<g id="edge3" class="edge">
<title>node0&#45;&gt;node4</title>
<path fill="none" stroke="black" d="M322.34,-225.31C344.7,-211.99 375.9,-193.4 400.48,-178.75"/>
<polygon fill="black" stroke="black" points="402.41,-181.68 409.21,-173.55 398.83,-175.66 402.41,-181.68"/>
<text text-anchor="start" x="374.5" y="-195.8" font-family="Times,serif" font-size="14.00">%0</text>
</g>
<!-- node1 -->
<g id="node2" class="node">
<title>node1</title>
<polygon fill="none" stroke="black" points="0,-225.5 0,-261.5 227,-261.5 227,-225.5 0,-225.5"/>
<text text-anchor="start" x="8" y="-239.8" font-family="Times,serif" font-size="14.00">Get hir_to_qgm.public.r (u43)</text>
</g>
<!-- node1&#45;&gt;node2 -->
<g id="edge2" class="edge">
<title>node1&#45;&gt;node2</title>
<path fill="none" stroke="black" d="M120.22,-225.31C124.92,-213.28 131.31,-196.94 136.72,-183.09"/>
<polygon fill="black" stroke="black" points="140.07,-184.14 140.45,-173.55 133.55,-181.59 140.07,-184.14"/>
<text text-anchor="start" x="133.5" y="-195.8" font-family="Times,serif" font-size="14.00">%1</text>
</g>
<!-- node5 -->
<g id="node6" class="node">
<title>node5</title>
<polygon fill="none" stroke="black" points="156.5,-0.5 156.5,-83.5 430.5,-83.5 430.5,-0.5 156.5,-0.5"/>
<text text-anchor="start" x="164.5" y="-68.3" font-family="Times,serif" font-size="14.00">Join %2 %4</text>
<text text-anchor="start" x="164.5" y="-53.3" font-family="Times,serif" font-size="14.00">&#45; implementation = Unimplemented</text>
<text text-anchor="start" x="164.5" y="-38.3" font-family="Times,serif" font-size="14.00">Project (#0..=#3)</text>
<text text-anchor="start" x="164.5" y="-23.3" font-family="Times,serif" font-size="14.00">Filter (#0 = #2)</text>
<text text-anchor="start" x="164.5" y="-8.3" font-family="Times,serif" font-size="14.00">Project (#0..=#3)</text>
</g>
<!-- node2&#45;&gt;node5 -->
<g id="edge4" class="edge">
<title>node2&#45;&gt;node5</title>
<path fill="none" stroke="black" d="M171.61,-135.25C188.06,-122.81 210.63,-105.72 231.88,-89.64"/>
<polygon fill="black" stroke="black" points="234.09,-92.36 239.95,-83.53 229.86,-86.78 234.09,-92.36"/>
<text text-anchor="start" x="212.5" y="-105.8" font-family="Times,serif" font-size="14.00">%2</text>
</g>
<!-- node3 -->
<g id="node4" class="node">
<title>node3</title>
<polygon fill="none" stroke="black" points="359.5,-225.5 359.5,-261.5 587.5,-261.5 587.5,-225.5 359.5,-225.5"/>
<text text-anchor="start" x="367.5" y="-239.8" font-family="Times,serif" font-size="14.00">Get hir_to_qgm.public.s (u44)</text>
</g>
<!-- node3&#45;&gt;node4 -->
<g id="edge1" class="edge">
<title>node3&#45;&gt;node4</title>
<path fill="none" stroke="black" d="M466.78,-225.31C462.08,-213.28 455.69,-196.94 450.28,-183.09"/>
<polygon fill="black" stroke="black" points="453.45,-181.59 446.55,-173.55 446.93,-184.14 453.45,-181.59"/>
<text text-anchor="start" x="459.5" y="-195.8" font-family="Times,serif" font-size="14.00">%3</text>
</g>
<!-- node4&#45;&gt;node5 -->
<g id="edge5" class="edge">
<title>node4&#45;&gt;node5</title>
<path fill="none" stroke="black" d="M415.39,-135.25C398.94,-122.81 376.37,-105.72 355.12,-89.64"/>
<polygon fill="black" stroke="black" points="357.14,-86.78 347.05,-83.53 352.91,-92.36 357.14,-86.78"/>
<text text-anchor="start" x="387.5" y="-105.8" font-family="Times,serif" font-size="14.00">%4</text>
</g>
</g>
</svg>
