<?xml version="1.0" encoding="UTF-8" standalone="no"?>
<!DOCTYPE svg PUBLIC "-//W3C//DTD SVG 1.1//EN"
 "http://www.w3.org/Graphics/SVG/1.1/DTD/svg11.dtd">
<!-- Generated by graphviz version 2.43.0 (0)
 -->
<!-- Title: G Pages: 1 -->
<svg width="482pt" height="133pt"
 viewBox="0.00 0.00 481.50 133.00" xmlns="http://www.w3.org/2000/svg" xmlns:xlink="http://www.w3.org/1999/xlink">
<g id="graph0" class="graph" transform="scale(1 1) rotate(0) translate(4 129)">
<title>G</title>
<polygon fill="white" stroke="transparent" points="-4,4 -4,-129 477.5,-129 477.5,4 -4,4"/>
<!-- node0 -->
<g id="node1" class="node">
<title>node0</title>
<polygon fill="none" stroke="black" points="0,-88.5 0,-124.5 227,-124.5 227,-88.5 0,-88.5"/>
<text text-anchor="start" x="8" y="-102.8" font-family="Times,serif" font-size="14.00">Get hir_to_qgm.public.r (u43)</text>
</g>
<!-- node2 -->
<g id="node3" class="node">
<title>node2</title>
<polygon fill="none" stroke="black" points="118.5,-0.5 118.5,-36.5 354.5,-36.5 354.5,-0.5 118.5,-0.5"/>
<text text-anchor="start" x="126.5" y="-14.8" font-family="Times,serif" font-size="14.00">InnerJoin %0 %1 on (#0 = #2)</text>
</g>
<!-- node0&#45;&gt;node2 -->
<g id="edge2" class="edge">
<title>node0&#45;&gt;node2</title>
<path fill="none" stroke="black" d="M138.1,-88.3C156.87,-75.18 182.92,-56.97 203.5,-42.57"/>
<polygon fill="black" stroke="black" points="205.76,-45.27 211.95,-36.67 201.75,-39.53 205.76,-45.27"/>
<text text-anchor="start" x="182.5" y="-58.8" font-family="Times,serif" font-size="14.00">%0</text>
</g>
<!-- node1 -->
<g id="node2" class="node">
<title>node1</title>
<polygon fill="none" stroke="black" points="245.5,-88.5 245.5,-124.5 473.5,-124.5 473.5,-88.5 245.5,-88.5"/>
<text text-anchor="start" x="253.5" y="-102.8" font-family="Times,serif" font-size="14.00">Get hir_to_qgm.public.s (u44)</text>
</g>
<!-- node1&#45;&gt;node2 -->
<g id="edge1" class="edge">
<title>node1&#45;&gt;node2</title>
<path fill="none" stroke="black" d="M334.9,-88.3C316.13,-75.18 290.08,-56.97 269.5,-42.57"/>
<polygon fill="black" stroke="black" points="271.25,-39.53 261.05,-36.67 267.24,-45.27 271.25,-39.53"/>
<text text-anchor="start" x="305.5" y="-58.8" font-family="Times,serif" font-size="14.00">%1</text>
</g>
</g>
</svg>
