<?xml version="1.0" encoding="UTF-8" standalone="no"?>
<!DOCTYPE svg PUBLIC "-//W3C//DTD SVG 1.1//EN"
 "http://www.w3.org/Graphics/SVG/1.1/DTD/svg11.dtd">
<!-- Generated by graphviz version 2.43.0 (0)
 -->
<!-- Title: G Pages: 1 -->
<svg width="482pt" height="167pt"
 viewBox="0.00 0.00 481.50 167.00" xmlns="http://www.w3.org/2000/svg" xmlns:xlink="http://www.w3.org/1999/xlink">
<g id="graph0" class="graph" transform="scale(1 1) rotate(0) translate(4 163)">
<title>G</title>
<polygon fill="white" stroke="transparent" points="-4,4 -4,-163 477.5,-163 477.5,4 -4,4"/>
<!-- node0 -->
<g id="node1" class="node">
<title>node0</title>
<polygon fill="none" stroke="black" points="0,-105.5 0,-158.5 227,-158.5 227,-105.5 0,-105.5"/>
<text text-anchor="start" x="8" y="-143.3" font-family="Times,serif" font-size="14.00">Get hir_to_qgm.public.r (u43)</text>
<text text-anchor="start" x="8" y="-128.3" font-family="Times,serif" font-size="14.00">&#45; types = (bigint?, integer?)</text>
<text text-anchor="start" x="8" y="-113.3" font-family="Times,serif" font-size="14.00">&#45; keys = ()</text>
</g>
<!-- node2 -->
<g id="node3" class="node">
<title>node2</title>
<polygon fill="none" stroke="black" points="66,-0.5 66,-53.5 407,-53.5 407,-0.5 66,-0.5"/>
<text text-anchor="start" x="74" y="-38.3" font-family="Times,serif" font-size="14.00">InnerJoin %0 %1 on (#0 = #2)</text>
<text text-anchor="start" x="74" y="-23.3" font-family="Times,serif" font-size="14.00">&#45; types = (bigint?, integer?, bigint?, integer?)</text>
<text text-anchor="start" x="74" y="-8.3" font-family="Times,serif" font-size="14.00">&#45; keys = ()</text>
</g>
<!-- node0&#45;&gt;node2 -->
<g id="edge2" class="edge">
<title>node0&#45;&gt;node2</title>
<path fill="none" stroke="black" d="M144.22,-105.27C160.51,-91.63 180.68,-74.74 198.01,-60.23"/>
<polygon fill="black" stroke="black" points="200.32,-62.86 205.74,-53.75 195.83,-57.49 200.32,-62.86"/>
<text text-anchor="start" x="182.5" y="-75.8" font-family="Times,serif" font-size="14.00">%0</text>
</g>
<!-- node1 -->
<g id="node2" class="node">
<title>node1</title>
<polygon fill="none" stroke="black" points="245.5,-105.5 245.5,-158.5 473.5,-158.5 473.5,-105.5 245.5,-105.5"/>
<text text-anchor="start" x="253.5" y="-143.3" font-family="Times,serif" font-size="14.00">Get hir_to_qgm.public.s (u44)</text>
<text text-anchor="start" x="253.5" y="-128.3" font-family="Times,serif" font-size="14.00">&#45; types = (bigint?, integer?)</text>
<text text-anchor="start" x="253.5" y="-113.3" font-family="Times,serif" font-size="14.00">&#45; keys = ()</text>
</g>
<!-- node1&#45;&gt;node2 -->
<g id="edge1" class="edge">
<title>node1&#45;&gt;node2</title>
<path fill="none" stroke="black" d="M328.78,-105.27C312.49,-91.63 292.32,-74.74 274.99,-60.23"/>
<polygon fill="black" stroke="black" points="277.17,-57.49 267.26,-53.75 272.68,-62.86 277.17,-57.49"/>
<text text-anchor="start" x="305.5" y="-75.8" font-family="Times,serif" font-size="14.00">%1</text>
</g>
</g>
</svg>
