<?xml version="1.0" encoding="UTF-8" standalone="no"?>
<!DOCTYPE svg PUBLIC "-//W3C//DTD SVG 1.1//EN"
 "http://www.w3.org/Graphics/SVG/1.1/DTD/svg11.dtd">
<!-- Generated by graphviz version 2.43.0 (0)
 -->
<!-- Title: G Pages: 1 -->
<svg width="473pt" height="542pt"
 viewBox="0.00 0.00 472.50 542.00" xmlns="http://www.w3.org/2000/svg" xmlns:xlink="http://www.w3.org/1999/xlink">
<g id="graph0" class="graph" transform="scale(1 1) rotate(0) translate(4 538)">
<title>G</title>
<polygon fill="white" stroke="transparent" points="-4,4 -4,-538 468.5,-538 468.5,4 -4,4"/>
<!-- node0 -->
<g id="node1" class="node">
<title>node0</title>
<polygon fill="none" stroke="black" points="52.5,-495.5 52.5,-533.5 153.5,-533.5 153.5,-495.5 52.5,-495.5"/>
<text text-anchor="start" x="60.5" y="-518.3" font-family="Times,serif" font-size="14.00">Let l0 =</text>
<text text-anchor="start" x="60.5" y="-503.3" font-family="Times,serif" font-size="14.00"> Constant ()</text>
</g>
<!-- node2 -->
<g id="node3" class="node">
<title>node2</title>
<polygon fill="none" stroke="black" points="186.5,-390.5 186.5,-443.5 455.5,-443.5 455.5,-390.5 186.5,-390.5"/>
<text text-anchor="start" x="194.5" y="-428.3" font-family="Times,serif" font-size="14.00">Let l1 =</text>
<text text-anchor="start" x="194.5" y="-413.3" font-family="Times,serif" font-size="14.00"> Join %0 %1</text>
<text text-anchor="start" x="194.5" y="-398.3" font-family="Times,serif" font-size="14.00"> implementation = Unimplemented</text>
</g>
<!-- node0&#45;&gt;node2 -->
<g id="edge3" class="edge">
<title>node0&#45;&gt;node2</title>
<path fill="none" stroke="black" d="M144.26,-495.42C174.97,-481.97 217.56,-463.31 253.24,-447.68"/>
<polygon fill="black" stroke="black" points="254.87,-450.79 262.62,-443.57 252.06,-444.38 254.87,-450.79"/>
<text text-anchor="start" x="219" y="-465.8" font-family="Times,serif" font-size="14.00">%0</text>
</g>
<!-- node3 -->
<g id="node4" class="node">
<title>node3</title>
<polygon fill="none" stroke="black" points="0,-390.5 0,-443.5 168,-443.5 168,-390.5 0,-390.5"/>
<text text-anchor="start" x="8" y="-428.3" font-family="Times,serif" font-size="14.00">Let l2 =</text>
<text text-anchor="start" x="8" y="-413.3" font-family="Times,serif" font-size="14.00"> Get %0 (l0)</text>
<text text-anchor="start" x="8" y="-398.3" font-family="Times,serif" font-size="14.00"> FlatMap wrap1(1, 2)</text>
</g>
<!-- node0&#45;&gt;node3 -->
<g id="edge6" class="edge">
<title>node0&#45;&gt;node3</title>
<path fill="none" stroke="black" d="M99.34,-495.09C96.99,-483.31 93.88,-467.65 91.07,-453.52"/>
<polygon fill="black" stroke="black" points="94.47,-452.7 89.09,-443.58 87.61,-454.07 94.47,-452.7"/>
<text text-anchor="start" x="96" y="-465.8" font-family="Times,serif" font-size="14.00">%0</text>
</g>
<!-- node1 -->
<g id="node2" class="node">
<title>node1</title>
<polygon fill="none" stroke="black" points="177.5,-496.5 177.5,-532.5 464.5,-532.5 464.5,-496.5 177.5,-496.5"/>
<text text-anchor="start" x="185.5" y="-510.8" font-family="Times,serif" font-size="14.00">Get reduction_pushdown.public.r (u1)</text>
</g>
<!-- node1&#45;&gt;node2 -->
<g id="edge5" class="edge">
<title>node1&#45;&gt;node2</title>
<path fill="none" stroke="black" d="M321,-496.43C321,-484.6 321,-468.41 321,-453.82"/>
<polygon fill="black" stroke="black" points="324.5,-453.55 321,-443.55 317.5,-453.56 324.5,-453.55"/>
<text text-anchor="start" x="321" y="-465.8" font-family="Times,serif" font-size="14.00">%1</text>
</g>
<!-- node4 -->
<g id="node5" class="node">
<title>node4</title>
<polygon fill="none" stroke="black" points="67.5,-255.5 67.5,-338.5 336.5,-338.5 336.5,-255.5 67.5,-255.5"/>
<text text-anchor="start" x="75.5" y="-323.3" font-family="Times,serif" font-size="14.00">Let l3 =</text>
<text text-anchor="start" x="75.5" y="-308.3" font-family="Times,serif" font-size="14.00"> Join %2 %3</text>
<text text-anchor="start" x="75.5" y="-293.3" font-family="Times,serif" font-size="14.00"> implementation = Unimplemented</text>
<text text-anchor="start" x="75.5" y="-278.3" font-family="Times,serif" font-size="14.00"> Project (#0..#3)</text>
<text text-anchor="start" x="75.5" y="-263.3" font-family="Times,serif" font-size="14.00"> Filter (#0 = #3)</text>
</g>
<!-- node2&#45;&gt;node4 -->
<g id="edge8" class="edge">
<title>node2&#45;&gt;node4</title>
<path fill="none" stroke="black" d="M295.18,-390.4C282.14,-377.46 265.88,-361.34 250.61,-346.2"/>
<polygon fill="black" stroke="black" points="252.78,-343.42 243.21,-338.86 247.85,-348.39 252.78,-343.42"/>
<text text-anchor="start" x="276" y="-360.8" font-family="Times,serif" font-size="14.00">%2</text>
</g>
<!-- node3&#45;&gt;node4 -->
<g id="edge4" class="edge">
<title>node3&#45;&gt;node4</title>
<path fill="none" stroke="black" d="M109.6,-390.4C122.54,-377.46 138.66,-361.34 153.8,-346.2"/>
<polygon fill="black" stroke="black" points="156.54,-348.41 161.14,-338.86 151.59,-343.46 156.54,-348.41"/>
<text text-anchor="start" x="143" y="-360.8" font-family="Times,serif" font-size="14.00">%3</text>
</g>
<!-- node5 -->
<g id="node6" class="node">
<title>node5</title>
<polygon fill="none" stroke="black" points="95.5,-135.5 95.5,-203.5 262.5,-203.5 262.5,-135.5 95.5,-135.5"/>
<text text-anchor="start" x="103.5" y="-188.3" font-family="Times,serif" font-size="14.00">Let l4 =</text>
<text text-anchor="start" x="103.5" y="-173.3" font-family="Times,serif" font-size="14.00"> Get %4 (l3)</text>
<text text-anchor="start" x="103.5" y="-158.3" font-family="Times,serif" font-size="14.00"> Project (#0)</text>
<text text-anchor="start" x="103.5" y="-143.3" font-family="Times,serif" font-size="14.00"> Distinct group=(#0)</text>
</g>
<!-- node4&#45;&gt;node5 -->
<g id="edge2" class="edge">
<title>node4&#45;&gt;node5</title>
<path fill="none" stroke="black" d="M194.53,-255.25C192.09,-241.91 189.36,-227.04 186.89,-213.53"/>
<polygon fill="black" stroke="black" points="190.3,-212.72 185.05,-203.51 183.41,-213.98 190.3,-212.72"/>
<text text-anchor="start" x="191" y="-225.8" font-family="Times,serif" font-size="14.00">%4</text>
</g>
<!-- node6 -->
<g id="node7" class="node">
<title>node6</title>
<polygon fill="none" stroke="black" points="280,-150.5 280,-188.5 382,-188.5 382,-150.5 280,-150.5"/>
<text text-anchor="start" x="288" y="-173.3" font-family="Times,serif" font-size="14.00">Let l5 =</text>
<text text-anchor="start" x="288" y="-158.3" font-family="Times,serif" font-size="14.00"> Get %4 (l3)</text>
</g>
<!-- node4&#45;&gt;node6 -->
<g id="edge7" class="edge">
<title>node4&#45;&gt;node6</title>
<path fill="none" stroke="black" d="M243.88,-255.25C263.92,-235.76 287.28,-213.03 304.77,-196.02"/>
<polygon fill="black" stroke="black" points="307.63,-198.12 312.36,-188.64 302.75,-193.1 307.63,-198.12"/>
<text text-anchor="start" x="279" y="-225.8" font-family="Times,serif" font-size="14.00">%4</text>
</g>
<!-- node7 -->
<g id="node8" class="node">
<title>node7</title>
<polygon fill="none" stroke="black" points="202.5,-0.5 202.5,-83.5 459.5,-83.5 459.5,-0.5 202.5,-0.5"/>
<text text-anchor="start" x="210.5" y="-68.3" font-family="Times,serif" font-size="14.00">Get %6 (l5)</text>
<text text-anchor="start" x="210.5" y="-53.3" font-family="Times,serif" font-size="14.00"> Map (#1 / #2)</text>
<text text-anchor="start" x="210.5" y="-38.3" font-family="Times,serif" font-size="14.00"> Project (#0..#4)</text>
<text text-anchor="start" x="210.5" y="-23.3" font-family="Times,serif" font-size="14.00"> Project (#0..#2, #4)</text>
<text text-anchor="start" x="210.5" y="-8.3" font-family="Times,serif" font-size="14.00"> Distinct group=(#0, #1, #2, #3)</text>
</g>
<!-- node6&#45;&gt;node7 -->
<g id="edge1" class="edge">
<title>node6&#45;&gt;node7</title>
<path fill="none" stroke="black" d="M331,-150.25C331,-135.43 331,-113.79 331,-93.82"/>
<polygon fill="black" stroke="black" points="334.5,-93.57 331,-83.57 327.5,-93.57 334.5,-93.57"/>
<text text-anchor="start" x="331" y="-105.8" font-family="Times,serif" font-size="14.00">%6</text>
</g>
</g>
</svg>
