<?xml version="1.0" encoding="UTF-8" standalone="no"?>
<!DOCTYPE svg PUBLIC "-//W3C//DTD SVG 1.1//EN"
 "http://www.w3.org/Graphics/SVG/1.1/DTD/svg11.dtd">
<!-- Generated by graphviz version 2.43.0 (0)
 -->
<!-- Title: G Pages: 1 -->
<svg width="442pt" height="165pt"
 viewBox="0.00 0.00 442.00 165.00" xmlns="http://www.w3.org/2000/svg" xmlns:xlink="http://www.w3.org/1999/xlink">
<g id="graph0" class="graph" transform="scale(1 1) rotate(0) translate(4 161)">
<title>G</title>
<polygon fill="white" stroke="transparent" points="-4,4 -4,-161 438,-161 438,4 -4,4"/>
<!-- node0 -->
<g id="node1" class="node">
<title>node0</title>
<polygon fill="none" stroke="black" points="0,-120.5 0,-156.5 287,-156.5 287,-120.5 0,-120.5"/>
<text text-anchor="start" x="8" y="-134.8" font-family="Times,serif" font-size="14.00">Get reduction_pushdown.public.r (u1)</text>
</g>
<!-- node2 -->
<g id="node3" class="node">
<title>node2</title>
<polygon fill="none" stroke="black" points="93.5,-0.5 93.5,-68.5 419.5,-68.5 419.5,-0.5 93.5,-0.5"/>
<text text-anchor="start" x="101.5" y="-53.3" font-family="Times,serif" font-size="14.00">Join %0 %1 (= #0 #3)</text>
<text text-anchor="start" x="101.5" y="-38.3" font-family="Times,serif" font-size="14.00"> implementation = Differential %0 %1.(#0)</text>
<text text-anchor="start" x="101.5" y="-23.3" font-family="Times,serif" font-size="14.00"> Project (#0..#2)</text>
<text text-anchor="start" x="101.5" y="-8.3" font-family="Times,serif" font-size="14.00"> Distinct group=(#0, #1, #2, (#1 / #2))</text>
</g>
<!-- node0&#45;&gt;node2 -->
<g id="edge2" class="edge">
<title>node0&#45;&gt;node2</title>
<path fill="none" stroke="black" d="M162.41,-120.43C175.93,-108.23 194.69,-91.3 211.9,-75.76"/>
<polygon fill="black" stroke="black" points="214.6,-78.03 219.68,-68.74 209.91,-72.84 214.6,-78.03"/>
<text text-anchor="start" x="197.5" y="-90.8" font-family="Times,serif" font-size="14.00">%0</text>
</g>
<!-- node1 -->
<g id="node2" class="node">
<title>node1</title>
<polygon fill="none" stroke="black" points="305,-120.5 305,-156.5 434,-156.5 434,-120.5 305,-120.5"/>
<text text-anchor="start" x="313" y="-134.8" font-family="Times,serif" font-size="14.00">Constant (1) (2)</text>
</g>
<!-- node1&#45;&gt;node2 -->
<g id="edge1" class="edge">
<title>node1&#45;&gt;node2</title>
<path fill="none" stroke="black" d="M350.59,-120.43C337.07,-108.23 318.31,-91.3 301.1,-75.76"/>
<polygon fill="black" stroke="black" points="303.09,-72.84 293.32,-68.74 298.4,-78.03 303.09,-72.84"/>
<text text-anchor="start" x="329.5" y="-90.8" font-family="Times,serif" font-size="14.00">%1</text>
</g>
</g>
</svg>
