<?xml version="1.0" encoding="UTF-8" standalone="no"?>
<!DOCTYPE svg PUBLIC "-//W3C//DTD SVG 1.1//EN"
 "http://www.w3.org/Graphics/SVG/1.1/DTD/svg11.dtd">
<!-- Generated by graphviz version 2.43.0 (0)
 -->
<!-- Title: G Pages: 1 -->
<svg width="484pt" height="165pt"
 viewBox="0.00 0.00 483.50 165.00" xmlns="http://www.w3.org/2000/svg" xmlns:xlink="http://www.w3.org/1999/xlink">
<g id="graph0" class="graph" transform="scale(1 1) rotate(0) translate(4 161)">
<title>G</title>
<polygon fill="white" stroke="transparent" points="-4,4 -4,-161 479.5,-161 479.5,4 -4,4"/>
<!-- node0 -->
<g id="node1" class="node">
<title>node0</title>
<polygon fill="none" stroke="black" points="0,-120.5 0,-156.5 287,-156.5 287,-120.5 0,-120.5"/>
<text text-anchor="start" x="8" y="-134.8" font-family="Times,serif" font-size="14.00">Get reduction_pushdown.public.r (u1)</text>
</g>
<!-- node2 -->
<g id="node3" class="node">
<title>node2</title>
<polygon fill="none" stroke="black" points="148.5,-0.5 148.5,-68.5 384.5,-68.5 384.5,-0.5 148.5,-0.5"/>
<text text-anchor="start" x="156.5" y="-53.3" font-family="Times,serif" font-size="14.00">InnerJoin %0 %1 on (#0 = #3)</text>
<text text-anchor="start" x="156.5" y="-38.3" font-family="Times,serif" font-size="14.00"> Map (#1 / #2)</text>
<text text-anchor="start" x="156.5" y="-23.3" font-family="Times,serif" font-size="14.00"> Project (#0..#2, #4)</text>
<text text-anchor="start" x="156.5" y="-8.3" font-family="Times,serif" font-size="14.00"> Distinct</text>
</g>
<!-- node0&#45;&gt;node2 -->
<g id="edge2" class="edge">
<title>node0&#45;&gt;node2</title>
<path fill="none" stroke="black" d="M164.09,-120.43C179.05,-108.02 199.94,-90.7 218.94,-74.94"/>
<polygon fill="black" stroke="black" points="221.21,-77.6 226.67,-68.53 216.74,-72.22 221.21,-77.6"/>
<text text-anchor="start" x="201.5" y="-90.8" font-family="Times,serif" font-size="14.00">%0</text>
</g>
<!-- node1 -->
<g id="node2" class="node">
<title>node1</title>
<polygon fill="none" stroke="black" points="305.5,-120.5 305.5,-156.5 475.5,-156.5 475.5,-120.5 305.5,-120.5"/>
<text text-anchor="start" x="313.5" y="-134.8" font-family="Times,serif" font-size="14.00">CallTable wrap1(1, 2)</text>
</g>
<!-- node1&#45;&gt;node2 -->
<g id="edge1" class="edge">
<title>node1&#45;&gt;node2</title>
<path fill="none" stroke="black" d="M369.75,-120.43C354.66,-108.02 333.6,-90.7 314.44,-74.94"/>
<polygon fill="black" stroke="black" points="316.6,-72.18 306.65,-68.53 312.15,-77.58 316.6,-72.18"/>
<text text-anchor="start" x="346.5" y="-90.8" font-family="Times,serif" font-size="14.00">%1</text>
</g>
</g>
</svg>
