<?xml version="1.0" encoding="UTF-8" standalone="no"?>
<!DOCTYPE svg PUBLIC "-//W3C//DTD SVG 1.1//EN"
 "http://www.w3.org/Graphics/SVG/1.1/DTD/svg11.dtd">
<!-- Generated by graphviz version 2.43.0 (0)
 -->
<!-- Title: G Pages: 1 -->
<svg width="720pt" height="962pt"
 viewBox="0.00 0.00 720.00 962.00" xmlns="http://www.w3.org/2000/svg" xmlns:xlink="http://www.w3.org/1999/xlink">
<g id="graph0" class="graph" transform="scale(1 1) rotate(0) translate(4 958)">
<title>G</title>
<polygon fill="white" stroke="transparent" points="-4,4 -4,-958 716,-958 716,4 -4,4"/>
<!-- node0 -->
<g id="node1" class="node">
<title>node0</title>
<polygon fill="none" stroke="black" points="52.5,-885.5 52.5,-953.5 153.5,-953.5 153.5,-885.5 52.5,-885.5"/>
<text text-anchor="start" x="60.5" y="-938.3" font-family="Times,serif" font-size="14.00">Let l0 =</text>
<text text-anchor="start" x="60.5" y="-923.3" font-family="Times,serif" font-size="14.00"> Constant ()</text>
<text text-anchor="start" x="60.5" y="-908.3" font-family="Times,serif" font-size="14.00"> types = ()</text>
<text text-anchor="start" x="60.5" y="-893.3" font-family="Times,serif" font-size="14.00"> keys = (())</text>
</g>
<!-- node2 -->
<g id="node3" class="node">
<title>node2</title>
<polygon fill="none" stroke="black" points="186.5,-735.5 186.5,-818.5 455.5,-818.5 455.5,-735.5 186.5,-735.5"/>
<text text-anchor="start" x="194.5" y="-803.3" font-family="Times,serif" font-size="14.00">Let l1 =</text>
<text text-anchor="start" x="194.5" y="-788.3" font-family="Times,serif" font-size="14.00"> Join %0 %1</text>
<text text-anchor="start" x="194.5" y="-773.3" font-family="Times,serif" font-size="14.00"> implementation = Unimplemented</text>
<text text-anchor="start" x="194.5" y="-758.3" font-family="Times,serif" font-size="14.00"> types = (integer, integer, integer)</text>
<text text-anchor="start" x="194.5" y="-743.3" font-family="Times,serif" font-size="14.00"> keys = ()</text>
</g>
<!-- node0&#45;&gt;node2 -->
<g id="edge3" class="edge">
<title>node0&#45;&gt;node2</title>
<path fill="none" stroke="black" d="M153.56,-885.91C181.96,-867.61 217.87,-844.47 249.15,-824.31"/>
<polygon fill="black" stroke="black" points="251.33,-827.07 257.84,-818.71 247.53,-821.18 251.33,-827.07"/>
<text text-anchor="start" x="206" y="-855.8" font-family="Times,serif" font-size="14.00">%0</text>
</g>
<!-- node3 -->
<g id="node4" class="node">
<title>node3</title>
<polygon fill="none" stroke="black" points="0,-720.5 0,-833.5 168,-833.5 168,-720.5 0,-720.5"/>
<text text-anchor="start" x="8" y="-818.3" font-family="Times,serif" font-size="14.00">Let l2 =</text>
<text text-anchor="start" x="8" y="-803.3" font-family="Times,serif" font-size="14.00"> Get %0 (l0)</text>
<text text-anchor="start" x="8" y="-788.3" font-family="Times,serif" font-size="14.00"> types = ()</text>
<text text-anchor="start" x="8" y="-773.3" font-family="Times,serif" font-size="14.00"> keys = (())</text>
<text text-anchor="start" x="8" y="-758.3" font-family="Times,serif" font-size="14.00"> FlatMap wrap1(1, 2)</text>
<text text-anchor="start" x="8" y="-743.3" font-family="Times,serif" font-size="14.00"> types = (integer)</text>
<text text-anchor="start" x="8" y="-728.3" font-family="Times,serif" font-size="14.00"> keys = ()</text>
</g>
<!-- node0&#45;&gt;node3 -->
<g id="edge6" class="edge">
<title>node0&#45;&gt;node3</title>
<path fill="none" stroke="black" d="M98.5,-885.2C96.8,-872.68 94.81,-857.96 92.86,-843.51"/>
<polygon fill="black" stroke="black" points="96.32,-843.02 91.52,-833.58 89.39,-843.96 96.32,-843.02"/>
<text text-anchor="start" x="96" y="-855.8" font-family="Times,serif" font-size="14.00">%0</text>
</g>
<!-- node1 -->
<g id="node2" class="node">
<title>node1</title>
<polygon fill="none" stroke="black" points="177.5,-893 177.5,-946 464.5,-946 464.5,-893 177.5,-893"/>
<text text-anchor="start" x="185.5" y="-930.8" font-family="Times,serif" font-size="14.00">Get reduction_pushdown.public.r (u1)</text>
<text text-anchor="start" x="185.5" y="-915.8" font-family="Times,serif" font-size="14.00"> types = (integer, integer, integer)</text>
<text text-anchor="start" x="185.5" y="-900.8" font-family="Times,serif" font-size="14.00"> keys = ()</text>
</g>
<!-- node1&#45;&gt;node2 -->
<g id="edge5" class="edge">
<title>node1&#45;&gt;node2</title>
<path fill="none" stroke="black" d="M321,-892.73C321,-874.81 321,-850.34 321,-828.59"/>
<polygon fill="black" stroke="black" points="324.5,-828.5 321,-818.5 317.5,-828.5 324.5,-828.5"/>
<text text-anchor="start" x="321" y="-855.8" font-family="Times,serif" font-size="14.00">%1</text>
</g>
<!-- node4 -->
<g id="node5" class="node">
<title>node4</title>
<polygon fill="none" stroke="black" points="41.5,-495.5 41.5,-668.5 362.5,-668.5 362.5,-495.5 41.5,-495.5"/>
<text text-anchor="start" x="49.5" y="-653.3" font-family="Times,serif" font-size="14.00">Let l3 =</text>
<text text-anchor="start" x="49.5" y="-638.3" font-family="Times,serif" font-size="14.00"> Join %2 %3</text>
<text text-anchor="start" x="49.5" y="-623.3" font-family="Times,serif" font-size="14.00"> implementation = Unimplemented</text>
<text text-anchor="start" x="49.5" y="-608.3" font-family="Times,serif" font-size="14.00"> types = (integer, integer, integer, integer)</text>
<text text-anchor="start" x="49.5" y="-593.3" font-family="Times,serif" font-size="14.00"> keys = ()</text>
<text text-anchor="start" x="49.5" y="-578.3" font-family="Times,serif" font-size="14.00"> Project (#0..#3)</text>
<text text-anchor="start" x="49.5" y="-563.3" font-family="Times,serif" font-size="14.00"> types = (integer, integer, integer, integer)</text>
<text text-anchor="start" x="49.5" y="-548.3" font-family="Times,serif" font-size="14.00"> keys = ()</text>
<text text-anchor="start" x="49.5" y="-533.3" font-family="Times,serif" font-size="14.00"> Filter (#0 = #3)</text>
<text text-anchor="start" x="49.5" y="-518.3" font-family="Times,serif" font-size="14.00"> types = (integer, integer, integer, integer)</text>
<text text-anchor="start" x="49.5" y="-503.3" font-family="Times,serif" font-size="14.00"> keys = ()</text>
</g>
<!-- node2&#45;&gt;node4 -->
<g id="edge8" class="edge">
<title>node2&#45;&gt;node4</title>
<path fill="none" stroke="black" d="M295.76,-735.07C285.32,-718.13 272.73,-697.72 260.22,-677.43"/>
<polygon fill="black" stroke="black" points="263.1,-675.43 254.87,-668.75 257.14,-679.1 263.1,-675.43"/>
<text text-anchor="start" x="273" y="-690.8" font-family="Times,serif" font-size="14.00">%2</text>
</g>
<!-- node3&#45;&gt;node4 -->
<g id="edge4" class="edge">
<title>node3&#45;&gt;node4</title>
<path fill="none" stroke="black" d="M117.97,-720.44C126.22,-706.94 135.28,-692.13 144.29,-677.38"/>
<polygon fill="black" stroke="black" points="147.36,-679.08 149.59,-668.72 141.39,-675.43 147.36,-679.08"/>
<text text-anchor="start" x="136" y="-690.8" font-family="Times,serif" font-size="14.00">%3</text>
</g>
<!-- node5 -->
<g id="node6" class="node">
<title>node5</title>
<polygon fill="none" stroke="black" points="18.5,-285.5 18.5,-443.5 339.5,-443.5 339.5,-285.5 18.5,-285.5"/>
<text text-anchor="start" x="26.5" y="-428.3" font-family="Times,serif" font-size="14.00">Let l4 =</text>
<text text-anchor="start" x="26.5" y="-413.3" font-family="Times,serif" font-size="14.00"> Get %4 (l3)</text>
<text text-anchor="start" x="26.5" y="-398.3" font-family="Times,serif" font-size="14.00"> types = (integer, integer, integer, integer)</text>
<text text-anchor="start" x="26.5" y="-383.3" font-family="Times,serif" font-size="14.00"> keys = ()</text>
<text text-anchor="start" x="26.5" y="-368.3" font-family="Times,serif" font-size="14.00"> Project (#0)</text>
<text text-anchor="start" x="26.5" y="-353.3" font-family="Times,serif" font-size="14.00"> types = (integer)</text>
<text text-anchor="start" x="26.5" y="-338.3" font-family="Times,serif" font-size="14.00"> keys = ()</text>
<text text-anchor="start" x="26.5" y="-323.3" font-family="Times,serif" font-size="14.00"> Distinct group=(#0)</text>
<text text-anchor="start" x="26.5" y="-308.3" font-family="Times,serif" font-size="14.00"> types = (integer)</text>
<text text-anchor="start" x="26.5" y="-293.3" font-family="Times,serif" font-size="14.00"> keys = ((#0))</text>
</g>
<!-- node4&#45;&gt;node5 -->
<g id="edge2" class="edge">
<title>node4&#45;&gt;node5</title>
<path fill="none" stroke="black" d="M192.84,-495.21C191.4,-481.65 189.9,-467.6 188.44,-453.98"/>
<polygon fill="black" stroke="black" points="191.88,-453.23 187.34,-443.66 184.92,-453.97 191.88,-453.23"/>
<text text-anchor="start" x="191" y="-465.8" font-family="Times,serif" font-size="14.00">%4</text>
</g>
<!-- node6 -->
<g id="node7" class="node">
<title>node6</title>
<polygon fill="none" stroke="black" points="357.5,-330.5 357.5,-398.5 678.5,-398.5 678.5,-330.5 357.5,-330.5"/>
<text text-anchor="start" x="365.5" y="-383.3" font-family="Times,serif" font-size="14.00">Let l5 =</text>
<text text-anchor="start" x="365.5" y="-368.3" font-family="Times,serif" font-size="14.00"> Get %4 (l3)</text>
<text text-anchor="start" x="365.5" y="-353.3" font-family="Times,serif" font-size="14.00"> types = (integer, integer, integer, integer)</text>
<text text-anchor="start" x="365.5" y="-338.3" font-family="Times,serif" font-size="14.00"> keys = ()</text>
</g>
<!-- node4&#45;&gt;node6 -->
<g id="edge7" class="edge">
<title>node4&#45;&gt;node6</title>
<path fill="none" stroke="black" d="M327.8,-495.21C373.85,-463.81 423.71,-429.8 460.82,-404.49"/>
<polygon fill="black" stroke="black" points="463.2,-407.1 469.49,-398.58 459.26,-401.32 463.2,-407.1"/>
<text text-anchor="start" x="369" y="-465.8" font-family="Times,serif" font-size="14.00">%4</text>
</g>
<!-- node7 -->
<g id="node8" class="node">
<title>node7</title>
<polygon fill="none" stroke="black" points="324,-0.5 324,-233.5 712,-233.5 712,-0.5 324,-0.5"/>
<text text-anchor="start" x="332" y="-218.3" font-family="Times,serif" font-size="14.00">Get %6 (l5)</text>
<text text-anchor="start" x="332" y="-203.3" font-family="Times,serif" font-size="14.00"> types = (integer, integer, integer, integer)</text>
<text text-anchor="start" x="332" y="-188.3" font-family="Times,serif" font-size="14.00"> keys = ()</text>
<text text-anchor="start" x="332" y="-173.3" font-family="Times,serif" font-size="14.00"> Map (#1 / #2)</text>
<text text-anchor="start" x="332" y="-158.3" font-family="Times,serif" font-size="14.00"> types = (integer, integer, integer, integer, integer?)</text>
<text text-anchor="start" x="332" y="-143.3" font-family="Times,serif" font-size="14.00"> keys = ()</text>
<text text-anchor="start" x="332" y="-128.3" font-family="Times,serif" font-size="14.00"> Project (#0..#4)</text>
<text text-anchor="start" x="332" y="-113.3" font-family="Times,serif" font-size="14.00"> types = (integer, integer, integer, integer, integer?)</text>
<text text-anchor="start" x="332" y="-98.3" font-family="Times,serif" font-size="14.00"> keys = ()</text>
<text text-anchor="start" x="332" y="-83.3" font-family="Times,serif" font-size="14.00"> Project (#0..#2, #4)</text>
<text text-anchor="start" x="332" y="-68.3" font-family="Times,serif" font-size="14.00"> types = (integer, integer, integer, integer?)</text>
<text text-anchor="start" x="332" y="-53.3" font-family="Times,serif" font-size="14.00"> keys = ()</text>
<text text-anchor="start" x="332" y="-38.3" font-family="Times,serif" font-size="14.00"> Distinct group=(#0, #1, #2, #3)</text>
<text text-anchor="start" x="332" y="-23.3" font-family="Times,serif" font-size="14.00"> types = (integer, integer, integer, integer?)</text>
<text text-anchor="start" x="332" y="-8.3" font-family="Times,serif" font-size="14.00"> keys = ((#0..#3))</text>
</g>
<!-- node6&#45;&gt;node7 -->
<g id="edge1" class="edge">
<title>node6&#45;&gt;node7</title>
<path fill="none" stroke="black" d="M518,-330.39C518,-307.72 518,-276.07 518,-244.11"/>
<polygon fill="black" stroke="black" points="521.5,-243.74 518,-233.74 514.5,-243.74 521.5,-243.74"/>
<text text-anchor="start" x="518" y="-255.8" font-family="Times,serif" font-size="14.00">%6</text>
</g>
</g>
</svg>
