<?xml version="1.0" encoding="UTF-8" standalone="no"?>
<!DOCTYPE svg PUBLIC "-//W3C//DTD SVG 1.1//EN"
 "http://www.w3.org/Graphics/SVG/1.1/DTD/svg11.dtd">
<!-- Generated by graphviz version 2.43.0 (0)
 -->
<!-- Title: G Pages: 1 -->
<svg width="456pt" height="272pt"
 viewBox="0.00 0.00 456.00 272.00" xmlns="http://www.w3.org/2000/svg" xmlns:xlink="http://www.w3.org/1999/xlink">
<g id="graph0" class="graph" transform="scale(1 1) rotate(0) translate(4 268)">
<title>G</title>
<polygon fill="white" stroke="transparent" points="-4,4 -4,-268 452,-268 452,4 -4,4"/>
<!-- node0 -->
<g id="node1" class="node">
<title>node0</title>
<polygon fill="none" stroke="black" points="0,-210.5 0,-263.5 287,-263.5 287,-210.5 0,-210.5"/>
<text text-anchor="start" x="8" y="-248.3" font-family="Times,serif" font-size="14.00">Get reduction_pushdown.public.r (u1)</text>
<text text-anchor="start" x="8" y="-233.3" font-family="Times,serif" font-size="14.00"> types = (integer, integer, integer)</text>
<text text-anchor="start" x="8" y="-218.3" font-family="Times,serif" font-size="14.00"> keys = ()</text>
</g>
<!-- node2 -->
<g id="node3" class="node">
<title>node2</title>
<polygon fill="none" stroke="black" points="95,-0.5 95,-158.5 424,-158.5 424,-0.5 95,-0.5"/>
<text text-anchor="start" x="103" y="-143.3" font-family="Times,serif" font-size="14.00">Join %0 %1 (= #0 #3)</text>
<text text-anchor="start" x="103" y="-128.3" font-family="Times,serif" font-size="14.00"> implementation = Differential %0 %1.(#0)</text>
<text text-anchor="start" x="103" y="-113.3" font-family="Times,serif" font-size="14.00"> types = (integer, integer, integer, integer)</text>
<text text-anchor="start" x="103" y="-98.3" font-family="Times,serif" font-size="14.00"> keys = ()</text>
<text text-anchor="start" x="103" y="-83.3" font-family="Times,serif" font-size="14.00"> Project (#0..#2)</text>
<text text-anchor="start" x="103" y="-68.3" font-family="Times,serif" font-size="14.00"> types = (integer, integer, integer)</text>
<text text-anchor="start" x="103" y="-53.3" font-family="Times,serif" font-size="14.00"> keys = ()</text>
<text text-anchor="start" x="103" y="-38.3" font-family="Times,serif" font-size="14.00"> Distinct group=(#0, #1, #2, (#1 / #2))</text>
<text text-anchor="start" x="103" y="-23.3" font-family="Times,serif" font-size="14.00"> types = (integer, integer, integer, integer?)</text>
<text text-anchor="start" x="103" y="-8.3" font-family="Times,serif" font-size="14.00"> keys = ((#0..#3))</text>
</g>
<!-- node0&#45;&gt;node2 -->
<g id="edge2" class="edge">
<title>node0&#45;&gt;node2</title>
<path fill="none" stroke="black" d="M162.66,-210.32C171.75,-198.13 183.21,-182.77 195.03,-166.93"/>
<polygon fill="black" stroke="black" points="198.06,-168.72 201.23,-158.61 192.44,-164.54 198.06,-168.72"/>
<text text-anchor="start" x="184.5" y="-180.8" font-family="Times,serif" font-size="14.00">%0</text>
</g>
<!-- node1 -->
<g id="node2" class="node">
<title>node1</title>
<polygon fill="none" stroke="black" points="305,-210.5 305,-263.5 448,-263.5 448,-210.5 305,-210.5"/>
<text text-anchor="start" x="313" y="-248.3" font-family="Times,serif" font-size="14.00">Constant (1) (2)</text>
<text text-anchor="start" x="313" y="-233.3" font-family="Times,serif" font-size="14.00"> types = (integer)</text>
<text text-anchor="start" x="313" y="-218.3" font-family="Times,serif" font-size="14.00"> keys = ((#0))</text>
</g>
<!-- node1&#45;&gt;node2 -->
<g id="edge1" class="edge">
<title>node1&#45;&gt;node2</title>
<path fill="none" stroke="black" d="M357.18,-210.32C348,-198.13 336.45,-182.77 324.53,-166.93"/>
<polygon fill="black" stroke="black" points="327.08,-164.5 318.27,-158.61 321.49,-168.71 327.08,-164.5"/>
<text text-anchor="start" x="341.5" y="-180.8" font-family="Times,serif" font-size="14.00">%1</text>
</g>
</g>
</svg>
