<?xml version="1.0" encoding="UTF-8" standalone="no"?>
<!DOCTYPE svg PUBLIC "-//W3C//DTD SVG 1.1//EN"
 "http://www.w3.org/Graphics/SVG/1.1/DTD/svg11.dtd">
<!-- Generated by graphviz version 2.43.0 (0)
 -->
<!-- Title: G Pages: 1 -->
<svg width="484pt" height="302pt"
 viewBox="0.00 0.00 483.50 302.00" xmlns="http://www.w3.org/2000/svg" xmlns:xlink="http://www.w3.org/1999/xlink">
<g id="graph0" class="graph" transform="scale(1 1) rotate(0) translate(4 298)">
<title>G</title>
<polygon fill="white" stroke="transparent" points="-4,4 -4,-298 479.5,-298 479.5,4 -4,4"/>
<!-- node0 -->
<g id="node1" class="node">
<title>node0</title>
<polygon fill="none" stroke="black" points="0,-240.5 0,-293.5 287,-293.5 287,-240.5 0,-240.5"/>
<text text-anchor="start" x="8" y="-278.3" font-family="Times,serif" font-size="14.00">Get reduction_pushdown.public.r (u1)</text>
<text text-anchor="start" x="8" y="-263.3" font-family="Times,serif" font-size="14.00"> types = (integer, integer, integer)</text>
<text text-anchor="start" x="8" y="-248.3" font-family="Times,serif" font-size="14.00"> keys = ()</text>
</g>
<!-- node2 -->
<g id="node3" class="node">
<title>node2</title>
<polygon fill="none" stroke="black" points="72.5,-0.5 72.5,-188.5 460.5,-188.5 460.5,-0.5 72.5,-0.5"/>
<text text-anchor="start" x="80.5" y="-173.3" font-family="Times,serif" font-size="14.00">InnerJoin %0 %1 on (#0 = #3)</text>
<text text-anchor="start" x="80.5" y="-158.3" font-family="Times,serif" font-size="14.00"> types = (integer, integer, integer, integer)</text>
<text text-anchor="start" x="80.5" y="-143.3" font-family="Times,serif" font-size="14.00"> keys = ()</text>
<text text-anchor="start" x="80.5" y="-128.3" font-family="Times,serif" font-size="14.00"> Map (#1 / #2)</text>
<text text-anchor="start" x="80.5" y="-113.3" font-family="Times,serif" font-size="14.00"> types = (integer, integer, integer, integer, integer?)</text>
<text text-anchor="start" x="80.5" y="-98.3" font-family="Times,serif" font-size="14.00"> keys = ()</text>
<text text-anchor="start" x="80.5" y="-83.3" font-family="Times,serif" font-size="14.00"> Project (#0..#2, #4)</text>
<text text-anchor="start" x="80.5" y="-68.3" font-family="Times,serif" font-size="14.00"> types = (integer, integer, integer, integer?)</text>
<text text-anchor="start" x="80.5" y="-53.3" font-family="Times,serif" font-size="14.00"> keys = ()</text>
<text text-anchor="start" x="80.5" y="-38.3" font-family="Times,serif" font-size="14.00"> Distinct</text>
<text text-anchor="start" x="80.5" y="-23.3" font-family="Times,serif" font-size="14.00"> types = (integer, integer, integer, integer?)</text>
<text text-anchor="start" x="80.5" y="-8.3" font-family="Times,serif" font-size="14.00"> keys = ()</text>
</g>
<!-- node0&#45;&gt;node2 -->
<g id="edge2" class="edge">
<title>node0&#45;&gt;node2</title>
<path fill="none" stroke="black" d="M161.91,-240.47C170.59,-228.45 181.56,-213.24 193.12,-197.22"/>
<polygon fill="black" stroke="black" points="196.19,-198.94 199.2,-188.79 190.51,-194.85 196.19,-198.94"/>
<text text-anchor="start" x="183.5" y="-210.8" font-family="Times,serif" font-size="14.00">%0</text>
</g>
<!-- node1 -->
<g id="node2" class="node">
<title>node1</title>
<polygon fill="none" stroke="black" points="305.5,-240.5 305.5,-293.5 475.5,-293.5 475.5,-240.5 305.5,-240.5"/>
<text text-anchor="start" x="313.5" y="-278.3" font-family="Times,serif" font-size="14.00">CallTable wrap1(1, 2)</text>
<text text-anchor="start" x="313.5" y="-263.3" font-family="Times,serif" font-size="14.00"> types = (integer)</text>
<text text-anchor="start" x="313.5" y="-248.3" font-family="Times,serif" font-size="14.00"> keys = ()</text>
</g>
<!-- node1&#45;&gt;node2 -->
<g id="edge1" class="edge">
<title>node1&#45;&gt;node2</title>
<path fill="none" stroke="black" d="M371.94,-240.47C363.19,-228.45 352.13,-213.24 340.48,-197.22"/>
<polygon fill="black" stroke="black" points="343.06,-194.81 334.34,-188.79 337.4,-198.93 343.06,-194.81"/>
<text text-anchor="start" x="356.5" y="-210.8" font-family="Times,serif" font-size="14.00">%1</text>
</g>
</g>
</svg>
