<?xml version="1.0" encoding="UTF-8" standalone="no"?>
<!DOCTYPE svg PUBLIC "-//W3C//DTD SVG 1.1//EN"
 "http://www.w3.org/Graphics/SVG/1.1/DTD/svg11.dtd">
<!-- Generated by graphviz version 2.43.0 (0)
 -->
<!-- Title: G Pages: 1 -->
<svg width="332pt" height="227pt"
 viewBox="0.00 0.00 331.50 227.00" xmlns="http://www.w3.org/2000/svg" xmlns:xlink="http://www.w3.org/1999/xlink">
<g id="graph0" class="graph" transform="scale(1 1) rotate(0) translate(4 223)">
<title>G</title>
<polygon fill="white" stroke="transparent" points="-4,4 -4,-223 327.5,-223 327.5,4 -4,4"/>
<!-- node0 -->
<g id="node1" class="node">
<title>node0</title>
<polygon fill="none" stroke="black" points="0,-180.5 0,-218.5 101,-218.5 101,-180.5 0,-180.5"/>
<text text-anchor="start" x="8" y="-203.3" font-family="Times,serif" font-size="14.00">Let l0 =</text>
<text text-anchor="start" x="8" y="-188.3" font-family="Times,serif" font-size="14.00"> Constant ()</text>
</g>
<!-- node2 -->
<g id="node3" class="node">
<title>node2</title>
<polygon fill="none" stroke="black" points="1,-0.5 1,-128.5 270,-128.5 270,-0.5 1,-0.5"/>
<text text-anchor="start" x="9" y="-113.3" font-family="Times,serif" font-size="14.00">Join %0 %1</text>
<text text-anchor="start" x="9" y="-98.3" font-family="Times,serif" font-size="14.00"> implementation = Unimplemented</text>
<text text-anchor="start" x="9" y="-83.3" font-family="Times,serif" font-size="14.00"> Project (#0, #1, #0)</text>
<text text-anchor="start" x="9" y="-68.3" font-family="Times,serif" font-size="14.00"> Project (#2, #1)</text>
<text text-anchor="start" x="9" y="-53.3" font-family="Times,serif" font-size="14.00"> Reduce group=(#0)</text>
<text text-anchor="start" x="9" y="-38.3" font-family="Times,serif" font-size="14.00"> agg min(#1)</text>
<text text-anchor="start" x="9" y="-23.3" font-family="Times,serif" font-size="14.00"> Project (#0, #1)</text>
<text text-anchor="start" x="9" y="-8.3" font-family="Times,serif" font-size="14.00"> Project (#1)</text>
</g>
<!-- node0&#45;&gt;node2 -->
<g id="edge2" class="edge">
<title>node0&#45;&gt;node2</title>
<path fill="none" stroke="black" d="M62.14,-180.29C69.5,-168.78 79.53,-153.08 89.81,-136.99"/>
<polygon fill="black" stroke="black" points="92.76,-138.87 95.2,-128.56 86.87,-135.1 92.76,-138.87"/>
<text text-anchor="start" x="83.5" y="-150.8" font-family="Times,serif" font-size="14.00">%0</text>
</g>
<!-- node1 -->
<g id="node2" class="node">
<title>node1</title>
<polygon fill="none" stroke="black" points="119.5,-181.5 119.5,-217.5 323.5,-217.5 323.5,-181.5 119.5,-181.5"/>
<text text-anchor="start" x="127.5" y="-195.8" font-family="Times,serif" font-size="14.00">Get types.public.t1 (u139)</text>
</g>
<!-- node1&#45;&gt;node2 -->
<g id="edge1" class="edge">
<title>node1&#45;&gt;node2</title>
<path fill="none" stroke="black" d="M210.43,-181.38C202.98,-169.85 192.59,-153.79 181.91,-137.28"/>
<polygon fill="black" stroke="black" points="184.69,-135.13 176.32,-128.63 178.81,-138.93 184.69,-135.13"/>
<text text-anchor="start" x="195.5" y="-150.8" font-family="Times,serif" font-size="14.00">%1</text>
</g>
</g>
</svg>
