<?xml version="1.0" encoding="UTF-8" standalone="no"?>
<!DOCTYPE svg PUBLIC "-//W3C//DTD SVG 1.1//EN"
 "http://www.w3.org/Graphics/SVG/1.1/DTD/svg11.dtd">
<!-- Generated by graphviz version 2.43.0 (0)
 -->
<!-- Title: G Pages: 1 -->
<svg width="725pt" height="655pt"
 viewBox="0.00 0.00 725.00 655.19" xmlns="http://www.w3.org/2000/svg" xmlns:xlink="http://www.w3.org/1999/xlink">
<g id="graph0" class="graph" transform="scale(1 1) rotate(0) translate(4 651.19)">
<title>G</title>
<polygon fill="white" stroke="transparent" points="-4,4 -4,-651.19 721,-651.19 721,4 -4,4"/>
<g id="clust1" class="cluster">
<title>cluster4</title>
<polygon fill="none" stroke="black" points="455,-526.09 455,-639.19 709,-639.19 709,-526.09 455,-526.09"/>
<text text-anchor="middle" x="505.5" y="-623.99" font-family="Times,serif" font-size="14.00">Box4:Select</text>
</g>
<g id="clust3" class="cluster">
<title>cluster3</title>
<polygon fill="none" stroke="black" points="308,-386.09 308,-518.09 600,-518.09 600,-386.09 308,-386.09"/>
<text text-anchor="middle" x="370" y="-502.89" font-family="Times,serif" font-size="14.00">Box3:Grouping</text>
</g>
<g id="clust5" class="cluster">
<title>cluster2</title>
<polygon fill="none" stroke="black" points="176,-265 176,-378.09 438,-378.09 438,-265 176,-265"/>
<text text-anchor="middle" x="226.5" y="-362.89" font-family="Times,serif" font-size="14.00">Box2:Select</text>
</g>
<g id="clust7" class="cluster">
<title>cluster1</title>
<polygon fill="none" stroke="black" points="44,-125 44,-257 306,-257 306,-125 44,-125"/>
<text text-anchor="middle" x="94.5" y="-241.8" font-family="Times,serif" font-size="14.00">Box1:Select</text>
</g>
<g id="clust9" class="cluster">
<title>cluster0</title>
<polygon fill="none" stroke="black" points="8,-8 8,-117 170,-117 170,-8 8,-8"/>
<text text-anchor="middle" x="49.5" y="-101.8" font-family="Times,serif" font-size="14.00">Box0:Get</text>
</g>
<!-- boxhead4 -->
<g id="node1" class="node">
<title>boxhead4</title>
<polygon fill="none" stroke="black" points="555,-548.14 555,-594.14 701,-594.14 701,-548.14 555,-548.14"/>
<text text-anchor="middle" x="628" y="-578.94" font-family="Times,serif" font-size="14.00">Distinct: Preserve</text>
<polyline fill="none" stroke="black" points="555,-571.14 701,-571.14 "/>
<text text-anchor="middle" x="628" y="-555.94" font-family="Times,serif" font-size="14.00">0: Q3.C1 (integer)</text>
</g>
<!-- Q3 -->
<g id="node2" class="node">
<title>Q3</title>
<ellipse fill="none" stroke="black" cx="500" cy="-571.14" rx="37.09" ry="37.09"/>
<text text-anchor="middle" x="500" y="-567.44" font-family="Times,serif" font-size="14.00">Q3(F)</text>
</g>
<!-- boxhead3 -->
<g id="node3" class="node">
<title>boxhead3</title>
<polygon fill="none" stroke="black" points="408.5,-394.59 408.5,-486.59 591.5,-486.59 591.5,-394.59 408.5,-394.59"/>
<text text-anchor="middle" x="500" y="-471.39" font-family="Times,serif" font-size="14.00">Distinct: Preserve</text>
<polyline fill="none" stroke="black" points="408.5,-463.59 591.5,-463.59 "/>
<text text-anchor="middle" x="500" y="-448.39" font-family="Times,serif" font-size="14.00">0: Q2.C0 (integer?)</text>
<polyline fill="none" stroke="black" points="408.5,-440.59 591.5,-440.59 "/>
<text text-anchor="middle" x="500" y="-425.39" font-family="Times,serif" font-size="14.00">1: min(Q2.C1) (integer)</text>
<polyline fill="none" stroke="black" points="408.5,-417.59 591.5,-417.59 "/>
<text text-anchor="middle" x="500" y="-402.39" font-family="Times,serif" font-size="14.00">GROUP BY: Q2.C0</text>
</g>
<!-- Q3&#45;&gt;boxhead3 -->
<g id="edge1" class="edge">
<title>Q3&#45;&gt;boxhead3</title>
<path fill="none" stroke="black" stroke-dasharray="5,2" d="M500,-533.99C500,-528.93 500,-523.57 500,-518.09"/>
</g>
<!-- Q2 -->
<g id="node4" class="node">
<title>Q2</title>
<ellipse fill="none" stroke="black" cx="353" cy="-440.59" rx="37.09" ry="37.09"/>
<text text-anchor="middle" x="353" y="-436.89" font-family="Times,serif" font-size="14.00">Q2(F)</text>
</g>
<!-- boxhead2 -->
<g id="node5" class="node">
<title>boxhead2</title>
<polygon fill="none" stroke="black" points="276.5,-275.55 276.5,-344.55 429.5,-344.55 429.5,-275.55 276.5,-275.55"/>
<text text-anchor="middle" x="353" y="-329.35" font-family="Times,serif" font-size="14.00">Distinct: Preserve</text>
<polyline fill="none" stroke="black" points="276.5,-321.55 429.5,-321.55 "/>
<text text-anchor="middle" x="353" y="-306.35" font-family="Times,serif" font-size="14.00">0: Q1.C2 (integer?)</text>
<polyline fill="none" stroke="black" points="276.5,-298.55 429.5,-298.55 "/>
<text text-anchor="middle" x="353" y="-283.35" font-family="Times,serif" font-size="14.00">1: Q1.C1 (integer)</text>
</g>
<!-- Q2&#45;&gt;boxhead2 -->
<g id="edge2" class="edge">
<title>Q2&#45;&gt;boxhead2</title>
<path fill="none" stroke="black" stroke-dasharray="5,2" d="M353,-403.44C353,-395.49 353,-386.83 353,-378.09"/>
</g>
<!-- Q1 -->
<g id="node6" class="node">
<title>Q1</title>
<ellipse fill="none" stroke="black" cx="221" cy="-310.05" rx="37.09" ry="37.09"/>
<text text-anchor="middle" x="221" y="-306.35" font-family="Times,serif" font-size="14.00">Q1(F)</text>
</g>
<!-- boxhead1 -->
<g id="node7" class="node">
<title>boxhead1</title>
<polygon fill="none" stroke="black" points="144.5,-133.5 144.5,-225.5 297.5,-225.5 297.5,-133.5 144.5,-133.5"/>
<text text-anchor="middle" x="221" y="-210.3" font-family="Times,serif" font-size="14.00">Distinct: Preserve</text>
<polyline fill="none" stroke="black" points="144.5,-202.5 297.5,-202.5 "/>
<text text-anchor="middle" x="221" y="-187.3" font-family="Times,serif" font-size="14.00">0: Q0.C0 (integer?)</text>
<polyline fill="none" stroke="black" points="144.5,-179.5 297.5,-179.5 "/>
<text text-anchor="middle" x="221" y="-164.3" font-family="Times,serif" font-size="14.00">1: Q0.C1 (integer)</text>
<polyline fill="none" stroke="black" points="144.5,-156.5 297.5,-156.5 "/>
<text text-anchor="middle" x="221" y="-141.3" font-family="Times,serif" font-size="14.00">2: Q0.C0 (integer?)</text>
</g>
<!-- Q1&#45;&gt;boxhead1 -->
<g id="edge3" class="edge">
<title>Q1&#45;&gt;boxhead1</title>
<path fill="none" stroke="black" stroke-dasharray="5,2" d="M221,-272.9C221,-267.83 221,-262.48 221,-257"/>
</g>
<!-- Q0 -->
<g id="node8" class="node">
<title>Q0</title>
<ellipse fill="none" stroke="black" cx="89" cy="-179.5" rx="37.09" ry="37.09"/>
<text text-anchor="middle" x="89" y="-175.8" font-family="Times,serif" font-size="14.00">Q0(F)</text>
</g>
<!-- boxhead0 -->
<g id="node9" class="node">
<title>boxhead0</title>
<polygon fill="none" stroke="black" points="16,-16.5 16,-85.5 162,-85.5 162,-16.5 16,-16.5"/>
<text text-anchor="middle" x="89" y="-70.3" font-family="Times,serif" font-size="14.00">Distinct: Preserve</text>
<polyline fill="none" stroke="black" points="16,-62.5 162,-62.5 "/>
<text text-anchor="middle" x="89" y="-47.3" font-family="Times,serif" font-size="14.00">0: C0 (integer?)</text>
<polyline fill="none" stroke="black" points="16,-39.5 162,-39.5 "/>
<text text-anchor="middle" x="89" y="-24.3" font-family="Times,serif" font-size="14.00">1: C1 (integer)</text>
</g>
<!-- Q0&#45;&gt;boxhead0 -->
<g id="edge4" class="edge">
<title>Q0&#45;&gt;boxhead0</title>
<path fill="none" stroke="black" stroke-dasharray="5,2" d="M89,-142.25C89,-134.31 89,-125.68 89,-117"/>
</g>
</g>
</svg>
