<?xml version="1.0" encoding="UTF-8" standalone="no"?>
<!DOCTYPE svg PUBLIC "-//W3C//DTD SVG 1.1//EN"
 "http://www.w3.org/Graphics/SVG/1.1/DTD/svg11.dtd">
<!-- Generated by graphviz version 2.43.0 (0)
 -->
<!-- Title: G Pages: 1 -->
<svg width="423pt" height="707pt"
 viewBox="0.00 0.00 423.00 707.00" xmlns="http://www.w3.org/2000/svg" xmlns:xlink="http://www.w3.org/1999/xlink">
<g id="graph0" class="graph" transform="scale(1 1) rotate(0) translate(4 703)">
<title>G</title>
<polygon fill="white" stroke="transparent" points="-4,4 -4,-703 419,-703 419,4 -4,4"/>
<!-- node0 -->
<g id="node1" class="node">
<title>node0</title>
<polygon fill="none" stroke="black" points="68,-630.5 68,-698.5 169,-698.5 169,-630.5 68,-630.5"/>
<text text-anchor="start" x="76" y="-683.3" font-family="Times,serif" font-size="14.00">Let l0 =</text>
<text text-anchor="start" x="76" y="-668.3" font-family="Times,serif" font-size="14.00"> Constant ()</text>
<text text-anchor="start" x="76" y="-653.3" font-family="Times,serif" font-size="14.00"> types = ()</text>
<text text-anchor="start" x="76" y="-638.3" font-family="Times,serif" font-size="14.00"> keys = (())</text>
</g>
<!-- node2 -->
<g id="node3" class="node">
<title>node2</title>
<polygon fill="none" stroke="black" points="73,-450.5 73,-578.5 342,-578.5 342,-450.5 73,-450.5"/>
<text text-anchor="start" x="81" y="-563.3" font-family="Times,serif" font-size="14.00">Let l1 =</text>
<text text-anchor="start" x="81" y="-548.3" font-family="Times,serif" font-size="14.00"> Join %0 %1</text>
<text text-anchor="start" x="81" y="-533.3" font-family="Times,serif" font-size="14.00"> implementation = Unimplemented</text>
<text text-anchor="start" x="81" y="-518.3" font-family="Times,serif" font-size="14.00"> types = (integer?, integer?)</text>
<text text-anchor="start" x="81" y="-503.3" font-family="Times,serif" font-size="14.00"> keys = ()</text>
<text text-anchor="start" x="81" y="-488.3" font-family="Times,serif" font-size="14.00"> Filter (#0 &gt; 0)</text>
<text text-anchor="start" x="81" y="-473.3" font-family="Times,serif" font-size="14.00"> types = (integer, integer?)</text>
<text text-anchor="start" x="81" y="-458.3" font-family="Times,serif" font-size="14.00"> keys = ()</text>
</g>
<!-- node0&#45;&gt;node2 -->
<g id="edge4" class="edge">
<title>node0&#45;&gt;node2</title>
<path fill="none" stroke="black" d="M138.47,-630.29C146.14,-617.53 155.22,-602.43 164.24,-587.44"/>
<polygon fill="black" stroke="black" points="167.37,-589.02 169.53,-578.65 161.37,-585.41 167.37,-589.02"/>
<text text-anchor="start" x="158.5" y="-600.8" font-family="Times,serif" font-size="14.00">%0</text>
</g>
<!-- node1 -->
<g id="node2" class="node">
<title>node1</title>
<polygon fill="none" stroke="black" points="187,-638 187,-691 406,-691 406,-638 187,-638"/>
<text text-anchor="start" x="195" y="-675.8" font-family="Times,serif" font-size="14.00">Get types.public.t (u31)</text>
<text text-anchor="start" x="195" y="-660.8" font-family="Times,serif" font-size="14.00"> types = (integer?, integer?)</text>
<text text-anchor="start" x="195" y="-645.8" font-family="Times,serif" font-size="14.00"> keys = ()</text>
</g>
<!-- node1&#45;&gt;node2 -->
<g id="edge2" class="edge">
<title>node1&#45;&gt;node2</title>
<path fill="none" stroke="black" d="M281,-637.72C272.52,-623.63 261.56,-605.4 250.71,-587.35"/>
<polygon fill="black" stroke="black" points="253.55,-585.29 245.4,-578.52 247.55,-588.89 253.55,-585.29"/>
<text text-anchor="start" x="264.5" y="-600.8" font-family="Times,serif" font-size="14.00">%1</text>
</g>
<!-- node3 -->
<g id="node4" class="node">
<title>node3</title>
<polygon fill="none" stroke="black" points="34,-195.5 34,-398.5 381,-398.5 381,-195.5 34,-195.5"/>
<text text-anchor="start" x="42" y="-383.3" font-family="Times,serif" font-size="14.00">Let l2 =</text>
<text text-anchor="start" x="42" y="-368.3" font-family="Times,serif" font-size="14.00"> Get %2 (l1)</text>
<text text-anchor="start" x="42" y="-353.3" font-family="Times,serif" font-size="14.00"> types = (integer, integer?)</text>
<text text-anchor="start" x="42" y="-338.3" font-family="Times,serif" font-size="14.00"> keys = ()</text>
<text text-anchor="start" x="42" y="-323.3" font-family="Times,serif" font-size="14.00"> Map (#0 + #1)</text>
<text text-anchor="start" x="42" y="-308.3" font-family="Times,serif" font-size="14.00"> types = (integer, integer?, integer?)</text>
<text text-anchor="start" x="42" y="-293.3" font-family="Times,serif" font-size="14.00"> keys = ()</text>
<text text-anchor="start" x="42" y="-278.3" font-family="Times,serif" font-size="14.00"> Map (#0 &#45; #1)</text>
<text text-anchor="start" x="42" y="-263.3" font-family="Times,serif" font-size="14.00"> types = (integer, integer?, integer?, integer?)</text>
<text text-anchor="start" x="42" y="-248.3" font-family="Times,serif" font-size="14.00"> keys = ()</text>
<text text-anchor="start" x="42" y="-233.3" font-family="Times,serif" font-size="14.00"> Project (#0..#3)</text>
<text text-anchor="start" x="42" y="-218.3" font-family="Times,serif" font-size="14.00"> types = (integer, integer?, integer?, integer?)</text>
<text text-anchor="start" x="42" y="-203.3" font-family="Times,serif" font-size="14.00"> keys = ()</text>
</g>
<!-- node2&#45;&gt;node3 -->
<g id="edge1" class="edge">
<title>node2&#45;&gt;node3</title>
<path fill="none" stroke="black" d="M207.5,-450.3C207.5,-437.31 207.5,-423.27 207.5,-409.15"/>
<polygon fill="black" stroke="black" points="211,-408.87 207.5,-398.87 204,-408.87 211,-408.87"/>
<text text-anchor="start" x="207.5" y="-420.8" font-family="Times,serif" font-size="14.00">%2</text>
</g>
<!-- node4 -->
<g id="node5" class="node">
<title>node4</title>
<polygon fill="none" stroke="black" points="0,-0.5 0,-143.5 415,-143.5 415,-0.5 0,-0.5"/>
<text text-anchor="start" x="8" y="-128.3" font-family="Times,serif" font-size="14.00">Get %3 (l2)</text>
<text text-anchor="start" x="8" y="-113.3" font-family="Times,serif" font-size="14.00"> types = (integer, integer?, integer?, integer?)</text>
<text text-anchor="start" x="8" y="-98.3" font-family="Times,serif" font-size="14.00"> keys = ()</text>
<text text-anchor="start" x="8" y="-83.3" font-family="Times,serif" font-size="14.00"> Map coalesce(#2, #3, #0)</text>
<text text-anchor="start" x="8" y="-68.3" font-family="Times,serif" font-size="14.00"> types = (integer, integer?, integer?, integer?, integer?)</text>
<text text-anchor="start" x="8" y="-53.3" font-family="Times,serif" font-size="14.00"> keys = ()</text>
<text text-anchor="start" x="8" y="-38.3" font-family="Times,serif" font-size="14.00"> Project (#0..#4)</text>
<text text-anchor="start" x="8" y="-23.3" font-family="Times,serif" font-size="14.00"> types = (integer, integer?, integer?, integer?, integer?)</text>
<text text-anchor="start" x="8" y="-8.3" font-family="Times,serif" font-size="14.00"> keys = ()</text>
</g>
<!-- node3&#45;&gt;node4 -->
<g id="edge3" class="edge">
<title>node3&#45;&gt;node4</title>
<path fill="none" stroke="black" d="M207.5,-195.26C207.5,-181.38 207.5,-167.26 207.5,-153.8"/>
<polygon fill="black" stroke="black" points="211,-153.64 207.5,-143.64 204,-153.64 211,-153.64"/>
<text text-anchor="start" x="207.5" y="-165.8" font-family="Times,serif" font-size="14.00">%3</text>
</g>
</g>
</svg>
