<?xml version="1.0" encoding="UTF-8" standalone="no"?>
<!DOCTYPE svg PUBLIC "-//W3C//DTD SVG 1.1//EN"
 "http://www.w3.org/Graphics/SVG/1.1/DTD/svg11.dtd">
<!-- Generated by graphviz version 2.43.0 (0)
 -->
<!-- Title: G Pages: 1 -->
<svg width="596pt" height="285pt"
 viewBox="0.00 0.00 595.50 285.00" xmlns="http://www.w3.org/2000/svg" xmlns:xlink="http://www.w3.org/1999/xlink">
<g id="graph0" class="graph" transform="scale(1 1) rotate(0) translate(4 281)">
<title>G</title>
<polygon fill="white" stroke="transparent" points="-4,4 -4,-281 591.5,-281 591.5,4 -4,4"/>
<!-- node0 -->
<g id="node1" class="node">
<title>node0</title>
<polygon fill="none" stroke="black" points="245.5,-240.5 245.5,-276.5 341.5,-276.5 341.5,-240.5 245.5,-240.5"/>
<text text-anchor="start" x="253.5" y="-254.8" font-family="Times,serif" font-size="14.00">Constant ()</text>
</g>
<!-- node2 -->
<g id="node3" class="node">
<title>node2</title>
<polygon fill="none" stroke="black" points="10.5,-150.5 10.5,-188.5 284.5,-188.5 284.5,-150.5 10.5,-150.5"/>
<text text-anchor="start" x="18.5" y="-173.3" font-family="Times,serif" font-size="14.00">Join %0 %1</text>
<text text-anchor="start" x="18.5" y="-158.3" font-family="Times,serif" font-size="14.00">&#45; implementation = Unimplemented</text>
</g>
<!-- node0&#45;&gt;node2 -->
<g id="edge6" class="edge">
<title>node0&#45;&gt;node2</title>
<path fill="none" stroke="black" d="M264.66,-240.31C242.3,-226.99 211.1,-208.4 186.52,-193.75"/>
<polygon fill="black" stroke="black" points="188.17,-190.66 177.79,-188.55 184.59,-196.68 188.17,-190.66"/>
<text text-anchor="start" x="234.5" y="-210.8" font-family="Times,serif" font-size="14.00">%0</text>
</g>
<!-- node4 -->
<g id="node5" class="node">
<title>node4</title>
<polygon fill="none" stroke="black" points="302.5,-150.5 302.5,-188.5 576.5,-188.5 576.5,-150.5 302.5,-150.5"/>
<text text-anchor="start" x="310.5" y="-173.3" font-family="Times,serif" font-size="14.00">Join %0 %3</text>
<text text-anchor="start" x="310.5" y="-158.3" font-family="Times,serif" font-size="14.00">&#45; implementation = Unimplemented</text>
</g>
<!-- node0&#45;&gt;node4 -->
<g id="edge2" class="edge">
<title>node0&#45;&gt;node4</title>
<path fill="none" stroke="black" d="M322.34,-240.31C344.7,-226.99 375.9,-208.4 400.48,-193.75"/>
<polygon fill="black" stroke="black" points="402.41,-196.68 409.21,-188.55 398.83,-190.66 402.41,-196.68"/>
<text text-anchor="start" x="374.5" y="-210.8" font-family="Times,serif" font-size="14.00">%0</text>
</g>
<!-- node1 -->
<g id="node2" class="node">
<title>node1</title>
<polygon fill="none" stroke="black" points="0,-240.5 0,-276.5 227,-276.5 227,-240.5 0,-240.5"/>
<text text-anchor="start" x="8" y="-254.8" font-family="Times,serif" font-size="14.00">Get hir_to_qgm.public.r (u43)</text>
</g>
<!-- node1&#45;&gt;node2 -->
<g id="edge4" class="edge">
<title>node1&#45;&gt;node2</title>
<path fill="none" stroke="black" d="M120.22,-240.31C124.92,-228.28 131.31,-211.94 136.72,-198.09"/>
<polygon fill="black" stroke="black" points="140.07,-199.14 140.45,-188.55 133.55,-196.59 140.07,-199.14"/>
<text text-anchor="start" x="133.5" y="-210.8" font-family="Times,serif" font-size="14.00">%1</text>
</g>
<!-- node5 -->
<g id="node6" class="node">
<title>node5</title>
<polygon fill="none" stroke="black" points="156.5,-0.5 156.5,-98.5 430.5,-98.5 430.5,-0.5 156.5,-0.5"/>
<text text-anchor="start" x="164.5" y="-83.3" font-family="Times,serif" font-size="14.00">Join %2 %4</text>
<text text-anchor="start" x="164.5" y="-68.3" font-family="Times,serif" font-size="14.00">&#45; implementation = Unimplemented</text>
<text text-anchor="start" x="164.5" y="-53.3" font-family="Times,serif" font-size="14.00">Project (#0..=#3)</text>
<text text-anchor="start" x="164.5" y="-38.3" font-family="Times,serif" font-size="14.00">Filter (true &amp;&amp; (#0 = #2))</text>
<text text-anchor="start" x="164.5" y="-23.3" font-family="Times,serif" font-size="14.00">Project (#0..=#3)</text>
<text text-anchor="start" x="164.5" y="-8.3" font-family="Times,serif" font-size="14.00">Project (#0, #1, #3)</text>
</g>
<!-- node2&#45;&gt;node5 -->
<g id="edge1" class="edge">
<title>node2&#45;&gt;node5</title>
<path fill="none" stroke="black" d="M169.99,-150.32C185.1,-138.11 205.88,-121.32 226.08,-104.99"/>
<polygon fill="black" stroke="black" points="228.5,-107.53 234.08,-98.52 224.1,-102.09 228.5,-107.53"/>
<text text-anchor="start" x="207.5" y="-120.8" font-family="Times,serif" font-size="14.00">%2</text>
</g>
<!-- node3 -->
<g id="node4" class="node">
<title>node3</title>
<polygon fill="none" stroke="black" points="359.5,-240.5 359.5,-276.5 587.5,-276.5 587.5,-240.5 359.5,-240.5"/>
<text text-anchor="start" x="367.5" y="-254.8" font-family="Times,serif" font-size="14.00">Get hir_to_qgm.public.s (u44)</text>
</g>
<!-- node3&#45;&gt;node4 -->
<g id="edge3" class="edge">
<title>node3&#45;&gt;node4</title>
<path fill="none" stroke="black" d="M466.78,-240.31C462.08,-228.28 455.69,-211.94 450.28,-198.09"/>
<polygon fill="black" stroke="black" points="453.45,-196.59 446.55,-188.55 446.93,-199.14 453.45,-196.59"/>
<text text-anchor="start" x="459.5" y="-210.8" font-family="Times,serif" font-size="14.00">%3</text>
</g>
<!-- node4&#45;&gt;node5 -->
<g id="edge5" class="edge">
<title>node4&#45;&gt;node5</title>
<path fill="none" stroke="black" d="M417.01,-150.32C401.9,-138.11 381.12,-121.32 360.92,-104.99"/>
<polygon fill="black" stroke="black" points="362.9,-102.09 352.92,-98.52 358.5,-107.53 362.9,-102.09"/>
<text text-anchor="start" x="391.5" y="-120.8" font-family="Times,serif" font-size="14.00">%4</text>
</g>
</g>
</svg>
