<?xml version="1.0" encoding="UTF-8" standalone="no"?>
<!DOCTYPE svg PUBLIC "-//W3C//DTD SVG 1.1//EN"
 "http://www.w3.org/Graphics/SVG/1.1/DTD/svg11.dtd">
<!-- Generated by graphviz version 2.43.0 (0)
 -->
<!-- Title: G Pages: 1 -->
<svg width="600pt" height="482pt"
 viewBox="0.00 0.00 599.50 482.00" xmlns="http://www.w3.org/2000/svg" xmlns:xlink="http://www.w3.org/1999/xlink">
<g id="graph0" class="graph" transform="scale(1 1) rotate(0) translate(4 478)">
<title>G</title>
<polygon fill="white" stroke="transparent" points="-4,4 -4,-478 595.5,-478 595.5,4 -4,4"/>
<!-- node0 -->
<g id="node1" class="node">
<title>node0</title>
<polygon fill="none" stroke="black" points="245.5,-420.5 245.5,-473.5 345.5,-473.5 345.5,-420.5 245.5,-420.5"/>
<text text-anchor="start" x="253.5" y="-458.3" font-family="Times,serif" font-size="14.00">Constant ()</text>
<text text-anchor="start" x="253.5" y="-443.3" font-family="Times,serif" font-size="14.00">&#45; types = ()</text>
<text text-anchor="start" x="253.5" y="-428.3" font-family="Times,serif" font-size="14.00">&#45; keys = (())</text>
</g>
<!-- node2 -->
<g id="node3" class="node">
<title>node2</title>
<polygon fill="none" stroke="black" points="12.5,-300.5 12.5,-368.5 286.5,-368.5 286.5,-300.5 12.5,-300.5"/>
<text text-anchor="start" x="20.5" y="-353.3" font-family="Times,serif" font-size="14.00">Join %0 %1</text>
<text text-anchor="start" x="20.5" y="-338.3" font-family="Times,serif" font-size="14.00">&#45; implementation = Unimplemented</text>
<text text-anchor="start" x="20.5" y="-323.3" font-family="Times,serif" font-size="14.00">&#45; types = (bigint?, integer?)</text>
<text text-anchor="start" x="20.5" y="-308.3" font-family="Times,serif" font-size="14.00">&#45; keys = ()</text>
</g>
<!-- node0&#45;&gt;node2 -->
<g id="edge6" class="edge">
<title>node0&#45;&gt;node2</title>
<path fill="none" stroke="black" d="M261.64,-420.37C243.72,-406.81 221.34,-389.87 201.29,-374.7"/>
<polygon fill="black" stroke="black" points="203.24,-371.79 193.16,-368.54 199.02,-377.37 203.24,-371.79"/>
<text text-anchor="start" x="236.5" y="-390.8" font-family="Times,serif" font-size="14.00">%0</text>
</g>
<!-- node4 -->
<g id="node5" class="node">
<title>node4</title>
<polygon fill="none" stroke="black" points="304.5,-300.5 304.5,-368.5 578.5,-368.5 578.5,-300.5 304.5,-300.5"/>
<text text-anchor="start" x="312.5" y="-353.3" font-family="Times,serif" font-size="14.00">Join %0 %3</text>
<text text-anchor="start" x="312.5" y="-338.3" font-family="Times,serif" font-size="14.00">&#45; implementation = Unimplemented</text>
<text text-anchor="start" x="312.5" y="-323.3" font-family="Times,serif" font-size="14.00">&#45; types = (bigint?, integer?)</text>
<text text-anchor="start" x="312.5" y="-308.3" font-family="Times,serif" font-size="14.00">&#45; keys = ()</text>
</g>
<!-- node0&#45;&gt;node4 -->
<g id="edge2" class="edge">
<title>node0&#45;&gt;node4</title>
<path fill="none" stroke="black" d="M329.36,-420.37C347.28,-406.81 369.66,-389.87 389.71,-374.7"/>
<polygon fill="black" stroke="black" points="391.98,-377.37 397.84,-368.54 387.76,-371.79 391.98,-377.37"/>
<text text-anchor="start" x="372.5" y="-390.8" font-family="Times,serif" font-size="14.00">%0</text>
</g>
<!-- node1 -->
<g id="node2" class="node">
<title>node1</title>
<polygon fill="none" stroke="black" points="0,-420.5 0,-473.5 227,-473.5 227,-420.5 0,-420.5"/>
<text text-anchor="start" x="8" y="-458.3" font-family="Times,serif" font-size="14.00">Get hir_to_qgm.public.r (u43)</text>
<text text-anchor="start" x="8" y="-443.3" font-family="Times,serif" font-size="14.00">&#45; types = (bigint?, integer?)</text>
<text text-anchor="start" x="8" y="-428.3" font-family="Times,serif" font-size="14.00">&#45; keys = ()</text>
</g>
<!-- node1&#45;&gt;node2 -->
<g id="edge4" class="edge">
<title>node1&#45;&gt;node2</title>
<path fill="none" stroke="black" d="M121.85,-420.37C125.93,-407.84 130.96,-392.41 135.6,-378.17"/>
<polygon fill="black" stroke="black" points="138.97,-379.13 138.74,-368.54 132.31,-376.97 138.97,-379.13"/>
<text text-anchor="start" x="133.5" y="-390.8" font-family="Times,serif" font-size="14.00">%1</text>
</g>
<!-- node5 -->
<g id="node6" class="node">
<title>node5</title>
<polygon fill="none" stroke="black" points="125,-0.5 125,-248.5 466,-248.5 466,-0.5 125,-0.5"/>
<text text-anchor="start" x="133" y="-233.3" font-family="Times,serif" font-size="14.00">Join %2 %4</text>
<text text-anchor="start" x="133" y="-218.3" font-family="Times,serif" font-size="14.00">&#45; implementation = Unimplemented</text>
<text text-anchor="start" x="133" y="-203.3" font-family="Times,serif" font-size="14.00">&#45; types = (bigint?, integer?, bigint?, integer?)</text>
<text text-anchor="start" x="133" y="-188.3" font-family="Times,serif" font-size="14.00">&#45; keys = ()</text>
<text text-anchor="start" x="133" y="-173.3" font-family="Times,serif" font-size="14.00">Project (#0..=#3)</text>
<text text-anchor="start" x="133" y="-158.3" font-family="Times,serif" font-size="14.00">&#45; types = (bigint?, integer?, bigint?, integer?)</text>
<text text-anchor="start" x="133" y="-143.3" font-family="Times,serif" font-size="14.00">&#45; keys = ()</text>
<text text-anchor="start" x="133" y="-128.3" font-family="Times,serif" font-size="14.00">Filter (true &amp;&amp; (#0 = #2))</text>
<text text-anchor="start" x="133" y="-113.3" font-family="Times,serif" font-size="14.00">&#45; types = (bigint?, integer?, bigint?, integer?)</text>
<text text-anchor="start" x="133" y="-98.3" font-family="Times,serif" font-size="14.00">&#45; keys = ()</text>
<text text-anchor="start" x="133" y="-83.3" font-family="Times,serif" font-size="14.00">Project (#0..=#3)</text>
<text text-anchor="start" x="133" y="-68.3" font-family="Times,serif" font-size="14.00">&#45; types = (bigint?, integer?, bigint?, integer?)</text>
<text text-anchor="start" x="133" y="-53.3" font-family="Times,serif" font-size="14.00">&#45; keys = ()</text>
<text text-anchor="start" x="133" y="-38.3" font-family="Times,serif" font-size="14.00">Project (#0, #1, #3)</text>
<text text-anchor="start" x="133" y="-23.3" font-family="Times,serif" font-size="14.00">&#45; types = (bigint?, integer?, integer?)</text>
<text text-anchor="start" x="133" y="-8.3" font-family="Times,serif" font-size="14.00">&#45; keys = ()</text>
</g>
<!-- node2&#45;&gt;node5 -->
<g id="edge1" class="edge">
<title>node2&#45;&gt;node5</title>
<path fill="none" stroke="black" d="M172.96,-300.08C181.61,-287.76 192.01,-272.94 203.06,-257.2"/>
<polygon fill="black" stroke="black" points="206.01,-259.09 208.89,-248.89 200.28,-255.07 206.01,-259.09"/>
<text text-anchor="start" x="193.5" y="-270.8" font-family="Times,serif" font-size="14.00">%2</text>
</g>
<!-- node3 -->
<g id="node4" class="node">
<title>node3</title>
<polygon fill="none" stroke="black" points="363.5,-420.5 363.5,-473.5 591.5,-473.5 591.5,-420.5 363.5,-420.5"/>
<text text-anchor="start" x="371.5" y="-458.3" font-family="Times,serif" font-size="14.00">Get hir_to_qgm.public.s (u44)</text>
<text text-anchor="start" x="371.5" y="-443.3" font-family="Times,serif" font-size="14.00">&#45; types = (bigint?, integer?)</text>
<text text-anchor="start" x="371.5" y="-428.3" font-family="Times,serif" font-size="14.00">&#45; keys = ()</text>
</g>
<!-- node3&#45;&gt;node4 -->
<g id="edge3" class="edge">
<title>node3&#45;&gt;node4</title>
<path fill="none" stroke="black" d="M469.15,-420.37C465.07,-407.84 460.04,-392.41 455.4,-378.17"/>
<polygon fill="black" stroke="black" points="458.69,-376.97 452.26,-368.54 452.03,-379.13 458.69,-376.97"/>
<text text-anchor="start" x="462.5" y="-390.8" font-family="Times,serif" font-size="14.00">%3</text>
</g>
<!-- node4&#45;&gt;node5 -->
<g id="edge5" class="edge">
<title>node4&#45;&gt;node5</title>
<path fill="none" stroke="black" d="M418.04,-300.08C409.39,-287.76 398.99,-272.94 387.94,-257.2"/>
<polygon fill="black" stroke="black" points="390.72,-255.07 382.11,-248.89 384.99,-259.09 390.72,-255.07"/>
<text text-anchor="start" x="401.5" y="-270.8" font-family="Times,serif" font-size="14.00">%4</text>
</g>
</g>
</svg>
