<?xml version="1.0" encoding="UTF-8" standalone="no"?>
<!DOCTYPE svg PUBLIC "-//W3C//DTD SVG 1.1//EN"
 "http://www.w3.org/Graphics/SVG/1.1/DTD/svg11.dtd">
<!-- Generated by graphviz version 2.43.0 (0)
 -->
<!-- Title: G Pages: 1 -->
<svg width="438pt" height="240pt"
 viewBox="0.00 0.00 438.00 240.00" xmlns="http://www.w3.org/2000/svg" xmlns:xlink="http://www.w3.org/1999/xlink">
<g id="graph0" class="graph" transform="scale(1 1) rotate(0) translate(4 236)">
<title>G</title>
<polygon fill="white" stroke="transparent" points="-4,4 -4,-236 434,-236 434,4 -4,4"/>
<!-- node0 -->
<g id="node1" class="node">
<title>node0</title>
<polygon fill="none" stroke="black" points="70.5,-195.5 70.5,-231.5 166.5,-231.5 166.5,-195.5 70.5,-195.5"/>
<text text-anchor="start" x="78.5" y="-209.8" font-family="Times,serif" font-size="14.00">Constant ()</text>
</g>
<!-- node2 -->
<g id="node3" class="node">
<title>node2</title>
<polygon fill="none" stroke="black" points="75.5,-105.5 75.5,-143.5 349.5,-143.5 349.5,-105.5 75.5,-105.5"/>
<text text-anchor="start" x="83.5" y="-128.3" font-family="Times,serif" font-size="14.00">Join %0 %1</text>
<text text-anchor="start" x="83.5" y="-113.3" font-family="Times,serif" font-size="14.00">&#45; implementation = Unimplemented</text>
</g>
<!-- node0&#45;&gt;node2 -->
<g id="edge3" class="edge">
<title>node0&#45;&gt;node2</title>
<path fill="none" stroke="black" d="M137.07,-195.31C150.83,-182.58 169.8,-165.02 185.27,-150.7"/>
<polygon fill="black" stroke="black" points="188.03,-152.91 193,-143.55 183.28,-147.78 188.03,-152.91"/>
<text text-anchor="start" x="171.5" y="-165.8" font-family="Times,serif" font-size="14.00">%0</text>
</g>
<!-- node1 -->
<g id="node2" class="node">
<title>node1</title>
<polygon fill="none" stroke="black" points="185,-195.5 185,-231.5 430,-231.5 430,-195.5 185,-195.5"/>
<text text-anchor="start" x="193" y="-209.8" font-family="Times,serif" font-size="14.00">Get issue_10871.public.t3 (u26)</text>
</g>
<!-- node1&#45;&gt;node2 -->
<g id="edge1" class="edge">
<title>node1&#45;&gt;node2</title>
<path fill="none" stroke="black" d="M288.73,-195.31C274.7,-182.46 255.3,-164.7 239.59,-150.31"/>
<polygon fill="black" stroke="black" points="241.95,-147.72 232.21,-143.55 237.22,-152.89 241.95,-147.72"/>
<text text-anchor="start" x="268.5" y="-165.8" font-family="Times,serif" font-size="14.00">%1</text>
</g>
<!-- node3 -->
<g id="node4" class="node">
<title>node3</title>
<polygon fill="none" stroke="black" points="0,-0.5 0,-53.5 425,-53.5 425,-0.5 0,-0.5"/>
<text text-anchor="start" x="8" y="-38.3" font-family="Times,serif" font-size="14.00">Map (varchartostr(#0) = varchartostr(strtovarchar(#1)))</text>
<text text-anchor="start" x="8" y="-23.3" font-family="Times,serif" font-size="14.00">Project (#0..=#2)</text>
<text text-anchor="start" x="8" y="-8.3" font-family="Times,serif" font-size="14.00">Project (#2)</text>
</g>
<!-- node2&#45;&gt;node3 -->
<g id="edge2" class="edge">
<title>node2&#45;&gt;node3</title>
<path fill="none" stroke="black" d="M212.5,-105.09C212.5,-93.42 212.5,-77.95 212.5,-63.93"/>
<polygon fill="black" stroke="black" points="216,-63.58 212.5,-53.58 209,-63.58 216,-63.58"/>
<text text-anchor="start" x="212.5" y="-75.8" font-family="Times,serif" font-size="14.00">%2</text>
</g>
</g>
</svg>
