<?xml version="1.0" encoding="UTF-8" standalone="no"?>
<!DOCTYPE svg PUBLIC "-//W3C//DTD SVG 1.1//EN"
 "http://www.w3.org/Graphics/SVG/1.1/DTD/svg11.dtd">
<!-- Generated by graphviz version 2.43.0 (0)
 -->
<!-- Title: G Pages: 1 -->
<svg width="867pt" height="659pt"
 viewBox="0.00 0.00 867.00 659.28" xmlns="http://www.w3.org/2000/svg" xmlns:xlink="http://www.w3.org/1999/xlink">
<g id="graph0" class="graph" transform="scale(1 1) rotate(0) translate(4 655.28)">
<title>G</title>
<polygon fill="white" stroke="transparent" points="-4,4 -4,-655.28 863,-655.28 863,4 -4,4"/>
<g id="clust1" class="cluster">
<title>cluster7</title>
<polygon fill="none" stroke="black" points="605,-530.19 605,-643.28 851,-643.28 851,-530.19 605,-530.19"/>
<text text-anchor="middle" x="655.5" y="-628.08" font-family="Times,serif" font-size="14.00">Box7:Select</text>
</g>
<g id="clust3" class="cluster">
<title>cluster6</title>
<polygon fill="none" stroke="black" points="385,-409.09 385,-522.19 731,-522.19 731,-409.09 385,-409.09"/>
<text text-anchor="middle" x="435" y="-506.99" font-family="Times,serif" font-size="14.00">Box6:Union</text>
</g>
<g id="clust5" class="cluster">
<title>cluster2</title>
<polygon fill="none" stroke="black" points="172,-288 172,-401.09 426,-401.09 426,-288 172,-288"/>
<text text-anchor="middle" x="222.5" y="-385.89" font-family="Times,serif" font-size="14.00">Box2:Select</text>
</g>
<g id="clust7" class="cluster">
<title>cluster1</title>
<polygon fill="none" stroke="black" points="44,-125 44,-280 298,-280 298,-125 44,-125"/>
<text text-anchor="middle" x="94.5" y="-264.8" font-family="Times,serif" font-size="14.00">Box1:Select</text>
</g>
<g id="clust9" class="cluster">
<title>cluster0</title>
<polygon fill="none" stroke="black" points="8,-8 8,-117 170,-117 170,-8 8,-8"/>
<text text-anchor="middle" x="49.5" y="-101.8" font-family="Times,serif" font-size="14.00">Box0:Get</text>
</g>
<g id="clust11" class="cluster">
<title>cluster5</title>
<polygon fill="none" stroke="black" points="434,-288 434,-401.09 688,-401.09 688,-288 434,-288"/>
<text text-anchor="middle" x="484.5" y="-385.89" font-family="Times,serif" font-size="14.00">Box5:Select</text>
</g>
<g id="clust13" class="cluster">
<title>cluster4</title>
<polygon fill="none" stroke="black" points="306,-125 306,-280 560,-280 560,-125 306,-125"/>
<text text-anchor="middle" x="356.5" y="-264.8" font-family="Times,serif" font-size="14.00">Box4:Select</text>
</g>
<g id="clust15" class="cluster">
<title>cluster3</title>
<polygon fill="none" stroke="black" points="270,-8 270,-117 432,-117 432,-8 270,-8"/>
<text text-anchor="middle" x="311.5" y="-101.8" font-family="Times,serif" font-size="14.00">Box3:Get</text>
</g>
<!-- boxhead7 -->
<g id="node1" class="node">
<title>boxhead7</title>
<polygon fill="none" stroke="black" points="705.5,-540.73 705.5,-609.73 842.5,-609.73 842.5,-540.73 705.5,-540.73"/>
<text text-anchor="middle" x="774" y="-594.53" font-family="Times,serif" font-size="14.00">Distinct: Enforce</text>
<polyline fill="none" stroke="black" points="705.5,-586.73 842.5,-586.73 "/>
<text text-anchor="middle" x="774" y="-571.53" font-family="Times,serif" font-size="14.00">0: Q6.C0</text>
<polyline fill="none" stroke="black" points="705.5,-563.73 842.5,-563.73 "/>
<text text-anchor="middle" x="774" y="-548.53" font-family="Times,serif" font-size="14.00">1: Q6.C1</text>
</g>
<!-- Q6 -->
<g id="node2" class="node">
<title>Q6</title>
<ellipse fill="none" stroke="black" cx="650" cy="-575.23" rx="37.09" ry="37.09"/>
<text text-anchor="middle" x="650" y="-571.53" font-family="Times,serif" font-size="14.00">Q6(F)</text>
</g>
<!-- boxhead6 -->
<g id="node3" class="node">
<title>boxhead6</title>
<polygon fill="none" stroke="black" points="577,-419.64 577,-488.64 723,-488.64 723,-419.64 577,-419.64"/>
<text text-anchor="middle" x="650" y="-473.44" font-family="Times,serif" font-size="14.00">Distinct: Preserve</text>
<polyline fill="none" stroke="black" points="577,-465.64 723,-465.64 "/>
<text text-anchor="middle" x="650" y="-450.44" font-family="Times,serif" font-size="14.00">0: Q4.C0</text>
<polyline fill="none" stroke="black" points="577,-442.64 723,-442.64 "/>
<text text-anchor="middle" x="650" y="-427.44" font-family="Times,serif" font-size="14.00">1: Q4.C1</text>
</g>
<!-- Q6&#45;&gt;boxhead6 -->
<g id="edge1" class="edge">
<title>Q6&#45;&gt;boxhead6</title>
<path fill="none" stroke="black" stroke-dasharray="5,2" d="M650,-538.18C650,-533.06 650,-527.66 650,-522.18"/>
</g>
<!-- Q4 -->
<g id="node4" class="node">
<title>Q4</title>
<ellipse fill="none" stroke="black" cx="430" cy="-454.14" rx="37.09" ry="37.09"/>
<text text-anchor="middle" x="430" y="-450.44" font-family="Times,serif" font-size="14.00">Q4(F)</text>
</g>
<!-- boxhead2 -->
<g id="node6" class="node">
<title>boxhead2</title>
<polygon fill="none" stroke="black" points="272,-298.55 272,-367.55 418,-367.55 418,-298.55 272,-298.55"/>
<text text-anchor="middle" x="345" y="-352.35" font-family="Times,serif" font-size="14.00">Distinct: Preserve</text>
<polyline fill="none" stroke="black" points="272,-344.55 418,-344.55 "/>
<text text-anchor="middle" x="345" y="-329.35" font-family="Times,serif" font-size="14.00">0: Q1.C2</text>
<polyline fill="none" stroke="black" points="272,-321.55 418,-321.55 "/>
<text text-anchor="middle" x="345" y="-306.35" font-family="Times,serif" font-size="14.00">1: Q1.C3</text>
</g>
<!-- Q4&#45;&gt;boxhead2 -->
<g id="edge2" class="edge">
<title>Q4&#45;&gt;boxhead2</title>
<path fill="none" stroke="black" stroke-dasharray="5,2" d="M408.77,-423.4C403.85,-416.5 398.41,-408.88 392.85,-401.09"/>
</g>
<!-- Q5 -->
<g id="node5" class="node">
<title>Q5</title>
<ellipse fill="none" stroke="black" cx="522" cy="-454.14" rx="37.09" ry="37.09"/>
<text text-anchor="middle" x="522" y="-450.44" font-family="Times,serif" font-size="14.00">Q5(F)</text>
</g>
<!-- boxhead5 -->
<g id="node11" class="node">
<title>boxhead5</title>
<polygon fill="none" stroke="black" points="534,-298.55 534,-367.55 680,-367.55 680,-298.55 534,-298.55"/>
<text text-anchor="middle" x="607" y="-352.35" font-family="Times,serif" font-size="14.00">Distinct: Preserve</text>
<polyline fill="none" stroke="black" points="534,-344.55 680,-344.55 "/>
<text text-anchor="middle" x="607" y="-329.35" font-family="Times,serif" font-size="14.00">0: Q3.C2</text>
<polyline fill="none" stroke="black" points="534,-321.55 680,-321.55 "/>
<text text-anchor="middle" x="607" y="-306.35" font-family="Times,serif" font-size="14.00">1: Q3.C3</text>
</g>
<!-- Q5&#45;&gt;boxhead5 -->
<g id="edge3" class="edge">
<title>Q5&#45;&gt;boxhead5</title>
<path fill="none" stroke="black" stroke-dasharray="5,2" d="M543.23,-423.4C548.15,-416.5 553.59,-408.88 559.15,-401.09"/>
</g>
<!-- Q1 -->
<g id="node7" class="node">
<title>Q1</title>
<ellipse fill="none" stroke="black" cx="217" cy="-333.05" rx="37.09" ry="37.09"/>
<text text-anchor="middle" x="217" y="-329.35" font-family="Times,serif" font-size="14.00">Q1(F)</text>
</g>
<!-- boxhead1 -->
<g id="node8" class="node">
<title>boxhead1</title>
<polygon fill="none" stroke="black" points="144,-133.5 144,-248.5 290,-248.5 290,-133.5 144,-133.5"/>
<text text-anchor="middle" x="217" y="-233.3" font-family="Times,serif" font-size="14.00">Distinct: Preserve</text>
<polyline fill="none" stroke="black" points="144,-225.5 290,-225.5 "/>
<text text-anchor="middle" x="217" y="-210.3" font-family="Times,serif" font-size="14.00">0: Q0.C0</text>
<polyline fill="none" stroke="black" points="144,-202.5 290,-202.5 "/>
<text text-anchor="middle" x="217" y="-187.3" font-family="Times,serif" font-size="14.00">1: Q0.C1</text>
<polyline fill="none" stroke="black" points="144,-179.5 290,-179.5 "/>
<text text-anchor="middle" x="217" y="-164.3" font-family="Times,serif" font-size="14.00">2: Q0.C0</text>
<polyline fill="none" stroke="black" points="144,-156.5 290,-156.5 "/>
<text text-anchor="middle" x="217" y="-141.3" font-family="Times,serif" font-size="14.00">3: Q0.C1</text>
</g>
<!-- Q1&#45;&gt;boxhead1 -->
<g id="edge4" class="edge">
<title>Q1&#45;&gt;boxhead1</title>
<path fill="none" stroke="black" stroke-dasharray="5,2" d="M217,-295.98C217,-290.91 217,-285.54 217,-280"/>
</g>
<!-- Q0 -->
<g id="node9" class="node">
<title>Q0</title>
<ellipse fill="none" stroke="black" cx="89" cy="-191" rx="37.09" ry="37.09"/>
<text text-anchor="middle" x="89" y="-187.3" font-family="Times,serif" font-size="14.00">Q0(F)</text>
</g>
<!-- boxhead0 -->
<g id="node10" class="node">
<title>boxhead0</title>
<polygon fill="none" stroke="black" points="16,-16.5 16,-85.5 162,-85.5 162,-16.5 16,-16.5"/>
<text text-anchor="middle" x="89" y="-70.3" font-family="Times,serif" font-size="14.00">Distinct: Preserve</text>
<polyline fill="none" stroke="black" points="16,-62.5 162,-62.5 "/>
<text text-anchor="middle" x="89" y="-47.3" font-family="Times,serif" font-size="14.00">0: C0</text>
<polyline fill="none" stroke="black" points="16,-39.5 162,-39.5 "/>
<text text-anchor="middle" x="89" y="-24.3" font-family="Times,serif" font-size="14.00">1: C1</text>
</g>
<!-- Q0&#45;&gt;boxhead0 -->
<g id="edge5" class="edge">
<title>Q0&#45;&gt;boxhead0</title>
<path fill="none" stroke="black" stroke-dasharray="5,2" d="M89,-153.74C89,-142.45 89,-129.63 89,-117"/>
</g>
<!-- Q3 -->
<g id="node12" class="node">
<title>Q3</title>
<ellipse fill="none" stroke="black" cx="479" cy="-333.05" rx="37.09" ry="37.09"/>
<text text-anchor="middle" x="479" y="-329.35" font-family="Times,serif" font-size="14.00">Q3(F)</text>
</g>
<!-- boxhead4 -->
<g id="node13" class="node">
<title>boxhead4</title>
<polygon fill="none" stroke="black" points="406,-133.5 406,-248.5 552,-248.5 552,-133.5 406,-133.5"/>
<text text-anchor="middle" x="479" y="-233.3" font-family="Times,serif" font-size="14.00">Distinct: Preserve</text>
<polyline fill="none" stroke="black" points="406,-225.5 552,-225.5 "/>
<text text-anchor="middle" x="479" y="-210.3" font-family="Times,serif" font-size="14.00">0: Q2.C0</text>
<polyline fill="none" stroke="black" points="406,-202.5 552,-202.5 "/>
<text text-anchor="middle" x="479" y="-187.3" font-family="Times,serif" font-size="14.00">1: Q2.C1</text>
<polyline fill="none" stroke="black" points="406,-179.5 552,-179.5 "/>
<text text-anchor="middle" x="479" y="-164.3" font-family="Times,serif" font-size="14.00">2: Q2.C0</text>
<polyline fill="none" stroke="black" points="406,-156.5 552,-156.5 "/>
<text text-anchor="middle" x="479" y="-141.3" font-family="Times,serif" font-size="14.00">3: Q2.C1</text>
</g>
<!-- Q3&#45;&gt;boxhead4 -->
<g id="edge6" class="edge">
<title>Q3&#45;&gt;boxhead4</title>
<path fill="none" stroke="black" stroke-dasharray="5,2" d="M479,-295.98C479,-290.91 479,-285.54 479,-280"/>
</g>
<!-- Q2 -->
<g id="node14" class="node">
<title>Q2</title>
<ellipse fill="none" stroke="black" cx="351" cy="-191" rx="37.09" ry="37.09"/>
<text text-anchor="middle" x="351" y="-187.3" font-family="Times,serif" font-size="14.00">Q2(F)</text>
</g>
<!-- boxhead3 -->
<g id="node15" class="node">
<title>boxhead3</title>
<polygon fill="none" stroke="black" points="278,-16.5 278,-85.5 424,-85.5 424,-16.5 278,-16.5"/>
<text text-anchor="middle" x="351" y="-70.3" font-family="Times,serif" font-size="14.00">Distinct: Preserve</text>
<polyline fill="none" stroke="black" points="278,-62.5 424,-62.5 "/>
<text text-anchor="middle" x="351" y="-47.3" font-family="Times,serif" font-size="14.00">0: C0</text>
<polyline fill="none" stroke="black" points="278,-39.5 424,-39.5 "/>
<text text-anchor="middle" x="351" y="-24.3" font-family="Times,serif" font-size="14.00">1: C1</text>
</g>
<!-- Q2&#45;&gt;boxhead3 -->
<g id="edge7" class="edge">
<title>Q2&#45;&gt;boxhead3</title>
<path fill="none" stroke="black" stroke-dasharray="5,2" d="M351,-153.74C351,-142.45 351,-129.63 351,-117"/>
</g>
</g>
</svg>
