<?xml version="1.0" encoding="UTF-8" standalone="no"?>
<!DOCTYPE svg PUBLIC "-//W3C//DTD SVG 1.1//EN"
 "http://www.w3.org/Graphics/SVG/1.1/DTD/svg11.dtd">
<!-- Generated by graphviz version 2.43.0 (0)
 -->
<!-- Title: G Pages: 1 -->
<svg width="482pt" height="152pt"
 viewBox="0.00 0.00 481.50 152.00" xmlns="http://www.w3.org/2000/svg" xmlns:xlink="http://www.w3.org/1999/xlink">
<g id="graph0" class="graph" transform="scale(1 1) rotate(0) translate(4 148)">
<title>G</title>
<polygon fill="white" stroke="transparent" points="-4,4 -4,-148 477.5,-148 477.5,4 -4,4"/>
<!-- node0 -->
<g id="node1" class="node">
<title>node0</title>
<polygon fill="none" stroke="black" points="0,-90.5 0,-143.5 227,-143.5 227,-90.5 0,-90.5"/>
<text text-anchor="start" x="8" y="-128.3" font-family="Times,serif" font-size="14.00">Get hir_to_qgm.public.r (u39)</text>
<text text-anchor="start" x="8" y="-113.3" font-family="Times,serif" font-size="14.00">Map #0, #1</text>
<text text-anchor="start" x="8" y="-98.3" font-family="Times,serif" font-size="14.00">Project (#2, #3)</text>
</g>
<!-- node2 -->
<g id="node3" class="node">
<title>node2</title>
<polygon fill="none" stroke="black" points="180,-0.5 180,-38.5 293,-38.5 293,-0.5 180,-0.5"/>
<text text-anchor="start" x="188" y="-23.3" font-family="Times,serif" font-size="14.00">Union %0 %1</text>
<text text-anchor="start" x="188" y="-8.3" font-family="Times,serif" font-size="14.00">Distinct</text>
</g>
<!-- node0&#45;&gt;node2 -->
<g id="edge2" class="edge">
<title>node0&#45;&gt;node2</title>
<path fill="none" stroke="black" d="M146.46,-90.41C164.73,-76.23 187.31,-58.69 205.29,-44.73"/>
<polygon fill="black" stroke="black" points="207.44,-47.49 213.19,-38.6 203.15,-41.96 207.44,-47.49"/>
<text text-anchor="start" x="186.5" y="-60.8" font-family="Times,serif" font-size="14.00">%0</text>
</g>
<!-- node1 -->
<g id="node2" class="node">
<title>node1</title>
<polygon fill="none" stroke="black" points="245.5,-90.5 245.5,-143.5 473.5,-143.5 473.5,-90.5 245.5,-90.5"/>
<text text-anchor="start" x="253.5" y="-128.3" font-family="Times,serif" font-size="14.00">Get hir_to_qgm.public.s (u40)</text>
<text text-anchor="start" x="253.5" y="-113.3" font-family="Times,serif" font-size="14.00">Map #0, #1</text>
<text text-anchor="start" x="253.5" y="-98.3" font-family="Times,serif" font-size="14.00">Project (#2, #3)</text>
</g>
<!-- node1&#45;&gt;node2 -->
<g id="edge1" class="edge">
<title>node1&#45;&gt;node2</title>
<path fill="none" stroke="black" d="M326.54,-90.41C308.27,-76.23 285.69,-58.69 267.71,-44.73"/>
<polygon fill="black" stroke="black" points="269.85,-41.96 259.81,-38.6 265.56,-47.49 269.85,-41.96"/>
<text text-anchor="start" x="302.5" y="-60.8" font-family="Times,serif" font-size="14.00">%1</text>
</g>
</g>
</svg>
