<?xml version="1.0" encoding="UTF-8" standalone="no"?>
<!DOCTYPE svg PUBLIC "-//W3C//DTD SVG 1.1//EN"
 "http://www.w3.org/Graphics/SVG/1.1/DTD/svg11.dtd">
<!-- Generated by graphviz version 2.43.0 (0)
 -->
<!-- Title: G Pages: 1 -->
<svg width="899pt" height="659pt"
 viewBox="0.00 0.00 899.00 659.28" xmlns="http://www.w3.org/2000/svg" xmlns:xlink="http://www.w3.org/1999/xlink">
<g id="graph0" class="graph" transform="scale(1 1) rotate(0) translate(4 655.28)">
<title>G</title>
<polygon fill="white" stroke="transparent" points="-4,4 -4,-655.28 895,-655.28 895,4 -4,4"/>
<g id="clust1" class="cluster">
<title>cluster7</title>
<polygon fill="none" stroke="black" points="621,-530.19 621,-643.28 883,-643.28 883,-530.19 621,-530.19"/>
<text text-anchor="middle" x="671.5" y="-628.08" font-family="Times,serif" font-size="14.00">Box7:Select</text>
</g>
<g id="clust3" class="cluster">
<title>cluster6</title>
<polygon fill="none" stroke="black" points="397,-409.09 397,-522.19 751,-522.19 751,-409.09 397,-409.09"/>
<text text-anchor="middle" x="447" y="-506.99" font-family="Times,serif" font-size="14.00">Box6:Union</text>
</g>
<g id="clust5" class="cluster">
<title>cluster2</title>
<polygon fill="none" stroke="black" points="176,-288 176,-401.09 438,-401.09 438,-288 176,-288"/>
<text text-anchor="middle" x="226.5" y="-385.89" font-family="Times,serif" font-size="14.00">Box2:Select</text>
</g>
<g id="clust7" class="cluster">
<title>cluster1</title>
<polygon fill="none" stroke="black" points="44,-125 44,-280 306,-280 306,-125 44,-125"/>
<text text-anchor="middle" x="94.5" y="-264.8" font-family="Times,serif" font-size="14.00">Box1:Select</text>
</g>
<g id="clust9" class="cluster">
<title>cluster0</title>
<polygon fill="none" stroke="black" points="8,-8 8,-117 170,-117 170,-8 8,-8"/>
<text text-anchor="middle" x="49.5" y="-101.8" font-family="Times,serif" font-size="14.00">Box0:Get</text>
</g>
<g id="clust11" class="cluster">
<title>cluster5</title>
<polygon fill="none" stroke="black" points="446,-288 446,-401.09 708,-401.09 708,-288 446,-288"/>
<text text-anchor="middle" x="496.5" y="-385.89" font-family="Times,serif" font-size="14.00">Box5:Select</text>
</g>
<g id="clust13" class="cluster">
<title>cluster4</title>
<polygon fill="none" stroke="black" points="314,-125 314,-280 576,-280 576,-125 314,-125"/>
<text text-anchor="middle" x="364.5" y="-264.8" font-family="Times,serif" font-size="14.00">Box4:Select</text>
</g>
<g id="clust15" class="cluster">
<title>cluster3</title>
<polygon fill="none" stroke="black" points="278,-8 278,-117 440,-117 440,-8 278,-8"/>
<text text-anchor="middle" x="319.5" y="-101.8" font-family="Times,serif" font-size="14.00">Box3:Get</text>
</g>
<!-- boxhead7 -->
<g id="node1" class="node">
<title>boxhead7</title>
<polygon fill="none" stroke="black" points="721.5,-540.73 721.5,-609.73 874.5,-609.73 874.5,-540.73 721.5,-540.73"/>
<text text-anchor="middle" x="798" y="-594.53" font-family="Times,serif" font-size="14.00">Distinct: Enforce</text>
<polyline fill="none" stroke="black" points="721.5,-586.73 874.5,-586.73 "/>
<text text-anchor="middle" x="798" y="-571.53" font-family="Times,serif" font-size="14.00">0: Q6.C0 (bigint?)</text>
<polyline fill="none" stroke="black" points="721.5,-563.73 874.5,-563.73 "/>
<text text-anchor="middle" x="798" y="-548.53" font-family="Times,serif" font-size="14.00">1: Q6.C1 (integer?)</text>
</g>
<!-- Q6 -->
<g id="node2" class="node">
<title>Q6</title>
<ellipse fill="none" stroke="black" cx="666" cy="-575.23" rx="37.09" ry="37.09"/>
<text text-anchor="middle" x="666" y="-571.53" font-family="Times,serif" font-size="14.00">Q6(F)</text>
</g>
<!-- boxhead6 -->
<g id="node3" class="node">
<title>boxhead6</title>
<polygon fill="none" stroke="black" points="589.5,-419.64 589.5,-488.64 742.5,-488.64 742.5,-419.64 589.5,-419.64"/>
<text text-anchor="middle" x="666" y="-473.44" font-family="Times,serif" font-size="14.00">Distinct: Preserve</text>
<polyline fill="none" stroke="black" points="589.5,-465.64 742.5,-465.64 "/>
<text text-anchor="middle" x="666" y="-450.44" font-family="Times,serif" font-size="14.00">0: Q4.C0 (bigint?)</text>
<polyline fill="none" stroke="black" points="589.5,-442.64 742.5,-442.64 "/>
<text text-anchor="middle" x="666" y="-427.44" font-family="Times,serif" font-size="14.00">1: Q4.C1 (integer?)</text>
</g>
<!-- Q6&#45;&gt;boxhead6 -->
<g id="edge1" class="edge">
<title>Q6&#45;&gt;boxhead6</title>
<path fill="none" stroke="black" stroke-dasharray="5,2" d="M666,-538.18C666,-533.06 666,-527.66 666,-522.18"/>
</g>
<!-- Q4 -->
<g id="node4" class="node">
<title>Q4</title>
<ellipse fill="none" stroke="black" cx="442" cy="-454.14" rx="37.09" ry="37.09"/>
<text text-anchor="middle" x="442" y="-450.44" font-family="Times,serif" font-size="14.00">Q4(F)</text>
</g>
<!-- boxhead2 -->
<g id="node6" class="node">
<title>boxhead2</title>
<polygon fill="none" stroke="black" points="276.5,-298.55 276.5,-367.55 429.5,-367.55 429.5,-298.55 276.5,-298.55"/>
<text text-anchor="middle" x="353" y="-352.35" font-family="Times,serif" font-size="14.00">Distinct: Preserve</text>
<polyline fill="none" stroke="black" points="276.5,-344.55 429.5,-344.55 "/>
<text text-anchor="middle" x="353" y="-329.35" font-family="Times,serif" font-size="14.00">0: Q1.C2 (bigint?)</text>
<polyline fill="none" stroke="black" points="276.5,-321.55 429.5,-321.55 "/>
<text text-anchor="middle" x="353" y="-306.35" font-family="Times,serif" font-size="14.00">1: Q1.C3 (integer?)</text>
</g>
<!-- Q4&#45;&gt;boxhead2 -->
<g id="edge2" class="edge">
<title>Q4&#45;&gt;boxhead2</title>
<path fill="none" stroke="black" stroke-dasharray="5,2" d="M420.23,-424.01C414.95,-416.95 409.1,-409.11 403.1,-401.09"/>
</g>
<!-- Q5 -->
<g id="node5" class="node">
<title>Q5</title>
<ellipse fill="none" stroke="black" cx="534" cy="-454.14" rx="37.09" ry="37.09"/>
<text text-anchor="middle" x="534" y="-450.44" font-family="Times,serif" font-size="14.00">Q5(F)</text>
</g>
<!-- boxhead5 -->
<g id="node11" class="node">
<title>boxhead5</title>
<polygon fill="none" stroke="black" points="546.5,-298.55 546.5,-367.55 699.5,-367.55 699.5,-298.55 546.5,-298.55"/>
<text text-anchor="middle" x="623" y="-352.35" font-family="Times,serif" font-size="14.00">Distinct: Preserve</text>
<polyline fill="none" stroke="black" points="546.5,-344.55 699.5,-344.55 "/>
<text text-anchor="middle" x="623" y="-329.35" font-family="Times,serif" font-size="14.00">0: Q3.C2 (bigint?)</text>
<polyline fill="none" stroke="black" points="546.5,-321.55 699.5,-321.55 "/>
<text text-anchor="middle" x="623" y="-306.35" font-family="Times,serif" font-size="14.00">1: Q3.C3 (integer?)</text>
</g>
<!-- Q5&#45;&gt;boxhead5 -->
<g id="edge3" class="edge">
<title>Q5&#45;&gt;boxhead5</title>
<path fill="none" stroke="black" stroke-dasharray="5,2" d="M555.77,-424.01C561.05,-416.95 566.9,-409.11 572.9,-401.09"/>
</g>
<!-- Q1 -->
<g id="node7" class="node">
<title>Q1</title>
<ellipse fill="none" stroke="black" cx="221" cy="-333.05" rx="37.09" ry="37.09"/>
<text text-anchor="middle" x="221" y="-329.35" font-family="Times,serif" font-size="14.00">Q1(F)</text>
</g>
<!-- boxhead1 -->
<g id="node8" class="node">
<title>boxhead1</title>
<polygon fill="none" stroke="black" points="144.5,-133.5 144.5,-248.5 297.5,-248.5 297.5,-133.5 144.5,-133.5"/>
<text text-anchor="middle" x="221" y="-233.3" font-family="Times,serif" font-size="14.00">Distinct: Preserve</text>
<polyline fill="none" stroke="black" points="144.5,-225.5 297.5,-225.5 "/>
<text text-anchor="middle" x="221" y="-210.3" font-family="Times,serif" font-size="14.00">0: Q0.C0 (bigint?)</text>
<polyline fill="none" stroke="black" points="144.5,-202.5 297.5,-202.5 "/>
<text text-anchor="middle" x="221" y="-187.3" font-family="Times,serif" font-size="14.00">1: Q0.C1 (integer?)</text>
<polyline fill="none" stroke="black" points="144.5,-179.5 297.5,-179.5 "/>
<text text-anchor="middle" x="221" y="-164.3" font-family="Times,serif" font-size="14.00">2: Q0.C0 (bigint?)</text>
<polyline fill="none" stroke="black" points="144.5,-156.5 297.5,-156.5 "/>
<text text-anchor="middle" x="221" y="-141.3" font-family="Times,serif" font-size="14.00">3: Q0.C1 (integer?)</text>
</g>
<!-- Q1&#45;&gt;boxhead1 -->
<g id="edge4" class="edge">
<title>Q1&#45;&gt;boxhead1</title>
<path fill="none" stroke="black" stroke-dasharray="5,2" d="M221,-295.98C221,-290.91 221,-285.54 221,-280"/>
</g>
<!-- Q0 -->
<g id="node9" class="node">
<title>Q0</title>
<ellipse fill="none" stroke="black" cx="89" cy="-191" rx="37.09" ry="37.09"/>
<text text-anchor="middle" x="89" y="-187.3" font-family="Times,serif" font-size="14.00">Q0(F)</text>
</g>
<!-- boxhead0 -->
<g id="node10" class="node">
<title>boxhead0</title>
<polygon fill="none" stroke="black" points="16,-16.5 16,-85.5 162,-85.5 162,-16.5 16,-16.5"/>
<text text-anchor="middle" x="89" y="-70.3" font-family="Times,serif" font-size="14.00">Distinct: Preserve</text>
<polyline fill="none" stroke="black" points="16,-62.5 162,-62.5 "/>
<text text-anchor="middle" x="89" y="-47.3" font-family="Times,serif" font-size="14.00">0: C0 (bigint?)</text>
<polyline fill="none" stroke="black" points="16,-39.5 162,-39.5 "/>
<text text-anchor="middle" x="89" y="-24.3" font-family="Times,serif" font-size="14.00">1: C1 (integer?)</text>
</g>
<!-- Q0&#45;&gt;boxhead0 -->
<g id="edge5" class="edge">
<title>Q0&#45;&gt;boxhead0</title>
<path fill="none" stroke="black" stroke-dasharray="5,2" d="M89,-153.74C89,-142.45 89,-129.63 89,-117"/>
</g>
<!-- Q3 -->
<g id="node12" class="node">
<title>Q3</title>
<ellipse fill="none" stroke="black" cx="491" cy="-333.05" rx="37.09" ry="37.09"/>
<text text-anchor="middle" x="491" y="-329.35" font-family="Times,serif" font-size="14.00">Q3(F)</text>
</g>
<!-- boxhead4 -->
<g id="node13" class="node">
<title>boxhead4</title>
<polygon fill="none" stroke="black" points="414.5,-133.5 414.5,-248.5 567.5,-248.5 567.5,-133.5 414.5,-133.5"/>
<text text-anchor="middle" x="491" y="-233.3" font-family="Times,serif" font-size="14.00">Distinct: Preserve</text>
<polyline fill="none" stroke="black" points="414.5,-225.5 567.5,-225.5 "/>
<text text-anchor="middle" x="491" y="-210.3" font-family="Times,serif" font-size="14.00">0: Q2.C0 (bigint?)</text>
<polyline fill="none" stroke="black" points="414.5,-202.5 567.5,-202.5 "/>
<text text-anchor="middle" x="491" y="-187.3" font-family="Times,serif" font-size="14.00">1: Q2.C1 (integer?)</text>
<polyline fill="none" stroke="black" points="414.5,-179.5 567.5,-179.5 "/>
<text text-anchor="middle" x="491" y="-164.3" font-family="Times,serif" font-size="14.00">2: Q2.C0 (bigint?)</text>
<polyline fill="none" stroke="black" points="414.5,-156.5 567.5,-156.5 "/>
<text text-anchor="middle" x="491" y="-141.3" font-family="Times,serif" font-size="14.00">3: Q2.C1 (integer?)</text>
</g>
<!-- Q3&#45;&gt;boxhead4 -->
<g id="edge6" class="edge">
<title>Q3&#45;&gt;boxhead4</title>
<path fill="none" stroke="black" stroke-dasharray="5,2" d="M491,-295.98C491,-290.91 491,-285.54 491,-280"/>
</g>
<!-- Q2 -->
<g id="node14" class="node">
<title>Q2</title>
<ellipse fill="none" stroke="black" cx="359" cy="-191" rx="37.09" ry="37.09"/>
<text text-anchor="middle" x="359" y="-187.3" font-family="Times,serif" font-size="14.00">Q2(F)</text>
</g>
<!-- boxhead3 -->
<g id="node15" class="node">
<title>boxhead3</title>
<polygon fill="none" stroke="black" points="286,-16.5 286,-85.5 432,-85.5 432,-16.5 286,-16.5"/>
<text text-anchor="middle" x="359" y="-70.3" font-family="Times,serif" font-size="14.00">Distinct: Preserve</text>
<polyline fill="none" stroke="black" points="286,-62.5 432,-62.5 "/>
<text text-anchor="middle" x="359" y="-47.3" font-family="Times,serif" font-size="14.00">0: C0 (bigint?)</text>
<polyline fill="none" stroke="black" points="286,-39.5 432,-39.5 "/>
<text text-anchor="middle" x="359" y="-24.3" font-family="Times,serif" font-size="14.00">1: C1 (integer?)</text>
</g>
<!-- Q2&#45;&gt;boxhead3 -->
<g id="edge7" class="edge">
<title>Q2&#45;&gt;boxhead3</title>
<path fill="none" stroke="black" stroke-dasharray="5,2" d="M359,-153.74C359,-142.45 359,-129.63 359,-117"/>
</g>
</g>
</svg>
