<?xml version="1.0" encoding="UTF-8" standalone="no"?>
<!DOCTYPE svg PUBLIC "-//W3C//DTD SVG 1.1//EN"
 "http://www.w3.org/Graphics/SVG/1.1/DTD/svg11.dtd">
<!-- Generated by graphviz version 2.43.0 (0)
 -->
<!-- Title: G Pages: 1 -->
<svg width="974pt" height="519pt"
 viewBox="0.00 0.00 974.00 519.00" xmlns="http://www.w3.org/2000/svg" xmlns:xlink="http://www.w3.org/1999/xlink">
<g id="graph0" class="graph" transform="scale(1 1) rotate(0) translate(4 515)">
<title>G</title>
<polygon fill="white" stroke="transparent" points="-4,4 -4,-515 970,-515 970,4 -4,4"/>
<!-- node0 -->
<g id="node1" class="node">
<title>node0</title>
<polygon fill="none" stroke="black" points="290,-474.5 290,-510.5 386,-510.5 386,-474.5 290,-474.5"/>
<text text-anchor="start" x="298" y="-488.8" font-family="Times,serif" font-size="14.00">Constant ()</text>
</g>
<!-- node2 -->
<g id="node3" class="node">
<title>node2</title>
<polygon fill="none" stroke="black" points="54,-384.5 54,-422.5 328,-422.5 328,-384.5 54,-384.5"/>
<text text-anchor="start" x="62" y="-407.3" font-family="Times,serif" font-size="14.00">Join %0 %1</text>
<text text-anchor="start" x="62" y="-392.3" font-family="Times,serif" font-size="14.00">&#45; implementation = Unimplemented</text>
</g>
<!-- node0&#45;&gt;node2 -->
<g id="edge3" class="edge">
<title>node0&#45;&gt;node2</title>
<path fill="none" stroke="black" d="M308.96,-474.31C286.45,-460.99 255.04,-442.4 230.29,-427.75"/>
<polygon fill="black" stroke="black" points="231.89,-424.63 221.5,-422.55 228.32,-430.66 231.89,-424.63"/>
<text text-anchor="start" x="278" y="-444.8" font-family="Times,serif" font-size="14.00">%0</text>
</g>
<!-- node5 -->
<g id="node6" class="node">
<title>node5</title>
<polygon fill="none" stroke="black" points="346,-384.5 346,-422.5 620,-422.5 620,-384.5 346,-384.5"/>
<text text-anchor="start" x="354" y="-407.3" font-family="Times,serif" font-size="14.00">Join %0 %4</text>
<text text-anchor="start" x="354" y="-392.3" font-family="Times,serif" font-size="14.00">&#45; implementation = Unimplemented</text>
</g>
<!-- node0&#45;&gt;node5 -->
<g id="edge6" class="edge">
<title>node0&#45;&gt;node5</title>
<path fill="none" stroke="black" d="M353.92,-474.39C364.5,-463.74 379.15,-450.34 394,-441 402.38,-435.73 411.64,-430.95 420.94,-426.7"/>
<polygon fill="black" stroke="black" points="422.45,-429.86 430.21,-422.64 419.65,-423.45 422.45,-429.86"/>
<text text-anchor="start" x="394" y="-444.8" font-family="Times,serif" font-size="14.00">%0</text>
</g>
<!-- node8 -->
<g id="node9" class="node">
<title>node8</title>
<polygon fill="none" stroke="black" points="638,-384.5 638,-422.5 912,-422.5 912,-384.5 638,-384.5"/>
<text text-anchor="start" x="646" y="-407.3" font-family="Times,serif" font-size="14.00">Join %0 %7</text>
<text text-anchor="start" x="646" y="-392.3" font-family="Times,serif" font-size="14.00">&#45; implementation = Unimplemented</text>
</g>
<!-- node0&#45;&gt;node8 -->
<g id="edge12" class="edge">
<title>node0&#45;&gt;node8</title>
<path fill="none" stroke="black" d="M378.59,-474.49C406.83,-463.32 445.62,-449.29 481,-441 542.49,-426.59 561.48,-430.71 627.71,-423.11"/>
<polygon fill="black" stroke="black" points="628.32,-426.56 637.84,-421.9 627.49,-419.61 628.32,-426.56"/>
<text text-anchor="start" x="481" y="-444.8" font-family="Times,serif" font-size="14.00">%0</text>
</g>
<!-- node1 -->
<g id="node2" class="node">
<title>node1</title>
<polygon fill="none" stroke="black" points="0,-474.5 0,-510.5 272,-510.5 272,-474.5 0,-474.5"/>
<text text-anchor="start" x="8" y="-488.8" font-family="Times,serif" font-size="14.00">Get negate_threshold.public.r (u51)</text>
</g>
<!-- node1&#45;&gt;node2 -->
<g id="edge5" class="edge">
<title>node1&#45;&gt;node2</title>
<path fill="none" stroke="black" d="M146.87,-474.31C154.62,-462.04 165.2,-445.3 174.06,-431.29"/>
<polygon fill="black" stroke="black" points="177.2,-432.87 179.59,-422.55 171.29,-429.13 177.2,-432.87"/>
<text text-anchor="start" x="167" y="-444.8" font-family="Times,serif" font-size="14.00">%1</text>
</g>
<!-- node3 -->
<g id="node4" class="node">
<title>node3</title>
<polygon fill="none" stroke="black" points="310,-162.5 310,-230.5 456,-230.5 456,-162.5 310,-162.5"/>
<text text-anchor="start" x="318" y="-215.3" font-family="Times,serif" font-size="14.00">Map #0</text>
<text text-anchor="start" x="318" y="-200.3" font-family="Times,serif" font-size="14.00">Map #1</text>
<text text-anchor="start" x="318" y="-185.3" font-family="Times,serif" font-size="14.00">Project (#0..=#3)</text>
<text text-anchor="start" x="318" y="-170.3" font-family="Times,serif" font-size="14.00">Project (#2, #3)</text>
</g>
<!-- node2&#45;&gt;node3 -->
<g id="edge11" class="edge">
<title>node2&#45;&gt;node3</title>
<path fill="none" stroke="black" d="M208.04,-384.31C238.58,-351.7 303.32,-282.57 344.91,-238.17"/>
<polygon fill="black" stroke="black" points="347.6,-240.41 351.89,-230.72 342.49,-235.63 347.6,-240.41"/>
<text text-anchor="start" x="236" y="-354.8" font-family="Times,serif" font-size="14.00">%2</text>
</g>
<!-- node11 -->
<g id="node12" class="node">
<title>node11</title>
<polygon fill="none" stroke="black" points="303.5,-0.5 303.5,-38.5 496.5,-38.5 496.5,-0.5 303.5,-0.5"/>
<text text-anchor="start" x="311.5" y="-23.3" font-family="Times,serif" font-size="14.00">Union %3 %10</text>
<text text-anchor="start" x="311.5" y="-8.3" font-family="Times,serif" font-size="14.00">Distinct group=(#0, #1)</text>
</g>
<!-- node3&#45;&gt;node11 -->
<g id="edge13" class="edge">
<title>node3&#45;&gt;node11</title>
<path fill="none" stroke="black" d="M386.24,-162.17C389.43,-129.35 394.24,-79.76 397.25,-48.8"/>
<polygon fill="black" stroke="black" points="400.75,-48.97 398.23,-38.68 393.78,-48.29 400.75,-48.97"/>
<text text-anchor="start" x="392" y="-113.3" font-family="Times,serif" font-size="14.00">%3</text>
</g>
<!-- node4 -->
<g id="node5" class="node">
<title>node4</title>
<polygon fill="none" stroke="black" points="404,-474.5 404,-510.5 676,-510.5 676,-474.5 404,-474.5"/>
<text text-anchor="start" x="412" y="-488.8" font-family="Times,serif" font-size="14.00">Get negate_threshold.public.r (u51)</text>
</g>
<!-- node4&#45;&gt;node5 -->
<g id="edge9" class="edge">
<title>node4&#45;&gt;node5</title>
<path fill="none" stroke="black" d="M528.74,-474.31C520.7,-462.04 509.73,-445.3 500.55,-431.29"/>
<polygon fill="black" stroke="black" points="503.23,-429 494.83,-422.55 497.38,-432.83 503.23,-429"/>
<text text-anchor="start" x="516" y="-444.8" font-family="Times,serif" font-size="14.00">%4</text>
</g>
<!-- node6 -->
<g id="node7" class="node">
<title>node6</title>
<polygon fill="none" stroke="black" points="410,-257 410,-325 556,-325 556,-257 410,-257"/>
<text text-anchor="start" x="418" y="-309.8" font-family="Times,serif" font-size="14.00">Map #0</text>
<text text-anchor="start" x="418" y="-294.8" font-family="Times,serif" font-size="14.00">Map #1</text>
<text text-anchor="start" x="418" y="-279.8" font-family="Times,serif" font-size="14.00">Project (#0..=#3)</text>
<text text-anchor="start" x="418" y="-264.8" font-family="Times,serif" font-size="14.00">Project (#2, #3)</text>
</g>
<!-- node5&#45;&gt;node6 -->
<g id="edge4" class="edge">
<title>node5&#45;&gt;node6</title>
<path fill="none" stroke="black" d="M483,-384.25C483,-370.95 483,-352.36 483,-335.35"/>
<polygon fill="black" stroke="black" points="486.5,-335.02 483,-325.02 479.5,-335.02 486.5,-335.02"/>
<text text-anchor="start" x="483" y="-354.8" font-family="Times,serif" font-size="14.00">%5</text>
</g>
<!-- node10 -->
<g id="node11" class="node">
<title>node10</title>
<polygon fill="none" stroke="black" points="426.5,-90.5 426.5,-143.5 539.5,-143.5 539.5,-90.5 426.5,-90.5"/>
<text text-anchor="start" x="434.5" y="-128.3" font-family="Times,serif" font-size="14.00">Union %6 %9</text>
<text text-anchor="start" x="434.5" y="-113.3" font-family="Times,serif" font-size="14.00">Threshold</text>
<text text-anchor="start" x="434.5" y="-98.3" font-family="Times,serif" font-size="14.00">Negate</text>
</g>
<!-- node6&#45;&gt;node10 -->
<g id="edge10" class="edge">
<title>node6&#45;&gt;node10</title>
<path fill="none" stroke="black" d="M483,-256.84C483,-227.23 483,-183.99 483,-153.66"/>
<polygon fill="black" stroke="black" points="486.5,-153.51 483,-143.51 479.5,-153.51 486.5,-153.51"/>
<text text-anchor="start" x="483" y="-192.8" font-family="Times,serif" font-size="14.00">%6</text>
</g>
<!-- node7 -->
<g id="node8" class="node">
<title>node7</title>
<polygon fill="none" stroke="black" points="694,-474.5 694,-510.5 966,-510.5 966,-474.5 694,-474.5"/>
<text text-anchor="start" x="702" y="-488.8" font-family="Times,serif" font-size="14.00">Get negate_threshold.public.s (u52)</text>
</g>
<!-- node7&#45;&gt;node8 -->
<g id="edge1" class="edge">
<title>node7&#45;&gt;node8</title>
<path fill="none" stroke="black" d="M819.13,-474.31C811.38,-462.04 800.8,-445.3 791.94,-431.29"/>
<polygon fill="black" stroke="black" points="794.71,-429.13 786.41,-422.55 788.8,-432.87 794.71,-429.13"/>
<text text-anchor="start" x="807" y="-444.8" font-family="Times,serif" font-size="14.00">%7</text>
</g>
<!-- node9 -->
<g id="node10" class="node">
<title>node9</title>
<polygon fill="none" stroke="black" points="638,-249.5 638,-332.5 784,-332.5 784,-249.5 638,-249.5"/>
<text text-anchor="start" x="646" y="-317.3" font-family="Times,serif" font-size="14.00">Map #0</text>
<text text-anchor="start" x="646" y="-302.3" font-family="Times,serif" font-size="14.00">Map #1</text>
<text text-anchor="start" x="646" y="-287.3" font-family="Times,serif" font-size="14.00">Project (#0..=#3)</text>
<text text-anchor="start" x="646" y="-272.3" font-family="Times,serif" font-size="14.00">Project (#2, #3)</text>
<text text-anchor="start" x="646" y="-257.3" font-family="Times,serif" font-size="14.00">Negate</text>
</g>
<!-- node8&#45;&gt;node9 -->
<g id="edge7" class="edge">
<title>node8&#45;&gt;node9</title>
<path fill="none" stroke="black" d="M764.43,-384.25C757.66,-372.57 748.53,-356.8 739.73,-341.61"/>
<polygon fill="black" stroke="black" points="742.65,-339.66 734.61,-332.76 736.59,-343.17 742.65,-339.66"/>
<text text-anchor="start" x="752" y="-354.8" font-family="Times,serif" font-size="14.00">%8</text>
</g>
<!-- node9&#45;&gt;node10 -->
<g id="edge2" class="edge">
<title>node9&#45;&gt;node10</title>
<path fill="none" stroke="black" d="M657.26,-249.46C616.86,-218.99 562.31,-177.83 525.07,-149.74"/>
<polygon fill="black" stroke="black" points="527.02,-146.83 516.93,-143.6 522.81,-152.42 527.02,-146.83"/>
<text text-anchor="start" x="630" y="-192.8" font-family="Times,serif" font-size="14.00">%9</text>
</g>
<!-- node10&#45;&gt;node11 -->
<g id="edge8" class="edge">
<title>node10&#45;&gt;node11</title>
<path fill="none" stroke="black" d="M460.76,-90.41C448.88,-76.74 434.29,-59.95 422.39,-46.26"/>
<polygon fill="black" stroke="black" points="424.93,-43.85 415.73,-38.6 419.65,-48.44 424.93,-43.85"/>
<text text-anchor="start" x="443" y="-60.8" font-family="Times,serif" font-size="14.00">%10</text>
</g>
</g>
</svg>
