<?xml version="1.0" encoding="UTF-8" standalone="no"?>
<!DOCTYPE svg PUBLIC "-//W3C//DTD SVG 1.1//EN"
 "http://www.w3.org/Graphics/SVG/1.1/DTD/svg11.dtd">
<!-- Generated by graphviz version 2.43.0 (0)
 -->
<!-- Title: G Pages: 1 -->
<svg width="636pt" height="242pt"
 viewBox="0.00 0.00 636.00 242.00" xmlns="http://www.w3.org/2000/svg" xmlns:xlink="http://www.w3.org/1999/xlink">
<g id="graph0" class="graph" transform="scale(1 1) rotate(0) translate(4 238)">
<title>G</title>
<polygon fill="white" stroke="transparent" points="-4,4 -4,-238 632,-238 632,4 -4,4"/>
<!-- node0 -->
<g id="node1" class="node">
<title>node0</title>
<polygon fill="none" stroke="black" points="0,-99 0,-135 272,-135 272,-99 0,-99"/>
<text text-anchor="start" x="8" y="-113.3" font-family="Times,serif" font-size="14.00">Get negate_threshold.public.r (u51)</text>
</g>
<!-- node4 -->
<g id="node5" class="node">
<title>node4</title>
<polygon fill="none" stroke="black" points="62.5,-0.5 62.5,-38.5 255.5,-38.5 255.5,-0.5 62.5,-0.5"/>
<text text-anchor="start" x="70.5" y="-23.3" font-family="Times,serif" font-size="14.00">Union %0 %3</text>
<text text-anchor="start" x="70.5" y="-8.3" font-family="Times,serif" font-size="14.00">Distinct group=(#0, #1)</text>
</g>
<!-- node0&#45;&gt;node4 -->
<g id="edge1" class="edge">
<title>node0&#45;&gt;node4</title>
<path fill="none" stroke="black" d="M140.11,-98.93C143.46,-85.02 148.26,-65.09 152.18,-48.8"/>
<polygon fill="black" stroke="black" points="155.67,-49.27 154.61,-38.73 148.87,-47.63 155.67,-49.27"/>
<text text-anchor="start" x="150" y="-60.8" font-family="Times,serif" font-size="14.00">%0</text>
</g>
<!-- node1 -->
<g id="node2" class="node">
<title>node1</title>
<polygon fill="none" stroke="black" points="66,-196.5 66,-232.5 338,-232.5 338,-196.5 66,-196.5"/>
<text text-anchor="start" x="74" y="-210.8" font-family="Times,serif" font-size="14.00">Get negate_threshold.public.r (u51)</text>
</g>
<!-- node3 -->
<g id="node4" class="node">
<title>node3</title>
<polygon fill="none" stroke="black" points="290.5,-90.5 290.5,-143.5 403.5,-143.5 403.5,-90.5 290.5,-90.5"/>
<text text-anchor="start" x="298.5" y="-128.3" font-family="Times,serif" font-size="14.00">Union %1 %2</text>
<text text-anchor="start" x="298.5" y="-113.3" font-family="Times,serif" font-size="14.00">Threshold</text>
<text text-anchor="start" x="298.5" y="-98.3" font-family="Times,serif" font-size="14.00">Negate</text>
</g>
<!-- node1&#45;&gt;node3 -->
<g id="edge4" class="edge">
<title>node1&#45;&gt;node3</title>
<path fill="none" stroke="black" d="M227.92,-196.43C247.8,-183.33 275.78,-164.91 299.62,-149.2"/>
<polygon fill="black" stroke="black" points="301.77,-151.98 308.2,-143.55 297.92,-146.13 301.77,-151.98"/>
<text text-anchor="start" x="279" y="-165.8" font-family="Times,serif" font-size="14.00">%1</text>
</g>
<!-- node2 -->
<g id="node3" class="node">
<title>node2</title>
<polygon fill="none" stroke="black" points="356,-195.5 356,-233.5 628,-233.5 628,-195.5 356,-195.5"/>
<text text-anchor="start" x="364" y="-218.3" font-family="Times,serif" font-size="14.00">Get negate_threshold.public.s (u52)</text>
<text text-anchor="start" x="364" y="-203.3" font-family="Times,serif" font-size="14.00">Negate</text>
</g>
<!-- node2&#45;&gt;node3 -->
<g id="edge2" class="edge">
<title>node2&#45;&gt;node3</title>
<path fill="none" stroke="black" d="M464.39,-195.31C444.55,-182.25 417.33,-164.32 394.1,-149.02"/>
<polygon fill="black" stroke="black" points="396.02,-146.09 385.74,-143.51 392.17,-151.94 396.02,-146.09"/>
<text text-anchor="start" x="433" y="-165.8" font-family="Times,serif" font-size="14.00">%2</text>
</g>
<!-- node3&#45;&gt;node4 -->
<g id="edge3" class="edge">
<title>node3&#45;&gt;node4</title>
<path fill="none" stroke="black" d="M296.62,-90.41C267.69,-75.71 231.69,-57.42 203.76,-43.24"/>
<polygon fill="black" stroke="black" points="205.12,-40 194.62,-38.6 201.95,-46.25 205.12,-40"/>
<text text-anchor="start" x="259" y="-60.8" font-family="Times,serif" font-size="14.00">%3</text>
</g>
</g>
</svg>
