<?xml version="1.0" encoding="UTF-8" standalone="no"?>
<!DOCTYPE svg PUBLIC "-//W3C//DTD SVG 1.1//EN"
 "http://www.w3.org/Graphics/SVG/1.1/DTD/svg11.dtd">
<!-- Generated by graphviz version 2.43.0 (0)
 -->
<!-- Title: G Pages: 1 -->
<svg width="649pt" height="272pt"
 viewBox="0.00 0.00 649.00 272.00" xmlns="http://www.w3.org/2000/svg" xmlns:xlink="http://www.w3.org/1999/xlink">
<g id="graph0" class="graph" transform="scale(1 1) rotate(0) translate(4 268)">
<title>G</title>
<polygon fill="white" stroke="transparent" points="-4,4 -4,-268 645,-268 645,4 -4,4"/>
<!-- node0 -->
<g id="node1" class="node">
<title>node0</title>
<polygon fill="none" stroke="black" points="0,-90.5 0,-143.5 272,-143.5 272,-90.5 0,-90.5"/>
<text text-anchor="start" x="8" y="-128.3" font-family="Times,serif" font-size="14.00">Get negate_threshold.public.r (u51)</text>
<text text-anchor="start" x="8" y="-113.3" font-family="Times,serif" font-size="14.00">Map #0, #1</text>
<text text-anchor="start" x="8" y="-98.3" font-family="Times,serif" font-size="14.00">Project (#2, #3)</text>
</g>
<!-- node4 -->
<g id="node5" class="node">
<title>node4</title>
<polygon fill="none" stroke="black" points="146.5,-0.5 146.5,-38.5 259.5,-38.5 259.5,-0.5 146.5,-0.5"/>
<text text-anchor="start" x="154.5" y="-23.3" font-family="Times,serif" font-size="14.00">Union %0 %3</text>
<text text-anchor="start" x="154.5" y="-8.3" font-family="Times,serif" font-size="14.00">Distinct</text>
</g>
<!-- node0&#45;&gt;node4 -->
<g id="edge1" class="edge">
<title>node0&#45;&gt;node4</title>
<path fill="none" stroke="black" d="M153.95,-90.41C163.37,-76.99 174.88,-60.58 184.39,-47.03"/>
<polygon fill="black" stroke="black" points="187.43,-48.79 190.3,-38.6 181.7,-44.77 187.43,-48.79"/>
<text text-anchor="start" x="176" y="-60.8" font-family="Times,serif" font-size="14.00">%0</text>
</g>
<!-- node1 -->
<g id="node2" class="node">
<title>node1</title>
<polygon fill="none" stroke="black" points="79,-203 79,-256 351,-256 351,-203 79,-203"/>
<text text-anchor="start" x="87" y="-240.8" font-family="Times,serif" font-size="14.00">Get negate_threshold.public.r (u51)</text>
<text text-anchor="start" x="87" y="-225.8" font-family="Times,serif" font-size="14.00">Map #0, #1</text>
<text text-anchor="start" x="87" y="-210.8" font-family="Times,serif" font-size="14.00">Project (#2, #3)</text>
</g>
<!-- node3 -->
<g id="node4" class="node">
<title>node3</title>
<polygon fill="none" stroke="black" points="290,-98 290,-136 430,-136 430,-98 290,-98"/>
<text text-anchor="start" x="298" y="-120.8" font-family="Times,serif" font-size="14.00">Union %1 %2</text>
<text text-anchor="start" x="298" y="-105.8" font-family="Times,serif" font-size="14.00">ThresholdNegate</text>
</g>
<!-- node1&#45;&gt;node3 -->
<g id="edge4" class="edge">
<title>node1&#45;&gt;node3</title>
<path fill="none" stroke="black" d="M248.63,-202.87C272.47,-184.7 304.28,-160.46 327.8,-142.54"/>
<polygon fill="black" stroke="black" points="330.22,-145.09 336.06,-136.25 325.98,-139.52 330.22,-145.09"/>
<text text-anchor="start" x="300" y="-165.8" font-family="Times,serif" font-size="14.00">%1</text>
</g>
<!-- node2 -->
<g id="node3" class="node">
<title>node2</title>
<polygon fill="none" stroke="black" points="369,-195.5 369,-263.5 641,-263.5 641,-195.5 369,-195.5"/>
<text text-anchor="start" x="377" y="-248.3" font-family="Times,serif" font-size="14.00">Get negate_threshold.public.s (u52)</text>
<text text-anchor="start" x="377" y="-233.3" font-family="Times,serif" font-size="14.00">Map #0, #1</text>
<text text-anchor="start" x="377" y="-218.3" font-family="Times,serif" font-size="14.00">Project (#2, #3)</text>
<text text-anchor="start" x="377" y="-203.3" font-family="Times,serif" font-size="14.00">Negate</text>
</g>
<!-- node2&#45;&gt;node3 -->
<g id="edge2" class="edge">
<title>node2&#45;&gt;node3</title>
<path fill="none" stroke="black" d="M461.5,-195.35C439.06,-178.25 412.19,-157.77 391.73,-142.18"/>
<polygon fill="black" stroke="black" points="393.75,-139.32 383.67,-136.04 389.5,-144.89 393.75,-139.32"/>
<text text-anchor="start" x="436" y="-165.8" font-family="Times,serif" font-size="14.00">%2</text>
</g>
<!-- node3&#45;&gt;node4 -->
<g id="edge3" class="edge">
<title>node3&#45;&gt;node4</title>
<path fill="none" stroke="black" d="M330.1,-97.81C305,-82.55 268.97,-60.63 241.68,-44.03"/>
<polygon fill="black" stroke="black" points="243.15,-40.83 232.79,-38.62 239.51,-46.81 243.15,-40.83"/>
<text text-anchor="start" x="286" y="-60.8" font-family="Times,serif" font-size="14.00">%3</text>
</g>
</g>
</svg>
