<?xml version="1.0" encoding="UTF-8" standalone="no"?>
<!DOCTYPE svg PUBLIC "-//W3C//DTD SVG 1.1//EN"
 "http://www.w3.org/Graphics/SVG/1.1/DTD/svg11.dtd">
<!-- Generated by graphviz version 2.43.0 (0)
 -->
<!-- Title: G Pages: 1 -->
<svg width="978pt" height="1046pt"
 viewBox="0.00 0.00 978.00 1046.00" xmlns="http://www.w3.org/2000/svg" xmlns:xlink="http://www.w3.org/1999/xlink">
<g id="graph0" class="graph" transform="scale(1 1) rotate(0) translate(4 1042)">
<title>G</title>
<polygon fill="white" stroke="transparent" points="-4,4 -4,-1042 974,-1042 974,4 -4,4"/>
<!-- node0 -->
<g id="node1" class="node">
<title>node0</title>
<polygon fill="none" stroke="black" points="290,-984.5 290,-1037.5 390,-1037.5 390,-984.5 290,-984.5"/>
<text text-anchor="start" x="298" y="-1022.3" font-family="Times,serif" font-size="14.00">Constant ()</text>
<text text-anchor="start" x="298" y="-1007.3" font-family="Times,serif" font-size="14.00">&#45; types = ()</text>
<text text-anchor="start" x="298" y="-992.3" font-family="Times,serif" font-size="14.00">&#45; keys = (())</text>
</g>
<!-- node2 -->
<g id="node3" class="node">
<title>node2</title>
<polygon fill="none" stroke="black" points="40,-864.5 40,-932.5 314,-932.5 314,-864.5 40,-864.5"/>
<text text-anchor="start" x="48" y="-917.3" font-family="Times,serif" font-size="14.00">Join %0 %1</text>
<text text-anchor="start" x="48" y="-902.3" font-family="Times,serif" font-size="14.00">&#45; implementation = Unimplemented</text>
<text text-anchor="start" x="48" y="-887.3" font-family="Times,serif" font-size="14.00">&#45; types = (bigint?, integer?)</text>
<text text-anchor="start" x="48" y="-872.3" font-family="Times,serif" font-size="14.00">&#45; keys = ()</text>
</g>
<!-- node0&#45;&gt;node2 -->
<g id="edge3" class="edge">
<title>node0&#45;&gt;node2</title>
<path fill="none" stroke="black" d="M302.19,-984.37C282.01,-970.69 256.76,-953.57 234.23,-938.29"/>
<polygon fill="black" stroke="black" points="235.98,-935.26 225.74,-932.54 232.05,-941.05 235.98,-935.26"/>
<text text-anchor="start" x="274" y="-954.8" font-family="Times,serif" font-size="14.00">%0</text>
</g>
<!-- node5 -->
<g id="node6" class="node">
<title>node5</title>
<polygon fill="none" stroke="black" points="332,-864.5 332,-932.5 606,-932.5 606,-864.5 332,-864.5"/>
<text text-anchor="start" x="340" y="-917.3" font-family="Times,serif" font-size="14.00">Join %0 %4</text>
<text text-anchor="start" x="340" y="-902.3" font-family="Times,serif" font-size="14.00">&#45; implementation = Unimplemented</text>
<text text-anchor="start" x="340" y="-887.3" font-family="Times,serif" font-size="14.00">&#45; types = (bigint?, integer?)</text>
<text text-anchor="start" x="340" y="-872.3" font-family="Times,serif" font-size="14.00">&#45; keys = ()</text>
</g>
<!-- node0&#45;&gt;node5 -->
<g id="edge6" class="edge">
<title>node0&#45;&gt;node5</title>
<path fill="none" stroke="black" d="M362.9,-984.3C372.94,-973.57 385.14,-961.23 397,-951 401.73,-946.92 406.78,-942.83 411.93,-938.84"/>
<polygon fill="black" stroke="black" points="414.2,-941.51 420.05,-932.68 409.97,-935.93 414.2,-941.51"/>
<text text-anchor="start" x="397" y="-954.8" font-family="Times,serif" font-size="14.00">%0</text>
</g>
<!-- node8 -->
<g id="node9" class="node">
<title>node8</title>
<polygon fill="none" stroke="black" points="657,-864.5 657,-932.5 931,-932.5 931,-864.5 657,-864.5"/>
<text text-anchor="start" x="665" y="-917.3" font-family="Times,serif" font-size="14.00">Join %0 %7</text>
<text text-anchor="start" x="665" y="-902.3" font-family="Times,serif" font-size="14.00">&#45; implementation = Unimplemented</text>
<text text-anchor="start" x="665" y="-887.3" font-family="Times,serif" font-size="14.00">&#45; types = (bigint?, integer?)</text>
<text text-anchor="start" x="665" y="-872.3" font-family="Times,serif" font-size="14.00">&#45; keys = ()</text>
</g>
<!-- node0&#45;&gt;node8 -->
<g id="edge12" class="edge">
<title>node0&#45;&gt;node8</title>
<path fill="none" stroke="black" d="M389.84,-984.48C415.3,-972.5 447.13,-959.1 477,-951 536.69,-934.8 553.91,-942.69 615,-933 625.4,-931.35 636.12,-929.56 646.91,-927.7"/>
<polygon fill="black" stroke="black" points="647.58,-931.14 656.83,-925.97 646.37,-924.24 647.58,-931.14"/>
<text text-anchor="start" x="477" y="-954.8" font-family="Times,serif" font-size="14.00">%0</text>
</g>
<!-- node1 -->
<g id="node2" class="node">
<title>node1</title>
<polygon fill="none" stroke="black" points="0,-984.5 0,-1037.5 272,-1037.5 272,-984.5 0,-984.5"/>
<text text-anchor="start" x="8" y="-1022.3" font-family="Times,serif" font-size="14.00">Get negate_threshold.public.r (u51)</text>
<text text-anchor="start" x="8" y="-1007.3" font-family="Times,serif" font-size="14.00">&#45; types = (bigint?, integer?)</text>
<text text-anchor="start" x="8" y="-992.3" font-family="Times,serif" font-size="14.00">&#45; keys = ()</text>
</g>
<!-- node1&#45;&gt;node2 -->
<g id="edge5" class="edge">
<title>node1&#45;&gt;node2</title>
<path fill="none" stroke="black" d="M145.51,-984.37C150.16,-971.84 155.88,-956.41 161.17,-942.17"/>
<polygon fill="black" stroke="black" points="164.54,-943.13 164.74,-932.54 157.98,-940.7 164.54,-943.13"/>
<text text-anchor="start" x="158" y="-954.8" font-family="Times,serif" font-size="14.00">%1</text>
</g>
<!-- node3 -->
<g id="node4" class="node">
<title>node3</title>
<polygon fill="none" stroke="black" points="68.5,-312.5 68.5,-530.5 409.5,-530.5 409.5,-312.5 68.5,-312.5"/>
<text text-anchor="start" x="76.5" y="-515.3" font-family="Times,serif" font-size="14.00">&#45; types = (bigint?, integer?)</text>
<text text-anchor="start" x="76.5" y="-500.3" font-family="Times,serif" font-size="14.00">&#45; keys = ()</text>
<text text-anchor="start" x="76.5" y="-485.3" font-family="Times,serif" font-size="14.00">Map #0</text>
<text text-anchor="start" x="76.5" y="-470.3" font-family="Times,serif" font-size="14.00">&#45; types = (bigint?, integer?, bigint?)</text>
<text text-anchor="start" x="76.5" y="-455.3" font-family="Times,serif" font-size="14.00">&#45; keys = ()</text>
<text text-anchor="start" x="76.5" y="-440.3" font-family="Times,serif" font-size="14.00">Map #1</text>
<text text-anchor="start" x="76.5" y="-425.3" font-family="Times,serif" font-size="14.00">&#45; types = (bigint?, integer?, bigint?, integer?)</text>
<text text-anchor="start" x="76.5" y="-410.3" font-family="Times,serif" font-size="14.00">&#45; keys = ()</text>
<text text-anchor="start" x="76.5" y="-395.3" font-family="Times,serif" font-size="14.00">Project (#0..=#3)</text>
<text text-anchor="start" x="76.5" y="-380.3" font-family="Times,serif" font-size="14.00">&#45; types = (bigint?, integer?, bigint?, integer?)</text>
<text text-anchor="start" x="76.5" y="-365.3" font-family="Times,serif" font-size="14.00">&#45; keys = ()</text>
<text text-anchor="start" x="76.5" y="-350.3" font-family="Times,serif" font-size="14.00">Project (#2, #3)</text>
<text text-anchor="start" x="76.5" y="-335.3" font-family="Times,serif" font-size="14.00">&#45; types = (bigint?, integer?)</text>
<text text-anchor="start" x="76.5" y="-320.3" font-family="Times,serif" font-size="14.00">&#45; keys = ()</text>
</g>
<!-- node2&#45;&gt;node3 -->
<g id="edge11" class="edge">
<title>node2&#45;&gt;node3</title>
<path fill="none" stroke="black" d="M181.31,-864.48C189.9,-798.64 209.54,-648.2 223.51,-541.15"/>
<polygon fill="black" stroke="black" points="227.02,-541.3 224.85,-530.93 220.08,-540.4 227.02,-541.3"/>
<text text-anchor="start" x="186" y="-834.8" font-family="Times,serif" font-size="14.00">%2</text>
</g>
<!-- node11 -->
<g id="node12" class="node">
<title>node11</title>
<polygon fill="none" stroke="black" points="173,-0.5 173,-98.5 387,-98.5 387,-0.5 173,-0.5"/>
<text text-anchor="start" x="181" y="-83.3" font-family="Times,serif" font-size="14.00">Union %3 %10</text>
<text text-anchor="start" x="181" y="-68.3" font-family="Times,serif" font-size="14.00">&#45; types = (bigint?, integer?)</text>
<text text-anchor="start" x="181" y="-53.3" font-family="Times,serif" font-size="14.00">&#45; keys = ()</text>
<text text-anchor="start" x="181" y="-38.3" font-family="Times,serif" font-size="14.00">Distinct group=(#0, #1)</text>
<text text-anchor="start" x="181" y="-23.3" font-family="Times,serif" font-size="14.00">&#45; types = (bigint?, integer?)</text>
<text text-anchor="start" x="181" y="-8.3" font-family="Times,serif" font-size="14.00">&#45; keys = ((#0, #1))</text>
</g>
<!-- node3&#45;&gt;node11 -->
<g id="edge13" class="edge">
<title>node3&#45;&gt;node11</title>
<path fill="none" stroke="black" d="M250.97,-312.49C258.34,-245.96 267.5,-163.26 273.54,-108.79"/>
<polygon fill="black" stroke="black" points="277.05,-108.94 274.67,-98.62 270.09,-108.17 277.05,-108.94"/>
<text text-anchor="start" x="269" y="-218.3" font-family="Times,serif" font-size="14.00">%3</text>
</g>
<!-- node4 -->
<g id="node5" class="node">
<title>node4</title>
<polygon fill="none" stroke="black" points="408,-984.5 408,-1037.5 680,-1037.5 680,-984.5 408,-984.5"/>
<text text-anchor="start" x="416" y="-1022.3" font-family="Times,serif" font-size="14.00">Get negate_threshold.public.r (u51)</text>
<text text-anchor="start" x="416" y="-1007.3" font-family="Times,serif" font-size="14.00">&#45; types = (bigint?, integer?)</text>
<text text-anchor="start" x="416" y="-992.3" font-family="Times,serif" font-size="14.00">&#45; keys = ()</text>
</g>
<!-- node4&#45;&gt;node5 -->
<g id="edge9" class="edge">
<title>node4&#45;&gt;node5</title>
<path fill="none" stroke="black" d="M526.6,-984.37C517.85,-971.47 507.02,-955.52 497.12,-940.94"/>
<polygon fill="black" stroke="black" points="499.94,-938.85 491.43,-932.54 494.15,-942.78 499.94,-938.85"/>
<text text-anchor="start" x="513" y="-954.8" font-family="Times,serif" font-size="14.00">%4</text>
</g>
<!-- node6 -->
<g id="node7" class="node">
<title>node6</title>
<polygon fill="none" stroke="black" points="264.5,-572 264.5,-790 605.5,-790 605.5,-572 264.5,-572"/>
<text text-anchor="start" x="272.5" y="-774.8" font-family="Times,serif" font-size="14.00">&#45; types = (bigint?, integer?)</text>
<text text-anchor="start" x="272.5" y="-759.8" font-family="Times,serif" font-size="14.00">&#45; keys = ()</text>
<text text-anchor="start" x="272.5" y="-744.8" font-family="Times,serif" font-size="14.00">Map #0</text>
<text text-anchor="start" x="272.5" y="-729.8" font-family="Times,serif" font-size="14.00">&#45; types = (bigint?, integer?, bigint?)</text>
<text text-anchor="start" x="272.5" y="-714.8" font-family="Times,serif" font-size="14.00">&#45; keys = ()</text>
<text text-anchor="start" x="272.5" y="-699.8" font-family="Times,serif" font-size="14.00">Map #1</text>
<text text-anchor="start" x="272.5" y="-684.8" font-family="Times,serif" font-size="14.00">&#45; types = (bigint?, integer?, bigint?, integer?)</text>
<text text-anchor="start" x="272.5" y="-669.8" font-family="Times,serif" font-size="14.00">&#45; keys = ()</text>
<text text-anchor="start" x="272.5" y="-654.8" font-family="Times,serif" font-size="14.00">Project (#0..=#3)</text>
<text text-anchor="start" x="272.5" y="-639.8" font-family="Times,serif" font-size="14.00">&#45; types = (bigint?, integer?, bigint?, integer?)</text>
<text text-anchor="start" x="272.5" y="-624.8" font-family="Times,serif" font-size="14.00">&#45; keys = ()</text>
<text text-anchor="start" x="272.5" y="-609.8" font-family="Times,serif" font-size="14.00">Project (#2, #3)</text>
<text text-anchor="start" x="272.5" y="-594.8" font-family="Times,serif" font-size="14.00">&#45; types = (bigint?, integer?)</text>
<text text-anchor="start" x="272.5" y="-579.8" font-family="Times,serif" font-size="14.00">&#45; keys = ()</text>
</g>
<!-- node5&#45;&gt;node6 -->
<g id="edge4" class="edge">
<title>node5&#45;&gt;node6</title>
<path fill="none" stroke="black" d="M463.76,-864.3C460.97,-846.63 457.36,-823.73 453.64,-800.15"/>
<polygon fill="black" stroke="black" points="457.06,-799.34 452.04,-790.01 450.14,-800.44 457.06,-799.34"/>
<text text-anchor="start" x="460" y="-834.8" font-family="Times,serif" font-size="14.00">%5</text>
</g>
<!-- node10 -->
<g id="node11" class="node">
<title>node10</title>
<polygon fill="none" stroke="black" points="328,-150.5 328,-293.5 542,-293.5 542,-150.5 328,-150.5"/>
<text text-anchor="start" x="336" y="-278.3" font-family="Times,serif" font-size="14.00">Union %6 %9</text>
<text text-anchor="start" x="336" y="-263.3" font-family="Times,serif" font-size="14.00">&#45; types = (bigint?, integer?)</text>
<text text-anchor="start" x="336" y="-248.3" font-family="Times,serif" font-size="14.00">&#45; keys = ()</text>
<text text-anchor="start" x="336" y="-233.3" font-family="Times,serif" font-size="14.00">Threshold</text>
<text text-anchor="start" x="336" y="-218.3" font-family="Times,serif" font-size="14.00">&#45; types = (bigint?, integer?)</text>
<text text-anchor="start" x="336" y="-203.3" font-family="Times,serif" font-size="14.00">&#45; keys = ()</text>
<text text-anchor="start" x="336" y="-188.3" font-family="Times,serif" font-size="14.00">Negate</text>
<text text-anchor="start" x="336" y="-173.3" font-family="Times,serif" font-size="14.00">&#45; types = (bigint?, integer?)</text>
<text text-anchor="start" x="336" y="-158.3" font-family="Times,serif" font-size="14.00">&#45; keys = ()</text>
</g>
<!-- node6&#45;&gt;node10 -->
<g id="edge10" class="edge">
<title>node6&#45;&gt;node10</title>
<path fill="none" stroke="black" d="M435,-571.99C435,-489.81 435,-378.53 435,-303.92"/>
<polygon fill="black" stroke="black" points="438.5,-303.64 435,-293.64 431.5,-303.64 438.5,-303.64"/>
<text text-anchor="start" x="435" y="-417.8" font-family="Times,serif" font-size="14.00">%6</text>
</g>
<!-- node7 -->
<g id="node8" class="node">
<title>node7</title>
<polygon fill="none" stroke="black" points="698,-984.5 698,-1037.5 970,-1037.5 970,-984.5 698,-984.5"/>
<text text-anchor="start" x="706" y="-1022.3" font-family="Times,serif" font-size="14.00">Get negate_threshold.public.s (u52)</text>
<text text-anchor="start" x="706" y="-1007.3" font-family="Times,serif" font-size="14.00">&#45; types = (bigint?, integer?)</text>
<text text-anchor="start" x="706" y="-992.3" font-family="Times,serif" font-size="14.00">&#45; keys = ()</text>
</g>
<!-- node7&#45;&gt;node8 -->
<g id="edge1" class="edge">
<title>node7&#45;&gt;node8</title>
<path fill="none" stroke="black" d="M824.72,-984.37C820.18,-971.84 814.6,-956.41 809.44,-942.17"/>
<polygon fill="black" stroke="black" points="812.66,-940.75 805.96,-932.54 806.07,-943.14 812.66,-940.75"/>
<text text-anchor="start" x="817" y="-954.8" font-family="Times,serif" font-size="14.00">%7</text>
</g>
<!-- node9 -->
<g id="node10" class="node">
<title>node9</title>
<polygon fill="none" stroke="black" points="623.5,-549.5 623.5,-812.5 964.5,-812.5 964.5,-549.5 623.5,-549.5"/>
<text text-anchor="start" x="631.5" y="-797.3" font-family="Times,serif" font-size="14.00">&#45; types = (bigint?, integer?)</text>
<text text-anchor="start" x="631.5" y="-782.3" font-family="Times,serif" font-size="14.00">&#45; keys = ()</text>
<text text-anchor="start" x="631.5" y="-767.3" font-family="Times,serif" font-size="14.00">Map #0</text>
<text text-anchor="start" x="631.5" y="-752.3" font-family="Times,serif" font-size="14.00">&#45; types = (bigint?, integer?, bigint?)</text>
<text text-anchor="start" x="631.5" y="-737.3" font-family="Times,serif" font-size="14.00">&#45; keys = ()</text>
<text text-anchor="start" x="631.5" y="-722.3" font-family="Times,serif" font-size="14.00">Map #1</text>
<text text-anchor="start" x="631.5" y="-707.3" font-family="Times,serif" font-size="14.00">&#45; types = (bigint?, integer?, bigint?, integer?)</text>
<text text-anchor="start" x="631.5" y="-692.3" font-family="Times,serif" font-size="14.00">&#45; keys = ()</text>
<text text-anchor="start" x="631.5" y="-677.3" font-family="Times,serif" font-size="14.00">Project (#0..=#3)</text>
<text text-anchor="start" x="631.5" y="-662.3" font-family="Times,serif" font-size="14.00">&#45; types = (bigint?, integer?, bigint?, integer?)</text>
<text text-anchor="start" x="631.5" y="-647.3" font-family="Times,serif" font-size="14.00">&#45; keys = ()</text>
<text text-anchor="start" x="631.5" y="-632.3" font-family="Times,serif" font-size="14.00">Project (#2, #3)</text>
<text text-anchor="start" x="631.5" y="-617.3" font-family="Times,serif" font-size="14.00">&#45; types = (bigint?, integer?)</text>
<text text-anchor="start" x="631.5" y="-602.3" font-family="Times,serif" font-size="14.00">&#45; keys = ()</text>
<text text-anchor="start" x="631.5" y="-587.3" font-family="Times,serif" font-size="14.00">Negate</text>
<text text-anchor="start" x="631.5" y="-572.3" font-family="Times,serif" font-size="14.00">&#45; types = (bigint?, integer?)</text>
<text text-anchor="start" x="631.5" y="-557.3" font-family="Times,serif" font-size="14.00">&#45; keys = ()</text>
</g>
<!-- node8&#45;&gt;node9 -->
<g id="edge7" class="edge">
<title>node8&#45;&gt;node9</title>
<path fill="none" stroke="black" d="M794,-864.3C794,-852.39 794,-838.09 794,-822.81"/>
<polygon fill="black" stroke="black" points="797.5,-822.64 794,-812.64 790.5,-822.64 797.5,-822.64"/>
<text text-anchor="start" x="794" y="-834.8" font-family="Times,serif" font-size="14.00">%8</text>
</g>
<!-- node9&#45;&gt;node10 -->
<g id="edge2" class="edge">
<title>node9&#45;&gt;node10</title>
<path fill="none" stroke="black" d="M691.37,-549.35C628.54,-469.37 550.23,-369.68 496.8,-301.67"/>
<polygon fill="black" stroke="black" points="499.34,-299.24 490.41,-293.53 493.83,-303.56 499.34,-299.24"/>
<text text-anchor="start" x="667" y="-417.8" font-family="Times,serif" font-size="14.00">%9</text>
</g>
<!-- node10&#45;&gt;node11 -->
<g id="edge8" class="edge">
<title>node10&#45;&gt;node11</title>
<path fill="none" stroke="black" d="M370.61,-150.17C357.28,-135.51 343.41,-120.25 330.65,-106.22"/>
<polygon fill="black" stroke="black" points="333,-103.6 323.69,-98.56 327.82,-108.31 333,-103.6"/>
<text text-anchor="start" x="353" y="-120.8" font-family="Times,serif" font-size="14.00">%10</text>
</g>
</g>
</svg>
