<?xml version="1.0" encoding="UTF-8" standalone="no"?>
<!DOCTYPE svg PUBLIC "-//W3C//DTD SVG 1.1//EN"
 "http://www.w3.org/Graphics/SVG/1.1/DTD/svg11.dtd">
<!-- Generated by graphviz version 2.43.0 (0)
 -->
<!-- Title: G Pages: 1 -->
<svg width="686pt" height="452pt"
 viewBox="0.00 0.00 686.00 452.00" xmlns="http://www.w3.org/2000/svg" xmlns:xlink="http://www.w3.org/1999/xlink">
<g id="graph0" class="graph" transform="scale(1 1) rotate(0) translate(4 448)">
<title>G</title>
<polygon fill="white" stroke="transparent" points="-4,4 -4,-448 682,-448 682,4 -4,4"/>
<!-- node0 -->
<g id="node1" class="node">
<title>node0</title>
<polygon fill="none" stroke="black" points="0,-195.5 0,-248.5 272,-248.5 272,-195.5 0,-195.5"/>
<text text-anchor="start" x="8" y="-233.3" font-family="Times,serif" font-size="14.00">Get negate_threshold.public.r (u51)</text>
<text text-anchor="start" x="8" y="-218.3" font-family="Times,serif" font-size="14.00">&#45; types = (bigint?, integer?)</text>
<text text-anchor="start" x="8" y="-203.3" font-family="Times,serif" font-size="14.00">&#45; keys = ()</text>
</g>
<!-- node4 -->
<g id="node5" class="node">
<title>node4</title>
<polygon fill="none" stroke="black" points="105,-0.5 105,-98.5 319,-98.5 319,-0.5 105,-0.5"/>
<text text-anchor="start" x="113" y="-83.3" font-family="Times,serif" font-size="14.00">Union %0 %3</text>
<text text-anchor="start" x="113" y="-68.3" font-family="Times,serif" font-size="14.00">&#45; types = (bigint?, integer?)</text>
<text text-anchor="start" x="113" y="-53.3" font-family="Times,serif" font-size="14.00">&#45; keys = ()</text>
<text text-anchor="start" x="113" y="-38.3" font-family="Times,serif" font-size="14.00">Distinct group=(#0, #1)</text>
<text text-anchor="start" x="113" y="-23.3" font-family="Times,serif" font-size="14.00">&#45; types = (bigint?, integer?)</text>
<text text-anchor="start" x="113" y="-8.3" font-family="Times,serif" font-size="14.00">&#45; keys = ((#0, #1))</text>
</g>
<!-- node0&#45;&gt;node4 -->
<g id="edge1" class="edge">
<title>node0&#45;&gt;node4</title>
<path fill="none" stroke="black" d="M147.38,-195.47C157.65,-172.42 173.15,-137.66 186.39,-107.96"/>
<polygon fill="black" stroke="black" points="189.72,-109.07 190.6,-98.51 183.33,-106.22 189.72,-109.07"/>
<text text-anchor="start" x="181" y="-120.8" font-family="Times,serif" font-size="14.00">%0</text>
</g>
<!-- node1 -->
<g id="node2" class="node">
<title>node1</title>
<polygon fill="none" stroke="black" points="116,-368 116,-421 388,-421 388,-368 116,-368"/>
<text text-anchor="start" x="124" y="-405.8" font-family="Times,serif" font-size="14.00">Get negate_threshold.public.r (u51)</text>
<text text-anchor="start" x="124" y="-390.8" font-family="Times,serif" font-size="14.00">&#45; types = (bigint?, integer?)</text>
<text text-anchor="start" x="124" y="-375.8" font-family="Times,serif" font-size="14.00">&#45; keys = ()</text>
</g>
<!-- node3 -->
<g id="node4" class="node">
<title>node3</title>
<polygon fill="none" stroke="black" points="290,-150.5 290,-293.5 504,-293.5 504,-150.5 290,-150.5"/>
<text text-anchor="start" x="298" y="-278.3" font-family="Times,serif" font-size="14.00">Union %1 %2</text>
<text text-anchor="start" x="298" y="-263.3" font-family="Times,serif" font-size="14.00">&#45; types = (bigint?, integer?)</text>
<text text-anchor="start" x="298" y="-248.3" font-family="Times,serif" font-size="14.00">&#45; keys = ()</text>
<text text-anchor="start" x="298" y="-233.3" font-family="Times,serif" font-size="14.00">Threshold</text>
<text text-anchor="start" x="298" y="-218.3" font-family="Times,serif" font-size="14.00">&#45; types = (bigint?, integer?)</text>
<text text-anchor="start" x="298" y="-203.3" font-family="Times,serif" font-size="14.00">&#45; keys = ()</text>
<text text-anchor="start" x="298" y="-188.3" font-family="Times,serif" font-size="14.00">Negate</text>
<text text-anchor="start" x="298" y="-173.3" font-family="Times,serif" font-size="14.00">&#45; types = (bigint?, integer?)</text>
<text text-anchor="start" x="298" y="-158.3" font-family="Times,serif" font-size="14.00">&#45; keys = ()</text>
</g>
<!-- node1&#45;&gt;node3 -->
<g id="edge4" class="edge">
<title>node1&#45;&gt;node3</title>
<path fill="none" stroke="black" d="M273.71,-367.97C288.82,-350.2 309.85,-325.47 330.27,-301.47"/>
<polygon fill="black" stroke="black" points="333.06,-303.59 336.87,-293.71 327.72,-299.06 333.06,-303.59"/>
<text text-anchor="start" x="320" y="-315.8" font-family="Times,serif" font-size="14.00">%1</text>
</g>
<!-- node2 -->
<g id="node3" class="node">
<title>node2</title>
<polygon fill="none" stroke="black" points="406,-345.5 406,-443.5 678,-443.5 678,-345.5 406,-345.5"/>
<text text-anchor="start" x="414" y="-428.3" font-family="Times,serif" font-size="14.00">Get negate_threshold.public.s (u52)</text>
<text text-anchor="start" x="414" y="-413.3" font-family="Times,serif" font-size="14.00">&#45; types = (bigint?, integer?)</text>
<text text-anchor="start" x="414" y="-398.3" font-family="Times,serif" font-size="14.00">&#45; keys = ()</text>
<text text-anchor="start" x="414" y="-383.3" font-family="Times,serif" font-size="14.00">Negate</text>
<text text-anchor="start" x="414" y="-368.3" font-family="Times,serif" font-size="14.00">&#45; types = (bigint?, integer?)</text>
<text text-anchor="start" x="414" y="-353.3" font-family="Times,serif" font-size="14.00">&#45; keys = ()</text>
</g>
<!-- node2&#45;&gt;node3 -->
<g id="edge2" class="edge">
<title>node2&#45;&gt;node3</title>
<path fill="none" stroke="black" d="M500.84,-345.1C489.29,-331.52 476.42,-316.39 463.79,-301.54"/>
<polygon fill="black" stroke="black" points="466.36,-299.15 457.21,-293.8 461.03,-303.69 466.36,-299.15"/>
<text text-anchor="start" x="482" y="-315.8" font-family="Times,serif" font-size="14.00">%2</text>
</g>
<!-- node3&#45;&gt;node4 -->
<g id="edge3" class="edge">
<title>node3&#45;&gt;node4</title>
<path fill="none" stroke="black" d="M320.42,-150.42C304.19,-135.46 287.28,-119.88 271.78,-105.6"/>
<polygon fill="black" stroke="black" points="274.02,-102.9 264.3,-98.7 269.28,-108.05 274.02,-102.9"/>
<text text-anchor="start" x="298" y="-120.8" font-family="Times,serif" font-size="14.00">%3</text>
</g>
</g>
</svg>
