<?xml version="1.0" encoding="UTF-8" standalone="no"?>
<!DOCTYPE svg PUBLIC "-//W3C//DTD SVG 1.1//EN"
 "http://www.w3.org/Graphics/SVG/1.1/DTD/svg11.dtd">
<!-- Generated by graphviz version 2.43.0 (0)
 -->
<!-- Title: G Pages: 1 -->
<svg width="865pt" height="808pt"
 viewBox="0.00 0.00 864.50 808.00" xmlns="http://www.w3.org/2000/svg" xmlns:xlink="http://www.w3.org/1999/xlink">
<g id="graph0" class="graph" transform="scale(1 1) rotate(0) translate(4 804)">
<title>G</title>
<polygon fill="white" stroke="transparent" points="-4,4 -4,-804 860.5,-804 860.5,4 -4,4"/>
<!-- node0 -->
<g id="node1" class="node">
<title>node0</title>
<polygon fill="none" stroke="black" points="314.5,-761.5 314.5,-799.5 415.5,-799.5 415.5,-761.5 314.5,-761.5"/>
<text text-anchor="start" x="322.5" y="-784.3" font-family="Times,serif" font-size="14.00">Let l0 =</text>
<text text-anchor="start" x="322.5" y="-769.3" font-family="Times,serif" font-size="14.00"> Constant ()</text>
</g>
<!-- node2 -->
<g id="node3" class="node">
<title>node2</title>
<polygon fill="none" stroke="black" points="35.5,-656.5 35.5,-709.5 304.5,-709.5 304.5,-656.5 35.5,-656.5"/>
<text text-anchor="start" x="43.5" y="-694.3" font-family="Times,serif" font-size="14.00">Let l1 =</text>
<text text-anchor="start" x="43.5" y="-679.3" font-family="Times,serif" font-size="14.00"> Join %0 %1</text>
<text text-anchor="start" x="43.5" y="-664.3" font-family="Times,serif" font-size="14.00"> implementation = Unimplemented</text>
</g>
<!-- node0&#45;&gt;node2 -->
<g id="edge12" class="edge">
<title>node0&#45;&gt;node2</title>
<path fill="none" stroke="black" d="M327.86,-761.31C300.61,-747.96 262.98,-729.53 231.29,-714.02"/>
<polygon fill="black" stroke="black" points="232.62,-710.77 222.1,-709.51 229.54,-717.06 232.62,-710.77"/>
<text text-anchor="start" x="285" y="-731.8" font-family="Times,serif" font-size="14.00">%0</text>
</g>
<!-- node4 -->
<g id="node5" class="node">
<title>node4</title>
<polygon fill="none" stroke="black" points="418.5,-656.5 418.5,-709.5 687.5,-709.5 687.5,-656.5 418.5,-656.5"/>
<text text-anchor="start" x="426.5" y="-694.3" font-family="Times,serif" font-size="14.00">Let l2 =</text>
<text text-anchor="start" x="426.5" y="-679.3" font-family="Times,serif" font-size="14.00"> Join %0 %3</text>
<text text-anchor="start" x="426.5" y="-664.3" font-family="Times,serif" font-size="14.00"> implementation = Unimplemented</text>
</g>
<!-- node0&#45;&gt;node4 -->
<g id="edge13" class="edge">
<title>node0&#45;&gt;node4</title>
<path fill="none" stroke="black" d="M400.8,-761.31C426.97,-748.02 463.05,-729.69 493.52,-714.22"/>
<polygon fill="black" stroke="black" points="495.44,-717.16 502.77,-709.51 492.27,-710.92 495.44,-717.16"/>
<text text-anchor="start" x="464" y="-731.8" font-family="Times,serif" font-size="14.00">%0</text>
</g>
<!-- node1 -->
<g id="node2" class="node">
<title>node1</title>
<polygon fill="none" stroke="black" points="62.5,-762.5 62.5,-798.5 277.5,-798.5 277.5,-762.5 62.5,-762.5"/>
<text text-anchor="start" x="70.5" y="-776.8" font-family="Times,serif" font-size="14.00">Get outer_joins.public.l (u2)</text>
</g>
<!-- node1&#45;&gt;node2 -->
<g id="edge16" class="edge">
<title>node1&#45;&gt;node2</title>
<path fill="none" stroke="black" d="M170,-762.43C170,-750.6 170,-734.41 170,-719.82"/>
<polygon fill="black" stroke="black" points="173.5,-719.55 170,-709.55 166.5,-719.56 173.5,-719.55"/>
<text text-anchor="start" x="170" y="-731.8" font-family="Times,serif" font-size="14.00">%1</text>
</g>
<!-- node5 -->
<g id="node6" class="node">
<title>node5</title>
<polygon fill="none" stroke="black" points="224.5,-521.5 224.5,-604.5 493.5,-604.5 493.5,-521.5 224.5,-521.5"/>
<text text-anchor="start" x="232.5" y="-589.3" font-family="Times,serif" font-size="14.00">Let l3 =</text>
<text text-anchor="start" x="232.5" y="-574.3" font-family="Times,serif" font-size="14.00"> Join %2 %4</text>
<text text-anchor="start" x="232.5" y="-559.3" font-family="Times,serif" font-size="14.00"> implementation = Unimplemented</text>
<text text-anchor="start" x="232.5" y="-544.3" font-family="Times,serif" font-size="14.00"> Project (#0..#3)</text>
<text text-anchor="start" x="232.5" y="-529.3" font-family="Times,serif" font-size="14.00"> Filter (#1 = #2)</text>
</g>
<!-- node2&#45;&gt;node5 -->
<g id="edge4" class="edge">
<title>node2&#45;&gt;node5</title>
<path fill="none" stroke="black" d="M211.01,-656.4C232.76,-642.82 260.15,-625.72 285.43,-609.93"/>
<polygon fill="black" stroke="black" points="287.29,-612.9 293.92,-604.63 283.58,-606.96 287.29,-612.9"/>
<text text-anchor="start" x="265" y="-626.8" font-family="Times,serif" font-size="14.00">%2</text>
</g>
<!-- node9 -->
<g id="node10" class="node">
<title>node9</title>
<polygon fill="none" stroke="black" points="28.5,-281.5 28.5,-349.5 297.5,-349.5 297.5,-281.5 28.5,-281.5"/>
<text text-anchor="start" x="36.5" y="-334.3" font-family="Times,serif" font-size="14.00">Join %2 %6 (= #1 #2)</text>
<text text-anchor="start" x="36.5" y="-319.3" font-family="Times,serif" font-size="14.00"> implementation = Unimplemented</text>
<text text-anchor="start" x="36.5" y="-304.3" font-family="Times,serif" font-size="14.00"> Project (#0, #1)</text>
<text text-anchor="start" x="36.5" y="-289.3" font-family="Times,serif" font-size="14.00"> Negate</text>
</g>
<!-- node2&#45;&gt;node9 -->
<g id="edge5" class="edge">
<title>node2&#45;&gt;node9</title>
<path fill="none" stroke="black" d="M169.51,-656.3C168.32,-594.45 165.3,-436.79 163.83,-359.94"/>
<polygon fill="black" stroke="black" points="167.33,-359.58 163.63,-349.65 160.33,-359.71 167.33,-359.58"/>
<text text-anchor="start" x="167" y="-491.8" font-family="Times,serif" font-size="14.00">%2</text>
</g>
<!-- node10 -->
<g id="node11" class="node">
<title>node10</title>
<polygon fill="none" stroke="black" points="103,-184 103,-222 223,-222 223,-184 103,-184"/>
<text text-anchor="start" x="111" y="-206.8" font-family="Times,serif" font-size="14.00">Union %9 %2</text>
<text text-anchor="start" x="111" y="-191.8" font-family="Times,serif" font-size="14.00"> Map null, null</text>
</g>
<!-- node2&#45;&gt;node10 -->
<g id="edge9" class="edge">
<title>node2&#45;&gt;node10</title>
<path fill="none" stroke="black" d="M82.51,-656.42C40.86,-638.33 0,-609.09 0,-564 0,-564 0,-564 0,-314.5 0,-266.56 48.9,-237.99 93.13,-221.95"/>
<polygon fill="black" stroke="black" points="94.46,-225.19 102.77,-218.62 92.17,-218.57 94.46,-225.19"/>
<text text-anchor="start" x="0" y="-431.8" font-family="Times,serif" font-size="14.00">%2</text>
</g>
<!-- node3 -->
<g id="node4" class="node">
<title>node3</title>
<polygon fill="none" stroke="black" points="444,-762.5 444,-798.5 662,-798.5 662,-762.5 444,-762.5"/>
<text text-anchor="start" x="452" y="-776.8" font-family="Times,serif" font-size="14.00">Get outer_joins.public.r (u4)</text>
</g>
<!-- node3&#45;&gt;node4 -->
<g id="edge3" class="edge">
<title>node3&#45;&gt;node4</title>
<path fill="none" stroke="black" d="M553,-762.43C553,-750.6 553,-734.41 553,-719.82"/>
<polygon fill="black" stroke="black" points="556.5,-719.55 553,-709.55 549.5,-719.56 556.5,-719.55"/>
<text text-anchor="start" x="553" y="-731.8" font-family="Times,serif" font-size="14.00">%3</text>
</g>
<!-- node4&#45;&gt;node5 -->
<g id="edge1" class="edge">
<title>node4&#45;&gt;node5</title>
<path fill="none" stroke="black" d="M510.9,-656.4C488.58,-642.82 460.46,-625.72 434.51,-609.93"/>
<polygon fill="black" stroke="black" points="436.17,-606.84 425.8,-604.63 432.53,-612.82 436.17,-606.84"/>
<text text-anchor="start" x="479" y="-626.8" font-family="Times,serif" font-size="14.00">%4</text>
</g>
<!-- node7 -->
<g id="node8" class="node">
<title>node7</title>
<polygon fill="none" stroke="black" points="587.5,-281.5 587.5,-349.5 856.5,-349.5 856.5,-281.5 587.5,-281.5"/>
<text text-anchor="start" x="595.5" y="-334.3" font-family="Times,serif" font-size="14.00">Join %4 %6 (= #0 #2)</text>
<text text-anchor="start" x="595.5" y="-319.3" font-family="Times,serif" font-size="14.00"> implementation = Unimplemented</text>
<text text-anchor="start" x="595.5" y="-304.3" font-family="Times,serif" font-size="14.00"> Project (#0, #1)</text>
<text text-anchor="start" x="595.5" y="-289.3" font-family="Times,serif" font-size="14.00"> Negate</text>
</g>
<!-- node4&#45;&gt;node7 -->
<g id="edge19" class="edge">
<title>node4&#45;&gt;node7</title>
<path fill="none" stroke="black" d="M564.88,-656.3C593.6,-594.2 666.98,-435.5 702.35,-359"/>
<polygon fill="black" stroke="black" points="705.65,-360.19 706.67,-349.65 699.3,-357.25 705.65,-360.19"/>
<text text-anchor="start" x="641" y="-491.8" font-family="Times,serif" font-size="14.00">%4</text>
</g>
<!-- node8 -->
<g id="node9" class="node">
<title>node8</title>
<polygon fill="none" stroke="black" points="460,-176.5 460,-229.5 658,-229.5 658,-176.5 460,-176.5"/>
<text text-anchor="start" x="468" y="-214.3" font-family="Times,serif" font-size="14.00">Union %7 %4</text>
<text text-anchor="start" x="468" y="-199.3" font-family="Times,serif" font-size="14.00"> Map null, null</text>
<text text-anchor="start" x="468" y="-184.3" font-family="Times,serif" font-size="14.00"> Project (#2, #3, #0, #1)</text>
</g>
<!-- node4&#45;&gt;node8 -->
<g id="edge6" class="edge">
<title>node4&#45;&gt;node8</title>
<path fill="none" stroke="black" d="M555.06,-656.24C556.8,-632.35 559,-595.79 559,-564 559,-564 559,-564 559,-314.5 559,-289.61 559,-261.56 559,-239.95"/>
<polygon fill="black" stroke="black" points="562.5,-239.9 559,-229.9 555.5,-239.9 562.5,-239.9"/>
<text text-anchor="start" x="559" y="-431.8" font-family="Times,serif" font-size="14.00">%4</text>
</g>
<!-- node6 -->
<g id="node7" class="node">
<title>node6</title>
<polygon fill="none" stroke="black" points="356.5,-401.5 356.5,-469.5 523.5,-469.5 523.5,-401.5 356.5,-401.5"/>
<text text-anchor="start" x="364.5" y="-454.3" font-family="Times,serif" font-size="14.00">Let l4 =</text>
<text text-anchor="start" x="364.5" y="-439.3" font-family="Times,serif" font-size="14.00"> Get %5 (l3)</text>
<text text-anchor="start" x="364.5" y="-424.3" font-family="Times,serif" font-size="14.00"> Project (#1)</text>
<text text-anchor="start" x="364.5" y="-409.3" font-family="Times,serif" font-size="14.00"> Distinct group=(#0)</text>
</g>
<!-- node5&#45;&gt;node6 -->
<g id="edge11" class="edge">
<title>node5&#45;&gt;node6</title>
<path fill="none" stroke="black" d="M385.3,-521.25C394.25,-507.38 404.26,-491.87 413.25,-477.95"/>
<polygon fill="black" stroke="black" points="416.21,-479.81 418.69,-469.51 410.33,-476.02 416.21,-479.81"/>
<text text-anchor="start" x="406" y="-491.8" font-family="Times,serif" font-size="14.00">%5</text>
</g>
<!-- node11 -->
<g id="node12" class="node">
<title>node11</title>
<polygon fill="none" stroke="black" points="273,-88.5 273,-124.5 395,-124.5 395,-88.5 273,-88.5"/>
<text text-anchor="start" x="281" y="-102.8" font-family="Times,serif" font-size="14.00">Union %10 %5</text>
</g>
<!-- node5&#45;&gt;node11 -->
<g id="edge17" class="edge">
<title>node5&#45;&gt;node11</title>
<path fill="none" stroke="black" d="M353.42,-521.31C351.42,-505.34 349.33,-486.84 348,-470 338.13,-344.99 335.14,-195.15 334.3,-134.73"/>
<polygon fill="black" stroke="black" points="337.8,-134.47 334.17,-124.51 330.8,-134.56 337.8,-134.47"/>
<text text-anchor="start" x="340" y="-311.8" font-family="Times,serif" font-size="14.00">%5</text>
</g>
<!-- node6&#45;&gt;node7 -->
<g id="edge14" class="edge">
<title>node6&#45;&gt;node7</title>
<path fill="none" stroke="black" d="M518.93,-401.47C554.53,-386.58 596.72,-368.92 633.4,-353.57"/>
<polygon fill="black" stroke="black" points="635.22,-356.61 643.09,-349.52 632.52,-350.15 635.22,-356.61"/>
<text text-anchor="start" x="597" y="-371.8" font-family="Times,serif" font-size="14.00">%6</text>
</g>
<!-- node6&#45;&gt;node9 -->
<g id="edge18" class="edge">
<title>node6&#45;&gt;node9</title>
<path fill="none" stroke="black" d="M362.47,-401.47C327.5,-386.58 286.06,-368.92 250.03,-353.57"/>
<polygon fill="black" stroke="black" points="251.08,-350.22 240.51,-349.52 248.34,-356.66 251.08,-350.22"/>
<text text-anchor="start" x="318" y="-371.8" font-family="Times,serif" font-size="14.00">%6</text>
</g>
<!-- node7&#45;&gt;node8 -->
<g id="edge15" class="edge">
<title>node7&#45;&gt;node8</title>
<path fill="none" stroke="black" d="M673.09,-281.35C651.58,-266.76 626.44,-249.72 605.25,-235.35"/>
<polygon fill="black" stroke="black" points="606.97,-232.29 596.73,-229.58 603.04,-238.09 606.97,-232.29"/>
<text text-anchor="start" x="645" y="-251.8" font-family="Times,serif" font-size="14.00">%7</text>
</g>
<!-- node12 -->
<g id="node13" class="node">
<title>node12</title>
<polygon fill="none" stroke="black" points="381,-0.5 381,-36.5 503,-36.5 503,-0.5 381,-0.5"/>
<text text-anchor="start" x="389" y="-14.8" font-family="Times,serif" font-size="14.00">Union %8 %11</text>
</g>
<!-- node8&#45;&gt;node12 -->
<g id="edge2" class="edge">
<title>node8&#45;&gt;node12</title>
<path fill="none" stroke="black" d="M542.48,-176.24C520.28,-141.6 481.02,-80.37 458.71,-45.57"/>
<polygon fill="black" stroke="black" points="461.51,-43.45 453.17,-36.92 455.62,-47.22 461.51,-43.45"/>
<text text-anchor="start" x="508" y="-102.8" font-family="Times,serif" font-size="14.00">%8</text>
</g>
<!-- node9&#45;&gt;node10 -->
<g id="edge8" class="edge">
<title>node9&#45;&gt;node10</title>
<path fill="none" stroke="black" d="M163,-281.35C163,-265.69 163,-247.21 163,-232.23"/>
<polygon fill="black" stroke="black" points="166.5,-232.04 163,-222.04 159.5,-232.04 166.5,-232.04"/>
<text text-anchor="start" x="163" y="-251.8" font-family="Times,serif" font-size="14.00">%9</text>
</g>
<!-- node10&#45;&gt;node11 -->
<g id="edge10" class="edge">
<title>node10&#45;&gt;node11</title>
<path fill="none" stroke="black" d="M195.97,-183.78C224.03,-168.27 264.41,-145.96 294.25,-129.47"/>
<polygon fill="black" stroke="black" points="296.09,-132.45 303.14,-124.55 292.7,-126.33 296.09,-132.45"/>
<text text-anchor="start" x="269" y="-146.8" font-family="Times,serif" font-size="14.00">%10</text>
</g>
<!-- node11&#45;&gt;node12 -->
<g id="edge7" class="edge">
<title>node11&#45;&gt;node12</title>
<path fill="none" stroke="black" d="M355.6,-88.3C371.93,-75.3 394.54,-57.29 412.54,-42.96"/>
<polygon fill="black" stroke="black" points="414.8,-45.63 420.44,-36.67 410.44,-40.16 414.8,-45.63"/>
<text text-anchor="start" x="394" y="-58.8" font-family="Times,serif" font-size="14.00">%11</text>
</g>
</g>
</svg>
