<?xml version="1.0" encoding="UTF-8" standalone="no"?>
<!DOCTYPE svg PUBLIC "-//W3C//DTD SVG 1.1//EN"
 "http://www.w3.org/Graphics/SVG/1.1/DTD/svg11.dtd">
<!-- Generated by graphviz version 2.43.0 (0)
 -->
<!-- Title: G Pages: 1 -->
<svg width="1349pt" height="639pt"
 viewBox="0.00 0.00 1348.50 639.00" xmlns="http://www.w3.org/2000/svg" xmlns:xlink="http://www.w3.org/1999/xlink">
<g id="graph0" class="graph" transform="scale(1 1) rotate(0) translate(4 635)">
<title>G</title>
<polygon fill="white" stroke="transparent" points="-4,4 -4,-635 1344.5,-635 1344.5,4 -4,4"/>
<!-- node0 -->
<g id="node1" class="node">
<title>node0</title>
<polygon fill="none" stroke="black" points="0,-592.5 0,-630.5 215,-630.5 215,-592.5 0,-592.5"/>
<text text-anchor="start" x="8" y="-615.3" font-family="Times,serif" font-size="14.00">Get outer_joins.public.l (u2)</text>
<text text-anchor="start" x="8" y="-600.3" font-family="Times,serif" font-size="14.00"> ArrangeBy (#1)</text>
</g>
<!-- node2 -->
<g id="node3" class="node">
<title>node2</title>
<polygon fill="none" stroke="black" points="61.5,-472.5 61.5,-540.5 387.5,-540.5 387.5,-472.5 61.5,-472.5"/>
<text text-anchor="start" x="69.5" y="-525.3" font-family="Times,serif" font-size="14.00">Let l0 =</text>
<text text-anchor="start" x="69.5" y="-510.3" font-family="Times,serif" font-size="14.00"> Join %0 %1 (= #1 #2)</text>
<text text-anchor="start" x="69.5" y="-495.3" font-family="Times,serif" font-size="14.00"> implementation = Differential %1 %0.(#1)</text>
<text text-anchor="start" x="69.5" y="-480.3" font-family="Times,serif" font-size="14.00"> Project (#0, #1, #3)</text>
</g>
<!-- node0&#45;&gt;node2 -->
<g id="edge10" class="edge">
<title>node0&#45;&gt;node2</title>
<path fill="none" stroke="black" d="M128.15,-592.32C142.14,-580 161.2,-563.22 178.68,-547.84"/>
<polygon fill="black" stroke="black" points="181.38,-550.13 186.57,-540.89 176.75,-544.87 181.38,-550.13"/>
<text text-anchor="start" x="166.5" y="-562.8" font-family="Times,serif" font-size="14.00">%0</text>
</g>
<!-- node1 -->
<g id="node2" class="node">
<title>node1</title>
<polygon fill="none" stroke="black" points="233.5,-593.5 233.5,-629.5 451.5,-629.5 451.5,-593.5 233.5,-593.5"/>
<text text-anchor="start" x="241.5" y="-607.8" font-family="Times,serif" font-size="14.00">Get outer_joins.public.r (u4)</text>
</g>
<!-- node1&#45;&gt;node2 -->
<g id="edge4" class="edge">
<title>node1&#45;&gt;node2</title>
<path fill="none" stroke="black" d="M323.01,-593.49C308.7,-580.99 288.63,-563.48 270.34,-547.51"/>
<polygon fill="black" stroke="black" points="272.47,-544.72 262.63,-540.79 267.87,-550 272.47,-544.72"/>
<text text-anchor="start" x="297.5" y="-562.8" font-family="Times,serif" font-size="14.00">%1</text>
</g>
<!-- node3 -->
<g id="node4" class="node">
<title>node3</title>
<polygon fill="none" stroke="black" points="464,-337.5 464,-420.5 631,-420.5 631,-337.5 464,-337.5"/>
<text text-anchor="start" x="472" y="-405.3" font-family="Times,serif" font-size="14.00">Let l1 =</text>
<text text-anchor="start" x="472" y="-390.3" font-family="Times,serif" font-size="14.00"> Get %2 (l0)</text>
<text text-anchor="start" x="472" y="-375.3" font-family="Times,serif" font-size="14.00"> Project (#1)</text>
<text text-anchor="start" x="472" y="-360.3" font-family="Times,serif" font-size="14.00"> Distinct group=(#0)</text>
<text text-anchor="start" x="472" y="-345.3" font-family="Times,serif" font-size="14.00"> ArrangeBy (#0)</text>
</g>
<!-- node2&#45;&gt;node3 -->
<g id="edge5" class="edge">
<title>node2&#45;&gt;node3</title>
<path fill="none" stroke="black" d="M319.47,-472.42C358.88,-458.29 405.18,-441.18 454.33,-421.42"/>
<polygon fill="black" stroke="black" points="455.91,-424.55 463.87,-417.56 453.28,-418.06 455.91,-424.55"/>
<text text-anchor="start" x="404.5" y="-442.8" font-family="Times,serif" font-size="14.00">%2</text>
</g>
<!-- node12 -->
<g id="node13" class="node">
<title>node12</title>
<polygon fill="none" stroke="black" points="75.5,-280.5 75.5,-318.5 273.5,-318.5 273.5,-280.5 75.5,-280.5"/>
<text text-anchor="start" x="83.5" y="-303.3" font-family="Times,serif" font-size="14.00">Get %2 (l0)</text>
<text text-anchor="start" x="83.5" y="-288.3" font-family="Times,serif" font-size="14.00"> Project (#0, #1, #1, #2)</text>
</g>
<!-- node2&#45;&gt;node12 -->
<g id="edge9" class="edge">
<title>node2&#45;&gt;node12</title>
<path fill="none" stroke="black" d="M216.36,-472.11C206.59,-432.08 190.41,-365.72 181.29,-328.34"/>
<polygon fill="black" stroke="black" points="184.69,-327.49 178.92,-318.61 177.89,-329.15 184.69,-327.49"/>
<text text-anchor="start" x="212.5" y="-442.8" font-family="Times,serif" font-size="14.00">%2</text>
</g>
<!-- node5 -->
<g id="node6" class="node">
<title>node5</title>
<polygon fill="none" stroke="black" points="1014.5,-193.5 1014.5,-261.5 1340.5,-261.5 1340.5,-193.5 1014.5,-193.5"/>
<text text-anchor="start" x="1022.5" y="-246.3" font-family="Times,serif" font-size="14.00">Join %4 %3 (= #0 #2)</text>
<text text-anchor="start" x="1022.5" y="-231.3" font-family="Times,serif" font-size="14.00"> implementation = Differential %4 %3.(#0)</text>
<text text-anchor="start" x="1022.5" y="-216.3" font-family="Times,serif" font-size="14.00"> Project (#0, #1)</text>
<text text-anchor="start" x="1022.5" y="-201.3" font-family="Times,serif" font-size="14.00"> Negate</text>
</g>
<!-- node3&#45;&gt;node5 -->
<g id="edge15" class="edge">
<title>node3&#45;&gt;node5</title>
<path fill="none" stroke="black" d="M631.16,-358.15C732.27,-334.15 904.24,-293.35 1028.27,-263.91"/>
<polygon fill="black" stroke="black" points="1029.31,-267.26 1038.23,-261.55 1027.7,-260.45 1029.31,-267.26"/>
<text text-anchor="start" x="955.5" y="-295.8" font-family="Times,serif" font-size="14.00">%3</text>
</g>
<!-- node9 -->
<g id="node10" class="node">
<title>node9</title>
<polygon fill="none" stroke="black" points="200.5,-193.5 200.5,-261.5 526.5,-261.5 526.5,-193.5 200.5,-193.5"/>
<text text-anchor="start" x="208.5" y="-246.3" font-family="Times,serif" font-size="14.00">Join %8 %3 (= #1 #2)</text>
<text text-anchor="start" x="208.5" y="-231.3" font-family="Times,serif" font-size="14.00"> implementation = Differential %8 %3.(#0)</text>
<text text-anchor="start" x="208.5" y="-216.3" font-family="Times,serif" font-size="14.00"> Project (#0, #1)</text>
<text text-anchor="start" x="208.5" y="-201.3" font-family="Times,serif" font-size="14.00"> Negate</text>
</g>
<!-- node3&#45;&gt;node9 -->
<g id="edge7" class="edge">
<title>node3&#45;&gt;node9</title>
<path fill="none" stroke="black" d="M497.22,-337.15C470.7,-315.6 438.32,-289.29 412.06,-267.96"/>
<polygon fill="black" stroke="black" points="414.09,-265.09 404.12,-261.51 409.68,-270.53 414.09,-265.09"/>
<text text-anchor="start" x="471.5" y="-295.8" font-family="Times,serif" font-size="14.00">%3</text>
</g>
<!-- node4 -->
<g id="node5" class="node">
<title>node4</title>
<polygon fill="none" stroke="black" points="1068.5,-361 1068.5,-397 1286.5,-397 1286.5,-361 1068.5,-361"/>
<text text-anchor="start" x="1076.5" y="-375.3" font-family="Times,serif" font-size="14.00">Get outer_joins.public.r (u4)</text>
</g>
<!-- node4&#45;&gt;node5 -->
<g id="edge3" class="edge">
<title>node4&#45;&gt;node5</title>
<path fill="none" stroke="black" d="M1177.5,-360.85C1177.5,-339.31 1177.5,-301.57 1177.5,-271.89"/>
<polygon fill="black" stroke="black" points="1181,-271.77 1177.5,-261.77 1174,-271.77 1181,-271.77"/>
<text text-anchor="start" x="1177.5" y="-295.8" font-family="Times,serif" font-size="14.00">%4</text>
</g>
<!-- node7 -->
<g id="node8" class="node">
<title>node7</title>
<polygon fill="none" stroke="black" points="788.5,-88.5 788.5,-141.5 986.5,-141.5 986.5,-88.5 788.5,-88.5"/>
<text text-anchor="start" x="796.5" y="-126.3" font-family="Times,serif" font-size="14.00">Union %5 %6</text>
<text text-anchor="start" x="796.5" y="-111.3" font-family="Times,serif" font-size="14.00"> Map null, null</text>
<text text-anchor="start" x="796.5" y="-96.3" font-family="Times,serif" font-size="14.00"> Project (#2, #3, #0, #1)</text>
</g>
<!-- node5&#45;&gt;node7 -->
<g id="edge12" class="edge">
<title>node5&#45;&gt;node7</title>
<path fill="none" stroke="black" d="M1090.88,-193.5C1050.73,-178.19 1003.4,-160.16 964.5,-145.34"/>
<polygon fill="black" stroke="black" points="965.4,-141.94 954.81,-141.65 962.9,-148.48 965.4,-141.94"/>
<text text-anchor="start" x="1040.5" y="-163.8" font-family="Times,serif" font-size="14.00">%5</text>
</g>
<!-- node6 -->
<g id="node7" class="node">
<title>node6</title>
<polygon fill="none" stroke="black" points="778.5,-209.5 778.5,-245.5 996.5,-245.5 996.5,-209.5 778.5,-209.5"/>
<text text-anchor="start" x="786.5" y="-223.8" font-family="Times,serif" font-size="14.00">Get outer_joins.public.r (u4)</text>
</g>
<!-- node6&#45;&gt;node7 -->
<g id="edge11" class="edge">
<title>node6&#45;&gt;node7</title>
<path fill="none" stroke="black" d="M887.5,-209.23C887.5,-193.97 887.5,-171.22 887.5,-152.01"/>
<polygon fill="black" stroke="black" points="891,-151.77 887.5,-141.77 884,-151.77 891,-151.77"/>
<text text-anchor="start" x="887.5" y="-163.8" font-family="Times,serif" font-size="14.00">%6</text>
</g>
<!-- node13 -->
<g id="node14" class="node">
<title>node13</title>
<polygon fill="none" stroke="black" points="460.5,-0.5 460.5,-36.5 618.5,-36.5 618.5,-0.5 460.5,-0.5"/>
<text text-anchor="start" x="468.5" y="-14.8" font-family="Times,serif" font-size="14.00">Union %7 %11 %12</text>
</g>
<!-- node7&#45;&gt;node13 -->
<g id="edge13" class="edge">
<title>node7&#45;&gt;node13</title>
<path fill="none" stroke="black" d="M793.33,-88.43C736.31,-72.94 664.7,-53.5 612.09,-39.21"/>
<polygon fill="black" stroke="black" points="612.73,-35.76 602.16,-36.52 610.89,-42.51 612.73,-35.76"/>
<text text-anchor="start" x="723.5" y="-58.8" font-family="Times,serif" font-size="14.00">%7</text>
</g>
<!-- node8 -->
<g id="node9" class="node">
<title>node8</title>
<polygon fill="none" stroke="black" points="231,-361 231,-397 446,-397 446,-361 231,-361"/>
<text text-anchor="start" x="239" y="-375.3" font-family="Times,serif" font-size="14.00">Get outer_joins.public.l (u2)</text>
</g>
<!-- node8&#45;&gt;node9 -->
<g id="edge6" class="edge">
<title>node8&#45;&gt;node9</title>
<path fill="none" stroke="black" d="M337.74,-360.79C337.24,-341.05 337.55,-307.82 343.5,-280 344.11,-277.14 344.86,-274.24 345.71,-271.33"/>
<polygon fill="black" stroke="black" points="349.12,-272.14 348.89,-261.54 342.47,-269.97 349.12,-272.14"/>
<text text-anchor="start" x="343.5" y="-295.8" font-family="Times,serif" font-size="14.00">%8</text>
</g>
<!-- node11 -->
<g id="node12" class="node">
<title>node11</title>
<polygon fill="none" stroke="black" points="478.5,-96 478.5,-134 600.5,-134 600.5,-96 478.5,-96"/>
<text text-anchor="start" x="486.5" y="-118.8" font-family="Times,serif" font-size="14.00">Union %9 %10</text>
<text text-anchor="start" x="486.5" y="-103.8" font-family="Times,serif" font-size="14.00"> Map null, null</text>
</g>
<!-- node9&#45;&gt;node11 -->
<g id="edge14" class="edge">
<title>node9&#45;&gt;node11</title>
<path fill="none" stroke="black" d="M416.31,-193.35C443.9,-176.02 477.02,-155.23 501.97,-139.56"/>
<polygon fill="black" stroke="black" points="504.16,-142.32 510.77,-134.04 500.44,-136.39 504.16,-142.32"/>
<text text-anchor="start" x="466.5" y="-163.8" font-family="Times,serif" font-size="14.00">%9</text>
</g>
<!-- node10 -->
<g id="node11" class="node">
<title>node10</title>
<polygon fill="none" stroke="black" points="545,-209.5 545,-245.5 760,-245.5 760,-209.5 545,-209.5"/>
<text text-anchor="start" x="553" y="-223.8" font-family="Times,serif" font-size="14.00">Get outer_joins.public.l (u2)</text>
</g>
<!-- node10&#45;&gt;node11 -->
<g id="edge2" class="edge">
<title>node10&#45;&gt;node11</title>
<path fill="none" stroke="black" d="M634.84,-209.23C616.27,-191.07 586.84,-162.29 565.58,-141.51"/>
<polygon fill="black" stroke="black" points="567.76,-138.74 558.16,-134.25 562.86,-143.74 567.76,-138.74"/>
<text text-anchor="start" x="598.5" y="-163.8" font-family="Times,serif" font-size="14.00">%10</text>
</g>
<!-- node11&#45;&gt;node13 -->
<g id="edge8" class="edge">
<title>node11&#45;&gt;node13</title>
<path fill="none" stroke="black" d="M539.5,-95.78C539.5,-81.92 539.5,-62.62 539.5,-46.91"/>
<polygon fill="black" stroke="black" points="543,-46.71 539.5,-36.71 536,-46.71 543,-46.71"/>
<text text-anchor="start" x="539.5" y="-58.8" font-family="Times,serif" font-size="14.00">%11</text>
</g>
<!-- node12&#45;&gt;node13 -->
<g id="edge1" class="edge">
<title>node12&#45;&gt;node13</title>
<path fill="none" stroke="black" d="M172.68,-280.18C171.42,-257.5 172.6,-218.71 191.5,-193 254.04,-107.94 370.05,-62.06 450.85,-39.23"/>
<polygon fill="black" stroke="black" points="451.82,-42.59 460.52,-36.56 449.95,-35.84 451.82,-42.59"/>
<text text-anchor="start" x="219.5" y="-163.8" font-family="Times,serif" font-size="14.00">%12</text>
</g>
</g>
</svg>
