<?xml version="1.0" encoding="UTF-8" standalone="no"?>
<!DOCTYPE svg PUBLIC "-//W3C//DTD SVG 1.1//EN"
 "http://www.w3.org/Graphics/SVG/1.1/DTD/svg11.dtd">
<!-- Generated by graphviz version 2.43.0 (0)
 -->
<!-- Title: G Pages: 1 -->
<svg width="1008pt" height="1262pt"
 viewBox="0.00 0.00 1007.50 1262.00" xmlns="http://www.w3.org/2000/svg" xmlns:xlink="http://www.w3.org/1999/xlink">
<g id="graph0" class="graph" transform="scale(1 1) rotate(0) translate(4 1258)">
<title>G</title>
<polygon fill="white" stroke="transparent" points="-4,4 -4,-1258 1003.5,-1258 1003.5,4 -4,4"/>
<!-- node0 -->
<g id="node1" class="node">
<title>node0</title>
<polygon fill="none" stroke="black" points="400.5,-1185.5 400.5,-1253.5 501.5,-1253.5 501.5,-1185.5 400.5,-1185.5"/>
<text text-anchor="start" x="408.5" y="-1238.3" font-family="Times,serif" font-size="14.00">Let l0 =</text>
<text text-anchor="start" x="408.5" y="-1223.3" font-family="Times,serif" font-size="14.00"> Constant ()</text>
<text text-anchor="start" x="408.5" y="-1208.3" font-family="Times,serif" font-size="14.00"> types = ()</text>
<text text-anchor="start" x="408.5" y="-1193.3" font-family="Times,serif" font-size="14.00"> keys = (())</text>
</g>
<!-- node2 -->
<g id="node3" class="node">
<title>node2</title>
<polygon fill="none" stroke="black" points="124.5,-1050.5 124.5,-1133.5 393.5,-1133.5 393.5,-1050.5 124.5,-1050.5"/>
<text text-anchor="start" x="132.5" y="-1118.3" font-family="Times,serif" font-size="14.00">Let l1 =</text>
<text text-anchor="start" x="132.5" y="-1103.3" font-family="Times,serif" font-size="14.00"> Join %0 %1</text>
<text text-anchor="start" x="132.5" y="-1088.3" font-family="Times,serif" font-size="14.00"> implementation = Unimplemented</text>
<text text-anchor="start" x="132.5" y="-1073.3" font-family="Times,serif" font-size="14.00"> types = (integer, integer)</text>
<text text-anchor="start" x="132.5" y="-1058.3" font-family="Times,serif" font-size="14.00"> keys = ()</text>
</g>
<!-- node0&#45;&gt;node2 -->
<g id="edge12" class="edge">
<title>node0&#45;&gt;node2</title>
<path fill="none" stroke="black" d="M400.3,-1185.36C378.73,-1171.26 353.2,-1154.57 329.82,-1139.29"/>
<polygon fill="black" stroke="black" points="331.59,-1136.27 321.31,-1133.73 327.76,-1142.13 331.59,-1136.27"/>
<text text-anchor="start" x="373" y="-1155.8" font-family="Times,serif" font-size="14.00">%0</text>
</g>
<!-- node4 -->
<g id="node5" class="node">
<title>node4</title>
<polygon fill="none" stroke="black" points="502.5,-1050.5 502.5,-1133.5 771.5,-1133.5 771.5,-1050.5 502.5,-1050.5"/>
<text text-anchor="start" x="510.5" y="-1118.3" font-family="Times,serif" font-size="14.00">Let l2 =</text>
<text text-anchor="start" x="510.5" y="-1103.3" font-family="Times,serif" font-size="14.00"> Join %0 %3</text>
<text text-anchor="start" x="510.5" y="-1088.3" font-family="Times,serif" font-size="14.00"> implementation = Unimplemented</text>
<text text-anchor="start" x="510.5" y="-1073.3" font-family="Times,serif" font-size="14.00"> types = (integer, integer)</text>
<text text-anchor="start" x="510.5" y="-1058.3" font-family="Times,serif" font-size="14.00"> keys = ()</text>
</g>
<!-- node0&#45;&gt;node4 -->
<g id="edge13" class="edge">
<title>node0&#45;&gt;node4</title>
<path fill="none" stroke="black" d="M500.36,-1185.2C521.16,-1171.16 545.73,-1154.58 568.26,-1139.38"/>
<polygon fill="black" stroke="black" points="570.45,-1142.12 576.79,-1133.63 566.54,-1136.32 570.45,-1142.12"/>
<text text-anchor="start" x="544" y="-1155.8" font-family="Times,serif" font-size="14.00">%0</text>
</g>
<!-- node1 -->
<g id="node2" class="node">
<title>node1</title>
<polygon fill="none" stroke="black" points="151.5,-1193 151.5,-1246 366.5,-1246 366.5,-1193 151.5,-1193"/>
<text text-anchor="start" x="159.5" y="-1230.8" font-family="Times,serif" font-size="14.00">Get outer_joins.public.l (u2)</text>
<text text-anchor="start" x="159.5" y="-1215.8" font-family="Times,serif" font-size="14.00"> types = (integer, integer)</text>
<text text-anchor="start" x="159.5" y="-1200.8" font-family="Times,serif" font-size="14.00"> keys = ()</text>
</g>
<!-- node1&#45;&gt;node2 -->
<g id="edge16" class="edge">
<title>node1&#45;&gt;node2</title>
<path fill="none" stroke="black" d="M259,-1192.8C259,-1178.79 259,-1160.93 259,-1144.2"/>
<polygon fill="black" stroke="black" points="262.5,-1143.98 259,-1133.98 255.5,-1143.98 262.5,-1143.98"/>
<text text-anchor="start" x="259" y="-1155.8" font-family="Times,serif" font-size="14.00">%1</text>
</g>
<!-- node5 -->
<g id="node6" class="node">
<title>node5</title>
<polygon fill="none" stroke="black" points="266.5,-825.5 266.5,-998.5 587.5,-998.5 587.5,-825.5 266.5,-825.5"/>
<text text-anchor="start" x="274.5" y="-983.3" font-family="Times,serif" font-size="14.00">Let l3 =</text>
<text text-anchor="start" x="274.5" y="-968.3" font-family="Times,serif" font-size="14.00"> Join %2 %4</text>
<text text-anchor="start" x="274.5" y="-953.3" font-family="Times,serif" font-size="14.00"> implementation = Unimplemented</text>
<text text-anchor="start" x="274.5" y="-938.3" font-family="Times,serif" font-size="14.00"> types = (integer, integer, integer, integer)</text>
<text text-anchor="start" x="274.5" y="-923.3" font-family="Times,serif" font-size="14.00"> keys = ()</text>
<text text-anchor="start" x="274.5" y="-908.3" font-family="Times,serif" font-size="14.00"> Project (#0..#3)</text>
<text text-anchor="start" x="274.5" y="-893.3" font-family="Times,serif" font-size="14.00"> types = (integer, integer, integer, integer)</text>
<text text-anchor="start" x="274.5" y="-878.3" font-family="Times,serif" font-size="14.00"> keys = ()</text>
<text text-anchor="start" x="274.5" y="-863.3" font-family="Times,serif" font-size="14.00"> Filter (#1 = #2)</text>
<text text-anchor="start" x="274.5" y="-848.3" font-family="Times,serif" font-size="14.00"> types = (integer, integer, integer, integer)</text>
<text text-anchor="start" x="274.5" y="-833.3" font-family="Times,serif" font-size="14.00"> keys = ()</text>
</g>
<!-- node2&#45;&gt;node5 -->
<g id="edge4" class="edge">
<title>node2&#45;&gt;node5</title>
<path fill="none" stroke="black" d="M297.54,-1050.16C310.03,-1036.93 324.44,-1021.67 339,-1006.24"/>
<polygon fill="black" stroke="black" points="341.84,-1008.33 346.16,-998.65 336.75,-1003.52 341.84,-1008.33"/>
<text text-anchor="start" x="328" y="-1020.8" font-family="Times,serif" font-size="14.00">%2</text>
</g>
<!-- node9 -->
<g id="node10" class="node">
<title>node9</title>
<polygon fill="none" stroke="black" points="60.5,-405.5 60.5,-563.5 329.5,-563.5 329.5,-405.5 60.5,-405.5"/>
<text text-anchor="start" x="68.5" y="-548.3" font-family="Times,serif" font-size="14.00">Join %2 %6 (= #1 #2)</text>
<text text-anchor="start" x="68.5" y="-533.3" font-family="Times,serif" font-size="14.00"> implementation = Unimplemented</text>
<text text-anchor="start" x="68.5" y="-518.3" font-family="Times,serif" font-size="14.00"> types = (integer, integer, integer)</text>
<text text-anchor="start" x="68.5" y="-503.3" font-family="Times,serif" font-size="14.00"> keys = ()</text>
<text text-anchor="start" x="68.5" y="-488.3" font-family="Times,serif" font-size="14.00"> Project (#0, #1)</text>
<text text-anchor="start" x="68.5" y="-473.3" font-family="Times,serif" font-size="14.00"> types = (integer, integer)</text>
<text text-anchor="start" x="68.5" y="-458.3" font-family="Times,serif" font-size="14.00"> keys = ()</text>
<text text-anchor="start" x="68.5" y="-443.3" font-family="Times,serif" font-size="14.00"> Negate</text>
<text text-anchor="start" x="68.5" y="-428.3" font-family="Times,serif" font-size="14.00"> types = (integer, integer)</text>
<text text-anchor="start" x="68.5" y="-413.3" font-family="Times,serif" font-size="14.00"> keys = ()</text>
</g>
<!-- node2&#45;&gt;node9 -->
<g id="edge5" class="edge">
<title>node2&#45;&gt;node9</title>
<path fill="none" stroke="black" d="M254.7,-1050.33C244.45,-953.36 218.38,-706.73 204.32,-573.72"/>
<polygon fill="black" stroke="black" points="207.78,-573.14 203.25,-563.56 200.82,-573.87 207.78,-573.14"/>
<text text-anchor="start" x="229" y="-795.8" font-family="Times,serif" font-size="14.00">%2</text>
</g>
<!-- node10 -->
<g id="node11" class="node">
<title>node10</title>
<polygon fill="none" stroke="black" points="0,-233 0,-331 338,-331 338,-233 0,-233"/>
<text text-anchor="start" x="8" y="-315.8" font-family="Times,serif" font-size="14.00">Union %9 %2</text>
<text text-anchor="start" x="8" y="-300.8" font-family="Times,serif" font-size="14.00"> types = (integer, integer)</text>
<text text-anchor="start" x="8" y="-285.8" font-family="Times,serif" font-size="14.00"> keys = ()</text>
<text text-anchor="start" x="8" y="-270.8" font-family="Times,serif" font-size="14.00"> Map null, null</text>
<text text-anchor="start" x="8" y="-255.8" font-family="Times,serif" font-size="14.00"> types = (integer, integer, integer?, integer?)</text>
<text text-anchor="start" x="8" y="-240.8" font-family="Times,serif" font-size="14.00"> keys = ()</text>
</g>
<!-- node2&#45;&gt;node10 -->
<g id="edge9" class="edge">
<title>node2&#45;&gt;node10</title>
<path fill="none" stroke="black" d="M146.17,-1050.41C89.19,-1021.95 32,-977.35 32,-913 32,-913 32,-913 32,-483.5 32,-447.6 33.69,-436.45 51,-405 64.42,-380.62 83.99,-357.63 103.36,-338.31"/>
<polygon fill="black" stroke="black" points="106.04,-340.58 110.76,-331.1 101.15,-335.57 106.04,-340.58"/>
<text text-anchor="start" x="32" y="-690.8" font-family="Times,serif" font-size="14.00">%2</text>
</g>
<!-- node3 -->
<g id="node4" class="node">
<title>node3</title>
<polygon fill="none" stroke="black" points="528,-1193 528,-1246 746,-1246 746,-1193 528,-1193"/>
<text text-anchor="start" x="536" y="-1230.8" font-family="Times,serif" font-size="14.00">Get outer_joins.public.r (u4)</text>
<text text-anchor="start" x="536" y="-1215.8" font-family="Times,serif" font-size="14.00"> types = (integer, integer)</text>
<text text-anchor="start" x="536" y="-1200.8" font-family="Times,serif" font-size="14.00"> keys = ()</text>
</g>
<!-- node3&#45;&gt;node4 -->
<g id="edge3" class="edge">
<title>node3&#45;&gt;node4</title>
<path fill="none" stroke="black" d="M637,-1192.8C637,-1178.79 637,-1160.93 637,-1144.2"/>
<polygon fill="black" stroke="black" points="640.5,-1143.98 637,-1133.98 633.5,-1143.98 640.5,-1143.98"/>
<text text-anchor="start" x="637" y="-1155.8" font-family="Times,serif" font-size="14.00">%3</text>
</g>
<!-- node4&#45;&gt;node5 -->
<g id="edge1" class="edge">
<title>node4&#45;&gt;node5</title>
<path fill="none" stroke="black" d="M589.08,-1050.39C573.2,-1036.92 554.8,-1021.33 536.23,-1005.59"/>
<polygon fill="black" stroke="black" points="538.16,-1002.63 528.27,-998.84 533.63,-1007.97 538.16,-1002.63"/>
<text text-anchor="start" x="563" y="-1020.8" font-family="Times,serif" font-size="14.00">%4</text>
</g>
<!-- node7 -->
<g id="node8" class="node">
<title>node7</title>
<polygon fill="none" stroke="black" points="730.5,-405.5 730.5,-563.5 999.5,-563.5 999.5,-405.5 730.5,-405.5"/>
<text text-anchor="start" x="738.5" y="-548.3" font-family="Times,serif" font-size="14.00">Join %4 %6 (= #0 #2)</text>
<text text-anchor="start" x="738.5" y="-533.3" font-family="Times,serif" font-size="14.00"> implementation = Unimplemented</text>
<text text-anchor="start" x="738.5" y="-518.3" font-family="Times,serif" font-size="14.00"> types = (integer, integer, integer)</text>
<text text-anchor="start" x="738.5" y="-503.3" font-family="Times,serif" font-size="14.00"> keys = ()</text>
<text text-anchor="start" x="738.5" y="-488.3" font-family="Times,serif" font-size="14.00"> Project (#0, #1)</text>
<text text-anchor="start" x="738.5" y="-473.3" font-family="Times,serif" font-size="14.00"> types = (integer, integer)</text>
<text text-anchor="start" x="738.5" y="-458.3" font-family="Times,serif" font-size="14.00"> keys = ()</text>
<text text-anchor="start" x="738.5" y="-443.3" font-family="Times,serif" font-size="14.00"> Negate</text>
<text text-anchor="start" x="738.5" y="-428.3" font-family="Times,serif" font-size="14.00"> types = (integer, integer)</text>
<text text-anchor="start" x="738.5" y="-413.3" font-family="Times,serif" font-size="14.00"> keys = ()</text>
</g>
<!-- node4&#45;&gt;node7 -->
<g id="edge19" class="edge">
<title>node4&#45;&gt;node7</title>
<path fill="none" stroke="black" d="M700.32,-1050.17C706.18,-1044.58 711.57,-1038.51 716,-1032 812.43,-890.36 846.62,-688.36 858.62,-573.78"/>
<polygon fill="black" stroke="black" points="862.12,-573.95 859.65,-563.65 855.16,-573.24 862.12,-573.95"/>
<text text-anchor="start" x="818" y="-795.8" font-family="Times,serif" font-size="14.00">%4</text>
</g>
<!-- node8 -->
<g id="node9" class="node">
<title>node8</title>
<polygon fill="none" stroke="black" points="532.5,-210.5 532.5,-353.5 871.5,-353.5 871.5,-210.5 532.5,-210.5"/>
<text text-anchor="start" x="540.5" y="-338.3" font-family="Times,serif" font-size="14.00">Union %7 %4</text>
<text text-anchor="start" x="540.5" y="-323.3" font-family="Times,serif" font-size="14.00"> types = (integer, integer)</text>
<text text-anchor="start" x="540.5" y="-308.3" font-family="Times,serif" font-size="14.00"> keys = ()</text>
<text text-anchor="start" x="540.5" y="-293.3" font-family="Times,serif" font-size="14.00"> Map null, null</text>
<text text-anchor="start" x="540.5" y="-278.3" font-family="Times,serif" font-size="14.00"> types = (integer, integer, integer?, integer?)</text>
<text text-anchor="start" x="540.5" y="-263.3" font-family="Times,serif" font-size="14.00"> keys = ()</text>
<text text-anchor="start" x="540.5" y="-248.3" font-family="Times,serif" font-size="14.00"> Project (#2, #3, #0, #1)</text>
<text text-anchor="start" x="540.5" y="-233.3" font-family="Times,serif" font-size="14.00"> types = (integer?, integer?, integer, integer)</text>
<text text-anchor="start" x="540.5" y="-218.3" font-family="Times,serif" font-size="14.00"> keys = ()</text>
</g>
<!-- node4&#45;&gt;node8 -->
<g id="edge6" class="edge">
<title>node4&#45;&gt;node8</title>
<path fill="none" stroke="black" d="M661.02,-1050.45C679.53,-1015.33 702,-962.51 702,-913 702,-913 702,-913 702,-483.5 702,-444.05 702,-400.23 702,-363.64"/>
<polygon fill="black" stroke="black" points="705.5,-363.52 702,-353.52 698.5,-363.52 705.5,-363.52"/>
<text text-anchor="start" x="702" y="-690.8" font-family="Times,serif" font-size="14.00">%4</text>
</g>
<!-- node6 -->
<g id="node7" class="node">
<title>node6</title>
<polygon fill="none" stroke="black" points="344.5,-615.5 344.5,-773.5 665.5,-773.5 665.5,-615.5 344.5,-615.5"/>
<text text-anchor="start" x="352.5" y="-758.3" font-family="Times,serif" font-size="14.00">Let l4 =</text>
<text text-anchor="start" x="352.5" y="-743.3" font-family="Times,serif" font-size="14.00"> Get %5 (l3)</text>
<text text-anchor="start" x="352.5" y="-728.3" font-family="Times,serif" font-size="14.00"> types = (integer, integer, integer, integer)</text>
<text text-anchor="start" x="352.5" y="-713.3" font-family="Times,serif" font-size="14.00"> keys = ()</text>
<text text-anchor="start" x="352.5" y="-698.3" font-family="Times,serif" font-size="14.00"> Project (#1)</text>
<text text-anchor="start" x="352.5" y="-683.3" font-family="Times,serif" font-size="14.00"> types = (integer)</text>
<text text-anchor="start" x="352.5" y="-668.3" font-family="Times,serif" font-size="14.00"> keys = ()</text>
<text text-anchor="start" x="352.5" y="-653.3" font-family="Times,serif" font-size="14.00"> Distinct group=(#0)</text>
<text text-anchor="start" x="352.5" y="-638.3" font-family="Times,serif" font-size="14.00"> types = (integer)</text>
<text text-anchor="start" x="352.5" y="-623.3" font-family="Times,serif" font-size="14.00"> keys = ((#0))</text>
</g>
<!-- node5&#45;&gt;node6 -->
<g id="edge11" class="edge">
<title>node5&#45;&gt;node6</title>
<path fill="none" stroke="black" d="M458.05,-825.21C463.06,-811.38 468.24,-797.05 473.27,-783.18"/>
<polygon fill="black" stroke="black" points="476.6,-784.25 476.71,-773.66 470.02,-781.87 476.6,-784.25"/>
<text text-anchor="start" x="468" y="-795.8" font-family="Times,serif" font-size="14.00">%5</text>
</g>
<!-- node11 -->
<g id="node12" class="node">
<title>node11</title>
<polygon fill="none" stroke="black" points="197,-105.5 197,-158.5 535,-158.5 535,-105.5 197,-105.5"/>
<text text-anchor="start" x="205" y="-143.3" font-family="Times,serif" font-size="14.00">Union %10 %5</text>
<text text-anchor="start" x="205" y="-128.3" font-family="Times,serif" font-size="14.00"> types = (integer, integer, integer?, integer?)</text>
<text text-anchor="start" x="205" y="-113.3" font-family="Times,serif" font-size="14.00"> keys = ()</text>
</g>
<!-- node5&#45;&gt;node11 -->
<g id="edge17" class="edge">
<title>node5&#45;&gt;node11</title>
<path fill="none" stroke="black" d="M358.62,-825.38C348.9,-809.14 340.38,-791.68 335,-774 314.41,-706.4 332.73,-685.63 335,-615 335.36,-603.86 356.51,-278.59 363.67,-168.8"/>
<polygon fill="black" stroke="black" points="367.18,-168.77 364.33,-158.56 360.19,-168.32 367.18,-168.77"/>
<text text-anchor="start" x="349" y="-480.8" font-family="Times,serif" font-size="14.00">%5</text>
</g>
<!-- node6&#45;&gt;node7 -->
<g id="edge14" class="edge">
<title>node6&#45;&gt;node7</title>
<path fill="none" stroke="black" d="M640.07,-615.46C666.72,-600.06 694.77,-583.86 721.67,-568.31"/>
<polygon fill="black" stroke="black" points="723.46,-571.32 730.37,-563.29 719.96,-565.26 723.46,-571.32"/>
<text text-anchor="start" x="695" y="-585.8" font-family="Times,serif" font-size="14.00">%6</text>
</g>
<!-- node6&#45;&gt;node9 -->
<g id="edge18" class="edge">
<title>node6&#45;&gt;node9</title>
<path fill="none" stroke="black" d="M388.69,-615.46C366.19,-600.36 342.54,-584.49 319.79,-569.23"/>
<polygon fill="black" stroke="black" points="321.7,-566.3 311.45,-563.63 317.8,-572.11 321.7,-566.3"/>
<text text-anchor="start" x="360" y="-585.8" font-family="Times,serif" font-size="14.00">%6</text>
</g>
<!-- node7&#45;&gt;node8 -->
<g id="edge15" class="edge">
<title>node7&#45;&gt;node8</title>
<path fill="none" stroke="black" d="M801.51,-405.41C789.82,-391.03 777.61,-376.01 765.91,-361.61"/>
<polygon fill="black" stroke="black" points="768.49,-359.24 759.47,-353.69 763.06,-363.65 768.49,-359.24"/>
<text text-anchor="start" x="783" y="-375.8" font-family="Times,serif" font-size="14.00">%7</text>
</g>
<!-- node12 -->
<g id="node13" class="node">
<title>node12</title>
<polygon fill="none" stroke="black" points="314,-0.5 314,-53.5 670,-53.5 670,-0.5 314,-0.5"/>
<text text-anchor="start" x="322" y="-38.3" font-family="Times,serif" font-size="14.00">Union %8 %11</text>
<text text-anchor="start" x="322" y="-23.3" font-family="Times,serif" font-size="14.00"> types = (integer?, integer?, integer?, integer?)</text>
<text text-anchor="start" x="322" y="-8.3" font-family="Times,serif" font-size="14.00"> keys = ()</text>
</g>
<!-- node8&#45;&gt;node12 -->
<g id="edge2" class="edge">
<title>node8&#45;&gt;node12</title>
<path fill="none" stroke="black" d="M643.22,-210.19C602.95,-161.67 551.35,-99.5 520.02,-61.76"/>
<polygon fill="black" stroke="black" points="522.36,-59.09 513.28,-53.63 516.97,-63.56 522.36,-59.09"/>
<text text-anchor="start" x="600" y="-128.3" font-family="Times,serif" font-size="14.00">%8</text>
</g>
<!-- node9&#45;&gt;node10 -->
<g id="edge8" class="edge">
<title>node9&#45;&gt;node10</title>
<path fill="none" stroke="black" d="M184.87,-405.41C182.09,-383.96 179.13,-361.09 176.52,-340.99"/>
<polygon fill="black" stroke="black" points="179.99,-340.53 175.23,-331.06 173.05,-341.43 179.99,-340.53"/>
<text text-anchor="start" x="182" y="-375.8" font-family="Times,serif" font-size="14.00">%9</text>
</g>
<!-- node10&#45;&gt;node11 -->
<g id="edge10" class="edge">
<title>node10&#45;&gt;node11</title>
<path fill="none" stroke="black" d="M232.96,-232.95C262.66,-210.63 297.17,-184.71 323.59,-164.86"/>
<polygon fill="black" stroke="black" points="325.98,-167.45 331.87,-158.64 321.77,-161.85 325.98,-167.45"/>
<text text-anchor="start" x="303" y="-180.8" font-family="Times,serif" font-size="14.00">%10</text>
</g>
<!-- node11&#45;&gt;node12 -->
<g id="edge7" class="edge">
<title>node11&#45;&gt;node12</title>
<path fill="none" stroke="black" d="M397.47,-105.27C414.16,-91.63 434.82,-74.74 452.57,-60.23"/>
<polygon fill="black" stroke="black" points="454.97,-62.79 460.49,-53.75 450.54,-57.37 454.97,-62.79"/>
<text text-anchor="start" x="436" y="-75.8" font-family="Times,serif" font-size="14.00">%11</text>
</g>
</g>
</svg>
