<?xml version="1.0" encoding="UTF-8" standalone="no"?>
<!DOCTYPE svg PUBLIC "-//W3C//DTD SVG 1.1//EN"
 "http://www.w3.org/Graphics/SVG/1.1/DTD/svg11.dtd">
<!-- Generated by graphviz version 2.43.0 (0)
 -->
<!-- Title: G Pages: 1 -->
<svg width="1351pt" height="1136pt"
 viewBox="0.00 0.00 1350.50 1136.00" xmlns="http://www.w3.org/2000/svg" xmlns:xlink="http://www.w3.org/1999/xlink">
<g id="graph0" class="graph" transform="scale(1 1) rotate(0) translate(4 1132)">
<title>G</title>
<polygon fill="white" stroke="transparent" points="-4,4 -4,-1132 1346.5,-1132 1346.5,4 -4,4"/>
<!-- node0 -->
<g id="node1" class="node">
<title>node0</title>
<polygon fill="none" stroke="black" points="0,-1029.5 0,-1127.5 215,-1127.5 215,-1029.5 0,-1029.5"/>
<text text-anchor="start" x="8" y="-1112.3" font-family="Times,serif" font-size="14.00">Get outer_joins.public.l (u2)</text>
<text text-anchor="start" x="8" y="-1097.3" font-family="Times,serif" font-size="14.00"> types = (integer, integer)</text>
<text text-anchor="start" x="8" y="-1082.3" font-family="Times,serif" font-size="14.00"> keys = ()</text>
<text text-anchor="start" x="8" y="-1067.3" font-family="Times,serif" font-size="14.00"> ArrangeBy (#1)</text>
<text text-anchor="start" x="8" y="-1052.3" font-family="Times,serif" font-size="14.00"> types = (integer, integer)</text>
<text text-anchor="start" x="8" y="-1037.3" font-family="Times,serif" font-size="14.00"> keys = ()</text>
</g>
<!-- node2 -->
<g id="node3" class="node">
<title>node2</title>
<polygon fill="none" stroke="black" points="61.5,-849.5 61.5,-977.5 387.5,-977.5 387.5,-849.5 61.5,-849.5"/>
<text text-anchor="start" x="69.5" y="-962.3" font-family="Times,serif" font-size="14.00">Let l0 =</text>
<text text-anchor="start" x="69.5" y="-947.3" font-family="Times,serif" font-size="14.00"> Join %0 %1 (= #1 #2)</text>
<text text-anchor="start" x="69.5" y="-932.3" font-family="Times,serif" font-size="14.00"> implementation = Differential %1 %0.(#1)</text>
<text text-anchor="start" x="69.5" y="-917.3" font-family="Times,serif" font-size="14.00"> types = (integer, integer, integer, integer)</text>
<text text-anchor="start" x="69.5" y="-902.3" font-family="Times,serif" font-size="14.00"> keys = ()</text>
<text text-anchor="start" x="69.5" y="-887.3" font-family="Times,serif" font-size="14.00"> Project (#0, #1, #3)</text>
<text text-anchor="start" x="69.5" y="-872.3" font-family="Times,serif" font-size="14.00"> types = (integer, integer, integer)</text>
<text text-anchor="start" x="69.5" y="-857.3" font-family="Times,serif" font-size="14.00"> keys = ()</text>
</g>
<!-- node0&#45;&gt;node2 -->
<g id="edge10" class="edge">
<title>node0&#45;&gt;node2</title>
<path fill="none" stroke="black" d="M141.97,-1029.48C151.81,-1015.77 162.75,-1000.53 173.36,-985.75"/>
<polygon fill="black" stroke="black" points="176.22,-987.77 179.21,-977.6 170.53,-983.68 176.22,-987.77"/>
<text text-anchor="start" x="166.5" y="-999.8" font-family="Times,serif" font-size="14.00">%0</text>
</g>
<!-- node1 -->
<g id="node2" class="node">
<title>node1</title>
<polygon fill="none" stroke="black" points="233.5,-1052 233.5,-1105 451.5,-1105 451.5,-1052 233.5,-1052"/>
<text text-anchor="start" x="241.5" y="-1089.8" font-family="Times,serif" font-size="14.00">Get outer_joins.public.r (u4)</text>
<text text-anchor="start" x="241.5" y="-1074.8" font-family="Times,serif" font-size="14.00"> types = (integer, integer)</text>
<text text-anchor="start" x="241.5" y="-1059.8" font-family="Times,serif" font-size="14.00"> keys = ()</text>
</g>
<!-- node1&#45;&gt;node2 -->
<g id="edge4" class="edge">
<title>node1&#45;&gt;node2</title>
<path fill="none" stroke="black" d="M323.8,-1051.67C310.96,-1033.93 293.22,-1009.43 276.3,-986.05"/>
<polygon fill="black" stroke="black" points="279.05,-983.89 270.35,-977.84 273.38,-987.99 279.05,-983.89"/>
<text text-anchor="start" x="294.5" y="-999.8" font-family="Times,serif" font-size="14.00">%1</text>
</g>
<!-- node3 -->
<g id="node4" class="node">
<title>node3</title>
<polygon fill="none" stroke="black" points="488.5,-594.5 488.5,-797.5 750.5,-797.5 750.5,-594.5 488.5,-594.5"/>
<text text-anchor="start" x="496.5" y="-782.3" font-family="Times,serif" font-size="14.00">Let l1 =</text>
<text text-anchor="start" x="496.5" y="-767.3" font-family="Times,serif" font-size="14.00"> Get %2 (l0)</text>
<text text-anchor="start" x="496.5" y="-752.3" font-family="Times,serif" font-size="14.00"> types = (integer, integer, integer)</text>
<text text-anchor="start" x="496.5" y="-737.3" font-family="Times,serif" font-size="14.00"> keys = ()</text>
<text text-anchor="start" x="496.5" y="-722.3" font-family="Times,serif" font-size="14.00"> Project (#1)</text>
<text text-anchor="start" x="496.5" y="-707.3" font-family="Times,serif" font-size="14.00"> types = (integer)</text>
<text text-anchor="start" x="496.5" y="-692.3" font-family="Times,serif" font-size="14.00"> keys = ()</text>
<text text-anchor="start" x="496.5" y="-677.3" font-family="Times,serif" font-size="14.00"> Distinct group=(#0)</text>
<text text-anchor="start" x="496.5" y="-662.3" font-family="Times,serif" font-size="14.00"> types = (integer)</text>
<text text-anchor="start" x="496.5" y="-647.3" font-family="Times,serif" font-size="14.00"> keys = ((#0))</text>
<text text-anchor="start" x="496.5" y="-632.3" font-family="Times,serif" font-size="14.00"> ArrangeBy (#0)</text>
<text text-anchor="start" x="496.5" y="-617.3" font-family="Times,serif" font-size="14.00"> types = (integer)</text>
<text text-anchor="start" x="496.5" y="-602.3" font-family="Times,serif" font-size="14.00"> keys = ((#0))</text>
</g>
<!-- node2&#45;&gt;node3 -->
<g id="edge5" class="edge">
<title>node2&#45;&gt;node3</title>
<path fill="none" stroke="black" d="M378.38,-849.47C412.34,-833.9 447.66,-816.38 479.5,-798 479.59,-797.95 479.69,-797.89 479.78,-797.84"/>
<polygon fill="black" stroke="black" points="481.66,-800.79 488.49,-792.69 478.1,-794.77 481.66,-800.79"/>
<text text-anchor="start" x="445.5" y="-819.8" font-family="Times,serif" font-size="14.00">%2</text>
</g>
<!-- node12 -->
<g id="node13" class="node">
<title>node12</title>
<polygon fill="none" stroke="black" points="16,-477.5 16,-575.5 337,-575.5 337,-477.5 16,-477.5"/>
<text text-anchor="start" x="24" y="-560.3" font-family="Times,serif" font-size="14.00">Get %2 (l0)</text>
<text text-anchor="start" x="24" y="-545.3" font-family="Times,serif" font-size="14.00"> types = (integer, integer, integer)</text>
<text text-anchor="start" x="24" y="-530.3" font-family="Times,serif" font-size="14.00"> keys = ()</text>
<text text-anchor="start" x="24" y="-515.3" font-family="Times,serif" font-size="14.00"> Project (#0, #1, #1, #2)</text>
<text text-anchor="start" x="24" y="-500.3" font-family="Times,serif" font-size="14.00"> types = (integer, integer, integer, integer)</text>
<text text-anchor="start" x="24" y="-485.3" font-family="Times,serif" font-size="14.00"> keys = ()</text>
</g>
<!-- node2&#45;&gt;node12 -->
<g id="edge9" class="edge">
<title>node2&#45;&gt;node12</title>
<path fill="none" stroke="black" d="M216.63,-849.36C207.51,-776.26 192.63,-656.85 183.78,-585.85"/>
<polygon fill="black" stroke="black" points="187.22,-585.23 182.51,-575.74 180.28,-586.1 187.22,-585.23"/>
<text text-anchor="start" x="214.5" y="-819.8" font-family="Times,serif" font-size="14.00">%2</text>
</g>
<!-- node5 -->
<g id="node6" class="node">
<title>node5</title>
<polygon fill="none" stroke="black" points="1016.5,-300.5 1016.5,-458.5 1342.5,-458.5 1342.5,-300.5 1016.5,-300.5"/>
<text text-anchor="start" x="1024.5" y="-443.3" font-family="Times,serif" font-size="14.00">Join %4 %3 (= #0 #2)</text>
<text text-anchor="start" x="1024.5" y="-428.3" font-family="Times,serif" font-size="14.00"> implementation = Differential %4 %3.(#0)</text>
<text text-anchor="start" x="1024.5" y="-413.3" font-family="Times,serif" font-size="14.00"> types = (integer, integer, integer)</text>
<text text-anchor="start" x="1024.5" y="-398.3" font-family="Times,serif" font-size="14.00"> keys = ()</text>
<text text-anchor="start" x="1024.5" y="-383.3" font-family="Times,serif" font-size="14.00"> Project (#0, #1)</text>
<text text-anchor="start" x="1024.5" y="-368.3" font-family="Times,serif" font-size="14.00"> types = (integer, integer)</text>
<text text-anchor="start" x="1024.5" y="-353.3" font-family="Times,serif" font-size="14.00"> keys = ()</text>
<text text-anchor="start" x="1024.5" y="-338.3" font-family="Times,serif" font-size="14.00"> Negate</text>
<text text-anchor="start" x="1024.5" y="-323.3" font-family="Times,serif" font-size="14.00"> types = (integer, integer)</text>
<text text-anchor="start" x="1024.5" y="-308.3" font-family="Times,serif" font-size="14.00"> keys = ()</text>
</g>
<!-- node3&#45;&gt;node5 -->
<g id="edge15" class="edge">
<title>node3&#45;&gt;node5</title>
<path fill="none" stroke="black" d="M750.8,-621.26C834.87,-574.05 944.14,-512.68 1031.32,-463.72"/>
<polygon fill="black" stroke="black" points="1033.22,-466.67 1040.23,-458.72 1029.79,-460.56 1033.22,-466.67"/>
<text text-anchor="start" x="997.5" y="-522.8" font-family="Times,serif" font-size="14.00">%3</text>
</g>
<!-- node9 -->
<g id="node10" class="node">
<title>node9</title>
<polygon fill="none" stroke="black" points="202.5,-300.5 202.5,-458.5 528.5,-458.5 528.5,-300.5 202.5,-300.5"/>
<text text-anchor="start" x="210.5" y="-443.3" font-family="Times,serif" font-size="14.00">Join %8 %3 (= #1 #2)</text>
<text text-anchor="start" x="210.5" y="-428.3" font-family="Times,serif" font-size="14.00"> implementation = Differential %8 %3.(#0)</text>
<text text-anchor="start" x="210.5" y="-413.3" font-family="Times,serif" font-size="14.00"> types = (integer, integer, integer)</text>
<text text-anchor="start" x="210.5" y="-398.3" font-family="Times,serif" font-size="14.00"> keys = ()</text>
<text text-anchor="start" x="210.5" y="-383.3" font-family="Times,serif" font-size="14.00"> Project (#0, #1)</text>
<text text-anchor="start" x="210.5" y="-368.3" font-family="Times,serif" font-size="14.00"> types = (integer, integer)</text>
<text text-anchor="start" x="210.5" y="-353.3" font-family="Times,serif" font-size="14.00"> keys = ()</text>
<text text-anchor="start" x="210.5" y="-338.3" font-family="Times,serif" font-size="14.00"> Negate</text>
<text text-anchor="start" x="210.5" y="-323.3" font-family="Times,serif" font-size="14.00"> types = (integer, integer)</text>
<text text-anchor="start" x="210.5" y="-308.3" font-family="Times,serif" font-size="14.00"> keys = ()</text>
</g>
<!-- node3&#45;&gt;node9 -->
<g id="edge7" class="edge">
<title>node3&#45;&gt;node9</title>
<path fill="none" stroke="black" d="M538.08,-594.19C504.82,-553.01 466.75,-505.87 434.85,-466.36"/>
<polygon fill="black" stroke="black" points="437.56,-464.15 428.55,-458.57 432.11,-468.55 437.56,-464.15"/>
<text text-anchor="start" x="522.5" y="-522.8" font-family="Times,serif" font-size="14.00">%3</text>
</g>
<!-- node4 -->
<g id="node5" class="node">
<title>node4</title>
<polygon fill="none" stroke="black" points="1070.5,-669.5 1070.5,-722.5 1288.5,-722.5 1288.5,-669.5 1070.5,-669.5"/>
<text text-anchor="start" x="1078.5" y="-707.3" font-family="Times,serif" font-size="14.00">Get outer_joins.public.r (u4)</text>
<text text-anchor="start" x="1078.5" y="-692.3" font-family="Times,serif" font-size="14.00"> types = (integer, integer)</text>
<text text-anchor="start" x="1078.5" y="-677.3" font-family="Times,serif" font-size="14.00"> keys = ()</text>
</g>
<!-- node4&#45;&gt;node5 -->
<g id="edge3" class="edge">
<title>node4&#45;&gt;node5</title>
<path fill="none" stroke="black" d="M1179.5,-669.26C1179.5,-626.01 1179.5,-536.8 1179.5,-468.92"/>
<polygon fill="black" stroke="black" points="1183,-468.64 1179.5,-458.64 1176,-468.64 1183,-468.64"/>
<text text-anchor="start" x="1179.5" y="-522.8" font-family="Times,serif" font-size="14.00">%4</text>
</g>
<!-- node7 -->
<g id="node8" class="node">
<title>node7</title>
<polygon fill="none" stroke="black" points="720,-105.5 720,-248.5 1059,-248.5 1059,-105.5 720,-105.5"/>
<text text-anchor="start" x="728" y="-233.3" font-family="Times,serif" font-size="14.00">Union %5 %6</text>
<text text-anchor="start" x="728" y="-218.3" font-family="Times,serif" font-size="14.00"> types = (integer, integer)</text>
<text text-anchor="start" x="728" y="-203.3" font-family="Times,serif" font-size="14.00"> keys = ()</text>
<text text-anchor="start" x="728" y="-188.3" font-family="Times,serif" font-size="14.00"> Map null, null</text>
<text text-anchor="start" x="728" y="-173.3" font-family="Times,serif" font-size="14.00"> types = (integer, integer, integer?, integer?)</text>
<text text-anchor="start" x="728" y="-158.3" font-family="Times,serif" font-size="14.00"> keys = ()</text>
<text text-anchor="start" x="728" y="-143.3" font-family="Times,serif" font-size="14.00"> Project (#2, #3, #0, #1)</text>
<text text-anchor="start" x="728" y="-128.3" font-family="Times,serif" font-size="14.00"> types = (integer?, integer?, integer, integer)</text>
<text text-anchor="start" x="728" y="-113.3" font-family="Times,serif" font-size="14.00"> keys = ()</text>
</g>
<!-- node5&#45;&gt;node7 -->
<g id="edge12" class="edge">
<title>node5&#45;&gt;node7</title>
<path fill="none" stroke="black" d="M1066.55,-300.41C1044.69,-285.29 1021.81,-269.48 1000.03,-254.42"/>
<polygon fill="black" stroke="black" points="1001.96,-251.49 991.74,-248.69 997.98,-257.25 1001.96,-251.49"/>
<text text-anchor="start" x="1034.5" y="-270.8" font-family="Times,serif" font-size="14.00">%5</text>
</g>
<!-- node6 -->
<g id="node7" class="node">
<title>node6</title>
<polygon fill="none" stroke="black" points="780.5,-353 780.5,-406 998.5,-406 998.5,-353 780.5,-353"/>
<text text-anchor="start" x="788.5" y="-390.8" font-family="Times,serif" font-size="14.00">Get outer_joins.public.r (u4)</text>
<text text-anchor="start" x="788.5" y="-375.8" font-family="Times,serif" font-size="14.00"> types = (integer, integer)</text>
<text text-anchor="start" x="788.5" y="-360.8" font-family="Times,serif" font-size="14.00"> keys = ()</text>
</g>
<!-- node6&#45;&gt;node7 -->
<g id="edge11" class="edge">
<title>node6&#45;&gt;node7</title>
<path fill="none" stroke="black" d="M889.5,-352.7C889.5,-328.93 889.5,-292.36 889.5,-258.82"/>
<polygon fill="black" stroke="black" points="893,-258.52 889.5,-248.52 886,-258.52 893,-258.52"/>
<text text-anchor="start" x="889.5" y="-270.8" font-family="Times,serif" font-size="14.00">%6</text>
</g>
<!-- node13 -->
<g id="node14" class="node">
<title>node13</title>
<polygon fill="none" stroke="black" points="273.5,-0.5 273.5,-53.5 629.5,-53.5 629.5,-0.5 273.5,-0.5"/>
<text text-anchor="start" x="281.5" y="-38.3" font-family="Times,serif" font-size="14.00">Union %7 %11 %12</text>
<text text-anchor="start" x="281.5" y="-23.3" font-family="Times,serif" font-size="14.00"> types = (integer?, integer?, integer?, integer?)</text>
<text text-anchor="start" x="281.5" y="-8.3" font-family="Times,serif" font-size="14.00"> keys = ()</text>
</g>
<!-- node7&#45;&gt;node13 -->
<g id="edge13" class="edge">
<title>node7&#45;&gt;node13</title>
<path fill="none" stroke="black" d="M719.84,-118.67C657.1,-97.47 588.66,-74.35 536.6,-56.76"/>
<polygon fill="black" stroke="black" points="537.67,-53.42 527.08,-53.54 535.43,-60.06 537.67,-53.42"/>
<text text-anchor="start" x="617.5" y="-75.8" font-family="Times,serif" font-size="14.00">%7</text>
</g>
<!-- node8 -->
<g id="node9" class="node">
<title>node8</title>
<polygon fill="none" stroke="black" points="255,-669.5 255,-722.5 470,-722.5 470,-669.5 255,-669.5"/>
<text text-anchor="start" x="263" y="-707.3" font-family="Times,serif" font-size="14.00">Get outer_joins.public.l (u2)</text>
<text text-anchor="start" x="263" y="-692.3" font-family="Times,serif" font-size="14.00"> types = (integer, integer)</text>
<text text-anchor="start" x="263" y="-677.3" font-family="Times,serif" font-size="14.00"> keys = ()</text>
</g>
<!-- node8&#45;&gt;node9 -->
<g id="edge6" class="edge">
<title>node8&#45;&gt;node9</title>
<path fill="none" stroke="black" d="M362.75,-669.26C363.16,-626.01 364.01,-536.8 364.66,-468.92"/>
<polygon fill="black" stroke="black" points="368.16,-468.67 364.75,-458.64 361.16,-468.61 368.16,-468.67"/>
<text text-anchor="start" x="364.5" y="-522.8" font-family="Times,serif" font-size="14.00">%8</text>
</g>
<!-- node11 -->
<g id="node12" class="node">
<title>node11</title>
<polygon fill="none" stroke="black" points="282.5,-128 282.5,-226 620.5,-226 620.5,-128 282.5,-128"/>
<text text-anchor="start" x="290.5" y="-210.8" font-family="Times,serif" font-size="14.00">Union %9 %10</text>
<text text-anchor="start" x="290.5" y="-195.8" font-family="Times,serif" font-size="14.00"> types = (integer, integer)</text>
<text text-anchor="start" x="290.5" y="-180.8" font-family="Times,serif" font-size="14.00"> keys = ()</text>
<text text-anchor="start" x="290.5" y="-165.8" font-family="Times,serif" font-size="14.00"> Map null, null</text>
<text text-anchor="start" x="290.5" y="-150.8" font-family="Times,serif" font-size="14.00"> types = (integer, integer, integer?, integer?)</text>
<text text-anchor="start" x="290.5" y="-135.8" font-family="Times,serif" font-size="14.00"> keys = ()</text>
</g>
<!-- node9&#45;&gt;node11 -->
<g id="edge14" class="edge">
<title>node9&#45;&gt;node11</title>
<path fill="none" stroke="black" d="M399,-300.41C408.28,-278.77 418.18,-255.67 426.86,-235.44"/>
<polygon fill="black" stroke="black" points="430.16,-236.63 430.88,-226.06 423.73,-233.88 430.16,-236.63"/>
<text text-anchor="start" x="410.5" y="-270.8" font-family="Times,serif" font-size="14.00">%9</text>
</g>
<!-- node10 -->
<g id="node11" class="node">
<title>node10</title>
<polygon fill="none" stroke="black" points="547,-353 547,-406 762,-406 762,-353 547,-353"/>
<text text-anchor="start" x="555" y="-390.8" font-family="Times,serif" font-size="14.00">Get outer_joins.public.l (u2)</text>
<text text-anchor="start" x="555" y="-375.8" font-family="Times,serif" font-size="14.00"> types = (integer, integer)</text>
<text text-anchor="start" x="555" y="-360.8" font-family="Times,serif" font-size="14.00"> keys = ()</text>
</g>
<!-- node10&#45;&gt;node11 -->
<g id="edge2" class="edge">
<title>node10&#45;&gt;node11</title>
<path fill="none" stroke="black" d="M628.38,-352.7C598.03,-322.73 547.1,-272.42 507.66,-233.47"/>
<polygon fill="black" stroke="black" points="510.01,-230.87 500.44,-226.33 505.09,-235.85 510.01,-230.87"/>
<text text-anchor="start" x="552.5" y="-270.8" font-family="Times,serif" font-size="14.00">%10</text>
</g>
<!-- node11&#45;&gt;node13 -->
<g id="edge8" class="edge">
<title>node11&#45;&gt;node13</title>
<path fill="none" stroke="black" d="M451.5,-127.95C451.5,-107.15 451.5,-83.23 451.5,-64"/>
<polygon fill="black" stroke="black" points="455,-63.85 451.5,-53.85 448,-63.85 455,-63.85"/>
<text text-anchor="start" x="451.5" y="-75.8" font-family="Times,serif" font-size="14.00">%11</text>
</g>
<!-- node12&#45;&gt;node13 -->
<g id="edge1" class="edge">
<title>node12&#45;&gt;node13</title>
<path fill="none" stroke="black" d="M172.69,-477.35C168.62,-390.46 173.41,-207.01 273.5,-105 293.75,-84.36 320.45,-68.9 346.98,-57.48"/>
<polygon fill="black" stroke="black" points="348.45,-60.66 356.35,-53.6 345.77,-54.19 348.45,-60.66"/>
<text text-anchor="start" x="189.5" y="-270.8" font-family="Times,serif" font-size="14.00">%12</text>
</g>
</g>
</svg>
