<?xml version="1.0" encoding="UTF-8" standalone="no"?>
<!DOCTYPE svg PUBLIC "-//W3C//DTD SVG 1.1//EN"
 "http://www.w3.org/Graphics/SVG/1.1/DTD/svg11.dtd">
<!-- Generated by graphviz version 2.43.0 (0)
 -->
<!-- Title: G Pages: 1 -->
<svg width="888pt" height="810pt"
 viewBox="0.00 0.00 887.50 810.00" xmlns="http://www.w3.org/2000/svg" xmlns:xlink="http://www.w3.org/1999/xlink">
<g id="graph0" class="graph" transform="scale(1 1) rotate(0) translate(4 806)">
<title>G</title>
<polygon fill="white" stroke="transparent" points="-4,4 -4,-806 883.5,-806 883.5,4 -4,4"/>
<!-- node0 -->
<g id="node1" class="node">
<title>node0</title>
<polygon fill="none" stroke="black" points="334.5,-763.5 334.5,-801.5 435.5,-801.5 435.5,-763.5 334.5,-763.5"/>
<text text-anchor="start" x="342.5" y="-786.3" font-family="Times,serif" font-size="14.00">Let l0 =</text>
<text text-anchor="start" x="342.5" y="-771.3" font-family="Times,serif" font-size="14.00"> Constant ()</text>
</g>
<!-- node2 -->
<g id="node3" class="node">
<title>node2</title>
<polygon fill="none" stroke="black" points="63.5,-658.5 63.5,-711.5 332.5,-711.5 332.5,-658.5 63.5,-658.5"/>
<text text-anchor="start" x="71.5" y="-696.3" font-family="Times,serif" font-size="14.00">Let l1 =</text>
<text text-anchor="start" x="71.5" y="-681.3" font-family="Times,serif" font-size="14.00"> Join %0 %1</text>
<text text-anchor="start" x="71.5" y="-666.3" font-family="Times,serif" font-size="14.00"> implementation = Unimplemented</text>
</g>
<!-- node0&#45;&gt;node2 -->
<g id="edge7" class="edge">
<title>node0&#45;&gt;node2</title>
<path fill="none" stroke="black" d="M349.39,-763.31C323.36,-750.02 287.47,-731.69 257.17,-716.22"/>
<polygon fill="black" stroke="black" points="258.46,-712.95 247.96,-711.51 255.27,-719.18 258.46,-712.95"/>
<text text-anchor="start" x="309" y="-733.8" font-family="Times,serif" font-size="14.00">%0</text>
</g>
<!-- node4 -->
<g id="node5" class="node">
<title>node4</title>
<polygon fill="none" stroke="black" points="443.5,-658.5 443.5,-711.5 712.5,-711.5 712.5,-658.5 443.5,-658.5"/>
<text text-anchor="start" x="451.5" y="-696.3" font-family="Times,serif" font-size="14.00">Let l2 =</text>
<text text-anchor="start" x="451.5" y="-681.3" font-family="Times,serif" font-size="14.00"> Join %0 %3</text>
<text text-anchor="start" x="451.5" y="-666.3" font-family="Times,serif" font-size="14.00"> implementation = Unimplemented</text>
</g>
<!-- node0&#45;&gt;node4 -->
<g id="edge6" class="edge">
<title>node0&#45;&gt;node4</title>
<path fill="none" stroke="black" d="M421.76,-763.31C448.73,-749.96 485.98,-731.53 517.34,-716.02"/>
<polygon fill="black" stroke="black" points="519.03,-719.09 526.44,-711.51 515.92,-712.81 519.03,-719.09"/>
<text text-anchor="start" x="487" y="-733.8" font-family="Times,serif" font-size="14.00">%0</text>
</g>
<!-- node1 -->
<g id="node2" class="node">
<title>node1</title>
<polygon fill="none" stroke="black" points="88.5,-764.5 88.5,-800.5 307.5,-800.5 307.5,-764.5 88.5,-764.5"/>
<text text-anchor="start" x="96.5" y="-778.8" font-family="Times,serif" font-size="14.00">Get tpch.public.orders (u68)</text>
</g>
<!-- node1&#45;&gt;node2 -->
<g id="edge1" class="edge">
<title>node1&#45;&gt;node2</title>
<path fill="none" stroke="black" d="M198,-764.43C198,-752.6 198,-736.41 198,-721.82"/>
<polygon fill="black" stroke="black" points="201.5,-721.55 198,-711.55 194.5,-721.56 201.5,-721.55"/>
<text text-anchor="start" x="198" y="-733.8" font-family="Times,serif" font-size="14.00">%1</text>
</g>
<!-- node5 -->
<g id="node6" class="node">
<title>node5</title>
<polygon fill="none" stroke="black" points="255.5,-523.5 255.5,-606.5 524.5,-606.5 524.5,-523.5 255.5,-523.5"/>
<text text-anchor="start" x="263.5" y="-591.3" font-family="Times,serif" font-size="14.00">Let l3 =</text>
<text text-anchor="start" x="263.5" y="-576.3" font-family="Times,serif" font-size="14.00"> Join %2 %4</text>
<text text-anchor="start" x="263.5" y="-561.3" font-family="Times,serif" font-size="14.00"> implementation = Unimplemented</text>
<text text-anchor="start" x="263.5" y="-546.3" font-family="Times,serif" font-size="14.00"> Project (#0..=#16)</text>
<text text-anchor="start" x="263.5" y="-531.3" font-family="Times,serif" font-size="14.00"> Filter (#14 = #3)</text>
</g>
<!-- node2&#45;&gt;node5 -->
<g id="edge10" class="edge">
<title>node2&#45;&gt;node5</title>
<path fill="none" stroke="black" d="M239.66,-658.4C261.76,-644.82 289.58,-627.72 315.27,-611.93"/>
<polygon fill="black" stroke="black" points="317.2,-614.85 323.88,-606.63 313.53,-608.89 317.2,-614.85"/>
<text text-anchor="start" x="294" y="-628.8" font-family="Times,serif" font-size="14.00">%2</text>
</g>
<!-- node9 -->
<g id="node10" class="node">
<title>node9</title>
<polygon fill="none" stroke="black" points="58.5,-283.5 58.5,-351.5 327.5,-351.5 327.5,-283.5 58.5,-283.5"/>
<text text-anchor="start" x="66.5" y="-336.3" font-family="Times,serif" font-size="14.00">Join %2 %6 (= #3 #9)</text>
<text text-anchor="start" x="66.5" y="-321.3" font-family="Times,serif" font-size="14.00"> implementation = Unimplemented</text>
<text text-anchor="start" x="66.5" y="-306.3" font-family="Times,serif" font-size="14.00"> Project (#0..=#8)</text>
<text text-anchor="start" x="66.5" y="-291.3" font-family="Times,serif" font-size="14.00"> Negate</text>
</g>
<!-- node2&#45;&gt;node9 -->
<g id="edge2" class="edge">
<title>node2&#45;&gt;node9</title>
<path fill="none" stroke="black" d="M197.65,-658.3C196.8,-596.45 194.65,-438.79 193.59,-361.94"/>
<polygon fill="black" stroke="black" points="197.09,-361.6 193.45,-351.65 190.09,-361.69 197.09,-361.6"/>
<text text-anchor="start" x="196" y="-493.8" font-family="Times,serif" font-size="14.00">%2</text>
</g>
<!-- node10 -->
<g id="node11" class="node">
<title>node10</title>
<polygon fill="none" stroke="black" points="0,-186 0,-224 336,-224 336,-186 0,-186"/>
<text text-anchor="start" x="8" y="-208.8" font-family="Times,serif" font-size="14.00">Union %9 %2</text>
<text text-anchor="start" x="8" y="-193.8" font-family="Times,serif" font-size="14.00"> Map null, null, null, null, null, null, null, null</text>
</g>
<!-- node2&#45;&gt;node10 -->
<g id="edge5" class="edge">
<title>node2&#45;&gt;node10</title>
<path fill="none" stroke="black" d="M112.03,-658.36C70.7,-640.2 30,-610.91 30,-566 30,-566 30,-566 30,-316.5 30,-274.62 69.2,-246 105.81,-228.39"/>
<polygon fill="black" stroke="black" points="107.41,-231.51 115.04,-224.15 104.49,-225.15 107.41,-231.51"/>
<text text-anchor="start" x="30" y="-433.8" font-family="Times,serif" font-size="14.00">%2</text>
</g>
<!-- node3 -->
<g id="node4" class="node">
<title>node3</title>
<polygon fill="none" stroke="black" points="458.5,-764.5 458.5,-800.5 697.5,-800.5 697.5,-764.5 458.5,-764.5"/>
<text text-anchor="start" x="466.5" y="-778.8" font-family="Times,serif" font-size="14.00">Get tpch.public.customer (u64)</text>
</g>
<!-- node3&#45;&gt;node4 -->
<g id="edge14" class="edge">
<title>node3&#45;&gt;node4</title>
<path fill="none" stroke="black" d="M578,-764.43C578,-752.6 578,-736.41 578,-721.82"/>
<polygon fill="black" stroke="black" points="581.5,-721.55 578,-711.55 574.5,-721.56 581.5,-721.55"/>
<text text-anchor="start" x="578" y="-733.8" font-family="Times,serif" font-size="14.00">%3</text>
</g>
<!-- node4&#45;&gt;node5 -->
<g id="edge16" class="edge">
<title>node4&#45;&gt;node5</title>
<path fill="none" stroke="black" d="M537.21,-658.4C515.66,-644.87 488.56,-627.86 463.5,-612.14"/>
<polygon fill="black" stroke="black" points="465.07,-608.99 454.74,-606.63 461.35,-614.91 465.07,-608.99"/>
<text text-anchor="start" x="506" y="-628.8" font-family="Times,serif" font-size="14.00">%4</text>
</g>
<!-- node7 -->
<g id="node8" class="node">
<title>node7</title>
<polygon fill="none" stroke="black" points="610.5,-283.5 610.5,-351.5 879.5,-351.5 879.5,-283.5 610.5,-283.5"/>
<text text-anchor="start" x="618.5" y="-336.3" font-family="Times,serif" font-size="14.00">Join %4 %6 (= #5 #8)</text>
<text text-anchor="start" x="618.5" y="-321.3" font-family="Times,serif" font-size="14.00"> implementation = Unimplemented</text>
<text text-anchor="start" x="618.5" y="-306.3" font-family="Times,serif" font-size="14.00"> Project (#0..=#7)</text>
<text text-anchor="start" x="618.5" y="-291.3" font-family="Times,serif" font-size="14.00"> Negate</text>
</g>
<!-- node4&#45;&gt;node7 -->
<g id="edge15" class="edge">
<title>node4&#45;&gt;node7</title>
<path fill="none" stroke="black" d="M589.74,-658.3C618.12,-596.2 690.63,-437.5 725.58,-361"/>
<polygon fill="black" stroke="black" points="728.88,-362.2 729.86,-351.65 722.52,-359.29 728.88,-362.2"/>
<text text-anchor="start" x="665" y="-493.8" font-family="Times,serif" font-size="14.00">%4</text>
</g>
<!-- node8 -->
<g id="node9" class="node">
<title>node8</title>
<polygon fill="none" stroke="black" points="396,-178.5 396,-231.5 768,-231.5 768,-178.5 396,-178.5"/>
<text text-anchor="start" x="404" y="-216.3" font-family="Times,serif" font-size="14.00">Union %7 %4</text>
<text text-anchor="start" x="404" y="-201.3" font-family="Times,serif" font-size="14.00"> Map null, null, null, null, null, null, null, null, null</text>
<text text-anchor="start" x="404" y="-186.3" font-family="Times,serif" font-size="14.00"> Project (#8..=#16, #0..=#7)</text>
</g>
<!-- node4&#45;&gt;node8 -->
<g id="edge3" class="edge">
<title>node4&#45;&gt;node8</title>
<path fill="none" stroke="black" d="M579.38,-658.23C580.53,-634.33 582,-597.77 582,-566 582,-566 582,-566 582,-316.5 582,-291.61 582,-263.56 582,-241.95"/>
<polygon fill="black" stroke="black" points="585.5,-241.9 582,-231.9 578.5,-241.9 585.5,-241.9"/>
<text text-anchor="start" x="582" y="-433.8" font-family="Times,serif" font-size="14.00">%4</text>
</g>
<!-- node6 -->
<g id="node7" class="node">
<title>node6</title>
<polygon fill="none" stroke="black" points="379.5,-403.5 379.5,-471.5 546.5,-471.5 546.5,-403.5 379.5,-403.5"/>
<text text-anchor="start" x="387.5" y="-456.3" font-family="Times,serif" font-size="14.00">Let l4 =</text>
<text text-anchor="start" x="387.5" y="-441.3" font-family="Times,serif" font-size="14.00"> Get %5 (l3)</text>
<text text-anchor="start" x="387.5" y="-426.3" font-family="Times,serif" font-size="14.00"> Project (#3)</text>
<text text-anchor="start" x="387.5" y="-411.3" font-family="Times,serif" font-size="14.00"> Distinct group=(#0)</text>
</g>
<!-- node5&#45;&gt;node6 -->
<g id="edge17" class="edge">
<title>node5&#45;&gt;node6</title>
<path fill="none" stroke="black" d="M413.7,-523.25C421.69,-509.52 430.62,-494.17 438.66,-480.34"/>
<polygon fill="black" stroke="black" points="441.79,-481.92 443.8,-471.51 435.74,-478.4 441.79,-481.92"/>
<text text-anchor="start" x="433" y="-493.8" font-family="Times,serif" font-size="14.00">%5</text>
</g>
<!-- node11 -->
<g id="node12" class="node">
<title>node11</title>
<polygon fill="none" stroke="black" points="303,-90.5 303,-126.5 425,-126.5 425,-90.5 303,-90.5"/>
<text text-anchor="start" x="311" y="-104.8" font-family="Times,serif" font-size="14.00">Union %10 %5</text>
</g>
<!-- node5&#45;&gt;node11 -->
<g id="edge18" class="edge">
<title>node5&#45;&gt;node11</title>
<path fill="none" stroke="black" d="M379.96,-523.5C376.44,-507.55 372.91,-489.02 371,-472 357.06,-347.45 360.57,-197.36 362.82,-136.8"/>
<polygon fill="black" stroke="black" points="366.32,-136.69 363.22,-126.56 359.33,-136.41 366.32,-136.69"/>
<text text-anchor="start" x="362" y="-313.8" font-family="Times,serif" font-size="14.00">%5</text>
</g>
<!-- node6&#45;&gt;node7 -->
<g id="edge12" class="edge">
<title>node6&#45;&gt;node7</title>
<path fill="none" stroke="black" d="M541.93,-403.47C577.53,-388.58 619.72,-370.92 656.4,-355.57"/>
<polygon fill="black" stroke="black" points="658.22,-358.61 666.09,-351.52 655.52,-352.15 658.22,-358.61"/>
<text text-anchor="start" x="620" y="-373.8" font-family="Times,serif" font-size="14.00">%6</text>
</g>
<!-- node6&#45;&gt;node9 -->
<g id="edge4" class="edge">
<title>node6&#45;&gt;node9</title>
<path fill="none" stroke="black" d="M387.43,-403.47C353.35,-388.58 312.95,-370.92 277.83,-355.57"/>
<polygon fill="black" stroke="black" points="279.12,-352.32 268.55,-351.52 276.31,-358.73 279.12,-352.32"/>
<text text-anchor="start" x="344" y="-373.8" font-family="Times,serif" font-size="14.00">%6</text>
</g>
<!-- node7&#45;&gt;node8 -->
<g id="edge19" class="edge">
<title>node7&#45;&gt;node8</title>
<path fill="none" stroke="black" d="M696.09,-283.35C674.58,-268.76 649.44,-251.72 628.25,-237.35"/>
<polygon fill="black" stroke="black" points="629.97,-234.29 619.73,-231.58 626.04,-240.09 629.97,-234.29"/>
<text text-anchor="start" x="668" y="-253.8" font-family="Times,serif" font-size="14.00">%7</text>
</g>
<!-- node12 -->
<g id="node13" class="node">
<title>node12</title>
<polygon fill="none" stroke="black" points="250,-0.5 250,-38.5 690,-38.5 690,-0.5 250,-0.5"/>
<text text-anchor="start" x="258" y="-23.3" font-family="Times,serif" font-size="14.00">Union %8 %11</text>
<text text-anchor="start" x="258" y="-8.3" font-family="Times,serif" font-size="14.00"> Filter (((#14 + #3) = i32tonumeric(123)) &amp;&amp; (#14 = #3))</text>
</g>
<!-- node8&#45;&gt;node12 -->
<g id="edge8" class="edge">
<title>node8&#45;&gt;node12</title>
<path fill="none" stroke="black" d="M566.43,-178.49C545.35,-143.95 507.91,-82.62 486.41,-47.39"/>
<polygon fill="black" stroke="black" points="489.25,-45.32 481.05,-38.61 483.27,-48.97 489.25,-45.32"/>
<text text-anchor="start" x="533" y="-104.8" font-family="Times,serif" font-size="14.00">%8</text>
</g>
<!-- node9&#45;&gt;node10 -->
<g id="edge13" class="edge">
<title>node9&#45;&gt;node10</title>
<path fill="none" stroke="black" d="M185.5,-283.35C181.92,-267.54 177.69,-248.85 174.29,-233.8"/>
<polygon fill="black" stroke="black" points="177.7,-233.02 172.08,-224.04 170.87,-234.57 177.7,-233.02"/>
<text text-anchor="start" x="182" y="-253.8" font-family="Times,serif" font-size="14.00">%9</text>
</g>
<!-- node10&#45;&gt;node11 -->
<g id="edge11" class="edge">
<title>node10&#45;&gt;node11</title>
<path fill="none" stroke="black" d="M205.79,-185.78C238.23,-170.14 285.03,-147.57 319.32,-131.04"/>
<polygon fill="black" stroke="black" points="321.15,-134.05 328.63,-126.55 318.11,-127.74 321.15,-134.05"/>
<text text-anchor="start" x="290" y="-148.8" font-family="Times,serif" font-size="14.00">%10</text>
</g>
<!-- node11&#45;&gt;node12 -->
<g id="edge9" class="edge">
<title>node11&#45;&gt;node12</title>
<path fill="none" stroke="black" d="M384.94,-90.31C400.74,-77.34 422.63,-59.38 440.25,-44.92"/>
<polygon fill="black" stroke="black" points="442.5,-47.6 448.01,-38.55 438.06,-42.19 442.5,-47.6"/>
<text text-anchor="start" x="423" y="-60.8" font-family="Times,serif" font-size="14.00">%11</text>
</g>
</g>
</svg>
