<?xml version="1.0" encoding="UTF-8" standalone="no"?>
<!DOCTYPE svg PUBLIC "-//W3C//DTD SVG 1.1//EN"
 "http://www.w3.org/Graphics/SVG/1.1/DTD/svg11.dtd">
<!-- Generated by graphviz version 2.43.0 (0)
 -->
<!-- Title: G Pages: 1 -->
<svg width="484pt" height="167pt"
 viewBox="0.00 0.00 484.00 167.00" xmlns="http://www.w3.org/2000/svg" xmlns:xlink="http://www.w3.org/1999/xlink">
<g id="graph0" class="graph" transform="scale(1 1) rotate(0) translate(4 163)">
<title>G</title>
<polygon fill="white" stroke="transparent" points="-4,4 -4,-163 480,-163 480,4 -4,4"/>
<!-- node0 -->
<g id="node1" class="node">
<title>node0</title>
<polygon fill="none" stroke="black" points="0,-105.5 0,-158.5 219,-158.5 219,-105.5 0,-105.5"/>
<text text-anchor="start" x="8" y="-143.3" font-family="Times,serif" font-size="14.00">Get tpch.public.orders (u68)</text>
<text text-anchor="start" x="8" y="-128.3" font-family="Times,serif" font-size="14.00"> Filter (123 = (#3 + #3))</text>
<text text-anchor="start" x="8" y="-113.3" font-family="Times,serif" font-size="14.00"> ArrangeBy (#3)</text>
</g>
<!-- node2 -->
<g id="node3" class="node">
<title>node2</title>
<polygon fill="none" stroke="black" points="69.5,-0.5 69.5,-53.5 395.5,-53.5 395.5,-0.5 69.5,-0.5"/>
<text text-anchor="start" x="77.5" y="-38.3" font-family="Times,serif" font-size="14.00">Join %0 %1 (= #3 #14)</text>
<text text-anchor="start" x="77.5" y="-23.3" font-family="Times,serif" font-size="14.00"> implementation = Differential %1 %0.(#3)</text>
<text text-anchor="start" x="77.5" y="-8.3" font-family="Times,serif" font-size="14.00"> Project (#0..=#13, #3, #15, #16)</text>
</g>
<!-- node0&#45;&gt;node2 -->
<g id="edge2" class="edge">
<title>node0&#45;&gt;node2</title>
<path fill="none" stroke="black" d="M140.22,-105.27C156.51,-91.63 176.68,-74.74 194.01,-60.23"/>
<polygon fill="black" stroke="black" points="196.32,-62.86 201.74,-53.75 191.83,-57.49 196.32,-62.86"/>
<text text-anchor="start" x="178.5" y="-75.8" font-family="Times,serif" font-size="14.00">%0</text>
</g>
<!-- node1 -->
<g id="node2" class="node">
<title>node1</title>
<polygon fill="none" stroke="black" points="237,-113 237,-151 476,-151 476,-113 237,-113"/>
<text text-anchor="start" x="245" y="-135.8" font-family="Times,serif" font-size="14.00">Get tpch.public.customer (u64)</text>
<text text-anchor="start" x="245" y="-120.8" font-family="Times,serif" font-size="14.00"> Filter (123 = (#5 + #5))</text>
</g>
<!-- node1&#45;&gt;node2 -->
<g id="edge1" class="edge">
<title>node1&#45;&gt;node2</title>
<path fill="none" stroke="black" d="M334.62,-112.82C317.11,-98.28 292.12,-77.52 271.24,-60.18"/>
<polygon fill="black" stroke="black" points="273.4,-57.42 263.47,-53.72 268.92,-62.81 273.4,-57.42"/>
<text text-anchor="start" x="302.5" y="-75.8" font-family="Times,serif" font-size="14.00">%1</text>
</g>
</g>
</svg>
