<?xml version="1.0" encoding="UTF-8" standalone="no"?>
<!DOCTYPE svg PUBLIC "-//W3C//DTD SVG 1.1//EN"
 "http://www.w3.org/Graphics/SVG/1.1/DTD/svg11.dtd">
<!-- Generated by graphviz version 2.43.0 (0)
 -->
<!-- Title: G Pages: 1 -->
<svg width="911pt" height="1264pt"
 viewBox="0.00 0.00 911.00 1264.00" xmlns="http://www.w3.org/2000/svg" xmlns:xlink="http://www.w3.org/1999/xlink">
<g id="graph0" class="graph" transform="scale(1 1) rotate(0) translate(4 1260)">
<title>G</title>
<polygon fill="white" stroke="transparent" points="-4,4 -4,-1260 907,-1260 907,4 -4,4"/>
<g id="clust1" class="cluster">
<title>cluster3</title>
<polygon fill="none" stroke="black" points="303,-771 303,-1248 895,-1248 895,-771 303,-771"/>
<text text-anchor="middle" x="353.5" y="-1232.8" font-family="Times,serif" font-size="14.00">Box3:Select</text>
</g>
<g id="clust3" class="cluster">
<title>cluster0</title>
<polygon fill="none" stroke="black" points="83,-286 83,-763 429,-763 429,-286 83,-286"/>
<text text-anchor="middle" x="145.5" y="-747.8" font-family="Times,serif" font-size="14.00">Box0:OuterJoin</text>
</g>
<g id="clust5" class="cluster">
<title>cluster1</title>
<polygon fill="none" stroke="black" points="8,-8 8,-278 170,-278 170,-8 8,-8"/>
<text text-anchor="middle" x="49.5" y="-262.8" font-family="Times,serif" font-size="14.00">Box1:Get</text>
</g>
<g id="clust7" class="cluster">
<title>cluster2</title>
<polygon fill="none" stroke="black" points="178,-19.5 178,-266.5 340,-266.5 340,-19.5 178,-19.5"/>
<text text-anchor="middle" x="219.5" y="-251.3" font-family="Times,serif" font-size="14.00">Box2:Get</text>
</g>
<!-- boxhead3 -->
<g id="node1" class="node">
<title>boxhead3</title>
<polygon fill="none" stroke="black" points="403,-779.5 403,-1216.5 887,-1216.5 887,-779.5 403,-779.5"/>
<text text-anchor="middle" x="645" y="-1201.3" font-family="Times,serif" font-size="14.00">Distinct: Preserve</text>
<polyline fill="none" stroke="black" points="403,-1193.5 887,-1193.5 "/>
<text text-anchor="middle" x="645" y="-1178.3" font-family="Times,serif" font-size="14.00">0: Q2.C0</text>
<polyline fill="none" stroke="black" points="403,-1170.5 887,-1170.5 "/>
<text text-anchor="middle" x="645" y="-1155.3" font-family="Times,serif" font-size="14.00">1: Q2.C1</text>
<polyline fill="none" stroke="black" points="403,-1147.5 887,-1147.5 "/>
<text text-anchor="middle" x="645" y="-1132.3" font-family="Times,serif" font-size="14.00">2: Q2.C2</text>
<polyline fill="none" stroke="black" points="403,-1124.5 887,-1124.5 "/>
<text text-anchor="middle" x="645" y="-1109.3" font-family="Times,serif" font-size="14.00">3: Q2.C3</text>
<polyline fill="none" stroke="black" points="403,-1101.5 887,-1101.5 "/>
<text text-anchor="middle" x="645" y="-1086.3" font-family="Times,serif" font-size="14.00">4: Q2.C4</text>
<polyline fill="none" stroke="black" points="403,-1078.5 887,-1078.5 "/>
<text text-anchor="middle" x="645" y="-1063.3" font-family="Times,serif" font-size="14.00">5: Q2.C5</text>
<polyline fill="none" stroke="black" points="403,-1055.5 887,-1055.5 "/>
<text text-anchor="middle" x="645" y="-1040.3" font-family="Times,serif" font-size="14.00">6: Q2.C6</text>
<polyline fill="none" stroke="black" points="403,-1032.5 887,-1032.5 "/>
<text text-anchor="middle" x="645" y="-1017.3" font-family="Times,serif" font-size="14.00">7: Q2.C7</text>
<polyline fill="none" stroke="black" points="403,-1009.5 887,-1009.5 "/>
<text text-anchor="middle" x="645" y="-994.3" font-family="Times,serif" font-size="14.00">8: Q2.C8</text>
<polyline fill="none" stroke="black" points="403,-986.5 887,-986.5 "/>
<text text-anchor="middle" x="645" y="-971.3" font-family="Times,serif" font-size="14.00">9: Q2.C9</text>
<polyline fill="none" stroke="black" points="403,-963.5 887,-963.5 "/>
<text text-anchor="middle" x="645" y="-948.3" font-family="Times,serif" font-size="14.00">10: Q2.C10</text>
<polyline fill="none" stroke="black" points="403,-940.5 887,-940.5 "/>
<text text-anchor="middle" x="645" y="-925.3" font-family="Times,serif" font-size="14.00">11: Q2.C11</text>
<polyline fill="none" stroke="black" points="403,-917.5 887,-917.5 "/>
<text text-anchor="middle" x="645" y="-902.3" font-family="Times,serif" font-size="14.00">12: Q2.C12</text>
<polyline fill="none" stroke="black" points="403,-894.5 887,-894.5 "/>
<text text-anchor="middle" x="645" y="-879.3" font-family="Times,serif" font-size="14.00">13: Q2.C13</text>
<polyline fill="none" stroke="black" points="403,-871.5 887,-871.5 "/>
<text text-anchor="middle" x="645" y="-856.3" font-family="Times,serif" font-size="14.00">14: Q2.C14</text>
<polyline fill="none" stroke="black" points="403,-848.5 887,-848.5 "/>
<text text-anchor="middle" x="645" y="-833.3" font-family="Times,serif" font-size="14.00">15: Q2.C15</text>
<polyline fill="none" stroke="black" points="403,-825.5 887,-825.5 "/>
<text text-anchor="middle" x="645" y="-810.3" font-family="Times,serif" font-size="14.00">16: Q2.C16</text>
<polyline fill="none" stroke="black" points="403,-802.5 887,-802.5 "/>
<text text-anchor="middle" x="645" y="-787.3" font-family="Times,serif" font-size="14.00">(((Q2.C14 + Q2.C3) = i32tonumeric(123)) &amp;&amp; (Q2.C14 = Q2.C3))</text>
</g>
<!-- Q2 -->
<g id="node2" class="node">
<title>Q2</title>
<ellipse fill="none" stroke="black" cx="348" cy="-998" rx="37.09" ry="37.09"/>
<text text-anchor="middle" x="348" y="-994.3" font-family="Times,serif" font-size="14.00">Q2(F)</text>
</g>
<!-- boxhead0 -->
<g id="node3" class="node">
<title>boxhead0</title>
<polygon fill="none" stroke="black" points="275,-294.5 275,-731.5 421,-731.5 421,-294.5 275,-294.5"/>
<text text-anchor="middle" x="348" y="-716.3" font-family="Times,serif" font-size="14.00">Distinct: Preserve</text>
<polyline fill="none" stroke="black" points="275,-708.5 421,-708.5 "/>
<text text-anchor="middle" x="348" y="-693.3" font-family="Times,serif" font-size="14.00">0: Q0.C0</text>
<polyline fill="none" stroke="black" points="275,-685.5 421,-685.5 "/>
<text text-anchor="middle" x="348" y="-670.3" font-family="Times,serif" font-size="14.00">1: Q0.C1</text>
<polyline fill="none" stroke="black" points="275,-662.5 421,-662.5 "/>
<text text-anchor="middle" x="348" y="-647.3" font-family="Times,serif" font-size="14.00">2: Q0.C2</text>
<polyline fill="none" stroke="black" points="275,-639.5 421,-639.5 "/>
<text text-anchor="middle" x="348" y="-624.3" font-family="Times,serif" font-size="14.00">3: Q0.C3</text>
<polyline fill="none" stroke="black" points="275,-616.5 421,-616.5 "/>
<text text-anchor="middle" x="348" y="-601.3" font-family="Times,serif" font-size="14.00">4: Q0.C4</text>
<polyline fill="none" stroke="black" points="275,-593.5 421,-593.5 "/>
<text text-anchor="middle" x="348" y="-578.3" font-family="Times,serif" font-size="14.00">5: Q0.C5</text>
<polyline fill="none" stroke="black" points="275,-570.5 421,-570.5 "/>
<text text-anchor="middle" x="348" y="-555.3" font-family="Times,serif" font-size="14.00">6: Q0.C6</text>
<polyline fill="none" stroke="black" points="275,-547.5 421,-547.5 "/>
<text text-anchor="middle" x="348" y="-532.3" font-family="Times,serif" font-size="14.00">7: Q0.C7</text>
<polyline fill="none" stroke="black" points="275,-524.5 421,-524.5 "/>
<text text-anchor="middle" x="348" y="-509.3" font-family="Times,serif" font-size="14.00">8: Q0.C8</text>
<polyline fill="none" stroke="black" points="275,-501.5 421,-501.5 "/>
<text text-anchor="middle" x="348" y="-486.3" font-family="Times,serif" font-size="14.00">9: Q1.C0</text>
<polyline fill="none" stroke="black" points="275,-478.5 421,-478.5 "/>
<text text-anchor="middle" x="348" y="-463.3" font-family="Times,serif" font-size="14.00">10: Q1.C1</text>
<polyline fill="none" stroke="black" points="275,-455.5 421,-455.5 "/>
<text text-anchor="middle" x="348" y="-440.3" font-family="Times,serif" font-size="14.00">11: Q1.C2</text>
<polyline fill="none" stroke="black" points="275,-432.5 421,-432.5 "/>
<text text-anchor="middle" x="348" y="-417.3" font-family="Times,serif" font-size="14.00">12: Q1.C3</text>
<polyline fill="none" stroke="black" points="275,-409.5 421,-409.5 "/>
<text text-anchor="middle" x="348" y="-394.3" font-family="Times,serif" font-size="14.00">13: Q1.C4</text>
<polyline fill="none" stroke="black" points="275,-386.5 421,-386.5 "/>
<text text-anchor="middle" x="348" y="-371.3" font-family="Times,serif" font-size="14.00">14: Q1.C5</text>
<polyline fill="none" stroke="black" points="275,-363.5 421,-363.5 "/>
<text text-anchor="middle" x="348" y="-348.3" font-family="Times,serif" font-size="14.00">15: Q1.C6</text>
<polyline fill="none" stroke="black" points="275,-340.5 421,-340.5 "/>
<text text-anchor="middle" x="348" y="-325.3" font-family="Times,serif" font-size="14.00">16: Q1.C7</text>
<polyline fill="none" stroke="black" points="275,-317.5 421,-317.5 "/>
<text text-anchor="middle" x="348" y="-302.3" font-family="Times,serif" font-size="14.00">(Q1.C5 = Q0.C3)</text>
</g>
<!-- Q2&#45;&gt;boxhead0 -->
<g id="edge1" class="edge">
<title>Q2&#45;&gt;boxhead0</title>
<path fill="none" stroke="black" stroke-dasharray="5,2" d="M348,-960.7C348,-917.27 348,-840.65 348,-763"/>
</g>
<!-- Q0 -->
<g id="node4" class="node">
<title>Q0</title>
<ellipse fill="none" stroke="black" cx="128" cy="-513" rx="37.09" ry="37.09"/>
<text text-anchor="middle" x="128" y="-509.3" font-family="Times,serif" font-size="14.00">Q0(P)</text>
</g>
<!-- boxhead1 -->
<g id="node6" class="node">
<title>boxhead1</title>
<polygon fill="none" stroke="black" points="16,-16.5 16,-246.5 162,-246.5 162,-16.5 16,-16.5"/>
<text text-anchor="middle" x="89" y="-231.3" font-family="Times,serif" font-size="14.00">Distinct: Preserve</text>
<polyline fill="none" stroke="black" points="16,-223.5 162,-223.5 "/>
<text text-anchor="middle" x="89" y="-208.3" font-family="Times,serif" font-size="14.00">0: C0</text>
<polyline fill="none" stroke="black" points="16,-200.5 162,-200.5 "/>
<text text-anchor="middle" x="89" y="-185.3" font-family="Times,serif" font-size="14.00">1: C1</text>
<polyline fill="none" stroke="black" points="16,-177.5 162,-177.5 "/>
<text text-anchor="middle" x="89" y="-162.3" font-family="Times,serif" font-size="14.00">2: C2</text>
<polyline fill="none" stroke="black" points="16,-154.5 162,-154.5 "/>
<text text-anchor="middle" x="89" y="-139.3" font-family="Times,serif" font-size="14.00">3: C3</text>
<polyline fill="none" stroke="black" points="16,-131.5 162,-131.5 "/>
<text text-anchor="middle" x="89" y="-116.3" font-family="Times,serif" font-size="14.00">4: C4</text>
<polyline fill="none" stroke="black" points="16,-108.5 162,-108.5 "/>
<text text-anchor="middle" x="89" y="-93.3" font-family="Times,serif" font-size="14.00">5: C5</text>
<polyline fill="none" stroke="black" points="16,-85.5 162,-85.5 "/>
<text text-anchor="middle" x="89" y="-70.3" font-family="Times,serif" font-size="14.00">6: C6</text>
<polyline fill="none" stroke="black" points="16,-62.5 162,-62.5 "/>
<text text-anchor="middle" x="89" y="-47.3" font-family="Times,serif" font-size="14.00">7: C7</text>
<polyline fill="none" stroke="black" points="16,-39.5 162,-39.5 "/>
<text text-anchor="middle" x="89" y="-24.3" font-family="Times,serif" font-size="14.00">8: C8</text>
</g>
<!-- Q0&#45;&gt;boxhead1 -->
<g id="edge2" class="edge">
<title>Q0&#45;&gt;boxhead1</title>
<path fill="none" stroke="black" stroke-dasharray="5,2" d="M124.3,-475.96C119.63,-430.56 111.33,-349.8 103.95,-278"/>
</g>
<!-- Q1 -->
<g id="node5" class="node">
<title>Q1</title>
<ellipse fill="none" stroke="black" cx="220" cy="-513" rx="37.09" ry="37.09"/>
<text text-anchor="middle" x="220" y="-509.3" font-family="Times,serif" font-size="14.00">Q1(P)</text>
</g>
<!-- boxhead2 -->
<g id="node7" class="node">
<title>boxhead2</title>
<polygon fill="none" stroke="black" points="186,-28 186,-235 332,-235 332,-28 186,-28"/>
<text text-anchor="middle" x="259" y="-219.8" font-family="Times,serif" font-size="14.00">Distinct: Preserve</text>
<polyline fill="none" stroke="black" points="186,-212 332,-212 "/>
<text text-anchor="middle" x="259" y="-196.8" font-family="Times,serif" font-size="14.00">0: C0</text>
<polyline fill="none" stroke="black" points="186,-189 332,-189 "/>
<text text-anchor="middle" x="259" y="-173.8" font-family="Times,serif" font-size="14.00">1: C1</text>
<polyline fill="none" stroke="black" points="186,-166 332,-166 "/>
<text text-anchor="middle" x="259" y="-150.8" font-family="Times,serif" font-size="14.00">2: C2</text>
<polyline fill="none" stroke="black" points="186,-143 332,-143 "/>
<text text-anchor="middle" x="259" y="-127.8" font-family="Times,serif" font-size="14.00">3: C3</text>
<polyline fill="none" stroke="black" points="186,-120 332,-120 "/>
<text text-anchor="middle" x="259" y="-104.8" font-family="Times,serif" font-size="14.00">4: C4</text>
<polyline fill="none" stroke="black" points="186,-97 332,-97 "/>
<text text-anchor="middle" x="259" y="-81.8" font-family="Times,serif" font-size="14.00">5: C5</text>
<polyline fill="none" stroke="black" points="186,-74 332,-74 "/>
<text text-anchor="middle" x="259" y="-58.8" font-family="Times,serif" font-size="14.00">6: C6</text>
<polyline fill="none" stroke="black" points="186,-51 332,-51 "/>
<text text-anchor="middle" x="259" y="-35.8" font-family="Times,serif" font-size="14.00">7: C7</text>
</g>
<!-- Q1&#45;&gt;boxhead2 -->
<g id="edge3" class="edge">
<title>Q1&#45;&gt;boxhead2</title>
<path fill="none" stroke="black" stroke-dasharray="5,2" d="M223.7,-475.96C228.62,-428.12 237.57,-341.01 245.23,-266.5"/>
</g>
</g>
</svg>
