<?xml version="1.0" encoding="UTF-8" standalone="no"?>
<!DOCTYPE svg PUBLIC "-//W3C//DTD SVG 1.1//EN"
 "http://www.w3.org/Graphics/SVG/1.1/DTD/svg11.dtd">
<!-- Generated by graphviz version 2.43.0 (0)
 -->
<!-- Title: G Pages: 1 -->
<svg width="2425pt" height="1307pt"
 viewBox="0.00 0.00 2424.50 1307.00" xmlns="http://www.w3.org/2000/svg" xmlns:xlink="http://www.w3.org/1999/xlink">
<g id="graph0" class="graph" transform="scale(1 1) rotate(0) translate(4 1303)">
<title>G</title>
<polygon fill="white" stroke="transparent" points="-4,4 -4,-1303 2420.5,-1303 2420.5,4 -4,4"/>
<!-- node0 -->
<g id="node1" class="node">
<title>node0</title>
<polygon fill="none" stroke="black" points="1340.5,-1230.5 1340.5,-1298.5 1441.5,-1298.5 1441.5,-1230.5 1340.5,-1230.5"/>
<text text-anchor="start" x="1348.5" y="-1283.3" font-family="Times,serif" font-size="14.00">Let l0 =</text>
<text text-anchor="start" x="1348.5" y="-1268.3" font-family="Times,serif" font-size="14.00"> Constant ()</text>
<text text-anchor="start" x="1348.5" y="-1253.3" font-family="Times,serif" font-size="14.00"> types = ()</text>
<text text-anchor="start" x="1348.5" y="-1238.3" font-family="Times,serif" font-size="14.00"> keys = (())</text>
</g>
<!-- node2 -->
<g id="node3" class="node">
<title>node2</title>
<polygon fill="none" stroke="black" points="625.5,-1095.5 625.5,-1178.5 1152.5,-1178.5 1152.5,-1095.5 625.5,-1095.5"/>
<text text-anchor="start" x="633.5" y="-1163.3" font-family="Times,serif" font-size="14.00">Let l1 =</text>
<text text-anchor="start" x="633.5" y="-1148.3" font-family="Times,serif" font-size="14.00"> Join %0 %1</text>
<text text-anchor="start" x="633.5" y="-1133.3" font-family="Times,serif" font-size="14.00"> implementation = Unimplemented</text>
<text text-anchor="start" x="633.5" y="-1118.3" font-family="Times,serif" font-size="14.00"> types = (integer?, integer, text, numeric, date, text, text, integer, text)</text>
<text text-anchor="start" x="633.5" y="-1103.3" font-family="Times,serif" font-size="14.00"> keys = ()</text>
</g>
<!-- node0&#45;&gt;node2 -->
<g id="edge7" class="edge">
<title>node0&#45;&gt;node2</title>
<path fill="none" stroke="black" d="M1340.1,-1250.78C1275.03,-1234.51 1159.04,-1205.51 1060.97,-1180.99"/>
<polygon fill="black" stroke="black" points="1061.79,-1177.59 1051.24,-1178.56 1060.09,-1184.38 1061.79,-1177.59"/>
<text text-anchor="start" x="1184" y="-1200.8" font-family="Times,serif" font-size="14.00">%0</text>
</g>
<!-- node4 -->
<g id="node5" class="node">
<title>node4</title>
<polygon fill="none" stroke="black" points="1544.5,-1095.5 1544.5,-1178.5 2009.5,-1178.5 2009.5,-1095.5 1544.5,-1095.5"/>
<text text-anchor="start" x="1552.5" y="-1163.3" font-family="Times,serif" font-size="14.00">Let l2 =</text>
<text text-anchor="start" x="1552.5" y="-1148.3" font-family="Times,serif" font-size="14.00"> Join %0 %3</text>
<text text-anchor="start" x="1552.5" y="-1133.3" font-family="Times,serif" font-size="14.00"> implementation = Unimplemented</text>
<text text-anchor="start" x="1552.5" y="-1118.3" font-family="Times,serif" font-size="14.00"> types = (integer?, text, text, integer, text, numeric, text, text)</text>
<text text-anchor="start" x="1552.5" y="-1103.3" font-family="Times,serif" font-size="14.00"> keys = ()</text>
</g>
<!-- node0&#45;&gt;node4 -->
<g id="edge6" class="edge">
<title>node0&#45;&gt;node4</title>
<path fill="none" stroke="black" d="M1441.86,-1246.96C1492.7,-1230.44 1573.05,-1204.31 1642.34,-1181.78"/>
<polygon fill="black" stroke="black" points="1643.61,-1185.05 1652.04,-1178.63 1641.45,-1178.39 1643.61,-1185.05"/>
<text text-anchor="start" x="1584" y="-1200.8" font-family="Times,serif" font-size="14.00">%0</text>
</g>
<!-- node1 -->
<g id="node2" class="node">
<title>node1</title>
<polygon fill="none" stroke="black" points="625.5,-1238 625.5,-1291 1152.5,-1291 1152.5,-1238 625.5,-1238"/>
<text text-anchor="start" x="633.5" y="-1275.8" font-family="Times,serif" font-size="14.00">Get tpch.public.orders (u68)</text>
<text text-anchor="start" x="633.5" y="-1260.8" font-family="Times,serif" font-size="14.00"> types = (integer?, integer, text, numeric, date, text, text, integer, text)</text>
<text text-anchor="start" x="633.5" y="-1245.8" font-family="Times,serif" font-size="14.00"> keys = ()</text>
</g>
<!-- node1&#45;&gt;node2 -->
<g id="edge1" class="edge">
<title>node1&#45;&gt;node2</title>
<path fill="none" stroke="black" d="M889,-1237.8C889,-1223.79 889,-1205.93 889,-1189.2"/>
<polygon fill="black" stroke="black" points="892.5,-1188.98 889,-1178.98 885.5,-1188.98 892.5,-1188.98"/>
<text text-anchor="start" x="889" y="-1200.8" font-family="Times,serif" font-size="14.00">%1</text>
</g>
<!-- node5 -->
<g id="node6" class="node">
<title>node5</title>
<polygon fill="none" stroke="black" points="770,-870.5 770,-1043.5 1680,-1043.5 1680,-870.5 770,-870.5"/>
<text text-anchor="start" x="778" y="-1028.3" font-family="Times,serif" font-size="14.00">Let l3 =</text>
<text text-anchor="start" x="778" y="-1013.3" font-family="Times,serif" font-size="14.00"> Join %2 %4</text>
<text text-anchor="start" x="778" y="-998.3" font-family="Times,serif" font-size="14.00"> implementation = Unimplemented</text>
<text text-anchor="start" x="778" y="-983.3" font-family="Times,serif" font-size="14.00"> types = (integer?, integer, text, numeric, date, text, text, integer, text, integer?, text, text, integer, text, numeric, text, text)</text>
<text text-anchor="start" x="778" y="-968.3" font-family="Times,serif" font-size="14.00"> keys = ()</text>
<text text-anchor="start" x="778" y="-953.3" font-family="Times,serif" font-size="14.00"> Project (#0..=#16)</text>
<text text-anchor="start" x="778" y="-938.3" font-family="Times,serif" font-size="14.00"> types = (integer?, integer, text, numeric, date, text, text, integer, text, integer?, text, text, integer, text, numeric, text, text)</text>
<text text-anchor="start" x="778" y="-923.3" font-family="Times,serif" font-size="14.00"> keys = ()</text>
<text text-anchor="start" x="778" y="-908.3" font-family="Times,serif" font-size="14.00"> Filter (#14 = #3)</text>
<text text-anchor="start" x="778" y="-893.3" font-family="Times,serif" font-size="14.00"> types = (integer?, integer, text, numeric, date, text, text, integer, text, integer?, text, text, integer, text, numeric, text, text)</text>
<text text-anchor="start" x="778" y="-878.3" font-family="Times,serif" font-size="14.00"> keys = ()</text>
</g>
<!-- node2&#45;&gt;node5 -->
<g id="edge10" class="edge">
<title>node2&#45;&gt;node5</title>
<path fill="none" stroke="black" d="M965.66,-1095.39C992.19,-1081.33 1023.09,-1064.96 1054.12,-1048.53"/>
<polygon fill="black" stroke="black" points="1056.11,-1051.43 1063.31,-1043.66 1052.83,-1045.25 1056.11,-1051.43"/>
<text text-anchor="start" x="1026" y="-1065.8" font-family="Times,serif" font-size="14.00">%2</text>
</g>
<!-- node9 -->
<g id="node10" class="node">
<title>node9</title>
<polygon fill="none" stroke="black" points="360.5,-450.5 360.5,-608.5 955.5,-608.5 955.5,-450.5 360.5,-450.5"/>
<text text-anchor="start" x="368.5" y="-593.3" font-family="Times,serif" font-size="14.00">Join %2 %6 (= #3 #9)</text>
<text text-anchor="start" x="368.5" y="-578.3" font-family="Times,serif" font-size="14.00"> implementation = Unimplemented</text>
<text text-anchor="start" x="368.5" y="-563.3" font-family="Times,serif" font-size="14.00"> types = (integer?, integer, text, numeric, date, text, text, integer, text, numeric)</text>
<text text-anchor="start" x="368.5" y="-548.3" font-family="Times,serif" font-size="14.00"> keys = ()</text>
<text text-anchor="start" x="368.5" y="-533.3" font-family="Times,serif" font-size="14.00"> Project (#0..=#8)</text>
<text text-anchor="start" x="368.5" y="-518.3" font-family="Times,serif" font-size="14.00"> types = (integer?, integer, text, numeric, date, text, text, integer, text)</text>
<text text-anchor="start" x="368.5" y="-503.3" font-family="Times,serif" font-size="14.00"> keys = ()</text>
<text text-anchor="start" x="368.5" y="-488.3" font-family="Times,serif" font-size="14.00"> Negate</text>
<text text-anchor="start" x="368.5" y="-473.3" font-family="Times,serif" font-size="14.00"> types = (integer?, integer, text, numeric, date, text, text, integer, text)</text>
<text text-anchor="start" x="368.5" y="-458.3" font-family="Times,serif" font-size="14.00"> keys = ()</text>
</g>
<!-- node2&#45;&gt;node9 -->
<g id="edge2" class="edge">
<title>node2&#45;&gt;node9</title>
<path fill="none" stroke="black" d="M812.84,-1095.29C793.26,-1081.43 774.05,-1064.24 761,-1044 676.62,-913.16 659.04,-727.62 656.65,-619.09"/>
<polygon fill="black" stroke="black" points="660.14,-618.77 656.46,-608.83 653.14,-618.9 660.14,-618.77"/>
<text text-anchor="start" x="684" y="-840.8" font-family="Times,serif" font-size="14.00">%2</text>
</g>
<!-- node10 -->
<g id="node11" class="node">
<title>node10</title>
<polygon fill="none" stroke="black" points="0,-278 0,-376 964,-376 964,-278 0,-278"/>
<text text-anchor="start" x="8" y="-360.8" font-family="Times,serif" font-size="14.00">Union %9 %2</text>
<text text-anchor="start" x="8" y="-345.8" font-family="Times,serif" font-size="14.00"> types = (integer?, integer, text, numeric, date, text, text, integer, text)</text>
<text text-anchor="start" x="8" y="-330.8" font-family="Times,serif" font-size="14.00"> keys = ()</text>
<text text-anchor="start" x="8" y="-315.8" font-family="Times,serif" font-size="14.00"> Map null, null, null, null, null, null, null, null</text>
<text text-anchor="start" x="8" y="-300.8" font-family="Times,serif" font-size="14.00"> types = (integer?, integer, text, numeric, date, text, text, integer, text, integer?, text?, text?, integer?, text?, numeric?, text?, text?)</text>
<text text-anchor="start" x="8" y="-285.8" font-family="Times,serif" font-size="14.00"> keys = ()</text>
</g>
<!-- node2&#45;&gt;node10 -->
<g id="edge5" class="edge">
<title>node2&#45;&gt;node10</title>
<path fill="none" stroke="black" d="M625.18,-1098.65C481.21,-1070.58 332,-1025.26 332,-958 332,-958 332,-958 332,-528.5 332,-492.6 332.88,-480.99 351,-450 365.67,-424.92 387.09,-401.89 408.38,-382.76"/>
<polygon fill="black" stroke="black" points="410.69,-385.39 415.89,-376.16 406.07,-380.13 410.69,-385.39"/>
<text text-anchor="start" x="332" y="-735.8" font-family="Times,serif" font-size="14.00">%2</text>
</g>
<!-- node3 -->
<g id="node4" class="node">
<title>node3</title>
<polygon fill="none" stroke="black" points="1544.5,-1238 1544.5,-1291 2009.5,-1291 2009.5,-1238 1544.5,-1238"/>
<text text-anchor="start" x="1552.5" y="-1275.8" font-family="Times,serif" font-size="14.00">Get tpch.public.customer (u64)</text>
<text text-anchor="start" x="1552.5" y="-1260.8" font-family="Times,serif" font-size="14.00"> types = (integer?, text, text, integer, text, numeric, text, text)</text>
<text text-anchor="start" x="1552.5" y="-1245.8" font-family="Times,serif" font-size="14.00"> keys = ()</text>
</g>
<!-- node3&#45;&gt;node4 -->
<g id="edge14" class="edge">
<title>node3&#45;&gt;node4</title>
<path fill="none" stroke="black" d="M1777,-1237.8C1777,-1223.79 1777,-1205.93 1777,-1189.2"/>
<polygon fill="black" stroke="black" points="1780.5,-1188.98 1777,-1178.98 1773.5,-1188.98 1780.5,-1188.98"/>
<text text-anchor="start" x="1777" y="-1200.8" font-family="Times,serif" font-size="14.00">%3</text>
</g>
<!-- node4&#45;&gt;node5 -->
<g id="edge16" class="edge">
<title>node4&#45;&gt;node5</title>
<path fill="none" stroke="black" d="M1651.4,-1095.5C1606.08,-1080.88 1552.97,-1063.76 1499.92,-1046.65"/>
<polygon fill="black" stroke="black" points="1500.96,-1043.31 1490.36,-1043.57 1498.81,-1049.97 1500.96,-1043.31"/>
<text text-anchor="start" x="1582" y="-1065.8" font-family="Times,serif" font-size="14.00">%4</text>
</g>
<!-- node7 -->
<g id="node8" class="node">
<title>node7</title>
<polygon fill="none" stroke="black" points="1883.5,-450.5 1883.5,-608.5 2416.5,-608.5 2416.5,-450.5 1883.5,-450.5"/>
<text text-anchor="start" x="1891.5" y="-593.3" font-family="Times,serif" font-size="14.00">Join %4 %6 (= #5 #8)</text>
<text text-anchor="start" x="1891.5" y="-578.3" font-family="Times,serif" font-size="14.00"> implementation = Unimplemented</text>
<text text-anchor="start" x="1891.5" y="-563.3" font-family="Times,serif" font-size="14.00"> types = (integer?, text, text, integer, text, numeric, text, text, numeric)</text>
<text text-anchor="start" x="1891.5" y="-548.3" font-family="Times,serif" font-size="14.00"> keys = ()</text>
<text text-anchor="start" x="1891.5" y="-533.3" font-family="Times,serif" font-size="14.00"> Project (#0..=#7)</text>
<text text-anchor="start" x="1891.5" y="-518.3" font-family="Times,serif" font-size="14.00"> types = (integer?, text, text, integer, text, numeric, text, text)</text>
<text text-anchor="start" x="1891.5" y="-503.3" font-family="Times,serif" font-size="14.00"> keys = ()</text>
<text text-anchor="start" x="1891.5" y="-488.3" font-family="Times,serif" font-size="14.00"> Negate</text>
<text text-anchor="start" x="1891.5" y="-473.3" font-family="Times,serif" font-size="14.00"> types = (integer?, text, text, integer, text, numeric, text, text)</text>
<text text-anchor="start" x="1891.5" y="-458.3" font-family="Times,serif" font-size="14.00"> keys = ()</text>
</g>
<!-- node4&#45;&gt;node7 -->
<g id="edge15" class="edge">
<title>node4&#45;&gt;node7</title>
<path fill="none" stroke="black" d="M1848.84,-1095.43C1856.1,-1089.76 1863,-1083.6 1869,-1077 1994.63,-938.78 2079.85,-734.01 2121.18,-618.36"/>
<polygon fill="black" stroke="black" points="2124.52,-619.42 2124.56,-608.83 2117.92,-617.08 2124.52,-619.42"/>
<text text-anchor="start" x="2025" y="-840.8" font-family="Times,serif" font-size="14.00">%4</text>
</g>
<!-- node8 -->
<g id="node9" class="node">
<title>node8</title>
<polygon fill="none" stroke="black" points="1368.5,-255.5 1368.5,-398.5 2341.5,-398.5 2341.5,-255.5 1368.5,-255.5"/>
<text text-anchor="start" x="1376.5" y="-383.3" font-family="Times,serif" font-size="14.00">Union %7 %4</text>
<text text-anchor="start" x="1376.5" y="-368.3" font-family="Times,serif" font-size="14.00"> types = (integer?, text, text, integer, text, numeric, text, text)</text>
<text text-anchor="start" x="1376.5" y="-353.3" font-family="Times,serif" font-size="14.00"> keys = ()</text>
<text text-anchor="start" x="1376.5" y="-338.3" font-family="Times,serif" font-size="14.00"> Map null, null, null, null, null, null, null, null, null</text>
<text text-anchor="start" x="1376.5" y="-323.3" font-family="Times,serif" font-size="14.00"> types = (integer?, text, text, integer, text, numeric, text, text, integer?, integer?, text?, numeric?, date?, text?, text?, integer?, text?)</text>
<text text-anchor="start" x="1376.5" y="-308.3" font-family="Times,serif" font-size="14.00"> keys = ()</text>
<text text-anchor="start" x="1376.5" y="-293.3" font-family="Times,serif" font-size="14.00"> Project (#8..=#16, #0..=#7)</text>
<text text-anchor="start" x="1376.5" y="-278.3" font-family="Times,serif" font-size="14.00"> types = (integer?, integer?, text?, numeric?, date?, text?, text?, integer?, text?, integer?, text, text, integer, text, numeric, text, text)</text>
<text text-anchor="start" x="1376.5" y="-263.3" font-family="Times,serif" font-size="14.00"> keys = ()</text>
</g>
<!-- node4&#45;&gt;node8 -->
<g id="edge3" class="edge">
<title>node4&#45;&gt;node8</title>
<path fill="none" stroke="black" d="M1806.27,-1095.4C1828.4,-1060.67 1855,-1008.44 1855,-958 1855,-958 1855,-958 1855,-528.5 1855,-489.05 1855,-445.23 1855,-408.64"/>
<polygon fill="black" stroke="black" points="1858.5,-408.52 1855,-398.52 1851.5,-408.52 1858.5,-408.52"/>
<text text-anchor="start" x="1855" y="-735.8" font-family="Times,serif" font-size="14.00">%4</text>
</g>
<!-- node6 -->
<g id="node7" class="node">
<title>node6</title>
<polygon fill="none" stroke="black" points="909,-660.5 909,-818.5 1819,-818.5 1819,-660.5 909,-660.5"/>
<text text-anchor="start" x="917" y="-803.3" font-family="Times,serif" font-size="14.00">Let l4 =</text>
<text text-anchor="start" x="917" y="-788.3" font-family="Times,serif" font-size="14.00"> Get %5 (l3)</text>
<text text-anchor="start" x="917" y="-773.3" font-family="Times,serif" font-size="14.00"> types = (integer?, integer, text, numeric, date, text, text, integer, text, integer?, text, text, integer, text, numeric, text, text)</text>
<text text-anchor="start" x="917" y="-758.3" font-family="Times,serif" font-size="14.00"> keys = ()</text>
<text text-anchor="start" x="917" y="-743.3" font-family="Times,serif" font-size="14.00"> Project (#3)</text>
<text text-anchor="start" x="917" y="-728.3" font-family="Times,serif" font-size="14.00"> types = (numeric)</text>
<text text-anchor="start" x="917" y="-713.3" font-family="Times,serif" font-size="14.00"> keys = ()</text>
<text text-anchor="start" x="917" y="-698.3" font-family="Times,serif" font-size="14.00"> Distinct group=(#0)</text>
<text text-anchor="start" x="917" y="-683.3" font-family="Times,serif" font-size="14.00"> types = (numeric)</text>
<text text-anchor="start" x="917" y="-668.3" font-family="Times,serif" font-size="14.00"> keys = ((#0))</text>
</g>
<!-- node5&#45;&gt;node6 -->
<g id="edge17" class="edge">
<title>node5&#45;&gt;node6</title>
<path fill="none" stroke="black" d="M1280.34,-870.21C1289.43,-856.12 1298.86,-841.5 1307.96,-827.38"/>
<polygon fill="black" stroke="black" points="1311.11,-828.96 1313.59,-818.66 1305.23,-825.17 1311.11,-828.96"/>
<text text-anchor="start" x="1298" y="-840.8" font-family="Times,serif" font-size="14.00">%5</text>
</g>
<!-- node11 -->
<g id="node12" class="node">
<title>node11</title>
<polygon fill="none" stroke="black" points="510,-150.5 510,-203.5 1474,-203.5 1474,-150.5 510,-150.5"/>
<text text-anchor="start" x="518" y="-188.3" font-family="Times,serif" font-size="14.00">Union %10 %5</text>
<text text-anchor="start" x="518" y="-173.3" font-family="Times,serif" font-size="14.00"> types = (integer?, integer, text, numeric, date, text, text, integer, text, integer?, text?, text?, integer?, text?, numeric?, text?, text?)</text>
<text text-anchor="start" x="518" y="-158.3" font-family="Times,serif" font-size="14.00"> keys = ()</text>
</g>
<!-- node5&#45;&gt;node11 -->
<g id="edge18" class="edge">
<title>node5&#45;&gt;node11</title>
<path fill="none" stroke="black" d="M948.8,-870.46C929.93,-855.91 913.21,-838.9 900,-819 860.92,-760.12 869.33,-723.66 900,-660 915.79,-627.23 947.16,-641.24 964,-609 1032.81,-477.29 1011.86,-291.21 998.89,-213.87"/>
<polygon fill="black" stroke="black" points="1002.28,-212.95 997.12,-203.7 995.39,-214.15 1002.28,-212.95"/>
<text text-anchor="start" x="1009" y="-525.8" font-family="Times,serif" font-size="14.00">%5</text>
</g>
<!-- node6&#45;&gt;node7 -->
<g id="edge12" class="edge">
<title>node6&#45;&gt;node7</title>
<path fill="none" stroke="black" d="M1658.91,-660.46C1729.22,-641.85 1804.01,-622.06 1873.46,-603.68"/>
<polygon fill="black" stroke="black" points="1874.45,-607.04 1883.22,-601.1 1872.66,-600.27 1874.45,-607.04"/>
<text text-anchor="start" x="1780" y="-630.8" font-family="Times,serif" font-size="14.00">%6</text>
</g>
<!-- node6&#45;&gt;node9 -->
<g id="edge4" class="edge">
<title>node6&#45;&gt;node9</title>
<path fill="none" stroke="black" d="M1099.1,-660.46C1044.75,-644.44 987.42,-627.55 932.73,-611.44"/>
<polygon fill="black" stroke="black" points="933.5,-608.02 922.91,-608.55 931.52,-614.73 933.5,-608.02"/>
<text text-anchor="start" x="1032" y="-630.8" font-family="Times,serif" font-size="14.00">%6</text>
</g>
<!-- node7&#45;&gt;node8 -->
<g id="edge19" class="edge">
<title>node7&#45;&gt;node8</title>
<path fill="none" stroke="black" d="M2035.1,-450.41C2012.87,-435.29 1989.59,-419.48 1967.43,-404.42"/>
<polygon fill="black" stroke="black" points="1969.24,-401.41 1959,-398.69 1965.31,-407.2 1969.24,-401.41"/>
<text text-anchor="start" x="2002" y="-420.8" font-family="Times,serif" font-size="14.00">%7</text>
</g>
<!-- node12 -->
<g id="node13" class="node">
<title>node12</title>
<polygon fill="none" stroke="black" points="817.5,-0.5 817.5,-98.5 1844.5,-98.5 1844.5,-0.5 817.5,-0.5"/>
<text text-anchor="start" x="825.5" y="-83.3" font-family="Times,serif" font-size="14.00">Union %8 %11</text>
<text text-anchor="start" x="825.5" y="-68.3" font-family="Times,serif" font-size="14.00"> types = (integer?, integer?, text?, numeric?, date?, text?, text?, integer?, text?, integer?, text?, text?, integer?, text?, numeric?, text?, text?)</text>
<text text-anchor="start" x="825.5" y="-53.3" font-family="Times,serif" font-size="14.00"> keys = ()</text>
<text text-anchor="start" x="825.5" y="-38.3" font-family="Times,serif" font-size="14.00"> Filter (((#14 + #3) = i32tonumeric(123)) &amp;&amp; (#14 = #3))</text>
<text text-anchor="start" x="825.5" y="-23.3" font-family="Times,serif" font-size="14.00"> types = (integer?, integer?, text?, numeric?, date?, text?, text?, integer?, text?, integer?, text?, text?, integer?, text?, numeric?, text?, text?)</text>
<text text-anchor="start" x="825.5" y="-8.3" font-family="Times,serif" font-size="14.00"> keys = ()</text>
</g>
<!-- node8&#45;&gt;node12 -->
<g id="edge8" class="edge">
<title>node8&#45;&gt;node12</title>
<path fill="none" stroke="black" d="M1720.74,-255.41C1630.66,-208.05 1513.92,-146.67 1431.77,-103.48"/>
<polygon fill="black" stroke="black" points="1432.91,-100.13 1422.43,-98.57 1429.65,-106.32 1432.91,-100.13"/>
<text text-anchor="start" x="1619" y="-173.3" font-family="Times,serif" font-size="14.00">%8</text>
</g>
<!-- node9&#45;&gt;node10 -->
<g id="edge13" class="edge">
<title>node9&#45;&gt;node10</title>
<path fill="none" stroke="black" d="M589.45,-450.41C569.94,-428.18 549.08,-404.42 530.98,-383.8"/>
<polygon fill="black" stroke="black" points="533.42,-381.27 524.19,-376.06 528.16,-385.89 533.42,-381.27"/>
<text text-anchor="start" x="570" y="-420.8" font-family="Times,serif" font-size="14.00">%9</text>
</g>
<!-- node10&#45;&gt;node11 -->
<g id="edge11" class="edge">
<title>node10&#45;&gt;node11</title>
<path fill="none" stroke="black" d="M647.58,-277.95C729.11,-254.29 824.61,-226.58 894.34,-206.34"/>
<polygon fill="black" stroke="black" points="895.37,-209.69 904,-203.54 893.42,-202.96 895.37,-209.69"/>
<text text-anchor="start" x="828" y="-225.8" font-family="Times,serif" font-size="14.00">%10</text>
</g>
<!-- node11&#45;&gt;node12 -->
<g id="edge9" class="edge">
<title>node11&#45;&gt;node12</title>
<path fill="none" stroke="black" d="M1061.01,-150.45C1098.6,-136.53 1146.52,-118.8 1191.52,-102.14"/>
<polygon fill="black" stroke="black" points="1192.91,-105.36 1201.07,-98.6 1190.48,-98.79 1192.91,-105.36"/>
<text text-anchor="start" x="1151" y="-120.8" font-family="Times,serif" font-size="14.00">%11</text>
</g>
</g>
</svg>
