<?xml version="1.0" encoding="UTF-8" standalone="no"?>
<!DOCTYPE svg PUBLIC "-//W3C//DTD SVG 1.1//EN"
 "http://www.w3.org/Graphics/SVG/1.1/DTD/svg11.dtd">
<!-- Generated by graphviz version 2.43.0 (0)
 -->
<!-- Title: G Pages: 1 -->
<svg width="326pt" height="167pt"
 viewBox="0.00 0.00 325.50 167.00" xmlns="http://www.w3.org/2000/svg" xmlns:xlink="http://www.w3.org/1999/xlink">
<g id="graph0" class="graph" transform="scale(1 1) rotate(0) translate(4 163)">
<title>G</title>
<polygon fill="white" stroke="transparent" points="-4,4 -4,-163 321.5,-163 321.5,4 -4,4"/>
<!-- node0 -->
<g id="node1" class="node">
<title>node0</title>
<polygon fill="none" stroke="black" points="0,-120.5 0,-158.5 101,-158.5 101,-120.5 0,-120.5"/>
<text text-anchor="start" x="8" y="-143.3" font-family="Times,serif" font-size="14.00">Let l0 =</text>
<text text-anchor="start" x="8" y="-128.3" font-family="Times,serif" font-size="14.00"> Constant ()</text>
</g>
<!-- node2 -->
<g id="node3" class="node">
<title>node2</title>
<polygon fill="none" stroke="black" points="0,-0.5 0,-68.5 269,-68.5 269,-0.5 0,-0.5"/>
<text text-anchor="start" x="8" y="-53.3" font-family="Times,serif" font-size="14.00">Join %0 %1</text>
<text text-anchor="start" x="8" y="-38.3" font-family="Times,serif" font-size="14.00"> implementation = Unimplemented</text>
<text text-anchor="start" x="8" y="-23.3" font-family="Times,serif" font-size="14.00"> Filter (coalesce(#0, #1) &gt; 0)</text>
<text text-anchor="start" x="8" y="-8.3" font-family="Times,serif" font-size="14.00"> Project (#0, #1)</text>
</g>
<!-- node0&#45;&gt;node2 -->
<g id="edge2" class="edge">
<title>node0&#45;&gt;node2</title>
<path fill="none" stroke="black" d="M65.52,-120.09C75.4,-107.96 88.75,-91.6 101.06,-76.5"/>
<polygon fill="black" stroke="black" points="103.78,-78.71 107.39,-68.74 98.36,-74.28 103.78,-78.71"/>
<text text-anchor="start" x="92.5" y="-90.8" font-family="Times,serif" font-size="14.00">%0</text>
</g>
<!-- node1 -->
<g id="node2" class="node">
<title>node1</title>
<polygon fill="none" stroke="black" points="119.5,-121.5 119.5,-157.5 317.5,-157.5 317.5,-121.5 119.5,-121.5"/>
<text text-anchor="start" x="127.5" y="-135.8" font-family="Times,serif" font-size="14.00">Get types.public.u (u129)</text>
</g>
<!-- node1&#45;&gt;node2 -->
<g id="edge1" class="edge">
<title>node1&#45;&gt;node2</title>
<path fill="none" stroke="black" d="M204.63,-121.49C194.71,-109.33 180.91,-92.41 168.18,-76.8"/>
<polygon fill="black" stroke="black" points="170.68,-74.32 161.65,-68.79 165.25,-78.75 170.68,-74.32"/>
<text text-anchor="start" x="185.5" y="-90.8" font-family="Times,serif" font-size="14.00">%1</text>
</g>
</g>
</svg>
