<?xml version="1.0" encoding="UTF-8" standalone="no"?>
<!DOCTYPE svg PUBLIC "-//W3C//DTD SVG 1.1//EN"
 "http://www.w3.org/Graphics/SVG/1.1/DTD/svg11.dtd">
<!-- Generated by graphviz version 2.43.0 (0)
 -->
<!-- Title: G Pages: 1 -->
<svg width="1032pt" height="992pt"
 viewBox="0.00 0.00 1032.00 992.00" xmlns="http://www.w3.org/2000/svg" xmlns:xlink="http://www.w3.org/1999/xlink">
<g id="graph0" class="graph" transform="scale(1 1) rotate(0) translate(4 988)">
<title>G</title>
<polygon fill="white" stroke="transparent" points="-4,4 -4,-988 1028,-988 1028,4 -4,4"/>
<!-- node0 -->
<g id="node1" class="node">
<title>node0</title>
<polygon fill="none" stroke="black" points="308.5,-945.5 308.5,-983.5 409.5,-983.5 409.5,-945.5 308.5,-945.5"/>
<text text-anchor="start" x="316.5" y="-968.3" font-family="Times,serif" font-size="14.00">Let l0 =</text>
<text text-anchor="start" x="316.5" y="-953.3" font-family="Times,serif" font-size="14.00"> Constant ()</text>
</g>
<!-- node2 -->
<g id="node3" class="node">
<title>node2</title>
<polygon fill="none" stroke="black" points="655.5,-848 655.5,-886 924.5,-886 924.5,-848 655.5,-848"/>
<text text-anchor="start" x="663.5" y="-870.8" font-family="Times,serif" font-size="14.00">Join %0 %1</text>
<text text-anchor="start" x="663.5" y="-855.8" font-family="Times,serif" font-size="14.00"> implementation = Unimplemented</text>
</g>
<!-- node0&#45;&gt;node2 -->
<g id="edge7" class="edge">
<title>node0&#45;&gt;node2</title>
<path fill="none" stroke="black" d="M403.93,-945.43C433.37,-934.25 472.95,-920.47 509,-912 568.79,-897.96 585.32,-903.46 646,-894 658.18,-892.1 670.92,-889.99 683.56,-887.81"/>
<polygon fill="black" stroke="black" points="684.42,-891.21 693.67,-886.05 683.22,-884.32 684.42,-891.21"/>
<text text-anchor="start" x="509" y="-915.8" font-family="Times,serif" font-size="14.00">%0</text>
</g>
<!-- node4 -->
<g id="node5" class="node">
<title>node4</title>
<polygon fill="none" stroke="black" points="368.5,-848 368.5,-886 637.5,-886 637.5,-848 368.5,-848"/>
<text text-anchor="start" x="376.5" y="-870.8" font-family="Times,serif" font-size="14.00">Join %0 %3</text>
<text text-anchor="start" x="376.5" y="-855.8" font-family="Times,serif" font-size="14.00"> implementation = Unimplemented</text>
</g>
<!-- node0&#45;&gt;node4 -->
<g id="edge15" class="edge">
<title>node0&#45;&gt;node4</title>
<path fill="none" stroke="black" d="M378.58,-945.5C390.4,-935.08 406.03,-922.09 421,-912 432.1,-904.52 444.61,-897.27 456.45,-890.89"/>
<polygon fill="black" stroke="black" points="458.14,-893.96 465.34,-886.19 454.87,-887.77 458.14,-893.96"/>
<text text-anchor="start" x="421" y="-915.8" font-family="Times,serif" font-size="14.00">%0</text>
</g>
<!-- node7 -->
<g id="node8" class="node">
<title>node7</title>
<polygon fill="none" stroke="black" points="81.5,-840.5 81.5,-893.5 350.5,-893.5 350.5,-840.5 81.5,-840.5"/>
<text text-anchor="start" x="89.5" y="-878.3" font-family="Times,serif" font-size="14.00">Let l2 =</text>
<text text-anchor="start" x="89.5" y="-863.3" font-family="Times,serif" font-size="14.00"> Join %0 %6</text>
<text text-anchor="start" x="89.5" y="-848.3" font-family="Times,serif" font-size="14.00"> implementation = Unimplemented</text>
</g>
<!-- node0&#45;&gt;node7 -->
<g id="edge9" class="edge">
<title>node0&#45;&gt;node7</title>
<path fill="none" stroke="black" d="M331.77,-945.31C312.29,-932.31 285.6,-914.48 262.75,-899.22"/>
<polygon fill="black" stroke="black" points="264.46,-896.16 254.2,-893.51 260.58,-901.98 264.46,-896.16"/>
<text text-anchor="start" x="301" y="-915.8" font-family="Times,serif" font-size="14.00">%0</text>
</g>
<!-- node1 -->
<g id="node2" class="node">
<title>node1</title>
<polygon fill="none" stroke="black" points="736,-946.5 736,-982.5 1024,-982.5 1024,-946.5 736,-946.5"/>
<text text-anchor="start" x="744" y="-960.8" font-family="Times,serif" font-size="14.00">Get simplify_outer_joins.public.l (u94)</text>
</g>
<!-- node1&#45;&gt;node2 -->
<g id="edge2" class="edge">
<title>node1&#45;&gt;node2</title>
<path fill="none" stroke="black" d="M863.91,-946.43C850.05,-931.72 829.86,-910.29 814.08,-893.55"/>
<polygon fill="black" stroke="black" points="816.58,-891.1 807.18,-886.23 811.49,-895.9 816.58,-891.1"/>
<text text-anchor="start" x="844" y="-915.8" font-family="Times,serif" font-size="14.00">%1</text>
</g>
<!-- node5 -->
<g id="node6" class="node">
<title>node5</title>
<polygon fill="none" stroke="black" points="368.5,-675.5 368.5,-788.5 637.5,-788.5 637.5,-675.5 368.5,-675.5"/>
<text text-anchor="start" x="376.5" y="-773.3" font-family="Times,serif" font-size="14.00">Let l1 =</text>
<text text-anchor="start" x="376.5" y="-758.3" font-family="Times,serif" font-size="14.00"> Join %2 %4</text>
<text text-anchor="start" x="376.5" y="-743.3" font-family="Times,serif" font-size="14.00"> implementation = Unimplemented</text>
<text text-anchor="start" x="376.5" y="-728.3" font-family="Times,serif" font-size="14.00"> Project (#0..#3)</text>
<text text-anchor="start" x="376.5" y="-713.3" font-family="Times,serif" font-size="14.00"> Filter (#1 = #2)</text>
<text text-anchor="start" x="376.5" y="-698.3" font-family="Times,serif" font-size="14.00"> Map #0, #1, #2, #3</text>
<text text-anchor="start" x="376.5" y="-683.3" font-family="Times,serif" font-size="14.00"> Project (#4..#7)</text>
</g>
<!-- node2&#45;&gt;node5 -->
<g id="edge14" class="edge">
<title>node2&#45;&gt;node5</title>
<path fill="none" stroke="black" d="M751,-847.92C720.16,-833.64 675.27,-812.83 632.12,-792.84"/>
<polygon fill="black" stroke="black" points="633.49,-789.61 622.95,-788.59 630.55,-795.97 633.49,-789.61"/>
<text text-anchor="start" x="689" y="-810.8" font-family="Times,serif" font-size="14.00">%2</text>
</g>
<!-- node3 -->
<g id="node4" class="node">
<title>node3</title>
<polygon fill="none" stroke="black" points="428,-946.5 428,-982.5 718,-982.5 718,-946.5 428,-946.5"/>
<text text-anchor="start" x="436" y="-960.8" font-family="Times,serif" font-size="14.00">Get simplify_outer_joins.public.r (u96)</text>
</g>
<!-- node3&#45;&gt;node4 -->
<g id="edge8" class="edge">
<title>node3&#45;&gt;node4</title>
<path fill="none" stroke="black" d="M560.49,-946.43C549.9,-931.99 534.57,-911.06 522.39,-894.46"/>
<polygon fill="black" stroke="black" points="525.09,-892.22 516.36,-886.23 519.45,-896.36 525.09,-892.22"/>
<text text-anchor="start" x="545" y="-915.8" font-family="Times,serif" font-size="14.00">%3</text>
</g>
<!-- node4&#45;&gt;node5 -->
<g id="edge11" class="edge">
<title>node4&#45;&gt;node5</title>
<path fill="none" stroke="black" d="M503,-847.79C503,-834.88 503,-816.71 503,-798.63"/>
<polygon fill="black" stroke="black" points="506.5,-798.62 503,-788.62 499.5,-798.62 506.5,-798.62"/>
<text text-anchor="start" x="503" y="-810.8" font-family="Times,serif" font-size="14.00">%4</text>
</g>
<!-- node8 -->
<g id="node9" class="node">
<title>node8</title>
<polygon fill="none" stroke="black" points="170.5,-540.5 170.5,-623.5 439.5,-623.5 439.5,-540.5 170.5,-540.5"/>
<text text-anchor="start" x="178.5" y="-608.3" font-family="Times,serif" font-size="14.00">Let l3 =</text>
<text text-anchor="start" x="178.5" y="-593.3" font-family="Times,serif" font-size="14.00"> Join %5 %7</text>
<text text-anchor="start" x="178.5" y="-578.3" font-family="Times,serif" font-size="14.00"> implementation = Unimplemented</text>
<text text-anchor="start" x="178.5" y="-563.3" font-family="Times,serif" font-size="14.00"> Project (#0..#4)</text>
<text text-anchor="start" x="178.5" y="-548.3" font-family="Times,serif" font-size="14.00"> Filter (#1 = #4)</text>
</g>
<!-- node5&#45;&gt;node8 -->
<g id="edge16" class="edge">
<title>node5&#45;&gt;node8</title>
<path fill="none" stroke="black" d="M428.71,-675.47C408.55,-660.4 386.92,-644.23 367.48,-629.7"/>
<polygon fill="black" stroke="black" points="369.4,-626.77 359.29,-623.58 365.21,-632.37 369.4,-626.77"/>
<text text-anchor="start" x="404" y="-645.8" font-family="Times,serif" font-size="14.00">%5</text>
</g>
<!-- node10 -->
<g id="node11" class="node">
<title>node10</title>
<polygon fill="none" stroke="black" points="233.5,-300.5 233.5,-368.5 502.5,-368.5 502.5,-300.5 233.5,-300.5"/>
<text text-anchor="start" x="241.5" y="-353.3" font-family="Times,serif" font-size="14.00">Join %5 %9 (= #1 #4)</text>
<text text-anchor="start" x="241.5" y="-338.3" font-family="Times,serif" font-size="14.00"> implementation = Unimplemented</text>
<text text-anchor="start" x="241.5" y="-323.3" font-family="Times,serif" font-size="14.00"> Project (#0..#3)</text>
<text text-anchor="start" x="241.5" y="-308.3" font-family="Times,serif" font-size="14.00"> Negate</text>
</g>
<!-- node5&#45;&gt;node10 -->
<g id="edge4" class="edge">
<title>node5&#45;&gt;node10</title>
<path fill="none" stroke="black" d="M495.4,-675.38C485.29,-611.58 464.11,-504.86 426,-420 419.36,-405.22 410.11,-390.26 400.94,-377.13"/>
<polygon fill="black" stroke="black" points="403.63,-374.87 394.96,-368.78 397.94,-378.94 403.63,-374.87"/>
<text text-anchor="start" x="463" y="-510.8" font-family="Times,serif" font-size="14.00">%5</text>
</g>
<!-- node11 -->
<g id="node12" class="node">
<title>node11</title>
<polygon fill="none" stroke="black" points="307,-210.5 307,-248.5 429,-248.5 429,-210.5 307,-210.5"/>
<text text-anchor="start" x="315" y="-233.3" font-family="Times,serif" font-size="14.00">Union %10 %5</text>
<text text-anchor="start" x="315" y="-218.3" font-family="Times,serif" font-size="14.00"> Map null</text>
</g>
<!-- node5&#45;&gt;node11 -->
<g id="edge5" class="edge">
<title>node5&#45;&gt;node11</title>
<path fill="none" stroke="black" d="M518.64,-675.25C525.05,-647.71 531,-613.86 531,-583 531,-583 531,-583 531,-333.5 531,-286.88 482.75,-260.5 438.75,-246.13"/>
<polygon fill="black" stroke="black" points="439.75,-242.78 429.16,-243.16 437.68,-249.46 439.75,-242.78"/>
<text text-anchor="start" x="531" y="-450.8" font-family="Times,serif" font-size="14.00">%5</text>
</g>
<!-- node6 -->
<g id="node7" class="node">
<title>node6</title>
<polygon fill="none" stroke="black" points="0,-946.5 0,-982.5 290,-982.5 290,-946.5 0,-946.5"/>
<text text-anchor="start" x="8" y="-960.8" font-family="Times,serif" font-size="14.00">Get simplify_outer_joins.public.t (u98)</text>
</g>
<!-- node6&#45;&gt;node7 -->
<g id="edge10" class="edge">
<title>node6&#45;&gt;node7</title>
<path fill="none" stroke="black" d="M157.69,-946.43C166.91,-934.02 179.7,-916.83 190.94,-901.7"/>
<polygon fill="black" stroke="black" points="193.84,-903.67 197,-893.55 188.23,-899.49 193.84,-903.67"/>
<text text-anchor="start" x="183" y="-915.8" font-family="Times,serif" font-size="14.00">%6</text>
</g>
<!-- node7&#45;&gt;node8 -->
<g id="edge3" class="edge">
<title>node7&#45;&gt;node8</title>
<path fill="none" stroke="black" d="M224.06,-840.39C238.73,-793.73 270.06,-694.12 289.15,-633.41"/>
<polygon fill="black" stroke="black" points="292.56,-634.24 292.22,-623.65 285.88,-632.14 292.56,-634.24"/>
<text text-anchor="start" x="276" y="-728.3" font-family="Times,serif" font-size="14.00">%7</text>
</g>
<!-- node9 -->
<g id="node10" class="node">
<title>node9</title>
<polygon fill="none" stroke="black" points="250.5,-420.5 250.5,-488.5 417.5,-488.5 417.5,-420.5 250.5,-420.5"/>
<text text-anchor="start" x="258.5" y="-473.3" font-family="Times,serif" font-size="14.00">Let l4 =</text>
<text text-anchor="start" x="258.5" y="-458.3" font-family="Times,serif" font-size="14.00"> Get %8 (l3)</text>
<text text-anchor="start" x="258.5" y="-443.3" font-family="Times,serif" font-size="14.00"> Project (#1)</text>
<text text-anchor="start" x="258.5" y="-428.3" font-family="Times,serif" font-size="14.00"> Distinct group=(#0)</text>
</g>
<!-- node8&#45;&gt;node9 -->
<g id="edge6" class="edge">
<title>node8&#45;&gt;node9</title>
<path fill="none" stroke="black" d="M314.42,-540.25C317.5,-526.91 320.93,-512.04 324.06,-498.53"/>
<polygon fill="black" stroke="black" points="327.53,-499.04 326.37,-488.51 320.71,-497.47 327.53,-499.04"/>
<text text-anchor="start" x="323" y="-510.8" font-family="Times,serif" font-size="14.00">%8</text>
</g>
<!-- node12 -->
<g id="node13" class="node">
<title>node12</title>
<polygon fill="none" stroke="black" points="61.5,-0.5 61.5,-158.5 354.5,-158.5 354.5,-0.5 61.5,-0.5"/>
<text text-anchor="start" x="69.5" y="-143.3" font-family="Times,serif" font-size="14.00">Union %11 %8</text>
<text text-anchor="start" x="69.5" y="-128.3" font-family="Times,serif" font-size="14.00"> Map #0, #1, #2, #3, #4</text>
<text text-anchor="start" x="69.5" y="-113.3" font-family="Times,serif" font-size="14.00"> Project (#5..#9)</text>
<text text-anchor="start" x="69.5" y="-98.3" font-family="Times,serif" font-size="14.00"> Filter (#0 &gt; #3)</text>
<text text-anchor="start" x="69.5" y="-83.3" font-family="Times,serif" font-size="14.00"> Map #0, #1, #2, #3, #4</text>
<text text-anchor="start" x="69.5" y="-68.3" font-family="Times,serif" font-size="14.00"> Project (#5..#9)</text>
<text text-anchor="start" x="69.5" y="-53.3" font-family="Times,serif" font-size="14.00"> Map #0, #1, #2, #3, #4, &quot;qgm(true)&quot;</text>
<text text-anchor="start" x="69.5" y="-38.3" font-family="Times,serif" font-size="14.00"> Project (#5..#10)</text>
<text text-anchor="start" x="69.5" y="-23.3" font-family="Times,serif" font-size="14.00"> Map #5, #0, #1, #2, #3, #4</text>
<text text-anchor="start" x="69.5" y="-8.3" font-family="Times,serif" font-size="14.00"> Project (#6..#11)</text>
</g>
<!-- node8&#45;&gt;node12 -->
<g id="edge17" class="edge">
<title>node8&#45;&gt;node12</title>
<path fill="none" stroke="black" d="M240.91,-540.24C215.4,-518.72 192,-489.66 192,-455.5 192,-455.5 192,-455.5 192,-228.5 192,-209.13 193.37,-188.42 195.31,-168.81"/>
<polygon fill="black" stroke="black" points="198.81,-168.98 196.37,-158.67 191.85,-168.26 198.81,-168.98"/>
<text text-anchor="start" x="192" y="-330.8" font-family="Times,serif" font-size="14.00">%8</text>
</g>
<!-- node9&#45;&gt;node10 -->
<g id="edge1" class="edge">
<title>node9&#45;&gt;node10</title>
<path fill="none" stroke="black" d="M343.56,-420.32C347.29,-407.37 351.62,-392.36 355.58,-378.6"/>
<polygon fill="black" stroke="black" points="358.99,-379.42 358.39,-368.84 352.26,-377.48 358.99,-379.42"/>
<text text-anchor="start" x="354" y="-390.8" font-family="Times,serif" font-size="14.00">%9</text>
</g>
<!-- node10&#45;&gt;node11 -->
<g id="edge12" class="edge">
<title>node10&#45;&gt;node11</title>
<path fill="none" stroke="black" d="M368,-300.34C368,-286.93 368,-271.6 368,-258.73"/>
<polygon fill="black" stroke="black" points="371.5,-258.59 368,-248.59 364.5,-258.59 371.5,-258.59"/>
<text text-anchor="start" x="368" y="-270.8" font-family="Times,serif" font-size="14.00">%10</text>
</g>
<!-- node11&#45;&gt;node12 -->
<g id="edge13" class="edge">
<title>node11&#45;&gt;node12</title>
<path fill="none" stroke="black" d="M348.38,-210.35C335.71,-198.63 318.21,-182.44 299.85,-165.47"/>
<polygon fill="black" stroke="black" points="302.23,-162.89 292.51,-158.67 297.47,-168.03 302.23,-162.89"/>
<text text-anchor="start" x="326" y="-180.8" font-family="Times,serif" font-size="14.00">%11</text>
</g>
</g>
</svg>
