<?xml version="1.0" encoding="UTF-8" standalone="no"?>
<!DOCTYPE svg PUBLIC "-//W3C//DTD SVG 1.1//EN"
 "http://www.w3.org/Graphics/SVG/1.1/DTD/svg11.dtd">
<!-- Generated by graphviz version 2.43.0 (0)
 -->
<!-- Title: G Pages: 1 -->
<svg width="776pt" height="791pt"
 viewBox="0.00 0.00 776.00 791.00" xmlns="http://www.w3.org/2000/svg" xmlns:xlink="http://www.w3.org/1999/xlink">
<g id="graph0" class="graph" transform="scale(1 1) rotate(0) translate(4 787)">
<title>G</title>
<polygon fill="white" stroke="transparent" points="-4,4 -4,-787 772,-787 772,4 -4,4"/>
<!-- node0 -->
<g id="node1" class="node">
<title>node0</title>
<polygon fill="none" stroke="black" points="0,-729.5 0,-782.5 288,-782.5 288,-729.5 0,-729.5"/>
<text text-anchor="start" x="8" y="-767.3" font-family="Times,serif" font-size="14.00">Get simplify_outer_joins.public.l (u94)</text>
<text text-anchor="start" x="8" y="-752.3" font-family="Times,serif" font-size="14.00"> Filter !(isnull(#1))</text>
<text text-anchor="start" x="8" y="-737.3" font-family="Times,serif" font-size="14.00"> ArrangeBy (#1)</text>
</g>
<!-- node2 -->
<g id="node3" class="node">
<title>node2</title>
<polygon fill="none" stroke="black" points="134,-609.5 134,-677.5 460,-677.5 460,-609.5 134,-609.5"/>
<text text-anchor="start" x="142" y="-662.3" font-family="Times,serif" font-size="14.00">Let l0 =</text>
<text text-anchor="start" x="142" y="-647.3" font-family="Times,serif" font-size="14.00"> Join %0 %1 (= #1 #2)</text>
<text text-anchor="start" x="142" y="-632.3" font-family="Times,serif" font-size="14.00"> implementation = Differential %1 %0.(#1)</text>
<text text-anchor="start" x="142" y="-617.3" font-family="Times,serif" font-size="14.00"> Project (#0, #1, #3)</text>
</g>
<!-- node0&#45;&gt;node2 -->
<g id="edge6" class="edge">
<title>node0&#45;&gt;node2</title>
<path fill="none" stroke="black" d="M179.49,-729.37C198.35,-715.75 221.93,-698.72 243.01,-683.5"/>
<polygon fill="black" stroke="black" points="245.19,-686.23 251.25,-677.54 241.09,-680.56 245.19,-686.23"/>
<text text-anchor="start" x="226" y="-699.8" font-family="Times,serif" font-size="14.00">%0</text>
</g>
<!-- node1 -->
<g id="node2" class="node">
<title>node1</title>
<polygon fill="none" stroke="black" points="306,-737 306,-775 596,-775 596,-737 306,-737"/>
<text text-anchor="start" x="314" y="-759.8" font-family="Times,serif" font-size="14.00">Get simplify_outer_joins.public.r (u96)</text>
<text text-anchor="start" x="314" y="-744.8" font-family="Times,serif" font-size="14.00"> Filter !(isnull(#0))</text>
</g>
<!-- node1&#45;&gt;node2 -->
<g id="edge2" class="edge">
<title>node1&#45;&gt;node2</title>
<path fill="none" stroke="black" d="M425.57,-736.75C405.46,-722.32 376.67,-701.66 351.42,-683.55"/>
<polygon fill="black" stroke="black" points="353.18,-680.5 343.02,-677.52 349.1,-686.19 353.18,-680.5"/>
<text text-anchor="start" x="388" y="-699.8" font-family="Times,serif" font-size="14.00">%1</text>
</g>
<!-- node4 -->
<g id="node5" class="node">
<title>node4</title>
<polygon fill="none" stroke="black" points="431,-489.5 431,-557.5 757,-557.5 757,-489.5 431,-489.5"/>
<text text-anchor="start" x="439" y="-542.3" font-family="Times,serif" font-size="14.00">Let l1 =</text>
<text text-anchor="start" x="439" y="-527.3" font-family="Times,serif" font-size="14.00"> Join %2 %3 (= #1 #3)</text>
<text text-anchor="start" x="439" y="-512.3" font-family="Times,serif" font-size="14.00"> implementation = Differential %2 %3.(#0)</text>
<text text-anchor="start" x="439" y="-497.3" font-family="Times,serif" font-size="14.00"> Project (#0..#2)</text>
</g>
<!-- node2&#45;&gt;node4 -->
<g id="edge10" class="edge">
<title>node2&#45;&gt;node4</title>
<path fill="none" stroke="black" d="M380.13,-609.47C417.78,-594.51 462.43,-576.77 501.18,-561.38"/>
<polygon fill="black" stroke="black" points="502.89,-564.46 510.89,-557.52 500.31,-557.96 502.89,-564.46"/>
<text text-anchor="start" x="463" y="-579.8" font-family="Times,serif" font-size="14.00">%2</text>
</g>
<!-- node5 -->
<g id="node6" class="node">
<title>node5</title>
<polygon fill="none" stroke="black" points="227.5,-377 227.5,-430 366.5,-430 366.5,-377 227.5,-377"/>
<text text-anchor="start" x="235.5" y="-414.8" font-family="Times,serif" font-size="14.00">Let l2 =</text>
<text text-anchor="start" x="235.5" y="-399.8" font-family="Times,serif" font-size="14.00"> Get %2 (l0)</text>
<text text-anchor="start" x="235.5" y="-384.8" font-family="Times,serif" font-size="14.00"> Filter (#0 &gt; #2)</text>
</g>
<!-- node2&#45;&gt;node5 -->
<g id="edge12" class="edge">
<title>node2&#45;&gt;node5</title>
<path fill="none" stroke="black" d="M297,-609.41C297,-564.85 297,-485.9 297,-440.09"/>
<polygon fill="black" stroke="black" points="300.5,-440.03 297,-430.03 293.5,-440.03 300.5,-440.03"/>
<text text-anchor="start" x="297" y="-519.8" font-family="Times,serif" font-size="14.00">%2</text>
</g>
<!-- node3 -->
<g id="node4" class="node">
<title>node3</title>
<polygon fill="none" stroke="black" points="478,-624.5 478,-662.5 768,-662.5 768,-624.5 478,-624.5"/>
<text text-anchor="start" x="486" y="-647.3" font-family="Times,serif" font-size="14.00">Get simplify_outer_joins.public.t (u98)</text>
<text text-anchor="start" x="486" y="-632.3" font-family="Times,serif" font-size="14.00"> ArrangeBy (#0)</text>
</g>
<!-- node3&#45;&gt;node4 -->
<g id="edge7" class="edge">
<title>node3&#45;&gt;node4</title>
<path fill="none" stroke="black" d="M618.53,-624.32C614.83,-609.24 609.4,-587.17 604.6,-567.62"/>
<polygon fill="black" stroke="black" points="607.94,-566.55 602.15,-557.67 601.14,-568.22 607.94,-566.55"/>
<text text-anchor="start" x="610" y="-579.8" font-family="Times,serif" font-size="14.00">%3</text>
</g>
<!-- node6 -->
<g id="node7" class="node">
<title>node6</title>
<polygon fill="none" stroke="black" points="413.5,-369.5 413.5,-437.5 580.5,-437.5 580.5,-369.5 413.5,-369.5"/>
<text text-anchor="start" x="421.5" y="-422.3" font-family="Times,serif" font-size="14.00">Get %4 (l1)</text>
<text text-anchor="start" x="421.5" y="-407.3" font-family="Times,serif" font-size="14.00"> Project (#1)</text>
<text text-anchor="start" x="421.5" y="-392.3" font-family="Times,serif" font-size="14.00"> Distinct group=(#0)</text>
<text text-anchor="start" x="421.5" y="-377.3" font-family="Times,serif" font-size="14.00"> ArrangeBy (#0)</text>
</g>
<!-- node4&#45;&gt;node6 -->
<g id="edge4" class="edge">
<title>node4&#45;&gt;node6</title>
<path fill="none" stroke="black" d="M566.72,-489.32C555.56,-475.74 542.54,-459.9 530.79,-445.6"/>
<polygon fill="black" stroke="black" points="533.46,-443.35 524.41,-437.84 528.06,-447.79 533.46,-443.35"/>
<text text-anchor="start" x="551" y="-459.8" font-family="Times,serif" font-size="14.00">%4</text>
</g>
<!-- node10 -->
<g id="node11" class="node">
<title>node10</title>
<polygon fill="none" stroke="black" points="532,-297.5 532,-350.5 760,-350.5 760,-297.5 532,-297.5"/>
<text text-anchor="start" x="540" y="-335.3" font-family="Times,serif" font-size="14.00">Get %4 (l1)</text>
<text text-anchor="start" x="540" y="-320.3" font-family="Times,serif" font-size="14.00"> Filter (#0 &gt; #2)</text>
<text text-anchor="start" x="540" y="-305.3" font-family="Times,serif" font-size="14.00"> Project (#0, #1, #1, #2, #1)</text>
</g>
<!-- node4&#45;&gt;node10 -->
<g id="edge13" class="edge">
<title>node4&#45;&gt;node10</title>
<path fill="none" stroke="black" d="M602.7,-489.44C612.11,-453.71 627.05,-396.97 636.69,-360.37"/>
<polygon fill="black" stroke="black" points="640.1,-361.17 639.26,-350.61 633.33,-359.39 640.1,-361.17"/>
<text text-anchor="start" x="611" y="-459.8" font-family="Times,serif" font-size="14.00">%4</text>
</g>
<!-- node7 -->
<g id="node8" class="node">
<title>node7</title>
<polygon fill="none" stroke="black" points="305,-195.5 305,-278.5 631,-278.5 631,-195.5 305,-195.5"/>
<text text-anchor="start" x="313" y="-263.3" font-family="Times,serif" font-size="14.00">Join %5 %6 (= #1 #3)</text>
<text text-anchor="start" x="313" y="-248.3" font-family="Times,serif" font-size="14.00"> implementation = Differential %5 %6.(#0)</text>
<text text-anchor="start" x="313" y="-233.3" font-family="Times,serif" font-size="14.00"> Project (#0..#2)</text>
<text text-anchor="start" x="313" y="-218.3" font-family="Times,serif" font-size="14.00"> Negate</text>
<text text-anchor="start" x="313" y="-203.3" font-family="Times,serif" font-size="14.00"> Project (#0, #1, #1, #2)</text>
</g>
<!-- node5&#45;&gt;node7 -->
<g id="edge8" class="edge">
<title>node5&#45;&gt;node7</title>
<path fill="none" stroke="black" d="M323.72,-376.8C349.02,-352.45 387.65,-315.3 418.56,-285.56"/>
<polygon fill="black" stroke="black" points="421.06,-288.01 425.84,-278.56 416.21,-282.97 421.06,-288.01"/>
<text text-anchor="start" x="403" y="-320.3" font-family="Times,serif" font-size="14.00">%5</text>
</g>
<!-- node8 -->
<g id="node9" class="node">
<title>node8</title>
<polygon fill="none" stroke="black" points="89,-218 89,-256 287,-256 287,-218 89,-218"/>
<text text-anchor="start" x="97" y="-240.8" font-family="Times,serif" font-size="14.00">Get %5 (l2)</text>
<text text-anchor="start" x="97" y="-225.8" font-family="Times,serif" font-size="14.00"> Project (#0, #1, #1, #2)</text>
</g>
<!-- node5&#45;&gt;node8 -->
<g id="edge14" class="edge">
<title>node5&#45;&gt;node8</title>
<path fill="none" stroke="black" d="M279.97,-376.8C259.81,-346.37 226.38,-295.92 205.86,-264.95"/>
<polygon fill="black" stroke="black" points="208.63,-262.79 200.19,-256.39 202.79,-266.66 208.63,-262.79"/>
<text text-anchor="start" x="262" y="-320.3" font-family="Times,serif" font-size="14.00">%5</text>
</g>
<!-- node6&#45;&gt;node7 -->
<g id="edge9" class="edge">
<title>node6&#45;&gt;node7</title>
<path fill="none" stroke="black" d="M491.13,-369.21C487.05,-346.09 481.55,-314.85 476.93,-288.65"/>
<polygon fill="black" stroke="black" points="480.33,-287.75 475.14,-278.51 473.43,-288.97 480.33,-287.75"/>
<text text-anchor="start" x="487" y="-320.3" font-family="Times,serif" font-size="14.00">%6</text>
</g>
<!-- node9 -->
<g id="node10" class="node">
<title>node9</title>
<polygon fill="none" stroke="black" points="411.5,-105.5 411.5,-143.5 524.5,-143.5 524.5,-105.5 411.5,-105.5"/>
<text text-anchor="start" x="419.5" y="-128.3" font-family="Times,serif" font-size="14.00">Union %7 %8</text>
<text text-anchor="start" x="419.5" y="-113.3" font-family="Times,serif" font-size="14.00"> Map null</text>
</g>
<!-- node7&#45;&gt;node9 -->
<g id="edge1" class="edge">
<title>node7&#45;&gt;node9</title>
<path fill="none" stroke="black" d="M468,-195.48C468,-181.76 468,-166.73 468,-154.13"/>
<polygon fill="black" stroke="black" points="471.5,-153.78 468,-143.78 464.5,-153.78 471.5,-153.78"/>
<text text-anchor="start" x="468" y="-165.8" font-family="Times,serif" font-size="14.00">%7</text>
</g>
<!-- node8&#45;&gt;node9 -->
<g id="edge5" class="edge">
<title>node8&#45;&gt;node9</title>
<path fill="none" stroke="black" d="M233.92,-217.88C282.85,-198.57 360.31,-168 412.6,-147.36"/>
<polygon fill="black" stroke="black" points="414.04,-150.56 422.05,-143.63 411.47,-144.05 414.04,-150.56"/>
<text text-anchor="start" x="370" y="-165.8" font-family="Times,serif" font-size="14.00">%8</text>
</g>
<!-- node11 -->
<g id="node12" class="node">
<title>node11</title>
<polygon fill="none" stroke="black" points="480,-0.5 480,-53.5 648,-53.5 648,-0.5 480,-0.5"/>
<text text-anchor="start" x="488" y="-38.3" font-family="Times,serif" font-size="14.00">Union %9 %10</text>
<text text-anchor="start" x="488" y="-23.3" font-family="Times,serif" font-size="14.00"> Map &quot;qgm(true)&quot;</text>
<text text-anchor="start" x="488" y="-8.3" font-family="Times,serif" font-size="14.00"> Project (#5, #0..#4)</text>
</g>
<!-- node9&#45;&gt;node11 -->
<g id="edge3" class="edge">
<title>node9&#45;&gt;node11</title>
<path fill="none" stroke="black" d="M486.51,-105.09C499.15,-92.51 516.25,-75.5 531.17,-60.66"/>
<polygon fill="black" stroke="black" points="533.67,-63.11 538.29,-53.58 528.73,-58.15 533.67,-63.11"/>
<text text-anchor="start" x="518" y="-75.8" font-family="Times,serif" font-size="14.00">%9</text>
</g>
<!-- node10&#45;&gt;node11 -->
<g id="edge11" class="edge">
<title>node10&#45;&gt;node11</title>
<path fill="none" stroke="black" d="M647.63,-297.1C648.61,-270.95 648.36,-229.6 640,-195 628.35,-146.74 602.71,-95.35 584.44,-62.52"/>
<polygon fill="black" stroke="black" points="587.47,-60.76 579.5,-53.77 581.37,-64.2 587.47,-60.76"/>
<text text-anchor="start" x="634" y="-165.8" font-family="Times,serif" font-size="14.00">%10</text>
</g>
</g>
</svg>
