<?xml version="1.0" encoding="UTF-8" standalone="no"?>
<!DOCTYPE svg PUBLIC "-//W3C//DTD SVG 1.1//EN"
 "http://www.w3.org/Graphics/SVG/1.1/DTD/svg11.dtd">
<!-- Generated by graphviz version 2.43.0 (0)
 -->
<!-- Title: G Pages: 1 -->
<svg width="988pt" height="1481pt"
 viewBox="0.00 0.00 988.00 1481.00" xmlns="http://www.w3.org/2000/svg" xmlns:xlink="http://www.w3.org/1999/xlink">
<g id="graph0" class="graph" transform="scale(1 1) rotate(0) translate(4 1477)">
<title>G</title>
<polygon fill="white" stroke="transparent" points="-4,4 -4,-1477 984,-1477 984,4 -4,4"/>
<!-- node0 -->
<g id="node1" class="node">
<title>node0</title>
<polygon fill="none" stroke="black" points="0,-1329.5 0,-1472.5 288,-1472.5 288,-1329.5 0,-1329.5"/>
<text text-anchor="start" x="8" y="-1457.3" font-family="Times,serif" font-size="14.00">Get simplify_outer_joins.public.l (u94)</text>
<text text-anchor="start" x="8" y="-1442.3" font-family="Times,serif" font-size="14.00"> types = (integer?, integer?)</text>
<text text-anchor="start" x="8" y="-1427.3" font-family="Times,serif" font-size="14.00"> keys = ()</text>
<text text-anchor="start" x="8" y="-1412.3" font-family="Times,serif" font-size="14.00"> Filter !(isnull(#1))</text>
<text text-anchor="start" x="8" y="-1397.3" font-family="Times,serif" font-size="14.00"> types = (integer?, integer)</text>
<text text-anchor="start" x="8" y="-1382.3" font-family="Times,serif" font-size="14.00"> keys = ()</text>
<text text-anchor="start" x="8" y="-1367.3" font-family="Times,serif" font-size="14.00"> ArrangeBy (#1)</text>
<text text-anchor="start" x="8" y="-1352.3" font-family="Times,serif" font-size="14.00"> types = (integer?, integer)</text>
<text text-anchor="start" x="8" y="-1337.3" font-family="Times,serif" font-size="14.00"> keys = ()</text>
</g>
<!-- node2 -->
<g id="node3" class="node">
<title>node2</title>
<polygon fill="none" stroke="black" points="132,-1149.5 132,-1277.5 462,-1277.5 462,-1149.5 132,-1149.5"/>
<text text-anchor="start" x="140" y="-1262.3" font-family="Times,serif" font-size="14.00">Let l0 =</text>
<text text-anchor="start" x="140" y="-1247.3" font-family="Times,serif" font-size="14.00"> Join %0 %1 (= #1 #2)</text>
<text text-anchor="start" x="140" y="-1232.3" font-family="Times,serif" font-size="14.00"> implementation = Differential %1 %0.(#1)</text>
<text text-anchor="start" x="140" y="-1217.3" font-family="Times,serif" font-size="14.00"> types = (integer?, integer, integer, integer)</text>
<text text-anchor="start" x="140" y="-1202.3" font-family="Times,serif" font-size="14.00"> keys = ()</text>
<text text-anchor="start" x="140" y="-1187.3" font-family="Times,serif" font-size="14.00"> Project (#0, #1, #3)</text>
<text text-anchor="start" x="140" y="-1172.3" font-family="Times,serif" font-size="14.00"> types = (integer?, integer, integer)</text>
<text text-anchor="start" x="140" y="-1157.3" font-family="Times,serif" font-size="14.00"> keys = ()</text>
</g>
<!-- node0&#45;&gt;node2 -->
<g id="edge6" class="edge">
<title>node0&#45;&gt;node2</title>
<path fill="none" stroke="black" d="M202.28,-1329.34C214.11,-1315 226.55,-1299.91 238.39,-1285.56"/>
<polygon fill="black" stroke="black" points="241.24,-1287.61 244.9,-1277.67 235.84,-1283.16 241.24,-1287.61"/>
<text text-anchor="start" x="230" y="-1299.8" font-family="Times,serif" font-size="14.00">%0</text>
</g>
<!-- node1 -->
<g id="node2" class="node">
<title>node1</title>
<polygon fill="none" stroke="black" points="306,-1352 306,-1450 596,-1450 596,-1352 306,-1352"/>
<text text-anchor="start" x="314" y="-1434.8" font-family="Times,serif" font-size="14.00">Get simplify_outer_joins.public.r (u96)</text>
<text text-anchor="start" x="314" y="-1419.8" font-family="Times,serif" font-size="14.00"> types = (integer?, integer)</text>
<text text-anchor="start" x="314" y="-1404.8" font-family="Times,serif" font-size="14.00"> keys = ()</text>
<text text-anchor="start" x="314" y="-1389.8" font-family="Times,serif" font-size="14.00"> Filter !(isnull(#0))</text>
<text text-anchor="start" x="314" y="-1374.8" font-family="Times,serif" font-size="14.00"> types = (integer, integer)</text>
<text text-anchor="start" x="314" y="-1359.8" font-family="Times,serif" font-size="14.00"> keys = ()</text>
</g>
<!-- node1&#45;&gt;node2 -->
<g id="edge2" class="edge">
<title>node1&#45;&gt;node2</title>
<path fill="none" stroke="black" d="M410.94,-1351.75C394.12,-1331.48 374.22,-1307.51 355.79,-1285.31"/>
<polygon fill="black" stroke="black" points="358.42,-1283 349.34,-1277.55 353.03,-1287.48 358.42,-1283"/>
<text text-anchor="start" x="374" y="-1299.8" font-family="Times,serif" font-size="14.00">%1</text>
</g>
<!-- node4 -->
<g id="node5" class="node">
<title>node4</title>
<polygon fill="none" stroke="black" points="451,-969.5 451,-1097.5 789,-1097.5 789,-969.5 451,-969.5"/>
<text text-anchor="start" x="459" y="-1082.3" font-family="Times,serif" font-size="14.00">Let l1 =</text>
<text text-anchor="start" x="459" y="-1067.3" font-family="Times,serif" font-size="14.00"> Join %2 %3 (= #1 #3)</text>
<text text-anchor="start" x="459" y="-1052.3" font-family="Times,serif" font-size="14.00"> implementation = Differential %2 %3.(#0)</text>
<text text-anchor="start" x="459" y="-1037.3" font-family="Times,serif" font-size="14.00"> types = (integer?, integer, integer, integer?)</text>
<text text-anchor="start" x="459" y="-1022.3" font-family="Times,serif" font-size="14.00"> keys = ()</text>
<text text-anchor="start" x="459" y="-1007.3" font-family="Times,serif" font-size="14.00"> Project (#0..#2)</text>
<text text-anchor="start" x="459" y="-992.3" font-family="Times,serif" font-size="14.00"> types = (integer?, integer, integer)</text>
<text text-anchor="start" x="459" y="-977.3" font-family="Times,serif" font-size="14.00"> keys = ()</text>
</g>
<!-- node2&#45;&gt;node4 -->
<g id="edge10" class="edge">
<title>node2&#45;&gt;node4</title>
<path fill="none" stroke="black" d="M411.33,-1149.49C438.93,-1134.29 468.53,-1117.97 496.52,-1102.55"/>
<polygon fill="black" stroke="black" points="498.48,-1105.46 505.55,-1097.57 495.1,-1099.33 498.48,-1105.46"/>
<text text-anchor="start" x="468" y="-1119.8" font-family="Times,serif" font-size="14.00">%2</text>
</g>
<!-- node5 -->
<g id="node6" class="node">
<title>node5</title>
<polygon fill="none" stroke="black" points="161.5,-767 161.5,-880 432.5,-880 432.5,-767 161.5,-767"/>
<text text-anchor="start" x="169.5" y="-864.8" font-family="Times,serif" font-size="14.00">Let l2 =</text>
<text text-anchor="start" x="169.5" y="-849.8" font-family="Times,serif" font-size="14.00"> Get %2 (l0)</text>
<text text-anchor="start" x="169.5" y="-834.8" font-family="Times,serif" font-size="14.00"> types = (integer?, integer, integer)</text>
<text text-anchor="start" x="169.5" y="-819.8" font-family="Times,serif" font-size="14.00"> keys = ()</text>
<text text-anchor="start" x="169.5" y="-804.8" font-family="Times,serif" font-size="14.00"> Filter (#0 &gt; #2)</text>
<text text-anchor="start" x="169.5" y="-789.8" font-family="Times,serif" font-size="14.00"> types = (integer, integer, integer)</text>
<text text-anchor="start" x="169.5" y="-774.8" font-family="Times,serif" font-size="14.00"> keys = ()</text>
</g>
<!-- node2&#45;&gt;node5 -->
<g id="edge12" class="edge">
<title>node2&#45;&gt;node5</title>
<path fill="none" stroke="black" d="M297,-1149.3C297,-1078.07 297,-962.82 297,-890.48"/>
<polygon fill="black" stroke="black" points="300.5,-890.12 297,-880.12 293.5,-890.12 300.5,-890.12"/>
<text text-anchor="start" x="297" y="-1029.8" font-family="Times,serif" font-size="14.00">%2</text>
</g>
<!-- node3 -->
<g id="node4" class="node">
<title>node3</title>
<polygon fill="none" stroke="black" points="480,-1164.5 480,-1262.5 770,-1262.5 770,-1164.5 480,-1164.5"/>
<text text-anchor="start" x="488" y="-1247.3" font-family="Times,serif" font-size="14.00">Get simplify_outer_joins.public.t (u98)</text>
<text text-anchor="start" x="488" y="-1232.3" font-family="Times,serif" font-size="14.00"> types = (integer?)</text>
<text text-anchor="start" x="488" y="-1217.3" font-family="Times,serif" font-size="14.00"> keys = ()</text>
<text text-anchor="start" x="488" y="-1202.3" font-family="Times,serif" font-size="14.00"> ArrangeBy (#0)</text>
<text text-anchor="start" x="488" y="-1187.3" font-family="Times,serif" font-size="14.00"> types = (integer?)</text>
<text text-anchor="start" x="488" y="-1172.3" font-family="Times,serif" font-size="14.00"> keys = ()</text>
</g>
<!-- node3&#45;&gt;node4 -->
<g id="edge7" class="edge">
<title>node3&#45;&gt;node4</title>
<path fill="none" stroke="black" d="M623.65,-1164.33C623.16,-1146.96 622.6,-1126.95 622.06,-1107.91"/>
<polygon fill="black" stroke="black" points="625.56,-1107.66 621.78,-1097.77 618.56,-1107.86 625.56,-1107.66"/>
<text text-anchor="start" x="622" y="-1119.8" font-family="Times,serif" font-size="14.00">%3</text>
</g>
<!-- node6 -->
<g id="node7" class="node">
<title>node6</title>
<polygon fill="none" stroke="black" points="455.5,-729.5 455.5,-917.5 726.5,-917.5 726.5,-729.5 455.5,-729.5"/>
<text text-anchor="start" x="463.5" y="-902.3" font-family="Times,serif" font-size="14.00">Get %4 (l1)</text>
<text text-anchor="start" x="463.5" y="-887.3" font-family="Times,serif" font-size="14.00"> types = (integer?, integer, integer)</text>
<text text-anchor="start" x="463.5" y="-872.3" font-family="Times,serif" font-size="14.00"> keys = ()</text>
<text text-anchor="start" x="463.5" y="-857.3" font-family="Times,serif" font-size="14.00"> Project (#1)</text>
<text text-anchor="start" x="463.5" y="-842.3" font-family="Times,serif" font-size="14.00"> types = (integer)</text>
<text text-anchor="start" x="463.5" y="-827.3" font-family="Times,serif" font-size="14.00"> keys = ()</text>
<text text-anchor="start" x="463.5" y="-812.3" font-family="Times,serif" font-size="14.00"> Distinct group=(#0)</text>
<text text-anchor="start" x="463.5" y="-797.3" font-family="Times,serif" font-size="14.00"> types = (integer)</text>
<text text-anchor="start" x="463.5" y="-782.3" font-family="Times,serif" font-size="14.00"> keys = ((#0))</text>
<text text-anchor="start" x="463.5" y="-767.3" font-family="Times,serif" font-size="14.00"> ArrangeBy (#0)</text>
<text text-anchor="start" x="463.5" y="-752.3" font-family="Times,serif" font-size="14.00"> types = (integer)</text>
<text text-anchor="start" x="463.5" y="-737.3" font-family="Times,serif" font-size="14.00"> keys = ((#0))</text>
</g>
<!-- node4&#45;&gt;node6 -->
<g id="edge4" class="edge">
<title>node4&#45;&gt;node6</title>
<path fill="none" stroke="black" d="M611.18,-969.25C609.36,-956.17 607.39,-942.06 605.43,-927.98"/>
<polygon fill="black" stroke="black" points="608.85,-927.15 604,-917.73 601.91,-928.12 608.85,-927.15"/>
<text text-anchor="start" x="608" y="-939.8" font-family="Times,serif" font-size="14.00">%4</text>
</g>
<!-- node10 -->
<g id="node11" class="node">
<title>node10</title>
<polygon fill="none" stroke="black" points="600,-567.5 600,-710.5 980,-710.5 980,-567.5 600,-567.5"/>
<text text-anchor="start" x="608" y="-695.3" font-family="Times,serif" font-size="14.00">Get %4 (l1)</text>
<text text-anchor="start" x="608" y="-680.3" font-family="Times,serif" font-size="14.00"> types = (integer?, integer, integer)</text>
<text text-anchor="start" x="608" y="-665.3" font-family="Times,serif" font-size="14.00"> keys = ()</text>
<text text-anchor="start" x="608" y="-650.3" font-family="Times,serif" font-size="14.00"> Filter (#0 &gt; #2)</text>
<text text-anchor="start" x="608" y="-635.3" font-family="Times,serif" font-size="14.00"> types = (integer, integer, integer)</text>
<text text-anchor="start" x="608" y="-620.3" font-family="Times,serif" font-size="14.00"> keys = ()</text>
<text text-anchor="start" x="608" y="-605.3" font-family="Times,serif" font-size="14.00"> Project (#0, #1, #1, #2, #1)</text>
<text text-anchor="start" x="608" y="-590.3" font-family="Times,serif" font-size="14.00"> types = (integer, integer, integer, integer, integer)</text>
<text text-anchor="start" x="608" y="-575.3" font-family="Times,serif" font-size="14.00"> keys = ()</text>
</g>
<!-- node4&#45;&gt;node10 -->
<g id="edge13" class="edge">
<title>node4&#45;&gt;node10</title>
<path fill="none" stroke="black" d="M697.23,-969.47C712.06,-954.05 726.04,-936.58 736,-918 768.75,-856.88 781.8,-778.73 786.92,-720.86"/>
<polygon fill="black" stroke="black" points="790.43,-720.92 787.76,-710.67 783.45,-720.35 790.43,-720.92"/>
<text text-anchor="start" x="724" y="-939.8" font-family="Times,serif" font-size="14.00">%4</text>
</g>
<!-- node7 -->
<g id="node8" class="node">
<title>node7</title>
<polygon fill="none" stroke="black" points="409,-345.5 409,-548.5 735,-548.5 735,-345.5 409,-345.5"/>
<text text-anchor="start" x="417" y="-533.3" font-family="Times,serif" font-size="14.00">Join %5 %6 (= #1 #3)</text>
<text text-anchor="start" x="417" y="-518.3" font-family="Times,serif" font-size="14.00"> implementation = Differential %5 %6.(#0)</text>
<text text-anchor="start" x="417" y="-503.3" font-family="Times,serif" font-size="14.00"> types = (integer, integer, integer, integer)</text>
<text text-anchor="start" x="417" y="-488.3" font-family="Times,serif" font-size="14.00"> keys = ()</text>
<text text-anchor="start" x="417" y="-473.3" font-family="Times,serif" font-size="14.00"> Project (#0..#2)</text>
<text text-anchor="start" x="417" y="-458.3" font-family="Times,serif" font-size="14.00"> types = (integer, integer, integer)</text>
<text text-anchor="start" x="417" y="-443.3" font-family="Times,serif" font-size="14.00"> keys = ()</text>
<text text-anchor="start" x="417" y="-428.3" font-family="Times,serif" font-size="14.00"> Negate</text>
<text text-anchor="start" x="417" y="-413.3" font-family="Times,serif" font-size="14.00"> types = (integer, integer, integer)</text>
<text text-anchor="start" x="417" y="-398.3" font-family="Times,serif" font-size="14.00"> keys = ()</text>
<text text-anchor="start" x="417" y="-383.3" font-family="Times,serif" font-size="14.00"> Project (#0, #1, #1, #2)</text>
<text text-anchor="start" x="417" y="-368.3" font-family="Times,serif" font-size="14.00"> types = (integer, integer, integer, integer)</text>
<text text-anchor="start" x="417" y="-353.3" font-family="Times,serif" font-size="14.00"> keys = ()</text>
</g>
<!-- node5&#45;&gt;node7 -->
<g id="edge8" class="edge">
<title>node5&#45;&gt;node7</title>
<path fill="none" stroke="black" d="M337.87,-766.84C378.35,-711.72 441.41,-625.85 491.89,-557.1"/>
<polygon fill="black" stroke="black" points="494.88,-558.94 497.98,-548.8 489.24,-554.79 494.88,-558.94"/>
<text text-anchor="start" x="483" y="-635.3" font-family="Times,serif" font-size="14.00">%5</text>
</g>
<!-- node8 -->
<g id="node9" class="node">
<title>node8</title>
<polygon fill="none" stroke="black" points="69.5,-398 69.5,-496 390.5,-496 390.5,-398 69.5,-398"/>
<text text-anchor="start" x="77.5" y="-480.8" font-family="Times,serif" font-size="14.00">Get %5 (l2)</text>
<text text-anchor="start" x="77.5" y="-465.8" font-family="Times,serif" font-size="14.00"> types = (integer, integer, integer)</text>
<text text-anchor="start" x="77.5" y="-450.8" font-family="Times,serif" font-size="14.00"> keys = ()</text>
<text text-anchor="start" x="77.5" y="-435.8" font-family="Times,serif" font-size="14.00"> Project (#0, #1, #1, #2)</text>
<text text-anchor="start" x="77.5" y="-420.8" font-family="Times,serif" font-size="14.00"> types = (integer, integer, integer, integer)</text>
<text text-anchor="start" x="77.5" y="-405.8" font-family="Times,serif" font-size="14.00"> keys = ()</text>
</g>
<!-- node5&#45;&gt;node8 -->
<g id="edge14" class="edge">
<title>node5&#45;&gt;node8</title>
<path fill="none" stroke="black" d="M287.04,-766.84C274.53,-696.92 253.17,-577.52 240.44,-506.36"/>
<polygon fill="black" stroke="black" points="243.83,-505.45 238.63,-496.22 236.94,-506.68 243.83,-505.45"/>
<text text-anchor="start" x="276" y="-635.3" font-family="Times,serif" font-size="14.00">%5</text>
</g>
<!-- node6&#45;&gt;node7 -->
<g id="edge9" class="edge">
<title>node6&#45;&gt;node7</title>
<path fill="none" stroke="black" d="M570.33,-729.33C569.4,-723.15 568.61,-717 568,-711 562.92,-661.27 562.92,-605.98 564.58,-558.98"/>
<polygon fill="black" stroke="black" points="568.09,-558.9 564.97,-548.77 561.09,-558.63 568.09,-558.9"/>
<text text-anchor="start" x="568" y="-635.3" font-family="Times,serif" font-size="14.00">%6</text>
</g>
<!-- node9 -->
<g id="node10" class="node">
<title>node9</title>
<polygon fill="none" stroke="black" points="374,-195.5 374,-293.5 762,-293.5 762,-195.5 374,-195.5"/>
<text text-anchor="start" x="382" y="-278.3" font-family="Times,serif" font-size="14.00">Union %7 %8</text>
<text text-anchor="start" x="382" y="-263.3" font-family="Times,serif" font-size="14.00"> types = (integer, integer, integer, integer)</text>
<text text-anchor="start" x="382" y="-248.3" font-family="Times,serif" font-size="14.00"> keys = ()</text>
<text text-anchor="start" x="382" y="-233.3" font-family="Times,serif" font-size="14.00"> Map null</text>
<text text-anchor="start" x="382" y="-218.3" font-family="Times,serif" font-size="14.00"> types = (integer, integer, integer, integer, integer?)</text>
<text text-anchor="start" x="382" y="-203.3" font-family="Times,serif" font-size="14.00"> keys = ()</text>
</g>
<!-- node7&#45;&gt;node9 -->
<g id="edge1" class="edge">
<title>node7&#45;&gt;node9</title>
<path fill="none" stroke="black" d="M569.99,-345.46C569.71,-331.19 569.43,-316.94 569.16,-303.85"/>
<polygon fill="black" stroke="black" points="572.66,-303.55 568.96,-293.62 565.66,-303.68 572.66,-303.55"/>
<text text-anchor="start" x="569" y="-315.8" font-family="Times,serif" font-size="14.00">%7</text>
</g>
<!-- node8&#45;&gt;node9 -->
<g id="edge5" class="edge">
<title>node8&#45;&gt;node9</title>
<path fill="none" stroke="black" d="M310.84,-397.94C339.05,-381.18 370.92,-362.25 400,-345 425.3,-329.99 452.75,-313.73 477.98,-298.78"/>
<polygon fill="black" stroke="black" points="479.99,-301.66 486.81,-293.56 476.42,-295.64 479.99,-301.66"/>
<text text-anchor="start" x="455" y="-315.8" font-family="Times,serif" font-size="14.00">%8</text>
</g>
<!-- node11 -->
<g id="node12" class="node">
<title>node11</title>
<polygon fill="none" stroke="black" points="466.5,-0.5 466.5,-143.5 891.5,-143.5 891.5,-0.5 466.5,-0.5"/>
<text text-anchor="start" x="474.5" y="-128.3" font-family="Times,serif" font-size="14.00">Union %9 %10</text>
<text text-anchor="start" x="474.5" y="-113.3" font-family="Times,serif" font-size="14.00"> types = (integer, integer, integer, integer, integer?)</text>
<text text-anchor="start" x="474.5" y="-98.3" font-family="Times,serif" font-size="14.00"> keys = ()</text>
<text text-anchor="start" x="474.5" y="-83.3" font-family="Times,serif" font-size="14.00"> Map &quot;qgm(true)&quot;</text>
<text text-anchor="start" x="474.5" y="-68.3" font-family="Times,serif" font-size="14.00"> types = (integer, integer, integer, integer, integer?, text)</text>
<text text-anchor="start" x="474.5" y="-53.3" font-family="Times,serif" font-size="14.00"> keys = ()</text>
<text text-anchor="start" x="474.5" y="-38.3" font-family="Times,serif" font-size="14.00"> Project (#5, #0..#4)</text>
<text text-anchor="start" x="474.5" y="-23.3" font-family="Times,serif" font-size="14.00"> types = (text, integer, integer, integer, integer, integer?)</text>
<text text-anchor="start" x="474.5" y="-8.3" font-family="Times,serif" font-size="14.00"> keys = ()</text>
</g>
<!-- node9&#45;&gt;node11 -->
<g id="edge3" class="edge">
<title>node9&#45;&gt;node11</title>
<path fill="none" stroke="black" d="M599.51,-195.1C608.19,-181.77 617.84,-166.94 627.34,-152.35"/>
<polygon fill="black" stroke="black" points="630.38,-154.09 632.91,-143.8 624.52,-150.27 630.38,-154.09"/>
<text text-anchor="start" x="620" y="-165.8" font-family="Times,serif" font-size="14.00">%9</text>
</g>
<!-- node10&#45;&gt;node11 -->
<g id="edge11" class="edge">
<title>node10&#45;&gt;node11</title>
<path fill="none" stroke="black" d="M799.57,-567.25C808.88,-477.68 815.85,-319.99 771,-195 765.66,-180.11 757.81,-165.54 748.92,-151.95"/>
<polygon fill="black" stroke="black" points="751.78,-149.92 743.26,-143.61 745.99,-153.85 751.78,-149.92"/>
<text text-anchor="start" x="799" y="-315.8" font-family="Times,serif" font-size="14.00">%10</text>
</g>
</g>
</svg>
