<?xml version="1.0" encoding="UTF-8" standalone="no"?>
<svg
  xmlns:dc="http://purl.org/dc/elements/1.1/"
  xmlns:cc="http://creativecommons.org/ns#"
  xmlns:rdf="http://www.w3.org/1999/02/22-rdf-syntax-ns#"
  xmlns:svg="http://www.w3.org/2000/svg"
  xmlns="http://www.w3.org/2000/svg"
  viewBox="0 0 778.37772 778.37778"
  height="778.37775"
  width="778.37775"
  xml:space="preserve"
  id="svg2"
  version="1.1"><metadata
     id="metadata8"><rdf:RDF><cc:Work
         rdf:about=""><dc:format>image/svg+xml</dc:format><dc:type
           rdf:resource="http://purl.org/dc/dcmitype/StillImage" /><dc:title></dc:title></cc:Work></rdf:RDF></metadata><defs
     id="defs6" /><g
     transform="matrix(1.3333333,0,0,-1.3333333,-6.8111165,935.18874)"
     id="g10"><g
       transform="matrix(0.01459457,0,0,0.01459457,5.1083375,117.60823)"
       id="g12"><g
         transform="scale(2.45399)"
         id="g14"><path
           id="path16"
           style="fill:#ffffff;fill-opacity:1;fill-rule:nonzero;stroke:none"
           d="M 16300,0 H 0 V 16300 H 16300 V 0" /></g><g
         transform="scale(1.40677)"
         id="g18"><path
           id="path20"
           style="fill:#181819;fill-opacity:1;fill-rule:nonzero;stroke:none"
           d="m 11637.8,15694.9 c 0,-334.1 270.8,-605 605,-605 334.2,0 605.1,270.9 605.1,605 0,334.2 -270.9,605.1 -605.1,605.1 -334.2,0 -605,-270.9 -605,-605.1" /></g><g
         transform="scale(1.77894)"
         id="g22"><path
           id="path24"
           style="fill:#181819;fill-opacity:1;fill-rule:nonzero;stroke:none"
           d="m 11242.7,6598.32 c -1206.4,0 -2306.7,462.35 -3133.26,1219.09 l 6558.46,6558.49 c 756.7,-826.6 1219.1,-1926.9 1219.1,-3133.2 0,-2560.95 -2083.4,-4644.38 -4644.3,-4644.38 z m 0,9288.68 c 1206.3,0 2306.6,-462.4 3133.2,-1219.1 L 7817.41,8109.44 C 7060.67,8936 6598.32,10036.3 6598.32,11242.7 c 0,2560.9 2083.43,4644.3 4644.38,4644.3 z m 4659.8,-2675.8 c -254.7,602.3 -619.4,1143.1 -1083.8,1607.5 -464.4,464.4 -1005.2,829.1 -1607.5,1083.8 -623.6,263.7 -1285.9,397.5 -1968.5,397.5 -682.7,0 -1345,-133.8 -1968.63,-397.5 -602.27,-254.7 -1143.1,-619.4 -1607.48,-1083.8 -464.37,-464.4 -829.03,-1005.2 -1083.73,-1607.5 -263.75,-623.6 -397.54,-1285.9 -397.54,-1968.5 0,-682.7 133.79,-1345 397.54,-1968.63 254.7,-602.27 619.36,-1143.1 1083.73,-1607.47 464.38,-464.38 1005.21,-829.04 1607.48,-1083.74 623.63,-263.81 1285.93,-397.54 1968.63,-397.54 682.6,0 1344.9,133.73 1968.5,397.54 602.3,254.7 1143.1,619.36 1607.5,1083.74 464.4,464.37 829.1,1005.2 1083.8,1607.47 263.8,623.63 397.5,1285.93 397.5,1968.63 0,682.6 -133.7,1344.9 -397.5,1968.5" /></g><g
         transform="scale(1.49549)"
         id="g26"><path
           id="path28"
           style="fill:#181819;fill-opacity:1;fill-rule:nonzero;stroke:none"
           d="m 10258,10906.3 245.7,245.6 2491.4,2491.4 -180.4,208.9 -186.5,216 c -64.4,74.6 -179.2,77.7 -247.4,6.5 l -1877.1,-1954.9 v 3674 c 0,8.2 6.7,14.9 14.9,14.9 h 4641.9 l 491.3,491.3 h -5133.2 c -279.1,0 -506.2,-227.1 -506.2,-506.2 v -4840.5 c 0,-84.8 21,-164.5 57.9,-234.7 l 187.7,187.7" /></g><g
         transform="scale(1.53537)"
         id="g30"><path
           id="path32"
           style="fill:#181819;fill-opacity:1;fill-rule:nonzero;stroke:none"
           d="m 15821.5,15190.1 v -3264.6 l -620.5,650.6 c -63.2,66.3 -168.7,67.4 -233.4,2.5 l -785.2,-787.6 c -67,-67.2 -176.9,-63.2 -238.9,8.6 l -546.5,632.9 -154.3,178.7 -1957.1,-1956.9 -239.2,-239.3 -239.3,-239.3 H 15807 c 271.9,0 493,221.2 493,493.1 v 4714.8 c 0,82.5 -20.4,160.2 -56.4,228.6 l -422.1,-422.1" /></g></g></g></svg>