<?xml version="1.0" encoding="UTF-8" standalone="no"?>
<!DOCTYPE svg PUBLIC "-//W3C//DTD SVG 1.1//EN"
 "http://www.w3.org/Graphics/SVG/1.1/DTD/svg11.dtd">
<!-- Generated by graphviz version 2.43.0 (0)
 -->
<!-- Title: G Pages: 1 -->
<svg width="282pt" height="165pt"
 viewBox="0.00 0.00 282.00 165.00" xmlns="http://www.w3.org/2000/svg" xmlns:xlink="http://www.w3.org/1999/xlink">
<g id="graph0" class="graph" transform="scale(1 1) rotate(0) translate(4 161)">
<title>G</title>
<polygon fill="white" stroke="transparent" points="-4,4 -4,-161 278,-161 278,4 -4,4"/>
<!-- node0 -->
<g id="node1" class="node">
<title>node0</title>
<polygon fill="none" stroke="black" points="32,-120.5 32,-156.5 128,-156.5 128,-120.5 32,-120.5"/>
<text text-anchor="start" x="40" y="-134.8" font-family="Times,serif" font-size="14.00">Constant ()</text>
</g>
<!-- node2 -->
<g id="node3" class="node">
<title>node2</title>
<polygon fill="none" stroke="black" points="0,-0.5 0,-68.5 274,-68.5 274,-0.5 0,-0.5"/>
<text text-anchor="start" x="8" y="-53.3" font-family="Times,serif" font-size="14.00">Join %0 %1</text>
<text text-anchor="start" x="8" y="-38.3" font-family="Times,serif" font-size="14.00">&#45; implementation = Unimplemented</text>
<text text-anchor="start" x="8" y="-23.3" font-family="Times,serif" font-size="14.00">Map 1</text>
<text text-anchor="start" x="8" y="-8.3" font-family="Times,serif" font-size="14.00">Project (#0)</text>
</g>
<!-- node0&#45;&gt;node2 -->
<g id="edge1" class="edge">
<title>node0&#45;&gt;node2</title>
<path fill="none" stroke="black" d="M89.67,-120.2C96.19,-108.52 105.1,-92.59 113.42,-77.69"/>
<polygon fill="black" stroke="black" points="116.69,-79.03 118.51,-68.59 110.57,-75.61 116.69,-79.03"/>
<text text-anchor="start" x="107" y="-90.8" font-family="Times,serif" font-size="14.00">%0</text>
</g>
<!-- node1 -->
<g id="node2" class="node">
<title>node1</title>
<polygon fill="none" stroke="black" points="146,-120.5 146,-156.5 242,-156.5 242,-120.5 146,-120.5"/>
<text text-anchor="start" x="154" y="-134.8" font-family="Times,serif" font-size="14.00">Constant ()</text>
</g>
<!-- node1&#45;&gt;node2 -->
<g id="edge2" class="edge">
<title>node1&#45;&gt;node2</title>
<path fill="none" stroke="black" d="M184.33,-120.2C177.81,-108.52 168.9,-92.59 160.58,-77.69"/>
<polygon fill="black" stroke="black" points="163.43,-75.61 155.49,-68.59 157.31,-79.03 163.43,-75.61"/>
<text text-anchor="start" x="173" y="-90.8" font-family="Times,serif" font-size="14.00">%1</text>
</g>
</g>
</svg>
