<?xml version="1.0" encoding="UTF-8" standalone="no"?>
<!DOCTYPE svg PUBLIC "-//W3C//DTD SVG 1.1//EN"
 "http://www.w3.org/Graphics/SVG/1.1/DTD/svg11.dtd">
<!-- Generated by graphviz version 2.43.0 (0)
 -->
<!-- Title: G Pages: 1 -->
<svg width="282pt" height="272pt"
 viewBox="0.00 0.00 282.00 272.00" xmlns="http://www.w3.org/2000/svg" xmlns:xlink="http://www.w3.org/1999/xlink">
<g id="graph0" class="graph" transform="scale(1 1) rotate(0) translate(4 268)">
<title>G</title>
<polygon fill="white" stroke="transparent" points="-4,4 -4,-268 278,-268 278,4 -4,4"/>
<!-- node0 -->
<g id="node1" class="node">
<title>node0</title>
<polygon fill="none" stroke="black" points="28,-210.5 28,-263.5 128,-263.5 128,-210.5 28,-210.5"/>
<text text-anchor="start" x="36" y="-248.3" font-family="Times,serif" font-size="14.00">Constant ()</text>
<text text-anchor="start" x="36" y="-233.3" font-family="Times,serif" font-size="14.00">&#45; types = ()</text>
<text text-anchor="start" x="36" y="-218.3" font-family="Times,serif" font-size="14.00">&#45; keys = (())</text>
</g>
<!-- node2 -->
<g id="node3" class="node">
<title>node2</title>
<polygon fill="none" stroke="black" points="0,-0.5 0,-158.5 274,-158.5 274,-0.5 0,-0.5"/>
<text text-anchor="start" x="8" y="-143.3" font-family="Times,serif" font-size="14.00">Join %0 %1</text>
<text text-anchor="start" x="8" y="-128.3" font-family="Times,serif" font-size="14.00">&#45; implementation = Unimplemented</text>
<text text-anchor="start" x="8" y="-113.3" font-family="Times,serif" font-size="14.00">&#45; types = ()</text>
<text text-anchor="start" x="8" y="-98.3" font-family="Times,serif" font-size="14.00">&#45; keys = (())</text>
<text text-anchor="start" x="8" y="-83.3" font-family="Times,serif" font-size="14.00">Map 1</text>
<text text-anchor="start" x="8" y="-68.3" font-family="Times,serif" font-size="14.00">&#45; types = (integer)</text>
<text text-anchor="start" x="8" y="-53.3" font-family="Times,serif" font-size="14.00">&#45; keys = (())</text>
<text text-anchor="start" x="8" y="-38.3" font-family="Times,serif" font-size="14.00">Project (#0)</text>
<text text-anchor="start" x="8" y="-23.3" font-family="Times,serif" font-size="14.00">&#45; types = (integer)</text>
<text text-anchor="start" x="8" y="-8.3" font-family="Times,serif" font-size="14.00">&#45; keys = (())</text>
</g>
<!-- node0&#45;&gt;node2 -->
<g id="edge1" class="edge">
<title>node0&#45;&gt;node2</title>
<path fill="none" stroke="black" d="M87.74,-210.32C92.24,-198.46 97.88,-183.61 103.71,-168.24"/>
<polygon fill="black" stroke="black" points="107.09,-169.2 107.36,-158.61 100.54,-166.72 107.09,-169.2"/>
<text text-anchor="start" x="99" y="-180.8" font-family="Times,serif" font-size="14.00">%0</text>
</g>
<!-- node1 -->
<g id="node2" class="node">
<title>node1</title>
<polygon fill="none" stroke="black" points="146,-210.5 146,-263.5 246,-263.5 246,-210.5 146,-210.5"/>
<text text-anchor="start" x="154" y="-248.3" font-family="Times,serif" font-size="14.00">Constant ()</text>
<text text-anchor="start" x="154" y="-233.3" font-family="Times,serif" font-size="14.00">&#45; types = ()</text>
<text text-anchor="start" x="154" y="-218.3" font-family="Times,serif" font-size="14.00">&#45; keys = (())</text>
</g>
<!-- node1&#45;&gt;node2 -->
<g id="edge2" class="edge">
<title>node1&#45;&gt;node2</title>
<path fill="none" stroke="black" d="M186.26,-210.32C181.76,-198.46 176.12,-183.61 170.29,-168.24"/>
<polygon fill="black" stroke="black" points="173.46,-166.72 166.64,-158.61 166.91,-169.2 173.46,-166.72"/>
<text text-anchor="start" x="178" y="-180.8" font-family="Times,serif" font-size="14.00">%1</text>
</g>
</g>
</svg>
