<?xml version="1.0" encoding="UTF-8" standalone="no"?>
<!DOCTYPE svg PUBLIC "-//W3C//DTD SVG 1.1//EN"
 "http://www.w3.org/Graphics/SVG/1.1/DTD/svg11.dtd">
<!-- Generated by graphviz version 2.43.0 (0)
 -->
<!-- Title: G Pages: 1 -->
<svg width="484pt" height="135pt"
 viewBox="0.00 0.00 484.00 135.00" xmlns="http://www.w3.org/2000/svg" xmlns:xlink="http://www.w3.org/1999/xlink">
<g id="graph0" class="graph" transform="scale(1 1) rotate(0) translate(4 131)">
<title>G</title>
<polygon fill="white" stroke="transparent" points="-4,4 -4,-131 480,-131 480,4 -4,4"/>
<!-- node0 -->
<g id="node1" class="node">
<title>node0</title>
<polygon fill="none" stroke="black" points="0,-90.5 0,-126.5 219,-126.5 219,-90.5 0,-90.5"/>
<text text-anchor="start" x="8" y="-104.8" font-family="Times,serif" font-size="14.00">Get tpch.public.orders (u68)</text>
</g>
<!-- node2 -->
<g id="node3" class="node">
<title>node2</title>
<polygon fill="none" stroke="black" points="12.5,-0.5 12.5,-38.5 452.5,-38.5 452.5,-0.5 12.5,-0.5"/>
<text text-anchor="start" x="20.5" y="-23.3" font-family="Times,serif" font-size="14.00">InnerJoin %0 %1 on true</text>
<text text-anchor="start" x="20.5" y="-8.3" font-family="Times,serif" font-size="14.00"> Filter (((#14 + #3) = i32tonumeric(123)) &amp;&amp; (#14 = #3))</text>
</g>
<!-- node0&#45;&gt;node2 -->
<g id="edge2" class="edge">
<title>node0&#45;&gt;node2</title>
<path fill="none" stroke="black" d="M133.8,-90.31C152.38,-77.17 178.23,-58.89 198.81,-44.33"/>
<polygon fill="black" stroke="black" points="200.84,-47.18 206.98,-38.55 196.79,-41.47 200.84,-47.18"/>
<text text-anchor="start" x="178.5" y="-60.8" font-family="Times,serif" font-size="14.00">%0</text>
</g>
<!-- node1 -->
<g id="node2" class="node">
<title>node1</title>
<polygon fill="none" stroke="black" points="237,-90.5 237,-126.5 476,-126.5 476,-90.5 237,-90.5"/>
<text text-anchor="start" x="245" y="-104.8" font-family="Times,serif" font-size="14.00">Get tpch.public.customer (u64)</text>
</g>
<!-- node1&#45;&gt;node2 -->
<g id="edge1" class="edge">
<title>node1&#45;&gt;node2</title>
<path fill="none" stroke="black" d="M332,-90.31C313.27,-77.17 287.22,-58.89 266.47,-44.33"/>
<polygon fill="black" stroke="black" points="268.42,-41.43 258.23,-38.55 264.4,-47.16 268.42,-41.43"/>
<text text-anchor="start" x="306.5" y="-60.8" font-family="Times,serif" font-size="14.00">%1</text>
</g>
</g>
</svg>
