<?xml version="1.0" encoding="UTF-8" standalone="no"?>
<!DOCTYPE svg PUBLIC "-//W3C//DTD SVG 1.1//EN"
 "http://www.w3.org/Graphics/SVG/1.1/DTD/svg11.dtd">
<!-- Generated by graphviz version 2.43.0 (0)
 -->
<!-- Title: G Pages: 1 -->
<svg width="1137pt" height="587pt"
 viewBox="0.00 0.00 1137.00 587.00" xmlns="http://www.w3.org/2000/svg" xmlns:xlink="http://www.w3.org/1999/xlink">
<g id="graph0" class="graph" transform="scale(1 1) rotate(0) translate(4 583)">
<title>G</title>
<polygon fill="white" stroke="transparent" points="-4,4 -4,-583 1133,-583 1133,4 -4,4"/>
<!-- node0 -->
<g id="node1" class="node">
<title>node0</title>
<polygon fill="none" stroke="black" points="545,-510.5 545,-578.5 646,-578.5 646,-510.5 545,-510.5"/>
<text text-anchor="start" x="553" y="-563.3" font-family="Times,serif" font-size="14.00">Let l0 =</text>
<text text-anchor="start" x="553" y="-548.3" font-family="Times,serif" font-size="14.00"> Constant ()</text>
<text text-anchor="start" x="553" y="-533.3" font-family="Times,serif" font-size="14.00"> types = ()</text>
<text text-anchor="start" x="553" y="-518.3" font-family="Times,serif" font-size="14.00"> keys = (())</text>
</g>
<!-- node2 -->
<g id="node3" class="node">
<title>node2</title>
<polygon fill="none" stroke="black" points="60,-375.5 60,-458.5 587,-458.5 587,-375.5 60,-375.5"/>
<text text-anchor="start" x="68" y="-443.3" font-family="Times,serif" font-size="14.00">Let l1 =</text>
<text text-anchor="start" x="68" y="-428.3" font-family="Times,serif" font-size="14.00"> Join %0 %1</text>
<text text-anchor="start" x="68" y="-413.3" font-family="Times,serif" font-size="14.00"> implementation = Unimplemented</text>
<text text-anchor="start" x="68" y="-398.3" font-family="Times,serif" font-size="14.00"> types = (integer?, integer, text, numeric, date, text, text, integer, text)</text>
<text text-anchor="start" x="68" y="-383.3" font-family="Times,serif" font-size="14.00"> keys = ()</text>
</g>
<!-- node0&#45;&gt;node2 -->
<g id="edge7" class="edge">
<title>node0&#45;&gt;node2</title>
<path fill="none" stroke="black" d="M544.84,-514.27C542.03,-512.8 539.24,-511.37 536.5,-510 503.29,-493.46 466.42,-476.92 432.8,-462.51"/>
<polygon fill="black" stroke="black" points="433.99,-459.21 423.41,-458.51 431.24,-465.65 433.99,-459.21"/>
<text text-anchor="start" x="495.5" y="-480.8" font-family="Times,serif" font-size="14.00">%0</text>
</g>
<!-- node4 -->
<g id="node5" class="node">
<title>node4</title>
<polygon fill="none" stroke="black" points="605,-375.5 605,-458.5 1070,-458.5 1070,-375.5 605,-375.5"/>
<text text-anchor="start" x="613" y="-443.3" font-family="Times,serif" font-size="14.00">Let l2 =</text>
<text text-anchor="start" x="613" y="-428.3" font-family="Times,serif" font-size="14.00"> Join %0 %3</text>
<text text-anchor="start" x="613" y="-413.3" font-family="Times,serif" font-size="14.00"> implementation = Unimplemented</text>
<text text-anchor="start" x="613" y="-398.3" font-family="Times,serif" font-size="14.00"> types = (integer?, text, text, integer, text, numeric, text, text)</text>
<text text-anchor="start" x="613" y="-383.3" font-family="Times,serif" font-size="14.00"> keys = ()</text>
</g>
<!-- node0&#45;&gt;node4 -->
<g id="edge6" class="edge">
<title>node0&#45;&gt;node4</title>
<path fill="none" stroke="black" d="M646.16,-515.02C649.31,-513.31 652.45,-511.62 655.5,-510 684.96,-494.34 717.4,-477.74 746.63,-463.01"/>
<polygon fill="black" stroke="black" points="748.23,-466.13 755.59,-458.51 745.09,-459.87 748.23,-466.13"/>
<text text-anchor="start" x="714.5" y="-480.8" font-family="Times,serif" font-size="14.00">%0</text>
</g>
<!-- node1 -->
<g id="node2" class="node">
<title>node1</title>
<polygon fill="none" stroke="black" points="0,-518 0,-571 527,-571 527,-518 0,-518"/>
<text text-anchor="start" x="8" y="-555.8" font-family="Times,serif" font-size="14.00">Get tpch.public.orders (u68)</text>
<text text-anchor="start" x="8" y="-540.8" font-family="Times,serif" font-size="14.00"> types = (integer?, integer, text, numeric, date, text, text, integer, text)</text>
<text text-anchor="start" x="8" y="-525.8" font-family="Times,serif" font-size="14.00"> keys = ()</text>
</g>
<!-- node1&#45;&gt;node2 -->
<g id="edge4" class="edge">
<title>node1&#45;&gt;node2</title>
<path fill="none" stroke="black" d="M275.79,-517.8C282.61,-503.52 291.35,-485.25 299.47,-468.26"/>
<polygon fill="black" stroke="black" points="302.75,-469.51 303.91,-458.98 296.44,-466.49 302.75,-469.51"/>
<text text-anchor="start" x="293.5" y="-480.8" font-family="Times,serif" font-size="14.00">%1</text>
</g>
<!-- node5 -->
<g id="node6" class="node">
<title>node5</title>
<polygon fill="none" stroke="black" points="125.5,-150.5 125.5,-323.5 1035.5,-323.5 1035.5,-150.5 125.5,-150.5"/>
<text text-anchor="start" x="133.5" y="-308.3" font-family="Times,serif" font-size="14.00">Let l3 =</text>
<text text-anchor="start" x="133.5" y="-293.3" font-family="Times,serif" font-size="14.00"> Join %2 %4</text>
<text text-anchor="start" x="133.5" y="-278.3" font-family="Times,serif" font-size="14.00"> implementation = Unimplemented</text>
<text text-anchor="start" x="133.5" y="-263.3" font-family="Times,serif" font-size="14.00"> types = (integer?, integer, text, numeric, date, text, text, integer, text, integer?, text, text, integer, text, numeric, text, text)</text>
<text text-anchor="start" x="133.5" y="-248.3" font-family="Times,serif" font-size="14.00"> keys = ()</text>
<text text-anchor="start" x="133.5" y="-233.3" font-family="Times,serif" font-size="14.00"> Project (#0..=#16)</text>
<text text-anchor="start" x="133.5" y="-218.3" font-family="Times,serif" font-size="14.00"> types = (integer?, integer, text, numeric, date, text, text, integer, text, integer?, text, text, integer, text, numeric, text, text)</text>
<text text-anchor="start" x="133.5" y="-203.3" font-family="Times,serif" font-size="14.00"> keys = ()</text>
<text text-anchor="start" x="133.5" y="-188.3" font-family="Times,serif" font-size="14.00"> Filter true</text>
<text text-anchor="start" x="133.5" y="-173.3" font-family="Times,serif" font-size="14.00"> types = (integer?, integer, text, numeric, date, text, text, integer, text, integer?, text, text, integer, text, numeric, text, text)</text>
<text text-anchor="start" x="133.5" y="-158.3" font-family="Times,serif" font-size="14.00"> keys = ()</text>
</g>
<!-- node2&#45;&gt;node5 -->
<g id="edge3" class="edge">
<title>node2&#45;&gt;node5</title>
<path fill="none" stroke="black" d="M382.14,-375.39C402.08,-361.57 425.25,-345.52 448.57,-329.37"/>
<polygon fill="black" stroke="black" points="450.6,-332.23 456.83,-323.66 446.61,-326.47 450.6,-332.23"/>
<text text-anchor="start" x="428.5" y="-345.8" font-family="Times,serif" font-size="14.00">%2</text>
</g>
<!-- node3 -->
<g id="node4" class="node">
<title>node3</title>
<polygon fill="none" stroke="black" points="664,-518 664,-571 1129,-571 1129,-518 664,-518"/>
<text text-anchor="start" x="672" y="-555.8" font-family="Times,serif" font-size="14.00">Get tpch.public.customer (u64)</text>
<text text-anchor="start" x="672" y="-540.8" font-family="Times,serif" font-size="14.00"> types = (integer?, text, text, integer, text, numeric, text, text)</text>
<text text-anchor="start" x="672" y="-525.8" font-family="Times,serif" font-size="14.00"> keys = ()</text>
</g>
<!-- node3&#45;&gt;node4 -->
<g id="edge2" class="edge">
<title>node3&#45;&gt;node4</title>
<path fill="none" stroke="black" d="M884.42,-517.8C877.7,-503.52 869.12,-485.25 861.13,-468.26"/>
<polygon fill="black" stroke="black" points="864.19,-466.54 856.77,-458.98 857.85,-469.52 864.19,-466.54"/>
<text text-anchor="start" x="871.5" y="-480.8" font-family="Times,serif" font-size="14.00">%3</text>
</g>
<!-- node4&#45;&gt;node5 -->
<g id="edge5" class="edge">
<title>node4&#45;&gt;node5</title>
<path fill="none" stroke="black" d="M778.86,-375.39C758.92,-361.57 735.75,-345.52 712.43,-329.37"/>
<polygon fill="black" stroke="black" points="714.39,-326.47 704.17,-323.66 710.4,-332.23 714.39,-326.47"/>
<text text-anchor="start" x="746.5" y="-345.8" font-family="Times,serif" font-size="14.00">%4</text>
</g>
<!-- node6 -->
<g id="node7" class="node">
<title>node6</title>
<polygon fill="none" stroke="black" points="125.5,-0.5 125.5,-98.5 1035.5,-98.5 1035.5,-0.5 125.5,-0.5"/>
<text text-anchor="start" x="133.5" y="-83.3" font-family="Times,serif" font-size="14.00">Get %5 (l3)</text>
<text text-anchor="start" x="133.5" y="-68.3" font-family="Times,serif" font-size="14.00"> types = (integer?, integer, text, numeric, date, text, text, integer, text, integer?, text, text, integer, text, numeric, text, text)</text>
<text text-anchor="start" x="133.5" y="-53.3" font-family="Times,serif" font-size="14.00"> keys = ()</text>
<text text-anchor="start" x="133.5" y="-38.3" font-family="Times,serif" font-size="14.00"> Filter (((#14 + #3) = i32tonumeric(123)) &amp;&amp; (#14 = #3))</text>
<text text-anchor="start" x="133.5" y="-23.3" font-family="Times,serif" font-size="14.00"> types = (integer?, integer, text, numeric, date, text, text, integer, text, integer?, text, text, integer, text, numeric, text, text)</text>
<text text-anchor="start" x="133.5" y="-8.3" font-family="Times,serif" font-size="14.00"> keys = ()</text>
</g>
<!-- node5&#45;&gt;node6 -->
<g id="edge1" class="edge">
<title>node5&#45;&gt;node6</title>
<path fill="none" stroke="black" d="M580.5,-150.31C580.5,-136.3 580.5,-122.08 580.5,-108.93"/>
<polygon fill="black" stroke="black" points="584,-108.63 580.5,-98.63 577,-108.63 584,-108.63"/>
<text text-anchor="start" x="580.5" y="-120.8" font-family="Times,serif" font-size="14.00">%5</text>
</g>
</g>
</svg>
