<?xml version="1.0" encoding="UTF-8" standalone="no"?>
<!DOCTYPE svg PUBLIC "-//W3C//DTD SVG 1.1//EN"
 "http://www.w3.org/Graphics/SVG/1.1/DTD/svg11.dtd">
<!-- Generated by graphviz version 2.43.0 (0)
 -->
<!-- Title: G Pages: 1 -->
<svg width="1027pt" height="1501pt"
 viewBox="0.00 0.00 1026.50 1501.00" xmlns="http://www.w3.org/2000/svg" xmlns:xlink="http://www.w3.org/1999/xlink">
<g id="graph0" class="graph" transform="scale(1 1) rotate(0) translate(4 1497)">
<title>G</title>
<polygon fill="white" stroke="transparent" points="-4,4 -4,-1497 1022.5,-1497 1022.5,4 -4,4"/>
<!-- node0 -->
<g id="node1" class="node">
<title>node0</title>
<polygon fill="none" stroke="black" points="485,-1454.5 485,-1492.5 586,-1492.5 586,-1454.5 485,-1454.5"/>
<text text-anchor="start" x="493" y="-1477.3" font-family="Times,serif" font-size="14.00">Let l0 =</text>
<text text-anchor="start" x="493" y="-1462.3" font-family="Times,serif" font-size="14.00"> Constant ()</text>
</g>
<!-- node2 -->
<g id="node3" class="node">
<title>node2</title>
<polygon fill="none" stroke="black" points="313,-667.5 313,-720.5 582,-720.5 582,-667.5 313,-667.5"/>
<text text-anchor="start" x="321" y="-705.3" font-family="Times,serif" font-size="14.00">Let l1 =</text>
<text text-anchor="start" x="321" y="-690.3" font-family="Times,serif" font-size="14.00"> Join %0 %1</text>
<text text-anchor="start" x="321" y="-675.3" font-family="Times,serif" font-size="14.00"> implementation = Unimplemented</text>
</g>
<!-- node0&#45;&gt;node2 -->
<g id="edge27" class="edge">
<title>node0&#45;&gt;node2</title>
<path fill="none" stroke="black" d="M484.68,-1467.54C396.27,-1457.49 223.5,-1430.96 223.5,-1377 223.5,-1377 223.5,-1377 223.5,-798 223.5,-753.84 259.89,-728.54 303.33,-714.08"/>
<polygon fill="black" stroke="black" points="304.49,-717.38 313,-711.07 302.41,-710.7 304.49,-717.38"/>
<text text-anchor="start" x="223.5" y="-1040.8" font-family="Times,serif" font-size="14.00">%0</text>
</g>
<!-- node4 -->
<g id="node5" class="node">
<title>node4</title>
<polygon fill="none" stroke="black" points="688,-1349.5 688,-1402.5 957,-1402.5 957,-1349.5 688,-1349.5"/>
<text text-anchor="start" x="696" y="-1387.3" font-family="Times,serif" font-size="14.00">Let l2 =</text>
<text text-anchor="start" x="696" y="-1372.3" font-family="Times,serif" font-size="14.00"> Join %0 %3</text>
<text text-anchor="start" x="696" y="-1357.3" font-family="Times,serif" font-size="14.00"> implementation = Unimplemented</text>
</g>
<!-- node0&#45;&gt;node4 -->
<g id="edge28" class="edge">
<title>node0&#45;&gt;node4</title>
<path fill="none" stroke="black" d="M586.15,-1455.65C627.56,-1441.87 687.05,-1422.07 735.99,-1405.79"/>
<polygon fill="black" stroke="black" points="737.24,-1409.06 745.63,-1402.58 735.03,-1402.42 737.24,-1409.06"/>
<text text-anchor="start" x="687.5" y="-1424.8" font-family="Times,serif" font-size="14.00">%0</text>
</g>
<!-- node6 -->
<g id="node7" class="node">
<title>node6</title>
<polygon fill="none" stroke="black" points="401,-1349.5 401,-1402.5 670,-1402.5 670,-1349.5 401,-1349.5"/>
<text text-anchor="start" x="409" y="-1387.3" font-family="Times,serif" font-size="14.00">Let l3 =</text>
<text text-anchor="start" x="409" y="-1372.3" font-family="Times,serif" font-size="14.00"> Join %0 %5</text>
<text text-anchor="start" x="409" y="-1357.3" font-family="Times,serif" font-size="14.00"> implementation = Unimplemented</text>
</g>
<!-- node0&#45;&gt;node6 -->
<g id="edge7" class="edge">
<title>node0&#45;&gt;node6</title>
<path fill="none" stroke="black" d="M535.5,-1454.09C535.5,-1442.42 535.5,-1426.95 535.5,-1412.93"/>
<polygon fill="black" stroke="black" points="539,-1412.58 535.5,-1402.58 532,-1412.58 539,-1412.58"/>
<text text-anchor="start" x="535.5" y="-1424.8" font-family="Times,serif" font-size="14.00">%0</text>
</g>
<!-- node1 -->
<g id="node2" class="node">
<title>node1</title>
<polygon fill="none" stroke="black" points="251.5,-781 251.5,-817 643.5,-817 643.5,-781 251.5,-781"/>
<text text-anchor="start" x="259.5" y="-795.3" font-family="Times,serif" font-size="14.00">Get simplify_outer_joins.public.table_f1_f2_f3 (u113)</text>
</g>
<!-- node1&#45;&gt;node2 -->
<g id="edge8" class="edge">
<title>node1&#45;&gt;node2</title>
<path fill="none" stroke="black" d="M447.5,-780.99C447.5,-767.36 447.5,-747.77 447.5,-730.73"/>
<polygon fill="black" stroke="black" points="451,-730.53 447.5,-720.53 444,-730.53 451,-730.53"/>
<text text-anchor="start" x="447.5" y="-742.8" font-family="Times,serif" font-size="14.00">%1</text>
</g>
<!-- node15 -->
<g id="node16" class="node">
<title>node15</title>
<polygon fill="none" stroke="black" points="563,-532.5 563,-615.5 832,-615.5 832,-532.5 563,-532.5"/>
<text text-anchor="start" x="571" y="-600.3" font-family="Times,serif" font-size="14.00">Let l6 =</text>
<text text-anchor="start" x="571" y="-585.3" font-family="Times,serif" font-size="14.00"> Join %2 %14</text>
<text text-anchor="start" x="571" y="-570.3" font-family="Times,serif" font-size="14.00"> implementation = Unimplemented</text>
<text text-anchor="start" x="571" y="-555.3" font-family="Times,serif" font-size="14.00"> Project (#0..=#7)</text>
<text text-anchor="start" x="571" y="-540.3" font-family="Times,serif" font-size="14.00"> Filter (true &amp;&amp; (#2 = #4))</text>
</g>
<!-- node2&#45;&gt;node15 -->
<g id="edge17" class="edge">
<title>node2&#45;&gt;node15</title>
<path fill="none" stroke="black" d="M501.75,-667.4C531.14,-653.52 568.33,-635.97 602.37,-619.9"/>
<polygon fill="black" stroke="black" points="603.86,-623.07 611.41,-615.63 600.87,-616.74 603.86,-623.07"/>
<text text-anchor="start" x="572.5" y="-637.8" font-family="Times,serif" font-size="14.00">%2</text>
</g>
<!-- node17 -->
<g id="node18" class="node">
<title>node17</title>
<polygon fill="none" stroke="black" points="412,-475.5 412,-513.5 639,-513.5 639,-475.5 412,-475.5"/>
<text text-anchor="start" x="420" y="-498.3" font-family="Times,serif" font-size="14.00">Get %2 (l1)</text>
<text text-anchor="start" x="420" y="-483.3" font-family="Times,serif" font-size="14.00"> Distinct group=(#0, #1, #2)</text>
</g>
<!-- node2&#45;&gt;node17 -->
<g id="edge11" class="edge">
<title>node2&#45;&gt;node17</title>
<path fill="none" stroke="black" d="M457.7,-667.18C472.41,-629.94 499.46,-561.43 514.57,-523.18"/>
<polygon fill="black" stroke="black" points="517.9,-524.28 518.31,-513.69 511.39,-521.71 517.9,-524.28"/>
<text text-anchor="start" x="469.5" y="-637.8" font-family="Times,serif" font-size="14.00">%2</text>
</g>
<!-- node19 -->
<g id="node20" class="node">
<title>node19</title>
<polygon fill="none" stroke="black" points="367,-210.5 367,-263.5 708,-263.5 708,-210.5 367,-210.5"/>
<text text-anchor="start" x="375" y="-248.3" font-family="Times,serif" font-size="14.00">Join %18 %2 (= #0 #3) (= #1 #4) (= #2 #5)</text>
<text text-anchor="start" x="375" y="-233.3" font-family="Times,serif" font-size="14.00"> implementation = Unimplemented</text>
<text text-anchor="start" x="375" y="-218.3" font-family="Times,serif" font-size="14.00"> Project (#0..=#2)</text>
</g>
<!-- node2&#45;&gt;node19 -->
<g id="edge3" class="edge">
<title>node2&#45;&gt;node19</title>
<path fill="none" stroke="black" d="M429.09,-667.2C414.48,-644.16 396.5,-608.92 396.5,-575 396.5,-575 396.5,-575 396.5,-332.5 396.5,-303.38 417.51,-282.66 443.32,-268.19"/>
<polygon fill="black" stroke="black" points="444.99,-271.26 452.23,-263.52 441.74,-265.06 444.99,-271.26"/>
<text text-anchor="start" x="396.5" y="-426.3" font-family="Times,serif" font-size="14.00">%2</text>
</g>
<!-- node3 -->
<g id="node4" class="node">
<title>node3</title>
<polygon fill="none" stroke="black" points="626.5,-1455.5 626.5,-1491.5 1018.5,-1491.5 1018.5,-1455.5 626.5,-1455.5"/>
<text text-anchor="start" x="634.5" y="-1469.8" font-family="Times,serif" font-size="14.00">Get simplify_outer_joins.public.table_f3_f4_f5 (u115)</text>
</g>
<!-- node3&#45;&gt;node4 -->
<g id="edge21" class="edge">
<title>node3&#45;&gt;node4</title>
<path fill="none" stroke="black" d="M822.5,-1455.43C822.5,-1443.6 822.5,-1427.41 822.5,-1412.82"/>
<polygon fill="black" stroke="black" points="826,-1412.55 822.5,-1402.55 819,-1412.56 826,-1412.55"/>
<text text-anchor="start" x="822.5" y="-1424.8" font-family="Times,serif" font-size="14.00">%3</text>
</g>
<!-- node7 -->
<g id="node8" class="node">
<title>node7</title>
<polygon fill="none" stroke="black" points="686,-1214.5 686,-1297.5 955,-1297.5 955,-1214.5 686,-1214.5"/>
<text text-anchor="start" x="694" y="-1282.3" font-family="Times,serif" font-size="14.00">Let l4 =</text>
<text text-anchor="start" x="694" y="-1267.3" font-family="Times,serif" font-size="14.00"> Join %4 %6</text>
<text text-anchor="start" x="694" y="-1252.3" font-family="Times,serif" font-size="14.00"> implementation = Unimplemented</text>
<text text-anchor="start" x="694" y="-1237.3" font-family="Times,serif" font-size="14.00"> Project (#0..=#4)</text>
<text text-anchor="start" x="694" y="-1222.3" font-family="Times,serif" font-size="14.00"> Filter (true &amp;&amp; (#2 = #3))</text>
</g>
<!-- node4&#45;&gt;node7 -->
<g id="edge1" class="edge">
<title>node4&#45;&gt;node7</title>
<path fill="none" stroke="black" d="M822.07,-1349.4C821.86,-1337.29 821.61,-1322.38 821.37,-1308.1"/>
<polygon fill="black" stroke="black" points="824.86,-1307.8 821.19,-1297.86 817.86,-1307.92 824.86,-1307.8"/>
<text text-anchor="start" x="821.5" y="-1319.8" font-family="Times,serif" font-size="14.00">%4</text>
</g>
<!-- node5 -->
<g id="node6" class="node">
<title>node5</title>
<polygon fill="none" stroke="black" points="0,-1455.5 0,-1491.5 371,-1491.5 371,-1455.5 0,-1455.5"/>
<text text-anchor="start" x="8" y="-1469.8" font-family="Times,serif" font-size="14.00">Get simplify_outer_joins.public.table_f5_f6 (u111)</text>
</g>
<!-- node5&#45;&gt;node6 -->
<g id="edge16" class="edge">
<title>node5&#45;&gt;node6</title>
<path fill="none" stroke="black" d="M248.07,-1455.43C299.11,-1441.5 372.26,-1421.54 432,-1405.24"/>
<polygon fill="black" stroke="black" points="433.12,-1408.56 441.84,-1402.55 431.27,-1401.81 433.12,-1408.56"/>
<text text-anchor="start" x="371.5" y="-1424.8" font-family="Times,serif" font-size="14.00">%5</text>
</g>
<!-- node6&#45;&gt;node7 -->
<g id="edge23" class="edge">
<title>node6&#45;&gt;node7</title>
<path fill="none" stroke="black" d="M604.73,-1349.39C620.18,-1343.5 636.44,-1337.15 651.5,-1331 674.04,-1321.8 698.1,-1311.53 720.79,-1301.65"/>
<polygon fill="black" stroke="black" points="722.32,-1304.8 730.08,-1297.59 719.51,-1298.39 722.32,-1304.8"/>
<text text-anchor="start" x="683.5" y="-1319.8" font-family="Times,serif" font-size="14.00">%6</text>
</g>
<!-- node9 -->
<g id="node10" class="node">
<title>node9</title>
<polygon fill="none" stroke="black" points="561,-1157.5 561,-1195.5 758,-1195.5 758,-1157.5 561,-1157.5"/>
<text text-anchor="start" x="569" y="-1180.3" font-family="Times,serif" font-size="14.00">Get %6 (l3)</text>
<text text-anchor="start" x="569" y="-1165.3" font-family="Times,serif" font-size="14.00"> Distinct group=(#0, #1)</text>
</g>
<!-- node6&#45;&gt;node9 -->
<g id="edge14" class="edge">
<title>node6&#45;&gt;node9</title>
<path fill="none" stroke="black" d="M551.71,-1349.18C575.29,-1311.62 618.84,-1242.26 642.73,-1204.21"/>
<polygon fill="black" stroke="black" points="645.72,-1206.02 648.08,-1195.69 639.8,-1202.3 645.72,-1206.02"/>
<text text-anchor="start" x="571.5" y="-1319.8" font-family="Times,serif" font-size="14.00">%6</text>
</g>
<!-- node11 -->
<g id="node12" class="node">
<title>node11</title>
<polygon fill="none" stroke="black" points="662,-877.5 662,-930.5 931,-930.5 931,-877.5 662,-877.5"/>
<text text-anchor="start" x="670" y="-915.3" font-family="Times,serif" font-size="14.00">Join %10 %6 (= #0 #2) (= #1 #3)</text>
<text text-anchor="start" x="670" y="-900.3" font-family="Times,serif" font-size="14.00"> implementation = Unimplemented</text>
<text text-anchor="start" x="670" y="-885.3" font-family="Times,serif" font-size="14.00"> Project (#0, #1)</text>
</g>
<!-- node6&#45;&gt;node11 -->
<g id="edge5" class="edge">
<title>node6&#45;&gt;node11</title>
<path fill="none" stroke="black" d="M535.84,-1349.22C536.13,-1325.31 536.5,-1288.75 536.5,-1257 536.5,-1257 536.5,-1257 536.5,-999.5 536.5,-971.07 592.12,-948.72 651.91,-932.91"/>
<polygon fill="black" stroke="black" points="653.12,-936.21 661.93,-930.33 651.37,-929.43 653.12,-936.21"/>
<text text-anchor="start" x="536.5" y="-1100.8" font-family="Times,serif" font-size="14.00">%6</text>
</g>
<!-- node8 -->
<g id="node9" class="node">
<title>node8</title>
<polygon fill="none" stroke="black" points="706.5,-1070.5 706.5,-1138.5 916.5,-1138.5 916.5,-1070.5 706.5,-1070.5"/>
<text text-anchor="start" x="714.5" y="-1123.3" font-family="Times,serif" font-size="14.00">Get %7 (l4)</text>
<text text-anchor="start" x="714.5" y="-1108.3" font-family="Times,serif" font-size="14.00"> Project (#3, #4, #0..=#2)</text>
<text text-anchor="start" x="714.5" y="-1093.3" font-family="Times,serif" font-size="14.00"> Distinct group=(#0, #1)</text>
<text text-anchor="start" x="714.5" y="-1078.3" font-family="Times,serif" font-size="14.00"> Negate</text>
</g>
<!-- node7&#45;&gt;node8 -->
<g id="edge29" class="edge">
<title>node7&#45;&gt;node8</title>
<path fill="none" stroke="black" d="M818.04,-1214.15C816.82,-1193.88 815.35,-1169.4 814.11,-1148.81"/>
<polygon fill="black" stroke="black" points="817.6,-1148.52 813.5,-1138.75 810.61,-1148.94 817.6,-1148.52"/>
<text text-anchor="start" x="816.5" y="-1172.8" font-family="Times,serif" font-size="14.00">%7</text>
</g>
<!-- node14 -->
<g id="node15" class="node">
<title>node14</title>
<polygon fill="none" stroke="black" points="691.5,-667.5 691.5,-720.5 901.5,-720.5 901.5,-667.5 691.5,-667.5"/>
<text text-anchor="start" x="699.5" y="-705.3" font-family="Times,serif" font-size="14.00">Let l5 =</text>
<text text-anchor="start" x="699.5" y="-690.3" font-family="Times,serif" font-size="14.00"> Union %7 %13</text>
<text text-anchor="start" x="699.5" y="-675.3" font-family="Times,serif" font-size="14.00"> Project (#3, #0..=#2, #4)</text>
</g>
<!-- node7&#45;&gt;node14 -->
<g id="edge18" class="edge">
<title>node7&#45;&gt;node14</title>
<path fill="none" stroke="black" d="M890,-1214.27C924.75,-1188.24 959.5,-1150.86 959.5,-1105.5 959.5,-1105.5 959.5,-1105.5 959.5,-798 959.5,-763.88 933.66,-740.6 902.55,-724.94"/>
<polygon fill="black" stroke="black" points="903.74,-721.63 893.2,-720.52 900.75,-727.96 903.74,-721.63"/>
<text text-anchor="start" x="959.5" y="-952.8" font-family="Times,serif" font-size="14.00">%7</text>
</g>
<!-- node10 -->
<g id="node11" class="node">
<title>node10</title>
<polygon fill="none" stroke="black" points="740,-982.5 740,-1018.5 853,-1018.5 853,-982.5 740,-982.5"/>
<text text-anchor="start" x="748" y="-996.8" font-family="Times,serif" font-size="14.00">Union %8 %9</text>
</g>
<!-- node8&#45;&gt;node10 -->
<g id="edge24" class="edge">
<title>node8&#45;&gt;node10</title>
<path fill="none" stroke="black" d="M806.63,-1070.38C804.65,-1056.93 802.39,-1041.58 800.51,-1028.79"/>
<polygon fill="black" stroke="black" points="803.95,-1028.13 799.04,-1018.74 797.03,-1029.14 803.95,-1028.13"/>
<text text-anchor="start" x="803.5" y="-1040.8" font-family="Times,serif" font-size="14.00">%8</text>
</g>
<!-- node9&#45;&gt;node10 -->
<g id="edge9" class="edge">
<title>node9&#45;&gt;node10</title>
<path fill="none" stroke="black" d="M657.48,-1157.36C655.93,-1134.86 656.53,-1096.26 674.5,-1070 688.97,-1048.86 712.22,-1033.51 734.57,-1022.77"/>
<polygon fill="black" stroke="black" points="736.08,-1025.93 743.73,-1018.59 733.18,-1019.56 736.08,-1025.93"/>
<text text-anchor="start" x="674.5" y="-1100.8" font-family="Times,serif" font-size="14.00">%9</text>
</g>
<!-- node10&#45;&gt;node11 -->
<g id="edge15" class="edge">
<title>node10&#45;&gt;node11</title>
<path fill="none" stroke="black" d="M796.5,-982.17C796.5,-970.7 796.5,-955.25 796.5,-941.18"/>
<polygon fill="black" stroke="black" points="800,-940.78 796.5,-930.78 793,-940.78 800,-940.78"/>
<text text-anchor="start" x="796.5" y="-952.8" font-family="Times,serif" font-size="14.00">%10</text>
</g>
<!-- node13 -->
<g id="node14" class="node">
<title>node13</title>
<polygon fill="none" stroke="black" points="662,-772.5 662,-825.5 931,-825.5 931,-772.5 662,-772.5"/>
<text text-anchor="start" x="670" y="-810.3" font-family="Times,serif" font-size="14.00">Join %11 %12</text>
<text text-anchor="start" x="670" y="-795.3" font-family="Times,serif" font-size="14.00"> implementation = Unimplemented</text>
<text text-anchor="start" x="670" y="-780.3" font-family="Times,serif" font-size="14.00"> Project (#2..=#4, #0, #1)</text>
</g>
<!-- node11&#45;&gt;node13 -->
<g id="edge4" class="edge">
<title>node11&#45;&gt;node13</title>
<path fill="none" stroke="black" d="M796.5,-877.27C796.5,-864.74 796.5,-849.46 796.5,-835.81"/>
<polygon fill="black" stroke="black" points="800,-835.75 796.5,-825.75 793,-835.75 800,-835.75"/>
<text text-anchor="start" x="796.5" y="-847.8" font-family="Times,serif" font-size="14.00">%11</text>
</g>
<!-- node12 -->
<g id="node13" class="node">
<title>node12</title>
<polygon fill="none" stroke="black" points="449,-886 449,-922 644,-922 644,-886 449,-886"/>
<text text-anchor="start" x="457" y="-900.3" font-family="Times,serif" font-size="14.00">Constant (null, null, null)</text>
</g>
<!-- node12&#45;&gt;node13 -->
<g id="edge2" class="edge">
<title>node12&#45;&gt;node13</title>
<path fill="none" stroke="black" d="M587.78,-885.99C625.07,-870.63 680.76,-847.69 725.23,-829.36"/>
<polygon fill="black" stroke="black" points="726.63,-832.57 734.54,-825.53 723.96,-826.1 726.63,-832.57"/>
<text text-anchor="start" x="685.5" y="-847.8" font-family="Times,serif" font-size="14.00">%12</text>
</g>
<!-- node13&#45;&gt;node14 -->
<g id="edge20" class="edge">
<title>node13&#45;&gt;node14</title>
<path fill="none" stroke="black" d="M796.5,-772.27C796.5,-759.74 796.5,-744.46 796.5,-730.81"/>
<polygon fill="black" stroke="black" points="800,-730.75 796.5,-720.75 793,-730.75 800,-730.75"/>
<text text-anchor="start" x="796.5" y="-742.8" font-family="Times,serif" font-size="14.00">%13</text>
</g>
<!-- node14&#45;&gt;node15 -->
<g id="edge6" class="edge">
<title>node14&#45;&gt;node15</title>
<path fill="none" stroke="black" d="M775.02,-667.4C764.27,-654.58 750.89,-638.63 738.29,-623.61"/>
<polygon fill="black" stroke="black" points="740.89,-621.28 731.78,-615.86 735.53,-625.78 740.89,-621.28"/>
<text text-anchor="start" x="758.5" y="-637.8" font-family="Times,serif" font-size="14.00">%14</text>
</g>
<!-- node16 -->
<g id="node17" class="node">
<title>node16</title>
<polygon fill="none" stroke="black" points="527,-403.5 527,-456.5 754,-456.5 754,-403.5 527,-403.5"/>
<text text-anchor="start" x="535" y="-441.3" font-family="Times,serif" font-size="14.00">Get %15 (l6)</text>
<text text-anchor="start" x="535" y="-426.3" font-family="Times,serif" font-size="14.00"> Distinct group=(#0, #1, #2)</text>
<text text-anchor="start" x="535" y="-411.3" font-family="Times,serif" font-size="14.00"> Negate</text>
</g>
<!-- node15&#45;&gt;node16 -->
<g id="edge22" class="edge">
<title>node15&#45;&gt;node16</title>
<path fill="none" stroke="black" d="M681.17,-532.31C672.74,-511.32 662.57,-485.98 654.51,-465.9"/>
<polygon fill="black" stroke="black" points="657.71,-464.48 650.74,-456.5 651.21,-467.08 657.71,-464.48"/>
<text text-anchor="start" x="671.5" y="-490.8" font-family="Times,serif" font-size="14.00">%15</text>
</g>
<!-- node22 -->
<g id="node23" class="node">
<title>node22</title>
<polygon fill="none" stroke="black" points="539.5,-0.5 539.5,-68.5 779.5,-68.5 779.5,-0.5 539.5,-0.5"/>
<text text-anchor="start" x="547.5" y="-53.3" font-family="Times,serif" font-size="14.00">Union %15 %21</text>
<text text-anchor="start" x="547.5" y="-38.3" font-family="Times,serif" font-size="14.00"> Project (#2, #0, #1, #3..=#7)</text>
<text text-anchor="start" x="547.5" y="-23.3" font-family="Times,serif" font-size="14.00"> Filter (true &amp;&amp; (#3 = 0))</text>
<text text-anchor="start" x="547.5" y="-8.3" font-family="Times,serif" font-size="14.00"> Project (#0..=#3, #5, #7)</text>
</g>
<!-- node15&#45;&gt;node22 -->
<g id="edge19" class="edge">
<title>node15&#45;&gt;node22</title>
<path fill="none" stroke="black" d="M737.76,-532.32C759.73,-505.77 782.5,-469.07 782.5,-431 782.5,-431 782.5,-431 782.5,-138.5 782.5,-111.7 765.13,-90.5 743.44,-74.47"/>
<polygon fill="black" stroke="black" points="745.16,-71.4 734.94,-68.58 741.17,-77.16 745.16,-71.4"/>
<text text-anchor="start" x="782.5" y="-285.8" font-family="Times,serif" font-size="14.00">%15</text>
</g>
<!-- node18 -->
<g id="node19" class="node">
<title>node18</title>
<polygon fill="none" stroke="black" points="472,-315.5 472,-351.5 603,-351.5 603,-315.5 472,-315.5"/>
<text text-anchor="start" x="480" y="-329.8" font-family="Times,serif" font-size="14.00">Union %16 %17</text>
</g>
<!-- node16&#45;&gt;node18 -->
<g id="edge26" class="edge">
<title>node16&#45;&gt;node18</title>
<path fill="none" stroke="black" d="M612.63,-403.43C597.41,-389.46 578.67,-372.27 563.72,-358.55"/>
<polygon fill="black" stroke="black" points="566.02,-355.91 556.28,-351.73 561.28,-361.07 566.02,-355.91"/>
<text text-anchor="start" x="591.5" y="-373.8" font-family="Times,serif" font-size="14.00">%16</text>
</g>
<!-- node17&#45;&gt;node18 -->
<g id="edge10" class="edge">
<title>node17&#45;&gt;node18</title>
<path fill="none" stroke="black" d="M499.73,-475.12C494.37,-469.92 489.45,-463.81 486.5,-457 476.95,-434.98 478.95,-425.78 486.5,-403 491.89,-386.72 502.83,-371.17 513.19,-359.01"/>
<polygon fill="black" stroke="black" points="515.81,-361.33 519.85,-351.54 510.58,-356.67 515.81,-361.33"/>
<text text-anchor="start" x="486.5" y="-426.3" font-family="Times,serif" font-size="14.00">%17</text>
</g>
<!-- node18&#45;&gt;node19 -->
<g id="edge13" class="edge">
<title>node18&#45;&gt;node19</title>
<path fill="none" stroke="black" d="M537.5,-315.17C537.5,-303.7 537.5,-288.25 537.5,-274.18"/>
<polygon fill="black" stroke="black" points="541,-273.78 537.5,-263.78 534,-273.78 541,-273.78"/>
<text text-anchor="start" x="537.5" y="-285.8" font-family="Times,serif" font-size="14.00">%18</text>
</g>
<!-- node21 -->
<g id="node22" class="node">
<title>node21</title>
<polygon fill="none" stroke="black" points="403,-120.5 403,-158.5 672,-158.5 672,-120.5 403,-120.5"/>
<text text-anchor="start" x="411" y="-143.3" font-family="Times,serif" font-size="14.00">Join %19 %20</text>
<text text-anchor="start" x="411" y="-128.3" font-family="Times,serif" font-size="14.00"> implementation = Unimplemented</text>
</g>
<!-- node19&#45;&gt;node21 -->
<g id="edge30" class="edge">
<title>node19&#45;&gt;node21</title>
<path fill="none" stroke="black" d="M537.5,-210.41C537.5,-197.63 537.5,-182.13 537.5,-168.98"/>
<polygon fill="black" stroke="black" points="541,-168.6 537.5,-158.6 534,-168.6 541,-168.6"/>
<text text-anchor="start" x="537.5" y="-180.8" font-family="Times,serif" font-size="14.00">%19</text>
</g>
<!-- node20 -->
<g id="node21" class="node">
<title>node20</title>
<polygon fill="none" stroke="black" points="82,-219 82,-255 349,-255 349,-219 82,-219"/>
<text text-anchor="start" x="90" y="-233.3" font-family="Times,serif" font-size="14.00">Constant (null, null, null, null, null)</text>
</g>
<!-- node20&#45;&gt;node21 -->
<g id="edge12" class="edge">
<title>node20&#45;&gt;node21</title>
<path fill="none" stroke="black" d="M273.07,-218.93C327.28,-202.85 408.61,-178.73 466.75,-161.48"/>
<polygon fill="black" stroke="black" points="468.01,-164.76 476.6,-158.56 466.02,-158.05 468.01,-164.76"/>
<text text-anchor="start" x="405.5" y="-180.8" font-family="Times,serif" font-size="14.00">%20</text>
</g>
<!-- node21&#45;&gt;node22 -->
<g id="edge25" class="edge">
<title>node21&#45;&gt;node22</title>
<path fill="none" stroke="black" d="M559.03,-120.32C573.75,-107.89 593.86,-90.92 612.21,-75.42"/>
<polygon fill="black" stroke="black" points="614.57,-78.02 619.95,-68.89 610.05,-72.67 614.57,-78.02"/>
<text text-anchor="start" x="598.5" y="-90.8" font-family="Times,serif" font-size="14.00">%21</text>
</g>
</g>
</svg>
