<?xml version="1.0" encoding="UTF-8" standalone="no"?>
<!DOCTYPE svg PUBLIC "-//W3C//DTD SVG 1.1//EN"
 "http://www.w3.org/Graphics/SVG/1.1/DTD/svg11.dtd">
<!-- Generated by graphviz version 2.43.0 (0)
 -->
<!-- Title: G Pages: 1 -->
<svg width="1200pt" height="167pt"
 viewBox="0.00 0.00 1199.50 167.00" xmlns="http://www.w3.org/2000/svg" xmlns:xlink="http://www.w3.org/1999/xlink">
<g id="graph0" class="graph" transform="scale(1 1) rotate(0) translate(4 163)">
<title>G</title>
<polygon fill="white" stroke="transparent" points="-4,4 -4,-163 1195.5,-163 1195.5,4 -4,4"/>
<!-- node0 -->
<g id="node1" class="node">
<title>node0</title>
<polygon fill="none" stroke="black" points="0,-105.5 0,-158.5 392,-158.5 392,-105.5 0,-105.5"/>
<text text-anchor="start" x="8" y="-143.3" font-family="Times,serif" font-size="14.00">Get simplify_outer_joins.public.table_f1_f2_f3 (u113)</text>
<text text-anchor="start" x="8" y="-128.3" font-family="Times,serif" font-size="14.00"> Filter !(isnull(#2))</text>
<text text-anchor="start" x="8" y="-113.3" font-family="Times,serif" font-size="14.00"> ArrangeBy ()</text>
</g>
<!-- node3 -->
<g id="node4" class="node">
<title>node3</title>
<polygon fill="none" stroke="black" points="422,-0.5 422,-53.5 790,-53.5 790,-0.5 422,-0.5"/>
<text text-anchor="start" x="430" y="-38.3" font-family="Times,serif" font-size="14.00">Join %0 %1 %2 (= #2 #3)</text>
<text text-anchor="start" x="430" y="-23.3" font-family="Times,serif" font-size="14.00"> implementation = Differential %2 %0.() %1.(#0)</text>
<text text-anchor="start" x="430" y="-8.3" font-family="Times,serif" font-size="14.00"> Project (#2, #0, #1, #5, #4, #6)</text>
</g>
<!-- node0&#45;&gt;node3 -->
<g id="edge3" class="edge">
<title>node0&#45;&gt;node3</title>
<path fill="none" stroke="black" d="M297.61,-105.47C357.38,-90.46 433.02,-71.45 494.44,-56.03"/>
<polygon fill="black" stroke="black" points="495.32,-59.41 504.17,-53.58 493.62,-52.62 495.32,-59.41"/>
<text text-anchor="start" x="426" y="-75.8" font-family="Times,serif" font-size="14.00">%0</text>
</g>
<!-- node1 -->
<g id="node2" class="node">
<title>node1</title>
<polygon fill="none" stroke="black" points="410,-105.5 410,-158.5 802,-158.5 802,-105.5 410,-105.5"/>
<text text-anchor="start" x="418" y="-143.3" font-family="Times,serif" font-size="14.00">Get simplify_outer_joins.public.table_f3_f4_f5 (u115)</text>
<text text-anchor="start" x="418" y="-128.3" font-family="Times,serif" font-size="14.00"> Filter (#2 = 0), !(isnull(#0))</text>
<text text-anchor="start" x="418" y="-113.3" font-family="Times,serif" font-size="14.00"> ArrangeBy (#0)</text>
</g>
<!-- node1&#45;&gt;node3 -->
<g id="edge1" class="edge">
<title>node1&#45;&gt;node3</title>
<path fill="none" stroke="black" d="M606,-105.27C606,-92.74 606,-77.46 606,-63.81"/>
<polygon fill="black" stroke="black" points="609.5,-63.75 606,-53.75 602.5,-63.75 609.5,-63.75"/>
<text text-anchor="start" x="606" y="-75.8" font-family="Times,serif" font-size="14.00">%1</text>
</g>
<!-- node2 -->
<g id="node3" class="node">
<title>node2</title>
<polygon fill="none" stroke="black" points="820.5,-105.5 820.5,-158.5 1191.5,-158.5 1191.5,-105.5 820.5,-105.5"/>
<text text-anchor="start" x="828.5" y="-143.3" font-family="Times,serif" font-size="14.00">Get simplify_outer_joins.public.table_f5_f6 (u111)</text>
<text text-anchor="start" x="828.5" y="-128.3" font-family="Times,serif" font-size="14.00"> Filter (#0 = 0)</text>
<text text-anchor="start" x="828.5" y="-113.3" font-family="Times,serif" font-size="14.00"> Project (#1)</text>
</g>
<!-- node2&#45;&gt;node3 -->
<g id="edge2" class="edge">
<title>node2&#45;&gt;node3</title>
<path fill="none" stroke="black" d="M906.87,-105.47C848.68,-90.49 775.06,-71.53 715.21,-56.12"/>
<polygon fill="black" stroke="black" points="715.91,-52.69 705.35,-53.58 714.16,-59.47 715.91,-52.69"/>
<text text-anchor="start" x="830" y="-75.8" font-family="Times,serif" font-size="14.00">%2</text>
</g>
</g>
</svg>
