<?xml version="1.0" encoding="UTF-8" standalone="no"?>
<!DOCTYPE svg PUBLIC "-//W3C//DTD SVG 1.1//EN"
 "http://www.w3.org/Graphics/SVG/1.1/DTD/svg11.dtd">
<!-- Generated by graphviz version 2.43.0 (0)
 -->
<!-- Title: G Pages: 1 -->
<svg width="1095pt" height="1571pt"
 viewBox="0.00 0.00 1095.00 1571.00" xmlns="http://www.w3.org/2000/svg" xmlns:xlink="http://www.w3.org/1999/xlink">
<g id="graph0" class="graph" transform="scale(1 1) rotate(0) translate(4 1567)">
<title>G</title>
<polygon fill="white" stroke="transparent" points="-4,4 -4,-1567 1091,-1567 1091,4 -4,4"/>
<g id="clust1" class="cluster">
<title>cluster8</title>
<polygon fill="none" stroke="black" points="817,-1354 817,-1555 1079,-1555 1079,-1354 817,-1354"/>
<text text-anchor="middle" x="867.5" y="-1539.8" font-family="Times,serif" font-size="14.00">Box8:Select</text>
</g>
<g id="clust3" class="cluster">
<title>cluster7</title>
<polygon fill="none" stroke="black" points="674,-1076 674,-1346 958,-1346 958,-1076 674,-1076"/>
<text text-anchor="middle" x="724.5" y="-1330.8" font-family="Times,serif" font-size="14.00">Box7:Select</text>
</g>
<g id="clust5" class="cluster">
<title>cluster6</title>
<polygon fill="none" stroke="black" points="542,-821 542,-1068 804,-1068 804,-821 542,-821"/>
<text text-anchor="middle" x="592.5" y="-1052.8" font-family="Times,serif" font-size="14.00">Box6:Select</text>
</g>
<g id="clust7" class="cluster">
<title>cluster0</title>
<polygon fill="none" stroke="black" points="289,-543 289,-813 701,-813 701,-543 289,-543"/>
<text text-anchor="middle" x="339.5" y="-797.8" font-family="Times,serif" font-size="14.00">Box0:Select</text>
</g>
<g id="clust9" class="cluster">
<title>cluster1</title>
<polygon fill="none" stroke="black" points="166,-380 166,-512 328,-512 328,-380 166,-380"/>
<text text-anchor="middle" x="207.5" y="-496.8" font-family="Times,serif" font-size="14.00">Box1:Get</text>
</g>
<g id="clust11" class="cluster">
<title>cluster5</title>
<polygon fill="none" stroke="black" points="336,-357 336,-535 598,-535 598,-357 336,-357"/>
<text text-anchor="middle" x="386.5" y="-519.8" font-family="Times,serif" font-size="14.00">Box5:Select</text>
</g>
<g id="clust13" class="cluster">
<title>cluster2</title>
<polygon fill="none" stroke="black" points="83,-148 83,-349 495,-349 495,-148 83,-148"/>
<text text-anchor="middle" x="133.5" y="-333.8" font-family="Times,serif" font-size="14.00">Box2:Select</text>
</g>
<g id="clust15" class="cluster">
<title>cluster3</title>
<polygon fill="none" stroke="black" points="8,-8 8,-140 170,-140 170,-8 8,-8"/>
<text text-anchor="middle" x="49.5" y="-124.8" font-family="Times,serif" font-size="14.00">Box3:Get</text>
</g>
<g id="clust17" class="cluster">
<title>cluster4</title>
<polygon fill="none" stroke="black" points="178,-19.5 178,-128.5 340,-128.5 340,-19.5 178,-19.5"/>
<text text-anchor="middle" x="219.5" y="-113.3" font-family="Times,serif" font-size="14.00">Box4:Get</text>
</g>
<!-- boxhead8 -->
<g id="node1" class="node">
<title>boxhead8</title>
<polygon fill="none" stroke="black" points="917.5,-1362.5 917.5,-1523.5 1070.5,-1523.5 1070.5,-1362.5 917.5,-1362.5"/>
<text text-anchor="middle" x="994" y="-1508.3" font-family="Times,serif" font-size="14.00">Distinct: Preserve</text>
<polyline fill="none" stroke="black" points="917.5,-1500.5 1070.5,-1500.5 "/>
<text text-anchor="middle" x="994" y="-1485.3" font-family="Times,serif" font-size="14.00">0: integer (Q7.C0)</text>
<polyline fill="none" stroke="black" points="917.5,-1477.5 1070.5,-1477.5 "/>
<text text-anchor="middle" x="994" y="-1462.3" font-family="Times,serif" font-size="14.00">1: integer? (Q7.C1)</text>
<polyline fill="none" stroke="black" points="917.5,-1454.5 1070.5,-1454.5 "/>
<text text-anchor="middle" x="994" y="-1439.3" font-family="Times,serif" font-size="14.00">2: integer? (Q7.C2)</text>
<polyline fill="none" stroke="black" points="917.5,-1431.5 1070.5,-1431.5 "/>
<text text-anchor="middle" x="994" y="-1416.3" font-family="Times,serif" font-size="14.00">3: integer (Q7.C3)</text>
<polyline fill="none" stroke="black" points="917.5,-1408.5 1070.5,-1408.5 "/>
<text text-anchor="middle" x="994" y="-1393.3" font-family="Times,serif" font-size="14.00">4: integer? (Q7.C5)</text>
<polyline fill="none" stroke="black" points="917.5,-1385.5 1070.5,-1385.5 "/>
<text text-anchor="middle" x="994" y="-1370.3" font-family="Times,serif" font-size="14.00">5: integer? (Q7.C7)</text>
</g>
<!-- Q7 -->
<g id="node2" class="node">
<title>Q7</title>
<ellipse fill="none" stroke="black" cx="862" cy="-1443" rx="37.09" ry="37.09"/>
<text text-anchor="middle" x="862" y="-1439.3" font-family="Times,serif" font-size="14.00">Q7(F)</text>
</g>
<!-- boxhead7 -->
<g id="node3" class="node">
<title>boxhead7</title>
<polygon fill="none" stroke="black" points="774,-1084.5 774,-1314.5 950,-1314.5 950,-1084.5 774,-1084.5"/>
<text text-anchor="middle" x="862" y="-1299.3" font-family="Times,serif" font-size="14.00">Distinct: Preserve</text>
<polyline fill="none" stroke="black" points="774,-1291.5 950,-1291.5 "/>
<text text-anchor="middle" x="862" y="-1276.3" font-family="Times,serif" font-size="14.00">0: integer (Q6.C0)</text>
<polyline fill="none" stroke="black" points="774,-1268.5 950,-1268.5 "/>
<text text-anchor="middle" x="862" y="-1253.3" font-family="Times,serif" font-size="14.00">1: integer? (Q6.C1)</text>
<polyline fill="none" stroke="black" points="774,-1245.5 950,-1245.5 "/>
<text text-anchor="middle" x="862" y="-1230.3" font-family="Times,serif" font-size="14.00">2: integer? (Q6.C2)</text>
<polyline fill="none" stroke="black" points="774,-1222.5 950,-1222.5 "/>
<text text-anchor="middle" x="862" y="-1207.3" font-family="Times,serif" font-size="14.00">3: integer (Q6.C3)</text>
<polyline fill="none" stroke="black" points="774,-1199.5 950,-1199.5 "/>
<text text-anchor="middle" x="862" y="-1184.3" font-family="Times,serif" font-size="14.00">4: integer (Q6.C4)</text>
<polyline fill="none" stroke="black" points="774,-1176.5 950,-1176.5 "/>
<text text-anchor="middle" x="862" y="-1161.3" font-family="Times,serif" font-size="14.00">5: integer? (Q6.C5)</text>
<polyline fill="none" stroke="black" points="774,-1153.5 950,-1153.5 "/>
<text text-anchor="middle" x="862" y="-1138.3" font-family="Times,serif" font-size="14.00">6: integer (Q6.C6)</text>
<polyline fill="none" stroke="black" points="774,-1130.5 950,-1130.5 "/>
<text text-anchor="middle" x="862" y="-1115.3" font-family="Times,serif" font-size="14.00">7: integer? (Q6.C7)</text>
<polyline fill="none" stroke="black" points="774,-1107.5 950,-1107.5 "/>
<text text-anchor="middle" x="862" y="-1092.3" font-family="Times,serif" font-size="14.00">(true &amp;&amp; (Q6.C3 = 0))</text>
</g>
<!-- Q7&#45;&gt;boxhead7 -->
<g id="edge1" class="edge">
<title>Q7&#45;&gt;boxhead7</title>
<path fill="none" stroke="black" stroke-dasharray="5,2" d="M862,-1405.85C862,-1389.17 862,-1368.16 862,-1346"/>
</g>
<!-- Q6 -->
<g id="node4" class="node">
<title>Q6</title>
<ellipse fill="none" stroke="black" cx="719" cy="-1199.5" rx="37.09" ry="37.09"/>
<text text-anchor="middle" x="719" y="-1195.8" font-family="Times,serif" font-size="14.00">Q6(F)</text>
</g>
<!-- boxhead6 -->
<g id="node5" class="node">
<title>boxhead6</title>
<polygon fill="none" stroke="black" points="642.5,-829.5 642.5,-1036.5 795.5,-1036.5 795.5,-829.5 642.5,-829.5"/>
<text text-anchor="middle" x="719" y="-1021.3" font-family="Times,serif" font-size="14.00">Distinct: Preserve</text>
<polyline fill="none" stroke="black" points="642.5,-1013.5 795.5,-1013.5 "/>
<text text-anchor="middle" x="719" y="-998.3" font-family="Times,serif" font-size="14.00">0: integer (Q5.C2)</text>
<polyline fill="none" stroke="black" points="642.5,-990.5 795.5,-990.5 "/>
<text text-anchor="middle" x="719" y="-975.3" font-family="Times,serif" font-size="14.00">1: integer? (Q5.C0)</text>
<polyline fill="none" stroke="black" points="642.5,-967.5 795.5,-967.5 "/>
<text text-anchor="middle" x="719" y="-952.3" font-family="Times,serif" font-size="14.00">2: integer? (Q5.C1)</text>
<polyline fill="none" stroke="black" points="642.5,-944.5 795.5,-944.5 "/>
<text text-anchor="middle" x="719" y="-929.3" font-family="Times,serif" font-size="14.00">3: integer (Q5.C3)</text>
<polyline fill="none" stroke="black" points="642.5,-921.5 795.5,-921.5 "/>
<text text-anchor="middle" x="719" y="-906.3" font-family="Times,serif" font-size="14.00">4: integer (Q5.C4)</text>
<polyline fill="none" stroke="black" points="642.5,-898.5 795.5,-898.5 "/>
<text text-anchor="middle" x="719" y="-883.3" font-family="Times,serif" font-size="14.00">5: integer? (Q5.C5)</text>
<polyline fill="none" stroke="black" points="642.5,-875.5 795.5,-875.5 "/>
<text text-anchor="middle" x="719" y="-860.3" font-family="Times,serif" font-size="14.00">6: integer (Q5.C6)</text>
<polyline fill="none" stroke="black" points="642.5,-852.5 795.5,-852.5 "/>
<text text-anchor="middle" x="719" y="-837.3" font-family="Times,serif" font-size="14.00">7: integer? (Q5.C7)</text>
</g>
<!-- Q6&#45;&gt;boxhead6 -->
<g id="edge2" class="edge">
<title>Q6&#45;&gt;boxhead6</title>
<path fill="none" stroke="black" stroke-dasharray="5,2" d="M719,-1162.28C719,-1137.44 719,-1102.8 719,-1068"/>
</g>
<!-- Q5 -->
<g id="node6" class="node">
<title>Q5</title>
<ellipse fill="none" stroke="black" cx="587" cy="-933" rx="37.09" ry="37.09"/>
<text text-anchor="middle" x="587" y="-929.3" font-family="Times,serif" font-size="14.00">Q5(F)</text>
</g>
<!-- boxhead0 -->
<g id="node7" class="node">
<title>boxhead0</title>
<polygon fill="none" stroke="black" points="481,-551.5 481,-781.5 693,-781.5 693,-551.5 481,-551.5"/>
<text text-anchor="middle" x="587" y="-766.3" font-family="Times,serif" font-size="14.00">Distinct: Preserve</text>
<polyline fill="none" stroke="black" points="481,-758.5 693,-758.5 "/>
<text text-anchor="middle" x="587" y="-743.3" font-family="Times,serif" font-size="14.00">0: integer? (Q0.C0)</text>
<polyline fill="none" stroke="black" points="481,-735.5 693,-735.5 "/>
<text text-anchor="middle" x="587" y="-720.3" font-family="Times,serif" font-size="14.00">1: integer? (Q0.C1)</text>
<polyline fill="none" stroke="black" points="481,-712.5 693,-712.5 "/>
<text text-anchor="middle" x="587" y="-697.3" font-family="Times,serif" font-size="14.00">2: integer (Q0.C2)</text>
<polyline fill="none" stroke="black" points="481,-689.5 693,-689.5 "/>
<text text-anchor="middle" x="587" y="-674.3" font-family="Times,serif" font-size="14.00">3: integer (Q4.C0)</text>
<polyline fill="none" stroke="black" points="481,-666.5 693,-666.5 "/>
<text text-anchor="middle" x="587" y="-651.3" font-family="Times,serif" font-size="14.00">4: integer (Q4.C1)</text>
<polyline fill="none" stroke="black" points="481,-643.5 693,-643.5 "/>
<text text-anchor="middle" x="587" y="-628.3" font-family="Times,serif" font-size="14.00">5: integer? (Q4.C2)</text>
<polyline fill="none" stroke="black" points="481,-620.5 693,-620.5 "/>
<text text-anchor="middle" x="587" y="-605.3" font-family="Times,serif" font-size="14.00">6: integer (Q4.C3)</text>
<polyline fill="none" stroke="black" points="481,-597.5 693,-597.5 "/>
<text text-anchor="middle" x="587" y="-582.3" font-family="Times,serif" font-size="14.00">7: integer? (Q4.C4)</text>
<polyline fill="none" stroke="black" points="481,-574.5 693,-574.5 "/>
<text text-anchor="middle" x="587" y="-559.3" font-family="Times,serif" font-size="14.00">(true &amp;&amp; (Q0.C2 = Q4.C1))</text>
</g>
<!-- Q5&#45;&gt;boxhead0 -->
<g id="edge3" class="edge">
<title>Q5&#45;&gt;boxhead0</title>
<path fill="none" stroke="black" stroke-dasharray="5,2" d="M587,-895.78C587,-873.68 587,-843.82 587,-813"/>
</g>
<!-- Q0 -->
<g id="node8" class="node">
<title>Q0</title>
<ellipse fill="none" stroke="black" cx="334" cy="-666.5" rx="37.09" ry="37.09"/>
<text text-anchor="middle" x="334" y="-662.8" font-family="Times,serif" font-size="14.00">Q0(F)</text>
</g>
<!-- boxhead1 -->
<g id="node10" class="node">
<title>boxhead1</title>
<polygon fill="none" stroke="black" points="174,-388.5 174,-480.5 320,-480.5 320,-388.5 174,-388.5"/>
<text text-anchor="middle" x="247" y="-465.3" font-family="Times,serif" font-size="14.00">Distinct: Preserve</text>
<polyline fill="none" stroke="black" points="174,-457.5 320,-457.5 "/>
<text text-anchor="middle" x="247" y="-442.3" font-family="Times,serif" font-size="14.00">0: integer? (C0)</text>
<polyline fill="none" stroke="black" points="174,-434.5 320,-434.5 "/>
<text text-anchor="middle" x="247" y="-419.3" font-family="Times,serif" font-size="14.00">1: integer? (C1)</text>
<polyline fill="none" stroke="black" points="174,-411.5 320,-411.5 "/>
<text text-anchor="middle" x="247" y="-396.3" font-family="Times,serif" font-size="14.00">2: integer? (C2)</text>
</g>
<!-- Q0&#45;&gt;boxhead1 -->
<g id="edge4" class="edge">
<title>Q0&#45;&gt;boxhead1</title>
<path fill="none" stroke="black" stroke-dasharray="5,2" d="M321.16,-631.56C309.3,-600.21 291.26,-552.5 275.94,-512"/>
</g>
<!-- Q4 -->
<g id="node9" class="node">
<title>Q4</title>
<ellipse fill="none" stroke="black" cx="426" cy="-666.5" rx="37.09" ry="37.09"/>
<text text-anchor="middle" x="426" y="-662.8" font-family="Times,serif" font-size="14.00">Q4(F)</text>
</g>
<!-- boxhead5 -->
<g id="node11" class="node">
<title>boxhead5</title>
<polygon fill="none" stroke="black" points="436.5,-365.5 436.5,-503.5 589.5,-503.5 589.5,-365.5 436.5,-365.5"/>
<text text-anchor="middle" x="513" y="-488.3" font-family="Times,serif" font-size="14.00">Distinct: Preserve</text>
<polyline fill="none" stroke="black" points="436.5,-480.5 589.5,-480.5 "/>
<text text-anchor="middle" x="513" y="-465.3" font-family="Times,serif" font-size="14.00">0: integer (Q3.C3)</text>
<polyline fill="none" stroke="black" points="436.5,-457.5 589.5,-457.5 "/>
<text text-anchor="middle" x="513" y="-442.3" font-family="Times,serif" font-size="14.00">1: integer? (Q3.C0)</text>
<polyline fill="none" stroke="black" points="436.5,-434.5 589.5,-434.5 "/>
<text text-anchor="middle" x="513" y="-419.3" font-family="Times,serif" font-size="14.00">2: integer? (Q3.C1)</text>
<polyline fill="none" stroke="black" points="436.5,-411.5 589.5,-411.5 "/>
<text text-anchor="middle" x="513" y="-396.3" font-family="Times,serif" font-size="14.00">3: integer (Q3.C2)</text>
<polyline fill="none" stroke="black" points="436.5,-388.5 589.5,-388.5 "/>
<text text-anchor="middle" x="513" y="-373.3" font-family="Times,serif" font-size="14.00">4: integer? (Q3.C4)</text>
</g>
<!-- Q4&#45;&gt;boxhead5 -->
<g id="edge5" class="edge">
<title>Q4&#45;&gt;boxhead5</title>
<path fill="none" stroke="black" stroke-dasharray="5,2" d="M438.74,-631.42C447.95,-606.83 460.7,-572.85 472,-543 473,-540.36 474.01,-537.69 475.03,-535"/>
</g>
<!-- Q3 -->
<g id="node12" class="node">
<title>Q3</title>
<ellipse fill="none" stroke="black" cx="381" cy="-434.5" rx="37.09" ry="37.09"/>
<text text-anchor="middle" x="381" y="-430.8" font-family="Times,serif" font-size="14.00">Q3(F)</text>
</g>
<!-- boxhead2 -->
<g id="node13" class="node">
<title>boxhead2</title>
<polygon fill="none" stroke="black" points="275,-156.5 275,-317.5 487,-317.5 487,-156.5 275,-156.5"/>
<text text-anchor="middle" x="381" y="-302.3" font-family="Times,serif" font-size="14.00">Distinct: Preserve</text>
<polyline fill="none" stroke="black" points="275,-294.5 487,-294.5 "/>
<text text-anchor="middle" x="381" y="-279.3" font-family="Times,serif" font-size="14.00">0: integer? (Q1.C0)</text>
<polyline fill="none" stroke="black" points="275,-271.5 487,-271.5 "/>
<text text-anchor="middle" x="381" y="-256.3" font-family="Times,serif" font-size="14.00">1: integer? (Q1.C1)</text>
<polyline fill="none" stroke="black" points="275,-248.5 487,-248.5 "/>
<text text-anchor="middle" x="381" y="-233.3" font-family="Times,serif" font-size="14.00">2: integer (Q1.C2)</text>
<polyline fill="none" stroke="black" points="275,-225.5 487,-225.5 "/>
<text text-anchor="middle" x="381" y="-210.3" font-family="Times,serif" font-size="14.00">3: integer (Q2.C0)</text>
<polyline fill="none" stroke="black" points="275,-202.5 487,-202.5 "/>
<text text-anchor="middle" x="381" y="-187.3" font-family="Times,serif" font-size="14.00">4: integer? (Q2.C1)</text>
<polyline fill="none" stroke="black" points="275,-179.5 487,-179.5 "/>
<text text-anchor="middle" x="381" y="-164.3" font-family="Times,serif" font-size="14.00">(true &amp;&amp; (Q1.C2 = Q2.C0))</text>
</g>
<!-- Q3&#45;&gt;boxhead2 -->
<g id="edge6" class="edge">
<title>Q3&#45;&gt;boxhead2</title>
<path fill="none" stroke="black" stroke-dasharray="5,2" d="M381,-397.19C381,-383.2 381,-366.38 381,-349"/>
</g>
<!-- Q1 -->
<g id="node14" class="node">
<title>Q1</title>
<ellipse fill="none" stroke="black" cx="128" cy="-237" rx="37.09" ry="37.09"/>
<text text-anchor="middle" x="128" y="-233.3" font-family="Times,serif" font-size="14.00">Q1(F)</text>
</g>
<!-- boxhead3 -->
<g id="node16" class="node">
<title>boxhead3</title>
<polygon fill="none" stroke="black" points="16,-16.5 16,-108.5 162,-108.5 162,-16.5 16,-16.5"/>
<text text-anchor="middle" x="89" y="-93.3" font-family="Times,serif" font-size="14.00">Distinct: Preserve</text>
<polyline fill="none" stroke="black" points="16,-85.5 162,-85.5 "/>
<text text-anchor="middle" x="89" y="-70.3" font-family="Times,serif" font-size="14.00">0: integer? (C0)</text>
<polyline fill="none" stroke="black" points="16,-62.5 162,-62.5 "/>
<text text-anchor="middle" x="89" y="-47.3" font-family="Times,serif" font-size="14.00">1: integer? (C1)</text>
<polyline fill="none" stroke="black" points="16,-39.5 162,-39.5 "/>
<text text-anchor="middle" x="89" y="-24.3" font-family="Times,serif" font-size="14.00">2: integer? (C2)</text>
</g>
<!-- Q1&#45;&gt;boxhead3 -->
<g id="edge7" class="edge">
<title>Q1&#45;&gt;boxhead3</title>
<path fill="none" stroke="black" stroke-dasharray="5,2" d="M120.01,-200.68C116.04,-183.11 111.08,-161.16 106.29,-140"/>
</g>
<!-- Q2 -->
<g id="node15" class="node">
<title>Q2</title>
<ellipse fill="none" stroke="black" cx="220" cy="-237" rx="37.09" ry="37.09"/>
<text text-anchor="middle" x="220" y="-233.3" font-family="Times,serif" font-size="14.00">Q2(F)</text>
</g>
<!-- boxhead4 -->
<g id="node17" class="node">
<title>boxhead4</title>
<polygon fill="none" stroke="black" points="186,-28 186,-97 332,-97 332,-28 186,-28"/>
<text text-anchor="middle" x="259" y="-81.8" font-family="Times,serif" font-size="14.00">Distinct: Preserve</text>
<polyline fill="none" stroke="black" points="186,-74 332,-74 "/>
<text text-anchor="middle" x="259" y="-58.8" font-family="Times,serif" font-size="14.00">0: integer? (C0)</text>
<polyline fill="none" stroke="black" points="186,-51 332,-51 "/>
<text text-anchor="middle" x="259" y="-35.8" font-family="Times,serif" font-size="14.00">1: integer? (C1)</text>
</g>
<!-- Q2&#45;&gt;boxhead4 -->
<g id="edge8" class="edge">
<title>Q2&#45;&gt;boxhead4</title>
<path fill="none" stroke="black" stroke-dasharray="5,2" d="M227.99,-200.68C232.68,-179.9 238.77,-152.98 244.3,-128.5"/>
</g>
</g>
</svg>
