<?xml version="1.0" encoding="UTF-8" standalone="no"?>
<!DOCTYPE svg PUBLIC "-//W3C//DTD SVG 1.1//EN"
 "http://www.w3.org/Graphics/SVG/1.1/DTD/svg11.dtd">
<!-- Generated by graphviz version 2.43.0 (0)
 -->
<!-- Title: G Pages: 1 -->
<svg width="382pt" height="150pt"
 viewBox="0.00 0.00 382.00 150.00" xmlns="http://www.w3.org/2000/svg" xmlns:xlink="http://www.w3.org/1999/xlink">
<g id="graph0" class="graph" transform="scale(1 1) rotate(0) translate(4 146)">
<title>G</title>
<polygon fill="white" stroke="transparent" points="-4,4 -4,-146 378,-146 378,4 -4,4"/>
<!-- node0 -->
<g id="node1" class="node">
<title>node0</title>
<polygon fill="none" stroke="black" points="0,-105.5 0,-141.5 96,-141.5 96,-105.5 0,-105.5"/>
<text text-anchor="start" x="8" y="-119.8" font-family="Times,serif" font-size="14.00">Constant ()</text>
</g>
<!-- node2 -->
<g id="node3" class="node">
<title>node2</title>
<polygon fill="none" stroke="black" points="9,-0.5 9,-53.5 283,-53.5 283,-0.5 9,-0.5"/>
<text text-anchor="start" x="17" y="-38.3" font-family="Times,serif" font-size="14.00">Join %0 %1</text>
<text text-anchor="start" x="17" y="-23.3" font-family="Times,serif" font-size="14.00">&#45; implementation = Unimplemented</text>
<text text-anchor="start" x="17" y="-8.3" font-family="Times,serif" font-size="14.00">Filter (#0 &gt; 0)</text>
</g>
<!-- node0&#45;&gt;node2 -->
<g id="edge1" class="edge">
<title>node0&#45;&gt;node2</title>
<path fill="none" stroke="black" d="M65.97,-105.17C78.8,-92.8 96.43,-75.8 111.89,-60.9"/>
<polygon fill="black" stroke="black" points="114.5,-63.24 119.27,-53.78 109.64,-58.2 114.5,-63.24"/>
<text text-anchor="start" x="100" y="-75.8" font-family="Times,serif" font-size="14.00">%0</text>
</g>
<!-- node1 -->
<g id="node2" class="node">
<title>node1</title>
<polygon fill="none" stroke="black" points="114,-105.5 114,-141.5 374,-141.5 374,-105.5 114,-105.5"/>
<text text-anchor="start" x="122" y="-119.8" font-family="Times,serif" font-size="14.00">Get optimizer_101.public.v2 (u13)</text>
</g>
<!-- node1&#45;&gt;node2 -->
<g id="edge2" class="edge">
<title>node1&#45;&gt;node2</title>
<path fill="none" stroke="black" d="M226.03,-105.17C213.2,-92.8 195.57,-75.8 180.11,-60.9"/>
<polygon fill="black" stroke="black" points="182.36,-58.2 172.73,-53.78 177.5,-63.24 182.36,-58.2"/>
<text text-anchor="start" x="206" y="-75.8" font-family="Times,serif" font-size="14.00">%1</text>
</g>
</g>
</svg>
