<?xml version="1.0" encoding="UTF-8" standalone="no"?>
<!DOCTYPE svg PUBLIC "-//W3C//DTD SVG 1.1//EN"
 "http://www.w3.org/Graphics/SVG/1.1/DTD/svg11.dtd">
<!-- Generated by graphviz version 2.43.0 (0)
 -->
<!-- Title: G Pages: 1 -->
<svg width="386pt" height="227pt"
 viewBox="0.00 0.00 386.00 227.00" xmlns="http://www.w3.org/2000/svg" xmlns:xlink="http://www.w3.org/1999/xlink">
<g id="graph0" class="graph" transform="scale(1 1) rotate(0) translate(4 223)">
<title>G</title>
<polygon fill="white" stroke="transparent" points="-4,4 -4,-223 382,-223 382,4 -4,4"/>
<!-- node0 -->
<g id="node1" class="node">
<title>node0</title>
<polygon fill="none" stroke="black" points="0,-165.5 0,-218.5 100,-218.5 100,-165.5 0,-165.5"/>
<text text-anchor="start" x="8" y="-203.3" font-family="Times,serif" font-size="14.00">Constant ()</text>
<text text-anchor="start" x="8" y="-188.3" font-family="Times,serif" font-size="14.00">&#45; types = ()</text>
<text text-anchor="start" x="8" y="-173.3" font-family="Times,serif" font-size="14.00">&#45; keys = (())</text>
</g>
<!-- node2 -->
<g id="node3" class="node">
<title>node2</title>
<polygon fill="none" stroke="black" points="12,-0.5 12,-113.5 286,-113.5 286,-0.5 12,-0.5"/>
<text text-anchor="start" x="20" y="-98.3" font-family="Times,serif" font-size="14.00">Join %0 %1</text>
<text text-anchor="start" x="20" y="-83.3" font-family="Times,serif" font-size="14.00">&#45; implementation = Unimplemented</text>
<text text-anchor="start" x="20" y="-68.3" font-family="Times,serif" font-size="14.00">&#45; types = (integer)</text>
<text text-anchor="start" x="20" y="-53.3" font-family="Times,serif" font-size="14.00">&#45; keys = ()</text>
<text text-anchor="start" x="20" y="-38.3" font-family="Times,serif" font-size="14.00">Filter (#0 &gt; 0)</text>
<text text-anchor="start" x="20" y="-23.3" font-family="Times,serif" font-size="14.00">&#45; types = (integer)</text>
<text text-anchor="start" x="20" y="-8.3" font-family="Times,serif" font-size="14.00">&#45; keys = ()</text>
</g>
<!-- node0&#45;&gt;node2 -->
<g id="edge1" class="edge">
<title>node0&#45;&gt;node2</title>
<path fill="none" stroke="black" d="M69.09,-165.36C78.42,-152.82 90.1,-137.13 101.63,-121.64"/>
<polygon fill="black" stroke="black" points="104.47,-123.68 107.63,-113.57 98.85,-119.51 104.47,-123.68"/>
<text text-anchor="start" x="94" y="-135.8" font-family="Times,serif" font-size="14.00">%0</text>
</g>
<!-- node1 -->
<g id="node2" class="node">
<title>node1</title>
<polygon fill="none" stroke="black" points="118,-165.5 118,-218.5 378,-218.5 378,-165.5 118,-165.5"/>
<text text-anchor="start" x="126" y="-203.3" font-family="Times,serif" font-size="14.00">Get optimizer_101.public.v2 (u13)</text>
<text text-anchor="start" x="126" y="-188.3" font-family="Times,serif" font-size="14.00">&#45; types = (integer)</text>
<text text-anchor="start" x="126" y="-173.3" font-family="Times,serif" font-size="14.00">&#45; keys = ()</text>
</g>
<!-- node1&#45;&gt;node2 -->
<g id="edge2" class="edge">
<title>node1&#45;&gt;node2</title>
<path fill="none" stroke="black" d="M228.91,-165.36C219.58,-152.82 207.9,-137.13 196.37,-121.64"/>
<polygon fill="black" stroke="black" points="199.15,-119.51 190.37,-113.57 193.53,-123.68 199.15,-119.51"/>
<text text-anchor="start" x="213" y="-135.8" font-family="Times,serif" font-size="14.00">%1</text>
</g>
</g>
</svg>
