<?xml version="1.0" encoding="UTF-8" standalone="no"?>
<!DOCTYPE svg PUBLIC "-//W3C//DTD SVG 1.1//EN"
 "http://www.w3.org/Graphics/SVG/1.1/DTD/svg11.dtd">
<!-- Generated by graphviz version 2.43.0 (0)
 -->
<!-- Title: G Pages: 1 -->
<svg width="724pt" height="377pt"
 viewBox="0.00 0.00 724.00 377.00" xmlns="http://www.w3.org/2000/svg" xmlns:xlink="http://www.w3.org/1999/xlink">
<g id="graph0" class="graph" transform="scale(1 1) rotate(0) translate(4 373)">
<title>G</title>
<polygon fill="white" stroke="transparent" points="-4,4 -4,-373 720,-373 720,4 -4,4"/>
<!-- node0 -->
<g id="node1" class="node">
<title>node0</title>
<polygon fill="none" stroke="black" points="306.5,-330.5 306.5,-368.5 407.5,-368.5 407.5,-330.5 306.5,-330.5"/>
<text text-anchor="start" x="314.5" y="-353.3" font-family="Times,serif" font-size="14.00">Let l0 =</text>
<text text-anchor="start" x="314.5" y="-338.3" font-family="Times,serif" font-size="14.00"> Constant ()</text>
</g>
<!-- node2 -->
<g id="node3" class="node">
<title>node2</title>
<polygon fill="none" stroke="black" points="79.5,-225.5 79.5,-278.5 348.5,-278.5 348.5,-225.5 79.5,-225.5"/>
<text text-anchor="start" x="87.5" y="-263.3" font-family="Times,serif" font-size="14.00">Let l1 =</text>
<text text-anchor="start" x="87.5" y="-248.3" font-family="Times,serif" font-size="14.00"> Join %0 %1</text>
<text text-anchor="start" x="87.5" y="-233.3" font-family="Times,serif" font-size="14.00"> implementation = Unimplemented</text>
</g>
<!-- node0&#45;&gt;node2 -->
<g id="edge1" class="edge">
<title>node0&#45;&gt;node2</title>
<path fill="none" stroke="black" d="M329.77,-330.31C310.29,-317.31 283.6,-299.48 260.75,-284.22"/>
<polygon fill="black" stroke="black" points="262.46,-281.16 252.2,-278.51 258.58,-286.98 262.46,-281.16"/>
<text text-anchor="start" x="298" y="-300.8" font-family="Times,serif" font-size="14.00">%0</text>
</g>
<!-- node4 -->
<g id="node5" class="node">
<title>node4</title>
<polygon fill="none" stroke="black" points="366.5,-225.5 366.5,-278.5 635.5,-278.5 635.5,-225.5 366.5,-225.5"/>
<text text-anchor="start" x="374.5" y="-263.3" font-family="Times,serif" font-size="14.00">Let l2 =</text>
<text text-anchor="start" x="374.5" y="-248.3" font-family="Times,serif" font-size="14.00"> Join %0 %3</text>
<text text-anchor="start" x="374.5" y="-233.3" font-family="Times,serif" font-size="14.00"> implementation = Unimplemented</text>
</g>
<!-- node0&#45;&gt;node4 -->
<g id="edge4" class="edge">
<title>node0&#45;&gt;node4</title>
<path fill="none" stroke="black" d="M384.42,-330.31C404.03,-317.31 430.91,-299.48 453.92,-284.22"/>
<polygon fill="black" stroke="black" points="456.13,-286.96 462.53,-278.51 452.26,-281.12 456.13,-286.96"/>
<text text-anchor="start" x="433" y="-300.8" font-family="Times,serif" font-size="14.00">%0</text>
</g>
<!-- node1 -->
<g id="node2" class="node">
<title>node1</title>
<polygon fill="none" stroke="black" points="0,-331.5 0,-367.5 288,-367.5 288,-331.5 0,-331.5"/>
<text text-anchor="start" x="8" y="-345.8" font-family="Times,serif" font-size="14.00">Get simplify_outer_joins.public.l (u95)</text>
</g>
<!-- node1&#45;&gt;node2 -->
<g id="edge3" class="edge">
<title>node1&#45;&gt;node2</title>
<path fill="none" stroke="black" d="M156.51,-331.43C165.61,-319.02 178.21,-301.83 189.3,-286.7"/>
<polygon fill="black" stroke="black" points="192.18,-288.69 195.27,-278.55 186.53,-284.55 192.18,-288.69"/>
<text text-anchor="start" x="182" y="-300.8" font-family="Times,serif" font-size="14.00">%1</text>
</g>
<!-- node5 -->
<g id="node6" class="node">
<title>node5</title>
<polygon fill="none" stroke="black" points="222.5,-90.5 222.5,-173.5 491.5,-173.5 491.5,-90.5 222.5,-90.5"/>
<text text-anchor="start" x="230.5" y="-158.3" font-family="Times,serif" font-size="14.00">Let l3 =</text>
<text text-anchor="start" x="230.5" y="-143.3" font-family="Times,serif" font-size="14.00"> Join %2 %4</text>
<text text-anchor="start" x="230.5" y="-128.3" font-family="Times,serif" font-size="14.00"> implementation = Unimplemented</text>
<text text-anchor="start" x="230.5" y="-113.3" font-family="Times,serif" font-size="14.00"> Project (#0..=#3)</text>
<text text-anchor="start" x="230.5" y="-98.3" font-family="Times,serif" font-size="14.00"> Filter (#1 = #2)</text>
</g>
<!-- node2&#45;&gt;node5 -->
<g id="edge6" class="edge">
<title>node2&#45;&gt;node5</title>
<path fill="none" stroke="black" d="M245.03,-225.4C261.06,-212.17 281.13,-195.61 299.84,-180.17"/>
<polygon fill="black" stroke="black" points="302.27,-182.7 307.76,-173.63 297.82,-177.3 302.27,-182.7"/>
<text text-anchor="start" x="285" y="-195.8" font-family="Times,serif" font-size="14.00">%2</text>
</g>
<!-- node3 -->
<g id="node4" class="node">
<title>node3</title>
<polygon fill="none" stroke="black" points="426,-331.5 426,-367.5 716,-367.5 716,-331.5 426,-331.5"/>
<text text-anchor="start" x="434" y="-345.8" font-family="Times,serif" font-size="14.00">Get simplify_outer_joins.public.r (u97)</text>
</g>
<!-- node3&#45;&gt;node4 -->
<g id="edge5" class="edge">
<title>node3&#45;&gt;node4</title>
<path fill="none" stroke="black" d="M558.49,-331.43C549.39,-319.02 536.79,-301.83 525.7,-286.7"/>
<polygon fill="black" stroke="black" points="528.47,-284.55 519.73,-278.55 522.82,-288.69 528.47,-284.55"/>
<text text-anchor="start" x="542" y="-300.8" font-family="Times,serif" font-size="14.00">%3</text>
</g>
<!-- node4&#45;&gt;node5 -->
<g id="edge7" class="edge">
<title>node4&#45;&gt;node5</title>
<path fill="none" stroke="black" d="M469.75,-225.4C453.61,-212.17 433.4,-195.61 414.56,-180.17"/>
<polygon fill="black" stroke="black" points="416.54,-177.26 406.59,-173.63 412.1,-182.68 416.54,-177.26"/>
<text text-anchor="start" x="446" y="-195.8" font-family="Times,serif" font-size="14.00">%4</text>
</g>
<!-- node6 -->
<g id="node7" class="node">
<title>node6</title>
<polygon fill="none" stroke="black" points="287.5,-0.5 287.5,-38.5 426.5,-38.5 426.5,-0.5 287.5,-0.5"/>
<text text-anchor="start" x="295.5" y="-23.3" font-family="Times,serif" font-size="14.00">Get %5 (l3)</text>
<text text-anchor="start" x="295.5" y="-8.3" font-family="Times,serif" font-size="14.00"> Filter (#0 &lt; #3)</text>
</g>
<!-- node5&#45;&gt;node6 -->
<g id="edge2" class="edge">
<title>node5&#45;&gt;node6</title>
<path fill="none" stroke="black" d="M357,-90.48C357,-76.76 357,-61.73 357,-49.13"/>
<polygon fill="black" stroke="black" points="360.5,-48.78 357,-38.78 353.5,-48.78 360.5,-48.78"/>
<text text-anchor="start" x="357" y="-60.8" font-family="Times,serif" font-size="14.00">%5</text>
</g>
</g>
</svg>
