<?xml version="1.0" encoding="UTF-8" standalone="no"?>
<!DOCTYPE svg PUBLIC "-//W3C//DTD SVG 1.1//EN"
 "http://www.w3.org/Graphics/SVG/1.1/DTD/svg11.dtd">
<!-- Generated by graphviz version 2.43.0 (0)
 -->
<!-- Title: G Pages: 1 -->
<svg width="724pt" height="332pt"
 viewBox="0.00 0.00 724.00 332.00" xmlns="http://www.w3.org/2000/svg" xmlns:xlink="http://www.w3.org/1999/xlink">
<g id="graph0" class="graph" transform="scale(1 1) rotate(0) translate(4 328)">
<title>G</title>
<polygon fill="white" stroke="transparent" points="-4,4 -4,-328 720,-328 720,4 -4,4"/>
<!-- node0 -->
<g id="node1" class="node">
<title>node0</title>
<polygon fill="none" stroke="black" points="306.5,-285.5 306.5,-323.5 407.5,-323.5 407.5,-285.5 306.5,-285.5"/>
<text text-anchor="start" x="314.5" y="-308.3" font-family="Times,serif" font-size="14.00">Let l0 =</text>
<text text-anchor="start" x="314.5" y="-293.3" font-family="Times,serif" font-size="14.00"> Constant ()</text>
</g>
<!-- node2 -->
<g id="node3" class="node">
<title>node2</title>
<polygon fill="none" stroke="black" points="79.5,-195.5 79.5,-233.5 348.5,-233.5 348.5,-195.5 79.5,-195.5"/>
<text text-anchor="start" x="87.5" y="-218.3" font-family="Times,serif" font-size="14.00">Join %0 %1</text>
<text text-anchor="start" x="87.5" y="-203.3" font-family="Times,serif" font-size="14.00"> implementation = Unimplemented</text>
</g>
<!-- node0&#45;&gt;node2 -->
<g id="edge3" class="edge">
<title>node0&#45;&gt;node2</title>
<path fill="none" stroke="black" d="M327.72,-285.48C305.98,-272.1 276.13,-253.74 252.47,-239.17"/>
<polygon fill="black" stroke="black" points="254.09,-236.06 243.74,-233.8 250.42,-242.02 254.09,-236.06"/>
<text text-anchor="start" x="294" y="-255.8" font-family="Times,serif" font-size="14.00">%0</text>
</g>
<!-- node4 -->
<g id="node5" class="node">
<title>node4</title>
<polygon fill="none" stroke="black" points="366.5,-195.5 366.5,-233.5 635.5,-233.5 635.5,-195.5 366.5,-195.5"/>
<text text-anchor="start" x="374.5" y="-218.3" font-family="Times,serif" font-size="14.00">Join %0 %3</text>
<text text-anchor="start" x="374.5" y="-203.3" font-family="Times,serif" font-size="14.00"> implementation = Unimplemented</text>
</g>
<!-- node0&#45;&gt;node4 -->
<g id="edge4" class="edge">
<title>node0&#45;&gt;node4</title>
<path fill="none" stroke="black" d="M386.49,-285.48C408.38,-272.1 438.43,-253.74 462.26,-239.17"/>
<polygon fill="black" stroke="black" points="464.35,-242 471.06,-233.8 460.7,-236.03 464.35,-242"/>
<text text-anchor="start" x="437" y="-255.8" font-family="Times,serif" font-size="14.00">%0</text>
</g>
<!-- node1 -->
<g id="node2" class="node">
<title>node1</title>
<polygon fill="none" stroke="black" points="0,-286.5 0,-322.5 288,-322.5 288,-286.5 0,-286.5"/>
<text text-anchor="start" x="8" y="-300.8" font-family="Times,serif" font-size="14.00">Get simplify_outer_joins.public.l (u94)</text>
</g>
<!-- node1&#45;&gt;node2 -->
<g id="edge1" class="edge">
<title>node1&#45;&gt;node2</title>
<path fill="none" stroke="black" d="M157.83,-286.11C167.89,-273.47 181.68,-256.13 193.09,-241.79"/>
<polygon fill="black" stroke="black" points="195.99,-243.76 199.48,-233.76 190.51,-239.41 195.99,-243.76"/>
<text text-anchor="start" x="184" y="-255.8" font-family="Times,serif" font-size="14.00">%1</text>
</g>
<!-- node5 -->
<g id="node6" class="node">
<title>node5</title>
<polygon fill="none" stroke="black" points="222.5,-0.5 222.5,-143.5 491.5,-143.5 491.5,-0.5 222.5,-0.5"/>
<text text-anchor="start" x="230.5" y="-128.3" font-family="Times,serif" font-size="14.00">Join %2 %4</text>
<text text-anchor="start" x="230.5" y="-113.3" font-family="Times,serif" font-size="14.00"> implementation = Unimplemented</text>
<text text-anchor="start" x="230.5" y="-98.3" font-family="Times,serif" font-size="14.00"> Project (#0..#3)</text>
<text text-anchor="start" x="230.5" y="-83.3" font-family="Times,serif" font-size="14.00"> Filter (#1 = #2)</text>
<text text-anchor="start" x="230.5" y="-68.3" font-family="Times,serif" font-size="14.00"> Map #0, #1, #2, #3</text>
<text text-anchor="start" x="230.5" y="-53.3" font-family="Times,serif" font-size="14.00"> Project (#4..#7)</text>
<text text-anchor="start" x="230.5" y="-38.3" font-family="Times,serif" font-size="14.00"> Filter (#0 &lt; #3)</text>
<text text-anchor="start" x="230.5" y="-23.3" font-family="Times,serif" font-size="14.00"> Map #0, #1, #2, #3</text>
<text text-anchor="start" x="230.5" y="-8.3" font-family="Times,serif" font-size="14.00"> Project (#4..#7)</text>
</g>
<!-- node2&#45;&gt;node5 -->
<g id="edge5" class="edge">
<title>node2&#45;&gt;node5</title>
<path fill="none" stroke="black" d="M232.4,-195.42C244.35,-183.68 260.83,-167.49 277.89,-150.73"/>
<polygon fill="black" stroke="black" points="280.55,-153.02 285.23,-143.52 275.64,-148.03 280.55,-153.02"/>
<text text-anchor="start" x="265" y="-165.8" font-family="Times,serif" font-size="14.00">%2</text>
</g>
<!-- node3 -->
<g id="node4" class="node">
<title>node3</title>
<polygon fill="none" stroke="black" points="426,-286.5 426,-322.5 716,-322.5 716,-286.5 426,-286.5"/>
<text text-anchor="start" x="434" y="-300.8" font-family="Times,serif" font-size="14.00">Get simplify_outer_joins.public.r (u96)</text>
</g>
<!-- node3&#45;&gt;node4 -->
<g id="edge2" class="edge">
<title>node3&#45;&gt;node4</title>
<path fill="none" stroke="black" d="M557.17,-286.11C547.11,-273.47 533.32,-256.13 521.91,-241.79"/>
<polygon fill="black" stroke="black" points="524.49,-239.41 515.52,-233.76 519.01,-243.76 524.49,-239.41"/>
<text text-anchor="start" x="540" y="-255.8" font-family="Times,serif" font-size="14.00">%3</text>
</g>
<!-- node4&#45;&gt;node5 -->
<g id="edge6" class="edge">
<title>node4&#45;&gt;node5</title>
<path fill="none" stroke="black" d="M482.47,-195.42C470.44,-183.68 453.85,-167.49 436.66,-150.73"/>
<polygon fill="black" stroke="black" points="438.88,-148 429.28,-143.52 433.99,-153.01 438.88,-148"/>
<text text-anchor="start" x="462" y="-165.8" font-family="Times,serif" font-size="14.00">%4</text>
</g>
</g>
</svg>
