<?xml version="1.0" encoding="UTF-8" standalone="no"?>
<!DOCTYPE svg PUBLIC "-//W3C//DTD SVG 1.1//EN"
 "http://www.w3.org/Graphics/SVG/1.1/DTD/svg11.dtd">
<!-- Generated by graphviz version 2.43.0 (0)
 -->
<!-- Title: G Pages: 1 -->
<svg width="604pt" height="182pt"
 viewBox="0.00 0.00 604.00 182.00" xmlns="http://www.w3.org/2000/svg" xmlns:xlink="http://www.w3.org/1999/xlink">
<g id="graph0" class="graph" transform="scale(1 1) rotate(0) translate(4 178)">
<title>G</title>
<polygon fill="white" stroke="transparent" points="-4,4 -4,-178 600,-178 600,4 -4,4"/>
<!-- node0 -->
<g id="node1" class="node">
<title>node0</title>
<polygon fill="none" stroke="black" points="0,-120.5 0,-173.5 288,-173.5 288,-120.5 0,-120.5"/>
<text text-anchor="start" x="8" y="-158.3" font-family="Times,serif" font-size="14.00">Get simplify_outer_joins.public.l (u94)</text>
<text text-anchor="start" x="8" y="-143.3" font-family="Times,serif" font-size="14.00"> Filter !(isnull(#1))</text>
<text text-anchor="start" x="8" y="-128.3" font-family="Times,serif" font-size="14.00"> ArrangeBy (#1)</text>
</g>
<!-- node2 -->
<g id="node3" class="node">
<title>node2</title>
<polygon fill="none" stroke="black" points="134,-0.5 134,-68.5 460,-68.5 460,-0.5 134,-0.5"/>
<text text-anchor="start" x="142" y="-53.3" font-family="Times,serif" font-size="14.00">Join %0 %1 (= #1 #2)</text>
<text text-anchor="start" x="142" y="-38.3" font-family="Times,serif" font-size="14.00"> implementation = Differential %1 %0.(#1)</text>
<text text-anchor="start" x="142" y="-23.3" font-family="Times,serif" font-size="14.00"> Filter (#0 &lt; #3)</text>
<text text-anchor="start" x="142" y="-8.3" font-family="Times,serif" font-size="14.00"> Project (#0, #1, #1, #3)</text>
</g>
<!-- node0&#45;&gt;node2 -->
<g id="edge1" class="edge">
<title>node0&#45;&gt;node2</title>
<path fill="none" stroke="black" d="M179.49,-120.37C198.35,-106.75 221.93,-89.72 243.01,-74.5"/>
<polygon fill="black" stroke="black" points="245.19,-77.23 251.25,-68.54 241.09,-71.56 245.19,-77.23"/>
<text text-anchor="start" x="226" y="-90.8" font-family="Times,serif" font-size="14.00">%0</text>
</g>
<!-- node1 -->
<g id="node2" class="node">
<title>node1</title>
<polygon fill="none" stroke="black" points="306,-128 306,-166 596,-166 596,-128 306,-128"/>
<text text-anchor="start" x="314" y="-150.8" font-family="Times,serif" font-size="14.00">Get simplify_outer_joins.public.r (u96)</text>
<text text-anchor="start" x="314" y="-135.8" font-family="Times,serif" font-size="14.00"> Filter !(isnull(#0))</text>
</g>
<!-- node1&#45;&gt;node2 -->
<g id="edge2" class="edge">
<title>node1&#45;&gt;node2</title>
<path fill="none" stroke="black" d="M425.57,-127.75C405.46,-113.32 376.67,-92.66 351.42,-74.55"/>
<polygon fill="black" stroke="black" points="353.18,-71.5 343.02,-68.52 349.1,-77.19 353.18,-71.5"/>
<text text-anchor="start" x="388" y="-90.8" font-family="Times,serif" font-size="14.00">%1</text>
</g>
</g>
</svg>
