<?xml version="1.0" encoding="UTF-8" standalone="no"?>
<!DOCTYPE svg PUBLIC "-//W3C//DTD SVG 1.1//EN"
 "http://www.w3.org/Graphics/SVG/1.1/DTD/svg11.dtd">
<!-- Generated by graphviz version 2.43.0 (0)
 -->
<!-- Title: G Pages: 1 -->
<svg width="573pt" height="505pt"
 viewBox="0.00 0.00 573.00 505.00" xmlns="http://www.w3.org/2000/svg" xmlns:xlink="http://www.w3.org/1999/xlink">
<g id="graph0" class="graph" transform="scale(1 1) rotate(0) translate(4 501)">
<title>G</title>
<polygon fill="white" stroke="transparent" points="-4,4 -4,-501 569,-501 569,4 -4,4"/>
<g id="clust1" class="cluster">
<title>cluster3</title>
<polygon fill="none" stroke="black" points="303,-311 303,-489 557,-489 557,-311 303,-311"/>
<text text-anchor="middle" x="353.5" y="-473.8" font-family="Times,serif" font-size="14.00">Box3:Select</text>
</g>
<g id="clust3" class="cluster">
<title>cluster0</title>
<polygon fill="none" stroke="black" points="83,-125 83,-303 429,-303 429,-125 83,-125"/>
<text text-anchor="middle" x="133.5" y="-287.8" font-family="Times,serif" font-size="14.00">Box0:Select</text>
</g>
<g id="clust5" class="cluster">
<title>cluster1</title>
<polygon fill="none" stroke="black" points="8,-8 8,-117 170,-117 170,-8 8,-8"/>
<text text-anchor="middle" x="49.5" y="-101.8" font-family="Times,serif" font-size="14.00">Box1:Get</text>
</g>
<g id="clust7" class="cluster">
<title>cluster2</title>
<polygon fill="none" stroke="black" points="178,-8 178,-117 340,-117 340,-8 178,-8"/>
<text text-anchor="middle" x="219.5" y="-101.8" font-family="Times,serif" font-size="14.00">Box2:Get</text>
</g>
<!-- boxhead3 -->
<g id="node1" class="node">
<title>boxhead3</title>
<polygon fill="none" stroke="black" points="403,-319.5 403,-457.5 549,-457.5 549,-319.5 403,-319.5"/>
<text text-anchor="middle" x="476" y="-442.3" font-family="Times,serif" font-size="14.00">Distinct: Preserve</text>
<polyline fill="none" stroke="black" points="403,-434.5 549,-434.5 "/>
<text text-anchor="middle" x="476" y="-419.3" font-family="Times,serif" font-size="14.00">0: Q2.C0</text>
<polyline fill="none" stroke="black" points="403,-411.5 549,-411.5 "/>
<text text-anchor="middle" x="476" y="-396.3" font-family="Times,serif" font-size="14.00">1: Q2.C1</text>
<polyline fill="none" stroke="black" points="403,-388.5 549,-388.5 "/>
<text text-anchor="middle" x="476" y="-373.3" font-family="Times,serif" font-size="14.00">2: Q2.C2</text>
<polyline fill="none" stroke="black" points="403,-365.5 549,-365.5 "/>
<text text-anchor="middle" x="476" y="-350.3" font-family="Times,serif" font-size="14.00">3: Q2.C3</text>
<polyline fill="none" stroke="black" points="403,-342.5 549,-342.5 "/>
<text text-anchor="middle" x="476" y="-327.3" font-family="Times,serif" font-size="14.00">(Q2.C0 &lt; Q2.C3)</text>
</g>
<!-- Q2 -->
<g id="node2" class="node">
<title>Q2</title>
<ellipse fill="none" stroke="black" cx="348" cy="-388.5" rx="37.09" ry="37.09"/>
<text text-anchor="middle" x="348" y="-384.8" font-family="Times,serif" font-size="14.00">Q2(F)</text>
</g>
<!-- boxhead0 -->
<g id="node3" class="node">
<title>boxhead0</title>
<polygon fill="none" stroke="black" points="275,-133.5 275,-271.5 421,-271.5 421,-133.5 275,-133.5"/>
<text text-anchor="middle" x="348" y="-256.3" font-family="Times,serif" font-size="14.00">Distinct: Preserve</text>
<polyline fill="none" stroke="black" points="275,-248.5 421,-248.5 "/>
<text text-anchor="middle" x="348" y="-233.3" font-family="Times,serif" font-size="14.00">0: Q0.C0</text>
<polyline fill="none" stroke="black" points="275,-225.5 421,-225.5 "/>
<text text-anchor="middle" x="348" y="-210.3" font-family="Times,serif" font-size="14.00">1: Q0.C1</text>
<polyline fill="none" stroke="black" points="275,-202.5 421,-202.5 "/>
<text text-anchor="middle" x="348" y="-187.3" font-family="Times,serif" font-size="14.00">2: Q1.C0</text>
<polyline fill="none" stroke="black" points="275,-179.5 421,-179.5 "/>
<text text-anchor="middle" x="348" y="-164.3" font-family="Times,serif" font-size="14.00">3: Q1.C1</text>
<polyline fill="none" stroke="black" points="275,-156.5 421,-156.5 "/>
<text text-anchor="middle" x="348" y="-141.3" font-family="Times,serif" font-size="14.00">(Q0.C1 = Q1.C0)</text>
</g>
<!-- Q2&#45;&gt;boxhead0 -->
<g id="edge1" class="edge">
<title>Q2&#45;&gt;boxhead0</title>
<path fill="none" stroke="black" stroke-dasharray="5,2" d="M348,-351.15C348,-337.07 348,-320.21 348,-303"/>
</g>
<!-- Q0 -->
<g id="node4" class="node">
<title>Q0</title>
<ellipse fill="none" stroke="black" cx="128" cy="-202.5" rx="37.09" ry="37.09"/>
<text text-anchor="middle" x="128" y="-198.8" font-family="Times,serif" font-size="14.00">Q0(F)</text>
</g>
<!-- boxhead1 -->
<g id="node6" class="node">
<title>boxhead1</title>
<polygon fill="none" stroke="black" points="16,-16.5 16,-85.5 162,-85.5 162,-16.5 16,-16.5"/>
<text text-anchor="middle" x="89" y="-70.3" font-family="Times,serif" font-size="14.00">Distinct: Preserve</text>
<polyline fill="none" stroke="black" points="16,-62.5 162,-62.5 "/>
<text text-anchor="middle" x="89" y="-47.3" font-family="Times,serif" font-size="14.00">0: C0</text>
<polyline fill="none" stroke="black" points="16,-39.5 162,-39.5 "/>
<text text-anchor="middle" x="89" y="-24.3" font-family="Times,serif" font-size="14.00">1: C1</text>
</g>
<!-- Q0&#45;&gt;boxhead1 -->
<g id="edge2" class="edge">
<title>Q0&#45;&gt;boxhead1</title>
<path fill="none" stroke="black" stroke-dasharray="5,2" d="M118.86,-166.45C115,-151.68 110.39,-134 105.96,-117"/>
</g>
<!-- Q1 -->
<g id="node5" class="node">
<title>Q1</title>
<ellipse fill="none" stroke="black" cx="220" cy="-202.5" rx="37.09" ry="37.09"/>
<text text-anchor="middle" x="220" y="-198.8" font-family="Times,serif" font-size="14.00">Q1(F)</text>
</g>
<!-- boxhead2 -->
<g id="node7" class="node">
<title>boxhead2</title>
<polygon fill="none" stroke="black" points="186,-16.5 186,-85.5 332,-85.5 332,-16.5 186,-16.5"/>
<text text-anchor="middle" x="259" y="-70.3" font-family="Times,serif" font-size="14.00">Distinct: Preserve</text>
<polyline fill="none" stroke="black" points="186,-62.5 332,-62.5 "/>
<text text-anchor="middle" x="259" y="-47.3" font-family="Times,serif" font-size="14.00">0: C0</text>
<polyline fill="none" stroke="black" points="186,-39.5 332,-39.5 "/>
<text text-anchor="middle" x="259" y="-24.3" font-family="Times,serif" font-size="14.00">1: C1</text>
</g>
<!-- Q1&#45;&gt;boxhead2 -->
<g id="edge3" class="edge">
<title>Q1&#45;&gt;boxhead2</title>
<path fill="none" stroke="black" stroke-dasharray="5,2" d="M229.14,-166.45C233,-151.68 237.61,-134 242.04,-117"/>
</g>
</g>
</svg>
