<?xml version="1.0" encoding="UTF-8" standalone="no"?>
<!DOCTYPE svg PUBLIC "-//W3C//DTD SVG 1.1//EN"
 "http://www.w3.org/Graphics/SVG/1.1/DTD/svg11.dtd">
<!-- Generated by graphviz version 2.43.0 (0)
 -->
<!-- Title: G Pages: 1 -->
<svg width="724pt" height="632pt"
 viewBox="0.00 0.00 724.00 632.00" xmlns="http://www.w3.org/2000/svg" xmlns:xlink="http://www.w3.org/1999/xlink">
<g id="graph0" class="graph" transform="scale(1 1) rotate(0) translate(4 628)">
<title>G</title>
<polygon fill="white" stroke="transparent" points="-4,4 -4,-628 720,-628 720,4 -4,4"/>
<!-- node0 -->
<g id="node1" class="node">
<title>node0</title>
<polygon fill="none" stroke="black" points="306.5,-555.5 306.5,-623.5 407.5,-623.5 407.5,-555.5 306.5,-555.5"/>
<text text-anchor="start" x="314.5" y="-608.3" font-family="Times,serif" font-size="14.00">Let l0 =</text>
<text text-anchor="start" x="314.5" y="-593.3" font-family="Times,serif" font-size="14.00"> Constant ()</text>
<text text-anchor="start" x="314.5" y="-578.3" font-family="Times,serif" font-size="14.00"> types = ()</text>
<text text-anchor="start" x="314.5" y="-563.3" font-family="Times,serif" font-size="14.00"> keys = (())</text>
</g>
<!-- node2 -->
<g id="node3" class="node">
<title>node2</title>
<polygon fill="none" stroke="black" points="79.5,-435.5 79.5,-503.5 348.5,-503.5 348.5,-435.5 79.5,-435.5"/>
<text text-anchor="start" x="87.5" y="-488.3" font-family="Times,serif" font-size="14.00">Join %0 %1</text>
<text text-anchor="start" x="87.5" y="-473.3" font-family="Times,serif" font-size="14.00"> implementation = Unimplemented</text>
<text text-anchor="start" x="87.5" y="-458.3" font-family="Times,serif" font-size="14.00"> types = (integer?, integer?)</text>
<text text-anchor="start" x="87.5" y="-443.3" font-family="Times,serif" font-size="14.00"> keys = ()</text>
</g>
<!-- node0&#45;&gt;node2 -->
<g id="edge3" class="edge">
<title>node0&#45;&gt;node2</title>
<path fill="none" stroke="black" d="M316.79,-555.32C299.88,-541.37 280.07,-525.02 262.37,-510.41"/>
<polygon fill="black" stroke="black" points="264.35,-507.51 254.41,-503.84 259.89,-512.91 264.35,-507.51"/>
<text text-anchor="start" x="294" y="-525.8" font-family="Times,serif" font-size="14.00">%0</text>
</g>
<!-- node4 -->
<g id="node5" class="node">
<title>node4</title>
<polygon fill="none" stroke="black" points="366.5,-435.5 366.5,-503.5 635.5,-503.5 635.5,-435.5 366.5,-435.5"/>
<text text-anchor="start" x="374.5" y="-488.3" font-family="Times,serif" font-size="14.00">Join %0 %3</text>
<text text-anchor="start" x="374.5" y="-473.3" font-family="Times,serif" font-size="14.00"> implementation = Unimplemented</text>
<text text-anchor="start" x="374.5" y="-458.3" font-family="Times,serif" font-size="14.00"> types = (integer?, integer)</text>
<text text-anchor="start" x="374.5" y="-443.3" font-family="Times,serif" font-size="14.00"> keys = ()</text>
</g>
<!-- node0&#45;&gt;node4 -->
<g id="edge4" class="edge">
<title>node0&#45;&gt;node4</title>
<path fill="none" stroke="black" d="M397.5,-555.32C414.52,-541.37 434.47,-525.02 452.29,-510.41"/>
<polygon fill="black" stroke="black" points="454.79,-512.89 460.31,-503.84 450.36,-507.47 454.79,-512.89"/>
<text text-anchor="start" x="437" y="-525.8" font-family="Times,serif" font-size="14.00">%0</text>
</g>
<!-- node1 -->
<g id="node2" class="node">
<title>node1</title>
<polygon fill="none" stroke="black" points="0,-563 0,-616 288,-616 288,-563 0,-563"/>
<text text-anchor="start" x="8" y="-600.8" font-family="Times,serif" font-size="14.00">Get simplify_outer_joins.public.l (u94)</text>
<text text-anchor="start" x="8" y="-585.8" font-family="Times,serif" font-size="14.00"> types = (integer?, integer?)</text>
<text text-anchor="start" x="8" y="-570.8" font-family="Times,serif" font-size="14.00"> keys = ()</text>
</g>
<!-- node1&#45;&gt;node2 -->
<g id="edge1" class="edge">
<title>node1&#45;&gt;node2</title>
<path fill="none" stroke="black" d="M159.19,-562.9C167.95,-548.12 179.19,-529.18 189.21,-512.29"/>
<polygon fill="black" stroke="black" points="192.22,-514.07 194.31,-503.68 186.2,-510.5 192.22,-514.07"/>
<text text-anchor="start" x="184" y="-525.8" font-family="Times,serif" font-size="14.00">%1</text>
</g>
<!-- node5 -->
<g id="node6" class="node">
<title>node5</title>
<polygon fill="none" stroke="black" points="69,-0.5 69,-383.5 645,-383.5 645,-0.5 69,-0.5"/>
<text text-anchor="start" x="77" y="-368.3" font-family="Times,serif" font-size="14.00">Join %2 %4</text>
<text text-anchor="start" x="77" y="-353.3" font-family="Times,serif" font-size="14.00"> implementation = Unimplemented</text>
<text text-anchor="start" x="77" y="-338.3" font-family="Times,serif" font-size="14.00"> types = (integer?, integer?, integer?, integer)</text>
<text text-anchor="start" x="77" y="-323.3" font-family="Times,serif" font-size="14.00"> keys = ()</text>
<text text-anchor="start" x="77" y="-308.3" font-family="Times,serif" font-size="14.00"> Project (#0..#3)</text>
<text text-anchor="start" x="77" y="-293.3" font-family="Times,serif" font-size="14.00"> types = (integer?, integer?, integer?, integer)</text>
<text text-anchor="start" x="77" y="-278.3" font-family="Times,serif" font-size="14.00"> keys = ()</text>
<text text-anchor="start" x="77" y="-263.3" font-family="Times,serif" font-size="14.00"> Filter (#1 = #2)</text>
<text text-anchor="start" x="77" y="-248.3" font-family="Times,serif" font-size="14.00"> types = (integer?, integer, integer, integer)</text>
<text text-anchor="start" x="77" y="-233.3" font-family="Times,serif" font-size="14.00"> keys = ()</text>
<text text-anchor="start" x="77" y="-218.3" font-family="Times,serif" font-size="14.00"> Map #0, #1, #2, #3</text>
<text text-anchor="start" x="77" y="-203.3" font-family="Times,serif" font-size="14.00"> types = (integer?, integer, integer, integer, integer?, integer, integer, integer)</text>
<text text-anchor="start" x="77" y="-188.3" font-family="Times,serif" font-size="14.00"> keys = ()</text>
<text text-anchor="start" x="77" y="-173.3" font-family="Times,serif" font-size="14.00"> Project (#4..#7)</text>
<text text-anchor="start" x="77" y="-158.3" font-family="Times,serif" font-size="14.00"> types = (integer?, integer, integer, integer)</text>
<text text-anchor="start" x="77" y="-143.3" font-family="Times,serif" font-size="14.00"> keys = ()</text>
<text text-anchor="start" x="77" y="-128.3" font-family="Times,serif" font-size="14.00"> Filter (#0 &lt; #3)</text>
<text text-anchor="start" x="77" y="-113.3" font-family="Times,serif" font-size="14.00"> types = (integer, integer, integer, integer)</text>
<text text-anchor="start" x="77" y="-98.3" font-family="Times,serif" font-size="14.00"> keys = ()</text>
<text text-anchor="start" x="77" y="-83.3" font-family="Times,serif" font-size="14.00"> Map #0, #1, #2, #3</text>
<text text-anchor="start" x="77" y="-68.3" font-family="Times,serif" font-size="14.00"> types = (integer, integer, integer, integer, integer, integer, integer, integer)</text>
<text text-anchor="start" x="77" y="-53.3" font-family="Times,serif" font-size="14.00"> keys = ()</text>
<text text-anchor="start" x="77" y="-38.3" font-family="Times,serif" font-size="14.00"> Project (#4..#7)</text>
<text text-anchor="start" x="77" y="-23.3" font-family="Times,serif" font-size="14.00"> types = (integer, integer, integer, integer)</text>
<text text-anchor="start" x="77" y="-8.3" font-family="Times,serif" font-size="14.00"> keys = ()</text>
</g>
<!-- node2&#45;&gt;node5 -->
<g id="edge5" class="edge">
<title>node2&#45;&gt;node5</title>
<path fill="none" stroke="black" d="M231.25,-435.27C237.49,-423.25 245.06,-408.66 253.36,-392.67"/>
<polygon fill="black" stroke="black" points="256.54,-394.13 258.04,-383.65 250.33,-390.91 256.54,-394.13"/>
<text text-anchor="start" x="245" y="-405.8" font-family="Times,serif" font-size="14.00">%2</text>
</g>
<!-- node3 -->
<g id="node4" class="node">
<title>node3</title>
<polygon fill="none" stroke="black" points="426,-563 426,-616 716,-616 716,-563 426,-563"/>
<text text-anchor="start" x="434" y="-600.8" font-family="Times,serif" font-size="14.00">Get simplify_outer_joins.public.r (u96)</text>
<text text-anchor="start" x="434" y="-585.8" font-family="Times,serif" font-size="14.00"> types = (integer?, integer)</text>
<text text-anchor="start" x="434" y="-570.8" font-family="Times,serif" font-size="14.00"> keys = ()</text>
</g>
<!-- node3&#45;&gt;node4 -->
<g id="edge2" class="edge">
<title>node3&#45;&gt;node4</title>
<path fill="none" stroke="black" d="M555.81,-562.9C547.05,-548.12 535.81,-529.18 525.79,-512.29"/>
<polygon fill="black" stroke="black" points="528.8,-510.5 520.69,-503.68 522.78,-514.07 528.8,-510.5"/>
<text text-anchor="start" x="540" y="-525.8" font-family="Times,serif" font-size="14.00">%3</text>
</g>
<!-- node4&#45;&gt;node5 -->
<g id="edge6" class="edge">
<title>node4&#45;&gt;node5</title>
<path fill="none" stroke="black" d="M483.63,-435.27C477.35,-423.25 469.73,-408.66 461.36,-392.67"/>
<polygon fill="black" stroke="black" points="464.38,-390.89 456.65,-383.65 458.18,-394.13 464.38,-390.89"/>
<text text-anchor="start" x="473" y="-405.8" font-family="Times,serif" font-size="14.00">%4</text>
</g>
</g>
</svg>
