<?xml version="1.0" encoding="UTF-8" standalone="no"?>
<!DOCTYPE svg PUBLIC "-//W3C//DTD SVG 1.1//EN"
 "http://www.w3.org/Graphics/SVG/1.1/DTD/svg11.dtd">
<!-- Generated by graphviz version 2.43.0 (0)
 -->
<!-- Title: G Pages: 1 -->
<svg width="724pt" height="587pt"
 viewBox="0.00 0.00 724.00 587.00" xmlns="http://www.w3.org/2000/svg" xmlns:xlink="http://www.w3.org/1999/xlink">
<g id="graph0" class="graph" transform="scale(1 1) rotate(0) translate(4 583)">
<title>G</title>
<polygon fill="white" stroke="transparent" points="-4,4 -4,-583 720,-583 720,4 -4,4"/>
<!-- node0 -->
<g id="node1" class="node">
<title>node0</title>
<polygon fill="none" stroke="black" points="306.5,-510.5 306.5,-578.5 407.5,-578.5 407.5,-510.5 306.5,-510.5"/>
<text text-anchor="start" x="314.5" y="-563.3" font-family="Times,serif" font-size="14.00">Let l0 =</text>
<text text-anchor="start" x="314.5" y="-548.3" font-family="Times,serif" font-size="14.00"> Constant ()</text>
<text text-anchor="start" x="314.5" y="-533.3" font-family="Times,serif" font-size="14.00"> types = ()</text>
<text text-anchor="start" x="314.5" y="-518.3" font-family="Times,serif" font-size="14.00"> keys = (())</text>
</g>
<!-- node2 -->
<g id="node3" class="node">
<title>node2</title>
<polygon fill="none" stroke="black" points="79.5,-375.5 79.5,-458.5 348.5,-458.5 348.5,-375.5 79.5,-375.5"/>
<text text-anchor="start" x="87.5" y="-443.3" font-family="Times,serif" font-size="14.00">Let l1 =</text>
<text text-anchor="start" x="87.5" y="-428.3" font-family="Times,serif" font-size="14.00"> Join %0 %1</text>
<text text-anchor="start" x="87.5" y="-413.3" font-family="Times,serif" font-size="14.00"> implementation = Unimplemented</text>
<text text-anchor="start" x="87.5" y="-398.3" font-family="Times,serif" font-size="14.00"> types = (integer?, integer?)</text>
<text text-anchor="start" x="87.5" y="-383.3" font-family="Times,serif" font-size="14.00"> keys = ()</text>
</g>
<!-- node0&#45;&gt;node2 -->
<g id="edge1" class="edge">
<title>node0&#45;&gt;node2</title>
<path fill="none" stroke="black" d="M319.05,-510.2C303.41,-496.47 285,-480.31 267.99,-465.39"/>
<polygon fill="black" stroke="black" points="270.12,-462.59 260.29,-458.63 265.5,-467.86 270.12,-462.59"/>
<text text-anchor="start" x="298" y="-480.8" font-family="Times,serif" font-size="14.00">%0</text>
</g>
<!-- node4 -->
<g id="node5" class="node">
<title>node4</title>
<polygon fill="none" stroke="black" points="366.5,-375.5 366.5,-458.5 635.5,-458.5 635.5,-375.5 366.5,-375.5"/>
<text text-anchor="start" x="374.5" y="-443.3" font-family="Times,serif" font-size="14.00">Let l2 =</text>
<text text-anchor="start" x="374.5" y="-428.3" font-family="Times,serif" font-size="14.00"> Join %0 %3</text>
<text text-anchor="start" x="374.5" y="-413.3" font-family="Times,serif" font-size="14.00"> implementation = Unimplemented</text>
<text text-anchor="start" x="374.5" y="-398.3" font-family="Times,serif" font-size="14.00"> types = (integer?, integer)</text>
<text text-anchor="start" x="374.5" y="-383.3" font-family="Times,serif" font-size="14.00"> keys = ()</text>
</g>
<!-- node0&#45;&gt;node4 -->
<g id="edge4" class="edge">
<title>node0&#45;&gt;node4</title>
<path fill="none" stroke="black" d="M395.21,-510.2C410.96,-496.47 429.51,-480.31 446.63,-465.39"/>
<polygon fill="black" stroke="black" points="449.14,-467.84 454.38,-458.63 444.54,-462.56 449.14,-467.84"/>
<text text-anchor="start" x="429" y="-480.8" font-family="Times,serif" font-size="14.00">%0</text>
</g>
<!-- node1 -->
<g id="node2" class="node">
<title>node1</title>
<polygon fill="none" stroke="black" points="0,-518 0,-571 288,-571 288,-518 0,-518"/>
<text text-anchor="start" x="8" y="-555.8" font-family="Times,serif" font-size="14.00">Get simplify_outer_joins.public.l (u95)</text>
<text text-anchor="start" x="8" y="-540.8" font-family="Times,serif" font-size="14.00"> types = (integer?, integer?)</text>
<text text-anchor="start" x="8" y="-525.8" font-family="Times,serif" font-size="14.00"> keys = ()</text>
</g>
<!-- node1&#45;&gt;node2 -->
<g id="edge3" class="edge">
<title>node1&#45;&gt;node2</title>
<path fill="none" stroke="black" d="M158.33,-517.8C166.37,-503.39 176.68,-484.91 186.23,-467.79"/>
<polygon fill="black" stroke="black" points="189.33,-469.42 191.14,-458.98 183.21,-466.01 189.33,-469.42"/>
<text text-anchor="start" x="179" y="-480.8" font-family="Times,serif" font-size="14.00">%1</text>
</g>
<!-- node5 -->
<g id="node6" class="node">
<title>node5</title>
<polygon fill="none" stroke="black" points="183,-150.5 183,-323.5 531,-323.5 531,-150.5 183,-150.5"/>
<text text-anchor="start" x="191" y="-308.3" font-family="Times,serif" font-size="14.00">Let l3 =</text>
<text text-anchor="start" x="191" y="-293.3" font-family="Times,serif" font-size="14.00"> Join %2 %4</text>
<text text-anchor="start" x="191" y="-278.3" font-family="Times,serif" font-size="14.00"> implementation = Unimplemented</text>
<text text-anchor="start" x="191" y="-263.3" font-family="Times,serif" font-size="14.00"> types = (integer?, integer?, integer?, integer)</text>
<text text-anchor="start" x="191" y="-248.3" font-family="Times,serif" font-size="14.00"> keys = ()</text>
<text text-anchor="start" x="191" y="-233.3" font-family="Times,serif" font-size="14.00"> Project (#0..=#3)</text>
<text text-anchor="start" x="191" y="-218.3" font-family="Times,serif" font-size="14.00"> types = (integer?, integer?, integer?, integer)</text>
<text text-anchor="start" x="191" y="-203.3" font-family="Times,serif" font-size="14.00"> keys = ()</text>
<text text-anchor="start" x="191" y="-188.3" font-family="Times,serif" font-size="14.00"> Filter (#1 = #2)</text>
<text text-anchor="start" x="191" y="-173.3" font-family="Times,serif" font-size="14.00"> types = (integer?, integer, integer, integer)</text>
<text text-anchor="start" x="191" y="-158.3" font-family="Times,serif" font-size="14.00"> keys = ()</text>
</g>
<!-- node2&#45;&gt;node5 -->
<g id="edge6" class="edge">
<title>node2&#45;&gt;node5</title>
<path fill="none" stroke="black" d="M246.81,-375.16C257.34,-362.05 269.48,-346.95 281.76,-331.66"/>
<polygon fill="black" stroke="black" points="284.65,-333.64 288.19,-323.65 279.2,-329.26 284.65,-333.64"/>
<text text-anchor="start" x="273" y="-345.8" font-family="Times,serif" font-size="14.00">%2</text>
</g>
<!-- node3 -->
<g id="node4" class="node">
<title>node3</title>
<polygon fill="none" stroke="black" points="426,-518 426,-571 716,-571 716,-518 426,-518"/>
<text text-anchor="start" x="434" y="-555.8" font-family="Times,serif" font-size="14.00">Get simplify_outer_joins.public.r (u97)</text>
<text text-anchor="start" x="434" y="-540.8" font-family="Times,serif" font-size="14.00"> types = (integer?, integer)</text>
<text text-anchor="start" x="434" y="-525.8" font-family="Times,serif" font-size="14.00"> keys = ()</text>
</g>
<!-- node3&#45;&gt;node4 -->
<g id="edge5" class="edge">
<title>node3&#45;&gt;node4</title>
<path fill="none" stroke="black" d="M556.67,-517.8C548.63,-503.39 538.32,-484.91 528.77,-467.79"/>
<polygon fill="black" stroke="black" points="531.79,-466.01 523.86,-458.98 525.67,-469.42 531.79,-466.01"/>
<text text-anchor="start" x="542" y="-480.8" font-family="Times,serif" font-size="14.00">%3</text>
</g>
<!-- node4&#45;&gt;node5 -->
<g id="edge7" class="edge">
<title>node4&#45;&gt;node5</title>
<path fill="none" stroke="black" d="M467.96,-375.16C457.36,-362.05 445.14,-346.95 432.77,-331.66"/>
<polygon fill="black" stroke="black" points="435.3,-329.23 426.29,-323.65 429.86,-333.63 435.3,-329.23"/>
<text text-anchor="start" x="450" y="-345.8" font-family="Times,serif" font-size="14.00">%4</text>
</g>
<!-- node6 -->
<g id="node7" class="node">
<title>node6</title>
<polygon fill="none" stroke="black" points="192,-0.5 192,-98.5 522,-98.5 522,-0.5 192,-0.5"/>
<text text-anchor="start" x="200" y="-83.3" font-family="Times,serif" font-size="14.00">Get %5 (l3)</text>
<text text-anchor="start" x="200" y="-68.3" font-family="Times,serif" font-size="14.00"> types = (integer?, integer, integer, integer)</text>
<text text-anchor="start" x="200" y="-53.3" font-family="Times,serif" font-size="14.00"> keys = ()</text>
<text text-anchor="start" x="200" y="-38.3" font-family="Times,serif" font-size="14.00"> Filter (#0 &lt; #3)</text>
<text text-anchor="start" x="200" y="-23.3" font-family="Times,serif" font-size="14.00"> types = (integer, integer, integer, integer)</text>
<text text-anchor="start" x="200" y="-8.3" font-family="Times,serif" font-size="14.00"> keys = ()</text>
</g>
<!-- node5&#45;&gt;node6 -->
<g id="edge2" class="edge">
<title>node5&#45;&gt;node6</title>
<path fill="none" stroke="black" d="M357,-150.31C357,-136.3 357,-122.08 357,-108.93"/>
<polygon fill="black" stroke="black" points="360.5,-108.63 357,-98.63 353.5,-108.63 360.5,-108.63"/>
<text text-anchor="start" x="357" y="-120.8" font-family="Times,serif" font-size="14.00">%5</text>
</g>
</g>
</svg>
