<?xml version="1.0" encoding="UTF-8" standalone="no"?>
<!DOCTYPE svg PUBLIC "-//W3C//DTD SVG 1.1//EN"
 "http://www.w3.org/Graphics/SVG/1.1/DTD/svg11.dtd">
<!-- Generated by graphviz version 2.43.0 (0)
 -->
<!-- Title: G Pages: 1 -->
<svg width="603pt" height="377pt"
 viewBox="0.00 0.00 603.00 377.00" xmlns="http://www.w3.org/2000/svg" xmlns:xlink="http://www.w3.org/1999/xlink">
<g id="graph0" class="graph" transform="scale(1 1) rotate(0) translate(4 373)">
<title>G</title>
<polygon fill="white" stroke="transparent" points="-4,4 -4,-373 599,-373 599,4 -4,4"/>
<!-- node0 -->
<g id="node1" class="node">
<title>node0</title>
<polygon fill="none" stroke="black" points="237,-330.5 237,-368.5 338,-368.5 338,-330.5 237,-330.5"/>
<text text-anchor="start" x="245" y="-353.3" font-family="Times,serif" font-size="14.00">Let l0 =</text>
<text text-anchor="start" x="245" y="-338.3" font-family="Times,serif" font-size="14.00"> Constant ()</text>
</g>
<!-- node2 -->
<g id="node3" class="node">
<title>node2</title>
<polygon fill="none" stroke="black" points="15,-225.5 15,-278.5 284,-278.5 284,-225.5 15,-225.5"/>
<text text-anchor="start" x="23" y="-263.3" font-family="Times,serif" font-size="14.00">Let l1 =</text>
<text text-anchor="start" x="23" y="-248.3" font-family="Times,serif" font-size="14.00"> Join %0 %1</text>
<text text-anchor="start" x="23" y="-233.3" font-family="Times,serif" font-size="14.00"> implementation = Unimplemented</text>
</g>
<!-- node0&#45;&gt;node2 -->
<g id="edge3" class="edge">
<title>node0&#45;&gt;node2</title>
<path fill="none" stroke="black" d="M261.22,-330.31C242.43,-317.31 216.66,-299.48 194.62,-284.22"/>
<polygon fill="black" stroke="black" points="196.58,-281.33 186.37,-278.51 192.6,-287.08 196.58,-281.33"/>
<text text-anchor="start" x="230.5" y="-300.8" font-family="Times,serif" font-size="14.00">%0</text>
</g>
<!-- node4 -->
<g id="node5" class="node">
<title>node4</title>
<polygon fill="none" stroke="black" points="302,-225.5 302,-278.5 571,-278.5 571,-225.5 302,-225.5"/>
<text text-anchor="start" x="310" y="-263.3" font-family="Times,serif" font-size="14.00">Let l2 =</text>
<text text-anchor="start" x="310" y="-248.3" font-family="Times,serif" font-size="14.00"> Join %0 %3</text>
<text text-anchor="start" x="310" y="-233.3" font-family="Times,serif" font-size="14.00"> implementation = Unimplemented</text>
</g>
<!-- node0&#45;&gt;node4 -->
<g id="edge5" class="edge">
<title>node0&#45;&gt;node4</title>
<path fill="none" stroke="black" d="M315.88,-330.31C336.26,-317.25 364.23,-299.32 388.1,-284.02"/>
<polygon fill="black" stroke="black" points="390.16,-286.86 396.69,-278.51 386.38,-280.96 390.16,-286.86"/>
<text text-anchor="start" x="365.5" y="-300.8" font-family="Times,serif" font-size="14.00">%0</text>
</g>
<!-- node1 -->
<g id="node2" class="node">
<title>node1</title>
<polygon fill="none" stroke="black" points="0,-331.5 0,-367.5 219,-367.5 219,-331.5 0,-331.5"/>
<text text-anchor="start" x="8" y="-345.8" font-family="Times,serif" font-size="14.00">Get tpch.public.orders (u68)</text>
</g>
<!-- node1&#45;&gt;node2 -->
<g id="edge4" class="edge">
<title>node1&#45;&gt;node2</title>
<path fill="none" stroke="black" d="M116.65,-331.43C121.7,-319.37 128.65,-302.78 134.85,-287.97"/>
<polygon fill="black" stroke="black" points="138.16,-289.13 138.8,-278.55 131.7,-286.43 138.16,-289.13"/>
<text text-anchor="start" x="130.5" y="-300.8" font-family="Times,serif" font-size="14.00">%1</text>
</g>
<!-- node5 -->
<g id="node6" class="node">
<title>node5</title>
<polygon fill="none" stroke="black" points="158,-90.5 158,-173.5 427,-173.5 427,-90.5 158,-90.5"/>
<text text-anchor="start" x="166" y="-158.3" font-family="Times,serif" font-size="14.00">Let l3 =</text>
<text text-anchor="start" x="166" y="-143.3" font-family="Times,serif" font-size="14.00"> Join %2 %4</text>
<text text-anchor="start" x="166" y="-128.3" font-family="Times,serif" font-size="14.00"> implementation = Unimplemented</text>
<text text-anchor="start" x="166" y="-113.3" font-family="Times,serif" font-size="14.00"> Project (#0..=#16)</text>
<text text-anchor="start" x="166" y="-98.3" font-family="Times,serif" font-size="14.00"> Filter (#14 = #3)</text>
</g>
<!-- node2&#45;&gt;node5 -->
<g id="edge2" class="edge">
<title>node2&#45;&gt;node5</title>
<path fill="none" stroke="black" d="M180.53,-225.4C196.56,-212.17 216.63,-195.61 235.34,-180.17"/>
<polygon fill="black" stroke="black" points="237.77,-182.7 243.26,-173.63 233.32,-177.3 237.77,-182.7"/>
<text text-anchor="start" x="220.5" y="-195.8" font-family="Times,serif" font-size="14.00">%2</text>
</g>
<!-- node3 -->
<g id="node4" class="node">
<title>node3</title>
<polygon fill="none" stroke="black" points="356,-331.5 356,-367.5 595,-367.5 595,-331.5 356,-331.5"/>
<text text-anchor="start" x="364" y="-345.8" font-family="Times,serif" font-size="14.00">Get tpch.public.customer (u64)</text>
</g>
<!-- node3&#45;&gt;node4 -->
<g id="edge7" class="edge">
<title>node3&#45;&gt;node4</title>
<path fill="none" stroke="black" d="M468.53,-331.43C463.6,-319.37 456.83,-302.78 450.78,-287.97"/>
<polygon fill="black" stroke="black" points="453.96,-286.49 446.94,-278.55 447.48,-289.14 453.96,-286.49"/>
<text text-anchor="start" x="458.5" y="-300.8" font-family="Times,serif" font-size="14.00">%3</text>
</g>
<!-- node4&#45;&gt;node5 -->
<g id="edge1" class="edge">
<title>node4&#45;&gt;node5</title>
<path fill="none" stroke="black" d="M405.25,-225.4C389.11,-212.17 368.9,-195.61 350.06,-180.17"/>
<polygon fill="black" stroke="black" points="352.04,-177.26 342.09,-173.63 347.6,-182.68 352.04,-177.26"/>
<text text-anchor="start" x="381.5" y="-195.8" font-family="Times,serif" font-size="14.00">%4</text>
</g>
<!-- node6 -->
<g id="node7" class="node">
<title>node6</title>
<polygon fill="none" stroke="black" points="72.5,-0.5 72.5,-38.5 512.5,-38.5 512.5,-0.5 72.5,-0.5"/>
<text text-anchor="start" x="80.5" y="-23.3" font-family="Times,serif" font-size="14.00">Get %5 (l3)</text>
<text text-anchor="start" x="80.5" y="-8.3" font-family="Times,serif" font-size="14.00"> Filter (((#14 + #3) = i32tonumeric(123)) &amp;&amp; (#14 = #3))</text>
</g>
<!-- node5&#45;&gt;node6 -->
<g id="edge6" class="edge">
<title>node5&#45;&gt;node6</title>
<path fill="none" stroke="black" d="M292.5,-90.48C292.5,-76.76 292.5,-61.73 292.5,-49.13"/>
<polygon fill="black" stroke="black" points="296,-48.78 292.5,-38.78 289,-48.78 296,-48.78"/>
<text text-anchor="start" x="292.5" y="-60.8" font-family="Times,serif" font-size="14.00">%5</text>
</g>
</g>
</svg>
