<?xml version="1.0" encoding="UTF-8" standalone="no"?>
<!DOCTYPE svg PUBLIC "-//W3C//DTD SVG 1.1//EN"
 "http://www.w3.org/Graphics/SVG/1.1/DTD/svg11.dtd">
<!-- Generated by graphviz version 2.43.0 (0)
 -->
<!-- Title: G Pages: 1 -->
<svg width="372pt" height="242pt"
 viewBox="0.00 0.00 372.00 242.00" xmlns="http://www.w3.org/2000/svg" xmlns:xlink="http://www.w3.org/1999/xlink">
<g id="graph0" class="graph" transform="scale(1 1) rotate(0) translate(4 238)">
<title>G</title>
<polygon fill="white" stroke="transparent" points="-4,4 -4,-238 368,-238 368,4 -4,4"/>
<!-- node0 -->
<g id="node1" class="node">
<title>node0</title>
<polygon fill="none" stroke="black" points="0,-195.5 0,-233.5 101,-233.5 101,-195.5 0,-195.5"/>
<text text-anchor="start" x="8" y="-218.3" font-family="Times,serif" font-size="14.00">Let l0 =</text>
<text text-anchor="start" x="8" y="-203.3" font-family="Times,serif" font-size="14.00"> Constant ()</text>
</g>
<!-- node2 -->
<g id="node3" class="node">
<title>node2</title>
<polygon fill="none" stroke="black" points="11,-0.5 11,-143.5 280,-143.5 280,-0.5 11,-0.5"/>
<text text-anchor="start" x="19" y="-128.3" font-family="Times,serif" font-size="14.00">Join %0 %1</text>
<text text-anchor="start" x="19" y="-113.3" font-family="Times,serif" font-size="14.00"> implementation = Unimplemented</text>
<text text-anchor="start" x="19" y="-98.3" font-family="Times,serif" font-size="14.00"> Project (#0, #1, #1)</text>
<text text-anchor="start" x="19" y="-83.3" font-family="Times,serif" font-size="14.00"> Map #2, true</text>
<text text-anchor="start" x="19" y="-68.3" font-family="Times,serif" font-size="14.00"> Project (#3, #4)</text>
<text text-anchor="start" x="19" y="-53.3" font-family="Times,serif" font-size="14.00"> Reduce group=(#0)</text>
<text text-anchor="start" x="19" y="-38.3" font-family="Times,serif" font-size="14.00"> agg count(#1)</text>
<text text-anchor="start" x="19" y="-23.3" font-family="Times,serif" font-size="14.00"> Project (#0, #1)</text>
<text text-anchor="start" x="19" y="-8.3" font-family="Times,serif" font-size="14.00"> Project (#1)</text>
</g>
<!-- node0&#45;&gt;node2 -->
<g id="edge2" class="edge">
<title>node0&#45;&gt;node2</title>
<path fill="none" stroke="black" d="M62.73,-195.42C70.45,-184 81.02,-168.36 92.03,-152.07"/>
<polygon fill="black" stroke="black" points="95.12,-153.76 97.82,-143.52 89.32,-149.84 95.12,-153.76"/>
<text text-anchor="start" x="84.5" y="-165.8" font-family="Times,serif" font-size="14.00">%0</text>
</g>
<!-- node1 -->
<g id="node2" class="node">
<title>node1</title>
<polygon fill="none" stroke="black" points="119,-196.5 119,-232.5 364,-232.5 364,-196.5 119,-196.5"/>
<text text-anchor="start" x="127" y="-210.8" font-family="Times,serif" font-size="14.00">Get issue_10800.public.t1 (u87)</text>
</g>
<!-- node1&#45;&gt;node2 -->
<g id="edge1" class="edge">
<title>node1&#45;&gt;node2</title>
<path fill="none" stroke="black" d="M229.73,-196.27C221.93,-184.85 211.07,-168.97 199.74,-152.39"/>
<polygon fill="black" stroke="black" points="202.32,-149.96 193.79,-143.67 196.54,-153.91 202.32,-149.96"/>
<text text-anchor="start" x="215.5" y="-165.8" font-family="Times,serif" font-size="14.00">%1</text>
</g>
</g>
</svg>
