<?xml version="1.0" encoding="UTF-8" standalone="no"?>
<!DOCTYPE svg PUBLIC "-//W3C//DTD SVG 1.1//EN"
 "http://www.w3.org/Graphics/SVG/1.1/DTD/svg11.dtd">
<!-- Generated by graphviz version 2.43.0 (0)
 -->
<!-- Title: G Pages: 1 -->
<svg width="698pt" height="655pt"
 viewBox="0.00 0.00 698.00 655.19" xmlns="http://www.w3.org/2000/svg" xmlns:xlink="http://www.w3.org/1999/xlink">
<g id="graph0" class="graph" transform="scale(1 1) rotate(0) translate(4 651.19)">
<title>G</title>
<polygon fill="white" stroke="transparent" points="-4,4 -4,-651.19 694,-651.19 694,4 -4,4"/>
<g id="clust1" class="cluster">
<title>cluster4</title>
<polygon fill="none" stroke="black" points="428,-526.09 428,-639.19 682,-639.19 682,-526.09 428,-526.09"/>
<text text-anchor="middle" x="478.5" y="-623.99" font-family="Times,serif" font-size="14.00">Box4:Select</text>
</g>
<g id="clust3" class="cluster">
<title>cluster3</title>
<polygon fill="none" stroke="black" points="300,-386.09 300,-518.09 554,-518.09 554,-386.09 300,-386.09"/>
<text text-anchor="middle" x="362" y="-502.89" font-family="Times,serif" font-size="14.00">Box3:Grouping</text>
</g>
<g id="clust5" class="cluster">
<title>cluster2</title>
<polygon fill="none" stroke="black" points="172,-265 172,-378.09 426,-378.09 426,-265 172,-265"/>
<text text-anchor="middle" x="222.5" y="-362.89" font-family="Times,serif" font-size="14.00">Box2:Select</text>
</g>
<g id="clust7" class="cluster">
<title>cluster1</title>
<polygon fill="none" stroke="black" points="44,-125 44,-257 298,-257 298,-125 44,-125"/>
<text text-anchor="middle" x="94.5" y="-241.8" font-family="Times,serif" font-size="14.00">Box1:Select</text>
</g>
<g id="clust9" class="cluster">
<title>cluster0</title>
<polygon fill="none" stroke="black" points="8,-8 8,-117 170,-117 170,-8 8,-8"/>
<text text-anchor="middle" x="49.5" y="-101.8" font-family="Times,serif" font-size="14.00">Box0:Get</text>
</g>
<!-- boxhead4 -->
<g id="node1" class="node">
<title>boxhead4</title>
<polygon fill="none" stroke="black" points="528,-548.14 528,-594.14 674,-594.14 674,-548.14 528,-548.14"/>
<text text-anchor="middle" x="601" y="-578.94" font-family="Times,serif" font-size="14.00">Distinct: Preserve</text>
<polyline fill="none" stroke="black" points="528,-571.14 674,-571.14 "/>
<text text-anchor="middle" x="601" y="-555.94" font-family="Times,serif" font-size="14.00">0: Q3.C1</text>
</g>
<!-- Q3 -->
<g id="node2" class="node">
<title>Q3</title>
<ellipse fill="none" stroke="black" cx="473" cy="-571.14" rx="37.09" ry="37.09"/>
<text text-anchor="middle" x="473" y="-567.44" font-family="Times,serif" font-size="14.00">Q3(F)</text>
</g>
<!-- boxhead3 -->
<g id="node3" class="node">
<title>boxhead3</title>
<polygon fill="none" stroke="black" points="400,-394.59 400,-486.59 546,-486.59 546,-394.59 400,-394.59"/>
<text text-anchor="middle" x="473" y="-471.39" font-family="Times,serif" font-size="14.00">Distinct: Preserve</text>
<polyline fill="none" stroke="black" points="400,-463.59 546,-463.59 "/>
<text text-anchor="middle" x="473" y="-448.39" font-family="Times,serif" font-size="14.00">0: Q2.C0</text>
<polyline fill="none" stroke="black" points="400,-440.59 546,-440.59 "/>
<text text-anchor="middle" x="473" y="-425.39" font-family="Times,serif" font-size="14.00">1: count(Q2.C1)</text>
<polyline fill="none" stroke="black" points="400,-417.59 546,-417.59 "/>
<text text-anchor="middle" x="473" y="-402.39" font-family="Times,serif" font-size="14.00">GROUP BY: Q2.C0</text>
</g>
<!-- Q3&#45;&gt;boxhead3 -->
<g id="edge1" class="edge">
<title>Q3&#45;&gt;boxhead3</title>
<path fill="none" stroke="black" stroke-dasharray="5,2" d="M473,-533.99C473,-528.93 473,-523.57 473,-518.09"/>
</g>
<!-- Q2 -->
<g id="node4" class="node">
<title>Q2</title>
<ellipse fill="none" stroke="black" cx="345" cy="-440.59" rx="37.09" ry="37.09"/>
<text text-anchor="middle" x="345" y="-436.89" font-family="Times,serif" font-size="14.00">Q2(F)</text>
</g>
<!-- boxhead2 -->
<g id="node5" class="node">
<title>boxhead2</title>
<polygon fill="none" stroke="black" points="272,-275.55 272,-344.55 418,-344.55 418,-275.55 272,-275.55"/>
<text text-anchor="middle" x="345" y="-329.35" font-family="Times,serif" font-size="14.00">Distinct: Preserve</text>
<polyline fill="none" stroke="black" points="272,-321.55 418,-321.55 "/>
<text text-anchor="middle" x="345" y="-306.35" font-family="Times,serif" font-size="14.00">0: Q1.C2</text>
<polyline fill="none" stroke="black" points="272,-298.55 418,-298.55 "/>
<text text-anchor="middle" x="345" y="-283.35" font-family="Times,serif" font-size="14.00">1: true</text>
</g>
<!-- Q2&#45;&gt;boxhead2 -->
<g id="edge2" class="edge">
<title>Q2&#45;&gt;boxhead2</title>
<path fill="none" stroke="black" stroke-dasharray="5,2" d="M345,-403.44C345,-395.49 345,-386.83 345,-378.09"/>
</g>
<!-- Q1 -->
<g id="node6" class="node">
<title>Q1</title>
<ellipse fill="none" stroke="black" cx="217" cy="-310.05" rx="37.09" ry="37.09"/>
<text text-anchor="middle" x="217" y="-306.35" font-family="Times,serif" font-size="14.00">Q1(F)</text>
</g>
<!-- boxhead1 -->
<g id="node7" class="node">
<title>boxhead1</title>
<polygon fill="none" stroke="black" points="144,-133.5 144,-225.5 290,-225.5 290,-133.5 144,-133.5"/>
<text text-anchor="middle" x="217" y="-210.3" font-family="Times,serif" font-size="14.00">Distinct: Preserve</text>
<polyline fill="none" stroke="black" points="144,-202.5 290,-202.5 "/>
<text text-anchor="middle" x="217" y="-187.3" font-family="Times,serif" font-size="14.00">0: Q0.C0</text>
<polyline fill="none" stroke="black" points="144,-179.5 290,-179.5 "/>
<text text-anchor="middle" x="217" y="-164.3" font-family="Times,serif" font-size="14.00">1: Q0.C1</text>
<polyline fill="none" stroke="black" points="144,-156.5 290,-156.5 "/>
<text text-anchor="middle" x="217" y="-141.3" font-family="Times,serif" font-size="14.00">2: Q0.C1</text>
</g>
<!-- Q1&#45;&gt;boxhead1 -->
<g id="edge3" class="edge">
<title>Q1&#45;&gt;boxhead1</title>
<path fill="none" stroke="black" stroke-dasharray="5,2" d="M217,-272.9C217,-267.83 217,-262.48 217,-257"/>
</g>
<!-- Q0 -->
<g id="node8" class="node">
<title>Q0</title>
<ellipse fill="none" stroke="black" cx="89" cy="-179.5" rx="37.09" ry="37.09"/>
<text text-anchor="middle" x="89" y="-175.8" font-family="Times,serif" font-size="14.00">Q0(F)</text>
</g>
<!-- boxhead0 -->
<g id="node9" class="node">
<title>boxhead0</title>
<polygon fill="none" stroke="black" points="16,-16.5 16,-85.5 162,-85.5 162,-16.5 16,-16.5"/>
<text text-anchor="middle" x="89" y="-70.3" font-family="Times,serif" font-size="14.00">Distinct: Preserve</text>
<polyline fill="none" stroke="black" points="16,-62.5 162,-62.5 "/>
<text text-anchor="middle" x="89" y="-47.3" font-family="Times,serif" font-size="14.00">0: C0</text>
<polyline fill="none" stroke="black" points="16,-39.5 162,-39.5 "/>
<text text-anchor="middle" x="89" y="-24.3" font-family="Times,serif" font-size="14.00">1: C1</text>
</g>
<!-- Q0&#45;&gt;boxhead0 -->
<g id="edge4" class="edge">
<title>Q0&#45;&gt;boxhead0</title>
<path fill="none" stroke="black" stroke-dasharray="5,2" d="M89,-142.25C89,-134.31 89,-125.68 89,-117"/>
</g>
</g>
</svg>
