<?xml version="1.0" encoding="UTF-8" standalone="no"?>
<!DOCTYPE svg PUBLIC "-//W3C//DTD SVG 1.1//EN"
 "http://www.w3.org/Graphics/SVG/1.1/DTD/svg11.dtd">
<!-- Generated by graphviz version 2.43.0 (0)
 -->
<!-- Title: G Pages: 1 -->
<svg width="437pt" height="482pt"
 viewBox="0.00 0.00 436.50 482.00" xmlns="http://www.w3.org/2000/svg" xmlns:xlink="http://www.w3.org/1999/xlink">
<g id="graph0" class="graph" transform="scale(1 1) rotate(0) translate(4 478)">
<title>G</title>
<polygon fill="white" stroke="transparent" points="-4,4 -4,-478 432.5,-478 432.5,4 -4,4"/>
<!-- node0 -->
<g id="node1" class="node">
<title>node0</title>
<polygon fill="none" stroke="black" points="64.5,-405.5 64.5,-473.5 165.5,-473.5 165.5,-405.5 64.5,-405.5"/>
<text text-anchor="start" x="72.5" y="-458.3" font-family="Times,serif" font-size="14.00">Let l0 =</text>
<text text-anchor="start" x="72.5" y="-443.3" font-family="Times,serif" font-size="14.00"> Constant ()</text>
<text text-anchor="start" x="72.5" y="-428.3" font-family="Times,serif" font-size="14.00"> types = ()</text>
<text text-anchor="start" x="72.5" y="-413.3" font-family="Times,serif" font-size="14.00"> keys = (())</text>
</g>
<!-- node2 -->
<g id="node3" class="node">
<title>node2</title>
<polygon fill="none" stroke="black" points="0,-0.5 0,-353.5 420,-353.5 420,-0.5 0,-0.5"/>
<text text-anchor="start" x="8" y="-338.3" font-family="Times,serif" font-size="14.00">Join %0 %1</text>
<text text-anchor="start" x="8" y="-323.3" font-family="Times,serif" font-size="14.00"> implementation = Unimplemented</text>
<text text-anchor="start" x="8" y="-308.3" font-family="Times,serif" font-size="14.00"> types = (integer?, integer?)</text>
<text text-anchor="start" x="8" y="-293.3" font-family="Times,serif" font-size="14.00"> keys = ()</text>
<text text-anchor="start" x="8" y="-278.3" font-family="Times,serif" font-size="14.00"> Project (#0, #1, #1)</text>
<text text-anchor="start" x="8" y="-263.3" font-family="Times,serif" font-size="14.00"> types = (integer?, integer?, integer?)</text>
<text text-anchor="start" x="8" y="-248.3" font-family="Times,serif" font-size="14.00"> keys = ()</text>
<text text-anchor="start" x="8" y="-233.3" font-family="Times,serif" font-size="14.00"> Map #2, true</text>
<text text-anchor="start" x="8" y="-218.3" font-family="Times,serif" font-size="14.00"> types = (integer?, integer?, integer?, integer?, boolean)</text>
<text text-anchor="start" x="8" y="-203.3" font-family="Times,serif" font-size="14.00"> keys = ()</text>
<text text-anchor="start" x="8" y="-188.3" font-family="Times,serif" font-size="14.00"> Project (#3, #4)</text>
<text text-anchor="start" x="8" y="-173.3" font-family="Times,serif" font-size="14.00"> types = (integer?, boolean)</text>
<text text-anchor="start" x="8" y="-158.3" font-family="Times,serif" font-size="14.00"> keys = ()</text>
<text text-anchor="start" x="8" y="-143.3" font-family="Times,serif" font-size="14.00"> Reduce group=(#0)</text>
<text text-anchor="start" x="8" y="-128.3" font-family="Times,serif" font-size="14.00"> agg count(#1)</text>
<text text-anchor="start" x="8" y="-113.3" font-family="Times,serif" font-size="14.00"> types = (integer?, bigint)</text>
<text text-anchor="start" x="8" y="-98.3" font-family="Times,serif" font-size="14.00"> keys = ((#0))</text>
<text text-anchor="start" x="8" y="-83.3" font-family="Times,serif" font-size="14.00"> Project (#0, #1)</text>
<text text-anchor="start" x="8" y="-68.3" font-family="Times,serif" font-size="14.00"> types = (integer?, bigint)</text>
<text text-anchor="start" x="8" y="-53.3" font-family="Times,serif" font-size="14.00"> keys = ((#0))</text>
<text text-anchor="start" x="8" y="-38.3" font-family="Times,serif" font-size="14.00"> Project (#1)</text>
<text text-anchor="start" x="8" y="-23.3" font-family="Times,serif" font-size="14.00"> types = (bigint)</text>
<text text-anchor="start" x="8" y="-8.3" font-family="Times,serif" font-size="14.00"> keys = ()</text>
</g>
<!-- node0&#45;&gt;node2 -->
<g id="edge2" class="edge">
<title>node0&#45;&gt;node2</title>
<path fill="none" stroke="black" d="M127.13,-405.24C131.48,-393.32 136.74,-378.89 142.48,-363.16"/>
<polygon fill="black" stroke="black" points="145.77,-364.34 145.91,-353.75 139.19,-361.94 145.77,-364.34"/>
<text text-anchor="start" x="138" y="-375.8" font-family="Times,serif" font-size="14.00">%0</text>
</g>
<!-- node1 -->
<g id="node2" class="node">
<title>node1</title>
<polygon fill="none" stroke="black" points="183.5,-413 183.5,-466 428.5,-466 428.5,-413 183.5,-413"/>
<text text-anchor="start" x="191.5" y="-450.8" font-family="Times,serif" font-size="14.00">Get issue_10800.public.t1 (u87)</text>
<text text-anchor="start" x="191.5" y="-435.8" font-family="Times,serif" font-size="14.00"> types = (integer?, integer?)</text>
<text text-anchor="start" x="191.5" y="-420.8" font-family="Times,serif" font-size="14.00"> keys = ()</text>
</g>
<!-- node1&#45;&gt;node2 -->
<g id="edge1" class="edge">
<title>node1&#45;&gt;node2</title>
<path fill="none" stroke="black" d="M296.44,-412.57C291.61,-399.46 285.29,-382.29 278.25,-363.19"/>
<polygon fill="black" stroke="black" points="281.48,-361.84 274.74,-353.67 274.91,-364.26 281.48,-361.84"/>
<text text-anchor="start" x="285" y="-375.8" font-family="Times,serif" font-size="14.00">%1</text>
</g>
</g>
</svg>
