<?xml version="1.0" encoding="UTF-8" standalone="no"?>
<!DOCTYPE svg PUBLIC "-//W3C//DTD SVG 1.1//EN"
 "http://www.w3.org/Graphics/SVG/1.1/DTD/svg11.dtd">
<!-- Generated by graphviz version 2.43.0 (0)
 -->
<!-- Title: G Pages: 1 -->
<svg width="746pt" height="752pt"
 viewBox="0.00 0.00 746.00 752.09" xmlns="http://www.w3.org/2000/svg" xmlns:xlink="http://www.w3.org/1999/xlink">
<g id="graph0" class="graph" transform="scale(1 1) rotate(0) translate(4 748.09)">
<title>G</title>
<polygon fill="white" stroke="transparent" points="-4,4 -4,-748.09 742,-748.09 742,4 -4,4"/>
<g id="clust1" class="cluster">
<title>cluster1</title>
<polygon fill="none" stroke="black" points="171,-488.09 171,-643.09 727,-643.09 727,-488.09 171,-488.09"/>
<text text-anchor="middle" x="221.5" y="-627.89" font-family="Times,serif" font-size="14.00">Box1:Select</text>
</g>
<g id="clust3" class="cluster">
<title>cluster0</title>
<polygon fill="none" stroke="black" points="8,-8 8,-140 170,-140 170,-8 8,-8"/>
<text text-anchor="middle" x="49.5" y="-124.8" font-family="Times,serif" font-size="14.00">Box0:Get</text>
</g>
<g id="clust5" class="cluster">
<title>cluster3</title>
<polygon fill="none" stroke="black" points="214,-333 214,-469.09 468,-469.09 468,-333 214,-333"/>
<text text-anchor="middle" x="264.5" y="-453.89" font-family="Times,serif" font-size="14.00">Box3:Select</text>
</g>
<g id="clust7" class="cluster">
<title>cluster2</title>
<polygon fill="none" stroke="black" points="86,-159 86,-314 340,-314 340,-159 86,-159"/>
<text text-anchor="middle" x="136.5" y="-298.8" font-family="Times,serif" font-size="14.00">Box2:Select</text>
</g>
<g id="clust9" class="cluster">
<title>cluster6</title>
<polygon fill="none" stroke="black" points="476,-333 476,-469.09 730,-469.09 730,-333 476,-333"/>
<text text-anchor="middle" x="526.5" y="-453.89" font-family="Times,serif" font-size="14.00">Box6:Select</text>
</g>
<g id="clust11" class="cluster">
<title>cluster5</title>
<polygon fill="none" stroke="black" points="348,-159 348,-314 602,-314 602,-159 348,-159"/>
<text text-anchor="middle" x="398.5" y="-298.8" font-family="Times,serif" font-size="14.00">Box5:Select</text>
</g>
<g id="clust13" class="cluster">
<title>cluster4</title>
<polygon fill="none" stroke="black" points="312,-8 312,-140 474,-140 474,-8 312,-8"/>
<text text-anchor="middle" x="353.5" y="-124.8" font-family="Times,serif" font-size="14.00">Box4:Get</text>
</g>
<!-- boxhead1 -->
<g id="node1" class="node">
<title>boxhead1</title>
<polygon fill="none" stroke="black" points="535.5,-496.59 535.5,-588.59 718.5,-588.59 718.5,-496.59 535.5,-496.59"/>
<text text-anchor="middle" x="627" y="-573.39" font-family="Times,serif" font-size="14.00">Distinct: Preserve</text>
<polyline fill="none" stroke="black" points="535.5,-565.59 718.5,-565.59 "/>
<text text-anchor="middle" x="627" y="-550.39" font-family="Times,serif" font-size="14.00">0: Q0.C0</text>
<polyline fill="none" stroke="black" points="535.5,-542.59 718.5,-542.59 "/>
<text text-anchor="middle" x="627" y="-527.39" font-family="Times,serif" font-size="14.00">1: Q0.C1</text>
<polyline fill="none" stroke="black" points="535.5,-519.59 718.5,-519.59 "/>
<text text-anchor="middle" x="627" y="-504.39" font-family="Times,serif" font-size="14.00">(!(Q3.C0) &amp;&amp; !(Q6.C0))</text>
</g>
<!-- Q0 -->
<g id="node2" class="node">
<title>Q0</title>
<ellipse fill="none" stroke="black" cx="216" cy="-542.59" rx="37.09" ry="37.09"/>
<text text-anchor="middle" x="216" y="-538.89" font-family="Times,serif" font-size="14.00">Q0(F)</text>
</g>
<!-- boxhead0 -->
<g id="node5" class="node">
<title>boxhead0</title>
<polygon fill="none" stroke="black" points="16,-16.5 16,-85.5 162,-85.5 162,-16.5 16,-16.5"/>
<text text-anchor="middle" x="89" y="-70.3" font-family="Times,serif" font-size="14.00">Distinct: Preserve</text>
<polyline fill="none" stroke="black" points="16,-62.5 162,-62.5 "/>
<text text-anchor="middle" x="89" y="-47.3" font-family="Times,serif" font-size="14.00">0: C0</text>
<polyline fill="none" stroke="black" points="16,-39.5 162,-39.5 "/>
<text text-anchor="middle" x="89" y="-24.3" font-family="Times,serif" font-size="14.00">1: C1</text>
</g>
<!-- Q0&#45;&gt;boxhead0 -->
<g id="edge3" class="edge">
<title>Q0&#45;&gt;boxhead0</title>
<path fill="none" stroke="black" stroke-dasharray="5,2" d="M192.78,-513.7C160.5,-472.91 103.58,-393.19 82,-314 66.6,-257.49 68.46,-191.58 74.11,-140"/>
</g>
<!-- Q3 -->
<g id="node3" class="node">
<title>Q3</title>
<ellipse fill="none" stroke="black" cx="387" cy="-542.59" rx="37.89" ry="37.89"/>
<text text-anchor="middle" x="387" y="-538.89" font-family="Times,serif" font-size="14.00">Q3(E)</text>
</g>
<!-- Q3&#45;&gt;Q0 -->
<g id="edge1" class="edge">
<title>Q3&#45;&gt;Q0</title>
<path fill="none" stroke="red" d="M349.08,-542.59C323.73,-542.59 290.19,-542.59 263.13,-542.59"/>
<polygon fill="red" stroke="red" points="263.1,-539.09 253.1,-542.59 263.1,-546.09 263.1,-539.09"/>
<text text-anchor="middle" x="301.18" y="-549.39" font-family="Times,serif" font-size="14.00">correlation</text>
</g>
<!-- boxhead3 -->
<g id="node6" class="node">
<title>boxhead3</title>
<polygon fill="none" stroke="black" points="314,-355.05 314,-401.05 460,-401.05 460,-355.05 314,-355.05"/>
<text text-anchor="middle" x="387" y="-385.85" font-family="Times,serif" font-size="14.00">Distinct: Preserve</text>
<polyline fill="none" stroke="black" points="314,-378.05 460,-378.05 "/>
<text text-anchor="middle" x="387" y="-362.85" font-family="Times,serif" font-size="14.00">0: Q2.C1</text>
</g>
<!-- Q3&#45;&gt;boxhead3 -->
<g id="edge4" class="edge">
<title>Q3&#45;&gt;boxhead3</title>
<path fill="none" stroke="black" stroke-dasharray="5,2" d="M387,-504.71C387,-493.93 387,-481.65 387,-469.09"/>
</g>
<!-- Q6 -->
<g id="node4" class="node">
<title>Q6</title>
<ellipse fill="none" stroke="black" cx="480" cy="-542.59" rx="37.89" ry="37.89"/>
<text text-anchor="middle" x="480" y="-538.89" font-family="Times,serif" font-size="14.00">Q6(E)</text>
</g>
<!-- Q6&#45;&gt;Q0 -->
<g id="edge2" class="edge">
<title>Q6&#45;&gt;Q0</title>
<path fill="none" stroke="red" d="M472.51,-579.87C466.12,-601.15 454.56,-626.12 434,-639.09 398.67,-661.39 379.51,-652.66 340,-639.09 304.38,-626.87 271.12,-599.76 248.03,-577.38"/>
<polygon fill="red" stroke="red" points="250.46,-574.87 240.9,-570.31 245.53,-579.84 250.46,-574.87"/>
<text text-anchor="middle" x="347" y="-654.89" font-family="Times,serif" font-size="14.00">correlation</text>
</g>
<!-- boxhead6 -->
<g id="node10" class="node">
<title>boxhead6</title>
<polygon fill="none" stroke="black" points="576,-355.05 576,-401.05 722,-401.05 722,-355.05 576,-355.05"/>
<text text-anchor="middle" x="649" y="-385.85" font-family="Times,serif" font-size="14.00">Distinct: Preserve</text>
<polyline fill="none" stroke="black" points="576,-378.05 722,-378.05 "/>
<text text-anchor="middle" x="649" y="-362.85" font-family="Times,serif" font-size="14.00">0: Q5.C1</text>
</g>
<!-- Q6&#45;&gt;boxhead6 -->
<g id="edge5" class="edge">
<title>Q6&#45;&gt;boxhead6</title>
<path fill="none" stroke="black" stroke-dasharray="5,2" d="M502.22,-512.02C509.49,-503.59 518.02,-494.87 527,-488.09 542.71,-476.23 551.19,-480.81 567,-469.09"/>
</g>
<!-- Q2 -->
<g id="node7" class="node">
<title>Q2</title>
<ellipse fill="none" stroke="black" cx="259" cy="-378.05" rx="37.09" ry="37.09"/>
<text text-anchor="middle" x="259" y="-374.35" font-family="Times,serif" font-size="14.00">Q2(F)</text>
</g>
<!-- boxhead2 -->
<g id="node8" class="node">
<title>boxhead2</title>
<polygon fill="none" stroke="black" points="186,-167.5 186,-259.5 332,-259.5 332,-167.5 186,-167.5"/>
<text text-anchor="middle" x="259" y="-244.3" font-family="Times,serif" font-size="14.00">Distinct: Preserve</text>
<polyline fill="none" stroke="black" points="186,-236.5 332,-236.5 "/>
<text text-anchor="middle" x="259" y="-221.3" font-family="Times,serif" font-size="14.00">0: Q1.C0</text>
<polyline fill="none" stroke="black" points="186,-213.5 332,-213.5 "/>
<text text-anchor="middle" x="259" y="-198.3" font-family="Times,serif" font-size="14.00">1: Q1.C1</text>
<polyline fill="none" stroke="black" points="186,-190.5 332,-190.5 "/>
<text text-anchor="middle" x="259" y="-175.3" font-family="Times,serif" font-size="14.00">(Q1.C0 = Q0.C0)</text>
</g>
<!-- Q2&#45;&gt;boxhead2 -->
<g id="edge6" class="edge">
<title>Q2&#45;&gt;boxhead2</title>
<path fill="none" stroke="black" stroke-dasharray="5,2" d="M259,-340.97C259,-332.71 259,-323.53 259,-314"/>
</g>
<!-- Q1 -->
<g id="node9" class="node">
<title>Q1</title>
<ellipse fill="none" stroke="black" cx="131" cy="-213.5" rx="37.09" ry="37.09"/>
<text text-anchor="middle" x="131" y="-209.8" font-family="Times,serif" font-size="14.00">Q1(F)</text>
</g>
<!-- Q1&#45;&gt;boxhead0 -->
<g id="edge7" class="edge">
<title>Q1&#45;&gt;boxhead0</title>
<path fill="none" stroke="black" stroke-dasharray="5,2" d="M121.78,-177.28C118.86,-166.09 115.48,-153.19 112.03,-140"/>
</g>
<!-- Q5 -->
<g id="node11" class="node">
<title>Q5</title>
<ellipse fill="none" stroke="black" cx="521" cy="-378.05" rx="37.09" ry="37.09"/>
<text text-anchor="middle" x="521" y="-374.35" font-family="Times,serif" font-size="14.00">Q5(F)</text>
</g>
<!-- boxhead5 -->
<g id="node12" class="node">
<title>boxhead5</title>
<polygon fill="none" stroke="black" points="448,-167.5 448,-259.5 594,-259.5 594,-167.5 448,-167.5"/>
<text text-anchor="middle" x="521" y="-244.3" font-family="Times,serif" font-size="14.00">Distinct: Preserve</text>
<polyline fill="none" stroke="black" points="448,-236.5 594,-236.5 "/>
<text text-anchor="middle" x="521" y="-221.3" font-family="Times,serif" font-size="14.00">0: Q4.C0</text>
<polyline fill="none" stroke="black" points="448,-213.5 594,-213.5 "/>
<text text-anchor="middle" x="521" y="-198.3" font-family="Times,serif" font-size="14.00">1: Q4.C1</text>
<polyline fill="none" stroke="black" points="448,-190.5 594,-190.5 "/>
<text text-anchor="middle" x="521" y="-175.3" font-family="Times,serif" font-size="14.00">(Q4.C0 = Q0.C0)</text>
</g>
<!-- Q5&#45;&gt;boxhead5 -->
<g id="edge8" class="edge">
<title>Q5&#45;&gt;boxhead5</title>
<path fill="none" stroke="black" stroke-dasharray="5,2" d="M521,-340.97C521,-332.71 521,-323.53 521,-314"/>
</g>
<!-- Q4 -->
<g id="node13" class="node">
<title>Q4</title>
<ellipse fill="none" stroke="black" cx="393" cy="-213.5" rx="37.09" ry="37.09"/>
<text text-anchor="middle" x="393" y="-209.8" font-family="Times,serif" font-size="14.00">Q4(F)</text>
</g>
<!-- boxhead4 -->
<g id="node14" class="node">
<title>boxhead4</title>
<polygon fill="none" stroke="black" points="320,-16.5 320,-85.5 466,-85.5 466,-16.5 320,-16.5"/>
<text text-anchor="middle" x="393" y="-70.3" font-family="Times,serif" font-size="14.00">Distinct: Preserve</text>
<polyline fill="none" stroke="black" points="320,-62.5 466,-62.5 "/>
<text text-anchor="middle" x="393" y="-47.3" font-family="Times,serif" font-size="14.00">0: C0</text>
<polyline fill="none" stroke="black" points="320,-39.5 466,-39.5 "/>
<text text-anchor="middle" x="393" y="-24.3" font-family="Times,serif" font-size="14.00">1: C1</text>
</g>
<!-- Q4&#45;&gt;boxhead4 -->
<g id="edge9" class="edge">
<title>Q4&#45;&gt;boxhead4</title>
<path fill="none" stroke="black" stroke-dasharray="5,2" d="M393,-176.08C393,-165.18 393,-152.72 393,-140"/>
</g>
</g>
</svg>
