<?xml version="1.0" encoding="UTF-8" standalone="no"?>
<!DOCTYPE svg PUBLIC "-//W3C//DTD SVG 1.1//EN"
 "http://www.w3.org/Graphics/SVG/1.1/DTD/svg11.dtd">
<!-- Generated by graphviz version 2.43.0 (0)
 -->
<!-- Title: G Pages: 1 -->
<svg width="297pt" height="314pt"
 viewBox="0.00 0.00 297.00 314.00" xmlns="http://www.w3.org/2000/svg" xmlns:xlink="http://www.w3.org/1999/xlink">
<g id="graph0" class="graph" transform="scale(1 1) rotate(0) translate(4 310)">
<title>G</title>
<polygon fill="white" stroke="transparent" points="-4,4 -4,-310 293,-310 293,4 -4,4"/>
<!-- node0 -->
<g id="node1" class="node">
<title>node0</title>
<polygon fill="none" stroke="black" points="0,-0.5 0,-218.5 289,-218.5 289,-0.5 0,-0.5"/>
<text text-anchor="start" x="8" y="-203.3" font-family="Times,serif" font-size="14.00">Get hir_to_qgm.public.r (u47)</text>
<text text-anchor="start" x="8" y="-188.3" font-family="Times,serif" font-size="14.00">Filter (!(exists(%1)) &amp;&amp; !(exists(%2)))</text>
<text text-anchor="start" x="8" y="-173.3" font-family="Times,serif" font-size="14.00">&#45;</text>
<text text-anchor="start" x="8" y="-158.3" font-family="Times,serif" font-size="14.00">&#45; %1 =</text>
<text text-anchor="start" x="8" y="-143.3" font-family="Times,serif" font-size="14.00">&#45; Get hir_to_qgm.public.r (u47)</text>
<text text-anchor="start" x="8" y="-128.3" font-family="Times,serif" font-size="14.00">&#45; Filter (#0 = #^0)</text>
<text text-anchor="start" x="8" y="-113.3" font-family="Times,serif" font-size="14.00">&#45; Project (#1)</text>
<text text-anchor="start" x="8" y="-98.3" font-family="Times,serif" font-size="14.00">&#45;</text>
<text text-anchor="start" x="8" y="-83.3" font-family="Times,serif" font-size="14.00">&#45;</text>
<text text-anchor="start" x="8" y="-68.3" font-family="Times,serif" font-size="14.00">&#45; %2 =</text>
<text text-anchor="start" x="8" y="-53.3" font-family="Times,serif" font-size="14.00">&#45; Get hir_to_qgm.public.s (u48)</text>
<text text-anchor="start" x="8" y="-38.3" font-family="Times,serif" font-size="14.00">&#45; Filter (#0 = #^0)</text>
<text text-anchor="start" x="8" y="-23.3" font-family="Times,serif" font-size="14.00">&#45; Project (#1)</text>
<text text-anchor="start" x="8" y="-8.3" font-family="Times,serif" font-size="14.00">&#45;</text>
</g>
<!-- node2 -->
<g id="node2" class="node">
<title>node2</title>
<ellipse fill="none" stroke="black" cx="96.5" cy="-288" rx="38.99" ry="18"/>
<text text-anchor="middle" x="96.5" y="-284.3" font-family="Times,serif" font-size="14.00">node2</text>
</g>
<!-- node2&#45;&gt;node0 -->
<g id="edge1" class="edge">
<title>node2&#45;&gt;node0</title>
<path fill="none" stroke="black" d="M101.1,-270.08C103.99,-259.47 107.99,-244.77 112.4,-228.54"/>
<polygon fill="black" stroke="black" points="115.79,-229.4 115.04,-218.83 109.04,-227.56 115.79,-229.4"/>
<text text-anchor="start" x="109.5" y="-240.8" font-family="Times,serif" font-size="14.00">%2</text>
</g>
<!-- node1 -->
<g id="node3" class="node">
<title>node1</title>
<ellipse fill="none" stroke="black" cx="192.5" cy="-288" rx="38.99" ry="18"/>
<text text-anchor="middle" x="192.5" y="-284.3" font-family="Times,serif" font-size="14.00">node1</text>
</g>
<!-- node1&#45;&gt;node0 -->
<g id="edge2" class="edge">
<title>node1&#45;&gt;node0</title>
<path fill="none" stroke="black" d="M187.9,-270.08C185.01,-259.47 181.01,-244.77 176.6,-228.54"/>
<polygon fill="black" stroke="black" points="179.96,-227.56 173.96,-218.83 173.21,-229.4 179.96,-227.56"/>
<text text-anchor="start" x="181.5" y="-240.8" font-family="Times,serif" font-size="14.00">%1</text>
</g>
</g>
</svg>
