<?xml version="1.0" encoding="UTF-8" standalone="no"?>
<!DOCTYPE svg PUBLIC "-//W3C//DTD SVG 1.1//EN"
 "http://www.w3.org/Graphics/SVG/1.1/DTD/svg11.dtd">
<!-- Generated by graphviz version 2.43.0 (0)
 -->
<!-- Title: G Pages: 1 -->
<svg width="968pt" height="2015pt"
 viewBox="0.00 0.00 968.00 2015.00" xmlns="http://www.w3.org/2000/svg" xmlns:xlink="http://www.w3.org/1999/xlink">
<g id="graph0" class="graph" transform="scale(1 1) rotate(0) translate(4 2011)">
<title>G</title>
<polygon fill="white" stroke="transparent" points="-4,4 -4,-2011 964,-2011 964,4 -4,4"/>
<!-- node0 -->
<g id="node1" class="node">
<title>node0</title>
<polygon fill="none" stroke="black" points="568,-1968.5 568,-2006.5 669,-2006.5 669,-1968.5 568,-1968.5"/>
<text text-anchor="start" x="576" y="-1991.3" font-family="Times,serif" font-size="14.00">Let l0 =</text>
<text text-anchor="start" x="576" y="-1976.3" font-family="Times,serif" font-size="14.00"> Constant ()</text>
</g>
<!-- node2 -->
<g id="node3" class="node">
<title>node2</title>
<polygon fill="none" stroke="black" points="331,-1863.5 331,-1916.5 600,-1916.5 600,-1863.5 331,-1863.5"/>
<text text-anchor="start" x="339" y="-1901.3" font-family="Times,serif" font-size="14.00">Let l1 =</text>
<text text-anchor="start" x="339" y="-1886.3" font-family="Times,serif" font-size="14.00"> Join %0 %1</text>
<text text-anchor="start" x="339" y="-1871.3" font-family="Times,serif" font-size="14.00"> implementation = Unimplemented</text>
</g>
<!-- node0&#45;&gt;node2 -->
<g id="edge10" class="edge">
<title>node0&#45;&gt;node2</title>
<path fill="none" stroke="black" d="M589.36,-1968.31C568.34,-1955.19 539.46,-1937.17 514.87,-1921.82"/>
<polygon fill="black" stroke="black" points="516.71,-1918.84 506.38,-1916.51 513.01,-1924.78 516.71,-1918.84"/>
<text text-anchor="start" x="555.5" y="-1938.8" font-family="Times,serif" font-size="14.00">%0</text>
</g>
<!-- node4 -->
<g id="node5" class="node">
<title>node4</title>
<polygon fill="none" stroke="black" points="618,-1863.5 618,-1916.5 887,-1916.5 887,-1863.5 618,-1863.5"/>
<text text-anchor="start" x="626" y="-1901.3" font-family="Times,serif" font-size="14.00">Let l2 =</text>
<text text-anchor="start" x="626" y="-1886.3" font-family="Times,serif" font-size="14.00"> Join %0 %3</text>
<text text-anchor="start" x="626" y="-1871.3" font-family="Times,serif" font-size="14.00"> implementation = Unimplemented</text>
</g>
<!-- node0&#45;&gt;node4 -->
<g id="edge1" class="edge">
<title>node0&#45;&gt;node4</title>
<path fill="none" stroke="black" d="M644.02,-1968.31C662.19,-1955.37 687.06,-1937.64 708.41,-1922.42"/>
<polygon fill="black" stroke="black" points="710.59,-1925.17 716.7,-1916.51 706.52,-1919.47 710.59,-1925.17"/>
<text text-anchor="start" x="689.5" y="-1938.8" font-family="Times,serif" font-size="14.00">%0</text>
</g>
<!-- node1 -->
<g id="node2" class="node">
<title>node1</title>
<polygon fill="none" stroke="black" points="241.5,-1969.5 241.5,-2005.5 549.5,-2005.5 549.5,-1969.5 241.5,-1969.5"/>
<text text-anchor="start" x="249.5" y="-1983.8" font-family="Times,serif" font-size="14.00">Get decorrelation.public.students (u104)</text>
</g>
<!-- node1&#45;&gt;node2 -->
<g id="edge11" class="edge">
<title>node1&#45;&gt;node2</title>
<path fill="none" stroke="black" d="M408.01,-1969.43C417.11,-1957.02 429.71,-1939.83 440.8,-1924.7"/>
<polygon fill="black" stroke="black" points="443.68,-1926.69 446.77,-1916.55 438.03,-1922.55 443.68,-1926.69"/>
<text text-anchor="start" x="433.5" y="-1938.8" font-family="Times,serif" font-size="14.00">%1</text>
</g>
<!-- node5 -->
<g id="node6" class="node">
<title>node5</title>
<polygon fill="none" stroke="black" points="474,-1728.5 474,-1811.5 743,-1811.5 743,-1728.5 474,-1728.5"/>
<text text-anchor="start" x="482" y="-1796.3" font-family="Times,serif" font-size="14.00">Let l3 =</text>
<text text-anchor="start" x="482" y="-1781.3" font-family="Times,serif" font-size="14.00"> Join %2 %4</text>
<text text-anchor="start" x="482" y="-1766.3" font-family="Times,serif" font-size="14.00"> implementation = Unimplemented</text>
<text text-anchor="start" x="482" y="-1751.3" font-family="Times,serif" font-size="14.00"> Project (#0..#6)</text>
<text text-anchor="start" x="482" y="-1736.3" font-family="Times,serif" font-size="14.00"> Filter true</text>
</g>
<!-- node2&#45;&gt;node5 -->
<g id="edge28" class="edge">
<title>node2&#45;&gt;node5</title>
<path fill="none" stroke="black" d="M496.53,-1863.4C512.56,-1850.17 532.63,-1833.61 551.34,-1818.17"/>
<polygon fill="black" stroke="black" points="553.77,-1820.7 559.26,-1811.63 549.32,-1815.3 553.77,-1820.7"/>
<text text-anchor="start" x="536.5" y="-1833.8" font-family="Times,serif" font-size="14.00">%2</text>
</g>
<!-- node3 -->
<g id="node4" class="node">
<title>node3</title>
<polygon fill="none" stroke="black" points="687,-1969.5 687,-2005.5 960,-2005.5 960,-1969.5 687,-1969.5"/>
<text text-anchor="start" x="695" y="-1983.8" font-family="Times,serif" font-size="14.00">Get decorrelation.public.test (u112)</text>
</g>
<!-- node3&#45;&gt;node4 -->
<g id="edge3" class="edge">
<title>node3&#45;&gt;node4</title>
<path fill="none" stroke="black" d="M810.81,-1969.43C801.59,-1957.02 788.8,-1939.83 777.56,-1924.7"/>
<polygon fill="black" stroke="black" points="780.27,-1922.49 771.5,-1916.55 774.66,-1926.67 780.27,-1922.49"/>
<text text-anchor="start" x="793.5" y="-1938.8" font-family="Times,serif" font-size="14.00">%3</text>
</g>
<!-- node4&#45;&gt;node5 -->
<g id="edge35" class="edge">
<title>node4&#45;&gt;node5</title>
<path fill="none" stroke="black" d="M721.25,-1863.4C705.11,-1850.17 684.9,-1833.61 666.06,-1818.17"/>
<polygon fill="black" stroke="black" points="668.04,-1815.26 658.09,-1811.63 663.6,-1820.68 668.04,-1815.26"/>
<text text-anchor="start" x="697.5" y="-1833.8" font-family="Times,serif" font-size="14.00">%4</text>
</g>
<!-- node6 -->
<g id="node7" class="node">
<title>node6</title>
<polygon fill="none" stroke="black" points="501.5,-1623.5 501.5,-1676.5 715.5,-1676.5 715.5,-1623.5 501.5,-1623.5"/>
<text text-anchor="start" x="509.5" y="-1661.3" font-family="Times,serif" font-size="14.00">Let l4 =</text>
<text text-anchor="start" x="509.5" y="-1646.3" font-family="Times,serif" font-size="14.00"> Get %5 (l3)</text>
<text text-anchor="start" x="509.5" y="-1631.3" font-family="Times,serif" font-size="14.00"> Filter ((#0 = #3) &amp;&amp; true)</text>
</g>
<!-- node5&#45;&gt;node6 -->
<g id="edge25" class="edge">
<title>node5&#45;&gt;node6</title>
<path fill="none" stroke="black" d="M608.5,-1728.39C608.5,-1714.82 608.5,-1699.8 608.5,-1686.64"/>
<polygon fill="black" stroke="black" points="612,-1686.54 608.5,-1676.54 605,-1686.54 612,-1686.54"/>
<text text-anchor="start" x="608.5" y="-1698.8" font-family="Times,serif" font-size="14.00">%5</text>
</g>
<!-- node7 -->
<g id="node8" class="node">
<title>node7</title>
<polygon fill="none" stroke="black" points="223,-1518.5 223,-1571.5 390,-1571.5 390,-1518.5 223,-1518.5"/>
<text text-anchor="start" x="231" y="-1556.3" font-family="Times,serif" font-size="14.00">Let l5 =</text>
<text text-anchor="start" x="231" y="-1541.3" font-family="Times,serif" font-size="14.00"> Get %6 (l4)</text>
<text text-anchor="start" x="231" y="-1526.3" font-family="Times,serif" font-size="14.00"> Distinct group=(#0)</text>
</g>
<!-- node6&#45;&gt;node7 -->
<g id="edge21" class="edge">
<title>node6&#45;&gt;node7</title>
<path fill="none" stroke="black" d="M533.46,-1623.41C490.25,-1608.67 435.82,-1590.11 391.1,-1574.85"/>
<polygon fill="black" stroke="black" points="392.01,-1571.47 381.41,-1571.55 389.75,-1578.09 392.01,-1571.47"/>
<text text-anchor="start" x="476.5" y="-1593.8" font-family="Times,serif" font-size="14.00">%6</text>
</g>
<!-- node26 -->
<g id="node27" class="node">
<title>node26</title>
<polygon fill="none" stroke="black" points="453,-0.5 453,-98.5 722,-98.5 722,-0.5 453,-0.5"/>
<text text-anchor="start" x="461" y="-83.3" font-family="Times,serif" font-size="14.00">Join %6 %25 (= #0 #7)</text>
<text text-anchor="start" x="461" y="-68.3" font-family="Times,serif" font-size="14.00"> implementation = Unimplemented</text>
<text text-anchor="start" x="461" y="-53.3" font-family="Times,serif" font-size="14.00"> Project (#0..#6, #8)</text>
<text text-anchor="start" x="461" y="-38.3" font-family="Times,serif" font-size="14.00"> Filter (#6 = #7)</text>
<text text-anchor="start" x="461" y="-23.3" font-family="Times,serif" font-size="14.00"> Project (#0..#6)</text>
<text text-anchor="start" x="461" y="-8.3" font-family="Times,serif" font-size="14.00"> Project (#1, #4)</text>
</g>
<!-- node6&#45;&gt;node26 -->
<g id="edge8" class="edge">
<title>node6&#45;&gt;node26</title>
<path fill="none" stroke="black" d="M657.59,-1623.41C684.12,-1605.72 711.5,-1579.38 711.5,-1546 711.5,-1546 711.5,-1546 711.5,-167.5 711.5,-143.29 698.84,-122.6 681.6,-105.66"/>
<polygon fill="black" stroke="black" points="683.69,-102.82 673.96,-98.63 678.95,-107.97 683.69,-102.82"/>
<text text-anchor="start" x="711.5" y="-836.8" font-family="Times,serif" font-size="14.00">%6</text>
</g>
<!-- node9 -->
<g id="node10" class="node">
<title>node9</title>
<polygon fill="none" stroke="black" points="408,-1368.5 408,-1466.5 677,-1466.5 677,-1368.5 408,-1368.5"/>
<text text-anchor="start" x="416" y="-1451.3" font-family="Times,serif" font-size="14.00">Let l6 =</text>
<text text-anchor="start" x="416" y="-1436.3" font-family="Times,serif" font-size="14.00"> Join %7 %8</text>
<text text-anchor="start" x="416" y="-1421.3" font-family="Times,serif" font-size="14.00"> implementation = Unimplemented</text>
<text text-anchor="start" x="416" y="-1406.3" font-family="Times,serif" font-size="14.00"> Filter (#0 = #1)</text>
<text text-anchor="start" x="416" y="-1391.3" font-family="Times,serif" font-size="14.00"> Reduce group=(#0)</text>
<text text-anchor="start" x="416" y="-1376.3" font-family="Times,serif" font-size="14.00"> agg min(#4)</text>
</g>
<!-- node7&#45;&gt;node9 -->
<g id="edge26" class="edge">
<title>node7&#45;&gt;node9</title>
<path fill="none" stroke="black" d="M354.54,-1518.45C380.06,-1504.88 412.4,-1487.68 443.03,-1471.39"/>
<polygon fill="black" stroke="black" points="444.86,-1474.39 452.05,-1466.6 441.57,-1468.21 444.86,-1474.39"/>
<text text-anchor="start" x="417.5" y="-1488.8" font-family="Times,serif" font-size="14.00">%7</text>
</g>
<!-- node11 -->
<g id="node12" class="node">
<title>node11</title>
<polygon fill="none" stroke="black" points="321,-1311.5 321,-1349.5 488,-1349.5 488,-1311.5 321,-1311.5"/>
<text text-anchor="start" x="329" y="-1334.3" font-family="Times,serif" font-size="14.00">Get %7 (l5)</text>
<text text-anchor="start" x="329" y="-1319.3" font-family="Times,serif" font-size="14.00"> Distinct group=(#0)</text>
</g>
<!-- node7&#45;&gt;node11 -->
<g id="edge13" class="edge">
<title>node7&#45;&gt;node11</title>
<path fill="none" stroke="black" d="M318.32,-1518.37C336.89,-1478.1 372.74,-1400.37 391.82,-1358.98"/>
<polygon fill="black" stroke="black" points="395.06,-1360.32 396.07,-1349.77 388.71,-1357.39 395.06,-1360.32"/>
<text text-anchor="start" x="333.5" y="-1488.8" font-family="Times,serif" font-size="14.00">%7</text>
</g>
<!-- node13 -->
<g id="node14" class="node">
<title>node13</title>
<polygon fill="none" stroke="black" points="204,-1046.5 204,-1099.5 473,-1099.5 473,-1046.5 204,-1046.5"/>
<text text-anchor="start" x="212" y="-1084.3" font-family="Times,serif" font-size="14.00">Join %12 %7 (= #0 #1)</text>
<text text-anchor="start" x="212" y="-1069.3" font-family="Times,serif" font-size="14.00"> implementation = Unimplemented</text>
<text text-anchor="start" x="212" y="-1054.3" font-family="Times,serif" font-size="14.00"> Project (#0)</text>
</g>
<!-- node7&#45;&gt;node13 -->
<g id="edge7" class="edge">
<title>node7&#45;&gt;node13</title>
<path fill="none" stroke="black" d="M306.5,-1518.04C306.5,-1492.66 306.5,-1452.93 306.5,-1418.5 306.5,-1418.5 306.5,-1418.5 306.5,-1168.5 306.5,-1148.04 313.31,-1126.34 320.65,-1108.9"/>
<polygon fill="black" stroke="black" points="323.88,-1110.25 324.74,-1099.69 317.49,-1107.41 323.88,-1110.25"/>
<text text-anchor="start" x="306.5" y="-1262.3" font-family="Times,serif" font-size="14.00">%7</text>
</g>
<!-- node20 -->
<g id="node21" class="node">
<title>node20</title>
<polygon fill="none" stroke="black" points="125,-1311.5 125,-1349.5 292,-1349.5 292,-1311.5 125,-1311.5"/>
<text text-anchor="start" x="133" y="-1334.3" font-family="Times,serif" font-size="14.00">Get %7 (l5)</text>
<text text-anchor="start" x="133" y="-1319.3" font-family="Times,serif" font-size="14.00"> Distinct group=(#0)</text>
</g>
<!-- node7&#45;&gt;node20 -->
<g id="edge15" class="edge">
<title>node7&#45;&gt;node20</title>
<path fill="none" stroke="black" d="M282.2,-1518.13C277.59,-1512.43 273.09,-1506.22 269.5,-1500 242.87,-1453.84 224.57,-1394.02 215.37,-1359.48"/>
<polygon fill="black" stroke="black" points="218.71,-1358.42 212.81,-1349.62 211.94,-1360.18 218.71,-1358.42"/>
<text text-anchor="start" x="269.5" y="-1488.8" font-family="Times,serif" font-size="14.00">%7</text>
</g>
<!-- node22 -->
<g id="node23" class="node">
<title>node22</title>
<polygon fill="none" stroke="black" points="0,-328.5 0,-381.5 269,-381.5 269,-328.5 0,-328.5"/>
<text text-anchor="start" x="8" y="-366.3" font-family="Times,serif" font-size="14.00">Join %21 %7 (= #0 #1)</text>
<text text-anchor="start" x="8" y="-351.3" font-family="Times,serif" font-size="14.00"> implementation = Unimplemented</text>
<text text-anchor="start" x="8" y="-336.3" font-family="Times,serif" font-size="14.00"> Project (#0)</text>
</g>
<!-- node7&#45;&gt;node22 -->
<g id="edge24" class="edge">
<title>node7&#45;&gt;node22</title>
<path fill="none" stroke="black" d="M222.81,-1525.08C169.54,-1507.53 110.5,-1475.27 110.5,-1418.5 110.5,-1418.5 110.5,-1418.5 110.5,-450.5 110.5,-430.55 115.59,-408.94 121.08,-391.42"/>
<polygon fill="black" stroke="black" points="124.5,-392.22 124.32,-381.63 117.86,-390.02 124.5,-392.22"/>
<text text-anchor="start" x="110.5" y="-926.8" font-family="Times,serif" font-size="14.00">%7</text>
</g>
<!-- node8 -->
<g id="node9" class="node">
<title>node8</title>
<polygon fill="none" stroke="black" points="408,-1527 408,-1563 681,-1563 681,-1527 408,-1527"/>
<text text-anchor="start" x="416" y="-1541.3" font-family="Times,serif" font-size="14.00">Get decorrelation.public.test (u112)</text>
</g>
<!-- node8&#45;&gt;node9 -->
<g id="edge33" class="edge">
<title>node8&#45;&gt;node9</title>
<path fill="none" stroke="black" d="M544.23,-1526.81C544.02,-1513.73 543.72,-1494.91 543.43,-1476.62"/>
<polygon fill="black" stroke="black" points="546.92,-1476.49 543.27,-1466.55 539.93,-1476.61 546.92,-1476.49"/>
<text text-anchor="start" x="543.5" y="-1488.8" font-family="Times,serif" font-size="14.00">%8</text>
</g>
<!-- node10 -->
<g id="node11" class="node">
<title>node10</title>
<polygon fill="none" stroke="black" points="453,-1239.5 453,-1292.5 620,-1292.5 620,-1239.5 453,-1239.5"/>
<text text-anchor="start" x="461" y="-1277.3" font-family="Times,serif" font-size="14.00">Get %9 (l6)</text>
<text text-anchor="start" x="461" y="-1262.3" font-family="Times,serif" font-size="14.00"> Distinct group=(#0)</text>
<text text-anchor="start" x="461" y="-1247.3" font-family="Times,serif" font-size="14.00"> Negate</text>
</g>
<!-- node9&#45;&gt;node10 -->
<g id="edge22" class="edge">
<title>node9&#45;&gt;node10</title>
<path fill="none" stroke="black" d="M540.57,-1368.37C539.71,-1347.1 538.73,-1322.52 537.94,-1302.89"/>
<polygon fill="black" stroke="black" points="541.44,-1302.69 537.54,-1292.84 534.44,-1302.97 541.44,-1302.69"/>
<text text-anchor="start" x="539.5" y="-1326.8" font-family="Times,serif" font-size="14.00">%9</text>
</g>
<!-- node16 -->
<g id="node17" class="node">
<title>node16</title>
<polygon fill="none" stroke="black" points="486,-866.5 486,-904.5 613,-904.5 613,-866.5 486,-866.5"/>
<text text-anchor="start" x="494" y="-889.3" font-family="Times,serif" font-size="14.00">Let l7 =</text>
<text text-anchor="start" x="494" y="-874.3" font-family="Times,serif" font-size="14.00"> Union %9 %15</text>
</g>
<!-- node9&#45;&gt;node16 -->
<g id="edge9" class="edge">
<title>node9&#45;&gt;node16</title>
<path fill="none" stroke="black" d="M598.69,-1368.3C623.65,-1341.46 647.5,-1305.69 647.5,-1267 647.5,-1267 647.5,-1267 647.5,-974.5 647.5,-945.99 624.25,-924.37 600.4,-909.7"/>
<polygon fill="black" stroke="black" points="602.04,-906.6 591.63,-904.61 598.52,-912.66 602.04,-906.6"/>
<text text-anchor="start" x="647.5" y="-1121.8" font-family="Times,serif" font-size="14.00">%9</text>
</g>
<!-- node12 -->
<g id="node13" class="node">
<title>node12</title>
<polygon fill="none" stroke="black" points="337,-1151.5 337,-1187.5 468,-1187.5 468,-1151.5 337,-1151.5"/>
<text text-anchor="start" x="345" y="-1165.8" font-family="Times,serif" font-size="14.00">Union %10 %11</text>
</g>
<!-- node10&#45;&gt;node12 -->
<g id="edge18" class="edge">
<title>node10&#45;&gt;node12</title>
<path fill="none" stroke="black" d="M500.24,-1239.43C479.98,-1225.14 454.94,-1207.48 435.28,-1193.62"/>
<polygon fill="black" stroke="black" points="437.12,-1190.63 426.93,-1187.73 433.09,-1196.36 437.12,-1190.63"/>
<text text-anchor="start" x="474.5" y="-1209.8" font-family="Times,serif" font-size="14.00">%10</text>
</g>
<!-- node11&#45;&gt;node12 -->
<g id="edge34" class="edge">
<title>node11&#45;&gt;node12</title>
<path fill="none" stroke="black" d="M404.27,-1311.26C403.92,-1283.41 403.25,-1230.12 402.84,-1197.69"/>
<polygon fill="black" stroke="black" points="406.34,-1197.52 402.71,-1187.56 399.34,-1197.61 406.34,-1197.52"/>
<text text-anchor="start" x="404.5" y="-1262.3" font-family="Times,serif" font-size="14.00">%11</text>
</g>
<!-- node12&#45;&gt;node13 -->
<g id="edge2" class="edge">
<title>node12&#45;&gt;node13</title>
<path fill="none" stroke="black" d="M390.76,-1151.17C382.62,-1139.14 371.5,-1122.72 361.61,-1108.12"/>
<polygon fill="black" stroke="black" points="364.46,-1106.1 355.96,-1099.78 358.67,-1110.02 364.46,-1106.1"/>
<text text-anchor="start" x="378.5" y="-1121.8" font-family="Times,serif" font-size="14.00">%12</text>
</g>
<!-- node15 -->
<g id="node16" class="node">
<title>node15</title>
<polygon fill="none" stroke="black" points="350,-956.5 350,-994.5 619,-994.5 619,-956.5 350,-956.5"/>
<text text-anchor="start" x="358" y="-979.3" font-family="Times,serif" font-size="14.00">Join %13 %14</text>
<text text-anchor="start" x="358" y="-964.3" font-family="Times,serif" font-size="14.00"> implementation = Unimplemented</text>
</g>
<!-- node13&#45;&gt;node15 -->
<g id="edge4" class="edge">
<title>node13&#45;&gt;node15</title>
<path fill="none" stroke="black" d="M377.63,-1046.41C399.6,-1032.03 426.84,-1014.22 448.31,-1000.17"/>
<polygon fill="black" stroke="black" points="450.38,-1003 456.83,-994.6 446.55,-997.14 450.38,-1003"/>
<text text-anchor="start" x="425.5" y="-1016.8" font-family="Times,serif" font-size="14.00">%13</text>
</g>
<!-- node14 -->
<g id="node15" class="node">
<title>node14</title>
<polygon fill="none" stroke="black" points="491,-1055 491,-1091 614,-1091 614,-1055 491,-1055"/>
<text text-anchor="start" x="499" y="-1069.3" font-family="Times,serif" font-size="14.00">Constant (null)</text>
</g>
<!-- node14&#45;&gt;node15 -->
<g id="edge20" class="edge">
<title>node14&#45;&gt;node15</title>
<path fill="none" stroke="black" d="M540.34,-1054.93C530.06,-1040.49 515.16,-1019.56 503.34,-1002.96"/>
<polygon fill="black" stroke="black" points="506.13,-1000.84 497.48,-994.73 500.43,-1004.9 506.13,-1000.84"/>
<text text-anchor="start" x="521.5" y="-1016.8" font-family="Times,serif" font-size="14.00">%14</text>
</g>
<!-- node15&#45;&gt;node16 -->
<g id="edge27" class="edge">
<title>node15&#45;&gt;node16</title>
<path fill="none" stroke="black" d="M497.97,-956.27C507.21,-943.76 519.61,-926.96 529.94,-912.99"/>
<polygon fill="black" stroke="black" points="532.92,-914.83 536.05,-904.71 527.29,-910.67 532.92,-914.83"/>
<text text-anchor="start" x="521.5" y="-926.8" font-family="Times,serif" font-size="14.00">%15</text>
</g>
<!-- node17 -->
<g id="node18" class="node">
<title>node17</title>
<polygon fill="none" stroke="black" points="202,-716.5 202,-814.5 615,-814.5 615,-716.5 202,-716.5"/>
<text text-anchor="start" x="210" y="-799.3" font-family="Times,serif" font-size="14.00">Get %16 (l7)</text>
<text text-anchor="start" x="210" y="-784.3" font-family="Times,serif" font-size="14.00"> Reduce group=(#0)</text>
<text text-anchor="start" x="210" y="-769.3" font-family="Times,serif" font-size="14.00"> agg count(true)</text>
<text text-anchor="start" x="210" y="-754.3" font-family="Times,serif" font-size="14.00"> Filter (#1 &gt; 1)</text>
<text text-anchor="start" x="210" y="-739.3" font-family="Times,serif" font-size="14.00"> Project (#0)</text>
<text text-anchor="start" x="210" y="-724.3" font-family="Times,serif" font-size="14.00"> Map (err: more than one record produced in subquery)</text>
</g>
<!-- node16&#45;&gt;node17 -->
<g id="edge6" class="edge">
<title>node16&#45;&gt;node17</title>
<path fill="none" stroke="black" d="M527.78,-866.32C513.18,-854.11 493.12,-837.32 473.61,-820.99"/>
<polygon fill="black" stroke="black" points="475.8,-818.26 465.88,-814.52 471.31,-823.63 475.8,-818.26"/>
<text text-anchor="start" x="504.5" y="-836.8" font-family="Times,serif" font-size="14.00">%16</text>
</g>
<!-- node18 -->
<g id="node19" class="node">
<title>node18</title>
<polygon fill="none" stroke="black" points="383.5,-626.5 383.5,-664.5 519.5,-664.5 519.5,-626.5 383.5,-626.5"/>
<text text-anchor="start" x="391.5" y="-649.3" font-family="Times,serif" font-size="14.00">Let l8 =</text>
<text text-anchor="start" x="391.5" y="-634.3" font-family="Times,serif" font-size="14.00"> Union %16 %17</text>
</g>
<!-- node16&#45;&gt;node18 -->
<g id="edge16" class="edge">
<title>node16&#45;&gt;node18</title>
<path fill="none" stroke="black" d="M578.64,-866.49C595.48,-854.28 615.12,-836.47 624.5,-815 642.11,-774.68 649.14,-752.45 624.5,-716 603.13,-684.38 564.74,-667.14 529.55,-657.75"/>
<polygon fill="black" stroke="black" points="530.27,-654.32 519.72,-655.3 528.58,-661.12 530.27,-654.32"/>
<text text-anchor="start" x="639.5" y="-761.8" font-family="Times,serif" font-size="14.00">%16</text>
</g>
<!-- node17&#45;&gt;node18 -->
<g id="edge32" class="edge">
<title>node17&#45;&gt;node18</title>
<path fill="none" stroke="black" d="M426.11,-716.16C431.35,-701.8 436.9,-686.57 441.47,-674.02"/>
<polygon fill="black" stroke="black" points="444.77,-675.19 444.91,-664.6 438.19,-672.79 444.77,-675.19"/>
<text text-anchor="start" x="438.5" y="-686.8" font-family="Times,serif" font-size="14.00">%17</text>
</g>
<!-- node19 -->
<g id="node20" class="node">
<title>node19</title>
<polygon fill="none" stroke="black" points="241,-521.5 241,-574.5 408,-574.5 408,-521.5 241,-521.5"/>
<text text-anchor="start" x="249" y="-559.3" font-family="Times,serif" font-size="14.00">Get %18 (l8)</text>
<text text-anchor="start" x="249" y="-544.3" font-family="Times,serif" font-size="14.00"> Distinct group=(#0)</text>
<text text-anchor="start" x="249" y="-529.3" font-family="Times,serif" font-size="14.00"> Negate</text>
</g>
<!-- node18&#45;&gt;node19 -->
<g id="edge19" class="edge">
<title>node18&#45;&gt;node19</title>
<path fill="none" stroke="black" d="M427.31,-626.31C410.23,-613.47 386.9,-595.92 366.78,-580.79"/>
<polygon fill="black" stroke="black" points="368.77,-577.91 358.67,-574.7 364.56,-583.5 368.77,-577.91"/>
<text text-anchor="start" x="399.5" y="-596.8" font-family="Times,serif" font-size="14.00">%18</text>
</g>
<!-- node25 -->
<g id="node26" class="node">
<title>node25</title>
<polygon fill="none" stroke="black" points="409,-150.5 409,-186.5 540,-186.5 540,-150.5 409,-150.5"/>
<text text-anchor="start" x="417" y="-164.8" font-family="Times,serif" font-size="14.00">Union %18 %24</text>
</g>
<!-- node18&#45;&gt;node25 -->
<g id="edge14" class="edge">
<title>node18&#45;&gt;node25</title>
<path fill="none" stroke="black" d="M458.65,-626.15C465.4,-607.15 474.5,-576.46 474.5,-549 474.5,-549 474.5,-549 474.5,-256.5 474.5,-236.55 474.5,-214.03 474.5,-196.9"/>
<polygon fill="black" stroke="black" points="478,-196.5 474.5,-186.5 471,-196.5 478,-196.5"/>
<text text-anchor="start" x="474.5" y="-403.8" font-family="Times,serif" font-size="14.00">%18</text>
</g>
<!-- node21 -->
<g id="node22" class="node">
<title>node21</title>
<polygon fill="none" stroke="black" points="139,-433.5 139,-469.5 270,-469.5 270,-433.5 139,-433.5"/>
<text text-anchor="start" x="147" y="-447.8" font-family="Times,serif" font-size="14.00">Union %19 %20</text>
</g>
<!-- node19&#45;&gt;node21 -->
<g id="edge30" class="edge">
<title>node19&#45;&gt;node21</title>
<path fill="none" stroke="black" d="M292.03,-521.43C274.13,-507.33 252.07,-489.96 234.57,-476.18"/>
<polygon fill="black" stroke="black" points="236.4,-473.17 226.38,-469.73 232.07,-478.67 236.4,-473.17"/>
<text text-anchor="start" x="268.5" y="-491.8" font-family="Times,serif" font-size="14.00">%19</text>
</g>
<!-- node20&#45;&gt;node21 -->
<g id="edge29" class="edge">
<title>node20&#45;&gt;node21</title>
<path fill="none" stroke="black" d="M199.3,-1311.3C188.93,-1289.05 173.5,-1249.98 173.5,-1214.5 173.5,-1214.5 173.5,-1214.5 173.5,-547 173.5,-523.14 182.53,-497.51 190.84,-478.97"/>
<polygon fill="black" stroke="black" points="194.11,-480.25 195.2,-469.71 187.77,-477.27 194.11,-480.25"/>
<text text-anchor="start" x="173.5" y="-926.8" font-family="Times,serif" font-size="14.00">%20</text>
</g>
<!-- node21&#45;&gt;node22 -->
<g id="edge17" class="edge">
<title>node21&#45;&gt;node22</title>
<path fill="none" stroke="black" d="M191.66,-433.17C182.75,-421.14 170.59,-404.72 159.77,-390.12"/>
<polygon fill="black" stroke="black" points="162.36,-387.73 153.6,-381.78 156.74,-391.9 162.36,-387.73"/>
<text text-anchor="start" x="178.5" y="-403.8" font-family="Times,serif" font-size="14.00">%21</text>
</g>
<!-- node24 -->
<g id="node25" class="node">
<title>node24</title>
<polygon fill="none" stroke="black" points="177,-238.5 177,-276.5 446,-276.5 446,-238.5 177,-238.5"/>
<text text-anchor="start" x="185" y="-261.3" font-family="Times,serif" font-size="14.00">Join %22 %23</text>
<text text-anchor="start" x="185" y="-246.3" font-family="Times,serif" font-size="14.00"> implementation = Unimplemented</text>
</g>
<!-- node22&#45;&gt;node24 -->
<g id="edge5" class="edge">
<title>node22&#45;&gt;node24</title>
<path fill="none" stroke="black" d="M181.93,-328.41C209.05,-313.78 242.77,-295.58 269.01,-281.42"/>
<polygon fill="black" stroke="black" points="270.82,-284.42 277.96,-276.6 267.5,-278.26 270.82,-284.42"/>
<text text-anchor="start" x="239.5" y="-298.8" font-family="Times,serif" font-size="14.00">%22</text>
</g>
<!-- node23 -->
<g id="node24" class="node">
<title>node23</title>
<polygon fill="none" stroke="black" points="287,-337 287,-373 410,-373 410,-337 287,-337"/>
<text text-anchor="start" x="295" y="-351.3" font-family="Times,serif" font-size="14.00">Constant (null)</text>
</g>
<!-- node23&#45;&gt;node24 -->
<g id="edge12" class="edge">
<title>node23&#45;&gt;node24</title>
<path fill="none" stroke="black" d="M341.89,-336.93C336.45,-322.89 328.63,-302.71 322.29,-286.34"/>
<polygon fill="black" stroke="black" points="325.44,-284.79 318.56,-276.73 318.91,-287.32 325.44,-284.79"/>
<text text-anchor="start" x="331.5" y="-298.8" font-family="Times,serif" font-size="14.00">%23</text>
</g>
<!-- node24&#45;&gt;node25 -->
<g id="edge23" class="edge">
<title>node24&#45;&gt;node25</title>
<path fill="none" stroke="black" d="M345.27,-238.47C370.91,-224.79 406.27,-205.92 433.53,-191.37"/>
<polygon fill="black" stroke="black" points="435.26,-194.41 442.43,-186.62 431.96,-188.24 435.26,-194.41"/>
<text text-anchor="start" x="408.5" y="-208.8" font-family="Times,serif" font-size="14.00">%24</text>
</g>
<!-- node25&#45;&gt;node26 -->
<g id="edge31" class="edge">
<title>node25&#45;&gt;node26</title>
<path fill="none" stroke="black" d="M490.93,-150.49C502.34,-138.67 518.25,-122.2 533.86,-106.03"/>
<polygon fill="black" stroke="black" points="536.57,-108.27 541,-98.65 531.54,-103.41 536.57,-108.27"/>
<text text-anchor="start" x="521.5" y="-120.8" font-family="Times,serif" font-size="14.00">%25</text>
</g>
</g>
</svg>
