<?xml version="1.0" encoding="UTF-8" standalone="no"?>
<!DOCTYPE svg PUBLIC "-//W3C//DTD SVG 1.1//EN"
 "http://www.w3.org/Graphics/SVG/1.1/DTD/svg11.dtd">
<!-- Generated by graphviz version 2.43.0 (0)
 -->
<!-- Title: G Pages: 1 -->
<svg width="779pt" height="596pt"
 viewBox="0.00 0.00 778.50 596.00" xmlns="http://www.w3.org/2000/svg" xmlns:xlink="http://www.w3.org/1999/xlink">
<g id="graph0" class="graph" transform="scale(1 1) rotate(0) translate(4 592)">
<title>G</title>
<polygon fill="white" stroke="transparent" points="-4,4 -4,-592 774.5,-592 774.5,4 -4,4"/>
<!-- node0 -->
<g id="node1" class="node">
<title>node0</title>
<polygon fill="none" stroke="black" points="0,-534.5 0,-587.5 308,-587.5 308,-534.5 0,-534.5"/>
<text text-anchor="start" x="8" y="-572.3" font-family="Times,serif" font-size="14.00">Get decorrelation.public.students (u104)</text>
<text text-anchor="start" x="8" y="-557.3" font-family="Times,serif" font-size="14.00"> Project (#0, #1)</text>
<text text-anchor="start" x="8" y="-542.3" font-family="Times,serif" font-size="14.00"> ArrangeBy (#0)</text>
</g>
<!-- node2 -->
<g id="node3" class="node">
<title>node2</title>
<polygon fill="none" stroke="black" points="145,-414.5 145,-482.5 471,-482.5 471,-414.5 145,-414.5"/>
<text text-anchor="start" x="153" y="-467.3" font-family="Times,serif" font-size="14.00">Let l0 =</text>
<text text-anchor="start" x="153" y="-452.3" font-family="Times,serif" font-size="14.00"> Join %0 %1 (= #0 #2)</text>
<text text-anchor="start" x="153" y="-437.3" font-family="Times,serif" font-size="14.00"> implementation = Differential %1 %0.(#0)</text>
<text text-anchor="start" x="153" y="-422.3" font-family="Times,serif" font-size="14.00"> Project (#0, #1, #3, #4)</text>
</g>
<!-- node0&#45;&gt;node2 -->
<g id="edge5" class="edge">
<title>node0&#45;&gt;node2</title>
<path fill="none" stroke="black" d="M189.72,-534.37C208.7,-520.75 232.44,-503.72 253.65,-488.5"/>
<polygon fill="black" stroke="black" points="255.87,-491.21 261.95,-482.54 251.79,-485.53 255.87,-491.21"/>
<text text-anchor="start" x="236" y="-504.8" font-family="Times,serif" font-size="14.00">%0</text>
</g>
<!-- node1 -->
<g id="node2" class="node">
<title>node1</title>
<polygon fill="none" stroke="black" points="326.5,-542 326.5,-580 599.5,-580 599.5,-542 326.5,-542"/>
<text text-anchor="start" x="334.5" y="-564.8" font-family="Times,serif" font-size="14.00">Get decorrelation.public.test (u112)</text>
<text text-anchor="start" x="334.5" y="-549.8" font-family="Times,serif" font-size="14.00"> Project (#0, #1, #3)</text>
</g>
<!-- node1&#45;&gt;node2 -->
<g id="edge6" class="edge">
<title>node1&#45;&gt;node2</title>
<path fill="none" stroke="black" d="M437.4,-541.75C417.16,-527.32 388.18,-506.66 362.78,-488.55"/>
<polygon fill="black" stroke="black" points="364.49,-485.47 354.31,-482.52 360.43,-491.17 364.49,-485.47"/>
<text text-anchor="start" x="400" y="-504.8" font-family="Times,serif" font-size="14.00">%1</text>
</g>
<!-- node3 -->
<g id="node4" class="node">
<title>node3</title>
<polygon fill="none" stroke="black" points="209,-237.5 209,-275.5 361,-275.5 361,-237.5 209,-237.5"/>
<text text-anchor="start" x="217" y="-260.3" font-family="Times,serif" font-size="14.00">Get %2 (l0)</text>
<text text-anchor="start" x="217" y="-245.3" font-family="Times,serif" font-size="14.00"> Filter !(isnull(#3))</text>
</g>
<!-- node2&#45;&gt;node3 -->
<g id="edge3" class="edge">
<title>node2&#45;&gt;node3</title>
<path fill="none" stroke="black" d="M303.99,-414.4C299.59,-378.04 292.6,-320.25 288.44,-285.88"/>
<polygon fill="black" stroke="black" points="291.87,-285.11 287.19,-275.61 284.92,-285.95 291.87,-285.11"/>
<text text-anchor="start" x="302" y="-384.8" font-family="Times,serif" font-size="14.00">%2</text>
</g>
<!-- node4 -->
<g id="node5" class="node">
<title>node4</title>
<polygon fill="none" stroke="black" points="312.5,-294.5 312.5,-362.5 479.5,-362.5 479.5,-294.5 312.5,-294.5"/>
<text text-anchor="start" x="320.5" y="-347.3" font-family="Times,serif" font-size="14.00">Get %2 (l0)</text>
<text text-anchor="start" x="320.5" y="-332.3" font-family="Times,serif" font-size="14.00"> Project (#0)</text>
<text text-anchor="start" x="320.5" y="-317.3" font-family="Times,serif" font-size="14.00"> Distinct group=(#0)</text>
<text text-anchor="start" x="320.5" y="-302.3" font-family="Times,serif" font-size="14.00"> ArrangeBy (#0)</text>
</g>
<!-- node2&#45;&gt;node4 -->
<g id="edge7" class="edge">
<title>node2&#45;&gt;node4</title>
<path fill="none" stroke="black" d="M332.75,-414.32C342.78,-400.87 354.47,-385.19 365.05,-371"/>
<polygon fill="black" stroke="black" points="367.96,-372.95 371.13,-362.84 362.35,-368.77 367.96,-372.95"/>
<text text-anchor="start" x="358" y="-384.8" font-family="Times,serif" font-size="14.00">%2</text>
</g>
<!-- node7 -->
<g id="node8" class="node">
<title>node7</title>
<polygon fill="none" stroke="black" points="123,-0.5 123,-53.5 479,-53.5 479,-0.5 123,-0.5"/>
<text text-anchor="start" x="131" y="-38.3" font-family="Times,serif" font-size="14.00">Join %3 %6 (= #0 #4) (= #3 #5)</text>
<text text-anchor="start" x="131" y="-23.3" font-family="Times,serif" font-size="14.00"> implementation = Differential %3 %6.(#0, #1)</text>
<text text-anchor="start" x="131" y="-8.3" font-family="Times,serif" font-size="14.00"> Project (#1, #2)</text>
</g>
<!-- node3&#45;&gt;node7 -->
<g id="edge4" class="edge">
<title>node3&#45;&gt;node7</title>
<path fill="none" stroke="black" d="M285.9,-237.42C287.35,-209.15 290.4,-152.77 294,-105 295.02,-91.48 296.32,-76.64 297.53,-63.63"/>
<polygon fill="black" stroke="black" points="301.02,-63.93 298.47,-53.65 294.05,-63.28 301.02,-63.93"/>
<text text-anchor="start" x="294" y="-158.3" font-family="Times,serif" font-size="14.00">%3</text>
</g>
<!-- node6 -->
<g id="node7" class="node">
<title>node6</title>
<polygon fill="none" stroke="black" points="326,-105.5 326,-218.5 652,-218.5 652,-105.5 326,-105.5"/>
<text text-anchor="start" x="334" y="-203.3" font-family="Times,serif" font-size="14.00">Join %4 %5 (= #0 #1)</text>
<text text-anchor="start" x="334" y="-188.3" font-family="Times,serif" font-size="14.00"> implementation = Differential %5 %4.(#0)</text>
<text text-anchor="start" x="334" y="-173.3" font-family="Times,serif" font-size="14.00"> Project (#0, #2)</text>
<text text-anchor="start" x="334" y="-158.3" font-family="Times,serif" font-size="14.00"> Reduce group=(#0)</text>
<text text-anchor="start" x="334" y="-143.3" font-family="Times,serif" font-size="14.00"> agg min(#1)</text>
<text text-anchor="start" x="334" y="-128.3" font-family="Times,serif" font-size="14.00"> Filter !(isnull(#1))</text>
<text text-anchor="start" x="334" y="-113.3" font-family="Times,serif" font-size="14.00"> ArrangeBy (#0, #1)</text>
</g>
<!-- node4&#45;&gt;node6 -->
<g id="edge1" class="edge">
<title>node4&#45;&gt;node6</title>
<path fill="none" stroke="black" d="M414.82,-294.21C425.64,-275.07 439.61,-250.36 452.51,-227.55"/>
<polygon fill="black" stroke="black" points="455.7,-229.02 457.57,-218.59 449.6,-225.57 455.7,-229.02"/>
<text text-anchor="start" x="445" y="-252.8" font-family="Times,serif" font-size="14.00">%4</text>
</g>
<!-- node5 -->
<g id="node6" class="node">
<title>node5</title>
<polygon fill="none" stroke="black" points="497.5,-309.5 497.5,-347.5 770.5,-347.5 770.5,-309.5 497.5,-309.5"/>
<text text-anchor="start" x="505.5" y="-332.3" font-family="Times,serif" font-size="14.00">Get decorrelation.public.test (u112)</text>
<text text-anchor="start" x="505.5" y="-317.3" font-family="Times,serif" font-size="14.00"> Project (#0, #3)</text>
</g>
<!-- node5&#45;&gt;node6 -->
<g id="edge8" class="edge">
<title>node5&#45;&gt;node6</title>
<path fill="none" stroke="black" d="M617.93,-309.27C600.33,-289.3 571.12,-256.17 544.95,-226.48"/>
<polygon fill="black" stroke="black" points="547.26,-223.8 538.02,-218.61 542.01,-228.43 547.26,-223.8"/>
<text text-anchor="start" x="587" y="-252.8" font-family="Times,serif" font-size="14.00">%5</text>
</g>
<!-- node6&#45;&gt;node7 -->
<g id="edge2" class="edge">
<title>node6&#45;&gt;node7</title>
<path fill="none" stroke="black" d="M410.36,-105.37C388.27,-89.74 365.02,-73.29 345.67,-59.6"/>
<polygon fill="black" stroke="black" points="347.53,-56.63 337.35,-53.71 343.49,-62.35 347.53,-56.63"/>
<text text-anchor="start" x="384" y="-75.8" font-family="Times,serif" font-size="14.00">%6</text>
</g>
</g>
</svg>
