<?xml version="1.0" encoding="UTF-8" standalone="no"?>
<!DOCTYPE svg PUBLIC "-//W3C//DTD SVG 1.1//EN"
 "http://www.w3.org/Graphics/SVG/1.1/DTD/svg11.dtd">
<!-- Generated by graphviz version 2.43.0 (0)
 -->
<!-- Title: G Pages: 1 -->
<svg width="703pt" height="240pt"
 viewBox="0.00 0.00 703.00 240.00" xmlns="http://www.w3.org/2000/svg" xmlns:xlink="http://www.w3.org/1999/xlink">
<g id="graph0" class="graph" transform="scale(1 1) rotate(0) translate(4 236)">
<title>G</title>
<polygon fill="white" stroke="transparent" points="-4,4 -4,-236 699,-236 699,4 -4,4"/>
<!-- node0 -->
<g id="node1" class="node">
<title>node0</title>
<polygon fill="none" stroke="black" points="0,-195.5 0,-231.5 308,-231.5 308,-195.5 0,-195.5"/>
<text text-anchor="start" x="8" y="-209.8" font-family="Times,serif" font-size="14.00">Get decorrelation.public.students (u104)</text>
</g>
<!-- node2 -->
<g id="node3" class="node">
<title>node2</title>
<polygon fill="none" stroke="black" points="307.5,-0.5 307.5,-143.5 618.5,-143.5 618.5,-0.5 307.5,-0.5"/>
<text text-anchor="start" x="315.5" y="-128.3" font-family="Times,serif" font-size="14.00">InnerJoin %0 %1 on true</text>
<text text-anchor="start" x="315.5" y="-113.3" font-family="Times,serif" font-size="14.00"> Filter ((#0 = #3) &amp;&amp; (#6 = select(%3)))</text>
<text text-anchor="start" x="315.5" y="-98.3" font-family="Times,serif" font-size="14.00"> </text>
<text text-anchor="start" x="315.5" y="-83.3" font-family="Times,serif" font-size="14.00"> %3 =</text>
<text text-anchor="start" x="315.5" y="-68.3" font-family="Times,serif" font-size="14.00"> Get decorrelation.public.test (u112)</text>
<text text-anchor="start" x="315.5" y="-53.3" font-family="Times,serif" font-size="14.00"> Filter (#^0 = #0)</text>
<text text-anchor="start" x="315.5" y="-38.3" font-family="Times,serif" font-size="14.00"> Reduce group=() min(#3)</text>
<text text-anchor="start" x="315.5" y="-23.3" font-family="Times,serif" font-size="14.00"> </text>
<text text-anchor="start" x="315.5" y="-8.3" font-family="Times,serif" font-size="14.00"> Project (#1, #4)</text>
</g>
<!-- node0&#45;&gt;node2 -->
<g id="edge2" class="edge">
<title>node0&#45;&gt;node2</title>
<path fill="none" stroke="black" d="M191.89,-195.39C219.18,-183.08 258.06,-165.52 297.89,-147.54"/>
<polygon fill="black" stroke="black" points="299.54,-150.64 307.21,-143.33 296.66,-144.26 299.54,-150.64"/>
<text text-anchor="start" x="263" y="-165.8" font-family="Times,serif" font-size="14.00">%0</text>
</g>
<!-- node1 -->
<g id="node2" class="node">
<title>node1</title>
<polygon fill="none" stroke="black" points="326.5,-195.5 326.5,-231.5 599.5,-231.5 599.5,-195.5 326.5,-195.5"/>
<text text-anchor="start" x="334.5" y="-209.8" font-family="Times,serif" font-size="14.00">Get decorrelation.public.test (u112)</text>
</g>
<!-- node1&#45;&gt;node2 -->
<g id="edge1" class="edge">
<title>node1&#45;&gt;node2</title>
<path fill="none" stroke="black" d="M463,-195.39C463,-184.59 463,-169.76 463,-154.15"/>
<polygon fill="black" stroke="black" points="466.5,-153.81 463,-143.81 459.5,-153.81 466.5,-153.81"/>
<text text-anchor="start" x="463" y="-165.8" font-family="Times,serif" font-size="14.00">%1</text>
</g>
<!-- node3 -->
<g id="node4" class="node">
<title>node3</title>
<ellipse fill="none" stroke="black" cx="656" cy="-213.5" rx="38.99" ry="18"/>
<text text-anchor="middle" x="656" y="-209.8" font-family="Times,serif" font-size="14.00">node3</text>
</g>
<!-- node3&#45;&gt;node2 -->
<g id="edge3" class="edge">
<title>node3&#45;&gt;node2</title>
<path fill="none" stroke="black" d="M635.71,-197.83C619.21,-185.9 594.53,-168.07 568.97,-149.59"/>
<polygon fill="black" stroke="black" points="570.8,-146.6 560.64,-143.58 566.7,-152.27 570.8,-146.6"/>
<text text-anchor="start" x="604" y="-165.8" font-family="Times,serif" font-size="14.00">%3</text>
</g>
</g>
</svg>
