<?xml version="1.0" encoding="UTF-8" standalone="no"?>
<!DOCTYPE svg PUBLIC "-//W3C//DTD SVG 1.1//EN"
 "http://www.w3.org/Graphics/SVG/1.1/DTD/svg11.dtd">
<!-- Generated by graphviz version 2.43.0 (0)
 -->
<!-- Title: G Pages: 1 -->
<svg width="1135pt" height="3206pt"
 viewBox="0.00 0.00 1134.50 3206.00" xmlns="http://www.w3.org/2000/svg" xmlns:xlink="http://www.w3.org/1999/xlink">
<g id="graph0" class="graph" transform="scale(1 1) rotate(0) translate(4 3202)">
<title>G</title>
<polygon fill="white" stroke="transparent" points="-4,4 -4,-3202 1130.5,-3202 1130.5,4 -4,4"/>
<!-- node0 -->
<g id="node1" class="node">
<title>node0</title>
<polygon fill="none" stroke="black" points="672.5,-3129.5 672.5,-3197.5 773.5,-3197.5 773.5,-3129.5 672.5,-3129.5"/>
<text text-anchor="start" x="680.5" y="-3182.3" font-family="Times,serif" font-size="14.00">Let l0 =</text>
<text text-anchor="start" x="680.5" y="-3167.3" font-family="Times,serif" font-size="14.00"> Constant ()</text>
<text text-anchor="start" x="680.5" y="-3152.3" font-family="Times,serif" font-size="14.00"> types = ()</text>
<text text-anchor="start" x="680.5" y="-3137.3" font-family="Times,serif" font-size="14.00"> keys = (())</text>
</g>
<!-- node2 -->
<g id="node3" class="node">
<title>node2</title>
<polygon fill="none" stroke="black" points="434.5,-2994.5 434.5,-3077.5 703.5,-3077.5 703.5,-2994.5 434.5,-2994.5"/>
<text text-anchor="start" x="442.5" y="-3062.3" font-family="Times,serif" font-size="14.00">Let l1 =</text>
<text text-anchor="start" x="442.5" y="-3047.3" font-family="Times,serif" font-size="14.00"> Join %0 %1</text>
<text text-anchor="start" x="442.5" y="-3032.3" font-family="Times,serif" font-size="14.00"> implementation = Unimplemented</text>
<text text-anchor="start" x="442.5" y="-3017.3" font-family="Times,serif" font-size="14.00"> types = (integer, text, smallint?)</text>
<text text-anchor="start" x="442.5" y="-3002.3" font-family="Times,serif" font-size="14.00"> keys = ()</text>
</g>
<!-- node0&#45;&gt;node2 -->
<g id="edge10" class="edge">
<title>node0&#45;&gt;node2</title>
<path fill="none" stroke="black" d="M682.14,-3129.2C665.14,-3115.35 645.1,-3099.02 626.65,-3083.98"/>
<polygon fill="black" stroke="black" points="628.82,-3081.23 618.85,-3077.63 624.4,-3086.66 628.82,-3081.23"/>
<text text-anchor="start" x="659" y="-3099.8" font-family="Times,serif" font-size="14.00">%0</text>
</g>
<!-- node4 -->
<g id="node5" class="node">
<title>node4</title>
<polygon fill="none" stroke="black" points="721.5,-2994.5 721.5,-3077.5 1056.5,-3077.5 1056.5,-2994.5 721.5,-2994.5"/>
<text text-anchor="start" x="729.5" y="-3062.3" font-family="Times,serif" font-size="14.00">Let l2 =</text>
<text text-anchor="start" x="729.5" y="-3047.3" font-family="Times,serif" font-size="14.00"> Join %0 %3</text>
<text text-anchor="start" x="729.5" y="-3032.3" font-family="Times,serif" font-size="14.00"> implementation = Unimplemented</text>
<text text-anchor="start" x="729.5" y="-3017.3" font-family="Times,serif" font-size="14.00"> types = (integer, integer, integer, numeric?)</text>
<text text-anchor="start" x="729.5" y="-3002.3" font-family="Times,serif" font-size="14.00"> keys = ()</text>
</g>
<!-- node0&#45;&gt;node4 -->
<g id="edge1" class="edge">
<title>node0&#45;&gt;node4</title>
<path fill="none" stroke="black" d="M767.05,-3129.2C785.45,-3115.28 807.16,-3098.87 827.12,-3083.78"/>
<polygon fill="black" stroke="black" points="829.39,-3086.45 835.26,-3077.63 825.17,-3080.87 829.39,-3086.45"/>
<text text-anchor="start" x="806" y="-3099.8" font-family="Times,serif" font-size="14.00">%0</text>
</g>
<!-- node1 -->
<g id="node2" class="node">
<title>node1</title>
<polygon fill="none" stroke="black" points="346,-3137 346,-3190 654,-3190 654,-3137 346,-3137"/>
<text text-anchor="start" x="354" y="-3174.8" font-family="Times,serif" font-size="14.00">Get decorrelation.public.students (u104)</text>
<text text-anchor="start" x="354" y="-3159.8" font-family="Times,serif" font-size="14.00"> types = (integer, text, smallint?)</text>
<text text-anchor="start" x="354" y="-3144.8" font-family="Times,serif" font-size="14.00"> keys = ()</text>
</g>
<!-- node1&#45;&gt;node2 -->
<g id="edge11" class="edge">
<title>node1&#45;&gt;node2</title>
<path fill="none" stroke="black" d="M514.13,-3136.8C522.05,-3122.39 532.21,-3103.91 541.63,-3086.79"/>
<polygon fill="black" stroke="black" points="544.72,-3088.43 546.47,-3077.98 538.58,-3085.06 544.72,-3088.43"/>
<text text-anchor="start" x="535" y="-3099.8" font-family="Times,serif" font-size="14.00">%1</text>
</g>
<!-- node5 -->
<g id="node6" class="node">
<title>node5</title>
<polygon fill="none" stroke="black" points="476,-2769.5 476,-2942.5 982,-2942.5 982,-2769.5 476,-2769.5"/>
<text text-anchor="start" x="484" y="-2927.3" font-family="Times,serif" font-size="14.00">Let l3 =</text>
<text text-anchor="start" x="484" y="-2912.3" font-family="Times,serif" font-size="14.00"> Join %2 %4</text>
<text text-anchor="start" x="484" y="-2897.3" font-family="Times,serif" font-size="14.00"> implementation = Unimplemented</text>
<text text-anchor="start" x="484" y="-2882.3" font-family="Times,serif" font-size="14.00"> types = (integer, text, smallint?, integer, integer, integer, numeric?)</text>
<text text-anchor="start" x="484" y="-2867.3" font-family="Times,serif" font-size="14.00"> keys = ()</text>
<text text-anchor="start" x="484" y="-2852.3" font-family="Times,serif" font-size="14.00"> Project (#0..#6)</text>
<text text-anchor="start" x="484" y="-2837.3" font-family="Times,serif" font-size="14.00"> types = (integer, text, smallint?, integer, integer, integer, numeric?)</text>
<text text-anchor="start" x="484" y="-2822.3" font-family="Times,serif" font-size="14.00"> keys = ()</text>
<text text-anchor="start" x="484" y="-2807.3" font-family="Times,serif" font-size="14.00"> Filter true</text>
<text text-anchor="start" x="484" y="-2792.3" font-family="Times,serif" font-size="14.00"> types = (integer, text, smallint?, integer, integer, integer, numeric?)</text>
<text text-anchor="start" x="484" y="-2777.3" font-family="Times,serif" font-size="14.00"> keys = ()</text>
</g>
<!-- node2&#45;&gt;node5 -->
<g id="edge28" class="edge">
<title>node2&#45;&gt;node5</title>
<path fill="none" stroke="black" d="M605.71,-2994.16C617.6,-2980.93 631.32,-2965.67 645.19,-2950.24"/>
<polygon fill="black" stroke="black" points="647.93,-2952.43 652.01,-2942.65 642.72,-2947.75 647.93,-2952.43"/>
<text text-anchor="start" x="635" y="-2964.8" font-family="Times,serif" font-size="14.00">%2</text>
</g>
<!-- node3 -->
<g id="node4" class="node">
<title>node3</title>
<polygon fill="none" stroke="black" points="791.5,-3137 791.5,-3190 1126.5,-3190 1126.5,-3137 791.5,-3137"/>
<text text-anchor="start" x="799.5" y="-3174.8" font-family="Times,serif" font-size="14.00">Get decorrelation.public.test (u112)</text>
<text text-anchor="start" x="799.5" y="-3159.8" font-family="Times,serif" font-size="14.00"> types = (integer, integer, integer, numeric?)</text>
<text text-anchor="start" x="799.5" y="-3144.8" font-family="Times,serif" font-size="14.00"> keys = ()</text>
</g>
<!-- node3&#45;&gt;node4 -->
<g id="edge3" class="edge">
<title>node3&#45;&gt;node4</title>
<path fill="none" stroke="black" d="M944.67,-3136.8C936.63,-3122.39 926.32,-3103.91 916.77,-3086.79"/>
<polygon fill="black" stroke="black" points="919.79,-3085.01 911.86,-3077.98 913.67,-3088.42 919.79,-3085.01"/>
<text text-anchor="start" x="930" y="-3099.8" font-family="Times,serif" font-size="14.00">%3</text>
</g>
<!-- node4&#45;&gt;node5 -->
<g id="edge35" class="edge">
<title>node4&#45;&gt;node5</title>
<path fill="none" stroke="black" d="M852.29,-2994.16C840.4,-2980.93 826.68,-2965.67 812.81,-2950.24"/>
<polygon fill="black" stroke="black" points="815.28,-2947.75 805.99,-2942.65 810.07,-2952.43 815.28,-2947.75"/>
<text text-anchor="start" x="832" y="-2964.8" font-family="Times,serif" font-size="14.00">%4</text>
</g>
<!-- node6 -->
<g id="node7" class="node">
<title>node6</title>
<polygon fill="none" stroke="black" points="476,-2604.5 476,-2717.5 982,-2717.5 982,-2604.5 476,-2604.5"/>
<text text-anchor="start" x="484" y="-2702.3" font-family="Times,serif" font-size="14.00">Let l4 =</text>
<text text-anchor="start" x="484" y="-2687.3" font-family="Times,serif" font-size="14.00"> Get %5 (l3)</text>
<text text-anchor="start" x="484" y="-2672.3" font-family="Times,serif" font-size="14.00"> types = (integer, text, smallint?, integer, integer, integer, numeric?)</text>
<text text-anchor="start" x="484" y="-2657.3" font-family="Times,serif" font-size="14.00"> keys = ()</text>
<text text-anchor="start" x="484" y="-2642.3" font-family="Times,serif" font-size="14.00"> Filter ((#0 = #3) &amp;&amp; true)</text>
<text text-anchor="start" x="484" y="-2627.3" font-family="Times,serif" font-size="14.00"> types = (integer, text, smallint?, integer, integer, integer, numeric?)</text>
<text text-anchor="start" x="484" y="-2612.3" font-family="Times,serif" font-size="14.00"> keys = ()</text>
</g>
<!-- node5&#45;&gt;node6 -->
<g id="edge25" class="edge">
<title>node5&#45;&gt;node6</title>
<path fill="none" stroke="black" d="M729,-2769.22C729,-2755.26 729,-2741 729,-2727.62"/>
<polygon fill="black" stroke="black" points="732.5,-2727.59 729,-2717.59 725.5,-2727.59 732.5,-2727.59"/>
<text text-anchor="start" x="729" y="-2739.8" font-family="Times,serif" font-size="14.00">%5</text>
</g>
<!-- node7 -->
<g id="node8" class="node">
<title>node7</title>
<polygon fill="none" stroke="black" points="0,-2439.5 0,-2552.5 506,-2552.5 506,-2439.5 0,-2439.5"/>
<text text-anchor="start" x="8" y="-2537.3" font-family="Times,serif" font-size="14.00">Let l5 =</text>
<text text-anchor="start" x="8" y="-2522.3" font-family="Times,serif" font-size="14.00"> Get %6 (l4)</text>
<text text-anchor="start" x="8" y="-2507.3" font-family="Times,serif" font-size="14.00"> types = (integer, text, smallint?, integer, integer, integer, numeric?)</text>
<text text-anchor="start" x="8" y="-2492.3" font-family="Times,serif" font-size="14.00"> keys = ()</text>
<text text-anchor="start" x="8" y="-2477.3" font-family="Times,serif" font-size="14.00"> Distinct group=(#0)</text>
<text text-anchor="start" x="8" y="-2462.3" font-family="Times,serif" font-size="14.00"> types = (integer)</text>
<text text-anchor="start" x="8" y="-2447.3" font-family="Times,serif" font-size="14.00"> keys = ((#0))</text>
</g>
<!-- node6&#45;&gt;node7 -->
<g id="edge21" class="edge">
<title>node6&#45;&gt;node7</title>
<path fill="none" stroke="black" d="M566.85,-2604.47C521.1,-2588.81 471.18,-2571.71 424.88,-2555.86"/>
<polygon fill="black" stroke="black" points="425.96,-2552.53 415.37,-2552.6 423.69,-2559.15 425.96,-2552.53"/>
<text text-anchor="start" x="506" y="-2574.8" font-family="Times,serif" font-size="14.00">%6</text>
</g>
<!-- node26 -->
<g id="node27" class="node">
<title>node26</title>
<polygon fill="none" stroke="black" points="443.5,-0.5 443.5,-248.5 1084.5,-248.5 1084.5,-0.5 443.5,-0.5"/>
<text text-anchor="start" x="451.5" y="-233.3" font-family="Times,serif" font-size="14.00">Join %6 %25 (= #0 #7)</text>
<text text-anchor="start" x="451.5" y="-218.3" font-family="Times,serif" font-size="14.00"> implementation = Unimplemented</text>
<text text-anchor="start" x="451.5" y="-203.3" font-family="Times,serif" font-size="14.00"> types = (integer, text, smallint?, integer, integer, integer, numeric?, integer, numeric?)</text>
<text text-anchor="start" x="451.5" y="-188.3" font-family="Times,serif" font-size="14.00"> keys = ()</text>
<text text-anchor="start" x="451.5" y="-173.3" font-family="Times,serif" font-size="14.00"> Project (#0..#6, #8)</text>
<text text-anchor="start" x="451.5" y="-158.3" font-family="Times,serif" font-size="14.00"> types = (integer, text, smallint?, integer, integer, integer, numeric?, numeric?)</text>
<text text-anchor="start" x="451.5" y="-143.3" font-family="Times,serif" font-size="14.00"> keys = ()</text>
<text text-anchor="start" x="451.5" y="-128.3" font-family="Times,serif" font-size="14.00"> Filter (#6 = #7)</text>
<text text-anchor="start" x="451.5" y="-113.3" font-family="Times,serif" font-size="14.00"> types = (integer, text, smallint?, integer, integer, integer, numeric, numeric)</text>
<text text-anchor="start" x="451.5" y="-98.3" font-family="Times,serif" font-size="14.00"> keys = ()</text>
<text text-anchor="start" x="451.5" y="-83.3" font-family="Times,serif" font-size="14.00"> Project (#0..#6)</text>
<text text-anchor="start" x="451.5" y="-68.3" font-family="Times,serif" font-size="14.00"> types = (integer, text, smallint?, integer, integer, integer, numeric)</text>
<text text-anchor="start" x="451.5" y="-53.3" font-family="Times,serif" font-size="14.00"> keys = ()</text>
<text text-anchor="start" x="451.5" y="-38.3" font-family="Times,serif" font-size="14.00"> Project (#1, #4)</text>
<text text-anchor="start" x="451.5" y="-23.3" font-family="Times,serif" font-size="14.00"> types = (text, integer)</text>
<text text-anchor="start" x="451.5" y="-8.3" font-family="Times,serif" font-size="14.00"> keys = ()</text>
</g>
<!-- node6&#45;&gt;node26 -->
<g id="edge8" class="edge">
<title>node6&#45;&gt;node26</title>
<path fill="none" stroke="black" d="M824.7,-2604.22C858.38,-2577.02 888,-2540.68 888,-2497 888,-2497 888,-2497 888,-326 888,-302.45 881.74,-279.36 872.03,-257.72"/>
<polygon fill="black" stroke="black" points="875.12,-256.06 867.66,-248.53 868.79,-259.06 875.12,-256.06"/>
<text text-anchor="start" x="888" y="-1380.8" font-family="Times,serif" font-size="14.00">%6</text>
</g>
<!-- node9 -->
<g id="node10" class="node">
<title>node9</title>
<polygon fill="none" stroke="black" points="448.5,-2199.5 448.5,-2387.5 843.5,-2387.5 843.5,-2199.5 448.5,-2199.5"/>
<text text-anchor="start" x="456.5" y="-2372.3" font-family="Times,serif" font-size="14.00">Let l6 =</text>
<text text-anchor="start" x="456.5" y="-2357.3" font-family="Times,serif" font-size="14.00"> Join %7 %8</text>
<text text-anchor="start" x="456.5" y="-2342.3" font-family="Times,serif" font-size="14.00"> implementation = Unimplemented</text>
<text text-anchor="start" x="456.5" y="-2327.3" font-family="Times,serif" font-size="14.00"> types = (integer, integer, integer, integer, numeric?)</text>
<text text-anchor="start" x="456.5" y="-2312.3" font-family="Times,serif" font-size="14.00"> keys = ()</text>
<text text-anchor="start" x="456.5" y="-2297.3" font-family="Times,serif" font-size="14.00"> Filter (#0 = #1)</text>
<text text-anchor="start" x="456.5" y="-2282.3" font-family="Times,serif" font-size="14.00"> types = (integer, integer, integer, integer, numeric?)</text>
<text text-anchor="start" x="456.5" y="-2267.3" font-family="Times,serif" font-size="14.00"> keys = ()</text>
<text text-anchor="start" x="456.5" y="-2252.3" font-family="Times,serif" font-size="14.00"> Reduce group=(#0)</text>
<text text-anchor="start" x="456.5" y="-2237.3" font-family="Times,serif" font-size="14.00"> agg min(#4)</text>
<text text-anchor="start" x="456.5" y="-2222.3" font-family="Times,serif" font-size="14.00"> types = (integer, numeric?)</text>
<text text-anchor="start" x="456.5" y="-2207.3" font-family="Times,serif" font-size="14.00"> keys = ((#0))</text>
</g>
<!-- node7&#45;&gt;node9 -->
<g id="edge26" class="edge">
<title>node7&#45;&gt;node9</title>
<path fill="none" stroke="black" d="M385.3,-2439.47C398.47,-2433.43 411.56,-2427.21 424,-2421 441.82,-2412.1 460.22,-2402.43 478.44,-2392.54"/>
<polygon fill="black" stroke="black" points="480.27,-2395.53 487.37,-2387.66 476.92,-2389.38 480.27,-2395.53"/>
<text text-anchor="start" x="449" y="-2409.8" font-family="Times,serif" font-size="14.00">%7</text>
</g>
<!-- node11 -->
<g id="node12" class="node">
<title>node11</title>
<polygon fill="none" stroke="black" points="366.5,-2082.5 366.5,-2180.5 533.5,-2180.5 533.5,-2082.5 366.5,-2082.5"/>
<text text-anchor="start" x="374.5" y="-2165.3" font-family="Times,serif" font-size="14.00">Get %7 (l5)</text>
<text text-anchor="start" x="374.5" y="-2150.3" font-family="Times,serif" font-size="14.00"> types = (integer)</text>
<text text-anchor="start" x="374.5" y="-2135.3" font-family="Times,serif" font-size="14.00"> keys = ((#0))</text>
<text text-anchor="start" x="374.5" y="-2120.3" font-family="Times,serif" font-size="14.00"> Distinct group=(#0)</text>
<text text-anchor="start" x="374.5" y="-2105.3" font-family="Times,serif" font-size="14.00"> types = (integer)</text>
<text text-anchor="start" x="374.5" y="-2090.3" font-family="Times,serif" font-size="14.00"> keys = ((#0))</text>
</g>
<!-- node7&#45;&gt;node11 -->
<g id="edge13" class="edge">
<title>node7&#45;&gt;node11</title>
<path fill="none" stroke="black" d="M348.45,-2439.43C354.53,-2433.71 360.15,-2427.56 365,-2421 392.06,-2384.41 421.67,-2263.9 437.82,-2190.71"/>
<polygon fill="black" stroke="black" points="441.29,-2191.23 440.01,-2180.71 434.45,-2189.74 441.29,-2191.23"/>
<text text-anchor="start" x="374" y="-2409.8" font-family="Times,serif" font-size="14.00">%7</text>
</g>
<!-- node13 -->
<g id="node14" class="node">
<title>node13</title>
<polygon fill="none" stroke="black" points="281.5,-1650.5 281.5,-1763.5 550.5,-1763.5 550.5,-1650.5 281.5,-1650.5"/>
<text text-anchor="start" x="289.5" y="-1748.3" font-family="Times,serif" font-size="14.00">Join %12 %7 (= #0 #1)</text>
<text text-anchor="start" x="289.5" y="-1733.3" font-family="Times,serif" font-size="14.00"> implementation = Unimplemented</text>
<text text-anchor="start" x="289.5" y="-1718.3" font-family="Times,serif" font-size="14.00"> types = (integer, integer)</text>
<text text-anchor="start" x="289.5" y="-1703.3" font-family="Times,serif" font-size="14.00"> keys = ()</text>
<text text-anchor="start" x="289.5" y="-1688.3" font-family="Times,serif" font-size="14.00"> Project (#0)</text>
<text text-anchor="start" x="289.5" y="-1673.3" font-family="Times,serif" font-size="14.00"> types = (integer)</text>
<text text-anchor="start" x="289.5" y="-1658.3" font-family="Times,serif" font-size="14.00"> keys = ()</text>
</g>
<!-- node7&#45;&gt;node13 -->
<g id="edge7" class="edge">
<title>node7&#45;&gt;node13</title>
<path fill="none" stroke="black" d="M297.13,-2439.29C323.14,-2400.88 351,-2347.39 351,-2294.5 351,-2294.5 351,-2294.5 351,-1841 351,-1817.38 359.38,-1793.58 370.12,-1772.77"/>
<polygon fill="black" stroke="black" points="373.32,-1774.2 375.02,-1763.74 367.17,-1770.86 373.32,-1774.2"/>
<text text-anchor="start" x="351" y="-1988.3" font-family="Times,serif" font-size="14.00">%7</text>
</g>
<!-- node20 -->
<g id="node21" class="node">
<title>node20</title>
<polygon fill="none" stroke="black" points="169.5,-2082.5 169.5,-2180.5 336.5,-2180.5 336.5,-2082.5 169.5,-2082.5"/>
<text text-anchor="start" x="177.5" y="-2165.3" font-family="Times,serif" font-size="14.00">Get %7 (l5)</text>
<text text-anchor="start" x="177.5" y="-2150.3" font-family="Times,serif" font-size="14.00"> types = (integer)</text>
<text text-anchor="start" x="177.5" y="-2135.3" font-family="Times,serif" font-size="14.00"> keys = ((#0))</text>
<text text-anchor="start" x="177.5" y="-2120.3" font-family="Times,serif" font-size="14.00"> Distinct group=(#0)</text>
<text text-anchor="start" x="177.5" y="-2105.3" font-family="Times,serif" font-size="14.00"> types = (integer)</text>
<text text-anchor="start" x="177.5" y="-2090.3" font-family="Times,serif" font-size="14.00"> keys = ((#0))</text>
</g>
<!-- node7&#45;&gt;node20 -->
<g id="edge15" class="edge">
<title>node7&#45;&gt;node20</title>
<path fill="none" stroke="black" d="M253,-2439.15C253,-2371.81 253,-2259.16 253,-2190.76"/>
<polygon fill="black" stroke="black" points="256.5,-2190.58 253,-2180.58 249.5,-2190.58 256.5,-2190.58"/>
<text text-anchor="start" x="253" y="-2409.8" font-family="Times,serif" font-size="14.00">%7</text>
</g>
<!-- node22 -->
<g id="node23" class="node">
<title>node22</title>
<polygon fill="none" stroke="black" points="103.5,-525.5 103.5,-638.5 372.5,-638.5 372.5,-525.5 103.5,-525.5"/>
<text text-anchor="start" x="111.5" y="-623.3" font-family="Times,serif" font-size="14.00">Join %21 %7 (= #0 #1)</text>
<text text-anchor="start" x="111.5" y="-608.3" font-family="Times,serif" font-size="14.00"> implementation = Unimplemented</text>
<text text-anchor="start" x="111.5" y="-593.3" font-family="Times,serif" font-size="14.00"> types = (integer, integer)</text>
<text text-anchor="start" x="111.5" y="-578.3" font-family="Times,serif" font-size="14.00"> keys = ()</text>
<text text-anchor="start" x="111.5" y="-563.3" font-family="Times,serif" font-size="14.00"> Project (#0)</text>
<text text-anchor="start" x="111.5" y="-548.3" font-family="Times,serif" font-size="14.00"> types = (integer)</text>
<text text-anchor="start" x="111.5" y="-533.3" font-family="Times,serif" font-size="14.00"> keys = ()</text>
</g>
<!-- node7&#45;&gt;node22 -->
<g id="edge24" class="edge">
<title>node7&#45;&gt;node22</title>
<path fill="none" stroke="black" d="M208.87,-2439.29C182.86,-2400.88 155,-2347.39 155,-2294.5 155,-2294.5 155,-2294.5 155,-716 155,-691.36 165.38,-667.52 178.8,-646.98"/>
<polygon fill="black" stroke="black" points="181.72,-648.92 184.5,-638.69 175.95,-644.95 181.72,-648.92"/>
<text text-anchor="start" x="155" y="-1500.8" font-family="Times,serif" font-size="14.00">%7</text>
</g>
<!-- node8 -->
<g id="node9" class="node">
<title>node8</title>
<polygon fill="none" stroke="black" points="524.5,-2469.5 524.5,-2522.5 859.5,-2522.5 859.5,-2469.5 524.5,-2469.5"/>
<text text-anchor="start" x="532.5" y="-2507.3" font-family="Times,serif" font-size="14.00">Get decorrelation.public.test (u112)</text>
<text text-anchor="start" x="532.5" y="-2492.3" font-family="Times,serif" font-size="14.00"> types = (integer, integer, integer, numeric?)</text>
<text text-anchor="start" x="532.5" y="-2477.3" font-family="Times,serif" font-size="14.00"> keys = ()</text>
</g>
<!-- node8&#45;&gt;node9 -->
<g id="edge33" class="edge">
<title>node8&#45;&gt;node9</title>
<path fill="none" stroke="black" d="M686.08,-2469.2C681.82,-2450.64 675.78,-2424.29 669.67,-2397.66"/>
<polygon fill="black" stroke="black" points="673.06,-2396.82 667.42,-2387.85 666.24,-2398.38 673.06,-2396.82"/>
<text text-anchor="start" x="674" y="-2409.8" font-family="Times,serif" font-size="14.00">%8</text>
</g>
<!-- node10 -->
<g id="node11" class="node">
<title>node10</title>
<polygon fill="none" stroke="black" points="505.5,-1920.5 505.5,-2063.5 722.5,-2063.5 722.5,-1920.5 505.5,-1920.5"/>
<text text-anchor="start" x="513.5" y="-2048.3" font-family="Times,serif" font-size="14.00">Get %9 (l6)</text>
<text text-anchor="start" x="513.5" y="-2033.3" font-family="Times,serif" font-size="14.00"> types = (integer, numeric?)</text>
<text text-anchor="start" x="513.5" y="-2018.3" font-family="Times,serif" font-size="14.00"> keys = ((#0))</text>
<text text-anchor="start" x="513.5" y="-2003.3" font-family="Times,serif" font-size="14.00"> Distinct group=(#0)</text>
<text text-anchor="start" x="513.5" y="-1988.3" font-family="Times,serif" font-size="14.00"> types = (integer)</text>
<text text-anchor="start" x="513.5" y="-1973.3" font-family="Times,serif" font-size="14.00"> keys = ((#0))</text>
<text text-anchor="start" x="513.5" y="-1958.3" font-family="Times,serif" font-size="14.00"> Negate</text>
<text text-anchor="start" x="513.5" y="-1943.3" font-family="Times,serif" font-size="14.00"> types = (integer)</text>
<text text-anchor="start" x="513.5" y="-1928.3" font-family="Times,serif" font-size="14.00"> keys = ()</text>
</g>
<!-- node9&#45;&gt;node10 -->
<g id="edge22" class="edge">
<title>node9&#45;&gt;node10</title>
<path fill="none" stroke="black" d="M636.05,-2199.38C631.76,-2159.18 626.78,-2112.6 622.64,-2073.88"/>
<polygon fill="black" stroke="black" points="626.1,-2073.27 621.55,-2063.7 619.14,-2074.01 626.1,-2073.27"/>
<text text-anchor="start" x="634" y="-2127.8" font-family="Times,serif" font-size="14.00">%9</text>
</g>
<!-- node16 -->
<g id="node17" class="node">
<title>node16</title>
<polygon fill="none" stroke="black" points="591.5,-1410.5 591.5,-1478.5 808.5,-1478.5 808.5,-1410.5 591.5,-1410.5"/>
<text text-anchor="start" x="599.5" y="-1463.3" font-family="Times,serif" font-size="14.00">Let l7 =</text>
<text text-anchor="start" x="599.5" y="-1448.3" font-family="Times,serif" font-size="14.00"> Union %9 %15</text>
<text text-anchor="start" x="599.5" y="-1433.3" font-family="Times,serif" font-size="14.00"> types = (integer, numeric?)</text>
<text text-anchor="start" x="599.5" y="-1418.3" font-family="Times,serif" font-size="14.00"> keys = ()</text>
</g>
<!-- node9&#45;&gt;node16 -->
<g id="edge9" class="edge">
<title>node9&#45;&gt;node16</title>
<path fill="none" stroke="black" d="M698.9,-2199.2C726.68,-2141.63 755,-2065.21 755,-1993 755,-1993 755,-1993 755,-1563.5 755,-1536.48 743.01,-1508.97 730.23,-1487.31"/>
<polygon fill="black" stroke="black" points="733.15,-1485.39 724.93,-1478.71 727.19,-1489.06 733.15,-1485.39"/>
<text text-anchor="start" x="755" y="-1785.8" font-family="Times,serif" font-size="14.00">%9</text>
</g>
<!-- node12 -->
<g id="node13" class="node">
<title>node12</title>
<polygon fill="none" stroke="black" points="379.5,-1815.5 379.5,-1868.5 522.5,-1868.5 522.5,-1815.5 379.5,-1815.5"/>
<text text-anchor="start" x="387.5" y="-1853.3" font-family="Times,serif" font-size="14.00">Union %10 %11</text>
<text text-anchor="start" x="387.5" y="-1838.3" font-family="Times,serif" font-size="14.00"> types = (integer)</text>
<text text-anchor="start" x="387.5" y="-1823.3" font-family="Times,serif" font-size="14.00"> keys = ()</text>
</g>
<!-- node10&#45;&gt;node12 -->
<g id="edge18" class="edge">
<title>node10&#45;&gt;node12</title>
<path fill="none" stroke="black" d="M536.32,-1920.47C519.16,-1904.89 501.78,-1889.1 487.22,-1875.88"/>
<polygon fill="black" stroke="black" points="489.2,-1872.95 479.44,-1868.82 484.49,-1878.14 489.2,-1872.95"/>
<text text-anchor="start" x="514" y="-1890.8" font-family="Times,serif" font-size="14.00">%10</text>
</g>
<!-- node11&#45;&gt;node12 -->
<g id="edge34" class="edge">
<title>node11&#45;&gt;node12</title>
<path fill="none" stroke="black" d="M450.17,-2082.38C450.37,-2024.92 450.7,-1930.16 450.88,-1878.79"/>
<polygon fill="black" stroke="black" points="454.38,-1878.53 450.91,-1868.52 447.38,-1878.51 454.38,-1878.53"/>
<text text-anchor="start" x="451" y="-1988.3" font-family="Times,serif" font-size="14.00">%11</text>
</g>
<!-- node12&#45;&gt;node13 -->
<g id="edge2" class="edge">
<title>node12&#45;&gt;node13</title>
<path fill="none" stroke="black" d="M444.25,-1815.36C441.07,-1803.28 437.12,-1788.27 433.2,-1773.34"/>
<polygon fill="black" stroke="black" points="436.55,-1772.35 430.62,-1763.57 429.78,-1774.13 436.55,-1772.35"/>
<text text-anchor="start" x="439" y="-1785.8" font-family="Times,serif" font-size="14.00">%12</text>
</g>
<!-- node15 -->
<g id="node16" class="node">
<title>node15</title>
<polygon fill="none" stroke="black" points="457.5,-1530.5 457.5,-1598.5 726.5,-1598.5 726.5,-1530.5 457.5,-1530.5"/>
<text text-anchor="start" x="465.5" y="-1583.3" font-family="Times,serif" font-size="14.00">Join %13 %14</text>
<text text-anchor="start" x="465.5" y="-1568.3" font-family="Times,serif" font-size="14.00"> implementation = Unimplemented</text>
<text text-anchor="start" x="465.5" y="-1553.3" font-family="Times,serif" font-size="14.00"> types = (integer, numeric?)</text>
<text text-anchor="start" x="465.5" y="-1538.3" font-family="Times,serif" font-size="14.00"> keys = ()</text>
</g>
<!-- node13&#45;&gt;node15 -->
<g id="edge4" class="edge">
<title>node13&#45;&gt;node15</title>
<path fill="none" stroke="black" d="M485.56,-1650.47C504.64,-1635.24 524.93,-1619.04 542.63,-1604.92"/>
<polygon fill="black" stroke="black" points="544.93,-1607.56 550.56,-1598.58 540.56,-1602.09 544.93,-1607.56"/>
<text text-anchor="start" x="525" y="-1620.8" font-family="Times,serif" font-size="14.00">%13</text>
</g>
<!-- node14 -->
<g id="node15" class="node">
<title>node14</title>
<polygon fill="none" stroke="black" points="569,-1680.5 569,-1733.5 727,-1733.5 727,-1680.5 569,-1680.5"/>
<text text-anchor="start" x="577" y="-1718.3" font-family="Times,serif" font-size="14.00">Constant (null)</text>
<text text-anchor="start" x="577" y="-1703.3" font-family="Times,serif" font-size="14.00"> types = (numeric?)</text>
<text text-anchor="start" x="577" y="-1688.3" font-family="Times,serif" font-size="14.00"> keys = (())</text>
</g>
<!-- node14&#45;&gt;node15 -->
<g id="edge20" class="edge">
<title>node14&#45;&gt;node15</title>
<path fill="none" stroke="black" d="M637.73,-1680.23C629.68,-1660.04 618.31,-1631.52 608.93,-1607.96"/>
<polygon fill="black" stroke="black" points="612.13,-1606.54 605.17,-1598.55 605.62,-1609.13 612.13,-1606.54"/>
<text text-anchor="start" x="619" y="-1620.8" font-family="Times,serif" font-size="14.00">%14</text>
</g>
<!-- node15&#45;&gt;node16 -->
<g id="edge27" class="edge">
<title>node15&#45;&gt;node16</title>
<path fill="none" stroke="black" d="M622.37,-1530.32C634.79,-1516.74 649.3,-1500.9 662.38,-1486.6"/>
<polygon fill="black" stroke="black" points="665.31,-1488.58 669.48,-1478.84 660.15,-1483.86 665.31,-1488.58"/>
<text text-anchor="start" x="652" y="-1500.8" font-family="Times,serif" font-size="14.00">%15</text>
</g>
<!-- node17 -->
<g id="node18" class="node">
<title>node17</title>
<polygon fill="none" stroke="black" points="330.5,-1110.5 330.5,-1358.5 743.5,-1358.5 743.5,-1110.5 330.5,-1110.5"/>
<text text-anchor="start" x="338.5" y="-1343.3" font-family="Times,serif" font-size="14.00">Get %16 (l7)</text>
<text text-anchor="start" x="338.5" y="-1328.3" font-family="Times,serif" font-size="14.00"> types = (integer, numeric?)</text>
<text text-anchor="start" x="338.5" y="-1313.3" font-family="Times,serif" font-size="14.00"> keys = ()</text>
<text text-anchor="start" x="338.5" y="-1298.3" font-family="Times,serif" font-size="14.00"> Reduce group=(#0)</text>
<text text-anchor="start" x="338.5" y="-1283.3" font-family="Times,serif" font-size="14.00"> agg count(true)</text>
<text text-anchor="start" x="338.5" y="-1268.3" font-family="Times,serif" font-size="14.00"> types = (integer, bigint)</text>
<text text-anchor="start" x="338.5" y="-1253.3" font-family="Times,serif" font-size="14.00"> keys = ((#0))</text>
<text text-anchor="start" x="338.5" y="-1238.3" font-family="Times,serif" font-size="14.00"> Filter (#1 &gt; 1)</text>
<text text-anchor="start" x="338.5" y="-1223.3" font-family="Times,serif" font-size="14.00"> types = (integer, bigint)</text>
<text text-anchor="start" x="338.5" y="-1208.3" font-family="Times,serif" font-size="14.00"> keys = ((#0))</text>
<text text-anchor="start" x="338.5" y="-1193.3" font-family="Times,serif" font-size="14.00"> Project (#0)</text>
<text text-anchor="start" x="338.5" y="-1178.3" font-family="Times,serif" font-size="14.00"> types = (integer)</text>
<text text-anchor="start" x="338.5" y="-1163.3" font-family="Times,serif" font-size="14.00"> keys = ((#0))</text>
<text text-anchor="start" x="338.5" y="-1148.3" font-family="Times,serif" font-size="14.00"> Map (err: more than one record produced in subquery)</text>
<text text-anchor="start" x="338.5" y="-1133.3" font-family="Times,serif" font-size="14.00"> types = (integer, numeric)</text>
<text text-anchor="start" x="338.5" y="-1118.3" font-family="Times,serif" font-size="14.00"> keys = ((#0))</text>
</g>
<!-- node16&#45;&gt;node17 -->
<g id="edge6" class="edge">
<title>node16&#45;&gt;node17</title>
<path fill="none" stroke="black" d="M673.81,-1410.08C664.16,-1397.76 652.54,-1382.94 640.21,-1367.2"/>
<polygon fill="black" stroke="black" points="642.62,-1364.61 633.7,-1358.89 637.11,-1368.92 642.62,-1364.61"/>
<text text-anchor="start" x="656" y="-1380.8" font-family="Times,serif" font-size="14.00">%16</text>
</g>
<!-- node18 -->
<g id="node19" class="node">
<title>node18</title>
<polygon fill="none" stroke="black" points="478.5,-990.5 478.5,-1058.5 695.5,-1058.5 695.5,-990.5 478.5,-990.5"/>
<text text-anchor="start" x="486.5" y="-1043.3" font-family="Times,serif" font-size="14.00">Let l8 =</text>
<text text-anchor="start" x="486.5" y="-1028.3" font-family="Times,serif" font-size="14.00"> Union %16 %17</text>
<text text-anchor="start" x="486.5" y="-1013.3" font-family="Times,serif" font-size="14.00"> types = (integer, numeric?)</text>
<text text-anchor="start" x="486.5" y="-998.3" font-family="Times,serif" font-size="14.00"> keys = ()</text>
</g>
<!-- node16&#45;&gt;node18 -->
<g id="edge16" class="edge">
<title>node16&#45;&gt;node18</title>
<path fill="none" stroke="black" d="M726.91,-1410.26C737.21,-1395.48 747.73,-1377.31 753,-1359 783.59,-1252.65 810.84,-1204.35 753,-1110 741.07,-1090.55 723.11,-1075.4 703.35,-1063.66"/>
<polygon fill="black" stroke="black" points="704.9,-1060.52 694.47,-1058.67 701.47,-1066.62 704.9,-1060.52"/>
<text text-anchor="start" x="786" y="-1230.8" font-family="Times,serif" font-size="14.00">%16</text>
</g>
<!-- node17&#45;&gt;node18 -->
<g id="edge32" class="edge">
<title>node17&#45;&gt;node18</title>
<path fill="none" stroke="black" d="M566.59,-1110.4C570.15,-1095.6 573.58,-1081.33 576.58,-1068.85"/>
<polygon fill="black" stroke="black" points="580.06,-1069.36 578.99,-1058.82 573.25,-1067.73 580.06,-1069.36"/>
<text text-anchor="start" x="574" y="-1080.8" font-family="Times,serif" font-size="14.00">%17</text>
</g>
<!-- node19 -->
<g id="node20" class="node">
<title>node19</title>
<polygon fill="none" stroke="black" points="325.5,-795.5 325.5,-938.5 542.5,-938.5 542.5,-795.5 325.5,-795.5"/>
<text text-anchor="start" x="333.5" y="-923.3" font-family="Times,serif" font-size="14.00">Get %18 (l8)</text>
<text text-anchor="start" x="333.5" y="-908.3" font-family="Times,serif" font-size="14.00"> types = (integer, numeric?)</text>
<text text-anchor="start" x="333.5" y="-893.3" font-family="Times,serif" font-size="14.00"> keys = ()</text>
<text text-anchor="start" x="333.5" y="-878.3" font-family="Times,serif" font-size="14.00"> Distinct group=(#0)</text>
<text text-anchor="start" x="333.5" y="-863.3" font-family="Times,serif" font-size="14.00"> types = (integer)</text>
<text text-anchor="start" x="333.5" y="-848.3" font-family="Times,serif" font-size="14.00"> keys = ((#0))</text>
<text text-anchor="start" x="333.5" y="-833.3" font-family="Times,serif" font-size="14.00"> Negate</text>
<text text-anchor="start" x="333.5" y="-818.3" font-family="Times,serif" font-size="14.00"> types = (integer)</text>
<text text-anchor="start" x="333.5" y="-803.3" font-family="Times,serif" font-size="14.00"> keys = ()</text>
</g>
<!-- node18&#45;&gt;node19 -->
<g id="edge19" class="edge">
<title>node18&#45;&gt;node19</title>
<path fill="none" stroke="black" d="M554.18,-990.14C541.31,-977.06 525.96,-961.46 510.61,-945.86"/>
<polygon fill="black" stroke="black" points="513.07,-943.37 503.56,-938.7 508.08,-948.28 513.07,-943.37"/>
<text text-anchor="start" x="534" y="-960.8" font-family="Times,serif" font-size="14.00">%18</text>
</g>
<!-- node25 -->
<g id="node26" class="node">
<title>node25</title>
<polygon fill="none" stroke="black" points="515.5,-300.5 515.5,-353.5 732.5,-353.5 732.5,-300.5 515.5,-300.5"/>
<text text-anchor="start" x="523.5" y="-338.3" font-family="Times,serif" font-size="14.00">Union %18 %24</text>
<text text-anchor="start" x="523.5" y="-323.3" font-family="Times,serif" font-size="14.00"> types = (integer, numeric?)</text>
<text text-anchor="start" x="523.5" y="-308.3" font-family="Times,serif" font-size="14.00"> keys = ()</text>
</g>
<!-- node18&#45;&gt;node25 -->
<g id="edge14" class="edge">
<title>node18&#45;&gt;node25</title>
<path fill="none" stroke="black" d="M599.63,-990.37C610.35,-959.25 624,-911.15 624,-868 624,-868 624,-868 624,-438.5 624,-413.61 624,-385.56 624,-363.95"/>
<polygon fill="black" stroke="black" points="627.5,-363.9 624,-353.9 620.5,-363.9 627.5,-363.9"/>
<text text-anchor="start" x="624" y="-660.8" font-family="Times,serif" font-size="14.00">%18</text>
</g>
<!-- node21 -->
<g id="node22" class="node">
<title>node21</title>
<polygon fill="none" stroke="black" points="183.5,-690.5 183.5,-743.5 326.5,-743.5 326.5,-690.5 183.5,-690.5"/>
<text text-anchor="start" x="191.5" y="-728.3" font-family="Times,serif" font-size="14.00">Union %19 %20</text>
<text text-anchor="start" x="191.5" y="-713.3" font-family="Times,serif" font-size="14.00"> types = (integer)</text>
<text text-anchor="start" x="191.5" y="-698.3" font-family="Times,serif" font-size="14.00"> keys = ()</text>
</g>
<!-- node19&#45;&gt;node21 -->
<g id="edge30" class="edge">
<title>node19&#45;&gt;node21</title>
<path fill="none" stroke="black" d="M348.69,-795.47C329.68,-779.74 310.41,-763.81 294.33,-750.52"/>
<polygon fill="black" stroke="black" points="296.17,-747.5 286.23,-743.82 291.71,-752.89 296.17,-747.5"/>
<text text-anchor="start" x="324" y="-765.8" font-family="Times,serif" font-size="14.00">%19</text>
</g>
<!-- node20&#45;&gt;node21 -->
<g id="edge29" class="edge">
<title>node20&#45;&gt;node21</title>
<path fill="none" stroke="black" d="M253,-2082.34C253,-2034.84 253,-1960.17 253,-1895.5 253,-1895.5 253,-1895.5 253,-866 253,-827.78 253.68,-784.01 254.24,-754.05"/>
<polygon fill="black" stroke="black" points="257.75,-753.73 254.44,-743.67 250.75,-753.6 257.75,-753.73"/>
<text text-anchor="start" x="253" y="-1500.8" font-family="Times,serif" font-size="14.00">%20</text>
</g>
<!-- node21&#45;&gt;node22 -->
<g id="edge17" class="edge">
<title>node21&#45;&gt;node22</title>
<path fill="none" stroke="black" d="M251.72,-690.36C250.19,-678.4 248.3,-663.56 246.41,-648.77"/>
<polygon fill="black" stroke="black" points="249.84,-648.05 245.1,-638.57 242.9,-648.94 249.84,-648.05"/>
<text text-anchor="start" x="250" y="-660.8" font-family="Times,serif" font-size="14.00">%21</text>
</g>
<!-- node24 -->
<g id="node25" class="node">
<title>node24</title>
<polygon fill="none" stroke="black" points="326.5,-405.5 326.5,-473.5 595.5,-473.5 595.5,-405.5 326.5,-405.5"/>
<text text-anchor="start" x="334.5" y="-458.3" font-family="Times,serif" font-size="14.00">Join %22 %23</text>
<text text-anchor="start" x="334.5" y="-443.3" font-family="Times,serif" font-size="14.00"> implementation = Unimplemented</text>
<text text-anchor="start" x="334.5" y="-428.3" font-family="Times,serif" font-size="14.00"> types = (integer, numeric?)</text>
<text text-anchor="start" x="334.5" y="-413.3" font-family="Times,serif" font-size="14.00"> keys = ()</text>
</g>
<!-- node22&#45;&gt;node24 -->
<g id="edge5" class="edge">
<title>node22&#45;&gt;node24</title>
<path fill="none" stroke="black" d="M326.14,-525.47C350.86,-509.9 377.18,-493.31 399.95,-478.96"/>
<polygon fill="black" stroke="black" points="401.9,-481.87 408.49,-473.58 398.17,-475.95 401.9,-481.87"/>
<text text-anchor="start" x="377" y="-495.8" font-family="Times,serif" font-size="14.00">%22</text>
</g>
<!-- node23 -->
<g id="node24" class="node">
<title>node23</title>
<polygon fill="none" stroke="black" points="391,-555.5 391,-608.5 549,-608.5 549,-555.5 391,-555.5"/>
<text text-anchor="start" x="399" y="-593.3" font-family="Times,serif" font-size="14.00">Constant (null)</text>
<text text-anchor="start" x="399" y="-578.3" font-family="Times,serif" font-size="14.00"> types = (numeric?)</text>
<text text-anchor="start" x="399" y="-563.3" font-family="Times,serif" font-size="14.00"> keys = (())</text>
</g>
<!-- node23&#45;&gt;node24 -->
<g id="edge12" class="edge">
<title>node23&#45;&gt;node24</title>
<path fill="none" stroke="black" d="M468.35,-555.23C467.07,-535.22 465.26,-507.02 463.76,-483.59"/>
<polygon fill="black" stroke="black" points="467.25,-483.3 463.12,-473.55 460.26,-483.75 467.25,-483.3"/>
<text text-anchor="start" x="466" y="-495.8" font-family="Times,serif" font-size="14.00">%23</text>
</g>
<!-- node24&#45;&gt;node25 -->
<g id="edge23" class="edge">
<title>node24&#45;&gt;node25</title>
<path fill="none" stroke="black" d="M509.91,-405.35C531.42,-390.76 556.56,-373.72 577.75,-359.35"/>
<polygon fill="black" stroke="black" points="579.96,-362.09 586.27,-353.58 576.03,-356.29 579.96,-362.09"/>
<text text-anchor="start" x="558" y="-375.8" font-family="Times,serif" font-size="14.00">%24</text>
</g>
<!-- node25&#45;&gt;node26 -->
<g id="edge31" class="edge">
<title>node25&#45;&gt;node26</title>
<path fill="none" stroke="black" d="M642.02,-300.2C650.25,-288.4 660.69,-273.45 671.98,-257.28"/>
<polygon fill="black" stroke="black" points="675.1,-258.93 677.96,-248.72 669.36,-254.92 675.1,-258.93"/>
<text text-anchor="start" x="661" y="-270.8" font-family="Times,serif" font-size="14.00">%25</text>
</g>
</g>
</svg>
