<?xml version="1.0" encoding="UTF-8" standalone="no"?>
<!DOCTYPE svg PUBLIC "-//W3C//DTD SVG 1.1//EN"
 "http://www.w3.org/Graphics/SVG/1.1/DTD/svg11.dtd">
<!-- Generated by graphviz version 2.43.0 (0)
 -->
<!-- Title: G Pages: 1 -->
<svg width="1005pt" height="1136pt"
 viewBox="0.00 0.00 1004.50 1136.00" xmlns="http://www.w3.org/2000/svg" xmlns:xlink="http://www.w3.org/1999/xlink">
<g id="graph0" class="graph" transform="scale(1 1) rotate(0) translate(4 1132)">
<title>G</title>
<polygon fill="white" stroke="transparent" points="-4,4 -4,-1132 1000.5,-1132 1000.5,4 -4,4"/>
<!-- node0 -->
<g id="node1" class="node">
<title>node0</title>
<polygon fill="none" stroke="black" points="0,-984.5 0,-1127.5 308,-1127.5 308,-984.5 0,-984.5"/>
<text text-anchor="start" x="8" y="-1112.3" font-family="Times,serif" font-size="14.00">Get decorrelation.public.students (u104)</text>
<text text-anchor="start" x="8" y="-1097.3" font-family="Times,serif" font-size="14.00"> types = (integer, text, smallint?)</text>
<text text-anchor="start" x="8" y="-1082.3" font-family="Times,serif" font-size="14.00"> keys = ()</text>
<text text-anchor="start" x="8" y="-1067.3" font-family="Times,serif" font-size="14.00"> Project (#0, #1)</text>
<text text-anchor="start" x="8" y="-1052.3" font-family="Times,serif" font-size="14.00"> types = (integer, text)</text>
<text text-anchor="start" x="8" y="-1037.3" font-family="Times,serif" font-size="14.00"> keys = ()</text>
<text text-anchor="start" x="8" y="-1022.3" font-family="Times,serif" font-size="14.00"> ArrangeBy (#0)</text>
<text text-anchor="start" x="8" y="-1007.3" font-family="Times,serif" font-size="14.00"> types = (integer, text)</text>
<text text-anchor="start" x="8" y="-992.3" font-family="Times,serif" font-size="14.00"> keys = ()</text>
</g>
<!-- node2 -->
<g id="node3" class="node">
<title>node2</title>
<polygon fill="none" stroke="black" points="137.5,-804.5 137.5,-932.5 510.5,-932.5 510.5,-804.5 137.5,-804.5"/>
<text text-anchor="start" x="145.5" y="-917.3" font-family="Times,serif" font-size="14.00">Let l0 =</text>
<text text-anchor="start" x="145.5" y="-902.3" font-family="Times,serif" font-size="14.00"> Join %0 %1 (= #0 #2)</text>
<text text-anchor="start" x="145.5" y="-887.3" font-family="Times,serif" font-size="14.00"> implementation = Differential %1 %0.(#0)</text>
<text text-anchor="start" x="145.5" y="-872.3" font-family="Times,serif" font-size="14.00"> types = (integer, text, integer, integer, numeric?)</text>
<text text-anchor="start" x="145.5" y="-857.3" font-family="Times,serif" font-size="14.00"> keys = ()</text>
<text text-anchor="start" x="145.5" y="-842.3" font-family="Times,serif" font-size="14.00"> Project (#0, #1, #3, #4)</text>
<text text-anchor="start" x="145.5" y="-827.3" font-family="Times,serif" font-size="14.00"> types = (integer, text, integer, numeric?)</text>
<text text-anchor="start" x="145.5" y="-812.3" font-family="Times,serif" font-size="14.00"> keys = ()</text>
</g>
<!-- node0&#45;&gt;node2 -->
<g id="edge5" class="edge">
<title>node0&#45;&gt;node2</title>
<path fill="none" stroke="black" d="M218.75,-984.34C232.02,-969.87 245.98,-954.63 259.25,-940.16"/>
<polygon fill="black" stroke="black" points="261.93,-942.41 266.11,-932.67 256.77,-937.68 261.93,-942.41"/>
<text text-anchor="start" x="250" y="-954.8" font-family="Times,serif" font-size="14.00">%0</text>
</g>
<!-- node1 -->
<g id="node2" class="node">
<title>node1</title>
<polygon fill="none" stroke="black" points="326.5,-1007 326.5,-1105 661.5,-1105 661.5,-1007 326.5,-1007"/>
<text text-anchor="start" x="334.5" y="-1089.8" font-family="Times,serif" font-size="14.00">Get decorrelation.public.test (u112)</text>
<text text-anchor="start" x="334.5" y="-1074.8" font-family="Times,serif" font-size="14.00"> types = (integer, integer, integer, numeric?)</text>
<text text-anchor="start" x="334.5" y="-1059.8" font-family="Times,serif" font-size="14.00"> keys = ()</text>
<text text-anchor="start" x="334.5" y="-1044.8" font-family="Times,serif" font-size="14.00"> Project (#0, #1, #3)</text>
<text text-anchor="start" x="334.5" y="-1029.8" font-family="Times,serif" font-size="14.00"> types = (integer, integer, numeric?)</text>
<text text-anchor="start" x="334.5" y="-1014.8" font-family="Times,serif" font-size="14.00"> keys = ()</text>
</g>
<!-- node1&#45;&gt;node2 -->
<g id="edge6" class="edge">
<title>node1&#45;&gt;node2</title>
<path fill="none" stroke="black" d="M449.78,-1006.75C431.13,-986.4 409.05,-962.3 388.63,-940.02"/>
<polygon fill="black" stroke="black" points="391.11,-937.55 381.78,-932.55 385.95,-942.28 391.11,-937.55"/>
<text text-anchor="start" x="409" y="-954.8" font-family="Times,serif" font-size="14.00">%1</text>
</g>
<!-- node3 -->
<g id="node4" class="node">
<title>node3</title>
<polygon fill="none" stroke="black" points="144,-447.5 144,-545.5 458,-545.5 458,-447.5 144,-447.5"/>
<text text-anchor="start" x="152" y="-530.3" font-family="Times,serif" font-size="14.00">Get %2 (l0)</text>
<text text-anchor="start" x="152" y="-515.3" font-family="Times,serif" font-size="14.00"> types = (integer, text, integer, numeric?)</text>
<text text-anchor="start" x="152" y="-500.3" font-family="Times,serif" font-size="14.00"> keys = ()</text>
<text text-anchor="start" x="152" y="-485.3" font-family="Times,serif" font-size="14.00"> Filter !(isnull(#3))</text>
<text text-anchor="start" x="152" y="-470.3" font-family="Times,serif" font-size="14.00"> types = (integer, text, integer, numeric)</text>
<text text-anchor="start" x="152" y="-455.3" font-family="Times,serif" font-size="14.00"> keys = ()</text>
</g>
<!-- node2&#45;&gt;node3 -->
<g id="edge3" class="edge">
<title>node2&#45;&gt;node3</title>
<path fill="none" stroke="black" d="M320.07,-804.32C315.74,-734.62 308.83,-623.41 304.62,-555.75"/>
<polygon fill="black" stroke="black" points="308.11,-555.45 304,-545.69 301.12,-555.88 308.11,-555.45"/>
<text text-anchor="start" x="319" y="-774.8" font-family="Times,serif" font-size="14.00">%2</text>
</g>
<!-- node4 -->
<g id="node5" class="node">
<title>node4</title>
<polygon fill="none" stroke="black" points="329,-564.5 329,-752.5 643,-752.5 643,-564.5 329,-564.5"/>
<text text-anchor="start" x="337" y="-737.3" font-family="Times,serif" font-size="14.00">Get %2 (l0)</text>
<text text-anchor="start" x="337" y="-722.3" font-family="Times,serif" font-size="14.00"> types = (integer, text, integer, numeric?)</text>
<text text-anchor="start" x="337" y="-707.3" font-family="Times,serif" font-size="14.00"> keys = ()</text>
<text text-anchor="start" x="337" y="-692.3" font-family="Times,serif" font-size="14.00"> Project (#0)</text>
<text text-anchor="start" x="337" y="-677.3" font-family="Times,serif" font-size="14.00"> types = (integer)</text>
<text text-anchor="start" x="337" y="-662.3" font-family="Times,serif" font-size="14.00"> keys = ()</text>
<text text-anchor="start" x="337" y="-647.3" font-family="Times,serif" font-size="14.00"> Distinct group=(#0)</text>
<text text-anchor="start" x="337" y="-632.3" font-family="Times,serif" font-size="14.00"> types = (integer)</text>
<text text-anchor="start" x="337" y="-617.3" font-family="Times,serif" font-size="14.00"> keys = ((#0))</text>
<text text-anchor="start" x="337" y="-602.3" font-family="Times,serif" font-size="14.00"> ArrangeBy (#0)</text>
<text text-anchor="start" x="337" y="-587.3" font-family="Times,serif" font-size="14.00"> types = (integer)</text>
<text text-anchor="start" x="337" y="-572.3" font-family="Times,serif" font-size="14.00"> keys = ((#0))</text>
</g>
<!-- node2&#45;&gt;node4 -->
<g id="edge7" class="edge">
<title>node2&#45;&gt;node4</title>
<path fill="none" stroke="black" d="M373.27,-804.25C383.95,-790.53 395.5,-775.69 407.01,-760.92"/>
<polygon fill="black" stroke="black" points="410,-762.77 413.38,-752.73 404.48,-758.47 410,-762.77"/>
<text text-anchor="start" x="396" y="-774.8" font-family="Times,serif" font-size="14.00">%2</text>
</g>
<!-- node7 -->
<g id="node8" class="node">
<title>node7</title>
<polygon fill="none" stroke="black" points="100.5,-0.5 100.5,-113.5 533.5,-113.5 533.5,-0.5 100.5,-0.5"/>
<text text-anchor="start" x="108.5" y="-98.3" font-family="Times,serif" font-size="14.00">Join %3 %6 (= #0 #4) (= #3 #5)</text>
<text text-anchor="start" x="108.5" y="-83.3" font-family="Times,serif" font-size="14.00"> implementation = Differential %3 %6.(#0, #1)</text>
<text text-anchor="start" x="108.5" y="-68.3" font-family="Times,serif" font-size="14.00"> types = (integer, text, integer, numeric, integer, numeric)</text>
<text text-anchor="start" x="108.5" y="-53.3" font-family="Times,serif" font-size="14.00"> keys = ()</text>
<text text-anchor="start" x="108.5" y="-38.3" font-family="Times,serif" font-size="14.00"> Project (#1, #2)</text>
<text text-anchor="start" x="108.5" y="-23.3" font-family="Times,serif" font-size="14.00"> types = (text, integer)</text>
<text text-anchor="start" x="108.5" y="-8.3" font-family="Times,serif" font-size="14.00"> keys = ()</text>
</g>
<!-- node3&#45;&gt;node7 -->
<g id="edge4" class="edge">
<title>node3&#45;&gt;node7</title>
<path fill="none" stroke="black" d="M301.74,-447.31C302.85,-382.94 305.35,-265.34 310,-165 310.62,-151.66 311.44,-137.4 312.3,-123.78"/>
<polygon fill="black" stroke="black" points="315.81,-123.72 312.96,-113.51 308.83,-123.27 315.81,-123.72"/>
<text text-anchor="start" x="310" y="-293.3" font-family="Times,serif" font-size="14.00">%3</text>
</g>
<!-- node6 -->
<g id="node7" class="node">
<title>node6</title>
<polygon fill="none" stroke="black" points="342,-165.5 342,-428.5 668,-428.5 668,-165.5 342,-165.5"/>
<text text-anchor="start" x="350" y="-413.3" font-family="Times,serif" font-size="14.00">Join %4 %5 (= #0 #1)</text>
<text text-anchor="start" x="350" y="-398.3" font-family="Times,serif" font-size="14.00"> implementation = Differential %5 %4.(#0)</text>
<text text-anchor="start" x="350" y="-383.3" font-family="Times,serif" font-size="14.00"> types = (integer, integer, numeric?)</text>
<text text-anchor="start" x="350" y="-368.3" font-family="Times,serif" font-size="14.00"> keys = ()</text>
<text text-anchor="start" x="350" y="-353.3" font-family="Times,serif" font-size="14.00"> Project (#0, #2)</text>
<text text-anchor="start" x="350" y="-338.3" font-family="Times,serif" font-size="14.00"> types = (integer, numeric?)</text>
<text text-anchor="start" x="350" y="-323.3" font-family="Times,serif" font-size="14.00"> keys = ()</text>
<text text-anchor="start" x="350" y="-308.3" font-family="Times,serif" font-size="14.00"> Reduce group=(#0)</text>
<text text-anchor="start" x="350" y="-293.3" font-family="Times,serif" font-size="14.00"> agg min(#1)</text>
<text text-anchor="start" x="350" y="-278.3" font-family="Times,serif" font-size="14.00"> types = (integer, numeric?)</text>
<text text-anchor="start" x="350" y="-263.3" font-family="Times,serif" font-size="14.00"> keys = ((#0))</text>
<text text-anchor="start" x="350" y="-248.3" font-family="Times,serif" font-size="14.00"> Filter !(isnull(#1))</text>
<text text-anchor="start" x="350" y="-233.3" font-family="Times,serif" font-size="14.00"> types = (integer, numeric)</text>
<text text-anchor="start" x="350" y="-218.3" font-family="Times,serif" font-size="14.00"> keys = ((#0))</text>
<text text-anchor="start" x="350" y="-203.3" font-family="Times,serif" font-size="14.00"> ArrangeBy (#0, #1)</text>
<text text-anchor="start" x="350" y="-188.3" font-family="Times,serif" font-size="14.00"> types = (integer, numeric)</text>
<text text-anchor="start" x="350" y="-173.3" font-family="Times,serif" font-size="14.00"> keys = ((#0))</text>
</g>
<!-- node4&#45;&gt;node6 -->
<g id="edge1" class="edge">
<title>node4&#45;&gt;node6</title>
<path fill="none" stroke="black" d="M490.92,-564.45C492.94,-526.12 495.33,-480.88 497.57,-438.66"/>
<polygon fill="black" stroke="black" points="501.07,-438.74 498.1,-428.57 494.08,-438.37 501.07,-438.74"/>
<text text-anchor="start" x="496" y="-492.8" font-family="Times,serif" font-size="14.00">%4</text>
</g>
<!-- node5 -->
<g id="node6" class="node">
<title>node5</title>
<polygon fill="none" stroke="black" points="661.5,-609.5 661.5,-707.5 996.5,-707.5 996.5,-609.5 661.5,-609.5"/>
<text text-anchor="start" x="669.5" y="-692.3" font-family="Times,serif" font-size="14.00">Get decorrelation.public.test (u112)</text>
<text text-anchor="start" x="669.5" y="-677.3" font-family="Times,serif" font-size="14.00"> types = (integer, integer, integer, numeric?)</text>
<text text-anchor="start" x="669.5" y="-662.3" font-family="Times,serif" font-size="14.00"> keys = ()</text>
<text text-anchor="start" x="669.5" y="-647.3" font-family="Times,serif" font-size="14.00"> Project (#0, #3)</text>
<text text-anchor="start" x="669.5" y="-632.3" font-family="Times,serif" font-size="14.00"> types = (integer, numeric?)</text>
<text text-anchor="start" x="669.5" y="-617.3" font-family="Times,serif" font-size="14.00"> keys = ()</text>
</g>
<!-- node5&#45;&gt;node6 -->
<g id="edge8" class="edge">
<title>node5&#45;&gt;node6</title>
<path fill="none" stroke="black" d="M785.64,-609.39C745.79,-565.17 684.73,-497.42 629.73,-436.4"/>
<polygon fill="black" stroke="black" points="632.01,-433.69 622.71,-428.61 626.81,-438.38 632.01,-433.69"/>
<text text-anchor="start" x="724" y="-492.8" font-family="Times,serif" font-size="14.00">%5</text>
</g>
<!-- node6&#45;&gt;node7 -->
<g id="edge2" class="edge">
<title>node6&#45;&gt;node7</title>
<path fill="none" stroke="black" d="M401.65,-165.16C389.67,-149.99 377.89,-135.08 367.11,-121.43"/>
<polygon fill="black" stroke="black" points="369.82,-119.22 360.88,-113.55 364.33,-123.56 369.82,-119.22"/>
<text text-anchor="start" x="384" y="-135.8" font-family="Times,serif" font-size="14.00">%6</text>
</g>
</g>
</svg>
