<?xml version="1.0" encoding="UTF-8" standalone="no"?>
<!DOCTYPE svg PUBLIC "-//W3C//DTD SVG 1.1//EN"
 "http://www.w3.org/Graphics/SVG/1.1/DTD/svg11.dtd">
<!-- Generated by graphviz version 2.43.0 (0)
 -->
<!-- Title: G Pages: 1 -->
<svg width="765pt" height="437pt"
 viewBox="0.00 0.00 765.00 437.00" xmlns="http://www.w3.org/2000/svg" xmlns:xlink="http://www.w3.org/1999/xlink">
<g id="graph0" class="graph" transform="scale(1 1) rotate(0) translate(4 433)">
<title>G</title>
<polygon fill="white" stroke="transparent" points="-4,4 -4,-433 761,-433 761,4 -4,4"/>
<!-- node0 -->
<g id="node1" class="node">
<title>node0</title>
<polygon fill="none" stroke="black" points="0,-375.5 0,-428.5 308,-428.5 308,-375.5 0,-375.5"/>
<text text-anchor="start" x="8" y="-413.3" font-family="Times,serif" font-size="14.00">Get decorrelation.public.students (u104)</text>
<text text-anchor="start" x="8" y="-398.3" font-family="Times,serif" font-size="14.00"> types = (integer, text, smallint?)</text>
<text text-anchor="start" x="8" y="-383.3" font-family="Times,serif" font-size="14.00"> keys = ()</text>
</g>
<!-- node2 -->
<g id="node3" class="node">
<title>node2</title>
<polygon fill="none" stroke="black" points="241,-0.5 241,-323.5 747,-323.5 747,-0.5 241,-0.5"/>
<text text-anchor="start" x="249" y="-308.3" font-family="Times,serif" font-size="14.00">InnerJoin %0 %1 on true</text>
<text text-anchor="start" x="249" y="-293.3" font-family="Times,serif" font-size="14.00"> types = (integer, text, smallint?, integer, integer, integer, numeric?)</text>
<text text-anchor="start" x="249" y="-278.3" font-family="Times,serif" font-size="14.00"> keys = ()</text>
<text text-anchor="start" x="249" y="-263.3" font-family="Times,serif" font-size="14.00"> Filter ((#0 = #3) &amp;&amp; (#6 = select(%3)))</text>
<text text-anchor="start" x="249" y="-248.3" font-family="Times,serif" font-size="14.00"> types = (integer, text, smallint?, integer, integer, integer, numeric?)</text>
<text text-anchor="start" x="249" y="-233.3" font-family="Times,serif" font-size="14.00"> keys = ()</text>
<text text-anchor="start" x="249" y="-218.3" font-family="Times,serif" font-size="14.00"> </text>
<text text-anchor="start" x="249" y="-203.3" font-family="Times,serif" font-size="14.00"> %3 =</text>
<text text-anchor="start" x="249" y="-188.3" font-family="Times,serif" font-size="14.00"> Get decorrelation.public.test (u112)</text>
<text text-anchor="start" x="249" y="-173.3" font-family="Times,serif" font-size="14.00"> types = (integer, integer, integer, numeric?)</text>
<text text-anchor="start" x="249" y="-158.3" font-family="Times,serif" font-size="14.00"> keys = ()</text>
<text text-anchor="start" x="249" y="-143.3" font-family="Times,serif" font-size="14.00"> Filter (#^0 = #0)</text>
<text text-anchor="start" x="249" y="-128.3" font-family="Times,serif" font-size="14.00"> types = (integer, integer, integer, numeric?)</text>
<text text-anchor="start" x="249" y="-113.3" font-family="Times,serif" font-size="14.00"> keys = ()</text>
<text text-anchor="start" x="249" y="-98.3" font-family="Times,serif" font-size="14.00"> Reduce group=() min(#3)</text>
<text text-anchor="start" x="249" y="-83.3" font-family="Times,serif" font-size="14.00"> types = (numeric?)</text>
<text text-anchor="start" x="249" y="-68.3" font-family="Times,serif" font-size="14.00"> keys = ()</text>
<text text-anchor="start" x="249" y="-53.3" font-family="Times,serif" font-size="14.00"> </text>
<text text-anchor="start" x="249" y="-38.3" font-family="Times,serif" font-size="14.00"> Project (#1, #4)</text>
<text text-anchor="start" x="249" y="-23.3" font-family="Times,serif" font-size="14.00"> types = (text, integer)</text>
<text text-anchor="start" x="249" y="-8.3" font-family="Times,serif" font-size="14.00"> keys = ()</text>
</g>
<!-- node0&#45;&gt;node2 -->
<g id="edge2" class="edge">
<title>node0&#45;&gt;node2</title>
<path fill="none" stroke="black" d="M190.71,-375.3C208.37,-362.94 231.18,-346.97 256.35,-329.35"/>
<polygon fill="black" stroke="black" points="258.42,-332.18 264.61,-323.58 254.41,-326.44 258.42,-332.18"/>
<text text-anchor="start" x="237" y="-345.8" font-family="Times,serif" font-size="14.00">%0</text>
</g>
<!-- node1 -->
<g id="node2" class="node">
<title>node1</title>
<polygon fill="none" stroke="black" points="326.5,-375.5 326.5,-428.5 661.5,-428.5 661.5,-375.5 326.5,-375.5"/>
<text text-anchor="start" x="334.5" y="-413.3" font-family="Times,serif" font-size="14.00">Get decorrelation.public.test (u112)</text>
<text text-anchor="start" x="334.5" y="-398.3" font-family="Times,serif" font-size="14.00"> types = (integer, integer, integer, numeric?)</text>
<text text-anchor="start" x="334.5" y="-383.3" font-family="Times,serif" font-size="14.00"> keys = ()</text>
</g>
<!-- node1&#45;&gt;node2 -->
<g id="edge1" class="edge">
<title>node1&#45;&gt;node2</title>
<path fill="none" stroke="black" d="M494,-375.08C494,-363.75 494,-349.44 494,-333.62"/>
<polygon fill="black" stroke="black" points="497.5,-333.58 494,-323.58 490.5,-333.58 497.5,-333.58"/>
<text text-anchor="start" x="494" y="-345.8" font-family="Times,serif" font-size="14.00">%1</text>
</g>
<!-- node3 -->
<g id="node4" class="node">
<title>node3</title>
<ellipse fill="none" stroke="black" cx="718" cy="-402" rx="38.99" ry="18"/>
<text text-anchor="middle" x="718" y="-398.3" font-family="Times,serif" font-size="14.00">node3</text>
</g>
<!-- node3&#45;&gt;node2 -->
<g id="edge3" class="edge">
<title>node3&#45;&gt;node2</title>
<path fill="none" stroke="black" d="M702.95,-385.01C691.01,-372.33 672.94,-353.12 652.32,-331.21"/>
<polygon fill="black" stroke="black" points="654.64,-328.57 645.23,-323.69 649.54,-333.37 654.64,-328.57"/>
<text text-anchor="start" x="675" y="-345.8" font-family="Times,serif" font-size="14.00">%3</text>
</g>
</g>
</svg>
