<?xml version="1.0" encoding="UTF-8" standalone="no"?>
<!DOCTYPE svg PUBLIC "-//W3C//DTD SVG 1.1//EN"
 "http://www.w3.org/Graphics/SVG/1.1/DTD/svg11.dtd">
<!-- Generated by graphviz version 2.43.0 (0)
 -->
<!-- Title: G Pages: 1 -->
<svg width="455pt" height="542pt"
 viewBox="0.00 0.00 454.50 542.00" xmlns="http://www.w3.org/2000/svg" xmlns:xlink="http://www.w3.org/1999/xlink">
<g id="graph0" class="graph" transform="scale(1 1) rotate(0) translate(4 538)">
<title>G</title>
<polygon fill="white" stroke="transparent" points="-4,4 -4,-538 450.5,-538 450.5,4 -4,4"/>
<!-- node0 -->
<g id="node1" class="node">
<title>node0</title>
<polygon fill="none" stroke="black" points="36.5,-495.5 36.5,-533.5 137.5,-533.5 137.5,-495.5 36.5,-495.5"/>
<text text-anchor="start" x="44.5" y="-518.3" font-family="Times,serif" font-size="14.00">Let l0 =</text>
<text text-anchor="start" x="44.5" y="-503.3" font-family="Times,serif" font-size="14.00"> Constant ()</text>
</g>
<!-- node2 -->
<g id="node3" class="node">
<title>node2</title>
<polygon fill="none" stroke="black" points="168.5,-390.5 168.5,-443.5 437.5,-443.5 437.5,-390.5 168.5,-390.5"/>
<text text-anchor="start" x="176.5" y="-428.3" font-family="Times,serif" font-size="14.00">Let l1 =</text>
<text text-anchor="start" x="176.5" y="-413.3" font-family="Times,serif" font-size="14.00"> Join %0 %1</text>
<text text-anchor="start" x="176.5" y="-398.3" font-family="Times,serif" font-size="14.00"> implementation = Unimplemented</text>
</g>
<!-- node0&#45;&gt;node2 -->
<g id="edge5" class="edge">
<title>node0&#45;&gt;node2</title>
<path fill="none" stroke="black" d="M127.88,-495.42C158.31,-481.97 200.51,-463.31 235.86,-447.68"/>
<polygon fill="black" stroke="black" points="237.43,-450.82 245.16,-443.57 234.6,-444.42 237.43,-450.82"/>
<text text-anchor="start" x="202" y="-465.8" font-family="Times,serif" font-size="14.00">%0</text>
</g>
<!-- node3 -->
<g id="node4" class="node">
<title>node3</title>
<polygon fill="none" stroke="black" points="0,-390.5 0,-443.5 150,-443.5 150,-390.5 0,-390.5"/>
<text text-anchor="start" x="8" y="-428.3" font-family="Times,serif" font-size="14.00">Let l2 =</text>
<text text-anchor="start" x="8" y="-413.3" font-family="Times,serif" font-size="14.00"> Get %0 (l0)</text>
<text text-anchor="start" x="8" y="-398.3" font-family="Times,serif" font-size="14.00"> FlatMap wrap1(1)</text>
</g>
<!-- node0&#45;&gt;node3 -->
<g id="edge2" class="edge">
<title>node0&#45;&gt;node3</title>
<path fill="none" stroke="black" d="M84.69,-495.09C83.21,-483.31 81.24,-467.65 79.46,-453.52"/>
<polygon fill="black" stroke="black" points="82.93,-453.06 78.21,-443.58 75.99,-453.93 82.93,-453.06"/>
<text text-anchor="start" x="83" y="-465.8" font-family="Times,serif" font-size="14.00">%0</text>
</g>
<!-- node1 -->
<g id="node2" class="node">
<title>node1</title>
<polygon fill="none" stroke="black" points="159.5,-496.5 159.5,-532.5 446.5,-532.5 446.5,-496.5 159.5,-496.5"/>
<text text-anchor="start" x="167.5" y="-510.8" font-family="Times,serif" font-size="14.00">Get reduction_pushdown.public.r (u1)</text>
</g>
<!-- node1&#45;&gt;node2 -->
<g id="edge8" class="edge">
<title>node1&#45;&gt;node2</title>
<path fill="none" stroke="black" d="M303,-496.43C303,-484.6 303,-468.41 303,-453.82"/>
<polygon fill="black" stroke="black" points="306.5,-453.55 303,-443.55 299.5,-453.56 306.5,-453.55"/>
<text text-anchor="start" x="303" y="-465.8" font-family="Times,serif" font-size="14.00">%1</text>
</g>
<!-- node4 -->
<g id="node5" class="node">
<title>node4</title>
<polygon fill="none" stroke="black" points="54.5,-255.5 54.5,-338.5 323.5,-338.5 323.5,-255.5 54.5,-255.5"/>
<text text-anchor="start" x="62.5" y="-323.3" font-family="Times,serif" font-size="14.00">Let l3 =</text>
<text text-anchor="start" x="62.5" y="-308.3" font-family="Times,serif" font-size="14.00"> Join %2 %3</text>
<text text-anchor="start" x="62.5" y="-293.3" font-family="Times,serif" font-size="14.00"> implementation = Unimplemented</text>
<text text-anchor="start" x="62.5" y="-278.3" font-family="Times,serif" font-size="14.00"> Project (#0..#3)</text>
<text text-anchor="start" x="62.5" y="-263.3" font-family="Times,serif" font-size="14.00"> Filter (#0 = #3)</text>
</g>
<!-- node2&#45;&gt;node4 -->
<g id="edge6" class="edge">
<title>node2&#45;&gt;node4</title>
<path fill="none" stroke="black" d="M278.26,-390.4C265.77,-377.46 250.19,-361.34 235.57,-346.2"/>
<polygon fill="black" stroke="black" points="237.94,-343.62 228.48,-338.86 232.91,-348.49 237.94,-343.62"/>
<text text-anchor="start" x="260" y="-360.8" font-family="Times,serif" font-size="14.00">%2</text>
</g>
<!-- node3&#45;&gt;node4 -->
<g id="edge1" class="edge">
<title>node3&#45;&gt;node4</title>
<path fill="none" stroke="black" d="M99.74,-390.4C112.23,-377.46 127.81,-361.34 142.43,-346.2"/>
<polygon fill="black" stroke="black" points="145.09,-348.49 149.52,-338.86 140.06,-343.62 145.09,-348.49"/>
<text text-anchor="start" x="132" y="-360.8" font-family="Times,serif" font-size="14.00">%3</text>
</g>
<!-- node5 -->
<g id="node6" class="node">
<title>node5</title>
<polygon fill="none" stroke="black" points="82.5,-135.5 82.5,-203.5 249.5,-203.5 249.5,-135.5 82.5,-135.5"/>
<text text-anchor="start" x="90.5" y="-188.3" font-family="Times,serif" font-size="14.00">Let l4 =</text>
<text text-anchor="start" x="90.5" y="-173.3" font-family="Times,serif" font-size="14.00"> Get %4 (l3)</text>
<text text-anchor="start" x="90.5" y="-158.3" font-family="Times,serif" font-size="14.00"> Project (#0)</text>
<text text-anchor="start" x="90.5" y="-143.3" font-family="Times,serif" font-size="14.00"> Distinct group=(#0)</text>
</g>
<!-- node4&#45;&gt;node5 -->
<g id="edge4" class="edge">
<title>node4&#45;&gt;node5</title>
<path fill="none" stroke="black" d="M181.53,-255.25C179.09,-241.91 176.36,-227.04 173.89,-213.53"/>
<polygon fill="black" stroke="black" points="177.3,-212.72 172.05,-203.51 170.41,-213.98 177.3,-212.72"/>
<text text-anchor="start" x="178" y="-225.8" font-family="Times,serif" font-size="14.00">%4</text>
</g>
<!-- node6 -->
<g id="node7" class="node">
<title>node6</title>
<polygon fill="none" stroke="black" points="267,-150.5 267,-188.5 369,-188.5 369,-150.5 267,-150.5"/>
<text text-anchor="start" x="275" y="-173.3" font-family="Times,serif" font-size="14.00">Let l5 =</text>
<text text-anchor="start" x="275" y="-158.3" font-family="Times,serif" font-size="14.00"> Get %4 (l3)</text>
</g>
<!-- node4&#45;&gt;node6 -->
<g id="edge3" class="edge">
<title>node4&#45;&gt;node6</title>
<path fill="none" stroke="black" d="M230.88,-255.25C250.92,-235.76 274.28,-213.03 291.77,-196.02"/>
<polygon fill="black" stroke="black" points="294.63,-198.12 299.36,-188.64 289.75,-193.1 294.63,-198.12"/>
<text text-anchor="start" x="266" y="-225.8" font-family="Times,serif" font-size="14.00">%4</text>
</g>
<!-- node7 -->
<g id="node8" class="node">
<title>node7</title>
<polygon fill="none" stroke="black" points="189.5,-0.5 189.5,-83.5 446.5,-83.5 446.5,-0.5 189.5,-0.5"/>
<text text-anchor="start" x="197.5" y="-68.3" font-family="Times,serif" font-size="14.00">Get %6 (l5)</text>
<text text-anchor="start" x="197.5" y="-53.3" font-family="Times,serif" font-size="14.00"> Map (#1 / #2)</text>
<text text-anchor="start" x="197.5" y="-38.3" font-family="Times,serif" font-size="14.00"> Project (#0..#4)</text>
<text text-anchor="start" x="197.5" y="-23.3" font-family="Times,serif" font-size="14.00"> Project (#0..#2, #4)</text>
<text text-anchor="start" x="197.5" y="-8.3" font-family="Times,serif" font-size="14.00"> Distinct group=(#0, #1, #2, #3)</text>
</g>
<!-- node6&#45;&gt;node7 -->
<g id="edge7" class="edge">
<title>node6&#45;&gt;node7</title>
<path fill="none" stroke="black" d="M318,-150.25C318,-135.43 318,-113.79 318,-93.82"/>
<polygon fill="black" stroke="black" points="321.5,-93.57 318,-83.57 314.5,-93.57 321.5,-93.57"/>
<text text-anchor="start" x="318" y="-105.8" font-family="Times,serif" font-size="14.00">%6</text>
</g>
</g>
</svg>
