<?xml version="1.0" encoding="UTF-8" standalone="no"?>
<!DOCTYPE svg PUBLIC "-//W3C//DTD SVG 1.1//EN"
 "http://www.w3.org/Graphics/SVG/1.1/DTD/svg11.dtd">
<!-- Generated by graphviz version 2.43.0 (0)
 -->
<!-- Title: G Pages: 1 -->
<svg width="466pt" height="165pt"
 viewBox="0.00 0.00 465.50 165.00" xmlns="http://www.w3.org/2000/svg" xmlns:xlink="http://www.w3.org/1999/xlink">
<g id="graph0" class="graph" transform="scale(1 1) rotate(0) translate(4 161)">
<title>G</title>
<polygon fill="white" stroke="transparent" points="-4,4 -4,-161 461.5,-161 461.5,4 -4,4"/>
<!-- node0 -->
<g id="node1" class="node">
<title>node0</title>
<polygon fill="none" stroke="black" points="0,-120.5 0,-156.5 287,-156.5 287,-120.5 0,-120.5"/>
<text text-anchor="start" x="8" y="-134.8" font-family="Times,serif" font-size="14.00">Get reduction_pushdown.public.r (u1)</text>
</g>
<!-- node2 -->
<g id="node3" class="node">
<title>node2</title>
<polygon fill="none" stroke="black" points="144.5,-0.5 144.5,-68.5 380.5,-68.5 380.5,-0.5 144.5,-0.5"/>
<text text-anchor="start" x="152.5" y="-53.3" font-family="Times,serif" font-size="14.00">InnerJoin %0 %1 on (#0 = #3)</text>
<text text-anchor="start" x="152.5" y="-38.3" font-family="Times,serif" font-size="14.00"> Map (#1 / #2)</text>
<text text-anchor="start" x="152.5" y="-23.3" font-family="Times,serif" font-size="14.00"> Project (#0..#2, #4)</text>
<text text-anchor="start" x="152.5" y="-8.3" font-family="Times,serif" font-size="14.00"> Distinct</text>
</g>
<!-- node0&#45;&gt;node2 -->
<g id="edge2" class="edge">
<title>node0&#45;&gt;node2</title>
<path fill="none" stroke="black" d="M163.42,-120.43C177.78,-108.12 197.76,-90.99 216.02,-75.34"/>
<polygon fill="black" stroke="black" points="218.41,-77.9 223.73,-68.74 213.85,-72.59 218.41,-77.9"/>
<text text-anchor="start" x="199.5" y="-90.8" font-family="Times,serif" font-size="14.00">%0</text>
</g>
<!-- node1 -->
<g id="node2" class="node">
<title>node1</title>
<polygon fill="none" stroke="black" points="305.5,-120.5 305.5,-156.5 457.5,-156.5 457.5,-120.5 305.5,-120.5"/>
<text text-anchor="start" x="313.5" y="-134.8" font-family="Times,serif" font-size="14.00">CallTable wrap1(1)</text>
</g>
<!-- node1&#45;&gt;node2 -->
<g id="edge1" class="edge">
<title>node1&#45;&gt;node2</title>
<path fill="none" stroke="black" d="M361.58,-120.43C347.22,-108.12 327.24,-90.99 308.98,-75.34"/>
<polygon fill="black" stroke="black" points="311.15,-72.59 301.27,-68.74 306.59,-77.9 311.15,-72.59"/>
<text text-anchor="start" x="339.5" y="-90.8" font-family="Times,serif" font-size="14.00">%1</text>
</g>
</g>
</svg>
