<?xml version="1.0" encoding="UTF-8" standalone="no"?>
<!DOCTYPE svg PUBLIC "-//W3C//DTD SVG 1.1//EN"
 "http://www.w3.org/Graphics/SVG/1.1/DTD/svg11.dtd">
<!-- Generated by graphviz version 2.43.0 (0)
 -->
<!-- Title: G Pages: 1 -->
<svg width="707pt" height="962pt"
 viewBox="0.00 0.00 707.00 962.00" xmlns="http://www.w3.org/2000/svg" xmlns:xlink="http://www.w3.org/1999/xlink">
<g id="graph0" class="graph" transform="scale(1 1) rotate(0) translate(4 958)">
<title>G</title>
<polygon fill="white" stroke="transparent" points="-4,4 -4,-958 703,-958 703,4 -4,4"/>
<!-- node0 -->
<g id="node1" class="node">
<title>node0</title>
<polygon fill="none" stroke="black" points="36.5,-885.5 36.5,-953.5 137.5,-953.5 137.5,-885.5 36.5,-885.5"/>
<text text-anchor="start" x="44.5" y="-938.3" font-family="Times,serif" font-size="14.00">Let l0 =</text>
<text text-anchor="start" x="44.5" y="-923.3" font-family="Times,serif" font-size="14.00"> Constant ()</text>
<text text-anchor="start" x="44.5" y="-908.3" font-family="Times,serif" font-size="14.00"> types = ()</text>
<text text-anchor="start" x="44.5" y="-893.3" font-family="Times,serif" font-size="14.00"> keys = (())</text>
</g>
<!-- node2 -->
<g id="node3" class="node">
<title>node2</title>
<polygon fill="none" stroke="black" points="168.5,-735.5 168.5,-818.5 437.5,-818.5 437.5,-735.5 168.5,-735.5"/>
<text text-anchor="start" x="176.5" y="-803.3" font-family="Times,serif" font-size="14.00">Let l1 =</text>
<text text-anchor="start" x="176.5" y="-788.3" font-family="Times,serif" font-size="14.00"> Join %0 %1</text>
<text text-anchor="start" x="176.5" y="-773.3" font-family="Times,serif" font-size="14.00"> implementation = Unimplemented</text>
<text text-anchor="start" x="176.5" y="-758.3" font-family="Times,serif" font-size="14.00"> types = (integer, integer, integer)</text>
<text text-anchor="start" x="176.5" y="-743.3" font-family="Times,serif" font-size="14.00"> keys = ()</text>
</g>
<!-- node0&#45;&gt;node2 -->
<g id="edge5" class="edge">
<title>node0&#45;&gt;node2</title>
<path fill="none" stroke="black" d="M137.64,-885.56C165.79,-867.25 201.27,-844.17 232.14,-824.09"/>
<polygon fill="black" stroke="black" points="234.24,-826.9 240.72,-818.51 230.42,-821.03 234.24,-826.9"/>
<text text-anchor="start" x="189" y="-855.8" font-family="Times,serif" font-size="14.00">%0</text>
</g>
<!-- node3 -->
<g id="node4" class="node">
<title>node3</title>
<polygon fill="none" stroke="black" points="0,-720.5 0,-833.5 150,-833.5 150,-720.5 0,-720.5"/>
<text text-anchor="start" x="8" y="-818.3" font-family="Times,serif" font-size="14.00">Let l2 =</text>
<text text-anchor="start" x="8" y="-803.3" font-family="Times,serif" font-size="14.00"> Get %0 (l0)</text>
<text text-anchor="start" x="8" y="-788.3" font-family="Times,serif" font-size="14.00"> types = ()</text>
<text text-anchor="start" x="8" y="-773.3" font-family="Times,serif" font-size="14.00"> keys = (())</text>
<text text-anchor="start" x="8" y="-758.3" font-family="Times,serif" font-size="14.00"> FlatMap wrap1(1)</text>
<text text-anchor="start" x="8" y="-743.3" font-family="Times,serif" font-size="14.00"> types = (integer)</text>
<text text-anchor="start" x="8" y="-728.3" font-family="Times,serif" font-size="14.00"> keys = ()</text>
</g>
<!-- node0&#45;&gt;node3 -->
<g id="edge2" class="edge">
<title>node0&#45;&gt;node3</title>
<path fill="none" stroke="black" d="M84.16,-885.2C83.1,-872.8 81.85,-858.24 80.63,-843.92"/>
<polygon fill="black" stroke="black" points="84.09,-843.24 79.75,-833.58 77.11,-843.84 84.09,-843.24"/>
<text text-anchor="start" x="83" y="-855.8" font-family="Times,serif" font-size="14.00">%0</text>
</g>
<!-- node1 -->
<g id="node2" class="node">
<title>node1</title>
<polygon fill="none" stroke="black" points="159.5,-893 159.5,-946 446.5,-946 446.5,-893 159.5,-893"/>
<text text-anchor="start" x="167.5" y="-930.8" font-family="Times,serif" font-size="14.00">Get reduction_pushdown.public.r (u1)</text>
<text text-anchor="start" x="167.5" y="-915.8" font-family="Times,serif" font-size="14.00"> types = (integer, integer, integer)</text>
<text text-anchor="start" x="167.5" y="-900.8" font-family="Times,serif" font-size="14.00"> keys = ()</text>
</g>
<!-- node1&#45;&gt;node2 -->
<g id="edge8" class="edge">
<title>node1&#45;&gt;node2</title>
<path fill="none" stroke="black" d="M303,-892.73C303,-874.81 303,-850.34 303,-828.59"/>
<polygon fill="black" stroke="black" points="306.5,-828.5 303,-818.5 299.5,-828.5 306.5,-828.5"/>
<text text-anchor="start" x="303" y="-855.8" font-family="Times,serif" font-size="14.00">%1</text>
</g>
<!-- node4 -->
<g id="node5" class="node">
<title>node4</title>
<polygon fill="none" stroke="black" points="28.5,-495.5 28.5,-668.5 349.5,-668.5 349.5,-495.5 28.5,-495.5"/>
<text text-anchor="start" x="36.5" y="-653.3" font-family="Times,serif" font-size="14.00">Let l3 =</text>
<text text-anchor="start" x="36.5" y="-638.3" font-family="Times,serif" font-size="14.00"> Join %2 %3</text>
<text text-anchor="start" x="36.5" y="-623.3" font-family="Times,serif" font-size="14.00"> implementation = Unimplemented</text>
<text text-anchor="start" x="36.5" y="-608.3" font-family="Times,serif" font-size="14.00"> types = (integer, integer, integer, integer)</text>
<text text-anchor="start" x="36.5" y="-593.3" font-family="Times,serif" font-size="14.00"> keys = ()</text>
<text text-anchor="start" x="36.5" y="-578.3" font-family="Times,serif" font-size="14.00"> Project (#0..#3)</text>
<text text-anchor="start" x="36.5" y="-563.3" font-family="Times,serif" font-size="14.00"> types = (integer, integer, integer, integer)</text>
<text text-anchor="start" x="36.5" y="-548.3" font-family="Times,serif" font-size="14.00"> keys = ()</text>
<text text-anchor="start" x="36.5" y="-533.3" font-family="Times,serif" font-size="14.00"> Filter (#0 = #3)</text>
<text text-anchor="start" x="36.5" y="-518.3" font-family="Times,serif" font-size="14.00"> types = (integer, integer, integer, integer)</text>
<text text-anchor="start" x="36.5" y="-503.3" font-family="Times,serif" font-size="14.00"> keys = ()</text>
</g>
<!-- node2&#45;&gt;node4 -->
<g id="edge6" class="edge">
<title>node2&#45;&gt;node4</title>
<path fill="none" stroke="black" d="M278.82,-735.07C268.82,-718.13 256.76,-697.72 244.78,-677.43"/>
<polygon fill="black" stroke="black" points="247.75,-675.58 239.65,-668.75 241.72,-679.14 247.75,-675.58"/>
<text text-anchor="start" x="257" y="-690.8" font-family="Times,serif" font-size="14.00">%2</text>
</g>
<!-- node3&#45;&gt;node4 -->
<g id="edge1" class="edge">
<title>node3&#45;&gt;node4</title>
<path fill="none" stroke="black" d="M107.82,-720.44C115.79,-706.94 124.54,-692.13 133.25,-677.38"/>
<polygon fill="black" stroke="black" points="136.29,-679.11 138.37,-668.72 130.27,-675.55 136.29,-679.11"/>
<text text-anchor="start" x="126" y="-690.8" font-family="Times,serif" font-size="14.00">%3</text>
</g>
<!-- node5 -->
<g id="node6" class="node">
<title>node5</title>
<polygon fill="none" stroke="black" points="5.5,-285.5 5.5,-443.5 326.5,-443.5 326.5,-285.5 5.5,-285.5"/>
<text text-anchor="start" x="13.5" y="-428.3" font-family="Times,serif" font-size="14.00">Let l4 =</text>
<text text-anchor="start" x="13.5" y="-413.3" font-family="Times,serif" font-size="14.00"> Get %4 (l3)</text>
<text text-anchor="start" x="13.5" y="-398.3" font-family="Times,serif" font-size="14.00"> types = (integer, integer, integer, integer)</text>
<text text-anchor="start" x="13.5" y="-383.3" font-family="Times,serif" font-size="14.00"> keys = ()</text>
<text text-anchor="start" x="13.5" y="-368.3" font-family="Times,serif" font-size="14.00"> Project (#0)</text>
<text text-anchor="start" x="13.5" y="-353.3" font-family="Times,serif" font-size="14.00"> types = (integer)</text>
<text text-anchor="start" x="13.5" y="-338.3" font-family="Times,serif" font-size="14.00"> keys = ()</text>
<text text-anchor="start" x="13.5" y="-323.3" font-family="Times,serif" font-size="14.00"> Distinct group=(#0)</text>
<text text-anchor="start" x="13.5" y="-308.3" font-family="Times,serif" font-size="14.00"> types = (integer)</text>
<text text-anchor="start" x="13.5" y="-293.3" font-family="Times,serif" font-size="14.00"> keys = ((#0))</text>
</g>
<!-- node4&#45;&gt;node5 -->
<g id="edge4" class="edge">
<title>node4&#45;&gt;node5</title>
<path fill="none" stroke="black" d="M179.84,-495.21C178.4,-481.65 176.9,-467.6 175.44,-453.98"/>
<polygon fill="black" stroke="black" points="178.88,-453.23 174.34,-443.66 171.92,-453.97 178.88,-453.23"/>
<text text-anchor="start" x="178" y="-465.8" font-family="Times,serif" font-size="14.00">%4</text>
</g>
<!-- node6 -->
<g id="node7" class="node">
<title>node6</title>
<polygon fill="none" stroke="black" points="344.5,-330.5 344.5,-398.5 665.5,-398.5 665.5,-330.5 344.5,-330.5"/>
<text text-anchor="start" x="352.5" y="-383.3" font-family="Times,serif" font-size="14.00">Let l5 =</text>
<text text-anchor="start" x="352.5" y="-368.3" font-family="Times,serif" font-size="14.00"> Get %4 (l3)</text>
<text text-anchor="start" x="352.5" y="-353.3" font-family="Times,serif" font-size="14.00"> types = (integer, integer, integer, integer)</text>
<text text-anchor="start" x="352.5" y="-338.3" font-family="Times,serif" font-size="14.00"> keys = ()</text>
</g>
<!-- node4&#45;&gt;node6 -->
<g id="edge3" class="edge">
<title>node4&#45;&gt;node6</title>
<path fill="none" stroke="black" d="M314.8,-495.21C360.85,-463.81 410.71,-429.8 447.82,-404.49"/>
<polygon fill="black" stroke="black" points="450.2,-407.1 456.49,-398.58 446.26,-401.32 450.2,-407.1"/>
<text text-anchor="start" x="356" y="-465.8" font-family="Times,serif" font-size="14.00">%4</text>
</g>
<!-- node7 -->
<g id="node8" class="node">
<title>node7</title>
<polygon fill="none" stroke="black" points="311,-0.5 311,-233.5 699,-233.5 699,-0.5 311,-0.5"/>
<text text-anchor="start" x="319" y="-218.3" font-family="Times,serif" font-size="14.00">Get %6 (l5)</text>
<text text-anchor="start" x="319" y="-203.3" font-family="Times,serif" font-size="14.00"> types = (integer, integer, integer, integer)</text>
<text text-anchor="start" x="319" y="-188.3" font-family="Times,serif" font-size="14.00"> keys = ()</text>
<text text-anchor="start" x="319" y="-173.3" font-family="Times,serif" font-size="14.00"> Map (#1 / #2)</text>
<text text-anchor="start" x="319" y="-158.3" font-family="Times,serif" font-size="14.00"> types = (integer, integer, integer, integer, integer?)</text>
<text text-anchor="start" x="319" y="-143.3" font-family="Times,serif" font-size="14.00"> keys = ()</text>
<text text-anchor="start" x="319" y="-128.3" font-family="Times,serif" font-size="14.00"> Project (#0..#4)</text>
<text text-anchor="start" x="319" y="-113.3" font-family="Times,serif" font-size="14.00"> types = (integer, integer, integer, integer, integer?)</text>
<text text-anchor="start" x="319" y="-98.3" font-family="Times,serif" font-size="14.00"> keys = ()</text>
<text text-anchor="start" x="319" y="-83.3" font-family="Times,serif" font-size="14.00"> Project (#0..#2, #4)</text>
<text text-anchor="start" x="319" y="-68.3" font-family="Times,serif" font-size="14.00"> types = (integer, integer, integer, integer?)</text>
<text text-anchor="start" x="319" y="-53.3" font-family="Times,serif" font-size="14.00"> keys = ()</text>
<text text-anchor="start" x="319" y="-38.3" font-family="Times,serif" font-size="14.00"> Distinct group=(#0, #1, #2, #3)</text>
<text text-anchor="start" x="319" y="-23.3" font-family="Times,serif" font-size="14.00"> types = (integer, integer, integer, integer?)</text>
<text text-anchor="start" x="319" y="-8.3" font-family="Times,serif" font-size="14.00"> keys = ((#0..#3))</text>
</g>
<!-- node6&#45;&gt;node7 -->
<g id="edge7" class="edge">
<title>node6&#45;&gt;node7</title>
<path fill="none" stroke="black" d="M505,-330.39C505,-307.72 505,-276.07 505,-244.11"/>
<polygon fill="black" stroke="black" points="508.5,-243.74 505,-233.74 501.5,-243.74 508.5,-243.74"/>
<text text-anchor="start" x="505" y="-255.8" font-family="Times,serif" font-size="14.00">%6</text>
</g>
</g>
</svg>
