<?xml version="1.0" encoding="UTF-8" standalone="no"?>
<!DOCTYPE svg PUBLIC "-//W3C//DTD SVG 1.1//EN"
 "http://www.w3.org/Graphics/SVG/1.1/DTD/svg11.dtd">
<!-- Generated by graphviz version 2.43.0 (0)
 -->
<!-- Title: G Pages: 1 -->
<svg width="466pt" height="302pt"
 viewBox="0.00 0.00 465.50 302.00" xmlns="http://www.w3.org/2000/svg" xmlns:xlink="http://www.w3.org/1999/xlink">
<g id="graph0" class="graph" transform="scale(1 1) rotate(0) translate(4 298)">
<title>G</title>
<polygon fill="white" stroke="transparent" points="-4,4 -4,-298 461.5,-298 461.5,4 -4,4"/>
<!-- node0 -->
<g id="node1" class="node">
<title>node0</title>
<polygon fill="none" stroke="black" points="0,-240.5 0,-293.5 287,-293.5 287,-240.5 0,-240.5"/>
<text text-anchor="start" x="8" y="-278.3" font-family="Times,serif" font-size="14.00">Get reduction_pushdown.public.r (u1)</text>
<text text-anchor="start" x="8" y="-263.3" font-family="Times,serif" font-size="14.00"> types = (integer, integer, integer)</text>
<text text-anchor="start" x="8" y="-248.3" font-family="Times,serif" font-size="14.00"> keys = ()</text>
</g>
<!-- node2 -->
<g id="node3" class="node">
<title>node2</title>
<polygon fill="none" stroke="black" points="68.5,-0.5 68.5,-188.5 456.5,-188.5 456.5,-0.5 68.5,-0.5"/>
<text text-anchor="start" x="76.5" y="-173.3" font-family="Times,serif" font-size="14.00">InnerJoin %0 %1 on (#0 = #3)</text>
<text text-anchor="start" x="76.5" y="-158.3" font-family="Times,serif" font-size="14.00"> types = (integer, integer, integer, integer)</text>
<text text-anchor="start" x="76.5" y="-143.3" font-family="Times,serif" font-size="14.00"> keys = ()</text>
<text text-anchor="start" x="76.5" y="-128.3" font-family="Times,serif" font-size="14.00"> Map (#1 / #2)</text>
<text text-anchor="start" x="76.5" y="-113.3" font-family="Times,serif" font-size="14.00"> types = (integer, integer, integer, integer, integer?)</text>
<text text-anchor="start" x="76.5" y="-98.3" font-family="Times,serif" font-size="14.00"> keys = ()</text>
<text text-anchor="start" x="76.5" y="-83.3" font-family="Times,serif" font-size="14.00"> Project (#0..#2, #4)</text>
<text text-anchor="start" x="76.5" y="-68.3" font-family="Times,serif" font-size="14.00"> types = (integer, integer, integer, integer?)</text>
<text text-anchor="start" x="76.5" y="-53.3" font-family="Times,serif" font-size="14.00"> keys = ()</text>
<text text-anchor="start" x="76.5" y="-38.3" font-family="Times,serif" font-size="14.00"> Distinct</text>
<text text-anchor="start" x="76.5" y="-23.3" font-family="Times,serif" font-size="14.00"> types = (integer, integer, integer, integer?)</text>
<text text-anchor="start" x="76.5" y="-8.3" font-family="Times,serif" font-size="14.00"> keys = ()</text>
</g>
<!-- node0&#45;&gt;node2 -->
<g id="edge2" class="edge">
<title>node0&#45;&gt;node2</title>
<path fill="none" stroke="black" d="M161.32,-240.47C169.71,-228.45 180.32,-213.24 191.5,-197.22"/>
<polygon fill="black" stroke="black" points="194.54,-198.99 197.39,-188.79 188.8,-194.98 194.54,-198.99"/>
<text text-anchor="start" x="182.5" y="-210.8" font-family="Times,serif" font-size="14.00">%0</text>
</g>
<!-- node1 -->
<g id="node2" class="node">
<title>node1</title>
<polygon fill="none" stroke="black" points="305.5,-240.5 305.5,-293.5 457.5,-293.5 457.5,-240.5 305.5,-240.5"/>
<text text-anchor="start" x="313.5" y="-278.3" font-family="Times,serif" font-size="14.00">CallTable wrap1(1)</text>
<text text-anchor="start" x="313.5" y="-263.3" font-family="Times,serif" font-size="14.00"> types = (integer)</text>
<text text-anchor="start" x="313.5" y="-248.3" font-family="Times,serif" font-size="14.00"> keys = ()</text>
</g>
<!-- node1&#45;&gt;node2 -->
<g id="edge1" class="edge">
<title>node1&#45;&gt;node2</title>
<path fill="none" stroke="black" d="M363.68,-240.47C355.29,-228.45 344.68,-213.24 333.5,-197.22"/>
<polygon fill="black" stroke="black" points="336.2,-194.98 327.61,-188.79 330.46,-198.99 336.2,-194.98"/>
<text text-anchor="start" x="349.5" y="-210.8" font-family="Times,serif" font-size="14.00">%1</text>
</g>
</g>
</svg>
