<?xml version="1.0" encoding="UTF-8" standalone="no"?>
<!DOCTYPE svg PUBLIC "-//W3C//DTD SVG 1.1//EN"
 "http://www.w3.org/Graphics/SVG/1.1/DTD/svg11.dtd">
<!-- Generated by graphviz version 2.43.0 (0)
 -->
<!-- Title: G Pages: 1 -->
<svg width="1064pt" height="1970pt"
 viewBox="0.00 0.00 1064.00 1970.00" xmlns="http://www.w3.org/2000/svg" xmlns:xlink="http://www.w3.org/1999/xlink">
<g id="graph0" class="graph" transform="scale(1 1) rotate(0) translate(4 1966)">
<title>G</title>
<polygon fill="white" stroke="transparent" points="-4,4 -4,-1966 1060,-1966 1060,4 -4,4"/>
<!-- node0 -->
<g id="node1" class="node">
<title>node0</title>
<polygon fill="none" stroke="black" points="0,-1923.5 0,-1961.5 101,-1961.5 101,-1923.5 0,-1923.5"/>
<text text-anchor="start" x="8" y="-1946.3" font-family="Times,serif" font-size="14.00">Let l0 =</text>
<text text-anchor="start" x="8" y="-1931.3" font-family="Times,serif" font-size="14.00"> Constant ()</text>
</g>
<!-- node2 -->
<g id="node3" class="node">
<title>node2</title>
<polygon fill="none" stroke="black" points="1,-1818.5 1,-1871.5 270,-1871.5 270,-1818.5 1,-1818.5"/>
<text text-anchor="start" x="9" y="-1856.3" font-family="Times,serif" font-size="14.00">Let l1 =</text>
<text text-anchor="start" x="9" y="-1841.3" font-family="Times,serif" font-size="14.00"> Join %0 %1</text>
<text text-anchor="start" x="9" y="-1826.3" font-family="Times,serif" font-size="14.00"> implementation = Unimplemented</text>
</g>
<!-- node0&#45;&gt;node2 -->
<g id="edge18" class="edge">
<title>node0&#45;&gt;node2</title>
<path fill="none" stroke="black" d="M66.89,-1923.09C77.98,-1910.62 92.95,-1893.81 106.07,-1879.06"/>
<polygon fill="black" stroke="black" points="108.7,-1881.37 112.74,-1871.58 103.47,-1876.72 108.7,-1881.37"/>
<text text-anchor="start" x="96.5" y="-1893.8" font-family="Times,serif" font-size="14.00">%0</text>
</g>
<!-- node1 -->
<g id="node2" class="node">
<title>node1</title>
<polygon fill="none" stroke="black" points="119.5,-1924.5 119.5,-1960.5 323.5,-1960.5 323.5,-1924.5 119.5,-1924.5"/>
<text text-anchor="start" x="127.5" y="-1938.8" font-family="Times,serif" font-size="14.00">Get types.public.t2 (u141)</text>
</g>
<!-- node1&#45;&gt;node2 -->
<g id="edge4" class="edge">
<title>node1&#45;&gt;node2</title>
<path fill="none" stroke="black" d="M206.12,-1924.43C194.85,-1911.91 179.19,-1894.51 165.47,-1879.28"/>
<polygon fill="black" stroke="black" points="167.81,-1876.64 158.51,-1871.55 162.6,-1881.33 167.81,-1876.64"/>
<text text-anchor="start" x="185.5" y="-1893.8" font-family="Times,serif" font-size="14.00">%1</text>
</g>
<!-- node3 -->
<g id="node4" class="node">
<title>node3</title>
<polygon fill="none" stroke="black" points="148,-1713.5 148,-1766.5 345,-1766.5 345,-1713.5 148,-1713.5"/>
<text text-anchor="start" x="156" y="-1751.3" font-family="Times,serif" font-size="14.00">Let l2 =</text>
<text text-anchor="start" x="156" y="-1736.3" font-family="Times,serif" font-size="14.00"> Get %2 (l1)</text>
<text text-anchor="start" x="156" y="-1721.3" font-family="Times,serif" font-size="14.00"> Distinct group=(#0, #1)</text>
</g>
<!-- node2&#45;&gt;node3 -->
<g id="edge8" class="edge">
<title>node2&#45;&gt;node3</title>
<path fill="none" stroke="black" d="M163.22,-1818.27C177.79,-1804.76 195.8,-1788.05 211.34,-1773.63"/>
<polygon fill="black" stroke="black" points="213.8,-1776.12 218.75,-1766.75 209.03,-1770.99 213.8,-1776.12"/>
<text text-anchor="start" x="197.5" y="-1788.8" font-family="Times,serif" font-size="14.00">%2</text>
</g>
<!-- node24 -->
<g id="node25" class="node">
<title>node24</title>
<polygon fill="none" stroke="black" points="1,-0.5 1,-83.5 270,-83.5 270,-0.5 1,-0.5"/>
<text text-anchor="start" x="9" y="-68.3" font-family="Times,serif" font-size="14.00">Join %2 %23 (= #0 #2) (= #1 #3)</text>
<text text-anchor="start" x="9" y="-53.3" font-family="Times,serif" font-size="14.00"> implementation = Unimplemented</text>
<text text-anchor="start" x="9" y="-38.3" font-family="Times,serif" font-size="14.00"> Map #4</text>
<text text-anchor="start" x="9" y="-23.3" font-family="Times,serif" font-size="14.00"> Project (#0, #1, #5)</text>
<text text-anchor="start" x="9" y="-8.3" font-family="Times,serif" font-size="14.00"> Project (#2)</text>
</g>
<!-- node2&#45;&gt;node24 -->
<g id="edge3" class="edge">
<title>node2&#45;&gt;node24</title>
<path fill="none" stroke="black" d="M129.27,-1818.35C124.78,-1797.61 119.5,-1767.6 119.5,-1741 119.5,-1741 119.5,-1741 119.5,-161 119.5,-138.7 122.34,-114.25 125.63,-93.41"/>
<polygon fill="black" stroke="black" points="129.09,-93.94 127.27,-83.5 122.18,-92.8 129.09,-93.94"/>
<text text-anchor="start" x="119.5" y="-926.8" font-family="Times,serif" font-size="14.00">%2</text>
</g>
<!-- node4 -->
<g id="node5" class="node">
<title>node4</title>
<polygon fill="none" stroke="black" points="600,-1608.5 600,-1661.5 767,-1661.5 767,-1608.5 600,-1608.5"/>
<text text-anchor="start" x="608" y="-1646.3" font-family="Times,serif" font-size="14.00">Let l3 =</text>
<text text-anchor="start" x="608" y="-1631.3" font-family="Times,serif" font-size="14.00"> Get %3 (l2)</text>
<text text-anchor="start" x="608" y="-1616.3" font-family="Times,serif" font-size="14.00"> Distinct group=(#0)</text>
</g>
<!-- node3&#45;&gt;node4 -->
<g id="edge27" class="edge">
<title>node3&#45;&gt;node4</title>
<path fill="none" stroke="black" d="M345.12,-1715.76C418.45,-1698.47 517.87,-1675.04 589.96,-1658.05"/>
<polygon fill="black" stroke="black" points="591.01,-1661.4 599.94,-1655.69 589.41,-1654.58 591.01,-1661.4"/>
<text text-anchor="start" x="490.5" y="-1683.8" font-family="Times,serif" font-size="14.00">%3</text>
</g>
<!-- node23 -->
<g id="node24" class="node">
<title>node23</title>
<polygon fill="none" stroke="black" points="148,-135.5 148,-188.5 417,-188.5 417,-135.5 148,-135.5"/>
<text text-anchor="start" x="156" y="-173.3" font-family="Times,serif" font-size="14.00">Join %3 %22 (= #0 #2)</text>
<text text-anchor="start" x="156" y="-158.3" font-family="Times,serif" font-size="14.00"> implementation = Unimplemented</text>
<text text-anchor="start" x="156" y="-143.3" font-family="Times,serif" font-size="14.00"> Project (#0, #1, #3)</text>
</g>
<!-- node3&#45;&gt;node23 -->
<g id="edge30" class="edge">
<title>node3&#45;&gt;node23</title>
<path fill="none" stroke="black" d="M235.04,-1713.31C226.93,-1692.81 217.5,-1663.12 217.5,-1636 217.5,-1636 217.5,-1636 217.5,-257.5 217.5,-234.57 230.65,-213.15 245.12,-196.52"/>
<polygon fill="black" stroke="black" points="248.08,-198.47 252.28,-188.75 242.93,-193.73 248.08,-198.47"/>
<text text-anchor="start" x="217.5" y="-926.8" font-family="Times,serif" font-size="14.00">%3</text>
</g>
<!-- node6 -->
<g id="node7" class="node">
<title>node6</title>
<polygon fill="none" stroke="black" points="436,-1458.5 436,-1556.5 705,-1556.5 705,-1458.5 436,-1458.5"/>
<text text-anchor="start" x="444" y="-1541.3" font-family="Times,serif" font-size="14.00">Let l4 =</text>
<text text-anchor="start" x="444" y="-1526.3" font-family="Times,serif" font-size="14.00"> Join %4 %5</text>
<text text-anchor="start" x="444" y="-1511.3" font-family="Times,serif" font-size="14.00"> implementation = Unimplemented</text>
<text text-anchor="start" x="444" y="-1496.3" font-family="Times,serif" font-size="14.00"> Project (#0, #1)</text>
<text text-anchor="start" x="444" y="-1481.3" font-family="Times,serif" font-size="14.00"> Reduce group=(#0)</text>
<text text-anchor="start" x="444" y="-1466.3" font-family="Times,serif" font-size="14.00"> agg all(!(((#0 = #1) &amp;&amp; true)))</text>
</g>
<!-- node4&#45;&gt;node6 -->
<g id="edge11" class="edge">
<title>node4&#45;&gt;node6</title>
<path fill="none" stroke="black" d="M660.36,-1608.3C648.87,-1595.54 634.52,-1579.6 620.68,-1564.23"/>
<polygon fill="black" stroke="black" points="623.24,-1561.84 613.94,-1556.75 618.03,-1566.52 623.24,-1561.84"/>
<text text-anchor="start" x="643.5" y="-1578.8" font-family="Times,serif" font-size="14.00">%4</text>
</g>
<!-- node8 -->
<g id="node9" class="node">
<title>node8</title>
<polygon fill="none" stroke="black" points="343,-1401.5 343,-1439.5 510,-1439.5 510,-1401.5 343,-1401.5"/>
<text text-anchor="start" x="351" y="-1424.3" font-family="Times,serif" font-size="14.00">Get %4 (l3)</text>
<text text-anchor="start" x="351" y="-1409.3" font-family="Times,serif" font-size="14.00"> Distinct group=(#0)</text>
</g>
<!-- node4&#45;&gt;node8 -->
<g id="edge29" class="edge">
<title>node4&#45;&gt;node8</title>
<path fill="none" stroke="black" d="M599.9,-1619.85C533.52,-1606.72 448.48,-1585 427.5,-1557 404.41,-1526.18 410.44,-1479.37 417.79,-1449.62"/>
<polygon fill="black" stroke="black" points="421.2,-1450.43 420.4,-1439.87 414.44,-1448.62 421.2,-1450.43"/>
<text text-anchor="start" x="484.5" y="-1578.8" font-family="Times,serif" font-size="14.00">%4</text>
</g>
<!-- node10 -->
<g id="node11" class="node">
<title>node10</title>
<polygon fill="none" stroke="black" points="390,-1136.5 390,-1189.5 659,-1189.5 659,-1136.5 390,-1136.5"/>
<text text-anchor="start" x="398" y="-1174.3" font-family="Times,serif" font-size="14.00">Join %9 %4 (= #0 #1)</text>
<text text-anchor="start" x="398" y="-1159.3" font-family="Times,serif" font-size="14.00"> implementation = Unimplemented</text>
<text text-anchor="start" x="398" y="-1144.3" font-family="Times,serif" font-size="14.00"> Project (#0)</text>
</g>
<!-- node4&#45;&gt;node10 -->
<g id="edge1" class="edge">
<title>node4&#45;&gt;node10</title>
<path fill="none" stroke="black" d="M700.43,-1608.26C714.93,-1583.69 733.5,-1545.09 733.5,-1508.5 733.5,-1508.5 733.5,-1508.5 733.5,-1258.5 733.5,-1234.52 732.54,-1223.8 714.5,-1208 706.09,-1200.63 689.37,-1194.14 669.2,-1188.56"/>
<polygon fill="black" stroke="black" points="669.93,-1185.13 659.37,-1185.98 668.15,-1191.9 669.93,-1185.13"/>
<text text-anchor="start" x="733.5" y="-1352.3" font-family="Times,serif" font-size="14.00">%4</text>
</g>
<!-- node17 -->
<g id="node18" class="node">
<title>node17</title>
<polygon fill="none" stroke="black" points="748,-1401.5 748,-1439.5 915,-1439.5 915,-1401.5 748,-1401.5"/>
<text text-anchor="start" x="756" y="-1424.3" font-family="Times,serif" font-size="14.00">Get %4 (l3)</text>
<text text-anchor="start" x="756" y="-1409.3" font-family="Times,serif" font-size="14.00"> Distinct group=(#0)</text>
</g>
<!-- node4&#45;&gt;node17 -->
<g id="edge10" class="edge">
<title>node4&#45;&gt;node17</title>
<path fill="none" stroke="black" d="M727.28,-1608.37C734.58,-1602.89 741.66,-1596.72 747.5,-1590 784.68,-1547.22 810.03,-1485.1 822.52,-1449.45"/>
<polygon fill="black" stroke="black" points="825.92,-1450.31 825.84,-1439.72 819.3,-1448.05 825.92,-1450.31"/>
<text text-anchor="start" x="758.5" y="-1578.8" font-family="Times,serif" font-size="14.00">%4</text>
</g>
<!-- node19 -->
<g id="node20" class="node">
<title>node19</title>
<polygon fill="none" stroke="black" points="787,-418.5 787,-471.5 1056,-471.5 1056,-418.5 787,-418.5"/>
<text text-anchor="start" x="795" y="-456.3" font-family="Times,serif" font-size="14.00">Join %18 %4 (= #0 #1)</text>
<text text-anchor="start" x="795" y="-441.3" font-family="Times,serif" font-size="14.00"> implementation = Unimplemented</text>
<text text-anchor="start" x="795" y="-426.3" font-family="Times,serif" font-size="14.00"> Project (#0)</text>
</g>
<!-- node4&#45;&gt;node19 -->
<g id="edge19" class="edge">
<title>node4&#45;&gt;node19</title>
<path fill="none" stroke="black" d="M767.13,-1625.69C838.44,-1613.44 929.5,-1583.17 929.5,-1508.5 929.5,-1508.5 929.5,-1508.5 929.5,-540.5 929.5,-521.14 927.81,-499.62 925.99,-482.02"/>
<polygon fill="black" stroke="black" points="929.42,-481.18 924.85,-471.62 922.46,-481.94 929.42,-481.18"/>
<text text-anchor="start" x="929.5" y="-1016.8" font-family="Times,serif" font-size="14.00">%4</text>
</g>
<!-- node5 -->
<g id="node6" class="node">
<title>node5</title>
<polygon fill="none" stroke="black" points="259.5,-1617 259.5,-1653 463.5,-1653 463.5,-1617 259.5,-1617"/>
<text text-anchor="start" x="267.5" y="-1631.3" font-family="Times,serif" font-size="14.00">Get types.public.t1 (u139)</text>
</g>
<!-- node5&#45;&gt;node6 -->
<g id="edge15" class="edge">
<title>node5&#45;&gt;node6</title>
<path fill="none" stroke="black" d="M356.85,-1616.8C354.48,-1604.03 353.7,-1586.84 362.5,-1575 378.44,-1553.55 401.38,-1538.87 426.24,-1528.86"/>
<polygon fill="black" stroke="black" points="427.73,-1532.04 435.86,-1525.25 425.27,-1525.49 427.73,-1532.04"/>
<text text-anchor="start" x="362.5" y="-1578.8" font-family="Times,serif" font-size="14.00">%5</text>
</g>
<!-- node7 -->
<g id="node8" class="node">
<title>node7</title>
<polygon fill="none" stroke="black" points="475,-1329.5 475,-1382.5 642,-1382.5 642,-1329.5 475,-1329.5"/>
<text text-anchor="start" x="483" y="-1367.3" font-family="Times,serif" font-size="14.00">Get %6 (l4)</text>
<text text-anchor="start" x="483" y="-1352.3" font-family="Times,serif" font-size="14.00"> Distinct group=(#0)</text>
<text text-anchor="start" x="483" y="-1337.3" font-family="Times,serif" font-size="14.00"> Negate</text>
</g>
<!-- node6&#45;&gt;node7 -->
<g id="edge13" class="edge">
<title>node6&#45;&gt;node7</title>
<path fill="none" stroke="black" d="M566.64,-1458.37C564.93,-1437.1 562.96,-1412.52 561.38,-1392.89"/>
<polygon fill="black" stroke="black" points="564.86,-1392.52 560.57,-1382.84 557.89,-1393.08 564.86,-1392.52"/>
<text text-anchor="start" x="564.5" y="-1416.8" font-family="Times,serif" font-size="14.00">%6</text>
</g>
<!-- node13 -->
<g id="node14" class="node">
<title>node13</title>
<polygon fill="none" stroke="black" points="614,-956.5 614,-994.5 741,-994.5 741,-956.5 614,-956.5"/>
<text text-anchor="start" x="622" y="-979.3" font-family="Times,serif" font-size="14.00">Let l5 =</text>
<text text-anchor="start" x="622" y="-964.3" font-family="Times,serif" font-size="14.00"> Union %6 %12</text>
</g>
<!-- node6&#45;&gt;node13 -->
<g id="edge28" class="edge">
<title>node6&#45;&gt;node13</title>
<path fill="none" stroke="black" d="M634.48,-1458.24C661.79,-1431.87 687.5,-1396.55 687.5,-1357 687.5,-1357 687.5,-1357 687.5,-1064.5 687.5,-1044.38 684.89,-1021.84 682.33,-1004.61"/>
<polygon fill="black" stroke="black" points="685.78,-1003.97 680.77,-994.63 678.86,-1005.05 685.78,-1003.97"/>
<text text-anchor="start" x="687.5" y="-1211.8" font-family="Times,serif" font-size="14.00">%6</text>
</g>
<!-- node9 -->
<g id="node10" class="node">
<title>node9</title>
<polygon fill="none" stroke="black" points="468,-1241.5 468,-1277.5 581,-1277.5 581,-1241.5 468,-1241.5"/>
<text text-anchor="start" x="476" y="-1255.8" font-family="Times,serif" font-size="14.00">Union %7 %8</text>
</g>
<!-- node7&#45;&gt;node9 -->
<g id="edge9" class="edge">
<title>node7&#45;&gt;node9</title>
<path fill="none" stroke="black" d="M549.21,-1329.18C544.51,-1316.11 538.81,-1300.28 534.07,-1287.1"/>
<polygon fill="black" stroke="black" points="537.35,-1285.87 530.67,-1277.64 530.76,-1288.24 537.35,-1285.87"/>
<text text-anchor="start" x="542.5" y="-1299.8" font-family="Times,serif" font-size="14.00">%7</text>
</g>
<!-- node8&#45;&gt;node9 -->
<g id="edge21" class="edge">
<title>node8&#45;&gt;node9</title>
<path fill="none" stroke="black" d="M426.41,-1401.26C427.08,-1382.05 430.39,-1351.52 443.5,-1329 454.06,-1310.87 471.25,-1295.31 487.09,-1283.63"/>
<polygon fill="black" stroke="black" points="489.56,-1286.17 495.7,-1277.54 485.52,-1280.46 489.56,-1286.17"/>
<text text-anchor="start" x="443.5" y="-1352.3" font-family="Times,serif" font-size="14.00">%8</text>
</g>
<!-- node9&#45;&gt;node10 -->
<g id="edge12" class="edge">
<title>node9&#45;&gt;node10</title>
<path fill="none" stroke="black" d="M524.5,-1241.17C524.5,-1229.7 524.5,-1214.25 524.5,-1200.18"/>
<polygon fill="black" stroke="black" points="528,-1199.78 524.5,-1189.78 521,-1199.78 528,-1199.78"/>
<text text-anchor="start" x="524.5" y="-1211.8" font-family="Times,serif" font-size="14.00">%9</text>
</g>
<!-- node12 -->
<g id="node13" class="node">
<title>node12</title>
<polygon fill="none" stroke="black" points="390,-1046.5 390,-1084.5 659,-1084.5 659,-1046.5 390,-1046.5"/>
<text text-anchor="start" x="398" y="-1069.3" font-family="Times,serif" font-size="14.00">Join %10 %11</text>
<text text-anchor="start" x="398" y="-1054.3" font-family="Times,serif" font-size="14.00"> implementation = Unimplemented</text>
</g>
<!-- node10&#45;&gt;node12 -->
<g id="edge25" class="edge">
<title>node10&#45;&gt;node12</title>
<path fill="none" stroke="black" d="M524.5,-1136.41C524.5,-1123.63 524.5,-1108.13 524.5,-1094.98"/>
<polygon fill="black" stroke="black" points="528,-1094.6 524.5,-1084.6 521,-1094.6 528,-1094.6"/>
<text text-anchor="start" x="524.5" y="-1106.8" font-family="Times,serif" font-size="14.00">%10</text>
</g>
<!-- node11 -->
<g id="node12" class="node">
<title>node11</title>
<polygon fill="none" stroke="black" points="245.5,-1145 245.5,-1181 371.5,-1181 371.5,-1145 245.5,-1145"/>
<text text-anchor="start" x="253.5" y="-1159.3" font-family="Times,serif" font-size="14.00">Constant (true)</text>
</g>
<!-- node11&#45;&gt;node12 -->
<g id="edge6" class="edge">
<title>node11&#45;&gt;node12</title>
<path fill="none" stroke="black" d="M347.12,-1144.93C382.58,-1129.25 435.35,-1105.92 474.11,-1088.78"/>
<polygon fill="black" stroke="black" points="475.92,-1091.81 483.65,-1084.56 473.09,-1085.4 475.92,-1091.81"/>
<text text-anchor="start" x="435.5" y="-1106.8" font-family="Times,serif" font-size="14.00">%11</text>
</g>
<!-- node12&#45;&gt;node13 -->
<g id="edge20" class="edge">
<title>node12&#45;&gt;node13</title>
<path fill="none" stroke="black" d="M555.83,-1046.48C579.37,-1032.94 611.8,-1014.29 637.26,-999.64"/>
<polygon fill="black" stroke="black" points="639.02,-1002.67 645.95,-994.65 635.53,-996.6 639.02,-1002.67"/>
<text text-anchor="start" x="609.5" y="-1016.8" font-family="Times,serif" font-size="14.00">%12</text>
</g>
<!-- node14 -->
<g id="node15" class="node">
<title>node14</title>
<polygon fill="none" stroke="black" points="289,-806.5 289,-904.5 702,-904.5 702,-806.5 289,-806.5"/>
<text text-anchor="start" x="297" y="-889.3" font-family="Times,serif" font-size="14.00">Get %13 (l5)</text>
<text text-anchor="start" x="297" y="-874.3" font-family="Times,serif" font-size="14.00"> Reduce group=(#0)</text>
<text text-anchor="start" x="297" y="-859.3" font-family="Times,serif" font-size="14.00"> agg count(true)</text>
<text text-anchor="start" x="297" y="-844.3" font-family="Times,serif" font-size="14.00"> Filter (#1 &gt; 1)</text>
<text text-anchor="start" x="297" y="-829.3" font-family="Times,serif" font-size="14.00"> Project (#0)</text>
<text text-anchor="start" x="297" y="-814.3" font-family="Times,serif" font-size="14.00"> Map (err: more than one record produced in subquery)</text>
</g>
<!-- node13&#45;&gt;node14 -->
<g id="edge22" class="edge">
<title>node13&#45;&gt;node14</title>
<path fill="none" stroke="black" d="M649.46,-956.32C630.29,-943.89 603.81,-926.72 578.21,-910.12"/>
<polygon fill="black" stroke="black" points="579.86,-907.03 569.57,-904.52 576.06,-912.9 579.86,-907.03"/>
<text text-anchor="start" x="618.5" y="-926.8" font-family="Times,serif" font-size="14.00">%13</text>
</g>
<!-- node15 -->
<g id="node16" class="node">
<title>node15</title>
<polygon fill="none" stroke="black" points="576.5,-716.5 576.5,-754.5 712.5,-754.5 712.5,-716.5 576.5,-716.5"/>
<text text-anchor="start" x="584.5" y="-739.3" font-family="Times,serif" font-size="14.00">Let l6 =</text>
<text text-anchor="start" x="584.5" y="-724.3" font-family="Times,serif" font-size="14.00"> Union %13 %14</text>
</g>
<!-- node13&#45;&gt;node15 -->
<g id="edge32" class="edge">
<title>node13&#45;&gt;node15</title>
<path fill="none" stroke="black" d="M689.16,-956.48C697.21,-942.93 707.2,-923.58 711.5,-905 721.42,-862.13 727.97,-846.8 711.5,-806 704.47,-788.59 690.77,-773.11 677.58,-761.2"/>
<polygon fill="black" stroke="black" points="679.78,-758.49 669.92,-754.62 675.22,-763.79 679.78,-758.49"/>
<text text-anchor="start" x="721.5" y="-851.8" font-family="Times,serif" font-size="14.00">%13</text>
</g>
<!-- node14&#45;&gt;node15 -->
<g id="edge14" class="edge">
<title>node14&#45;&gt;node15</title>
<path fill="none" stroke="black" d="M556.53,-806.16C576.11,-790.66 596.96,-774.15 613.45,-761.09"/>
<polygon fill="black" stroke="black" points="615.98,-763.55 621.65,-754.6 611.64,-758.06 615.98,-763.55"/>
<text text-anchor="start" x="595.5" y="-776.8" font-family="Times,serif" font-size="14.00">%14</text>
</g>
<!-- node16 -->
<g id="node17" class="node">
<title>node16</title>
<polygon fill="none" stroke="black" points="637,-611.5 637,-664.5 804,-664.5 804,-611.5 637,-611.5"/>
<text text-anchor="start" x="645" y="-649.3" font-family="Times,serif" font-size="14.00">Get %15 (l6)</text>
<text text-anchor="start" x="645" y="-634.3" font-family="Times,serif" font-size="14.00"> Distinct group=(#0)</text>
<text text-anchor="start" x="645" y="-619.3" font-family="Times,serif" font-size="14.00"> Negate</text>
</g>
<!-- node15&#45;&gt;node16 -->
<g id="edge31" class="edge">
<title>node15&#45;&gt;node16</title>
<path fill="none" stroke="black" d="M659.15,-716.09C668.98,-703.74 682.21,-687.12 693.86,-672.47"/>
<polygon fill="black" stroke="black" points="696.66,-674.58 700.15,-664.58 691.18,-670.22 696.66,-674.58"/>
<text text-anchor="start" x="684.5" y="-686.8" font-family="Times,serif" font-size="14.00">%15</text>
</g>
<!-- node22 -->
<g id="node23" class="node">
<title>node22</title>
<polygon fill="none" stroke="black" points="543,-240.5 543,-276.5 674,-276.5 674,-240.5 543,-240.5"/>
<text text-anchor="start" x="551" y="-254.8" font-family="Times,serif" font-size="14.00">Union %15 %21</text>
</g>
<!-- node15&#45;&gt;node22 -->
<g id="edge5" class="edge">
<title>node15&#45;&gt;node22</title>
<path fill="none" stroke="black" d="M633.11,-716.24C622.56,-697.57 608.5,-667.35 608.5,-639 608.5,-639 608.5,-639 608.5,-346.5 608.5,-326.55 608.5,-304.03 608.5,-286.9"/>
<polygon fill="black" stroke="black" points="612,-286.5 608.5,-276.5 605,-286.5 612,-286.5"/>
<text text-anchor="start" x="608.5" y="-493.8" font-family="Times,serif" font-size="14.00">%15</text>
</g>
<!-- node18 -->
<g id="node19" class="node">
<title>node18</title>
<polygon fill="none" stroke="black" points="766,-523.5 766,-559.5 897,-559.5 897,-523.5 766,-523.5"/>
<text text-anchor="start" x="774" y="-537.8" font-family="Times,serif" font-size="14.00">Union %16 %17</text>
</g>
<!-- node16&#45;&gt;node18 -->
<g id="edge26" class="edge">
<title>node16&#45;&gt;node18</title>
<path fill="none" stroke="black" d="M747.9,-611.24C759.34,-600.72 772.88,-588.57 785.5,-578 790.16,-574.1 795.17,-570.07 800.11,-566.19"/>
<polygon fill="black" stroke="black" points="802.53,-568.74 808.29,-559.84 798.24,-563.21 802.53,-568.74"/>
<text text-anchor="start" x="785.5" y="-581.8" font-family="Times,serif" font-size="14.00">%16</text>
</g>
<!-- node17&#45;&gt;node18 -->
<g id="edge33" class="edge">
<title>node17&#45;&gt;node18</title>
<path fill="none" stroke="black" d="M831.5,-1401.18C831.5,-1378.48 831.5,-1338.64 831.5,-1304.5 831.5,-1304.5 831.5,-1304.5 831.5,-637 831.5,-614.37 831.5,-588.69 831.5,-569.82"/>
<polygon fill="black" stroke="black" points="835,-569.57 831.5,-559.57 828,-569.57 835,-569.57"/>
<text text-anchor="start" x="831.5" y="-1016.8" font-family="Times,serif" font-size="14.00">%17</text>
</g>
<!-- node18&#45;&gt;node19 -->
<g id="edge16" class="edge">
<title>node18&#45;&gt;node19</title>
<path fill="none" stroke="black" d="M848.01,-523.17C859.68,-510.92 875.68,-494.11 889.78,-479.3"/>
<polygon fill="black" stroke="black" points="892.59,-481.43 896.95,-471.78 887.52,-476.61 892.59,-481.43"/>
<text text-anchor="start" x="878.5" y="-493.8" font-family="Times,serif" font-size="14.00">%18</text>
</g>
<!-- node21 -->
<g id="node22" class="node">
<title>node21</title>
<polygon fill="none" stroke="black" points="637,-328.5 637,-366.5 906,-366.5 906,-328.5 637,-328.5"/>
<text text-anchor="start" x="645" y="-351.3" font-family="Times,serif" font-size="14.00">Join %19 %20</text>
<text text-anchor="start" x="645" y="-336.3" font-family="Times,serif" font-size="14.00"> implementation = Unimplemented</text>
</g>
<!-- node19&#45;&gt;node21 -->
<g id="edge17" class="edge">
<title>node19&#45;&gt;node21</title>
<path fill="none" stroke="black" d="M881.3,-418.41C858.63,-403.97 830.49,-386.06 808.38,-371.98"/>
<polygon fill="black" stroke="black" points="810.24,-369.01 799.92,-366.6 806.48,-374.92 810.24,-369.01"/>
<text text-anchor="start" x="850.5" y="-388.8" font-family="Times,serif" font-size="14.00">%19</text>
</g>
<!-- node20 -->
<g id="node21" class="node">
<title>node20</title>
<polygon fill="none" stroke="black" points="646,-427 646,-463 769,-463 769,-427 646,-427"/>
<text text-anchor="start" x="654" y="-441.3" font-family="Times,serif" font-size="14.00">Constant (null)</text>
</g>
<!-- node20&#45;&gt;node21 -->
<g id="edge24" class="edge">
<title>node20&#45;&gt;node21</title>
<path fill="none" stroke="black" d="M718.94,-426.93C728.53,-412.62 742.38,-391.95 753.46,-375.42"/>
<polygon fill="black" stroke="black" points="756.63,-376.98 759.29,-366.73 750.81,-373.08 756.63,-376.98"/>
<text text-anchor="start" x="744.5" y="-388.8" font-family="Times,serif" font-size="14.00">%20</text>
</g>
<!-- node21&#45;&gt;node22 -->
<g id="edge2" class="edge">
<title>node21&#45;&gt;node22</title>
<path fill="none" stroke="black" d="M737.73,-328.47C712.09,-314.79 676.73,-295.92 649.47,-281.37"/>
<polygon fill="black" stroke="black" points="651.04,-278.24 640.57,-276.62 647.74,-284.41 651.04,-278.24"/>
<text text-anchor="start" x="699.5" y="-298.8" font-family="Times,serif" font-size="14.00">%21</text>
</g>
<!-- node22&#45;&gt;node23 -->
<g id="edge7" class="edge">
<title>node22&#45;&gt;node23</title>
<path fill="none" stroke="black" d="M549.84,-240.5C502.72,-226.84 435.52,-207.36 380.29,-191.35"/>
<polygon fill="black" stroke="black" points="381.05,-187.92 370.47,-188.5 379.1,-194.65 381.05,-187.92"/>
<text text-anchor="start" x="483.5" y="-210.8" font-family="Times,serif" font-size="14.00">%22</text>
</g>
<!-- node23&#45;&gt;node24 -->
<g id="edge23" class="edge">
<title>node23&#45;&gt;node24</title>
<path fill="none" stroke="black" d="M250.6,-135.4C234.05,-122.11 213.31,-105.46 194,-89.96"/>
<polygon fill="black" stroke="black" points="196.11,-87.16 186.12,-83.63 191.73,-92.62 196.11,-87.16"/>
<text text-anchor="start" x="225.5" y="-105.8" font-family="Times,serif" font-size="14.00">%23</text>
</g>
</g>
</svg>
