<?xml version="1.0" encoding="UTF-8" standalone="no"?>
<!DOCTYPE svg PUBLIC "-//W3C//DTD SVG 1.1//EN"
 "http://www.w3.org/Graphics/SVG/1.1/DTD/svg11.dtd">
<!-- Generated by graphviz version 2.43.0 (0)
 -->
<!-- Title: G Pages: 1 -->
<svg width="605pt" height="1089pt"
 viewBox="0.00 0.00 605.00 1089.00" xmlns="http://www.w3.org/2000/svg" xmlns:xlink="http://www.w3.org/1999/xlink">
<g id="graph0" class="graph" transform="scale(1 1) rotate(0) translate(4 1085)">
<title>G</title>
<polygon fill="white" stroke="transparent" points="-4,4 -4,-1085 601,-1085 601,4 -4,4"/>
<!-- node0 -->
<g id="node1" class="node">
<title>node0</title>
<polygon fill="none" stroke="black" points="331,-1027.5 331,-1080.5 540,-1080.5 540,-1027.5 331,-1027.5"/>
<text text-anchor="start" x="339" y="-1065.3" font-family="Times,serif" font-size="14.00">Let l0 =</text>
<text text-anchor="start" x="339" y="-1050.3" font-family="Times,serif" font-size="14.00"> Get types.public.t2 (u141)</text>
<text text-anchor="start" x="339" y="-1035.3" font-family="Times,serif" font-size="14.00"> Project (#0)</text>
</g>
<!-- node1 -->
<g id="node2" class="node">
<title>node1</title>
<polygon fill="none" stroke="black" points="291,-922.5 291,-975.5 458,-975.5 458,-922.5 291,-922.5"/>
<text text-anchor="start" x="299" y="-960.3" font-family="Times,serif" font-size="14.00">Let l1 =</text>
<text text-anchor="start" x="299" y="-945.3" font-family="Times,serif" font-size="14.00"> Get %0 (l0)</text>
<text text-anchor="start" x="299" y="-930.3" font-family="Times,serif" font-size="14.00"> Distinct group=(#0)</text>
</g>
<!-- node0&#45;&gt;node1 -->
<g id="edge9" class="edge">
<title>node0&#45;&gt;node1</title>
<path fill="none" stroke="black" d="M420.26,-1027.27C412.62,-1014.37 403.26,-998.56 394.99,-984.61"/>
<polygon fill="black" stroke="black" points="397.86,-982.58 389.75,-975.75 391.84,-986.14 397.86,-982.58"/>
<text text-anchor="start" x="408.5" y="-997.8" font-family="Times,serif" font-size="14.00">%0</text>
</g>
<!-- node8 -->
<g id="node9" class="node">
<title>node8</title>
<polygon fill="none" stroke="black" points="429.5,-865.5 429.5,-903.5 563.5,-903.5 563.5,-865.5 429.5,-865.5"/>
<text text-anchor="start" x="437.5" y="-888.3" font-family="Times,serif" font-size="14.00">Get %0 (l0)</text>
<text text-anchor="start" x="437.5" y="-873.3" font-family="Times,serif" font-size="14.00"> ArrangeBy (#0)</text>
</g>
<!-- node0&#45;&gt;node8 -->
<g id="edge16" class="edge">
<title>node0&#45;&gt;node8</title>
<path fill="none" stroke="black" d="M446.86,-1027.2C453.24,-1012.34 461.16,-993.26 467.5,-976 475.14,-955.19 482.75,-931.29 488.26,-913.28"/>
<polygon fill="black" stroke="black" points="491.62,-914.27 491.16,-903.68 484.92,-912.24 491.62,-914.27"/>
<text text-anchor="start" x="459.5" y="-997.8" font-family="Times,serif" font-size="14.00">%0</text>
</g>
<!-- node2 -->
<g id="node3" class="node">
<title>node2</title>
<polygon fill="none" stroke="black" points="0,-808.5 0,-846.5 113,-846.5 113,-808.5 0,-808.5"/>
<text text-anchor="start" x="8" y="-831.3" font-family="Times,serif" font-size="14.00">Get %1 (l1)</text>
<text text-anchor="start" x="8" y="-816.3" font-family="Times,serif" font-size="14.00"> ArrangeBy ()</text>
</g>
<!-- node1&#45;&gt;node2 -->
<g id="edge5" class="edge">
<title>node1&#45;&gt;node2</title>
<path fill="none" stroke="black" d="M306.28,-922.36C248.95,-900.82 167.94,-870.38 113.89,-850.07"/>
<polygon fill="black" stroke="black" points="115.05,-846.76 104.46,-846.52 112.59,-853.32 115.05,-846.76"/>
<text text-anchor="start" x="252.5" y="-880.8" font-family="Times,serif" font-size="14.00">%1</text>
</g>
<!-- node6 -->
<g id="node7" class="node">
<title>node6</title>
<polygon fill="none" stroke="black" points="203,-478.5 203,-516.5 316,-516.5 316,-478.5 203,-478.5"/>
<text text-anchor="start" x="211" y="-501.3" font-family="Times,serif" font-size="14.00">Union %5 %1</text>
<text text-anchor="start" x="211" y="-486.3" font-family="Times,serif" font-size="14.00"> Map true</text>
</g>
<!-- node1&#45;&gt;node6 -->
<g id="edge10" class="edge">
<title>node1&#45;&gt;node6</title>
<path fill="none" stroke="black" d="M370.78,-922.42C367.58,-898.27 363.5,-861 363.5,-828.5 363.5,-828.5 363.5,-828.5 363.5,-594 363.5,-561.96 336.38,-537.74 309.84,-521.71"/>
<polygon fill="black" stroke="black" points="311.32,-518.52 300.9,-516.58 307.84,-524.59 311.32,-518.52"/>
<text text-anchor="start" x="363.5" y="-711.3" font-family="Times,serif" font-size="14.00">%1</text>
</g>
<!-- node10 -->
<g id="node11" class="node">
<title>node10</title>
<polygon fill="none" stroke="black" points="315,-193.5 315,-231.5 428,-231.5 428,-193.5 315,-193.5"/>
<text text-anchor="start" x="323" y="-216.3" font-family="Times,serif" font-size="14.00">Union %9 %1</text>
<text text-anchor="start" x="323" y="-201.3" font-family="Times,serif" font-size="14.00"> Map null</text>
</g>
<!-- node1&#45;&gt;node10 -->
<g id="edge11" class="edge">
<title>node1&#45;&gt;node10</title>
<path fill="none" stroke="black" d="M388.49,-922.25C400.02,-898.59 414.5,-862.19 414.5,-828.5 414.5,-828.5 414.5,-828.5 414.5,-309 414.5,-284.15 402.25,-258.62 390.83,-240.22"/>
<polygon fill="black" stroke="black" points="393.73,-238.26 385.34,-231.79 387.86,-242.08 393.73,-238.26"/>
<text text-anchor="start" x="414.5" y="-538.8" font-family="Times,serif" font-size="14.00">%1</text>
</g>
<!-- node4 -->
<g id="node5" class="node">
<title>node4</title>
<polygon fill="none" stroke="black" points="22,-673.5 22,-756.5 327,-756.5 327,-673.5 22,-673.5"/>
<text text-anchor="start" x="30" y="-741.3" font-family="Times,serif" font-size="14.00">Let l2 =</text>
<text text-anchor="start" x="30" y="-726.3" font-family="Times,serif" font-size="14.00"> Join %2 %3</text>
<text text-anchor="start" x="30" y="-711.3" font-family="Times,serif" font-size="14.00"> implementation = Differential %3 %2.()</text>
<text text-anchor="start" x="30" y="-696.3" font-family="Times,serif" font-size="14.00"> Reduce group=(#0)</text>
<text text-anchor="start" x="30" y="-681.3" font-family="Times,serif" font-size="14.00"> agg all((#0 != #1))</text>
</g>
<!-- node2&#45;&gt;node4 -->
<g id="edge1" class="edge">
<title>node2&#45;&gt;node4</title>
<path fill="none" stroke="black" d="M75.99,-808.25C88.93,-796.13 106.57,-779.62 123.34,-763.91"/>
<polygon fill="black" stroke="black" points="126.06,-766.15 130.97,-756.76 121.28,-761.04 126.06,-766.15"/>
<text text-anchor="start" x="108.5" y="-778.8" font-family="Times,serif" font-size="14.00">%2</text>
</g>
<!-- node3 -->
<g id="node4" class="node">
<title>node3</title>
<polygon fill="none" stroke="black" points="131.5,-808.5 131.5,-846.5 335.5,-846.5 335.5,-808.5 131.5,-808.5"/>
<text text-anchor="start" x="139.5" y="-831.3" font-family="Times,serif" font-size="14.00">Get types.public.t1 (u139)</text>
<text text-anchor="start" x="139.5" y="-816.3" font-family="Times,serif" font-size="14.00"> Project (#0)</text>
</g>
<!-- node3&#45;&gt;node4 -->
<g id="edge15" class="edge">
<title>node3&#45;&gt;node4</title>
<path fill="none" stroke="black" d="M223.76,-808.25C217.52,-796.57 209.1,-780.8 200.99,-765.61"/>
<polygon fill="black" stroke="black" points="204.06,-763.94 196.27,-756.76 197.89,-767.23 204.06,-763.94"/>
<text text-anchor="start" x="212.5" y="-778.8" font-family="Times,serif" font-size="14.00">%3</text>
</g>
<!-- node5 -->
<g id="node6" class="node">
<title>node5</title>
<polygon fill="none" stroke="black" points="203.5,-568.5 203.5,-621.5 311.5,-621.5 311.5,-568.5 203.5,-568.5"/>
<text text-anchor="start" x="211.5" y="-606.3" font-family="Times,serif" font-size="14.00">Get %4 (l2)</text>
<text text-anchor="start" x="211.5" y="-591.3" font-family="Times,serif" font-size="14.00"> Project (#0)</text>
<text text-anchor="start" x="211.5" y="-576.3" font-family="Times,serif" font-size="14.00"> Negate</text>
</g>
<!-- node4&#45;&gt;node5 -->
<g id="edge7" class="edge">
<title>node4&#45;&gt;node5</title>
<path fill="none" stroke="black" d="M203.06,-673.39C212.99,-659.28 224.01,-643.61 233.52,-630.09"/>
<polygon fill="black" stroke="black" points="236.64,-631.74 239.53,-621.54 230.92,-627.71 236.64,-631.74"/>
<text text-anchor="start" x="225.5" y="-643.8" font-family="Times,serif" font-size="14.00">%4</text>
</g>
<!-- node7 -->
<g id="node8" class="node">
<title>node7</title>
<polygon fill="none" stroke="black" points="195.5,-388.5 195.5,-426.5 313.5,-426.5 313.5,-388.5 195.5,-388.5"/>
<text text-anchor="start" x="203.5" y="-411.3" font-family="Times,serif" font-size="14.00">Let l3 =</text>
<text text-anchor="start" x="203.5" y="-396.3" font-family="Times,serif" font-size="14.00"> Union %4 %6</text>
</g>
<!-- node4&#45;&gt;node7 -->
<g id="edge3" class="edge">
<title>node4&#45;&gt;node7</title>
<path fill="none" stroke="black" d="M170.55,-673.38C167.46,-624.87 167.46,-542.24 194.5,-478 201.52,-461.33 214.1,-445.79 225.93,-433.64"/>
<polygon fill="black" stroke="black" points="228.48,-436.05 233.15,-426.54 223.57,-431.06 228.48,-436.05"/>
<text text-anchor="start" x="177.5" y="-538.8" font-family="Times,serif" font-size="14.00">%4</text>
</g>
<!-- node5&#45;&gt;node6 -->
<g id="edge8" class="edge">
<title>node5&#45;&gt;node6</title>
<path fill="none" stroke="black" d="M258.04,-568.41C258.3,-555.63 258.63,-540.13 258.9,-526.98"/>
<polygon fill="black" stroke="black" points="262.41,-526.67 259.12,-516.6 255.41,-526.52 262.41,-526.67"/>
<text text-anchor="start" x="258.5" y="-538.8" font-family="Times,serif" font-size="14.00">%5</text>
</g>
<!-- node6&#45;&gt;node7 -->
<g id="edge6" class="edge">
<title>node6&#45;&gt;node7</title>
<path fill="none" stroke="black" d="M258.46,-478.27C257.79,-466.35 256.89,-450.54 256.12,-436.98"/>
<polygon fill="black" stroke="black" points="259.6,-436.5 255.53,-426.71 252.61,-436.89 259.6,-436.5"/>
<text text-anchor="start" x="256.5" y="-448.8" font-family="Times,serif" font-size="14.00">%6</text>
</g>
<!-- node9 -->
<g id="node10" class="node">
<title>node9</title>
<polygon fill="none" stroke="black" points="278.5,-283.5 278.5,-336.5 386.5,-336.5 386.5,-283.5 278.5,-283.5"/>
<text text-anchor="start" x="286.5" y="-321.3" font-family="Times,serif" font-size="14.00">Get %7 (l3)</text>
<text text-anchor="start" x="286.5" y="-306.3" font-family="Times,serif" font-size="14.00"> Project (#0)</text>
<text text-anchor="start" x="286.5" y="-291.3" font-family="Times,serif" font-size="14.00"> Negate</text>
</g>
<!-- node7&#45;&gt;node9 -->
<g id="edge2" class="edge">
<title>node7&#45;&gt;node9</title>
<path fill="none" stroke="black" d="M269.54,-388.09C279.62,-375.74 293.2,-359.12 305.16,-344.47"/>
<polygon fill="black" stroke="black" points="308,-346.54 311.61,-336.58 302.57,-342.11 308,-346.54"/>
<text text-anchor="start" x="295.5" y="-358.8" font-family="Times,serif" font-size="14.00">%7</text>
</g>
<!-- node11 -->
<g id="node12" class="node">
<title>node11</title>
<polygon fill="none" stroke="black" points="310.5,-105.5 310.5,-141.5 432.5,-141.5 432.5,-105.5 310.5,-105.5"/>
<text text-anchor="start" x="318.5" y="-119.8" font-family="Times,serif" font-size="14.00">Union %7 %10</text>
</g>
<!-- node7&#45;&gt;node11 -->
<g id="edge14" class="edge">
<title>node7&#45;&gt;node11</title>
<path fill="none" stroke="black" d="M255.19,-388.22C256.45,-363.85 259.95,-319.57 269.5,-283 280.43,-241.16 282.99,-229.3 306.5,-193 316.98,-176.82 331.55,-161.05 344.23,-148.73"/>
<polygon fill="black" stroke="black" points="346.98,-150.94 351.84,-141.53 342.17,-145.86 346.98,-150.94"/>
<text text-anchor="start" x="277.5" y="-253.8" font-family="Times,serif" font-size="14.00">%7</text>
</g>
<!-- node12 -->
<g id="node13" class="node">
<title>node12</title>
<polygon fill="none" stroke="black" points="262,-0.5 262,-53.5 597,-53.5 597,-0.5 262,-0.5"/>
<text text-anchor="start" x="270" y="-38.3" font-family="Times,serif" font-size="14.00">Join %8 %11 (= #0 #1)</text>
<text text-anchor="start" x="270" y="-23.3" font-family="Times,serif" font-size="14.00"> implementation = Differential %11 %8.(#0)</text>
<text text-anchor="start" x="270" y="-8.3" font-family="Times,serif" font-size="14.00"> Project (#2)</text>
</g>
<!-- node8&#45;&gt;node12 -->
<g id="edge12" class="edge">
<title>node8&#45;&gt;node12</title>
<path fill="none" stroke="black" d="M490.02,-865.33C483.53,-845.49 474.5,-812.65 474.5,-783.5 474.5,-783.5 474.5,-783.5 474.5,-122.5 474.5,-101.15 465.02,-79.48 454.76,-62.3"/>
<polygon fill="black" stroke="black" points="457.66,-60.34 449.37,-53.74 451.74,-64.07 457.66,-60.34"/>
<text text-anchor="start" x="474.5" y="-448.8" font-family="Times,serif" font-size="14.00">%8</text>
</g>
<!-- node9&#45;&gt;node10 -->
<g id="edge4" class="edge">
<title>node9&#45;&gt;node10</title>
<path fill="none" stroke="black" d="M342.95,-283.41C348.27,-270.38 354.75,-254.51 360.19,-241.2"/>
<polygon fill="black" stroke="black" points="363.57,-242.18 364.11,-231.6 357.09,-239.53 363.57,-242.18"/>
<text text-anchor="start" x="354.5" y="-253.8" font-family="Times,serif" font-size="14.00">%9</text>
</g>
<!-- node10&#45;&gt;node11 -->
<g id="edge17" class="edge">
<title>node10&#45;&gt;node11</title>
<path fill="none" stroke="black" d="M371.5,-193.47C371.5,-181.46 371.5,-165.43 371.5,-151.86"/>
<polygon fill="black" stroke="black" points="375,-151.62 371.5,-141.62 368,-151.62 375,-151.62"/>
<text text-anchor="start" x="371.5" y="-163.8" font-family="Times,serif" font-size="14.00">%10</text>
</g>
<!-- node11&#45;&gt;node12 -->
<g id="edge13" class="edge">
<title>node11&#45;&gt;node12</title>
<path fill="none" stroke="black" d="M382.14,-105.17C389.45,-93.25 399.41,-77.03 408.31,-62.53"/>
<polygon fill="black" stroke="black" points="411.43,-64.13 413.68,-53.78 405.46,-60.47 411.43,-64.13"/>
<text text-anchor="start" x="401.5" y="-75.8" font-family="Times,serif" font-size="14.00">%11</text>
</g>
</g>
</svg>
