<?xml version="1.0" encoding="UTF-8" standalone="no"?>
<!DOCTYPE svg PUBLIC "-//W3C//DTD SVG 1.1//EN"
 "http://www.w3.org/Graphics/SVG/1.1/DTD/svg11.dtd">
<!-- Generated by graphviz version 2.43.0 (0)
 -->
<!-- Title: G Pages: 1 -->
<svg width="981pt" height="944pt"
 viewBox="0.00 0.00 981.00 944.47" xmlns="http://www.w3.org/2000/svg" xmlns:xlink="http://www.w3.org/1999/xlink">
<g id="graph0" class="graph" transform="scale(1 1) rotate(0) translate(4 940.47)">
<title>G</title>
<polygon fill="white" stroke="transparent" points="-4,4 -4,-940.47 977,-940.47 977,4 -4,4"/>
<g id="clust1" class="cluster">
<title>cluster7</title>
<polygon fill="none" stroke="black" points="711,-815.37 711,-928.47 965,-928.47 965,-815.37 711,-815.37"/>
<text text-anchor="middle" x="761.5" y="-913.27" font-family="Times,serif" font-size="14.00">Box7:Select</text>
</g>
<g id="clust3" class="cluster">
<title>cluster1</title>
<polygon fill="none" stroke="black" points="412,-664.37 412,-796.37 837,-796.37 837,-664.37 412,-664.37"/>
<text text-anchor="middle" x="462.5" y="-781.17" font-family="Times,serif" font-size="14.00">Box1:Select</text>
</g>
<g id="clust5" class="cluster">
<title>cluster0</title>
<polygon fill="none" stroke="black" points="308,-534.33 308,-643.33 470,-643.33 470,-534.33 308,-534.33"/>
<text text-anchor="middle" x="349.5" y="-628.13" font-family="Times,serif" font-size="14.00">Box0:Get</text>
</g>
<g id="clust7" class="cluster">
<title>cluster6</title>
<polygon fill="none" stroke="black" points="478,-532.28 478,-645.37 732,-645.37 732,-532.28 478,-532.28"/>
<text text-anchor="middle" x="528.5" y="-630.17" font-family="Times,serif" font-size="14.00">Box6:Select</text>
</g>
<g id="clust9" class="cluster">
<title>cluster5</title>
<polygon fill="none" stroke="black" points="350,-400.19 350,-513.28 604,-513.28 604,-400.19 350,-400.19"/>
<text text-anchor="middle" x="412" y="-498.08" font-family="Times,serif" font-size="14.00">Box5:Grouping</text>
</g>
<g id="clust11" class="cluster">
<title>cluster4</title>
<polygon fill="none" stroke="black" points="172,-268.09 172,-381.19 526,-381.19 526,-268.09 172,-268.09"/>
<text text-anchor="middle" x="222.5" y="-365.99" font-family="Times,serif" font-size="14.00">Box4:Select</text>
</g>
<g id="clust13" class="cluster">
<title>cluster3</title>
<polygon fill="none" stroke="black" points="44,-136 44,-249.09 298,-249.09 298,-136 44,-136"/>
<text text-anchor="middle" x="94.5" y="-233.89" font-family="Times,serif" font-size="14.00">Box3:Select</text>
</g>
<g id="clust15" class="cluster">
<title>cluster2</title>
<polygon fill="none" stroke="black" points="8,-8 8,-117 170,-117 170,-8 8,-8"/>
<text text-anchor="middle" x="49.5" y="-101.8" font-family="Times,serif" font-size="14.00">Box2:Get</text>
</g>
<!-- boxhead7 -->
<g id="node1" class="node">
<title>boxhead7</title>
<polygon fill="none" stroke="black" points="811,-837.42 811,-883.42 957,-883.42 957,-837.42 811,-837.42"/>
<text text-anchor="middle" x="884" y="-868.22" font-family="Times,serif" font-size="14.00">Distinct: Preserve</text>
<polyline fill="none" stroke="black" points="811,-860.42 957,-860.42 "/>
<text text-anchor="middle" x="884" y="-845.22" font-family="Times,serif" font-size="14.00">0: Q6.C2</text>
</g>
<!-- Q6 -->
<g id="node2" class="node">
<title>Q6</title>
<ellipse fill="none" stroke="black" cx="756" cy="-860.42" rx="37.09" ry="37.09"/>
<text text-anchor="middle" x="756" y="-856.72" font-family="Times,serif" font-size="14.00">Q6(F)</text>
</g>
<!-- boxhead1 -->
<g id="node3" class="node">
<title>boxhead1</title>
<polygon fill="none" stroke="black" points="683,-672.87 683,-764.87 829,-764.87 829,-672.87 683,-672.87"/>
<text text-anchor="middle" x="756" y="-749.67" font-family="Times,serif" font-size="14.00">Distinct: Preserve</text>
<polyline fill="none" stroke="black" points="683,-741.87 829,-741.87 "/>
<text text-anchor="middle" x="756" y="-726.67" font-family="Times,serif" font-size="14.00">0: Q0.C0</text>
<polyline fill="none" stroke="black" points="683,-718.87 829,-718.87 "/>
<text text-anchor="middle" x="756" y="-703.67" font-family="Times,serif" font-size="14.00">1: Q0.C1</text>
<polyline fill="none" stroke="black" points="683,-695.87 829,-695.87 "/>
<text text-anchor="middle" x="756" y="-680.67" font-family="Times,serif" font-size="14.00">2: Q5.C0</text>
</g>
<!-- Q6&#45;&gt;boxhead1 -->
<g id="edge2" class="edge">
<title>Q6&#45;&gt;boxhead1</title>
<path fill="none" stroke="black" stroke-dasharray="5,2" d="M756,-823.12C756,-814.81 756,-805.67 756,-796.37"/>
</g>
<!-- Q0 -->
<g id="node4" class="node">
<title>Q0</title>
<ellipse fill="none" stroke="black" cx="457" cy="-718.87" rx="37.09" ry="37.09"/>
<text text-anchor="middle" x="457" y="-715.17" font-family="Times,serif" font-size="14.00">Q0(F)</text>
</g>
<!-- boxhead0 -->
<g id="node6" class="node">
<title>boxhead0</title>
<polygon fill="none" stroke="black" points="316,-542.83 316,-611.83 462,-611.83 462,-542.83 316,-542.83"/>
<text text-anchor="middle" x="389" y="-596.63" font-family="Times,serif" font-size="14.00">Distinct: Preserve</text>
<polyline fill="none" stroke="black" points="316,-588.83 462,-588.83 "/>
<text text-anchor="middle" x="389" y="-573.63" font-family="Times,serif" font-size="14.00">0: C0</text>
<polyline fill="none" stroke="black" points="316,-565.83 462,-565.83 "/>
<text text-anchor="middle" x="389" y="-550.63" font-family="Times,serif" font-size="14.00">1: C1</text>
</g>
<!-- Q0&#45;&gt;boxhead0 -->
<g id="edge3" class="edge">
<title>Q0&#45;&gt;boxhead0</title>
<path fill="none" stroke="black" stroke-dasharray="5,2" d="M441.06,-685.16C434.95,-672.62 427.74,-657.83 420.67,-643.33"/>
</g>
<!-- Q5 -->
<g id="node5" class="node">
<title>Q5</title>
<ellipse fill="none" stroke="black" cx="628" cy="-718.87" rx="37.09" ry="37.09"/>
<text text-anchor="middle" x="628" y="-715.17" font-family="Times,serif" font-size="14.00">Q5(S)</text>
</g>
<!-- Q5&#45;&gt;Q0 -->
<g id="edge1" class="edge">
<title>Q5&#45;&gt;Q0</title>
<path fill="none" stroke="red" d="M590.67,-718.87C565.28,-718.87 531.47,-718.87 504.2,-718.87"/>
<polygon fill="red" stroke="red" points="504.1,-715.37 494.1,-718.87 504.1,-722.37 504.1,-715.37"/>
<text text-anchor="middle" x="542.5" y="-725.67" font-family="Times,serif" font-size="14.00">correlation</text>
</g>
<!-- boxhead6 -->
<g id="node7" class="node">
<title>boxhead6</title>
<polygon fill="none" stroke="black" points="578,-554.33 578,-600.33 724,-600.33 724,-554.33 578,-554.33"/>
<text text-anchor="middle" x="651" y="-585.13" font-family="Times,serif" font-size="14.00">Distinct: Preserve</text>
<polyline fill="none" stroke="black" points="578,-577.33 724,-577.33 "/>
<text text-anchor="middle" x="651" y="-562.13" font-family="Times,serif" font-size="14.00">0: Q4.C0</text>
</g>
<!-- Q5&#45;&gt;boxhead6 -->
<g id="edge4" class="edge">
<title>Q5&#45;&gt;boxhead6</title>
<path fill="none" stroke="black" stroke-dasharray="5,2" d="M633.92,-681.94C635.77,-670.73 637.87,-657.99 639.95,-645.37"/>
</g>
<!-- Q4 -->
<g id="node8" class="node">
<title>Q4</title>
<ellipse fill="none" stroke="black" cx="523" cy="-577.33" rx="37.09" ry="37.09"/>
<text text-anchor="middle" x="523" y="-573.63" font-family="Times,serif" font-size="14.00">Q4(F)</text>
</g>
<!-- boxhead5 -->
<g id="node9" class="node">
<title>boxhead5</title>
<polygon fill="none" stroke="black" points="450,-422.23 450,-468.23 596,-468.23 596,-422.23 450,-422.23"/>
<text text-anchor="middle" x="523" y="-453.03" font-family="Times,serif" font-size="14.00">Distinct: Preserve</text>
<polyline fill="none" stroke="black" points="450,-445.23 596,-445.23 "/>
<text text-anchor="middle" x="523" y="-430.03" font-family="Times,serif" font-size="14.00">0: all(Q3.C0)</text>
</g>
<!-- Q4&#45;&gt;boxhead5 -->
<g id="edge5" class="edge">
<title>Q4&#45;&gt;boxhead5</title>
<path fill="none" stroke="black" stroke-dasharray="5,2" d="M523,-540.09C523,-531.7 523,-522.52 523,-513.28"/>
</g>
<!-- Q3 -->
<g id="node10" class="node">
<title>Q3</title>
<ellipse fill="none" stroke="black" cx="395" cy="-445.23" rx="37.09" ry="37.09"/>
<text text-anchor="middle" x="395" y="-441.53" font-family="Times,serif" font-size="14.00">Q3(F)</text>
</g>
<!-- boxhead4 -->
<g id="node11" class="node">
<title>boxhead4</title>
<polygon fill="none" stroke="black" points="272,-290.14 272,-336.14 518,-336.14 518,-290.14 272,-290.14"/>
<text text-anchor="middle" x="395" y="-320.94" font-family="Times,serif" font-size="14.00">Distinct: Preserve</text>
<polyline fill="none" stroke="black" points="272,-313.14 518,-313.14 "/>
<text text-anchor="middle" x="395" y="-297.94" font-family="Times,serif" font-size="14.00">0: !(((Q0.C0 = Q2.C0) &amp;&amp; true))</text>
</g>
<!-- Q3&#45;&gt;boxhead4 -->
<g id="edge6" class="edge">
<title>Q3&#45;&gt;boxhead4</title>
<path fill="none" stroke="black" stroke-dasharray="5,2" d="M395,-408C395,-399.61 395,-390.42 395,-381.18"/>
</g>
<!-- Q2 -->
<g id="node12" class="node">
<title>Q2</title>
<ellipse fill="none" stroke="black" cx="217" cy="-313.14" rx="37.09" ry="37.09"/>
<text text-anchor="middle" x="217" y="-309.44" font-family="Times,serif" font-size="14.00">Q2(F)</text>
</g>
<!-- boxhead3 -->
<g id="node13" class="node">
<title>boxhead3</title>
<polygon fill="none" stroke="black" points="144,-158.05 144,-204.05 290,-204.05 290,-158.05 144,-158.05"/>
<text text-anchor="middle" x="217" y="-188.85" font-family="Times,serif" font-size="14.00">Distinct: Preserve</text>
<polyline fill="none" stroke="black" points="144,-181.05 290,-181.05 "/>
<text text-anchor="middle" x="217" y="-165.85" font-family="Times,serif" font-size="14.00">0: Q1.C0</text>
</g>
<!-- Q2&#45;&gt;boxhead3 -->
<g id="edge7" class="edge">
<title>Q2&#45;&gt;boxhead3</title>
<path fill="none" stroke="black" stroke-dasharray="5,2" d="M217,-275.9C217,-267.52 217,-258.33 217,-249.09"/>
</g>
<!-- Q1 -->
<g id="node14" class="node">
<title>Q1</title>
<ellipse fill="none" stroke="black" cx="89" cy="-181.05" rx="37.09" ry="37.09"/>
<text text-anchor="middle" x="89" y="-177.35" font-family="Times,serif" font-size="14.00">Q1(F)</text>
</g>
<!-- boxhead2 -->
<g id="node15" class="node">
<title>boxhead2</title>
<polygon fill="none" stroke="black" points="16,-16.5 16,-85.5 162,-85.5 162,-16.5 16,-16.5"/>
<text text-anchor="middle" x="89" y="-70.3" font-family="Times,serif" font-size="14.00">Distinct: Preserve</text>
<polyline fill="none" stroke="black" points="16,-62.5 162,-62.5 "/>
<text text-anchor="middle" x="89" y="-47.3" font-family="Times,serif" font-size="14.00">0: C0</text>
<polyline fill="none" stroke="black" points="16,-39.5 162,-39.5 "/>
<text text-anchor="middle" x="89" y="-24.3" font-family="Times,serif" font-size="14.00">1: C1</text>
</g>
<!-- Q1&#45;&gt;boxhead2 -->
<g id="edge8" class="edge">
<title>Q1&#45;&gt;boxhead2</title>
<path fill="none" stroke="black" stroke-dasharray="5,2" d="M89,-143.7C89,-135.33 89,-126.18 89,-117"/>
</g>
</g>
</svg>
