<?xml version="1.0" encoding="UTF-8" standalone="no"?>
<!DOCTYPE svg PUBLIC "-//W3C//DTD SVG 1.1//EN"
 "http://www.w3.org/Graphics/SVG/1.1/DTD/svg11.dtd">
<!-- Generated by graphviz version 2.43.0 (0)
 -->
<!-- Title: G Pages: 1 -->
<svg width="635pt" height="1796pt"
 viewBox="0.00 0.00 635.00 1796.00" xmlns="http://www.w3.org/2000/svg" xmlns:xlink="http://www.w3.org/1999/xlink">
<g id="graph0" class="graph" transform="scale(1 1) rotate(0) translate(4 1792)">
<title>G</title>
<polygon fill="white" stroke="transparent" points="-4,4 -4,-1792 631,-1792 631,4 -4,4"/>
<!-- node0 -->
<g id="node1" class="node">
<title>node0</title>
<polygon fill="none" stroke="black" points="379,-1674.5 379,-1787.5 598,-1787.5 598,-1674.5 379,-1674.5"/>
<text text-anchor="start" x="387" y="-1772.3" font-family="Times,serif" font-size="14.00">Let l0 =</text>
<text text-anchor="start" x="387" y="-1757.3" font-family="Times,serif" font-size="14.00"> Get types.public.t2 (u141)</text>
<text text-anchor="start" x="387" y="-1742.3" font-family="Times,serif" font-size="14.00"> types = (integer?, integer?)</text>
<text text-anchor="start" x="387" y="-1727.3" font-family="Times,serif" font-size="14.00"> keys = ()</text>
<text text-anchor="start" x="387" y="-1712.3" font-family="Times,serif" font-size="14.00"> Project (#0)</text>
<text text-anchor="start" x="387" y="-1697.3" font-family="Times,serif" font-size="14.00"> types = (integer?)</text>
<text text-anchor="start" x="387" y="-1682.3" font-family="Times,serif" font-size="14.00"> keys = ()</text>
</g>
<!-- node1 -->
<g id="node2" class="node">
<title>node1</title>
<polygon fill="none" stroke="black" points="341,-1509.5 341,-1622.5 508,-1622.5 508,-1509.5 341,-1509.5"/>
<text text-anchor="start" x="349" y="-1607.3" font-family="Times,serif" font-size="14.00">Let l1 =</text>
<text text-anchor="start" x="349" y="-1592.3" font-family="Times,serif" font-size="14.00"> Get %0 (l0)</text>
<text text-anchor="start" x="349" y="-1577.3" font-family="Times,serif" font-size="14.00"> types = (integer?)</text>
<text text-anchor="start" x="349" y="-1562.3" font-family="Times,serif" font-size="14.00"> keys = ()</text>
<text text-anchor="start" x="349" y="-1547.3" font-family="Times,serif" font-size="14.00"> Distinct group=(#0)</text>
<text text-anchor="start" x="349" y="-1532.3" font-family="Times,serif" font-size="14.00"> types = (integer?)</text>
<text text-anchor="start" x="349" y="-1517.3" font-family="Times,serif" font-size="14.00"> keys = ((#0))</text>
</g>
<!-- node0&#45;&gt;node1 -->
<g id="edge9" class="edge">
<title>node0&#45;&gt;node1</title>
<path fill="none" stroke="black" d="M466.65,-1674.36C461.33,-1660.8 455.58,-1646.17 450.1,-1632.2"/>
<polygon fill="black" stroke="black" points="453.27,-1630.69 446.36,-1622.67 446.75,-1633.25 453.27,-1630.69"/>
<text text-anchor="start" x="457.5" y="-1644.8" font-family="Times,serif" font-size="14.00">%0</text>
</g>
<!-- node8 -->
<g id="node9" class="node">
<title>node8</title>
<polygon fill="none" stroke="black" points="476,-1392.5 476,-1490.5 627,-1490.5 627,-1392.5 476,-1392.5"/>
<text text-anchor="start" x="484" y="-1475.3" font-family="Times,serif" font-size="14.00">Get %0 (l0)</text>
<text text-anchor="start" x="484" y="-1460.3" font-family="Times,serif" font-size="14.00"> types = (integer?)</text>
<text text-anchor="start" x="484" y="-1445.3" font-family="Times,serif" font-size="14.00"> keys = ()</text>
<text text-anchor="start" x="484" y="-1430.3" font-family="Times,serif" font-size="14.00"> ArrangeBy (#0)</text>
<text text-anchor="start" x="484" y="-1415.3" font-family="Times,serif" font-size="14.00"> types = (integer?)</text>
<text text-anchor="start" x="484" y="-1400.3" font-family="Times,serif" font-size="14.00"> keys = ()</text>
</g>
<!-- node0&#45;&gt;node8 -->
<g id="edge16" class="edge">
<title>node0&#45;&gt;node8</title>
<path fill="none" stroke="black" d="M504.46,-1674.4C508.95,-1657.92 513.65,-1639.79 517.5,-1623 526.81,-1582.41 535.47,-1536.25 541.72,-1500.77"/>
<polygon fill="black" stroke="black" points="545.22,-1501.05 543.5,-1490.6 538.33,-1499.85 545.22,-1501.05"/>
<text text-anchor="start" x="512.5" y="-1644.8" font-family="Times,serif" font-size="14.00">%0</text>
</g>
<!-- node2 -->
<g id="node3" class="node">
<title>node2</title>
<polygon fill="none" stroke="black" points="0,-1275.5 0,-1373.5 151,-1373.5 151,-1275.5 0,-1275.5"/>
<text text-anchor="start" x="8" y="-1358.3" font-family="Times,serif" font-size="14.00">Get %1 (l1)</text>
<text text-anchor="start" x="8" y="-1343.3" font-family="Times,serif" font-size="14.00"> types = (integer?)</text>
<text text-anchor="start" x="8" y="-1328.3" font-family="Times,serif" font-size="14.00"> keys = ((#0))</text>
<text text-anchor="start" x="8" y="-1313.3" font-family="Times,serif" font-size="14.00"> ArrangeBy ()</text>
<text text-anchor="start" x="8" y="-1298.3" font-family="Times,serif" font-size="14.00"> types = (integer?)</text>
<text text-anchor="start" x="8" y="-1283.3" font-family="Times,serif" font-size="14.00"> keys = ((#0))</text>
</g>
<!-- node1&#45;&gt;node2 -->
<g id="edge5" class="edge">
<title>node1&#45;&gt;node2</title>
<path fill="none" stroke="black" d="M343.56,-1509.45C286.57,-1470.35 210.7,-1418.28 154.22,-1379.52"/>
<polygon fill="black" stroke="black" points="155.9,-1376.43 145.68,-1373.66 151.94,-1382.2 155.9,-1376.43"/>
<text text-anchor="start" x="311.5" y="-1437.8" font-family="Times,serif" font-size="14.00">%1</text>
</g>
<!-- node6 -->
<g id="node7" class="node">
<title>node6</title>
<polygon fill="none" stroke="black" points="162,-735.5 162,-833.5 377,-833.5 377,-735.5 162,-735.5"/>
<text text-anchor="start" x="170" y="-818.3" font-family="Times,serif" font-size="14.00">Union %5 %1</text>
<text text-anchor="start" x="170" y="-803.3" font-family="Times,serif" font-size="14.00"> types = (integer?)</text>
<text text-anchor="start" x="170" y="-788.3" font-family="Times,serif" font-size="14.00"> keys = ()</text>
<text text-anchor="start" x="170" y="-773.3" font-family="Times,serif" font-size="14.00"> Map true</text>
<text text-anchor="start" x="170" y="-758.3" font-family="Times,serif" font-size="14.00"> types = (integer?, boolean)</text>
<text text-anchor="start" x="170" y="-743.3" font-family="Times,serif" font-size="14.00"> keys = ()</text>
</g>
<!-- node1&#45;&gt;node6 -->
<g id="edge10" class="edge">
<title>node1&#45;&gt;node6</title>
<path fill="none" stroke="black" d="M419.04,-1509.41C414.75,-1460.91 409.5,-1388.62 409.5,-1325.5 409.5,-1325.5 409.5,-1325.5 409.5,-956 409.5,-923.33 408.18,-912.47 390.5,-885 379.91,-868.55 365.71,-853.48 350.77,-840.32"/>
<polygon fill="black" stroke="black" points="352.78,-837.44 342.9,-833.62 348.24,-842.77 352.78,-837.44"/>
<text text-anchor="start" x="409.5" y="-1148.3" font-family="Times,serif" font-size="14.00">%1</text>
</g>
<!-- node10 -->
<g id="node11" class="node">
<title>node10</title>
<polygon fill="none" stroke="black" points="257,-270.5 257,-368.5 480,-368.5 480,-270.5 257,-270.5"/>
<text text-anchor="start" x="265" y="-353.3" font-family="Times,serif" font-size="14.00">Union %9 %1</text>
<text text-anchor="start" x="265" y="-338.3" font-family="Times,serif" font-size="14.00"> types = (integer?)</text>
<text text-anchor="start" x="265" y="-323.3" font-family="Times,serif" font-size="14.00"> keys = ()</text>
<text text-anchor="start" x="265" y="-308.3" font-family="Times,serif" font-size="14.00"> Map null</text>
<text text-anchor="start" x="265" y="-293.3" font-family="Times,serif" font-size="14.00"> types = (integer?, boolean?)</text>
<text text-anchor="start" x="265" y="-278.3" font-family="Times,serif" font-size="14.00"> keys = ()</text>
</g>
<!-- node1&#45;&gt;node10 -->
<g id="edge11" class="edge">
<title>node1&#45;&gt;node10</title>
<path fill="none" stroke="black" d="M437.7,-1509.22C447.98,-1460.91 460.5,-1388.99 460.5,-1325.5 460.5,-1325.5 460.5,-1325.5 460.5,-491 460.5,-449.47 439.1,-408.34 416.94,-376.89"/>
<polygon fill="black" stroke="black" points="419.7,-374.73 411,-368.69 414.04,-378.84 419.7,-374.73"/>
<text text-anchor="start" x="460.5" y="-855.8" font-family="Times,serif" font-size="14.00">%1</text>
</g>
<!-- node4 -->
<g id="node5" class="node">
<title>node4</title>
<polygon fill="none" stroke="black" points="22,-1080.5 22,-1223.5 327,-1223.5 327,-1080.5 22,-1080.5"/>
<text text-anchor="start" x="30" y="-1208.3" font-family="Times,serif" font-size="14.00">Let l2 =</text>
<text text-anchor="start" x="30" y="-1193.3" font-family="Times,serif" font-size="14.00"> Join %2 %3</text>
<text text-anchor="start" x="30" y="-1178.3" font-family="Times,serif" font-size="14.00"> implementation = Differential %3 %2.()</text>
<text text-anchor="start" x="30" y="-1163.3" font-family="Times,serif" font-size="14.00"> types = (integer?, integer?)</text>
<text text-anchor="start" x="30" y="-1148.3" font-family="Times,serif" font-size="14.00"> keys = ()</text>
<text text-anchor="start" x="30" y="-1133.3" font-family="Times,serif" font-size="14.00"> Reduce group=(#0)</text>
<text text-anchor="start" x="30" y="-1118.3" font-family="Times,serif" font-size="14.00"> agg all((#0 != #1))</text>
<text text-anchor="start" x="30" y="-1103.3" font-family="Times,serif" font-size="14.00"> types = (integer?, boolean?)</text>
<text text-anchor="start" x="30" y="-1088.3" font-family="Times,serif" font-size="14.00"> keys = ((#0))</text>
</g>
<!-- node2&#45;&gt;node4 -->
<g id="edge1" class="edge">
<title>node2&#45;&gt;node4</title>
<path fill="none" stroke="black" d="M103.6,-1275.1C111.27,-1261.89 119.79,-1247.22 128.19,-1232.76"/>
<polygon fill="black" stroke="black" points="131.39,-1234.21 133.39,-1223.8 125.34,-1230.69 131.39,-1234.21"/>
<text text-anchor="start" x="122.5" y="-1245.8" font-family="Times,serif" font-size="14.00">%2</text>
</g>
<!-- node3 -->
<g id="node4" class="node">
<title>node3</title>
<polygon fill="none" stroke="black" points="169.5,-1275.5 169.5,-1373.5 381.5,-1373.5 381.5,-1275.5 169.5,-1275.5"/>
<text text-anchor="start" x="177.5" y="-1358.3" font-family="Times,serif" font-size="14.00">Get types.public.t1 (u139)</text>
<text text-anchor="start" x="177.5" y="-1343.3" font-family="Times,serif" font-size="14.00"> types = (integer?, integer)</text>
<text text-anchor="start" x="177.5" y="-1328.3" font-family="Times,serif" font-size="14.00"> keys = ()</text>
<text text-anchor="start" x="177.5" y="-1313.3" font-family="Times,serif" font-size="14.00"> Project (#0)</text>
<text text-anchor="start" x="177.5" y="-1298.3" font-family="Times,serif" font-size="14.00"> types = (integer?)</text>
<text text-anchor="start" x="177.5" y="-1283.3" font-family="Times,serif" font-size="14.00"> keys = ()</text>
</g>
<!-- node3&#45;&gt;node4 -->
<g id="edge15" class="edge">
<title>node3&#45;&gt;node4</title>
<path fill="none" stroke="black" d="M246.83,-1275.1C239,-1261.89 230.31,-1247.22 221.75,-1232.76"/>
<polygon fill="black" stroke="black" points="224.55,-1230.62 216.44,-1223.8 218.53,-1234.19 224.55,-1230.62"/>
<text text-anchor="start" x="233.5" y="-1245.8" font-family="Times,serif" font-size="14.00">%3</text>
</g>
<!-- node5 -->
<g id="node6" class="node">
<title>node5</title>
<polygon fill="none" stroke="black" points="158,-885.5 158,-1028.5 381,-1028.5 381,-885.5 158,-885.5"/>
<text text-anchor="start" x="166" y="-1013.3" font-family="Times,serif" font-size="14.00">Get %4 (l2)</text>
<text text-anchor="start" x="166" y="-998.3" font-family="Times,serif" font-size="14.00"> types = (integer?, boolean?)</text>
<text text-anchor="start" x="166" y="-983.3" font-family="Times,serif" font-size="14.00"> keys = ((#0))</text>
<text text-anchor="start" x="166" y="-968.3" font-family="Times,serif" font-size="14.00"> Project (#0)</text>
<text text-anchor="start" x="166" y="-953.3" font-family="Times,serif" font-size="14.00"> types = (integer?)</text>
<text text-anchor="start" x="166" y="-938.3" font-family="Times,serif" font-size="14.00"> keys = ((#0))</text>
<text text-anchor="start" x="166" y="-923.3" font-family="Times,serif" font-size="14.00"> Negate</text>
<text text-anchor="start" x="166" y="-908.3" font-family="Times,serif" font-size="14.00"> types = (integer?)</text>
<text text-anchor="start" x="166" y="-893.3" font-family="Times,serif" font-size="14.00"> keys = ()</text>
</g>
<!-- node4&#45;&gt;node5 -->
<g id="edge7" class="edge">
<title>node4&#45;&gt;node5</title>
<path fill="none" stroke="black" d="M209.34,-1080.23C216.11,-1066.46 223.26,-1051.94 230.17,-1037.9"/>
<polygon fill="black" stroke="black" points="233.39,-1039.28 234.67,-1028.76 227.11,-1036.19 233.39,-1039.28"/>
<text text-anchor="start" x="225.5" y="-1050.8" font-family="Times,serif" font-size="14.00">%4</text>
</g>
<!-- node7 -->
<g id="node8" class="node">
<title>node7</title>
<polygon fill="none" stroke="black" points="113,-615.5 113,-683.5 336,-683.5 336,-615.5 113,-615.5"/>
<text text-anchor="start" x="121" y="-668.3" font-family="Times,serif" font-size="14.00">Let l3 =</text>
<text text-anchor="start" x="121" y="-653.3" font-family="Times,serif" font-size="14.00"> Union %4 %6</text>
<text text-anchor="start" x="121" y="-638.3" font-family="Times,serif" font-size="14.00"> types = (integer?, boolean?)</text>
<text text-anchor="start" x="121" y="-623.3" font-family="Times,serif" font-size="14.00"> keys = ()</text>
</g>
<!-- node4&#45;&gt;node7 -->
<g id="edge3" class="edge">
<title>node4&#45;&gt;node7</title>
<path fill="none" stroke="black" d="M153.85,-1080.24C132.81,-995.25 108.92,-849.78 152.5,-735 158.5,-719.18 168.86,-704.28 179.87,-691.52"/>
<polygon fill="black" stroke="black" points="182.68,-693.63 186.78,-683.86 177.48,-688.94 182.68,-693.63"/>
<text text-anchor="start" x="129.5" y="-855.8" font-family="Times,serif" font-size="14.00">%4</text>
</g>
<!-- node5&#45;&gt;node6 -->
<g id="edge8" class="edge">
<title>node5&#45;&gt;node6</title>
<path fill="none" stroke="black" d="M269.5,-885.17C269.5,-871.32 269.5,-856.95 269.5,-843.57"/>
<polygon fill="black" stroke="black" points="273,-843.56 269.5,-833.56 266,-843.56 273,-843.56"/>
<text text-anchor="start" x="269.5" y="-855.8" font-family="Times,serif" font-size="14.00">%5</text>
</g>
<!-- node6&#45;&gt;node7 -->
<g id="edge6" class="edge">
<title>node6&#45;&gt;node7</title>
<path fill="none" stroke="black" d="M253.25,-735.48C248.59,-721.71 243.55,-706.79 239,-693.35"/>
<polygon fill="black" stroke="black" points="242.31,-692.22 235.79,-683.87 235.68,-694.46 242.31,-692.22"/>
<text text-anchor="start" x="246.5" y="-705.8" font-family="Times,serif" font-size="14.00">%6</text>
</g>
<!-- node9 -->
<g id="node10" class="node">
<title>node9</title>
<polygon fill="none" stroke="black" points="209,-420.5 209,-563.5 432,-563.5 432,-420.5 209,-420.5"/>
<text text-anchor="start" x="217" y="-548.3" font-family="Times,serif" font-size="14.00">Get %7 (l3)</text>
<text text-anchor="start" x="217" y="-533.3" font-family="Times,serif" font-size="14.00"> types = (integer?, boolean?)</text>
<text text-anchor="start" x="217" y="-518.3" font-family="Times,serif" font-size="14.00"> keys = ()</text>
<text text-anchor="start" x="217" y="-503.3" font-family="Times,serif" font-size="14.00"> Project (#0)</text>
<text text-anchor="start" x="217" y="-488.3" font-family="Times,serif" font-size="14.00"> types = (integer?)</text>
<text text-anchor="start" x="217" y="-473.3" font-family="Times,serif" font-size="14.00"> keys = ()</text>
<text text-anchor="start" x="217" y="-458.3" font-family="Times,serif" font-size="14.00"> Negate</text>
<text text-anchor="start" x="217" y="-443.3" font-family="Times,serif" font-size="14.00"> types = (integer?)</text>
<text text-anchor="start" x="217" y="-428.3" font-family="Times,serif" font-size="14.00"> keys = ()</text>
</g>
<!-- node7&#45;&gt;node9 -->
<g id="edge2" class="edge">
<title>node7&#45;&gt;node9</title>
<path fill="none" stroke="black" d="M245.09,-615.14C252.88,-602.53 262.11,-587.58 271.39,-572.55"/>
<polygon fill="black" stroke="black" points="274.58,-574.05 276.85,-563.7 268.62,-570.37 274.58,-574.05"/>
<text text-anchor="start" x="263.5" y="-585.8" font-family="Times,serif" font-size="14.00">%7</text>
</g>
<!-- node11 -->
<g id="node12" class="node">
<title>node11</title>
<polygon fill="none" stroke="black" points="257,-165.5 257,-218.5 480,-218.5 480,-165.5 257,-165.5"/>
<text text-anchor="start" x="265" y="-203.3" font-family="Times,serif" font-size="14.00">Union %7 %10</text>
<text text-anchor="start" x="265" y="-188.3" font-family="Times,serif" font-size="14.00"> types = (integer?, boolean?)</text>
<text text-anchor="start" x="265" y="-173.3" font-family="Times,serif" font-size="14.00"> keys = ()</text>
</g>
<!-- node7&#45;&gt;node11 -->
<g id="edge14" class="edge">
<title>node7&#45;&gt;node11</title>
<path fill="none" stroke="black" d="M212.75,-615.24C207.92,-599.86 202.9,-581.22 200.5,-564 182.24,-432.87 167.85,-375 248.5,-270 262.88,-251.28 283.21,-235.81 303.05,-223.78"/>
<polygon fill="black" stroke="black" points="304.94,-226.74 311.8,-218.67 301.4,-220.69 304.94,-226.74"/>
<text text-anchor="start" x="190.5" y="-390.8" font-family="Times,serif" font-size="14.00">%7</text>
</g>
<!-- node12 -->
<g id="node13" class="node">
<title>node12</title>
<polygon fill="none" stroke="black" points="255,-0.5 255,-113.5 590,-113.5 590,-0.5 255,-0.5"/>
<text text-anchor="start" x="263" y="-98.3" font-family="Times,serif" font-size="14.00">Join %8 %11 (= #0 #1)</text>
<text text-anchor="start" x="263" y="-83.3" font-family="Times,serif" font-size="14.00"> implementation = Differential %11 %8.(#0)</text>
<text text-anchor="start" x="263" y="-68.3" font-family="Times,serif" font-size="14.00"> types = (integer?, integer?, boolean?)</text>
<text text-anchor="start" x="263" y="-53.3" font-family="Times,serif" font-size="14.00"> keys = ()</text>
<text text-anchor="start" x="263" y="-38.3" font-family="Times,serif" font-size="14.00"> Project (#2)</text>
<text text-anchor="start" x="263" y="-23.3" font-family="Times,serif" font-size="14.00"> types = (boolean?)</text>
<text text-anchor="start" x="263" y="-8.3" font-family="Times,serif" font-size="14.00"> keys = ()</text>
</g>
<!-- node8&#45;&gt;node12 -->
<g id="edge12" class="edge">
<title>node8&#45;&gt;node12</title>
<path fill="none" stroke="black" d="M540.83,-1392.35C533.28,-1354.1 524.5,-1299.14 524.5,-1250.5 524.5,-1250.5 524.5,-1250.5 524.5,-191 524.5,-165.31 512.37,-141.52 496.48,-121.38"/>
<polygon fill="black" stroke="black" points="499.05,-119.01 489.97,-113.56 493.67,-123.48 499.05,-119.01"/>
<text text-anchor="start" x="524.5" y="-705.8" font-family="Times,serif" font-size="14.00">%8</text>
</g>
<!-- node9&#45;&gt;node10 -->
<g id="edge4" class="edge">
<title>node9&#45;&gt;node10</title>
<path fill="none" stroke="black" d="M340.44,-420.17C344.34,-406.32 348.39,-391.95 352.15,-378.57"/>
<polygon fill="black" stroke="black" points="355.63,-379.13 354.97,-368.56 348.89,-377.23 355.63,-379.13"/>
<text text-anchor="start" x="348.5" y="-390.8" font-family="Times,serif" font-size="14.00">%9</text>
</g>
<!-- node10&#45;&gt;node11 -->
<g id="edge17" class="edge">
<title>node10&#45;&gt;node11</title>
<path fill="none" stroke="black" d="M368.5,-270.34C368.5,-256.62 368.5,-241.92 368.5,-229.06"/>
<polygon fill="black" stroke="black" points="372,-228.75 368.5,-218.75 365,-228.75 372,-228.75"/>
<text text-anchor="start" x="368.5" y="-240.8" font-family="Times,serif" font-size="14.00">%10</text>
</g>
<!-- node11&#45;&gt;node12 -->
<g id="edge13" class="edge">
<title>node11&#45;&gt;node12</title>
<path fill="none" stroke="black" d="M378.91,-165.36C383.86,-153.17 390.02,-137.99 396.14,-122.92"/>
<polygon fill="black" stroke="black" points="399.42,-124.16 399.94,-113.57 392.93,-121.52 399.42,-124.16"/>
<text text-anchor="start" x="391.5" y="-135.8" font-family="Times,serif" font-size="14.00">%11</text>
</g>
</g>
</svg>
