<?xml version="1.0" encoding="UTF-8" standalone="no"?>
<!DOCTYPE svg PUBLIC "-//W3C//DTD SVG 1.1//EN"
 "http://www.w3.org/Graphics/SVG/1.1/DTD/svg11.dtd">
<!-- Generated by graphviz version 2.43.0 (0)
 -->
<!-- Title: G Pages: 1 -->
<svg width="1144pt" height="3101pt"
 viewBox="0.00 0.00 1143.50 3101.00" xmlns="http://www.w3.org/2000/svg" xmlns:xlink="http://www.w3.org/1999/xlink">
<g id="graph0" class="graph" transform="scale(1 1) rotate(0) translate(4 3097)">
<title>G</title>
<polygon fill="white" stroke="transparent" points="-4,4 -4,-3097 1139.5,-3097 1139.5,4 -4,4"/>
<!-- node0 -->
<g id="node1" class="node">
<title>node0</title>
<polygon fill="none" stroke="black" points="110.5,-3024.5 110.5,-3092.5 211.5,-3092.5 211.5,-3024.5 110.5,-3024.5"/>
<text text-anchor="start" x="118.5" y="-3077.3" font-family="Times,serif" font-size="14.00">Let l0 =</text>
<text text-anchor="start" x="118.5" y="-3062.3" font-family="Times,serif" font-size="14.00"> Constant ()</text>
<text text-anchor="start" x="118.5" y="-3047.3" font-family="Times,serif" font-size="14.00"> types = ()</text>
<text text-anchor="start" x="118.5" y="-3032.3" font-family="Times,serif" font-size="14.00"> keys = (())</text>
</g>
<!-- node2 -->
<g id="node3" class="node">
<title>node2</title>
<polygon fill="none" stroke="black" points="115.5,-2889.5 115.5,-2972.5 384.5,-2972.5 384.5,-2889.5 115.5,-2889.5"/>
<text text-anchor="start" x="123.5" y="-2957.3" font-family="Times,serif" font-size="14.00">Let l1 =</text>
<text text-anchor="start" x="123.5" y="-2942.3" font-family="Times,serif" font-size="14.00"> Join %0 %1</text>
<text text-anchor="start" x="123.5" y="-2927.3" font-family="Times,serif" font-size="14.00"> implementation = Unimplemented</text>
<text text-anchor="start" x="123.5" y="-2912.3" font-family="Times,serif" font-size="14.00"> types = (integer?, integer?)</text>
<text text-anchor="start" x="123.5" y="-2897.3" font-family="Times,serif" font-size="14.00"> keys = ()</text>
</g>
<!-- node0&#45;&gt;node2 -->
<g id="edge18" class="edge">
<title>node0&#45;&gt;node2</title>
<path fill="none" stroke="black" d="M184.62,-3024.2C194,-3010.96 204.99,-2995.47 215.25,-2981"/>
<polygon fill="black" stroke="black" points="218.26,-2982.81 221.19,-2972.63 212.55,-2978.76 218.26,-2982.81"/>
<text text-anchor="start" x="206" y="-2994.8" font-family="Times,serif" font-size="14.00">%0</text>
</g>
<!-- node1 -->
<g id="node2" class="node">
<title>node1</title>
<polygon fill="none" stroke="black" points="229.5,-3032 229.5,-3085 448.5,-3085 448.5,-3032 229.5,-3032"/>
<text text-anchor="start" x="237.5" y="-3069.8" font-family="Times,serif" font-size="14.00">Get types.public.t2 (u141)</text>
<text text-anchor="start" x="237.5" y="-3054.8" font-family="Times,serif" font-size="14.00"> types = (integer?, integer?)</text>
<text text-anchor="start" x="237.5" y="-3039.8" font-family="Times,serif" font-size="14.00"> keys = ()</text>
</g>
<!-- node1&#45;&gt;node2 -->
<g id="edge4" class="edge">
<title>node1&#45;&gt;node2</title>
<path fill="none" stroke="black" d="M320.77,-3031.8C310.46,-3017.26 297.21,-2998.57 284.97,-2981.32"/>
<polygon fill="black" stroke="black" points="287.7,-2979.11 279.06,-2972.98 281.99,-2983.16 287.7,-2979.11"/>
<text text-anchor="start" x="302" y="-2994.8" font-family="Times,serif" font-size="14.00">%1</text>
</g>
<!-- node3 -->
<g id="node4" class="node">
<title>node3</title>
<polygon fill="none" stroke="black" points="262.5,-2724.5 262.5,-2837.5 481.5,-2837.5 481.5,-2724.5 262.5,-2724.5"/>
<text text-anchor="start" x="270.5" y="-2822.3" font-family="Times,serif" font-size="14.00">Let l2 =</text>
<text text-anchor="start" x="270.5" y="-2807.3" font-family="Times,serif" font-size="14.00"> Get %2 (l1)</text>
<text text-anchor="start" x="270.5" y="-2792.3" font-family="Times,serif" font-size="14.00"> types = (integer?, integer?)</text>
<text text-anchor="start" x="270.5" y="-2777.3" font-family="Times,serif" font-size="14.00"> keys = ()</text>
<text text-anchor="start" x="270.5" y="-2762.3" font-family="Times,serif" font-size="14.00"> Distinct group=(#0, #1)</text>
<text text-anchor="start" x="270.5" y="-2747.3" font-family="Times,serif" font-size="14.00"> types = (integer?, integer?)</text>
<text text-anchor="start" x="270.5" y="-2732.3" font-family="Times,serif" font-size="14.00"> keys = ((#0, #1))</text>
</g>
<!-- node2&#45;&gt;node3 -->
<g id="edge8" class="edge">
<title>node2&#45;&gt;node3</title>
<path fill="none" stroke="black" d="M283.66,-2889.17C294.73,-2875.74 307.31,-2860.47 319.44,-2845.76"/>
<polygon fill="black" stroke="black" points="322.46,-2847.6 326.12,-2837.66 317.06,-2843.15 322.46,-2847.6"/>
<text text-anchor="start" x="311" y="-2859.8" font-family="Times,serif" font-size="14.00">%2</text>
</g>
<!-- node24 -->
<g id="node25" class="node">
<title>node24</title>
<polygon fill="none" stroke="black" points="0,-0.5 0,-203.5 500,-203.5 500,-0.5 0,-0.5"/>
<text text-anchor="start" x="8" y="-188.3" font-family="Times,serif" font-size="14.00">Join %2 %23 (= #0 #2) (= #1 #3)</text>
<text text-anchor="start" x="8" y="-173.3" font-family="Times,serif" font-size="14.00"> implementation = Unimplemented</text>
<text text-anchor="start" x="8" y="-158.3" font-family="Times,serif" font-size="14.00"> types = (integer?, integer?, integer?, integer?, boolean?)</text>
<text text-anchor="start" x="8" y="-143.3" font-family="Times,serif" font-size="14.00"> keys = ()</text>
<text text-anchor="start" x="8" y="-128.3" font-family="Times,serif" font-size="14.00"> Map #4</text>
<text text-anchor="start" x="8" y="-113.3" font-family="Times,serif" font-size="14.00"> types = (integer?, integer?, integer?, integer?, boolean?, boolean?)</text>
<text text-anchor="start" x="8" y="-98.3" font-family="Times,serif" font-size="14.00"> keys = ()</text>
<text text-anchor="start" x="8" y="-83.3" font-family="Times,serif" font-size="14.00"> Project (#0, #1, #5)</text>
<text text-anchor="start" x="8" y="-68.3" font-family="Times,serif" font-size="14.00"> types = (integer?, integer?, boolean?)</text>
<text text-anchor="start" x="8" y="-53.3" font-family="Times,serif" font-size="14.00"> keys = ()</text>
<text text-anchor="start" x="8" y="-38.3" font-family="Times,serif" font-size="14.00"> Project (#2)</text>
<text text-anchor="start" x="8" y="-23.3" font-family="Times,serif" font-size="14.00"> types = (boolean?)</text>
<text text-anchor="start" x="8" y="-8.3" font-family="Times,serif" font-size="14.00"> keys = ()</text>
</g>
<!-- node2&#45;&gt;node24 -->
<g id="edge3" class="edge">
<title>node2&#45;&gt;node24</title>
<path fill="none" stroke="black" d="M243.21,-2889.3C238.85,-2859.64 234,-2818.44 234,-2782 234,-2782 234,-2782 234,-311 234,-279.38 235.86,-245.14 238.31,-213.74"/>
<polygon fill="black" stroke="black" points="241.81,-213.9 239.13,-203.65 234.83,-213.34 241.81,-213.9"/>
<text text-anchor="start" x="234" y="-1500.8" font-family="Times,serif" font-size="14.00">%2</text>
</g>
<!-- node4 -->
<g id="node5" class="node">
<title>node4</title>
<polygon fill="none" stroke="black" points="702.5,-2559.5 702.5,-2672.5 921.5,-2672.5 921.5,-2559.5 702.5,-2559.5"/>
<text text-anchor="start" x="710.5" y="-2657.3" font-family="Times,serif" font-size="14.00">Let l3 =</text>
<text text-anchor="start" x="710.5" y="-2642.3" font-family="Times,serif" font-size="14.00"> Get %3 (l2)</text>
<text text-anchor="start" x="710.5" y="-2627.3" font-family="Times,serif" font-size="14.00"> types = (integer?, integer?)</text>
<text text-anchor="start" x="710.5" y="-2612.3" font-family="Times,serif" font-size="14.00"> keys = ((#0, #1))</text>
<text text-anchor="start" x="710.5" y="-2597.3" font-family="Times,serif" font-size="14.00"> Distinct group=(#0)</text>
<text text-anchor="start" x="710.5" y="-2582.3" font-family="Times,serif" font-size="14.00"> types = (integer?)</text>
<text text-anchor="start" x="710.5" y="-2567.3" font-family="Times,serif" font-size="14.00"> keys = ((#0))</text>
</g>
<!-- node3&#45;&gt;node4 -->
<g id="edge27" class="edge">
<title>node3&#45;&gt;node4</title>
<path fill="none" stroke="black" d="M481.61,-2739.39C545.78,-2715.62 626.86,-2685.59 692.64,-2661.22"/>
<polygon fill="black" stroke="black" points="694.06,-2664.42 702.23,-2657.67 691.63,-2657.86 694.06,-2664.42"/>
<text text-anchor="start" x="605" y="-2694.8" font-family="Times,serif" font-size="14.00">%3</text>
</g>
<!-- node23 -->
<g id="node24" class="node">
<title>node23</title>
<polygon fill="none" stroke="black" points="262.5,-255.5 262.5,-368.5 621.5,-368.5 621.5,-255.5 262.5,-255.5"/>
<text text-anchor="start" x="270.5" y="-353.3" font-family="Times,serif" font-size="14.00">Join %3 %22 (= #0 #2)</text>
<text text-anchor="start" x="270.5" y="-338.3" font-family="Times,serif" font-size="14.00"> implementation = Unimplemented</text>
<text text-anchor="start" x="270.5" y="-323.3" font-family="Times,serif" font-size="14.00"> types = (integer?, integer?, integer?, boolean?)</text>
<text text-anchor="start" x="270.5" y="-308.3" font-family="Times,serif" font-size="14.00"> keys = ()</text>
<text text-anchor="start" x="270.5" y="-293.3" font-family="Times,serif" font-size="14.00"> Project (#0, #1, #3)</text>
<text text-anchor="start" x="270.5" y="-278.3" font-family="Times,serif" font-size="14.00"> types = (integer?, integer?, boolean?)</text>
<text text-anchor="start" x="270.5" y="-263.3" font-family="Times,serif" font-size="14.00"> keys = ()</text>
</g>
<!-- node3&#45;&gt;node23 -->
<g id="edge30" class="edge">
<title>node3&#45;&gt;node23</title>
<path fill="none" stroke="black" d="M348.06,-2724.14C336.88,-2693.16 326,-2653.61 326,-2617 326,-2617 326,-2617 326,-446 326,-419.65 339.09,-395.99 356.48,-376.19"/>
<polygon fill="black" stroke="black" points="359.11,-378.51 363.34,-368.79 353.98,-373.75 359.11,-378.51"/>
<text text-anchor="start" x="326" y="-1500.8" font-family="Times,serif" font-size="14.00">%3</text>
</g>
<!-- node6 -->
<g id="node7" class="node">
<title>node6</title>
<polygon fill="none" stroke="black" points="555,-2319.5 555,-2507.5 835,-2507.5 835,-2319.5 555,-2319.5"/>
<text text-anchor="start" x="563" y="-2492.3" font-family="Times,serif" font-size="14.00">Let l4 =</text>
<text text-anchor="start" x="563" y="-2477.3" font-family="Times,serif" font-size="14.00"> Join %4 %5</text>
<text text-anchor="start" x="563" y="-2462.3" font-family="Times,serif" font-size="14.00"> implementation = Unimplemented</text>
<text text-anchor="start" x="563" y="-2447.3" font-family="Times,serif" font-size="14.00"> types = (integer?, integer?, integer)</text>
<text text-anchor="start" x="563" y="-2432.3" font-family="Times,serif" font-size="14.00"> keys = ()</text>
<text text-anchor="start" x="563" y="-2417.3" font-family="Times,serif" font-size="14.00"> Project (#0, #1)</text>
<text text-anchor="start" x="563" y="-2402.3" font-family="Times,serif" font-size="14.00"> types = (integer?, integer?)</text>
<text text-anchor="start" x="563" y="-2387.3" font-family="Times,serif" font-size="14.00"> keys = ()</text>
<text text-anchor="start" x="563" y="-2372.3" font-family="Times,serif" font-size="14.00"> Reduce group=(#0)</text>
<text text-anchor="start" x="563" y="-2357.3" font-family="Times,serif" font-size="14.00"> agg all(!(((#0 = #1) &amp;&amp; true)))</text>
<text text-anchor="start" x="563" y="-2342.3" font-family="Times,serif" font-size="14.00"> types = (integer?, boolean?)</text>
<text text-anchor="start" x="563" y="-2327.3" font-family="Times,serif" font-size="14.00"> keys = ((#0))</text>
</g>
<!-- node4&#45;&gt;node6 -->
<g id="edge11" class="edge">
<title>node4&#45;&gt;node6</title>
<path fill="none" stroke="black" d="M779.56,-2559.42C771.71,-2545.95 763.06,-2531.13 754.39,-2516.27"/>
<polygon fill="black" stroke="black" points="757.35,-2514.4 749.28,-2507.52 751.3,-2517.92 757.35,-2514.4"/>
<text text-anchor="start" x="767" y="-2529.8" font-family="Times,serif" font-size="14.00">%4</text>
</g>
<!-- node8 -->
<g id="node9" class="node">
<title>node8</title>
<polygon fill="none" stroke="black" points="442.5,-2202.5 442.5,-2300.5 609.5,-2300.5 609.5,-2202.5 442.5,-2202.5"/>
<text text-anchor="start" x="450.5" y="-2285.3" font-family="Times,serif" font-size="14.00">Get %4 (l3)</text>
<text text-anchor="start" x="450.5" y="-2270.3" font-family="Times,serif" font-size="14.00"> types = (integer?)</text>
<text text-anchor="start" x="450.5" y="-2255.3" font-family="Times,serif" font-size="14.00"> keys = ((#0))</text>
<text text-anchor="start" x="450.5" y="-2240.3" font-family="Times,serif" font-size="14.00"> Distinct group=(#0)</text>
<text text-anchor="start" x="450.5" y="-2225.3" font-family="Times,serif" font-size="14.00"> types = (integer?)</text>
<text text-anchor="start" x="450.5" y="-2210.3" font-family="Times,serif" font-size="14.00"> keys = ((#0))</text>
</g>
<!-- node4&#45;&gt;node8 -->
<g id="edge29" class="edge">
<title>node4&#45;&gt;node8</title>
<path fill="none" stroke="black" d="M702.24,-2598.77C646.33,-2584.52 582.6,-2557.86 546,-2508 504.36,-2451.27 506.54,-2367.12 514.28,-2311.08"/>
<polygon fill="black" stroke="black" points="517.78,-2311.36 515.78,-2300.96 510.86,-2310.33 517.78,-2311.36"/>
<text text-anchor="start" x="575" y="-2529.8" font-family="Times,serif" font-size="14.00">%4</text>
</g>
<!-- node10 -->
<g id="node11" class="node">
<title>node10</title>
<polygon fill="none" stroke="black" points="519.5,-1770.5 519.5,-1883.5 788.5,-1883.5 788.5,-1770.5 519.5,-1770.5"/>
<text text-anchor="start" x="527.5" y="-1868.3" font-family="Times,serif" font-size="14.00">Join %9 %4 (= #0 #1)</text>
<text text-anchor="start" x="527.5" y="-1853.3" font-family="Times,serif" font-size="14.00"> implementation = Unimplemented</text>
<text text-anchor="start" x="527.5" y="-1838.3" font-family="Times,serif" font-size="14.00"> types = (integer?, integer?)</text>
<text text-anchor="start" x="527.5" y="-1823.3" font-family="Times,serif" font-size="14.00"> keys = ()</text>
<text text-anchor="start" x="527.5" y="-1808.3" font-family="Times,serif" font-size="14.00"> Project (#0)</text>
<text text-anchor="start" x="527.5" y="-1793.3" font-family="Times,serif" font-size="14.00"> types = (integer?)</text>
<text text-anchor="start" x="527.5" y="-1778.3" font-family="Times,serif" font-size="14.00"> keys = ()</text>
</g>
<!-- node4&#45;&gt;node10 -->
<g id="edge1" class="edge">
<title>node4&#45;&gt;node10</title>
<path fill="none" stroke="black" d="M834.07,-2559.35C847.86,-2519.64 863,-2464.6 863,-2414.5 863,-2414.5 863,-2414.5 863,-1961 863,-1933.45 862.89,-1922.05 844,-1902 830.88,-1888.07 814.82,-1876.72 797.65,-1867.48"/>
<polygon fill="black" stroke="black" points="799.08,-1864.28 788.59,-1862.84 795.89,-1870.51 799.08,-1864.28"/>
<text text-anchor="start" x="863" y="-2108.3" font-family="Times,serif" font-size="14.00">%4</text>
</g>
<!-- node17 -->
<g id="node18" class="node">
<title>node17</title>
<polygon fill="none" stroke="black" points="877.5,-2202.5 877.5,-2300.5 1044.5,-2300.5 1044.5,-2202.5 877.5,-2202.5"/>
<text text-anchor="start" x="885.5" y="-2285.3" font-family="Times,serif" font-size="14.00">Get %4 (l3)</text>
<text text-anchor="start" x="885.5" y="-2270.3" font-family="Times,serif" font-size="14.00"> types = (integer?)</text>
<text text-anchor="start" x="885.5" y="-2255.3" font-family="Times,serif" font-size="14.00"> keys = ((#0))</text>
<text text-anchor="start" x="885.5" y="-2240.3" font-family="Times,serif" font-size="14.00"> Distinct group=(#0)</text>
<text text-anchor="start" x="885.5" y="-2225.3" font-family="Times,serif" font-size="14.00"> types = (integer?)</text>
<text text-anchor="start" x="885.5" y="-2210.3" font-family="Times,serif" font-size="14.00"> keys = ((#0))</text>
</g>
<!-- node4&#45;&gt;node17 -->
<g id="edge10" class="edge">
<title>node4&#45;&gt;node17</title>
<path fill="none" stroke="black" d="M865.39,-2559.09C869.67,-2553.22 873.63,-2547.15 877,-2541 917.64,-2466.97 940.47,-2371.2 951.77,-2310.79"/>
<polygon fill="black" stroke="black" points="955.26,-2311.14 953.61,-2300.67 948.37,-2309.88 955.26,-2311.14"/>
<text text-anchor="start" x="882" y="-2529.8" font-family="Times,serif" font-size="14.00">%4</text>
</g>
<!-- node19 -->
<g id="node20" class="node">
<title>node19</title>
<polygon fill="none" stroke="black" points="866.5,-645.5 866.5,-758.5 1135.5,-758.5 1135.5,-645.5 866.5,-645.5"/>
<text text-anchor="start" x="874.5" y="-743.3" font-family="Times,serif" font-size="14.00">Join %18 %4 (= #0 #1)</text>
<text text-anchor="start" x="874.5" y="-728.3" font-family="Times,serif" font-size="14.00"> implementation = Unimplemented</text>
<text text-anchor="start" x="874.5" y="-713.3" font-family="Times,serif" font-size="14.00"> types = (integer?, integer?)</text>
<text text-anchor="start" x="874.5" y="-698.3" font-family="Times,serif" font-size="14.00"> keys = ()</text>
<text text-anchor="start" x="874.5" y="-683.3" font-family="Times,serif" font-size="14.00"> Project (#0)</text>
<text text-anchor="start" x="874.5" y="-668.3" font-family="Times,serif" font-size="14.00"> types = (integer?)</text>
<text text-anchor="start" x="874.5" y="-653.3" font-family="Times,serif" font-size="14.00"> keys = ()</text>
</g>
<!-- node4&#45;&gt;node19 -->
<g id="edge19" class="edge">
<title>node4&#45;&gt;node19</title>
<path fill="none" stroke="black" d="M921.78,-2574.71C987.74,-2542.65 1059,-2490.44 1059,-2414.5 1059,-2414.5 1059,-2414.5 1059,-836 1059,-812.63 1051.38,-788.73 1041.67,-767.76"/>
<polygon fill="black" stroke="black" points="1044.76,-766.11 1037.24,-758.65 1038.47,-769.17 1044.76,-766.11"/>
<text text-anchor="start" x="1059" y="-1620.8" font-family="Times,serif" font-size="14.00">%4</text>
</g>
<!-- node5 -->
<g id="node6" class="node">
<title>node5</title>
<polygon fill="none" stroke="black" points="375,-2589.5 375,-2642.5 587,-2642.5 587,-2589.5 375,-2589.5"/>
<text text-anchor="start" x="383" y="-2627.3" font-family="Times,serif" font-size="14.00">Get types.public.t1 (u139)</text>
<text text-anchor="start" x="383" y="-2612.3" font-family="Times,serif" font-size="14.00"> types = (integer?, integer)</text>
<text text-anchor="start" x="383" y="-2597.3" font-family="Times,serif" font-size="14.00"> keys = ()</text>
</g>
<!-- node5&#45;&gt;node6 -->
<g id="edge15" class="edge">
<title>node5&#45;&gt;node6</title>
<path fill="none" stroke="black" d="M474.66,-2589.3C471.49,-2570.4 470.45,-2544.84 482,-2526 497.43,-2500.82 520.6,-2481.04 546.06,-2465.61"/>
<polygon fill="black" stroke="black" points="547.89,-2468.59 554.77,-2460.53 544.37,-2462.54 547.89,-2468.59"/>
<text text-anchor="start" x="482" y="-2529.8" font-family="Times,serif" font-size="14.00">%5</text>
</g>
<!-- node7 -->
<g id="node8" class="node">
<title>node7</title>
<polygon fill="none" stroke="black" points="565.5,-2040.5 565.5,-2183.5 788.5,-2183.5 788.5,-2040.5 565.5,-2040.5"/>
<text text-anchor="start" x="573.5" y="-2168.3" font-family="Times,serif" font-size="14.00">Get %6 (l4)</text>
<text text-anchor="start" x="573.5" y="-2153.3" font-family="Times,serif" font-size="14.00"> types = (integer?, boolean?)</text>
<text text-anchor="start" x="573.5" y="-2138.3" font-family="Times,serif" font-size="14.00"> keys = ((#0))</text>
<text text-anchor="start" x="573.5" y="-2123.3" font-family="Times,serif" font-size="14.00"> Distinct group=(#0)</text>
<text text-anchor="start" x="573.5" y="-2108.3" font-family="Times,serif" font-size="14.00"> types = (integer?)</text>
<text text-anchor="start" x="573.5" y="-2093.3" font-family="Times,serif" font-size="14.00"> keys = ((#0))</text>
<text text-anchor="start" x="573.5" y="-2078.3" font-family="Times,serif" font-size="14.00"> Negate</text>
<text text-anchor="start" x="573.5" y="-2063.3" font-family="Times,serif" font-size="14.00"> types = (integer?)</text>
<text text-anchor="start" x="573.5" y="-2048.3" font-family="Times,serif" font-size="14.00"> keys = ()</text>
</g>
<!-- node6&#45;&gt;node7 -->
<g id="edge13" class="edge">
<title>node6&#45;&gt;node7</title>
<path fill="none" stroke="black" d="M689.4,-2319.38C686.99,-2279.18 684.19,-2232.6 681.86,-2193.88"/>
<polygon fill="black" stroke="black" points="685.34,-2193.47 681.25,-2183.7 678.36,-2193.89 685.34,-2193.47"/>
<text text-anchor="start" x="688" y="-2247.8" font-family="Times,serif" font-size="14.00">%6</text>
</g>
<!-- node13 -->
<g id="node14" class="node">
<title>node13</title>
<polygon fill="none" stroke="black" points="652.5,-1530.5 652.5,-1598.5 875.5,-1598.5 875.5,-1530.5 652.5,-1530.5"/>
<text text-anchor="start" x="660.5" y="-1583.3" font-family="Times,serif" font-size="14.00">Let l5 =</text>
<text text-anchor="start" x="660.5" y="-1568.3" font-family="Times,serif" font-size="14.00"> Union %6 %12</text>
<text text-anchor="start" x="660.5" y="-1553.3" font-family="Times,serif" font-size="14.00"> types = (integer?, boolean?)</text>
<text text-anchor="start" x="660.5" y="-1538.3" font-family="Times,serif" font-size="14.00"> keys = ()</text>
</g>
<!-- node6&#45;&gt;node13 -->
<g id="edge28" class="edge">
<title>node6&#45;&gt;node13</title>
<path fill="none" stroke="black" d="M754.57,-2319.3C785.54,-2262.08 817,-2185.99 817,-2113 817,-2113 817,-2113 817,-1683.5 817,-1656.66 805.45,-1629.15 793.13,-1607.46"/>
<polygon fill="black" stroke="black" points="796.13,-1605.66 788.02,-1598.84 790.11,-1609.23 796.13,-1605.66"/>
<text text-anchor="start" x="817" y="-1905.8" font-family="Times,serif" font-size="14.00">%6</text>
</g>
<!-- node9 -->
<g id="node10" class="node">
<title>node9</title>
<polygon fill="none" stroke="black" points="578.5,-1935.5 578.5,-1988.5 729.5,-1988.5 729.5,-1935.5 578.5,-1935.5"/>
<text text-anchor="start" x="586.5" y="-1973.3" font-family="Times,serif" font-size="14.00">Union %7 %8</text>
<text text-anchor="start" x="586.5" y="-1958.3" font-family="Times,serif" font-size="14.00"> types = (integer?)</text>
<text text-anchor="start" x="586.5" y="-1943.3" font-family="Times,serif" font-size="14.00"> keys = ()</text>
</g>
<!-- node7&#45;&gt;node9 -->
<g id="edge9" class="edge">
<title>node7&#45;&gt;node9</title>
<path fill="none" stroke="black" d="M666.04,-2040.47C663.8,-2026.04 661.53,-2011.44 659.57,-1998.86"/>
<polygon fill="black" stroke="black" points="663.01,-1998.17 658.01,-1988.82 656.09,-1999.24 663.01,-1998.17"/>
<text text-anchor="start" x="662" y="-2010.8" font-family="Times,serif" font-size="14.00">%7</text>
</g>
<!-- node8&#45;&gt;node9 -->
<g id="edge21" class="edge">
<title>node8&#45;&gt;node9</title>
<path fill="none" stroke="black" d="M515.82,-2202.34C508.94,-2157.3 505.6,-2089.69 534,-2040 545.08,-2020.62 563.24,-2005.33 582.13,-1993.67"/>
<polygon fill="black" stroke="black" points="583.98,-1996.64 590.83,-1988.56 580.43,-1990.6 583.98,-1996.64"/>
<text text-anchor="start" x="534" y="-2108.3" font-family="Times,serif" font-size="14.00">%8</text>
</g>
<!-- node9&#45;&gt;node10 -->
<g id="edge12" class="edge">
<title>node9&#45;&gt;node10</title>
<path fill="none" stroke="black" d="M654,-1935.36C654,-1923.4 654,-1908.56 654,-1893.77"/>
<polygon fill="black" stroke="black" points="657.5,-1893.57 654,-1883.57 650.5,-1893.57 657.5,-1893.57"/>
<text text-anchor="start" x="654" y="-1905.8" font-family="Times,serif" font-size="14.00">%9</text>
</g>
<!-- node12 -->
<g id="node13" class="node">
<title>node12</title>
<polygon fill="none" stroke="black" points="519.5,-1650.5 519.5,-1718.5 788.5,-1718.5 788.5,-1650.5 519.5,-1650.5"/>
<text text-anchor="start" x="527.5" y="-1703.3" font-family="Times,serif" font-size="14.00">Join %10 %11</text>
<text text-anchor="start" x="527.5" y="-1688.3" font-family="Times,serif" font-size="14.00"> implementation = Unimplemented</text>
<text text-anchor="start" x="527.5" y="-1673.3" font-family="Times,serif" font-size="14.00"> types = (integer?, boolean)</text>
<text text-anchor="start" x="527.5" y="-1658.3" font-family="Times,serif" font-size="14.00"> keys = ()</text>
</g>
<!-- node10&#45;&gt;node12 -->
<g id="edge25" class="edge">
<title>node10&#45;&gt;node12</title>
<path fill="none" stroke="black" d="M654,-1770.47C654,-1756.67 654,-1742.08 654,-1728.95"/>
<polygon fill="black" stroke="black" points="657.5,-1728.79 654,-1718.79 650.5,-1728.79 657.5,-1728.79"/>
<text text-anchor="start" x="654" y="-1740.8" font-family="Times,serif" font-size="14.00">%10</text>
</g>
<!-- node11 -->
<g id="node12" class="node">
<title>node11</title>
<polygon fill="none" stroke="black" points="354.5,-1800.5 354.5,-1853.5 501.5,-1853.5 501.5,-1800.5 354.5,-1800.5"/>
<text text-anchor="start" x="362.5" y="-1838.3" font-family="Times,serif" font-size="14.00">Constant (true)</text>
<text text-anchor="start" x="362.5" y="-1823.3" font-family="Times,serif" font-size="14.00"> types = (boolean)</text>
<text text-anchor="start" x="362.5" y="-1808.3" font-family="Times,serif" font-size="14.00"> keys = (())</text>
</g>
<!-- node11&#45;&gt;node12 -->
<g id="edge6" class="edge">
<title>node11&#45;&gt;node12</title>
<path fill="none" stroke="black" d="M464.87,-1800.43C479.15,-1790.71 495.72,-1779.66 511,-1770 535.64,-1754.43 563.12,-1737.98 587.35,-1723.77"/>
<polygon fill="black" stroke="black" points="589.25,-1726.71 596.12,-1718.64 585.72,-1720.67 589.25,-1726.71"/>
<text text-anchor="start" x="561" y="-1740.8" font-family="Times,serif" font-size="14.00">%11</text>
</g>
<!-- node12&#45;&gt;node13 -->
<g id="edge20" class="edge">
<title>node12&#45;&gt;node13</title>
<path fill="none" stroke="black" d="M684.93,-1650.32C697.7,-1636.62 712.63,-1620.6 726.05,-1606.21"/>
<polygon fill="black" stroke="black" points="728.66,-1608.54 732.92,-1598.84 723.54,-1603.77 728.66,-1608.54"/>
<text text-anchor="start" x="715" y="-1620.8" font-family="Times,serif" font-size="14.00">%12</text>
</g>
<!-- node14 -->
<g id="node15" class="node">
<title>node14</title>
<polygon fill="none" stroke="black" points="406.5,-1230.5 406.5,-1478.5 819.5,-1478.5 819.5,-1230.5 406.5,-1230.5"/>
<text text-anchor="start" x="414.5" y="-1463.3" font-family="Times,serif" font-size="14.00">Get %13 (l5)</text>
<text text-anchor="start" x="414.5" y="-1448.3" font-family="Times,serif" font-size="14.00"> types = (integer?, boolean?)</text>
<text text-anchor="start" x="414.5" y="-1433.3" font-family="Times,serif" font-size="14.00"> keys = ()</text>
<text text-anchor="start" x="414.5" y="-1418.3" font-family="Times,serif" font-size="14.00"> Reduce group=(#0)</text>
<text text-anchor="start" x="414.5" y="-1403.3" font-family="Times,serif" font-size="14.00"> agg count(true)</text>
<text text-anchor="start" x="414.5" y="-1388.3" font-family="Times,serif" font-size="14.00"> types = (integer?, bigint)</text>
<text text-anchor="start" x="414.5" y="-1373.3" font-family="Times,serif" font-size="14.00"> keys = ((#0))</text>
<text text-anchor="start" x="414.5" y="-1358.3" font-family="Times,serif" font-size="14.00"> Filter (#1 &gt; 1)</text>
<text text-anchor="start" x="414.5" y="-1343.3" font-family="Times,serif" font-size="14.00"> types = (integer?, bigint)</text>
<text text-anchor="start" x="414.5" y="-1328.3" font-family="Times,serif" font-size="14.00"> keys = ((#0))</text>
<text text-anchor="start" x="414.5" y="-1313.3" font-family="Times,serif" font-size="14.00"> Project (#0)</text>
<text text-anchor="start" x="414.5" y="-1298.3" font-family="Times,serif" font-size="14.00"> types = (integer?)</text>
<text text-anchor="start" x="414.5" y="-1283.3" font-family="Times,serif" font-size="14.00"> keys = ((#0))</text>
<text text-anchor="start" x="414.5" y="-1268.3" font-family="Times,serif" font-size="14.00"> Map (err: more than one record produced in subquery)</text>
<text text-anchor="start" x="414.5" y="-1253.3" font-family="Times,serif" font-size="14.00"> types = (integer?, boolean)</text>
<text text-anchor="start" x="414.5" y="-1238.3" font-family="Times,serif" font-size="14.00"> keys = ((#0))</text>
</g>
<!-- node13&#45;&gt;node14 -->
<g id="edge22" class="edge">
<title>node13&#45;&gt;node14</title>
<path fill="none" stroke="black" d="M739.74,-1530.08C730.79,-1517.76 720.03,-1502.94 708.61,-1487.2"/>
<polygon fill="black" stroke="black" points="711.29,-1484.93 702.58,-1478.89 705.62,-1489.04 711.29,-1484.93"/>
<text text-anchor="start" x="723" y="-1500.8" font-family="Times,serif" font-size="14.00">%13</text>
</g>
<!-- node15 -->
<g id="node16" class="node">
<title>node15</title>
<polygon fill="none" stroke="black" points="574.5,-1110.5 574.5,-1178.5 797.5,-1178.5 797.5,-1110.5 574.5,-1110.5"/>
<text text-anchor="start" x="582.5" y="-1163.3" font-family="Times,serif" font-size="14.00">Let l6 =</text>
<text text-anchor="start" x="582.5" y="-1148.3" font-family="Times,serif" font-size="14.00"> Union %13 %14</text>
<text text-anchor="start" x="582.5" y="-1133.3" font-family="Times,serif" font-size="14.00"> types = (integer?, boolean?)</text>
<text text-anchor="start" x="582.5" y="-1118.3" font-family="Times,serif" font-size="14.00"> keys = ()</text>
</g>
<!-- node13&#45;&gt;node15 -->
<g id="edge32" class="edge">
<title>node13&#45;&gt;node15</title>
<path fill="none" stroke="black" d="M797.6,-1530.4C809.99,-1515.92 822.56,-1497.92 829,-1479 864.64,-1374.23 883.85,-1326.12 829,-1230 818.16,-1211 801.18,-1195.83 782.65,-1183.91"/>
<polygon fill="black" stroke="black" points="784.41,-1180.88 774.05,-1178.65 780.76,-1186.85 784.41,-1180.88"/>
<text text-anchor="start" x="863" y="-1350.8" font-family="Times,serif" font-size="14.00">%13</text>
</g>
<!-- node14&#45;&gt;node15 -->
<g id="edge14" class="edge">
<title>node14&#45;&gt;node15</title>
<path fill="none" stroke="black" d="M656.2,-1230.4C661.45,-1215.45 666.51,-1201.05 670.92,-1188.48"/>
<polygon fill="black" stroke="black" points="674.3,-1189.42 674.31,-1178.82 667.69,-1187.1 674.3,-1189.42"/>
<text text-anchor="start" x="666" y="-1200.8" font-family="Times,serif" font-size="14.00">%14</text>
</g>
<!-- node16 -->
<g id="node17" class="node">
<title>node16</title>
<polygon fill="none" stroke="black" points="692.5,-915.5 692.5,-1058.5 915.5,-1058.5 915.5,-915.5 692.5,-915.5"/>
<text text-anchor="start" x="700.5" y="-1043.3" font-family="Times,serif" font-size="14.00">Get %15 (l6)</text>
<text text-anchor="start" x="700.5" y="-1028.3" font-family="Times,serif" font-size="14.00"> types = (integer?, boolean?)</text>
<text text-anchor="start" x="700.5" y="-1013.3" font-family="Times,serif" font-size="14.00"> keys = ()</text>
<text text-anchor="start" x="700.5" y="-998.3" font-family="Times,serif" font-size="14.00"> Distinct group=(#0)</text>
<text text-anchor="start" x="700.5" y="-983.3" font-family="Times,serif" font-size="14.00"> types = (integer?)</text>
<text text-anchor="start" x="700.5" y="-968.3" font-family="Times,serif" font-size="14.00"> keys = ((#0))</text>
<text text-anchor="start" x="700.5" y="-953.3" font-family="Times,serif" font-size="14.00"> Negate</text>
<text text-anchor="start" x="700.5" y="-938.3" font-family="Times,serif" font-size="14.00"> types = (integer?)</text>
<text text-anchor="start" x="700.5" y="-923.3" font-family="Times,serif" font-size="14.00"> keys = ()</text>
</g>
<!-- node15&#45;&gt;node16 -->
<g id="edge31" class="edge">
<title>node15&#45;&gt;node16</title>
<path fill="none" stroke="black" d="M711.31,-1110.14C721.06,-1097.3 732.65,-1082.03 744.28,-1066.7"/>
<polygon fill="black" stroke="black" points="747.09,-1068.78 750.35,-1058.7 741.52,-1064.55 747.09,-1068.78"/>
<text text-anchor="start" x="734" y="-1080.8" font-family="Times,serif" font-size="14.00">%15</text>
</g>
<!-- node22 -->
<g id="node23" class="node">
<title>node22</title>
<polygon fill="none" stroke="black" points="524.5,-420.5 524.5,-473.5 747.5,-473.5 747.5,-420.5 524.5,-420.5"/>
<text text-anchor="start" x="532.5" y="-458.3" font-family="Times,serif" font-size="14.00">Union %15 %21</text>
<text text-anchor="start" x="532.5" y="-443.3" font-family="Times,serif" font-size="14.00"> types = (integer?, boolean?)</text>
<text text-anchor="start" x="532.5" y="-428.3" font-family="Times,serif" font-size="14.00"> keys = ()</text>
</g>
<!-- node15&#45;&gt;node22 -->
<g id="edge5" class="edge">
<title>node15&#45;&gt;node22</title>
<path fill="none" stroke="black" d="M668.65,-1110.21C654.21,-1079.38 636,-1031.81 636,-988 636,-988 636,-988 636,-558.5 636,-533.61 636,-505.56 636,-483.95"/>
<polygon fill="black" stroke="black" points="639.5,-483.9 636,-473.9 632.5,-483.9 639.5,-483.9"/>
<text text-anchor="start" x="636" y="-780.8" font-family="Times,serif" font-size="14.00">%15</text>
</g>
<!-- node18 -->
<g id="node19" class="node">
<title>node18</title>
<polygon fill="none" stroke="black" points="879.5,-810.5 879.5,-863.5 1030.5,-863.5 1030.5,-810.5 879.5,-810.5"/>
<text text-anchor="start" x="887.5" y="-848.3" font-family="Times,serif" font-size="14.00">Union %16 %17</text>
<text text-anchor="start" x="887.5" y="-833.3" font-family="Times,serif" font-size="14.00"> types = (integer?)</text>
<text text-anchor="start" x="887.5" y="-818.3" font-family="Times,serif" font-size="14.00"> keys = ()</text>
</g>
<!-- node16&#45;&gt;node18 -->
<g id="edge26" class="edge">
<title>node16&#45;&gt;node18</title>
<path fill="none" stroke="black" d="M875.96,-915.47C891.86,-899.89 907.96,-884.1 921.45,-870.88"/>
<polygon fill="black" stroke="black" points="923.96,-873.32 928.65,-863.82 919.06,-868.32 923.96,-873.32"/>
<text text-anchor="start" x="906" y="-885.8" font-family="Times,serif" font-size="14.00">%16</text>
</g>
<!-- node17&#45;&gt;node18 -->
<g id="edge33" class="edge">
<title>node17&#45;&gt;node18</title>
<path fill="none" stroke="black" d="M960.03,-2202.34C959.15,-2154.84 958,-2080.17 958,-2015.5 958,-2015.5 958,-2015.5 958,-986 958,-947.78 956.99,-904.01 956.14,-874.04"/>
<polygon fill="black" stroke="black" points="959.63,-873.56 955.84,-863.66 952.63,-873.76 959.63,-873.56"/>
<text text-anchor="start" x="958" y="-1620.8" font-family="Times,serif" font-size="14.00">%17</text>
</g>
<!-- node18&#45;&gt;node19 -->
<g id="edge16" class="edge">
<title>node18&#45;&gt;node19</title>
<path fill="none" stroke="black" d="M963.87,-810.36C968.05,-798.28 973.24,-783.27 978.4,-768.34"/>
<polygon fill="black" stroke="black" points="981.82,-769.17 981.78,-758.57 975.2,-766.88 981.82,-769.17"/>
<text text-anchor="start" x="975" y="-780.8" font-family="Times,serif" font-size="14.00">%18</text>
</g>
<!-- node21 -->
<g id="node22" class="node">
<title>node21</title>
<polygon fill="none" stroke="black" points="664.5,-525.5 664.5,-593.5 933.5,-593.5 933.5,-525.5 664.5,-525.5"/>
<text text-anchor="start" x="672.5" y="-578.3" font-family="Times,serif" font-size="14.00">Join %19 %20</text>
<text text-anchor="start" x="672.5" y="-563.3" font-family="Times,serif" font-size="14.00"> implementation = Unimplemented</text>
<text text-anchor="start" x="672.5" y="-548.3" font-family="Times,serif" font-size="14.00"> types = (integer?, boolean?)</text>
<text text-anchor="start" x="672.5" y="-533.3" font-family="Times,serif" font-size="14.00"> keys = ()</text>
</g>
<!-- node19&#45;&gt;node21 -->
<g id="edge17" class="edge">
<title>node19&#45;&gt;node21</title>
<path fill="none" stroke="black" d="M921.16,-645.47C898.97,-630.03 875.35,-613.6 854.85,-599.34"/>
<polygon fill="black" stroke="black" points="856.77,-596.42 846.56,-593.58 852.77,-602.17 856.77,-596.42"/>
<text text-anchor="start" x="893" y="-615.8" font-family="Times,serif" font-size="14.00">%19</text>
</g>
<!-- node20 -->
<g id="node21" class="node">
<title>node20</title>
<polygon fill="none" stroke="black" points="693.5,-675.5 693.5,-728.5 848.5,-728.5 848.5,-675.5 693.5,-675.5"/>
<text text-anchor="start" x="701.5" y="-713.3" font-family="Times,serif" font-size="14.00">Constant (null)</text>
<text text-anchor="start" x="701.5" y="-698.3" font-family="Times,serif" font-size="14.00"> types = (boolean?)</text>
<text text-anchor="start" x="701.5" y="-683.3" font-family="Times,serif" font-size="14.00"> keys = (())</text>
</g>
<!-- node20&#45;&gt;node21 -->
<g id="edge24" class="edge">
<title>node20&#45;&gt;node21</title>
<path fill="none" stroke="black" d="M768.61,-675.28C767.65,-657.29 767.79,-632.84 773,-612 773.74,-609.03 774.68,-606.04 775.75,-603.08"/>
<polygon fill="black" stroke="black" points="779.02,-604.32 779.56,-593.74 772.54,-601.68 779.02,-604.32"/>
<text text-anchor="start" x="773" y="-615.8" font-family="Times,serif" font-size="14.00">%20</text>
</g>
<!-- node21&#45;&gt;node22 -->
<g id="edge2" class="edge">
<title>node21&#45;&gt;node22</title>
<path fill="none" stroke="black" d="M750.09,-525.35C728.58,-510.76 703.44,-493.72 682.25,-479.35"/>
<polygon fill="black" stroke="black" points="683.97,-476.29 673.73,-473.58 680.04,-482.09 683.97,-476.29"/>
<text text-anchor="start" x="722" y="-495.8" font-family="Times,serif" font-size="14.00">%21</text>
</g>
<!-- node22&#45;&gt;node23 -->
<g id="edge7" class="edge">
<title>node22&#45;&gt;node23</title>
<path fill="none" stroke="black" d="M598.59,-420.36C579.39,-407.19 555.09,-390.53 531.41,-374.29"/>
<polygon fill="black" stroke="black" points="533.29,-371.34 523.06,-368.57 529.33,-377.11 533.29,-371.34"/>
<text text-anchor="start" x="567" y="-390.8" font-family="Times,serif" font-size="14.00">%22</text>
</g>
<!-- node23&#45;&gt;node24 -->
<g id="edge23" class="edge">
<title>node23&#45;&gt;node24</title>
<path fill="none" stroke="black" d="M390.55,-255.26C377.95,-241.61 364.03,-226.53 350,-211.33"/>
<polygon fill="black" stroke="black" points="352.46,-208.84 343.11,-203.87 347.32,-213.59 352.46,-208.84"/>
<text text-anchor="start" x="368" y="-225.8" font-family="Times,serif" font-size="14.00">%23</text>
</g>
</g>
</svg>
