<?xml version="1.0" encoding="UTF-8" standalone="no"?>
<!DOCTYPE svg PUBLIC "-//W3C//DTD SVG 1.1//EN"
 "http://www.w3.org/Graphics/SVG/1.1/DTD/svg11.dtd">
<!-- Generated by graphviz version 2.43.0 (0)
 -->
<!-- Title: G Pages: 1 -->
<svg width="1066pt" height="944pt"
 viewBox="0.00 0.00 1066.00 944.47" xmlns="http://www.w3.org/2000/svg" xmlns:xlink="http://www.w3.org/1999/xlink">
<g id="graph0" class="graph" transform="scale(1 1) rotate(0) translate(4 940.47)">
<title>G</title>
<polygon fill="white" stroke="transparent" points="-4,4 -4,-940.47 1062,-940.47 1062,4 -4,4"/>
<g id="clust1" class="cluster">
<title>cluster7</title>
<polygon fill="none" stroke="black" points="784,-815.37 784,-928.47 1050,-928.47 1050,-815.37 784,-815.37"/>
<text text-anchor="middle" x="834.5" y="-913.27" font-family="Times,serif" font-size="14.00">Box7:Select</text>
</g>
<g id="clust3" class="cluster">
<title>cluster1</title>
<polygon fill="none" stroke="black" points="479,-664.37 479,-796.37 916,-796.37 916,-664.37 479,-664.37"/>
<text text-anchor="middle" x="529.5" y="-781.17" font-family="Times,serif" font-size="14.00">Box1:Select</text>
</g>
<g id="clust5" class="cluster">
<title>cluster0</title>
<polygon fill="none" stroke="black" points="371,-534.33 371,-643.33 533,-643.33 533,-534.33 371,-534.33"/>
<text text-anchor="middle" x="412.5" y="-628.13" font-family="Times,serif" font-size="14.00">Box0:Get</text>
</g>
<g id="clust7" class="cluster">
<title>cluster6</title>
<polygon fill="none" stroke="black" points="541,-532.28 541,-645.37 807,-645.37 807,-532.28 541,-532.28"/>
<text text-anchor="middle" x="591.5" y="-630.17" font-family="Times,serif" font-size="14.00">Box6:Select</text>
</g>
<g id="clust9" class="cluster">
<title>cluster5</title>
<polygon fill="none" stroke="black" points="393,-400.19 393,-513.28 686,-513.28 686,-400.19 393,-400.19"/>
<text text-anchor="middle" x="455" y="-498.08" font-family="Times,serif" font-size="14.00">Box5:Grouping</text>
</g>
<g id="clust11" class="cluster">
<title>cluster4</title>
<polygon fill="none" stroke="black" points="176,-268.09 176,-381.19 608,-381.19 608,-268.09 176,-268.09"/>
<text text-anchor="middle" x="226.5" y="-365.99" font-family="Times,serif" font-size="14.00">Box4:Select</text>
</g>
<g id="clust13" class="cluster">
<title>cluster3</title>
<polygon fill="none" stroke="black" points="44,-136 44,-249.09 306,-249.09 306,-136 44,-136"/>
<text text-anchor="middle" x="94.5" y="-233.89" font-family="Times,serif" font-size="14.00">Box3:Select</text>
</g>
<g id="clust15" class="cluster">
<title>cluster2</title>
<polygon fill="none" stroke="black" points="8,-8 8,-117 170,-117 170,-8 8,-8"/>
<text text-anchor="middle" x="49.5" y="-101.8" font-family="Times,serif" font-size="14.00">Box2:Get</text>
</g>
<!-- boxhead7 -->
<g id="node1" class="node">
<title>boxhead7</title>
<polygon fill="none" stroke="black" points="884.5,-837.42 884.5,-883.42 1041.5,-883.42 1041.5,-837.42 884.5,-837.42"/>
<text text-anchor="middle" x="963" y="-868.22" font-family="Times,serif" font-size="14.00">Distinct: Preserve</text>
<polyline fill="none" stroke="black" points="884.5,-860.42 1041.5,-860.42 "/>
<text text-anchor="middle" x="963" y="-845.22" font-family="Times,serif" font-size="14.00">0: Q6.C2 (boolean?)</text>
</g>
<!-- Q6 -->
<g id="node2" class="node">
<title>Q6</title>
<ellipse fill="none" stroke="black" cx="829" cy="-860.42" rx="37.09" ry="37.09"/>
<text text-anchor="middle" x="829" y="-856.72" font-family="Times,serif" font-size="14.00">Q6(F)</text>
</g>
<!-- boxhead1 -->
<g id="node3" class="node">
<title>boxhead1</title>
<polygon fill="none" stroke="black" points="750.5,-672.87 750.5,-764.87 907.5,-764.87 907.5,-672.87 750.5,-672.87"/>
<text text-anchor="middle" x="829" y="-749.67" font-family="Times,serif" font-size="14.00">Distinct: Preserve</text>
<polyline fill="none" stroke="black" points="750.5,-741.87 907.5,-741.87 "/>
<text text-anchor="middle" x="829" y="-726.67" font-family="Times,serif" font-size="14.00">0: Q0.C0 (integer?)</text>
<polyline fill="none" stroke="black" points="750.5,-718.87 907.5,-718.87 "/>
<text text-anchor="middle" x="829" y="-703.67" font-family="Times,serif" font-size="14.00">1: Q0.C1 (integer?)</text>
<polyline fill="none" stroke="black" points="750.5,-695.87 907.5,-695.87 "/>
<text text-anchor="middle" x="829" y="-680.67" font-family="Times,serif" font-size="14.00">2: Q5.C0 (boolean?)</text>
</g>
<!-- Q6&#45;&gt;boxhead1 -->
<g id="edge2" class="edge">
<title>Q6&#45;&gt;boxhead1</title>
<path fill="none" stroke="black" stroke-dasharray="5,2" d="M829,-823.12C829,-814.81 829,-805.67 829,-796.37"/>
</g>
<!-- Q0 -->
<g id="node4" class="node">
<title>Q0</title>
<ellipse fill="none" stroke="black" cx="524" cy="-718.87" rx="37.09" ry="37.09"/>
<text text-anchor="middle" x="524" y="-715.17" font-family="Times,serif" font-size="14.00">Q0(F)</text>
</g>
<!-- boxhead0 -->
<g id="node6" class="node">
<title>boxhead0</title>
<polygon fill="none" stroke="black" points="379,-542.83 379,-611.83 525,-611.83 525,-542.83 379,-542.83"/>
<text text-anchor="middle" x="452" y="-596.63" font-family="Times,serif" font-size="14.00">Distinct: Preserve</text>
<polyline fill="none" stroke="black" points="379,-588.83 525,-588.83 "/>
<text text-anchor="middle" x="452" y="-573.63" font-family="Times,serif" font-size="14.00">0: C0 (integer?)</text>
<polyline fill="none" stroke="black" points="379,-565.83 525,-565.83 "/>
<text text-anchor="middle" x="452" y="-550.63" font-family="Times,serif" font-size="14.00">1: C1 (integer?)</text>
</g>
<!-- Q0&#45;&gt;boxhead0 -->
<g id="edge3" class="edge">
<title>Q0&#45;&gt;boxhead0</title>
<path fill="none" stroke="black" stroke-dasharray="5,2" d="M507.3,-685.51C500.79,-672.9 493.09,-657.97 485.54,-643.33"/>
</g>
<!-- Q5 -->
<g id="node5" class="node">
<title>Q5</title>
<ellipse fill="none" stroke="black" cx="695" cy="-718.87" rx="37.09" ry="37.09"/>
<text text-anchor="middle" x="695" y="-715.17" font-family="Times,serif" font-size="14.00">Q5(S)</text>
</g>
<!-- Q5&#45;&gt;Q0 -->
<g id="edge1" class="edge">
<title>Q5&#45;&gt;Q0</title>
<path fill="none" stroke="red" d="M657.67,-718.87C632.28,-718.87 598.47,-718.87 571.2,-718.87"/>
<polygon fill="red" stroke="red" points="571.1,-715.37 561.1,-718.87 571.1,-722.37 571.1,-715.37"/>
<text text-anchor="middle" x="609.5" y="-725.67" font-family="Times,serif" font-size="14.00">correlation</text>
</g>
<!-- boxhead6 -->
<g id="node7" class="node">
<title>boxhead6</title>
<polygon fill="none" stroke="black" points="641.5,-554.33 641.5,-600.33 798.5,-600.33 798.5,-554.33 641.5,-554.33"/>
<text text-anchor="middle" x="720" y="-585.13" font-family="Times,serif" font-size="14.00">Distinct: Preserve</text>
<polyline fill="none" stroke="black" points="641.5,-577.33 798.5,-577.33 "/>
<text text-anchor="middle" x="720" y="-562.13" font-family="Times,serif" font-size="14.00">0: Q4.C0 (boolean?)</text>
</g>
<!-- Q5&#45;&gt;boxhead6 -->
<g id="edge4" class="edge">
<title>Q5&#45;&gt;boxhead6</title>
<path fill="none" stroke="black" stroke-dasharray="5,2" d="M701.37,-682.3C703.4,-671.01 705.7,-658.13 707.99,-645.37"/>
</g>
<!-- Q4 -->
<g id="node8" class="node">
<title>Q4</title>
<ellipse fill="none" stroke="black" cx="586" cy="-577.33" rx="37.09" ry="37.09"/>
<text text-anchor="middle" x="586" y="-573.63" font-family="Times,serif" font-size="14.00">Q4(F)</text>
</g>
<!-- boxhead5 -->
<g id="node9" class="node">
<title>boxhead5</title>
<polygon fill="none" stroke="black" points="493.5,-422.23 493.5,-468.23 678.5,-468.23 678.5,-422.23 493.5,-422.23"/>
<text text-anchor="middle" x="586" y="-453.03" font-family="Times,serif" font-size="14.00">Distinct: Preserve</text>
<polyline fill="none" stroke="black" points="493.5,-445.23 678.5,-445.23 "/>
<text text-anchor="middle" x="586" y="-430.03" font-family="Times,serif" font-size="14.00">0: all(Q3.C0) (boolean?)</text>
</g>
<!-- Q4&#45;&gt;boxhead5 -->
<g id="edge5" class="edge">
<title>Q4&#45;&gt;boxhead5</title>
<path fill="none" stroke="black" stroke-dasharray="5,2" d="M586,-540.09C586,-531.7 586,-522.52 586,-513.28"/>
</g>
<!-- Q3 -->
<g id="node10" class="node">
<title>Q3</title>
<ellipse fill="none" stroke="black" cx="438" cy="-445.23" rx="37.09" ry="37.09"/>
<text text-anchor="middle" x="438" y="-441.53" font-family="Times,serif" font-size="14.00">Q3(F)</text>
</g>
<!-- boxhead4 -->
<g id="node11" class="node">
<title>boxhead4</title>
<polygon fill="none" stroke="black" points="276,-290.14 276,-336.14 600,-336.14 600,-290.14 276,-290.14"/>
<text text-anchor="middle" x="438" y="-320.94" font-family="Times,serif" font-size="14.00">Distinct: Preserve</text>
<polyline fill="none" stroke="black" points="276,-313.14 600,-313.14 "/>
<text text-anchor="middle" x="438" y="-297.94" font-family="Times,serif" font-size="14.00">0: !(((Q0.C0 = Q2.C0) &amp;&amp; true)) (boolean?)</text>
</g>
<!-- Q3&#45;&gt;boxhead4 -->
<g id="edge6" class="edge">
<title>Q3&#45;&gt;boxhead4</title>
<path fill="none" stroke="black" stroke-dasharray="5,2" d="M438,-408C438,-399.61 438,-390.42 438,-381.18"/>
</g>
<!-- Q2 -->
<g id="node12" class="node">
<title>Q2</title>
<ellipse fill="none" stroke="black" cx="221" cy="-313.14" rx="37.09" ry="37.09"/>
<text text-anchor="middle" x="221" y="-309.44" font-family="Times,serif" font-size="14.00">Q2(F)</text>
</g>
<!-- boxhead3 -->
<g id="node13" class="node">
<title>boxhead3</title>
<polygon fill="none" stroke="black" points="144.5,-158.05 144.5,-204.05 297.5,-204.05 297.5,-158.05 144.5,-158.05"/>
<text text-anchor="middle" x="221" y="-188.85" font-family="Times,serif" font-size="14.00">Distinct: Preserve</text>
<polyline fill="none" stroke="black" points="144.5,-181.05 297.5,-181.05 "/>
<text text-anchor="middle" x="221" y="-165.85" font-family="Times,serif" font-size="14.00">0: Q1.C0 (integer?)</text>
</g>
<!-- Q2&#45;&gt;boxhead3 -->
<g id="edge7" class="edge">
<title>Q2&#45;&gt;boxhead3</title>
<path fill="none" stroke="black" stroke-dasharray="5,2" d="M221,-275.9C221,-267.52 221,-258.33 221,-249.09"/>
</g>
<!-- Q1 -->
<g id="node14" class="node">
<title>Q1</title>
<ellipse fill="none" stroke="black" cx="89" cy="-181.05" rx="37.09" ry="37.09"/>
<text text-anchor="middle" x="89" y="-177.35" font-family="Times,serif" font-size="14.00">Q1(F)</text>
</g>
<!-- boxhead2 -->
<g id="node15" class="node">
<title>boxhead2</title>
<polygon fill="none" stroke="black" points="16,-16.5 16,-85.5 162,-85.5 162,-16.5 16,-16.5"/>
<text text-anchor="middle" x="89" y="-70.3" font-family="Times,serif" font-size="14.00">Distinct: Preserve</text>
<polyline fill="none" stroke="black" points="16,-62.5 162,-62.5 "/>
<text text-anchor="middle" x="89" y="-47.3" font-family="Times,serif" font-size="14.00">0: C0 (integer?)</text>
<polyline fill="none" stroke="black" points="16,-39.5 162,-39.5 "/>
<text text-anchor="middle" x="89" y="-24.3" font-family="Times,serif" font-size="14.00">1: C1 (integer)</text>
</g>
<!-- Q1&#45;&gt;boxhead2 -->
<g id="edge8" class="edge">
<title>Q1&#45;&gt;boxhead2</title>
<path fill="none" stroke="black" stroke-dasharray="5,2" d="M89,-143.7C89,-135.33 89,-126.18 89,-117"/>
</g>
</g>
</svg>
