<?xml version="1.0" encoding="UTF-8" standalone="no"?>
<!DOCTYPE svg PUBLIC "-//W3C//DTD SVG 1.1//EN"
 "http://www.w3.org/Graphics/SVG/1.1/DTD/svg11.dtd">
<!-- Generated by graphviz version 2.43.0 (0)
 -->
<!-- Title: G Pages: 1 -->
<svg width="1147pt" height="1500pt"
 viewBox="0.00 0.00 1146.50 1500.00" xmlns="http://www.w3.org/2000/svg" xmlns:xlink="http://www.w3.org/1999/xlink">
<g id="graph0" class="graph" transform="scale(1 1) rotate(0) translate(4 1496)">
<title>G</title>
<polygon fill="white" stroke="transparent" points="-4,4 -4,-1496 1142.5,-1496 1142.5,4 -4,4"/>
<!-- node0 -->
<g id="node1" class="node">
<title>node0</title>
<polygon fill="none" stroke="black" points="308.5,-1453.5 308.5,-1491.5 409.5,-1491.5 409.5,-1453.5 308.5,-1453.5"/>
<text text-anchor="start" x="316.5" y="-1476.3" font-family="Times,serif" font-size="14.00">Let l0 =</text>
<text text-anchor="start" x="316.5" y="-1461.3" font-family="Times,serif" font-size="14.00"> Constant ()</text>
</g>
<!-- node2 -->
<g id="node3" class="node">
<title>node2</title>
<polygon fill="none" stroke="black" points="346.5,-1348.5 346.5,-1401.5 615.5,-1401.5 615.5,-1348.5 346.5,-1348.5"/>
<text text-anchor="start" x="354.5" y="-1386.3" font-family="Times,serif" font-size="14.00">Let l1 =</text>
<text text-anchor="start" x="354.5" y="-1371.3" font-family="Times,serif" font-size="14.00"> Join %0 %1</text>
<text text-anchor="start" x="354.5" y="-1356.3" font-family="Times,serif" font-size="14.00"> implementation = Unimplemented</text>
</g>
<!-- node0&#45;&gt;node2 -->
<g id="edge5" class="edge">
<title>node0&#45;&gt;node2</title>
<path fill="none" stroke="black" d="M380.26,-1453.3C392.11,-1443.3 407.21,-1430.76 421,-1420 426.08,-1416.03 431.45,-1411.94 436.82,-1407.93"/>
<polygon fill="black" stroke="black" points="439.26,-1410.48 445.2,-1401.71 435.09,-1404.86 439.26,-1410.48"/>
<text text-anchor="start" x="421" y="-1423.8" font-family="Times,serif" font-size="14.00">%0</text>
</g>
<!-- node4 -->
<g id="node5" class="node">
<title>node4</title>
<polygon fill="none" stroke="black" points="706.5,-1348.5 706.5,-1401.5 975.5,-1401.5 975.5,-1348.5 706.5,-1348.5"/>
<text text-anchor="start" x="714.5" y="-1386.3" font-family="Times,serif" font-size="14.00">Let l2 =</text>
<text text-anchor="start" x="714.5" y="-1371.3" font-family="Times,serif" font-size="14.00"> Join %0 %3</text>
<text text-anchor="start" x="714.5" y="-1356.3" font-family="Times,serif" font-size="14.00"> implementation = Unimplemented</text>
</g>
<!-- node0&#45;&gt;node4 -->
<g id="edge21" class="edge">
<title>node0&#45;&gt;node4</title>
<path fill="none" stroke="black" d="M399.88,-1453.41C426.94,-1442.15 463.49,-1428.28 497,-1420 507.11,-1417.5 606.71,-1404.86 696.15,-1393.76"/>
<polygon fill="black" stroke="black" points="696.67,-1397.23 706.16,-1392.52 695.81,-1390.28 696.67,-1397.23"/>
<text text-anchor="start" x="497" y="-1423.8" font-family="Times,serif" font-size="14.00">%0</text>
</g>
<!-- node14 -->
<g id="node15" class="node">
<title>node14</title>
<polygon fill="none" stroke="black" points="59.5,-1348.5 59.5,-1401.5 328.5,-1401.5 328.5,-1348.5 59.5,-1348.5"/>
<text text-anchor="start" x="67.5" y="-1386.3" font-family="Times,serif" font-size="14.00">Let l6 =</text>
<text text-anchor="start" x="67.5" y="-1371.3" font-family="Times,serif" font-size="14.00"> Join %0 %13</text>
<text text-anchor="start" x="67.5" y="-1356.3" font-family="Times,serif" font-size="14.00"> implementation = Unimplemented</text>
</g>
<!-- node0&#45;&gt;node14 -->
<g id="edge16" class="edge">
<title>node0&#45;&gt;node14</title>
<path fill="none" stroke="black" d="M327.58,-1453.31C304.81,-1440.14 273.49,-1422.01 246.9,-1406.62"/>
<polygon fill="black" stroke="black" points="248.49,-1403.49 238.08,-1401.51 244.98,-1409.55 248.49,-1403.49"/>
<text text-anchor="start" x="292" y="-1423.8" font-family="Times,serif" font-size="14.00">%0</text>
</g>
<!-- node1 -->
<g id="node2" class="node">
<title>node1</title>
<polygon fill="none" stroke="black" points="428,-1454.5 428,-1490.5 716,-1490.5 716,-1454.5 428,-1454.5"/>
<text text-anchor="start" x="436" y="-1468.8" font-family="Times,serif" font-size="14.00">Get simplify_outer_joins.public.l (u94)</text>
</g>
<!-- node1&#45;&gt;node2 -->
<g id="edge30" class="edge">
<title>node1&#45;&gt;node2</title>
<path fill="none" stroke="black" d="M555.73,-1454.43C543.69,-1441.79 526.92,-1424.19 512.32,-1408.86"/>
<polygon fill="black" stroke="black" points="514.78,-1406.38 505.35,-1401.55 509.72,-1411.21 514.78,-1406.38"/>
<text text-anchor="start" x="535" y="-1423.8" font-family="Times,serif" font-size="14.00">%1</text>
</g>
<!-- node5 -->
<g id="node6" class="node">
<title>node5</title>
<polygon fill="none" stroke="black" points="510.5,-1213.5 510.5,-1296.5 779.5,-1296.5 779.5,-1213.5 510.5,-1213.5"/>
<text text-anchor="start" x="518.5" y="-1281.3" font-family="Times,serif" font-size="14.00">Let l3 =</text>
<text text-anchor="start" x="518.5" y="-1266.3" font-family="Times,serif" font-size="14.00"> Join %2 %4</text>
<text text-anchor="start" x="518.5" y="-1251.3" font-family="Times,serif" font-size="14.00"> implementation = Unimplemented</text>
<text text-anchor="start" x="518.5" y="-1236.3" font-family="Times,serif" font-size="14.00"> Project (#0..#3)</text>
<text text-anchor="start" x="518.5" y="-1221.3" font-family="Times,serif" font-size="14.00"> Filter (#1 = #2)</text>
</g>
<!-- node2&#45;&gt;node5 -->
<g id="edge3" class="edge">
<title>node2&#45;&gt;node5</title>
<path fill="none" stroke="black" d="M516.59,-1348.4C535.21,-1334.99 558.61,-1318.16 580.31,-1302.55"/>
<polygon fill="black" stroke="black" points="582.45,-1305.31 588.53,-1296.63 578.37,-1299.63 582.45,-1305.31"/>
<text text-anchor="start" x="563" y="-1318.8" font-family="Times,serif" font-size="14.00">%2</text>
</g>
<!-- node9 -->
<g id="node10" class="node">
<title>node9</title>
<polygon fill="none" stroke="black" points="305.5,-973.5 305.5,-1041.5 574.5,-1041.5 574.5,-973.5 305.5,-973.5"/>
<text text-anchor="start" x="313.5" y="-1026.3" font-family="Times,serif" font-size="14.00">Join %2 %6 (= #1 #2)</text>
<text text-anchor="start" x="313.5" y="-1011.3" font-family="Times,serif" font-size="14.00"> implementation = Unimplemented</text>
<text text-anchor="start" x="313.5" y="-996.3" font-family="Times,serif" font-size="14.00"> Project (#0, #1)</text>
<text text-anchor="start" x="313.5" y="-981.3" font-family="Times,serif" font-size="14.00"> Negate</text>
</g>
<!-- node2&#45;&gt;node9 -->
<g id="edge1" class="edge">
<title>node2&#45;&gt;node9</title>
<path fill="none" stroke="black" d="M478.12,-1348.3C471.18,-1286.45 453.49,-1128.79 444.87,-1051.94"/>
<polygon fill="black" stroke="black" points="448.31,-1051.19 443.72,-1041.65 441.35,-1051.97 448.31,-1051.19"/>
<text text-anchor="start" x="461" y="-1183.8" font-family="Times,serif" font-size="14.00">%2</text>
</g>
<!-- node10 -->
<g id="node11" class="node">
<title>node10</title>
<polygon fill="none" stroke="black" points="380,-876 380,-914 500,-914 500,-876 380,-876"/>
<text text-anchor="start" x="388" y="-898.8" font-family="Times,serif" font-size="14.00">Union %9 %2</text>
<text text-anchor="start" x="388" y="-883.8" font-family="Times,serif" font-size="14.00"> Map null, null</text>
</g>
<!-- node2&#45;&gt;node10 -->
<g id="edge15" class="edge">
<title>node2&#45;&gt;node10</title>
<path fill="none" stroke="black" d="M362.33,-1348.41C317.45,-1331.14 277,-1302.64 277,-1256 277,-1256 277,-1256 277,-1006.5 277,-958.56 325.9,-929.99 370.13,-913.95"/>
<polygon fill="black" stroke="black" points="371.46,-917.19 379.77,-910.62 369.17,-910.57 371.46,-917.19"/>
<text text-anchor="start" x="277" y="-1123.8" font-family="Times,serif" font-size="14.00">%2</text>
</g>
<!-- node3 -->
<g id="node4" class="node">
<title>node3</title>
<polygon fill="none" stroke="black" points="734,-1454.5 734,-1490.5 1024,-1490.5 1024,-1454.5 734,-1454.5"/>
<text text-anchor="start" x="742" y="-1468.8" font-family="Times,serif" font-size="14.00">Get simplify_outer_joins.public.r (u96)</text>
</g>
<!-- node3&#45;&gt;node4 -->
<g id="edge6" class="edge">
<title>node3&#45;&gt;node4</title>
<path fill="none" stroke="black" d="M872.21,-1454.43C867.41,-1442.37 860.81,-1425.78 854.91,-1410.97"/>
<polygon fill="black" stroke="black" points="858.12,-1409.55 851.17,-1401.55 851.61,-1412.14 858.12,-1409.55"/>
<text text-anchor="start" x="863" y="-1423.8" font-family="Times,serif" font-size="14.00">%3</text>
</g>
<!-- node4&#45;&gt;node5 -->
<g id="edge24" class="edge">
<title>node4&#45;&gt;node5</title>
<path fill="none" stroke="black" d="M798.47,-1348.4C775.91,-1334.82 747.51,-1317.72 721.29,-1301.93"/>
<polygon fill="black" stroke="black" points="722.87,-1298.79 712.49,-1296.63 719.25,-1304.79 722.87,-1298.79"/>
<text text-anchor="start" x="766" y="-1318.8" font-family="Times,serif" font-size="14.00">%4</text>
</g>
<!-- node7 -->
<g id="node8" class="node">
<title>node7</title>
<polygon fill="none" stroke="black" points="869.5,-973.5 869.5,-1041.5 1138.5,-1041.5 1138.5,-973.5 869.5,-973.5"/>
<text text-anchor="start" x="877.5" y="-1026.3" font-family="Times,serif" font-size="14.00">Join %4 %6 (= #0 #2)</text>
<text text-anchor="start" x="877.5" y="-1011.3" font-family="Times,serif" font-size="14.00"> implementation = Unimplemented</text>
<text text-anchor="start" x="877.5" y="-996.3" font-family="Times,serif" font-size="14.00"> Project (#0, #1)</text>
<text text-anchor="start" x="877.5" y="-981.3" font-family="Times,serif" font-size="14.00"> Negate</text>
</g>
<!-- node4&#45;&gt;node7 -->
<g id="edge11" class="edge">
<title>node4&#45;&gt;node7</title>
<path fill="none" stroke="black" d="M852.46,-1348.3C880.15,-1286.2 950.93,-1127.5 985.05,-1051"/>
<polygon fill="black" stroke="black" points="988.34,-1052.2 989.22,-1041.65 981.95,-1049.35 988.34,-1052.2"/>
<text text-anchor="start" x="926" y="-1183.8" font-family="Times,serif" font-size="14.00">%4</text>
</g>
<!-- node8 -->
<g id="node9" class="node">
<title>node8</title>
<polygon fill="none" stroke="black" points="742,-868.5 742,-921.5 940,-921.5 940,-868.5 742,-868.5"/>
<text text-anchor="start" x="750" y="-906.3" font-family="Times,serif" font-size="14.00">Union %7 %4</text>
<text text-anchor="start" x="750" y="-891.3" font-family="Times,serif" font-size="14.00"> Map null, null</text>
<text text-anchor="start" x="750" y="-876.3" font-family="Times,serif" font-size="14.00"> Project (#2, #3, #0, #1)</text>
</g>
<!-- node4&#45;&gt;node8 -->
<g id="edge26" class="edge">
<title>node4&#45;&gt;node8</title>
<path fill="none" stroke="black" d="M841,-1348.22C841,-1324.31 841,-1287.75 841,-1256 841,-1256 841,-1256 841,-1006.5 841,-981.61 841,-953.56 841,-931.95"/>
<polygon fill="black" stroke="black" points="844.5,-931.9 841,-921.9 837.5,-931.9 844.5,-931.9"/>
<text text-anchor="start" x="841" y="-1123.8" font-family="Times,serif" font-size="14.00">%4</text>
</g>
<!-- node6 -->
<g id="node7" class="node">
<title>node6</title>
<polygon fill="none" stroke="black" points="638.5,-1093.5 638.5,-1161.5 805.5,-1161.5 805.5,-1093.5 638.5,-1093.5"/>
<text text-anchor="start" x="646.5" y="-1146.3" font-family="Times,serif" font-size="14.00">Let l4 =</text>
<text text-anchor="start" x="646.5" y="-1131.3" font-family="Times,serif" font-size="14.00"> Get %5 (l3)</text>
<text text-anchor="start" x="646.5" y="-1116.3" font-family="Times,serif" font-size="14.00"> Project (#1)</text>
<text text-anchor="start" x="646.5" y="-1101.3" font-family="Times,serif" font-size="14.00"> Distinct group=(#0)</text>
</g>
<!-- node5&#45;&gt;node6 -->
<g id="edge20" class="edge">
<title>node5&#45;&gt;node6</title>
<path fill="none" stroke="black" d="M670,-1213.25C678.43,-1199.52 687.85,-1184.17 696.33,-1170.34"/>
<polygon fill="black" stroke="black" points="699.5,-1171.87 701.74,-1161.51 693.53,-1168.21 699.5,-1171.87"/>
<text text-anchor="start" x="690" y="-1183.8" font-family="Times,serif" font-size="14.00">%5</text>
</g>
<!-- node11 -->
<g id="node12" class="node">
<title>node11</title>
<polygon fill="none" stroke="black" points="495,-780.5 495,-816.5 617,-816.5 617,-780.5 495,-780.5"/>
<text text-anchor="start" x="503" y="-794.8" font-family="Times,serif" font-size="14.00">Union %10 %5</text>
</g>
<!-- node5&#45;&gt;node11 -->
<g id="edge12" class="edge">
<title>node5&#45;&gt;node11</title>
<path fill="none" stroke="black" d="M628.2,-1213.49C619.63,-1189.26 611,-1157.62 611,-1128.5 611,-1128.5 611,-1128.5 611,-894 611,-867.66 594.84,-842.11 580.04,-824.24"/>
<polygon fill="black" stroke="black" points="582.6,-821.84 573.4,-816.59 577.32,-826.43 582.6,-821.84"/>
<text text-anchor="start" x="611" y="-1003.8" font-family="Times,serif" font-size="14.00">%5</text>
</g>
<!-- node6&#45;&gt;node7 -->
<g id="edge14" class="edge">
<title>node6&#45;&gt;node7</title>
<path fill="none" stroke="black" d="M800.93,-1093.47C836.53,-1078.58 878.72,-1060.92 915.4,-1045.57"/>
<polygon fill="black" stroke="black" points="917.22,-1048.61 925.09,-1041.52 914.52,-1042.15 917.22,-1048.61"/>
<text text-anchor="start" x="879" y="-1063.8" font-family="Times,serif" font-size="14.00">%6</text>
</g>
<!-- node6&#45;&gt;node9 -->
<g id="edge27" class="edge">
<title>node6&#45;&gt;node9</title>
<path fill="none" stroke="black" d="M643.07,-1093.47C607.47,-1078.58 565.28,-1060.92 528.6,-1045.57"/>
<polygon fill="black" stroke="black" points="529.48,-1042.15 518.91,-1041.52 526.78,-1048.61 529.48,-1042.15"/>
<text text-anchor="start" x="597" y="-1063.8" font-family="Times,serif" font-size="14.00">%6</text>
</g>
<!-- node7&#45;&gt;node8 -->
<g id="edge18" class="edge">
<title>node7&#45;&gt;node8</title>
<path fill="none" stroke="black" d="M955.09,-973.35C933.58,-958.76 908.44,-941.72 887.25,-927.35"/>
<polygon fill="black" stroke="black" points="888.97,-924.29 878.73,-921.58 885.04,-930.09 888.97,-924.29"/>
<text text-anchor="start" x="927" y="-943.8" font-family="Times,serif" font-size="14.00">%7</text>
</g>
<!-- node12 -->
<g id="node13" class="node">
<title>node12</title>
<polygon fill="none" stroke="black" points="492.5,-690.5 492.5,-728.5 619.5,-728.5 619.5,-690.5 492.5,-690.5"/>
<text text-anchor="start" x="500.5" y="-713.3" font-family="Times,serif" font-size="14.00">Let l5 =</text>
<text text-anchor="start" x="500.5" y="-698.3" font-family="Times,serif" font-size="14.00"> Union %8 %11</text>
</g>
<!-- node8&#45;&gt;node12 -->
<g id="edge31" class="edge">
<title>node8&#45;&gt;node12</title>
<path fill="none" stroke="black" d="M801.37,-868.49C746.03,-832.85 646.35,-768.67 592.65,-734.1"/>
<polygon fill="black" stroke="black" points="594.43,-731.08 584.12,-728.61 590.64,-736.96 594.43,-731.08"/>
<text text-anchor="start" x="717" y="-794.8" font-family="Times,serif" font-size="14.00">%8</text>
</g>
<!-- node9&#45;&gt;node10 -->
<g id="edge13" class="edge">
<title>node9&#45;&gt;node10</title>
<path fill="none" stroke="black" d="M440,-973.35C440,-957.69 440,-939.21 440,-924.23"/>
<polygon fill="black" stroke="black" points="443.5,-924.04 440,-914.04 436.5,-924.04 443.5,-924.04"/>
<text text-anchor="start" x="440" y="-943.8" font-family="Times,serif" font-size="14.00">%9</text>
</g>
<!-- node10&#45;&gt;node11 -->
<g id="edge4" class="edge">
<title>node10&#45;&gt;node11</title>
<path fill="none" stroke="black" d="M462.37,-875.78C480.77,-860.79 506.98,-839.43 526.99,-823.13"/>
<polygon fill="black" stroke="black" points="529.33,-825.74 534.88,-816.71 524.91,-820.31 529.33,-825.74"/>
<text text-anchor="start" x="512" y="-838.8" font-family="Times,serif" font-size="14.00">%10</text>
</g>
<!-- node11&#45;&gt;node12 -->
<g id="edge22" class="edge">
<title>node11&#45;&gt;node12</title>
<path fill="none" stroke="black" d="M556,-780.31C556,-768.51 556,-752.57 556,-738.9"/>
<polygon fill="black" stroke="black" points="559.5,-738.55 556,-728.55 552.5,-738.55 559.5,-738.55"/>
<text text-anchor="start" x="556" y="-750.8" font-family="Times,serif" font-size="14.00">%11</text>
</g>
<!-- node15 -->
<g id="node16" class="node">
<title>node15</title>
<polygon fill="none" stroke="black" points="123.5,-555.5 123.5,-638.5 392.5,-638.5 392.5,-555.5 123.5,-555.5"/>
<text text-anchor="start" x="131.5" y="-623.3" font-family="Times,serif" font-size="14.00">Let l7 =</text>
<text text-anchor="start" x="131.5" y="-608.3" font-family="Times,serif" font-size="14.00"> Join %12 %14</text>
<text text-anchor="start" x="131.5" y="-593.3" font-family="Times,serif" font-size="14.00"> implementation = Unimplemented</text>
<text text-anchor="start" x="131.5" y="-578.3" font-family="Times,serif" font-size="14.00"> Project (#0..#4)</text>
<text text-anchor="start" x="131.5" y="-563.3" font-family="Times,serif" font-size="14.00"> Filter (#1 = #4)</text>
</g>
<!-- node12&#45;&gt;node15 -->
<g id="edge10" class="edge">
<title>node12&#45;&gt;node15</title>
<path fill="none" stroke="black" d="M507.13,-690.38C471.75,-677.26 422.35,-658.94 376.86,-642.08"/>
<polygon fill="black" stroke="black" points="377.82,-638.7 367.22,-638.5 375.38,-645.26 377.82,-638.7"/>
<text text-anchor="start" x="452" y="-660.8" font-family="Times,serif" font-size="14.00">%12</text>
</g>
<!-- node17 -->
<g id="node18" class="node">
<title>node17</title>
<polygon fill="none" stroke="black" points="297.5,-315.5 297.5,-383.5 566.5,-383.5 566.5,-315.5 297.5,-315.5"/>
<text text-anchor="start" x="305.5" y="-368.3" font-family="Times,serif" font-size="14.00">Join %12 %16 (= #1 #4)</text>
<text text-anchor="start" x="305.5" y="-353.3" font-family="Times,serif" font-size="14.00"> implementation = Unimplemented</text>
<text text-anchor="start" x="305.5" y="-338.3" font-family="Times,serif" font-size="14.00"> Project (#0..#3)</text>
<text text-anchor="start" x="305.5" y="-323.3" font-family="Times,serif" font-size="14.00"> Negate</text>
</g>
<!-- node12&#45;&gt;node17 -->
<g id="edge19" class="edge">
<title>node12&#45;&gt;node17</title>
<path fill="none" stroke="black" d="M550.94,-690.36C538.47,-646.17 504.67,-529.65 469,-435 463.82,-421.25 457.6,-406.51 451.75,-393.24"/>
<polygon fill="black" stroke="black" points="454.85,-391.59 447.58,-383.88 448.46,-394.44 454.85,-391.59"/>
<text text-anchor="start" x="504" y="-525.8" font-family="Times,serif" font-size="14.00">%12</text>
</g>
<!-- node18 -->
<g id="node19" class="node">
<title>node18</title>
<polygon fill="none" stroke="black" points="366.5,-225.5 366.5,-263.5 497.5,-263.5 497.5,-225.5 366.5,-225.5"/>
<text text-anchor="start" x="374.5" y="-248.3" font-family="Times,serif" font-size="14.00">Union %17 %12</text>
<text text-anchor="start" x="374.5" y="-233.3" font-family="Times,serif" font-size="14.00"> Map null</text>
</g>
<!-- node12&#45;&gt;node18 -->
<g id="edge29" class="edge">
<title>node12&#45;&gt;node18</title>
<path fill="none" stroke="black" d="M566.66,-690.42C578.2,-669.09 595,-632.18 595,-598 595,-598 595,-598 595,-348.5 595,-303.53 550.11,-277.39 507.45,-262.71"/>
<polygon fill="black" stroke="black" points="508.42,-259.34 497.83,-259.57 506.25,-266 508.42,-259.34"/>
<text text-anchor="start" x="595" y="-465.8" font-family="Times,serif" font-size="14.00">%12</text>
</g>
<!-- node13 -->
<g id="node14" class="node">
<title>node13</title>
<polygon fill="none" stroke="black" points="0,-1454.5 0,-1490.5 290,-1490.5 290,-1454.5 0,-1454.5"/>
<text text-anchor="start" x="8" y="-1468.8" font-family="Times,serif" font-size="14.00">Get simplify_outer_joins.public.t (u98)</text>
</g>
<!-- node13&#45;&gt;node14 -->
<g id="edge9" class="edge">
<title>node13&#45;&gt;node14</title>
<path fill="none" stroke="black" d="M153.76,-1454.43C160.01,-1442.25 168.62,-1425.47 176.27,-1410.55"/>
<polygon fill="black" stroke="black" points="179.44,-1412.05 180.89,-1401.55 173.21,-1408.85 179.44,-1412.05"/>
<text text-anchor="start" x="171" y="-1423.8" font-family="Times,serif" font-size="14.00">%13</text>
</g>
<!-- node14&#45;&gt;node15 -->
<g id="edge7" class="edge">
<title>node14&#45;&gt;node15</title>
<path fill="none" stroke="black" d="M202.39,-1348.06C209.31,-1324.36 218,-1288.19 218,-1256 218,-1256 218,-1256 218,-708.5 218,-688 224.16,-666.57 231.65,-648.09"/>
<polygon fill="black" stroke="black" points="234.94,-649.29 235.66,-638.72 228.51,-646.54 234.94,-649.29"/>
<text text-anchor="start" x="218" y="-943.8" font-family="Times,serif" font-size="14.00">%14</text>
</g>
<!-- node16 -->
<g id="node17" class="node">
<title>node16</title>
<polygon fill="none" stroke="black" points="293.5,-435.5 293.5,-503.5 460.5,-503.5 460.5,-435.5 293.5,-435.5"/>
<text text-anchor="start" x="301.5" y="-488.3" font-family="Times,serif" font-size="14.00">Let l8 =</text>
<text text-anchor="start" x="301.5" y="-473.3" font-family="Times,serif" font-size="14.00"> Get %15 (l7)</text>
<text text-anchor="start" x="301.5" y="-458.3" font-family="Times,serif" font-size="14.00"> Project (#1)</text>
<text text-anchor="start" x="301.5" y="-443.3" font-family="Times,serif" font-size="14.00"> Distinct group=(#0)</text>
</g>
<!-- node15&#45;&gt;node16 -->
<g id="edge28" class="edge">
<title>node15&#45;&gt;node16</title>
<path fill="none" stroke="black" d="M296.64,-555.25C310.16,-540.99 325.33,-524.99 338.82,-510.77"/>
<polygon fill="black" stroke="black" points="341.36,-513.18 345.7,-503.51 336.28,-508.36 341.36,-513.18"/>
<text text-anchor="start" x="329" y="-525.8" font-family="Times,serif" font-size="14.00">%15</text>
</g>
<!-- node19 -->
<g id="node20" class="node">
<title>node19</title>
<polygon fill="none" stroke="black" points="193.5,-120.5 193.5,-173.5 332.5,-173.5 332.5,-120.5 193.5,-120.5"/>
<text text-anchor="start" x="201.5" y="-158.3" font-family="Times,serif" font-size="14.00">Let l9 =</text>
<text text-anchor="start" x="201.5" y="-143.3" font-family="Times,serif" font-size="14.00"> Union %18 %15</text>
<text text-anchor="start" x="201.5" y="-128.3" font-family="Times,serif" font-size="14.00"> Filter (#0 &gt; #3)</text>
</g>
<!-- node15&#45;&gt;node19 -->
<g id="edge23" class="edge">
<title>node15&#45;&gt;node19</title>
<path fill="none" stroke="black" d="M252.63,-555.38C249.84,-530.85 247,-498.93 247,-470.5 247,-470.5 247,-470.5 247,-243.5 247,-223.54 250.44,-201.56 254.13,-183.72"/>
<polygon fill="black" stroke="black" points="257.59,-184.26 256.31,-173.75 250.76,-182.77 257.59,-184.26"/>
<text text-anchor="start" x="247" y="-345.8" font-family="Times,serif" font-size="14.00">%15</text>
</g>
<!-- node16&#45;&gt;node17 -->
<g id="edge2" class="edge">
<title>node16&#45;&gt;node17</title>
<path fill="none" stroke="black" d="M392.47,-435.32C398.56,-422.25 405.63,-407.07 412.1,-393.2"/>
<polygon fill="black" stroke="black" points="415.41,-394.39 416.46,-383.84 409.06,-391.43 415.41,-394.39"/>
<text text-anchor="start" x="408" y="-405.8" font-family="Times,serif" font-size="14.00">%16</text>
</g>
<!-- node17&#45;&gt;node18 -->
<g id="edge17" class="edge">
<title>node17&#45;&gt;node18</title>
<path fill="none" stroke="black" d="M432,-315.34C432,-301.93 432,-286.6 432,-273.73"/>
<polygon fill="black" stroke="black" points="435.5,-273.59 432,-263.59 428.5,-273.59 435.5,-273.59"/>
<text text-anchor="start" x="432" y="-285.8" font-family="Times,serif" font-size="14.00">%17</text>
</g>
<!-- node18&#45;&gt;node19 -->
<g id="edge25" class="edge">
<title>node18&#45;&gt;node19</title>
<path fill="none" stroke="black" d="M399.81,-225.31C376.5,-212.14 344.42,-194.01 317.18,-178.62"/>
<polygon fill="black" stroke="black" points="318.58,-175.39 308.15,-173.51 315.14,-181.48 318.58,-175.39"/>
<text text-anchor="start" x="363" y="-195.8" font-family="Times,serif" font-size="14.00">%18</text>
</g>
<!-- node20 -->
<g id="node21" class="node">
<title>node20</title>
<polygon fill="none" stroke="black" points="179,-0.5 179,-68.5 347,-68.5 347,-0.5 179,-0.5"/>
<text text-anchor="start" x="187" y="-53.3" font-family="Times,serif" font-size="14.00">Get %19 (l9)</text>
<text text-anchor="start" x="187" y="-38.3" font-family="Times,serif" font-size="14.00"> Map &quot;qgm(false)&quot;</text>
<text text-anchor="start" x="187" y="-23.3" font-family="Times,serif" font-size="14.00"> Project (#0..#5)</text>
<text text-anchor="start" x="187" y="-8.3" font-family="Times,serif" font-size="14.00"> Project (#5, #0..#4)</text>
</g>
<!-- node19&#45;&gt;node20 -->
<g id="edge8" class="edge">
<title>node19&#45;&gt;node20</title>
<path fill="none" stroke="black" d="M263,-120.37C263,-107.96 263,-92.71 263,-78.58"/>
<polygon fill="black" stroke="black" points="266.5,-78.54 263,-68.54 259.5,-78.54 266.5,-78.54"/>
<text text-anchor="start" x="263" y="-90.8" font-family="Times,serif" font-size="14.00">%19</text>
</g>
</g>
</svg>
