<?xml version="1.0" encoding="UTF-8" standalone="no"?>
<!DOCTYPE svg PUBLIC "-//W3C//DTD SVG 1.1//EN"
 "http://www.w3.org/Graphics/SVG/1.1/DTD/svg11.dtd">
<!-- Generated by graphviz version 2.43.0 (0)
 -->
<!-- Title: G Pages: 1 -->
<svg width="1416pt" height="1340pt"
 viewBox="0.00 0.00 1416.00 1340.00" xmlns="http://www.w3.org/2000/svg" xmlns:xlink="http://www.w3.org/1999/xlink">
<g id="graph0" class="graph" transform="scale(1 1) rotate(0) translate(4 1336)">
<title>G</title>
<polygon fill="white" stroke="transparent" points="-4,4 -4,-1336 1412,-1336 1412,4 -4,4"/>
<!-- node0 -->
<g id="node1" class="node">
<title>node0</title>
<polygon fill="none" stroke="black" points="801,-1278.5 801,-1331.5 1089,-1331.5 1089,-1278.5 801,-1278.5"/>
<text text-anchor="start" x="809" y="-1316.3" font-family="Times,serif" font-size="14.00">Get simplify_outer_joins.public.l (u94)</text>
<text text-anchor="start" x="809" y="-1301.3" font-family="Times,serif" font-size="14.00"> Filter !(isnull(#1))</text>
<text text-anchor="start" x="809" y="-1286.3" font-family="Times,serif" font-size="14.00"> ArrangeBy (#1)</text>
</g>
<!-- node2 -->
<g id="node3" class="node">
<title>node2</title>
<polygon fill="none" stroke="black" points="935,-1158.5 935,-1226.5 1261,-1226.5 1261,-1158.5 935,-1158.5"/>
<text text-anchor="start" x="943" y="-1211.3" font-family="Times,serif" font-size="14.00">Let l0 =</text>
<text text-anchor="start" x="943" y="-1196.3" font-family="Times,serif" font-size="14.00"> Join %0 %1 (= #1 #2)</text>
<text text-anchor="start" x="943" y="-1181.3" font-family="Times,serif" font-size="14.00"> implementation = Differential %1 %0.(#1)</text>
<text text-anchor="start" x="943" y="-1166.3" font-family="Times,serif" font-size="14.00"> Project (#0, #1, #3)</text>
</g>
<!-- node0&#45;&gt;node2 -->
<g id="edge4" class="edge">
<title>node0&#45;&gt;node2</title>
<path fill="none" stroke="black" d="M980.49,-1278.37C999.35,-1264.75 1022.93,-1247.72 1044.01,-1232.5"/>
<polygon fill="black" stroke="black" points="1046.19,-1235.23 1052.25,-1226.54 1042.09,-1229.56 1046.19,-1235.23"/>
<text text-anchor="start" x="1027" y="-1248.8" font-family="Times,serif" font-size="14.00">%0</text>
</g>
<!-- node1 -->
<g id="node2" class="node">
<title>node1</title>
<polygon fill="none" stroke="black" points="1107,-1286 1107,-1324 1397,-1324 1397,-1286 1107,-1286"/>
<text text-anchor="start" x="1115" y="-1308.8" font-family="Times,serif" font-size="14.00">Get simplify_outer_joins.public.r (u96)</text>
<text text-anchor="start" x="1115" y="-1293.8" font-family="Times,serif" font-size="14.00"> Filter !(isnull(#0))</text>
</g>
<!-- node1&#45;&gt;node2 -->
<g id="edge26" class="edge">
<title>node1&#45;&gt;node2</title>
<path fill="none" stroke="black" d="M1226.57,-1285.75C1206.46,-1271.32 1177.67,-1250.66 1152.42,-1232.55"/>
<polygon fill="black" stroke="black" points="1154.18,-1229.5 1144.02,-1226.52 1150.1,-1235.19 1154.18,-1229.5"/>
<text text-anchor="start" x="1189" y="-1248.8" font-family="Times,serif" font-size="14.00">%1</text>
</g>
<!-- node3 -->
<g id="node4" class="node">
<title>node3</title>
<polygon fill="none" stroke="black" points="796.5,-1023.5 796.5,-1106.5 963.5,-1106.5 963.5,-1023.5 796.5,-1023.5"/>
<text text-anchor="start" x="804.5" y="-1091.3" font-family="Times,serif" font-size="14.00">Let l1 =</text>
<text text-anchor="start" x="804.5" y="-1076.3" font-family="Times,serif" font-size="14.00"> Get %2 (l0)</text>
<text text-anchor="start" x="804.5" y="-1061.3" font-family="Times,serif" font-size="14.00"> Project (#1)</text>
<text text-anchor="start" x="804.5" y="-1046.3" font-family="Times,serif" font-size="14.00"> Distinct group=(#0)</text>
<text text-anchor="start" x="804.5" y="-1031.3" font-family="Times,serif" font-size="14.00"> ArrangeBy (#0)</text>
</g>
<!-- node2&#45;&gt;node3 -->
<g id="edge15" class="edge">
<title>node2&#45;&gt;node3</title>
<path fill="none" stroke="black" d="M1040.44,-1158.36C1015.73,-1144.14 986.45,-1127.28 959.71,-1111.89"/>
<polygon fill="black" stroke="black" points="961.16,-1108.68 950.75,-1106.73 957.67,-1114.75 961.16,-1108.68"/>
<text text-anchor="start" x="1009" y="-1128.8" font-family="Times,serif" font-size="14.00">%2</text>
</g>
<!-- node12 -->
<g id="node13" class="node">
<title>node12</title>
<polygon fill="none" stroke="black" points="1210,-966.5 1210,-1004.5 1408,-1004.5 1408,-966.5 1210,-966.5"/>
<text text-anchor="start" x="1218" y="-989.3" font-family="Times,serif" font-size="14.00">Get %2 (l0)</text>
<text text-anchor="start" x="1218" y="-974.3" font-family="Times,serif" font-size="14.00"> Project (#0, #1, #1, #2)</text>
</g>
<!-- node2&#45;&gt;node12 -->
<g id="edge17" class="edge">
<title>node2&#45;&gt;node12</title>
<path fill="none" stroke="black" d="M1209.19,-1158.33C1235.24,-1145.91 1260.7,-1129.22 1279,-1107 1300.56,-1080.82 1306.95,-1041.31 1308.68,-1014.74"/>
<polygon fill="black" stroke="black" points="1312.18,-1014.71 1309.15,-1004.56 1305.19,-1014.39 1312.18,-1014.71"/>
<text text-anchor="start" x="1260" y="-1128.8" font-family="Times,serif" font-size="14.00">%2</text>
</g>
<!-- node5 -->
<g id="node6" class="node">
<title>node5</title>
<polygon fill="none" stroke="black" points="308,-879.5 308,-947.5 634,-947.5 634,-879.5 308,-879.5"/>
<text text-anchor="start" x="316" y="-932.3" font-family="Times,serif" font-size="14.00">Join %4 %3 (= #0 #2)</text>
<text text-anchor="start" x="316" y="-917.3" font-family="Times,serif" font-size="14.00"> implementation = Differential %4 %3.(#0)</text>
<text text-anchor="start" x="316" y="-902.3" font-family="Times,serif" font-size="14.00"> Project (#0, #1)</text>
<text text-anchor="start" x="316" y="-887.3" font-family="Times,serif" font-size="14.00"> Negate</text>
</g>
<!-- node3&#45;&gt;node5 -->
<g id="edge9" class="edge">
<title>node3&#45;&gt;node5</title>
<path fill="none" stroke="black" d="M796.25,-1033.39C730.96,-1009.52 640.09,-976.31 570.99,-951.05"/>
<polygon fill="black" stroke="black" points="571.98,-947.68 561.39,-947.54 569.58,-954.26 571.98,-947.68"/>
<text text-anchor="start" x="713" y="-981.8" font-family="Times,serif" font-size="14.00">%3</text>
</g>
<!-- node9 -->
<g id="node10" class="node">
<title>node9</title>
<polygon fill="none" stroke="black" points="958,-879.5 958,-947.5 1284,-947.5 1284,-879.5 958,-879.5"/>
<text text-anchor="start" x="966" y="-932.3" font-family="Times,serif" font-size="14.00">Join %8 %3 (= #1 #2)</text>
<text text-anchor="start" x="966" y="-917.3" font-family="Times,serif" font-size="14.00"> implementation = Differential %8 %3.(#0)</text>
<text text-anchor="start" x="966" y="-902.3" font-family="Times,serif" font-size="14.00"> Project (#0, #1)</text>
<text text-anchor="start" x="966" y="-887.3" font-family="Times,serif" font-size="14.00"> Negate</text>
</g>
<!-- node3&#45;&gt;node9 -->
<g id="edge11" class="edge">
<title>node3&#45;&gt;node9</title>
<path fill="none" stroke="black" d="M945.54,-1023.35C980.87,-1001.43 1024.23,-974.53 1059.01,-952.95"/>
<polygon fill="black" stroke="black" points="1061,-955.84 1067.66,-947.59 1057.31,-949.89 1061,-955.84"/>
<text text-anchor="start" x="1037" y="-981.8" font-family="Times,serif" font-size="14.00">%3</text>
</g>
<!-- node4 -->
<g id="node5" class="node">
<title>node4</title>
<polygon fill="none" stroke="black" points="326,-1047 326,-1083 616,-1083 616,-1047 326,-1047"/>
<text text-anchor="start" x="334" y="-1061.3" font-family="Times,serif" font-size="14.00">Get simplify_outer_joins.public.r (u96)</text>
</g>
<!-- node4&#45;&gt;node5 -->
<g id="edge20" class="edge">
<title>node4&#45;&gt;node5</title>
<path fill="none" stroke="black" d="M471,-1046.85C471,-1025.31 471,-987.57 471,-957.89"/>
<polygon fill="black" stroke="black" points="474.5,-957.77 471,-947.77 467.5,-957.77 474.5,-957.77"/>
<text text-anchor="start" x="471" y="-981.8" font-family="Times,serif" font-size="14.00">%4</text>
</g>
<!-- node7 -->
<g id="node8" class="node">
<title>node7</title>
<polygon fill="none" stroke="black" points="372,-774.5 372,-827.5 570,-827.5 570,-774.5 372,-774.5"/>
<text text-anchor="start" x="380" y="-812.3" font-family="Times,serif" font-size="14.00">Union %5 %6</text>
<text text-anchor="start" x="380" y="-797.3" font-family="Times,serif" font-size="14.00"> Map null, null</text>
<text text-anchor="start" x="380" y="-782.3" font-family="Times,serif" font-size="14.00"> Project (#2, #3, #0, #1)</text>
</g>
<!-- node5&#45;&gt;node7 -->
<g id="edge25" class="edge">
<title>node5&#45;&gt;node7</title>
<path fill="none" stroke="black" d="M471,-879.35C471,-866.3 471,-851.3 471,-837.99"/>
<polygon fill="black" stroke="black" points="474.5,-837.75 471,-827.75 467.5,-837.75 474.5,-837.75"/>
<text text-anchor="start" x="471" y="-849.8" font-family="Times,serif" font-size="14.00">%5</text>
</g>
<!-- node6 -->
<g id="node7" class="node">
<title>node6</title>
<polygon fill="none" stroke="black" points="0,-895.5 0,-931.5 290,-931.5 290,-895.5 0,-895.5"/>
<text text-anchor="start" x="8" y="-909.8" font-family="Times,serif" font-size="14.00">Get simplify_outer_joins.public.r (u96)</text>
</g>
<!-- node6&#45;&gt;node7 -->
<g id="edge16" class="edge">
<title>node6&#45;&gt;node7</title>
<path fill="none" stroke="black" d="M195.22,-895.48C246,-878.27 325.41,-851.35 386.01,-830.81"/>
<polygon fill="black" stroke="black" points="387.21,-834.1 395.56,-827.57 384.97,-827.47 387.21,-834.1"/>
<text text-anchor="start" x="338" y="-849.8" font-family="Times,serif" font-size="14.00">%6</text>
</g>
<!-- node13 -->
<g id="node14" class="node">
<title>node13</title>
<polygon fill="none" stroke="black" points="821.5,-684.5 821.5,-722.5 984.5,-722.5 984.5,-684.5 821.5,-684.5"/>
<text text-anchor="start" x="829.5" y="-707.3" font-family="Times,serif" font-size="14.00">Let l2 =</text>
<text text-anchor="start" x="829.5" y="-692.3" font-family="Times,serif" font-size="14.00"> Union %7 %11 %12</text>
</g>
<!-- node7&#45;&gt;node13 -->
<g id="edge14" class="edge">
<title>node7&#45;&gt;node13</title>
<path fill="none" stroke="black" d="M570.11,-778.09C642.79,-762.02 740.74,-740.37 811.56,-724.71"/>
<polygon fill="black" stroke="black" points="812.36,-728.12 821.37,-722.55 810.85,-721.29 812.36,-728.12"/>
<text text-anchor="start" x="726" y="-744.8" font-family="Times,serif" font-size="14.00">%7</text>
</g>
<!-- node8 -->
<g id="node9" class="node">
<title>node8</title>
<polygon fill="none" stroke="black" points="982,-1047 982,-1083 1270,-1083 1270,-1047 982,-1047"/>
<text text-anchor="start" x="990" y="-1061.3" font-family="Times,serif" font-size="14.00">Get simplify_outer_joins.public.l (u94)</text>
</g>
<!-- node8&#45;&gt;node9 -->
<g id="edge18" class="edge">
<title>node8&#45;&gt;node9</title>
<path fill="none" stroke="black" d="M1125.43,-1046.85C1124.71,-1025.31 1123.44,-987.57 1122.45,-957.89"/>
<polygon fill="black" stroke="black" points="1125.94,-957.64 1122.11,-947.77 1118.95,-957.88 1125.94,-957.64"/>
<text text-anchor="start" x="1124" y="-981.8" font-family="Times,serif" font-size="14.00">%8</text>
</g>
<!-- node11 -->
<g id="node12" class="node">
<title>node11</title>
<polygon fill="none" stroke="black" points="842,-782 842,-820 964,-820 964,-782 842,-782"/>
<text text-anchor="start" x="850" y="-804.8" font-family="Times,serif" font-size="14.00">Union %9 %10</text>
<text text-anchor="start" x="850" y="-789.8" font-family="Times,serif" font-size="14.00"> Map null, null</text>
</g>
<!-- node9&#45;&gt;node11 -->
<g id="edge27" class="edge">
<title>node9&#45;&gt;node11</title>
<path fill="none" stroke="black" d="M1055.89,-879.5C1021.1,-861.86 979.14,-840.59 947.99,-824.8"/>
<polygon fill="black" stroke="black" points="949.19,-821.49 938.69,-820.09 946.03,-827.73 949.19,-821.49"/>
<text text-anchor="start" x="1019" y="-849.8" font-family="Times,serif" font-size="14.00">%9</text>
</g>
<!-- node10 -->
<g id="node11" class="node">
<title>node10</title>
<polygon fill="none" stroke="black" points="652,-895.5 652,-931.5 940,-931.5 940,-895.5 652,-895.5"/>
<text text-anchor="start" x="660" y="-909.8" font-family="Times,serif" font-size="14.00">Get simplify_outer_joins.public.l (u94)</text>
</g>
<!-- node10&#45;&gt;node11 -->
<g id="edge2" class="edge">
<title>node10&#45;&gt;node11</title>
<path fill="none" stroke="black" d="M812.72,-895.23C830.31,-877.07 858.18,-848.29 878.3,-827.51"/>
<polygon fill="black" stroke="black" points="880.89,-829.87 885.33,-820.25 875.86,-825 880.89,-829.87"/>
<text text-anchor="start" x="860" y="-849.8" font-family="Times,serif" font-size="14.00">%10</text>
</g>
<!-- node11&#45;&gt;node13 -->
<g id="edge7" class="edge">
<title>node11&#45;&gt;node13</title>
<path fill="none" stroke="black" d="M903,-781.59C903,-767.76 903,-748.57 903,-732.8"/>
<polygon fill="black" stroke="black" points="906.5,-732.53 903,-722.53 899.5,-732.53 906.5,-732.53"/>
<text text-anchor="start" x="903" y="-744.8" font-family="Times,serif" font-size="14.00">%11</text>
</g>
<!-- node12&#45;&gt;node13 -->
<g id="edge19" class="edge">
<title>node12&#45;&gt;node13</title>
<path fill="none" stroke="black" d="M1311.16,-966.47C1312.89,-943.72 1312.4,-904.51 1293,-879 1220.82,-784.11 1085.55,-739.59 994.86,-719.59"/>
<polygon fill="black" stroke="black" points="995.36,-716.12 984.85,-717.44 993.89,-722.96 995.36,-716.12"/>
<text text-anchor="start" x="1276" y="-849.8" font-family="Times,serif" font-size="14.00">%12</text>
</g>
<!-- node14 -->
<g id="node15" class="node">
<title>node14</title>
<polygon fill="none" stroke="black" points="1223,-594.5 1223,-632.5 1375,-632.5 1375,-594.5 1223,-594.5"/>
<text text-anchor="start" x="1231" y="-617.3" font-family="Times,serif" font-size="14.00">Get %13 (l2)</text>
<text text-anchor="start" x="1231" y="-602.3" font-family="Times,serif" font-size="14.00"> Filter !(isnull(#1))</text>
</g>
<!-- node13&#45;&gt;node14 -->
<g id="edge10" class="edge">
<title>node13&#45;&gt;node14</title>
<path fill="none" stroke="black" d="M984.09,-684.48C1050.73,-669.67 1144.91,-648.74 1212.89,-633.64"/>
<polygon fill="black" stroke="black" points="1213.72,-637.04 1222.72,-631.45 1212.2,-630.2 1213.72,-637.04"/>
<text text-anchor="start" x="1125" y="-654.8" font-family="Times,serif" font-size="14.00">%13</text>
</g>
<!-- node17 -->
<g id="node18" class="node">
<title>node17</title>
<polygon fill="none" stroke="black" points="817.5,-362 817.5,-415 956.5,-415 956.5,-362 817.5,-362"/>
<text text-anchor="start" x="825.5" y="-399.8" font-family="Times,serif" font-size="14.00">Let l4 =</text>
<text text-anchor="start" x="825.5" y="-384.8" font-family="Times,serif" font-size="14.00"> Get %13 (l2)</text>
<text text-anchor="start" x="825.5" y="-369.8" font-family="Times,serif" font-size="14.00"> Filter (#0 &gt; #3)</text>
</g>
<!-- node13&#45;&gt;node17 -->
<g id="edge13" class="edge">
<title>node13&#45;&gt;node17</title>
<path fill="none" stroke="black" d="M902.07,-684.32C899.5,-634.04 892.26,-492.42 888.84,-425.45"/>
<polygon fill="black" stroke="black" points="892.33,-425.17 888.32,-415.37 885.34,-425.53 892.33,-425.17"/>
<text text-anchor="start" x="897" y="-564.8" font-family="Times,serif" font-size="14.00">%13</text>
</g>
<!-- node16 -->
<g id="node17" class="node">
<title>node16</title>
<polygon fill="none" stroke="black" points="1008,-474.5 1008,-542.5 1352,-542.5 1352,-474.5 1008,-474.5"/>
<text text-anchor="start" x="1016" y="-527.3" font-family="Times,serif" font-size="14.00">Let l3 =</text>
<text text-anchor="start" x="1016" y="-512.3" font-family="Times,serif" font-size="14.00"> Join %14 %15 (= #1 #4)</text>
<text text-anchor="start" x="1016" y="-497.3" font-family="Times,serif" font-size="14.00"> implementation = Differential %14 %15.(#0)</text>
<text text-anchor="start" x="1016" y="-482.3" font-family="Times,serif" font-size="14.00"> Project (#0..#3)</text>
</g>
<!-- node14&#45;&gt;node16 -->
<g id="edge1" class="edge">
<title>node14&#45;&gt;node16</title>
<path fill="none" stroke="black" d="M1278,-594.32C1263.77,-582 1244.38,-565.22 1226.61,-549.84"/>
<polygon fill="black" stroke="black" points="1228.43,-546.79 1218.58,-542.89 1223.85,-552.08 1228.43,-546.79"/>
<text text-anchor="start" x="1253" y="-564.8" font-family="Times,serif" font-size="14.00">%14</text>
</g>
<!-- node15 -->
<g id="node16" class="node">
<title>node15</title>
<polygon fill="none" stroke="black" points="915,-594.5 915,-632.5 1205,-632.5 1205,-594.5 915,-594.5"/>
<text text-anchor="start" x="923" y="-617.3" font-family="Times,serif" font-size="14.00">Get simplify_outer_joins.public.t (u98)</text>
<text text-anchor="start" x="923" y="-602.3" font-family="Times,serif" font-size="14.00"> ArrangeBy (#0)</text>
</g>
<!-- node15&#45;&gt;node16 -->
<g id="edge24" class="edge">
<title>node15&#45;&gt;node16</title>
<path fill="none" stroke="black" d="M1081.18,-594.32C1095.66,-581.89 1115.43,-564.92 1133.49,-549.42"/>
<polygon fill="black" stroke="black" points="1135.79,-552.06 1141.1,-542.89 1131.23,-546.75 1135.79,-552.06"/>
<text text-anchor="start" x="1120" y="-564.8" font-family="Times,serif" font-size="14.00">%15</text>
</g>
<!-- node18 -->
<g id="node19" class="node">
<title>node18</title>
<polygon fill="none" stroke="black" points="1028.5,-354.5 1028.5,-422.5 1195.5,-422.5 1195.5,-354.5 1028.5,-354.5"/>
<text text-anchor="start" x="1036.5" y="-407.3" font-family="Times,serif" font-size="14.00">Get %16 (l3)</text>
<text text-anchor="start" x="1036.5" y="-392.3" font-family="Times,serif" font-size="14.00"> Project (#1)</text>
<text text-anchor="start" x="1036.5" y="-377.3" font-family="Times,serif" font-size="14.00"> Distinct group=(#0)</text>
<text text-anchor="start" x="1036.5" y="-362.3" font-family="Times,serif" font-size="14.00"> ArrangeBy (#0)</text>
</g>
<!-- node16&#45;&gt;node18 -->
<g id="edge12" class="edge">
<title>node16&#45;&gt;node18</title>
<path fill="none" stroke="black" d="M1160.88,-474.32C1153.27,-461.12 1144.43,-445.78 1136.37,-431.8"/>
<polygon fill="black" stroke="black" points="1139.24,-429.76 1131.21,-422.84 1133.18,-433.26 1139.24,-429.76"/>
<text text-anchor="start" x="1151" y="-444.8" font-family="Times,serif" font-size="14.00">%16</text>
</g>
<!-- node21 -->
<g id="node22" class="node">
<title>node21</title>
<polygon fill="none" stroke="black" points="1175,-282.5 1175,-335.5 1343,-335.5 1343,-282.5 1175,-282.5"/>
<text text-anchor="start" x="1183" y="-320.3" font-family="Times,serif" font-size="14.00">Get %16 (l3)</text>
<text text-anchor="start" x="1183" y="-305.3" font-family="Times,serif" font-size="14.00"> Filter (#0 &gt; #3)</text>
<text text-anchor="start" x="1183" y="-290.3" font-family="Times,serif" font-size="14.00"> Project (#0..#3, #1)</text>
</g>
<!-- node16&#45;&gt;node21 -->
<g id="edge5" class="edge">
<title>node16&#45;&gt;node21</title>
<path fill="none" stroke="black" d="M1193.22,-474.44C1207.58,-438.56 1230.4,-381.49 1245.04,-344.9"/>
<polygon fill="black" stroke="black" points="1248.29,-346.19 1248.76,-335.61 1241.79,-343.59 1248.29,-346.19"/>
<text text-anchor="start" x="1207" y="-444.8" font-family="Times,serif" font-size="14.00">%16</text>
</g>
<!-- node19 -->
<g id="node20" class="node">
<title>node19</title>
<polygon fill="none" stroke="black" points="907,-195.5 907,-263.5 1251,-263.5 1251,-195.5 907,-195.5"/>
<text text-anchor="start" x="915" y="-248.3" font-family="Times,serif" font-size="14.00">Join %17 %18 (= #1 #4)</text>
<text text-anchor="start" x="915" y="-233.3" font-family="Times,serif" font-size="14.00"> implementation = Differential %17 %18.(#0)</text>
<text text-anchor="start" x="915" y="-218.3" font-family="Times,serif" font-size="14.00"> Project (#0..#3)</text>
<text text-anchor="start" x="915" y="-203.3" font-family="Times,serif" font-size="14.00"> Negate</text>
</g>
<!-- node17&#45;&gt;node19 -->
<g id="edge23" class="edge">
<title>node17&#45;&gt;node19</title>
<path fill="none" stroke="black" d="M918.28,-361.93C948.7,-337.05 995.37,-298.89 1030.59,-270.09"/>
<polygon fill="black" stroke="black" points="1032.85,-272.76 1038.37,-263.72 1028.42,-267.34 1032.85,-272.76"/>
<text text-anchor="start" x="1012" y="-305.3" font-family="Times,serif" font-size="14.00">%17</text>
</g>
<!-- node20 -->
<g id="node21" class="node">
<title>node20</title>
<polygon fill="none" stroke="black" points="1013.5,-105.5 1013.5,-143.5 1144.5,-143.5 1144.5,-105.5 1013.5,-105.5"/>
<text text-anchor="start" x="1021.5" y="-128.3" font-family="Times,serif" font-size="14.00">Union %19 %17</text>
<text text-anchor="start" x="1021.5" y="-113.3" font-family="Times,serif" font-size="14.00"> Map null</text>
</g>
<!-- node17&#45;&gt;node20 -->
<g id="edge8" class="edge">
<title>node17&#45;&gt;node20</title>
<path fill="none" stroke="black" d="M874.18,-361.94C856.27,-322.19 829.77,-244.93 866,-195 897.14,-152.09 955.5,-135.17 1003.27,-128.73"/>
<polygon fill="black" stroke="black" points="1003.79,-132.19 1013.29,-127.51 1002.94,-125.24 1003.79,-132.19"/>
<text text-anchor="start" x="866" y="-225.8" font-family="Times,serif" font-size="14.00">%17</text>
</g>
<!-- node18&#45;&gt;node19 -->
<g id="edge21" class="edge">
<title>node18&#45;&gt;node19</title>
<path fill="none" stroke="black" d="M1105,-354.2C1100.08,-330.79 1093.45,-299.23 1088.11,-273.85"/>
<polygon fill="black" stroke="black" points="1091.47,-272.81 1085.99,-263.75 1084.62,-274.25 1091.47,-272.81"/>
<text text-anchor="start" x="1101" y="-305.3" font-family="Times,serif" font-size="14.00">%18</text>
</g>
<!-- node19&#45;&gt;node20 -->
<g id="edge6" class="edge">
<title>node19&#45;&gt;node20</title>
<path fill="none" stroke="black" d="M1079,-195.34C1079,-181.93 1079,-166.6 1079,-153.73"/>
<polygon fill="black" stroke="black" points="1082.5,-153.59 1079,-143.59 1075.5,-153.59 1082.5,-153.59"/>
<text text-anchor="start" x="1079" y="-165.8" font-family="Times,serif" font-size="14.00">%19</text>
</g>
<!-- node22 -->
<g id="node23" class="node">
<title>node22</title>
<polygon fill="none" stroke="black" points="1133,-0.5 1133,-53.5 1301,-53.5 1301,-0.5 1133,-0.5"/>
<text text-anchor="start" x="1141" y="-38.3" font-family="Times,serif" font-size="14.00">Union %20 %21</text>
<text text-anchor="start" x="1141" y="-23.3" font-family="Times,serif" font-size="14.00"> Map &quot;qgm(false)&quot;</text>
<text text-anchor="start" x="1141" y="-8.3" font-family="Times,serif" font-size="14.00"> Project (#5, #0..#4)</text>
</g>
<!-- node20&#45;&gt;node22 -->
<g id="edge22" class="edge">
<title>node20&#45;&gt;node22</title>
<path fill="none" stroke="black" d="M1105.28,-105.31C1124.07,-92.31 1149.84,-74.48 1171.88,-59.22"/>
<polygon fill="black" stroke="black" points="1173.9,-62.08 1180.13,-53.51 1169.92,-56.33 1173.9,-62.08"/>
<text text-anchor="start" x="1153" y="-75.8" font-family="Times,serif" font-size="14.00">%20</text>
</g>
<!-- node21&#45;&gt;node22 -->
<g id="edge3" class="edge">
<title>node21&#45;&gt;node22</title>
<path fill="none" stroke="black" d="M1259.68,-282.41C1259.81,-276.37 1259.93,-269.96 1260,-264 1260.35,-233.34 1263.85,-225.42 1260,-195 1254.14,-148.7 1239.47,-96.87 1228.9,-63.41"/>
<polygon fill="black" stroke="black" points="1232.15,-62.09 1225.76,-53.64 1225.48,-64.23 1232.15,-62.09"/>
<text text-anchor="start" x="1257" y="-165.8" font-family="Times,serif" font-size="14.00">%21</text>
</g>
</g>
</svg>
