<?xml version="1.0" encoding="UTF-8" standalone="no"?>
<!DOCTYPE svg PUBLIC "-//W3C//DTD SVG 1.1//EN"
 "http://www.w3.org/Graphics/SVG/1.1/DTD/svg11.dtd">
<!-- Generated by graphviz version 2.43.0 (0)
 -->
<!-- Title: G Pages: 1 -->
<svg width="746pt" height="253pt"
 viewBox="0.00 0.00 746.00 253.00" xmlns="http://www.w3.org/2000/svg" xmlns:xlink="http://www.w3.org/1999/xlink">
<g id="graph0" class="graph" transform="scale(1 1) rotate(0) translate(4 249)">
<title>G</title>
<polygon fill="white" stroke="transparent" points="-4,4 -4,-249 742,-249 742,4 -4,4"/>
<!-- node0 -->
<g id="node1" class="node">
<title>node0</title>
<polygon fill="none" stroke="black" points="0,-208.5 0,-244.5 288,-244.5 288,-208.5 0,-208.5"/>
<text text-anchor="start" x="8" y="-222.8" font-family="Times,serif" font-size="14.00">Get simplify_outer_joins.public.l (u94)</text>
</g>
<!-- node2 -->
<g id="node3" class="node">
<title>node2</title>
<polygon fill="none" stroke="black" points="164,-120.5 164,-156.5 430,-156.5 430,-120.5 164,-120.5"/>
<text text-anchor="start" x="172" y="-134.8" font-family="Times,serif" font-size="14.00">FullOuterJoin %0 %1 on (#1 = #2)</text>
</g>
<!-- node0&#45;&gt;node2 -->
<g id="edge3" class="edge">
<title>node0&#45;&gt;node2</title>
<path fill="none" stroke="black" d="M174.59,-208.3C198.54,-194.84 232.02,-176.03 257.91,-161.47"/>
<polygon fill="black" stroke="black" points="259.72,-164.47 266.72,-156.52 256.29,-158.37 259.72,-164.47"/>
<text text-anchor="start" x="230" y="-178.8" font-family="Times,serif" font-size="14.00">%0</text>
</g>
<!-- node1 -->
<g id="node2" class="node">
<title>node1</title>
<polygon fill="none" stroke="black" points="306,-208.5 306,-244.5 596,-244.5 596,-208.5 306,-208.5"/>
<text text-anchor="start" x="314" y="-222.8" font-family="Times,serif" font-size="14.00">Get simplify_outer_joins.public.r (u96)</text>
</g>
<!-- node1&#45;&gt;node2 -->
<g id="edge1" class="edge">
<title>node1&#45;&gt;node2</title>
<path fill="none" stroke="black" d="M420.21,-208.3C396.1,-194.84 362.41,-176.03 336.35,-161.47"/>
<polygon fill="black" stroke="black" points="337.92,-158.34 327.48,-156.52 334.5,-164.45 337.92,-158.34"/>
<text text-anchor="start" x="384" y="-178.8" font-family="Times,serif" font-size="14.00">%1</text>
</g>
<!-- node4 -->
<g id="node5" class="node">
<title>node4</title>
<polygon fill="none" stroke="black" points="311.5,-0.5 311.5,-68.5 578.5,-68.5 578.5,-0.5 311.5,-0.5"/>
<text text-anchor="start" x="319.5" y="-53.3" font-family="Times,serif" font-size="14.00">LeftOuterJoin %2 %3 on (#1 = #4)</text>
<text text-anchor="start" x="319.5" y="-38.3" font-family="Times,serif" font-size="14.00"> Filter (#0 &gt; #3)</text>
<text text-anchor="start" x="319.5" y="-23.3" font-family="Times,serif" font-size="14.00"> Map &quot;qgm(false)&quot;</text>
<text text-anchor="start" x="319.5" y="-8.3" font-family="Times,serif" font-size="14.00"> Project (#5, #0..#4)</text>
</g>
<!-- node2&#45;&gt;node4 -->
<g id="edge4" class="edge">
<title>node2&#45;&gt;node4</title>
<path fill="none" stroke="black" d="M321.77,-120.43C340.02,-107.85 365.58,-90.24 388.69,-74.31"/>
<polygon fill="black" stroke="black" points="390.83,-77.08 397.08,-68.53 386.86,-71.32 390.83,-77.08"/>
<text text-anchor="start" x="367" y="-90.8" font-family="Times,serif" font-size="14.00">%2</text>
</g>
<!-- node3 -->
<g id="node4" class="node">
<title>node3</title>
<polygon fill="none" stroke="black" points="448,-120.5 448,-156.5 738,-156.5 738,-120.5 448,-120.5"/>
<text text-anchor="start" x="456" y="-134.8" font-family="Times,serif" font-size="14.00">Get simplify_outer_joins.public.t (u98)</text>
</g>
<!-- node3&#45;&gt;node4 -->
<g id="edge2" class="edge">
<title>node3&#45;&gt;node4</title>
<path fill="none" stroke="black" d="M568.23,-120.43C549.98,-107.85 524.42,-90.24 501.31,-74.31"/>
<polygon fill="black" stroke="black" points="503.14,-71.32 492.92,-68.53 499.17,-77.08 503.14,-71.32"/>
<text text-anchor="start" x="540" y="-90.8" font-family="Times,serif" font-size="14.00">%3</text>
</g>
</g>
</svg>
