<?xml version="1.0" encoding="UTF-8" standalone="no"?>
<!DOCTYPE svg PUBLIC "-//W3C//DTD SVG 1.1//EN"
 "http://www.w3.org/Graphics/SVG/1.1/DTD/svg11.dtd">
<!-- Generated by graphviz version 2.43.0 (0)
 -->
<!-- Title: G Pages: 1 -->
<svg width="791pt" height="407pt"
 viewBox="0.00 0.00 791.00 407.00" xmlns="http://www.w3.org/2000/svg" xmlns:xlink="http://www.w3.org/1999/xlink">
<g id="graph0" class="graph" transform="scale(1 1) rotate(0) translate(4 403)">
<title>G</title>
<polygon fill="white" stroke="transparent" points="-4,4 -4,-403 787,-403 787,4 -4,4"/>
<!-- node0 -->
<g id="node1" class="node">
<title>node0</title>
<polygon fill="none" stroke="black" points="0,-345.5 0,-398.5 288,-398.5 288,-345.5 0,-345.5"/>
<text text-anchor="start" x="8" y="-383.3" font-family="Times,serif" font-size="14.00">Get simplify_outer_joins.public.l (u94)</text>
<text text-anchor="start" x="8" y="-368.3" font-family="Times,serif" font-size="14.00"> types = (integer?, integer?)</text>
<text text-anchor="start" x="8" y="-353.3" font-family="Times,serif" font-size="14.00"> keys = ()</text>
</g>
<!-- node2 -->
<g id="node3" class="node">
<title>node2</title>
<polygon fill="none" stroke="black" points="119,-240.5 119,-293.5 475,-293.5 475,-240.5 119,-240.5"/>
<text text-anchor="start" x="127" y="-278.3" font-family="Times,serif" font-size="14.00">FullOuterJoin %0 %1 on (#1 = #2)</text>
<text text-anchor="start" x="127" y="-263.3" font-family="Times,serif" font-size="14.00"> types = (integer?, integer?, integer?, integer?)</text>
<text text-anchor="start" x="127" y="-248.3" font-family="Times,serif" font-size="14.00"> keys = ()</text>
</g>
<!-- node0&#45;&gt;node2 -->
<g id="edge3" class="edge">
<title>node0&#45;&gt;node2</title>
<path fill="none" stroke="black" d="M182.21,-345.27C202.92,-331.33 228.67,-314 250.53,-299.28"/>
<polygon fill="black" stroke="black" points="252.67,-302.06 259.01,-293.58 248.76,-296.26 252.67,-302.06"/>
<text text-anchor="start" x="230" y="-315.8" font-family="Times,serif" font-size="14.00">%0</text>
</g>
<!-- node1 -->
<g id="node2" class="node">
<title>node1</title>
<polygon fill="none" stroke="black" points="306,-345.5 306,-398.5 596,-398.5 596,-345.5 306,-345.5"/>
<text text-anchor="start" x="314" y="-383.3" font-family="Times,serif" font-size="14.00">Get simplify_outer_joins.public.r (u96)</text>
<text text-anchor="start" x="314" y="-368.3" font-family="Times,serif" font-size="14.00"> types = (integer?, integer)</text>
<text text-anchor="start" x="314" y="-353.3" font-family="Times,serif" font-size="14.00"> keys = ()</text>
</g>
<!-- node1&#45;&gt;node2 -->
<g id="edge1" class="edge">
<title>node1&#45;&gt;node2</title>
<path fill="none" stroke="black" d="M412.54,-345.27C391.69,-331.33 365.78,-314 343.77,-299.28"/>
<polygon fill="black" stroke="black" points="345.5,-296.23 335.24,-293.58 341.61,-302.04 345.5,-296.23"/>
<text text-anchor="start" x="384" y="-315.8" font-family="Times,serif" font-size="14.00">%1</text>
</g>
<!-- node4 -->
<g id="node5" class="node">
<title>node4</title>
<polygon fill="none" stroke="black" points="237.5,-0.5 237.5,-188.5 698.5,-188.5 698.5,-0.5 237.5,-0.5"/>
<text text-anchor="start" x="245.5" y="-173.3" font-family="Times,serif" font-size="14.00">LeftOuterJoin %2 %3 on (#1 = #4)</text>
<text text-anchor="start" x="245.5" y="-158.3" font-family="Times,serif" font-size="14.00"> types = (integer?, integer?, integer?, integer?, integer?)</text>
<text text-anchor="start" x="245.5" y="-143.3" font-family="Times,serif" font-size="14.00"> keys = ()</text>
<text text-anchor="start" x="245.5" y="-128.3" font-family="Times,serif" font-size="14.00"> Filter (#0 &gt; #3)</text>
<text text-anchor="start" x="245.5" y="-113.3" font-family="Times,serif" font-size="14.00"> types = (integer?, integer?, integer?, integer?, integer?)</text>
<text text-anchor="start" x="245.5" y="-98.3" font-family="Times,serif" font-size="14.00"> keys = ()</text>
<text text-anchor="start" x="245.5" y="-83.3" font-family="Times,serif" font-size="14.00"> Map &quot;qgm(false)&quot;</text>
<text text-anchor="start" x="245.5" y="-68.3" font-family="Times,serif" font-size="14.00"> types = (integer?, integer?, integer?, integer?, integer?, text)</text>
<text text-anchor="start" x="245.5" y="-53.3" font-family="Times,serif" font-size="14.00"> keys = ()</text>
<text text-anchor="start" x="245.5" y="-38.3" font-family="Times,serif" font-size="14.00"> Project (#5, #0..#4)</text>
<text text-anchor="start" x="245.5" y="-23.3" font-family="Times,serif" font-size="14.00"> types = (text, integer?, integer?, integer?, integer?, integer?)</text>
<text text-anchor="start" x="245.5" y="-8.3" font-family="Times,serif" font-size="14.00"> keys = ()</text>
</g>
<!-- node2&#45;&gt;node4 -->
<g id="edge4" class="edge">
<title>node2&#45;&gt;node4</title>
<path fill="none" stroke="black" d="M322.6,-240.47C334.99,-228.12 350.76,-212.4 367.31,-195.9"/>
<polygon fill="black" stroke="black" points="369.83,-198.33 374.44,-188.79 364.89,-193.37 369.83,-198.33"/>
<text text-anchor="start" x="353" y="-210.8" font-family="Times,serif" font-size="14.00">%2</text>
</g>
<!-- node3 -->
<g id="node4" class="node">
<title>node3</title>
<polygon fill="none" stroke="black" points="493,-240.5 493,-293.5 783,-293.5 783,-240.5 493,-240.5"/>
<text text-anchor="start" x="501" y="-278.3" font-family="Times,serif" font-size="14.00">Get simplify_outer_joins.public.t (u98)</text>
<text text-anchor="start" x="501" y="-263.3" font-family="Times,serif" font-size="14.00"> types = (integer?)</text>
<text text-anchor="start" x="501" y="-248.3" font-family="Times,serif" font-size="14.00"> keys = ()</text>
</g>
<!-- node3&#45;&gt;node4 -->
<g id="edge2" class="edge">
<title>node3&#45;&gt;node4</title>
<path fill="none" stroke="black" d="M612.55,-240.47C600.23,-228.12 584.56,-212.4 568.1,-195.9"/>
<polygon fill="black" stroke="black" points="570.55,-193.4 561.01,-188.79 565.59,-198.34 570.55,-193.4"/>
<text text-anchor="start" x="592" y="-210.8" font-family="Times,serif" font-size="14.00">%3</text>
</g>
</g>
</svg>
