<?xml version="1.0" encoding="UTF-8" standalone="no"?>
<!DOCTYPE svg PUBLIC "-//W3C//DTD SVG 1.1//EN"
 "http://www.w3.org/Graphics/SVG/1.1/DTD/svg11.dtd">
<!-- Generated by graphviz version 2.43.0 (0)
 -->
<!-- Title: G Pages: 1 -->
<svg width="1425pt" height="2477pt"
 viewBox="0.00 0.00 1425.00 2477.00" xmlns="http://www.w3.org/2000/svg" xmlns:xlink="http://www.w3.org/1999/xlink">
<g id="graph0" class="graph" transform="scale(1 1) rotate(0) translate(4 2473)">
<title>G</title>
<polygon fill="white" stroke="transparent" points="-4,4 -4,-2473 1421,-2473 1421,4 -4,4"/>
<!-- node0 -->
<g id="node1" class="node">
<title>node0</title>
<polygon fill="none" stroke="black" points="513,-2400.5 513,-2468.5 614,-2468.5 614,-2400.5 513,-2400.5"/>
<text text-anchor="start" x="521" y="-2453.3" font-family="Times,serif" font-size="14.00">Let l0 =</text>
<text text-anchor="start" x="521" y="-2438.3" font-family="Times,serif" font-size="14.00"> Constant ()</text>
<text text-anchor="start" x="521" y="-2423.3" font-family="Times,serif" font-size="14.00"> types = ()</text>
<text text-anchor="start" x="521" y="-2408.3" font-family="Times,serif" font-size="14.00"> keys = (())</text>
</g>
<!-- node2 -->
<g id="node3" class="node">
<title>node2</title>
<polygon fill="none" stroke="black" points="489,-2265.5 489,-2348.5 758,-2348.5 758,-2265.5 489,-2265.5"/>
<text text-anchor="start" x="497" y="-2333.3" font-family="Times,serif" font-size="14.00">Let l1 =</text>
<text text-anchor="start" x="497" y="-2318.3" font-family="Times,serif" font-size="14.00"> Join %0 %1</text>
<text text-anchor="start" x="497" y="-2303.3" font-family="Times,serif" font-size="14.00"> implementation = Unimplemented</text>
<text text-anchor="start" x="497" y="-2288.3" font-family="Times,serif" font-size="14.00"> types = (integer?, integer?)</text>
<text text-anchor="start" x="497" y="-2273.3" font-family="Times,serif" font-size="14.00"> keys = ()</text>
</g>
<!-- node0&#45;&gt;node2 -->
<g id="edge5" class="edge">
<title>node0&#45;&gt;node2</title>
<path fill="none" stroke="black" d="M579.42,-2400.2C585.63,-2387.21 592.88,-2372.05 599.68,-2357.82"/>
<polygon fill="black" stroke="black" points="602.92,-2359.16 604.08,-2348.63 596.61,-2356.14 602.92,-2359.16"/>
<text text-anchor="start" x="593.5" y="-2370.8" font-family="Times,serif" font-size="14.00">%0</text>
</g>
<!-- node4 -->
<g id="node5" class="node">
<title>node4</title>
<polygon fill="none" stroke="black" points="975,-2265.5 975,-2348.5 1244,-2348.5 1244,-2265.5 975,-2265.5"/>
<text text-anchor="start" x="983" y="-2333.3" font-family="Times,serif" font-size="14.00">Let l2 =</text>
<text text-anchor="start" x="983" y="-2318.3" font-family="Times,serif" font-size="14.00"> Join %0 %3</text>
<text text-anchor="start" x="983" y="-2303.3" font-family="Times,serif" font-size="14.00"> implementation = Unimplemented</text>
<text text-anchor="start" x="983" y="-2288.3" font-family="Times,serif" font-size="14.00"> types = (integer?, integer)</text>
<text text-anchor="start" x="983" y="-2273.3" font-family="Times,serif" font-size="14.00"> keys = ()</text>
</g>
<!-- node0&#45;&gt;node4 -->
<g id="edge21" class="edge">
<title>node0&#45;&gt;node4</title>
<path fill="none" stroke="black" d="M614.15,-2403.55C639.28,-2390.11 670.59,-2375.41 700.5,-2367 786.44,-2342.84 885.46,-2328.23 964.54,-2319.59"/>
<polygon fill="black" stroke="black" points="965.01,-2323.06 974.58,-2318.51 964.26,-2316.1 965.01,-2323.06"/>
<text text-anchor="start" x="700.5" y="-2370.8" font-family="Times,serif" font-size="14.00">%0</text>
</g>
<!-- node14 -->
<g id="node15" class="node">
<title>node14</title>
<polygon fill="none" stroke="black" points="202,-2265.5 202,-2348.5 471,-2348.5 471,-2265.5 202,-2265.5"/>
<text text-anchor="start" x="210" y="-2333.3" font-family="Times,serif" font-size="14.00">Let l6 =</text>
<text text-anchor="start" x="210" y="-2318.3" font-family="Times,serif" font-size="14.00"> Join %0 %13</text>
<text text-anchor="start" x="210" y="-2303.3" font-family="Times,serif" font-size="14.00"> implementation = Unimplemented</text>
<text text-anchor="start" x="210" y="-2288.3" font-family="Times,serif" font-size="14.00"> types = (integer?)</text>
<text text-anchor="start" x="210" y="-2273.3" font-family="Times,serif" font-size="14.00"> keys = ()</text>
</g>
<!-- node0&#45;&gt;node14 -->
<g id="edge16" class="edge">
<title>node0&#45;&gt;node14</title>
<path fill="none" stroke="black" d="M512.84,-2405.49C485.13,-2390.17 450.12,-2370.82 418.62,-2353.4"/>
<polygon fill="black" stroke="black" points="420.28,-2350.32 409.83,-2348.54 416.89,-2356.44 420.28,-2350.32"/>
<text text-anchor="start" x="470.5" y="-2370.8" font-family="Times,serif" font-size="14.00">%0</text>
</g>
<!-- node1 -->
<g id="node2" class="node">
<title>node1</title>
<polygon fill="none" stroke="black" points="632.5,-2408 632.5,-2461 920.5,-2461 920.5,-2408 632.5,-2408"/>
<text text-anchor="start" x="640.5" y="-2445.8" font-family="Times,serif" font-size="14.00">Get simplify_outer_joins.public.l (u94)</text>
<text text-anchor="start" x="640.5" y="-2430.8" font-family="Times,serif" font-size="14.00"> types = (integer?, integer?)</text>
<text text-anchor="start" x="640.5" y="-2415.8" font-family="Times,serif" font-size="14.00"> keys = ()</text>
</g>
<!-- node1&#45;&gt;node2 -->
<g id="edge30" class="edge">
<title>node1&#45;&gt;node2</title>
<path fill="none" stroke="black" d="M761.25,-2407.78C752.52,-2394.52 740.69,-2378.71 727.5,-2367 722.55,-2362.6 717.21,-2358.38 711.66,-2354.37"/>
<polygon fill="black" stroke="black" points="713.62,-2351.47 703.41,-2348.63 709.63,-2357.22 713.62,-2351.47"/>
<text text-anchor="start" x="742.5" y="-2370.8" font-family="Times,serif" font-size="14.00">%1</text>
</g>
<!-- node5 -->
<g id="node6" class="node">
<title>node5</title>
<polygon fill="none" stroke="black" points="683.5,-2040.5 683.5,-2213.5 1031.5,-2213.5 1031.5,-2040.5 683.5,-2040.5"/>
<text text-anchor="start" x="691.5" y="-2198.3" font-family="Times,serif" font-size="14.00">Let l3 =</text>
<text text-anchor="start" x="691.5" y="-2183.3" font-family="Times,serif" font-size="14.00"> Join %2 %4</text>
<text text-anchor="start" x="691.5" y="-2168.3" font-family="Times,serif" font-size="14.00"> implementation = Unimplemented</text>
<text text-anchor="start" x="691.5" y="-2153.3" font-family="Times,serif" font-size="14.00"> types = (integer?, integer?, integer?, integer)</text>
<text text-anchor="start" x="691.5" y="-2138.3" font-family="Times,serif" font-size="14.00"> keys = ()</text>
<text text-anchor="start" x="691.5" y="-2123.3" font-family="Times,serif" font-size="14.00"> Project (#0..#3)</text>
<text text-anchor="start" x="691.5" y="-2108.3" font-family="Times,serif" font-size="14.00"> types = (integer?, integer?, integer?, integer)</text>
<text text-anchor="start" x="691.5" y="-2093.3" font-family="Times,serif" font-size="14.00"> keys = ()</text>
<text text-anchor="start" x="691.5" y="-2078.3" font-family="Times,serif" font-size="14.00"> Filter (#1 = #2)</text>
<text text-anchor="start" x="691.5" y="-2063.3" font-family="Times,serif" font-size="14.00"> types = (integer?, integer, integer, integer)</text>
<text text-anchor="start" x="691.5" y="-2048.3" font-family="Times,serif" font-size="14.00"> keys = ()</text>
</g>
<!-- node2&#45;&gt;node5 -->
<g id="edge3" class="edge">
<title>node2&#45;&gt;node5</title>
<path fill="none" stroke="black" d="M676.89,-2265.39C694.83,-2251.74 715.64,-2235.91 736.62,-2219.96"/>
<polygon fill="black" stroke="black" points="738.82,-2222.68 744.66,-2213.84 734.58,-2217.11 738.82,-2222.68"/>
<text text-anchor="start" x="720.5" y="-2235.8" font-family="Times,serif" font-size="14.00">%2</text>
</g>
<!-- node9 -->
<g id="node10" class="node">
<title>node9</title>
<polygon fill="none" stroke="black" points="432.5,-1620.5 432.5,-1778.5 712.5,-1778.5 712.5,-1620.5 432.5,-1620.5"/>
<text text-anchor="start" x="440.5" y="-1763.3" font-family="Times,serif" font-size="14.00">Join %2 %6 (= #1 #2)</text>
<text text-anchor="start" x="440.5" y="-1748.3" font-family="Times,serif" font-size="14.00"> implementation = Unimplemented</text>
<text text-anchor="start" x="440.5" y="-1733.3" font-family="Times,serif" font-size="14.00"> types = (integer?, integer?, integer)</text>
<text text-anchor="start" x="440.5" y="-1718.3" font-family="Times,serif" font-size="14.00"> keys = ()</text>
<text text-anchor="start" x="440.5" y="-1703.3" font-family="Times,serif" font-size="14.00"> Project (#0, #1)</text>
<text text-anchor="start" x="440.5" y="-1688.3" font-family="Times,serif" font-size="14.00"> types = (integer?, integer?)</text>
<text text-anchor="start" x="440.5" y="-1673.3" font-family="Times,serif" font-size="14.00"> keys = ()</text>
<text text-anchor="start" x="440.5" y="-1658.3" font-family="Times,serif" font-size="14.00"> Negate</text>
<text text-anchor="start" x="440.5" y="-1643.3" font-family="Times,serif" font-size="14.00"> types = (integer?, integer?)</text>
<text text-anchor="start" x="440.5" y="-1628.3" font-family="Times,serif" font-size="14.00"> keys = ()</text>
</g>
<!-- node2&#45;&gt;node9 -->
<g id="edge1" class="edge">
<title>node2&#45;&gt;node9</title>
<path fill="none" stroke="black" d="M620.07,-2265.33C611.91,-2168.36 591.13,-1921.73 579.93,-1788.72"/>
<polygon fill="black" stroke="black" points="583.4,-1788.23 579.08,-1778.56 576.43,-1788.82 583.4,-1788.23"/>
<text text-anchor="start" x="599.5" y="-2010.8" font-family="Times,serif" font-size="14.00">%2</text>
</g>
<!-- node10 -->
<g id="node11" class="node">
<title>node10</title>
<polygon fill="none" stroke="black" points="364.5,-1448 364.5,-1546 720.5,-1546 720.5,-1448 364.5,-1448"/>
<text text-anchor="start" x="372.5" y="-1530.8" font-family="Times,serif" font-size="14.00">Union %9 %2</text>
<text text-anchor="start" x="372.5" y="-1515.8" font-family="Times,serif" font-size="14.00"> types = (integer?, integer?)</text>
<text text-anchor="start" x="372.5" y="-1500.8" font-family="Times,serif" font-size="14.00"> keys = ()</text>
<text text-anchor="start" x="372.5" y="-1485.8" font-family="Times,serif" font-size="14.00"> Map null, null</text>
<text text-anchor="start" x="372.5" y="-1470.8" font-family="Times,serif" font-size="14.00"> types = (integer?, integer?, integer?, integer?)</text>
<text text-anchor="start" x="372.5" y="-1455.8" font-family="Times,serif" font-size="14.00"> keys = ()</text>
</g>
<!-- node2&#45;&gt;node10 -->
<g id="edge15" class="edge">
<title>node2&#45;&gt;node10</title>
<path fill="none" stroke="black" d="M516.57,-2265.38C460.97,-2236.6 404.5,-2191.69 404.5,-2128 404.5,-2128 404.5,-2128 404.5,-1698.5 404.5,-1662.6 406.13,-1651.41 423.5,-1620 437.08,-1595.44 456.94,-1572.33 476.55,-1552.97"/>
<polygon fill="black" stroke="black" points="478.99,-1555.48 483.75,-1546.01 474.13,-1550.44 478.99,-1555.48"/>
<text text-anchor="start" x="404.5" y="-1905.8" font-family="Times,serif" font-size="14.00">%2</text>
</g>
<!-- node3 -->
<g id="node4" class="node">
<title>node3</title>
<polygon fill="none" stroke="black" points="964.5,-2408 964.5,-2461 1254.5,-2461 1254.5,-2408 964.5,-2408"/>
<text text-anchor="start" x="972.5" y="-2445.8" font-family="Times,serif" font-size="14.00">Get simplify_outer_joins.public.r (u96)</text>
<text text-anchor="start" x="972.5" y="-2430.8" font-family="Times,serif" font-size="14.00"> types = (integer?, integer)</text>
<text text-anchor="start" x="972.5" y="-2415.8" font-family="Times,serif" font-size="14.00"> keys = ()</text>
</g>
<!-- node3&#45;&gt;node4 -->
<g id="edge6" class="edge">
<title>node3&#45;&gt;node4</title>
<path fill="none" stroke="black" d="M1109.5,-2407.8C1109.5,-2393.79 1109.5,-2375.93 1109.5,-2359.2"/>
<polygon fill="black" stroke="black" points="1113,-2358.98 1109.5,-2348.98 1106,-2358.98 1113,-2358.98"/>
<text text-anchor="start" x="1109.5" y="-2370.8" font-family="Times,serif" font-size="14.00">%3</text>
</g>
<!-- node4&#45;&gt;node5 -->
<g id="edge24" class="edge">
<title>node4&#45;&gt;node5</title>
<path fill="none" stroke="black" d="M1052,-2265.39C1032.53,-2251.63 1009.92,-2235.66 987.16,-2219.58"/>
<polygon fill="black" stroke="black" points="988.96,-2216.57 978.77,-2213.66 984.92,-2222.29 988.96,-2216.57"/>
<text text-anchor="start" x="1020.5" y="-2235.8" font-family="Times,serif" font-size="14.00">%4</text>
</g>
<!-- node7 -->
<g id="node8" class="node">
<title>node7</title>
<polygon fill="none" stroke="black" points="1146,-1620.5 1146,-1778.5 1417,-1778.5 1417,-1620.5 1146,-1620.5"/>
<text text-anchor="start" x="1154" y="-1763.3" font-family="Times,serif" font-size="14.00">Join %4 %6 (= #0 #2)</text>
<text text-anchor="start" x="1154" y="-1748.3" font-family="Times,serif" font-size="14.00"> implementation = Unimplemented</text>
<text text-anchor="start" x="1154" y="-1733.3" font-family="Times,serif" font-size="14.00"> types = (integer?, integer, integer)</text>
<text text-anchor="start" x="1154" y="-1718.3" font-family="Times,serif" font-size="14.00"> keys = ()</text>
<text text-anchor="start" x="1154" y="-1703.3" font-family="Times,serif" font-size="14.00"> Project (#0, #1)</text>
<text text-anchor="start" x="1154" y="-1688.3" font-family="Times,serif" font-size="14.00"> types = (integer?, integer)</text>
<text text-anchor="start" x="1154" y="-1673.3" font-family="Times,serif" font-size="14.00"> keys = ()</text>
<text text-anchor="start" x="1154" y="-1658.3" font-family="Times,serif" font-size="14.00"> Negate</text>
<text text-anchor="start" x="1154" y="-1643.3" font-family="Times,serif" font-size="14.00"> types = (integer?, integer)</text>
<text text-anchor="start" x="1154" y="-1628.3" font-family="Times,serif" font-size="14.00"> keys = ()</text>
</g>
<!-- node4&#45;&gt;node7 -->
<g id="edge11" class="edge">
<title>node4&#45;&gt;node7</title>
<path fill="none" stroke="black" d="M1125.24,-2265.22C1127.43,-2259.14 1129.58,-2252.93 1131.5,-2247 1183.18,-2086.98 1232.71,-1897.04 1259.93,-1788.45"/>
<polygon fill="black" stroke="black" points="1263.38,-1789.07 1262.41,-1778.52 1256.59,-1787.37 1263.38,-1789.07"/>
<text text-anchor="start" x="1200.5" y="-2010.8" font-family="Times,serif" font-size="14.00">%4</text>
</g>
<!-- node8 -->
<g id="node9" class="node">
<title>node8</title>
<polygon fill="none" stroke="black" points="943.5,-1425.5 943.5,-1568.5 1291.5,-1568.5 1291.5,-1425.5 943.5,-1425.5"/>
<text text-anchor="start" x="951.5" y="-1553.3" font-family="Times,serif" font-size="14.00">Union %7 %4</text>
<text text-anchor="start" x="951.5" y="-1538.3" font-family="Times,serif" font-size="14.00"> types = (integer?, integer)</text>
<text text-anchor="start" x="951.5" y="-1523.3" font-family="Times,serif" font-size="14.00"> keys = ()</text>
<text text-anchor="start" x="951.5" y="-1508.3" font-family="Times,serif" font-size="14.00"> Map null, null</text>
<text text-anchor="start" x="951.5" y="-1493.3" font-family="Times,serif" font-size="14.00"> types = (integer?, integer, integer?, integer?)</text>
<text text-anchor="start" x="951.5" y="-1478.3" font-family="Times,serif" font-size="14.00"> keys = ()</text>
<text text-anchor="start" x="951.5" y="-1463.3" font-family="Times,serif" font-size="14.00"> Project (#2, #3, #0, #1)</text>
<text text-anchor="start" x="951.5" y="-1448.3" font-family="Times,serif" font-size="14.00"> types = (integer?, integer?, integer?, integer)</text>
<text text-anchor="start" x="951.5" y="-1433.3" font-family="Times,serif" font-size="14.00"> keys = ()</text>
</g>
<!-- node4&#45;&gt;node8 -->
<g id="edge26" class="edge">
<title>node4&#45;&gt;node8</title>
<path fill="none" stroke="black" d="M1112.37,-2265.37C1114.66,-2229.31 1117.5,-2175.17 1117.5,-2128 1117.5,-2128 1117.5,-2128 1117.5,-1698.5 1117.5,-1659.05 1117.5,-1615.23 1117.5,-1578.64"/>
<polygon fill="black" stroke="black" points="1121,-1578.52 1117.5,-1568.52 1114,-1578.52 1121,-1578.52"/>
<text text-anchor="start" x="1117.5" y="-1905.8" font-family="Times,serif" font-size="14.00">%4</text>
</g>
<!-- node6 -->
<g id="node7" class="node">
<title>node6</title>
<polygon fill="none" stroke="black" points="751.5,-1830.5 751.5,-1988.5 1081.5,-1988.5 1081.5,-1830.5 751.5,-1830.5"/>
<text text-anchor="start" x="759.5" y="-1973.3" font-family="Times,serif" font-size="14.00">Let l4 =</text>
<text text-anchor="start" x="759.5" y="-1958.3" font-family="Times,serif" font-size="14.00"> Get %5 (l3)</text>
<text text-anchor="start" x="759.5" y="-1943.3" font-family="Times,serif" font-size="14.00"> types = (integer?, integer, integer, integer)</text>
<text text-anchor="start" x="759.5" y="-1928.3" font-family="Times,serif" font-size="14.00"> keys = ()</text>
<text text-anchor="start" x="759.5" y="-1913.3" font-family="Times,serif" font-size="14.00"> Project (#1)</text>
<text text-anchor="start" x="759.5" y="-1898.3" font-family="Times,serif" font-size="14.00"> types = (integer)</text>
<text text-anchor="start" x="759.5" y="-1883.3" font-family="Times,serif" font-size="14.00"> keys = ()</text>
<text text-anchor="start" x="759.5" y="-1868.3" font-family="Times,serif" font-size="14.00"> Distinct group=(#0)</text>
<text text-anchor="start" x="759.5" y="-1853.3" font-family="Times,serif" font-size="14.00"> types = (integer)</text>
<text text-anchor="start" x="759.5" y="-1838.3" font-family="Times,serif" font-size="14.00"> keys = ((#0))</text>
</g>
<!-- node5&#45;&gt;node6 -->
<g id="edge20" class="edge">
<title>node5&#45;&gt;node6</title>
<path fill="none" stroke="black" d="M880.99,-2040.21C884.74,-2026.51 888.62,-2012.32 892.39,-1998.58"/>
<polygon fill="black" stroke="black" points="895.84,-1999.23 895.1,-1988.66 889.09,-1997.38 895.84,-1999.23"/>
<text text-anchor="start" x="888.5" y="-2010.8" font-family="Times,serif" font-size="14.00">%5</text>
</g>
<!-- node11 -->
<g id="node12" class="node">
<title>node11</title>
<polygon fill="none" stroke="black" points="507.5,-1320.5 507.5,-1373.5 863.5,-1373.5 863.5,-1320.5 507.5,-1320.5"/>
<text text-anchor="start" x="515.5" y="-1358.3" font-family="Times,serif" font-size="14.00">Union %10 %5</text>
<text text-anchor="start" x="515.5" y="-1343.3" font-family="Times,serif" font-size="14.00"> types = (integer?, integer?, integer?, integer?)</text>
<text text-anchor="start" x="515.5" y="-1328.3" font-family="Times,serif" font-size="14.00"> keys = ()</text>
</g>
<!-- node5&#45;&gt;node11 -->
<g id="edge12" class="edge">
<title>node5&#45;&gt;node11</title>
<path fill="none" stroke="black" d="M771.17,-2040.25C759.54,-2024.34 749.29,-2007.01 742.5,-1989 698.26,-1871.7 763.07,-1545.79 729.5,-1425 725.35,-1410.05 717.65,-1394.95 709.84,-1382.12"/>
<polygon fill="black" stroke="black" points="712.77,-1380.2 704.45,-1373.63 706.85,-1383.95 712.77,-1380.2"/>
<text text-anchor="start" x="737.5" y="-1695.8" font-family="Times,serif" font-size="14.00">%5</text>
</g>
<!-- node6&#45;&gt;node7 -->
<g id="edge14" class="edge">
<title>node6&#45;&gt;node7</title>
<path fill="none" stroke="black" d="M1053.45,-1830.46C1080.74,-1814.91 1109.48,-1798.53 1137.01,-1782.84"/>
<polygon fill="black" stroke="black" points="1138.95,-1785.76 1145.9,-1777.77 1135.48,-1779.68 1138.95,-1785.76"/>
<text text-anchor="start" x="1109.5" y="-1800.8" font-family="Times,serif" font-size="14.00">%6</text>
</g>
<!-- node6&#45;&gt;node9 -->
<g id="edge27" class="edge">
<title>node6&#45;&gt;node9</title>
<path fill="none" stroke="black" d="M787.43,-1830.46C762.25,-1815.23 735.76,-1799.22 710.31,-1783.83"/>
<polygon fill="black" stroke="black" points="712.09,-1780.81 701.72,-1778.63 708.47,-1786.8 712.09,-1780.81"/>
<text text-anchor="start" x="755.5" y="-1800.8" font-family="Times,serif" font-size="14.00">%6</text>
</g>
<!-- node7&#45;&gt;node8 -->
<g id="edge18" class="edge">
<title>node7&#45;&gt;node8</title>
<path fill="none" stroke="black" d="M1217.62,-1620.41C1205.86,-1606.03 1193.58,-1591.01 1181.8,-1576.61"/>
<polygon fill="black" stroke="black" points="1184.36,-1574.21 1175.32,-1568.69 1178.94,-1578.64 1184.36,-1574.21"/>
<text text-anchor="start" x="1199.5" y="-1590.8" font-family="Times,serif" font-size="14.00">%7</text>
</g>
<!-- node12 -->
<g id="node13" class="node">
<title>node12</title>
<polygon fill="none" stroke="black" points="507.5,-1200.5 507.5,-1268.5 863.5,-1268.5 863.5,-1200.5 507.5,-1200.5"/>
<text text-anchor="start" x="515.5" y="-1253.3" font-family="Times,serif" font-size="14.00">Let l5 =</text>
<text text-anchor="start" x="515.5" y="-1238.3" font-family="Times,serif" font-size="14.00"> Union %8 %11</text>
<text text-anchor="start" x="515.5" y="-1223.3" font-family="Times,serif" font-size="14.00"> types = (integer?, integer?, integer?, integer?)</text>
<text text-anchor="start" x="515.5" y="-1208.3" font-family="Times,serif" font-size="14.00"> keys = ()</text>
</g>
<!-- node8&#45;&gt;node12 -->
<g id="edge31" class="edge">
<title>node8&#45;&gt;node12</title>
<path fill="none" stroke="black" d="M1028.19,-1425.3C982.97,-1391.22 926.36,-1351.1 872.5,-1320 842.58,-1302.72 808.5,-1286.41 777.7,-1272.81"/>
<polygon fill="black" stroke="black" points="778.82,-1269.48 768.25,-1268.68 776.01,-1275.9 778.82,-1269.48"/>
<text text-anchor="start" x="953.5" y="-1343.3" font-family="Times,serif" font-size="14.00">%8</text>
</g>
<!-- node9&#45;&gt;node10 -->
<g id="edge13" class="edge">
<title>node9&#45;&gt;node10</title>
<path fill="none" stroke="black" d="M560.82,-1620.41C557.61,-1598.96 554.18,-1576.09 551.18,-1555.99"/>
<polygon fill="black" stroke="black" points="554.63,-1555.44 549.69,-1546.06 547.71,-1556.47 554.63,-1555.44"/>
<text text-anchor="start" x="557.5" y="-1590.8" font-family="Times,serif" font-size="14.00">%9</text>
</g>
<!-- node10&#45;&gt;node11 -->
<g id="edge4" class="edge">
<title>node10&#45;&gt;node11</title>
<path fill="none" stroke="black" d="M588.93,-1447.95C610.04,-1426.09 634.5,-1400.78 653.52,-1381.1"/>
<polygon fill="black" stroke="black" points="656.09,-1383.47 660.52,-1373.85 651.06,-1378.61 656.09,-1383.47"/>
<text text-anchor="start" x="639.5" y="-1395.8" font-family="Times,serif" font-size="14.00">%10</text>
</g>
<!-- node11&#45;&gt;node12 -->
<g id="edge22" class="edge">
<title>node11&#45;&gt;node12</title>
<path fill="none" stroke="black" d="M685.5,-1320.37C685.5,-1307.96 685.5,-1292.71 685.5,-1278.58"/>
<polygon fill="black" stroke="black" points="689,-1278.54 685.5,-1268.54 682,-1278.54 689,-1278.54"/>
<text text-anchor="start" x="685.5" y="-1290.8" font-family="Times,serif" font-size="14.00">%11</text>
</g>
<!-- node15 -->
<g id="node16" class="node">
<title>node15</title>
<polygon fill="none" stroke="black" points="186.5,-975.5 186.5,-1148.5 610.5,-1148.5 610.5,-975.5 186.5,-975.5"/>
<text text-anchor="start" x="194.5" y="-1133.3" font-family="Times,serif" font-size="14.00">Let l7 =</text>
<text text-anchor="start" x="194.5" y="-1118.3" font-family="Times,serif" font-size="14.00"> Join %12 %14</text>
<text text-anchor="start" x="194.5" y="-1103.3" font-family="Times,serif" font-size="14.00"> implementation = Unimplemented</text>
<text text-anchor="start" x="194.5" y="-1088.3" font-family="Times,serif" font-size="14.00"> types = (integer?, integer?, integer?, integer?, integer?)</text>
<text text-anchor="start" x="194.5" y="-1073.3" font-family="Times,serif" font-size="14.00"> keys = ()</text>
<text text-anchor="start" x="194.5" y="-1058.3" font-family="Times,serif" font-size="14.00"> Project (#0..#4)</text>
<text text-anchor="start" x="194.5" y="-1043.3" font-family="Times,serif" font-size="14.00"> types = (integer?, integer?, integer?, integer?, integer?)</text>
<text text-anchor="start" x="194.5" y="-1028.3" font-family="Times,serif" font-size="14.00"> keys = ()</text>
<text text-anchor="start" x="194.5" y="-1013.3" font-family="Times,serif" font-size="14.00"> Filter (#1 = #4)</text>
<text text-anchor="start" x="194.5" y="-998.3" font-family="Times,serif" font-size="14.00"> types = (integer?, integer, integer?, integer?, integer)</text>
<text text-anchor="start" x="194.5" y="-983.3" font-family="Times,serif" font-size="14.00"> keys = ()</text>
</g>
<!-- node12&#45;&gt;node15 -->
<g id="edge10" class="edge">
<title>node12&#45;&gt;node15</title>
<path fill="none" stroke="black" d="M629.82,-1200.42C607,-1186.86 579.36,-1170.44 551.24,-1153.74"/>
<polygon fill="black" stroke="black" points="552.89,-1150.65 542.51,-1148.55 549.32,-1156.67 552.89,-1150.65"/>
<text text-anchor="start" x="593.5" y="-1170.8" font-family="Times,serif" font-size="14.00">%12</text>
</g>
<!-- node17 -->
<g id="node18" class="node">
<title>node17</title>
<polygon fill="none" stroke="black" points="264.5,-555.5 264.5,-713.5 680.5,-713.5 680.5,-555.5 264.5,-555.5"/>
<text text-anchor="start" x="272.5" y="-698.3" font-family="Times,serif" font-size="14.00">Join %12 %16 (= #1 #4)</text>
<text text-anchor="start" x="272.5" y="-683.3" font-family="Times,serif" font-size="14.00"> implementation = Unimplemented</text>
<text text-anchor="start" x="272.5" y="-668.3" font-family="Times,serif" font-size="14.00"> types = (integer?, integer?, integer?, integer?, integer)</text>
<text text-anchor="start" x="272.5" y="-653.3" font-family="Times,serif" font-size="14.00"> keys = ()</text>
<text text-anchor="start" x="272.5" y="-638.3" font-family="Times,serif" font-size="14.00"> Project (#0..#3)</text>
<text text-anchor="start" x="272.5" y="-623.3" font-family="Times,serif" font-size="14.00"> types = (integer?, integer?, integer?, integer?)</text>
<text text-anchor="start" x="272.5" y="-608.3" font-family="Times,serif" font-size="14.00"> keys = ()</text>
<text text-anchor="start" x="272.5" y="-593.3" font-family="Times,serif" font-size="14.00"> Negate</text>
<text text-anchor="start" x="272.5" y="-578.3" font-family="Times,serif" font-size="14.00"> types = (integer?, integer?, integer?, integer?)</text>
<text text-anchor="start" x="272.5" y="-563.3" font-family="Times,serif" font-size="14.00"> keys = ()</text>
</g>
<!-- node12&#45;&gt;node17 -->
<g id="edge19" class="edge">
<title>node12&#45;&gt;node17</title>
<path fill="none" stroke="black" d="M683.71,-1200.26C678.01,-1096.44 660.08,-784 649.5,-765 640.52,-748.86 628.58,-734.19 615.13,-721"/>
<polygon fill="black" stroke="black" points="617.2,-718.14 607.52,-713.83 612.4,-723.23 617.2,-718.14"/>
<text text-anchor="start" x="669.5" y="-945.8" font-family="Times,serif" font-size="14.00">%12</text>
</g>
<!-- node18 -->
<g id="node19" class="node">
<title>node18</title>
<polygon fill="none" stroke="black" points="260.5,-405.5 260.5,-503.5 684.5,-503.5 684.5,-405.5 260.5,-405.5"/>
<text text-anchor="start" x="268.5" y="-488.3" font-family="Times,serif" font-size="14.00">Union %17 %12</text>
<text text-anchor="start" x="268.5" y="-473.3" font-family="Times,serif" font-size="14.00"> types = (integer?, integer?, integer?, integer?)</text>
<text text-anchor="start" x="268.5" y="-458.3" font-family="Times,serif" font-size="14.00"> keys = ()</text>
<text text-anchor="start" x="268.5" y="-443.3" font-family="Times,serif" font-size="14.00"> Map null</text>
<text text-anchor="start" x="268.5" y="-428.3" font-family="Times,serif" font-size="14.00"> types = (integer?, integer?, integer?, integer?, integer?)</text>
<text text-anchor="start" x="268.5" y="-413.3" font-family="Times,serif" font-size="14.00"> keys = ()</text>
</g>
<!-- node12&#45;&gt;node18 -->
<g id="edge29" class="edge">
<title>node12&#45;&gt;node18</title>
<path fill="none" stroke="black" d="M695.14,-1200.5C704.24,-1166.39 716.5,-1111.44 716.5,-1063 716.5,-1063 716.5,-1063 716.5,-633.5 716.5,-596.61 714.27,-582.34 689.5,-555 672.67,-536.43 651.69,-521.07 629.45,-508.46"/>
<polygon fill="black" stroke="black" points="630.98,-505.31 620.53,-503.58 627.62,-511.45 630.98,-505.31"/>
<text text-anchor="start" x="716.5" y="-840.8" font-family="Times,serif" font-size="14.00">%12</text>
</g>
<!-- node13 -->
<g id="node14" class="node">
<title>node13</title>
<polygon fill="none" stroke="black" points="191.5,-2408 191.5,-2461 481.5,-2461 481.5,-2408 191.5,-2408"/>
<text text-anchor="start" x="199.5" y="-2445.8" font-family="Times,serif" font-size="14.00">Get simplify_outer_joins.public.t (u98)</text>
<text text-anchor="start" x="199.5" y="-2430.8" font-family="Times,serif" font-size="14.00"> types = (integer?)</text>
<text text-anchor="start" x="199.5" y="-2415.8" font-family="Times,serif" font-size="14.00"> keys = ()</text>
</g>
<!-- node13&#45;&gt;node14 -->
<g id="edge9" class="edge">
<title>node13&#45;&gt;node14</title>
<path fill="none" stroke="black" d="M336.5,-2407.8C336.5,-2393.79 336.5,-2375.93 336.5,-2359.2"/>
<polygon fill="black" stroke="black" points="340,-2358.98 336.5,-2348.98 333,-2358.98 340,-2358.98"/>
<text text-anchor="start" x="336.5" y="-2370.8" font-family="Times,serif" font-size="14.00">%13</text>
</g>
<!-- node14&#45;&gt;node15 -->
<g id="edge7" class="edge">
<title>node14&#45;&gt;node15</title>
<path fill="none" stroke="black" d="M336.5,-2265.35C336.5,-2229.27 336.5,-2175.13 336.5,-2128 336.5,-2128 336.5,-2128 336.5,-1233.5 336.5,-1208.34 342.54,-1182.27 350.85,-1158.32"/>
<polygon fill="black" stroke="black" points="354.14,-1159.5 354.27,-1148.9 347.56,-1157.11 354.14,-1159.5"/>
<text text-anchor="start" x="336.5" y="-1590.8" font-family="Times,serif" font-size="14.00">%14</text>
</g>
<!-- node16 -->
<g id="node17" class="node">
<title>node16</title>
<polygon fill="none" stroke="black" points="234,-765.5 234,-923.5 641,-923.5 641,-765.5 234,-765.5"/>
<text text-anchor="start" x="242" y="-908.3" font-family="Times,serif" font-size="14.00">Let l8 =</text>
<text text-anchor="start" x="242" y="-893.3" font-family="Times,serif" font-size="14.00"> Get %15 (l7)</text>
<text text-anchor="start" x="242" y="-878.3" font-family="Times,serif" font-size="14.00"> types = (integer?, integer, integer?, integer?, integer)</text>
<text text-anchor="start" x="242" y="-863.3" font-family="Times,serif" font-size="14.00"> keys = ()</text>
<text text-anchor="start" x="242" y="-848.3" font-family="Times,serif" font-size="14.00"> Project (#1)</text>
<text text-anchor="start" x="242" y="-833.3" font-family="Times,serif" font-size="14.00"> types = (integer)</text>
<text text-anchor="start" x="242" y="-818.3" font-family="Times,serif" font-size="14.00"> keys = ()</text>
<text text-anchor="start" x="242" y="-803.3" font-family="Times,serif" font-size="14.00"> Distinct group=(#0)</text>
<text text-anchor="start" x="242" y="-788.3" font-family="Times,serif" font-size="14.00"> types = (integer)</text>
<text text-anchor="start" x="242" y="-773.3" font-family="Times,serif" font-size="14.00"> keys = ((#0))</text>
</g>
<!-- node15&#45;&gt;node16 -->
<g id="edge28" class="edge">
<title>node15&#45;&gt;node16</title>
<path fill="none" stroke="black" d="M414.03,-975.21C416.5,-961.51 419.07,-947.32 421.56,-933.58"/>
<polygon fill="black" stroke="black" points="425.02,-934.12 423.36,-923.66 418.13,-932.88 425.02,-934.12"/>
<text text-anchor="start" x="419.5" y="-945.8" font-family="Times,serif" font-size="14.00">%15</text>
</g>
<!-- node19 -->
<g id="node20" class="node">
<title>node19</title>
<polygon fill="none" stroke="black" points="9.5,-240.5 9.5,-353.5 433.5,-353.5 433.5,-240.5 9.5,-240.5"/>
<text text-anchor="start" x="17.5" y="-338.3" font-family="Times,serif" font-size="14.00">Let l9 =</text>
<text text-anchor="start" x="17.5" y="-323.3" font-family="Times,serif" font-size="14.00"> Union %18 %15</text>
<text text-anchor="start" x="17.5" y="-308.3" font-family="Times,serif" font-size="14.00"> types = (integer?, integer?, integer?, integer?, integer?)</text>
<text text-anchor="start" x="17.5" y="-293.3" font-family="Times,serif" font-size="14.00"> keys = ()</text>
<text text-anchor="start" x="17.5" y="-278.3" font-family="Times,serif" font-size="14.00"> Filter (#0 &gt; #3)</text>
<text text-anchor="start" x="17.5" y="-263.3" font-family="Times,serif" font-size="14.00"> types = (integer, integer?, integer?, integer, integer?)</text>
<text text-anchor="start" x="17.5" y="-248.3" font-family="Times,serif" font-size="14.00"> keys = ()</text>
</g>
<!-- node15&#45;&gt;node19 -->
<g id="edge23" class="edge">
<title>node15&#45;&gt;node19</title>
<path fill="none" stroke="black" d="M268.43,-975.19C251.8,-959.76 236.44,-942.6 224.5,-924 205.11,-893.79 205.5,-881.4 205.5,-845.5 205.5,-845.5 205.5,-845.5 205.5,-453.5 205.5,-423.89 208.41,-391.28 211.74,-363.6"/>
<polygon fill="black" stroke="black" points="215.22,-363.99 212.98,-353.64 208.27,-363.12 215.22,-363.99"/>
<text text-anchor="start" x="205.5" y="-630.8" font-family="Times,serif" font-size="14.00">%15</text>
</g>
<!-- node16&#45;&gt;node17 -->
<g id="edge2" class="edge">
<title>node16&#45;&gt;node17</title>
<path fill="none" stroke="black" d="M450.63,-765.46C452.93,-751.82 455.33,-737.55 457.66,-723.66"/>
<polygon fill="black" stroke="black" points="461.14,-724.08 459.35,-713.63 454.24,-722.92 461.14,-724.08"/>
<text text-anchor="start" x="456.5" y="-735.8" font-family="Times,serif" font-size="14.00">%16</text>
</g>
<!-- node17&#45;&gt;node18 -->
<g id="edge17" class="edge">
<title>node17&#45;&gt;node18</title>
<path fill="none" stroke="black" d="M472.5,-555.43C472.5,-541.5 472.5,-527.2 472.5,-513.94"/>
<polygon fill="black" stroke="black" points="476,-513.55 472.5,-503.55 469,-513.55 476,-513.55"/>
<text text-anchor="start" x="472.5" y="-525.8" font-family="Times,serif" font-size="14.00">%17</text>
</g>
<!-- node18&#45;&gt;node19 -->
<g id="edge25" class="edge">
<title>node18&#45;&gt;node19</title>
<path fill="none" stroke="black" d="M394.8,-405.36C371.1,-390.68 344.73,-374.35 319.86,-358.93"/>
<polygon fill="black" stroke="black" points="321.47,-355.82 311.13,-353.53 317.78,-361.77 321.47,-355.82"/>
<text text-anchor="start" x="362.5" y="-375.8" font-family="Times,serif" font-size="14.00">%18</text>
</g>
<!-- node20 -->
<g id="node21" class="node">
<title>node20</title>
<polygon fill="none" stroke="black" points="0,-0.5 0,-188.5 443,-188.5 443,-0.5 0,-0.5"/>
<text text-anchor="start" x="8" y="-173.3" font-family="Times,serif" font-size="14.00">Get %19 (l9)</text>
<text text-anchor="start" x="8" y="-158.3" font-family="Times,serif" font-size="14.00"> types = (integer, integer?, integer?, integer, integer?)</text>
<text text-anchor="start" x="8" y="-143.3" font-family="Times,serif" font-size="14.00"> keys = ()</text>
<text text-anchor="start" x="8" y="-128.3" font-family="Times,serif" font-size="14.00"> Map &quot;qgm(false)&quot;</text>
<text text-anchor="start" x="8" y="-113.3" font-family="Times,serif" font-size="14.00"> types = (integer, integer?, integer?, integer, integer?, text)</text>
<text text-anchor="start" x="8" y="-98.3" font-family="Times,serif" font-size="14.00"> keys = ()</text>
<text text-anchor="start" x="8" y="-83.3" font-family="Times,serif" font-size="14.00"> Project (#0..#5)</text>
<text text-anchor="start" x="8" y="-68.3" font-family="Times,serif" font-size="14.00"> types = (integer, integer?, integer?, integer, integer?, text)</text>
<text text-anchor="start" x="8" y="-53.3" font-family="Times,serif" font-size="14.00"> keys = ()</text>
<text text-anchor="start" x="8" y="-38.3" font-family="Times,serif" font-size="14.00"> Project (#5, #0..#4)</text>
<text text-anchor="start" x="8" y="-23.3" font-family="Times,serif" font-size="14.00"> types = (text, integer, integer?, integer?, integer, integer?)</text>
<text text-anchor="start" x="8" y="-8.3" font-family="Times,serif" font-size="14.00"> keys = ()</text>
</g>
<!-- node19&#45;&gt;node20 -->
<g id="edge8" class="edge">
<title>node19&#45;&gt;node20</title>
<path fill="none" stroke="black" d="M221.5,-240.42C221.5,-227.45 221.5,-213.24 221.5,-198.94"/>
<polygon fill="black" stroke="black" points="225,-198.52 221.5,-188.52 218,-198.52 225,-198.52"/>
<text text-anchor="start" x="221.5" y="-210.8" font-family="Times,serif" font-size="14.00">%19</text>
</g>
</g>
</svg>
