<?xml version="1.0" encoding="UTF-8" standalone="no"?>
<!DOCTYPE svg PUBLIC "-//W3C//DTD SVG 1.1//EN"
 "http://www.w3.org/Graphics/SVG/1.1/DTD/svg11.dtd">
<!-- Generated by graphviz version 2.43.0 (0)
 -->
<!-- Title: G Pages: 1 -->
<svg width="1725pt" height="2450pt"
 viewBox="0.00 0.00 1724.50 2450.00" xmlns="http://www.w3.org/2000/svg" xmlns:xlink="http://www.w3.org/1999/xlink">
<g id="graph0" class="graph" transform="scale(1 1) rotate(0) translate(4 2446)">
<title>G</title>
<polygon fill="white" stroke="transparent" points="-4,4 -4,-2446 1720.5,-2446 1720.5,4 -4,4"/>
<!-- node0 -->
<g id="node1" class="node">
<title>node0</title>
<polygon fill="none" stroke="black" points="770,-2298.5 770,-2441.5 1058,-2441.5 1058,-2298.5 770,-2298.5"/>
<text text-anchor="start" x="778" y="-2426.3" font-family="Times,serif" font-size="14.00">Get simplify_outer_joins.public.l (u94)</text>
<text text-anchor="start" x="778" y="-2411.3" font-family="Times,serif" font-size="14.00"> types = (integer?, integer?)</text>
<text text-anchor="start" x="778" y="-2396.3" font-family="Times,serif" font-size="14.00"> keys = ()</text>
<text text-anchor="start" x="778" y="-2381.3" font-family="Times,serif" font-size="14.00"> Filter !(isnull(#1))</text>
<text text-anchor="start" x="778" y="-2366.3" font-family="Times,serif" font-size="14.00"> types = (integer?, integer)</text>
<text text-anchor="start" x="778" y="-2351.3" font-family="Times,serif" font-size="14.00"> keys = ()</text>
<text text-anchor="start" x="778" y="-2336.3" font-family="Times,serif" font-size="14.00"> ArrangeBy (#1)</text>
<text text-anchor="start" x="778" y="-2321.3" font-family="Times,serif" font-size="14.00"> types = (integer?, integer)</text>
<text text-anchor="start" x="778" y="-2306.3" font-family="Times,serif" font-size="14.00"> keys = ()</text>
</g>
<!-- node2 -->
<g id="node3" class="node">
<title>node2</title>
<polygon fill="none" stroke="black" points="902,-2118.5 902,-2246.5 1232,-2246.5 1232,-2118.5 902,-2118.5"/>
<text text-anchor="start" x="910" y="-2231.3" font-family="Times,serif" font-size="14.00">Let l0 =</text>
<text text-anchor="start" x="910" y="-2216.3" font-family="Times,serif" font-size="14.00"> Join %0 %1 (= #1 #2)</text>
<text text-anchor="start" x="910" y="-2201.3" font-family="Times,serif" font-size="14.00"> implementation = Differential %1 %0.(#1)</text>
<text text-anchor="start" x="910" y="-2186.3" font-family="Times,serif" font-size="14.00"> types = (integer?, integer, integer, integer)</text>
<text text-anchor="start" x="910" y="-2171.3" font-family="Times,serif" font-size="14.00"> keys = ()</text>
<text text-anchor="start" x="910" y="-2156.3" font-family="Times,serif" font-size="14.00"> Project (#0, #1, #3)</text>
<text text-anchor="start" x="910" y="-2141.3" font-family="Times,serif" font-size="14.00"> types = (integer?, integer, integer)</text>
<text text-anchor="start" x="910" y="-2126.3" font-family="Times,serif" font-size="14.00"> keys = ()</text>
</g>
<!-- node0&#45;&gt;node2 -->
<g id="edge4" class="edge">
<title>node0&#45;&gt;node2</title>
<path fill="none" stroke="black" d="M972.28,-2298.34C984.11,-2284 996.55,-2268.91 1008.39,-2254.56"/>
<polygon fill="black" stroke="black" points="1011.24,-2256.61 1014.9,-2246.67 1005.84,-2252.16 1011.24,-2256.61"/>
<text text-anchor="start" x="1000" y="-2268.8" font-family="Times,serif" font-size="14.00">%0</text>
</g>
<!-- node1 -->
<g id="node2" class="node">
<title>node1</title>
<polygon fill="none" stroke="black" points="1076,-2321 1076,-2419 1366,-2419 1366,-2321 1076,-2321"/>
<text text-anchor="start" x="1084" y="-2403.8" font-family="Times,serif" font-size="14.00">Get simplify_outer_joins.public.r (u96)</text>
<text text-anchor="start" x="1084" y="-2388.8" font-family="Times,serif" font-size="14.00"> types = (integer?, integer)</text>
<text text-anchor="start" x="1084" y="-2373.8" font-family="Times,serif" font-size="14.00"> keys = ()</text>
<text text-anchor="start" x="1084" y="-2358.8" font-family="Times,serif" font-size="14.00"> Filter !(isnull(#0))</text>
<text text-anchor="start" x="1084" y="-2343.8" font-family="Times,serif" font-size="14.00"> types = (integer, integer)</text>
<text text-anchor="start" x="1084" y="-2328.8" font-family="Times,serif" font-size="14.00"> keys = ()</text>
</g>
<!-- node1&#45;&gt;node2 -->
<g id="edge26" class="edge">
<title>node1&#45;&gt;node2</title>
<path fill="none" stroke="black" d="M1180.94,-2320.75C1164.12,-2300.48 1144.22,-2276.51 1125.79,-2254.31"/>
<polygon fill="black" stroke="black" points="1128.42,-2252 1119.34,-2246.55 1123.03,-2256.48 1128.42,-2252"/>
<text text-anchor="start" x="1144" y="-2268.8" font-family="Times,serif" font-size="14.00">%1</text>
</g>
<!-- node3 -->
<g id="node4" class="node">
<title>node3</title>
<polygon fill="none" stroke="black" points="686.5,-1863.5 686.5,-2066.5 957.5,-2066.5 957.5,-1863.5 686.5,-1863.5"/>
<text text-anchor="start" x="694.5" y="-2051.3" font-family="Times,serif" font-size="14.00">Let l1 =</text>
<text text-anchor="start" x="694.5" y="-2036.3" font-family="Times,serif" font-size="14.00"> Get %2 (l0)</text>
<text text-anchor="start" x="694.5" y="-2021.3" font-family="Times,serif" font-size="14.00"> types = (integer?, integer, integer)</text>
<text text-anchor="start" x="694.5" y="-2006.3" font-family="Times,serif" font-size="14.00"> keys = ()</text>
<text text-anchor="start" x="694.5" y="-1991.3" font-family="Times,serif" font-size="14.00"> Project (#1)</text>
<text text-anchor="start" x="694.5" y="-1976.3" font-family="Times,serif" font-size="14.00"> types = (integer)</text>
<text text-anchor="start" x="694.5" y="-1961.3" font-family="Times,serif" font-size="14.00"> keys = ()</text>
<text text-anchor="start" x="694.5" y="-1946.3" font-family="Times,serif" font-size="14.00"> Distinct group=(#0)</text>
<text text-anchor="start" x="694.5" y="-1931.3" font-family="Times,serif" font-size="14.00"> types = (integer)</text>
<text text-anchor="start" x="694.5" y="-1916.3" font-family="Times,serif" font-size="14.00"> keys = ((#0))</text>
<text text-anchor="start" x="694.5" y="-1901.3" font-family="Times,serif" font-size="14.00"> ArrangeBy (#0)</text>
<text text-anchor="start" x="694.5" y="-1886.3" font-family="Times,serif" font-size="14.00"> types = (integer)</text>
<text text-anchor="start" x="694.5" y="-1871.3" font-family="Times,serif" font-size="14.00"> keys = ((#0))</text>
</g>
<!-- node2&#45;&gt;node3 -->
<g id="edge15" class="edge">
<title>node2&#45;&gt;node3</title>
<path fill="none" stroke="black" d="M995.15,-2118.3C979.23,-2104.3 961.93,-2089.08 944.62,-2073.86"/>
<polygon fill="black" stroke="black" points="946.5,-2070.84 936.68,-2066.87 941.87,-2076.1 946.5,-2070.84"/>
<text text-anchor="start" x="974" y="-2088.8" font-family="Times,serif" font-size="14.00">%2</text>
</g>
<!-- node12 -->
<g id="node13" class="node">
<title>node12</title>
<polygon fill="none" stroke="black" points="1148,-1746.5 1148,-1844.5 1478,-1844.5 1478,-1746.5 1148,-1746.5"/>
<text text-anchor="start" x="1156" y="-1829.3" font-family="Times,serif" font-size="14.00">Get %2 (l0)</text>
<text text-anchor="start" x="1156" y="-1814.3" font-family="Times,serif" font-size="14.00"> types = (integer?, integer, integer)</text>
<text text-anchor="start" x="1156" y="-1799.3" font-family="Times,serif" font-size="14.00"> keys = ()</text>
<text text-anchor="start" x="1156" y="-1784.3" font-family="Times,serif" font-size="14.00"> Project (#0, #1, #1, #2)</text>
<text text-anchor="start" x="1156" y="-1769.3" font-family="Times,serif" font-size="14.00"> types = (integer?, integer, integer, integer)</text>
<text text-anchor="start" x="1156" y="-1754.3" font-family="Times,serif" font-size="14.00"> keys = ()</text>
</g>
<!-- node2&#45;&gt;node12 -->
<g id="edge17" class="edge">
<title>node2&#45;&gt;node12</title>
<path fill="none" stroke="black" d="M1219.8,-2118.43C1240.3,-2104.21 1259.03,-2087.19 1273,-2067 1316.44,-2004.2 1321.08,-1913.54 1318.53,-1854.81"/>
<polygon fill="black" stroke="black" points="1322.02,-1854.39 1318,-1844.59 1315.03,-1854.76 1322.02,-1854.39"/>
<text text-anchor="start" x="1255" y="-2088.8" font-family="Times,serif" font-size="14.00">%2</text>
</g>
<!-- node5 -->
<g id="node6" class="node">
<title>node5</title>
<polygon fill="none" stroke="black" points="308,-1569.5 308,-1727.5 634,-1727.5 634,-1569.5 308,-1569.5"/>
<text text-anchor="start" x="316" y="-1712.3" font-family="Times,serif" font-size="14.00">Join %4 %3 (= #0 #2)</text>
<text text-anchor="start" x="316" y="-1697.3" font-family="Times,serif" font-size="14.00"> implementation = Differential %4 %3.(#0)</text>
<text text-anchor="start" x="316" y="-1682.3" font-family="Times,serif" font-size="14.00"> types = (integer?, integer, integer)</text>
<text text-anchor="start" x="316" y="-1667.3" font-family="Times,serif" font-size="14.00"> keys = ()</text>
<text text-anchor="start" x="316" y="-1652.3" font-family="Times,serif" font-size="14.00"> Project (#0, #1)</text>
<text text-anchor="start" x="316" y="-1637.3" font-family="Times,serif" font-size="14.00"> types = (integer?, integer)</text>
<text text-anchor="start" x="316" y="-1622.3" font-family="Times,serif" font-size="14.00"> keys = ()</text>
<text text-anchor="start" x="316" y="-1607.3" font-family="Times,serif" font-size="14.00"> Negate</text>
<text text-anchor="start" x="316" y="-1592.3" font-family="Times,serif" font-size="14.00"> types = (integer?, integer)</text>
<text text-anchor="start" x="316" y="-1577.3" font-family="Times,serif" font-size="14.00"> keys = ()</text>
</g>
<!-- node3&#45;&gt;node5 -->
<g id="edge9" class="edge">
<title>node3&#45;&gt;node5</title>
<path fill="none" stroke="black" d="M709.49,-1863.19C663.15,-1821.67 610.04,-1774.08 565.73,-1734.38"/>
<polygon fill="black" stroke="black" points="567.91,-1731.63 558.13,-1727.57 563.24,-1736.85 567.91,-1731.63"/>
<text text-anchor="start" x="689" y="-1791.8" font-family="Times,serif" font-size="14.00">%3</text>
</g>
<!-- node9 -->
<g id="node10" class="node">
<title>node9</title>
<polygon fill="none" stroke="black" points="958,-1569.5 958,-1727.5 1284,-1727.5 1284,-1569.5 958,-1569.5"/>
<text text-anchor="start" x="966" y="-1712.3" font-family="Times,serif" font-size="14.00">Join %8 %3 (= #1 #2)</text>
<text text-anchor="start" x="966" y="-1697.3" font-family="Times,serif" font-size="14.00"> implementation = Differential %8 %3.(#0)</text>
<text text-anchor="start" x="966" y="-1682.3" font-family="Times,serif" font-size="14.00"> types = (integer?, integer?, integer)</text>
<text text-anchor="start" x="966" y="-1667.3" font-family="Times,serif" font-size="14.00"> keys = ()</text>
<text text-anchor="start" x="966" y="-1652.3" font-family="Times,serif" font-size="14.00"> Project (#0, #1)</text>
<text text-anchor="start" x="966" y="-1637.3" font-family="Times,serif" font-size="14.00"> types = (integer?, integer?)</text>
<text text-anchor="start" x="966" y="-1622.3" font-family="Times,serif" font-size="14.00"> keys = ()</text>
<text text-anchor="start" x="966" y="-1607.3" font-family="Times,serif" font-size="14.00"> Negate</text>
<text text-anchor="start" x="966" y="-1592.3" font-family="Times,serif" font-size="14.00"> types = (integer?, integer?)</text>
<text text-anchor="start" x="966" y="-1577.3" font-family="Times,serif" font-size="14.00"> keys = ()</text>
</g>
<!-- node3&#45;&gt;node9 -->
<g id="edge11" class="edge">
<title>node3&#45;&gt;node9</title>
<path fill="none" stroke="black" d="M917.84,-1863.19C957.16,-1821.84 1002.18,-1774.48 1039.84,-1734.87"/>
<polygon fill="black" stroke="black" points="1042.43,-1737.23 1046.78,-1727.57 1037.35,-1732.4 1042.43,-1737.23"/>
<text text-anchor="start" x="1025" y="-1791.8" font-family="Times,serif" font-size="14.00">%3</text>
</g>
<!-- node4 -->
<g id="node5" class="node">
<title>node4</title>
<polygon fill="none" stroke="black" points="326,-1938.5 326,-1991.5 616,-1991.5 616,-1938.5 326,-1938.5"/>
<text text-anchor="start" x="334" y="-1976.3" font-family="Times,serif" font-size="14.00">Get simplify_outer_joins.public.r (u96)</text>
<text text-anchor="start" x="334" y="-1961.3" font-family="Times,serif" font-size="14.00"> types = (integer?, integer)</text>
<text text-anchor="start" x="334" y="-1946.3" font-family="Times,serif" font-size="14.00"> keys = ()</text>
</g>
<!-- node4&#45;&gt;node5 -->
<g id="edge20" class="edge">
<title>node4&#45;&gt;node5</title>
<path fill="none" stroke="black" d="M471,-1938.26C471,-1895.01 471,-1805.8 471,-1737.92"/>
<polygon fill="black" stroke="black" points="474.5,-1737.64 471,-1727.64 467.5,-1737.64 474.5,-1737.64"/>
<text text-anchor="start" x="471" y="-1791.8" font-family="Times,serif" font-size="14.00">%4</text>
</g>
<!-- node7 -->
<g id="node8" class="node">
<title>node7</title>
<polygon fill="none" stroke="black" points="297,-1374.5 297,-1517.5 645,-1517.5 645,-1374.5 297,-1374.5"/>
<text text-anchor="start" x="305" y="-1502.3" font-family="Times,serif" font-size="14.00">Union %5 %6</text>
<text text-anchor="start" x="305" y="-1487.3" font-family="Times,serif" font-size="14.00"> types = (integer?, integer)</text>
<text text-anchor="start" x="305" y="-1472.3" font-family="Times,serif" font-size="14.00"> keys = ()</text>
<text text-anchor="start" x="305" y="-1457.3" font-family="Times,serif" font-size="14.00"> Map null, null</text>
<text text-anchor="start" x="305" y="-1442.3" font-family="Times,serif" font-size="14.00"> types = (integer?, integer, integer?, integer?)</text>
<text text-anchor="start" x="305" y="-1427.3" font-family="Times,serif" font-size="14.00"> keys = ()</text>
<text text-anchor="start" x="305" y="-1412.3" font-family="Times,serif" font-size="14.00"> Project (#2, #3, #0, #1)</text>
<text text-anchor="start" x="305" y="-1397.3" font-family="Times,serif" font-size="14.00"> types = (integer?, integer?, integer?, integer)</text>
<text text-anchor="start" x="305" y="-1382.3" font-family="Times,serif" font-size="14.00"> keys = ()</text>
</g>
<!-- node5&#45;&gt;node7 -->
<g id="edge25" class="edge">
<title>node5&#45;&gt;node7</title>
<path fill="none" stroke="black" d="M471,-1569.41C471,-1555.83 471,-1541.67 471,-1528.02"/>
<polygon fill="black" stroke="black" points="474.5,-1527.69 471,-1517.69 467.5,-1527.69 474.5,-1527.69"/>
<text text-anchor="start" x="471" y="-1539.8" font-family="Times,serif" font-size="14.00">%5</text>
</g>
<!-- node6 -->
<g id="node7" class="node">
<title>node6</title>
<polygon fill="none" stroke="black" points="0,-1622 0,-1675 290,-1675 290,-1622 0,-1622"/>
<text text-anchor="start" x="8" y="-1659.8" font-family="Times,serif" font-size="14.00">Get simplify_outer_joins.public.r (u96)</text>
<text text-anchor="start" x="8" y="-1644.8" font-family="Times,serif" font-size="14.00"> types = (integer?, integer)</text>
<text text-anchor="start" x="8" y="-1629.8" font-family="Times,serif" font-size="14.00"> keys = ()</text>
</g>
<!-- node6&#45;&gt;node7 -->
<g id="edge16" class="edge">
<title>node6&#45;&gt;node7</title>
<path fill="none" stroke="black" d="M186.62,-1621.9C227.11,-1597 290.66,-1557.92 347.42,-1523.01"/>
<polygon fill="black" stroke="black" points="349.42,-1525.89 356.1,-1517.67 345.75,-1519.92 349.42,-1525.89"/>
<text text-anchor="start" x="318" y="-1539.8" font-family="Times,serif" font-size="14.00">%6</text>
</g>
<!-- node13 -->
<g id="node14" class="node">
<title>node13</title>
<polygon fill="none" stroke="black" points="796,-1254.5 796,-1322.5 1152,-1322.5 1152,-1254.5 796,-1254.5"/>
<text text-anchor="start" x="804" y="-1307.3" font-family="Times,serif" font-size="14.00">Let l2 =</text>
<text text-anchor="start" x="804" y="-1292.3" font-family="Times,serif" font-size="14.00"> Union %7 %11 %12</text>
<text text-anchor="start" x="804" y="-1277.3" font-family="Times,serif" font-size="14.00"> types = (integer?, integer?, integer?, integer?)</text>
<text text-anchor="start" x="804" y="-1262.3" font-family="Times,serif" font-size="14.00"> keys = ()</text>
</g>
<!-- node7&#45;&gt;node13 -->
<g id="edge14" class="edge">
<title>node7&#45;&gt;node13</title>
<path fill="none" stroke="black" d="M645.16,-1391.16C715.36,-1369.46 794.46,-1345 857.49,-1325.52"/>
<polygon fill="black" stroke="black" points="858.55,-1328.85 867.07,-1322.56 856.48,-1322.17 858.55,-1328.85"/>
<text text-anchor="start" x="797" y="-1344.8" font-family="Times,serif" font-size="14.00">%7</text>
</g>
<!-- node8 -->
<g id="node9" class="node">
<title>node8</title>
<polygon fill="none" stroke="black" points="976,-1938.5 976,-1991.5 1264,-1991.5 1264,-1938.5 976,-1938.5"/>
<text text-anchor="start" x="984" y="-1976.3" font-family="Times,serif" font-size="14.00">Get simplify_outer_joins.public.l (u94)</text>
<text text-anchor="start" x="984" y="-1961.3" font-family="Times,serif" font-size="14.00"> types = (integer?, integer?)</text>
<text text-anchor="start" x="984" y="-1946.3" font-family="Times,serif" font-size="14.00"> keys = ()</text>
</g>
<!-- node8&#45;&gt;node9 -->
<g id="edge18" class="edge">
<title>node8&#45;&gt;node9</title>
<path fill="none" stroke="black" d="M1118.8,-1938.49C1117.05,-1897.78 1114.2,-1815.63 1116,-1746 1116.07,-1743.3 1116.15,-1740.56 1116.24,-1737.8"/>
<polygon fill="black" stroke="black" points="1119.74,-1737.82 1116.6,-1727.7 1112.75,-1737.56 1119.74,-1737.82"/>
<text text-anchor="start" x="1116" y="-1791.8" font-family="Times,serif" font-size="14.00">%8</text>
</g>
<!-- node11 -->
<g id="node12" class="node">
<title>node11</title>
<polygon fill="none" stroke="black" points="796,-1397 796,-1495 1152,-1495 1152,-1397 796,-1397"/>
<text text-anchor="start" x="804" y="-1479.8" font-family="Times,serif" font-size="14.00">Union %9 %10</text>
<text text-anchor="start" x="804" y="-1464.8" font-family="Times,serif" font-size="14.00"> types = (integer?, integer?)</text>
<text text-anchor="start" x="804" y="-1449.8" font-family="Times,serif" font-size="14.00"> keys = ()</text>
<text text-anchor="start" x="804" y="-1434.8" font-family="Times,serif" font-size="14.00"> Map null, null</text>
<text text-anchor="start" x="804" y="-1419.8" font-family="Times,serif" font-size="14.00"> types = (integer?, integer?, integer?, integer?)</text>
<text text-anchor="start" x="804" y="-1404.8" font-family="Times,serif" font-size="14.00"> keys = ()</text>
</g>
<!-- node9&#45;&gt;node11 -->
<g id="edge27" class="edge">
<title>node9&#45;&gt;node11</title>
<path fill="none" stroke="black" d="M1063.75,-1569.41C1047.59,-1547.37 1030.33,-1523.84 1015.31,-1503.35"/>
<polygon fill="black" stroke="black" points="1017.97,-1501.06 1009.24,-1495.06 1012.33,-1505.2 1017.97,-1501.06"/>
<text text-anchor="start" x="1048" y="-1539.8" font-family="Times,serif" font-size="14.00">%9</text>
</g>
<!-- node10 -->
<g id="node11" class="node">
<title>node10</title>
<polygon fill="none" stroke="black" points="652,-1622 652,-1675 940,-1675 940,-1622 652,-1622"/>
<text text-anchor="start" x="660" y="-1659.8" font-family="Times,serif" font-size="14.00">Get simplify_outer_joins.public.l (u94)</text>
<text text-anchor="start" x="660" y="-1644.8" font-family="Times,serif" font-size="14.00"> types = (integer?, integer?)</text>
<text text-anchor="start" x="660" y="-1629.8" font-family="Times,serif" font-size="14.00"> keys = ()</text>
</g>
<!-- node10&#45;&gt;node11 -->
<g id="edge2" class="edge">
<title>node10&#45;&gt;node11</title>
<path fill="none" stroke="black" d="M818.91,-1621.7C845.4,-1591.85 889.8,-1541.84 924.33,-1502.95"/>
<polygon fill="black" stroke="black" points="927.07,-1505.14 931.09,-1495.33 921.83,-1500.49 927.07,-1505.14"/>
<text text-anchor="start" x="891" y="-1539.8" font-family="Times,serif" font-size="14.00">%10</text>
</g>
<!-- node11&#45;&gt;node13 -->
<g id="edge7" class="edge">
<title>node11&#45;&gt;node13</title>
<path fill="none" stroke="black" d="M974,-1396.65C974,-1376.15 974,-1352.46 974,-1332.57"/>
<polygon fill="black" stroke="black" points="977.5,-1332.55 974,-1322.55 970.5,-1332.55 977.5,-1332.55"/>
<text text-anchor="start" x="974" y="-1344.8" font-family="Times,serif" font-size="14.00">%11</text>
</g>
<!-- node12&#45;&gt;node13 -->
<g id="edge19" class="edge">
<title>node12&#45;&gt;node13</title>
<path fill="none" stroke="black" d="M1315.6,-1746.38C1316.55,-1699.69 1313.81,-1627.51 1293,-1569 1257.92,-1470.4 1241.04,-1441.43 1161,-1374 1138.23,-1354.82 1110.41,-1339.16 1083.25,-1326.76"/>
<polygon fill="black" stroke="black" points="1084.63,-1323.55 1074.08,-1322.69 1081.79,-1329.95 1084.63,-1323.55"/>
<text text-anchor="start" x="1286" y="-1539.8" font-family="Times,serif" font-size="14.00">%12</text>
</g>
<!-- node14 -->
<g id="node15" class="node">
<title>node14</title>
<polygon fill="none" stroke="black" points="1294,-1104.5 1294,-1202.5 1650,-1202.5 1650,-1104.5 1294,-1104.5"/>
<text text-anchor="start" x="1302" y="-1187.3" font-family="Times,serif" font-size="14.00">Get %13 (l2)</text>
<text text-anchor="start" x="1302" y="-1172.3" font-family="Times,serif" font-size="14.00"> types = (integer?, integer?, integer?, integer?)</text>
<text text-anchor="start" x="1302" y="-1157.3" font-family="Times,serif" font-size="14.00"> keys = ()</text>
<text text-anchor="start" x="1302" y="-1142.3" font-family="Times,serif" font-size="14.00"> Filter !(isnull(#1))</text>
<text text-anchor="start" x="1302" y="-1127.3" font-family="Times,serif" font-size="14.00"> types = (integer?, integer, integer?, integer?)</text>
<text text-anchor="start" x="1302" y="-1112.3" font-family="Times,serif" font-size="14.00"> keys = ()</text>
</g>
<!-- node13&#45;&gt;node14 -->
<g id="edge10" class="edge">
<title>node13&#45;&gt;node14</title>
<path fill="none" stroke="black" d="M1097.74,-1254.45C1153.93,-1239.45 1221.63,-1221.37 1283.91,-1204.73"/>
<polygon fill="black" stroke="black" points="1285.1,-1208.04 1293.86,-1202.08 1283.29,-1201.27 1285.1,-1208.04"/>
<text text-anchor="start" x="1223" y="-1224.8" font-family="Times,serif" font-size="14.00">%13</text>
</g>
<!-- node17 -->
<g id="node18" class="node">
<title>node17</title>
<polygon fill="none" stroke="black" points="780,-722 780,-835 1136,-835 1136,-722 780,-722"/>
<text text-anchor="start" x="788" y="-819.8" font-family="Times,serif" font-size="14.00">Let l4 =</text>
<text text-anchor="start" x="788" y="-804.8" font-family="Times,serif" font-size="14.00"> Get %13 (l2)</text>
<text text-anchor="start" x="788" y="-789.8" font-family="Times,serif" font-size="14.00"> types = (integer?, integer?, integer?, integer?)</text>
<text text-anchor="start" x="788" y="-774.8" font-family="Times,serif" font-size="14.00"> keys = ()</text>
<text text-anchor="start" x="788" y="-759.8" font-family="Times,serif" font-size="14.00"> Filter (#0 &gt; #3)</text>
<text text-anchor="start" x="788" y="-744.8" font-family="Times,serif" font-size="14.00"> types = (integer, integer?, integer?, integer)</text>
<text text-anchor="start" x="788" y="-729.8" font-family="Times,serif" font-size="14.00"> keys = ()</text>
</g>
<!-- node13&#45;&gt;node17 -->
<g id="edge13" class="edge">
<title>node13&#45;&gt;node17</title>
<path fill="none" stroke="black" d="M972.95,-1254.17C970.34,-1171.41 963.54,-955.35 960.08,-845.57"/>
<polygon fill="black" stroke="black" points="963.57,-845.17 959.76,-835.29 956.57,-845.39 963.57,-845.17"/>
<text text-anchor="start" x="968" y="-1074.8" font-family="Times,serif" font-size="14.00">%13</text>
</g>
<!-- node16 -->
<g id="node17" class="node">
<title>node16</title>
<polygon fill="none" stroke="black" points="1173.5,-924.5 1173.5,-1052.5 1588.5,-1052.5 1588.5,-924.5 1173.5,-924.5"/>
<text text-anchor="start" x="1181.5" y="-1037.3" font-family="Times,serif" font-size="14.00">Let l3 =</text>
<text text-anchor="start" x="1181.5" y="-1022.3" font-family="Times,serif" font-size="14.00"> Join %14 %15 (= #1 #4)</text>
<text text-anchor="start" x="1181.5" y="-1007.3" font-family="Times,serif" font-size="14.00"> implementation = Differential %14 %15.(#0)</text>
<text text-anchor="start" x="1181.5" y="-992.3" font-family="Times,serif" font-size="14.00"> types = (integer?, integer, integer?, integer?, integer?)</text>
<text text-anchor="start" x="1181.5" y="-977.3" font-family="Times,serif" font-size="14.00"> keys = ()</text>
<text text-anchor="start" x="1181.5" y="-962.3" font-family="Times,serif" font-size="14.00"> Project (#0..#3)</text>
<text text-anchor="start" x="1181.5" y="-947.3" font-family="Times,serif" font-size="14.00"> types = (integer?, integer, integer?, integer?)</text>
<text text-anchor="start" x="1181.5" y="-932.3" font-family="Times,serif" font-size="14.00"> keys = ()</text>
</g>
<!-- node14&#45;&gt;node16 -->
<g id="edge1" class="edge">
<title>node14&#45;&gt;node16</title>
<path fill="none" stroke="black" d="M1445.19,-1104.48C1437.68,-1091.02 1429.34,-1076.1 1421.24,-1061.57"/>
<polygon fill="black" stroke="black" points="1424.16,-1059.63 1416.23,-1052.6 1418.05,-1063.04 1424.16,-1059.63"/>
<text text-anchor="start" x="1434" y="-1074.8" font-family="Times,serif" font-size="14.00">%14</text>
</g>
<!-- node15 -->
<g id="node16" class="node">
<title>node15</title>
<polygon fill="none" stroke="black" points="986,-1104.5 986,-1202.5 1276,-1202.5 1276,-1104.5 986,-1104.5"/>
<text text-anchor="start" x="994" y="-1187.3" font-family="Times,serif" font-size="14.00">Get simplify_outer_joins.public.t (u98)</text>
<text text-anchor="start" x="994" y="-1172.3" font-family="Times,serif" font-size="14.00"> types = (integer?)</text>
<text text-anchor="start" x="994" y="-1157.3" font-family="Times,serif" font-size="14.00"> keys = ()</text>
<text text-anchor="start" x="994" y="-1142.3" font-family="Times,serif" font-size="14.00"> ArrangeBy (#0)</text>
<text text-anchor="start" x="994" y="-1127.3" font-family="Times,serif" font-size="14.00"> types = (integer?)</text>
<text text-anchor="start" x="994" y="-1112.3" font-family="Times,serif" font-size="14.00"> keys = ()</text>
</g>
<!-- node15&#45;&gt;node16 -->
<g id="edge24" class="edge">
<title>node15&#45;&gt;node16</title>
<path fill="none" stroke="black" d="M1204.66,-1104.48C1226.95,-1089.94 1251.87,-1073.69 1275.8,-1058.09"/>
<polygon fill="black" stroke="black" points="1277.76,-1060.99 1284.22,-1052.6 1273.93,-1055.13 1277.76,-1060.99"/>
<text text-anchor="start" x="1256" y="-1074.8" font-family="Times,serif" font-size="14.00">%15</text>
</g>
<!-- node18 -->
<g id="node19" class="node">
<title>node18</title>
<polygon fill="none" stroke="black" points="1153.5,-684.5 1153.5,-872.5 1500.5,-872.5 1500.5,-684.5 1153.5,-684.5"/>
<text text-anchor="start" x="1161.5" y="-857.3" font-family="Times,serif" font-size="14.00">Get %16 (l3)</text>
<text text-anchor="start" x="1161.5" y="-842.3" font-family="Times,serif" font-size="14.00"> types = (integer?, integer, integer?, integer?)</text>
<text text-anchor="start" x="1161.5" y="-827.3" font-family="Times,serif" font-size="14.00"> keys = ()</text>
<text text-anchor="start" x="1161.5" y="-812.3" font-family="Times,serif" font-size="14.00"> Project (#1)</text>
<text text-anchor="start" x="1161.5" y="-797.3" font-family="Times,serif" font-size="14.00"> types = (integer)</text>
<text text-anchor="start" x="1161.5" y="-782.3" font-family="Times,serif" font-size="14.00"> keys = ()</text>
<text text-anchor="start" x="1161.5" y="-767.3" font-family="Times,serif" font-size="14.00"> Distinct group=(#0)</text>
<text text-anchor="start" x="1161.5" y="-752.3" font-family="Times,serif" font-size="14.00"> types = (integer)</text>
<text text-anchor="start" x="1161.5" y="-737.3" font-family="Times,serif" font-size="14.00"> keys = ((#0))</text>
<text text-anchor="start" x="1161.5" y="-722.3" font-family="Times,serif" font-size="14.00"> ArrangeBy (#0)</text>
<text text-anchor="start" x="1161.5" y="-707.3" font-family="Times,serif" font-size="14.00"> types = (integer)</text>
<text text-anchor="start" x="1161.5" y="-692.3" font-family="Times,serif" font-size="14.00"> keys = ((#0))</text>
</g>
<!-- node16&#45;&gt;node18 -->
<g id="edge12" class="edge">
<title>node16&#45;&gt;node18</title>
<path fill="none" stroke="black" d="M1364.58,-924.25C1361.15,-911.04 1357.45,-896.79 1353.76,-882.57"/>
<polygon fill="black" stroke="black" points="1357.11,-881.53 1351.21,-872.73 1350.33,-883.29 1357.11,-881.53"/>
<text text-anchor="start" x="1358" y="-894.8" font-family="Times,serif" font-size="14.00">%16</text>
</g>
<!-- node21 -->
<g id="node22" class="node">
<title>node21</title>
<polygon fill="none" stroke="black" points="1327.5,-522.5 1327.5,-665.5 1716.5,-665.5 1716.5,-522.5 1327.5,-522.5"/>
<text text-anchor="start" x="1335.5" y="-650.3" font-family="Times,serif" font-size="14.00">Get %16 (l3)</text>
<text text-anchor="start" x="1335.5" y="-635.3" font-family="Times,serif" font-size="14.00"> types = (integer?, integer, integer?, integer?)</text>
<text text-anchor="start" x="1335.5" y="-620.3" font-family="Times,serif" font-size="14.00"> keys = ()</text>
<text text-anchor="start" x="1335.5" y="-605.3" font-family="Times,serif" font-size="14.00"> Filter (#0 &gt; #3)</text>
<text text-anchor="start" x="1335.5" y="-590.3" font-family="Times,serif" font-size="14.00"> types = (integer, integer, integer?, integer)</text>
<text text-anchor="start" x="1335.5" y="-575.3" font-family="Times,serif" font-size="14.00"> keys = ()</text>
<text text-anchor="start" x="1335.5" y="-560.3" font-family="Times,serif" font-size="14.00"> Project (#0..#3, #1)</text>
<text text-anchor="start" x="1335.5" y="-545.3" font-family="Times,serif" font-size="14.00"> types = (integer, integer, integer?, integer, integer)</text>
<text text-anchor="start" x="1335.5" y="-530.3" font-family="Times,serif" font-size="14.00"> keys = ()</text>
</g>
<!-- node16&#45;&gt;node21 -->
<g id="edge5" class="edge">
<title>node16&#45;&gt;node21</title>
<path fill="none" stroke="black" d="M1471.75,-924.3C1487.07,-909.31 1500.93,-892.06 1510,-873 1539.22,-811.58 1539.93,-733.63 1534.65,-675.91"/>
<polygon fill="black" stroke="black" points="1538.11,-675.34 1533.64,-665.74 1531.14,-676.04 1538.11,-675.34"/>
<text text-anchor="start" x="1498" y="-894.8" font-family="Times,serif" font-size="14.00">%16</text>
</g>
<!-- node19 -->
<g id="node20" class="node">
<title>node19</title>
<polygon fill="none" stroke="black" points="1074,-345.5 1074,-503.5 1472,-503.5 1472,-345.5 1074,-345.5"/>
<text text-anchor="start" x="1082" y="-488.3" font-family="Times,serif" font-size="14.00">Join %17 %18 (= #1 #4)</text>
<text text-anchor="start" x="1082" y="-473.3" font-family="Times,serif" font-size="14.00"> implementation = Differential %17 %18.(#0)</text>
<text text-anchor="start" x="1082" y="-458.3" font-family="Times,serif" font-size="14.00"> types = (integer, integer?, integer?, integer, integer)</text>
<text text-anchor="start" x="1082" y="-443.3" font-family="Times,serif" font-size="14.00"> keys = ()</text>
<text text-anchor="start" x="1082" y="-428.3" font-family="Times,serif" font-size="14.00"> Project (#0..#3)</text>
<text text-anchor="start" x="1082" y="-413.3" font-family="Times,serif" font-size="14.00"> types = (integer, integer?, integer?, integer)</text>
<text text-anchor="start" x="1082" y="-398.3" font-family="Times,serif" font-size="14.00"> keys = ()</text>
<text text-anchor="start" x="1082" y="-383.3" font-family="Times,serif" font-size="14.00"> Negate</text>
<text text-anchor="start" x="1082" y="-368.3" font-family="Times,serif" font-size="14.00"> types = (integer, integer?, integer?, integer)</text>
<text text-anchor="start" x="1082" y="-353.3" font-family="Times,serif" font-size="14.00"> keys = ()</text>
</g>
<!-- node17&#45;&gt;node19 -->
<g id="edge23" class="edge">
<title>node17&#45;&gt;node19</title>
<path fill="none" stroke="black" d="M1007.91,-721.72C1058.61,-665.07 1137.8,-576.59 1196.43,-511.06"/>
<polygon fill="black" stroke="black" points="1199.06,-513.38 1203.12,-503.59 1193.84,-508.71 1199.06,-513.38"/>
<text text-anchor="start" x="1180" y="-590.3" font-family="Times,serif" font-size="14.00">%17</text>
</g>
<!-- node20 -->
<g id="node21" class="node">
<title>node20</title>
<polygon fill="none" stroke="black" points="1070,-195.5 1070,-293.5 1476,-293.5 1476,-195.5 1070,-195.5"/>
<text text-anchor="start" x="1078" y="-278.3" font-family="Times,serif" font-size="14.00">Union %19 %17</text>
<text text-anchor="start" x="1078" y="-263.3" font-family="Times,serif" font-size="14.00"> types = (integer, integer?, integer?, integer)</text>
<text text-anchor="start" x="1078" y="-248.3" font-family="Times,serif" font-size="14.00"> keys = ()</text>
<text text-anchor="start" x="1078" y="-233.3" font-family="Times,serif" font-size="14.00"> Map null</text>
<text text-anchor="start" x="1078" y="-218.3" font-family="Times,serif" font-size="14.00"> types = (integer, integer?, integer?, integer, integer?)</text>
<text text-anchor="start" x="1078" y="-203.3" font-family="Times,serif" font-size="14.00"> keys = ()</text>
</g>
<!-- node17&#45;&gt;node20 -->
<g id="edge8" class="edge">
<title>node17&#45;&gt;node20</title>
<path fill="none" stroke="black" d="M951.81,-721.92C944.98,-632.41 944.81,-455.24 1033,-345 1048.04,-326.19 1067.25,-310.9 1088.24,-298.48"/>
<polygon fill="black" stroke="black" points="1090.03,-301.49 1097,-293.51 1086.58,-295.4 1090.03,-301.49"/>
<text text-anchor="start" x="1033" y="-420.8" font-family="Times,serif" font-size="14.00">%17</text>
</g>
<!-- node18&#45;&gt;node19 -->
<g id="edge21" class="edge">
<title>node18&#45;&gt;node19</title>
<path fill="none" stroke="black" d="M1291.4,-684.37C1289.73,-678.2 1288.23,-672.05 1287,-666 1276.85,-616.28 1273.18,-559.67 1272.12,-513.87"/>
<polygon fill="black" stroke="black" points="1275.62,-513.6 1271.93,-503.67 1268.62,-513.74 1275.62,-513.6"/>
<text text-anchor="start" x="1287" y="-590.3" font-family="Times,serif" font-size="14.00">%18</text>
</g>
<!-- node19&#45;&gt;node20 -->
<g id="edge6" class="edge">
<title>node19&#45;&gt;node20</title>
<path fill="none" stroke="black" d="M1273,-345.43C1273,-331.5 1273,-317.2 1273,-303.94"/>
<polygon fill="black" stroke="black" points="1276.5,-303.55 1273,-293.55 1269.5,-303.55 1276.5,-303.55"/>
<text text-anchor="start" x="1273" y="-315.8" font-family="Times,serif" font-size="14.00">%19</text>
</g>
<!-- node22 -->
<g id="node23" class="node">
<title>node22</title>
<polygon fill="none" stroke="black" points="1175.5,-0.5 1175.5,-143.5 1618.5,-143.5 1618.5,-0.5 1175.5,-0.5"/>
<text text-anchor="start" x="1183.5" y="-128.3" font-family="Times,serif" font-size="14.00">Union %20 %21</text>
<text text-anchor="start" x="1183.5" y="-113.3" font-family="Times,serif" font-size="14.00"> types = (integer, integer?, integer?, integer, integer?)</text>
<text text-anchor="start" x="1183.5" y="-98.3" font-family="Times,serif" font-size="14.00"> keys = ()</text>
<text text-anchor="start" x="1183.5" y="-83.3" font-family="Times,serif" font-size="14.00"> Map &quot;qgm(false)&quot;</text>
<text text-anchor="start" x="1183.5" y="-68.3" font-family="Times,serif" font-size="14.00"> types = (integer, integer?, integer?, integer, integer?, text)</text>
<text text-anchor="start" x="1183.5" y="-53.3" font-family="Times,serif" font-size="14.00"> keys = ()</text>
<text text-anchor="start" x="1183.5" y="-38.3" font-family="Times,serif" font-size="14.00"> Project (#5, #0..#4)</text>
<text text-anchor="start" x="1183.5" y="-23.3" font-family="Times,serif" font-size="14.00"> types = (text, integer, integer?, integer?, integer, integer?)</text>
<text text-anchor="start" x="1183.5" y="-8.3" font-family="Times,serif" font-size="14.00"> keys = ()</text>
</g>
<!-- node20&#45;&gt;node22 -->
<g id="edge22" class="edge">
<title>node20&#45;&gt;node22</title>
<path fill="none" stroke="black" d="M1308.2,-195.1C1317.99,-181.64 1328.88,-166.67 1339.59,-151.94"/>
<polygon fill="black" stroke="black" points="1342.46,-153.95 1345.51,-143.8 1336.79,-149.83 1342.46,-153.95"/>
<text text-anchor="start" x="1331" y="-165.8" font-family="Times,serif" font-size="14.00">%20</text>
</g>
<!-- node21&#45;&gt;node22 -->
<g id="edge3" class="edge">
<title>node21&#45;&gt;node22</title>
<path fill="none" stroke="black" d="M1526.43,-522.21C1529.06,-440.63 1525.82,-303.84 1485,-195 1479.46,-180.22 1471.62,-165.61 1462.89,-151.93"/>
<polygon fill="black" stroke="black" points="1465.78,-149.95 1457.35,-143.53 1459.94,-153.81 1465.78,-149.95"/>
<text text-anchor="start" x="1516" y="-315.8" font-family="Times,serif" font-size="14.00">%21</text>
</g>
</g>
</svg>
