<?xml version="1.0" encoding="UTF-8" standalone="no"?>
<!DOCTYPE svg PUBLIC "-//W3C//DTD SVG 1.1//EN"
 "http://www.w3.org/Graphics/SVG/1.1/DTD/svg11.dtd">
<!-- Generated by graphviz version 2.43.0 (0)
 -->
<!-- Title: G Pages: 1 -->
<svg width="509pt" height="682pt"
 viewBox="0.00 0.00 509.00 682.00" xmlns="http://www.w3.org/2000/svg" xmlns:xlink="http://www.w3.org/1999/xlink">
<g id="graph0" class="graph" transform="scale(1 1) rotate(0) translate(4 678)">
<title>G</title>
<polygon fill="white" stroke="transparent" points="-4,4 -4,-678 505,-678 505,4 -4,4"/>
<!-- node0 -->
<g id="node1" class="node">
<title>node0</title>
<polygon fill="none" stroke="black" points="132,-635.5 132,-673.5 233,-673.5 233,-635.5 132,-635.5"/>
<text text-anchor="start" x="140" y="-658.3" font-family="Times,serif" font-size="14.00">Let l0 =</text>
<text text-anchor="start" x="140" y="-643.3" font-family="Times,serif" font-size="14.00"> Constant ()</text>
</g>
<!-- node2 -->
<g id="node3" class="node">
<title>node2</title>
<polygon fill="none" stroke="black" points="232,-500.5 232,-583.5 501,-583.5 501,-500.5 232,-500.5"/>
<text text-anchor="start" x="240" y="-568.3" font-family="Times,serif" font-size="14.00">Let l1 =</text>
<text text-anchor="start" x="240" y="-553.3" font-family="Times,serif" font-size="14.00"> Join %0 %1</text>
<text text-anchor="start" x="240" y="-538.3" font-family="Times,serif" font-size="14.00"> implementation = Unimplemented</text>
<text text-anchor="start" x="240" y="-523.3" font-family="Times,serif" font-size="14.00"> Reduce group=()</text>
<text text-anchor="start" x="240" y="-508.3" font-family="Times,serif" font-size="14.00"> agg count(true)</text>
</g>
<!-- node0&#45;&gt;node2 -->
<g id="edge1" class="edge">
<title>node0&#45;&gt;node2</title>
<path fill="none" stroke="black" d="M212.88,-635.25C233.98,-622.59 263.06,-605.12 290.26,-588.79"/>
<polygon fill="black" stroke="black" points="292.24,-591.68 299.01,-583.53 288.63,-585.68 292.24,-591.68"/>
<text text-anchor="start" x="263.5" y="-605.8" font-family="Times,serif" font-size="14.00">%0</text>
</g>
<!-- node4 -->
<g id="node5" class="node">
<title>node4</title>
<polygon fill="none" stroke="black" points="141.5,-443.5 141.5,-481.5 287.5,-481.5 287.5,-443.5 141.5,-443.5"/>
<text text-anchor="start" x="149.5" y="-466.3" font-family="Times,serif" font-size="14.00">Get %0 (l0)</text>
<text text-anchor="start" x="149.5" y="-451.3" font-family="Times,serif" font-size="14.00"> Distinct group=()</text>
</g>
<!-- node0&#45;&gt;node4 -->
<g id="edge4" class="edge">
<title>node0&#45;&gt;node4</title>
<path fill="none" stroke="black" d="M185.57,-635.28C191.17,-602.02 203.09,-531.23 209.75,-491.7"/>
<polygon fill="black" stroke="black" points="213.23,-492.11 211.44,-481.66 206.33,-490.94 213.23,-492.11"/>
<text text-anchor="start" x="191.5" y="-605.8" font-family="Times,serif" font-size="14.00">%0</text>
</g>
<!-- node6 -->
<g id="node7" class="node">
<title>node6</title>
<polygon fill="none" stroke="black" points="0,-178.5 0,-231.5 269,-231.5 269,-178.5 0,-178.5"/>
<text text-anchor="start" x="8" y="-216.3" font-family="Times,serif" font-size="14.00">Join %5 %0</text>
<text text-anchor="start" x="8" y="-201.3" font-family="Times,serif" font-size="14.00"> implementation = Unimplemented</text>
<text text-anchor="start" x="8" y="-186.3" font-family="Times,serif" font-size="14.00"> Project ()</text>
</g>
<!-- node0&#45;&gt;node6 -->
<g id="edge11" class="edge">
<title>node0&#45;&gt;node6</title>
<path fill="none" stroke="black" d="M166.6,-635.37C150.05,-614.56 126.5,-578.7 126.5,-543 126.5,-543 126.5,-543 126.5,-300.5 126.5,-281.14 128.19,-259.62 130.01,-242.02"/>
<polygon fill="black" stroke="black" points="133.54,-241.94 131.15,-231.62 126.58,-241.18 133.54,-241.94"/>
<text text-anchor="start" x="126.5" y="-394.3" font-family="Times,serif" font-size="14.00">%0</text>
</g>
<!-- node1 -->
<g id="node2" class="node">
<title>node1</title>
<polygon fill="none" stroke="black" points="251,-636.5 251,-672.5 496,-672.5 496,-636.5 251,-636.5"/>
<text text-anchor="start" x="259" y="-650.8" font-family="Times,serif" font-size="14.00">Get issue_10800.public.t1 (u87)</text>
</g>
<!-- node1&#45;&gt;node2 -->
<g id="edge9" class="edge">
<title>node1&#45;&gt;node2</title>
<path fill="none" stroke="black" d="M372.41,-636.23C371.68,-624.79 370.69,-609.14 369.73,-593.92"/>
<polygon fill="black" stroke="black" points="373.19,-593.28 369.07,-583.52 366.21,-593.72 373.19,-593.28"/>
<text text-anchor="start" x="371.5" y="-605.8" font-family="Times,serif" font-size="14.00">%1</text>
</g>
<!-- node3 -->
<g id="node4" class="node">
<title>node3</title>
<polygon fill="none" stroke="black" points="253.5,-371.5 253.5,-424.5 399.5,-424.5 399.5,-371.5 253.5,-371.5"/>
<text text-anchor="start" x="261.5" y="-409.3" font-family="Times,serif" font-size="14.00">Get %2 (l1)</text>
<text text-anchor="start" x="261.5" y="-394.3" font-family="Times,serif" font-size="14.00"> Distinct group=()</text>
<text text-anchor="start" x="261.5" y="-379.3" font-family="Times,serif" font-size="14.00"> Negate</text>
</g>
<!-- node2&#45;&gt;node3 -->
<g id="edge6" class="edge">
<title>node2&#45;&gt;node3</title>
<path fill="none" stroke="black" d="M355.04,-500.31C349.15,-479.42 342.05,-454.21 336.41,-434.17"/>
<polygon fill="black" stroke="black" points="339.76,-433.18 333.68,-424.5 333.03,-435.08 339.76,-433.18"/>
<text text-anchor="start" x="349.5" y="-458.8" font-family="Times,serif" font-size="14.00">%2</text>
</g>
<!-- node9 -->
<g id="node10" class="node">
<title>node9</title>
<polygon fill="none" stroke="black" points="290,-0.5 290,-36.5 403,-36.5 403,-0.5 290,-0.5"/>
<text text-anchor="start" x="298" y="-14.8" font-family="Times,serif" font-size="14.00">Union %2 %8</text>
</g>
<!-- node2&#45;&gt;node9 -->
<g id="edge2" class="edge">
<title>node2&#45;&gt;node9</title>
<path fill="none" stroke="black" d="M394.32,-500.4C410.41,-473.01 427.5,-435.36 427.5,-399 427.5,-399 427.5,-399 427.5,-106.5 427.5,-79.66 406.59,-57.63 386.01,-42.46"/>
<polygon fill="black" stroke="black" points="387.79,-39.43 377.59,-36.58 383.79,-45.17 387.79,-39.43"/>
<text text-anchor="start" x="427.5" y="-253.8" font-family="Times,serif" font-size="14.00">%2</text>
</g>
<!-- node5 -->
<g id="node6" class="node">
<title>node5</title>
<polygon fill="none" stroke="black" points="156,-283.5 156,-319.5 269,-319.5 269,-283.5 156,-283.5"/>
<text text-anchor="start" x="164" y="-297.8" font-family="Times,serif" font-size="14.00">Union %3 %4</text>
</g>
<!-- node3&#45;&gt;node5 -->
<g id="edge12" class="edge">
<title>node3&#45;&gt;node5</title>
<path fill="none" stroke="black" d="M295.65,-371.43C278.65,-357.33 257.69,-339.96 241.06,-326.18"/>
<polygon fill="black" stroke="black" points="243.22,-323.42 233.29,-319.73 238.75,-328.81 243.22,-323.42"/>
<text text-anchor="start" x="273.5" y="-341.8" font-family="Times,serif" font-size="14.00">%3</text>
</g>
<!-- node4&#45;&gt;node5 -->
<g id="edge8" class="edge">
<title>node4&#45;&gt;node5</title>
<path fill="none" stroke="black" d="M214.27,-443.26C213.92,-415.41 213.25,-362.12 212.84,-329.69"/>
<polygon fill="black" stroke="black" points="216.34,-329.52 212.71,-319.56 209.34,-329.61 216.34,-329.52"/>
<text text-anchor="start" x="214.5" y="-394.3" font-family="Times,serif" font-size="14.00">%4</text>
</g>
<!-- node5&#45;&gt;node6 -->
<g id="edge10" class="edge">
<title>node5&#45;&gt;node6</title>
<path fill="none" stroke="black" d="M198.19,-283.17C188.17,-271.03 174.46,-254.41 162.33,-239.71"/>
<polygon fill="black" stroke="black" points="164.84,-237.26 155.78,-231.78 159.44,-241.72 164.84,-237.26"/>
<text text-anchor="start" x="183.5" y="-253.8" font-family="Times,serif" font-size="14.00">%5</text>
</g>
<!-- node8 -->
<g id="node9" class="node">
<title>node8</title>
<polygon fill="none" stroke="black" points="130,-88.5 130,-126.5 399,-126.5 399,-88.5 130,-88.5"/>
<text text-anchor="start" x="138" y="-111.3" font-family="Times,serif" font-size="14.00">Join %6 %7</text>
<text text-anchor="start" x="138" y="-96.3" font-family="Times,serif" font-size="14.00"> implementation = Unimplemented</text>
</g>
<!-- node6&#45;&gt;node8 -->
<g id="edge7" class="edge">
<title>node6&#45;&gt;node8</title>
<path fill="none" stroke="black" d="M169.34,-178.41C188.73,-164.16 212.72,-146.53 231.77,-132.55"/>
<polygon fill="black" stroke="black" points="233.88,-135.34 239.87,-126.6 229.74,-129.7 233.88,-135.34"/>
<text text-anchor="start" x="211.5" y="-148.8" font-family="Times,serif" font-size="14.00">%6</text>
</g>
<!-- node7 -->
<g id="node8" class="node">
<title>node7</title>
<polygon fill="none" stroke="black" points="287,-187 287,-223 392,-223 392,-187 287,-187"/>
<text text-anchor="start" x="295" y="-201.3" font-family="Times,serif" font-size="14.00">Constant (0)</text>
</g>
<!-- node7&#45;&gt;node8 -->
<g id="edge5" class="edge">
<title>node7&#45;&gt;node8</title>
<path fill="none" stroke="black" d="M326.09,-186.93C314.75,-172.49 298.32,-151.56 285.28,-134.96"/>
<polygon fill="black" stroke="black" points="287.74,-132.43 278.81,-126.73 282.24,-136.75 287.74,-132.43"/>
<text text-anchor="start" x="304.5" y="-148.8" font-family="Times,serif" font-size="14.00">%7</text>
</g>
<!-- node8&#45;&gt;node9 -->
<g id="edge3" class="edge">
<title>node8&#45;&gt;node9</title>
<path fill="none" stroke="black" d="M281.49,-88.47C293.6,-75.62 310.03,-58.19 323.34,-44.07"/>
<polygon fill="black" stroke="black" points="326.06,-46.29 330.37,-36.62 320.96,-41.49 326.06,-46.29"/>
<text text-anchor="start" x="313.5" y="-58.8" font-family="Times,serif" font-size="14.00">%8</text>
</g>
</g>
</svg>
