<?xml version="1.0" encoding="UTF-8" standalone="no"?>
<!DOCTYPE svg PUBLIC "-//W3C//DTD SVG 1.1//EN"
 "http://www.w3.org/Graphics/SVG/1.1/DTD/svg11.dtd">
<!-- Generated by graphviz version 2.43.0 (0)
 -->
<!-- Title: G Pages: 1 -->
<svg width="518pt" height="1046pt"
 viewBox="0.00 0.00 518.00 1046.00" xmlns="http://www.w3.org/2000/svg" xmlns:xlink="http://www.w3.org/1999/xlink">
<g id="graph0" class="graph" transform="scale(1 1) rotate(0) translate(4 1042)">
<title>G</title>
<polygon fill="white" stroke="transparent" points="-4,4 -4,-1042 514,-1042 514,4 -4,4"/>
<!-- node0 -->
<g id="node1" class="node">
<title>node0</title>
<polygon fill="none" stroke="black" points="141,-969.5 141,-1037.5 242,-1037.5 242,-969.5 141,-969.5"/>
<text text-anchor="start" x="149" y="-1022.3" font-family="Times,serif" font-size="14.00">Let l0 =</text>
<text text-anchor="start" x="149" y="-1007.3" font-family="Times,serif" font-size="14.00"> Constant ()</text>
<text text-anchor="start" x="149" y="-992.3" font-family="Times,serif" font-size="14.00"> types = ()</text>
<text text-anchor="start" x="149" y="-977.3" font-family="Times,serif" font-size="14.00"> keys = (())</text>
</g>
<!-- node2 -->
<g id="node3" class="node">
<title>node2</title>
<polygon fill="none" stroke="black" points="241,-774.5 241,-917.5 510,-917.5 510,-774.5 241,-774.5"/>
<text text-anchor="start" x="249" y="-902.3" font-family="Times,serif" font-size="14.00">Let l1 =</text>
<text text-anchor="start" x="249" y="-887.3" font-family="Times,serif" font-size="14.00"> Join %0 %1</text>
<text text-anchor="start" x="249" y="-872.3" font-family="Times,serif" font-size="14.00"> implementation = Unimplemented</text>
<text text-anchor="start" x="249" y="-857.3" font-family="Times,serif" font-size="14.00"> types = (integer?, integer?)</text>
<text text-anchor="start" x="249" y="-842.3" font-family="Times,serif" font-size="14.00"> keys = ()</text>
<text text-anchor="start" x="249" y="-827.3" font-family="Times,serif" font-size="14.00"> Reduce group=()</text>
<text text-anchor="start" x="249" y="-812.3" font-family="Times,serif" font-size="14.00"> agg count(true)</text>
<text text-anchor="start" x="249" y="-797.3" font-family="Times,serif" font-size="14.00"> types = (bigint)</text>
<text text-anchor="start" x="249" y="-782.3" font-family="Times,serif" font-size="14.00"> keys = (())</text>
</g>
<!-- node0&#45;&gt;node2 -->
<g id="edge1" class="edge">
<title>node0&#45;&gt;node2</title>
<path fill="none" stroke="black" d="M230.97,-969.14C246.59,-955.94 265.24,-940.18 283.87,-924.44"/>
<polygon fill="black" stroke="black" points="286.47,-926.83 291.84,-917.7 281.95,-921.48 286.47,-926.83"/>
<text text-anchor="start" x="267.5" y="-939.8" font-family="Times,serif" font-size="14.00">%0</text>
</g>
<!-- node4 -->
<g id="node5" class="node">
<title>node4</title>
<polygon fill="none" stroke="black" points="149.5,-657.5 149.5,-755.5 295.5,-755.5 295.5,-657.5 149.5,-657.5"/>
<text text-anchor="start" x="157.5" y="-740.3" font-family="Times,serif" font-size="14.00">Get %0 (l0)</text>
<text text-anchor="start" x="157.5" y="-725.3" font-family="Times,serif" font-size="14.00"> types = ()</text>
<text text-anchor="start" x="157.5" y="-710.3" font-family="Times,serif" font-size="14.00"> keys = (())</text>
<text text-anchor="start" x="157.5" y="-695.3" font-family="Times,serif" font-size="14.00"> Distinct group=()</text>
<text text-anchor="start" x="157.5" y="-680.3" font-family="Times,serif" font-size="14.00"> types = ()</text>
<text text-anchor="start" x="157.5" y="-665.3" font-family="Times,serif" font-size="14.00"> keys = (())</text>
</g>
<!-- node0&#45;&gt;node4 -->
<g id="edge4" class="edge">
<title>node0&#45;&gt;node4</title>
<path fill="none" stroke="black" d="M195,-969.23C200.17,-919.95 209.96,-826.82 216.35,-765.98"/>
<polygon fill="black" stroke="black" points="219.86,-766.07 217.43,-755.76 212.9,-765.34 219.86,-766.07"/>
<text text-anchor="start" x="198.5" y="-939.8" font-family="Times,serif" font-size="14.00">%0</text>
</g>
<!-- node6 -->
<g id="node7" class="node">
<title>node6</title>
<polygon fill="none" stroke="black" points="0,-225.5 0,-338.5 269,-338.5 269,-225.5 0,-225.5"/>
<text text-anchor="start" x="8" y="-323.3" font-family="Times,serif" font-size="14.00">Join %5 %0</text>
<text text-anchor="start" x="8" y="-308.3" font-family="Times,serif" font-size="14.00"> implementation = Unimplemented</text>
<text text-anchor="start" x="8" y="-293.3" font-family="Times,serif" font-size="14.00"> types = ()</text>
<text text-anchor="start" x="8" y="-278.3" font-family="Times,serif" font-size="14.00"> keys = ()</text>
<text text-anchor="start" x="8" y="-263.3" font-family="Times,serif" font-size="14.00"> Project ()</text>
<text text-anchor="start" x="8" y="-248.3" font-family="Times,serif" font-size="14.00"> types = ()</text>
<text text-anchor="start" x="8" y="-233.3" font-family="Times,serif" font-size="14.00"> keys = ()</text>
</g>
<!-- node0&#45;&gt;node6 -->
<g id="edge11" class="edge">
<title>node0&#45;&gt;node6</title>
<path fill="none" stroke="black" d="M171.56,-969.2C155.13,-938.56 134.5,-891.28 134.5,-847 134.5,-847 134.5,-847 134.5,-416 134.5,-394.17 134.5,-370.33 134.5,-348.94"/>
<polygon fill="black" stroke="black" points="138,-348.65 134.5,-338.65 131,-348.65 138,-348.65"/>
<text text-anchor="start" x="134.5" y="-563.3" font-family="Times,serif" font-size="14.00">%0</text>
</g>
<!-- node1 -->
<g id="node2" class="node">
<title>node1</title>
<polygon fill="none" stroke="black" points="260,-977 260,-1030 505,-1030 505,-977 260,-977"/>
<text text-anchor="start" x="268" y="-1014.8" font-family="Times,serif" font-size="14.00">Get issue_10800.public.t1 (u87)</text>
<text text-anchor="start" x="268" y="-999.8" font-family="Times,serif" font-size="14.00"> types = (integer?, integer?)</text>
<text text-anchor="start" x="268" y="-984.8" font-family="Times,serif" font-size="14.00"> keys = ()</text>
</g>
<!-- node1&#45;&gt;node2 -->
<g id="edge9" class="edge">
<title>node1&#45;&gt;node2</title>
<path fill="none" stroke="black" d="M381.34,-976.82C380.73,-963.27 379.95,-945.8 379.15,-928.1"/>
<polygon fill="black" stroke="black" points="382.63,-927.52 378.68,-917.68 375.64,-927.83 382.63,-927.52"/>
<text text-anchor="start" x="380.5" y="-939.8" font-family="Times,serif" font-size="14.00">%1</text>
</g>
<!-- node3 -->
<g id="node4" class="node">
<title>node3</title>
<polygon fill="none" stroke="black" points="269.5,-495.5 269.5,-638.5 415.5,-638.5 415.5,-495.5 269.5,-495.5"/>
<text text-anchor="start" x="277.5" y="-623.3" font-family="Times,serif" font-size="14.00">Get %2 (l1)</text>
<text text-anchor="start" x="277.5" y="-608.3" font-family="Times,serif" font-size="14.00"> types = (bigint)</text>
<text text-anchor="start" x="277.5" y="-593.3" font-family="Times,serif" font-size="14.00"> keys = (())</text>
<text text-anchor="start" x="277.5" y="-578.3" font-family="Times,serif" font-size="14.00"> Distinct group=()</text>
<text text-anchor="start" x="277.5" y="-563.3" font-family="Times,serif" font-size="14.00"> types = ()</text>
<text text-anchor="start" x="277.5" y="-548.3" font-family="Times,serif" font-size="14.00"> keys = (())</text>
<text text-anchor="start" x="277.5" y="-533.3" font-family="Times,serif" font-size="14.00"> Negate</text>
<text text-anchor="start" x="277.5" y="-518.3" font-family="Times,serif" font-size="14.00"> types = ()</text>
<text text-anchor="start" x="277.5" y="-503.3" font-family="Times,serif" font-size="14.00"> keys = ()</text>
</g>
<!-- node2&#45;&gt;node3 -->
<g id="edge6" class="edge">
<title>node2&#45;&gt;node3</title>
<path fill="none" stroke="black" d="M367.09,-774.38C362.53,-736.11 356.87,-688.65 352.14,-648.9"/>
<polygon fill="black" stroke="black" points="355.61,-648.48 350.95,-638.97 348.66,-649.31 355.61,-648.48"/>
<text text-anchor="start" x="365.5" y="-702.8" font-family="Times,serif" font-size="14.00">%2</text>
</g>
<!-- node9 -->
<g id="node10" class="node">
<title>node9</title>
<polygon fill="none" stroke="black" points="301.5,-0.5 301.5,-53.5 435.5,-53.5 435.5,-0.5 301.5,-0.5"/>
<text text-anchor="start" x="309.5" y="-38.3" font-family="Times,serif" font-size="14.00">Union %2 %8</text>
<text text-anchor="start" x="309.5" y="-23.3" font-family="Times,serif" font-size="14.00"> types = (bigint)</text>
<text text-anchor="start" x="309.5" y="-8.3" font-family="Times,serif" font-size="14.00"> keys = ()</text>
</g>
<!-- node2&#45;&gt;node9 -->
<g id="edge2" class="edge">
<title>node2&#45;&gt;node9</title>
<path fill="none" stroke="black" d="M405.28,-774.35C425.84,-719.18 449.5,-640.05 449.5,-568 449.5,-568 449.5,-568 449.5,-138.5 449.5,-108.21 429.45,-80.71 409.3,-60.72"/>
<polygon fill="black" stroke="black" points="411.58,-58.05 401.91,-53.7 406.76,-63.12 411.58,-58.05"/>
<text text-anchor="start" x="449.5" y="-360.8" font-family="Times,serif" font-size="14.00">%2</text>
</g>
<!-- node5 -->
<g id="node6" class="node">
<title>node5</title>
<polygon fill="none" stroke="black" points="166,-390.5 166,-443.5 279,-443.5 279,-390.5 166,-390.5"/>
<text text-anchor="start" x="174" y="-428.3" font-family="Times,serif" font-size="14.00">Union %3 %4</text>
<text text-anchor="start" x="174" y="-413.3" font-family="Times,serif" font-size="14.00"> types = ()</text>
<text text-anchor="start" x="174" y="-398.3" font-family="Times,serif" font-size="14.00"> keys = ()</text>
</g>
<!-- node3&#45;&gt;node5 -->
<g id="edge12" class="edge">
<title>node3&#45;&gt;node5</title>
<path fill="none" stroke="black" d="M285.31,-495.47C272.91,-480.18 260.36,-464.69 249.76,-451.62"/>
<polygon fill="black" stroke="black" points="252.45,-449.39 243.44,-443.82 247.02,-453.79 252.45,-449.39"/>
<text text-anchor="start" x="268.5" y="-465.8" font-family="Times,serif" font-size="14.00">%3</text>
</g>
<!-- node4&#45;&gt;node5 -->
<g id="edge8" class="edge">
<title>node4&#45;&gt;node5</title>
<path fill="none" stroke="black" d="M222.5,-657.38C222.5,-599.92 222.5,-505.16 222.5,-453.79"/>
<polygon fill="black" stroke="black" points="226,-453.52 222.5,-443.52 219,-453.52 226,-453.52"/>
<text text-anchor="start" x="222.5" y="-563.3" font-family="Times,serif" font-size="14.00">%4</text>
</g>
<!-- node5&#45;&gt;node6 -->
<g id="edge10" class="edge">
<title>node5&#45;&gt;node6</title>
<path fill="none" stroke="black" d="M205.53,-390.36C197.32,-377.94 187.04,-362.41 176.89,-347.06"/>
<polygon fill="black" stroke="black" points="179.71,-344.98 171.27,-338.57 173.87,-348.84 179.71,-344.98"/>
<text text-anchor="start" x="192.5" y="-360.8" font-family="Times,serif" font-size="14.00">%5</text>
</g>
<!-- node8 -->
<g id="node9" class="node">
<title>node8</title>
<polygon fill="none" stroke="black" points="152,-105.5 152,-173.5 421,-173.5 421,-105.5 152,-105.5"/>
<text text-anchor="start" x="160" y="-158.3" font-family="Times,serif" font-size="14.00">Join %6 %7</text>
<text text-anchor="start" x="160" y="-143.3" font-family="Times,serif" font-size="14.00"> implementation = Unimplemented</text>
<text text-anchor="start" x="160" y="-128.3" font-family="Times,serif" font-size="14.00"> types = (bigint)</text>
<text text-anchor="start" x="160" y="-113.3" font-family="Times,serif" font-size="14.00"> keys = ()</text>
</g>
<!-- node6&#45;&gt;node8 -->
<g id="edge7" class="edge">
<title>node6&#45;&gt;node8</title>
<path fill="none" stroke="black" d="M194.57,-225.47C210.69,-210.58 227.8,-194.76 242.83,-180.86"/>
<polygon fill="black" stroke="black" points="245.52,-183.14 250.49,-173.79 240.77,-178 245.52,-183.14"/>
<text text-anchor="start" x="229.5" y="-195.8" font-family="Times,serif" font-size="14.00">%6</text>
</g>
<!-- node7 -->
<g id="node8" class="node">
<title>node7</title>
<polygon fill="none" stroke="black" points="287.5,-255.5 287.5,-308.5 421.5,-308.5 421.5,-255.5 287.5,-255.5"/>
<text text-anchor="start" x="295.5" y="-293.3" font-family="Times,serif" font-size="14.00">Constant (0)</text>
<text text-anchor="start" x="295.5" y="-278.3" font-family="Times,serif" font-size="14.00"> types = (bigint)</text>
<text text-anchor="start" x="295.5" y="-263.3" font-family="Times,serif" font-size="14.00"> keys = (())</text>
</g>
<!-- node7&#45;&gt;node8 -->
<g id="edge5" class="edge">
<title>node7&#45;&gt;node8</title>
<path fill="none" stroke="black" d="M342.03,-255.23C332.21,-234.95 318.33,-206.26 306.9,-182.65"/>
<polygon fill="black" stroke="black" points="310,-181.02 302.49,-173.55 303.7,-184.07 310,-181.02"/>
<text text-anchor="start" x="318.5" y="-195.8" font-family="Times,serif" font-size="14.00">%7</text>
</g>
<!-- node8&#45;&gt;node9 -->
<g id="edge3" class="edge">
<title>node8&#45;&gt;node9</title>
<path fill="none" stroke="black" d="M311.1,-105.35C321.26,-91.66 333.03,-75.8 343.25,-62.03"/>
<polygon fill="black" stroke="black" points="346.24,-63.87 349.39,-53.75 340.62,-59.7 346.24,-63.87"/>
<text text-anchor="start" x="335.5" y="-75.8" font-family="Times,serif" font-size="14.00">%8</text>
</g>
</g>
</svg>
