<?xml version="1.0" encoding="UTF-8" standalone="no"?>
<!DOCTYPE svg PUBLIC "-//W3C//DTD SVG 1.1//EN"
 "http://www.w3.org/Graphics/SVG/1.1/DTD/svg11.dtd">
<!-- Generated by graphviz version 2.43.0 (0)
 -->
<!-- Title: G Pages: 1 -->
<svg width="308pt" height="632pt"
 viewBox="0.00 0.00 308.00 632.00" xmlns="http://www.w3.org/2000/svg" xmlns:xlink="http://www.w3.org/1999/xlink">
<g id="graph0" class="graph" transform="scale(1 1) rotate(0) translate(4 628)">
<title>G</title>
<polygon fill="white" stroke="transparent" points="-4,4 -4,-628 304,-628 304,4 -4,4"/>
<!-- node0 -->
<g id="node1" class="node">
<title>node0</title>
<polygon fill="none" stroke="black" points="47.5,-450.5 47.5,-623.5 296.5,-623.5 296.5,-450.5 47.5,-450.5"/>
<text text-anchor="start" x="55.5" y="-608.3" font-family="Times,serif" font-size="14.00">Let l0 =</text>
<text text-anchor="start" x="55.5" y="-593.3" font-family="Times,serif" font-size="14.00"> Get issue_10800.public.t1 (u87)</text>
<text text-anchor="start" x="55.5" y="-578.3" font-family="Times,serif" font-size="14.00"> types = (integer?, integer?)</text>
<text text-anchor="start" x="55.5" y="-563.3" font-family="Times,serif" font-size="14.00"> keys = ()</text>
<text text-anchor="start" x="55.5" y="-548.3" font-family="Times,serif" font-size="14.00"> Project ()</text>
<text text-anchor="start" x="55.5" y="-533.3" font-family="Times,serif" font-size="14.00"> types = ()</text>
<text text-anchor="start" x="55.5" y="-518.3" font-family="Times,serif" font-size="14.00"> keys = ()</text>
<text text-anchor="start" x="55.5" y="-503.3" font-family="Times,serif" font-size="14.00"> Reduce group=()</text>
<text text-anchor="start" x="55.5" y="-488.3" font-family="Times,serif" font-size="14.00"> agg count(true)</text>
<text text-anchor="start" x="55.5" y="-473.3" font-family="Times,serif" font-size="14.00"> types = (bigint)</text>
<text text-anchor="start" x="55.5" y="-458.3" font-family="Times,serif" font-size="14.00"> keys = (())</text>
</g>
<!-- node1 -->
<g id="node2" class="node">
<title>node1</title>
<polygon fill="none" stroke="black" points="0,-255.5 0,-398.5 134,-398.5 134,-255.5 0,-255.5"/>
<text text-anchor="start" x="8" y="-383.3" font-family="Times,serif" font-size="14.00">Get %0 (l0)</text>
<text text-anchor="start" x="8" y="-368.3" font-family="Times,serif" font-size="14.00"> types = (bigint)</text>
<text text-anchor="start" x="8" y="-353.3" font-family="Times,serif" font-size="14.00"> keys = (())</text>
<text text-anchor="start" x="8" y="-338.3" font-family="Times,serif" font-size="14.00"> Project ()</text>
<text text-anchor="start" x="8" y="-323.3" font-family="Times,serif" font-size="14.00"> types = ()</text>
<text text-anchor="start" x="8" y="-308.3" font-family="Times,serif" font-size="14.00"> keys = (())</text>
<text text-anchor="start" x="8" y="-293.3" font-family="Times,serif" font-size="14.00"> Negate</text>
<text text-anchor="start" x="8" y="-278.3" font-family="Times,serif" font-size="14.00"> types = ()</text>
<text text-anchor="start" x="8" y="-263.3" font-family="Times,serif" font-size="14.00"> keys = ()</text>
</g>
<!-- node0&#45;&gt;node1 -->
<g id="edge3" class="edge">
<title>node0&#45;&gt;node1</title>
<path fill="none" stroke="black" d="M128.84,-450.5C121.69,-436.34 114.31,-421.72 107.24,-407.71"/>
<polygon fill="black" stroke="black" points="110.27,-405.96 102.64,-398.61 104.03,-409.11 110.27,-405.96"/>
<text text-anchor="start" x="120" y="-420.8" font-family="Times,serif" font-size="14.00">%0</text>
</g>
<!-- node4 -->
<g id="node5" class="node">
<title>node4</title>
<polygon fill="none" stroke="black" points="162,-0.5 162,-53.5 296,-53.5 296,-0.5 162,-0.5"/>
<text text-anchor="start" x="170" y="-38.3" font-family="Times,serif" font-size="14.00">Union %0 %3</text>
<text text-anchor="start" x="170" y="-23.3" font-family="Times,serif" font-size="14.00"> types = (bigint)</text>
<text text-anchor="start" x="170" y="-8.3" font-family="Times,serif" font-size="14.00"> keys = ()</text>
</g>
<!-- node0&#45;&gt;node4 -->
<g id="edge1" class="edge">
<title>node0&#45;&gt;node4</title>
<path fill="none" stroke="black" d="M235.02,-450.23C244.08,-433.94 252.01,-416.5 257,-399 292.82,-273.34 279.67,-233.68 257,-105 254.52,-90.93 249.68,-76.06 244.71,-63.17"/>
<polygon fill="black" stroke="black" points="247.9,-61.72 240.92,-53.75 241.41,-64.33 247.9,-61.72"/>
<text text-anchor="start" x="277" y="-225.8" font-family="Times,serif" font-size="14.00">%0</text>
</g>
<!-- node3 -->
<g id="node4" class="node">
<title>node3</title>
<polygon fill="none" stroke="black" points="114,-105.5 114,-203.5 248,-203.5 248,-105.5 114,-105.5"/>
<text text-anchor="start" x="122" y="-188.3" font-family="Times,serif" font-size="14.00">Union %1 %2</text>
<text text-anchor="start" x="122" y="-173.3" font-family="Times,serif" font-size="14.00"> types = ()</text>
<text text-anchor="start" x="122" y="-158.3" font-family="Times,serif" font-size="14.00"> keys = ()</text>
<text text-anchor="start" x="122" y="-143.3" font-family="Times,serif" font-size="14.00"> Map 0</text>
<text text-anchor="start" x="122" y="-128.3" font-family="Times,serif" font-size="14.00"> types = (bigint)</text>
<text text-anchor="start" x="122" y="-113.3" font-family="Times,serif" font-size="14.00"> keys = ()</text>
</g>
<!-- node1&#45;&gt;node3 -->
<g id="edge2" class="edge">
<title>node1&#45;&gt;node3</title>
<path fill="none" stroke="black" d="M114.36,-255.17C123.98,-240.78 133.98,-225.82 143.22,-212"/>
<polygon fill="black" stroke="black" points="146.22,-213.81 148.87,-203.56 140.4,-209.92 146.22,-213.81"/>
<text text-anchor="start" x="135" y="-225.8" font-family="Times,serif" font-size="14.00">%1</text>
</g>
<!-- node2 -->
<g id="node3" class="node">
<title>node2</title>
<polygon fill="none" stroke="black" points="152,-300.5 152,-353.5 248,-353.5 248,-300.5 152,-300.5"/>
<text text-anchor="start" x="160" y="-338.3" font-family="Times,serif" font-size="14.00">Constant ()</text>
<text text-anchor="start" x="160" y="-323.3" font-family="Times,serif" font-size="14.00"> types = ()</text>
<text text-anchor="start" x="160" y="-308.3" font-family="Times,serif" font-size="14.00"> keys = (())</text>
</g>
<!-- node2&#45;&gt;node3 -->
<g id="edge5" class="edge">
<title>node2&#45;&gt;node3</title>
<path fill="none" stroke="black" d="M197.16,-300.47C194.61,-277.62 190.78,-243.26 187.49,-213.73"/>
<polygon fill="black" stroke="black" points="190.94,-213.06 186.35,-203.51 183.98,-213.84 190.94,-213.06"/>
<text text-anchor="start" x="189" y="-225.8" font-family="Times,serif" font-size="14.00">%2</text>
</g>
<!-- node3&#45;&gt;node4 -->
<g id="edge4" class="edge">
<title>node3&#45;&gt;node4</title>
<path fill="none" stroke="black" d="M199.42,-105.34C204.77,-91.35 210.51,-76.33 215.5,-63.29"/>
<polygon fill="black" stroke="black" points="218.85,-64.34 219.15,-53.75 212.31,-61.84 218.85,-64.34"/>
<text text-anchor="start" x="212" y="-75.8" font-family="Times,serif" font-size="14.00">%3</text>
</g>
</g>
</svg>
