<?xml version="1.0" encoding="UTF-8" standalone="no"?>
<!DOCTYPE svg PUBLIC "-//W3C//DTD SVG 1.1//EN"
 "http://www.w3.org/Graphics/SVG/1.1/DTD/svg11.dtd">
<!-- Generated by graphviz version 2.43.0 (0)
 -->
<!-- Title: G Pages: 1 -->
<svg width="817pt" height="1299pt"
 viewBox="0.00 0.00 817.00 1299.00" xmlns="http://www.w3.org/2000/svg" xmlns:xlink="http://www.w3.org/1999/xlink">
<g id="graph0" class="graph" transform="scale(1 1) rotate(0) translate(4 1295)">
<title>G</title>
<polygon fill="white" stroke="transparent" points="-4,4 -4,-1295 813,-1295 813,4 -4,4"/>
<!-- node0 -->
<g id="node1" class="node">
<title>node0</title>
<polygon fill="none" stroke="black" points="708,-458 708,-496 809,-496 809,-458 708,-458"/>
<text text-anchor="start" x="716" y="-480.8" font-family="Times,serif" font-size="14.00">Let l0 =</text>
<text text-anchor="start" x="716" y="-465.8" font-family="Times,serif" font-size="14.00"> Constant ()</text>
</g>
<!-- node2 -->
<g id="node3" class="node">
<title>node2</title>
<polygon fill="none" stroke="black" points="522,-345.5 522,-398.5 791,-398.5 791,-345.5 522,-345.5"/>
<text text-anchor="start" x="530" y="-383.3" font-family="Times,serif" font-size="14.00">Let l1 =</text>
<text text-anchor="start" x="530" y="-368.3" font-family="Times,serif" font-size="14.00"> Join %0 %1</text>
<text text-anchor="start" x="530" y="-353.3" font-family="Times,serif" font-size="14.00"> implementation = Unimplemented</text>
</g>
<!-- node0&#45;&gt;node2 -->
<g id="edge22" class="edge">
<title>node0&#45;&gt;node2</title>
<path fill="none" stroke="black" d="M740.26,-457.59C726.02,-443.21 705.88,-422.86 688.91,-405.73"/>
<polygon fill="black" stroke="black" points="691.38,-403.25 681.86,-398.61 686.41,-408.17 691.38,-403.25"/>
<text text-anchor="start" x="713.5" y="-420.8" font-family="Times,serif" font-size="14.00">%0</text>
</g>
<!-- node1 -->
<g id="node2" class="node">
<title>node1</title>
<polygon fill="none" stroke="black" points="485.5,-459 485.5,-495 689.5,-495 689.5,-459 485.5,-459"/>
<text text-anchor="start" x="493.5" y="-473.3" font-family="Times,serif" font-size="14.00">Get types.public.t2 (u141)</text>
</g>
<!-- node1&#45;&gt;node2 -->
<g id="edge19" class="edge">
<title>node1&#45;&gt;node2</title>
<path fill="none" stroke="black" d="M598.89,-458.99C608.28,-444.98 621.89,-424.66 633.53,-407.29"/>
<polygon fill="black" stroke="black" points="636.74,-408.78 639.4,-398.53 630.93,-404.89 636.74,-408.78"/>
<text text-anchor="start" x="625.5" y="-420.8" font-family="Times,serif" font-size="14.00">%1</text>
</g>
<!-- node3 -->
<g id="node4" class="node">
<title>node3</title>
<polygon fill="none" stroke="black" points="457,-240.5 457,-293.5 654,-293.5 654,-240.5 457,-240.5"/>
<text text-anchor="start" x="465" y="-278.3" font-family="Times,serif" font-size="14.00">Let l2 =</text>
<text text-anchor="start" x="465" y="-263.3" font-family="Times,serif" font-size="14.00"> Get %2 (l1)</text>
<text text-anchor="start" x="465" y="-248.3" font-family="Times,serif" font-size="14.00"> Distinct group=(#0, #1)</text>
</g>
<!-- node2&#45;&gt;node3 -->
<g id="edge23" class="edge">
<title>node2&#45;&gt;node3</title>
<path fill="none" stroke="black" d="M631.27,-345.27C618.14,-331.88 601.93,-315.35 587.88,-301.02"/>
<polygon fill="black" stroke="black" points="590.25,-298.44 580.75,-293.75 585.26,-303.35 590.25,-298.44"/>
<text text-anchor="start" x="611.5" y="-315.8" font-family="Times,serif" font-size="14.00">%2</text>
</g>
<!-- node18 -->
<g id="node19" class="node">
<title>node18</title>
<polygon fill="none" stroke="black" points="466,-0.5 466,-83.5 735,-83.5 735,-0.5 466,-0.5"/>
<text text-anchor="start" x="474" y="-68.3" font-family="Times,serif" font-size="14.00">Join %2 %17 (= #0 #2) (= #1 #3)</text>
<text text-anchor="start" x="474" y="-53.3" font-family="Times,serif" font-size="14.00"> implementation = Unimplemented</text>
<text text-anchor="start" x="474" y="-38.3" font-family="Times,serif" font-size="14.00"> Map #4</text>
<text text-anchor="start" x="474" y="-23.3" font-family="Times,serif" font-size="14.00"> Project (#0, #1, #5)</text>
<text text-anchor="start" x="474" y="-8.3" font-family="Times,serif" font-size="14.00"> Project (#2)</text>
</g>
<!-- node2&#45;&gt;node18 -->
<g id="edge11" class="edge">
<title>node2&#45;&gt;node18</title>
<path fill="none" stroke="black" d="M662.54,-345.47C671.83,-301.38 686.29,-208.61 663.5,-135 658.85,-119.98 650.81,-105.23 642,-92.1"/>
<polygon fill="black" stroke="black" points="644.73,-89.89 636.13,-83.71 639,-93.91 644.73,-89.89"/>
<text text-anchor="start" x="675.5" y="-210.8" font-family="Times,serif" font-size="14.00">%2</text>
</g>
<!-- node17 -->
<g id="node18" class="node">
<title>node17</title>
<polygon fill="none" stroke="black" points="385,-135.5 385,-188.5 654,-188.5 654,-135.5 385,-135.5"/>
<text text-anchor="start" x="393" y="-173.3" font-family="Times,serif" font-size="14.00">Join %3 %16</text>
<text text-anchor="start" x="393" y="-158.3" font-family="Times,serif" font-size="14.00"> implementation = Unimplemented</text>
<text text-anchor="start" x="393" y="-143.3" font-family="Times,serif" font-size="14.00"> Project (#0..=#2)</text>
</g>
<!-- node3&#45;&gt;node17 -->
<g id="edge10" class="edge">
<title>node3&#45;&gt;node17</title>
<path fill="none" stroke="black" d="M546.51,-240.27C542.08,-227.62 536.68,-212.16 531.87,-198.4"/>
<polygon fill="black" stroke="black" points="535.11,-197.04 528.5,-188.75 528.5,-199.35 535.11,-197.04"/>
<text text-anchor="start" x="540.5" y="-210.8" font-family="Times,serif" font-size="14.00">%3</text>
</g>
<!-- node4 -->
<g id="node5" class="node">
<title>node4</title>
<polygon fill="none" stroke="black" points="207,-1252.5 207,-1290.5 308,-1290.5 308,-1252.5 207,-1252.5"/>
<text text-anchor="start" x="215" y="-1275.3" font-family="Times,serif" font-size="14.00">Let l3 =</text>
<text text-anchor="start" x="215" y="-1260.3" font-family="Times,serif" font-size="14.00"> Constant ()</text>
</g>
<!-- node6 -->
<g id="node7" class="node">
<title>node6</title>
<polygon fill="none" stroke="black" points="305,-1147.5 305,-1200.5 574,-1200.5 574,-1147.5 305,-1147.5"/>
<text text-anchor="start" x="313" y="-1185.3" font-family="Times,serif" font-size="14.00">Let l4 =</text>
<text text-anchor="start" x="313" y="-1170.3" font-family="Times,serif" font-size="14.00"> Join %4 %5</text>
<text text-anchor="start" x="313" y="-1155.3" font-family="Times,serif" font-size="14.00"> implementation = Unimplemented</text>
</g>
<!-- node4&#45;&gt;node6 -->
<g id="edge4" class="edge">
<title>node4&#45;&gt;node6</title>
<path fill="none" stroke="black" d="M292.16,-1252.31C317.49,-1239.02 352.42,-1220.69 381.91,-1205.22"/>
<polygon fill="black" stroke="black" points="383.65,-1208.26 390.88,-1200.51 380.39,-1202.06 383.65,-1208.26"/>
<text text-anchor="start" x="354.5" y="-1222.8" font-family="Times,serif" font-size="14.00">%4</text>
</g>
<!-- node11 -->
<g id="node12" class="node">
<title>node11</title>
<polygon fill="none" stroke="black" points="184.5,-1090.5 184.5,-1128.5 330.5,-1128.5 330.5,-1090.5 184.5,-1090.5"/>
<text text-anchor="start" x="192.5" y="-1113.3" font-family="Times,serif" font-size="14.00">Get %4 (l3)</text>
<text text-anchor="start" x="192.5" y="-1098.3" font-family="Times,serif" font-size="14.00"> Distinct group=()</text>
</g>
<!-- node4&#45;&gt;node11 -->
<g id="edge13" class="edge">
<title>node4&#45;&gt;node11</title>
<path fill="none" stroke="black" d="M257.5,-1252.46C257.5,-1224.85 257.5,-1171.87 257.5,-1139.03"/>
<polygon fill="black" stroke="black" points="261,-1138.72 257.5,-1128.72 254,-1138.72 261,-1138.72"/>
<text text-anchor="start" x="257.5" y="-1222.8" font-family="Times,serif" font-size="14.00">%4</text>
</g>
<!-- node13 -->
<g id="node14" class="node">
<title>node13</title>
<polygon fill="none" stroke="black" points="141,-450.5 141,-503.5 410,-503.5 410,-450.5 141,-450.5"/>
<text text-anchor="start" x="149" y="-488.3" font-family="Times,serif" font-size="14.00">Join %12 %4</text>
<text text-anchor="start" x="149" y="-473.3" font-family="Times,serif" font-size="14.00"> implementation = Unimplemented</text>
<text text-anchor="start" x="149" y="-458.3" font-family="Times,serif" font-size="14.00"> Project ()</text>
</g>
<!-- node4&#45;&gt;node13 -->
<g id="edge15" class="edge">
<title>node4&#45;&gt;node13</title>
<path fill="none" stroke="black" d="M224.73,-1252.33C199.71,-1235.79 169.5,-1208.82 169.5,-1175 169.5,-1175 169.5,-1175 169.5,-572.5 169.5,-545.72 188.58,-524.65 210.56,-509.27"/>
<polygon fill="black" stroke="black" points="212.66,-512.08 219.09,-503.65 208.81,-506.23 212.66,-512.08"/>
<text text-anchor="start" x="169.5" y="-808.8" font-family="Times,serif" font-size="14.00">%4</text>
</g>
<!-- node5 -->
<g id="node6" class="node">
<title>node5</title>
<polygon fill="none" stroke="black" points="337.5,-1253.5 337.5,-1289.5 541.5,-1289.5 541.5,-1253.5 337.5,-1253.5"/>
<text text-anchor="start" x="345.5" y="-1267.8" font-family="Times,serif" font-size="14.00">Get types.public.t1 (u139)</text>
</g>
<!-- node5&#45;&gt;node6 -->
<g id="edge16" class="edge">
<title>node5&#45;&gt;node6</title>
<path fill="none" stroke="black" d="M439.5,-1253.43C439.5,-1241.6 439.5,-1225.41 439.5,-1210.82"/>
<polygon fill="black" stroke="black" points="443,-1210.55 439.5,-1200.55 436,-1210.56 443,-1210.55"/>
<text text-anchor="start" x="439.5" y="-1222.8" font-family="Times,serif" font-size="14.00">%5</text>
</g>
<!-- node7 -->
<g id="node8" class="node">
<title>node7</title>
<polygon fill="none" stroke="black" points="375.5,-988.5 375.5,-1071.5 525.5,-1071.5 525.5,-988.5 375.5,-988.5"/>
<text text-anchor="start" x="383.5" y="-1056.3" font-family="Times,serif" font-size="14.00">Let l5 =</text>
<text text-anchor="start" x="383.5" y="-1041.3" font-family="Times,serif" font-size="14.00"> Get %6 (l4)</text>
<text text-anchor="start" x="383.5" y="-1026.3" font-family="Times,serif" font-size="14.00"> Map 1</text>
<text text-anchor="start" x="383.5" y="-1011.3" font-family="Times,serif" font-size="14.00"> Project (#0..=#2)</text>
<text text-anchor="start" x="383.5" y="-996.3" font-family="Times,serif" font-size="14.00"> Project (#2)</text>
</g>
<!-- node6&#45;&gt;node7 -->
<g id="edge8" class="edge">
<title>node6&#45;&gt;node7</title>
<path fill="none" stroke="black" d="M441.49,-1147.28C442.91,-1128.99 444.86,-1103.8 446.58,-1081.55"/>
<polygon fill="black" stroke="black" points="450.07,-1081.81 447.36,-1071.57 443.1,-1081.27 450.07,-1081.81"/>
<text text-anchor="start" x="446.5" y="-1105.8" font-family="Times,serif" font-size="14.00">%6</text>
</g>
<!-- node8 -->
<g id="node9" class="node">
<title>node8</title>
<polygon fill="none" stroke="black" points="244,-838.5 244,-936.5 657,-936.5 657,-838.5 244,-838.5"/>
<text text-anchor="start" x="252" y="-921.3" font-family="Times,serif" font-size="14.00">Get %7 (l5)</text>
<text text-anchor="start" x="252" y="-906.3" font-family="Times,serif" font-size="14.00"> Reduce group=()</text>
<text text-anchor="start" x="252" y="-891.3" font-family="Times,serif" font-size="14.00"> agg count(true)</text>
<text text-anchor="start" x="252" y="-876.3" font-family="Times,serif" font-size="14.00"> Filter (#0 &gt; 1)</text>
<text text-anchor="start" x="252" y="-861.3" font-family="Times,serif" font-size="14.00"> Project ()</text>
<text text-anchor="start" x="252" y="-846.3" font-family="Times,serif" font-size="14.00"> Map (err: more than one record produced in subquery)</text>
</g>
<!-- node7&#45;&gt;node8 -->
<g id="edge7" class="edge">
<title>node7&#45;&gt;node8</title>
<path fill="none" stroke="black" d="M450.5,-988.36C450.5,-975.38 450.5,-960.76 450.5,-946.78"/>
<polygon fill="black" stroke="black" points="454,-946.75 450.5,-936.75 447,-946.75 454,-946.75"/>
<text text-anchor="start" x="450.5" y="-958.8" font-family="Times,serif" font-size="14.00">%7</text>
</g>
<!-- node9 -->
<g id="node10" class="node">
<title>node9</title>
<polygon fill="none" stroke="black" points="388.5,-748.5 388.5,-786.5 506.5,-786.5 506.5,-748.5 388.5,-748.5"/>
<text text-anchor="start" x="396.5" y="-771.3" font-family="Times,serif" font-size="14.00">Let l6 =</text>
<text text-anchor="start" x="396.5" y="-756.3" font-family="Times,serif" font-size="14.00"> Union %7 %8</text>
</g>
<!-- node7&#45;&gt;node9 -->
<g id="edge14" class="edge">
<title>node7&#45;&gt;node9</title>
<path fill="none" stroke="black" d="M525.57,-1018.41C574.7,-1007.16 635.37,-984.09 666.5,-937 690.76,-900.29 692.48,-873.51 666.5,-838 632.56,-791.62 567.46,-775.43 517.02,-770.14"/>
<polygon fill="black" stroke="black" points="517.1,-766.63 506.82,-769.2 516.45,-773.61 517.1,-766.63"/>
<text text-anchor="start" x="684.5" y="-883.8" font-family="Times,serif" font-size="14.00">%7</text>
</g>
<!-- node8&#45;&gt;node9 -->
<g id="edge1" class="edge">
<title>node8&#45;&gt;node9</title>
<path fill="none" stroke="black" d="M449.27,-838.16C448.91,-824.09 448.53,-809.17 448.22,-796.77"/>
<polygon fill="black" stroke="black" points="451.71,-796.51 447.96,-786.6 444.72,-796.68 451.71,-796.51"/>
<text text-anchor="start" x="449.5" y="-808.8" font-family="Times,serif" font-size="14.00">%8</text>
</g>
<!-- node10 -->
<g id="node11" class="node">
<title>node10</title>
<polygon fill="none" stroke="black" points="257.5,-643.5 257.5,-696.5 403.5,-696.5 403.5,-643.5 257.5,-643.5"/>
<text text-anchor="start" x="265.5" y="-681.3" font-family="Times,serif" font-size="14.00">Get %9 (l6)</text>
<text text-anchor="start" x="265.5" y="-666.3" font-family="Times,serif" font-size="14.00"> Distinct group=()</text>
<text text-anchor="start" x="265.5" y="-651.3" font-family="Times,serif" font-size="14.00"> Negate</text>
</g>
<!-- node9&#45;&gt;node10 -->
<g id="edge12" class="edge">
<title>node9&#45;&gt;node10</title>
<path fill="none" stroke="black" d="M425.22,-748.31C409.69,-735.64 388.56,-718.39 370.19,-703.4"/>
<polygon fill="black" stroke="black" points="371.94,-700.31 361.98,-696.7 367.51,-705.73 371.94,-700.31"/>
<text text-anchor="start" x="399.5" y="-718.8" font-family="Times,serif" font-size="14.00">%9</text>
</g>
<!-- node16 -->
<g id="node17" class="node">
<title>node16</title>
<polygon fill="none" stroke="black" points="316.5,-249 316.5,-285 438.5,-285 438.5,-249 316.5,-249"/>
<text text-anchor="start" x="324.5" y="-263.3" font-family="Times,serif" font-size="14.00">Union %9 %15</text>
</g>
<!-- node9&#45;&gt;node16 -->
<g id="edge21" class="edge">
<title>node9&#45;&gt;node16</title>
<path fill="none" stroke="black" d="M445.67,-748.21C443.9,-729.01 441.5,-697.91 441.5,-671 441.5,-671 441.5,-671 441.5,-371 441.5,-340.84 421.46,-312.18 403.8,-292.79"/>
<polygon fill="black" stroke="black" points="406.13,-290.15 396.7,-285.32 401.06,-294.98 406.13,-290.15"/>
<text text-anchor="start" x="441.5" y="-525.8" font-family="Times,serif" font-size="14.00">%9</text>
</g>
<!-- node12 -->
<g id="node13" class="node">
<title>node12</title>
<polygon fill="none" stroke="black" points="210,-555.5 210,-591.5 341,-591.5 341,-555.5 210,-555.5"/>
<text text-anchor="start" x="218" y="-569.8" font-family="Times,serif" font-size="14.00">Union %10 %11</text>
</g>
<!-- node10&#45;&gt;node12 -->
<g id="edge5" class="edge">
<title>node10&#45;&gt;node12</title>
<path fill="none" stroke="black" d="M315.47,-643.18C307.72,-629.86 298.29,-613.65 290.53,-600.33"/>
<polygon fill="black" stroke="black" points="293.53,-598.52 285.48,-591.64 287.48,-602.04 293.53,-598.52"/>
<text text-anchor="start" x="305.5" y="-613.8" font-family="Times,serif" font-size="14.00">%10</text>
</g>
<!-- node11&#45;&gt;node12 -->
<g id="edge3" class="edge">
<title>node11&#45;&gt;node12</title>
<path fill="none" stroke="black" d="M248.59,-1090.22C236.26,-1063.2 215.5,-1010.68 215.5,-963.5 215.5,-963.5 215.5,-963.5 215.5,-669 215.5,-642.2 232.91,-616.86 248.97,-599.18"/>
<polygon fill="black" stroke="black" points="251.81,-601.26 256.19,-591.61 246.75,-596.43 251.81,-601.26"/>
<text text-anchor="start" x="215.5" y="-808.8" font-family="Times,serif" font-size="14.00">%11</text>
</g>
<!-- node12&#45;&gt;node13 -->
<g id="edge6" class="edge">
<title>node12&#45;&gt;node13</title>
<path fill="none" stroke="black" d="M275.5,-555.17C275.5,-543.7 275.5,-528.25 275.5,-514.18"/>
<polygon fill="black" stroke="black" points="279,-513.78 275.5,-503.78 272,-513.78 279,-513.78"/>
<text text-anchor="start" x="275.5" y="-525.8" font-family="Times,serif" font-size="14.00">%12</text>
</g>
<!-- node15 -->
<g id="node16" class="node">
<title>node15</title>
<polygon fill="none" stroke="black" points="141,-353 141,-391 410,-391 410,-353 141,-353"/>
<text text-anchor="start" x="149" y="-375.8" font-family="Times,serif" font-size="14.00">Join %13 %14</text>
<text text-anchor="start" x="149" y="-360.8" font-family="Times,serif" font-size="14.00"> implementation = Unimplemented</text>
</g>
<!-- node13&#45;&gt;node15 -->
<g id="edge2" class="edge">
<title>node13&#45;&gt;node15</title>
<path fill="none" stroke="black" d="M275.5,-450.27C275.5,-435.51 275.5,-416.93 275.5,-401.69"/>
<polygon fill="black" stroke="black" points="279,-401.29 275.5,-391.29 272,-401.29 279,-401.29"/>
<text text-anchor="start" x="275.5" y="-420.8" font-family="Times,serif" font-size="14.00">%13</text>
</g>
<!-- node14 -->
<g id="node15" class="node">
<title>node14</title>
<polygon fill="none" stroke="black" points="0,-459 0,-495 123,-495 123,-459 0,-459"/>
<text text-anchor="start" x="8" y="-473.3" font-family="Times,serif" font-size="14.00">Constant (null)</text>
</g>
<!-- node14&#45;&gt;node15 -->
<g id="edge9" class="edge">
<title>node14&#45;&gt;node15</title>
<path fill="none" stroke="black" d="M96.84,-458.99C132.89,-441.64 189.02,-414.62 228.73,-395.51"/>
<polygon fill="black" stroke="black" points="230.46,-398.56 237.95,-391.07 227.42,-392.26 230.46,-398.56"/>
<text text-anchor="start" x="181.5" y="-420.8" font-family="Times,serif" font-size="14.00">%14</text>
</g>
<!-- node15&#45;&gt;node16 -->
<g id="edge18" class="edge">
<title>node15&#45;&gt;node16</title>
<path fill="none" stroke="black" d="M293.74,-352.59C310.28,-335.88 334.81,-311.11 353.05,-292.69"/>
<polygon fill="black" stroke="black" points="355.89,-294.8 360.44,-285.23 350.92,-289.87 355.89,-294.8"/>
<text text-anchor="start" x="333.5" y="-315.8" font-family="Times,serif" font-size="14.00">%15</text>
</g>
<!-- node16&#45;&gt;node17 -->
<g id="edge20" class="edge">
<title>node16&#45;&gt;node17</title>
<path fill="none" stroke="black" d="M400.95,-248.99C421.33,-234.21 451.39,-212.4 476.14,-194.45"/>
<polygon fill="black" stroke="black" points="478.27,-197.23 484.31,-188.53 474.16,-191.57 478.27,-197.23"/>
<text text-anchor="start" x="457.5" y="-210.8" font-family="Times,serif" font-size="14.00">%16</text>
</g>
<!-- node17&#45;&gt;node18 -->
<g id="edge17" class="edge">
<title>node17&#45;&gt;node18</title>
<path fill="none" stroke="black" d="M537.08,-135.4C545.71,-122.82 556.42,-107.22 566.56,-92.44"/>
<polygon fill="black" stroke="black" points="569.68,-94.09 572.45,-83.86 563.9,-90.13 569.68,-94.09"/>
<text text-anchor="start" x="560.5" y="-105.8" font-family="Times,serif" font-size="14.00">%17</text>
</g>
</g>
</svg>
