<?xml version="1.0" encoding="UTF-8" standalone="no"?>
<!DOCTYPE svg PUBLIC "-//W3C//DTD SVG 1.1//EN"
 "http://www.w3.org/Graphics/SVG/1.1/DTD/svg11.dtd">
<!-- Generated by graphviz version 2.43.0 (0)
 -->
<!-- Title: G Pages: 1 -->
<svg width="644pt" height="617pt"
 viewBox="0.00 0.00 643.50 617.00" xmlns="http://www.w3.org/2000/svg" xmlns:xlink="http://www.w3.org/1999/xlink">
<g id="graph0" class="graph" transform="scale(1 1) rotate(0) translate(4 613)">
<title>G</title>
<polygon fill="white" stroke="transparent" points="-4,4 -4,-613 639.5,-613 639.5,4 -4,4"/>
<!-- node0 -->
<g id="node1" class="node">
<title>node0</title>
<polygon fill="none" stroke="black" points="0,-525.5 0,-578.5 204,-578.5 204,-525.5 0,-525.5"/>
<text text-anchor="start" x="8" y="-563.3" font-family="Times,serif" font-size="14.00">Get types.public.t1 (u139)</text>
<text text-anchor="start" x="8" y="-548.3" font-family="Times,serif" font-size="14.00"> Map 1</text>
<text text-anchor="start" x="8" y="-533.3" font-family="Times,serif" font-size="14.00"> Project (#2)</text>
</g>
<!-- node2 -->
<g id="node3" class="node">
<title>node2</title>
<polygon fill="none" stroke="black" points="206,-405.5 206,-443.5 324,-443.5 324,-405.5 206,-405.5"/>
<text text-anchor="start" x="214" y="-428.3" font-family="Times,serif" font-size="14.00">Let l0 =</text>
<text text-anchor="start" x="214" y="-413.3" font-family="Times,serif" font-size="14.00"> Union %0 %1</text>
</g>
<!-- node0&#45;&gt;node2 -->
<g id="edge9" class="edge">
<title>node0&#45;&gt;node2</title>
<path fill="none" stroke="black" d="M135.38,-525.3C164.03,-503.24 205.05,-471.66 233.23,-449.96"/>
<polygon fill="black" stroke="black" points="235.38,-452.72 241.17,-443.85 231.11,-447.17 235.38,-452.72"/>
<text text-anchor="start" x="217" y="-465.8" font-family="Times,serif" font-size="14.00">%0</text>
</g>
<!-- node1 -->
<g id="node2" class="node">
<title>node1</title>
<polygon fill="none" stroke="black" points="222.5,-495.5 222.5,-608.5 635.5,-608.5 635.5,-495.5 222.5,-495.5"/>
<text text-anchor="start" x="230.5" y="-593.3" font-family="Times,serif" font-size="14.00">Get types.public.t1 (u139)</text>
<text text-anchor="start" x="230.5" y="-578.3" font-family="Times,serif" font-size="14.00"> Project ()</text>
<text text-anchor="start" x="230.5" y="-563.3" font-family="Times,serif" font-size="14.00"> Reduce group=()</text>
<text text-anchor="start" x="230.5" y="-548.3" font-family="Times,serif" font-size="14.00"> agg count(true)</text>
<text text-anchor="start" x="230.5" y="-533.3" font-family="Times,serif" font-size="14.00"> Filter (#0 &gt; 1)</text>
<text text-anchor="start" x="230.5" y="-518.3" font-family="Times,serif" font-size="14.00"> Project ()</text>
<text text-anchor="start" x="230.5" y="-503.3" font-family="Times,serif" font-size="14.00"> Map (err: more than one record produced in subquery)</text>
</g>
<!-- node1&#45;&gt;node2 -->
<g id="edge2" class="edge">
<title>node1&#45;&gt;node2</title>
<path fill="none" stroke="black" d="M356.11,-495.22C335.42,-479.39 313.95,-462.96 297.05,-450.03"/>
<polygon fill="black" stroke="black" points="298.73,-446.9 288.66,-443.6 294.47,-452.46 298.73,-446.9"/>
<text text-anchor="start" x="328" y="-465.8" font-family="Times,serif" font-size="14.00">%1</text>
</g>
<!-- node4 -->
<g id="node5" class="node">
<title>node4</title>
<polygon fill="none" stroke="black" points="84,-285.5 84,-353.5 230,-353.5 230,-285.5 84,-285.5"/>
<text text-anchor="start" x="92" y="-338.3" font-family="Times,serif" font-size="14.00">Get %2 (l0)</text>
<text text-anchor="start" x="92" y="-323.3" font-family="Times,serif" font-size="14.00"> Project ()</text>
<text text-anchor="start" x="92" y="-308.3" font-family="Times,serif" font-size="14.00"> Distinct group=()</text>
<text text-anchor="start" x="92" y="-293.3" font-family="Times,serif" font-size="14.00"> Negate</text>
</g>
<!-- node2&#45;&gt;node4 -->
<g id="edge4" class="edge">
<title>node2&#45;&gt;node4</title>
<path fill="none" stroke="black" d="M245.94,-405.32C233.02,-393 215.43,-376.22 199.3,-360.84"/>
<polygon fill="black" stroke="black" points="201.66,-358.26 192.01,-353.89 196.83,-363.33 201.66,-358.26"/>
<text text-anchor="start" x="224" y="-375.8" font-family="Times,serif" font-size="14.00">%2</text>
</g>
<!-- node7 -->
<g id="node8" class="node">
<title>node7</title>
<polygon fill="none" stroke="black" points="273.5,-99 273.5,-135 386.5,-135 386.5,-99 273.5,-99"/>
<text text-anchor="start" x="281.5" y="-113.3" font-family="Times,serif" font-size="14.00">Union %2 %6</text>
</g>
<!-- node2&#45;&gt;node7 -->
<g id="edge3" class="edge">
<title>node2&#45;&gt;node7</title>
<path fill="none" stroke="black" d="M301.3,-405.29C320.48,-393.53 342.22,-376.25 353,-354 386.71,-284.43 358.58,-189.93 341.21,-144.51"/>
<polygon fill="black" stroke="black" points="344.41,-143.1 337.48,-135.08 337.9,-145.67 344.41,-143.1"/>
<text text-anchor="start" x="369" y="-255.8" font-family="Times,serif" font-size="14.00">%2</text>
</g>
<!-- node3 -->
<g id="node4" class="node">
<title>node3</title>
<polygon fill="none" stroke="black" points="405,-90.5 405,-143.5 609,-143.5 609,-90.5 405,-90.5"/>
<text text-anchor="start" x="413" y="-128.3" font-family="Times,serif" font-size="14.00">Get types.public.t2 (u141)</text>
<text text-anchor="start" x="413" y="-113.3" font-family="Times,serif" font-size="14.00"> Project ()</text>
<text text-anchor="start" x="413" y="-98.3" font-family="Times,serif" font-size="14.00"> ArrangeBy ()</text>
</g>
<!-- node8 -->
<g id="node9" class="node">
<title>node8</title>
<polygon fill="none" stroke="black" points="266.5,-0.5 266.5,-38.5 571.5,-38.5 571.5,-0.5 266.5,-0.5"/>
<text text-anchor="start" x="274.5" y="-23.3" font-family="Times,serif" font-size="14.00">Join %3 %7</text>
<text text-anchor="start" x="274.5" y="-8.3" font-family="Times,serif" font-size="14.00"> implementation = Differential %7 %3.()</text>
</g>
<!-- node3&#45;&gt;node8 -->
<g id="edge7" class="edge">
<title>node3&#45;&gt;node8</title>
<path fill="none" stroke="black" d="M483.42,-90.41C470.82,-76.74 455.35,-59.95 442.73,-46.26"/>
<polygon fill="black" stroke="black" points="445.03,-43.58 435.68,-38.6 439.88,-48.32 445.03,-43.58"/>
<text text-anchor="start" x="465" y="-60.8" font-family="Times,serif" font-size="14.00">%3</text>
</g>
<!-- node6 -->
<g id="node7" class="node">
<title>node6</title>
<polygon fill="none" stroke="black" points="230.5,-195.5 230.5,-233.5 343.5,-233.5 343.5,-195.5 230.5,-195.5"/>
<text text-anchor="start" x="238.5" y="-218.3" font-family="Times,serif" font-size="14.00">Union %4 %5</text>
<text text-anchor="start" x="238.5" y="-203.3" font-family="Times,serif" font-size="14.00"> Map null</text>
</g>
<!-- node4&#45;&gt;node6 -->
<g id="edge5" class="edge">
<title>node4&#45;&gt;node6</title>
<path fill="none" stroke="black" d="M198.85,-285.34C217.47,-270.59 239.02,-253.52 256.14,-239.95"/>
<polygon fill="black" stroke="black" points="258.5,-242.55 264.17,-233.59 254.15,-237.06 258.5,-242.55"/>
<text text-anchor="start" x="238" y="-255.8" font-family="Times,serif" font-size="14.00">%4</text>
</g>
<!-- node5 -->
<g id="node6" class="node">
<title>node5</title>
<polygon fill="none" stroke="black" points="248,-301.5 248,-337.5 344,-337.5 344,-301.5 248,-301.5"/>
<text text-anchor="start" x="256" y="-315.8" font-family="Times,serif" font-size="14.00">Constant ()</text>
</g>
<!-- node5&#45;&gt;node6 -->
<g id="edge6" class="edge">
<title>node5&#45;&gt;node6</title>
<path fill="none" stroke="black" d="M294.51,-301.49C293.14,-285.82 291.09,-262.28 289.47,-243.78"/>
<polygon fill="black" stroke="black" points="292.94,-243.23 288.58,-233.57 285.96,-243.84 292.94,-243.23"/>
<text text-anchor="start" x="292" y="-255.8" font-family="Times,serif" font-size="14.00">%5</text>
</g>
<!-- node6&#45;&gt;node7 -->
<g id="edge1" class="edge">
<title>node6&#45;&gt;node7</title>
<path fill="none" stroke="black" d="M295.29,-195.09C301.76,-180.72 310.83,-160.58 318.08,-144.48"/>
<polygon fill="black" stroke="black" points="321.4,-145.63 322.31,-135.07 315.02,-142.75 321.4,-145.63"/>
<text text-anchor="start" x="310" y="-165.8" font-family="Times,serif" font-size="14.00">%6</text>
</g>
<!-- node7&#45;&gt;node8 -->
<g id="edge8" class="edge">
<title>node7&#45;&gt;node8</title>
<path fill="none" stroke="black" d="M345.91,-98.93C359.61,-84.22 379.58,-62.79 395.19,-46.05"/>
<polygon fill="black" stroke="black" points="397.76,-48.43 402.01,-38.73 392.64,-43.66 397.76,-48.43"/>
<text text-anchor="start" x="382" y="-60.8" font-family="Times,serif" font-size="14.00">%7</text>
</g>
</g>
</svg>
