<?xml version="1.0" encoding="UTF-8" standalone="no"?>
<!DOCTYPE svg PUBLIC "-//W3C//DTD SVG 1.1//EN"
 "http://www.w3.org/Graphics/SVG/1.1/DTD/svg11.dtd">
<!-- Generated by graphviz version 2.43.0 (0)
 -->
<!-- Title: G Pages: 1 -->
<svg width="907pt" height="2156pt"
 viewBox="0.00 0.00 906.50 2156.00" xmlns="http://www.w3.org/2000/svg" xmlns:xlink="http://www.w3.org/1999/xlink">
<g id="graph0" class="graph" transform="scale(1 1) rotate(0) translate(4 2152)">
<title>G</title>
<polygon fill="white" stroke="transparent" points="-4,4 -4,-2152 902.5,-2152 902.5,4 -4,4"/>
<!-- node0 -->
<g id="node1" class="node">
<title>node0</title>
<polygon fill="none" stroke="black" points="754,-743 754,-811 855,-811 855,-743 754,-743"/>
<text text-anchor="start" x="762" y="-795.8" font-family="Times,serif" font-size="14.00">Let l0 =</text>
<text text-anchor="start" x="762" y="-780.8" font-family="Times,serif" font-size="14.00"> Constant ()</text>
<text text-anchor="start" x="762" y="-765.8" font-family="Times,serif" font-size="14.00"> types = ()</text>
<text text-anchor="start" x="762" y="-750.8" font-family="Times,serif" font-size="14.00"> keys = (())</text>
</g>
<!-- node2 -->
<g id="node3" class="node">
<title>node2</title>
<polygon fill="none" stroke="black" points="571,-585.5 571,-668.5 840,-668.5 840,-585.5 571,-585.5"/>
<text text-anchor="start" x="579" y="-653.3" font-family="Times,serif" font-size="14.00">Let l1 =</text>
<text text-anchor="start" x="579" y="-638.3" font-family="Times,serif" font-size="14.00"> Join %0 %1</text>
<text text-anchor="start" x="579" y="-623.3" font-family="Times,serif" font-size="14.00"> implementation = Unimplemented</text>
<text text-anchor="start" x="579" y="-608.3" font-family="Times,serif" font-size="14.00"> types = (integer?, integer?)</text>
<text text-anchor="start" x="579" y="-593.3" font-family="Times,serif" font-size="14.00"> keys = ()</text>
</g>
<!-- node0&#45;&gt;node2 -->
<g id="edge22" class="edge">
<title>node0&#45;&gt;node2</title>
<path fill="none" stroke="black" d="M782.28,-742.79C769.35,-723.45 752.8,-698.71 738.38,-677.15"/>
<polygon fill="black" stroke="black" points="741.23,-675.12 732.76,-668.76 735.41,-679.02 741.23,-675.12"/>
<text text-anchor="start" x="754.5" y="-690.8" font-family="Times,serif" font-size="14.00">%0</text>
</g>
<!-- node1 -->
<g id="node2" class="node">
<title>node1</title>
<polygon fill="none" stroke="black" points="517,-750.5 517,-803.5 736,-803.5 736,-750.5 517,-750.5"/>
<text text-anchor="start" x="525" y="-788.3" font-family="Times,serif" font-size="14.00">Get types.public.t2 (u141)</text>
<text text-anchor="start" x="525" y="-773.3" font-family="Times,serif" font-size="14.00"> types = (integer?, integer?)</text>
<text text-anchor="start" x="525" y="-758.3" font-family="Times,serif" font-size="14.00"> keys = ()</text>
</g>
<!-- node1&#45;&gt;node2 -->
<g id="edge19" class="edge">
<title>node1&#45;&gt;node2</title>
<path fill="none" stroke="black" d="M640.26,-750.22C650.92,-730.25 666.02,-701.97 679,-677.64"/>
<polygon fill="black" stroke="black" points="682.24,-679.01 683.86,-668.54 676.06,-675.71 682.24,-679.01"/>
<text text-anchor="start" x="672.5" y="-690.8" font-family="Times,serif" font-size="14.00">%1</text>
</g>
<!-- node3 -->
<g id="node4" class="node">
<title>node3</title>
<polygon fill="none" stroke="black" points="491,-420.5 491,-533.5 710,-533.5 710,-420.5 491,-420.5"/>
<text text-anchor="start" x="499" y="-518.3" font-family="Times,serif" font-size="14.00">Let l2 =</text>
<text text-anchor="start" x="499" y="-503.3" font-family="Times,serif" font-size="14.00"> Get %2 (l1)</text>
<text text-anchor="start" x="499" y="-488.3" font-family="Times,serif" font-size="14.00"> types = (integer?, integer?)</text>
<text text-anchor="start" x="499" y="-473.3" font-family="Times,serif" font-size="14.00"> keys = ()</text>
<text text-anchor="start" x="499" y="-458.3" font-family="Times,serif" font-size="14.00"> Distinct group=(#0, #1)</text>
<text text-anchor="start" x="499" y="-443.3" font-family="Times,serif" font-size="14.00"> types = (integer?, integer?)</text>
<text text-anchor="start" x="499" y="-428.3" font-family="Times,serif" font-size="14.00"> keys = ((#0, #1))</text>
</g>
<!-- node2&#45;&gt;node3 -->
<g id="edge23" class="edge">
<title>node2&#45;&gt;node3</title>
<path fill="none" stroke="black" d="M676.53,-585.17C667.09,-571.86 656.37,-556.76 646.03,-542.17"/>
<polygon fill="black" stroke="black" points="648.63,-539.79 639.99,-533.66 642.92,-543.84 648.63,-539.79"/>
<text text-anchor="start" x="661.5" y="-555.8" font-family="Times,serif" font-size="14.00">%2</text>
</g>
<!-- node18 -->
<g id="node19" class="node">
<title>node18</title>
<polygon fill="none" stroke="black" points="406.5,-0.5 406.5,-203.5 898.5,-203.5 898.5,-0.5 406.5,-0.5"/>
<text text-anchor="start" x="414.5" y="-188.3" font-family="Times,serif" font-size="14.00">Join %2 %17 (= #0 #2) (= #1 #3)</text>
<text text-anchor="start" x="414.5" y="-173.3" font-family="Times,serif" font-size="14.00"> implementation = Unimplemented</text>
<text text-anchor="start" x="414.5" y="-158.3" font-family="Times,serif" font-size="14.00"> types = (integer?, integer?, integer?, integer?, integer?)</text>
<text text-anchor="start" x="414.5" y="-143.3" font-family="Times,serif" font-size="14.00"> keys = ()</text>
<text text-anchor="start" x="414.5" y="-128.3" font-family="Times,serif" font-size="14.00"> Map #4</text>
<text text-anchor="start" x="414.5" y="-113.3" font-family="Times,serif" font-size="14.00"> types = (integer?, integer?, integer?, integer?, integer?, integer?)</text>
<text text-anchor="start" x="414.5" y="-98.3" font-family="Times,serif" font-size="14.00"> keys = ()</text>
<text text-anchor="start" x="414.5" y="-83.3" font-family="Times,serif" font-size="14.00"> Project (#0, #1, #5)</text>
<text text-anchor="start" x="414.5" y="-68.3" font-family="Times,serif" font-size="14.00"> types = (integer?, integer?, integer?)</text>
<text text-anchor="start" x="414.5" y="-53.3" font-family="Times,serif" font-size="14.00"> keys = ()</text>
<text text-anchor="start" x="414.5" y="-38.3" font-family="Times,serif" font-size="14.00"> Project (#2)</text>
<text text-anchor="start" x="414.5" y="-23.3" font-family="Times,serif" font-size="14.00"> types = (integer?)</text>
<text text-anchor="start" x="414.5" y="-8.3" font-family="Times,serif" font-size="14.00"> keys = ()</text>
</g>
<!-- node2&#45;&gt;node18 -->
<g id="edge11" class="edge">
<title>node2&#45;&gt;node18</title>
<path fill="none" stroke="black" d="M713.42,-585.38C725.42,-516.54 744.34,-372.94 719.5,-255 716.58,-241.13 712.31,-226.98 707.32,-213.17"/>
<polygon fill="black" stroke="black" points="710.54,-211.81 703.75,-203.67 703.99,-214.27 710.54,-211.81"/>
<text text-anchor="start" x="731.5" y="-390.8" font-family="Times,serif" font-size="14.00">%2</text>
</g>
<!-- node17 -->
<g id="node18" class="node">
<title>node17</title>
<polygon fill="none" stroke="black" points="423,-255.5 423,-368.5 710,-368.5 710,-255.5 423,-255.5"/>
<text text-anchor="start" x="431" y="-353.3" font-family="Times,serif" font-size="14.00">Join %3 %16</text>
<text text-anchor="start" x="431" y="-338.3" font-family="Times,serif" font-size="14.00"> implementation = Unimplemented</text>
<text text-anchor="start" x="431" y="-323.3" font-family="Times,serif" font-size="14.00"> types = (integer?, integer?, integer?)</text>
<text text-anchor="start" x="431" y="-308.3" font-family="Times,serif" font-size="14.00"> keys = ()</text>
<text text-anchor="start" x="431" y="-293.3" font-family="Times,serif" font-size="14.00"> Project (#0..=#2)</text>
<text text-anchor="start" x="431" y="-278.3" font-family="Times,serif" font-size="14.00"> types = (integer?, integer?, integer?)</text>
<text text-anchor="start" x="431" y="-263.3" font-family="Times,serif" font-size="14.00"> keys = ()</text>
</g>
<!-- node3&#45;&gt;node17 -->
<g id="edge10" class="edge">
<title>node3&#45;&gt;node17</title>
<path fill="none" stroke="black" d="M588.89,-420.36C586.09,-406.93 583.07,-392.45 580.19,-378.61"/>
<polygon fill="black" stroke="black" points="583.58,-377.74 578.11,-368.67 576.73,-379.17 583.58,-377.74"/>
<text text-anchor="start" x="585.5" y="-390.8" font-family="Times,serif" font-size="14.00">%3</text>
</g>
<!-- node4 -->
<g id="node5" class="node">
<title>node4</title>
<polygon fill="none" stroke="black" points="243,-2079.5 243,-2147.5 344,-2147.5 344,-2079.5 243,-2079.5"/>
<text text-anchor="start" x="251" y="-2132.3" font-family="Times,serif" font-size="14.00">Let l3 =</text>
<text text-anchor="start" x="251" y="-2117.3" font-family="Times,serif" font-size="14.00"> Constant ()</text>
<text text-anchor="start" x="251" y="-2102.3" font-family="Times,serif" font-size="14.00"> types = ()</text>
<text text-anchor="start" x="251" y="-2087.3" font-family="Times,serif" font-size="14.00"> keys = (())</text>
</g>
<!-- node6 -->
<g id="node7" class="node">
<title>node6</title>
<polygon fill="none" stroke="black" points="343,-1944.5 343,-2027.5 612,-2027.5 612,-1944.5 343,-1944.5"/>
<text text-anchor="start" x="351" y="-2012.3" font-family="Times,serif" font-size="14.00">Let l4 =</text>
<text text-anchor="start" x="351" y="-1997.3" font-family="Times,serif" font-size="14.00"> Join %4 %5</text>
<text text-anchor="start" x="351" y="-1982.3" font-family="Times,serif" font-size="14.00"> implementation = Unimplemented</text>
<text text-anchor="start" x="351" y="-1967.3" font-family="Times,serif" font-size="14.00"> types = (integer?, integer)</text>
<text text-anchor="start" x="351" y="-1952.3" font-family="Times,serif" font-size="14.00"> keys = ()</text>
</g>
<!-- node4&#45;&gt;node6 -->
<g id="edge4" class="edge">
<title>node4&#45;&gt;node6</title>
<path fill="none" stroke="black" d="M342.33,-2079.2C362.91,-2065.16 387.21,-2048.58 409.5,-2033.38"/>
<polygon fill="black" stroke="black" points="411.64,-2036.15 417.93,-2027.63 407.7,-2030.37 411.64,-2036.15"/>
<text text-anchor="start" x="385.5" y="-2049.8" font-family="Times,serif" font-size="14.00">%4</text>
</g>
<!-- node11 -->
<g id="node12" class="node">
<title>node11</title>
<polygon fill="none" stroke="black" points="220.5,-1827.5 220.5,-1925.5 366.5,-1925.5 366.5,-1827.5 220.5,-1827.5"/>
<text text-anchor="start" x="228.5" y="-1910.3" font-family="Times,serif" font-size="14.00">Get %4 (l3)</text>
<text text-anchor="start" x="228.5" y="-1895.3" font-family="Times,serif" font-size="14.00"> types = ()</text>
<text text-anchor="start" x="228.5" y="-1880.3" font-family="Times,serif" font-size="14.00"> keys = (())</text>
<text text-anchor="start" x="228.5" y="-1865.3" font-family="Times,serif" font-size="14.00"> Distinct group=()</text>
<text text-anchor="start" x="228.5" y="-1850.3" font-family="Times,serif" font-size="14.00"> types = ()</text>
<text text-anchor="start" x="228.5" y="-1835.3" font-family="Times,serif" font-size="14.00"> keys = (())</text>
</g>
<!-- node4&#45;&gt;node11 -->
<g id="edge13" class="edge">
<title>node4&#45;&gt;node11</title>
<path fill="none" stroke="black" d="M293.5,-2079.33C293.5,-2042.12 293.5,-1981.07 293.5,-1935.84"/>
<polygon fill="black" stroke="black" points="297,-1935.58 293.5,-1925.58 290,-1935.58 297,-1935.58"/>
<text text-anchor="start" x="293.5" y="-2049.8" font-family="Times,serif" font-size="14.00">%4</text>
</g>
<!-- node13 -->
<g id="node14" class="node">
<title>node13</title>
<polygon fill="none" stroke="black" points="169,-720.5 169,-833.5 438,-833.5 438,-720.5 169,-720.5"/>
<text text-anchor="start" x="177" y="-818.3" font-family="Times,serif" font-size="14.00">Join %12 %4</text>
<text text-anchor="start" x="177" y="-803.3" font-family="Times,serif" font-size="14.00"> implementation = Unimplemented</text>
<text text-anchor="start" x="177" y="-788.3" font-family="Times,serif" font-size="14.00"> types = ()</text>
<text text-anchor="start" x="177" y="-773.3" font-family="Times,serif" font-size="14.00"> keys = ()</text>
<text text-anchor="start" x="177" y="-758.3" font-family="Times,serif" font-size="14.00"> Project ()</text>
<text text-anchor="start" x="177" y="-743.3" font-family="Times,serif" font-size="14.00"> types = ()</text>
<text text-anchor="start" x="177" y="-728.3" font-family="Times,serif" font-size="14.00"> keys = ()</text>
</g>
<!-- node4&#45;&gt;node13 -->
<g id="edge15" class="edge">
<title>node4&#45;&gt;node13</title>
<path fill="none" stroke="black" d="M253.62,-2079.48C230.34,-2056.35 205.5,-2023.19 205.5,-1987 205.5,-1987 205.5,-1987 205.5,-911 205.5,-885.55 217.27,-861.77 232.65,-841.55"/>
<polygon fill="black" stroke="black" points="235.43,-843.69 238.95,-833.7 229.97,-839.31 235.43,-843.69"/>
<text text-anchor="start" x="205.5" y="-1275.8" font-family="Times,serif" font-size="14.00">%4</text>
</g>
<!-- node5 -->
<g id="node6" class="node">
<title>node5</title>
<polygon fill="none" stroke="black" points="371.5,-2087 371.5,-2140 583.5,-2140 583.5,-2087 371.5,-2087"/>
<text text-anchor="start" x="379.5" y="-2124.8" font-family="Times,serif" font-size="14.00">Get types.public.t1 (u139)</text>
<text text-anchor="start" x="379.5" y="-2109.8" font-family="Times,serif" font-size="14.00"> types = (integer?, integer)</text>
<text text-anchor="start" x="379.5" y="-2094.8" font-family="Times,serif" font-size="14.00"> keys = ()</text>
</g>
<!-- node5&#45;&gt;node6 -->
<g id="edge16" class="edge">
<title>node5&#45;&gt;node6</title>
<path fill="none" stroke="black" d="M477.5,-2086.8C477.5,-2072.79 477.5,-2054.93 477.5,-2038.2"/>
<polygon fill="black" stroke="black" points="481,-2037.98 477.5,-2027.98 474,-2037.98 481,-2037.98"/>
<text text-anchor="start" x="477.5" y="-2049.8" font-family="Times,serif" font-size="14.00">%5</text>
</g>
<!-- node7 -->
<g id="node8" class="node">
<title>node7</title>
<polygon fill="none" stroke="black" points="351,-1605.5 351,-1808.5 622,-1808.5 622,-1605.5 351,-1605.5"/>
<text text-anchor="start" x="359" y="-1793.3" font-family="Times,serif" font-size="14.00">Let l5 =</text>
<text text-anchor="start" x="359" y="-1778.3" font-family="Times,serif" font-size="14.00"> Get %6 (l4)</text>
<text text-anchor="start" x="359" y="-1763.3" font-family="Times,serif" font-size="14.00"> types = (integer?, integer)</text>
<text text-anchor="start" x="359" y="-1748.3" font-family="Times,serif" font-size="14.00"> keys = ()</text>
<text text-anchor="start" x="359" y="-1733.3" font-family="Times,serif" font-size="14.00"> Map 1</text>
<text text-anchor="start" x="359" y="-1718.3" font-family="Times,serif" font-size="14.00"> types = (integer?, integer, integer)</text>
<text text-anchor="start" x="359" y="-1703.3" font-family="Times,serif" font-size="14.00"> keys = ()</text>
<text text-anchor="start" x="359" y="-1688.3" font-family="Times,serif" font-size="14.00"> Project (#0..=#2)</text>
<text text-anchor="start" x="359" y="-1673.3" font-family="Times,serif" font-size="14.00"> types = (integer?, integer, integer)</text>
<text text-anchor="start" x="359" y="-1658.3" font-family="Times,serif" font-size="14.00"> keys = ()</text>
<text text-anchor="start" x="359" y="-1643.3" font-family="Times,serif" font-size="14.00"> Project (#2)</text>
<text text-anchor="start" x="359" y="-1628.3" font-family="Times,serif" font-size="14.00"> types = (integer)</text>
<text text-anchor="start" x="359" y="-1613.3" font-family="Times,serif" font-size="14.00"> keys = ()</text>
</g>
<!-- node6&#45;&gt;node7 -->
<g id="edge8" class="edge">
<title>node6&#45;&gt;node7</title>
<path fill="none" stroke="black" d="M478.82,-1944.43C479.89,-1911.31 481.47,-1862.92 482.91,-1818.52"/>
<polygon fill="black" stroke="black" points="486.41,-1818.63 483.23,-1808.53 479.41,-1818.41 486.41,-1818.63"/>
<text text-anchor="start" x="483.5" y="-1872.8" font-family="Times,serif" font-size="14.00">%6</text>
</g>
<!-- node8 -->
<g id="node9" class="node">
<title>node8</title>
<polygon fill="none" stroke="black" points="280,-1305.5 280,-1553.5 693,-1553.5 693,-1305.5 280,-1305.5"/>
<text text-anchor="start" x="288" y="-1538.3" font-family="Times,serif" font-size="14.00">Get %7 (l5)</text>
<text text-anchor="start" x="288" y="-1523.3" font-family="Times,serif" font-size="14.00"> types = (integer)</text>
<text text-anchor="start" x="288" y="-1508.3" font-family="Times,serif" font-size="14.00"> keys = ()</text>
<text text-anchor="start" x="288" y="-1493.3" font-family="Times,serif" font-size="14.00"> Reduce group=()</text>
<text text-anchor="start" x="288" y="-1478.3" font-family="Times,serif" font-size="14.00"> agg count(true)</text>
<text text-anchor="start" x="288" y="-1463.3" font-family="Times,serif" font-size="14.00"> types = (bigint)</text>
<text text-anchor="start" x="288" y="-1448.3" font-family="Times,serif" font-size="14.00"> keys = (())</text>
<text text-anchor="start" x="288" y="-1433.3" font-family="Times,serif" font-size="14.00"> Filter (#0 &gt; 1)</text>
<text text-anchor="start" x="288" y="-1418.3" font-family="Times,serif" font-size="14.00"> types = (bigint)</text>
<text text-anchor="start" x="288" y="-1403.3" font-family="Times,serif" font-size="14.00"> keys = (())</text>
<text text-anchor="start" x="288" y="-1388.3" font-family="Times,serif" font-size="14.00"> Project ()</text>
<text text-anchor="start" x="288" y="-1373.3" font-family="Times,serif" font-size="14.00"> types = ()</text>
<text text-anchor="start" x="288" y="-1358.3" font-family="Times,serif" font-size="14.00"> keys = (())</text>
<text text-anchor="start" x="288" y="-1343.3" font-family="Times,serif" font-size="14.00"> Map (err: more than one record produced in subquery)</text>
<text text-anchor="start" x="288" y="-1328.3" font-family="Times,serif" font-size="14.00"> types = (integer)</text>
<text text-anchor="start" x="288" y="-1313.3" font-family="Times,serif" font-size="14.00"> keys = (())</text>
</g>
<!-- node7&#45;&gt;node8 -->
<g id="edge7" class="edge">
<title>node7&#45;&gt;node8</title>
<path fill="none" stroke="black" d="M486.5,-1605.37C486.5,-1591.89 486.5,-1577.89 486.5,-1563.96"/>
<polygon fill="black" stroke="black" points="490,-1563.83 486.5,-1553.83 483,-1563.83 490,-1563.83"/>
<text text-anchor="start" x="486.5" y="-1575.8" font-family="Times,serif" font-size="14.00">%7</text>
</g>
<!-- node9 -->
<g id="node10" class="node">
<title>node9</title>
<polygon fill="none" stroke="black" points="406,-1185.5 406,-1253.5 549,-1253.5 549,-1185.5 406,-1185.5"/>
<text text-anchor="start" x="414" y="-1238.3" font-family="Times,serif" font-size="14.00">Let l6 =</text>
<text text-anchor="start" x="414" y="-1223.3" font-family="Times,serif" font-size="14.00"> Union %7 %8</text>
<text text-anchor="start" x="414" y="-1208.3" font-family="Times,serif" font-size="14.00"> types = (integer)</text>
<text text-anchor="start" x="414" y="-1193.3" font-family="Times,serif" font-size="14.00"> keys = ()</text>
</g>
<!-- node7&#45;&gt;node9 -->
<g id="edge14" class="edge">
<title>node7&#45;&gt;node9</title>
<path fill="none" stroke="black" d="M622.28,-1639.84C654.35,-1617.31 684.44,-1588.8 702.5,-1554 753.49,-1455.78 765.51,-1395.98 702.5,-1305 670.37,-1258.61 609.4,-1237.65 559.02,-1228.2"/>
<polygon fill="black" stroke="black" points="559.55,-1224.74 549.1,-1226.46 558.34,-1231.64 559.55,-1224.74"/>
<text text-anchor="start" x="744.5" y="-1425.8" font-family="Times,serif" font-size="14.00">%7</text>
</g>
<!-- node8&#45;&gt;node9 -->
<g id="edge1" class="edge">
<title>node8&#45;&gt;node9</title>
<path fill="none" stroke="black" d="M481.17,-1305.4C480.53,-1290.6 479.92,-1276.33 479.38,-1263.85"/>
<polygon fill="black" stroke="black" points="482.87,-1263.66 478.94,-1253.82 475.88,-1263.96 482.87,-1263.66"/>
<text text-anchor="start" x="480.5" y="-1275.8" font-family="Times,serif" font-size="14.00">%8</text>
</g>
<!-- node10 -->
<g id="node11" class="node">
<title>node10</title>
<polygon fill="none" stroke="black" points="287.5,-990.5 287.5,-1133.5 433.5,-1133.5 433.5,-990.5 287.5,-990.5"/>
<text text-anchor="start" x="295.5" y="-1118.3" font-family="Times,serif" font-size="14.00">Get %9 (l6)</text>
<text text-anchor="start" x="295.5" y="-1103.3" font-family="Times,serif" font-size="14.00"> types = (integer)</text>
<text text-anchor="start" x="295.5" y="-1088.3" font-family="Times,serif" font-size="14.00"> keys = ()</text>
<text text-anchor="start" x="295.5" y="-1073.3" font-family="Times,serif" font-size="14.00"> Distinct group=()</text>
<text text-anchor="start" x="295.5" y="-1058.3" font-family="Times,serif" font-size="14.00"> types = ()</text>
<text text-anchor="start" x="295.5" y="-1043.3" font-family="Times,serif" font-size="14.00"> keys = (())</text>
<text text-anchor="start" x="295.5" y="-1028.3" font-family="Times,serif" font-size="14.00"> Negate</text>
<text text-anchor="start" x="295.5" y="-1013.3" font-family="Times,serif" font-size="14.00"> types = ()</text>
<text text-anchor="start" x="295.5" y="-998.3" font-family="Times,serif" font-size="14.00"> keys = ()</text>
</g>
<!-- node9&#45;&gt;node10 -->
<g id="edge12" class="edge">
<title>node9&#45;&gt;node10</title>
<path fill="none" stroke="black" d="M452.4,-1185.14C442.74,-1172.3 431.25,-1157.03 419.72,-1141.7"/>
<polygon fill="black" stroke="black" points="422.5,-1139.58 413.69,-1133.7 416.91,-1143.79 422.5,-1139.58"/>
<text text-anchor="start" x="436.5" y="-1155.8" font-family="Times,serif" font-size="14.00">%9</text>
</g>
<!-- node16 -->
<g id="node17" class="node">
<title>node16</title>
<polygon fill="none" stroke="black" points="322,-450.5 322,-503.5 473,-503.5 473,-450.5 322,-450.5"/>
<text text-anchor="start" x="330" y="-488.3" font-family="Times,serif" font-size="14.00">Union %9 %15</text>
<text text-anchor="start" x="330" y="-473.3" font-family="Times,serif" font-size="14.00"> types = (integer?)</text>
<text text-anchor="start" x="330" y="-458.3" font-family="Times,serif" font-size="14.00"> keys = ()</text>
</g>
<!-- node9&#45;&gt;node16 -->
<g id="edge21" class="edge">
<title>node9&#45;&gt;node16</title>
<path fill="none" stroke="black" d="M477.16,-1185.44C476.87,-1153.96 476.5,-1105.25 476.5,-1063 476.5,-1063 476.5,-1063 476.5,-626 476.5,-582.79 449.97,-539.96 427.66,-511.58"/>
<polygon fill="black" stroke="black" points="430.22,-509.18 421.2,-503.61 424.78,-513.58 430.22,-509.18"/>
<text text-anchor="start" x="476.5" y="-855.8" font-family="Times,serif" font-size="14.00">%9</text>
</g>
<!-- node12 -->
<g id="node13" class="node">
<title>node12</title>
<polygon fill="none" stroke="black" points="238,-885.5 238,-938.5 369,-938.5 369,-885.5 238,-885.5"/>
<text text-anchor="start" x="246" y="-923.3" font-family="Times,serif" font-size="14.00">Union %10 %11</text>
<text text-anchor="start" x="246" y="-908.3" font-family="Times,serif" font-size="14.00"> types = ()</text>
<text text-anchor="start" x="246" y="-893.3" font-family="Times,serif" font-size="14.00"> keys = ()</text>
</g>
<!-- node10&#45;&gt;node12 -->
<g id="edge5" class="edge">
<title>node10&#45;&gt;node12</title>
<path fill="none" stroke="black" d="M333.34,-990.47C327.72,-975.9 322.04,-961.15 317.17,-948.49"/>
<polygon fill="black" stroke="black" points="320.31,-946.9 313.44,-938.82 313.77,-949.41 320.31,-946.9"/>
<text text-anchor="start" x="325.5" y="-960.8" font-family="Times,serif" font-size="14.00">%10</text>
</g>
<!-- node11&#45;&gt;node12 -->
<g id="edge3" class="edge">
<title>node11&#45;&gt;node12</title>
<path fill="none" stroke="black" d="M282.36,-1827.25C269.91,-1769.08 251.5,-1668.19 251.5,-1580.5 251.5,-1580.5 251.5,-1580.5 251.5,-1061 251.5,-1020.33 269.2,-976.74 283.94,-947.49"/>
<polygon fill="black" stroke="black" points="287.1,-949 288.6,-938.51 280.89,-945.78 287.1,-949"/>
<text text-anchor="start" x="251.5" y="-1275.8" font-family="Times,serif" font-size="14.00">%11</text>
</g>
<!-- node12&#45;&gt;node13 -->
<g id="edge6" class="edge">
<title>node12&#45;&gt;node13</title>
<path fill="none" stroke="black" d="M303.5,-885.36C303.5,-873.4 303.5,-858.56 303.5,-843.77"/>
<polygon fill="black" stroke="black" points="307,-843.57 303.5,-833.57 300,-843.57 307,-843.57"/>
<text text-anchor="start" x="303.5" y="-855.8" font-family="Times,serif" font-size="14.00">%12</text>
</g>
<!-- node15 -->
<g id="node16" class="node">
<title>node15</title>
<polygon fill="none" stroke="black" points="169,-593 169,-661 438,-661 438,-593 169,-593"/>
<text text-anchor="start" x="177" y="-645.8" font-family="Times,serif" font-size="14.00">Join %13 %14</text>
<text text-anchor="start" x="177" y="-630.8" font-family="Times,serif" font-size="14.00"> implementation = Unimplemented</text>
<text text-anchor="start" x="177" y="-615.8" font-family="Times,serif" font-size="14.00"> types = (integer?)</text>
<text text-anchor="start" x="177" y="-600.8" font-family="Times,serif" font-size="14.00"> keys = ()</text>
</g>
<!-- node13&#45;&gt;node15 -->
<g id="edge2" class="edge">
<title>node13&#45;&gt;node15</title>
<path fill="none" stroke="black" d="M303.5,-720.47C303.5,-704.21 303.5,-686.68 303.5,-671.3"/>
<polygon fill="black" stroke="black" points="307,-671.03 303.5,-661.03 300,-671.03 307,-671.03"/>
<text text-anchor="start" x="303.5" y="-690.8" font-family="Times,serif" font-size="14.00">%13</text>
</g>
<!-- node14 -->
<g id="node15" class="node">
<title>node14</title>
<polygon fill="none" stroke="black" points="0,-750.5 0,-803.5 151,-803.5 151,-750.5 0,-750.5"/>
<text text-anchor="start" x="8" y="-788.3" font-family="Times,serif" font-size="14.00">Constant (null)</text>
<text text-anchor="start" x="8" y="-773.3" font-family="Times,serif" font-size="14.00"> types = (integer?)</text>
<text text-anchor="start" x="8" y="-758.3" font-family="Times,serif" font-size="14.00"> keys = (())</text>
</g>
<!-- node14&#45;&gt;node15 -->
<g id="edge9" class="edge">
<title>node14&#45;&gt;node15</title>
<path fill="none" stroke="black" d="M113.45,-750.47C127.83,-740.86 144.38,-729.87 159.5,-720 186.62,-702.3 216.79,-682.97 242.49,-666.61"/>
<polygon fill="black" stroke="black" points="244.46,-669.51 251.02,-661.19 240.7,-663.6 244.46,-669.51"/>
<text text-anchor="start" x="207.5" y="-690.8" font-family="Times,serif" font-size="14.00">%14</text>
</g>
<!-- node15&#45;&gt;node16 -->
<g id="edge18" class="edge">
<title>node15&#45;&gt;node16</title>
<path fill="none" stroke="black" d="M324.6,-592.79C339.83,-568.8 360.34,-536.5 375.73,-512.28"/>
<polygon fill="black" stroke="black" points="378.74,-514.06 381.15,-503.75 372.83,-510.31 378.74,-514.06"/>
<text text-anchor="start" x="350.5" y="-555.8" font-family="Times,serif" font-size="14.00">%15</text>
</g>
<!-- node16&#45;&gt;node17 -->
<g id="edge20" class="edge">
<title>node16&#45;&gt;node17</title>
<path fill="none" stroke="black" d="M424.28,-450.17C444.95,-430.23 474.45,-401.78 501.23,-375.95"/>
<polygon fill="black" stroke="black" points="503.94,-378.2 508.71,-368.74 499.08,-373.16 503.94,-378.2"/>
<text text-anchor="start" x="487.5" y="-390.8" font-family="Times,serif" font-size="14.00">%16</text>
</g>
<!-- node17&#45;&gt;node18 -->
<g id="edge17" class="edge">
<title>node17&#45;&gt;node18</title>
<path fill="none" stroke="black" d="M589.55,-255.26C594.93,-242.23 600.86,-227.9 606.85,-213.41"/>
<polygon fill="black" stroke="black" points="610.21,-214.45 610.8,-203.87 603.74,-211.77 610.21,-214.45"/>
<text text-anchor="start" x="602.5" y="-225.8" font-family="Times,serif" font-size="14.00">%17</text>
</g>
</g>
</svg>
