<?xml version="1.0" encoding="UTF-8" standalone="no"?>
<!DOCTYPE svg PUBLIC "-//W3C//DTD SVG 1.1//EN"
 "http://www.w3.org/Graphics/SVG/1.1/DTD/svg11.dtd">
<!-- Generated by graphviz version 2.43.0 (0)
 -->
<!-- Title: G Pages: 1 -->
<svg width="295pt" height="419pt"
 viewBox="0.00 0.00 295.00 419.00" xmlns="http://www.w3.org/2000/svg" xmlns:xlink="http://www.w3.org/1999/xlink">
<g id="graph0" class="graph" transform="scale(1 1) rotate(0) translate(4 415)">
<title>G</title>
<polygon fill="white" stroke="transparent" points="-4,4 -4,-415 291,-415 291,4 -4,4"/>
<!-- node0 -->
<g id="node1" class="node">
<title>node0</title>
<polygon fill="none" stroke="black" points="0,-0.5 0,-323.5 287,-323.5 287,-0.5 0,-0.5"/>
<text text-anchor="start" x="8" y="-308.3" font-family="Times,serif" font-size="14.00">Get types.public.t2 (u141)</text>
<text text-anchor="start" x="8" y="-293.3" font-family="Times,serif" font-size="14.00"> types = (integer?, integer?)</text>
<text text-anchor="start" x="8" y="-278.3" font-family="Times,serif" font-size="14.00"> keys = ()</text>
<text text-anchor="start" x="8" y="-263.3" font-family="Times,serif" font-size="14.00"> Map select(%1)</text>
<text text-anchor="start" x="8" y="-248.3" font-family="Times,serif" font-size="14.00"> types = (integer?, integer?, integer?)</text>
<text text-anchor="start" x="8" y="-233.3" font-family="Times,serif" font-size="14.00"> keys = ()</text>
<text text-anchor="start" x="8" y="-218.3" font-family="Times,serif" font-size="14.00"> </text>
<text text-anchor="start" x="8" y="-203.3" font-family="Times,serif" font-size="14.00"> %1 =</text>
<text text-anchor="start" x="8" y="-188.3" font-family="Times,serif" font-size="14.00"> Get types.public.t1 (u139)</text>
<text text-anchor="start" x="8" y="-173.3" font-family="Times,serif" font-size="14.00"> types = (integer?, integer)</text>
<text text-anchor="start" x="8" y="-158.3" font-family="Times,serif" font-size="14.00"> keys = ()</text>
<text text-anchor="start" x="8" y="-143.3" font-family="Times,serif" font-size="14.00"> Map 1</text>
<text text-anchor="start" x="8" y="-128.3" font-family="Times,serif" font-size="14.00"> types = (integer?, integer, integer)</text>
<text text-anchor="start" x="8" y="-113.3" font-family="Times,serif" font-size="14.00"> keys = ()</text>
<text text-anchor="start" x="8" y="-98.3" font-family="Times,serif" font-size="14.00"> Project (#2)</text>
<text text-anchor="start" x="8" y="-83.3" font-family="Times,serif" font-size="14.00"> types = (integer)</text>
<text text-anchor="start" x="8" y="-68.3" font-family="Times,serif" font-size="14.00"> keys = ()</text>
<text text-anchor="start" x="8" y="-53.3" font-family="Times,serif" font-size="14.00"> </text>
<text text-anchor="start" x="8" y="-38.3" font-family="Times,serif" font-size="14.00"> Project (#2)</text>
<text text-anchor="start" x="8" y="-23.3" font-family="Times,serif" font-size="14.00"> types = (integer?)</text>
<text text-anchor="start" x="8" y="-8.3" font-family="Times,serif" font-size="14.00"> keys = ()</text>
</g>
<!-- node1 -->
<g id="node2" class="node">
<title>node1</title>
<ellipse fill="none" stroke="black" cx="143.5" cy="-393" rx="38.99" ry="18"/>
<text text-anchor="middle" x="143.5" y="-389.3" font-family="Times,serif" font-size="14.00">node1</text>
</g>
<!-- node1&#45;&gt;node0 -->
<g id="edge1" class="edge">
<title>node1&#45;&gt;node0</title>
<path fill="none" stroke="black" d="M143.5,-374.79C143.5,-364.49 143.5,-350.27 143.5,-334.01"/>
<polygon fill="black" stroke="black" points="147,-333.65 143.5,-323.65 140,-333.65 147,-333.65"/>
<text text-anchor="start" x="143.5" y="-345.8" font-family="Times,serif" font-size="14.00">%1</text>
</g>
</g>
</svg>
