<?xml version="1.0" encoding="UTF-8" standalone="no"?>
<!DOCTYPE svg PUBLIC "-//W3C//DTD SVG 1.1//EN"
 "http://www.w3.org/Graphics/SVG/1.1/DTD/svg11.dtd">
<!-- Generated by graphviz version 2.43.0 (0)
 -->
<!-- Title: G Pages: 1 -->
<svg width="710pt" height="1127pt"
 viewBox="0.00 0.00 710.00 1127.00" xmlns="http://www.w3.org/2000/svg" xmlns:xlink="http://www.w3.org/1999/xlink">
<g id="graph0" class="graph" transform="scale(1 1) rotate(0) translate(4 1123)">
<title>G</title>
<polygon fill="white" stroke="transparent" points="-4,4 -4,-1123 706,-1123 706,4 -4,4"/>
<!-- node0 -->
<g id="node1" class="node">
<title>node0</title>
<polygon fill="none" stroke="black" points="0,-900.5 0,-1043.5 271,-1043.5 271,-900.5 0,-900.5"/>
<text text-anchor="start" x="8" y="-1028.3" font-family="Times,serif" font-size="14.00">Get types.public.t1 (u139)</text>
<text text-anchor="start" x="8" y="-1013.3" font-family="Times,serif" font-size="14.00"> types = (integer?, integer)</text>
<text text-anchor="start" x="8" y="-998.3" font-family="Times,serif" font-size="14.00"> keys = ()</text>
<text text-anchor="start" x="8" y="-983.3" font-family="Times,serif" font-size="14.00"> Map 1</text>
<text text-anchor="start" x="8" y="-968.3" font-family="Times,serif" font-size="14.00"> types = (integer?, integer, integer)</text>
<text text-anchor="start" x="8" y="-953.3" font-family="Times,serif" font-size="14.00"> keys = ()</text>
<text text-anchor="start" x="8" y="-938.3" font-family="Times,serif" font-size="14.00"> Project (#2)</text>
<text text-anchor="start" x="8" y="-923.3" font-family="Times,serif" font-size="14.00"> types = (integer)</text>
<text text-anchor="start" x="8" y="-908.3" font-family="Times,serif" font-size="14.00"> keys = ()</text>
</g>
<!-- node2 -->
<g id="node3" class="node">
<title>node2</title>
<polygon fill="none" stroke="black" points="244,-705.5 244,-773.5 387,-773.5 387,-705.5 244,-705.5"/>
<text text-anchor="start" x="252" y="-758.3" font-family="Times,serif" font-size="14.00">Let l0 =</text>
<text text-anchor="start" x="252" y="-743.3" font-family="Times,serif" font-size="14.00"> Union %0 %1</text>
<text text-anchor="start" x="252" y="-728.3" font-family="Times,serif" font-size="14.00"> types = (integer)</text>
<text text-anchor="start" x="252" y="-713.3" font-family="Times,serif" font-size="14.00"> keys = ()</text>
</g>
<!-- node0&#45;&gt;node2 -->
<g id="edge9" class="edge">
<title>node0&#45;&gt;node2</title>
<path fill="none" stroke="black" d="M190.73,-900.28C221.02,-861.48 257.53,-814.73 283.21,-781.85"/>
<polygon fill="black" stroke="black" points="286.09,-783.84 289.49,-773.81 280.58,-779.54 286.09,-783.84"/>
<text text-anchor="start" x="272.5" y="-795.8" font-family="Times,serif" font-size="14.00">%0</text>
</g>
<!-- node1 -->
<g id="node2" class="node">
<title>node1</title>
<polygon fill="none" stroke="black" points="289,-825.5 289,-1118.5 702,-1118.5 702,-825.5 289,-825.5"/>
<text text-anchor="start" x="297" y="-1103.3" font-family="Times,serif" font-size="14.00">Get types.public.t1 (u139)</text>
<text text-anchor="start" x="297" y="-1088.3" font-family="Times,serif" font-size="14.00"> types = (integer?, integer)</text>
<text text-anchor="start" x="297" y="-1073.3" font-family="Times,serif" font-size="14.00"> keys = ()</text>
<text text-anchor="start" x="297" y="-1058.3" font-family="Times,serif" font-size="14.00"> Project ()</text>
<text text-anchor="start" x="297" y="-1043.3" font-family="Times,serif" font-size="14.00"> types = ()</text>
<text text-anchor="start" x="297" y="-1028.3" font-family="Times,serif" font-size="14.00"> keys = ()</text>
<text text-anchor="start" x="297" y="-1013.3" font-family="Times,serif" font-size="14.00"> Reduce group=()</text>
<text text-anchor="start" x="297" y="-998.3" font-family="Times,serif" font-size="14.00"> agg count(true)</text>
<text text-anchor="start" x="297" y="-983.3" font-family="Times,serif" font-size="14.00"> types = (bigint)</text>
<text text-anchor="start" x="297" y="-968.3" font-family="Times,serif" font-size="14.00"> keys = (())</text>
<text text-anchor="start" x="297" y="-953.3" font-family="Times,serif" font-size="14.00"> Filter (#0 &gt; 1)</text>
<text text-anchor="start" x="297" y="-938.3" font-family="Times,serif" font-size="14.00"> types = (bigint)</text>
<text text-anchor="start" x="297" y="-923.3" font-family="Times,serif" font-size="14.00"> keys = (())</text>
<text text-anchor="start" x="297" y="-908.3" font-family="Times,serif" font-size="14.00"> Project ()</text>
<text text-anchor="start" x="297" y="-893.3" font-family="Times,serif" font-size="14.00"> types = ()</text>
<text text-anchor="start" x="297" y="-878.3" font-family="Times,serif" font-size="14.00"> keys = (())</text>
<text text-anchor="start" x="297" y="-863.3" font-family="Times,serif" font-size="14.00"> Map (err: more than one record produced in subquery)</text>
<text text-anchor="start" x="297" y="-848.3" font-family="Times,serif" font-size="14.00"> types = (integer)</text>
<text text-anchor="start" x="297" y="-833.3" font-family="Times,serif" font-size="14.00"> keys = (())</text>
</g>
<!-- node1&#45;&gt;node2 -->
<g id="edge2" class="edge">
<title>node1&#45;&gt;node2</title>
<path fill="none" stroke="black" d="M381.76,-825.35C369.47,-809.61 357.82,-794.7 347.82,-781.88"/>
<polygon fill="black" stroke="black" points="350.4,-779.51 341.49,-773.78 344.88,-783.81 350.4,-779.51"/>
<text text-anchor="start" x="364.5" y="-795.8" font-family="Times,serif" font-size="14.00">%1</text>
</g>
<!-- node4 -->
<g id="node5" class="node">
<title>node4</title>
<polygon fill="none" stroke="black" points="134.5,-465.5 134.5,-653.5 280.5,-653.5 280.5,-465.5 134.5,-465.5"/>
<text text-anchor="start" x="142.5" y="-638.3" font-family="Times,serif" font-size="14.00">Get %2 (l0)</text>
<text text-anchor="start" x="142.5" y="-623.3" font-family="Times,serif" font-size="14.00"> types = (integer)</text>
<text text-anchor="start" x="142.5" y="-608.3" font-family="Times,serif" font-size="14.00"> keys = ()</text>
<text text-anchor="start" x="142.5" y="-593.3" font-family="Times,serif" font-size="14.00"> Project ()</text>
<text text-anchor="start" x="142.5" y="-578.3" font-family="Times,serif" font-size="14.00"> types = ()</text>
<text text-anchor="start" x="142.5" y="-563.3" font-family="Times,serif" font-size="14.00"> keys = ()</text>
<text text-anchor="start" x="142.5" y="-548.3" font-family="Times,serif" font-size="14.00"> Distinct group=()</text>
<text text-anchor="start" x="142.5" y="-533.3" font-family="Times,serif" font-size="14.00"> types = ()</text>
<text text-anchor="start" x="142.5" y="-518.3" font-family="Times,serif" font-size="14.00"> keys = (())</text>
<text text-anchor="start" x="142.5" y="-503.3" font-family="Times,serif" font-size="14.00"> Negate</text>
<text text-anchor="start" x="142.5" y="-488.3" font-family="Times,serif" font-size="14.00"> types = ()</text>
<text text-anchor="start" x="142.5" y="-473.3" font-family="Times,serif" font-size="14.00"> keys = ()</text>
</g>
<!-- node2&#45;&gt;node4 -->
<g id="edge4" class="edge">
<title>node2&#45;&gt;node4</title>
<path fill="none" stroke="black" d="M295.44,-705.44C287.82,-692.88 278.69,-677.83 269.23,-662.24"/>
<polygon fill="black" stroke="black" points="272.13,-660.28 263.95,-653.54 266.15,-663.91 272.13,-660.28"/>
<text text-anchor="start" x="284.5" y="-675.8" font-family="Times,serif" font-size="14.00">%2</text>
</g>
<!-- node7 -->
<g id="node8" class="node">
<title>node7</title>
<polygon fill="none" stroke="black" points="295,-165.5 295,-218.5 446,-218.5 446,-165.5 295,-165.5"/>
<text text-anchor="start" x="303" y="-203.3" font-family="Times,serif" font-size="14.00">Union %2 %6</text>
<text text-anchor="start" x="303" y="-188.3" font-family="Times,serif" font-size="14.00"> types = (integer?)</text>
<text text-anchor="start" x="303" y="-173.3" font-family="Times,serif" font-size="14.00"> keys = ()</text>
</g>
<!-- node2&#45;&gt;node7 -->
<g id="edge3" class="edge">
<title>node2&#45;&gt;node7</title>
<path fill="none" stroke="black" d="M363.53,-705.13C379.34,-691.33 395.03,-673.87 403.5,-654 466.47,-506.23 410.78,-307.67 383.5,-228.11"/>
<polygon fill="black" stroke="black" points="386.77,-226.86 380.17,-218.57 380.16,-229.16 386.77,-226.86"/>
<text text-anchor="start" x="430.5" y="-435.8" font-family="Times,serif" font-size="14.00">%2</text>
</g>
<!-- node3 -->
<g id="node4" class="node">
<title>node3</title>
<polygon fill="none" stroke="black" points="464,-120.5 464,-263.5 683,-263.5 683,-120.5 464,-120.5"/>
<text text-anchor="start" x="472" y="-248.3" font-family="Times,serif" font-size="14.00">Get types.public.t2 (u141)</text>
<text text-anchor="start" x="472" y="-233.3" font-family="Times,serif" font-size="14.00"> types = (integer?, integer?)</text>
<text text-anchor="start" x="472" y="-218.3" font-family="Times,serif" font-size="14.00"> keys = ()</text>
<text text-anchor="start" x="472" y="-203.3" font-family="Times,serif" font-size="14.00"> Project ()</text>
<text text-anchor="start" x="472" y="-188.3" font-family="Times,serif" font-size="14.00"> types = ()</text>
<text text-anchor="start" x="472" y="-173.3" font-family="Times,serif" font-size="14.00"> keys = ()</text>
<text text-anchor="start" x="472" y="-158.3" font-family="Times,serif" font-size="14.00"> ArrangeBy ()</text>
<text text-anchor="start" x="472" y="-143.3" font-family="Times,serif" font-size="14.00"> types = ()</text>
<text text-anchor="start" x="472" y="-128.3" font-family="Times,serif" font-size="14.00"> keys = ()</text>
</g>
<!-- node8 -->
<g id="node9" class="node">
<title>node8</title>
<polygon fill="none" stroke="black" points="320,-0.5 320,-68.5 625,-68.5 625,-0.5 320,-0.5"/>
<text text-anchor="start" x="328" y="-53.3" font-family="Times,serif" font-size="14.00">Join %3 %7</text>
<text text-anchor="start" x="328" y="-38.3" font-family="Times,serif" font-size="14.00"> implementation = Differential %7 %3.()</text>
<text text-anchor="start" x="328" y="-23.3" font-family="Times,serif" font-size="14.00"> types = (integer?)</text>
<text text-anchor="start" x="328" y="-8.3" font-family="Times,serif" font-size="14.00"> keys = ()</text>
</g>
<!-- node3&#45;&gt;node8 -->
<g id="edge7" class="edge">
<title>node3&#45;&gt;node8</title>
<path fill="none" stroke="black" d="M527.43,-120.08C517.87,-105.36 508.1,-90.31 499.5,-77.07"/>
<polygon fill="black" stroke="black" points="502.41,-75.12 494.03,-68.64 496.54,-78.94 502.41,-75.12"/>
<text text-anchor="start" x="513.5" y="-90.8" font-family="Times,serif" font-size="14.00">%3</text>
</g>
<!-- node6 -->
<g id="node7" class="node">
<title>node6</title>
<polygon fill="none" stroke="black" points="243,-315.5 243,-413.5 394,-413.5 394,-315.5 243,-315.5"/>
<text text-anchor="start" x="251" y="-398.3" font-family="Times,serif" font-size="14.00">Union %4 %5</text>
<text text-anchor="start" x="251" y="-383.3" font-family="Times,serif" font-size="14.00"> types = ()</text>
<text text-anchor="start" x="251" y="-368.3" font-family="Times,serif" font-size="14.00"> keys = ()</text>
<text text-anchor="start" x="251" y="-353.3" font-family="Times,serif" font-size="14.00"> Map null</text>
<text text-anchor="start" x="251" y="-338.3" font-family="Times,serif" font-size="14.00"> types = (integer?)</text>
<text text-anchor="start" x="251" y="-323.3" font-family="Times,serif" font-size="14.00"> keys = ()</text>
</g>
<!-- node4&#45;&gt;node6 -->
<g id="edge5" class="edge">
<title>node4&#45;&gt;node6</title>
<path fill="none" stroke="black" d="M261.05,-465.39C269.51,-450.68 278.03,-435.87 285.82,-422.32"/>
<polygon fill="black" stroke="black" points="288.88,-424.03 290.83,-413.61 282.81,-420.54 288.88,-424.03"/>
<text text-anchor="start" x="279.5" y="-435.8" font-family="Times,serif" font-size="14.00">%4</text>
</g>
<!-- node5 -->
<g id="node6" class="node">
<title>node5</title>
<polygon fill="none" stroke="black" points="298.5,-533 298.5,-586 394.5,-586 394.5,-533 298.5,-533"/>
<text text-anchor="start" x="306.5" y="-570.8" font-family="Times,serif" font-size="14.00">Constant ()</text>
<text text-anchor="start" x="306.5" y="-555.8" font-family="Times,serif" font-size="14.00"> types = ()</text>
<text text-anchor="start" x="306.5" y="-540.8" font-family="Times,serif" font-size="14.00"> keys = (())</text>
</g>
<!-- node5&#45;&gt;node6 -->
<g id="edge6" class="edge">
<title>node5&#45;&gt;node6</title>
<path fill="none" stroke="black" d="M342.78,-532.87C338.76,-505.13 332.21,-459.97 326.92,-423.55"/>
<polygon fill="black" stroke="black" points="330.37,-422.92 325.47,-413.53 323.44,-423.92 330.37,-422.92"/>
<text text-anchor="start" x="330.5" y="-435.8" font-family="Times,serif" font-size="14.00">%5</text>
</g>
<!-- node6&#45;&gt;node7 -->
<g id="edge1" class="edge">
<title>node6&#45;&gt;node7</title>
<path fill="none" stroke="black" d="M333.26,-315.1C341.65,-287.58 351.98,-253.72 359.63,-228.65"/>
<polygon fill="black" stroke="black" points="363.06,-229.41 362.63,-218.82 356.36,-227.36 363.06,-229.41"/>
<text text-anchor="start" x="343.5" y="-285.8" font-family="Times,serif" font-size="14.00">%6</text>
</g>
<!-- node7&#45;&gt;node8 -->
<g id="edge8" class="edge">
<title>node7&#45;&gt;node8</title>
<path fill="none" stroke="black" d="M387.34,-165.32C403.09,-141.32 426.86,-105.07 445.3,-76.97"/>
<polygon fill="black" stroke="black" points="448.27,-78.82 450.83,-68.53 442.42,-74.98 448.27,-78.82"/>
<text text-anchor="start" x="437.5" y="-90.8" font-family="Times,serif" font-size="14.00">%7</text>
</g>
</g>
</svg>
