<?xml version="1.0" encoding="UTF-8" standalone="no"?>
<!DOCTYPE svg PUBLIC "-//W3C//DTD SVG 1.1//EN"
 "http://www.w3.org/Graphics/SVG/1.1/DTD/svg11.dtd">
<!-- Generated by graphviz version 2.43.0 (0)
 -->
<!-- Title: G Pages: 1 -->
<svg width="996pt" height="905pt"
 viewBox="0.00 0.00 996.00 905.00" xmlns="http://www.w3.org/2000/svg" xmlns:xlink="http://www.w3.org/1999/xlink">
<g id="graph0" class="graph" transform="scale(1 1) rotate(0) translate(4 901)">
<title>G</title>
<polygon fill="white" stroke="transparent" points="-4,4 -4,-901 992,-901 992,4 -4,4"/>
<!-- node0 -->
<g id="node1" class="node">
<title>node0</title>
<polygon fill="none" stroke="black" points="513,-858.5 513,-896.5 614,-896.5 614,-858.5 513,-858.5"/>
<text text-anchor="start" x="521" y="-881.3" font-family="Times,serif" font-size="14.00">Let l0 =</text>
<text text-anchor="start" x="521" y="-866.3" font-family="Times,serif" font-size="14.00"> Constant ()</text>
</g>
<!-- node2 -->
<g id="node3" class="node">
<title>node2</title>
<polygon fill="none" stroke="black" points="234,-753.5 234,-806.5 503,-806.5 503,-753.5 234,-753.5"/>
<text text-anchor="start" x="242" y="-791.3" font-family="Times,serif" font-size="14.00">Let l1 =</text>
<text text-anchor="start" x="242" y="-776.3" font-family="Times,serif" font-size="14.00"> Join %0 %1</text>
<text text-anchor="start" x="242" y="-761.3" font-family="Times,serif" font-size="14.00"> implementation = Unimplemented</text>
</g>
<!-- node0&#45;&gt;node2 -->
<g id="edge9" class="edge">
<title>node0&#45;&gt;node2</title>
<path fill="none" stroke="black" d="M526.36,-858.31C499.11,-844.96 461.48,-826.53 429.79,-811.02"/>
<polygon fill="black" stroke="black" points="431.12,-807.77 420.6,-806.51 428.04,-814.06 431.12,-807.77"/>
<text text-anchor="start" x="482.5" y="-828.8" font-family="Times,serif" font-size="14.00">%0</text>
</g>
<!-- node4 -->
<g id="node5" class="node">
<title>node4</title>
<polygon fill="none" stroke="black" points="617,-753.5 617,-806.5 886,-806.5 886,-753.5 617,-753.5"/>
<text text-anchor="start" x="625" y="-791.3" font-family="Times,serif" font-size="14.00">Let l2 =</text>
<text text-anchor="start" x="625" y="-776.3" font-family="Times,serif" font-size="14.00"> Join %0 %3</text>
<text text-anchor="start" x="625" y="-761.3" font-family="Times,serif" font-size="14.00"> implementation = Unimplemented</text>
</g>
<!-- node0&#45;&gt;node4 -->
<g id="edge5" class="edge">
<title>node0&#45;&gt;node4</title>
<path fill="none" stroke="black" d="M599.3,-858.31C625.47,-845.02 661.55,-826.69 692.02,-811.22"/>
<polygon fill="black" stroke="black" points="693.94,-814.16 701.27,-806.51 690.77,-807.92 693.94,-814.16"/>
<text text-anchor="start" x="662.5" y="-828.8" font-family="Times,serif" font-size="14.00">%0</text>
</g>
<!-- node1 -->
<g id="node2" class="node">
<title>node1</title>
<polygon fill="none" stroke="black" points="261,-859.5 261,-895.5 476,-895.5 476,-859.5 261,-859.5"/>
<text text-anchor="start" x="269" y="-873.8" font-family="Times,serif" font-size="14.00">Get outer_joins.public.l (u2)</text>
</g>
<!-- node1&#45;&gt;node2 -->
<g id="edge11" class="edge">
<title>node1&#45;&gt;node2</title>
<path fill="none" stroke="black" d="M368.5,-859.43C368.5,-847.6 368.5,-831.41 368.5,-816.82"/>
<polygon fill="black" stroke="black" points="372,-816.55 368.5,-806.55 365,-816.56 372,-816.55"/>
<text text-anchor="start" x="368.5" y="-828.8" font-family="Times,serif" font-size="14.00">%1</text>
</g>
<!-- node5 -->
<g id="node6" class="node">
<title>node5</title>
<polygon fill="none" stroke="black" points="373,-618.5 373,-701.5 654,-701.5 654,-618.5 373,-618.5"/>
<text text-anchor="start" x="381" y="-686.3" font-family="Times,serif" font-size="14.00">Let l3 =</text>
<text text-anchor="start" x="381" y="-671.3" font-family="Times,serif" font-size="14.00"> Join %2 %4</text>
<text text-anchor="start" x="381" y="-656.3" font-family="Times,serif" font-size="14.00"> implementation = Unimplemented</text>
<text text-anchor="start" x="381" y="-641.3" font-family="Times,serif" font-size="14.00"> Project (#0..#3)</text>
<text text-anchor="start" x="381" y="-626.3" font-family="Times,serif" font-size="14.00"> Filter ((#1 &gt;= #2) &amp;&amp; (#1 &lt;= #2))</text>
</g>
<!-- node2&#45;&gt;node5 -->
<g id="edge2" class="edge">
<title>node2&#45;&gt;node5</title>
<path fill="none" stroke="black" d="M399.96,-753.4C416.29,-740.11 436.75,-723.46 455.79,-707.96"/>
<polygon fill="black" stroke="black" points="458.02,-710.66 463.57,-701.63 453.6,-705.23 458.02,-710.66"/>
<text text-anchor="start" x="440.5" y="-723.8" font-family="Times,serif" font-size="14.00">%2</text>
</g>
<!-- node7 -->
<g id="node8" class="node">
<title>node7</title>
<polygon fill="none" stroke="black" points="224,-561.5 224,-599.5 421,-599.5 421,-561.5 224,-561.5"/>
<text text-anchor="start" x="232" y="-584.3" font-family="Times,serif" font-size="14.00">Get %2 (l1)</text>
<text text-anchor="start" x="232" y="-569.3" font-family="Times,serif" font-size="14.00"> Distinct group=(#0, #1)</text>
</g>
<!-- node2&#45;&gt;node7 -->
<g id="edge22" class="edge">
<title>node2&#45;&gt;node7</title>
<path fill="none" stroke="black" d="M362.49,-753.18C353.85,-716.1 337.99,-648.01 329.06,-609.67"/>
<polygon fill="black" stroke="black" points="332.41,-608.64 326.74,-599.69 325.6,-610.23 332.41,-608.64"/>
<text text-anchor="start" x="358.5" y="-723.8" font-family="Times,serif" font-size="14.00">%2</text>
</g>
<!-- node9 -->
<g id="node10" class="node">
<title>node9</title>
<polygon fill="none" stroke="black" points="177,-281.5 177,-334.5 446,-334.5 446,-281.5 177,-281.5"/>
<text text-anchor="start" x="185" y="-319.3" font-family="Times,serif" font-size="14.00">Join %8 %2 (= #0 #2) (= #1 #3)</text>
<text text-anchor="start" x="185" y="-304.3" font-family="Times,serif" font-size="14.00"> implementation = Unimplemented</text>
<text text-anchor="start" x="185" y="-289.3" font-family="Times,serif" font-size="14.00"> Project (#0, #1)</text>
</g>
<!-- node2&#45;&gt;node9 -->
<g id="edge4" class="edge">
<title>node2&#45;&gt;node9</title>
<path fill="none" stroke="black" d="M271.64,-753.47C228.61,-735.71 187.5,-706.76 187.5,-661 187.5,-661 187.5,-661 187.5,-403.5 187.5,-375.29 208.05,-354.39 232.42,-339.52"/>
<polygon fill="black" stroke="black" points="234.23,-342.52 241.17,-334.51 230.75,-336.44 234.23,-342.52"/>
<text text-anchor="start" x="187.5" y="-504.8" font-family="Times,serif" font-size="14.00">%2</text>
</g>
<!-- node3 -->
<g id="node4" class="node">
<title>node3</title>
<polygon fill="none" stroke="black" points="642.5,-859.5 642.5,-895.5 860.5,-895.5 860.5,-859.5 642.5,-859.5"/>
<text text-anchor="start" x="650.5" y="-873.8" font-family="Times,serif" font-size="14.00">Get outer_joins.public.r (u4)</text>
</g>
<!-- node3&#45;&gt;node4 -->
<g id="edge3" class="edge">
<title>node3&#45;&gt;node4</title>
<path fill="none" stroke="black" d="M751.5,-859.43C751.5,-847.6 751.5,-831.41 751.5,-816.82"/>
<polygon fill="black" stroke="black" points="755,-816.55 751.5,-806.55 748,-816.56 755,-816.55"/>
<text text-anchor="start" x="751.5" y="-828.8" font-family="Times,serif" font-size="14.00">%3</text>
</g>
<!-- node4&#45;&gt;node5 -->
<g id="edge1" class="edge">
<title>node4&#45;&gt;node5</title>
<path fill="none" stroke="black" d="M699.86,-753.4C671.99,-739.58 636.77,-722.12 604.48,-706.11"/>
<polygon fill="black" stroke="black" points="605.97,-702.94 595.46,-701.63 602.86,-709.21 605.97,-702.94"/>
<text text-anchor="start" x="660.5" y="-723.8" font-family="Times,serif" font-size="14.00">%4</text>
</g>
<!-- node14 -->
<g id="node15" class="node">
<title>node14</title>
<polygon fill="none" stroke="black" points="791,-561.5 791,-599.5 988,-599.5 988,-561.5 791,-561.5"/>
<text text-anchor="start" x="799" y="-584.3" font-family="Times,serif" font-size="14.00">Get %4 (l2)</text>
<text text-anchor="start" x="799" y="-569.3" font-family="Times,serif" font-size="14.00"> Distinct group=(#0, #1)</text>
</g>
<!-- node4&#45;&gt;node14 -->
<g id="edge26" class="edge">
<title>node4&#45;&gt;node14</title>
<path fill="none" stroke="black" d="M774.6,-753.42C779.67,-747.5 784.89,-741.13 789.5,-735 821.69,-692.2 854.8,-639.3 873.69,-608.1"/>
<polygon fill="black" stroke="black" points="876.69,-609.89 878.85,-599.52 870.7,-606.28 876.69,-609.89"/>
<text text-anchor="start" x="799.5" y="-723.8" font-family="Times,serif" font-size="14.00">%4</text>
</g>
<!-- node16 -->
<g id="node17" class="node">
<title>node16</title>
<polygon fill="none" stroke="black" points="718,-281.5 718,-334.5 987,-334.5 987,-281.5 718,-281.5"/>
<text text-anchor="start" x="726" y="-319.3" font-family="Times,serif" font-size="14.00">Join %15 %4 (= #0 #2) (= #1 #3)</text>
<text text-anchor="start" x="726" y="-304.3" font-family="Times,serif" font-size="14.00"> implementation = Unimplemented</text>
<text text-anchor="start" x="726" y="-289.3" font-family="Times,serif" font-size="14.00"> Project (#0, #1)</text>
</g>
<!-- node4&#45;&gt;node16 -->
<g id="edge18" class="edge">
<title>node4&#45;&gt;node16</title>
<path fill="none" stroke="black" d="M759.89,-753.06C766.81,-729.36 775.5,-693.19 775.5,-661 775.5,-661 775.5,-661 775.5,-403.5 775.5,-379.46 790.66,-358.15 807.53,-341.87"/>
<polygon fill="black" stroke="black" points="810.31,-344.08 815.35,-334.76 805.6,-338.9 810.31,-344.08"/>
<text text-anchor="start" x="775.5" y="-504.8" font-family="Times,serif" font-size="14.00">%4</text>
</g>
<!-- node6 -->
<g id="node7" class="node">
<title>node6</title>
<polygon fill="none" stroke="black" points="288,-482 288,-535 485,-535 485,-482 288,-482"/>
<text text-anchor="start" x="296" y="-519.8" font-family="Times,serif" font-size="14.00">Get %5 (l3)</text>
<text text-anchor="start" x="296" y="-504.8" font-family="Times,serif" font-size="14.00"> Distinct group=(#0, #1)</text>
<text text-anchor="start" x="296" y="-489.8" font-family="Times,serif" font-size="14.00"> Negate</text>
</g>
<!-- node5&#45;&gt;node6 -->
<g id="edge6" class="edge">
<title>node5&#45;&gt;node6</title>
<path fill="none" stroke="black" d="M479.21,-618.44C464.27,-600.78 446.54,-579.85 430.5,-561 425.58,-555.21 420.33,-549.06 415.25,-543.11"/>
<polygon fill="black" stroke="black" points="417.61,-540.48 408.45,-535.15 412.29,-545.03 417.61,-540.48"/>
<text text-anchor="start" x="461.5" y="-576.8" font-family="Times,serif" font-size="14.00">%5</text>
</g>
<!-- node12 -->
<g id="node13" class="node">
<title>node12</title>
<polygon fill="none" stroke="black" points="452.5,-88.5 452.5,-124.5 574.5,-124.5 574.5,-88.5 452.5,-88.5"/>
<text text-anchor="start" x="460.5" y="-102.8" font-family="Times,serif" font-size="14.00">Union %5 %11</text>
</g>
<!-- node5&#45;&gt;node12 -->
<g id="edge13" class="edge">
<title>node5&#45;&gt;node12</title>
<path fill="none" stroke="black" d="M513.5,-618.39C513.5,-588.32 513.5,-546.36 513.5,-509.5 513.5,-509.5 513.5,-509.5 513.5,-202 513.5,-179.37 513.5,-153.69 513.5,-134.82"/>
<polygon fill="black" stroke="black" points="517,-134.57 513.5,-124.57 510,-134.57 517,-134.57"/>
<text text-anchor="start" x="513.5" y="-356.8" font-family="Times,serif" font-size="14.00">%5</text>
</g>
<!-- node13 -->
<g id="node14" class="node">
<title>node13</title>
<polygon fill="none" stroke="black" points="541.5,-474.5 541.5,-542.5 739.5,-542.5 739.5,-474.5 541.5,-474.5"/>
<text text-anchor="start" x="549.5" y="-527.3" font-family="Times,serif" font-size="14.00">Get %5 (l3)</text>
<text text-anchor="start" x="549.5" y="-512.3" font-family="Times,serif" font-size="14.00"> Project (#2, #3, #0, #1)</text>
<text text-anchor="start" x="549.5" y="-497.3" font-family="Times,serif" font-size="14.00"> Distinct group=(#0, #1)</text>
<text text-anchor="start" x="549.5" y="-482.3" font-family="Times,serif" font-size="14.00"> Negate</text>
</g>
<!-- node5&#45;&gt;node13 -->
<g id="edge16" class="edge">
<title>node5&#45;&gt;node13</title>
<path fill="none" stroke="black" d="M548.2,-618.15C566.05,-597.14 587.74,-571.61 605.61,-550.57"/>
<polygon fill="black" stroke="black" points="608.45,-552.64 612.26,-542.75 603.11,-548.1 608.45,-552.64"/>
<text text-anchor="start" x="595.5" y="-576.8" font-family="Times,serif" font-size="14.00">%5</text>
</g>
<!-- node8 -->
<g id="node9" class="node">
<title>node8</title>
<polygon fill="none" stroke="black" points="255,-386.5 255,-422.5 368,-422.5 368,-386.5 255,-386.5"/>
<text text-anchor="start" x="263" y="-400.8" font-family="Times,serif" font-size="14.00">Union %6 %7</text>
</g>
<!-- node6&#45;&gt;node8 -->
<g id="edge20" class="edge">
<title>node6&#45;&gt;node8</title>
<path fill="none" stroke="black" d="M367.57,-481.76C356.08,-466.13 341.46,-446.25 330.04,-430.71"/>
<polygon fill="black" stroke="black" points="332.8,-428.56 324.06,-422.58 327.16,-432.71 332.8,-428.56"/>
<text text-anchor="start" x="347.5" y="-444.8" font-family="Times,serif" font-size="14.00">%6</text>
</g>
<!-- node7&#45;&gt;node8 -->
<g id="edge19" class="edge">
<title>node7&#45;&gt;node8</title>
<path fill="none" stroke="black" d="M273.94,-561.45C266.58,-556.58 259.96,-550.52 255.5,-543 239.84,-516.63 245.2,-502.88 255.5,-474 261.38,-457.5 273.14,-442.11 284.36,-430.12"/>
<polygon fill="black" stroke="black" points="287.09,-432.33 291.6,-422.74 282.09,-427.43 287.09,-432.33"/>
<text text-anchor="start" x="255.5" y="-504.8" font-family="Times,serif" font-size="14.00">%7</text>
</g>
<!-- node8&#45;&gt;node9 -->
<g id="edge14" class="edge">
<title>node8&#45;&gt;node9</title>
<path fill="none" stroke="black" d="M311.5,-386.17C311.5,-374.7 311.5,-359.25 311.5,-345.18"/>
<polygon fill="black" stroke="black" points="315,-344.78 311.5,-334.78 308,-344.78 315,-344.78"/>
<text text-anchor="start" x="311.5" y="-356.8" font-family="Times,serif" font-size="14.00">%8</text>
</g>
<!-- node11 -->
<g id="node12" class="node">
<title>node11</title>
<polygon fill="none" stroke="black" points="177,-184 177,-222 446,-222 446,-184 177,-184"/>
<text text-anchor="start" x="185" y="-206.8" font-family="Times,serif" font-size="14.00">Join %9 %10</text>
<text text-anchor="start" x="185" y="-191.8" font-family="Times,serif" font-size="14.00"> implementation = Unimplemented</text>
</g>
<!-- node9&#45;&gt;node11 -->
<g id="edge10" class="edge">
<title>node9&#45;&gt;node11</title>
<path fill="none" stroke="black" d="M311.5,-281.27C311.5,-266.51 311.5,-247.93 311.5,-232.69"/>
<polygon fill="black" stroke="black" points="315,-232.29 311.5,-222.29 308,-232.29 315,-232.29"/>
<text text-anchor="start" x="311.5" y="-251.8" font-family="Times,serif" font-size="14.00">%9</text>
</g>
<!-- node10 -->
<g id="node11" class="node">
<title>node10</title>
<polygon fill="none" stroke="black" points="0,-290 0,-326 159,-326 159,-290 0,-290"/>
<text text-anchor="start" x="8" y="-304.3" font-family="Times,serif" font-size="14.00">Constant (null, null)</text>
</g>
<!-- node10&#45;&gt;node11 -->
<g id="edge7" class="edge">
<title>node10&#45;&gt;node11</title>
<path fill="none" stroke="black" d="M117.81,-289.99C157.14,-272.53 218.52,-245.28 261.61,-226.15"/>
<polygon fill="black" stroke="black" points="263.07,-229.33 270.79,-222.07 260.23,-222.93 263.07,-229.33"/>
<text text-anchor="start" x="209.5" y="-251.8" font-family="Times,serif" font-size="14.00">%10</text>
</g>
<!-- node11&#45;&gt;node12 -->
<g id="edge12" class="edge">
<title>node11&#45;&gt;node12</title>
<path fill="none" stroke="black" d="M350.45,-183.78C384.02,-168.07 432.53,-145.38 467.9,-128.83"/>
<polygon fill="black" stroke="black" points="469.48,-131.96 477.05,-124.55 466.51,-125.62 469.48,-131.96"/>
<text text-anchor="start" x="436.5" y="-146.8" font-family="Times,serif" font-size="14.00">%11</text>
</g>
<!-- node19 -->
<g id="node20" class="node">
<title>node19</title>
<polygon fill="none" stroke="black" points="529,-0.5 529,-36.5 660,-36.5 660,-0.5 529,-0.5"/>
<text text-anchor="start" x="537" y="-14.8" font-family="Times,serif" font-size="14.00">Union %12 %18</text>
</g>
<!-- node12&#45;&gt;node19 -->
<g id="edge8" class="edge">
<title>node12&#45;&gt;node19</title>
<path fill="none" stroke="black" d="M529.89,-88.1C541.83,-75.42 558.15,-58.09 571.41,-44.02"/>
<polygon fill="black" stroke="black" points="574.1,-46.26 578.41,-36.58 569.01,-41.46 574.1,-46.26"/>
<text text-anchor="start" x="558.5" y="-58.8" font-family="Times,serif" font-size="14.00">%12</text>
</g>
<!-- node15 -->
<g id="node16" class="node">
<title>node15</title>
<polygon fill="none" stroke="black" points="804,-386.5 804,-422.5 935,-422.5 935,-386.5 804,-386.5"/>
<text text-anchor="start" x="812" y="-400.8" font-family="Times,serif" font-size="14.00">Union %13 %14</text>
</g>
<!-- node13&#45;&gt;node15 -->
<g id="edge21" class="edge">
<title>node13&#45;&gt;node15</title>
<path fill="none" stroke="black" d="M714.85,-474.38C750,-458.73 790.93,-440.49 821.85,-426.72"/>
<polygon fill="black" stroke="black" points="823.4,-429.87 831.11,-422.6 820.55,-423.47 823.4,-429.87"/>
<text text-anchor="start" x="788.5" y="-444.8" font-family="Times,serif" font-size="14.00">%13</text>
</g>
<!-- node14&#45;&gt;node15 -->
<g id="edge23" class="edge">
<title>node14&#45;&gt;node15</title>
<path fill="none" stroke="black" d="M887.4,-561.21C883.87,-530.53 876.75,-468.55 872.63,-432.73"/>
<polygon fill="black" stroke="black" points="876.08,-432.05 871.46,-422.52 869.12,-432.85 876.08,-432.05"/>
<text text-anchor="start" x="884.5" y="-504.8" font-family="Times,serif" font-size="14.00">%14</text>
</g>
<!-- node15&#45;&gt;node16 -->
<g id="edge17" class="edge">
<title>node15&#45;&gt;node16</title>
<path fill="none" stroke="black" d="M866.38,-386.17C864.3,-374.59 861.48,-358.94 858.93,-344.76"/>
<polygon fill="black" stroke="black" points="862.35,-344 857.14,-334.78 855.46,-345.24 862.35,-344"/>
<text text-anchor="start" x="862.5" y="-356.8" font-family="Times,serif" font-size="14.00">%15</text>
</g>
<!-- node18 -->
<g id="node19" class="node">
<title>node18</title>
<polygon fill="none" stroke="black" points="542,-176.5 542,-229.5 811,-229.5 811,-176.5 542,-176.5"/>
<text text-anchor="start" x="550" y="-214.3" font-family="Times,serif" font-size="14.00">Join %16 %17</text>
<text text-anchor="start" x="550" y="-199.3" font-family="Times,serif" font-size="14.00"> implementation = Unimplemented</text>
<text text-anchor="start" x="550" y="-184.3" font-family="Times,serif" font-size="14.00"> Project (#2, #3, #0, #1)</text>
</g>
<!-- node16&#45;&gt;node18 -->
<g id="edge25" class="edge">
<title>node16&#45;&gt;node18</title>
<path fill="none" stroke="black" d="M808.54,-281.27C784.41,-267.15 754.32,-249.54 728.96,-234.7"/>
<polygon fill="black" stroke="black" points="730.6,-231.61 720.2,-229.58 727.07,-237.65 730.6,-231.61"/>
<text text-anchor="start" x="774.5" y="-251.8" font-family="Times,serif" font-size="14.00">%16</text>
</g>
<!-- node17 -->
<g id="node18" class="node">
<title>node17</title>
<polygon fill="none" stroke="black" points="541,-290 541,-326 700,-326 700,-290 541,-290"/>
<text text-anchor="start" x="549" y="-304.3" font-family="Times,serif" font-size="14.00">Constant (null, null)</text>
</g>
<!-- node17&#45;&gt;node18 -->
<g id="edge15" class="edge">
<title>node17&#45;&gt;node18</title>
<path fill="none" stroke="black" d="M629.75,-289.99C637.3,-276.11 648.21,-256.03 657.6,-238.77"/>
<polygon fill="black" stroke="black" points="660.92,-239.98 662.62,-229.53 654.77,-236.64 660.92,-239.98"/>
<text text-anchor="start" x="651.5" y="-251.8" font-family="Times,serif" font-size="14.00">%17</text>
</g>
<!-- node18&#45;&gt;node19 -->
<g id="edge24" class="edge">
<title>node18&#45;&gt;node19</title>
<path fill="none" stroke="black" d="M664.93,-176.24C649.5,-141.9 622.32,-81.41 606.62,-46.47"/>
<polygon fill="black" stroke="black" points="609.62,-44.6 602.33,-36.92 603.23,-47.47 609.62,-44.6"/>
<text text-anchor="start" x="640.5" y="-102.8" font-family="Times,serif" font-size="14.00">%18</text>
</g>
</g>
</svg>
