<?xml version="1.0" encoding="UTF-8" standalone="no"?>
<!DOCTYPE svg PUBLIC "-//W3C//DTD SVG 1.1//EN"
 "http://www.w3.org/Graphics/SVG/1.1/DTD/svg11.dtd">
<!-- Generated by graphviz version 2.43.0 (0)
 -->
<!-- Title: G Pages: 1 -->
<svg width="1016pt" height="585pt"
 viewBox="0.00 0.00 1016.00 585.00" xmlns="http://www.w3.org/2000/svg" xmlns:xlink="http://www.w3.org/1999/xlink">
<g id="graph0" class="graph" transform="scale(1 1) rotate(0) translate(4 581)">
<title>G</title>
<polygon fill="white" stroke="transparent" points="-4,4 -4,-581 1012,-581 1012,4 -4,4"/>
<!-- node0 -->
<g id="node1" class="node">
<title>node0</title>
<polygon fill="none" stroke="black" points="0,-538.5 0,-576.5 215,-576.5 215,-538.5 0,-538.5"/>
<text text-anchor="start" x="8" y="-561.3" font-family="Times,serif" font-size="14.00">Get outer_joins.public.l (u2)</text>
<text text-anchor="start" x="8" y="-546.3" font-family="Times,serif" font-size="14.00"> ArrangeBy ()</text>
</g>
<!-- node2 -->
<g id="node3" class="node">
<title>node2</title>
<polygon fill="none" stroke="black" points="72,-418.5 72,-486.5 377,-486.5 377,-418.5 72,-418.5"/>
<text text-anchor="start" x="80" y="-471.3" font-family="Times,serif" font-size="14.00">Let l0 =</text>
<text text-anchor="start" x="80" y="-456.3" font-family="Times,serif" font-size="14.00"> Join %0 %1</text>
<text text-anchor="start" x="80" y="-441.3" font-family="Times,serif" font-size="14.00"> implementation = Differential %1 %0.()</text>
<text text-anchor="start" x="80" y="-426.3" font-family="Times,serif" font-size="14.00"> Filter (#1 &lt;= #2), (#1 &gt;= #2)</text>
</g>
<!-- node0&#45;&gt;node2 -->
<g id="edge8" class="edge">
<title>node0&#45;&gt;node2</title>
<path fill="none" stroke="black" d="M128.15,-538.32C142.14,-526 161.2,-509.22 178.68,-493.84"/>
<polygon fill="black" stroke="black" points="181.38,-496.13 186.57,-486.89 176.75,-490.87 181.38,-496.13"/>
<text text-anchor="start" x="166.5" y="-508.8" font-family="Times,serif" font-size="14.00">%0</text>
</g>
<!-- node1 -->
<g id="node2" class="node">
<title>node1</title>
<polygon fill="none" stroke="black" points="233.5,-539.5 233.5,-575.5 451.5,-575.5 451.5,-539.5 233.5,-539.5"/>
<text text-anchor="start" x="241.5" y="-553.8" font-family="Times,serif" font-size="14.00">Get outer_joins.public.r (u4)</text>
</g>
<!-- node1&#45;&gt;node2 -->
<g id="edge12" class="edge">
<title>node1&#45;&gt;node2</title>
<path fill="none" stroke="black" d="M323.01,-539.49C308.7,-526.99 288.63,-509.48 270.34,-493.51"/>
<polygon fill="black" stroke="black" points="272.47,-490.72 262.63,-486.79 267.87,-496 272.47,-490.72"/>
<text text-anchor="start" x="297.5" y="-508.8" font-family="Times,serif" font-size="14.00">%1</text>
</g>
<!-- node3 -->
<g id="node4" class="node">
<title>node3</title>
<polygon fill="none" stroke="black" points="811,-298.5 811,-366.5 1008,-366.5 1008,-298.5 811,-298.5"/>
<text text-anchor="start" x="819" y="-351.3" font-family="Times,serif" font-size="14.00">Get %2 (l0)</text>
<text text-anchor="start" x="819" y="-336.3" font-family="Times,serif" font-size="14.00"> Project (#0, #1)</text>
<text text-anchor="start" x="819" y="-321.3" font-family="Times,serif" font-size="14.00"> Distinct group=(#0, #1)</text>
<text text-anchor="start" x="819" y="-306.3" font-family="Times,serif" font-size="14.00"> Negate</text>
</g>
<!-- node2&#45;&gt;node3 -->
<g id="edge10" class="edge">
<title>node2&#45;&gt;node3</title>
<path fill="none" stroke="black" d="M377.23,-435.85C491.83,-422.54 652.47,-400.55 800.64,-367.32"/>
<polygon fill="black" stroke="black" points="801.86,-370.64 810.84,-365.01 800.31,-363.81 801.86,-370.64"/>
<text text-anchor="start" x="708.5" y="-388.8" font-family="Times,serif" font-size="14.00">%2</text>
</g>
<!-- node8 -->
<g id="node9" class="node">
<title>node8</title>
<polygon fill="none" stroke="black" points="126,-298.5 126,-366.5 323,-366.5 323,-298.5 126,-298.5"/>
<text text-anchor="start" x="134" y="-351.3" font-family="Times,serif" font-size="14.00">Get %2 (l0)</text>
<text text-anchor="start" x="134" y="-336.3" font-family="Times,serif" font-size="14.00"> Project (#2, #3)</text>
<text text-anchor="start" x="134" y="-321.3" font-family="Times,serif" font-size="14.00"> Distinct group=(#0, #1)</text>
<text text-anchor="start" x="134" y="-306.3" font-family="Times,serif" font-size="14.00"> Negate</text>
</g>
<!-- node2&#45;&gt;node8 -->
<g id="edge5" class="edge">
<title>node2&#45;&gt;node8</title>
<path fill="none" stroke="black" d="M224.5,-418.32C224.5,-405.5 224.5,-390.65 224.5,-377"/>
<polygon fill="black" stroke="black" points="228,-376.84 224.5,-366.84 221,-376.84 228,-376.84"/>
<text text-anchor="start" x="224.5" y="-388.8" font-family="Times,serif" font-size="14.00">%2</text>
</g>
<!-- node13 -->
<g id="node14" class="node">
<title>node13</title>
<polygon fill="none" stroke="black" points="238,-0.5 238,-36.5 387,-36.5 387,-0.5 238,-0.5"/>
<text text-anchor="start" x="246" y="-14.8" font-family="Times,serif" font-size="14.00">Union %2 %7 %12</text>
</g>
<!-- node2&#45;&gt;node13 -->
<g id="edge7" class="edge">
<title>node2&#45;&gt;node13</title>
<path fill="none" stroke="black" d="M156.17,-418.29C126.11,-398.5 97.5,-370.07 97.5,-333.5 97.5,-333.5 97.5,-333.5 97.5,-121.5 97.5,-61.04 167.77,-36.37 227.96,-26.33"/>
<polygon fill="black" stroke="black" points="228.56,-29.78 237.91,-24.79 227.49,-22.86 228.56,-29.78"/>
<text text-anchor="start" x="97.5" y="-223.8" font-family="Times,serif" font-size="14.00">%2</text>
</g>
<!-- node5 -->
<g id="node6" class="node">
<title>node5</title>
<polygon fill="none" stroke="black" points="793,-209.5 793,-245.5 906,-245.5 906,-209.5 793,-209.5"/>
<text text-anchor="start" x="801" y="-223.8" font-family="Times,serif" font-size="14.00">Union %3 %4</text>
</g>
<!-- node3&#45;&gt;node5 -->
<g id="edge11" class="edge">
<title>node3&#45;&gt;node5</title>
<path fill="none" stroke="black" d="M890.19,-298.34C881.89,-284.1 872.34,-267.71 864.58,-254.39"/>
<polygon fill="black" stroke="black" points="867.59,-252.6 859.53,-245.72 861.54,-256.12 867.59,-252.6"/>
<text text-anchor="start" x="879.5" y="-268.8" font-family="Times,serif" font-size="14.00">%3</text>
</g>
<!-- node4 -->
<g id="node5" class="node">
<title>node4</title>
<polygon fill="none" stroke="black" points="578,-313.5 578,-351.5 793,-351.5 793,-313.5 578,-313.5"/>
<text text-anchor="start" x="586" y="-336.3" font-family="Times,serif" font-size="14.00">Get outer_joins.public.l (u2)</text>
<text text-anchor="start" x="586" y="-321.3" font-family="Times,serif" font-size="14.00"> Distinct group=(#0, #1)</text>
</g>
<!-- node4&#45;&gt;node5 -->
<g id="edge3" class="edge">
<title>node4&#45;&gt;node5</title>
<path fill="none" stroke="black" d="M714.44,-313.32C742.03,-296 783.65,-269.86 813.39,-251.18"/>
<polygon fill="black" stroke="black" points="815.6,-253.92 822.21,-245.64 811.88,-247.99 815.6,-253.92"/>
<text text-anchor="start" x="786.5" y="-268.8" font-family="Times,serif" font-size="14.00">%4</text>
</g>
<!-- node7 -->
<g id="node8" class="node">
<title>node7</title>
<polygon fill="none" stroke="black" points="517.5,-88.5 517.5,-156.5 873.5,-156.5 873.5,-88.5 517.5,-88.5"/>
<text text-anchor="start" x="525.5" y="-141.3" font-family="Times,serif" font-size="14.00">Join %5 %6 (= #0 #2) (= #1 #3)</text>
<text text-anchor="start" x="525.5" y="-126.3" font-family="Times,serif" font-size="14.00"> implementation = Differential %5 %6.(#0, #1)</text>
<text text-anchor="start" x="525.5" y="-111.3" font-family="Times,serif" font-size="14.00"> Map null, null</text>
<text text-anchor="start" x="525.5" y="-96.3" font-family="Times,serif" font-size="14.00"> Project (#0, #1, #4, #5)</text>
</g>
<!-- node5&#45;&gt;node7 -->
<g id="edge1" class="edge">
<title>node5&#45;&gt;node7</title>
<path fill="none" stroke="black" d="M824.07,-209.49C804.89,-196.66 777.81,-178.55 753.44,-162.25"/>
<polygon fill="black" stroke="black" points="755.21,-159.22 744.95,-156.57 751.32,-165.04 755.21,-159.22"/>
<text text-anchor="start" x="790.5" y="-178.8" font-family="Times,serif" font-size="14.00">%5</text>
</g>
<!-- node6 -->
<g id="node7" class="node">
<title>node6</title>
<polygon fill="none" stroke="black" points="560,-208.5 560,-246.5 775,-246.5 775,-208.5 560,-208.5"/>
<text text-anchor="start" x="568" y="-231.3" font-family="Times,serif" font-size="14.00">Get outer_joins.public.l (u2)</text>
<text text-anchor="start" x="568" y="-216.3" font-family="Times,serif" font-size="14.00"> ArrangeBy (#0, #1)</text>
</g>
<!-- node6&#45;&gt;node7 -->
<g id="edge4" class="edge">
<title>node6&#45;&gt;node7</title>
<path fill="none" stroke="black" d="M672.51,-208.09C675.65,-196.52 679.84,-181.09 683.79,-166.58"/>
<polygon fill="black" stroke="black" points="687.22,-167.31 686.46,-156.74 680.46,-165.48 687.22,-167.31"/>
<text text-anchor="start" x="681.5" y="-178.8" font-family="Times,serif" font-size="14.00">%6</text>
</g>
<!-- node7&#45;&gt;node13 -->
<g id="edge13" class="edge">
<title>node7&#45;&gt;node13</title>
<path fill="none" stroke="black" d="M571.42,-88.45C510.35,-72.19 438.8,-53.14 386.41,-39.18"/>
<polygon fill="black" stroke="black" points="387.09,-35.74 376.53,-36.55 385.29,-42.51 387.09,-35.74"/>
<text text-anchor="start" x="492.5" y="-58.8" font-family="Times,serif" font-size="14.00">%7</text>
</g>
<!-- node10 -->
<g id="node11" class="node">
<title>node10</title>
<polygon fill="none" stroke="black" points="191,-209.5 191,-245.5 304,-245.5 304,-209.5 191,-209.5"/>
<text text-anchor="start" x="199" y="-223.8" font-family="Times,serif" font-size="14.00">Union %8 %9</text>
</g>
<!-- node8&#45;&gt;node10 -->
<g id="edge15" class="edge">
<title>node8&#45;&gt;node10</title>
<path fill="none" stroke="black" d="M231.9,-298.34C234.99,-284.51 238.53,-268.66 241.46,-255.55"/>
<polygon fill="black" stroke="black" points="244.89,-256.24 243.65,-245.72 238.06,-254.72 244.89,-256.24"/>
<text text-anchor="start" x="239.5" y="-268.8" font-family="Times,serif" font-size="14.00">%8</text>
</g>
<!-- node9 -->
<g id="node10" class="node">
<title>node9</title>
<polygon fill="none" stroke="black" points="341.5,-313.5 341.5,-351.5 559.5,-351.5 559.5,-313.5 341.5,-313.5"/>
<text text-anchor="start" x="349.5" y="-336.3" font-family="Times,serif" font-size="14.00">Get outer_joins.public.r (u4)</text>
<text text-anchor="start" x="349.5" y="-321.3" font-family="Times,serif" font-size="14.00"> Distinct group=(#0, #1)</text>
</g>
<!-- node9&#45;&gt;node10 -->
<g id="edge2" class="edge">
<title>node9&#45;&gt;node10</title>
<path fill="none" stroke="black" d="M414.67,-313.32C379.94,-295.7 327.23,-268.95 290.31,-250.22"/>
<polygon fill="black" stroke="black" points="291.78,-247.04 281.28,-245.64 288.61,-253.29 291.78,-247.04"/>
<text text-anchor="start" x="348.5" y="-268.8" font-family="Times,serif" font-size="14.00">%9</text>
</g>
<!-- node12 -->
<g id="node13" class="node">
<title>node12</title>
<polygon fill="none" stroke="black" points="125.5,-88.5 125.5,-156.5 499.5,-156.5 499.5,-88.5 125.5,-88.5"/>
<text text-anchor="start" x="133.5" y="-141.3" font-family="Times,serif" font-size="14.00">Join %10 %11 (= #0 #2) (= #1 #3)</text>
<text text-anchor="start" x="133.5" y="-126.3" font-family="Times,serif" font-size="14.00"> implementation = Differential %10 %11.(#0, #1)</text>
<text text-anchor="start" x="133.5" y="-111.3" font-family="Times,serif" font-size="14.00"> Map null, null</text>
<text text-anchor="start" x="133.5" y="-96.3" font-family="Times,serif" font-size="14.00"> Project (#4, #5, #0, #1)</text>
</g>
<!-- node10&#45;&gt;node12 -->
<g id="edge9" class="edge">
<title>node10&#45;&gt;node12</title>
<path fill="none" stroke="black" d="M258.23,-209.49C265.77,-197.55 276.19,-181.03 285.89,-165.66"/>
<polygon fill="black" stroke="black" points="289.12,-167.11 291.49,-156.79 283.2,-163.37 289.12,-167.11"/>
<text text-anchor="start" x="280.5" y="-178.8" font-family="Times,serif" font-size="14.00">%10</text>
</g>
<!-- node11 -->
<g id="node12" class="node">
<title>node11</title>
<polygon fill="none" stroke="black" points="322.5,-208.5 322.5,-246.5 540.5,-246.5 540.5,-208.5 322.5,-208.5"/>
<text text-anchor="start" x="330.5" y="-231.3" font-family="Times,serif" font-size="14.00">Get outer_joins.public.r (u4)</text>
<text text-anchor="start" x="330.5" y="-216.3" font-family="Times,serif" font-size="14.00"> ArrangeBy (#0, #1)</text>
</g>
<!-- node11&#45;&gt;node12 -->
<g id="edge14" class="edge">
<title>node11&#45;&gt;node12</title>
<path fill="none" stroke="black" d="M410.5,-208.32C396.27,-196 376.88,-179.22 359.11,-163.84"/>
<polygon fill="black" stroke="black" points="360.93,-160.79 351.08,-156.89 356.35,-166.08 360.93,-160.79"/>
<text text-anchor="start" x="385.5" y="-178.8" font-family="Times,serif" font-size="14.00">%11</text>
</g>
<!-- node12&#45;&gt;node13 -->
<g id="edge6" class="edge">
<title>node12&#45;&gt;node13</title>
<path fill="none" stroke="black" d="M312.5,-88.38C312.5,-74.93 312.5,-59.58 312.5,-46.79"/>
<polygon fill="black" stroke="black" points="316,-46.74 312.5,-36.74 309,-46.74 316,-46.74"/>
<text text-anchor="start" x="312.5" y="-58.8" font-family="Times,serif" font-size="14.00">%12</text>
</g>
</g>
</svg>
