<?xml version="1.0" encoding="UTF-8" standalone="no"?>
<!DOCTYPE svg PUBLIC "-//W3C//DTD SVG 1.1//EN"
 "http://www.w3.org/Graphics/SVG/1.1/DTD/svg11.dtd">
<!-- Generated by graphviz version 2.43.0 (0)
 -->
<!-- Title: G Pages: 1 -->
<svg width="460pt" height="133pt"
 viewBox="0.00 0.00 459.50 133.00" xmlns="http://www.w3.org/2000/svg" xmlns:xlink="http://www.w3.org/1999/xlink">
<g id="graph0" class="graph" transform="scale(1 1) rotate(0) translate(4 129)">
<title>G</title>
<polygon fill="white" stroke="transparent" points="-4,4 -4,-129 455.5,-129 455.5,4 -4,4"/>
<!-- node0 -->
<g id="node1" class="node">
<title>node0</title>
<polygon fill="none" stroke="black" points="0,-88.5 0,-124.5 215,-124.5 215,-88.5 0,-88.5"/>
<text text-anchor="start" x="8" y="-102.8" font-family="Times,serif" font-size="14.00">Get outer_joins.public.l (u2)</text>
</g>
<!-- node2 -->
<g id="node3" class="node">
<title>node2</title>
<polygon fill="none" stroke="black" points="20,-0.5 20,-36.5 429,-36.5 429,-0.5 20,-0.5"/>
<text text-anchor="start" x="28" y="-14.8" font-family="Times,serif" font-size="14.00">FullOuterJoin %0 %1 on ((#1 &gt;= #2) &amp;&amp; (#1 &lt;= #2))</text>
</g>
<!-- node0&#45;&gt;node2 -->
<g id="edge2" class="edge">
<title>node0&#45;&gt;node2</title>
<path fill="none" stroke="black" d="M130.9,-88.3C148.67,-75.24 173.31,-57.13 192.85,-42.77"/>
<polygon fill="black" stroke="black" points="195.16,-45.41 201.15,-36.67 191.01,-39.77 195.16,-45.41"/>
<text text-anchor="start" x="173.5" y="-58.8" font-family="Times,serif" font-size="14.00">%0</text>
</g>
<!-- node1 -->
<g id="node2" class="node">
<title>node1</title>
<polygon fill="none" stroke="black" points="233.5,-88.5 233.5,-124.5 451.5,-124.5 451.5,-88.5 233.5,-88.5"/>
<text text-anchor="start" x="241.5" y="-102.8" font-family="Times,serif" font-size="14.00">Get outer_joins.public.r (u4)</text>
</g>
<!-- node1&#45;&gt;node2 -->
<g id="edge1" class="edge">
<title>node1&#45;&gt;node2</title>
<path fill="none" stroke="black" d="M318.9,-88.3C300.9,-75.18 275.91,-56.97 256.16,-42.57"/>
<polygon fill="black" stroke="black" points="258.2,-39.73 248.05,-36.67 254.07,-45.39 258.2,-39.73"/>
<text text-anchor="start" x="291.5" y="-58.8" font-family="Times,serif" font-size="14.00">%1</text>
</g>
</g>
</svg>
