<?xml version="1.0" encoding="UTF-8" standalone="no"?>
<!DOCTYPE svg PUBLIC "-//W3C//DTD SVG 1.1//EN"
 "http://www.w3.org/Graphics/SVG/1.1/DTD/svg11.dtd">
<!-- Generated by graphviz version 2.43.0 (0)
 -->
<!-- Title: G Pages: 1 -->
<svg width="1282pt" height="1406pt"
 viewBox="0.00 0.00 1282.00 1406.00" xmlns="http://www.w3.org/2000/svg" xmlns:xlink="http://www.w3.org/1999/xlink">
<g id="graph0" class="graph" transform="scale(1 1) rotate(0) translate(4 1402)">
<title>G</title>
<polygon fill="white" stroke="transparent" points="-4,4 -4,-1402 1278,-1402 1278,4 -4,4"/>
<!-- node0 -->
<g id="node1" class="node">
<title>node0</title>
<polygon fill="none" stroke="black" points="776,-1329.5 776,-1397.5 877,-1397.5 877,-1329.5 776,-1329.5"/>
<text text-anchor="start" x="784" y="-1382.3" font-family="Times,serif" font-size="14.00">Let l0 =</text>
<text text-anchor="start" x="784" y="-1367.3" font-family="Times,serif" font-size="14.00"> Constant ()</text>
<text text-anchor="start" x="784" y="-1352.3" font-family="Times,serif" font-size="14.00"> types = ()</text>
<text text-anchor="start" x="784" y="-1337.3" font-family="Times,serif" font-size="14.00"> keys = (())</text>
</g>
<!-- node2 -->
<g id="node3" class="node">
<title>node2</title>
<polygon fill="none" stroke="black" points="500,-1194.5 500,-1277.5 769,-1277.5 769,-1194.5 500,-1194.5"/>
<text text-anchor="start" x="508" y="-1262.3" font-family="Times,serif" font-size="14.00">Let l1 =</text>
<text text-anchor="start" x="508" y="-1247.3" font-family="Times,serif" font-size="14.00"> Join %0 %1</text>
<text text-anchor="start" x="508" y="-1232.3" font-family="Times,serif" font-size="14.00"> implementation = Unimplemented</text>
<text text-anchor="start" x="508" y="-1217.3" font-family="Times,serif" font-size="14.00"> types = (integer, integer)</text>
<text text-anchor="start" x="508" y="-1202.3" font-family="Times,serif" font-size="14.00"> keys = ()</text>
</g>
<!-- node0&#45;&gt;node2 -->
<g id="edge9" class="edge">
<title>node0&#45;&gt;node2</title>
<path fill="none" stroke="black" d="M775.8,-1329.36C754.23,-1315.26 728.7,-1298.57 705.32,-1283.29"/>
<polygon fill="black" stroke="black" points="707.09,-1280.27 696.81,-1277.73 703.26,-1286.13 707.09,-1280.27"/>
<text text-anchor="start" x="747.5" y="-1299.8" font-family="Times,serif" font-size="14.00">%0</text>
</g>
<!-- node4 -->
<g id="node5" class="node">
<title>node4</title>
<polygon fill="none" stroke="black" points="878,-1194.5 878,-1277.5 1147,-1277.5 1147,-1194.5 878,-1194.5"/>
<text text-anchor="start" x="886" y="-1262.3" font-family="Times,serif" font-size="14.00">Let l2 =</text>
<text text-anchor="start" x="886" y="-1247.3" font-family="Times,serif" font-size="14.00"> Join %0 %3</text>
<text text-anchor="start" x="886" y="-1232.3" font-family="Times,serif" font-size="14.00"> implementation = Unimplemented</text>
<text text-anchor="start" x="886" y="-1217.3" font-family="Times,serif" font-size="14.00"> types = (integer, integer)</text>
<text text-anchor="start" x="886" y="-1202.3" font-family="Times,serif" font-size="14.00"> keys = ()</text>
</g>
<!-- node0&#45;&gt;node4 -->
<g id="edge5" class="edge">
<title>node0&#45;&gt;node4</title>
<path fill="none" stroke="black" d="M875.86,-1329.2C896.66,-1315.16 921.23,-1298.58 943.76,-1283.38"/>
<polygon fill="black" stroke="black" points="945.95,-1286.12 952.29,-1277.63 942.04,-1280.32 945.95,-1286.12"/>
<text text-anchor="start" x="919.5" y="-1299.8" font-family="Times,serif" font-size="14.00">%0</text>
</g>
<!-- node1 -->
<g id="node2" class="node">
<title>node1</title>
<polygon fill="none" stroke="black" points="527,-1337 527,-1390 742,-1390 742,-1337 527,-1337"/>
<text text-anchor="start" x="535" y="-1374.8" font-family="Times,serif" font-size="14.00">Get outer_joins.public.l (u2)</text>
<text text-anchor="start" x="535" y="-1359.8" font-family="Times,serif" font-size="14.00"> types = (integer, integer)</text>
<text text-anchor="start" x="535" y="-1344.8" font-family="Times,serif" font-size="14.00"> keys = ()</text>
</g>
<!-- node1&#45;&gt;node2 -->
<g id="edge11" class="edge">
<title>node1&#45;&gt;node2</title>
<path fill="none" stroke="black" d="M634.5,-1336.8C634.5,-1322.79 634.5,-1304.93 634.5,-1288.2"/>
<polygon fill="black" stroke="black" points="638,-1287.98 634.5,-1277.98 631,-1287.98 638,-1287.98"/>
<text text-anchor="start" x="634.5" y="-1299.8" font-family="Times,serif" font-size="14.00">%1</text>
</g>
<!-- node5 -->
<g id="node6" class="node">
<title>node5</title>
<polygon fill="none" stroke="black" points="496,-969.5 496,-1142.5 817,-1142.5 817,-969.5 496,-969.5"/>
<text text-anchor="start" x="504" y="-1127.3" font-family="Times,serif" font-size="14.00">Let l3 =</text>
<text text-anchor="start" x="504" y="-1112.3" font-family="Times,serif" font-size="14.00"> Join %2 %4</text>
<text text-anchor="start" x="504" y="-1097.3" font-family="Times,serif" font-size="14.00"> implementation = Unimplemented</text>
<text text-anchor="start" x="504" y="-1082.3" font-family="Times,serif" font-size="14.00"> types = (integer, integer, integer, integer)</text>
<text text-anchor="start" x="504" y="-1067.3" font-family="Times,serif" font-size="14.00"> keys = ()</text>
<text text-anchor="start" x="504" y="-1052.3" font-family="Times,serif" font-size="14.00"> Project (#0..#3)</text>
<text text-anchor="start" x="504" y="-1037.3" font-family="Times,serif" font-size="14.00"> types = (integer, integer, integer, integer)</text>
<text text-anchor="start" x="504" y="-1022.3" font-family="Times,serif" font-size="14.00"> keys = ()</text>
<text text-anchor="start" x="504" y="-1007.3" font-family="Times,serif" font-size="14.00"> Filter ((#1 &gt;= #2) &amp;&amp; (#1 &lt;= #2))</text>
<text text-anchor="start" x="504" y="-992.3" font-family="Times,serif" font-size="14.00"> types = (integer, integer, integer, integer)</text>
<text text-anchor="start" x="504" y="-977.3" font-family="Times,serif" font-size="14.00"> keys = ()</text>
</g>
<!-- node2&#45;&gt;node5 -->
<g id="edge2" class="edge">
<title>node2&#45;&gt;node5</title>
<path fill="none" stroke="black" d="M639.55,-1194.16C641.09,-1181.65 642.86,-1167.33 644.66,-1152.76"/>
<polygon fill="black" stroke="black" points="648.16,-1153.01 645.91,-1142.65 641.21,-1152.15 648.16,-1153.01"/>
<text text-anchor="start" x="644.5" y="-1164.8" font-family="Times,serif" font-size="14.00">%2</text>
</g>
<!-- node7 -->
<g id="node8" class="node">
<title>node7</title>
<polygon fill="none" stroke="black" points="264,-852.5 264,-950.5 467,-950.5 467,-852.5 264,-852.5"/>
<text text-anchor="start" x="272" y="-935.3" font-family="Times,serif" font-size="14.00">Get %2 (l1)</text>
<text text-anchor="start" x="272" y="-920.3" font-family="Times,serif" font-size="14.00"> types = (integer, integer)</text>
<text text-anchor="start" x="272" y="-905.3" font-family="Times,serif" font-size="14.00"> keys = ()</text>
<text text-anchor="start" x="272" y="-890.3" font-family="Times,serif" font-size="14.00"> Distinct group=(#0, #1)</text>
<text text-anchor="start" x="272" y="-875.3" font-family="Times,serif" font-size="14.00"> types = (integer, integer)</text>
<text text-anchor="start" x="272" y="-860.3" font-family="Times,serif" font-size="14.00"> keys = ((#0, #1))</text>
</g>
<!-- node2&#45;&gt;node7 -->
<g id="edge22" class="edge">
<title>node2&#45;&gt;node7</title>
<path fill="none" stroke="black" d="M551.68,-1194.47C528.61,-1180.44 504.87,-1163.1 486.5,-1143 437.67,-1089.57 403.64,-1012.77 384.37,-960.43"/>
<polygon fill="black" stroke="black" points="387.64,-959.17 380.95,-950.96 381.05,-961.55 387.64,-959.17"/>
<text text-anchor="start" x="522.5" y="-1164.8" font-family="Times,serif" font-size="14.00">%2</text>
</g>
<!-- node9 -->
<g id="node10" class="node">
<title>node9</title>
<polygon fill="none" stroke="black" points="237,-375.5 237,-488.5 558,-488.5 558,-375.5 237,-375.5"/>
<text text-anchor="start" x="245" y="-473.3" font-family="Times,serif" font-size="14.00">Join %8 %2 (= #0 #2) (= #1 #3)</text>
<text text-anchor="start" x="245" y="-458.3" font-family="Times,serif" font-size="14.00"> implementation = Unimplemented</text>
<text text-anchor="start" x="245" y="-443.3" font-family="Times,serif" font-size="14.00"> types = (integer, integer, integer, integer)</text>
<text text-anchor="start" x="245" y="-428.3" font-family="Times,serif" font-size="14.00"> keys = ()</text>
<text text-anchor="start" x="245" y="-413.3" font-family="Times,serif" font-size="14.00"> Project (#0, #1)</text>
<text text-anchor="start" x="245" y="-398.3" font-family="Times,serif" font-size="14.00"> types = (integer, integer)</text>
<text text-anchor="start" x="245" y="-383.3" font-family="Times,serif" font-size="14.00"> keys = ()</text>
</g>
<!-- node2&#45;&gt;node9 -->
<g id="edge4" class="edge">
<title>node2&#45;&gt;node9</title>
<path fill="none" stroke="black" d="M499.96,-1206.06C374.47,-1175.07 206.5,-1121.53 206.5,-1057 206.5,-1057 206.5,-1057 206.5,-566 206.5,-536.72 221.8,-513.36 243.74,-494.92"/>
<polygon fill="black" stroke="black" points="246.08,-497.53 251.76,-488.6 241.74,-492.04 246.08,-497.53"/>
<text text-anchor="start" x="206.5" y="-735.8" font-family="Times,serif" font-size="14.00">%2</text>
</g>
<!-- node3 -->
<g id="node4" class="node">
<title>node3</title>
<polygon fill="none" stroke="black" points="903.5,-1337 903.5,-1390 1121.5,-1390 1121.5,-1337 903.5,-1337"/>
<text text-anchor="start" x="911.5" y="-1374.8" font-family="Times,serif" font-size="14.00">Get outer_joins.public.r (u4)</text>
<text text-anchor="start" x="911.5" y="-1359.8" font-family="Times,serif" font-size="14.00"> types = (integer, integer)</text>
<text text-anchor="start" x="911.5" y="-1344.8" font-family="Times,serif" font-size="14.00"> keys = ()</text>
</g>
<!-- node3&#45;&gt;node4 -->
<g id="edge3" class="edge">
<title>node3&#45;&gt;node4</title>
<path fill="none" stroke="black" d="M1012.5,-1336.8C1012.5,-1322.79 1012.5,-1304.93 1012.5,-1288.2"/>
<polygon fill="black" stroke="black" points="1016,-1287.98 1012.5,-1277.98 1009,-1287.98 1016,-1287.98"/>
<text text-anchor="start" x="1012.5" y="-1299.8" font-family="Times,serif" font-size="14.00">%3</text>
</g>
<!-- node4&#45;&gt;node5 -->
<g id="edge1" class="edge">
<title>node4&#45;&gt;node5</title>
<path fill="none" stroke="black" d="M931.27,-1194.39C899.96,-1178.73 862.91,-1160.21 826.33,-1141.91"/>
<polygon fill="black" stroke="black" points="827.55,-1138.61 817.04,-1137.27 824.42,-1144.87 827.55,-1138.61"/>
<text text-anchor="start" x="886.5" y="-1164.8" font-family="Times,serif" font-size="14.00">%4</text>
</g>
<!-- node14 -->
<g id="node15" class="node">
<title>node14</title>
<polygon fill="none" stroke="black" points="1064,-852.5 1064,-950.5 1267,-950.5 1267,-852.5 1064,-852.5"/>
<text text-anchor="start" x="1072" y="-935.3" font-family="Times,serif" font-size="14.00">Get %4 (l2)</text>
<text text-anchor="start" x="1072" y="-920.3" font-family="Times,serif" font-size="14.00"> types = (integer, integer)</text>
<text text-anchor="start" x="1072" y="-905.3" font-family="Times,serif" font-size="14.00"> keys = ()</text>
<text text-anchor="start" x="1072" y="-890.3" font-family="Times,serif" font-size="14.00"> Distinct group=(#0, #1)</text>
<text text-anchor="start" x="1072" y="-875.3" font-family="Times,serif" font-size="14.00"> types = (integer, integer)</text>
<text text-anchor="start" x="1072" y="-860.3" font-family="Times,serif" font-size="14.00"> keys = ((#0, #1))</text>
</g>
<!-- node4&#45;&gt;node14 -->
<g id="edge26" class="edge">
<title>node4&#45;&gt;node14</title>
<path fill="none" stroke="black" d="M1044.93,-1194.34C1049.08,-1188.35 1053.07,-1182.13 1056.5,-1176 1096.13,-1105.15 1128.54,-1016.95 1147.43,-960.19"/>
<polygon fill="black" stroke="black" points="1150.77,-961.26 1150.58,-950.67 1144.12,-959.07 1150.77,-961.26"/>
<text text-anchor="start" x="1064.5" y="-1164.8" font-family="Times,serif" font-size="14.00">%4</text>
</g>
<!-- node16 -->
<g id="node17" class="node">
<title>node16</title>
<polygon fill="none" stroke="black" points="924,-375.5 924,-488.5 1245,-488.5 1245,-375.5 924,-375.5"/>
<text text-anchor="start" x="932" y="-473.3" font-family="Times,serif" font-size="14.00">Join %15 %4 (= #0 #2) (= #1 #3)</text>
<text text-anchor="start" x="932" y="-458.3" font-family="Times,serif" font-size="14.00"> implementation = Unimplemented</text>
<text text-anchor="start" x="932" y="-443.3" font-family="Times,serif" font-size="14.00"> types = (integer, integer, integer, integer)</text>
<text text-anchor="start" x="932" y="-428.3" font-family="Times,serif" font-size="14.00"> keys = ()</text>
<text text-anchor="start" x="932" y="-413.3" font-family="Times,serif" font-size="14.00"> Project (#0, #1)</text>
<text text-anchor="start" x="932" y="-398.3" font-family="Times,serif" font-size="14.00"> types = (integer, integer)</text>
<text text-anchor="start" x="932" y="-383.3" font-family="Times,serif" font-size="14.00"> keys = ()</text>
</g>
<!-- node4&#45;&gt;node16 -->
<g id="edge18" class="edge">
<title>node4&#45;&gt;node16</title>
<path fill="none" stroke="black" d="M1023.33,-1194.32C1031.92,-1158.46 1042.5,-1104.63 1042.5,-1057 1042.5,-1057 1042.5,-1057 1042.5,-566 1042.5,-543.32 1048.12,-519.44 1055.25,-498.26"/>
<polygon fill="black" stroke="black" points="1058.58,-499.33 1058.62,-488.74 1051.99,-497 1058.58,-499.33"/>
<text text-anchor="start" x="1042.5" y="-735.8" font-family="Times,serif" font-size="14.00">%4</text>
</g>
<!-- node6 -->
<g id="node7" class="node">
<title>node6</title>
<polygon fill="none" stroke="black" points="307,-668 307,-811 628,-811 628,-668 307,-668"/>
<text text-anchor="start" x="315" y="-795.8" font-family="Times,serif" font-size="14.00">Get %5 (l3)</text>
<text text-anchor="start" x="315" y="-780.8" font-family="Times,serif" font-size="14.00"> types = (integer, integer, integer, integer)</text>
<text text-anchor="start" x="315" y="-765.8" font-family="Times,serif" font-size="14.00"> keys = ()</text>
<text text-anchor="start" x="315" y="-750.8" font-family="Times,serif" font-size="14.00"> Distinct group=(#0, #1)</text>
<text text-anchor="start" x="315" y="-735.8" font-family="Times,serif" font-size="14.00"> types = (integer, integer)</text>
<text text-anchor="start" x="315" y="-720.8" font-family="Times,serif" font-size="14.00"> keys = ((#0, #1))</text>
<text text-anchor="start" x="315" y="-705.8" font-family="Times,serif" font-size="14.00"> Negate</text>
<text text-anchor="start" x="315" y="-690.8" font-family="Times,serif" font-size="14.00"> types = (integer, integer)</text>
<text text-anchor="start" x="315" y="-675.8" font-family="Times,serif" font-size="14.00"> keys = ()</text>
</g>
<!-- node5&#45;&gt;node6 -->
<g id="edge6" class="edge">
<title>node5&#45;&gt;node6</title>
<path fill="none" stroke="black" d="M605.1,-969.48C577.07,-922.83 542.59,-865.46 515.16,-819.81"/>
<polygon fill="black" stroke="black" points="518.1,-817.91 509.95,-811.14 512.1,-821.51 518.1,-817.91"/>
<text text-anchor="start" x="590.5" y="-897.8" font-family="Times,serif" font-size="14.00">%5</text>
</g>
<!-- node12 -->
<g id="node13" class="node">
<title>node12</title>
<polygon fill="none" stroke="black" points="483.5,-105.5 483.5,-158.5 821.5,-158.5 821.5,-105.5 483.5,-105.5"/>
<text text-anchor="start" x="491.5" y="-143.3" font-family="Times,serif" font-size="14.00">Union %5 %11</text>
<text text-anchor="start" x="491.5" y="-128.3" font-family="Times,serif" font-size="14.00"> types = (integer, integer, integer?, integer?)</text>
<text text-anchor="start" x="491.5" y="-113.3" font-family="Times,serif" font-size="14.00"> keys = ()</text>
</g>
<!-- node5&#45;&gt;node12 -->
<g id="edge13" class="edge">
<title>node5&#45;&gt;node12</title>
<path fill="none" stroke="black" d="M656.5,-969.24C656.5,-906.01 656.5,-817.9 656.5,-740.5 656.5,-740.5 656.5,-740.5 656.5,-266 656.5,-233.17 655.27,-195.79 654.17,-169.04"/>
<polygon fill="black" stroke="black" points="657.66,-168.83 653.74,-158.99 650.67,-169.13 657.66,-168.83"/>
<text text-anchor="start" x="656.5" y="-510.8" font-family="Times,serif" font-size="14.00">%5</text>
</g>
<!-- node13 -->
<g id="node14" class="node">
<title>node13</title>
<polygon fill="none" stroke="black" points="685,-645.5 685,-833.5 1006,-833.5 1006,-645.5 685,-645.5"/>
<text text-anchor="start" x="693" y="-818.3" font-family="Times,serif" font-size="14.00">Get %5 (l3)</text>
<text text-anchor="start" x="693" y="-803.3" font-family="Times,serif" font-size="14.00"> types = (integer, integer, integer, integer)</text>
<text text-anchor="start" x="693" y="-788.3" font-family="Times,serif" font-size="14.00"> keys = ()</text>
<text text-anchor="start" x="693" y="-773.3" font-family="Times,serif" font-size="14.00"> Project (#2, #3, #0, #1)</text>
<text text-anchor="start" x="693" y="-758.3" font-family="Times,serif" font-size="14.00"> types = (integer, integer, integer, integer)</text>
<text text-anchor="start" x="693" y="-743.3" font-family="Times,serif" font-size="14.00"> keys = ()</text>
<text text-anchor="start" x="693" y="-728.3" font-family="Times,serif" font-size="14.00"> Distinct group=(#0, #1)</text>
<text text-anchor="start" x="693" y="-713.3" font-family="Times,serif" font-size="14.00"> types = (integer, integer)</text>
<text text-anchor="start" x="693" y="-698.3" font-family="Times,serif" font-size="14.00"> keys = ((#0, #1))</text>
<text text-anchor="start" x="693" y="-683.3" font-family="Times,serif" font-size="14.00"> Negate</text>
<text text-anchor="start" x="693" y="-668.3" font-family="Times,serif" font-size="14.00"> types = (integer, integer)</text>
<text text-anchor="start" x="693" y="-653.3" font-family="Times,serif" font-size="14.00"> keys = ()</text>
</g>
<!-- node5&#45;&gt;node13 -->
<g id="edge16" class="edge">
<title>node5&#45;&gt;node13</title>
<path fill="none" stroke="black" d="M707.9,-969.48C731.47,-930.25 759.6,-883.44 784.26,-842.4"/>
<polygon fill="black" stroke="black" points="787.32,-844.11 789.47,-833.74 781.32,-840.51 787.32,-844.11"/>
<text text-anchor="start" x="772.5" y="-897.8" font-family="Times,serif" font-size="14.00">%5</text>
</g>
<!-- node8 -->
<g id="node9" class="node">
<title>node8</title>
<polygon fill="none" stroke="black" points="296,-540.5 296,-593.5 499,-593.5 499,-540.5 296,-540.5"/>
<text text-anchor="start" x="304" y="-578.3" font-family="Times,serif" font-size="14.00">Union %6 %7</text>
<text text-anchor="start" x="304" y="-563.3" font-family="Times,serif" font-size="14.00"> types = (integer, integer)</text>
<text text-anchor="start" x="304" y="-548.3" font-family="Times,serif" font-size="14.00"> keys = ()</text>
</g>
<!-- node6&#45;&gt;node8 -->
<g id="edge20" class="edge">
<title>node6&#45;&gt;node8</title>
<path fill="none" stroke="black" d="M438.42,-667.67C429.27,-645.39 419.57,-621.75 411.91,-603.09"/>
<polygon fill="black" stroke="black" points="415.14,-601.74 408.1,-593.82 408.66,-604.4 415.14,-601.74"/>
<text text-anchor="start" x="420.5" y="-615.8" font-family="Times,serif" font-size="14.00">%6</text>
</g>
<!-- node7&#45;&gt;node8 -->
<g id="edge19" class="edge">
<title>node7&#45;&gt;node8</title>
<path fill="none" stroke="black" d="M287.24,-852.38C282.24,-846.76 277.87,-840.63 274.5,-834 236.47,-759.1 233.81,-718.48 274.5,-645 285.3,-625.51 303.32,-610.29 322.28,-598.72"/>
<polygon fill="black" stroke="black" points="324.13,-601.7 331.03,-593.66 320.62,-595.64 324.13,-601.7"/>
<text text-anchor="start" x="274.5" y="-735.8" font-family="Times,serif" font-size="14.00">%7</text>
</g>
<!-- node8&#45;&gt;node9 -->
<g id="edge14" class="edge">
<title>node8&#45;&gt;node9</title>
<path fill="none" stroke="black" d="M397.5,-540.36C397.5,-528.4 397.5,-513.56 397.5,-498.77"/>
<polygon fill="black" stroke="black" points="401,-498.57 397.5,-488.57 394,-498.57 401,-498.57"/>
<text text-anchor="start" x="397.5" y="-510.8" font-family="Times,serif" font-size="14.00">%8</text>
</g>
<!-- node11 -->
<g id="node12" class="node">
<title>node11</title>
<polygon fill="none" stroke="black" points="228.5,-233 228.5,-301 566.5,-301 566.5,-233 228.5,-233"/>
<text text-anchor="start" x="236.5" y="-285.8" font-family="Times,serif" font-size="14.00">Join %9 %10</text>
<text text-anchor="start" x="236.5" y="-270.8" font-family="Times,serif" font-size="14.00"> implementation = Unimplemented</text>
<text text-anchor="start" x="236.5" y="-255.8" font-family="Times,serif" font-size="14.00"> types = (integer, integer, integer?, integer?)</text>
<text text-anchor="start" x="236.5" y="-240.8" font-family="Times,serif" font-size="14.00"> keys = ()</text>
</g>
<!-- node9&#45;&gt;node11 -->
<g id="edge10" class="edge">
<title>node9&#45;&gt;node11</title>
<path fill="none" stroke="black" d="M397.5,-375.36C397.5,-354.41 397.5,-330.91 397.5,-311.26"/>
<polygon fill="black" stroke="black" points="401,-311.07 397.5,-301.07 394,-311.07 401,-311.07"/>
<text text-anchor="start" x="397.5" y="-345.8" font-family="Times,serif" font-size="14.00">%9</text>
</g>
<!-- node10 -->
<g id="node11" class="node">
<title>node10</title>
<polygon fill="none" stroke="black" points="0,-405.5 0,-458.5 219,-458.5 219,-405.5 0,-405.5"/>
<text text-anchor="start" x="8" y="-443.3" font-family="Times,serif" font-size="14.00">Constant (null, null)</text>
<text text-anchor="start" x="8" y="-428.3" font-family="Times,serif" font-size="14.00"> types = (integer?, integer?)</text>
<text text-anchor="start" x="8" y="-413.3" font-family="Times,serif" font-size="14.00"> keys = (())</text>
</g>
<!-- node10&#45;&gt;node11 -->
<g id="edge7" class="edge">
<title>node10&#45;&gt;node11</title>
<path fill="none" stroke="black" d="M154.82,-405.35C201.93,-378.69 276.21,-336.65 330.19,-306.1"/>
<polygon fill="black" stroke="black" points="332.03,-309.08 339.01,-301.11 328.58,-302.99 332.03,-309.08"/>
<text text-anchor="start" x="262.5" y="-345.8" font-family="Times,serif" font-size="14.00">%10</text>
</g>
<!-- node11&#45;&gt;node12 -->
<g id="edge12" class="edge">
<title>node11&#45;&gt;node12</title>
<path fill="none" stroke="black" d="M460.86,-232.95C501.78,-211.61 554.61,-184.06 594.44,-163.28"/>
<polygon fill="black" stroke="black" points="596.25,-166.29 603.49,-158.56 593.01,-160.08 596.25,-166.29"/>
<text text-anchor="start" x="563.5" y="-180.8" font-family="Times,serif" font-size="14.00">%11</text>
</g>
<!-- node19 -->
<g id="node20" class="node">
<title>node19</title>
<polygon fill="none" stroke="black" points="616.5,-0.5 616.5,-53.5 972.5,-53.5 972.5,-0.5 616.5,-0.5"/>
<text text-anchor="start" x="624.5" y="-38.3" font-family="Times,serif" font-size="14.00">Union %12 %18</text>
<text text-anchor="start" x="624.5" y="-23.3" font-family="Times,serif" font-size="14.00"> types = (integer?, integer?, integer?, integer?)</text>
<text text-anchor="start" x="624.5" y="-8.3" font-family="Times,serif" font-size="14.00"> keys = ()</text>
</g>
<!-- node12&#45;&gt;node19 -->
<g id="edge8" class="edge">
<title>node12&#45;&gt;node19</title>
<path fill="none" stroke="black" d="M687.97,-105.27C707.03,-91.45 730.69,-74.28 750.87,-59.65"/>
<polygon fill="black" stroke="black" points="752.95,-62.46 758.99,-53.75 748.84,-56.79 752.95,-62.46"/>
<text text-anchor="start" x="731.5" y="-75.8" font-family="Times,serif" font-size="14.00">%12</text>
</g>
<!-- node15 -->
<g id="node16" class="node">
<title>node15</title>
<polygon fill="none" stroke="black" points="1071,-540.5 1071,-593.5 1274,-593.5 1274,-540.5 1071,-540.5"/>
<text text-anchor="start" x="1079" y="-578.3" font-family="Times,serif" font-size="14.00">Union %13 %14</text>
<text text-anchor="start" x="1079" y="-563.3" font-family="Times,serif" font-size="14.00"> types = (integer, integer)</text>
<text text-anchor="start" x="1079" y="-548.3" font-family="Times,serif" font-size="14.00"> keys = ()</text>
</g>
<!-- node13&#45;&gt;node15 -->
<g id="edge21" class="edge">
<title>node13&#45;&gt;node15</title>
<path fill="none" stroke="black" d="M1006.11,-652.51C1010.96,-649.97 1015.76,-647.46 1020.5,-645 1050.56,-629.36 1084.15,-612.3 1112.1,-598.22"/>
<polygon fill="black" stroke="black" points="1113.99,-601.19 1121.34,-593.57 1110.84,-594.93 1113.99,-601.19"/>
<text text-anchor="start" x="1082.5" y="-615.8" font-family="Times,serif" font-size="14.00">%13</text>
</g>
<!-- node14&#45;&gt;node15 -->
<g id="edge23" class="edge">
<title>node14&#45;&gt;node15</title>
<path fill="none" stroke="black" d="M1166.52,-852.15C1167.94,-784.7 1170.48,-663.89 1171.74,-603.87"/>
<polygon fill="black" stroke="black" points="1175.25,-603.82 1171.96,-593.74 1168.25,-603.67 1175.25,-603.82"/>
<text text-anchor="start" x="1170.5" y="-735.8" font-family="Times,serif" font-size="14.00">%14</text>
</g>
<!-- node15&#45;&gt;node16 -->
<g id="edge17" class="edge">
<title>node15&#45;&gt;node16</title>
<path fill="none" stroke="black" d="M1155.53,-540.36C1147.32,-527.94 1137.04,-512.41 1126.89,-497.06"/>
<polygon fill="black" stroke="black" points="1129.71,-494.98 1121.27,-488.57 1123.87,-498.84 1129.71,-494.98"/>
<text text-anchor="start" x="1141.5" y="-510.8" font-family="Times,serif" font-size="14.00">%15</text>
</g>
<!-- node18 -->
<g id="node19" class="node">
<title>node18</title>
<polygon fill="none" stroke="black" points="688,-210.5 688,-323.5 1027,-323.5 1027,-210.5 688,-210.5"/>
<text text-anchor="start" x="696" y="-308.3" font-family="Times,serif" font-size="14.00">Join %16 %17</text>
<text text-anchor="start" x="696" y="-293.3" font-family="Times,serif" font-size="14.00"> implementation = Unimplemented</text>
<text text-anchor="start" x="696" y="-278.3" font-family="Times,serif" font-size="14.00"> types = (integer, integer, integer?, integer?)</text>
<text text-anchor="start" x="696" y="-263.3" font-family="Times,serif" font-size="14.00"> keys = ()</text>
<text text-anchor="start" x="696" y="-248.3" font-family="Times,serif" font-size="14.00"> Project (#2, #3, #0, #1)</text>
<text text-anchor="start" x="696" y="-233.3" font-family="Times,serif" font-size="14.00"> types = (integer?, integer?, integer, integer)</text>
<text text-anchor="start" x="696" y="-218.3" font-family="Times,serif" font-size="14.00"> keys = ()</text>
</g>
<!-- node16&#45;&gt;node18 -->
<g id="edge25" class="edge">
<title>node16&#45;&gt;node18</title>
<path fill="none" stroke="black" d="M1007.01,-375.36C986.49,-360.62 964.22,-344.63 943.28,-329.6"/>
<polygon fill="black" stroke="black" points="945.19,-326.65 935.02,-323.67 941.1,-332.34 945.19,-326.65"/>
<text text-anchor="start" x="977.5" y="-345.8" font-family="Times,serif" font-size="14.00">%16</text>
</g>
<!-- node17 -->
<g id="node18" class="node">
<title>node17</title>
<polygon fill="none" stroke="black" points="687,-405.5 687,-458.5 906,-458.5 906,-405.5 687,-405.5"/>
<text text-anchor="start" x="695" y="-443.3" font-family="Times,serif" font-size="14.00">Constant (null, null)</text>
<text text-anchor="start" x="695" y="-428.3" font-family="Times,serif" font-size="14.00"> types = (integer?, integer?)</text>
<text text-anchor="start" x="695" y="-413.3" font-family="Times,serif" font-size="14.00"> keys = (())</text>
</g>
<!-- node17&#45;&gt;node18 -->
<g id="edge15" class="edge">
<title>node17&#45;&gt;node18</title>
<path fill="none" stroke="black" d="M806.17,-405.17C813.4,-385.83 823.64,-358.47 833.07,-333.27"/>
<polygon fill="black" stroke="black" points="836.41,-334.33 836.64,-323.74 829.86,-331.88 836.41,-334.33"/>
<text text-anchor="start" x="828.5" y="-345.8" font-family="Times,serif" font-size="14.00">%17</text>
</g>
<!-- node18&#45;&gt;node19 -->
<g id="edge24" class="edge">
<title>node18&#45;&gt;node19</title>
<path fill="none" stroke="black" d="M851.94,-210.36C847.87,-178.95 841.15,-139.23 830.5,-105 826.05,-90.71 819.48,-75.67 813.17,-62.7"/>
<polygon fill="black" stroke="black" points="816.25,-61.04 808.65,-53.67 809.99,-64.18 816.25,-61.04"/>
<text text-anchor="start" x="843.5" y="-128.3" font-family="Times,serif" font-size="14.00">%18</text>
</g>
</g>
</svg>
