<?xml version="1.0" encoding="UTF-8" standalone="no"?>
<!DOCTYPE svg PUBLIC "-//W3C//DTD SVG 1.1//EN"
 "http://www.w3.org/Graphics/SVG/1.1/DTD/svg11.dtd">
<!-- Generated by graphviz version 2.43.0 (0)
 -->
<!-- Title: G Pages: 1 -->
<svg width="1202pt" height="992pt"
 viewBox="0.00 0.00 1202.00 992.00" xmlns="http://www.w3.org/2000/svg" xmlns:xlink="http://www.w3.org/1999/xlink">
<g id="graph0" class="graph" transform="scale(1 1) rotate(0) translate(4 988)">
<title>G</title>
<polygon fill="white" stroke="transparent" points="-4,4 -4,-988 1198,-988 1198,4 -4,4"/>
<!-- node0 -->
<g id="node1" class="node">
<title>node0</title>
<polygon fill="none" stroke="black" points="0,-885.5 0,-983.5 215,-983.5 215,-885.5 0,-885.5"/>
<text text-anchor="start" x="8" y="-968.3" font-family="Times,serif" font-size="14.00">Get outer_joins.public.l (u2)</text>
<text text-anchor="start" x="8" y="-953.3" font-family="Times,serif" font-size="14.00"> types = (integer, integer)</text>
<text text-anchor="start" x="8" y="-938.3" font-family="Times,serif" font-size="14.00"> keys = ()</text>
<text text-anchor="start" x="8" y="-923.3" font-family="Times,serif" font-size="14.00"> ArrangeBy ()</text>
<text text-anchor="start" x="8" y="-908.3" font-family="Times,serif" font-size="14.00"> types = (integer, integer)</text>
<text text-anchor="start" x="8" y="-893.3" font-family="Times,serif" font-size="14.00"> keys = ()</text>
</g>
<!-- node2 -->
<g id="node3" class="node">
<title>node2</title>
<polygon fill="none" stroke="black" points="64,-705.5 64,-833.5 385,-833.5 385,-705.5 64,-705.5"/>
<text text-anchor="start" x="72" y="-818.3" font-family="Times,serif" font-size="14.00">Let l0 =</text>
<text text-anchor="start" x="72" y="-803.3" font-family="Times,serif" font-size="14.00"> Join %0 %1</text>
<text text-anchor="start" x="72" y="-788.3" font-family="Times,serif" font-size="14.00"> implementation = Differential %1 %0.()</text>
<text text-anchor="start" x="72" y="-773.3" font-family="Times,serif" font-size="14.00"> types = (integer, integer, integer, integer)</text>
<text text-anchor="start" x="72" y="-758.3" font-family="Times,serif" font-size="14.00"> keys = ()</text>
<text text-anchor="start" x="72" y="-743.3" font-family="Times,serif" font-size="14.00"> Filter (#1 &lt;= #2), (#1 &gt;= #2)</text>
<text text-anchor="start" x="72" y="-728.3" font-family="Times,serif" font-size="14.00"> types = (integer, integer, integer, integer)</text>
<text text-anchor="start" x="72" y="-713.3" font-family="Times,serif" font-size="14.00"> keys = ()</text>
</g>
<!-- node0&#45;&gt;node2 -->
<g id="edge8" class="edge">
<title>node0&#45;&gt;node2</title>
<path fill="none" stroke="black" d="M141.97,-885.48C151.81,-871.77 162.75,-856.53 173.36,-841.75"/>
<polygon fill="black" stroke="black" points="176.22,-843.77 179.21,-833.6 170.53,-839.68 176.22,-843.77"/>
<text text-anchor="start" x="166.5" y="-855.8" font-family="Times,serif" font-size="14.00">%0</text>
</g>
<!-- node1 -->
<g id="node2" class="node">
<title>node1</title>
<polygon fill="none" stroke="black" points="233.5,-908 233.5,-961 451.5,-961 451.5,-908 233.5,-908"/>
<text text-anchor="start" x="241.5" y="-945.8" font-family="Times,serif" font-size="14.00">Get outer_joins.public.r (u4)</text>
<text text-anchor="start" x="241.5" y="-930.8" font-family="Times,serif" font-size="14.00"> types = (integer, integer)</text>
<text text-anchor="start" x="241.5" y="-915.8" font-family="Times,serif" font-size="14.00"> keys = ()</text>
</g>
<!-- node1&#45;&gt;node2 -->
<g id="edge12" class="edge">
<title>node1&#45;&gt;node2</title>
<path fill="none" stroke="black" d="M323.8,-907.67C310.96,-889.93 293.22,-865.43 276.3,-842.05"/>
<polygon fill="black" stroke="black" points="279.05,-839.89 270.35,-833.84 273.38,-843.99 279.05,-839.89"/>
<text text-anchor="start" x="294.5" y="-855.8" font-family="Times,serif" font-size="14.00">%1</text>
</g>
<!-- node3 -->
<g id="node4" class="node">
<title>node3</title>
<polygon fill="none" stroke="black" points="873,-465.5 873,-653.5 1194,-653.5 1194,-465.5 873,-465.5"/>
<text text-anchor="start" x="881" y="-638.3" font-family="Times,serif" font-size="14.00">Get %2 (l0)</text>
<text text-anchor="start" x="881" y="-623.3" font-family="Times,serif" font-size="14.00"> types = (integer, integer, integer, integer)</text>
<text text-anchor="start" x="881" y="-608.3" font-family="Times,serif" font-size="14.00"> keys = ()</text>
<text text-anchor="start" x="881" y="-593.3" font-family="Times,serif" font-size="14.00"> Project (#0, #1)</text>
<text text-anchor="start" x="881" y="-578.3" font-family="Times,serif" font-size="14.00"> types = (integer, integer)</text>
<text text-anchor="start" x="881" y="-563.3" font-family="Times,serif" font-size="14.00"> keys = ()</text>
<text text-anchor="start" x="881" y="-548.3" font-family="Times,serif" font-size="14.00"> Distinct group=(#0, #1)</text>
<text text-anchor="start" x="881" y="-533.3" font-family="Times,serif" font-size="14.00"> types = (integer, integer)</text>
<text text-anchor="start" x="881" y="-518.3" font-family="Times,serif" font-size="14.00"> keys = ((#0, #1))</text>
<text text-anchor="start" x="881" y="-503.3" font-family="Times,serif" font-size="14.00"> Negate</text>
<text text-anchor="start" x="881" y="-488.3" font-family="Times,serif" font-size="14.00"> types = (integer, integer)</text>
<text text-anchor="start" x="881" y="-473.3" font-family="Times,serif" font-size="14.00"> keys = ()</text>
</g>
<!-- node2&#45;&gt;node3 -->
<g id="edge10" class="edge">
<title>node2&#45;&gt;node3</title>
<path fill="none" stroke="black" d="M385.05,-754.52C514.23,-739.87 699.28,-711.19 862.83,-654.45"/>
<polygon fill="black" stroke="black" points="864.3,-657.64 872.58,-651.02 861.98,-651.04 864.3,-657.64"/>
<text text-anchor="start" x="797.5" y="-675.8" font-family="Times,serif" font-size="14.00">%2</text>
</g>
<!-- node8 -->
<g id="node9" class="node">
<title>node8</title>
<polygon fill="none" stroke="black" points="64,-465.5 64,-653.5 385,-653.5 385,-465.5 64,-465.5"/>
<text text-anchor="start" x="72" y="-638.3" font-family="Times,serif" font-size="14.00">Get %2 (l0)</text>
<text text-anchor="start" x="72" y="-623.3" font-family="Times,serif" font-size="14.00"> types = (integer, integer, integer, integer)</text>
<text text-anchor="start" x="72" y="-608.3" font-family="Times,serif" font-size="14.00"> keys = ()</text>
<text text-anchor="start" x="72" y="-593.3" font-family="Times,serif" font-size="14.00"> Project (#2, #3)</text>
<text text-anchor="start" x="72" y="-578.3" font-family="Times,serif" font-size="14.00"> types = (integer, integer)</text>
<text text-anchor="start" x="72" y="-563.3" font-family="Times,serif" font-size="14.00"> keys = ()</text>
<text text-anchor="start" x="72" y="-548.3" font-family="Times,serif" font-size="14.00"> Distinct group=(#0, #1)</text>
<text text-anchor="start" x="72" y="-533.3" font-family="Times,serif" font-size="14.00"> types = (integer, integer)</text>
<text text-anchor="start" x="72" y="-518.3" font-family="Times,serif" font-size="14.00"> keys = ((#0, #1))</text>
<text text-anchor="start" x="72" y="-503.3" font-family="Times,serif" font-size="14.00"> Negate</text>
<text text-anchor="start" x="72" y="-488.3" font-family="Times,serif" font-size="14.00"> types = (integer, integer)</text>
<text text-anchor="start" x="72" y="-473.3" font-family="Times,serif" font-size="14.00"> keys = ()</text>
</g>
<!-- node2&#45;&gt;node8 -->
<g id="edge5" class="edge">
<title>node2&#45;&gt;node8</title>
<path fill="none" stroke="black" d="M224.5,-705.25C224.5,-692.17 224.5,-678.06 224.5,-663.98"/>
<polygon fill="black" stroke="black" points="228,-663.73 224.5,-653.73 221,-663.73 228,-663.73"/>
<text text-anchor="start" x="224.5" y="-675.8" font-family="Times,serif" font-size="14.00">%2</text>
</g>
<!-- node13 -->
<g id="node14" class="node">
<title>node13</title>
<polygon fill="none" stroke="black" points="113.5,-0.5 113.5,-53.5 469.5,-53.5 469.5,-0.5 113.5,-0.5"/>
<text text-anchor="start" x="121.5" y="-38.3" font-family="Times,serif" font-size="14.00">Union %2 %7 %12</text>
<text text-anchor="start" x="121.5" y="-23.3" font-family="Times,serif" font-size="14.00"> types = (integer?, integer?, integer?, integer?)</text>
<text text-anchor="start" x="121.5" y="-8.3" font-family="Times,serif" font-size="14.00"> keys = ()</text>
</g>
<!-- node2&#45;&gt;node13 -->
<g id="edge7" class="edge">
<title>node2&#45;&gt;node13</title>
<path fill="none" stroke="black" d="M104.14,-705.17C85.17,-690.59 67.55,-673.52 54.5,-654 30.93,-618.75 35.5,-602.9 35.5,-560.5 35.5,-560.5 35.5,-560.5 35.5,-183.5 35.5,-147.6 30.11,-131.34 54.5,-105 74.09,-83.85 99.54,-68.49 126.48,-57.34"/>
<polygon fill="black" stroke="black" points="128.03,-60.49 136.06,-53.57 125.47,-53.98 128.03,-60.49"/>
<text text-anchor="start" x="35.5" y="-360.8" font-family="Times,serif" font-size="14.00">%2</text>
</g>
<!-- node5 -->
<g id="node6" class="node">
<title>node5</title>
<polygon fill="none" stroke="black" points="850,-338 850,-391 1053,-391 1053,-338 850,-338"/>
<text text-anchor="start" x="858" y="-375.8" font-family="Times,serif" font-size="14.00">Union %3 %4</text>
<text text-anchor="start" x="858" y="-360.8" font-family="Times,serif" font-size="14.00"> types = (integer, integer)</text>
<text text-anchor="start" x="858" y="-345.8" font-family="Times,serif" font-size="14.00"> keys = ()</text>
</g>
<!-- node3&#45;&gt;node5 -->
<g id="edge11" class="edge">
<title>node3&#45;&gt;node5</title>
<path fill="none" stroke="black" d="M993.94,-465.39C984.15,-442.35 974.25,-419.05 966.48,-400.76"/>
<polygon fill="black" stroke="black" points="969.64,-399.24 962.51,-391.41 963.2,-401.98 969.64,-399.24"/>
<text text-anchor="start" x="984.5" y="-435.8" font-family="Times,serif" font-size="14.00">%3</text>
</g>
<!-- node4 -->
<g id="node5" class="node">
<title>node4</title>
<polygon fill="none" stroke="black" points="640,-510.5 640,-608.5 855,-608.5 855,-510.5 640,-510.5"/>
<text text-anchor="start" x="648" y="-593.3" font-family="Times,serif" font-size="14.00">Get outer_joins.public.l (u2)</text>
<text text-anchor="start" x="648" y="-578.3" font-family="Times,serif" font-size="14.00"> types = (integer, integer)</text>
<text text-anchor="start" x="648" y="-563.3" font-family="Times,serif" font-size="14.00"> keys = ()</text>
<text text-anchor="start" x="648" y="-548.3" font-family="Times,serif" font-size="14.00"> Distinct group=(#0, #1)</text>
<text text-anchor="start" x="648" y="-533.3" font-family="Times,serif" font-size="14.00"> types = (integer, integer)</text>
<text text-anchor="start" x="648" y="-518.3" font-family="Times,serif" font-size="14.00"> keys = ((#0, #1))</text>
</g>
<!-- node4&#45;&gt;node5 -->
<g id="edge3" class="edge">
<title>node4&#45;&gt;node5</title>
<path fill="none" stroke="black" d="M798.45,-510.3C835.38,-475.36 884.34,-429.04 916.83,-398.31"/>
<polygon fill="black" stroke="black" points="919.45,-400.64 924.31,-391.23 914.64,-395.56 919.45,-400.64"/>
<text text-anchor="start" x="879.5" y="-435.8" font-family="Times,serif" font-size="14.00">%4</text>
</g>
<!-- node7 -->
<g id="node8" class="node">
<title>node7</title>
<polygon fill="none" stroke="black" points="537.5,-105.5 537.5,-263.5 993.5,-263.5 993.5,-105.5 537.5,-105.5"/>
<text text-anchor="start" x="545.5" y="-248.3" font-family="Times,serif" font-size="14.00">Join %5 %6 (= #0 #2) (= #1 #3)</text>
<text text-anchor="start" x="545.5" y="-233.3" font-family="Times,serif" font-size="14.00"> implementation = Differential %5 %6.(#0, #1)</text>
<text text-anchor="start" x="545.5" y="-218.3" font-family="Times,serif" font-size="14.00"> types = (integer, integer, integer, integer)</text>
<text text-anchor="start" x="545.5" y="-203.3" font-family="Times,serif" font-size="14.00"> keys = ()</text>
<text text-anchor="start" x="545.5" y="-188.3" font-family="Times,serif" font-size="14.00"> Map null, null</text>
<text text-anchor="start" x="545.5" y="-173.3" font-family="Times,serif" font-size="14.00"> types = (integer, integer, integer, integer, integer?, integer?)</text>
<text text-anchor="start" x="545.5" y="-158.3" font-family="Times,serif" font-size="14.00"> keys = ()</text>
<text text-anchor="start" x="545.5" y="-143.3" font-family="Times,serif" font-size="14.00"> Project (#0, #1, #4, #5)</text>
<text text-anchor="start" x="545.5" y="-128.3" font-family="Times,serif" font-size="14.00"> types = (integer, integer, integer?, integer?)</text>
<text text-anchor="start" x="545.5" y="-113.3" font-family="Times,serif" font-size="14.00"> keys = ()</text>
</g>
<!-- node5&#45;&gt;node7 -->
<g id="edge1" class="edge">
<title>node5&#45;&gt;node7</title>
<path fill="none" stroke="black" d="M924.85,-338C906.29,-320.24 880.38,-295.43 854.83,-270.99"/>
<polygon fill="black" stroke="black" points="856.93,-268.15 847.28,-263.77 852.09,-273.21 856.93,-268.15"/>
<text text-anchor="start" x="880.5" y="-285.8" font-family="Times,serif" font-size="14.00">%5</text>
</g>
<!-- node6 -->
<g id="node7" class="node">
<title>node6</title>
<polygon fill="none" stroke="black" points="617,-315.5 617,-413.5 832,-413.5 832,-315.5 617,-315.5"/>
<text text-anchor="start" x="625" y="-398.3" font-family="Times,serif" font-size="14.00">Get outer_joins.public.l (u2)</text>
<text text-anchor="start" x="625" y="-383.3" font-family="Times,serif" font-size="14.00"> types = (integer, integer)</text>
<text text-anchor="start" x="625" y="-368.3" font-family="Times,serif" font-size="14.00"> keys = ()</text>
<text text-anchor="start" x="625" y="-353.3" font-family="Times,serif" font-size="14.00"> ArrangeBy (#0, #1)</text>
<text text-anchor="start" x="625" y="-338.3" font-family="Times,serif" font-size="14.00"> types = (integer, integer)</text>
<text text-anchor="start" x="625" y="-323.3" font-family="Times,serif" font-size="14.00"> keys = ()</text>
</g>
<!-- node6&#45;&gt;node7 -->
<g id="edge4" class="edge">
<title>node6&#45;&gt;node7</title>
<path fill="none" stroke="black" d="M735.6,-315.33C738.58,-302.36 741.91,-287.92 745.23,-273.51"/>
<polygon fill="black" stroke="black" points="748.69,-274.09 747.52,-263.56 741.86,-272.52 748.69,-274.09"/>
<text text-anchor="start" x="742.5" y="-285.8" font-family="Times,serif" font-size="14.00">%6</text>
</g>
<!-- node7&#45;&gt;node13 -->
<g id="edge13" class="edge">
<title>node7&#45;&gt;node13</title>
<path fill="none" stroke="black" d="M537.2,-107.86C534.29,-106.9 531.38,-105.95 528.5,-105 479.48,-88.92 424.7,-71.11 380.17,-56.68"/>
<polygon fill="black" stroke="black" points="381.13,-53.31 370.54,-53.55 378.97,-59.97 381.13,-53.31"/>
<text text-anchor="start" x="469.5" y="-75.8" font-family="Times,serif" font-size="14.00">%7</text>
</g>
<!-- node10 -->
<g id="node11" class="node">
<title>node10</title>
<polygon fill="none" stroke="black" points="151,-338 151,-391 354,-391 354,-338 151,-338"/>
<text text-anchor="start" x="159" y="-375.8" font-family="Times,serif" font-size="14.00">Union %8 %9</text>
<text text-anchor="start" x="159" y="-360.8" font-family="Times,serif" font-size="14.00"> types = (integer, integer)</text>
<text text-anchor="start" x="159" y="-345.8" font-family="Times,serif" font-size="14.00"> keys = ()</text>
</g>
<!-- node8&#45;&gt;node10 -->
<g id="edge15" class="edge">
<title>node8&#45;&gt;node10</title>
<path fill="none" stroke="black" d="M238.01,-465.39C241.3,-442.67 244.64,-419.69 247.27,-401.52"/>
<polygon fill="black" stroke="black" points="250.77,-401.81 248.74,-391.41 243.84,-400.8 250.77,-401.81"/>
<text text-anchor="start" x="243.5" y="-435.8" font-family="Times,serif" font-size="14.00">%8</text>
</g>
<!-- node9 -->
<g id="node10" class="node">
<title>node9</title>
<polygon fill="none" stroke="black" points="403.5,-510.5 403.5,-608.5 621.5,-608.5 621.5,-510.5 403.5,-510.5"/>
<text text-anchor="start" x="411.5" y="-593.3" font-family="Times,serif" font-size="14.00">Get outer_joins.public.r (u4)</text>
<text text-anchor="start" x="411.5" y="-578.3" font-family="Times,serif" font-size="14.00"> types = (integer, integer)</text>
<text text-anchor="start" x="411.5" y="-563.3" font-family="Times,serif" font-size="14.00"> keys = ()</text>
<text text-anchor="start" x="411.5" y="-548.3" font-family="Times,serif" font-size="14.00"> Distinct group=(#0, #1)</text>
<text text-anchor="start" x="411.5" y="-533.3" font-family="Times,serif" font-size="14.00"> types = (integer, integer)</text>
<text text-anchor="start" x="411.5" y="-518.3" font-family="Times,serif" font-size="14.00"> keys = ((#0, #1))</text>
</g>
<!-- node9&#45;&gt;node10 -->
<g id="edge2" class="edge">
<title>node9&#45;&gt;node10</title>
<path fill="none" stroke="black" d="M453.3,-510.48C434.67,-495.67 413.88,-479.45 394.5,-465 363.01,-441.52 326.72,-416.12 298.71,-396.86"/>
<polygon fill="black" stroke="black" points="300.53,-393.86 290.3,-391.09 296.57,-399.64 300.53,-393.86"/>
<text text-anchor="start" x="367.5" y="-435.8" font-family="Times,serif" font-size="14.00">%9</text>
</g>
<!-- node12 -->
<g id="node13" class="node">
<title>node12</title>
<polygon fill="none" stroke="black" points="63.5,-105.5 63.5,-263.5 519.5,-263.5 519.5,-105.5 63.5,-105.5"/>
<text text-anchor="start" x="71.5" y="-248.3" font-family="Times,serif" font-size="14.00">Join %10 %11 (= #0 #2) (= #1 #3)</text>
<text text-anchor="start" x="71.5" y="-233.3" font-family="Times,serif" font-size="14.00"> implementation = Differential %10 %11.(#0, #1)</text>
<text text-anchor="start" x="71.5" y="-218.3" font-family="Times,serif" font-size="14.00"> types = (integer, integer, integer, integer)</text>
<text text-anchor="start" x="71.5" y="-203.3" font-family="Times,serif" font-size="14.00"> keys = ()</text>
<text text-anchor="start" x="71.5" y="-188.3" font-family="Times,serif" font-size="14.00"> Map null, null</text>
<text text-anchor="start" x="71.5" y="-173.3" font-family="Times,serif" font-size="14.00"> types = (integer, integer, integer, integer, integer?, integer?)</text>
<text text-anchor="start" x="71.5" y="-158.3" font-family="Times,serif" font-size="14.00"> keys = ()</text>
<text text-anchor="start" x="71.5" y="-143.3" font-family="Times,serif" font-size="14.00"> Project (#4, #5, #0, #1)</text>
<text text-anchor="start" x="71.5" y="-128.3" font-family="Times,serif" font-size="14.00"> types = (integer?, integer?, integer, integer)</text>
<text text-anchor="start" x="71.5" y="-113.3" font-family="Times,serif" font-size="14.00"> keys = ()</text>
</g>
<!-- node10&#45;&gt;node12 -->
<g id="edge9" class="edge">
<title>node10&#45;&gt;node12</title>
<path fill="none" stroke="black" d="M258.09,-338C261.83,-320.92 267,-297.34 272.15,-273.82"/>
<polygon fill="black" stroke="black" points="275.63,-274.28 274.35,-263.77 268.79,-272.78 275.63,-274.28"/>
<text text-anchor="start" x="270.5" y="-285.8" font-family="Times,serif" font-size="14.00">%10</text>
</g>
<!-- node11 -->
<g id="node12" class="node">
<title>node11</title>
<polygon fill="none" stroke="black" points="372.5,-315.5 372.5,-413.5 590.5,-413.5 590.5,-315.5 372.5,-315.5"/>
<text text-anchor="start" x="380.5" y="-398.3" font-family="Times,serif" font-size="14.00">Get outer_joins.public.r (u4)</text>
<text text-anchor="start" x="380.5" y="-383.3" font-family="Times,serif" font-size="14.00"> types = (integer, integer)</text>
<text text-anchor="start" x="380.5" y="-368.3" font-family="Times,serif" font-size="14.00"> keys = ()</text>
<text text-anchor="start" x="380.5" y="-353.3" font-family="Times,serif" font-size="14.00"> ArrangeBy (#0, #1)</text>
<text text-anchor="start" x="380.5" y="-338.3" font-family="Times,serif" font-size="14.00"> types = (integer, integer)</text>
<text text-anchor="start" x="380.5" y="-323.3" font-family="Times,serif" font-size="14.00"> keys = ()</text>
</g>
<!-- node11&#45;&gt;node12 -->
<g id="edge14" class="edge">
<title>node11&#45;&gt;node12</title>
<path fill="none" stroke="black" d="M430.08,-315.33C415.31,-301.49 398.74,-285.97 382.34,-270.6"/>
<polygon fill="black" stroke="black" points="384.52,-267.84 374.82,-263.56 379.73,-272.95 384.52,-267.84"/>
<text text-anchor="start" x="408.5" y="-285.8" font-family="Times,serif" font-size="14.00">%11</text>
</g>
<!-- node12&#45;&gt;node13 -->
<g id="edge6" class="edge">
<title>node12&#45;&gt;node13</title>
<path fill="none" stroke="black" d="M291.5,-105.29C291.5,-90.9 291.5,-76.54 291.5,-64.16"/>
<polygon fill="black" stroke="black" points="295,-63.85 291.5,-53.85 288,-63.85 295,-63.85"/>
<text text-anchor="start" x="291.5" y="-75.8" font-family="Times,serif" font-size="14.00">%12</text>
</g>
</g>
</svg>
