<?xml version="1.0" encoding="UTF-8" standalone="no"?>
<!DOCTYPE svg PUBLIC "-//W3C//DTD SVG 1.1//EN"
 "http://www.w3.org/Graphics/SVG/1.1/DTD/svg11.dtd">
<!-- Generated by graphviz version 2.43.0 (0)
 -->
<!-- Title: G Pages: 1 -->
<svg width="507pt" height="394pt"
 viewBox="0.00 0.00 507.00 394.09" xmlns="http://www.w3.org/2000/svg" xmlns:xlink="http://www.w3.org/1999/xlink">
<g id="graph0" class="graph" transform="scale(1 1) rotate(0) translate(4 390.09)">
<title>G</title>
<polygon fill="white" stroke="transparent" points="-4,4 -4,-390.09 503,-390.09 503,4 -4,4"/>
<g id="clust1" class="cluster">
<title>cluster2</title>
<polygon fill="none" stroke="black" points="229,-265 229,-378.09 491,-378.09 491,-265 229,-265"/>
<text text-anchor="middle" x="279.5" y="-362.89" font-family="Times,serif" font-size="14.00">Box2:Select</text>
</g>
<g id="clust3" class="cluster">
<title>cluster1</title>
<polygon fill="none" stroke="black" points="44,-125 44,-257 412,-257 412,-125 44,-125"/>
<text text-anchor="middle" x="94.5" y="-241.8" font-family="Times,serif" font-size="14.00">Box1:Select</text>
</g>
<g id="clust5" class="cluster">
<title>cluster0</title>
<polygon fill="none" stroke="black" points="8,-8 8,-117 170,-117 170,-8 8,-8"/>
<text text-anchor="middle" x="49.5" y="-101.8" font-family="Times,serif" font-size="14.00">Box0:Get</text>
</g>
<!-- boxhead2 -->
<g id="node1" class="node">
<title>boxhead2</title>
<polygon fill="none" stroke="black" points="329.5,-287.05 329.5,-333.05 482.5,-333.05 482.5,-287.05 329.5,-287.05"/>
<text text-anchor="middle" x="406" y="-317.85" font-family="Times,serif" font-size="14.00">Distinct: Preserve</text>
<polyline fill="none" stroke="black" points="329.5,-310.05 482.5,-310.05 "/>
<text text-anchor="middle" x="406" y="-294.85" font-family="Times,serif" font-size="14.00">0: Q1.C2 (integer?)</text>
</g>
<!-- Q1 -->
<g id="node2" class="node">
<title>Q1</title>
<ellipse fill="none" stroke="black" cx="274" cy="-310.05" rx="37.09" ry="37.09"/>
<text text-anchor="middle" x="274" y="-306.35" font-family="Times,serif" font-size="14.00">Q1(F)</text>
</g>
<!-- boxhead1 -->
<g id="node3" class="node">
<title>boxhead1</title>
<polygon fill="none" stroke="black" points="144,-133.5 144,-225.5 404,-225.5 404,-133.5 144,-133.5"/>
<text text-anchor="middle" x="274" y="-210.3" font-family="Times,serif" font-size="14.00">Distinct: Preserve</text>
<polyline fill="none" stroke="black" points="144,-202.5 404,-202.5 "/>
<text text-anchor="middle" x="274" y="-187.3" font-family="Times,serif" font-size="14.00">0: Q0.C0 (integer?)</text>
<polyline fill="none" stroke="black" points="144,-179.5 404,-179.5 "/>
<text text-anchor="middle" x="274" y="-164.3" font-family="Times,serif" font-size="14.00">1: Q0.C1 (integer)</text>
<polyline fill="none" stroke="black" points="144,-156.5 404,-156.5 "/>
<text text-anchor="middle" x="274" y="-141.3" font-family="Times,serif" font-size="14.00">2: coalesce(Q0.C1, null) (integer?)</text>
</g>
<!-- Q1&#45;&gt;boxhead1 -->
<g id="edge1" class="edge">
<title>Q1&#45;&gt;boxhead1</title>
<path fill="none" stroke="black" stroke-dasharray="5,2" d="M274,-272.9C274,-267.83 274,-262.48 274,-257"/>
</g>
<!-- Q0 -->
<g id="node4" class="node">
<title>Q0</title>
<ellipse fill="none" stroke="black" cx="89" cy="-179.5" rx="37.09" ry="37.09"/>
<text text-anchor="middle" x="89" y="-175.8" font-family="Times,serif" font-size="14.00">Q0(F)</text>
</g>
<!-- boxhead0 -->
<g id="node5" class="node">
<title>boxhead0</title>
<polygon fill="none" stroke="black" points="16,-16.5 16,-85.5 162,-85.5 162,-16.5 16,-16.5"/>
<text text-anchor="middle" x="89" y="-70.3" font-family="Times,serif" font-size="14.00">Distinct: Preserve</text>
<polyline fill="none" stroke="black" points="16,-62.5 162,-62.5 "/>
<text text-anchor="middle" x="89" y="-47.3" font-family="Times,serif" font-size="14.00">0: C0 (integer?)</text>
<polyline fill="none" stroke="black" points="16,-39.5 162,-39.5 "/>
<text text-anchor="middle" x="89" y="-24.3" font-family="Times,serif" font-size="14.00">1: C1 (integer)</text>
</g>
<!-- Q0&#45;&gt;boxhead0 -->
<g id="edge2" class="edge">
<title>Q0&#45;&gt;boxhead0</title>
<path fill="none" stroke="black" stroke-dasharray="5,2" d="M89,-142.25C89,-134.31 89,-125.68 89,-117"/>
</g>
</g>
</svg>
