<?xml version="1.0" encoding="UTF-8" standalone="no"?>
<!DOCTYPE svg PUBLIC "-//W3C//DTD SVG 1.1//EN"
 "http://www.w3.org/Graphics/SVG/1.1/DTD/svg11.dtd">
<!-- Generated by graphviz version 2.43.0 (0)
 -->
<!-- Title: G Pages: 1 -->
<svg width="790pt" height="167pt"
 viewBox="0.00 0.00 789.50 167.00" xmlns="http://www.w3.org/2000/svg" xmlns:xlink="http://www.w3.org/1999/xlink">
<g id="graph0" class="graph" transform="scale(1 1) rotate(0) translate(4 163)">
<title>G</title>
<polygon fill="white" stroke="transparent" points="-4,4 -4,-163 785.5,-163 785.5,4 -4,4"/>
<!-- node0 -->
<g id="node1" class="node">
<title>node0</title>
<polygon fill="none" stroke="black" points="0,-105.5 0,-158.5 242,-158.5 242,-105.5 0,-105.5"/>
<text text-anchor="start" x="8" y="-143.3" font-family="Times,serif" font-size="14.00">Get optimizer_101.public.a (u9)</text>
<text text-anchor="start" x="8" y="-128.3" font-family="Times,serif" font-size="14.00">Filter !(isnull(#0))</text>
<text text-anchor="start" x="8" y="-113.3" font-family="Times,serif" font-size="14.00">ArrangeBy (#0)</text>
</g>
<!-- node3 -->
<g id="node4" class="node">
<title>node3</title>
<polygon fill="none" stroke="black" points="189.5,-0.5 189.5,-53.5 582.5,-53.5 582.5,-0.5 189.5,-0.5"/>
<text text-anchor="start" x="197.5" y="-38.3" font-family="Times,serif" font-size="14.00">Join %0 %1 %2 (= #0 #3) (= #4 #5)</text>
<text text-anchor="start" x="197.5" y="-23.3" font-family="Times,serif" font-size="14.00">&#45; implementation = Differential %2 %1.(#1) %0.(#0)</text>
<text text-anchor="start" x="197.5" y="-8.3" font-family="Times,serif" font-size="14.00">Project (#0..=#2, #0, #4, #4)</text>
</g>
<!-- node0&#45;&gt;node3 -->
<g id="edge1" class="edge">
<title>node0&#45;&gt;node3</title>
<path fill="none" stroke="black" d="M186.85,-105.41C224.29,-90.85 271.35,-72.56 310.31,-57.42"/>
<polygon fill="black" stroke="black" points="311.98,-60.52 320.03,-53.64 309.44,-54 311.98,-60.52"/>
<text text-anchor="start" x="270" y="-75.8" font-family="Times,serif" font-size="14.00">%0</text>
</g>
<!-- node1 -->
<g id="node2" class="node">
<title>node1</title>
<polygon fill="none" stroke="black" points="260,-105.5 260,-158.5 512,-158.5 512,-105.5 260,-105.5"/>
<text text-anchor="start" x="268" y="-143.3" font-family="Times,serif" font-size="14.00">Get optimizer_101.public.b (u10)</text>
<text text-anchor="start" x="268" y="-128.3" font-family="Times,serif" font-size="14.00">Filter !(isnull(#0)), !(isnull(#1))</text>
<text text-anchor="start" x="268" y="-113.3" font-family="Times,serif" font-size="14.00">ArrangeBy (#1)</text>
</g>
<!-- node1&#45;&gt;node3 -->
<g id="edge3" class="edge">
<title>node1&#45;&gt;node3</title>
<path fill="none" stroke="black" d="M386,-105.27C386,-92.74 386,-77.46 386,-63.81"/>
<polygon fill="black" stroke="black" points="389.5,-63.75 386,-53.75 382.5,-63.75 389.5,-63.75"/>
<text text-anchor="start" x="386" y="-75.8" font-family="Times,serif" font-size="14.00">%1</text>
</g>
<!-- node2 -->
<g id="node3" class="node">
<title>node2</title>
<polygon fill="none" stroke="black" points="530.5,-113 530.5,-151 781.5,-151 781.5,-113 530.5,-113"/>
<text text-anchor="start" x="538.5" y="-135.8" font-family="Times,serif" font-size="14.00">Get optimizer_101.public.c (u11)</text>
<text text-anchor="start" x="538.5" y="-120.8" font-family="Times,serif" font-size="14.00">Filter !(isnull(#0))</text>
</g>
<!-- node2&#45;&gt;node3 -->
<g id="edge2" class="edge">
<title>node2&#45;&gt;node3</title>
<path fill="none" stroke="black" d="M608.66,-112.94C568.34,-97.56 509.63,-75.16 462.62,-57.23"/>
<polygon fill="black" stroke="black" points="463.67,-53.88 453.08,-53.59 461.17,-60.42 463.67,-53.88"/>
<text text-anchor="start" x="538" y="-75.8" font-family="Times,serif" font-size="14.00">%2</text>
</g>
</g>
</svg>
