<?xml version="1.0" encoding="UTF-8" standalone="no"?>
<!DOCTYPE svg PUBLIC "-//W3C//DTD SVG 1.1//EN"
 "http://www.w3.org/Graphics/SVG/1.1/DTD/svg11.dtd">
<!-- Generated by graphviz version 2.43.0 (0)
 -->
<!-- Title: G Pages: 1 -->
<svg width="958pt" height="782pt"
 viewBox="0.00 0.00 957.50 782.00" xmlns="http://www.w3.org/2000/svg" xmlns:xlink="http://www.w3.org/1999/xlink">
<g id="graph0" class="graph" transform="scale(1 1) rotate(0) translate(4 778)">
<title>G</title>
<polygon fill="white" stroke="transparent" points="-4,4 -4,-778 953.5,-778 953.5,4 -4,4"/>
<!-- node0 -->
<g id="node1" class="node">
<title>node0</title>
<polygon fill="none" stroke="black" points="580,-720.5 580,-773.5 680,-773.5 680,-720.5 580,-720.5"/>
<text text-anchor="start" x="588" y="-758.3" font-family="Times,serif" font-size="14.00">Constant ()</text>
<text text-anchor="start" x="588" y="-743.3" font-family="Times,serif" font-size="14.00">&#45; types = ()</text>
<text text-anchor="start" x="588" y="-728.3" font-family="Times,serif" font-size="14.00">&#45; keys = (())</text>
</g>
<!-- node2 -->
<g id="node3" class="node">
<title>node2</title>
<polygon fill="none" stroke="black" points="43,-600.5 43,-668.5 335,-668.5 335,-600.5 43,-600.5"/>
<text text-anchor="start" x="51" y="-653.3" font-family="Times,serif" font-size="14.00">Join %0 %1</text>
<text text-anchor="start" x="51" y="-638.3" font-family="Times,serif" font-size="14.00">&#45; implementation = Unimplemented</text>
<text text-anchor="start" x="51" y="-623.3" font-family="Times,serif" font-size="14.00">&#45; types = (integer?, integer?, integer?)</text>
<text text-anchor="start" x="51" y="-608.3" font-family="Times,serif" font-size="14.00">&#45; keys = ()</text>
</g>
<!-- node0&#45;&gt;node2 -->
<g id="edge11" class="edge">
<title>node0&#45;&gt;node2</title>
<path fill="none" stroke="black" d="M579.82,-723.79C576.84,-722.5 573.88,-721.23 571,-720 568.79,-719.06 493.33,-687.61 491,-687 430.32,-671.08 410.73,-679.12 345.36,-669.12"/>
<polygon fill="black" stroke="black" points="345.8,-665.64 335.38,-667.51 344.69,-672.55 345.8,-665.64"/>
<text text-anchor="start" x="526" y="-690.8" font-family="Times,serif" font-size="14.00">%0</text>
</g>
<!-- node4 -->
<g id="node5" class="node">
<title>node4</title>
<polygon fill="none" stroke="black" points="353,-600.5 353,-668.5 627,-668.5 627,-600.5 353,-600.5"/>
<text text-anchor="start" x="361" y="-653.3" font-family="Times,serif" font-size="14.00">Join %0 %3</text>
<text text-anchor="start" x="361" y="-638.3" font-family="Times,serif" font-size="14.00">&#45; implementation = Unimplemented</text>
<text text-anchor="start" x="361" y="-623.3" font-family="Times,serif" font-size="14.00">&#45; types = (integer?, integer?)</text>
<text text-anchor="start" x="361" y="-608.3" font-family="Times,serif" font-size="14.00">&#45; keys = ()</text>
</g>
<!-- node0&#45;&gt;node4 -->
<g id="edge7" class="edge">
<title>node0&#45;&gt;node4</title>
<path fill="none" stroke="black" d="M597.53,-720.37C580.42,-706.87 559.08,-690.02 539.92,-674.9"/>
<polygon fill="black" stroke="black" points="541.88,-671.99 531.86,-668.54 537.54,-677.48 541.88,-671.99"/>
<text text-anchor="start" x="572" y="-690.8" font-family="Times,serif" font-size="14.00">%0</text>
</g>
<!-- node8 -->
<g id="node9" class="node">
<title>node8</title>
<polygon fill="none" stroke="black" points="645,-600.5 645,-668.5 919,-668.5 919,-600.5 645,-600.5"/>
<text text-anchor="start" x="653" y="-653.3" font-family="Times,serif" font-size="14.00">Join %0 %7</text>
<text text-anchor="start" x="653" y="-638.3" font-family="Times,serif" font-size="14.00">&#45; implementation = Unimplemented</text>
<text text-anchor="start" x="653" y="-623.3" font-family="Times,serif" font-size="14.00">&#45; types = (integer?)</text>
<text text-anchor="start" x="653" y="-608.3" font-family="Times,serif" font-size="14.00">&#45; keys = ()</text>
</g>
<!-- node0&#45;&gt;node8 -->
<g id="edge2" class="edge">
<title>node0&#45;&gt;node8</title>
<path fill="none" stroke="black" d="M665.25,-720.37C683.99,-706.75 707.42,-689.72 728.36,-674.5"/>
<polygon fill="black" stroke="black" points="730.52,-677.25 736.55,-668.54 726.4,-671.59 730.52,-677.25"/>
<text text-anchor="start" x="710" y="-690.8" font-family="Times,serif" font-size="14.00">%0</text>
</g>
<!-- node1 -->
<g id="node2" class="node">
<title>node1</title>
<polygon fill="none" stroke="black" points="0,-720.5 0,-773.5 292,-773.5 292,-720.5 0,-720.5"/>
<text text-anchor="start" x="8" y="-758.3" font-family="Times,serif" font-size="14.00">Get optimizer_101.public.a (u9)</text>
<text text-anchor="start" x="8" y="-743.3" font-family="Times,serif" font-size="14.00">&#45; types = (integer?, integer?, integer?)</text>
<text text-anchor="start" x="8" y="-728.3" font-family="Times,serif" font-size="14.00">&#45; keys = ()</text>
</g>
<!-- node1&#45;&gt;node2 -->
<g id="edge10" class="edge">
<title>node1&#45;&gt;node2</title>
<path fill="none" stroke="black" d="M155.97,-720.37C160.85,-707.84 166.85,-692.41 172.4,-678.17"/>
<polygon fill="black" stroke="black" points="175.78,-679.13 176.14,-668.54 169.25,-676.59 175.78,-679.13"/>
<text text-anchor="start" x="169" y="-690.8" font-family="Times,serif" font-size="14.00">%1</text>
</g>
<!-- node5 -->
<g id="node6" class="node">
<title>node5</title>
<polygon fill="none" stroke="black" points="276,-390.5 276,-548.5 704,-548.5 704,-390.5 276,-390.5"/>
<text text-anchor="start" x="284" y="-533.3" font-family="Times,serif" font-size="14.00">Join %2 %4</text>
<text text-anchor="start" x="284" y="-518.3" font-family="Times,serif" font-size="14.00">&#45; implementation = Unimplemented</text>
<text text-anchor="start" x="284" y="-503.3" font-family="Times,serif" font-size="14.00">&#45; types = (integer?, integer?, integer?, integer?, integer?)</text>
<text text-anchor="start" x="284" y="-488.3" font-family="Times,serif" font-size="14.00">&#45; keys = ()</text>
<text text-anchor="start" x="284" y="-473.3" font-family="Times,serif" font-size="14.00">Project (#0..=#4)</text>
<text text-anchor="start" x="284" y="-458.3" font-family="Times,serif" font-size="14.00">&#45; types = (integer?, integer?, integer?, integer?, integer?)</text>
<text text-anchor="start" x="284" y="-443.3" font-family="Times,serif" font-size="14.00">&#45; keys = ()</text>
<text text-anchor="start" x="284" y="-428.3" font-family="Times,serif" font-size="14.00">Filter (#0 = #3)</text>
<text text-anchor="start" x="284" y="-413.3" font-family="Times,serif" font-size="14.00">&#45; types = (integer, integer?, integer?, integer, integer?)</text>
<text text-anchor="start" x="284" y="-398.3" font-family="Times,serif" font-size="14.00">&#45; keys = ()</text>
</g>
<!-- node2&#45;&gt;node5 -->
<g id="edge5" class="edge">
<title>node2&#45;&gt;node5</title>
<path fill="none" stroke="black" d="M250.27,-600.32C275.54,-586.64 306.06,-570.11 336.73,-553.5"/>
<polygon fill="black" stroke="black" points="338.68,-556.42 345.81,-548.58 335.35,-550.27 338.68,-556.42"/>
<text text-anchor="start" x="303" y="-570.8" font-family="Times,serif" font-size="14.00">%2</text>
</g>
<!-- node3 -->
<g id="node4" class="node">
<title>node3</title>
<polygon fill="none" stroke="black" points="310,-720.5 310,-773.5 562,-773.5 562,-720.5 310,-720.5"/>
<text text-anchor="start" x="318" y="-758.3" font-family="Times,serif" font-size="14.00">Get optimizer_101.public.b (u10)</text>
<text text-anchor="start" x="318" y="-743.3" font-family="Times,serif" font-size="14.00">&#45; types = (integer?, integer?)</text>
<text text-anchor="start" x="318" y="-728.3" font-family="Times,serif" font-size="14.00">&#45; keys = ()</text>
</g>
<!-- node3&#45;&gt;node4 -->
<g id="edge8" class="edge">
<title>node3&#45;&gt;node4</title>
<path fill="none" stroke="black" d="M448.52,-720.37C454.71,-707.71 462.33,-692.11 469.35,-677.75"/>
<polygon fill="black" stroke="black" points="472.61,-679.06 473.85,-668.54 466.32,-675.99 472.61,-679.06"/>
<text text-anchor="start" x="464" y="-690.8" font-family="Times,serif" font-size="14.00">%3</text>
</g>
<!-- node4&#45;&gt;node5 -->
<g id="edge9" class="edge">
<title>node4&#45;&gt;node5</title>
<path fill="none" stroke="black" d="M490,-600.12C490,-587.94 490,-573.52 490,-558.8"/>
<polygon fill="black" stroke="black" points="493.5,-558.59 490,-548.59 486.5,-558.59 493.5,-558.59"/>
<text text-anchor="start" x="490" y="-570.8" font-family="Times,serif" font-size="14.00">%4</text>
</g>
<!-- node6 -->
<g id="node7" class="node">
<title>node6</title>
<polygon fill="none" stroke="black" points="317,-300.5 317,-338.5 727,-338.5 727,-300.5 317,-300.5"/>
<text text-anchor="start" x="325" y="-323.3" font-family="Times,serif" font-size="14.00">&#45; types = (integer, integer?, integer?, integer, integer?)</text>
<text text-anchor="start" x="325" y="-308.3" font-family="Times,serif" font-size="14.00">&#45; keys = ()</text>
</g>
<!-- node5&#45;&gt;node6 -->
<g id="edge3" class="edge">
<title>node5&#45;&gt;node6</title>
<path fill="none" stroke="black" d="M506.94,-390.17C510.16,-375.26 513.33,-360.58 515.93,-348.58"/>
<polygon fill="black" stroke="black" points="519.36,-349.29 518.05,-338.78 512.51,-347.81 519.36,-349.29"/>
<text text-anchor="start" x="513" y="-360.8" font-family="Times,serif" font-size="14.00">%5</text>
</g>
<!-- node9 -->
<g id="node10" class="node">
<title>node9</title>
<polygon fill="none" stroke="black" points="401.5,-90.5 401.5,-248.5 880.5,-248.5 880.5,-90.5 401.5,-90.5"/>
<text text-anchor="start" x="409.5" y="-233.3" font-family="Times,serif" font-size="14.00">Join %6 %8</text>
<text text-anchor="start" x="409.5" y="-218.3" font-family="Times,serif" font-size="14.00">&#45; implementation = Unimplemented</text>
<text text-anchor="start" x="409.5" y="-203.3" font-family="Times,serif" font-size="14.00">&#45; types = (integer, integer?, integer?, integer, integer?, integer?)</text>
<text text-anchor="start" x="409.5" y="-188.3" font-family="Times,serif" font-size="14.00">&#45; keys = ()</text>
<text text-anchor="start" x="409.5" y="-173.3" font-family="Times,serif" font-size="14.00">Project (#0..=#5)</text>
<text text-anchor="start" x="409.5" y="-158.3" font-family="Times,serif" font-size="14.00">&#45; types = (integer, integer?, integer?, integer, integer?, integer?)</text>
<text text-anchor="start" x="409.5" y="-143.3" font-family="Times,serif" font-size="14.00">&#45; keys = ()</text>
<text text-anchor="start" x="409.5" y="-128.3" font-family="Times,serif" font-size="14.00">Filter (#4 = #5)</text>
<text text-anchor="start" x="409.5" y="-113.3" font-family="Times,serif" font-size="14.00">&#45; types = (integer, integer?, integer?, integer, integer, integer)</text>
<text text-anchor="start" x="409.5" y="-98.3" font-family="Times,serif" font-size="14.00">&#45; keys = ()</text>
</g>
<!-- node6&#45;&gt;node9 -->
<g id="edge12" class="edge">
<title>node6&#45;&gt;node9</title>
<path fill="none" stroke="black" d="M536.59,-300.35C545.77,-288.94 558.34,-273.3 571.6,-256.82"/>
<polygon fill="black" stroke="black" points="574.61,-258.66 578.15,-248.67 569.15,-254.27 574.61,-258.66"/>
<text text-anchor="start" x="560" y="-270.8" font-family="Times,serif" font-size="14.00">%6</text>
</g>
<!-- node7 -->
<g id="node8" class="node">
<title>node7</title>
<polygon fill="none" stroke="black" points="698.5,-720.5 698.5,-773.5 949.5,-773.5 949.5,-720.5 698.5,-720.5"/>
<text text-anchor="start" x="706.5" y="-758.3" font-family="Times,serif" font-size="14.00">Get optimizer_101.public.c (u11)</text>
<text text-anchor="start" x="706.5" y="-743.3" font-family="Times,serif" font-size="14.00">&#45; types = (integer?)</text>
<text text-anchor="start" x="706.5" y="-728.3" font-family="Times,serif" font-size="14.00">&#45; keys = ()</text>
</g>
<!-- node7&#45;&gt;node8 -->
<g id="edge6" class="edge">
<title>node7&#45;&gt;node8</title>
<path fill="none" stroke="black" d="M814.26,-720.37C809.49,-707.84 803.63,-692.41 798.22,-678.17"/>
<polygon fill="black" stroke="black" points="801.38,-676.65 794.56,-668.54 794.84,-679.13 801.38,-676.65"/>
<text text-anchor="start" x="806" y="-690.8" font-family="Times,serif" font-size="14.00">%7</text>
</g>
<!-- node8&#45;&gt;node9 -->
<g id="edge1" class="edge">
<title>node8&#45;&gt;node9</title>
<path fill="none" stroke="black" d="M782.72,-600.41C782.92,-538.89 778.03,-403.73 736,-300 730.06,-285.34 722.09,-270.82 713.28,-257.09"/>
<polygon fill="black" stroke="black" points="716.13,-255.06 707.69,-248.66 710.29,-258.93 716.13,-255.06"/>
<text text-anchor="start" x="758" y="-360.8" font-family="Times,serif" font-size="14.00">%8</text>
</g>
<!-- node10 -->
<g id="node11" class="node">
<title>node10</title>
<polygon fill="none" stroke="black" points="410,-0.5 410,-38.5 872,-38.5 872,-0.5 410,-0.5"/>
<text text-anchor="start" x="418" y="-23.3" font-family="Times,serif" font-size="14.00">&#45; types = (integer, integer?, integer?, integer, integer, integer)</text>
<text text-anchor="start" x="418" y="-8.3" font-family="Times,serif" font-size="14.00">&#45; keys = ()</text>
</g>
<!-- node9&#45;&gt;node10 -->
<g id="edge4" class="edge">
<title>node9&#45;&gt;node10</title>
<path fill="none" stroke="black" d="M641,-90.17C641,-75.41 641,-60.88 641,-48.94"/>
<polygon fill="black" stroke="black" points="644.5,-48.78 641,-38.78 637.5,-48.78 644.5,-48.78"/>
<text text-anchor="start" x="641" y="-60.8" font-family="Times,serif" font-size="14.00">%9</text>
</g>
</g>
</svg>
