<?xml version="1.0" encoding="UTF-8" standalone="no"?>
<!DOCTYPE svg PUBLIC "-//W3C//DTD SVG 1.1//EN"
 "http://www.w3.org/Graphics/SVG/1.1/DTD/svg11.dtd">
<!-- Generated by graphviz version 2.43.0 (0)
 -->
<!-- Title: G Pages: 1 -->
<svg width="870pt" height="969pt"
 viewBox="0.00 0.00 870.00 969.00" xmlns="http://www.w3.org/2000/svg" xmlns:xlink="http://www.w3.org/1999/xlink">
<g id="graph0" class="graph" transform="scale(1 1) rotate(0) translate(4 965)">
<title>G</title>
<polygon fill="white" stroke="transparent" points="-4,4 -4,-965 866,-965 866,4 -4,4"/>
<!-- node0 -->
<g id="node1" class="node">
<title>node0</title>
<polygon fill="none" stroke="black" points="380.5,-922.5 380.5,-960.5 481.5,-960.5 481.5,-922.5 380.5,-922.5"/>
<text text-anchor="start" x="388.5" y="-945.3" font-family="Times,serif" font-size="14.00">Let l0 =</text>
<text text-anchor="start" x="388.5" y="-930.3" font-family="Times,serif" font-size="14.00"> Constant ()</text>
</g>
<!-- node2 -->
<g id="node3" class="node">
<title>node2</title>
<polygon fill="none" stroke="black" points="197.5,-817.5 197.5,-870.5 466.5,-870.5 466.5,-817.5 197.5,-817.5"/>
<text text-anchor="start" x="205.5" y="-855.3" font-family="Times,serif" font-size="14.00">Let l1 =</text>
<text text-anchor="start" x="205.5" y="-840.3" font-family="Times,serif" font-size="14.00"> Join %0 %1</text>
<text text-anchor="start" x="205.5" y="-825.3" font-family="Times,serif" font-size="14.00"> implementation = Unimplemented</text>
</g>
<!-- node0&#45;&gt;node2 -->
<g id="edge7" class="edge">
<title>node0&#45;&gt;node2</title>
<path fill="none" stroke="black" d="M411.91,-922.09C398.87,-909.51 381.24,-892.5 365.86,-877.66"/>
<polygon fill="black" stroke="black" points="368.14,-875 358.51,-870.58 363.28,-880.04 368.14,-875"/>
<text text-anchor="start" x="390" y="-892.8" font-family="Times,serif" font-size="14.00">%0</text>
</g>
<!-- node4 -->
<g id="node5" class="node">
<title>node4</title>
<polygon fill="none" stroke="black" points="484.5,-817.5 484.5,-870.5 753.5,-870.5 753.5,-817.5 484.5,-817.5"/>
<text text-anchor="start" x="492.5" y="-855.3" font-family="Times,serif" font-size="14.00">Let l2 =</text>
<text text-anchor="start" x="492.5" y="-840.3" font-family="Times,serif" font-size="14.00"> Join %0 %3</text>
<text text-anchor="start" x="492.5" y="-825.3" font-family="Times,serif" font-size="14.00"> implementation = Unimplemented</text>
</g>
<!-- node0&#45;&gt;node4 -->
<g id="edge4" class="edge">
<title>node0&#45;&gt;node4</title>
<path fill="none" stroke="black" d="M466.8,-922.31C492.97,-909.02 529.05,-890.69 559.52,-875.22"/>
<polygon fill="black" stroke="black" points="561.44,-878.16 568.77,-870.51 558.27,-871.92 561.44,-878.16"/>
<text text-anchor="start" x="530" y="-892.8" font-family="Times,serif" font-size="14.00">%0</text>
</g>
<!-- node1 -->
<g id="node2" class="node">
<title>node1</title>
<polygon fill="none" stroke="black" points="0,-923.5 0,-959.5 362,-959.5 362,-923.5 0,-923.5"/>
<text text-anchor="start" x="8" y="-937.8" font-family="Times,serif" font-size="14.00">Get simplify_outer_joins.public.table_f4_f5 (u37)</text>
</g>
<!-- node1&#45;&gt;node2 -->
<g id="edge13" class="edge">
<title>node1&#45;&gt;node2</title>
<path fill="none" stroke="black" d="M208,-923.43C228.79,-910.28 258.09,-891.74 282.99,-876"/>
<polygon fill="black" stroke="black" points="285.01,-878.86 291.59,-870.55 281.27,-872.94 285.01,-878.86"/>
<text text-anchor="start" x="262" y="-892.8" font-family="Times,serif" font-size="14.00">%1</text>
</g>
<!-- node5 -->
<g id="node6" class="node">
<title>node5</title>
<polygon fill="none" stroke="black" points="231.5,-682.5 231.5,-765.5 500.5,-765.5 500.5,-682.5 231.5,-682.5"/>
<text text-anchor="start" x="239.5" y="-750.3" font-family="Times,serif" font-size="14.00">Let l3 =</text>
<text text-anchor="start" x="239.5" y="-735.3" font-family="Times,serif" font-size="14.00"> Join %2 %4</text>
<text text-anchor="start" x="239.5" y="-720.3" font-family="Times,serif" font-size="14.00"> implementation = Unimplemented</text>
<text text-anchor="start" x="239.5" y="-705.3" font-family="Times,serif" font-size="14.00"> Project (#0..#3)</text>
<text text-anchor="start" x="239.5" y="-690.3" font-family="Times,serif" font-size="14.00"> Filter (true &amp;&amp; (#1 = #2))</text>
</g>
<!-- node2&#45;&gt;node5 -->
<g id="edge11" class="edge">
<title>node2&#45;&gt;node5</title>
<path fill="none" stroke="black" d="M339.38,-817.4C342.9,-805.17 347.25,-790.09 351.4,-775.69"/>
<polygon fill="black" stroke="black" points="354.82,-776.44 354.23,-765.86 348.09,-774.5 354.82,-776.44"/>
<text text-anchor="start" x="349" y="-787.8" font-family="Times,serif" font-size="14.00">%2</text>
</g>
<!-- node3 -->
<g id="node4" class="node">
<title>node3</title>
<polygon fill="none" stroke="black" points="500,-923.5 500,-959.5 862,-959.5 862,-923.5 500,-923.5"/>
<text text-anchor="start" x="508" y="-937.8" font-family="Times,serif" font-size="14.00">Get simplify_outer_joins.public.table_f5_f6 (u39)</text>
</g>
<!-- node3&#45;&gt;node4 -->
<g id="edge1" class="edge">
<title>node3&#45;&gt;node4</title>
<path fill="none" stroke="black" d="M669.92,-923.43C661.94,-911.14 650.91,-894.15 641.15,-879.12"/>
<polygon fill="black" stroke="black" points="643.97,-877.04 635.59,-870.55 638.1,-880.85 643.97,-877.04"/>
<text text-anchor="start" x="655" y="-892.8" font-family="Times,serif" font-size="14.00">%3</text>
</g>
<!-- node4&#45;&gt;node5 -->
<g id="edge10" class="edge">
<title>node4&#45;&gt;node5</title>
<path fill="none" stroke="black" d="M564.1,-817.4C534.35,-803.52 496.72,-785.97 462.27,-769.9"/>
<polygon fill="black" stroke="black" points="463.66,-766.69 453.12,-765.63 460.7,-773.03 463.66,-766.69"/>
<text text-anchor="start" x="522" y="-787.8" font-family="Times,serif" font-size="14.00">%4</text>
</g>
<!-- node7 -->
<g id="node8" class="node">
<title>node7</title>
<polygon fill="none" stroke="black" points="438.5,-625.5 438.5,-663.5 635.5,-663.5 635.5,-625.5 438.5,-625.5"/>
<text text-anchor="start" x="446.5" y="-648.3" font-family="Times,serif" font-size="14.00">Get %4 (l2)</text>
<text text-anchor="start" x="446.5" y="-633.3" font-family="Times,serif" font-size="14.00"> Distinct group=(#0, #1)</text>
</g>
<!-- node4&#45;&gt;node7 -->
<g id="edge12" class="edge">
<title>node4&#45;&gt;node7</title>
<path fill="none" stroke="black" d="M608.28,-817.18C592.82,-779.94 564.37,-711.43 548.49,-673.18"/>
<polygon fill="black" stroke="black" points="551.62,-671.59 544.55,-663.69 545.16,-674.27 551.62,-671.59"/>
<text text-anchor="start" x="599" y="-787.8" font-family="Times,serif" font-size="14.00">%4</text>
</g>
<!-- node9 -->
<g id="node10" class="node">
<title>node9</title>
<polygon fill="none" stroke="black" points="507.5,-345.5 507.5,-398.5 776.5,-398.5 776.5,-345.5 507.5,-345.5"/>
<text text-anchor="start" x="515.5" y="-383.3" font-family="Times,serif" font-size="14.00">Join %8 %4 (= #0 #2) (= #1 #3)</text>
<text text-anchor="start" x="515.5" y="-368.3" font-family="Times,serif" font-size="14.00"> implementation = Unimplemented</text>
<text text-anchor="start" x="515.5" y="-353.3" font-family="Times,serif" font-size="14.00"> Project (#0, #1)</text>
</g>
<!-- node4&#45;&gt;node9 -->
<g id="edge2" class="edge">
<title>node4&#45;&gt;node9</title>
<path fill="none" stroke="black" d="M630.19,-817.3C639.42,-793.75 651,-757.69 651,-725 651,-725 651,-725 651,-467.5 651,-448.12 649.1,-426.6 647.05,-409"/>
<polygon fill="black" stroke="black" points="650.46,-408.1 645.76,-398.61 643.52,-408.96 650.46,-408.1"/>
<text text-anchor="start" x="651" y="-568.8" font-family="Times,serif" font-size="14.00">%4</text>
</g>
<!-- node6 -->
<g id="node7" class="node">
<title>node6</title>
<polygon fill="none" stroke="black" points="322,-538.5 322,-606.5 520,-606.5 520,-538.5 322,-538.5"/>
<text text-anchor="start" x="330" y="-591.3" font-family="Times,serif" font-size="14.00">Get %5 (l3)</text>
<text text-anchor="start" x="330" y="-576.3" font-family="Times,serif" font-size="14.00"> Project (#2, #3, #0, #1)</text>
<text text-anchor="start" x="330" y="-561.3" font-family="Times,serif" font-size="14.00"> Distinct group=(#0, #1)</text>
<text text-anchor="start" x="330" y="-546.3" font-family="Times,serif" font-size="14.00"> Negate</text>
</g>
<!-- node5&#45;&gt;node6 -->
<g id="edge5" class="edge">
<title>node5&#45;&gt;node6</title>
<path fill="none" stroke="black" d="M381.03,-682.15C388.55,-661.7 397.66,-636.95 405.27,-616.25"/>
<polygon fill="black" stroke="black" points="408.6,-617.34 408.77,-606.75 402.03,-614.93 408.6,-617.34"/>
<text text-anchor="start" x="401" y="-640.8" font-family="Times,serif" font-size="14.00">%5</text>
</g>
<!-- node12 -->
<g id="node13" class="node">
<title>node12</title>
<polygon fill="none" stroke="black" points="203,-120.5 203,-188.5 417,-188.5 417,-120.5 203,-120.5"/>
<text text-anchor="start" x="211" y="-173.3" font-family="Times,serif" font-size="14.00">Let l4 =</text>
<text text-anchor="start" x="211" y="-158.3" font-family="Times,serif" font-size="14.00"> Union %5 %11</text>
<text text-anchor="start" x="211" y="-143.3" font-family="Times,serif" font-size="14.00"> Project (#2, #0, #1, #3)</text>
<text text-anchor="start" x="211" y="-128.3" font-family="Times,serif" font-size="14.00"> Filter (true &amp;&amp; (#0 = #1))</text>
</g>
<!-- node5&#45;&gt;node12 -->
<g id="edge9" class="edge">
<title>node5&#45;&gt;node12</title>
<path fill="none" stroke="black" d="M334.21,-682.33C314.92,-653.59 294,-613.26 294,-573.5 294,-573.5 294,-573.5 294,-266 294,-243.61 297.26,-218.94 300.83,-198.59"/>
<polygon fill="black" stroke="black" points="304.29,-199.15 302.66,-188.68 297.4,-197.88 304.29,-199.15"/>
<text text-anchor="start" x="294" y="-420.8" font-family="Times,serif" font-size="14.00">%5</text>
</g>
<!-- node8 -->
<g id="node9" class="node">
<title>node8</title>
<polygon fill="none" stroke="black" points="499.5,-450.5 499.5,-486.5 612.5,-486.5 612.5,-450.5 499.5,-450.5"/>
<text text-anchor="start" x="507.5" y="-464.8" font-family="Times,serif" font-size="14.00">Union %6 %7</text>
</g>
<!-- node6&#45;&gt;node8 -->
<g id="edge15" class="edge">
<title>node6&#45;&gt;node8</title>
<path fill="none" stroke="black" d="M464.83,-538.38C484.42,-523.59 507.04,-506.49 524.86,-493.03"/>
<polygon fill="black" stroke="black" points="527.31,-495.56 533.18,-486.74 523.09,-489.98 527.31,-495.56"/>
<text text-anchor="start" x="508" y="-508.8" font-family="Times,serif" font-size="14.00">%6</text>
</g>
<!-- node7&#45;&gt;node8 -->
<g id="edge16" class="edge">
<title>node7&#45;&gt;node8</title>
<path fill="none" stroke="black" d="M539,-625.21C542.35,-594.53 549.12,-532.55 553.03,-496.73"/>
<polygon fill="black" stroke="black" points="556.54,-496.84 554.14,-486.52 549.58,-496.08 556.54,-496.84"/>
<text text-anchor="start" x="548" y="-568.8" font-family="Times,serif" font-size="14.00">%7</text>
</g>
<!-- node8&#45;&gt;node9 -->
<g id="edge14" class="edge">
<title>node8&#45;&gt;node9</title>
<path fill="none" stroke="black" d="M571.77,-450.17C582.92,-437.92 598.22,-421.11 611.69,-406.3"/>
<polygon fill="black" stroke="black" points="614.4,-408.53 618.54,-398.78 609.22,-403.82 614.4,-408.53"/>
<text text-anchor="start" x="601" y="-420.8" font-family="Times,serif" font-size="14.00">%8</text>
</g>
<!-- node11 -->
<g id="node12" class="node">
<title>node11</title>
<polygon fill="none" stroke="black" points="322.5,-240.5 322.5,-293.5 591.5,-293.5 591.5,-240.5 322.5,-240.5"/>
<text text-anchor="start" x="330.5" y="-278.3" font-family="Times,serif" font-size="14.00">Join %9 %10</text>
<text text-anchor="start" x="330.5" y="-263.3" font-family="Times,serif" font-size="14.00"> implementation = Unimplemented</text>
<text text-anchor="start" x="330.5" y="-248.3" font-family="Times,serif" font-size="14.00"> Project (#2, #3, #0, #1)</text>
</g>
<!-- node9&#45;&gt;node11 -->
<g id="edge17" class="edge">
<title>node9&#45;&gt;node11</title>
<path fill="none" stroke="black" d="M595.79,-345.27C570.31,-331.09 538.52,-313.39 511.79,-298.51"/>
<polygon fill="black" stroke="black" points="513.38,-295.38 502.94,-293.58 509.97,-301.5 513.38,-295.38"/>
<text text-anchor="start" x="560" y="-315.8" font-family="Times,serif" font-size="14.00">%9</text>
</g>
<!-- node10 -->
<g id="node11" class="node">
<title>node10</title>
<polygon fill="none" stroke="black" points="330.5,-354 330.5,-390 489.5,-390 489.5,-354 330.5,-354"/>
<text text-anchor="start" x="338.5" y="-368.3" font-family="Times,serif" font-size="14.00">Constant (null, null)</text>
</g>
<!-- node10&#45;&gt;node11 -->
<g id="edge8" class="edge">
<title>node10&#45;&gt;node11</title>
<path fill="none" stroke="black" d="M417.76,-353.99C424.1,-340.11 433.26,-320.03 441.13,-302.77"/>
<polygon fill="black" stroke="black" points="444.38,-304.08 445.35,-293.53 438.02,-301.17 444.38,-304.08"/>
<text text-anchor="start" x="436" y="-315.8" font-family="Times,serif" font-size="14.00">%10</text>
</g>
<!-- node11&#45;&gt;node12 -->
<g id="edge6" class="edge">
<title>node11&#45;&gt;node12</title>
<path fill="none" stroke="black" d="M422.91,-240.37C404.87,-226.81 382.33,-209.87 362.15,-194.7"/>
<polygon fill="black" stroke="black" points="364.05,-191.75 353.96,-188.54 359.85,-197.35 364.05,-191.75"/>
<text text-anchor="start" x="396" y="-210.8" font-family="Times,serif" font-size="14.00">%11</text>
</g>
<!-- node13 -->
<g id="node14" class="node">
<title>node13</title>
<polygon fill="none" stroke="black" points="211,-0.5 211,-68.5 409,-68.5 409,-0.5 211,-0.5"/>
<text text-anchor="start" x="219" y="-53.3" font-family="Times,serif" font-size="14.00">Get %12 (l4)</text>
<text text-anchor="start" x="219" y="-38.3" font-family="Times,serif" font-size="14.00"> Map &quot;qgm(false)&quot;</text>
<text text-anchor="start" x="219" y="-23.3" font-family="Times,serif" font-size="14.00"> Project (#0..#4)</text>
<text text-anchor="start" x="219" y="-8.3" font-family="Times,serif" font-size="14.00"> Project (#4, #0, #1, #3)</text>
</g>
<!-- node12&#45;&gt;node13 -->
<g id="edge3" class="edge">
<title>node12&#45;&gt;node13</title>
<path fill="none" stroke="black" d="M310,-120.32C310,-107.5 310,-92.65 310,-79"/>
<polygon fill="black" stroke="black" points="313.5,-78.84 310,-68.84 306.5,-78.84 313.5,-78.84"/>
<text text-anchor="start" x="310" y="-90.8" font-family="Times,serif" font-size="14.00">%12</text>
</g>
</g>
</svg>
