<?xml version="1.0" encoding="UTF-8" standalone="no"?>
<!DOCTYPE svg PUBLIC "-//W3C//DTD SVG 1.1//EN"
 "http://www.w3.org/Graphics/SVG/1.1/DTD/svg11.dtd">
<!-- Generated by graphviz version 2.43.0 (0)
 -->
<!-- Title: G Pages: 1 -->
<svg width="750pt" height="182pt"
 viewBox="0.00 0.00 750.00 182.00" xmlns="http://www.w3.org/2000/svg" xmlns:xlink="http://www.w3.org/1999/xlink">
<g id="graph0" class="graph" transform="scale(1 1) rotate(0) translate(4 178)">
<title>G</title>
<polygon fill="white" stroke="transparent" points="-4,4 -4,-178 746,-178 746,4 -4,4"/>
<!-- node0 -->
<g id="node1" class="node">
<title>node0</title>
<polygon fill="none" stroke="black" points="0,-120.5 0,-173.5 362,-173.5 362,-120.5 0,-120.5"/>
<text text-anchor="start" x="8" y="-158.3" font-family="Times,serif" font-size="14.00">Get simplify_outer_joins.public.table_f4_f5 (u37)</text>
<text text-anchor="start" x="8" y="-143.3" font-family="Times,serif" font-size="14.00"> Filter (#0 = #1)</text>
<text text-anchor="start" x="8" y="-128.3" font-family="Times,serif" font-size="14.00"> ArrangeBy (#0)</text>
</g>
<!-- node2 -->
<g id="node3" class="node">
<title>node2</title>
<polygon fill="none" stroke="black" points="208,-0.5 208,-68.5 534,-68.5 534,-0.5 208,-0.5"/>
<text text-anchor="start" x="216" y="-53.3" font-family="Times,serif" font-size="14.00">Join %0 %1 (= #0 #2)</text>
<text text-anchor="start" x="216" y="-38.3" font-family="Times,serif" font-size="14.00"> implementation = Differential %1 %0.(#0)</text>
<text text-anchor="start" x="216" y="-23.3" font-family="Times,serif" font-size="14.00"> Map &quot;qgm(false)&quot;</text>
<text text-anchor="start" x="216" y="-8.3" font-family="Times,serif" font-size="14.00"> Project (#4, #1, #0, #3)</text>
</g>
<!-- node0&#45;&gt;node2 -->
<g id="edge2" class="edge">
<title>node0&#45;&gt;node2</title>
<path fill="none" stroke="black" d="M225.07,-120.37C248.9,-106.51 278.81,-89.12 305.33,-73.69"/>
<polygon fill="black" stroke="black" points="307.3,-76.59 314.19,-68.54 303.78,-70.54 307.3,-76.59"/>
<text text-anchor="start" x="282" y="-90.8" font-family="Times,serif" font-size="14.00">%0</text>
</g>
<!-- node1 -->
<g id="node2" class="node">
<title>node1</title>
<polygon fill="none" stroke="black" points="380,-128 380,-166 742,-166 742,-128 380,-128"/>
<text text-anchor="start" x="388" y="-150.8" font-family="Times,serif" font-size="14.00">Get simplify_outer_joins.public.table_f5_f6 (u39)</text>
<text text-anchor="start" x="388" y="-135.8" font-family="Times,serif" font-size="14.00"> Filter !(isnull(#0))</text>
</g>
<!-- node1&#45;&gt;node2 -->
<g id="edge1" class="edge">
<title>node1&#45;&gt;node2</title>
<path fill="none" stroke="black" d="M529.63,-127.75C504.38,-113.07 468.05,-91.94 436.52,-73.61"/>
<polygon fill="black" stroke="black" points="438.18,-70.52 427.77,-68.52 434.66,-76.57 438.18,-70.52"/>
<text text-anchor="start" x="484" y="-90.8" font-family="Times,serif" font-size="14.00">%1</text>
</g>
</g>
</svg>
