<?xml version="1.0" encoding="UTF-8" standalone="no"?>
<!DOCTYPE svg PUBLIC "-//W3C//DTD SVG 1.1//EN"
 "http://www.w3.org/Graphics/SVG/1.1/DTD/svg11.dtd">
<!-- Generated by graphviz version 2.43.0 (0)
 -->
<!-- Title: G Pages: 1 -->
<svg width="750pt" height="180pt"
 viewBox="0.00 0.00 750.00 180.00" xmlns="http://www.w3.org/2000/svg" xmlns:xlink="http://www.w3.org/1999/xlink">
<g id="graph0" class="graph" transform="scale(1 1) rotate(0) translate(4 176)">
<title>G</title>
<polygon fill="white" stroke="transparent" points="-4,4 -4,-176 746,-176 746,4 -4,4"/>
<!-- node0 -->
<g id="node1" class="node">
<title>node0</title>
<polygon fill="none" stroke="black" points="0,-135.5 0,-171.5 362,-171.5 362,-135.5 0,-135.5"/>
<text text-anchor="start" x="8" y="-149.8" font-family="Times,serif" font-size="14.00">Get simplify_outer_joins.public.table_f4_f5 (u37)</text>
</g>
<!-- node2 -->
<g id="node3" class="node">
<title>node2</title>
<polygon fill="none" stroke="black" points="194.5,-0.5 194.5,-83.5 547.5,-83.5 547.5,-0.5 194.5,-0.5"/>
<text text-anchor="start" x="202.5" y="-68.3" font-family="Times,serif" font-size="14.00">RightOuterJoin %0 %1 on (true &amp;&amp; (#1 = #2))</text>
<text text-anchor="start" x="202.5" y="-53.3" font-family="Times,serif" font-size="14.00"> Project (#2, #0, #1, #3)</text>
<text text-anchor="start" x="202.5" y="-38.3" font-family="Times,serif" font-size="14.00"> Filter (true &amp;&amp; (#0 = #1))</text>
<text text-anchor="start" x="202.5" y="-23.3" font-family="Times,serif" font-size="14.00"> Map &quot;qgm(false)&quot;</text>
<text text-anchor="start" x="202.5" y="-8.3" font-family="Times,serif" font-size="14.00"> Project (#4, #0, #1, #3)</text>
</g>
<!-- node0&#45;&gt;node2 -->
<g id="edge2" class="edge">
<title>node0&#45;&gt;node2</title>
<path fill="none" stroke="black" d="M210.69,-135.39C232.44,-122.85 263.05,-105.21 291.7,-88.7"/>
<polygon fill="black" stroke="black" points="293.6,-91.64 300.52,-83.62 290.11,-85.58 293.6,-91.64"/>
<text text-anchor="start" x="265" y="-105.8" font-family="Times,serif" font-size="14.00">%0</text>
</g>
<!-- node1 -->
<g id="node2" class="node">
<title>node1</title>
<polygon fill="none" stroke="black" points="380,-135.5 380,-171.5 742,-171.5 742,-135.5 380,-135.5"/>
<text text-anchor="start" x="388" y="-149.8" font-family="Times,serif" font-size="14.00">Get simplify_outer_joins.public.table_f5_f6 (u39)</text>
</g>
<!-- node1&#45;&gt;node2 -->
<g id="edge1" class="edge">
<title>node1&#45;&gt;node2</title>
<path fill="none" stroke="black" d="M531.31,-135.39C509.56,-122.85 478.95,-105.21 450.3,-88.7"/>
<polygon fill="black" stroke="black" points="451.89,-85.58 441.48,-83.62 448.4,-91.64 451.89,-85.58"/>
<text text-anchor="start" x="495" y="-105.8" font-family="Times,serif" font-size="14.00">%1</text>
</g>
</g>
</svg>
