<?xml version="1.0" encoding="UTF-8" standalone="no"?>
<!DOCTYPE svg PUBLIC "-//W3C//DTD SVG 1.1//EN"
 "http://www.w3.org/Graphics/SVG/1.1/DTD/svg11.dtd">
<!-- Generated by graphviz version 2.43.0 (0)
 -->
<!-- Title: G Pages: 1 -->
<svg width="750pt" height="362pt"
 viewBox="0.00 0.00 750.00 362.00" xmlns="http://www.w3.org/2000/svg" xmlns:xlink="http://www.w3.org/1999/xlink">
<g id="graph0" class="graph" transform="scale(1 1) rotate(0) translate(4 358)">
<title>G</title>
<polygon fill="white" stroke="transparent" points="-4,4 -4,-358 746,-358 746,4 -4,4"/>
<!-- node0 -->
<g id="node1" class="node">
<title>node0</title>
<polygon fill="none" stroke="black" points="0,-210.5 0,-353.5 362,-353.5 362,-210.5 0,-210.5"/>
<text text-anchor="start" x="8" y="-338.3" font-family="Times,serif" font-size="14.00">Get simplify_outer_joins.public.table_f4_f5 (u37)</text>
<text text-anchor="start" x="8" y="-323.3" font-family="Times,serif" font-size="14.00"> types = (integer?, integer?)</text>
<text text-anchor="start" x="8" y="-308.3" font-family="Times,serif" font-size="14.00"> keys = ()</text>
<text text-anchor="start" x="8" y="-293.3" font-family="Times,serif" font-size="14.00"> Filter (#0 = #1)</text>
<text text-anchor="start" x="8" y="-278.3" font-family="Times,serif" font-size="14.00"> types = (integer, integer)</text>
<text text-anchor="start" x="8" y="-263.3" font-family="Times,serif" font-size="14.00"> keys = ()</text>
<text text-anchor="start" x="8" y="-248.3" font-family="Times,serif" font-size="14.00"> ArrangeBy (#0)</text>
<text text-anchor="start" x="8" y="-233.3" font-family="Times,serif" font-size="14.00"> types = (integer, integer)</text>
<text text-anchor="start" x="8" y="-218.3" font-family="Times,serif" font-size="14.00"> keys = ()</text>
</g>
<!-- node2 -->
<g id="node3" class="node">
<title>node2</title>
<polygon fill="none" stroke="black" points="188,-0.5 188,-158.5 554,-158.5 554,-0.5 188,-0.5"/>
<text text-anchor="start" x="196" y="-143.3" font-family="Times,serif" font-size="14.00">Join %0 %1 (= #0 #2)</text>
<text text-anchor="start" x="196" y="-128.3" font-family="Times,serif" font-size="14.00"> implementation = Differential %1 %0.(#0)</text>
<text text-anchor="start" x="196" y="-113.3" font-family="Times,serif" font-size="14.00"> types = (integer, integer, integer, integer?)</text>
<text text-anchor="start" x="196" y="-98.3" font-family="Times,serif" font-size="14.00"> keys = ()</text>
<text text-anchor="start" x="196" y="-83.3" font-family="Times,serif" font-size="14.00"> Map &quot;qgm(false)&quot;</text>
<text text-anchor="start" x="196" y="-68.3" font-family="Times,serif" font-size="14.00"> types = (integer, integer, integer, integer?, text)</text>
<text text-anchor="start" x="196" y="-53.3" font-family="Times,serif" font-size="14.00"> keys = ()</text>
<text text-anchor="start" x="196" y="-38.3" font-family="Times,serif" font-size="14.00"> Project (#4, #1, #0, #3)</text>
<text text-anchor="start" x="196" y="-23.3" font-family="Times,serif" font-size="14.00"> types = (text, integer, integer, integer?)</text>
<text text-anchor="start" x="196" y="-8.3" font-family="Times,serif" font-size="14.00"> keys = ()</text>
</g>
<!-- node0&#45;&gt;node2 -->
<g id="edge2" class="edge">
<title>node0&#45;&gt;node2</title>
<path fill="none" stroke="black" d="M247.99,-210.31C261.45,-196.1 275.74,-181.02 289.63,-166.36"/>
<polygon fill="black" stroke="black" points="292.52,-168.41 296.86,-158.74 287.44,-163.59 292.52,-168.41"/>
<text text-anchor="start" x="276" y="-180.8" font-family="Times,serif" font-size="14.00">%0</text>
</g>
<!-- node1 -->
<g id="node2" class="node">
<title>node1</title>
<polygon fill="none" stroke="black" points="380,-233 380,-331 742,-331 742,-233 380,-233"/>
<text text-anchor="start" x="388" y="-315.8" font-family="Times,serif" font-size="14.00">Get simplify_outer_joins.public.table_f5_f6 (u39)</text>
<text text-anchor="start" x="388" y="-300.8" font-family="Times,serif" font-size="14.00"> types = (integer?, integer?)</text>
<text text-anchor="start" x="388" y="-285.8" font-family="Times,serif" font-size="14.00"> keys = ()</text>
<text text-anchor="start" x="388" y="-270.8" font-family="Times,serif" font-size="14.00"> Filter !(isnull(#0))</text>
<text text-anchor="start" x="388" y="-255.8" font-family="Times,serif" font-size="14.00"> types = (integer, integer?)</text>
<text text-anchor="start" x="388" y="-240.8" font-family="Times,serif" font-size="14.00"> keys = ()</text>
</g>
<!-- node1&#45;&gt;node2 -->
<g id="edge1" class="edge">
<title>node1&#45;&gt;node2</title>
<path fill="none" stroke="black" d="M515.49,-232.98C496.47,-212.9 473.78,-188.96 452.08,-166.06"/>
<polygon fill="black" stroke="black" points="454.49,-163.52 445.07,-158.66 449.41,-168.33 454.49,-163.52"/>
<text text-anchor="start" x="472" y="-180.8" font-family="Times,serif" font-size="14.00">%1</text>
</g>
</g>
</svg>
