<?xml version="1.0" encoding="UTF-8" standalone="no"?>
<!DOCTYPE svg PUBLIC "-//W3C//DTD SVG 1.1//EN"
 "http://www.w3.org/Graphics/SVG/1.1/DTD/svg11.dtd">
<!-- Generated by graphviz version 2.43.0 (0)
 -->
<!-- Title: G Pages: 1 -->
<svg width="750pt" height="347pt"
 viewBox="0.00 0.00 750.00 347.00" xmlns="http://www.w3.org/2000/svg" xmlns:xlink="http://www.w3.org/1999/xlink">
<g id="graph0" class="graph" transform="scale(1 1) rotate(0) translate(4 343)">
<title>G</title>
<polygon fill="white" stroke="transparent" points="-4,4 -4,-343 746,-343 746,4 -4,4"/>
<!-- node0 -->
<g id="node1" class="node">
<title>node0</title>
<polygon fill="none" stroke="black" points="0,-285.5 0,-338.5 362,-338.5 362,-285.5 0,-285.5"/>
<text text-anchor="start" x="8" y="-323.3" font-family="Times,serif" font-size="14.00">Get simplify_outer_joins.public.table_f4_f5 (u37)</text>
<text text-anchor="start" x="8" y="-308.3" font-family="Times,serif" font-size="14.00"> types = (integer?, integer?)</text>
<text text-anchor="start" x="8" y="-293.3" font-family="Times,serif" font-size="14.00"> keys = ()</text>
</g>
<!-- node2 -->
<g id="node3" class="node">
<title>node2</title>
<polygon fill="none" stroke="black" points="174.5,-0.5 174.5,-233.5 567.5,-233.5 567.5,-0.5 174.5,-0.5"/>
<text text-anchor="start" x="182.5" y="-218.3" font-family="Times,serif" font-size="14.00">RightOuterJoin %0 %1 on (true &amp;&amp; (#1 = #2))</text>
<text text-anchor="start" x="182.5" y="-203.3" font-family="Times,serif" font-size="14.00"> types = (integer?, integer?, integer?, integer?)</text>
<text text-anchor="start" x="182.5" y="-188.3" font-family="Times,serif" font-size="14.00"> keys = ()</text>
<text text-anchor="start" x="182.5" y="-173.3" font-family="Times,serif" font-size="14.00"> Project (#2, #0, #1, #3)</text>
<text text-anchor="start" x="182.5" y="-158.3" font-family="Times,serif" font-size="14.00"> types = (integer?, integer?, integer?, integer?)</text>
<text text-anchor="start" x="182.5" y="-143.3" font-family="Times,serif" font-size="14.00"> keys = ()</text>
<text text-anchor="start" x="182.5" y="-128.3" font-family="Times,serif" font-size="14.00"> Filter (true &amp;&amp; (#0 = #1))</text>
<text text-anchor="start" x="182.5" y="-113.3" font-family="Times,serif" font-size="14.00"> types = (integer?, integer?, integer?, integer?)</text>
<text text-anchor="start" x="182.5" y="-98.3" font-family="Times,serif" font-size="14.00"> keys = ()</text>
<text text-anchor="start" x="182.5" y="-83.3" font-family="Times,serif" font-size="14.00"> Map &quot;qgm(false)&quot;</text>
<text text-anchor="start" x="182.5" y="-68.3" font-family="Times,serif" font-size="14.00"> types = (integer?, integer?, integer?, integer?, text)</text>
<text text-anchor="start" x="182.5" y="-53.3" font-family="Times,serif" font-size="14.00"> keys = ()</text>
<text text-anchor="start" x="182.5" y="-38.3" font-family="Times,serif" font-size="14.00"> Project (#4, #0, #1, #3)</text>
<text text-anchor="start" x="182.5" y="-23.3" font-family="Times,serif" font-size="14.00"> types = (text, integer?, integer?, integer?)</text>
<text text-anchor="start" x="182.5" y="-8.3" font-family="Times,serif" font-size="14.00"> keys = ()</text>
</g>
<!-- node0&#45;&gt;node2 -->
<g id="edge2" class="edge">
<title>node0&#45;&gt;node2</title>
<path fill="none" stroke="black" d="M206.23,-285.37C218.24,-273.17 233.57,-257.6 250.03,-240.88"/>
<polygon fill="black" stroke="black" points="252.62,-243.24 257.14,-233.65 247.63,-238.33 252.62,-243.24"/>
<text text-anchor="start" x="238" y="-255.8" font-family="Times,serif" font-size="14.00">%0</text>
</g>
<!-- node1 -->
<g id="node2" class="node">
<title>node1</title>
<polygon fill="none" stroke="black" points="380,-285.5 380,-338.5 742,-338.5 742,-285.5 380,-285.5"/>
<text text-anchor="start" x="388" y="-323.3" font-family="Times,serif" font-size="14.00">Get simplify_outer_joins.public.table_f5_f6 (u39)</text>
<text text-anchor="start" x="388" y="-308.3" font-family="Times,serif" font-size="14.00"> types = (integer?, integer?)</text>
<text text-anchor="start" x="388" y="-293.3" font-family="Times,serif" font-size="14.00"> keys = ()</text>
</g>
<!-- node1&#45;&gt;node2 -->
<g id="edge1" class="edge">
<title>node1&#45;&gt;node2</title>
<path fill="none" stroke="black" d="M535.77,-285.37C523.76,-273.17 508.43,-257.6 491.97,-240.88"/>
<polygon fill="black" stroke="black" points="494.37,-238.33 484.86,-233.65 489.38,-243.24 494.37,-238.33"/>
<text text-anchor="start" x="515" y="-255.8" font-family="Times,serif" font-size="14.00">%1</text>
</g>
</g>
</svg>
