<?xml version="1.0" encoding="UTF-8" standalone="no"?>
<!DOCTYPE svg PUBLIC "-//W3C//DTD SVG 1.1//EN"
 "http://www.w3.org/Graphics/SVG/1.1/DTD/svg11.dtd">
<!-- Generated by graphviz version 2.43.0 (0)
 -->
<!-- Title: G Pages: 1 -->
<svg width="870pt" height="1646pt"
 viewBox="0.00 0.00 870.00 1646.00" xmlns="http://www.w3.org/2000/svg" xmlns:xlink="http://www.w3.org/1999/xlink">
<g id="graph0" class="graph" transform="scale(1 1) rotate(0) translate(4 1642)">
<title>G</title>
<polygon fill="white" stroke="transparent" points="-4,4 -4,-1642 866,-1642 866,4 -4,4"/>
<!-- node0 -->
<g id="node1" class="node">
<title>node0</title>
<polygon fill="none" stroke="black" points="380.5,-1569.5 380.5,-1637.5 481.5,-1637.5 481.5,-1569.5 380.5,-1569.5"/>
<text text-anchor="start" x="388.5" y="-1622.3" font-family="Times,serif" font-size="14.00">Let l0 =</text>
<text text-anchor="start" x="388.5" y="-1607.3" font-family="Times,serif" font-size="14.00"> Constant ()</text>
<text text-anchor="start" x="388.5" y="-1592.3" font-family="Times,serif" font-size="14.00"> types = ()</text>
<text text-anchor="start" x="388.5" y="-1577.3" font-family="Times,serif" font-size="14.00"> keys = (())</text>
</g>
<!-- node2 -->
<g id="node3" class="node">
<title>node2</title>
<polygon fill="none" stroke="black" points="197.5,-1434.5 197.5,-1517.5 466.5,-1517.5 466.5,-1434.5 197.5,-1434.5"/>
<text text-anchor="start" x="205.5" y="-1502.3" font-family="Times,serif" font-size="14.00">Let l1 =</text>
<text text-anchor="start" x="205.5" y="-1487.3" font-family="Times,serif" font-size="14.00"> Join %0 %1</text>
<text text-anchor="start" x="205.5" y="-1472.3" font-family="Times,serif" font-size="14.00"> implementation = Unimplemented</text>
<text text-anchor="start" x="205.5" y="-1457.3" font-family="Times,serif" font-size="14.00"> types = (integer?, integer?)</text>
<text text-anchor="start" x="205.5" y="-1442.3" font-family="Times,serif" font-size="14.00"> keys = ()</text>
</g>
<!-- node0&#45;&gt;node2 -->
<g id="edge7" class="edge">
<title>node0&#45;&gt;node2</title>
<path fill="none" stroke="black" d="M404.73,-1569.2C394.19,-1555.84 381.84,-1540.18 370.34,-1525.6"/>
<polygon fill="black" stroke="black" points="372.99,-1523.31 364.05,-1517.63 367.5,-1527.65 372.99,-1523.31"/>
<text text-anchor="start" x="390" y="-1539.8" font-family="Times,serif" font-size="14.00">%0</text>
</g>
<!-- node4 -->
<g id="node5" class="node">
<title>node4</title>
<polygon fill="none" stroke="black" points="484.5,-1434.5 484.5,-1517.5 753.5,-1517.5 753.5,-1434.5 484.5,-1434.5"/>
<text text-anchor="start" x="492.5" y="-1502.3" font-family="Times,serif" font-size="14.00">Let l2 =</text>
<text text-anchor="start" x="492.5" y="-1487.3" font-family="Times,serif" font-size="14.00"> Join %0 %3</text>
<text text-anchor="start" x="492.5" y="-1472.3" font-family="Times,serif" font-size="14.00"> implementation = Unimplemented</text>
<text text-anchor="start" x="492.5" y="-1457.3" font-family="Times,serif" font-size="14.00"> types = (integer?, integer?)</text>
<text text-anchor="start" x="492.5" y="-1442.3" font-family="Times,serif" font-size="14.00"> keys = ()</text>
</g>
<!-- node0&#45;&gt;node4 -->
<g id="edge4" class="edge">
<title>node0&#45;&gt;node4</title>
<path fill="none" stroke="black" d="M480.89,-1569.2C501.91,-1555.16 526.75,-1538.58 549.52,-1523.38"/>
<polygon fill="black" stroke="black" points="551.76,-1526.09 558.14,-1517.63 547.88,-1520.27 551.76,-1526.09"/>
<text text-anchor="start" x="525" y="-1539.8" font-family="Times,serif" font-size="14.00">%0</text>
</g>
<!-- node1 -->
<g id="node2" class="node">
<title>node1</title>
<polygon fill="none" stroke="black" points="0,-1577 0,-1630 362,-1630 362,-1577 0,-1577"/>
<text text-anchor="start" x="8" y="-1614.8" font-family="Times,serif" font-size="14.00">Get simplify_outer_joins.public.table_f4_f5 (u37)</text>
<text text-anchor="start" x="8" y="-1599.8" font-family="Times,serif" font-size="14.00"> types = (integer?, integer?)</text>
<text text-anchor="start" x="8" y="-1584.8" font-family="Times,serif" font-size="14.00"> keys = ()</text>
</g>
<!-- node1&#45;&gt;node2 -->
<g id="edge13" class="edge">
<title>node1&#45;&gt;node2</title>
<path fill="none" stroke="black" d="M211.92,-1576.8C230.13,-1561.66 253.74,-1542.05 275.19,-1524.21"/>
<polygon fill="black" stroke="black" points="277.53,-1526.82 282.99,-1517.74 273.06,-1521.44 277.53,-1526.82"/>
<text text-anchor="start" x="257" y="-1539.8" font-family="Times,serif" font-size="14.00">%1</text>
</g>
<!-- node5 -->
<g id="node6" class="node">
<title>node5</title>
<polygon fill="none" stroke="black" points="208,-1209.5 208,-1382.5 564,-1382.5 564,-1209.5 208,-1209.5"/>
<text text-anchor="start" x="216" y="-1367.3" font-family="Times,serif" font-size="14.00">Let l3 =</text>
<text text-anchor="start" x="216" y="-1352.3" font-family="Times,serif" font-size="14.00"> Join %2 %4</text>
<text text-anchor="start" x="216" y="-1337.3" font-family="Times,serif" font-size="14.00"> implementation = Unimplemented</text>
<text text-anchor="start" x="216" y="-1322.3" font-family="Times,serif" font-size="14.00"> types = (integer?, integer?, integer?, integer?)</text>
<text text-anchor="start" x="216" y="-1307.3" font-family="Times,serif" font-size="14.00"> keys = ()</text>
<text text-anchor="start" x="216" y="-1292.3" font-family="Times,serif" font-size="14.00"> Project (#0..#3)</text>
<text text-anchor="start" x="216" y="-1277.3" font-family="Times,serif" font-size="14.00"> types = (integer?, integer?, integer?, integer?)</text>
<text text-anchor="start" x="216" y="-1262.3" font-family="Times,serif" font-size="14.00"> keys = ()</text>
<text text-anchor="start" x="216" y="-1247.3" font-family="Times,serif" font-size="14.00"> Filter (true &amp;&amp; (#1 = #2))</text>
<text text-anchor="start" x="216" y="-1232.3" font-family="Times,serif" font-size="14.00"> types = (integer?, integer?, integer?, integer?)</text>
<text text-anchor="start" x="216" y="-1217.3" font-family="Times,serif" font-size="14.00"> keys = ()</text>
</g>
<!-- node2&#45;&gt;node5 -->
<g id="edge11" class="edge">
<title>node2&#45;&gt;node5</title>
<path fill="none" stroke="black" d="M344.39,-1434.16C348.22,-1421.53 352.61,-1407.05 357.08,-1392.34"/>
<polygon fill="black" stroke="black" points="360.46,-1393.24 360.02,-1382.65 353.76,-1391.21 360.46,-1393.24"/>
<text text-anchor="start" x="354" y="-1404.8" font-family="Times,serif" font-size="14.00">%2</text>
</g>
<!-- node3 -->
<g id="node4" class="node">
<title>node3</title>
<polygon fill="none" stroke="black" points="500,-1577 500,-1630 862,-1630 862,-1577 500,-1577"/>
<text text-anchor="start" x="508" y="-1614.8" font-family="Times,serif" font-size="14.00">Get simplify_outer_joins.public.table_f5_f6 (u39)</text>
<text text-anchor="start" x="508" y="-1599.8" font-family="Times,serif" font-size="14.00"> types = (integer?, integer?)</text>
<text text-anchor="start" x="508" y="-1584.8" font-family="Times,serif" font-size="14.00"> keys = ()</text>
</g>
<!-- node3&#45;&gt;node4 -->
<g id="edge1" class="edge">
<title>node3&#45;&gt;node4</title>
<path fill="none" stroke="black" d="M668.3,-1576.8C661.25,-1562.52 652.22,-1544.25 643.83,-1527.26"/>
<polygon fill="black" stroke="black" points="646.81,-1525.4 639.25,-1517.98 640.54,-1528.5 646.81,-1525.4"/>
<text text-anchor="start" x="655" y="-1539.8" font-family="Times,serif" font-size="14.00">%3</text>
</g>
<!-- node4&#45;&gt;node5 -->
<g id="edge10" class="edge">
<title>node4&#45;&gt;node5</title>
<path fill="none" stroke="black" d="M565.84,-1434.39C547.97,-1420.74 527.25,-1404.91 506.37,-1388.96"/>
<polygon fill="black" stroke="black" points="508.43,-1386.13 498.36,-1382.84 504.18,-1391.69 508.43,-1386.13"/>
<text text-anchor="start" x="536" y="-1404.8" font-family="Times,serif" font-size="14.00">%4</text>
</g>
<!-- node7 -->
<g id="node8" class="node">
<title>node7</title>
<polygon fill="none" stroke="black" points="504.5,-1092.5 504.5,-1190.5 723.5,-1190.5 723.5,-1092.5 504.5,-1092.5"/>
<text text-anchor="start" x="512.5" y="-1175.3" font-family="Times,serif" font-size="14.00">Get %4 (l2)</text>
<text text-anchor="start" x="512.5" y="-1160.3" font-family="Times,serif" font-size="14.00"> types = (integer?, integer?)</text>
<text text-anchor="start" x="512.5" y="-1145.3" font-family="Times,serif" font-size="14.00"> keys = ()</text>
<text text-anchor="start" x="512.5" y="-1130.3" font-family="Times,serif" font-size="14.00"> Distinct group=(#0, #1)</text>
<text text-anchor="start" x="512.5" y="-1115.3" font-family="Times,serif" font-size="14.00"> types = (integer?, integer?)</text>
<text text-anchor="start" x="512.5" y="-1100.3" font-family="Times,serif" font-size="14.00"> keys = ((#0, #1))</text>
</g>
<!-- node4&#45;&gt;node7 -->
<g id="edge12" class="edge">
<title>node4&#45;&gt;node7</title>
<path fill="none" stroke="black" d="M618.39,-1434.23C617.51,-1375.79 615.89,-1267.91 614.88,-1200.98"/>
<polygon fill="black" stroke="black" points="618.37,-1200.55 614.72,-1190.6 611.37,-1200.66 618.37,-1200.55"/>
<text text-anchor="start" x="618" y="-1404.8" font-family="Times,serif" font-size="14.00">%4</text>
</g>
<!-- node9 -->
<g id="node10" class="node">
<title>node9</title>
<polygon fill="none" stroke="black" points="501,-615.5 501,-728.5 857,-728.5 857,-615.5 501,-615.5"/>
<text text-anchor="start" x="509" y="-713.3" font-family="Times,serif" font-size="14.00">Join %8 %4 (= #0 #2) (= #1 #3)</text>
<text text-anchor="start" x="509" y="-698.3" font-family="Times,serif" font-size="14.00"> implementation = Unimplemented</text>
<text text-anchor="start" x="509" y="-683.3" font-family="Times,serif" font-size="14.00"> types = (integer?, integer?, integer?, integer?)</text>
<text text-anchor="start" x="509" y="-668.3" font-family="Times,serif" font-size="14.00"> keys = ()</text>
<text text-anchor="start" x="509" y="-653.3" font-family="Times,serif" font-size="14.00"> Project (#0, #1)</text>
<text text-anchor="start" x="509" y="-638.3" font-family="Times,serif" font-size="14.00"> types = (integer?, integer?)</text>
<text text-anchor="start" x="509" y="-623.3" font-family="Times,serif" font-size="14.00"> keys = ()</text>
</g>
<!-- node4&#45;&gt;node9 -->
<g id="edge2" class="edge">
<title>node4&#45;&gt;node9</title>
<path fill="none" stroke="black" d="M666.77,-1434.45C700.24,-1401.31 739,-1351.23 739,-1297 739,-1297 739,-1297 739,-806 739,-782.61 731.19,-758.79 721.21,-737.89"/>
<polygon fill="black" stroke="black" points="724.27,-736.19 716.66,-728.82 718.02,-739.33 724.27,-736.19"/>
<text text-anchor="start" x="739" y="-975.8" font-family="Times,serif" font-size="14.00">%4</text>
</g>
<!-- node6 -->
<g id="node7" class="node">
<title>node6</title>
<polygon fill="none" stroke="black" points="222,-885.5 222,-1073.5 578,-1073.5 578,-885.5 222,-885.5"/>
<text text-anchor="start" x="230" y="-1058.3" font-family="Times,serif" font-size="14.00">Get %5 (l3)</text>
<text text-anchor="start" x="230" y="-1043.3" font-family="Times,serif" font-size="14.00"> types = (integer?, integer?, integer?, integer?)</text>
<text text-anchor="start" x="230" y="-1028.3" font-family="Times,serif" font-size="14.00"> keys = ()</text>
<text text-anchor="start" x="230" y="-1013.3" font-family="Times,serif" font-size="14.00"> Project (#2, #3, #0, #1)</text>
<text text-anchor="start" x="230" y="-998.3" font-family="Times,serif" font-size="14.00"> types = (integer?, integer?, integer?, integer?)</text>
<text text-anchor="start" x="230" y="-983.3" font-family="Times,serif" font-size="14.00"> keys = ()</text>
<text text-anchor="start" x="230" y="-968.3" font-family="Times,serif" font-size="14.00"> Distinct group=(#0, #1)</text>
<text text-anchor="start" x="230" y="-953.3" font-family="Times,serif" font-size="14.00"> types = (integer?, integer?)</text>
<text text-anchor="start" x="230" y="-938.3" font-family="Times,serif" font-size="14.00"> keys = ((#0, #1))</text>
<text text-anchor="start" x="230" y="-923.3" font-family="Times,serif" font-size="14.00"> Negate</text>
<text text-anchor="start" x="230" y="-908.3" font-family="Times,serif" font-size="14.00"> types = (integer?, integer?)</text>
<text text-anchor="start" x="230" y="-893.3" font-family="Times,serif" font-size="14.00"> keys = ()</text>
</g>
<!-- node5&#45;&gt;node6 -->
<g id="edge5" class="edge">
<title>node5&#45;&gt;node6</title>
<path fill="none" stroke="black" d="M389.81,-1209.48C391.53,-1170.74 393.58,-1124.62 395.39,-1083.95"/>
<polygon fill="black" stroke="black" points="398.9,-1083.88 395.85,-1073.74 391.91,-1083.57 398.9,-1083.88"/>
<text text-anchor="start" x="394" y="-1137.8" font-family="Times,serif" font-size="14.00">%5</text>
</g>
<!-- node12 -->
<g id="node13" class="node">
<title>node12</title>
<polygon fill="none" stroke="black" points="32,-240.5 32,-398.5 388,-398.5 388,-240.5 32,-240.5"/>
<text text-anchor="start" x="40" y="-383.3" font-family="Times,serif" font-size="14.00">Let l4 =</text>
<text text-anchor="start" x="40" y="-368.3" font-family="Times,serif" font-size="14.00"> Union %5 %11</text>
<text text-anchor="start" x="40" y="-353.3" font-family="Times,serif" font-size="14.00"> types = (integer?, integer?, integer?, integer?)</text>
<text text-anchor="start" x="40" y="-338.3" font-family="Times,serif" font-size="14.00"> keys = ()</text>
<text text-anchor="start" x="40" y="-323.3" font-family="Times,serif" font-size="14.00"> Project (#2, #0, #1, #3)</text>
<text text-anchor="start" x="40" y="-308.3" font-family="Times,serif" font-size="14.00"> types = (integer?, integer?, integer?, integer?)</text>
<text text-anchor="start" x="40" y="-293.3" font-family="Times,serif" font-size="14.00"> keys = ()</text>
<text text-anchor="start" x="40" y="-278.3" font-family="Times,serif" font-size="14.00"> Filter (true &amp;&amp; (#0 = #1))</text>
<text text-anchor="start" x="40" y="-263.3" font-family="Times,serif" font-size="14.00"> types = (integer?, integer?, integer?, integer?)</text>
<text text-anchor="start" x="40" y="-248.3" font-family="Times,serif" font-size="14.00"> keys = ()</text>
</g>
<!-- node5&#45;&gt;node12 -->
<g id="edge9" class="edge">
<title>node5&#45;&gt;node12</title>
<path fill="none" stroke="black" d="M303.73,-1209.36C270.88,-1170.75 235.56,-1122.89 213,-1074 195.23,-1035.5 194,-1022.9 194,-980.5 194,-980.5 194,-980.5 194,-506 194,-474.34 196.34,-439.76 199.23,-409.13"/>
<polygon fill="black" stroke="black" points="202.74,-409.19 200.23,-398.9 195.78,-408.51 202.74,-409.19"/>
<text text-anchor="start" x="194" y="-750.8" font-family="Times,serif" font-size="14.00">%5</text>
</g>
<!-- node8 -->
<g id="node9" class="node">
<title>node8</title>
<polygon fill="none" stroke="black" points="491.5,-780.5 491.5,-833.5 710.5,-833.5 710.5,-780.5 491.5,-780.5"/>
<text text-anchor="start" x="499.5" y="-818.3" font-family="Times,serif" font-size="14.00">Union %6 %7</text>
<text text-anchor="start" x="499.5" y="-803.3" font-family="Times,serif" font-size="14.00"> types = (integer?, integer?)</text>
<text text-anchor="start" x="499.5" y="-788.3" font-family="Times,serif" font-size="14.00"> keys = ()</text>
</g>
<!-- node6&#45;&gt;node8 -->
<g id="edge15" class="edge">
<title>node6&#45;&gt;node8</title>
<path fill="none" stroke="black" d="M509.91,-885.27C528.95,-869.11 547.54,-853.35 562.91,-840.31"/>
<polygon fill="black" stroke="black" points="565.27,-842.89 570.64,-833.76 560.75,-837.56 565.27,-842.89"/>
<text text-anchor="start" x="547" y="-855.8" font-family="Times,serif" font-size="14.00">%6</text>
</g>
<!-- node7&#45;&gt;node8 -->
<g id="edge16" class="edge">
<title>node7&#45;&gt;node8</title>
<path fill="none" stroke="black" d="M612.11,-1092.15C609.47,-1024.7 604.75,-903.89 602.4,-843.87"/>
<polygon fill="black" stroke="black" points="605.89,-843.6 602.01,-833.74 598.9,-843.87 605.89,-843.6"/>
<text text-anchor="start" x="611" y="-975.8" font-family="Times,serif" font-size="14.00">%7</text>
</g>
<!-- node8&#45;&gt;node9 -->
<g id="edge14" class="edge">
<title>node8&#45;&gt;node9</title>
<path fill="none" stroke="black" d="M616.04,-780.36C623.26,-768.05 632.26,-752.7 641.18,-737.49"/>
<polygon fill="black" stroke="black" points="644.37,-738.97 646.41,-728.57 638.33,-735.43 644.37,-738.97"/>
<text text-anchor="start" x="635" y="-750.8" font-family="Times,serif" font-size="14.00">%8</text>
</g>
<!-- node11 -->
<g id="node12" class="node">
<title>node11</title>
<polygon fill="none" stroke="black" points="222,-450.5 222,-563.5 578,-563.5 578,-450.5 222,-450.5"/>
<text text-anchor="start" x="230" y="-548.3" font-family="Times,serif" font-size="14.00">Join %9 %10</text>
<text text-anchor="start" x="230" y="-533.3" font-family="Times,serif" font-size="14.00"> implementation = Unimplemented</text>
<text text-anchor="start" x="230" y="-518.3" font-family="Times,serif" font-size="14.00"> types = (integer?, integer?, integer?, integer?)</text>
<text text-anchor="start" x="230" y="-503.3" font-family="Times,serif" font-size="14.00"> keys = ()</text>
<text text-anchor="start" x="230" y="-488.3" font-family="Times,serif" font-size="14.00"> Project (#2, #3, #0, #1)</text>
<text text-anchor="start" x="230" y="-473.3" font-family="Times,serif" font-size="14.00"> types = (integer?, integer?, integer?, integer?)</text>
<text text-anchor="start" x="230" y="-458.3" font-family="Times,serif" font-size="14.00"> keys = ()</text>
</g>
<!-- node9&#45;&gt;node11 -->
<g id="edge17" class="edge">
<title>node9&#45;&gt;node11</title>
<path fill="none" stroke="black" d="M583.76,-615.36C558.09,-600.36 530.19,-584.06 504.07,-568.8"/>
<polygon fill="black" stroke="black" points="505.68,-565.69 495.28,-563.67 502.15,-571.73 505.68,-565.69"/>
<text text-anchor="start" x="547" y="-585.8" font-family="Times,serif" font-size="14.00">%9</text>
</g>
<!-- node10 -->
<g id="node11" class="node">
<title>node10</title>
<polygon fill="none" stroke="black" points="263.5,-645.5 263.5,-698.5 482.5,-698.5 482.5,-645.5 263.5,-645.5"/>
<text text-anchor="start" x="271.5" y="-683.3" font-family="Times,serif" font-size="14.00">Constant (null, null)</text>
<text text-anchor="start" x="271.5" y="-668.3" font-family="Times,serif" font-size="14.00"> types = (integer?, integer?)</text>
<text text-anchor="start" x="271.5" y="-653.3" font-family="Times,serif" font-size="14.00"> keys = (())</text>
</g>
<!-- node10&#45;&gt;node11 -->
<g id="edge8" class="edge">
<title>node10&#45;&gt;node11</title>
<path fill="none" stroke="black" d="M377.28,-645.17C380.45,-626 384.93,-598.95 389.08,-573.94"/>
<polygon fill="black" stroke="black" points="392.59,-574.18 390.77,-563.74 385.68,-573.04 392.59,-574.18"/>
<text text-anchor="start" x="387" y="-585.8" font-family="Times,serif" font-size="14.00">%10</text>
</g>
<!-- node11&#45;&gt;node12 -->
<g id="edge6" class="edge">
<title>node11&#45;&gt;node12</title>
<path fill="none" stroke="black" d="M342.99,-450.34C328.72,-436.4 313.07,-421.13 297.67,-406.1"/>
<polygon fill="black" stroke="black" points="299.75,-403.23 290.15,-398.75 294.86,-408.24 299.75,-403.23"/>
<text text-anchor="start" x="322" y="-420.8" font-family="Times,serif" font-size="14.00">%11</text>
</g>
<!-- node13 -->
<g id="node14" class="node">
<title>node13</title>
<polygon fill="none" stroke="black" points="13.5,-0.5 13.5,-188.5 406.5,-188.5 406.5,-0.5 13.5,-0.5"/>
<text text-anchor="start" x="21.5" y="-173.3" font-family="Times,serif" font-size="14.00">Get %12 (l4)</text>
<text text-anchor="start" x="21.5" y="-158.3" font-family="Times,serif" font-size="14.00"> types = (integer?, integer?, integer?, integer?)</text>
<text text-anchor="start" x="21.5" y="-143.3" font-family="Times,serif" font-size="14.00"> keys = ()</text>
<text text-anchor="start" x="21.5" y="-128.3" font-family="Times,serif" font-size="14.00"> Map &quot;qgm(false)&quot;</text>
<text text-anchor="start" x="21.5" y="-113.3" font-family="Times,serif" font-size="14.00"> types = (integer?, integer?, integer?, integer?, text)</text>
<text text-anchor="start" x="21.5" y="-98.3" font-family="Times,serif" font-size="14.00"> keys = ()</text>
<text text-anchor="start" x="21.5" y="-83.3" font-family="Times,serif" font-size="14.00"> Project (#0..#4)</text>
<text text-anchor="start" x="21.5" y="-68.3" font-family="Times,serif" font-size="14.00"> types = (integer?, integer?, integer?, integer?, text)</text>
<text text-anchor="start" x="21.5" y="-53.3" font-family="Times,serif" font-size="14.00"> keys = ()</text>
<text text-anchor="start" x="21.5" y="-38.3" font-family="Times,serif" font-size="14.00"> Project (#4, #0, #1, #3)</text>
<text text-anchor="start" x="21.5" y="-23.3" font-family="Times,serif" font-size="14.00"> types = (text, integer?, integer?, integer?)</text>
<text text-anchor="start" x="21.5" y="-8.3" font-family="Times,serif" font-size="14.00"> keys = ()</text>
</g>
<!-- node12&#45;&gt;node13 -->
<g id="edge3" class="edge">
<title>node12&#45;&gt;node13</title>
<path fill="none" stroke="black" d="M210,-240.19C210,-226.76 210,-212.62 210,-198.66"/>
<polygon fill="black" stroke="black" points="213.5,-198.54 210,-188.54 206.5,-198.54 213.5,-198.54"/>
<text text-anchor="start" x="210" y="-210.8" font-family="Times,serif" font-size="14.00">%12</text>
</g>
</g>
</svg>
