<?xml version="1.0" encoding="UTF-8" standalone="no"?>
<!DOCTYPE svg PUBLIC "-//W3C//DTD SVG 1.1//EN"
 "http://www.w3.org/Graphics/SVG/1.1/DTD/svg11.dtd">
<!-- Generated by graphviz version 2.43.0 (0)
 -->
<!-- Title: G Pages: 1 -->
<svg width="579pt" height="705pt"
 viewBox="0.00 0.00 578.50 705.00" xmlns="http://www.w3.org/2000/svg" xmlns:xlink="http://www.w3.org/1999/xlink">
<g id="graph0" class="graph" transform="scale(1 1) rotate(0) translate(4 701)">
<title>G</title>
<polygon fill="white" stroke="transparent" points="-4,4 -4,-701 574.5,-701 574.5,4 -4,4"/>
<!-- node0 -->
<g id="node1" class="node">
<title>node0</title>
<polygon fill="none" stroke="black" points="233,-658.5 233,-696.5 334,-696.5 334,-658.5 233,-658.5"/>
<text text-anchor="start" x="241" y="-681.3" font-family="Times,serif" font-size="14.00">Let l0 =</text>
<text text-anchor="start" x="241" y="-666.3" font-family="Times,serif" font-size="14.00"> Constant ()</text>
</g>
<!-- node2 -->
<g id="node3" class="node">
<title>node2</title>
<polygon fill="none" stroke="black" points="7,-553.5 7,-606.5 276,-606.5 276,-553.5 7,-553.5"/>
<text text-anchor="start" x="15" y="-591.3" font-family="Times,serif" font-size="14.00">Let l1 =</text>
<text text-anchor="start" x="15" y="-576.3" font-family="Times,serif" font-size="14.00"> Join %0 %1</text>
<text text-anchor="start" x="15" y="-561.3" font-family="Times,serif" font-size="14.00"> implementation = Unimplemented</text>
</g>
<!-- node0&#45;&gt;node2 -->
<g id="edge8" class="edge">
<title>node0&#45;&gt;node2</title>
<path fill="none" stroke="black" d="M256.46,-658.31C237.12,-645.31 210.61,-627.48 187.92,-612.22"/>
<polygon fill="black" stroke="black" points="189.69,-609.19 179.44,-606.51 185.78,-615 189.69,-609.19"/>
<text text-anchor="start" x="225.5" y="-628.8" font-family="Times,serif" font-size="14.00">%0</text>
</g>
<!-- node4 -->
<g id="node5" class="node">
<title>node4</title>
<polygon fill="none" stroke="black" points="294,-553.5 294,-606.5 563,-606.5 563,-553.5 294,-553.5"/>
<text text-anchor="start" x="302" y="-591.3" font-family="Times,serif" font-size="14.00">Let l2 =</text>
<text text-anchor="start" x="302" y="-576.3" font-family="Times,serif" font-size="14.00"> Join %0 %3</text>
<text text-anchor="start" x="302" y="-561.3" font-family="Times,serif" font-size="14.00"> implementation = Unimplemented</text>
</g>
<!-- node0&#45;&gt;node4 -->
<g id="edge4" class="edge">
<title>node0&#45;&gt;node4</title>
<path fill="none" stroke="black" d="M311.11,-658.31C330.95,-645.25 358.17,-627.32 381.4,-612.02"/>
<polygon fill="black" stroke="black" points="383.33,-614.94 389.76,-606.51 379.48,-609.09 383.33,-614.94"/>
<text text-anchor="start" x="359.5" y="-628.8" font-family="Times,serif" font-size="14.00">%0</text>
</g>
<!-- node1 -->
<g id="node2" class="node">
<title>node1</title>
<polygon fill="none" stroke="black" points="0,-659.5 0,-695.5 215,-695.5 215,-659.5 0,-659.5"/>
<text text-anchor="start" x="8" y="-673.8" font-family="Times,serif" font-size="14.00">Get outer_joins.public.l (u5)</text>
</g>
<!-- node1&#45;&gt;node2 -->
<g id="edge13" class="edge">
<title>node1&#45;&gt;node2</title>
<path fill="none" stroke="black" d="M113.58,-659.43C117.83,-647.48 123.66,-631.1 128.9,-616.39"/>
<polygon fill="black" stroke="black" points="132.35,-617.15 132.4,-606.55 125.75,-614.8 132.35,-617.15"/>
<text text-anchor="start" x="126.5" y="-628.8" font-family="Times,serif" font-size="14.00">%1</text>
</g>
<!-- node5 -->
<g id="node6" class="node">
<title>node5</title>
<polygon fill="none" stroke="black" points="234,-418.5 234,-501.5 503,-501.5 503,-418.5 234,-418.5"/>
<text text-anchor="start" x="242" y="-486.3" font-family="Times,serif" font-size="14.00">Let l3 =</text>
<text text-anchor="start" x="242" y="-471.3" font-family="Times,serif" font-size="14.00"> Join %2 %4</text>
<text text-anchor="start" x="242" y="-456.3" font-family="Times,serif" font-size="14.00"> implementation = Unimplemented</text>
<text text-anchor="start" x="242" y="-441.3" font-family="Times,serif" font-size="14.00"> Project (#0..#3)</text>
<text text-anchor="start" x="242" y="-426.3" font-family="Times,serif" font-size="14.00"> Filter (#1 = #2)</text>
</g>
<!-- node2&#45;&gt;node5 -->
<g id="edge7" class="edge">
<title>node2&#45;&gt;node5</title>
<path fill="none" stroke="black" d="M190.76,-553.4C217.22,-539.64 250.64,-522.27 281.33,-506.31"/>
<polygon fill="black" stroke="black" points="283.07,-509.35 290.33,-501.63 279.85,-503.14 283.07,-509.35"/>
<text text-anchor="start" x="254.5" y="-523.8" font-family="Times,serif" font-size="14.00">%2</text>
</g>
<!-- node7 -->
<g id="node8" class="node">
<title>node7</title>
<polygon fill="none" stroke="black" points="114,-178.5 114,-246.5 383,-246.5 383,-178.5 114,-178.5"/>
<text text-anchor="start" x="122" y="-231.3" font-family="Times,serif" font-size="14.00">Join %2 %6 (= #1 #2)</text>
<text text-anchor="start" x="122" y="-216.3" font-family="Times,serif" font-size="14.00"> implementation = Unimplemented</text>
<text text-anchor="start" x="122" y="-201.3" font-family="Times,serif" font-size="14.00"> Project (#0, #1)</text>
<text text-anchor="start" x="122" y="-186.3" font-family="Times,serif" font-size="14.00"> Negate</text>
</g>
<!-- node2&#45;&gt;node7 -->
<g id="edge5" class="edge">
<title>node2&#45;&gt;node7</title>
<path fill="none" stroke="black" d="M141.99,-553.14C143.77,-502.33 151.88,-386.69 188.5,-298 194.7,-282.99 203.98,-268.07 213.4,-255.03"/>
<polygon fill="black" stroke="black" points="216.4,-256.86 219.58,-246.75 210.8,-252.67 216.4,-256.86"/>
<text text-anchor="start" x="162.5" y="-388.8" font-family="Times,serif" font-size="14.00">%2</text>
</g>
<!-- node8 -->
<g id="node9" class="node">
<title>node8</title>
<polygon fill="none" stroke="black" points="188.5,-88.5 188.5,-126.5 308.5,-126.5 308.5,-88.5 188.5,-88.5"/>
<text text-anchor="start" x="196.5" y="-111.3" font-family="Times,serif" font-size="14.00">Union %7 %2</text>
<text text-anchor="start" x="196.5" y="-96.3" font-family="Times,serif" font-size="14.00"> Map null, null</text>
</g>
<!-- node2&#45;&gt;node8 -->
<g id="edge6" class="edge">
<title>node2&#45;&gt;node8</title>
<path fill="none" stroke="black" d="M121.28,-553.46C105.24,-530.6 85.5,-495.47 85.5,-461 85.5,-461 85.5,-461 85.5,-211.5 85.5,-164.56 134.4,-138.14 178.63,-123.85"/>
<polygon fill="black" stroke="black" points="179.73,-127.17 188.27,-120.89 177.68,-120.48 179.73,-127.17"/>
<text text-anchor="start" x="85.5" y="-328.8" font-family="Times,serif" font-size="14.00">%2</text>
</g>
<!-- node3 -->
<g id="node4" class="node">
<title>node3</title>
<polygon fill="none" stroke="black" points="352.5,-659.5 352.5,-695.5 570.5,-695.5 570.5,-659.5 352.5,-659.5"/>
<text text-anchor="start" x="360.5" y="-673.8" font-family="Times,serif" font-size="14.00">Get outer_joins.public.r (u7)</text>
</g>
<!-- node3&#45;&gt;node4 -->
<g id="edge10" class="edge">
<title>node3&#45;&gt;node4</title>
<path fill="none" stroke="black" d="M455.6,-659.43C451.47,-647.48 445.81,-631.1 440.73,-616.39"/>
<polygon fill="black" stroke="black" points="443.9,-614.86 437.33,-606.55 437.29,-617.15 443.9,-614.86"/>
<text text-anchor="start" x="447.5" y="-628.8" font-family="Times,serif" font-size="14.00">%3</text>
</g>
<!-- node4&#45;&gt;node5 -->
<g id="edge2" class="edge">
<title>node4&#45;&gt;node5</title>
<path fill="none" stroke="black" d="M415.48,-553.4C409.14,-540.93 401.3,-525.51 393.85,-510.86"/>
<polygon fill="black" stroke="black" points="396.93,-509.19 389.28,-501.86 390.69,-512.36 396.93,-509.19"/>
<text text-anchor="start" x="405.5" y="-523.8" font-family="Times,serif" font-size="14.00">%4</text>
</g>
<!-- node6 -->
<g id="node7" class="node">
<title>node6</title>
<polygon fill="none" stroke="black" points="197,-298.5 197,-366.5 364,-366.5 364,-298.5 197,-298.5"/>
<text text-anchor="start" x="205" y="-351.3" font-family="Times,serif" font-size="14.00">Let l4 =</text>
<text text-anchor="start" x="205" y="-336.3" font-family="Times,serif" font-size="14.00"> Get %5 (l3)</text>
<text text-anchor="start" x="205" y="-321.3" font-family="Times,serif" font-size="14.00"> Project (#1)</text>
<text text-anchor="start" x="205" y="-306.3" font-family="Times,serif" font-size="14.00"> Distinct group=(#0)</text>
</g>
<!-- node5&#45;&gt;node6 -->
<g id="edge1" class="edge">
<title>node5&#45;&gt;node6</title>
<path fill="none" stroke="black" d="M339.93,-418.25C330.2,-404.38 319.33,-388.87 309.56,-374.95"/>
<polygon fill="black" stroke="black" points="312.26,-372.69 303.65,-366.51 306.52,-376.71 312.26,-372.69"/>
<text text-anchor="start" x="324.5" y="-388.8" font-family="Times,serif" font-size="14.00">%5</text>
</g>
<!-- node9 -->
<g id="node10" class="node">
<title>node9</title>
<polygon fill="none" stroke="black" points="278,-0.5 278,-36.5 391,-36.5 391,-0.5 278,-0.5"/>
<text text-anchor="start" x="286" y="-14.8" font-family="Times,serif" font-size="14.00">Union %8 %5</text>
</g>
<!-- node5&#45;&gt;node9 -->
<g id="edge12" class="edge">
<title>node5&#45;&gt;node9</title>
<path fill="none" stroke="black" d="M394.3,-418.27C406.95,-394.49 419.5,-363.37 419.5,-333.5 419.5,-333.5 419.5,-333.5 419.5,-106.5 419.5,-79.1 397.66,-57.12 376.12,-42.11"/>
<polygon fill="black" stroke="black" points="377.88,-39.08 367.61,-36.5 374.03,-44.93 377.88,-39.08"/>
<text text-anchor="start" x="419.5" y="-208.8" font-family="Times,serif" font-size="14.00">%5</text>
</g>
<!-- node6&#45;&gt;node7 -->
<g id="edge9" class="edge">
<title>node6&#45;&gt;node7</title>
<path fill="none" stroke="black" d="M271.5,-298.32C267.99,-285.37 263.92,-270.36 260.19,-256.6"/>
<polygon fill="black" stroke="black" points="263.54,-255.58 257.54,-246.84 256.78,-257.41 263.54,-255.58"/>
<text text-anchor="start" x="265.5" y="-268.8" font-family="Times,serif" font-size="14.00">%6</text>
</g>
<!-- node7&#45;&gt;node8 -->
<g id="edge11" class="edge">
<title>node7&#45;&gt;node8</title>
<path fill="none" stroke="black" d="M248.5,-178.34C248.5,-164.93 248.5,-149.6 248.5,-136.73"/>
<polygon fill="black" stroke="black" points="252,-136.59 248.5,-126.59 245,-136.59 252,-136.59"/>
<text text-anchor="start" x="248.5" y="-148.8" font-family="Times,serif" font-size="14.00">%7</text>
</g>
<!-- node8&#45;&gt;node9 -->
<g id="edge3" class="edge">
<title>node8&#45;&gt;node9</title>
<path fill="none" stroke="black" d="M266.32,-88.47C279.02,-75.62 296.25,-58.19 310.21,-44.07"/>
<polygon fill="black" stroke="black" points="313.04,-46.19 317.58,-36.62 308.06,-41.27 313.04,-46.19"/>
<text text-anchor="start" x="298.5" y="-58.8" font-family="Times,serif" font-size="14.00">%8</text>
</g>
</g>
</svg>
