<?xml version="1.0" encoding="UTF-8" standalone="no"?>
<!DOCTYPE svg PUBLIC "-//W3C//DTD SVG 1.1//EN"
 "http://www.w3.org/Graphics/SVG/1.1/DTD/svg11.dtd">
<!-- Generated by graphviz version 2.43.0 (0)
 -->
<!-- Title: G Pages: 1 -->
<svg width="738pt" height="609pt"
 viewBox="0.00 0.00 737.50 609.00" xmlns="http://www.w3.org/2000/svg" xmlns:xlink="http://www.w3.org/1999/xlink">
<g id="graph0" class="graph" transform="scale(1 1) rotate(0) translate(4 605)">
<title>G</title>
<polygon fill="white" stroke="transparent" points="-4,4 -4,-605 733.5,-605 733.5,4 -4,4"/>
<!-- node0 -->
<g id="node1" class="node">
<title>node0</title>
<polygon fill="none" stroke="black" points="0,-562.5 0,-600.5 215,-600.5 215,-562.5 0,-562.5"/>
<text text-anchor="start" x="8" y="-585.3" font-family="Times,serif" font-size="14.00">Get outer_joins.public.l (u5)</text>
<text text-anchor="start" x="8" y="-570.3" font-family="Times,serif" font-size="14.00"> ArrangeBy (#1)</text>
</g>
<!-- node2 -->
<g id="node3" class="node">
<title>node2</title>
<polygon fill="none" stroke="black" points="61.5,-442.5 61.5,-510.5 387.5,-510.5 387.5,-442.5 61.5,-442.5"/>
<text text-anchor="start" x="69.5" y="-495.3" font-family="Times,serif" font-size="14.00">Let l0 =</text>
<text text-anchor="start" x="69.5" y="-480.3" font-family="Times,serif" font-size="14.00"> Join %0 %1 (= #1 #2)</text>
<text text-anchor="start" x="69.5" y="-465.3" font-family="Times,serif" font-size="14.00"> implementation = Differential %1 %0.(#1)</text>
<text text-anchor="start" x="69.5" y="-450.3" font-family="Times,serif" font-size="14.00"> Project (#0, #1, #3)</text>
</g>
<!-- node0&#45;&gt;node2 -->
<g id="edge6" class="edge">
<title>node0&#45;&gt;node2</title>
<path fill="none" stroke="black" d="M128.15,-562.32C142.14,-550 161.2,-533.22 178.68,-517.84"/>
<polygon fill="black" stroke="black" points="181.38,-520.13 186.57,-510.89 176.75,-514.87 181.38,-520.13"/>
<text text-anchor="start" x="166.5" y="-532.8" font-family="Times,serif" font-size="14.00">%0</text>
</g>
<!-- node1 -->
<g id="node2" class="node">
<title>node1</title>
<polygon fill="none" stroke="black" points="233.5,-563.5 233.5,-599.5 451.5,-599.5 451.5,-563.5 233.5,-563.5"/>
<text text-anchor="start" x="241.5" y="-577.8" font-family="Times,serif" font-size="14.00">Get outer_joins.public.r (u7)</text>
</g>
<!-- node1&#45;&gt;node2 -->
<g id="edge10" class="edge">
<title>node1&#45;&gt;node2</title>
<path fill="none" stroke="black" d="M323.01,-563.49C308.7,-550.99 288.63,-533.48 270.34,-517.51"/>
<polygon fill="black" stroke="black" points="272.47,-514.72 262.63,-510.79 267.87,-520 272.47,-514.72"/>
<text text-anchor="start" x="297.5" y="-532.8" font-family="Times,serif" font-size="14.00">%1</text>
</g>
<!-- node4 -->
<g id="node5" class="node">
<title>node4</title>
<polygon fill="none" stroke="black" points="483,-322.5 483,-390.5 650,-390.5 650,-322.5 483,-322.5"/>
<text text-anchor="start" x="491" y="-375.3" font-family="Times,serif" font-size="14.00">Get %2 (l0)</text>
<text text-anchor="start" x="491" y="-360.3" font-family="Times,serif" font-size="14.00"> Project (#1)</text>
<text text-anchor="start" x="491" y="-345.3" font-family="Times,serif" font-size="14.00"> Distinct group=(#0)</text>
<text text-anchor="start" x="491" y="-330.3" font-family="Times,serif" font-size="14.00"> ArrangeBy (#0)</text>
</g>
<!-- node2&#45;&gt;node4 -->
<g id="edge2" class="edge">
<title>node2&#45;&gt;node4</title>
<path fill="none" stroke="black" d="M324.14,-442.41C367.5,-427.87 419.11,-410.37 473.35,-391.38"/>
<polygon fill="black" stroke="black" points="474.51,-394.69 482.79,-388.07 472.2,-388.08 474.51,-394.69"/>
<text text-anchor="start" x="419.5" y="-412.8" font-family="Times,serif" font-size="14.00">%2</text>
</g>
<!-- node8 -->
<g id="node9" class="node">
<title>node8</title>
<polygon fill="none" stroke="black" points="82.5,-265.5 82.5,-303.5 280.5,-303.5 280.5,-265.5 82.5,-265.5"/>
<text text-anchor="start" x="90.5" y="-288.3" font-family="Times,serif" font-size="14.00">Get %2 (l0)</text>
<text text-anchor="start" x="90.5" y="-273.3" font-family="Times,serif" font-size="14.00"> Project (#0, #1, #1, #2)</text>
</g>
<!-- node2&#45;&gt;node8 -->
<g id="edge5" class="edge">
<title>node2&#45;&gt;node8</title>
<path fill="none" stroke="black" d="M217.01,-442.4C208.75,-405.89 195.59,-347.75 187.82,-313.44"/>
<polygon fill="black" stroke="black" points="191.22,-312.59 185.6,-303.61 184.39,-314.13 191.22,-312.59"/>
<text text-anchor="start" x="213.5" y="-412.8" font-family="Times,serif" font-size="14.00">%2</text>
</g>
<!-- node3 -->
<g id="node4" class="node">
<title>node3</title>
<polygon fill="none" stroke="black" points="250,-338.5 250,-374.5 465,-374.5 465,-338.5 250,-338.5"/>
<text text-anchor="start" x="258" y="-352.8" font-family="Times,serif" font-size="14.00">Get outer_joins.public.l (u5)</text>
</g>
<!-- node5 -->
<g id="node6" class="node">
<title>node5</title>
<polygon fill="none" stroke="black" points="403.5,-178.5 403.5,-246.5 729.5,-246.5 729.5,-178.5 403.5,-178.5"/>
<text text-anchor="start" x="411.5" y="-231.3" font-family="Times,serif" font-size="14.00">Join %3 %4 (= #1 #2)</text>
<text text-anchor="start" x="411.5" y="-216.3" font-family="Times,serif" font-size="14.00"> implementation = Differential %3 %4.(#0)</text>
<text text-anchor="start" x="411.5" y="-201.3" font-family="Times,serif" font-size="14.00"> Project (#0, #1)</text>
<text text-anchor="start" x="411.5" y="-186.3" font-family="Times,serif" font-size="14.00"> Negate</text>
</g>
<!-- node3&#45;&gt;node5 -->
<g id="edge1" class="edge">
<title>node3&#45;&gt;node5</title>
<path fill="none" stroke="black" d="M382.71,-338.37C413.89,-317.19 467.93,-280.47 509.36,-252.32"/>
<polygon fill="black" stroke="black" points="511.43,-255.15 517.73,-246.63 507.49,-249.36 511.43,-255.15"/>
<text text-anchor="start" x="486.5" y="-280.8" font-family="Times,serif" font-size="14.00">%3</text>
</g>
<!-- node4&#45;&gt;node5 -->
<g id="edge3" class="edge">
<title>node4&#45;&gt;node5</title>
<path fill="none" stroke="black" d="M566.5,-322.21C566.5,-302.71 566.5,-277.87 566.5,-256.86"/>
<polygon fill="black" stroke="black" points="570,-256.58 566.5,-246.58 563,-256.58 570,-256.58"/>
<text text-anchor="start" x="566.5" y="-280.8" font-family="Times,serif" font-size="14.00">%4</text>
</g>
<!-- node7 -->
<g id="node8" class="node">
<title>node7</title>
<polygon fill="none" stroke="black" points="217.5,-88.5 217.5,-126.5 337.5,-126.5 337.5,-88.5 217.5,-88.5"/>
<text text-anchor="start" x="225.5" y="-111.3" font-family="Times,serif" font-size="14.00">Union %5 %6</text>
<text text-anchor="start" x="225.5" y="-96.3" font-family="Times,serif" font-size="14.00"> Map null, null</text>
</g>
<!-- node5&#45;&gt;node7 -->
<g id="edge7" class="edge">
<title>node5&#45;&gt;node7</title>
<path fill="none" stroke="black" d="M473.87,-178.49C429.42,-162.65 377.43,-144.12 338.12,-130.1"/>
<polygon fill="black" stroke="black" points="339,-126.7 328.41,-126.64 336.65,-133.3 339,-126.7"/>
<text text-anchor="start" x="421.5" y="-148.8" font-family="Times,serif" font-size="14.00">%5</text>
</g>
<!-- node6 -->
<g id="node7" class="node">
<title>node6</title>
<polygon fill="none" stroke="black" points="170,-194.5 170,-230.5 385,-230.5 385,-194.5 170,-194.5"/>
<text text-anchor="start" x="178" y="-208.8" font-family="Times,serif" font-size="14.00">Get outer_joins.public.l (u5)</text>
</g>
<!-- node6&#45;&gt;node7 -->
<g id="edge8" class="edge">
<title>node6&#45;&gt;node7</title>
<path fill="none" stroke="black" d="M277.5,-194.49C277.5,-178.82 277.5,-155.28 277.5,-136.78"/>
<polygon fill="black" stroke="black" points="281,-136.57 277.5,-126.57 274,-136.57 281,-136.57"/>
<text text-anchor="start" x="277.5" y="-148.8" font-family="Times,serif" font-size="14.00">%6</text>
</g>
<!-- node9 -->
<g id="node10" class="node">
<title>node9</title>
<polygon fill="none" stroke="black" points="101,-0.5 101,-36.5 214,-36.5 214,-0.5 101,-0.5"/>
<text text-anchor="start" x="109" y="-14.8" font-family="Times,serif" font-size="14.00">Union %7 %8</text>
</g>
<!-- node7&#45;&gt;node9 -->
<g id="edge9" class="edge">
<title>node7&#45;&gt;node9</title>
<path fill="none" stroke="black" d="M252.64,-88.47C234.25,-75.15 209.08,-56.9 189.25,-42.52"/>
<polygon fill="black" stroke="black" points="191.26,-39.65 181.11,-36.62 187.15,-45.32 191.26,-39.65"/>
<text text-anchor="start" x="225.5" y="-58.8" font-family="Times,serif" font-size="14.00">%7</text>
</g>
<!-- node8&#45;&gt;node9 -->
<g id="edge4" class="edge">
<title>node8&#45;&gt;node9</title>
<path fill="none" stroke="black" d="M168.66,-265.37C165.35,-259.74 162.24,-253.35 160.5,-247 141.29,-176.94 148.13,-90.13 153.51,-46.79"/>
<polygon fill="black" stroke="black" points="157,-47.12 154.83,-36.75 150.06,-46.21 157,-47.12"/>
<text text-anchor="start" x="148.5" y="-148.8" font-family="Times,serif" font-size="14.00">%8</text>
</g>
</g>
</svg>
