<?xml version="1.0" encoding="UTF-8" standalone="no"?>
<!DOCTYPE svg PUBLIC "-//W3C//DTD SVG 1.1//EN"
 "http://www.w3.org/Graphics/SVG/1.1/DTD/svg11.dtd">
<!-- Generated by graphviz version 2.43.0 (0)
 -->
<!-- Title: G Pages: 1 -->
<svg width="781pt" height="1076pt"
 viewBox="0.00 0.00 780.50 1076.00" xmlns="http://www.w3.org/2000/svg" xmlns:xlink="http://www.w3.org/1999/xlink">
<g id="graph0" class="graph" transform="scale(1 1) rotate(0) translate(4 1072)">
<title>G</title>
<polygon fill="white" stroke="transparent" points="-4,4 -4,-1072 776.5,-1072 776.5,4 -4,4"/>
<!-- node0 -->
<g id="node1" class="node">
<title>node0</title>
<polygon fill="none" stroke="black" points="0,-969.5 0,-1067.5 215,-1067.5 215,-969.5 0,-969.5"/>
<text text-anchor="start" x="8" y="-1052.3" font-family="Times,serif" font-size="14.00">Get outer_joins.public.l (u5)</text>
<text text-anchor="start" x="8" y="-1037.3" font-family="Times,serif" font-size="14.00"> types = (integer, integer)</text>
<text text-anchor="start" x="8" y="-1022.3" font-family="Times,serif" font-size="14.00"> keys = ()</text>
<text text-anchor="start" x="8" y="-1007.3" font-family="Times,serif" font-size="14.00"> ArrangeBy (#1)</text>
<text text-anchor="start" x="8" y="-992.3" font-family="Times,serif" font-size="14.00"> types = (integer, integer)</text>
<text text-anchor="start" x="8" y="-977.3" font-family="Times,serif" font-size="14.00"> keys = ()</text>
</g>
<!-- node2 -->
<g id="node3" class="node">
<title>node2</title>
<polygon fill="none" stroke="black" points="61.5,-789.5 61.5,-917.5 387.5,-917.5 387.5,-789.5 61.5,-789.5"/>
<text text-anchor="start" x="69.5" y="-902.3" font-family="Times,serif" font-size="14.00">Let l0 =</text>
<text text-anchor="start" x="69.5" y="-887.3" font-family="Times,serif" font-size="14.00"> Join %0 %1 (= #1 #2)</text>
<text text-anchor="start" x="69.5" y="-872.3" font-family="Times,serif" font-size="14.00"> implementation = Differential %1 %0.(#1)</text>
<text text-anchor="start" x="69.5" y="-857.3" font-family="Times,serif" font-size="14.00"> types = (integer, integer, integer, integer)</text>
<text text-anchor="start" x="69.5" y="-842.3" font-family="Times,serif" font-size="14.00"> keys = ()</text>
<text text-anchor="start" x="69.5" y="-827.3" font-family="Times,serif" font-size="14.00"> Project (#0, #1, #3)</text>
<text text-anchor="start" x="69.5" y="-812.3" font-family="Times,serif" font-size="14.00"> types = (integer, integer, integer)</text>
<text text-anchor="start" x="69.5" y="-797.3" font-family="Times,serif" font-size="14.00"> keys = ()</text>
</g>
<!-- node0&#45;&gt;node2 -->
<g id="edge6" class="edge">
<title>node0&#45;&gt;node2</title>
<path fill="none" stroke="black" d="M141.97,-969.48C151.81,-955.77 162.75,-940.53 173.36,-925.75"/>
<polygon fill="black" stroke="black" points="176.22,-927.77 179.21,-917.6 170.53,-923.68 176.22,-927.77"/>
<text text-anchor="start" x="166.5" y="-939.8" font-family="Times,serif" font-size="14.00">%0</text>
</g>
<!-- node1 -->
<g id="node2" class="node">
<title>node1</title>
<polygon fill="none" stroke="black" points="233.5,-992 233.5,-1045 451.5,-1045 451.5,-992 233.5,-992"/>
<text text-anchor="start" x="241.5" y="-1029.8" font-family="Times,serif" font-size="14.00">Get outer_joins.public.r (u7)</text>
<text text-anchor="start" x="241.5" y="-1014.8" font-family="Times,serif" font-size="14.00"> types = (integer, integer)</text>
<text text-anchor="start" x="241.5" y="-999.8" font-family="Times,serif" font-size="14.00"> keys = ()</text>
</g>
<!-- node1&#45;&gt;node2 -->
<g id="edge10" class="edge">
<title>node1&#45;&gt;node2</title>
<path fill="none" stroke="black" d="M323.8,-991.67C310.96,-973.93 293.22,-949.43 276.3,-926.05"/>
<polygon fill="black" stroke="black" points="279.05,-923.89 270.35,-917.84 273.38,-927.99 279.05,-923.89"/>
<text text-anchor="start" x="294.5" y="-939.8" font-family="Times,serif" font-size="14.00">%1</text>
</g>
<!-- node4 -->
<g id="node5" class="node">
<title>node4</title>
<polygon fill="none" stroke="black" points="484.5,-549.5 484.5,-737.5 746.5,-737.5 746.5,-549.5 484.5,-549.5"/>
<text text-anchor="start" x="492.5" y="-722.3" font-family="Times,serif" font-size="14.00">Get %2 (l0)</text>
<text text-anchor="start" x="492.5" y="-707.3" font-family="Times,serif" font-size="14.00"> types = (integer, integer, integer)</text>
<text text-anchor="start" x="492.5" y="-692.3" font-family="Times,serif" font-size="14.00"> keys = ()</text>
<text text-anchor="start" x="492.5" y="-677.3" font-family="Times,serif" font-size="14.00"> Project (#1)</text>
<text text-anchor="start" x="492.5" y="-662.3" font-family="Times,serif" font-size="14.00"> types = (integer)</text>
<text text-anchor="start" x="492.5" y="-647.3" font-family="Times,serif" font-size="14.00"> keys = ()</text>
<text text-anchor="start" x="492.5" y="-632.3" font-family="Times,serif" font-size="14.00"> Distinct group=(#0)</text>
<text text-anchor="start" x="492.5" y="-617.3" font-family="Times,serif" font-size="14.00"> types = (integer)</text>
<text text-anchor="start" x="492.5" y="-602.3" font-family="Times,serif" font-size="14.00"> keys = ((#0))</text>
<text text-anchor="start" x="492.5" y="-587.3" font-family="Times,serif" font-size="14.00"> ArrangeBy (#0)</text>
<text text-anchor="start" x="492.5" y="-572.3" font-family="Times,serif" font-size="14.00"> types = (integer)</text>
<text text-anchor="start" x="492.5" y="-557.3" font-family="Times,serif" font-size="14.00"> keys = ((#0))</text>
</g>
<!-- node2&#45;&gt;node4 -->
<g id="edge2" class="edge">
<title>node2&#45;&gt;node4</title>
<path fill="none" stroke="black" d="M373.12,-789.48C407.28,-773.69 443.08,-756.07 475.5,-738 475.59,-737.95 475.68,-737.9 475.78,-737.85"/>
<polygon fill="black" stroke="black" points="477.39,-740.95 484.36,-732.97 473.93,-734.87 477.39,-740.95"/>
<text text-anchor="start" x="435.5" y="-759.8" font-family="Times,serif" font-size="14.00">%2</text>
</g>
<!-- node8 -->
<g id="node9" class="node">
<title>node8</title>
<polygon fill="none" stroke="black" points="17,-432.5 17,-530.5 338,-530.5 338,-432.5 17,-432.5"/>
<text text-anchor="start" x="25" y="-515.3" font-family="Times,serif" font-size="14.00">Get %2 (l0)</text>
<text text-anchor="start" x="25" y="-500.3" font-family="Times,serif" font-size="14.00"> types = (integer, integer, integer)</text>
<text text-anchor="start" x="25" y="-485.3" font-family="Times,serif" font-size="14.00"> keys = ()</text>
<text text-anchor="start" x="25" y="-470.3" font-family="Times,serif" font-size="14.00"> Project (#0, #1, #1, #2)</text>
<text text-anchor="start" x="25" y="-455.3" font-family="Times,serif" font-size="14.00"> types = (integer, integer, integer, integer)</text>
<text text-anchor="start" x="25" y="-440.3" font-family="Times,serif" font-size="14.00"> keys = ()</text>
</g>
<!-- node2&#45;&gt;node8 -->
<g id="edge5" class="edge">
<title>node2&#45;&gt;node8</title>
<path fill="none" stroke="black" d="M216.47,-789.32C207.62,-719.62 193.49,-608.41 184.9,-540.75"/>
<polygon fill="black" stroke="black" points="188.35,-540.17 183.62,-530.69 181.41,-541.05 188.35,-540.17"/>
<text text-anchor="start" x="213.5" y="-759.8" font-family="Times,serif" font-size="14.00">%2</text>
</g>
<!-- node3 -->
<g id="node4" class="node">
<title>node3</title>
<polygon fill="none" stroke="black" points="251,-617 251,-670 466,-670 466,-617 251,-617"/>
<text text-anchor="start" x="259" y="-654.8" font-family="Times,serif" font-size="14.00">Get outer_joins.public.l (u5)</text>
<text text-anchor="start" x="259" y="-639.8" font-family="Times,serif" font-size="14.00"> types = (integer, integer)</text>
<text text-anchor="start" x="259" y="-624.8" font-family="Times,serif" font-size="14.00"> keys = ()</text>
</g>
<!-- node5 -->
<g id="node6" class="node">
<title>node5</title>
<polygon fill="none" stroke="black" points="446.5,-255.5 446.5,-413.5 772.5,-413.5 772.5,-255.5 446.5,-255.5"/>
<text text-anchor="start" x="454.5" y="-398.3" font-family="Times,serif" font-size="14.00">Join %3 %4 (= #1 #2)</text>
<text text-anchor="start" x="454.5" y="-383.3" font-family="Times,serif" font-size="14.00"> implementation = Differential %3 %4.(#0)</text>
<text text-anchor="start" x="454.5" y="-368.3" font-family="Times,serif" font-size="14.00"> types = (integer, integer, integer)</text>
<text text-anchor="start" x="454.5" y="-353.3" font-family="Times,serif" font-size="14.00"> keys = ()</text>
<text text-anchor="start" x="454.5" y="-338.3" font-family="Times,serif" font-size="14.00"> Project (#0, #1)</text>
<text text-anchor="start" x="454.5" y="-323.3" font-family="Times,serif" font-size="14.00"> types = (integer, integer)</text>
<text text-anchor="start" x="454.5" y="-308.3" font-family="Times,serif" font-size="14.00"> keys = ()</text>
<text text-anchor="start" x="454.5" y="-293.3" font-family="Times,serif" font-size="14.00"> Negate</text>
<text text-anchor="start" x="454.5" y="-278.3" font-family="Times,serif" font-size="14.00"> types = (integer, integer)</text>
<text text-anchor="start" x="454.5" y="-263.3" font-family="Times,serif" font-size="14.00"> keys = ()</text>
</g>
<!-- node3&#45;&gt;node5 -->
<g id="edge1" class="edge">
<title>node3&#45;&gt;node5</title>
<path fill="none" stroke="black" d="M379.47,-616.85C414.17,-574.41 485.07,-487.69 539.03,-421.69"/>
<polygon fill="black" stroke="black" points="541.91,-423.7 545.53,-413.74 536.49,-419.27 541.91,-423.7"/>
<text text-anchor="start" x="527.5" y="-477.8" font-family="Times,serif" font-size="14.00">%3</text>
</g>
<!-- node4&#45;&gt;node5 -->
<g id="edge3" class="edge">
<title>node4&#45;&gt;node5</title>
<path fill="none" stroke="black" d="M613.68,-549.14C612.9,-509.3 611.99,-463.04 611.23,-423.77"/>
<polygon fill="black" stroke="black" points="614.72,-423.62 611.03,-413.69 607.72,-423.75 614.72,-423.62"/>
<text text-anchor="start" x="612.5" y="-477.8" font-family="Times,serif" font-size="14.00">%4</text>
</g>
<!-- node7 -->
<g id="node8" class="node">
<title>node7</title>
<polygon fill="none" stroke="black" points="205.5,-105.5 205.5,-203.5 543.5,-203.5 543.5,-105.5 205.5,-105.5"/>
<text text-anchor="start" x="213.5" y="-188.3" font-family="Times,serif" font-size="14.00">Union %5 %6</text>
<text text-anchor="start" x="213.5" y="-173.3" font-family="Times,serif" font-size="14.00"> types = (integer, integer)</text>
<text text-anchor="start" x="213.5" y="-158.3" font-family="Times,serif" font-size="14.00"> keys = ()</text>
<text text-anchor="start" x="213.5" y="-143.3" font-family="Times,serif" font-size="14.00"> Map null, null</text>
<text text-anchor="start" x="213.5" y="-128.3" font-family="Times,serif" font-size="14.00"> types = (integer, integer, integer?, integer?)</text>
<text text-anchor="start" x="213.5" y="-113.3" font-family="Times,serif" font-size="14.00"> keys = ()</text>
</g>
<!-- node5&#45;&gt;node7 -->
<g id="edge7" class="edge">
<title>node5&#45;&gt;node7</title>
<path fill="none" stroke="black" d="M506.43,-255.43C486.03,-239.98 465.05,-224.09 445.98,-209.65"/>
<polygon fill="black" stroke="black" points="448.02,-206.8 437.94,-203.55 443.8,-212.38 448.02,-206.8"/>
<text text-anchor="start" x="477.5" y="-225.8" font-family="Times,serif" font-size="14.00">%5</text>
</g>
<!-- node6 -->
<g id="node7" class="node">
<title>node6</title>
<polygon fill="none" stroke="black" points="213,-308 213,-361 428,-361 428,-308 213,-308"/>
<text text-anchor="start" x="221" y="-345.8" font-family="Times,serif" font-size="14.00">Get outer_joins.public.l (u5)</text>
<text text-anchor="start" x="221" y="-330.8" font-family="Times,serif" font-size="14.00"> types = (integer, integer)</text>
<text text-anchor="start" x="221" y="-315.8" font-family="Times,serif" font-size="14.00"> keys = ()</text>
</g>
<!-- node6&#45;&gt;node7 -->
<g id="edge8" class="edge">
<title>node6&#45;&gt;node7</title>
<path fill="none" stroke="black" d="M328.24,-308C335.69,-283.43 347.23,-245.39 356.92,-213.46"/>
<polygon fill="black" stroke="black" points="360.31,-214.35 359.86,-203.76 353.61,-212.31 360.31,-214.35"/>
<text text-anchor="start" x="353.5" y="-225.8" font-family="Times,serif" font-size="14.00">%6</text>
</g>
<!-- node9 -->
<g id="node10" class="node">
<title>node9</title>
<polygon fill="none" stroke="black" points="24.5,-0.5 24.5,-53.5 362.5,-53.5 362.5,-0.5 24.5,-0.5"/>
<text text-anchor="start" x="32.5" y="-38.3" font-family="Times,serif" font-size="14.00">Union %7 %8</text>
<text text-anchor="start" x="32.5" y="-23.3" font-family="Times,serif" font-size="14.00"> types = (integer, integer, integer?, integer?)</text>
<text text-anchor="start" x="32.5" y="-8.3" font-family="Times,serif" font-size="14.00"> keys = ()</text>
</g>
<!-- node7&#45;&gt;node9 -->
<g id="edge9" class="edge">
<title>node7&#45;&gt;node9</title>
<path fill="none" stroke="black" d="M305.04,-105.34C282.79,-89.91 258.76,-73.25 238.71,-59.35"/>
<polygon fill="black" stroke="black" points="240.59,-56.39 230.38,-53.57 236.6,-62.15 240.59,-56.39"/>
<text text-anchor="start" x="279.5" y="-75.8" font-family="Times,serif" font-size="14.00">%7</text>
</g>
<!-- node8&#45;&gt;node9 -->
<g id="edge4" class="edge">
<title>node8&#45;&gt;node9</title>
<path fill="none" stroke="black" d="M179.21,-432.07C182.44,-340.65 189.38,-144.57 192.23,-63.85"/>
<polygon fill="black" stroke="black" points="195.74,-63.81 192.59,-53.7 188.74,-63.57 195.74,-63.81"/>
<text text-anchor="start" x="187.5" y="-225.8" font-family="Times,serif" font-size="14.00">%8</text>
</g>
</g>
</svg>
