<?xml version="1.0" encoding="UTF-8" standalone="no"?>
<!DOCTYPE svg PUBLIC "-//W3C//DTD SVG 1.1//EN"
 "http://www.w3.org/Graphics/SVG/1.1/DTD/svg11.dtd">
<!-- Generated by graphviz version 2.43.0 (0)
 -->
<!-- Title: G Pages: 1 -->
<svg width="590pt" height="1112pt"
 viewBox="0.00 0.00 589.50 1112.00" xmlns="http://www.w3.org/2000/svg" xmlns:xlink="http://www.w3.org/1999/xlink">
<g id="graph0" class="graph" transform="scale(1 1) rotate(0) translate(4 1108)">
<title>G</title>
<polygon fill="white" stroke="transparent" points="-4,4 -4,-1108 585.5,-1108 585.5,4 -4,4"/>
<!-- node0 -->
<g id="node1" class="node">
<title>node0</title>
<polygon fill="none" stroke="black" points="233,-1035.5 233,-1103.5 334,-1103.5 334,-1035.5 233,-1035.5"/>
<text text-anchor="start" x="241" y="-1088.3" font-family="Times,serif" font-size="14.00">Let l0 =</text>
<text text-anchor="start" x="241" y="-1073.3" font-family="Times,serif" font-size="14.00"> Constant ()</text>
<text text-anchor="start" x="241" y="-1058.3" font-family="Times,serif" font-size="14.00"> types = ()</text>
<text text-anchor="start" x="241" y="-1043.3" font-family="Times,serif" font-size="14.00"> keys = (())</text>
</g>
<!-- node2 -->
<g id="node3" class="node">
<title>node2</title>
<polygon fill="none" stroke="black" points="7,-900.5 7,-983.5 276,-983.5 276,-900.5 7,-900.5"/>
<text text-anchor="start" x="15" y="-968.3" font-family="Times,serif" font-size="14.00">Let l1 =</text>
<text text-anchor="start" x="15" y="-953.3" font-family="Times,serif" font-size="14.00"> Join %0 %1</text>
<text text-anchor="start" x="15" y="-938.3" font-family="Times,serif" font-size="14.00"> implementation = Unimplemented</text>
<text text-anchor="start" x="15" y="-923.3" font-family="Times,serif" font-size="14.00"> types = (integer, integer)</text>
<text text-anchor="start" x="15" y="-908.3" font-family="Times,serif" font-size="14.00"> keys = ()</text>
</g>
<!-- node0&#45;&gt;node2 -->
<g id="edge8" class="edge">
<title>node0&#45;&gt;node2</title>
<path fill="none" stroke="black" d="M245.82,-1035.2C230.29,-1021.47 212,-1005.31 195.12,-990.39"/>
<polygon fill="black" stroke="black" points="197.28,-987.63 187.47,-983.63 192.65,-992.87 197.28,-987.63"/>
<text text-anchor="start" x="225.5" y="-1005.8" font-family="Times,serif" font-size="14.00">%0</text>
</g>
<!-- node4 -->
<g id="node5" class="node">
<title>node4</title>
<polygon fill="none" stroke="black" points="294,-900.5 294,-983.5 563,-983.5 563,-900.5 294,-900.5"/>
<text text-anchor="start" x="302" y="-968.3" font-family="Times,serif" font-size="14.00">Let l2 =</text>
<text text-anchor="start" x="302" y="-953.3" font-family="Times,serif" font-size="14.00"> Join %0 %3</text>
<text text-anchor="start" x="302" y="-938.3" font-family="Times,serif" font-size="14.00"> implementation = Unimplemented</text>
<text text-anchor="start" x="302" y="-923.3" font-family="Times,serif" font-size="14.00"> types = (integer, integer)</text>
<text text-anchor="start" x="302" y="-908.3" font-family="Times,serif" font-size="14.00"> keys = ()</text>
</g>
<!-- node0&#45;&gt;node4 -->
<g id="edge4" class="edge">
<title>node0&#45;&gt;node4</title>
<path fill="none" stroke="black" d="M321.98,-1035.2C337.84,-1021.47 356.51,-1005.31 373.75,-990.39"/>
<polygon fill="black" stroke="black" points="376.29,-992.82 381.56,-983.63 371.71,-987.53 376.29,-992.82"/>
<text text-anchor="start" x="355.5" y="-1005.8" font-family="Times,serif" font-size="14.00">%0</text>
</g>
<!-- node1 -->
<g id="node2" class="node">
<title>node1</title>
<polygon fill="none" stroke="black" points="0,-1043 0,-1096 215,-1096 215,-1043 0,-1043"/>
<text text-anchor="start" x="8" y="-1080.8" font-family="Times,serif" font-size="14.00">Get outer_joins.public.l (u5)</text>
<text text-anchor="start" x="8" y="-1065.8" font-family="Times,serif" font-size="14.00"> types = (integer, integer)</text>
<text text-anchor="start" x="8" y="-1050.8" font-family="Times,serif" font-size="14.00"> keys = ()</text>
</g>
<!-- node1&#45;&gt;node2 -->
<g id="edge13" class="edge">
<title>node1&#45;&gt;node2</title>
<path fill="none" stroke="black" d="M114.46,-1042.8C118.3,-1028.65 123.19,-1010.59 127.76,-993.73"/>
<polygon fill="black" stroke="black" points="131.16,-994.55 130.4,-983.98 124.4,-992.72 131.16,-994.55"/>
<text text-anchor="start" x="124.5" y="-1005.8" font-family="Times,serif" font-size="14.00">%1</text>
</g>
<!-- node5 -->
<g id="node6" class="node">
<title>node5</title>
<polygon fill="none" stroke="black" points="232,-675.5 232,-848.5 553,-848.5 553,-675.5 232,-675.5"/>
<text text-anchor="start" x="240" y="-833.3" font-family="Times,serif" font-size="14.00">Let l3 =</text>
<text text-anchor="start" x="240" y="-818.3" font-family="Times,serif" font-size="14.00"> Join %2 %4</text>
<text text-anchor="start" x="240" y="-803.3" font-family="Times,serif" font-size="14.00"> implementation = Unimplemented</text>
<text text-anchor="start" x="240" y="-788.3" font-family="Times,serif" font-size="14.00"> types = (integer, integer, integer, integer)</text>
<text text-anchor="start" x="240" y="-773.3" font-family="Times,serif" font-size="14.00"> keys = ()</text>
<text text-anchor="start" x="240" y="-758.3" font-family="Times,serif" font-size="14.00"> Project (#0..#3)</text>
<text text-anchor="start" x="240" y="-743.3" font-family="Times,serif" font-size="14.00"> types = (integer, integer, integer, integer)</text>
<text text-anchor="start" x="240" y="-728.3" font-family="Times,serif" font-size="14.00"> keys = ()</text>
<text text-anchor="start" x="240" y="-713.3" font-family="Times,serif" font-size="14.00"> Filter (#1 = #2)</text>
<text text-anchor="start" x="240" y="-698.3" font-family="Times,serif" font-size="14.00"> types = (integer, integer, integer, integer)</text>
<text text-anchor="start" x="240" y="-683.3" font-family="Times,serif" font-size="14.00"> keys = ()</text>
</g>
<!-- node2&#45;&gt;node5 -->
<g id="edge7" class="edge">
<title>node2&#45;&gt;node5</title>
<path fill="none" stroke="black" d="M198.77,-900.39C218.16,-886.63 240.68,-870.66 263.36,-854.58"/>
<polygon fill="black" stroke="black" points="265.58,-857.3 271.71,-848.66 261.53,-851.59 265.58,-857.3"/>
<text text-anchor="start" x="244.5" y="-870.8" font-family="Times,serif" font-size="14.00">%2</text>
</g>
<!-- node7 -->
<g id="node8" class="node">
<title>node7</title>
<polygon fill="none" stroke="black" points="179,-255.5 179,-413.5 448,-413.5 448,-255.5 179,-255.5"/>
<text text-anchor="start" x="187" y="-398.3" font-family="Times,serif" font-size="14.00">Join %2 %6 (= #1 #2)</text>
<text text-anchor="start" x="187" y="-383.3" font-family="Times,serif" font-size="14.00"> implementation = Unimplemented</text>
<text text-anchor="start" x="187" y="-368.3" font-family="Times,serif" font-size="14.00"> types = (integer, integer, integer)</text>
<text text-anchor="start" x="187" y="-353.3" font-family="Times,serif" font-size="14.00"> keys = ()</text>
<text text-anchor="start" x="187" y="-338.3" font-family="Times,serif" font-size="14.00"> Project (#0, #1)</text>
<text text-anchor="start" x="187" y="-323.3" font-family="Times,serif" font-size="14.00"> types = (integer, integer)</text>
<text text-anchor="start" x="187" y="-308.3" font-family="Times,serif" font-size="14.00"> keys = ()</text>
<text text-anchor="start" x="187" y="-293.3" font-family="Times,serif" font-size="14.00"> Negate</text>
<text text-anchor="start" x="187" y="-278.3" font-family="Times,serif" font-size="14.00"> types = (integer, integer)</text>
<text text-anchor="start" x="187" y="-263.3" font-family="Times,serif" font-size="14.00"> keys = ()</text>
</g>
<!-- node2&#45;&gt;node7 -->
<g id="edge5" class="edge">
<title>node2&#45;&gt;node7</title>
<path fill="none" stroke="black" d="M141.89,-900.3C143.39,-799.72 150.74,-541.97 186.5,-465 193.65,-449.6 203.43,-434.95 214.4,-421.4"/>
<polygon fill="black" stroke="black" points="217.24,-423.47 220.99,-413.56 211.88,-418.96 217.24,-423.47"/>
<text text-anchor="start" x="154.5" y="-645.8" font-family="Times,serif" font-size="14.00">%2</text>
</g>
<!-- node8 -->
<g id="node9" class="node">
<title>node8</title>
<polygon fill="none" stroke="black" points="144.5,-105.5 144.5,-203.5 482.5,-203.5 482.5,-105.5 144.5,-105.5"/>
<text text-anchor="start" x="152.5" y="-188.3" font-family="Times,serif" font-size="14.00">Union %7 %2</text>
<text text-anchor="start" x="152.5" y="-173.3" font-family="Times,serif" font-size="14.00"> types = (integer, integer)</text>
<text text-anchor="start" x="152.5" y="-158.3" font-family="Times,serif" font-size="14.00"> keys = ()</text>
<text text-anchor="start" x="152.5" y="-143.3" font-family="Times,serif" font-size="14.00"> Map null, null</text>
<text text-anchor="start" x="152.5" y="-128.3" font-family="Times,serif" font-size="14.00"> types = (integer, integer, integer?, integer?)</text>
<text text-anchor="start" x="152.5" y="-113.3" font-family="Times,serif" font-size="14.00"> keys = ()</text>
</g>
<!-- node2&#45;&gt;node8 -->
<g id="edge6" class="edge">
<title>node2&#45;&gt;node8</title>
<path fill="none" stroke="black" d="M132.47,-900.22C125.31,-864.29 116.5,-810.43 116.5,-763 116.5,-763 116.5,-763 116.5,-333.5 116.5,-280.13 156.8,-238.62 200.95,-209.17"/>
<polygon fill="black" stroke="black" points="203.02,-211.99 209.52,-203.62 199.22,-206.11 203.02,-211.99"/>
<text text-anchor="start" x="116.5" y="-540.8" font-family="Times,serif" font-size="14.00">%2</text>
</g>
<!-- node3 -->
<g id="node4" class="node">
<title>node3</title>
<polygon fill="none" stroke="black" points="352.5,-1043 352.5,-1096 570.5,-1096 570.5,-1043 352.5,-1043"/>
<text text-anchor="start" x="360.5" y="-1080.8" font-family="Times,serif" font-size="14.00">Get outer_joins.public.r (u7)</text>
<text text-anchor="start" x="360.5" y="-1065.8" font-family="Times,serif" font-size="14.00"> types = (integer, integer)</text>
<text text-anchor="start" x="360.5" y="-1050.8" font-family="Times,serif" font-size="14.00"> keys = ()</text>
</g>
<!-- node3&#45;&gt;node4 -->
<g id="edge10" class="edge">
<title>node3&#45;&gt;node4</title>
<path fill="none" stroke="black" d="M454.74,-1042.8C451.02,-1028.65 446.27,-1010.59 441.84,-993.73"/>
<polygon fill="black" stroke="black" points="445.2,-992.76 439.28,-983.98 438.43,-994.54 445.2,-992.76"/>
<text text-anchor="start" x="447.5" y="-1005.8" font-family="Times,serif" font-size="14.00">%3</text>
</g>
<!-- node4&#45;&gt;node5 -->
<g id="edge2" class="edge">
<title>node4&#45;&gt;node5</title>
<path fill="none" stroke="black" d="M420.24,-900.16C417.71,-887.65 414.81,-873.33 411.87,-858.76"/>
<polygon fill="black" stroke="black" points="415.24,-857.76 409.82,-848.65 408.38,-859.15 415.24,-857.76"/>
<text text-anchor="start" x="415.5" y="-870.8" font-family="Times,serif" font-size="14.00">%4</text>
</g>
<!-- node6 -->
<g id="node7" class="node">
<title>node6</title>
<polygon fill="none" stroke="black" points="196,-465.5 196,-623.5 517,-623.5 517,-465.5 196,-465.5"/>
<text text-anchor="start" x="204" y="-608.3" font-family="Times,serif" font-size="14.00">Let l4 =</text>
<text text-anchor="start" x="204" y="-593.3" font-family="Times,serif" font-size="14.00"> Get %5 (l3)</text>
<text text-anchor="start" x="204" y="-578.3" font-family="Times,serif" font-size="14.00"> types = (integer, integer, integer, integer)</text>
<text text-anchor="start" x="204" y="-563.3" font-family="Times,serif" font-size="14.00"> keys = ()</text>
<text text-anchor="start" x="204" y="-548.3" font-family="Times,serif" font-size="14.00"> Project (#1)</text>
<text text-anchor="start" x="204" y="-533.3" font-family="Times,serif" font-size="14.00"> types = (integer)</text>
<text text-anchor="start" x="204" y="-518.3" font-family="Times,serif" font-size="14.00"> keys = ()</text>
<text text-anchor="start" x="204" y="-503.3" font-family="Times,serif" font-size="14.00"> Distinct group=(#0)</text>
<text text-anchor="start" x="204" y="-488.3" font-family="Times,serif" font-size="14.00"> types = (integer)</text>
<text text-anchor="start" x="204" y="-473.3" font-family="Times,serif" font-size="14.00"> keys = ((#0))</text>
</g>
<!-- node5&#45;&gt;node6 -->
<g id="edge1" class="edge">
<title>node5&#45;&gt;node6</title>
<path fill="none" stroke="black" d="M378.17,-675.21C375.88,-661.51 373.51,-647.32 371.21,-633.58"/>
<polygon fill="black" stroke="black" points="374.66,-632.95 369.56,-623.66 367.75,-634.1 374.66,-632.95"/>
<text text-anchor="start" x="374.5" y="-645.8" font-family="Times,serif" font-size="14.00">%5</text>
</g>
<!-- node9 -->
<g id="node10" class="node">
<title>node9</title>
<polygon fill="none" stroke="black" points="243.5,-0.5 243.5,-53.5 581.5,-53.5 581.5,-0.5 243.5,-0.5"/>
<text text-anchor="start" x="251.5" y="-38.3" font-family="Times,serif" font-size="14.00">Union %8 %5</text>
<text text-anchor="start" x="251.5" y="-23.3" font-family="Times,serif" font-size="14.00"> types = (integer, integer, integer?, integer?)</text>
<text text-anchor="start" x="251.5" y="-8.3" font-family="Times,serif" font-size="14.00"> keys = ()</text>
</g>
<!-- node5&#45;&gt;node9 -->
<g id="edge12" class="edge">
<title>node5&#45;&gt;node9</title>
<path fill="none" stroke="black" d="M489.51,-675.3C503.49,-659.38 516.5,-642.04 526.5,-624 543.9,-592.6 545.5,-581.4 545.5,-545.5 545.5,-545.5 545.5,-545.5 545.5,-153.5 545.5,-111.94 510.72,-80.07 476.74,-58.84"/>
<polygon fill="black" stroke="black" points="478.51,-55.83 468.13,-53.68 474.9,-61.83 478.51,-55.83"/>
<text text-anchor="start" x="545.5" y="-330.8" font-family="Times,serif" font-size="14.00">%5</text>
</g>
<!-- node6&#45;&gt;node7 -->
<g id="edge9" class="edge">
<title>node6&#45;&gt;node7</title>
<path fill="none" stroke="black" d="M340.37,-465.46C337.55,-451.82 334.6,-437.55 331.73,-423.66"/>
<polygon fill="black" stroke="black" points="335.1,-422.72 329.65,-413.63 328.25,-424.14 335.1,-422.72"/>
<text text-anchor="start" x="335.5" y="-435.8" font-family="Times,serif" font-size="14.00">%6</text>
</g>
<!-- node7&#45;&gt;node8 -->
<g id="edge11" class="edge">
<title>node7&#45;&gt;node8</title>
<path fill="none" stroke="black" d="M313.5,-255.43C313.5,-241.5 313.5,-227.2 313.5,-213.94"/>
<polygon fill="black" stroke="black" points="317,-213.55 313.5,-203.55 310,-213.55 317,-213.55"/>
<text text-anchor="start" x="313.5" y="-225.8" font-family="Times,serif" font-size="14.00">%7</text>
</g>
<!-- node8&#45;&gt;node9 -->
<g id="edge3" class="edge">
<title>node8&#45;&gt;node9</title>
<path fill="none" stroke="black" d="M351.49,-105.34C362.96,-90.8 375.3,-75.15 385.87,-61.76"/>
<polygon fill="black" stroke="black" points="388.74,-63.77 392.19,-53.75 383.25,-59.43 388.74,-63.77"/>
<text text-anchor="start" x="377.5" y="-75.8" font-family="Times,serif" font-size="14.00">%8</text>
</g>
</g>
</svg>
