<?xml version="1.0" encoding="UTF-8" standalone="no"?>
<!DOCTYPE svg PUBLIC "-//W3C//DTD SVG 1.1//EN"
 "http://www.w3.org/Graphics/SVG/1.1/DTD/svg11.dtd">
<!-- Generated by graphviz version 2.43.0 (0)
 -->
<!-- Title: G Pages: 1 -->
<svg width="830pt" height="1194pt"
 viewBox="0.00 0.00 830.00 1194.00" xmlns="http://www.w3.org/2000/svg" xmlns:xlink="http://www.w3.org/1999/xlink">
<g id="graph0" class="graph" transform="scale(1 1) rotate(0) translate(4 1190)">
<title>G</title>
<polygon fill="white" stroke="transparent" points="-4,4 -4,-1190 826,-1190 826,4 -4,4"/>
<!-- node0 -->
<g id="node1" class="node">
<title>node0</title>
<polygon fill="none" stroke="black" points="721,-458 721,-496 822,-496 822,-458 721,-458"/>
<text text-anchor="start" x="729" y="-480.8" font-family="Times,serif" font-size="14.00">Let l0 =</text>
<text text-anchor="start" x="729" y="-465.8" font-family="Times,serif" font-size="14.00"> Constant ()</text>
</g>
<!-- node2 -->
<g id="node3" class="node">
<title>node2</title>
<polygon fill="none" stroke="black" points="535,-345.5 535,-398.5 804,-398.5 804,-345.5 535,-345.5"/>
<text text-anchor="start" x="543" y="-383.3" font-family="Times,serif" font-size="14.00">Let l1 =</text>
<text text-anchor="start" x="543" y="-368.3" font-family="Times,serif" font-size="14.00"> Join %0 %1</text>
<text text-anchor="start" x="543" y="-353.3" font-family="Times,serif" font-size="14.00"> implementation = Unimplemented</text>
</g>
<!-- node0&#45;&gt;node2 -->
<g id="edge19" class="edge">
<title>node0&#45;&gt;node2</title>
<path fill="none" stroke="black" d="M753.26,-457.59C739.02,-443.21 718.88,-422.86 701.91,-405.73"/>
<polygon fill="black" stroke="black" points="704.38,-403.25 694.86,-398.61 699.41,-408.17 704.38,-403.25"/>
<text text-anchor="start" x="726.5" y="-420.8" font-family="Times,serif" font-size="14.00">%0</text>
</g>
<!-- node1 -->
<g id="node2" class="node">
<title>node1</title>
<polygon fill="none" stroke="black" points="498.5,-459 498.5,-495 702.5,-495 702.5,-459 498.5,-459"/>
<text text-anchor="start" x="506.5" y="-473.3" font-family="Times,serif" font-size="14.00">Get types.public.t2 (u141)</text>
</g>
<!-- node1&#45;&gt;node2 -->
<g id="edge2" class="edge">
<title>node1&#45;&gt;node2</title>
<path fill="none" stroke="black" d="M611.89,-458.99C621.28,-444.98 634.89,-424.66 646.53,-407.29"/>
<polygon fill="black" stroke="black" points="649.74,-408.78 652.4,-398.53 643.93,-404.89 649.74,-408.78"/>
<text text-anchor="start" x="638.5" y="-420.8" font-family="Times,serif" font-size="14.00">%1</text>
</g>
<!-- node3 -->
<g id="node4" class="node">
<title>node3</title>
<polygon fill="none" stroke="black" points="470,-240.5 470,-293.5 667,-293.5 667,-240.5 470,-240.5"/>
<text text-anchor="start" x="478" y="-278.3" font-family="Times,serif" font-size="14.00">Let l2 =</text>
<text text-anchor="start" x="478" y="-263.3" font-family="Times,serif" font-size="14.00"> Get %2 (l1)</text>
<text text-anchor="start" x="478" y="-248.3" font-family="Times,serif" font-size="14.00"> Distinct group=(#0, #1)</text>
</g>
<!-- node2&#45;&gt;node3 -->
<g id="edge4" class="edge">
<title>node2&#45;&gt;node3</title>
<path fill="none" stroke="black" d="M644.27,-345.27C631.14,-331.88 614.93,-315.35 600.88,-301.02"/>
<polygon fill="black" stroke="black" points="603.25,-298.44 593.75,-293.75 598.26,-303.35 603.25,-298.44"/>
<text text-anchor="start" x="624.5" y="-315.8" font-family="Times,serif" font-size="14.00">%2</text>
</g>
<!-- node17 -->
<g id="node18" class="node">
<title>node17</title>
<polygon fill="none" stroke="black" points="479,-0.5 479,-83.5 748,-83.5 748,-0.5 479,-0.5"/>
<text text-anchor="start" x="487" y="-68.3" font-family="Times,serif" font-size="14.00">Join %2 %16 (= #0 #2) (= #1 #3)</text>
<text text-anchor="start" x="487" y="-53.3" font-family="Times,serif" font-size="14.00"> implementation = Unimplemented</text>
<text text-anchor="start" x="487" y="-38.3" font-family="Times,serif" font-size="14.00"> Map #4</text>
<text text-anchor="start" x="487" y="-23.3" font-family="Times,serif" font-size="14.00"> Project (#0, #1, #5)</text>
<text text-anchor="start" x="487" y="-8.3" font-family="Times,serif" font-size="14.00"> Project (#2)</text>
</g>
<!-- node2&#45;&gt;node17 -->
<g id="edge6" class="edge">
<title>node2&#45;&gt;node17</title>
<path fill="none" stroke="black" d="M675.54,-345.47C684.83,-301.38 699.29,-208.61 676.5,-135 671.85,-119.98 663.81,-105.23 655,-92.1"/>
<polygon fill="black" stroke="black" points="657.73,-89.89 649.13,-83.71 652,-93.91 657.73,-89.89"/>
<text text-anchor="start" x="688.5" y="-210.8" font-family="Times,serif" font-size="14.00">%2</text>
</g>
<!-- node16 -->
<g id="node17" class="node">
<title>node16</title>
<polygon fill="none" stroke="black" points="398,-135.5 398,-188.5 667,-188.5 667,-135.5 398,-135.5"/>
<text text-anchor="start" x="406" y="-173.3" font-family="Times,serif" font-size="14.00">Join %3 %15</text>
<text text-anchor="start" x="406" y="-158.3" font-family="Times,serif" font-size="14.00"> implementation = Unimplemented</text>
<text text-anchor="start" x="406" y="-143.3" font-family="Times,serif" font-size="14.00"> Project (#0..=#2)</text>
</g>
<!-- node3&#45;&gt;node16 -->
<g id="edge21" class="edge">
<title>node3&#45;&gt;node16</title>
<path fill="none" stroke="black" d="M559.51,-240.27C555.08,-227.62 549.68,-212.16 544.87,-198.4"/>
<polygon fill="black" stroke="black" points="548.11,-197.04 541.5,-188.75 541.5,-199.35 548.11,-197.04"/>
<text text-anchor="start" x="553.5" y="-210.8" font-family="Times,serif" font-size="14.00">%3</text>
</g>
<!-- node4 -->
<g id="node5" class="node">
<title>node4</title>
<polygon fill="none" stroke="black" points="207,-1147.5 207,-1185.5 308,-1185.5 308,-1147.5 207,-1147.5"/>
<text text-anchor="start" x="215" y="-1170.3" font-family="Times,serif" font-size="14.00">Let l3 =</text>
<text text-anchor="start" x="215" y="-1155.3" font-family="Times,serif" font-size="14.00"> Constant ()</text>
</g>
<!-- node6 -->
<g id="node7" class="node">
<title>node6</title>
<polygon fill="none" stroke="black" points="329,-1012.5 329,-1095.5 598,-1095.5 598,-1012.5 329,-1012.5"/>
<text text-anchor="start" x="337" y="-1080.3" font-family="Times,serif" font-size="14.00">Let l4 =</text>
<text text-anchor="start" x="337" y="-1065.3" font-family="Times,serif" font-size="14.00"> Join %4 %5</text>
<text text-anchor="start" x="337" y="-1050.3" font-family="Times,serif" font-size="14.00"> implementation = Unimplemented</text>
<text text-anchor="start" x="337" y="-1035.3" font-family="Times,serif" font-size="14.00"> Filter (#0 = 42)</text>
<text text-anchor="start" x="337" y="-1020.3" font-family="Times,serif" font-size="14.00"> Project (#1)</text>
</g>
<!-- node4&#45;&gt;node6 -->
<g id="edge18" class="edge">
<title>node4&#45;&gt;node6</title>
<path fill="none" stroke="black" d="M291.52,-1147.25C315.33,-1134.48 348.26,-1116.81 378.93,-1100.36"/>
<polygon fill="black" stroke="black" points="380.78,-1103.34 387.94,-1095.53 377.47,-1097.17 380.78,-1103.34"/>
<text text-anchor="start" x="348.5" y="-1117.8" font-family="Times,serif" font-size="14.00">%4</text>
</g>
<!-- node10 -->
<g id="node11" class="node">
<title>node10</title>
<polygon fill="none" stroke="black" points="184.5,-955.5 184.5,-993.5 330.5,-993.5 330.5,-955.5 184.5,-955.5"/>
<text text-anchor="start" x="192.5" y="-978.3" font-family="Times,serif" font-size="14.00">Get %4 (l3)</text>
<text text-anchor="start" x="192.5" y="-963.3" font-family="Times,serif" font-size="14.00"> Distinct group=()</text>
</g>
<!-- node4&#45;&gt;node10 -->
<g id="edge16" class="edge">
<title>node4&#45;&gt;node10</title>
<path fill="none" stroke="black" d="M257.5,-1147.28C257.5,-1114.02 257.5,-1043.23 257.5,-1003.7"/>
<polygon fill="black" stroke="black" points="261,-1003.66 257.5,-993.66 254,-1003.66 261,-1003.66"/>
<text text-anchor="start" x="257.5" y="-1117.8" font-family="Times,serif" font-size="14.00">%4</text>
</g>
<!-- node12 -->
<g id="node13" class="node">
<title>node12</title>
<polygon fill="none" stroke="black" points="141,-450.5 141,-503.5 410,-503.5 410,-450.5 141,-450.5"/>
<text text-anchor="start" x="149" y="-488.3" font-family="Times,serif" font-size="14.00">Join %11 %4</text>
<text text-anchor="start" x="149" y="-473.3" font-family="Times,serif" font-size="14.00"> implementation = Unimplemented</text>
<text text-anchor="start" x="149" y="-458.3" font-family="Times,serif" font-size="14.00"> Project ()</text>
</g>
<!-- node4&#45;&gt;node12 -->
<g id="edge20" class="edge">
<title>node4&#45;&gt;node12</title>
<path fill="none" stroke="black" d="M230.14,-1147.45C204.31,-1128.01 169.5,-1094.48 169.5,-1055 169.5,-1055 169.5,-1055 169.5,-572.5 169.5,-545.72 188.58,-524.65 210.56,-509.27"/>
<polygon fill="black" stroke="black" points="212.66,-512.08 219.09,-503.65 208.81,-506.23 212.66,-512.08"/>
<text text-anchor="start" x="169.5" y="-763.8" font-family="Times,serif" font-size="14.00">%4</text>
</g>
<!-- node5 -->
<g id="node6" class="node">
<title>node5</title>
<polygon fill="none" stroke="black" points="361.5,-1148.5 361.5,-1184.5 565.5,-1184.5 565.5,-1148.5 361.5,-1148.5"/>
<text text-anchor="start" x="369.5" y="-1162.8" font-family="Times,serif" font-size="14.00">Get types.public.t1 (u139)</text>
</g>
<!-- node5&#45;&gt;node6 -->
<g id="edge22" class="edge">
<title>node5&#45;&gt;node6</title>
<path fill="none" stroke="black" d="M463.5,-1148.23C463.5,-1136.79 463.5,-1121.14 463.5,-1105.92"/>
<polygon fill="black" stroke="black" points="467,-1105.52 463.5,-1095.52 460,-1105.52 467,-1105.52"/>
<text text-anchor="start" x="463.5" y="-1117.8" font-family="Times,serif" font-size="14.00">%5</text>
</g>
<!-- node7 -->
<g id="node8" class="node">
<title>node7</title>
<polygon fill="none" stroke="black" points="257,-838.5 257,-936.5 670,-936.5 670,-838.5 257,-838.5"/>
<text text-anchor="start" x="265" y="-921.3" font-family="Times,serif" font-size="14.00">Get %6 (l4)</text>
<text text-anchor="start" x="265" y="-906.3" font-family="Times,serif" font-size="14.00"> Reduce group=()</text>
<text text-anchor="start" x="265" y="-891.3" font-family="Times,serif" font-size="14.00"> agg count(true)</text>
<text text-anchor="start" x="265" y="-876.3" font-family="Times,serif" font-size="14.00"> Filter (#0 &gt; 1)</text>
<text text-anchor="start" x="265" y="-861.3" font-family="Times,serif" font-size="14.00"> Project ()</text>
<text text-anchor="start" x="265" y="-846.3" font-family="Times,serif" font-size="14.00"> Map (err: more than one record produced in subquery)</text>
</g>
<!-- node6&#45;&gt;node7 -->
<g id="edge9" class="edge">
<title>node6&#45;&gt;node7</title>
<path fill="none" stroke="black" d="M463.5,-1012.34C463.5,-992.54 463.5,-968.39 463.5,-946.68"/>
<polygon fill="black" stroke="black" points="467,-946.58 463.5,-936.58 460,-946.58 467,-946.58"/>
<text text-anchor="start" x="463.5" y="-970.8" font-family="Times,serif" font-size="14.00">%6</text>
</g>
<!-- node8 -->
<g id="node9" class="node">
<title>node8</title>
<polygon fill="none" stroke="black" points="399.5,-748.5 399.5,-786.5 517.5,-786.5 517.5,-748.5 399.5,-748.5"/>
<text text-anchor="start" x="407.5" y="-771.3" font-family="Times,serif" font-size="14.00">Let l5 =</text>
<text text-anchor="start" x="407.5" y="-756.3" font-family="Times,serif" font-size="14.00"> Union %6 %7</text>
</g>
<!-- node6&#45;&gt;node8 -->
<g id="edge10" class="edge">
<title>node6&#45;&gt;node8</title>
<path fill="none" stroke="black" d="M591.4,-1012.41C626.03,-994.91 659.46,-970.52 679.5,-937 702.08,-899.24 705.53,-873.47 679.5,-838 644.98,-790.96 578.61,-774.91 527.57,-769.84"/>
<polygon fill="black" stroke="black" points="527.85,-766.35 517.59,-768.97 527.24,-773.32 527.85,-766.35"/>
<text text-anchor="start" x="697.5" y="-883.8" font-family="Times,serif" font-size="14.00">%6</text>
</g>
<!-- node7&#45;&gt;node8 -->
<g id="edge7" class="edge">
<title>node7&#45;&gt;node8</title>
<path fill="none" stroke="black" d="M461.45,-838.16C460.86,-824.09 460.22,-809.17 459.7,-796.77"/>
<polygon fill="black" stroke="black" points="463.19,-796.44 459.27,-786.6 456.19,-796.74 463.19,-796.44"/>
<text text-anchor="start" x="461.5" y="-808.8" font-family="Times,serif" font-size="14.00">%7</text>
</g>
<!-- node9 -->
<g id="node10" class="node">
<title>node9</title>
<polygon fill="none" stroke="black" points="272.5,-643.5 272.5,-696.5 418.5,-696.5 418.5,-643.5 272.5,-643.5"/>
<text text-anchor="start" x="280.5" y="-681.3" font-family="Times,serif" font-size="14.00">Get %8 (l5)</text>
<text text-anchor="start" x="280.5" y="-666.3" font-family="Times,serif" font-size="14.00"> Distinct group=()</text>
<text text-anchor="start" x="280.5" y="-651.3" font-family="Times,serif" font-size="14.00"> Negate</text>
</g>
<!-- node8&#45;&gt;node9 -->
<g id="edge17" class="edge">
<title>node8&#45;&gt;node9</title>
<path fill="none" stroke="black" d="M436.98,-748.31C421.99,-735.64 401.58,-718.39 383.84,-703.4"/>
<polygon fill="black" stroke="black" points="385.8,-700.48 375.9,-696.7 381.28,-705.82 385.8,-700.48"/>
<text text-anchor="start" x="412.5" y="-718.8" font-family="Times,serif" font-size="14.00">%8</text>
</g>
<!-- node15 -->
<g id="node16" class="node">
<title>node15</title>
<polygon fill="none" stroke="black" points="329.5,-249 329.5,-285 451.5,-285 451.5,-249 329.5,-249"/>
<text text-anchor="start" x="337.5" y="-263.3" font-family="Times,serif" font-size="14.00">Union %8 %14</text>
</g>
<!-- node8&#45;&gt;node15 -->
<g id="edge15" class="edge">
<title>node8&#45;&gt;node15</title>
<path fill="none" stroke="black" d="M457.28,-748.2C456.1,-728.99 454.5,-697.88 454.5,-671 454.5,-671 454.5,-671 454.5,-371 454.5,-340.84 434.46,-312.18 416.8,-292.79"/>
<polygon fill="black" stroke="black" points="419.13,-290.15 409.7,-285.32 414.06,-294.98 419.13,-290.15"/>
<text text-anchor="start" x="454.5" y="-525.8" font-family="Times,serif" font-size="14.00">%8</text>
</g>
<!-- node11 -->
<g id="node12" class="node">
<title>node11</title>
<polygon fill="none" stroke="black" points="214.5,-555.5 214.5,-591.5 336.5,-591.5 336.5,-555.5 214.5,-555.5"/>
<text text-anchor="start" x="222.5" y="-569.8" font-family="Times,serif" font-size="14.00">Union %9 %10</text>
</g>
<!-- node9&#45;&gt;node11 -->
<g id="edge1" class="edge">
<title>node9&#45;&gt;node11</title>
<path fill="none" stroke="black" d="M326.37,-643.18C316.41,-629.73 304.27,-613.34 294.35,-599.95"/>
<polygon fill="black" stroke="black" points="296.96,-597.59 288.2,-591.64 291.34,-601.76 296.96,-597.59"/>
<text text-anchor="start" x="313.5" y="-613.8" font-family="Times,serif" font-size="14.00">%9</text>
</g>
<!-- node10&#45;&gt;node11 -->
<g id="edge5" class="edge">
<title>node10&#45;&gt;node11</title>
<path fill="none" stroke="black" d="M252.05,-955.46C243.64,-926.03 228.5,-865.73 228.5,-813.5 228.5,-813.5 228.5,-813.5 228.5,-669 228.5,-643.65 242.23,-618.1 254.85,-599.97"/>
<polygon fill="black" stroke="black" points="257.82,-601.83 260.89,-591.69 252.16,-597.71 257.82,-601.83"/>
<text text-anchor="start" x="228.5" y="-763.8" font-family="Times,serif" font-size="14.00">%10</text>
</g>
<!-- node11&#45;&gt;node12 -->
<g id="edge11" class="edge">
<title>node11&#45;&gt;node12</title>
<path fill="none" stroke="black" d="M275.5,-555.17C275.5,-543.7 275.5,-528.25 275.5,-514.18"/>
<polygon fill="black" stroke="black" points="279,-513.78 275.5,-503.78 272,-513.78 279,-513.78"/>
<text text-anchor="start" x="275.5" y="-525.8" font-family="Times,serif" font-size="14.00">%11</text>
</g>
<!-- node14 -->
<g id="node15" class="node">
<title>node14</title>
<polygon fill="none" stroke="black" points="141,-353 141,-391 410,-391 410,-353 141,-353"/>
<text text-anchor="start" x="149" y="-375.8" font-family="Times,serif" font-size="14.00">Join %12 %13</text>
<text text-anchor="start" x="149" y="-360.8" font-family="Times,serif" font-size="14.00"> implementation = Unimplemented</text>
</g>
<!-- node12&#45;&gt;node14 -->
<g id="edge3" class="edge">
<title>node12&#45;&gt;node14</title>
<path fill="none" stroke="black" d="M275.5,-450.27C275.5,-435.51 275.5,-416.93 275.5,-401.69"/>
<polygon fill="black" stroke="black" points="279,-401.29 275.5,-391.29 272,-401.29 279,-401.29"/>
<text text-anchor="start" x="275.5" y="-420.8" font-family="Times,serif" font-size="14.00">%12</text>
</g>
<!-- node13 -->
<g id="node14" class="node">
<title>node13</title>
<polygon fill="none" stroke="black" points="0,-459 0,-495 123,-495 123,-459 0,-459"/>
<text text-anchor="start" x="8" y="-473.3" font-family="Times,serif" font-size="14.00">Constant (null)</text>
</g>
<!-- node13&#45;&gt;node14 -->
<g id="edge12" class="edge">
<title>node13&#45;&gt;node14</title>
<path fill="none" stroke="black" d="M96.84,-458.99C132.89,-441.64 189.02,-414.62 228.73,-395.51"/>
<polygon fill="black" stroke="black" points="230.46,-398.56 237.95,-391.07 227.42,-392.26 230.46,-398.56"/>
<text text-anchor="start" x="181.5" y="-420.8" font-family="Times,serif" font-size="14.00">%13</text>
</g>
<!-- node14&#45;&gt;node15 -->
<g id="edge13" class="edge">
<title>node14&#45;&gt;node15</title>
<path fill="none" stroke="black" d="M295.79,-352.82C314.66,-335.92 342.9,-310.63 363.63,-292.07"/>
<polygon fill="black" stroke="black" points="366.06,-294.59 371.17,-285.31 361.39,-289.37 366.06,-294.59"/>
<text text-anchor="start" x="340.5" y="-315.8" font-family="Times,serif" font-size="14.00">%14</text>
</g>
<!-- node15&#45;&gt;node16 -->
<g id="edge14" class="edge">
<title>node15&#45;&gt;node16</title>
<path fill="none" stroke="black" d="M413.95,-248.99C434.33,-234.21 464.39,-212.4 489.14,-194.45"/>
<polygon fill="black" stroke="black" points="491.27,-197.23 497.31,-188.53 487.16,-191.57 491.27,-197.23"/>
<text text-anchor="start" x="470.5" y="-210.8" font-family="Times,serif" font-size="14.00">%15</text>
</g>
<!-- node16&#45;&gt;node17 -->
<g id="edge8" class="edge">
<title>node16&#45;&gt;node17</title>
<path fill="none" stroke="black" d="M550.08,-135.4C558.71,-122.82 569.42,-107.22 579.56,-92.44"/>
<polygon fill="black" stroke="black" points="582.68,-94.09 585.45,-83.86 576.9,-90.13 582.68,-94.09"/>
<text text-anchor="start" x="573.5" y="-105.8" font-family="Times,serif" font-size="14.00">%16</text>
</g>
</g>
</svg>
