<?xml version="1.0" encoding="UTF-8" standalone="no"?>
<!DOCTYPE svg PUBLIC "-//W3C//DTD SVG 1.1//EN"
 "http://www.w3.org/Graphics/SVG/1.1/DTD/svg11.dtd">
<!-- Generated by graphviz version 2.43.0 (0)
 -->
<!-- Title: G Pages: 1 -->
<svg width="548pt" height="722pt"
 viewBox="0.00 0.00 547.50 722.00" xmlns="http://www.w3.org/2000/svg" xmlns:xlink="http://www.w3.org/1999/xlink">
<g id="graph0" class="graph" transform="scale(1 1) rotate(0) translate(4 718)">
<title>G</title>
<polygon fill="white" stroke="transparent" points="-4,4 -4,-718 543.5,-718 543.5,4 -4,4"/>
<!-- node0 -->
<g id="node1" class="node">
<title>node0</title>
<polygon fill="none" stroke="black" points="88.5,-660.5 88.5,-713.5 297.5,-713.5 297.5,-660.5 88.5,-660.5"/>
<text text-anchor="start" x="96.5" y="-698.3" font-family="Times,serif" font-size="14.00">Let l0 =</text>
<text text-anchor="start" x="96.5" y="-683.3" font-family="Times,serif" font-size="14.00"> Get types.public.t1 (u139)</text>
<text text-anchor="start" x="96.5" y="-668.3" font-family="Times,serif" font-size="14.00"> Filter (#0 = 42)</text>
</g>
<!-- node1 -->
<g id="node2" class="node">
<title>node1</title>
<polygon fill="none" stroke="black" points="0,-533 0,-571 108,-571 108,-533 0,-533"/>
<text text-anchor="start" x="8" y="-555.8" font-family="Times,serif" font-size="14.00">Get %0 (l0)</text>
<text text-anchor="start" x="8" y="-540.8" font-family="Times,serif" font-size="14.00"> Project (#1)</text>
</g>
<!-- node0&#45;&gt;node1 -->
<g id="edge4" class="edge">
<title>node0&#45;&gt;node1</title>
<path fill="none" stroke="black" d="M166.2,-660.36C141.57,-636.79 105.26,-602.04 80.67,-578.52"/>
<polygon fill="black" stroke="black" points="82.77,-575.69 73.13,-571.3 77.93,-580.74 82.77,-575.69"/>
<text text-anchor="start" x="145" y="-630.8" font-family="Times,serif" font-size="14.00">%0</text>
</g>
<!-- node2 -->
<g id="node3" class="node">
<title>node2</title>
<polygon fill="none" stroke="black" points="126.5,-495.5 126.5,-608.5 539.5,-608.5 539.5,-495.5 126.5,-495.5"/>
<text text-anchor="start" x="134.5" y="-593.3" font-family="Times,serif" font-size="14.00">Get %0 (l0)</text>
<text text-anchor="start" x="134.5" y="-578.3" font-family="Times,serif" font-size="14.00"> Project ()</text>
<text text-anchor="start" x="134.5" y="-563.3" font-family="Times,serif" font-size="14.00"> Reduce group=()</text>
<text text-anchor="start" x="134.5" y="-548.3" font-family="Times,serif" font-size="14.00"> agg count(true)</text>
<text text-anchor="start" x="134.5" y="-533.3" font-family="Times,serif" font-size="14.00"> Filter (#0 &gt; 1)</text>
<text text-anchor="start" x="134.5" y="-518.3" font-family="Times,serif" font-size="14.00"> Project ()</text>
<text text-anchor="start" x="134.5" y="-503.3" font-family="Times,serif" font-size="14.00"> Map (err: more than one record produced in subquery)</text>
</g>
<!-- node0&#45;&gt;node2 -->
<g id="edge2" class="edge">
<title>node0&#45;&gt;node2</title>
<path fill="none" stroke="black" d="M219.99,-660.36C233.43,-647.59 250.32,-631.55 266.91,-615.78"/>
<polygon fill="black" stroke="black" points="269.66,-618 274.5,-608.57 264.84,-612.92 269.66,-618"/>
<text text-anchor="start" x="255" y="-630.8" font-family="Times,serif" font-size="14.00">%0</text>
</g>
<!-- node3 -->
<g id="node4" class="node">
<title>node3</title>
<polygon fill="none" stroke="black" points="134,-405.5 134,-443.5 252,-443.5 252,-405.5 134,-405.5"/>
<text text-anchor="start" x="142" y="-428.3" font-family="Times,serif" font-size="14.00">Let l1 =</text>
<text text-anchor="start" x="142" y="-413.3" font-family="Times,serif" font-size="14.00"> Union %1 %2</text>
</g>
<!-- node1&#45;&gt;node3 -->
<g id="edge5" class="edge">
<title>node1&#45;&gt;node3</title>
<path fill="none" stroke="black" d="M74.21,-532.75C98.2,-511.1 138.32,-474.87 165.21,-450.59"/>
<polygon fill="black" stroke="black" points="167.69,-453.07 172.76,-443.77 163,-447.87 167.69,-453.07"/>
<text text-anchor="start" x="152" y="-465.8" font-family="Times,serif" font-size="14.00">%1</text>
</g>
<!-- node2&#45;&gt;node3 -->
<g id="edge9" class="edge">
<title>node2&#45;&gt;node3</title>
<path fill="none" stroke="black" d="M270.78,-495.22C253.28,-479.54 235.12,-463.26 220.76,-450.38"/>
<polygon fill="black" stroke="black" points="222.98,-447.67 213.2,-443.6 218.31,-452.89 222.98,-447.67"/>
<text text-anchor="start" x="247" y="-465.8" font-family="Times,serif" font-size="14.00">%2</text>
</g>
<!-- node5 -->
<g id="node6" class="node">
<title>node5</title>
<polygon fill="none" stroke="black" points="12,-285.5 12,-353.5 158,-353.5 158,-285.5 12,-285.5"/>
<text text-anchor="start" x="20" y="-338.3" font-family="Times,serif" font-size="14.00">Get %3 (l1)</text>
<text text-anchor="start" x="20" y="-323.3" font-family="Times,serif" font-size="14.00"> Project ()</text>
<text text-anchor="start" x="20" y="-308.3" font-family="Times,serif" font-size="14.00"> Distinct group=()</text>
<text text-anchor="start" x="20" y="-293.3" font-family="Times,serif" font-size="14.00"> Negate</text>
</g>
<!-- node3&#45;&gt;node5 -->
<g id="edge6" class="edge">
<title>node3&#45;&gt;node5</title>
<path fill="none" stroke="black" d="M173.94,-405.32C161.02,-393 143.43,-376.22 127.3,-360.84"/>
<polygon fill="black" stroke="black" points="129.66,-358.26 120.01,-353.89 124.83,-363.33 129.66,-358.26"/>
<text text-anchor="start" x="152" y="-375.8" font-family="Times,serif" font-size="14.00">%3</text>
</g>
<!-- node8 -->
<g id="node9" class="node">
<title>node8</title>
<polygon fill="none" stroke="black" points="201.5,-99 201.5,-135 314.5,-135 314.5,-99 201.5,-99"/>
<text text-anchor="start" x="209.5" y="-113.3" font-family="Times,serif" font-size="14.00">Union %3 %7</text>
</g>
<!-- node3&#45;&gt;node8 -->
<g id="edge7" class="edge">
<title>node3&#45;&gt;node8</title>
<path fill="none" stroke="black" d="M229.3,-405.29C248.48,-393.53 270.22,-376.25 281,-354 314.71,-284.43 286.58,-189.93 269.21,-144.51"/>
<polygon fill="black" stroke="black" points="272.41,-143.1 265.48,-135.08 265.9,-145.67 272.41,-143.1"/>
<text text-anchor="start" x="296" y="-255.8" font-family="Times,serif" font-size="14.00">%3</text>
</g>
<!-- node4 -->
<g id="node5" class="node">
<title>node4</title>
<polygon fill="none" stroke="black" points="333,-90.5 333,-143.5 537,-143.5 537,-90.5 333,-90.5"/>
<text text-anchor="start" x="341" y="-128.3" font-family="Times,serif" font-size="14.00">Get types.public.t2 (u141)</text>
<text text-anchor="start" x="341" y="-113.3" font-family="Times,serif" font-size="14.00"> Project ()</text>
<text text-anchor="start" x="341" y="-98.3" font-family="Times,serif" font-size="14.00"> ArrangeBy ()</text>
</g>
<!-- node9 -->
<g id="node10" class="node">
<title>node9</title>
<polygon fill="none" stroke="black" points="194.5,-0.5 194.5,-38.5 499.5,-38.5 499.5,-0.5 194.5,-0.5"/>
<text text-anchor="start" x="202.5" y="-23.3" font-family="Times,serif" font-size="14.00">Join %4 %8</text>
<text text-anchor="start" x="202.5" y="-8.3" font-family="Times,serif" font-size="14.00"> implementation = Differential %8 %4.()</text>
</g>
<!-- node4&#45;&gt;node9 -->
<g id="edge3" class="edge">
<title>node4&#45;&gt;node9</title>
<path fill="none" stroke="black" d="M411.42,-90.41C398.82,-76.74 383.35,-59.95 370.73,-46.26"/>
<polygon fill="black" stroke="black" points="373.03,-43.58 363.68,-38.6 367.88,-48.32 373.03,-43.58"/>
<text text-anchor="start" x="393" y="-60.8" font-family="Times,serif" font-size="14.00">%4</text>
</g>
<!-- node7 -->
<g id="node8" class="node">
<title>node7</title>
<polygon fill="none" stroke="black" points="158.5,-195.5 158.5,-233.5 271.5,-233.5 271.5,-195.5 158.5,-195.5"/>
<text text-anchor="start" x="166.5" y="-218.3" font-family="Times,serif" font-size="14.00">Union %5 %6</text>
<text text-anchor="start" x="166.5" y="-203.3" font-family="Times,serif" font-size="14.00"> Map null</text>
</g>
<!-- node5&#45;&gt;node7 -->
<g id="edge8" class="edge">
<title>node5&#45;&gt;node7</title>
<path fill="none" stroke="black" d="M126.85,-285.34C145.47,-270.59 167.02,-253.52 184.14,-239.95"/>
<polygon fill="black" stroke="black" points="186.5,-242.55 192.17,-233.59 182.15,-237.06 186.5,-242.55"/>
<text text-anchor="start" x="166" y="-255.8" font-family="Times,serif" font-size="14.00">%5</text>
</g>
<!-- node6 -->
<g id="node7" class="node">
<title>node6</title>
<polygon fill="none" stroke="black" points="176,-301.5 176,-337.5 272,-337.5 272,-301.5 176,-301.5"/>
<text text-anchor="start" x="184" y="-315.8" font-family="Times,serif" font-size="14.00">Constant ()</text>
</g>
<!-- node6&#45;&gt;node7 -->
<g id="edge10" class="edge">
<title>node6&#45;&gt;node7</title>
<path fill="none" stroke="black" d="M222.51,-301.49C221.14,-285.82 219.09,-262.28 217.47,-243.78"/>
<polygon fill="black" stroke="black" points="220.94,-243.23 216.58,-233.57 213.96,-243.84 220.94,-243.23"/>
<text text-anchor="start" x="220" y="-255.8" font-family="Times,serif" font-size="14.00">%6</text>
</g>
<!-- node7&#45;&gt;node8 -->
<g id="edge1" class="edge">
<title>node7&#45;&gt;node8</title>
<path fill="none" stroke="black" d="M223.29,-195.09C229.76,-180.72 238.83,-160.58 246.08,-144.48"/>
<polygon fill="black" stroke="black" points="249.4,-145.63 250.31,-135.07 243.02,-142.75 249.4,-145.63"/>
<text text-anchor="start" x="238" y="-165.8" font-family="Times,serif" font-size="14.00">%7</text>
</g>
<!-- node8&#45;&gt;node9 -->
<g id="edge11" class="edge">
<title>node8&#45;&gt;node9</title>
<path fill="none" stroke="black" d="M273.91,-98.93C287.61,-84.22 307.58,-62.79 323.19,-46.05"/>
<polygon fill="black" stroke="black" points="325.76,-48.43 330.01,-38.73 320.64,-43.66 325.76,-48.43"/>
<text text-anchor="start" x="310" y="-60.8" font-family="Times,serif" font-size="14.00">%8</text>
</g>
</g>
</svg>
