<?xml version="1.0" encoding="UTF-8" standalone="no"?>
<!DOCTYPE svg PUBLIC "-//W3C//DTD SVG 1.1//EN"
 "http://www.w3.org/Graphics/SVG/1.1/DTD/svg11.dtd">
<!-- Generated by graphviz version 2.43.0 (0)
 -->
<!-- Title: G Pages: 1 -->
<svg width="217pt" height="239pt"
 viewBox="0.00 0.00 217.00 239.00" xmlns="http://www.w3.org/2000/svg" xmlns:xlink="http://www.w3.org/1999/xlink">
<g id="graph0" class="graph" transform="scale(1 1) rotate(0) translate(4 235)">
<title>G</title>
<polygon fill="white" stroke="transparent" points="-4,4 -4,-235 213,-235 213,4 -4,4"/>
<!-- node0 -->
<g id="node1" class="node">
<title>node0</title>
<polygon fill="none" stroke="black" points="0,-0.5 0,-143.5 209,-143.5 209,-0.5 0,-0.5"/>
<text text-anchor="start" x="8" y="-128.3" font-family="Times,serif" font-size="14.00">Get types.public.t2 (u141)</text>
<text text-anchor="start" x="8" y="-113.3" font-family="Times,serif" font-size="14.00"> Map select(%1)</text>
<text text-anchor="start" x="8" y="-98.3" font-family="Times,serif" font-size="14.00"> </text>
<text text-anchor="start" x="8" y="-83.3" font-family="Times,serif" font-size="14.00"> %1 =</text>
<text text-anchor="start" x="8" y="-68.3" font-family="Times,serif" font-size="14.00"> Get types.public.t1 (u139)</text>
<text text-anchor="start" x="8" y="-53.3" font-family="Times,serif" font-size="14.00"> Filter (#0 = 42)</text>
<text text-anchor="start" x="8" y="-38.3" font-family="Times,serif" font-size="14.00"> Project (#1)</text>
<text text-anchor="start" x="8" y="-23.3" font-family="Times,serif" font-size="14.00"> </text>
<text text-anchor="start" x="8" y="-8.3" font-family="Times,serif" font-size="14.00"> Project (#2)</text>
</g>
<!-- node1 -->
<g id="node2" class="node">
<title>node1</title>
<ellipse fill="none" stroke="black" cx="104.5" cy="-213" rx="38.99" ry="18"/>
<text text-anchor="middle" x="104.5" y="-209.3" font-family="Times,serif" font-size="14.00">node1</text>
</g>
<!-- node1&#45;&gt;node0 -->
<g id="edge1" class="edge">
<title>node1&#45;&gt;node0</title>
<path fill="none" stroke="black" d="M104.5,-194.96C104.5,-184.19 104.5,-169.42 104.5,-153.86"/>
<polygon fill="black" stroke="black" points="108,-153.56 104.5,-143.56 101,-153.56 108,-153.56"/>
<text text-anchor="start" x="104.5" y="-165.8" font-family="Times,serif" font-size="14.00">%1</text>
</g>
</g>
</svg>
