<?xml version="1.0" encoding="UTF-8" standalone="no"?>
<!DOCTYPE svg PUBLIC "-//W3C//DTD SVG 1.1//EN"
 "http://www.w3.org/Graphics/SVG/1.1/DTD/svg11.dtd">
<!-- Generated by graphviz version 2.43.0 (0)
 -->
<!-- Title: G Pages: 1 -->
<svg width="642pt" height="1292pt"
 viewBox="0.00 0.00 642.00 1292.00" xmlns="http://www.w3.org/2000/svg" xmlns:xlink="http://www.w3.org/1999/xlink">
<g id="graph0" class="graph" transform="scale(1 1) rotate(0) translate(4 1288)">
<title>G</title>
<polygon fill="white" stroke="transparent" points="-4,4 -4,-1288 638,-1288 638,4 -4,4"/>
<!-- node0 -->
<g id="node1" class="node">
<title>node0</title>
<polygon fill="none" stroke="black" points="158.5,-1170.5 158.5,-1283.5 370.5,-1283.5 370.5,-1170.5 158.5,-1170.5"/>
<text text-anchor="start" x="166.5" y="-1268.3" font-family="Times,serif" font-size="14.00">Let l0 =</text>
<text text-anchor="start" x="166.5" y="-1253.3" font-family="Times,serif" font-size="14.00"> Get types.public.t1 (u139)</text>
<text text-anchor="start" x="166.5" y="-1238.3" font-family="Times,serif" font-size="14.00"> types = (integer?, integer)</text>
<text text-anchor="start" x="166.5" y="-1223.3" font-family="Times,serif" font-size="14.00"> keys = ()</text>
<text text-anchor="start" x="166.5" y="-1208.3" font-family="Times,serif" font-size="14.00"> Filter (#0 = 42)</text>
<text text-anchor="start" x="166.5" y="-1193.3" font-family="Times,serif" font-size="14.00"> types = (integer, integer)</text>
<text text-anchor="start" x="166.5" y="-1178.3" font-family="Times,serif" font-size="14.00"> keys = ()</text>
</g>
<!-- node1 -->
<g id="node2" class="node">
<title>node1</title>
<polygon fill="none" stroke="black" points="0,-923 0,-1021 203,-1021 203,-923 0,-923"/>
<text text-anchor="start" x="8" y="-1005.8" font-family="Times,serif" font-size="14.00">Get %0 (l0)</text>
<text text-anchor="start" x="8" y="-990.8" font-family="Times,serif" font-size="14.00"> types = (integer, integer)</text>
<text text-anchor="start" x="8" y="-975.8" font-family="Times,serif" font-size="14.00"> keys = ()</text>
<text text-anchor="start" x="8" y="-960.8" font-family="Times,serif" font-size="14.00"> Project (#1)</text>
<text text-anchor="start" x="8" y="-945.8" font-family="Times,serif" font-size="14.00"> types = (integer)</text>
<text text-anchor="start" x="8" y="-930.8" font-family="Times,serif" font-size="14.00"> keys = ()</text>
</g>
<!-- node0&#45;&gt;node1 -->
<g id="edge4" class="edge">
<title>node0&#45;&gt;node1</title>
<path fill="none" stroke="black" d="M228.73,-1170.48C201.81,-1128.7 165.06,-1071.65 137.97,-1029.61"/>
<polygon fill="black" stroke="black" points="140.88,-1027.66 132.52,-1021.15 134.99,-1031.45 140.88,-1027.66"/>
<text text-anchor="start" x="216.5" y="-1140.8" font-family="Times,serif" font-size="14.00">%0</text>
</g>
<!-- node2 -->
<g id="node3" class="node">
<title>node2</title>
<polygon fill="none" stroke="black" points="221,-825.5 221,-1118.5 634,-1118.5 634,-825.5 221,-825.5"/>
<text text-anchor="start" x="229" y="-1103.3" font-family="Times,serif" font-size="14.00">Get %0 (l0)</text>
<text text-anchor="start" x="229" y="-1088.3" font-family="Times,serif" font-size="14.00"> types = (integer, integer)</text>
<text text-anchor="start" x="229" y="-1073.3" font-family="Times,serif" font-size="14.00"> keys = ()</text>
<text text-anchor="start" x="229" y="-1058.3" font-family="Times,serif" font-size="14.00"> Project ()</text>
<text text-anchor="start" x="229" y="-1043.3" font-family="Times,serif" font-size="14.00"> types = ()</text>
<text text-anchor="start" x="229" y="-1028.3" font-family="Times,serif" font-size="14.00"> keys = ()</text>
<text text-anchor="start" x="229" y="-1013.3" font-family="Times,serif" font-size="14.00"> Reduce group=()</text>
<text text-anchor="start" x="229" y="-998.3" font-family="Times,serif" font-size="14.00"> agg count(true)</text>
<text text-anchor="start" x="229" y="-983.3" font-family="Times,serif" font-size="14.00"> types = (bigint)</text>
<text text-anchor="start" x="229" y="-968.3" font-family="Times,serif" font-size="14.00"> keys = (())</text>
<text text-anchor="start" x="229" y="-953.3" font-family="Times,serif" font-size="14.00"> Filter (#0 &gt; 1)</text>
<text text-anchor="start" x="229" y="-938.3" font-family="Times,serif" font-size="14.00"> types = (bigint)</text>
<text text-anchor="start" x="229" y="-923.3" font-family="Times,serif" font-size="14.00"> keys = (())</text>
<text text-anchor="start" x="229" y="-908.3" font-family="Times,serif" font-size="14.00"> Project ()</text>
<text text-anchor="start" x="229" y="-893.3" font-family="Times,serif" font-size="14.00"> types = ()</text>
<text text-anchor="start" x="229" y="-878.3" font-family="Times,serif" font-size="14.00"> keys = (())</text>
<text text-anchor="start" x="229" y="-863.3" font-family="Times,serif" font-size="14.00"> Map (err: more than one record produced in subquery)</text>
<text text-anchor="start" x="229" y="-848.3" font-family="Times,serif" font-size="14.00"> types = (integer)</text>
<text text-anchor="start" x="229" y="-833.3" font-family="Times,serif" font-size="14.00"> keys = (())</text>
</g>
<!-- node0&#45;&gt;node2 -->
<g id="edge2" class="edge">
<title>node0&#45;&gt;node2</title>
<path fill="none" stroke="black" d="M300.27,-1170.48C308.77,-1157.28 318.25,-1142.57 328.1,-1127.28"/>
<polygon fill="black" stroke="black" points="331.13,-1129.04 333.61,-1118.74 325.25,-1125.25 331.13,-1129.04"/>
<text text-anchor="start" x="317.5" y="-1140.8" font-family="Times,serif" font-size="14.00">%0</text>
</g>
<!-- node3 -->
<g id="node4" class="node">
<title>node3</title>
<polygon fill="none" stroke="black" points="193,-705.5 193,-773.5 336,-773.5 336,-705.5 193,-705.5"/>
<text text-anchor="start" x="201" y="-758.3" font-family="Times,serif" font-size="14.00">Let l1 =</text>
<text text-anchor="start" x="201" y="-743.3" font-family="Times,serif" font-size="14.00"> Union %1 %2</text>
<text text-anchor="start" x="201" y="-728.3" font-family="Times,serif" font-size="14.00"> types = (integer)</text>
<text text-anchor="start" x="201" y="-713.3" font-family="Times,serif" font-size="14.00"> keys = ()</text>
</g>
<!-- node1&#45;&gt;node3 -->
<g id="edge5" class="edge">
<title>node1&#45;&gt;node3</title>
<path fill="none" stroke="black" d="M135.47,-922.96C164.88,-881.38 206.97,-821.85 234.99,-782.23"/>
<polygon fill="black" stroke="black" points="238.18,-783.78 241.09,-773.6 232.46,-779.74 238.18,-783.78"/>
<text text-anchor="start" x="225.5" y="-795.8" font-family="Times,serif" font-size="14.00">%1</text>
</g>
<!-- node2&#45;&gt;node3 -->
<g id="edge9" class="edge">
<title>node2&#45;&gt;node3</title>
<path fill="none" stroke="black" d="M324.5,-825.35C313.48,-809.76 303.03,-794.98 294.02,-782.25"/>
<polygon fill="black" stroke="black" points="296.67,-779.92 288.03,-773.78 290.95,-783.96 296.67,-779.92"/>
<text text-anchor="start" x="308.5" y="-795.8" font-family="Times,serif" font-size="14.00">%2</text>
</g>
<!-- node5 -->
<g id="node6" class="node">
<title>node5</title>
<polygon fill="none" stroke="black" points="83.5,-465.5 83.5,-653.5 229.5,-653.5 229.5,-465.5 83.5,-465.5"/>
<text text-anchor="start" x="91.5" y="-638.3" font-family="Times,serif" font-size="14.00">Get %3 (l1)</text>
<text text-anchor="start" x="91.5" y="-623.3" font-family="Times,serif" font-size="14.00"> types = (integer)</text>
<text text-anchor="start" x="91.5" y="-608.3" font-family="Times,serif" font-size="14.00"> keys = ()</text>
<text text-anchor="start" x="91.5" y="-593.3" font-family="Times,serif" font-size="14.00"> Project ()</text>
<text text-anchor="start" x="91.5" y="-578.3" font-family="Times,serif" font-size="14.00"> types = ()</text>
<text text-anchor="start" x="91.5" y="-563.3" font-family="Times,serif" font-size="14.00"> keys = ()</text>
<text text-anchor="start" x="91.5" y="-548.3" font-family="Times,serif" font-size="14.00"> Distinct group=()</text>
<text text-anchor="start" x="91.5" y="-533.3" font-family="Times,serif" font-size="14.00"> types = ()</text>
<text text-anchor="start" x="91.5" y="-518.3" font-family="Times,serif" font-size="14.00"> keys = (())</text>
<text text-anchor="start" x="91.5" y="-503.3" font-family="Times,serif" font-size="14.00"> Negate</text>
<text text-anchor="start" x="91.5" y="-488.3" font-family="Times,serif" font-size="14.00"> types = ()</text>
<text text-anchor="start" x="91.5" y="-473.3" font-family="Times,serif" font-size="14.00"> keys = ()</text>
</g>
<!-- node3&#45;&gt;node5 -->
<g id="edge6" class="edge">
<title>node3&#45;&gt;node5</title>
<path fill="none" stroke="black" d="M244.44,-705.44C236.82,-692.88 227.69,-677.83 218.23,-662.24"/>
<polygon fill="black" stroke="black" points="221.13,-660.28 212.95,-653.54 215.15,-663.91 221.13,-660.28"/>
<text text-anchor="start" x="233.5" y="-675.8" font-family="Times,serif" font-size="14.00">%3</text>
</g>
<!-- node8 -->
<g id="node9" class="node">
<title>node8</title>
<polygon fill="none" stroke="black" points="244,-165.5 244,-218.5 395,-218.5 395,-165.5 244,-165.5"/>
<text text-anchor="start" x="252" y="-203.3" font-family="Times,serif" font-size="14.00">Union %3 %7</text>
<text text-anchor="start" x="252" y="-188.3" font-family="Times,serif" font-size="14.00"> types = (integer?)</text>
<text text-anchor="start" x="252" y="-173.3" font-family="Times,serif" font-size="14.00"> keys = ()</text>
</g>
<!-- node3&#45;&gt;node8 -->
<g id="edge7" class="edge">
<title>node3&#45;&gt;node8</title>
<path fill="none" stroke="black" d="M312.53,-705.13C328.34,-691.33 344.03,-673.87 352.5,-654 415.47,-506.23 359.78,-307.67 332.5,-228.11"/>
<polygon fill="black" stroke="black" points="335.77,-226.86 329.17,-218.57 329.16,-229.16 335.77,-226.86"/>
<text text-anchor="start" x="378.5" y="-435.8" font-family="Times,serif" font-size="14.00">%3</text>
</g>
<!-- node4 -->
<g id="node5" class="node">
<title>node4</title>
<polygon fill="none" stroke="black" points="413,-120.5 413,-263.5 632,-263.5 632,-120.5 413,-120.5"/>
<text text-anchor="start" x="421" y="-248.3" font-family="Times,serif" font-size="14.00">Get types.public.t2 (u141)</text>
<text text-anchor="start" x="421" y="-233.3" font-family="Times,serif" font-size="14.00"> types = (integer?, integer?)</text>
<text text-anchor="start" x="421" y="-218.3" font-family="Times,serif" font-size="14.00"> keys = ()</text>
<text text-anchor="start" x="421" y="-203.3" font-family="Times,serif" font-size="14.00"> Project ()</text>
<text text-anchor="start" x="421" y="-188.3" font-family="Times,serif" font-size="14.00"> types = ()</text>
<text text-anchor="start" x="421" y="-173.3" font-family="Times,serif" font-size="14.00"> keys = ()</text>
<text text-anchor="start" x="421" y="-158.3" font-family="Times,serif" font-size="14.00"> ArrangeBy ()</text>
<text text-anchor="start" x="421" y="-143.3" font-family="Times,serif" font-size="14.00"> types = ()</text>
<text text-anchor="start" x="421" y="-128.3" font-family="Times,serif" font-size="14.00"> keys = ()</text>
</g>
<!-- node9 -->
<g id="node10" class="node">
<title>node9</title>
<polygon fill="none" stroke="black" points="269,-0.5 269,-68.5 574,-68.5 574,-0.5 269,-0.5"/>
<text text-anchor="start" x="277" y="-53.3" font-family="Times,serif" font-size="14.00">Join %4 %8</text>
<text text-anchor="start" x="277" y="-38.3" font-family="Times,serif" font-size="14.00"> implementation = Differential %8 %4.()</text>
<text text-anchor="start" x="277" y="-23.3" font-family="Times,serif" font-size="14.00"> types = (integer?)</text>
<text text-anchor="start" x="277" y="-8.3" font-family="Times,serif" font-size="14.00"> keys = ()</text>
</g>
<!-- node4&#45;&gt;node9 -->
<g id="edge3" class="edge">
<title>node4&#45;&gt;node9</title>
<path fill="none" stroke="black" d="M476.43,-120.08C466.87,-105.36 457.1,-90.31 448.5,-77.07"/>
<polygon fill="black" stroke="black" points="451.41,-75.12 443.03,-68.64 445.54,-78.94 451.41,-75.12"/>
<text text-anchor="start" x="462.5" y="-90.8" font-family="Times,serif" font-size="14.00">%4</text>
</g>
<!-- node7 -->
<g id="node8" class="node">
<title>node7</title>
<polygon fill="none" stroke="black" points="192,-315.5 192,-413.5 343,-413.5 343,-315.5 192,-315.5"/>
<text text-anchor="start" x="200" y="-398.3" font-family="Times,serif" font-size="14.00">Union %5 %6</text>
<text text-anchor="start" x="200" y="-383.3" font-family="Times,serif" font-size="14.00"> types = ()</text>
<text text-anchor="start" x="200" y="-368.3" font-family="Times,serif" font-size="14.00"> keys = ()</text>
<text text-anchor="start" x="200" y="-353.3" font-family="Times,serif" font-size="14.00"> Map null</text>
<text text-anchor="start" x="200" y="-338.3" font-family="Times,serif" font-size="14.00"> types = (integer?)</text>
<text text-anchor="start" x="200" y="-323.3" font-family="Times,serif" font-size="14.00"> keys = ()</text>
</g>
<!-- node5&#45;&gt;node7 -->
<g id="edge8" class="edge">
<title>node5&#45;&gt;node7</title>
<path fill="none" stroke="black" d="M210.05,-465.39C218.51,-450.68 227.03,-435.87 234.82,-422.32"/>
<polygon fill="black" stroke="black" points="237.88,-424.03 239.83,-413.61 231.81,-420.54 237.88,-424.03"/>
<text text-anchor="start" x="228.5" y="-435.8" font-family="Times,serif" font-size="14.00">%5</text>
</g>
<!-- node6 -->
<g id="node7" class="node">
<title>node6</title>
<polygon fill="none" stroke="black" points="247.5,-533 247.5,-586 343.5,-586 343.5,-533 247.5,-533"/>
<text text-anchor="start" x="255.5" y="-570.8" font-family="Times,serif" font-size="14.00">Constant ()</text>
<text text-anchor="start" x="255.5" y="-555.8" font-family="Times,serif" font-size="14.00"> types = ()</text>
<text text-anchor="start" x="255.5" y="-540.8" font-family="Times,serif" font-size="14.00"> keys = (())</text>
</g>
<!-- node6&#45;&gt;node7 -->
<g id="edge10" class="edge">
<title>node6&#45;&gt;node7</title>
<path fill="none" stroke="black" d="M291.78,-532.87C287.76,-505.13 281.21,-459.97 275.92,-423.55"/>
<polygon fill="black" stroke="black" points="279.37,-422.92 274.47,-413.53 272.44,-423.92 279.37,-422.92"/>
<text text-anchor="start" x="279.5" y="-435.8" font-family="Times,serif" font-size="14.00">%6</text>
</g>
<!-- node7&#45;&gt;node8 -->
<g id="edge1" class="edge">
<title>node7&#45;&gt;node8</title>
<path fill="none" stroke="black" d="M282.26,-315.1C290.65,-287.58 300.98,-253.72 308.63,-228.65"/>
<polygon fill="black" stroke="black" points="312.06,-229.41 311.63,-218.82 305.36,-227.36 312.06,-229.41"/>
<text text-anchor="start" x="292.5" y="-285.8" font-family="Times,serif" font-size="14.00">%7</text>
</g>
<!-- node8&#45;&gt;node9 -->
<g id="edge11" class="edge">
<title>node8&#45;&gt;node9</title>
<path fill="none" stroke="black" d="M336.34,-165.32C352.09,-141.32 375.86,-105.07 394.3,-76.97"/>
<polygon fill="black" stroke="black" points="397.27,-78.82 399.83,-68.53 391.42,-74.98 397.27,-78.82"/>
<text text-anchor="start" x="385.5" y="-90.8" font-family="Times,serif" font-size="14.00">%8</text>
</g>
</g>
</svg>
