<?xml version="1.0" encoding="UTF-8" standalone="no"?>
<!DOCTYPE svg PUBLIC "-//W3C//DTD SVG 1.1//EN"
 "http://www.w3.org/Graphics/SVG/1.1/DTD/svg11.dtd">
<!-- Generated by graphviz version 2.43.0 (0)
 -->
<!-- Title: G Pages: 1 -->
<svg width="858pt" height="1991pt"
 viewBox="0.00 0.00 858.00 1991.00" xmlns="http://www.w3.org/2000/svg" xmlns:xlink="http://www.w3.org/1999/xlink">
<g id="graph0" class="graph" transform="scale(1 1) rotate(0) translate(4 1987)">
<title>G</title>
<polygon fill="white" stroke="transparent" points="-4,4 -4,-1987 854,-1987 854,4 -4,4"/>
<!-- node0 -->
<g id="node1" class="node">
<title>node0</title>
<polygon fill="none" stroke="black" points="749,-743 749,-811 850,-811 850,-743 749,-743"/>
<text text-anchor="start" x="757" y="-795.8" font-family="Times,serif" font-size="14.00">Let l0 =</text>
<text text-anchor="start" x="757" y="-780.8" font-family="Times,serif" font-size="14.00"> Constant ()</text>
<text text-anchor="start" x="757" y="-765.8" font-family="Times,serif" font-size="14.00"> types = ()</text>
<text text-anchor="start" x="757" y="-750.8" font-family="Times,serif" font-size="14.00"> keys = (())</text>
</g>
<!-- node2 -->
<g id="node3" class="node">
<title>node2</title>
<polygon fill="none" stroke="black" points="510,-585.5 510,-668.5 779,-668.5 779,-585.5 510,-585.5"/>
<text text-anchor="start" x="518" y="-653.3" font-family="Times,serif" font-size="14.00">Let l1 =</text>
<text text-anchor="start" x="518" y="-638.3" font-family="Times,serif" font-size="14.00"> Join %0 %1</text>
<text text-anchor="start" x="518" y="-623.3" font-family="Times,serif" font-size="14.00"> implementation = Unimplemented</text>
<text text-anchor="start" x="518" y="-608.3" font-family="Times,serif" font-size="14.00"> types = (integer?, integer?)</text>
<text text-anchor="start" x="518" y="-593.3" font-family="Times,serif" font-size="14.00"> keys = ()</text>
</g>
<!-- node0&#45;&gt;node2 -->
<g id="edge19" class="edge">
<title>node0&#45;&gt;node2</title>
<path fill="none" stroke="black" d="M764.71,-742.79C744.02,-723.02 717.41,-697.61 694.49,-675.73"/>
<polygon fill="black" stroke="black" points="696.83,-673.13 687.19,-668.76 692,-678.19 696.83,-673.13"/>
<text text-anchor="start" x="721.5" y="-690.8" font-family="Times,serif" font-size="14.00">%0</text>
</g>
<!-- node1 -->
<g id="node2" class="node">
<title>node1</title>
<polygon fill="none" stroke="black" points="512,-750.5 512,-803.5 731,-803.5 731,-750.5 512,-750.5"/>
<text text-anchor="start" x="520" y="-788.3" font-family="Times,serif" font-size="14.00">Get types.public.t2 (u141)</text>
<text text-anchor="start" x="520" y="-773.3" font-family="Times,serif" font-size="14.00"> types = (integer?, integer?)</text>
<text text-anchor="start" x="520" y="-758.3" font-family="Times,serif" font-size="14.00"> keys = ()</text>
</g>
<!-- node1&#45;&gt;node2 -->
<g id="edge2" class="edge">
<title>node1&#45;&gt;node2</title>
<path fill="none" stroke="black" d="M625.51,-750.22C628.57,-730.51 632.89,-702.71 636.63,-678.61"/>
<polygon fill="black" stroke="black" points="640.12,-678.96 638.2,-668.54 633.21,-677.88 640.12,-678.96"/>
<text text-anchor="start" x="634.5" y="-690.8" font-family="Times,serif" font-size="14.00">%1</text>
</g>
<!-- node3 -->
<g id="node4" class="node">
<title>node3</title>
<polygon fill="none" stroke="black" points="402,-420.5 402,-533.5 621,-533.5 621,-420.5 402,-420.5"/>
<text text-anchor="start" x="410" y="-518.3" font-family="Times,serif" font-size="14.00">Let l2 =</text>
<text text-anchor="start" x="410" y="-503.3" font-family="Times,serif" font-size="14.00"> Get %2 (l1)</text>
<text text-anchor="start" x="410" y="-488.3" font-family="Times,serif" font-size="14.00"> types = (integer?, integer?)</text>
<text text-anchor="start" x="410" y="-473.3" font-family="Times,serif" font-size="14.00"> keys = ()</text>
<text text-anchor="start" x="410" y="-458.3" font-family="Times,serif" font-size="14.00"> Distinct group=(#0, #1)</text>
<text text-anchor="start" x="410" y="-443.3" font-family="Times,serif" font-size="14.00"> types = (integer?, integer?)</text>
<text text-anchor="start" x="410" y="-428.3" font-family="Times,serif" font-size="14.00"> keys = ((#0, #1))</text>
</g>
<!-- node2&#45;&gt;node3 -->
<g id="edge4" class="edge">
<title>node2&#45;&gt;node3</title>
<path fill="none" stroke="black" d="M607.81,-585.17C595.63,-571.61 581.77,-556.19 568.43,-541.35"/>
<polygon fill="black" stroke="black" points="570.8,-538.76 561.52,-533.66 565.6,-543.43 570.8,-538.76"/>
<text text-anchor="start" x="590.5" y="-555.8" font-family="Times,serif" font-size="14.00">%2</text>
</g>
<!-- node17 -->
<g id="node18" class="node">
<title>node17</title>
<polygon fill="none" stroke="black" points="317.5,-0.5 317.5,-203.5 809.5,-203.5 809.5,-0.5 317.5,-0.5"/>
<text text-anchor="start" x="325.5" y="-188.3" font-family="Times,serif" font-size="14.00">Join %2 %16 (= #0 #2) (= #1 #3)</text>
<text text-anchor="start" x="325.5" y="-173.3" font-family="Times,serif" font-size="14.00"> implementation = Unimplemented</text>
<text text-anchor="start" x="325.5" y="-158.3" font-family="Times,serif" font-size="14.00"> types = (integer?, integer?, integer?, integer?, integer?)</text>
<text text-anchor="start" x="325.5" y="-143.3" font-family="Times,serif" font-size="14.00"> keys = ()</text>
<text text-anchor="start" x="325.5" y="-128.3" font-family="Times,serif" font-size="14.00"> Map #4</text>
<text text-anchor="start" x="325.5" y="-113.3" font-family="Times,serif" font-size="14.00"> types = (integer?, integer?, integer?, integer?, integer?, integer?)</text>
<text text-anchor="start" x="325.5" y="-98.3" font-family="Times,serif" font-size="14.00"> keys = ()</text>
<text text-anchor="start" x="325.5" y="-83.3" font-family="Times,serif" font-size="14.00"> Project (#0, #1, #5)</text>
<text text-anchor="start" x="325.5" y="-68.3" font-family="Times,serif" font-size="14.00"> types = (integer?, integer?, integer?)</text>
<text text-anchor="start" x="325.5" y="-53.3" font-family="Times,serif" font-size="14.00"> keys = ()</text>
<text text-anchor="start" x="325.5" y="-38.3" font-family="Times,serif" font-size="14.00"> Project (#2)</text>
<text text-anchor="start" x="325.5" y="-23.3" font-family="Times,serif" font-size="14.00"> types = (integer?)</text>
<text text-anchor="start" x="325.5" y="-8.3" font-family="Times,serif" font-size="14.00"> keys = ()</text>
</g>
<!-- node2&#45;&gt;node17 -->
<g id="edge6" class="edge">
<title>node2&#45;&gt;node17</title>
<path fill="none" stroke="black" d="M647.89,-585.27C652.56,-516.28 657.56,-372.45 630.5,-255 627.32,-241.19 622.89,-227.07 617.8,-213.28"/>
<polygon fill="black" stroke="black" points="621.02,-211.9 614.19,-203.8 614.48,-214.39 621.02,-211.9"/>
<text text-anchor="start" x="648.5" y="-390.8" font-family="Times,serif" font-size="14.00">%2</text>
</g>
<!-- node16 -->
<g id="node17" class="node">
<title>node16</title>
<polygon fill="none" stroke="black" points="334,-255.5 334,-368.5 621,-368.5 621,-255.5 334,-255.5"/>
<text text-anchor="start" x="342" y="-353.3" font-family="Times,serif" font-size="14.00">Join %3 %15</text>
<text text-anchor="start" x="342" y="-338.3" font-family="Times,serif" font-size="14.00"> implementation = Unimplemented</text>
<text text-anchor="start" x="342" y="-323.3" font-family="Times,serif" font-size="14.00"> types = (integer?, integer?, integer?)</text>
<text text-anchor="start" x="342" y="-308.3" font-family="Times,serif" font-size="14.00"> keys = ()</text>
<text text-anchor="start" x="342" y="-293.3" font-family="Times,serif" font-size="14.00"> Project (#0..=#2)</text>
<text text-anchor="start" x="342" y="-278.3" font-family="Times,serif" font-size="14.00"> types = (integer?, integer?, integer?)</text>
<text text-anchor="start" x="342" y="-263.3" font-family="Times,serif" font-size="14.00"> keys = ()</text>
</g>
<!-- node3&#45;&gt;node16 -->
<g id="edge21" class="edge">
<title>node3&#45;&gt;node16</title>
<path fill="none" stroke="black" d="M499.89,-420.36C497.09,-406.93 494.07,-392.45 491.19,-378.61"/>
<polygon fill="black" stroke="black" points="494.58,-377.74 489.11,-368.67 487.73,-379.17 494.58,-377.74"/>
<text text-anchor="start" x="496.5" y="-390.8" font-family="Times,serif" font-size="14.00">%3</text>
</g>
<!-- node4 -->
<g id="node5" class="node">
<title>node4</title>
<polygon fill="none" stroke="black" points="235,-1914.5 235,-1982.5 336,-1982.5 336,-1914.5 235,-1914.5"/>
<text text-anchor="start" x="243" y="-1967.3" font-family="Times,serif" font-size="14.00">Let l3 =</text>
<text text-anchor="start" x="243" y="-1952.3" font-family="Times,serif" font-size="14.00"> Constant ()</text>
<text text-anchor="start" x="243" y="-1937.3" font-family="Times,serif" font-size="14.00"> types = ()</text>
<text text-anchor="start" x="243" y="-1922.3" font-family="Times,serif" font-size="14.00"> keys = (())</text>
</g>
<!-- node6 -->
<g id="node7" class="node">
<title>node6</title>
<polygon fill="none" stroke="black" points="357,-1689.5 357,-1862.5 626,-1862.5 626,-1689.5 357,-1689.5"/>
<text text-anchor="start" x="365" y="-1847.3" font-family="Times,serif" font-size="14.00">Let l4 =</text>
<text text-anchor="start" x="365" y="-1832.3" font-family="Times,serif" font-size="14.00"> Join %4 %5</text>
<text text-anchor="start" x="365" y="-1817.3" font-family="Times,serif" font-size="14.00"> implementation = Unimplemented</text>
<text text-anchor="start" x="365" y="-1802.3" font-family="Times,serif" font-size="14.00"> types = (integer?, integer)</text>
<text text-anchor="start" x="365" y="-1787.3" font-family="Times,serif" font-size="14.00"> keys = ()</text>
<text text-anchor="start" x="365" y="-1772.3" font-family="Times,serif" font-size="14.00"> Filter (#0 = 42)</text>
<text text-anchor="start" x="365" y="-1757.3" font-family="Times,serif" font-size="14.00"> types = (integer, integer)</text>
<text text-anchor="start" x="365" y="-1742.3" font-family="Times,serif" font-size="14.00"> keys = ()</text>
<text text-anchor="start" x="365" y="-1727.3" font-family="Times,serif" font-size="14.00"> Project (#1)</text>
<text text-anchor="start" x="365" y="-1712.3" font-family="Times,serif" font-size="14.00"> types = (integer)</text>
<text text-anchor="start" x="365" y="-1697.3" font-family="Times,serif" font-size="14.00"> keys = ()</text>
</g>
<!-- node4&#45;&gt;node6 -->
<g id="edge18" class="edge">
<title>node4&#45;&gt;node6</title>
<path fill="none" stroke="black" d="M325.71,-1914.22C341.63,-1901.05 360.78,-1885.19 380.33,-1869.01"/>
<polygon fill="black" stroke="black" points="382.66,-1871.63 388.13,-1862.56 378.19,-1866.24 382.66,-1871.63"/>
<text text-anchor="start" x="364.5" y="-1884.8" font-family="Times,serif" font-size="14.00">%4</text>
</g>
<!-- node10 -->
<g id="node11" class="node">
<title>node10</title>
<polygon fill="none" stroke="black" points="212.5,-1572.5 212.5,-1670.5 358.5,-1670.5 358.5,-1572.5 212.5,-1572.5"/>
<text text-anchor="start" x="220.5" y="-1655.3" font-family="Times,serif" font-size="14.00">Get %4 (l3)</text>
<text text-anchor="start" x="220.5" y="-1640.3" font-family="Times,serif" font-size="14.00"> types = ()</text>
<text text-anchor="start" x="220.5" y="-1625.3" font-family="Times,serif" font-size="14.00"> keys = (())</text>
<text text-anchor="start" x="220.5" y="-1610.3" font-family="Times,serif" font-size="14.00"> Distinct group=()</text>
<text text-anchor="start" x="220.5" y="-1595.3" font-family="Times,serif" font-size="14.00"> types = ()</text>
<text text-anchor="start" x="220.5" y="-1580.3" font-family="Times,serif" font-size="14.00"> keys = (())</text>
</g>
<!-- node4&#45;&gt;node10 -->
<g id="edge16" class="edge">
<title>node4&#45;&gt;node10</title>
<path fill="none" stroke="black" d="M285.5,-1914.25C285.5,-1859.31 285.5,-1748.92 285.5,-1680.79"/>
<polygon fill="black" stroke="black" points="289,-1680.65 285.5,-1670.65 282,-1680.65 289,-1680.65"/>
<text text-anchor="start" x="285.5" y="-1884.8" font-family="Times,serif" font-size="14.00">%4</text>
</g>
<!-- node12 -->
<g id="node13" class="node">
<title>node12</title>
<polygon fill="none" stroke="black" points="169,-720.5 169,-833.5 438,-833.5 438,-720.5 169,-720.5"/>
<text text-anchor="start" x="177" y="-818.3" font-family="Times,serif" font-size="14.00">Join %11 %4</text>
<text text-anchor="start" x="177" y="-803.3" font-family="Times,serif" font-size="14.00"> implementation = Unimplemented</text>
<text text-anchor="start" x="177" y="-788.3" font-family="Times,serif" font-size="14.00"> types = ()</text>
<text text-anchor="start" x="177" y="-773.3" font-family="Times,serif" font-size="14.00"> keys = ()</text>
<text text-anchor="start" x="177" y="-758.3" font-family="Times,serif" font-size="14.00"> Project ()</text>
<text text-anchor="start" x="177" y="-743.3" font-family="Times,serif" font-size="14.00"> types = ()</text>
<text text-anchor="start" x="177" y="-728.3" font-family="Times,serif" font-size="14.00"> keys = ()</text>
</g>
<!-- node4&#45;&gt;node12 -->
<g id="edge20" class="edge">
<title>node4&#45;&gt;node12</title>
<path fill="none" stroke="black" d="M256.2,-1914.19C230.6,-1881.58 197.5,-1829.3 197.5,-1777 197.5,-1777 197.5,-1777 197.5,-911 197.5,-885.19 209.85,-861.51 226.13,-841.5"/>
<polygon fill="black" stroke="black" points="228.94,-843.6 232.8,-833.73 223.63,-839.04 228.94,-843.6"/>
<text text-anchor="start" x="197.5" y="-1215.8" font-family="Times,serif" font-size="14.00">%4</text>
</g>
<!-- node5 -->
<g id="node6" class="node">
<title>node5</title>
<polygon fill="none" stroke="black" points="385.5,-1922 385.5,-1975 597.5,-1975 597.5,-1922 385.5,-1922"/>
<text text-anchor="start" x="393.5" y="-1959.8" font-family="Times,serif" font-size="14.00">Get types.public.t1 (u139)</text>
<text text-anchor="start" x="393.5" y="-1944.8" font-family="Times,serif" font-size="14.00"> types = (integer?, integer)</text>
<text text-anchor="start" x="393.5" y="-1929.8" font-family="Times,serif" font-size="14.00"> keys = ()</text>
</g>
<!-- node5&#45;&gt;node6 -->
<g id="edge22" class="edge">
<title>node5&#45;&gt;node6</title>
<path fill="none" stroke="black" d="M491.5,-1921.97C491.5,-1908.49 491.5,-1891.01 491.5,-1872.87"/>
<polygon fill="black" stroke="black" points="495,-1872.75 491.5,-1862.75 488,-1872.75 495,-1872.75"/>
<text text-anchor="start" x="491.5" y="-1884.8" font-family="Times,serif" font-size="14.00">%5</text>
</g>
<!-- node7 -->
<g id="node8" class="node">
<title>node7</title>
<polygon fill="none" stroke="black" points="285,-1305.5 285,-1553.5 698,-1553.5 698,-1305.5 285,-1305.5"/>
<text text-anchor="start" x="293" y="-1538.3" font-family="Times,serif" font-size="14.00">Get %6 (l4)</text>
<text text-anchor="start" x="293" y="-1523.3" font-family="Times,serif" font-size="14.00"> types = (integer)</text>
<text text-anchor="start" x="293" y="-1508.3" font-family="Times,serif" font-size="14.00"> keys = ()</text>
<text text-anchor="start" x="293" y="-1493.3" font-family="Times,serif" font-size="14.00"> Reduce group=()</text>
<text text-anchor="start" x="293" y="-1478.3" font-family="Times,serif" font-size="14.00"> agg count(true)</text>
<text text-anchor="start" x="293" y="-1463.3" font-family="Times,serif" font-size="14.00"> types = (bigint)</text>
<text text-anchor="start" x="293" y="-1448.3" font-family="Times,serif" font-size="14.00"> keys = (())</text>
<text text-anchor="start" x="293" y="-1433.3" font-family="Times,serif" font-size="14.00"> Filter (#0 &gt; 1)</text>
<text text-anchor="start" x="293" y="-1418.3" font-family="Times,serif" font-size="14.00"> types = (bigint)</text>
<text text-anchor="start" x="293" y="-1403.3" font-family="Times,serif" font-size="14.00"> keys = (())</text>
<text text-anchor="start" x="293" y="-1388.3" font-family="Times,serif" font-size="14.00"> Project ()</text>
<text text-anchor="start" x="293" y="-1373.3" font-family="Times,serif" font-size="14.00"> types = ()</text>
<text text-anchor="start" x="293" y="-1358.3" font-family="Times,serif" font-size="14.00"> keys = (())</text>
<text text-anchor="start" x="293" y="-1343.3" font-family="Times,serif" font-size="14.00"> Map (err: more than one record produced in subquery)</text>
<text text-anchor="start" x="293" y="-1328.3" font-family="Times,serif" font-size="14.00"> types = (integer)</text>
<text text-anchor="start" x="293" y="-1313.3" font-family="Times,serif" font-size="14.00"> keys = (())</text>
</g>
<!-- node6&#45;&gt;node7 -->
<g id="edge9" class="edge">
<title>node6&#45;&gt;node7</title>
<path fill="none" stroke="black" d="M491.5,-1689.4C491.5,-1651.49 491.5,-1606 491.5,-1563.81"/>
<polygon fill="black" stroke="black" points="495,-1563.73 491.5,-1553.73 488,-1563.73 495,-1563.73"/>
<text text-anchor="start" x="491.5" y="-1617.8" font-family="Times,serif" font-size="14.00">%6</text>
</g>
<!-- node8 -->
<g id="node9" class="node">
<title>node8</title>
<polygon fill="none" stroke="black" points="405,-1185.5 405,-1253.5 548,-1253.5 548,-1185.5 405,-1185.5"/>
<text text-anchor="start" x="413" y="-1238.3" font-family="Times,serif" font-size="14.00">Let l5 =</text>
<text text-anchor="start" x="413" y="-1223.3" font-family="Times,serif" font-size="14.00"> Union %6 %7</text>
<text text-anchor="start" x="413" y="-1208.3" font-family="Times,serif" font-size="14.00"> types = (integer)</text>
<text text-anchor="start" x="413" y="-1193.3" font-family="Times,serif" font-size="14.00"> keys = ()</text>
</g>
<!-- node6&#45;&gt;node8 -->
<g id="edge10" class="edge">
<title>node6&#45;&gt;node8</title>
<path fill="none" stroke="black" d="M606.11,-1689.49C646.08,-1652.72 686.24,-1606.17 707.5,-1554 749.26,-1451.52 770.9,-1395.7 707.5,-1305 673.94,-1256.99 610.03,-1236.17 557.93,-1227.19"/>
<polygon fill="black" stroke="black" points="558.44,-1223.72 548.01,-1225.59 557.33,-1230.64 558.44,-1223.72"/>
<text text-anchor="start" x="746.5" y="-1425.8" font-family="Times,serif" font-size="14.00">%6</text>
</g>
<!-- node7&#45;&gt;node8 -->
<g id="edge7" class="edge">
<title>node7&#45;&gt;node8</title>
<path fill="none" stroke="black" d="M482.62,-1305.4C481.56,-1290.6 480.53,-1276.33 479.63,-1263.85"/>
<polygon fill="black" stroke="black" points="483.11,-1263.54 478.9,-1253.82 476.13,-1264.05 483.11,-1263.54"/>
<text text-anchor="start" x="481.5" y="-1275.8" font-family="Times,serif" font-size="14.00">%7</text>
</g>
<!-- node9 -->
<g id="node10" class="node">
<title>node9</title>
<polygon fill="none" stroke="black" points="287.5,-990.5 287.5,-1133.5 433.5,-1133.5 433.5,-990.5 287.5,-990.5"/>
<text text-anchor="start" x="295.5" y="-1118.3" font-family="Times,serif" font-size="14.00">Get %8 (l5)</text>
<text text-anchor="start" x="295.5" y="-1103.3" font-family="Times,serif" font-size="14.00"> types = (integer)</text>
<text text-anchor="start" x="295.5" y="-1088.3" font-family="Times,serif" font-size="14.00"> keys = ()</text>
<text text-anchor="start" x="295.5" y="-1073.3" font-family="Times,serif" font-size="14.00"> Distinct group=()</text>
<text text-anchor="start" x="295.5" y="-1058.3" font-family="Times,serif" font-size="14.00"> types = ()</text>
<text text-anchor="start" x="295.5" y="-1043.3" font-family="Times,serif" font-size="14.00"> keys = (())</text>
<text text-anchor="start" x="295.5" y="-1028.3" font-family="Times,serif" font-size="14.00"> Negate</text>
<text text-anchor="start" x="295.5" y="-1013.3" font-family="Times,serif" font-size="14.00"> types = ()</text>
<text text-anchor="start" x="295.5" y="-998.3" font-family="Times,serif" font-size="14.00"> keys = ()</text>
</g>
<!-- node8&#45;&gt;node9 -->
<g id="edge17" class="edge">
<title>node8&#45;&gt;node9</title>
<path fill="none" stroke="black" d="M448.84,-1185.23C443.99,-1179.22 439.05,-1172.96 434.5,-1167 428.34,-1158.92 422.01,-1150.4 415.78,-1141.85"/>
<polygon fill="black" stroke="black" points="418.54,-1139.7 409.84,-1133.67 412.88,-1143.81 418.54,-1139.7"/>
<text text-anchor="start" x="434.5" y="-1155.8" font-family="Times,serif" font-size="14.00">%8</text>
</g>
<!-- node15 -->
<g id="node16" class="node">
<title>node15</title>
<polygon fill="none" stroke="black" points="233,-450.5 233,-503.5 384,-503.5 384,-450.5 233,-450.5"/>
<text text-anchor="start" x="241" y="-488.3" font-family="Times,serif" font-size="14.00">Union %8 %14</text>
<text text-anchor="start" x="241" y="-473.3" font-family="Times,serif" font-size="14.00"> types = (integer?)</text>
<text text-anchor="start" x="241" y="-458.3" font-family="Times,serif" font-size="14.00"> keys = ()</text>
</g>
<!-- node8&#45;&gt;node15 -->
<g id="edge15" class="edge">
<title>node8&#45;&gt;node15</title>
<path fill="none" stroke="black" d="M474.82,-1185.45C473.37,-1153.97 471.5,-1105.27 471.5,-1063 471.5,-1063 471.5,-1063 471.5,-626 471.5,-594.63 404.49,-542.64 356.4,-509.37"/>
<polygon fill="black" stroke="black" points="358.19,-506.36 347.96,-503.59 354.23,-512.13 358.19,-506.36"/>
<text text-anchor="start" x="471.5" y="-855.8" font-family="Times,serif" font-size="14.00">%8</text>
</g>
<!-- node11 -->
<g id="node12" class="node">
<title>node11</title>
<polygon fill="none" stroke="black" points="242.5,-885.5 242.5,-938.5 364.5,-938.5 364.5,-885.5 242.5,-885.5"/>
<text text-anchor="start" x="250.5" y="-923.3" font-family="Times,serif" font-size="14.00">Union %9 %10</text>
<text text-anchor="start" x="250.5" y="-908.3" font-family="Times,serif" font-size="14.00"> types = ()</text>
<text text-anchor="start" x="250.5" y="-893.3" font-family="Times,serif" font-size="14.00"> keys = ()</text>
</g>
<!-- node9&#45;&gt;node11 -->
<g id="edge1" class="edge">
<title>node9&#45;&gt;node11</title>
<path fill="none" stroke="black" d="M333.34,-990.47C327.72,-975.9 322.04,-961.15 317.17,-948.49"/>
<polygon fill="black" stroke="black" points="320.31,-946.9 313.44,-938.82 313.77,-949.41 320.31,-946.9"/>
<text text-anchor="start" x="325.5" y="-960.8" font-family="Times,serif" font-size="14.00">%9</text>
</g>
<!-- node10&#45;&gt;node11 -->
<g id="edge5" class="edge">
<title>node10&#45;&gt;node11</title>
<path fill="none" stroke="black" d="M277.78,-1572.25C276.94,-1566.12 276.15,-1559.92 275.5,-1554 262.21,-1432.88 256.5,-1402.35 256.5,-1280.5 256.5,-1280.5 256.5,-1280.5 256.5,-1061 256.5,-1020.91 272.36,-977.47 285.65,-948.08"/>
<polygon fill="black" stroke="black" points="288.98,-949.23 290.03,-938.68 282.63,-946.27 288.98,-949.23"/>
<text text-anchor="start" x="256.5" y="-1215.8" font-family="Times,serif" font-size="14.00">%10</text>
</g>
<!-- node11&#45;&gt;node12 -->
<g id="edge11" class="edge">
<title>node11&#45;&gt;node12</title>
<path fill="none" stroke="black" d="M303.5,-885.36C303.5,-873.4 303.5,-858.56 303.5,-843.77"/>
<polygon fill="black" stroke="black" points="307,-843.57 303.5,-833.57 300,-843.57 307,-843.57"/>
<text text-anchor="start" x="303.5" y="-855.8" font-family="Times,serif" font-size="14.00">%11</text>
</g>
<!-- node14 -->
<g id="node15" class="node">
<title>node14</title>
<polygon fill="none" stroke="black" points="169,-593 169,-661 438,-661 438,-593 169,-593"/>
<text text-anchor="start" x="177" y="-645.8" font-family="Times,serif" font-size="14.00">Join %12 %13</text>
<text text-anchor="start" x="177" y="-630.8" font-family="Times,serif" font-size="14.00"> implementation = Unimplemented</text>
<text text-anchor="start" x="177" y="-615.8" font-family="Times,serif" font-size="14.00"> types = (integer?)</text>
<text text-anchor="start" x="177" y="-600.8" font-family="Times,serif" font-size="14.00"> keys = ()</text>
</g>
<!-- node12&#45;&gt;node14 -->
<g id="edge3" class="edge">
<title>node12&#45;&gt;node14</title>
<path fill="none" stroke="black" d="M303.5,-720.47C303.5,-704.21 303.5,-686.68 303.5,-671.3"/>
<polygon fill="black" stroke="black" points="307,-671.03 303.5,-661.03 300,-671.03 307,-671.03"/>
<text text-anchor="start" x="303.5" y="-690.8" font-family="Times,serif" font-size="14.00">%12</text>
</g>
<!-- node13 -->
<g id="node14" class="node">
<title>node13</title>
<polygon fill="none" stroke="black" points="0,-750.5 0,-803.5 151,-803.5 151,-750.5 0,-750.5"/>
<text text-anchor="start" x="8" y="-788.3" font-family="Times,serif" font-size="14.00">Constant (null)</text>
<text text-anchor="start" x="8" y="-773.3" font-family="Times,serif" font-size="14.00"> types = (integer?)</text>
<text text-anchor="start" x="8" y="-758.3" font-family="Times,serif" font-size="14.00"> keys = (())</text>
</g>
<!-- node13&#45;&gt;node14 -->
<g id="edge12" class="edge">
<title>node13&#45;&gt;node14</title>
<path fill="none" stroke="black" d="M113.45,-750.47C127.83,-740.86 144.38,-729.87 159.5,-720 186.62,-702.3 216.79,-682.97 242.49,-666.61"/>
<polygon fill="black" stroke="black" points="244.46,-669.51 251.02,-661.19 240.7,-663.6 244.46,-669.51"/>
<text text-anchor="start" x="207.5" y="-690.8" font-family="Times,serif" font-size="14.00">%13</text>
</g>
<!-- node14&#45;&gt;node15 -->
<g id="edge13" class="edge">
<title>node14&#45;&gt;node15</title>
<path fill="none" stroke="black" d="M304.62,-592.79C305.41,-569.33 306.48,-537.91 307.29,-513.88"/>
<polygon fill="black" stroke="black" points="310.79,-513.86 307.63,-503.75 303.79,-513.62 310.79,-513.86"/>
<text text-anchor="start" x="306.5" y="-555.8" font-family="Times,serif" font-size="14.00">%14</text>
</g>
<!-- node15&#45;&gt;node16 -->
<g id="edge14" class="edge">
<title>node15&#45;&gt;node16</title>
<path fill="none" stroke="black" d="M335.28,-450.17C355.95,-430.23 385.45,-401.78 412.23,-375.95"/>
<polygon fill="black" stroke="black" points="414.94,-378.2 419.71,-368.74 410.08,-373.16 414.94,-378.2"/>
<text text-anchor="start" x="398.5" y="-390.8" font-family="Times,serif" font-size="14.00">%15</text>
</g>
<!-- node16&#45;&gt;node17 -->
<g id="edge8" class="edge">
<title>node16&#45;&gt;node17</title>
<path fill="none" stroke="black" d="M500.55,-255.26C505.93,-242.23 511.86,-227.9 517.85,-213.41"/>
<polygon fill="black" stroke="black" points="521.21,-214.45 521.8,-203.87 514.74,-211.77 521.21,-214.45"/>
<text text-anchor="start" x="513.5" y="-225.8" font-family="Times,serif" font-size="14.00">%16</text>
</g>
</g>
</svg>
