<?xml version="1.0" encoding="UTF-8" standalone="no"?>
<!DOCTYPE svg PUBLIC "-//W3C//DTD SVG 1.1//EN"
 "http://www.w3.org/Graphics/SVG/1.1/DTD/svg11.dtd">
<!-- Generated by graphviz version 2.43.0 (0)
 -->
<!-- Title: G Pages: 1 -->
<svg width="887pt" height="1393pt"
 viewBox="0.00 0.00 886.50 1393.00" xmlns="http://www.w3.org/2000/svg" xmlns:xlink="http://www.w3.org/1999/xlink">
<g id="graph0" class="graph" transform="scale(1 1) rotate(0) translate(4 1389)">
<title>G</title>
<polygon fill="white" stroke="transparent" points="-4,4 -4,-1389 882.5,-1389 882.5,4 -4,4"/>
<!-- node0 -->
<g id="node1" class="node">
<title>node0</title>
<polygon fill="none" stroke="black" points="272,-1346.5 272,-1384.5 373,-1384.5 373,-1346.5 272,-1346.5"/>
<text text-anchor="start" x="280" y="-1369.3" font-family="Times,serif" font-size="14.00">Let l0 =</text>
<text text-anchor="start" x="280" y="-1354.3" font-family="Times,serif" font-size="14.00"> Constant ()</text>
</g>
<!-- node2 -->
<g id="node3" class="node">
<title>node2</title>
<polygon fill="none" stroke="black" points="188,-1241.5 188,-1294.5 457,-1294.5 457,-1241.5 188,-1241.5"/>
<text text-anchor="start" x="196" y="-1279.3" font-family="Times,serif" font-size="14.00">Let l1 =</text>
<text text-anchor="start" x="196" y="-1264.3" font-family="Times,serif" font-size="14.00"> Join %0 %1</text>
<text text-anchor="start" x="196" y="-1249.3" font-family="Times,serif" font-size="14.00"> implementation = Unimplemented</text>
</g>
<!-- node0&#45;&gt;node2 -->
<g id="edge13" class="edge">
<title>node0&#45;&gt;node2</title>
<path fill="none" stroke="black" d="M322.5,-1346.09C322.5,-1334.42 322.5,-1318.95 322.5,-1304.93"/>
<polygon fill="black" stroke="black" points="326,-1304.58 322.5,-1294.58 319,-1304.58 326,-1304.58"/>
<text text-anchor="start" x="322.5" y="-1316.8" font-family="Times,serif" font-size="14.00">%0</text>
</g>
<!-- node4 -->
<g id="node5" class="node">
<title>node4</title>
<polygon fill="none" stroke="black" points="484,-1241.5 484,-1294.5 753,-1294.5 753,-1241.5 484,-1241.5"/>
<text text-anchor="start" x="492" y="-1279.3" font-family="Times,serif" font-size="14.00">Let l2 =</text>
<text text-anchor="start" x="492" y="-1264.3" font-family="Times,serif" font-size="14.00"> Join %0 %3</text>
<text text-anchor="start" x="492" y="-1249.3" font-family="Times,serif" font-size="14.00"> implementation = Unimplemented</text>
</g>
<!-- node0&#45;&gt;node4 -->
<g id="edge11" class="edge">
<title>node0&#45;&gt;node4</title>
<path fill="none" stroke="black" d="M373.05,-1348.19C415.94,-1334.35 478.49,-1314.17 529.71,-1297.65"/>
<polygon fill="black" stroke="black" points="531.02,-1300.9 539.46,-1294.5 528.87,-1294.24 531.02,-1300.9"/>
<text text-anchor="start" x="478.5" y="-1316.8" font-family="Times,serif" font-size="14.00">%0</text>
</g>
<!-- node14 -->
<g id="node15" class="node">
<title>node14</title>
<polygon fill="none" stroke="black" points="156,-568.5 156,-621.5 425,-621.5 425,-568.5 156,-568.5"/>
<text text-anchor="start" x="164" y="-606.3" font-family="Times,serif" font-size="14.00">Let l6 =</text>
<text text-anchor="start" x="164" y="-591.3" font-family="Times,serif" font-size="14.00"> Join %0 %13</text>
<text text-anchor="start" x="164" y="-576.3" font-family="Times,serif" font-size="14.00"> implementation = Unimplemented</text>
</g>
<!-- node0&#45;&gt;node14 -->
<g id="edge20" class="edge">
<title>node0&#45;&gt;node14</title>
<path fill="none" stroke="black" d="M271.88,-1348.44C218.64,-1329.99 142.5,-1298.45 142.5,-1269 142.5,-1269 142.5,-1269 142.5,-690.5 142.5,-661.19 163.37,-640.57 189.44,-626.24"/>
<polygon fill="black" stroke="black" points="191.15,-629.3 198.45,-621.62 187.96,-623.07 191.15,-629.3"/>
<text text-anchor="start" x="142.5" y="-956.8" font-family="Times,serif" font-size="14.00">%0</text>
</g>
<!-- node1 -->
<g id="node2" class="node">
<title>node1</title>
<polygon fill="none" stroke="black" points="0,-1347.5 0,-1383.5 209,-1383.5 209,-1347.5 0,-1347.5"/>
<text text-anchor="start" x="8" y="-1361.8" font-family="Times,serif" font-size="14.00">Get rej_nulls.public.r (u43)</text>
</g>
<!-- node1&#45;&gt;node2 -->
<g id="edge18" class="edge">
<title>node1&#45;&gt;node2</title>
<path fill="none" stroke="black" d="M143.47,-1347.43C174.28,-1333.93 218.02,-1314.77 254.56,-1298.76"/>
<polygon fill="black" stroke="black" points="256.41,-1301.77 264.17,-1294.55 253.6,-1295.36 256.41,-1301.77"/>
<text text-anchor="start" x="220.5" y="-1316.8" font-family="Times,serif" font-size="14.00">%1</text>
</g>
<!-- node5 -->
<g id="node6" class="node">
<title>node5</title>
<polygon fill="none" stroke="black" points="404,-1106.5 404,-1189.5 673,-1189.5 673,-1106.5 404,-1106.5"/>
<text text-anchor="start" x="412" y="-1174.3" font-family="Times,serif" font-size="14.00">Let l3 =</text>
<text text-anchor="start" x="412" y="-1159.3" font-family="Times,serif" font-size="14.00"> Join %2 %4</text>
<text text-anchor="start" x="412" y="-1144.3" font-family="Times,serif" font-size="14.00"> implementation = Unimplemented</text>
<text text-anchor="start" x="412" y="-1129.3" font-family="Times,serif" font-size="14.00"> Project (#0..#3)</text>
<text text-anchor="start" x="412" y="-1114.3" font-family="Times,serif" font-size="14.00"> Filter (#1 = #2)</text>
</g>
<!-- node2&#45;&gt;node5 -->
<g id="edge12" class="edge">
<title>node2&#45;&gt;node5</title>
<path fill="none" stroke="black" d="M369.37,-1241.4C394.44,-1227.7 426.07,-1210.42 455.18,-1194.52"/>
<polygon fill="black" stroke="black" points="457.02,-1197.5 464.12,-1189.63 453.67,-1191.36 457.02,-1197.5"/>
<text text-anchor="start" x="430.5" y="-1211.8" font-family="Times,serif" font-size="14.00">%2</text>
</g>
<!-- node9 -->
<g id="node10" class="node">
<title>node9</title>
<polygon fill="none" stroke="black" points="211,-866.5 211,-934.5 480,-934.5 480,-866.5 211,-866.5"/>
<text text-anchor="start" x="219" y="-919.3" font-family="Times,serif" font-size="14.00">Join %2 %6 (= #1 #2)</text>
<text text-anchor="start" x="219" y="-904.3" font-family="Times,serif" font-size="14.00"> implementation = Unimplemented</text>
<text text-anchor="start" x="219" y="-889.3" font-family="Times,serif" font-size="14.00"> Project (#0, #1)</text>
<text text-anchor="start" x="219" y="-874.3" font-family="Times,serif" font-size="14.00"> Negate</text>
</g>
<!-- node2&#45;&gt;node9 -->
<g id="edge27" class="edge">
<title>node2&#45;&gt;node9</title>
<path fill="none" stroke="black" d="M324.12,-1241.3C328.01,-1179.45 337.93,-1021.79 342.77,-944.94"/>
<polygon fill="black" stroke="black" points="346.28,-944.85 343.41,-934.65 339.29,-944.41 346.28,-944.85"/>
<text text-anchor="start" x="334.5" y="-1076.8" font-family="Times,serif" font-size="14.00">%2</text>
</g>
<!-- node10 -->
<g id="node11" class="node">
<title>node10</title>
<polygon fill="none" stroke="black" points="285.5,-769 285.5,-807 405.5,-807 405.5,-769 285.5,-769"/>
<text text-anchor="start" x="293.5" y="-791.8" font-family="Times,serif" font-size="14.00">Union %9 %2</text>
<text text-anchor="start" x="293.5" y="-776.8" font-family="Times,serif" font-size="14.00"> Map null, null</text>
</g>
<!-- node2&#45;&gt;node10 -->
<g id="edge4" class="edge">
<title>node2&#45;&gt;node10</title>
<path fill="none" stroke="black" d="M301.26,-1241.31C249.16,-1174.97 124.68,-994.18 201.5,-866 217.87,-838.69 247.59,-820.52 275.79,-808.73"/>
<polygon fill="black" stroke="black" points="277.27,-811.91 285.28,-804.97 274.69,-805.4 277.27,-811.91"/>
<text text-anchor="start" x="195.5" y="-1016.8" font-family="Times,serif" font-size="14.00">%2</text>
</g>
<!-- node3 -->
<g id="node4" class="node">
<title>node3</title>
<polygon fill="none" stroke="black" points="514,-1347.5 514,-1383.5 723,-1383.5 723,-1347.5 514,-1347.5"/>
<text text-anchor="start" x="522" y="-1361.8" font-family="Times,serif" font-size="14.00">Get rej_nulls.public.s (u45)</text>
</g>
<!-- node3&#45;&gt;node4 -->
<g id="edge2" class="edge">
<title>node3&#45;&gt;node4</title>
<path fill="none" stroke="black" d="M618.5,-1347.43C618.5,-1335.6 618.5,-1319.41 618.5,-1304.82"/>
<polygon fill="black" stroke="black" points="622,-1304.55 618.5,-1294.55 615,-1304.56 622,-1304.55"/>
<text text-anchor="start" x="618.5" y="-1316.8" font-family="Times,serif" font-size="14.00">%3</text>
</g>
<!-- node4&#45;&gt;node5 -->
<g id="edge30" class="edge">
<title>node4&#45;&gt;node5</title>
<path fill="none" stroke="black" d="M601.14,-1241.4C592.61,-1228.82 582.04,-1213.22 572.02,-1198.44"/>
<polygon fill="black" stroke="black" points="574.71,-1196.18 566.2,-1189.86 568.92,-1200.11 574.71,-1196.18"/>
<text text-anchor="start" x="587.5" y="-1211.8" font-family="Times,serif" font-size="14.00">%4</text>
</g>
<!-- node7 -->
<g id="node8" class="node">
<title>node7</title>
<polygon fill="none" stroke="black" points="558,-866.5 558,-934.5 827,-934.5 827,-866.5 558,-866.5"/>
<text text-anchor="start" x="566" y="-919.3" font-family="Times,serif" font-size="14.00">Join %4 %6 (= #0 #2)</text>
<text text-anchor="start" x="566" y="-904.3" font-family="Times,serif" font-size="14.00"> implementation = Unimplemented</text>
<text text-anchor="start" x="566" y="-889.3" font-family="Times,serif" font-size="14.00"> Project (#0, #1)</text>
<text text-anchor="start" x="566" y="-874.3" font-family="Times,serif" font-size="14.00"> Negate</text>
</g>
<!-- node4&#45;&gt;node7 -->
<g id="edge26" class="edge">
<title>node4&#45;&gt;node7</title>
<path fill="none" stroke="black" d="M644.64,-1241.22C657.64,-1227.14 672.63,-1208.77 682.5,-1190 711.5,-1134.83 711.98,-1116.75 720.5,-1055 724.69,-1024.62 725.39,-1016.28 720.5,-986 718.26,-972.14 714.09,-957.48 709.63,-944.32"/>
<polygon fill="black" stroke="black" points="712.83,-942.86 706.2,-934.6 706.23,-945.19 712.83,-942.86"/>
<text text-anchor="start" x="717.5" y="-1076.8" font-family="Times,serif" font-size="14.00">%4</text>
</g>
<!-- node8 -->
<g id="node9" class="node">
<title>node8</title>
<polygon fill="none" stroke="black" points="593.5,-761.5 593.5,-814.5 791.5,-814.5 791.5,-761.5 593.5,-761.5"/>
<text text-anchor="start" x="601.5" y="-799.3" font-family="Times,serif" font-size="14.00">Union %7 %4</text>
<text text-anchor="start" x="601.5" y="-784.3" font-family="Times,serif" font-size="14.00"> Map null, null</text>
<text text-anchor="start" x="601.5" y="-769.3" font-family="Times,serif" font-size="14.00"> Project (#2, #3, #0, #1)</text>
</g>
<!-- node4&#45;&gt;node8 -->
<g id="edge8" class="edge">
<title>node4&#45;&gt;node8</title>
<path fill="none" stroke="black" d="M753.27,-1247.67C806.63,-1231.67 855.5,-1202.43 855.5,-1149 855.5,-1149 855.5,-1149 855.5,-899.5 855.5,-861.84 825.32,-836.13 790.93,-819.06"/>
<polygon fill="black" stroke="black" points="792.17,-815.77 781.63,-814.69 789.19,-822.11 792.17,-815.77"/>
<text text-anchor="start" x="855.5" y="-1016.8" font-family="Times,serif" font-size="14.00">%4</text>
</g>
<!-- node6 -->
<g id="node7" class="node">
<title>node6</title>
<polygon fill="none" stroke="black" points="544,-986.5 544,-1054.5 711,-1054.5 711,-986.5 544,-986.5"/>
<text text-anchor="start" x="552" y="-1039.3" font-family="Times,serif" font-size="14.00">Let l4 =</text>
<text text-anchor="start" x="552" y="-1024.3" font-family="Times,serif" font-size="14.00"> Get %5 (l3)</text>
<text text-anchor="start" x="552" y="-1009.3" font-family="Times,serif" font-size="14.00"> Project (#1)</text>
<text text-anchor="start" x="552" y="-994.3" font-family="Times,serif" font-size="14.00"> Distinct group=(#0)</text>
</g>
<!-- node5&#45;&gt;node6 -->
<g id="edge25" class="edge">
<title>node5&#45;&gt;node6</title>
<path fill="none" stroke="black" d="M567.4,-1106.25C577.23,-1092.38 588.23,-1076.87 598.11,-1062.95"/>
<polygon fill="black" stroke="black" points="601.16,-1064.7 604.09,-1054.51 595.45,-1060.65 601.16,-1064.7"/>
<text text-anchor="start" x="590.5" y="-1076.8" font-family="Times,serif" font-size="14.00">%5</text>
</g>
<!-- node11 -->
<g id="node12" class="node">
<title>node11</title>
<polygon fill="none" stroke="black" points="453.5,-673.5 453.5,-709.5 575.5,-709.5 575.5,-673.5 453.5,-673.5"/>
<text text-anchor="start" x="461.5" y="-687.8" font-family="Times,serif" font-size="14.00">Union %10 %5</text>
</g>
<!-- node5&#45;&gt;node11 -->
<g id="edge15" class="edge">
<title>node5&#45;&gt;node11</title>
<path fill="none" stroke="black" d="M527.69,-1106.34C522.13,-1081.92 516.5,-1050.15 516.5,-1021.5 516.5,-1021.5 516.5,-1021.5 516.5,-787 516.5,-764.37 515.92,-738.69 515.38,-719.82"/>
<polygon fill="black" stroke="black" points="518.87,-719.46 515.08,-709.57 511.88,-719.67 518.87,-719.46"/>
<text text-anchor="start" x="516.5" y="-896.8" font-family="Times,serif" font-size="14.00">%5</text>
</g>
<!-- node6&#45;&gt;node7 -->
<g id="edge17" class="edge">
<title>node6&#45;&gt;node7</title>
<path fill="none" stroke="black" d="M645.78,-986.32C653.05,-973.12 661.5,-957.78 669.2,-943.8"/>
<polygon fill="black" stroke="black" points="672.37,-945.29 674.13,-934.84 666.24,-941.91 672.37,-945.29"/>
<text text-anchor="start" x="663.5" y="-956.8" font-family="Times,serif" font-size="14.00">%6</text>
</g>
<!-- node6&#45;&gt;node9 -->
<g id="edge9" class="edge">
<title>node6&#45;&gt;node9</title>
<path fill="none" stroke="black" d="M548.57,-986.47C512.97,-971.58 470.78,-953.92 434.1,-938.57"/>
<polygon fill="black" stroke="black" points="434.98,-935.15 424.41,-934.52 432.28,-941.61 434.98,-935.15"/>
<text text-anchor="start" x="502.5" y="-956.8" font-family="Times,serif" font-size="14.00">%6</text>
</g>
<!-- node7&#45;&gt;node8 -->
<g id="edge14" class="edge">
<title>node7&#45;&gt;node8</title>
<path fill="none" stroke="black" d="M692.5,-866.35C692.5,-853.3 692.5,-838.3 692.5,-824.99"/>
<polygon fill="black" stroke="black" points="696,-824.75 692.5,-814.75 689,-824.75 696,-824.75"/>
<text text-anchor="start" x="692.5" y="-836.8" font-family="Times,serif" font-size="14.00">%7</text>
</g>
<!-- node12 -->
<g id="node13" class="node">
<title>node12</title>
<polygon fill="none" stroke="black" points="451,-576 451,-614 578,-614 578,-576 451,-576"/>
<text text-anchor="start" x="459" y="-598.8" font-family="Times,serif" font-size="14.00">Let l5 =</text>
<text text-anchor="start" x="459" y="-583.8" font-family="Times,serif" font-size="14.00"> Union %8 %11</text>
</g>
<!-- node8&#45;&gt;node12 -->
<g id="edge29" class="edge">
<title>node8&#45;&gt;node12</title>
<path fill="none" stroke="black" d="M668.49,-761.24C634.53,-724.79 572.79,-658.55 538.71,-621.98"/>
<polygon fill="black" stroke="black" points="540.86,-619.15 531.48,-614.22 535.74,-623.92 540.86,-619.15"/>
<text text-anchor="start" x="617.5" y="-687.8" font-family="Times,serif" font-size="14.00">%8</text>
</g>
<!-- node9&#45;&gt;node10 -->
<g id="edge3" class="edge">
<title>node9&#45;&gt;node10</title>
<path fill="none" stroke="black" d="M345.5,-866.35C345.5,-850.69 345.5,-832.21 345.5,-817.23"/>
<polygon fill="black" stroke="black" points="349,-817.04 345.5,-807.04 342,-817.04 349,-817.04"/>
<text text-anchor="start" x="345.5" y="-836.8" font-family="Times,serif" font-size="14.00">%9</text>
</g>
<!-- node10&#45;&gt;node11 -->
<g id="edge16" class="edge">
<title>node10&#45;&gt;node11</title>
<path fill="none" stroke="black" d="M378.08,-768.78C405.81,-753.27 445.72,-730.96 475.21,-714.47"/>
<polygon fill="black" stroke="black" points="476.99,-717.49 484.01,-709.55 473.57,-711.38 476.99,-717.49"/>
<text text-anchor="start" x="449.5" y="-731.8" font-family="Times,serif" font-size="14.00">%10</text>
</g>
<!-- node11&#45;&gt;node12 -->
<g id="edge6" class="edge">
<title>node11&#45;&gt;node12</title>
<path fill="none" stroke="black" d="M514.5,-673.17C514.5,-659.57 514.5,-640.37 514.5,-624.52"/>
<polygon fill="black" stroke="black" points="518,-624.19 514.5,-614.19 511,-624.19 518,-624.19"/>
<text text-anchor="start" x="514.5" y="-643.8" font-family="Times,serif" font-size="14.00">%11</text>
</g>
<!-- node15 -->
<g id="node16" class="node">
<title>node15</title>
<polygon fill="none" stroke="black" points="356,-433.5 356,-516.5 625,-516.5 625,-433.5 356,-433.5"/>
<text text-anchor="start" x="364" y="-501.3" font-family="Times,serif" font-size="14.00">Let l7 =</text>
<text text-anchor="start" x="364" y="-486.3" font-family="Times,serif" font-size="14.00"> Join %12 %14</text>
<text text-anchor="start" x="364" y="-471.3" font-family="Times,serif" font-size="14.00"> implementation = Unimplemented</text>
<text text-anchor="start" x="364" y="-456.3" font-family="Times,serif" font-size="14.00"> Project (#0..#5)</text>
<text text-anchor="start" x="364" y="-441.3" font-family="Times,serif" font-size="14.00"> Filter (#2 = #5)</text>
</g>
<!-- node12&#45;&gt;node15 -->
<g id="edge28" class="edge">
<title>node12&#45;&gt;node15</title>
<path fill="none" stroke="black" d="M510.8,-575.82C508.14,-562.74 504.42,-544.42 500.88,-527.03"/>
<polygon fill="black" stroke="black" points="504.25,-526.05 498.83,-516.95 497.39,-527.45 504.25,-526.05"/>
<text text-anchor="start" x="504.5" y="-538.8" font-family="Times,serif" font-size="14.00">%12</text>
</g>
<!-- node13 -->
<g id="node14" class="node">
<title>node13</title>
<polygon fill="none" stroke="black" points="186.5,-673.5 186.5,-709.5 394.5,-709.5 394.5,-673.5 186.5,-673.5"/>
<text text-anchor="start" x="194.5" y="-687.8" font-family="Times,serif" font-size="14.00">Get rej_nulls.public.t (u47)</text>
</g>
<!-- node13&#45;&gt;node14 -->
<g id="edge1" class="edge">
<title>node13&#45;&gt;node14</title>
<path fill="none" stroke="black" d="M290.5,-673.17C290.5,-661.7 290.5,-646.25 290.5,-632.18"/>
<polygon fill="black" stroke="black" points="294,-631.78 290.5,-621.78 287,-631.78 294,-631.78"/>
<text text-anchor="start" x="290.5" y="-643.8" font-family="Times,serif" font-size="14.00">%13</text>
</g>
<!-- node14&#45;&gt;node15 -->
<g id="edge22" class="edge">
<title>node14&#45;&gt;node15</title>
<path fill="none" stroke="black" d="M333.9,-568.4C357.01,-554.76 386.15,-537.57 413,-521.72"/>
<polygon fill="black" stroke="black" points="414.8,-524.73 421.63,-516.63 411.24,-518.7 414.8,-524.73"/>
<text text-anchor="start" x="390.5" y="-538.8" font-family="Times,serif" font-size="14.00">%14</text>
</g>
<!-- node17 -->
<g id="node18" class="node">
<title>node17</title>
<polygon fill="none" stroke="black" points="257,-193.5 257,-261.5 526,-261.5 526,-193.5 257,-193.5"/>
<text text-anchor="start" x="265" y="-246.3" font-family="Times,serif" font-size="14.00">Join %14 %16 (= #1 #2)</text>
<text text-anchor="start" x="265" y="-231.3" font-family="Times,serif" font-size="14.00"> implementation = Unimplemented</text>
<text text-anchor="start" x="265" y="-216.3" font-family="Times,serif" font-size="14.00"> Project (#0, #1)</text>
<text text-anchor="start" x="265" y="-201.3" font-family="Times,serif" font-size="14.00"> Negate</text>
</g>
<!-- node14&#45;&gt;node17 -->
<g id="edge23" class="edge">
<title>node14&#45;&gt;node17</title>
<path fill="none" stroke="black" d="M290.65,-568.2C291.75,-517.5 298.28,-402.03 333.5,-313 339.41,-298.07 348.35,-283.17 357.47,-270.13"/>
<polygon fill="black" stroke="black" points="360.43,-272 363.45,-261.84 354.76,-267.9 360.43,-272"/>
<text text-anchor="start" x="307.5" y="-403.8" font-family="Times,serif" font-size="14.00">%14</text>
</g>
<!-- node18 -->
<g id="node19" class="node">
<title>node18</title>
<polygon fill="none" stroke="black" points="292.5,-88.5 292.5,-141.5 490.5,-141.5 490.5,-88.5 292.5,-88.5"/>
<text text-anchor="start" x="300.5" y="-126.3" font-family="Times,serif" font-size="14.00">Union %17 %14</text>
<text text-anchor="start" x="300.5" y="-111.3" font-family="Times,serif" font-size="14.00"> Map null, null, null, null</text>
<text text-anchor="start" x="300.5" y="-96.3" font-family="Times,serif" font-size="14.00"> Project (#2..#5, #0, #1)</text>
</g>
<!-- node14&#45;&gt;node18 -->
<g id="edge19" class="edge">
<title>node14&#45;&gt;node18</title>
<path fill="none" stroke="black" d="M267.77,-568.37C250.07,-545.72 228.5,-510.94 228.5,-476 228.5,-476 228.5,-476 228.5,-226.5 228.5,-188.84 258.68,-163.13 293.07,-146.06"/>
<polygon fill="black" stroke="black" points="294.81,-149.11 302.37,-141.69 291.83,-142.77 294.81,-149.11"/>
<text text-anchor="start" x="228.5" y="-343.8" font-family="Times,serif" font-size="14.00">%14</text>
</g>
<!-- node16 -->
<g id="node17" class="node">
<title>node16</title>
<polygon fill="none" stroke="black" points="342,-313.5 342,-381.5 509,-381.5 509,-313.5 342,-313.5"/>
<text text-anchor="start" x="350" y="-366.3" font-family="Times,serif" font-size="14.00">Let l8 =</text>
<text text-anchor="start" x="350" y="-351.3" font-family="Times,serif" font-size="14.00"> Get %15 (l7)</text>
<text text-anchor="start" x="350" y="-336.3" font-family="Times,serif" font-size="14.00"> Project (#2)</text>
<text text-anchor="start" x="350" y="-321.3" font-family="Times,serif" font-size="14.00"> Distinct group=(#0)</text>
</g>
<!-- node15&#45;&gt;node16 -->
<g id="edge24" class="edge">
<title>node15&#45;&gt;node16</title>
<path fill="none" stroke="black" d="M469.4,-433.25C462.35,-419.65 454.48,-404.46 447.38,-390.74"/>
<polygon fill="black" stroke="black" points="450.31,-388.78 442.6,-381.51 444.09,-392 450.31,-388.78"/>
<text text-anchor="start" x="457.5" y="-403.8" font-family="Times,serif" font-size="14.00">%15</text>
</g>
<!-- node19 -->
<g id="node20" class="node">
<title>node19</title>
<polygon fill="none" stroke="black" points="411,-0.5 411,-36.5 542,-36.5 542,-0.5 411,-0.5"/>
<text text-anchor="start" x="419" y="-14.8" font-family="Times,serif" font-size="14.00">Union %18 %15</text>
</g>
<!-- node15&#45;&gt;node19 -->
<g id="edge21" class="edge">
<title>node15&#45;&gt;node19</title>
<path fill="none" stroke="black" d="M527.98,-433.43C545.47,-410.31 562.5,-379.77 562.5,-348.5 562.5,-348.5 562.5,-348.5 562.5,-114 562.5,-83.77 538.13,-58.95 515.34,-42.34"/>
<polygon fill="black" stroke="black" points="517.27,-39.42 507.06,-36.6 513.28,-45.18 517.27,-39.42"/>
<text text-anchor="start" x="562.5" y="-223.8" font-family="Times,serif" font-size="14.00">%15</text>
</g>
<!-- node16&#45;&gt;node17 -->
<g id="edge7" class="edge">
<title>node16&#45;&gt;node17</title>
<path fill="none" stroke="black" d="M415.94,-313.32C412.21,-300.37 407.88,-285.36 403.92,-271.6"/>
<polygon fill="black" stroke="black" points="407.24,-270.48 401.11,-261.84 400.51,-272.42 407.24,-270.48"/>
<text text-anchor="start" x="410.5" y="-283.8" font-family="Times,serif" font-size="14.00">%16</text>
</g>
<!-- node17&#45;&gt;node18 -->
<g id="edge5" class="edge">
<title>node17&#45;&gt;node18</title>
<path fill="none" stroke="black" d="M391.5,-193.35C391.5,-180.3 391.5,-165.3 391.5,-151.99"/>
<polygon fill="black" stroke="black" points="395,-151.75 391.5,-141.75 388,-151.75 395,-151.75"/>
<text text-anchor="start" x="391.5" y="-163.8" font-family="Times,serif" font-size="14.00">%17</text>
</g>
<!-- node18&#45;&gt;node19 -->
<g id="edge10" class="edge">
<title>node18&#45;&gt;node19</title>
<path fill="none" stroke="black" d="M414.73,-88.18C427.05,-74.47 442.12,-57.72 454.29,-44.19"/>
<polygon fill="black" stroke="black" points="457,-46.42 461.08,-36.64 451.79,-41.73 457,-46.42"/>
<text text-anchor="start" x="443.5" y="-58.8" font-family="Times,serif" font-size="14.00">%18</text>
</g>
</g>
</svg>
