<?xml version="1.0" encoding="UTF-8" standalone="no"?>
<!DOCTYPE svg PUBLIC "-//W3C//DTD SVG 1.1//EN"
 "http://www.w3.org/Graphics/SVG/1.1/DTD/svg11.dtd">
<!-- Generated by graphviz version 2.43.0 (0)
 -->
<!-- Title: G Pages: 1 -->
<svg width="759pt" height="1203pt"
 viewBox="0.00 0.00 758.50 1203.00" xmlns="http://www.w3.org/2000/svg" xmlns:xlink="http://www.w3.org/1999/xlink">
<g id="graph0" class="graph" transform="scale(1 1) rotate(0) translate(4 1199)">
<title>G</title>
<polygon fill="white" stroke="transparent" points="-4,4 -4,-1199 754.5,-1199 754.5,4 -4,4"/>
<!-- node0 -->
<g id="node1" class="node">
<title>node0</title>
<polygon fill="none" stroke="black" points="0,-1156.5 0,-1194.5 209,-1194.5 209,-1156.5 0,-1156.5"/>
<text text-anchor="start" x="8" y="-1179.3" font-family="Times,serif" font-size="14.00">Get rej_nulls.public.r (u43)</text>
<text text-anchor="start" x="8" y="-1164.3" font-family="Times,serif" font-size="14.00"> ArrangeBy (#1)</text>
</g>
<!-- node2 -->
<g id="node3" class="node">
<title>node2</title>
<polygon fill="none" stroke="black" points="54.5,-1036.5 54.5,-1104.5 380.5,-1104.5 380.5,-1036.5 54.5,-1036.5"/>
<text text-anchor="start" x="62.5" y="-1089.3" font-family="Times,serif" font-size="14.00">Let l0 =</text>
<text text-anchor="start" x="62.5" y="-1074.3" font-family="Times,serif" font-size="14.00"> Join %0 %1 (= #1 #2)</text>
<text text-anchor="start" x="62.5" y="-1059.3" font-family="Times,serif" font-size="14.00"> implementation = Differential %1 %0.(#1)</text>
<text text-anchor="start" x="62.5" y="-1044.3" font-family="Times,serif" font-size="14.00"> Project (#0, #1, #3)</text>
</g>
<!-- node0&#45;&gt;node2 -->
<g id="edge7" class="edge">
<title>node0&#45;&gt;node2</title>
<path fill="none" stroke="black" d="M124.44,-1156.32C137.96,-1144 156.37,-1127.22 173.24,-1111.84"/>
<polygon fill="black" stroke="black" points="175.83,-1114.21 180.87,-1104.89 171.12,-1109.04 175.83,-1114.21"/>
<text text-anchor="start" x="161.5" y="-1126.8" font-family="Times,serif" font-size="14.00">%0</text>
</g>
<!-- node1 -->
<g id="node2" class="node">
<title>node1</title>
<polygon fill="none" stroke="black" points="227,-1157.5 227,-1193.5 436,-1193.5 436,-1157.5 227,-1157.5"/>
<text text-anchor="start" x="235" y="-1171.8" font-family="Times,serif" font-size="14.00">Get rej_nulls.public.s (u45)</text>
</g>
<!-- node1&#45;&gt;node2 -->
<g id="edge11" class="edge">
<title>node1&#45;&gt;node2</title>
<path fill="none" stroke="black" d="M312.68,-1157.49C298.84,-1144.99 279.46,-1127.48 261.79,-1111.51"/>
<polygon fill="black" stroke="black" points="264.11,-1108.89 254.34,-1104.79 259.41,-1114.09 264.11,-1108.89"/>
<text text-anchor="start" x="287.5" y="-1126.8" font-family="Times,serif" font-size="14.00">%1</text>
</g>
<!-- node4 -->
<g id="node5" class="node">
<title>node4</title>
<polygon fill="none" stroke="black" points="470,-916.5 470,-984.5 637,-984.5 637,-916.5 470,-916.5"/>
<text text-anchor="start" x="478" y="-969.3" font-family="Times,serif" font-size="14.00">Get %2 (l0)</text>
<text text-anchor="start" x="478" y="-954.3" font-family="Times,serif" font-size="14.00"> Project (#1)</text>
<text text-anchor="start" x="478" y="-939.3" font-family="Times,serif" font-size="14.00"> Distinct group=(#0)</text>
<text text-anchor="start" x="478" y="-924.3" font-family="Times,serif" font-size="14.00"> ArrangeBy (#0)</text>
</g>
<!-- node2&#45;&gt;node4 -->
<g id="edge17" class="edge">
<title>node2&#45;&gt;node4</title>
<path fill="none" stroke="black" d="M314.1,-1036.44C356.44,-1021.85 406.93,-1004.33 460.17,-985.46"/>
<polygon fill="black" stroke="black" points="461.53,-988.69 469.78,-982.05 459.19,-982.09 461.53,-988.69"/>
<text text-anchor="start" x="407.5" y="-1006.8" font-family="Times,serif" font-size="14.00">%2</text>
</g>
<!-- node8 -->
<g id="node9" class="node">
<title>node8</title>
<polygon fill="none" stroke="black" points="75.5,-859.5 75.5,-897.5 273.5,-897.5 273.5,-859.5 75.5,-859.5"/>
<text text-anchor="start" x="83.5" y="-882.3" font-family="Times,serif" font-size="14.00">Get %2 (l0)</text>
<text text-anchor="start" x="83.5" y="-867.3" font-family="Times,serif" font-size="14.00"> Project (#0, #1, #1, #2)</text>
</g>
<!-- node2&#45;&gt;node8 -->
<g id="edge12" class="edge">
<title>node2&#45;&gt;node8</title>
<path fill="none" stroke="black" d="M210.01,-1036.4C201.75,-999.89 188.59,-941.75 180.82,-907.44"/>
<polygon fill="black" stroke="black" points="184.22,-906.59 178.6,-897.61 177.39,-908.13 184.22,-906.59"/>
<text text-anchor="start" x="206.5" y="-1006.8" font-family="Times,serif" font-size="14.00">%2</text>
</g>
<!-- node3 -->
<g id="node4" class="node">
<title>node3</title>
<polygon fill="none" stroke="black" points="243,-932.5 243,-968.5 452,-968.5 452,-932.5 243,-932.5"/>
<text text-anchor="start" x="251" y="-946.8" font-family="Times,serif" font-size="14.00">Get rej_nulls.public.s (u45)</text>
</g>
<!-- node5 -->
<g id="node6" class="node">
<title>node5</title>
<polygon fill="none" stroke="black" points="390.5,-772.5 390.5,-840.5 716.5,-840.5 716.5,-772.5 390.5,-772.5"/>
<text text-anchor="start" x="398.5" y="-825.3" font-family="Times,serif" font-size="14.00">Join %3 %4 (= #0 #2)</text>
<text text-anchor="start" x="398.5" y="-810.3" font-family="Times,serif" font-size="14.00"> implementation = Differential %3 %4.(#0)</text>
<text text-anchor="start" x="398.5" y="-795.3" font-family="Times,serif" font-size="14.00"> Project (#0, #1)</text>
<text text-anchor="start" x="398.5" y="-780.3" font-family="Times,serif" font-size="14.00"> Negate</text>
</g>
<!-- node3&#45;&gt;node5 -->
<g id="edge13" class="edge">
<title>node3&#45;&gt;node5</title>
<path fill="none" stroke="black" d="M372.35,-932.37C403.08,-911.19 456.34,-874.47 497.18,-846.32"/>
<polygon fill="black" stroke="black" points="499.19,-849.19 505.43,-840.63 495.21,-843.43 499.19,-849.19"/>
<text text-anchor="start" x="474.5" y="-874.8" font-family="Times,serif" font-size="14.00">%3</text>
</g>
<!-- node4&#45;&gt;node5 -->
<g id="edge20" class="edge">
<title>node4&#45;&gt;node5</title>
<path fill="none" stroke="black" d="M553.5,-916.21C553.5,-896.71 553.5,-871.87 553.5,-850.86"/>
<polygon fill="black" stroke="black" points="557,-850.58 553.5,-840.58 550,-850.58 557,-850.58"/>
<text text-anchor="start" x="553.5" y="-874.8" font-family="Times,serif" font-size="14.00">%4</text>
</g>
<!-- node7 -->
<g id="node8" class="node">
<title>node7</title>
<polygon fill="none" stroke="black" points="168.5,-667.5 168.5,-720.5 366.5,-720.5 366.5,-667.5 168.5,-667.5"/>
<text text-anchor="start" x="176.5" y="-705.3" font-family="Times,serif" font-size="14.00">Union %5 %6</text>
<text text-anchor="start" x="176.5" y="-690.3" font-family="Times,serif" font-size="14.00"> Map null, null</text>
<text text-anchor="start" x="176.5" y="-675.3" font-family="Times,serif" font-size="14.00"> Project (#2, #3, #0, #1)</text>
</g>
<!-- node5&#45;&gt;node7 -->
<g id="edge2" class="edge">
<title>node5&#45;&gt;node7</title>
<path fill="none" stroke="black" d="M468.08,-772.5C428.47,-757.19 381.8,-739.16 343.44,-724.34"/>
<polygon fill="black" stroke="black" points="344.47,-720.99 333.88,-720.65 341.94,-727.51 344.47,-720.99"/>
<text text-anchor="start" x="418.5" y="-742.8" font-family="Times,serif" font-size="14.00">%5</text>
</g>
<!-- node6 -->
<g id="node7" class="node">
<title>node6</title>
<polygon fill="none" stroke="black" points="163,-788.5 163,-824.5 372,-824.5 372,-788.5 163,-788.5"/>
<text text-anchor="start" x="171" y="-802.8" font-family="Times,serif" font-size="14.00">Get rej_nulls.public.s (u45)</text>
</g>
<!-- node6&#45;&gt;node7 -->
<g id="edge10" class="edge">
<title>node6&#45;&gt;node7</title>
<path fill="none" stroke="black" d="M267.5,-788.23C267.5,-772.97 267.5,-750.22 267.5,-731.01"/>
<polygon fill="black" stroke="black" points="271,-730.77 267.5,-720.77 264,-730.77 271,-730.77"/>
<text text-anchor="start" x="267.5" y="-742.8" font-family="Times,serif" font-size="14.00">%6</text>
</g>
<!-- node9 -->
<g id="node10" class="node">
<title>node9</title>
<polygon fill="none" stroke="black" points="83.5,-577.5 83.5,-615.5 217.5,-615.5 217.5,-577.5 83.5,-577.5"/>
<text text-anchor="start" x="91.5" y="-600.3" font-family="Times,serif" font-size="14.00">Union %7 %8</text>
<text text-anchor="start" x="91.5" y="-585.3" font-family="Times,serif" font-size="14.00"> ArrangeBy (#2)</text>
</g>
<!-- node7&#45;&gt;node9 -->
<g id="edge15" class="edge">
<title>node7&#45;&gt;node9</title>
<path fill="none" stroke="black" d="M236.15,-667.41C218.93,-653.35 197.68,-636.01 180.65,-622.11"/>
<polygon fill="black" stroke="black" points="182.63,-619.21 172.67,-615.6 178.2,-624.63 182.63,-619.21"/>
<text text-anchor="start" x="213.5" y="-637.8" font-family="Times,serif" font-size="14.00">%7</text>
</g>
<!-- node8&#45;&gt;node9 -->
<g id="edge5" class="edge">
<title>node8&#45;&gt;node9</title>
<path fill="none" stroke="black" d="M161.65,-859.37C158.35,-853.74 155.24,-847.35 153.5,-841 132.83,-765.5 140.49,-671.83 146.31,-625.78"/>
<polygon fill="black" stroke="black" points="149.81,-626.03 147.66,-615.65 142.87,-625.1 149.81,-626.03"/>
<text text-anchor="start" x="141.5" y="-742.8" font-family="Times,serif" font-size="14.00">%8</text>
</g>
<!-- node11 -->
<g id="node12" class="node">
<title>node11</title>
<polygon fill="none" stroke="black" points="78,-457.5 78,-525.5 413,-525.5 413,-457.5 78,-457.5"/>
<text text-anchor="start" x="86" y="-510.3" font-family="Times,serif" font-size="14.00">Let l1 =</text>
<text text-anchor="start" x="86" y="-495.3" font-family="Times,serif" font-size="14.00"> Join %9 %10 (= #2 #5)</text>
<text text-anchor="start" x="86" y="-480.3" font-family="Times,serif" font-size="14.00"> implementation = Differential %10 %9.(#2)</text>
<text text-anchor="start" x="86" y="-465.3" font-family="Times,serif" font-size="14.00"> Project (#0..#4)</text>
</g>
<!-- node9&#45;&gt;node11 -->
<g id="edge14" class="edge">
<title>node9&#45;&gt;node11</title>
<path fill="none" stroke="black" d="M167.48,-577.09C178.66,-564.96 193.76,-548.6 207.69,-533.5"/>
<polygon fill="black" stroke="black" points="210.63,-535.47 214.84,-525.74 205.49,-530.72 210.63,-535.47"/>
<text text-anchor="start" x="198.5" y="-547.8" font-family="Times,serif" font-size="14.00">%9</text>
</g>
<!-- node10 -->
<g id="node11" class="node">
<title>node10</title>
<polygon fill="none" stroke="black" points="235.5,-577.5 235.5,-615.5 443.5,-615.5 443.5,-577.5 235.5,-577.5"/>
<text text-anchor="start" x="243.5" y="-600.3" font-family="Times,serif" font-size="14.00">Get rej_nulls.public.t (u47)</text>
<text text-anchor="start" x="243.5" y="-585.3" font-family="Times,serif" font-size="14.00"> Filter !(isnull(#1))</text>
</g>
<!-- node10&#45;&gt;node11 -->
<g id="edge9" class="edge">
<title>node10&#45;&gt;node11</title>
<path fill="none" stroke="black" d="M322.69,-577.09C311.63,-564.96 296.7,-548.6 282.92,-533.5"/>
<polygon fill="black" stroke="black" points="285.16,-530.77 275.84,-525.74 279.99,-535.49 285.16,-530.77"/>
<text text-anchor="start" x="303.5" y="-547.8" font-family="Times,serif" font-size="14.00">%10</text>
</g>
<!-- node13 -->
<g id="node14" class="node">
<title>node13</title>
<polygon fill="none" stroke="black" points="495,-337.5 495,-405.5 662,-405.5 662,-337.5 495,-337.5"/>
<text text-anchor="start" x="503" y="-390.3" font-family="Times,serif" font-size="14.00">Get %11 (l1)</text>
<text text-anchor="start" x="503" y="-375.3" font-family="Times,serif" font-size="14.00"> Project (#2)</text>
<text text-anchor="start" x="503" y="-360.3" font-family="Times,serif" font-size="14.00"> Distinct group=(#0)</text>
<text text-anchor="start" x="503" y="-345.3" font-family="Times,serif" font-size="14.00"> ArrangeBy (#0)</text>
</g>
<!-- node11&#45;&gt;node13 -->
<g id="edge4" class="edge">
<title>node11&#45;&gt;node13</title>
<path fill="none" stroke="black" d="M339.88,-457.45C381.62,-442.79 431.52,-425.2 485.16,-406.12"/>
<polygon fill="black" stroke="black" points="486.61,-409.31 494.86,-402.66 484.26,-402.72 486.61,-409.31"/>
<text text-anchor="start" x="432.5" y="-427.8" font-family="Times,serif" font-size="14.00">%11</text>
</g>
<!-- node17 -->
<g id="node18" class="node">
<title>node17</title>
<polygon fill="none" stroke="black" points="112.5,-280.5 112.5,-318.5 280.5,-318.5 280.5,-280.5 112.5,-280.5"/>
<text text-anchor="start" x="120.5" y="-303.3" font-family="Times,serif" font-size="14.00">Get %11 (l1)</text>
<text text-anchor="start" x="120.5" y="-288.3" font-family="Times,serif" font-size="14.00"> Project (#0..#4, #2)</text>
</g>
<!-- node11&#45;&gt;node17 -->
<g id="edge6" class="edge">
<title>node11&#45;&gt;node17</title>
<path fill="none" stroke="black" d="M236.96,-457.4C227.55,-420.89 212.55,-362.75 203.71,-328.44"/>
<polygon fill="black" stroke="black" points="207.06,-327.41 201.17,-318.61 200.28,-329.16 207.06,-327.41"/>
<text text-anchor="start" x="232.5" y="-427.8" font-family="Times,serif" font-size="14.00">%11</text>
</g>
<!-- node12 -->
<g id="node13" class="node">
<title>node12</title>
<polygon fill="none" stroke="black" points="268.5,-353.5 268.5,-389.5 476.5,-389.5 476.5,-353.5 268.5,-353.5"/>
<text text-anchor="start" x="276.5" y="-367.8" font-family="Times,serif" font-size="14.00">Get rej_nulls.public.t (u47)</text>
</g>
<!-- node14 -->
<g id="node15" class="node">
<title>node14</title>
<polygon fill="none" stroke="black" points="406.5,-193.5 406.5,-261.5 750.5,-261.5 750.5,-193.5 406.5,-193.5"/>
<text text-anchor="start" x="414.5" y="-246.3" font-family="Times,serif" font-size="14.00">Join %12 %13 (= #1 #2)</text>
<text text-anchor="start" x="414.5" y="-231.3" font-family="Times,serif" font-size="14.00"> implementation = Differential %12 %13.(#0)</text>
<text text-anchor="start" x="414.5" y="-216.3" font-family="Times,serif" font-size="14.00"> Project (#0, #1)</text>
<text text-anchor="start" x="414.5" y="-201.3" font-family="Times,serif" font-size="14.00"> Negate</text>
</g>
<!-- node12&#45;&gt;node14 -->
<g id="edge8" class="edge">
<title>node12&#45;&gt;node14</title>
<path fill="none" stroke="black" d="M397.35,-353.37C428.08,-332.19 481.34,-295.47 522.18,-267.32"/>
<polygon fill="black" stroke="black" points="524.19,-270.19 530.43,-261.63 520.21,-264.43 524.19,-270.19"/>
<text text-anchor="start" x="499.5" y="-295.8" font-family="Times,serif" font-size="14.00">%12</text>
</g>
<!-- node13&#45;&gt;node14 -->
<g id="edge1" class="edge">
<title>node13&#45;&gt;node14</title>
<path fill="none" stroke="black" d="M578.5,-337.21C578.5,-317.71 578.5,-292.87 578.5,-271.86"/>
<polygon fill="black" stroke="black" points="582,-271.58 578.5,-261.58 575,-271.58 582,-271.58"/>
<text text-anchor="start" x="578.5" y="-295.8" font-family="Times,serif" font-size="14.00">%13</text>
</g>
<!-- node16 -->
<g id="node17" class="node">
<title>node16</title>
<polygon fill="none" stroke="black" points="185.5,-88.5 185.5,-141.5 383.5,-141.5 383.5,-88.5 185.5,-88.5"/>
<text text-anchor="start" x="193.5" y="-126.3" font-family="Times,serif" font-size="14.00">Union %14 %15</text>
<text text-anchor="start" x="193.5" y="-111.3" font-family="Times,serif" font-size="14.00"> Map null, null, null, null</text>
<text text-anchor="start" x="193.5" y="-96.3" font-family="Times,serif" font-size="14.00"> Project (#2..#5, #0, #1)</text>
</g>
<!-- node14&#45;&gt;node16 -->
<g id="edge18" class="edge">
<title>node14&#45;&gt;node16</title>
<path fill="none" stroke="black" d="M490.69,-193.5C449.98,-178.19 401.99,-160.16 362.56,-145.34"/>
<polygon fill="black" stroke="black" points="363.33,-141.89 352.73,-141.65 360.86,-148.44 363.33,-141.89"/>
<text text-anchor="start" x="439.5" y="-163.8" font-family="Times,serif" font-size="14.00">%14</text>
</g>
<!-- node15 -->
<g id="node16" class="node">
<title>node15</title>
<polygon fill="none" stroke="black" points="180.5,-209.5 180.5,-245.5 388.5,-245.5 388.5,-209.5 180.5,-209.5"/>
<text text-anchor="start" x="188.5" y="-223.8" font-family="Times,serif" font-size="14.00">Get rej_nulls.public.t (u47)</text>
</g>
<!-- node15&#45;&gt;node16 -->
<g id="edge16" class="edge">
<title>node15&#45;&gt;node16</title>
<path fill="none" stroke="black" d="M284.5,-209.23C284.5,-193.97 284.5,-171.22 284.5,-152.01"/>
<polygon fill="black" stroke="black" points="288,-151.77 284.5,-141.77 281,-151.77 288,-151.77"/>
<text text-anchor="start" x="284.5" y="-163.8" font-family="Times,serif" font-size="14.00">%15</text>
</g>
<!-- node18 -->
<g id="node19" class="node">
<title>node18</title>
<polygon fill="none" stroke="black" points="103,-0.5 103,-36.5 234,-36.5 234,-0.5 103,-0.5"/>
<text text-anchor="start" x="111" y="-14.8" font-family="Times,serif" font-size="14.00">Union %16 %17</text>
</g>
<!-- node16&#45;&gt;node18 -->
<g id="edge19" class="edge">
<title>node16&#45;&gt;node18</title>
<path fill="none" stroke="black" d="M253.11,-88.43C235.81,-74.33 214.48,-56.96 197.56,-43.18"/>
<polygon fill="black" stroke="black" points="199.62,-40.33 189.65,-36.73 195.19,-45.76 199.62,-40.33"/>
<text text-anchor="start" x="230.5" y="-58.8" font-family="Times,serif" font-size="14.00">%16</text>
</g>
<!-- node17&#45;&gt;node18 -->
<g id="edge3" class="edge">
<title>node17&#45;&gt;node18</title>
<path fill="none" stroke="black" d="M180.97,-280.3C177.13,-274.77 173.54,-268.44 171.5,-262 147.81,-187.12 157.05,-92.6 163.81,-46.83"/>
<polygon fill="black" stroke="black" points="167.29,-47.21 165.37,-36.79 160.38,-46.14 167.29,-47.21"/>
<text text-anchor="start" x="157.5" y="-163.8" font-family="Times,serif" font-size="14.00">%17</text>
</g>
</g>
</svg>
