<?xml version="1.0" encoding="UTF-8" standalone="no"?>
<!DOCTYPE svg PUBLIC "-//W3C//DTD SVG 1.1//EN"
 "http://www.w3.org/Graphics/SVG/1.1/DTD/svg11.dtd">
<!-- Generated by graphviz version 2.43.0 (0)
 -->
<!-- Title: G Pages: 1 -->
<svg width="585pt" height="221pt"
 viewBox="0.00 0.00 584.50 221.00" xmlns="http://www.w3.org/2000/svg" xmlns:xlink="http://www.w3.org/1999/xlink">
<g id="graph0" class="graph" transform="scale(1 1) rotate(0) translate(4 217)">
<title>G</title>
<polygon fill="white" stroke="transparent" points="-4,4 -4,-217 580.5,-217 580.5,4 -4,4"/>
<!-- node0 -->
<g id="node1" class="node">
<title>node0</title>
<polygon fill="none" stroke="black" points="0,-176.5 0,-212.5 209,-212.5 209,-176.5 0,-176.5"/>
<text text-anchor="start" x="8" y="-190.8" font-family="Times,serif" font-size="14.00">Get rej_nulls.public.r (u43)</text>
</g>
<!-- node2 -->
<g id="node3" class="node">
<title>node2</title>
<polygon fill="none" stroke="black" points="84.5,-88.5 84.5,-124.5 350.5,-124.5 350.5,-88.5 84.5,-88.5"/>
<text text-anchor="start" x="92.5" y="-102.8" font-family="Times,serif" font-size="14.00">FullOuterJoin %0 %1 on (#1 = #2)</text>
</g>
<!-- node0&#45;&gt;node2 -->
<g id="edge2" class="edge">
<title>node0&#45;&gt;node2</title>
<path fill="none" stroke="black" d="M127.1,-176.3C144.26,-163.24 168.06,-145.13 186.93,-130.77"/>
<polygon fill="black" stroke="black" points="189.11,-133.51 194.94,-124.67 184.87,-127.94 189.11,-133.51"/>
<text text-anchor="start" x="168.5" y="-146.8" font-family="Times,serif" font-size="14.00">%0</text>
</g>
<!-- node1 -->
<g id="node2" class="node">
<title>node1</title>
<polygon fill="none" stroke="black" points="227,-176.5 227,-212.5 436,-212.5 436,-176.5 227,-176.5"/>
<text text-anchor="start" x="235" y="-190.8" font-family="Times,serif" font-size="14.00">Get rej_nulls.public.s (u45)</text>
</g>
<!-- node1&#45;&gt;node2 -->
<g id="edge1" class="edge">
<title>node1&#45;&gt;node2</title>
<path fill="none" stroke="black" d="M308.7,-176.3C291.38,-163.24 267.38,-145.13 248.34,-130.77"/>
<polygon fill="black" stroke="black" points="250.35,-127.9 240.26,-124.67 246.13,-133.48 250.35,-127.9"/>
<text text-anchor="start" x="281.5" y="-146.8" font-family="Times,serif" font-size="14.00">%1</text>
</g>
<!-- node4 -->
<g id="node5" class="node">
<title>node4</title>
<polygon fill="none" stroke="black" points="206.5,-0.5 206.5,-36.5 484.5,-36.5 484.5,-0.5 206.5,-0.5"/>
<text text-anchor="start" x="214.5" y="-14.8" font-family="Times,serif" font-size="14.00">RightOuterJoin %2 %3 on (#2 = #5)</text>
</g>
<!-- node2&#45;&gt;node4 -->
<g id="edge3" class="edge">
<title>node2&#45;&gt;node4</title>
<path fill="none" stroke="black" d="M243.1,-88.3C262.72,-75.12 289.98,-56.8 311.44,-42.38"/>
<polygon fill="black" stroke="black" points="313.6,-45.15 319.95,-36.67 309.7,-39.34 313.6,-45.15"/>
<text text-anchor="start" x="288.5" y="-58.8" font-family="Times,serif" font-size="14.00">%2</text>
</g>
<!-- node3 -->
<g id="node4" class="node">
<title>node3</title>
<polygon fill="none" stroke="black" points="368.5,-88.5 368.5,-124.5 576.5,-124.5 576.5,-88.5 368.5,-88.5"/>
<text text-anchor="start" x="376.5" y="-102.8" font-family="Times,serif" font-size="14.00">Get rej_nulls.public.t (u47)</text>
</g>
<!-- node3&#45;&gt;node4 -->
<g id="edge4" class="edge">
<title>node3&#45;&gt;node4</title>
<path fill="none" stroke="black" d="M447.1,-88.3C427.64,-75.12 400.59,-56.8 379.29,-42.38"/>
<polygon fill="black" stroke="black" points="381.09,-39.38 370.85,-36.67 377.17,-45.17 381.09,-39.38"/>
<text text-anchor="start" x="416.5" y="-58.8" font-family="Times,serif" font-size="14.00">%3</text>
</g>
</g>
</svg>
