<?xml version="1.0" encoding="UTF-8" standalone="no"?>
<!DOCTYPE svg PUBLIC "-//W3C//DTD SVG 1.1//EN"
 "http://www.w3.org/Graphics/SVG/1.1/DTD/svg11.dtd">
<!-- Generated by graphviz version 2.43.0 (0)
 -->
<!-- Title: G Pages: 1 -->
<svg width="990pt" height="2237pt"
 viewBox="0.00 0.00 989.50 2237.00" xmlns="http://www.w3.org/2000/svg" xmlns:xlink="http://www.w3.org/1999/xlink">
<g id="graph0" class="graph" transform="scale(1 1) rotate(0) translate(4 2233)">
<title>G</title>
<polygon fill="white" stroke="transparent" points="-4,4 -4,-2233 985.5,-2233 985.5,4 -4,4"/>
<!-- node0 -->
<g id="node1" class="node">
<title>node0</title>
<polygon fill="none" stroke="black" points="285,-2160.5 285,-2228.5 386,-2228.5 386,-2160.5 285,-2160.5"/>
<text text-anchor="start" x="293" y="-2213.3" font-family="Times,serif" font-size="14.00">Let l0 =</text>
<text text-anchor="start" x="293" y="-2198.3" font-family="Times,serif" font-size="14.00"> Constant ()</text>
<text text-anchor="start" x="293" y="-2183.3" font-family="Times,serif" font-size="14.00"> types = ()</text>
<text text-anchor="start" x="293" y="-2168.3" font-family="Times,serif" font-size="14.00"> keys = (())</text>
</g>
<!-- node2 -->
<g id="node3" class="node">
<title>node2</title>
<polygon fill="none" stroke="black" points="201,-2025.5 201,-2108.5 470,-2108.5 470,-2025.5 201,-2025.5"/>
<text text-anchor="start" x="209" y="-2093.3" font-family="Times,serif" font-size="14.00">Let l1 =</text>
<text text-anchor="start" x="209" y="-2078.3" font-family="Times,serif" font-size="14.00"> Join %0 %1</text>
<text text-anchor="start" x="209" y="-2063.3" font-family="Times,serif" font-size="14.00"> implementation = Unimplemented</text>
<text text-anchor="start" x="209" y="-2048.3" font-family="Times,serif" font-size="14.00"> types = (integer, integer)</text>
<text text-anchor="start" x="209" y="-2033.3" font-family="Times,serif" font-size="14.00"> keys = ()</text>
</g>
<!-- node0&#45;&gt;node2 -->
<g id="edge13" class="edge">
<title>node0&#45;&gt;node2</title>
<path fill="none" stroke="black" d="M335.5,-2160.2C335.5,-2147.46 335.5,-2132.63 335.5,-2118.63"/>
<polygon fill="black" stroke="black" points="339,-2118.63 335.5,-2108.63 332,-2118.63 339,-2118.63"/>
<text text-anchor="start" x="335.5" y="-2130.8" font-family="Times,serif" font-size="14.00">%0</text>
</g>
<!-- node4 -->
<g id="node5" class="node">
<title>node4</title>
<polygon fill="none" stroke="black" points="532,-2025.5 532,-2108.5 801,-2108.5 801,-2025.5 532,-2025.5"/>
<text text-anchor="start" x="540" y="-2093.3" font-family="Times,serif" font-size="14.00">Let l2 =</text>
<text text-anchor="start" x="540" y="-2078.3" font-family="Times,serif" font-size="14.00"> Join %0 %3</text>
<text text-anchor="start" x="540" y="-2063.3" font-family="Times,serif" font-size="14.00"> implementation = Unimplemented</text>
<text text-anchor="start" x="540" y="-2048.3" font-family="Times,serif" font-size="14.00"> types = (integer, integer)</text>
<text text-anchor="start" x="540" y="-2033.3" font-family="Times,serif" font-size="14.00"> keys = ()</text>
</g>
<!-- node0&#45;&gt;node4 -->
<g id="edge11" class="edge">
<title>node0&#45;&gt;node4</title>
<path fill="none" stroke="black" d="M386.13,-2174.3C429.53,-2157.85 493.72,-2133.51 549.74,-2112.27"/>
<polygon fill="black" stroke="black" points="551.26,-2115.44 559.37,-2108.62 548.78,-2108.89 551.26,-2115.44"/>
<text text-anchor="start" x="500.5" y="-2130.8" font-family="Times,serif" font-size="14.00">%0</text>
</g>
<!-- node14 -->
<g id="node15" class="node">
<title>node14</title>
<polygon fill="none" stroke="black" points="137,-945.5 137,-1028.5 406,-1028.5 406,-945.5 137,-945.5"/>
<text text-anchor="start" x="145" y="-1013.3" font-family="Times,serif" font-size="14.00">Let l6 =</text>
<text text-anchor="start" x="145" y="-998.3" font-family="Times,serif" font-size="14.00"> Join %0 %13</text>
<text text-anchor="start" x="145" y="-983.3" font-family="Times,serif" font-size="14.00"> implementation = Unimplemented</text>
<text text-anchor="start" x="145" y="-968.3" font-family="Times,serif" font-size="14.00"> types = (integer?, integer?)</text>
<text text-anchor="start" x="145" y="-953.3" font-family="Times,serif" font-size="14.00"> keys = ()</text>
</g>
<!-- node0&#45;&gt;node14 -->
<g id="edge20" class="edge">
<title>node0&#45;&gt;node14</title>
<path fill="none" stroke="black" d="M284.79,-2183.53C227.61,-2168.99 142.5,-2135.95 142.5,-2068 142.5,-2068 142.5,-2068 142.5,-1106 142.5,-1077.08 160.36,-1053.35 182.8,-1034.94"/>
<polygon fill="black" stroke="black" points="185.15,-1037.55 190.9,-1028.65 180.86,-1032.02 185.15,-1037.55"/>
<text text-anchor="start" x="142.5" y="-1560.8" font-family="Times,serif" font-size="14.00">%0</text>
</g>
<!-- node1 -->
<g id="node2" class="node">
<title>node1</title>
<polygon fill="none" stroke="black" points="0,-2168 0,-2221 209,-2221 209,-2168 0,-2168"/>
<text text-anchor="start" x="8" y="-2205.8" font-family="Times,serif" font-size="14.00">Get rej_nulls.public.r (u43)</text>
<text text-anchor="start" x="8" y="-2190.8" font-family="Times,serif" font-size="14.00"> types = (integer, integer)</text>
<text text-anchor="start" x="8" y="-2175.8" font-family="Times,serif" font-size="14.00"> keys = ()</text>
</g>
<!-- node1&#45;&gt;node2 -->
<g id="edge18" class="edge">
<title>node1&#45;&gt;node2</title>
<path fill="none" stroke="black" d="M151.52,-2167.95C180.35,-2152.29 218.07,-2131.8 251.85,-2113.45"/>
<polygon fill="black" stroke="black" points="253.69,-2116.43 260.8,-2108.58 250.34,-2110.28 253.69,-2116.43"/>
<text text-anchor="start" x="220.5" y="-2130.8" font-family="Times,serif" font-size="14.00">%1</text>
</g>
<!-- node5 -->
<g id="node6" class="node">
<title>node5</title>
<polygon fill="none" stroke="black" points="411,-1800.5 411,-1973.5 732,-1973.5 732,-1800.5 411,-1800.5"/>
<text text-anchor="start" x="419" y="-1958.3" font-family="Times,serif" font-size="14.00">Let l3 =</text>
<text text-anchor="start" x="419" y="-1943.3" font-family="Times,serif" font-size="14.00"> Join %2 %4</text>
<text text-anchor="start" x="419" y="-1928.3" font-family="Times,serif" font-size="14.00"> implementation = Unimplemented</text>
<text text-anchor="start" x="419" y="-1913.3" font-family="Times,serif" font-size="14.00"> types = (integer, integer, integer, integer)</text>
<text text-anchor="start" x="419" y="-1898.3" font-family="Times,serif" font-size="14.00"> keys = ()</text>
<text text-anchor="start" x="419" y="-1883.3" font-family="Times,serif" font-size="14.00"> Project (#0..#3)</text>
<text text-anchor="start" x="419" y="-1868.3" font-family="Times,serif" font-size="14.00"> types = (integer, integer, integer, integer)</text>
<text text-anchor="start" x="419" y="-1853.3" font-family="Times,serif" font-size="14.00"> keys = ()</text>
<text text-anchor="start" x="419" y="-1838.3" font-family="Times,serif" font-size="14.00"> Filter (#1 = #2)</text>
<text text-anchor="start" x="419" y="-1823.3" font-family="Times,serif" font-size="14.00"> types = (integer, integer, integer, integer)</text>
<text text-anchor="start" x="419" y="-1808.3" font-family="Times,serif" font-size="14.00"> keys = ()</text>
</g>
<!-- node2&#45;&gt;node5 -->
<g id="edge12" class="edge">
<title>node2&#45;&gt;node5</title>
<path fill="none" stroke="black" d="M389.35,-2025.39C407.44,-2011.74 428.43,-1995.91 449.58,-1979.96"/>
<polygon fill="black" stroke="black" points="451.82,-1982.65 457.69,-1973.84 447.6,-1977.07 451.82,-1982.65"/>
<text text-anchor="start" x="431.5" y="-1995.8" font-family="Times,serif" font-size="14.00">%2</text>
</g>
<!-- node9 -->
<g id="node10" class="node">
<title>node9</title>
<polygon fill="none" stroke="black" points="231,-1380.5 231,-1538.5 500,-1538.5 500,-1380.5 231,-1380.5"/>
<text text-anchor="start" x="239" y="-1523.3" font-family="Times,serif" font-size="14.00">Join %2 %6 (= #1 #2)</text>
<text text-anchor="start" x="239" y="-1508.3" font-family="Times,serif" font-size="14.00"> implementation = Unimplemented</text>
<text text-anchor="start" x="239" y="-1493.3" font-family="Times,serif" font-size="14.00"> types = (integer, integer, integer)</text>
<text text-anchor="start" x="239" y="-1478.3" font-family="Times,serif" font-size="14.00"> keys = ()</text>
<text text-anchor="start" x="239" y="-1463.3" font-family="Times,serif" font-size="14.00"> Project (#0, #1)</text>
<text text-anchor="start" x="239" y="-1448.3" font-family="Times,serif" font-size="14.00"> types = (integer, integer)</text>
<text text-anchor="start" x="239" y="-1433.3" font-family="Times,serif" font-size="14.00"> keys = ()</text>
<text text-anchor="start" x="239" y="-1418.3" font-family="Times,serif" font-size="14.00"> Negate</text>
<text text-anchor="start" x="239" y="-1403.3" font-family="Times,serif" font-size="14.00"> types = (integer, integer)</text>
<text text-anchor="start" x="239" y="-1388.3" font-family="Times,serif" font-size="14.00"> keys = ()</text>
</g>
<!-- node2&#45;&gt;node9 -->
<g id="edge27" class="edge">
<title>node2&#45;&gt;node9</title>
<path fill="none" stroke="black" d="M337.51,-2025.33C342.32,-1928.36 354.54,-1681.73 361.13,-1548.72"/>
<polygon fill="black" stroke="black" points="364.63,-1548.72 361.63,-1538.56 357.64,-1548.38 364.63,-1548.72"/>
<text text-anchor="start" x="349.5" y="-1770.8" font-family="Times,serif" font-size="14.00">%2</text>
</g>
<!-- node10 -->
<g id="node11" class="node">
<title>node10</title>
<polygon fill="none" stroke="black" points="170.5,-1208 170.5,-1306 508.5,-1306 508.5,-1208 170.5,-1208"/>
<text text-anchor="start" x="178.5" y="-1290.8" font-family="Times,serif" font-size="14.00">Union %9 %2</text>
<text text-anchor="start" x="178.5" y="-1275.8" font-family="Times,serif" font-size="14.00"> types = (integer, integer)</text>
<text text-anchor="start" x="178.5" y="-1260.8" font-family="Times,serif" font-size="14.00"> keys = ()</text>
<text text-anchor="start" x="178.5" y="-1245.8" font-family="Times,serif" font-size="14.00"> Map null, null</text>
<text text-anchor="start" x="178.5" y="-1230.8" font-family="Times,serif" font-size="14.00"> types = (integer, integer, integer?, integer?)</text>
<text text-anchor="start" x="178.5" y="-1215.8" font-family="Times,serif" font-size="14.00"> keys = ()</text>
</g>
<!-- node2&#45;&gt;node10 -->
<g id="edge4" class="edge">
<title>node2&#45;&gt;node10</title>
<path fill="none" stroke="black" d="M281.4,-2025.5C244.58,-1992.93 202.5,-1943.55 202.5,-1888 202.5,-1888 202.5,-1888 202.5,-1458.5 202.5,-1422.6 204.19,-1411.45 221.5,-1380 234.92,-1355.62 254.49,-1332.63 273.86,-1313.31"/>
<polygon fill="black" stroke="black" points="276.54,-1315.58 281.26,-1306.1 271.65,-1310.57 276.54,-1315.58"/>
<text text-anchor="start" x="202.5" y="-1665.8" font-family="Times,serif" font-size="14.00">%2</text>
</g>
<!-- node3 -->
<g id="node4" class="node">
<title>node3</title>
<polygon fill="none" stroke="black" points="562,-2168 562,-2221 771,-2221 771,-2168 562,-2168"/>
<text text-anchor="start" x="570" y="-2205.8" font-family="Times,serif" font-size="14.00">Get rej_nulls.public.s (u45)</text>
<text text-anchor="start" x="570" y="-2190.8" font-family="Times,serif" font-size="14.00"> types = (integer, integer)</text>
<text text-anchor="start" x="570" y="-2175.8" font-family="Times,serif" font-size="14.00"> keys = ()</text>
</g>
<!-- node3&#45;&gt;node4 -->
<g id="edge2" class="edge">
<title>node3&#45;&gt;node4</title>
<path fill="none" stroke="black" d="M666.5,-2167.8C666.5,-2153.79 666.5,-2135.93 666.5,-2119.2"/>
<polygon fill="black" stroke="black" points="670,-2118.98 666.5,-2108.98 663,-2118.98 670,-2118.98"/>
<text text-anchor="start" x="666.5" y="-2130.8" font-family="Times,serif" font-size="14.00">%3</text>
</g>
<!-- node4&#45;&gt;node5 -->
<g id="edge30" class="edge">
<title>node4&#45;&gt;node5</title>
<path fill="none" stroke="black" d="M644.71,-2025.16C637.84,-2012.29 629.94,-1997.5 621.93,-1982.5"/>
<polygon fill="black" stroke="black" points="625.01,-1980.83 617.21,-1973.65 618.83,-1984.12 625.01,-1980.83"/>
<text text-anchor="start" x="632.5" y="-1995.8" font-family="Times,serif" font-size="14.00">%4</text>
</g>
<!-- node7 -->
<g id="node8" class="node">
<title>node7</title>
<polygon fill="none" stroke="black" points="654,-1380.5 654,-1538.5 923,-1538.5 923,-1380.5 654,-1380.5"/>
<text text-anchor="start" x="662" y="-1523.3" font-family="Times,serif" font-size="14.00">Join %4 %6 (= #0 #2)</text>
<text text-anchor="start" x="662" y="-1508.3" font-family="Times,serif" font-size="14.00"> implementation = Unimplemented</text>
<text text-anchor="start" x="662" y="-1493.3" font-family="Times,serif" font-size="14.00"> types = (integer, integer, integer)</text>
<text text-anchor="start" x="662" y="-1478.3" font-family="Times,serif" font-size="14.00"> keys = ()</text>
<text text-anchor="start" x="662" y="-1463.3" font-family="Times,serif" font-size="14.00"> Project (#0, #1)</text>
<text text-anchor="start" x="662" y="-1448.3" font-family="Times,serif" font-size="14.00"> types = (integer, integer)</text>
<text text-anchor="start" x="662" y="-1433.3" font-family="Times,serif" font-size="14.00"> keys = ()</text>
<text text-anchor="start" x="662" y="-1418.3" font-family="Times,serif" font-size="14.00"> Negate</text>
<text text-anchor="start" x="662" y="-1403.3" font-family="Times,serif" font-size="14.00"> types = (integer, integer)</text>
<text text-anchor="start" x="662" y="-1388.3" font-family="Times,serif" font-size="14.00"> keys = ()</text>
</g>
<!-- node4&#45;&gt;node7 -->
<g id="edge26" class="edge">
<title>node4&#45;&gt;node7</title>
<path fill="none" stroke="black" d="M709.41,-2025.37C764.95,-1969.42 858.73,-1862.59 893.5,-1749 914.19,-1681.43 917.11,-1656.61 893.5,-1590 888.17,-1574.98 880.28,-1560.42 871.17,-1546.83"/>
<polygon fill="black" stroke="black" points="873.95,-1544.7 865.35,-1538.5 868.21,-1548.71 873.95,-1544.7"/>
<text text-anchor="start" x="886.5" y="-1770.8" font-family="Times,serif" font-size="14.00">%4</text>
</g>
<!-- node8 -->
<g id="node9" class="node">
<title>node8</title>
<polygon fill="none" stroke="black" points="619,-1185.5 619,-1328.5 958,-1328.5 958,-1185.5 619,-1185.5"/>
<text text-anchor="start" x="627" y="-1313.3" font-family="Times,serif" font-size="14.00">Union %7 %4</text>
<text text-anchor="start" x="627" y="-1298.3" font-family="Times,serif" font-size="14.00"> types = (integer, integer)</text>
<text text-anchor="start" x="627" y="-1283.3" font-family="Times,serif" font-size="14.00"> keys = ()</text>
<text text-anchor="start" x="627" y="-1268.3" font-family="Times,serif" font-size="14.00"> Map null, null</text>
<text text-anchor="start" x="627" y="-1253.3" font-family="Times,serif" font-size="14.00"> types = (integer, integer, integer?, integer?)</text>
<text text-anchor="start" x="627" y="-1238.3" font-family="Times,serif" font-size="14.00"> keys = ()</text>
<text text-anchor="start" x="627" y="-1223.3" font-family="Times,serif" font-size="14.00"> Project (#2, #3, #0, #1)</text>
<text text-anchor="start" x="627" y="-1208.3" font-family="Times,serif" font-size="14.00"> types = (integer?, integer?, integer, integer)</text>
<text text-anchor="start" x="627" y="-1193.3" font-family="Times,serif" font-size="14.00"> keys = ()</text>
</g>
<!-- node4&#45;&gt;node8 -->
<g id="edge8" class="edge">
<title>node4&#45;&gt;node8</title>
<path fill="none" stroke="black" d="M801.39,-2037.74C877.9,-2012.93 958.5,-1967.85 958.5,-1888 958.5,-1888 958.5,-1888 958.5,-1458.5 958.5,-1411.19 930.63,-1369.32 897.45,-1336.24"/>
<polygon fill="black" stroke="black" points="899.47,-1333.32 889.84,-1328.89 894.6,-1338.36 899.47,-1333.32"/>
<text text-anchor="start" x="958.5" y="-1665.8" font-family="Times,serif" font-size="14.00">%4</text>
</g>
<!-- node6 -->
<g id="node7" class="node">
<title>node6</title>
<polygon fill="none" stroke="black" points="563,-1590.5 563,-1748.5 884,-1748.5 884,-1590.5 563,-1590.5"/>
<text text-anchor="start" x="571" y="-1733.3" font-family="Times,serif" font-size="14.00">Let l4 =</text>
<text text-anchor="start" x="571" y="-1718.3" font-family="Times,serif" font-size="14.00"> Get %5 (l3)</text>
<text text-anchor="start" x="571" y="-1703.3" font-family="Times,serif" font-size="14.00"> types = (integer, integer, integer, integer)</text>
<text text-anchor="start" x="571" y="-1688.3" font-family="Times,serif" font-size="14.00"> keys = ()</text>
<text text-anchor="start" x="571" y="-1673.3" font-family="Times,serif" font-size="14.00"> Project (#1)</text>
<text text-anchor="start" x="571" y="-1658.3" font-family="Times,serif" font-size="14.00"> types = (integer)</text>
<text text-anchor="start" x="571" y="-1643.3" font-family="Times,serif" font-size="14.00"> keys = ()</text>
<text text-anchor="start" x="571" y="-1628.3" font-family="Times,serif" font-size="14.00"> Distinct group=(#0)</text>
<text text-anchor="start" x="571" y="-1613.3" font-family="Times,serif" font-size="14.00"> types = (integer)</text>
<text text-anchor="start" x="571" y="-1598.3" font-family="Times,serif" font-size="14.00"> keys = ((#0))</text>
</g>
<!-- node5&#45;&gt;node6 -->
<g id="edge25" class="edge">
<title>node5&#45;&gt;node6</title>
<path fill="none" stroke="black" d="M632.01,-1800.21C642.05,-1785.98 652.46,-1771.22 662.5,-1756.98"/>
<polygon fill="black" stroke="black" points="665.47,-1758.85 668.37,-1748.66 659.75,-1754.81 665.47,-1758.85"/>
<text text-anchor="start" x="651.5" y="-1770.8" font-family="Times,serif" font-size="14.00">%5</text>
</g>
<!-- node11 -->
<g id="node12" class="node">
<title>node11</title>
<polygon fill="none" stroke="black" points="408.5,-1080.5 408.5,-1133.5 746.5,-1133.5 746.5,-1080.5 408.5,-1080.5"/>
<text text-anchor="start" x="416.5" y="-1118.3" font-family="Times,serif" font-size="14.00">Union %10 %5</text>
<text text-anchor="start" x="416.5" y="-1103.3" font-family="Times,serif" font-size="14.00"> types = (integer, integer, integer?, integer?)</text>
<text text-anchor="start" x="416.5" y="-1088.3" font-family="Times,serif" font-size="14.00"> keys = ()</text>
</g>
<!-- node5&#45;&gt;node11 -->
<g id="edge15" class="edge">
<title>node5&#45;&gt;node11</title>
<path fill="none" stroke="black" d="M559.59,-1800.26C557.59,-1783.3 555.76,-1765.61 554.5,-1749 537.01,-1518.9 562.91,-1241.29 573.41,-1143.87"/>
<polygon fill="black" stroke="black" points="576.92,-1144.01 574.52,-1133.69 569.96,-1143.25 576.92,-1144.01"/>
<text text-anchor="start" x="553.5" y="-1455.8" font-family="Times,serif" font-size="14.00">%5</text>
</g>
<!-- node6&#45;&gt;node7 -->
<g id="edge17" class="edge">
<title>node6&#45;&gt;node7</title>
<path fill="none" stroke="black" d="M747.89,-1590.46C752.19,-1576.69 756.7,-1562.27 761.08,-1548.26"/>
<polygon fill="black" stroke="black" points="764.44,-1549.22 764.08,-1538.63 757.76,-1547.14 764.44,-1549.22"/>
<text text-anchor="start" x="757.5" y="-1560.8" font-family="Times,serif" font-size="14.00">%6</text>
</g>
<!-- node6&#45;&gt;node9 -->
<g id="edge9" class="edge">
<title>node6&#45;&gt;node9</title>
<path fill="none" stroke="black" d="M589.18,-1590.46C562.97,-1575.23 535.4,-1559.22 508.92,-1543.83"/>
<polygon fill="black" stroke="black" points="510.39,-1540.63 499.98,-1538.63 506.87,-1546.68 510.39,-1540.63"/>
<text text-anchor="start" x="554.5" y="-1560.8" font-family="Times,serif" font-size="14.00">%6</text>
</g>
<!-- node7&#45;&gt;node8 -->
<g id="edge14" class="edge">
<title>node7&#45;&gt;node8</title>
<path fill="none" stroke="black" d="M788.5,-1380.41C788.5,-1366.83 788.5,-1352.67 788.5,-1339.02"/>
<polygon fill="black" stroke="black" points="792,-1338.69 788.5,-1328.69 785,-1338.69 792,-1338.69"/>
<text text-anchor="start" x="788.5" y="-1350.8" font-family="Times,serif" font-size="14.00">%7</text>
</g>
<!-- node12 -->
<g id="node13" class="node">
<title>node12</title>
<polygon fill="none" stroke="black" points="424.5,-953 424.5,-1021 780.5,-1021 780.5,-953 424.5,-953"/>
<text text-anchor="start" x="432.5" y="-1005.8" font-family="Times,serif" font-size="14.00">Let l5 =</text>
<text text-anchor="start" x="432.5" y="-990.8" font-family="Times,serif" font-size="14.00"> Union %8 %11</text>
<text text-anchor="start" x="432.5" y="-975.8" font-family="Times,serif" font-size="14.00"> types = (integer?, integer?, integer?, integer?)</text>
<text text-anchor="start" x="432.5" y="-960.8" font-family="Times,serif" font-size="14.00"> keys = ()</text>
</g>
<!-- node8&#45;&gt;node12 -->
<g id="edge29" class="edge">
<title>node8&#45;&gt;node12</title>
<path fill="none" stroke="black" d="M788.44,-1185.27C785.3,-1150.88 776.7,-1110.51 755.5,-1080 740.05,-1057.77 717.33,-1040 694.11,-1026.23"/>
<polygon fill="black" stroke="black" points="695.61,-1023.07 685.19,-1021.15 692.15,-1029.15 695.61,-1023.07"/>
<text text-anchor="start" x="778.5" y="-1103.3" font-family="Times,serif" font-size="14.00">%8</text>
</g>
<!-- node9&#45;&gt;node10 -->
<g id="edge3" class="edge">
<title>node9&#45;&gt;node10</title>
<path fill="none" stroke="black" d="M355.37,-1380.41C352.59,-1358.96 349.63,-1336.09 347.02,-1315.99"/>
<polygon fill="black" stroke="black" points="350.49,-1315.53 345.73,-1306.06 343.55,-1316.43 350.49,-1315.53"/>
<text text-anchor="start" x="352.5" y="-1350.8" font-family="Times,serif" font-size="14.00">%9</text>
</g>
<!-- node10&#45;&gt;node11 -->
<g id="edge16" class="edge">
<title>node10&#45;&gt;node11</title>
<path fill="none" stroke="black" d="M405.13,-1207.94C431.19,-1189.62 461.76,-1169.06 490.5,-1152 498.3,-1147.37 506.65,-1142.75 514.98,-1138.33"/>
<polygon fill="black" stroke="black" points="516.73,-1141.37 523.98,-1133.64 513.49,-1135.16 516.73,-1141.37"/>
<text text-anchor="start" x="490.5" y="-1155.8" font-family="Times,serif" font-size="14.00">%10</text>
</g>
<!-- node11&#45;&gt;node12 -->
<g id="edge6" class="edge">
<title>node11&#45;&gt;node12</title>
<path fill="none" stroke="black" d="M582.92,-1080.4C585.97,-1066.03 589.85,-1047.71 593.35,-1031.19"/>
<polygon fill="black" stroke="black" points="596.82,-1031.69 595.47,-1021.18 589.97,-1030.24 596.82,-1031.69"/>
<text text-anchor="start" x="589.5" y="-1050.8" font-family="Times,serif" font-size="14.00">%11</text>
</g>
<!-- node15 -->
<g id="node16" class="node">
<title>node15</title>
<polygon fill="none" stroke="black" points="335.5,-720.5 335.5,-893.5 827.5,-893.5 827.5,-720.5 335.5,-720.5"/>
<text text-anchor="start" x="343.5" y="-878.3" font-family="Times,serif" font-size="14.00">Let l7 =</text>
<text text-anchor="start" x="343.5" y="-863.3" font-family="Times,serif" font-size="14.00"> Join %12 %14</text>
<text text-anchor="start" x="343.5" y="-848.3" font-family="Times,serif" font-size="14.00"> implementation = Unimplemented</text>
<text text-anchor="start" x="343.5" y="-833.3" font-family="Times,serif" font-size="14.00"> types = (integer?, integer?, integer?, integer?, integer?, integer?)</text>
<text text-anchor="start" x="343.5" y="-818.3" font-family="Times,serif" font-size="14.00"> keys = ()</text>
<text text-anchor="start" x="343.5" y="-803.3" font-family="Times,serif" font-size="14.00"> Project (#0..#5)</text>
<text text-anchor="start" x="343.5" y="-788.3" font-family="Times,serif" font-size="14.00"> types = (integer?, integer?, integer?, integer?, integer?, integer?)</text>
<text text-anchor="start" x="343.5" y="-773.3" font-family="Times,serif" font-size="14.00"> keys = ()</text>
<text text-anchor="start" x="343.5" y="-758.3" font-family="Times,serif" font-size="14.00"> Filter (#2 = #5)</text>
<text text-anchor="start" x="343.5" y="-743.3" font-family="Times,serif" font-size="14.00"> types = (integer?, integer?, integer, integer?, integer?, integer)</text>
<text text-anchor="start" x="343.5" y="-728.3" font-family="Times,serif" font-size="14.00"> keys = ()</text>
</g>
<!-- node12&#45;&gt;node15 -->
<g id="edge28" class="edge">
<title>node12&#45;&gt;node15</title>
<path fill="none" stroke="black" d="M598.6,-952.94C596.94,-938.9 594.92,-921.74 592.85,-904.21"/>
<polygon fill="black" stroke="black" points="596.28,-903.39 591.63,-893.87 589.33,-904.21 596.28,-903.39"/>
<text text-anchor="start" x="594.5" y="-915.8" font-family="Times,serif" font-size="14.00">%12</text>
</g>
<!-- node13 -->
<g id="node14" class="node">
<title>node13</title>
<polygon fill="none" stroke="black" points="171,-1080.5 171,-1133.5 390,-1133.5 390,-1080.5 171,-1080.5"/>
<text text-anchor="start" x="179" y="-1118.3" font-family="Times,serif" font-size="14.00">Get rej_nulls.public.t (u47)</text>
<text text-anchor="start" x="179" y="-1103.3" font-family="Times,serif" font-size="14.00"> types = (integer?, integer?)</text>
<text text-anchor="start" x="179" y="-1088.3" font-family="Times,serif" font-size="14.00"> keys = ()</text>
</g>
<!-- node13&#45;&gt;node14 -->
<g id="edge1" class="edge">
<title>node13&#45;&gt;node14</title>
<path fill="none" stroke="black" d="M278.55,-1080.4C277.62,-1068.29 276.49,-1053.38 275.4,-1039.1"/>
<polygon fill="black" stroke="black" points="278.87,-1038.57 274.62,-1028.86 271.89,-1039.1 278.87,-1038.57"/>
<text text-anchor="start" x="276.5" y="-1050.8" font-family="Times,serif" font-size="14.00">%13</text>
</g>
<!-- node14&#45;&gt;node15 -->
<g id="edge22" class="edge">
<title>node14&#45;&gt;node15</title>
<path fill="none" stroke="black" d="M342.23,-945.39C366.6,-931.39 394.97,-915.1 423.47,-898.74"/>
<polygon fill="black" stroke="black" points="425.39,-901.67 432.32,-893.66 421.91,-895.6 425.39,-901.67"/>
<text text-anchor="start" x="398.5" y="-915.8" font-family="Times,serif" font-size="14.00">%14</text>
</g>
<!-- node17 -->
<g id="node18" class="node">
<title>node17</title>
<polygon fill="none" stroke="black" points="322.5,-300.5 322.5,-458.5 602.5,-458.5 602.5,-300.5 322.5,-300.5"/>
<text text-anchor="start" x="330.5" y="-443.3" font-family="Times,serif" font-size="14.00">Join %14 %16 (= #1 #2)</text>
<text text-anchor="start" x="330.5" y="-428.3" font-family="Times,serif" font-size="14.00"> implementation = Unimplemented</text>
<text text-anchor="start" x="330.5" y="-413.3" font-family="Times,serif" font-size="14.00"> types = (integer?, integer?, integer)</text>
<text text-anchor="start" x="330.5" y="-398.3" font-family="Times,serif" font-size="14.00"> keys = ()</text>
<text text-anchor="start" x="330.5" y="-383.3" font-family="Times,serif" font-size="14.00"> Project (#0, #1)</text>
<text text-anchor="start" x="330.5" y="-368.3" font-family="Times,serif" font-size="14.00"> types = (integer?, integer?)</text>
<text text-anchor="start" x="330.5" y="-353.3" font-family="Times,serif" font-size="14.00"> keys = ()</text>
<text text-anchor="start" x="330.5" y="-338.3" font-family="Times,serif" font-size="14.00"> Negate</text>
<text text-anchor="start" x="330.5" y="-323.3" font-family="Times,serif" font-size="14.00"> types = (integer?, integer?)</text>
<text text-anchor="start" x="330.5" y="-308.3" font-family="Times,serif" font-size="14.00"> keys = ()</text>
</g>
<!-- node14&#45;&gt;node17 -->
<g id="edge23" class="edge">
<title>node14&#45;&gt;node17</title>
<path fill="none" stroke="black" d="M269.61,-945.45C265.58,-844.59 259.4,-585.18 298.5,-510 306.83,-493.98 318.13,-479.29 330.91,-466.02"/>
<polygon fill="black" stroke="black" points="333.55,-468.34 338.16,-458.8 328.61,-463.38 333.55,-468.34"/>
<text text-anchor="start" x="268.5" y="-690.8" font-family="Times,serif" font-size="14.00">%14</text>
</g>
<!-- node18 -->
<g id="node19" class="node">
<title>node18</title>
<polygon fill="none" stroke="black" points="216.5,-105.5 216.5,-248.5 708.5,-248.5 708.5,-105.5 216.5,-105.5"/>
<text text-anchor="start" x="224.5" y="-233.3" font-family="Times,serif" font-size="14.00">Union %17 %14</text>
<text text-anchor="start" x="224.5" y="-218.3" font-family="Times,serif" font-size="14.00"> types = (integer?, integer?)</text>
<text text-anchor="start" x="224.5" y="-203.3" font-family="Times,serif" font-size="14.00"> keys = ()</text>
<text text-anchor="start" x="224.5" y="-188.3" font-family="Times,serif" font-size="14.00"> Map null, null, null, null</text>
<text text-anchor="start" x="224.5" y="-173.3" font-family="Times,serif" font-size="14.00"> types = (integer?, integer?, integer?, integer?, integer?, integer?)</text>
<text text-anchor="start" x="224.5" y="-158.3" font-family="Times,serif" font-size="14.00"> keys = ()</text>
<text text-anchor="start" x="224.5" y="-143.3" font-family="Times,serif" font-size="14.00"> Project (#2..#5, #0, #1)</text>
<text text-anchor="start" x="224.5" y="-128.3" font-family="Times,serif" font-size="14.00"> types = (integer?, integer?, integer?, integer?, integer?, integer?)</text>
<text text-anchor="start" x="224.5" y="-113.3" font-family="Times,serif" font-size="14.00"> keys = ()</text>
</g>
<!-- node14&#45;&gt;node18 -->
<g id="edge19" class="edge">
<title>node14&#45;&gt;node18</title>
<path fill="none" stroke="black" d="M252.43,-945.26C237.59,-909.81 219.5,-856.61 219.5,-808 219.5,-808 219.5,-808 219.5,-378.5 219.5,-326.48 253.05,-285.43 295.21,-254.39"/>
<polygon fill="black" stroke="black" points="297.35,-257.16 303.47,-248.51 293.29,-251.46 297.35,-257.16"/>
<text text-anchor="start" x="219.5" y="-585.8" font-family="Times,serif" font-size="14.00">%14</text>
</g>
<!-- node16 -->
<g id="node17" class="node">
<title>node16</title>
<polygon fill="none" stroke="black" points="307.5,-510.5 307.5,-668.5 783.5,-668.5 783.5,-510.5 307.5,-510.5"/>
<text text-anchor="start" x="315.5" y="-653.3" font-family="Times,serif" font-size="14.00">Let l8 =</text>
<text text-anchor="start" x="315.5" y="-638.3" font-family="Times,serif" font-size="14.00"> Get %15 (l7)</text>
<text text-anchor="start" x="315.5" y="-623.3" font-family="Times,serif" font-size="14.00"> types = (integer?, integer?, integer, integer?, integer?, integer)</text>
<text text-anchor="start" x="315.5" y="-608.3" font-family="Times,serif" font-size="14.00"> keys = ()</text>
<text text-anchor="start" x="315.5" y="-593.3" font-family="Times,serif" font-size="14.00"> Project (#2)</text>
<text text-anchor="start" x="315.5" y="-578.3" font-family="Times,serif" font-size="14.00"> types = (integer)</text>
<text text-anchor="start" x="315.5" y="-563.3" font-family="Times,serif" font-size="14.00"> keys = ()</text>
<text text-anchor="start" x="315.5" y="-548.3" font-family="Times,serif" font-size="14.00"> Distinct group=(#0)</text>
<text text-anchor="start" x="315.5" y="-533.3" font-family="Times,serif" font-size="14.00"> types = (integer)</text>
<text text-anchor="start" x="315.5" y="-518.3" font-family="Times,serif" font-size="14.00"> keys = ((#0))</text>
</g>
<!-- node15&#45;&gt;node16 -->
<g id="edge24" class="edge">
<title>node15&#45;&gt;node16</title>
<path fill="none" stroke="black" d="M567.17,-720.21C564.88,-706.51 562.51,-692.32 560.21,-678.58"/>
<polygon fill="black" stroke="black" points="563.66,-677.95 558.56,-668.66 556.75,-679.1 563.66,-677.95"/>
<text text-anchor="start" x="563.5" y="-690.8" font-family="Times,serif" font-size="14.00">%15</text>
</g>
<!-- node19 -->
<g id="node20" class="node">
<title>node19</title>
<polygon fill="none" stroke="black" points="353.5,-0.5 353.5,-53.5 845.5,-53.5 845.5,-0.5 353.5,-0.5"/>
<text text-anchor="start" x="361.5" y="-38.3" font-family="Times,serif" font-size="14.00">Union %18 %15</text>
<text text-anchor="start" x="361.5" y="-23.3" font-family="Times,serif" font-size="14.00"> types = (integer?, integer?, integer?, integer?, integer?, integer?)</text>
<text text-anchor="start" x="361.5" y="-8.3" font-family="Times,serif" font-size="14.00"> keys = ()</text>
</g>
<!-- node15&#45;&gt;node19 -->
<g id="edge21" class="edge">
<title>node15&#45;&gt;node19</title>
<path fill="none" stroke="black" d="M743.1,-720.46C761.76,-705.31 778.93,-688.16 792.5,-669 813.25,-639.71 811.5,-626.4 811.5,-590.5 811.5,-590.5 811.5,-590.5 811.5,-176 811.5,-117.13 755.85,-79.73 701.57,-57.26"/>
<polygon fill="black" stroke="black" points="702.76,-53.96 692.18,-53.51 700.17,-60.46 702.76,-53.96"/>
<text text-anchor="start" x="811.5" y="-375.8" font-family="Times,serif" font-size="14.00">%15</text>
</g>
<!-- node16&#45;&gt;node17 -->
<g id="edge7" class="edge">
<title>node16&#45;&gt;node17</title>
<path fill="none" stroke="black" d="M514.36,-510.46C508.86,-496.69 503.11,-482.27 497.52,-468.26"/>
<polygon fill="black" stroke="black" points="500.64,-466.63 493.68,-458.63 494.13,-469.22 500.64,-466.63"/>
<text text-anchor="start" x="505.5" y="-480.8" font-family="Times,serif" font-size="14.00">%16</text>
</g>
<!-- node17&#45;&gt;node18 -->
<g id="edge5" class="edge">
<title>node17&#45;&gt;node18</title>
<path fill="none" stroke="black" d="M462.5,-300.41C462.5,-286.83 462.5,-272.67 462.5,-259.02"/>
<polygon fill="black" stroke="black" points="466,-258.69 462.5,-248.69 459,-258.69 466,-258.69"/>
<text text-anchor="start" x="462.5" y="-270.8" font-family="Times,serif" font-size="14.00">%17</text>
</g>
<!-- node18&#45;&gt;node19 -->
<g id="edge10" class="edge">
<title>node18&#45;&gt;node19</title>
<path fill="none" stroke="black" d="M527.79,-105.47C542.08,-90.03 556.55,-74.4 568.72,-61.25"/>
<polygon fill="black" stroke="black" points="571.37,-63.54 575.6,-53.82 566.24,-58.78 571.37,-63.54"/>
<text text-anchor="start" x="554.5" y="-75.8" font-family="Times,serif" font-size="14.00">%18</text>
</g>
</g>
</svg>
