<?xml version="1.0" encoding="UTF-8" standalone="no"?>
<!DOCTYPE svg PUBLIC "-//W3C//DTD SVG 1.1//EN"
 "http://www.w3.org/Graphics/SVG/1.1/DTD/svg11.dtd">
<!-- Generated by graphviz version 2.43.0 (0)
 -->
<!-- Title: G Pages: 1 -->
<svg width="641pt" height="272pt"
 viewBox="0.00 0.00 641.00 272.00" xmlns="http://www.w3.org/2000/svg" xmlns:xlink="http://www.w3.org/1999/xlink">
<g id="graph0" class="graph" transform="scale(1 1) rotate(0) translate(4 268)">
<title>G</title>
<polygon fill="white" stroke="transparent" points="-4,4 -4,-268 637,-268 637,4 -4,4"/>
<!-- node0 -->
<g id="node1" class="node">
<title>node0</title>
<polygon fill="none" stroke="black" points="0,-210.5 0,-263.5 209,-263.5 209,-210.5 0,-210.5"/>
<text text-anchor="start" x="8" y="-248.3" font-family="Times,serif" font-size="14.00">Get rej_nulls.public.r (u43)</text>
<text text-anchor="start" x="8" y="-233.3" font-family="Times,serif" font-size="14.00"> types = (integer, integer)</text>
<text text-anchor="start" x="8" y="-218.3" font-family="Times,serif" font-size="14.00"> keys = ()</text>
</g>
<!-- node2 -->
<g id="node3" class="node">
<title>node2</title>
<polygon fill="none" stroke="black" points="39.5,-105.5 39.5,-158.5 395.5,-158.5 395.5,-105.5 39.5,-105.5"/>
<text text-anchor="start" x="47.5" y="-143.3" font-family="Times,serif" font-size="14.00">FullOuterJoin %0 %1 on (#1 = #2)</text>
<text text-anchor="start" x="47.5" y="-128.3" font-family="Times,serif" font-size="14.00"> types = (integer?, integer?, integer?, integer?)</text>
<text text-anchor="start" x="47.5" y="-113.3" font-family="Times,serif" font-size="14.00"> keys = ()</text>
</g>
<!-- node0&#45;&gt;node2 -->
<g id="edge2" class="edge">
<title>node0&#45;&gt;node2</title>
<path fill="none" stroke="black" d="M132.72,-210.27C147.55,-196.76 165.89,-180.05 181.71,-165.63"/>
<polygon fill="black" stroke="black" points="184.21,-168.08 189.24,-158.75 179.5,-162.9 184.21,-168.08"/>
<text text-anchor="start" x="168.5" y="-180.8" font-family="Times,serif" font-size="14.00">%0</text>
</g>
<!-- node1 -->
<g id="node2" class="node">
<title>node1</title>
<polygon fill="none" stroke="black" points="227,-210.5 227,-263.5 436,-263.5 436,-210.5 227,-210.5"/>
<text text-anchor="start" x="235" y="-248.3" font-family="Times,serif" font-size="14.00">Get rej_nulls.public.s (u45)</text>
<text text-anchor="start" x="235" y="-233.3" font-family="Times,serif" font-size="14.00"> types = (integer, integer)</text>
<text text-anchor="start" x="235" y="-218.3" font-family="Times,serif" font-size="14.00"> keys = ()</text>
</g>
<!-- node1&#45;&gt;node2 -->
<g id="edge1" class="edge">
<title>node1&#45;&gt;node2</title>
<path fill="none" stroke="black" d="M303.03,-210.27C288.06,-196.76 269.57,-180.05 253.61,-165.63"/>
<polygon fill="black" stroke="black" points="255.77,-162.86 246.01,-158.75 251.08,-168.06 255.77,-162.86"/>
<text text-anchor="start" x="281.5" y="-180.8" font-family="Times,serif" font-size="14.00">%1</text>
</g>
<!-- node4 -->
<g id="node5" class="node">
<title>node4</title>
<polygon fill="none" stroke="black" points="124.5,-0.5 124.5,-53.5 616.5,-53.5 616.5,-0.5 124.5,-0.5"/>
<text text-anchor="start" x="132.5" y="-38.3" font-family="Times,serif" font-size="14.00">RightOuterJoin %2 %3 on (#2 = #5)</text>
<text text-anchor="start" x="132.5" y="-23.3" font-family="Times,serif" font-size="14.00"> types = (integer?, integer?, integer?, integer?, integer?, integer?)</text>
<text text-anchor="start" x="132.5" y="-8.3" font-family="Times,serif" font-size="14.00"> keys = ()</text>
</g>
<!-- node2&#45;&gt;node4 -->
<g id="edge3" class="edge">
<title>node2&#45;&gt;node4</title>
<path fill="none" stroke="black" d="M255.71,-105.27C276.42,-91.33 302.17,-74 324.03,-59.28"/>
<polygon fill="black" stroke="black" points="326.17,-62.06 332.51,-53.58 322.26,-56.26 326.17,-62.06"/>
<text text-anchor="start" x="302.5" y="-75.8" font-family="Times,serif" font-size="14.00">%2</text>
</g>
<!-- node3 -->
<g id="node4" class="node">
<title>node3</title>
<polygon fill="none" stroke="black" points="414,-105.5 414,-158.5 633,-158.5 633,-105.5 414,-105.5"/>
<text text-anchor="start" x="422" y="-143.3" font-family="Times,serif" font-size="14.00">Get rej_nulls.public.t (u47)</text>
<text text-anchor="start" x="422" y="-128.3" font-family="Times,serif" font-size="14.00"> types = (integer?, integer?)</text>
<text text-anchor="start" x="422" y="-113.3" font-family="Times,serif" font-size="14.00"> keys = ()</text>
</g>
<!-- node3&#45;&gt;node4 -->
<g id="edge4" class="edge">
<title>node3&#45;&gt;node4</title>
<path fill="none" stroke="black" d="M485.29,-105.27C464.58,-91.33 438.83,-74 416.97,-59.28"/>
<polygon fill="black" stroke="black" points="418.74,-56.26 408.49,-53.58 414.83,-62.06 418.74,-56.26"/>
<text text-anchor="start" x="455.5" y="-75.8" font-family="Times,serif" font-size="14.00">%3</text>
</g>
</g>
</svg>
