<?xml version="1.0" encoding="UTF-8" standalone="no"?>
<!DOCTYPE svg PUBLIC "-//W3C//DTD SVG 1.1//EN"
 "http://www.w3.org/Graphics/SVG/1.1/DTD/svg11.dtd">
<!-- Generated by graphviz version 2.43.0 (0)
 -->
<!-- Title: G Pages: 1 -->
<svg width="1018pt" height="2180pt"
 viewBox="0.00 0.00 1017.50 2180.00" xmlns="http://www.w3.org/2000/svg" xmlns:xlink="http://www.w3.org/1999/xlink">
<g id="graph0" class="graph" transform="scale(1 1) rotate(0) translate(4 2176)">
<title>G</title>
<polygon fill="white" stroke="transparent" points="-4,4 -4,-2176 1013.5,-2176 1013.5,4 -4,4"/>
<!-- node0 -->
<g id="node1" class="node">
<title>node0</title>
<polygon fill="none" stroke="black" points="0,-2073.5 0,-2171.5 209,-2171.5 209,-2073.5 0,-2073.5"/>
<text text-anchor="start" x="8" y="-2156.3" font-family="Times,serif" font-size="14.00">Get rej_nulls.public.r (u43)</text>
<text text-anchor="start" x="8" y="-2141.3" font-family="Times,serif" font-size="14.00"> types = (integer, integer)</text>
<text text-anchor="start" x="8" y="-2126.3" font-family="Times,serif" font-size="14.00"> keys = ()</text>
<text text-anchor="start" x="8" y="-2111.3" font-family="Times,serif" font-size="14.00"> ArrangeBy (#1)</text>
<text text-anchor="start" x="8" y="-2096.3" font-family="Times,serif" font-size="14.00"> types = (integer, integer)</text>
<text text-anchor="start" x="8" y="-2081.3" font-family="Times,serif" font-size="14.00"> keys = ()</text>
</g>
<!-- node2 -->
<g id="node3" class="node">
<title>node2</title>
<polygon fill="none" stroke="black" points="54.5,-1893.5 54.5,-2021.5 380.5,-2021.5 380.5,-1893.5 54.5,-1893.5"/>
<text text-anchor="start" x="62.5" y="-2006.3" font-family="Times,serif" font-size="14.00">Let l0 =</text>
<text text-anchor="start" x="62.5" y="-1991.3" font-family="Times,serif" font-size="14.00"> Join %0 %1 (= #1 #2)</text>
<text text-anchor="start" x="62.5" y="-1976.3" font-family="Times,serif" font-size="14.00"> implementation = Differential %1 %0.(#1)</text>
<text text-anchor="start" x="62.5" y="-1961.3" font-family="Times,serif" font-size="14.00"> types = (integer, integer, integer, integer)</text>
<text text-anchor="start" x="62.5" y="-1946.3" font-family="Times,serif" font-size="14.00"> keys = ()</text>
<text text-anchor="start" x="62.5" y="-1931.3" font-family="Times,serif" font-size="14.00"> Project (#0, #1, #3)</text>
<text text-anchor="start" x="62.5" y="-1916.3" font-family="Times,serif" font-size="14.00"> types = (integer, integer, integer)</text>
<text text-anchor="start" x="62.5" y="-1901.3" font-family="Times,serif" font-size="14.00"> keys = ()</text>
</g>
<!-- node0&#45;&gt;node2 -->
<g id="edge7" class="edge">
<title>node0&#45;&gt;node2</title>
<path fill="none" stroke="black" d="M137.79,-2073.48C147.21,-2059.9 157.66,-2044.81 167.82,-2030.16"/>
<polygon fill="black" stroke="black" points="170.93,-2031.81 173.76,-2021.6 165.18,-2027.82 170.93,-2031.81"/>
<text text-anchor="start" x="161.5" y="-2043.8" font-family="Times,serif" font-size="14.00">%0</text>
</g>
<!-- node1 -->
<g id="node2" class="node">
<title>node1</title>
<polygon fill="none" stroke="black" points="227,-2096 227,-2149 436,-2149 436,-2096 227,-2096"/>
<text text-anchor="start" x="235" y="-2133.8" font-family="Times,serif" font-size="14.00">Get rej_nulls.public.s (u45)</text>
<text text-anchor="start" x="235" y="-2118.8" font-family="Times,serif" font-size="14.00"> types = (integer, integer)</text>
<text text-anchor="start" x="235" y="-2103.8" font-family="Times,serif" font-size="14.00"> keys = ()</text>
</g>
<!-- node1&#45;&gt;node2 -->
<g id="edge11" class="edge">
<title>node1&#45;&gt;node2</title>
<path fill="none" stroke="black" d="M313.44,-2095.67C301.02,-2077.93 283.89,-2053.43 267.54,-2030.05"/>
<polygon fill="black" stroke="black" points="270.4,-2028.03 261.8,-2021.84 264.66,-2032.04 270.4,-2028.03"/>
<text text-anchor="start" x="284.5" y="-2043.8" font-family="Times,serif" font-size="14.00">%1</text>
</g>
<!-- node4 -->
<g id="node5" class="node">
<title>node4</title>
<polygon fill="none" stroke="black" points="473.5,-1653.5 473.5,-1841.5 735.5,-1841.5 735.5,-1653.5 473.5,-1653.5"/>
<text text-anchor="start" x="481.5" y="-1826.3" font-family="Times,serif" font-size="14.00">Get %2 (l0)</text>
<text text-anchor="start" x="481.5" y="-1811.3" font-family="Times,serif" font-size="14.00"> types = (integer, integer, integer)</text>
<text text-anchor="start" x="481.5" y="-1796.3" font-family="Times,serif" font-size="14.00"> keys = ()</text>
<text text-anchor="start" x="481.5" y="-1781.3" font-family="Times,serif" font-size="14.00"> Project (#1)</text>
<text text-anchor="start" x="481.5" y="-1766.3" font-family="Times,serif" font-size="14.00"> types = (integer)</text>
<text text-anchor="start" x="481.5" y="-1751.3" font-family="Times,serif" font-size="14.00"> keys = ()</text>
<text text-anchor="start" x="481.5" y="-1736.3" font-family="Times,serif" font-size="14.00"> Distinct group=(#0)</text>
<text text-anchor="start" x="481.5" y="-1721.3" font-family="Times,serif" font-size="14.00"> types = (integer)</text>
<text text-anchor="start" x="481.5" y="-1706.3" font-family="Times,serif" font-size="14.00"> keys = ((#0))</text>
<text text-anchor="start" x="481.5" y="-1691.3" font-family="Times,serif" font-size="14.00"> ArrangeBy (#0)</text>
<text text-anchor="start" x="481.5" y="-1676.3" font-family="Times,serif" font-size="14.00"> types = (integer)</text>
<text text-anchor="start" x="481.5" y="-1661.3" font-family="Times,serif" font-size="14.00"> keys = ((#0))</text>
</g>
<!-- node2&#45;&gt;node4 -->
<g id="edge17" class="edge">
<title>node2&#45;&gt;node4</title>
<path fill="none" stroke="black" d="M363.38,-1893.43C397.09,-1877.61 432.45,-1859.99 464.5,-1842 464.59,-1841.95 464.68,-1841.9 464.77,-1841.85"/>
<polygon fill="black" stroke="black" points="466.4,-1844.95 473.34,-1836.95 462.92,-1838.87 466.4,-1844.95"/>
<text text-anchor="start" x="424.5" y="-1863.8" font-family="Times,serif" font-size="14.00">%2</text>
</g>
<!-- node8 -->
<g id="node9" class="node">
<title>node8</title>
<polygon fill="none" stroke="black" points="9,-1536.5 9,-1634.5 330,-1634.5 330,-1536.5 9,-1536.5"/>
<text text-anchor="start" x="17" y="-1619.3" font-family="Times,serif" font-size="14.00">Get %2 (l0)</text>
<text text-anchor="start" x="17" y="-1604.3" font-family="Times,serif" font-size="14.00"> types = (integer, integer, integer)</text>
<text text-anchor="start" x="17" y="-1589.3" font-family="Times,serif" font-size="14.00"> keys = ()</text>
<text text-anchor="start" x="17" y="-1574.3" font-family="Times,serif" font-size="14.00"> Project (#0, #1, #1, #2)</text>
<text text-anchor="start" x="17" y="-1559.3" font-family="Times,serif" font-size="14.00"> types = (integer, integer, integer, integer)</text>
<text text-anchor="start" x="17" y="-1544.3" font-family="Times,serif" font-size="14.00"> keys = ()</text>
</g>
<!-- node2&#45;&gt;node8 -->
<g id="edge12" class="edge">
<title>node2&#45;&gt;node8</title>
<path fill="none" stroke="black" d="M209.3,-1893.32C200.26,-1823.62 185.83,-1712.41 177.06,-1644.75"/>
<polygon fill="black" stroke="black" points="180.51,-1644.15 175.75,-1634.69 173.57,-1645.05 180.51,-1644.15"/>
<text text-anchor="start" x="206.5" y="-1863.8" font-family="Times,serif" font-size="14.00">%2</text>
</g>
<!-- node3 -->
<g id="node4" class="node">
<title>node3</title>
<polygon fill="none" stroke="black" points="246,-1721 246,-1774 455,-1774 455,-1721 246,-1721"/>
<text text-anchor="start" x="254" y="-1758.8" font-family="Times,serif" font-size="14.00">Get rej_nulls.public.s (u45)</text>
<text text-anchor="start" x="254" y="-1743.8" font-family="Times,serif" font-size="14.00"> types = (integer, integer)</text>
<text text-anchor="start" x="254" y="-1728.8" font-family="Times,serif" font-size="14.00"> keys = ()</text>
</g>
<!-- node5 -->
<g id="node6" class="node">
<title>node5</title>
<polygon fill="none" stroke="black" points="434.5,-1359.5 434.5,-1517.5 760.5,-1517.5 760.5,-1359.5 434.5,-1359.5"/>
<text text-anchor="start" x="442.5" y="-1502.3" font-family="Times,serif" font-size="14.00">Join %3 %4 (= #0 #2)</text>
<text text-anchor="start" x="442.5" y="-1487.3" font-family="Times,serif" font-size="14.00"> implementation = Differential %3 %4.(#0)</text>
<text text-anchor="start" x="442.5" y="-1472.3" font-family="Times,serif" font-size="14.00"> types = (integer, integer, integer)</text>
<text text-anchor="start" x="442.5" y="-1457.3" font-family="Times,serif" font-size="14.00"> keys = ()</text>
<text text-anchor="start" x="442.5" y="-1442.3" font-family="Times,serif" font-size="14.00"> Project (#0, #1)</text>
<text text-anchor="start" x="442.5" y="-1427.3" font-family="Times,serif" font-size="14.00"> types = (integer, integer)</text>
<text text-anchor="start" x="442.5" y="-1412.3" font-family="Times,serif" font-size="14.00"> keys = ()</text>
<text text-anchor="start" x="442.5" y="-1397.3" font-family="Times,serif" font-size="14.00"> Negate</text>
<text text-anchor="start" x="442.5" y="-1382.3" font-family="Times,serif" font-size="14.00"> types = (integer, integer)</text>
<text text-anchor="start" x="442.5" y="-1367.3" font-family="Times,serif" font-size="14.00"> keys = ()</text>
</g>
<!-- node3&#45;&gt;node5 -->
<g id="edge13" class="edge">
<title>node3&#45;&gt;node5</title>
<path fill="none" stroke="black" d="M371.13,-1720.85C405.28,-1678.41 475.05,-1591.69 528.16,-1525.69"/>
<polygon fill="black" stroke="black" points="531.01,-1527.73 534.55,-1517.74 525.55,-1523.34 531.01,-1527.73"/>
<text text-anchor="start" x="517.5" y="-1581.8" font-family="Times,serif" font-size="14.00">%3</text>
</g>
<!-- node4&#45;&gt;node5 -->
<g id="edge20" class="edge">
<title>node4&#45;&gt;node5</title>
<path fill="none" stroke="black" d="M602.37,-1653.14C601.46,-1613.3 600.41,-1567.04 599.51,-1527.77"/>
<polygon fill="black" stroke="black" points="603.01,-1527.61 599.28,-1517.69 596.01,-1527.76 603.01,-1527.61"/>
<text text-anchor="start" x="601.5" y="-1581.8" font-family="Times,serif" font-size="14.00">%4</text>
</g>
<!-- node7 -->
<g id="node8" class="node">
<title>node7</title>
<polygon fill="none" stroke="black" points="198,-1164.5 198,-1307.5 537,-1307.5 537,-1164.5 198,-1164.5"/>
<text text-anchor="start" x="206" y="-1292.3" font-family="Times,serif" font-size="14.00">Union %5 %6</text>
<text text-anchor="start" x="206" y="-1277.3" font-family="Times,serif" font-size="14.00"> types = (integer, integer)</text>
<text text-anchor="start" x="206" y="-1262.3" font-family="Times,serif" font-size="14.00"> keys = ()</text>
<text text-anchor="start" x="206" y="-1247.3" font-family="Times,serif" font-size="14.00"> Map null, null</text>
<text text-anchor="start" x="206" y="-1232.3" font-family="Times,serif" font-size="14.00"> types = (integer, integer, integer?, integer?)</text>
<text text-anchor="start" x="206" y="-1217.3" font-family="Times,serif" font-size="14.00"> keys = ()</text>
<text text-anchor="start" x="206" y="-1202.3" font-family="Times,serif" font-size="14.00"> Project (#2, #3, #0, #1)</text>
<text text-anchor="start" x="206" y="-1187.3" font-family="Times,serif" font-size="14.00"> types = (integer?, integer?, integer, integer)</text>
<text text-anchor="start" x="206" y="-1172.3" font-family="Times,serif" font-size="14.00"> keys = ()</text>
</g>
<!-- node5&#45;&gt;node7 -->
<g id="edge2" class="edge">
<title>node5&#45;&gt;node7</title>
<path fill="none" stroke="black" d="M507.92,-1359.41C490.96,-1344.63 473.23,-1329.17 456.3,-1314.41"/>
<polygon fill="black" stroke="black" points="458.42,-1311.62 448.59,-1307.69 453.82,-1316.9 458.42,-1311.62"/>
<text text-anchor="start" x="482.5" y="-1329.8" font-family="Times,serif" font-size="14.00">%5</text>
</g>
<!-- node6 -->
<g id="node7" class="node">
<title>node6</title>
<polygon fill="none" stroke="black" points="207,-1412 207,-1465 416,-1465 416,-1412 207,-1412"/>
<text text-anchor="start" x="215" y="-1449.8" font-family="Times,serif" font-size="14.00">Get rej_nulls.public.s (u45)</text>
<text text-anchor="start" x="215" y="-1434.8" font-family="Times,serif" font-size="14.00"> types = (integer, integer)</text>
<text text-anchor="start" x="215" y="-1419.8" font-family="Times,serif" font-size="14.00"> keys = ()</text>
</g>
<!-- node6&#45;&gt;node7 -->
<g id="edge10" class="edge">
<title>node6&#45;&gt;node7</title>
<path fill="none" stroke="black" d="M318.71,-1411.7C325.37,-1387.83 335.65,-1351.05 345.05,-1317.38"/>
<polygon fill="black" stroke="black" points="348.48,-1318.09 347.8,-1307.52 341.74,-1316.21 348.48,-1318.09"/>
<text text-anchor="start" x="340.5" y="-1329.8" font-family="Times,serif" font-size="14.00">%6</text>
</g>
<!-- node9 -->
<g id="node10" class="node">
<title>node9</title>
<polygon fill="none" stroke="black" points="16,-1014.5 16,-1112.5 355,-1112.5 355,-1014.5 16,-1014.5"/>
<text text-anchor="start" x="24" y="-1097.3" font-family="Times,serif" font-size="14.00">Union %7 %8</text>
<text text-anchor="start" x="24" y="-1082.3" font-family="Times,serif" font-size="14.00"> types = (integer?, integer?, integer, integer)</text>
<text text-anchor="start" x="24" y="-1067.3" font-family="Times,serif" font-size="14.00"> keys = ()</text>
<text text-anchor="start" x="24" y="-1052.3" font-family="Times,serif" font-size="14.00"> ArrangeBy (#2)</text>
<text text-anchor="start" x="24" y="-1037.3" font-family="Times,serif" font-size="14.00"> types = (integer?, integer?, integer, integer)</text>
<text text-anchor="start" x="24" y="-1022.3" font-family="Times,serif" font-size="14.00"> keys = ()</text>
</g>
<!-- node7&#45;&gt;node9 -->
<g id="edge15" class="edge">
<title>node7&#45;&gt;node9</title>
<path fill="none" stroke="black" d="M292.16,-1164.42C276.19,-1149.46 259.56,-1133.88 244.31,-1119.6"/>
<polygon fill="black" stroke="black" points="246.64,-1116.98 236.95,-1112.7 241.85,-1122.09 246.64,-1116.98"/>
<text text-anchor="start" x="271.5" y="-1134.8" font-family="Times,serif" font-size="14.00">%7</text>
</g>
<!-- node8&#45;&gt;node9 -->
<g id="edge5" class="edge">
<title>node8&#45;&gt;node9</title>
<path fill="none" stroke="black" d="M170.99,-1536.05C173.94,-1440.13 180.52,-1226.41 183.7,-1122.91"/>
<polygon fill="black" stroke="black" points="187.21,-1122.74 184.02,-1112.64 180.21,-1122.53 187.21,-1122.74"/>
<text text-anchor="start" x="177.5" y="-1329.8" font-family="Times,serif" font-size="14.00">%8</text>
</g>
<!-- node11 -->
<g id="node12" class="node">
<title>node11</title>
<polygon fill="none" stroke="black" points="101,-834.5 101,-962.5 568,-962.5 568,-834.5 101,-834.5"/>
<text text-anchor="start" x="109" y="-947.3" font-family="Times,serif" font-size="14.00">Let l1 =</text>
<text text-anchor="start" x="109" y="-932.3" font-family="Times,serif" font-size="14.00"> Join %9 %10 (= #2 #5)</text>
<text text-anchor="start" x="109" y="-917.3" font-family="Times,serif" font-size="14.00"> implementation = Differential %10 %9.(#2)</text>
<text text-anchor="start" x="109" y="-902.3" font-family="Times,serif" font-size="14.00"> types = (integer?, integer?, integer, integer, integer?, integer)</text>
<text text-anchor="start" x="109" y="-887.3" font-family="Times,serif" font-size="14.00"> keys = ()</text>
<text text-anchor="start" x="109" y="-872.3" font-family="Times,serif" font-size="14.00"> Project (#0..#4)</text>
<text text-anchor="start" x="109" y="-857.3" font-family="Times,serif" font-size="14.00"> types = (integer?, integer?, integer, integer, integer?)</text>
<text text-anchor="start" x="109" y="-842.3" font-family="Times,serif" font-size="14.00"> keys = ()</text>
</g>
<!-- node9&#45;&gt;node11 -->
<g id="edge14" class="edge">
<title>node9&#45;&gt;node11</title>
<path fill="none" stroke="black" d="M229.4,-1014.48C242.05,-1000.64 256.12,-985.25 269.74,-970.34"/>
<polygon fill="black" stroke="black" points="272.66,-972.34 276.82,-962.6 267.49,-967.62 272.66,-972.34"/>
<text text-anchor="start" x="260.5" y="-984.8" font-family="Times,serif" font-size="14.00">%9</text>
</g>
<!-- node10 -->
<g id="node11" class="node">
<title>node10</title>
<polygon fill="none" stroke="black" points="373,-1014.5 373,-1112.5 592,-1112.5 592,-1014.5 373,-1014.5"/>
<text text-anchor="start" x="381" y="-1097.3" font-family="Times,serif" font-size="14.00">Get rej_nulls.public.t (u47)</text>
<text text-anchor="start" x="381" y="-1082.3" font-family="Times,serif" font-size="14.00"> types = (integer?, integer?)</text>
<text text-anchor="start" x="381" y="-1067.3" font-family="Times,serif" font-size="14.00"> keys = ()</text>
<text text-anchor="start" x="381" y="-1052.3" font-family="Times,serif" font-size="14.00"> Filter !(isnull(#1))</text>
<text text-anchor="start" x="381" y="-1037.3" font-family="Times,serif" font-size="14.00"> types = (integer?, integer)</text>
<text text-anchor="start" x="381" y="-1022.3" font-family="Times,serif" font-size="14.00"> keys = ()</text>
</g>
<!-- node10&#45;&gt;node11 -->
<g id="edge9" class="edge">
<title>node10&#45;&gt;node11</title>
<path fill="none" stroke="black" d="M438.9,-1014.48C426.33,-1000.64 412.36,-985.25 398.82,-970.34"/>
<polygon fill="black" stroke="black" points="401.11,-967.65 391.79,-962.6 395.92,-972.36 401.11,-967.65"/>
<text text-anchor="start" x="421.5" y="-984.8" font-family="Times,serif" font-size="14.00">%10</text>
</g>
<!-- node13 -->
<g id="node14" class="node">
<title>node13</title>
<polygon fill="none" stroke="black" points="603.5,-594.5 603.5,-782.5 1009.5,-782.5 1009.5,-594.5 603.5,-594.5"/>
<text text-anchor="start" x="611.5" y="-767.3" font-family="Times,serif" font-size="14.00">Get %11 (l1)</text>
<text text-anchor="start" x="611.5" y="-752.3" font-family="Times,serif" font-size="14.00"> types = (integer?, integer?, integer, integer, integer?)</text>
<text text-anchor="start" x="611.5" y="-737.3" font-family="Times,serif" font-size="14.00"> keys = ()</text>
<text text-anchor="start" x="611.5" y="-722.3" font-family="Times,serif" font-size="14.00"> Project (#2)</text>
<text text-anchor="start" x="611.5" y="-707.3" font-family="Times,serif" font-size="14.00"> types = (integer)</text>
<text text-anchor="start" x="611.5" y="-692.3" font-family="Times,serif" font-size="14.00"> keys = ()</text>
<text text-anchor="start" x="611.5" y="-677.3" font-family="Times,serif" font-size="14.00"> Distinct group=(#0)</text>
<text text-anchor="start" x="611.5" y="-662.3" font-family="Times,serif" font-size="14.00"> types = (integer)</text>
<text text-anchor="start" x="611.5" y="-647.3" font-family="Times,serif" font-size="14.00"> keys = ((#0))</text>
<text text-anchor="start" x="611.5" y="-632.3" font-family="Times,serif" font-size="14.00"> ArrangeBy (#0)</text>
<text text-anchor="start" x="611.5" y="-617.3" font-family="Times,serif" font-size="14.00"> types = (integer)</text>
<text text-anchor="start" x="611.5" y="-602.3" font-family="Times,serif" font-size="14.00"> keys = ((#0))</text>
</g>
<!-- node11&#45;&gt;node13 -->
<g id="edge4" class="edge">
<title>node11&#45;&gt;node13</title>
<path fill="none" stroke="black" d="M477.89,-834.37C513.29,-818.78 551.28,-802.05 594.17,-783.14"/>
<polygon fill="black" stroke="black" points="595.66,-786.31 603.4,-779.08 592.84,-779.91 595.66,-786.31"/>
<text text-anchor="start" x="551.5" y="-804.8" font-family="Times,serif" font-size="14.00">%11</text>
</g>
<!-- node17 -->
<g id="node18" class="node">
<title>node17</title>
<polygon fill="none" stroke="black" points="15,-477.5 15,-575.5 482,-575.5 482,-477.5 15,-477.5"/>
<text text-anchor="start" x="23" y="-560.3" font-family="Times,serif" font-size="14.00">Get %11 (l1)</text>
<text text-anchor="start" x="23" y="-545.3" font-family="Times,serif" font-size="14.00"> types = (integer?, integer?, integer, integer, integer?)</text>
<text text-anchor="start" x="23" y="-530.3" font-family="Times,serif" font-size="14.00"> keys = ()</text>
<text text-anchor="start" x="23" y="-515.3" font-family="Times,serif" font-size="14.00"> Project (#0..#4, #2)</text>
<text text-anchor="start" x="23" y="-500.3" font-family="Times,serif" font-size="14.00"> types = (integer?, integer?, integer, integer, integer?, integer)</text>
<text text-anchor="start" x="23" y="-485.3" font-family="Times,serif" font-size="14.00"> keys = ()</text>
</g>
<!-- node11&#45;&gt;node17 -->
<g id="edge6" class="edge">
<title>node11&#45;&gt;node17</title>
<path fill="none" stroke="black" d="M319.81,-834.32C303.61,-764.62 277.76,-653.41 262.04,-585.75"/>
<polygon fill="black" stroke="black" points="265.37,-584.63 259.7,-575.69 258.56,-586.22 265.37,-584.63"/>
<text text-anchor="start" x="313.5" y="-804.8" font-family="Times,serif" font-size="14.00">%11</text>
</g>
<!-- node12 -->
<g id="node13" class="node">
<title>node12</title>
<polygon fill="none" stroke="black" points="366,-662 366,-715 585,-715 585,-662 366,-662"/>
<text text-anchor="start" x="374" y="-699.8" font-family="Times,serif" font-size="14.00">Get rej_nulls.public.t (u47)</text>
<text text-anchor="start" x="374" y="-684.8" font-family="Times,serif" font-size="14.00"> types = (integer?, integer?)</text>
<text text-anchor="start" x="374" y="-669.8" font-family="Times,serif" font-size="14.00"> keys = ()</text>
</g>
<!-- node14 -->
<g id="node15" class="node">
<title>node14</title>
<polygon fill="none" stroke="black" points="554.5,-300.5 554.5,-458.5 898.5,-458.5 898.5,-300.5 554.5,-300.5"/>
<text text-anchor="start" x="562.5" y="-443.3" font-family="Times,serif" font-size="14.00">Join %12 %13 (= #1 #2)</text>
<text text-anchor="start" x="562.5" y="-428.3" font-family="Times,serif" font-size="14.00"> implementation = Differential %12 %13.(#0)</text>
<text text-anchor="start" x="562.5" y="-413.3" font-family="Times,serif" font-size="14.00"> types = (integer?, integer?, integer)</text>
<text text-anchor="start" x="562.5" y="-398.3" font-family="Times,serif" font-size="14.00"> keys = ()</text>
<text text-anchor="start" x="562.5" y="-383.3" font-family="Times,serif" font-size="14.00"> Project (#0, #1)</text>
<text text-anchor="start" x="562.5" y="-368.3" font-family="Times,serif" font-size="14.00"> types = (integer?, integer?)</text>
<text text-anchor="start" x="562.5" y="-353.3" font-family="Times,serif" font-size="14.00"> keys = ()</text>
<text text-anchor="start" x="562.5" y="-338.3" font-family="Times,serif" font-size="14.00"> Negate</text>
<text text-anchor="start" x="562.5" y="-323.3" font-family="Times,serif" font-size="14.00"> types = (integer?, integer?)</text>
<text text-anchor="start" x="562.5" y="-308.3" font-family="Times,serif" font-size="14.00"> keys = ()</text>
</g>
<!-- node12&#45;&gt;node14 -->
<g id="edge8" class="edge">
<title>node12&#45;&gt;node14</title>
<path fill="none" stroke="black" d="M496.47,-661.85C531.17,-619.41 602.07,-532.69 656.03,-466.69"/>
<polygon fill="black" stroke="black" points="658.91,-468.7 662.53,-458.74 653.49,-464.27 658.91,-468.7"/>
<text text-anchor="start" x="644.5" y="-522.8" font-family="Times,serif" font-size="14.00">%12</text>
</g>
<!-- node13&#45;&gt;node14 -->
<g id="edge1" class="edge">
<title>node13&#45;&gt;node14</title>
<path fill="none" stroke="black" d="M782.17,-594.14C771.77,-554.21 759.68,-507.84 749.44,-468.52"/>
<polygon fill="black" stroke="black" points="752.78,-467.48 746.87,-458.69 746.01,-469.25 752.78,-467.48"/>
<text text-anchor="start" x="775.5" y="-522.8" font-family="Times,serif" font-size="14.00">%13</text>
</g>
<!-- node16 -->
<g id="node17" class="node">
<title>node16</title>
<polygon fill="none" stroke="black" points="276.5,-105.5 276.5,-248.5 768.5,-248.5 768.5,-105.5 276.5,-105.5"/>
<text text-anchor="start" x="284.5" y="-233.3" font-family="Times,serif" font-size="14.00">Union %14 %15</text>
<text text-anchor="start" x="284.5" y="-218.3" font-family="Times,serif" font-size="14.00"> types = (integer?, integer?)</text>
<text text-anchor="start" x="284.5" y="-203.3" font-family="Times,serif" font-size="14.00"> keys = ()</text>
<text text-anchor="start" x="284.5" y="-188.3" font-family="Times,serif" font-size="14.00"> Map null, null, null, null</text>
<text text-anchor="start" x="284.5" y="-173.3" font-family="Times,serif" font-size="14.00"> types = (integer?, integer?, integer?, integer?, integer?, integer?)</text>
<text text-anchor="start" x="284.5" y="-158.3" font-family="Times,serif" font-size="14.00"> keys = ()</text>
<text text-anchor="start" x="284.5" y="-143.3" font-family="Times,serif" font-size="14.00"> Project (#2..#5, #0, #1)</text>
<text text-anchor="start" x="284.5" y="-128.3" font-family="Times,serif" font-size="14.00"> types = (integer?, integer?, integer?, integer?, integer?, integer?)</text>
<text text-anchor="start" x="284.5" y="-113.3" font-family="Times,serif" font-size="14.00"> keys = ()</text>
</g>
<!-- node14&#45;&gt;node16 -->
<g id="edge18" class="edge">
<title>node14&#45;&gt;node16</title>
<path fill="none" stroke="black" d="M647.04,-300.41C632.14,-285.76 616.56,-270.45 601.67,-255.81"/>
<polygon fill="black" stroke="black" points="604.01,-253.2 594.42,-248.69 599.1,-258.19 604.01,-253.2"/>
<text text-anchor="start" x="624.5" y="-270.8" font-family="Times,serif" font-size="14.00">%14</text>
</g>
<!-- node15 -->
<g id="node16" class="node">
<title>node15</title>
<polygon fill="none" stroke="black" points="317,-353 317,-406 536,-406 536,-353 317,-353"/>
<text text-anchor="start" x="325" y="-390.8" font-family="Times,serif" font-size="14.00">Get rej_nulls.public.t (u47)</text>
<text text-anchor="start" x="325" y="-375.8" font-family="Times,serif" font-size="14.00"> types = (integer?, integer?)</text>
<text text-anchor="start" x="325" y="-360.8" font-family="Times,serif" font-size="14.00"> keys = ()</text>
</g>
<!-- node15&#45;&gt;node16 -->
<g id="edge16" class="edge">
<title>node15&#45;&gt;node16</title>
<path fill="none" stroke="black" d="M438.85,-352.7C450.33,-328.72 468.04,-291.73 484.22,-257.95"/>
<polygon fill="black" stroke="black" points="487.57,-259.05 488.73,-248.52 481.26,-256.03 487.57,-259.05"/>
<text text-anchor="start" x="476.5" y="-270.8" font-family="Times,serif" font-size="14.00">%15</text>
</g>
<!-- node18 -->
<g id="node19" class="node">
<title>node18</title>
<polygon fill="none" stroke="black" points="18.5,-0.5 18.5,-53.5 510.5,-53.5 510.5,-0.5 18.5,-0.5"/>
<text text-anchor="start" x="26.5" y="-38.3" font-family="Times,serif" font-size="14.00">Union %16 %17</text>
<text text-anchor="start" x="26.5" y="-23.3" font-family="Times,serif" font-size="14.00"> types = (integer?, integer?, integer?, integer?, integer?, integer?)</text>
<text text-anchor="start" x="26.5" y="-8.3" font-family="Times,serif" font-size="14.00"> keys = ()</text>
</g>
<!-- node16&#45;&gt;node18 -->
<g id="edge19" class="edge">
<title>node16&#45;&gt;node18</title>
<path fill="none" stroke="black" d="M399.54,-105.47C370.89,-89.03 341.83,-72.36 318.05,-58.72"/>
<polygon fill="black" stroke="black" points="319.63,-55.59 309.21,-53.65 316.14,-61.66 319.63,-55.59"/>
<text text-anchor="start" x="362.5" y="-75.8" font-family="Times,serif" font-size="14.00">%16</text>
</g>
<!-- node17&#45;&gt;node18 -->
<g id="edge3" class="edge">
<title>node17&#45;&gt;node18</title>
<path fill="none" stroke="black" d="M250.05,-477.35C253.25,-377.86 260.52,-151.61 263.35,-63.78"/>
<polygon fill="black" stroke="black" points="266.86,-63.64 263.68,-53.54 259.86,-63.42 266.86,-63.64"/>
<text text-anchor="start" x="257.5" y="-270.8" font-family="Times,serif" font-size="14.00">%17</text>
</g>
</g>
</svg>
