<?xml version="1.0" encoding="UTF-8" standalone="no"?>
<!DOCTYPE svg PUBLIC "-//W3C//DTD SVG 1.1//EN"
 "http://www.w3.org/Graphics/SVG/1.1/DTD/svg11.dtd">
<!-- Generated by graphviz version 2.43.0 (0)
 -->
<!-- Title: G Pages: 1 -->
<svg width="350pt" height="150pt"
 viewBox="0.00 0.00 349.50 150.00" xmlns="http://www.w3.org/2000/svg" xmlns:xlink="http://www.w3.org/1999/xlink">
<g id="graph0" class="graph" transform="scale(1 1) rotate(0) translate(4 146)">
<title>G</title>
<polygon fill="white" stroke="transparent" points="-4,4 -4,-146 345.5,-146 345.5,4 -4,4"/>
<!-- node0 -->
<g id="node1" class="node">
<title>node0</title>
<polygon fill="none" stroke="black" points="0,-105.5 0,-141.5 96,-141.5 96,-105.5 0,-105.5"/>
<text text-anchor="start" x="8" y="-119.8" font-family="Times,serif" font-size="14.00">Constant ()</text>
</g>
<!-- node2 -->
<g id="node3" class="node">
<title>node2</title>
<polygon fill="none" stroke="black" points="1,-0.5 1,-53.5 275,-53.5 275,-0.5 1,-0.5"/>
<text text-anchor="start" x="9" y="-38.3" font-family="Times,serif" font-size="14.00">Join %0 %1</text>
<text text-anchor="start" x="9" y="-23.3" font-family="Times,serif" font-size="14.00">&#45; implementation = Unimplemented</text>
<text text-anchor="start" x="9" y="-8.3" font-family="Times,serif" font-size="14.00">Project (#0, #1)</text>
</g>
<!-- node0&#45;&gt;node2 -->
<g id="edge2" class="edge">
<title>node0&#45;&gt;node2</title>
<path fill="none" stroke="black" d="M64.51,-105.17C76.18,-92.92 92.18,-76.11 106.28,-61.3"/>
<polygon fill="black" stroke="black" points="109.09,-63.43 113.45,-53.78 104.02,-58.61 109.09,-63.43"/>
<text text-anchor="start" x="96" y="-75.8" font-family="Times,serif" font-size="14.00">%0</text>
</g>
<!-- node1 -->
<g id="node2" class="node">
<title>node1</title>
<polygon fill="none" stroke="black" points="114.5,-105.5 114.5,-141.5 341.5,-141.5 341.5,-105.5 114.5,-105.5"/>
<text text-anchor="start" x="122.5" y="-119.8" font-family="Times,serif" font-size="14.00">Get hir_to_qgm.public.r (u39)</text>
</g>
<!-- node1&#45;&gt;node2 -->
<g id="edge1" class="edge">
<title>node1&#45;&gt;node2</title>
<path fill="none" stroke="black" d="M211.49,-105.17C199.82,-92.92 183.82,-76.11 169.72,-61.3"/>
<polygon fill="black" stroke="black" points="171.98,-58.61 162.55,-53.78 166.91,-63.43 171.98,-58.61"/>
<text text-anchor="start" x="193" y="-75.8" font-family="Times,serif" font-size="14.00">%1</text>
</g>
</g>
</svg>
