<?xml version="1.0" encoding="UTF-8" standalone="no"?>
<!DOCTYPE svg PUBLIC "-//W3C//DTD SVG 1.1//EN"
 "http://www.w3.org/Graphics/SVG/1.1/DTD/svg11.dtd">
<!-- Generated by graphviz version 2.43.0 (0)
 -->
<!-- Title: G Pages: 1 -->
<svg width="354pt" height="227pt"
 viewBox="0.00 0.00 353.50 227.00" xmlns="http://www.w3.org/2000/svg" xmlns:xlink="http://www.w3.org/1999/xlink">
<g id="graph0" class="graph" transform="scale(1 1) rotate(0) translate(4 223)">
<title>G</title>
<polygon fill="white" stroke="transparent" points="-4,4 -4,-223 349.5,-223 349.5,4 -4,4"/>
<!-- node0 -->
<g id="node1" class="node">
<title>node0</title>
<polygon fill="none" stroke="black" points="0,-165.5 0,-218.5 100,-218.5 100,-165.5 0,-165.5"/>
<text text-anchor="start" x="8" y="-203.3" font-family="Times,serif" font-size="14.00">Constant ()</text>
<text text-anchor="start" x="8" y="-188.3" font-family="Times,serif" font-size="14.00">&#45; types = ()</text>
<text text-anchor="start" x="8" y="-173.3" font-family="Times,serif" font-size="14.00">&#45; keys = (())</text>
</g>
<!-- node2 -->
<g id="node3" class="node">
<title>node2</title>
<polygon fill="none" stroke="black" points="4,-0.5 4,-113.5 278,-113.5 278,-0.5 4,-0.5"/>
<text text-anchor="start" x="12" y="-98.3" font-family="Times,serif" font-size="14.00">Join %0 %1</text>
<text text-anchor="start" x="12" y="-83.3" font-family="Times,serif" font-size="14.00">&#45; implementation = Unimplemented</text>
<text text-anchor="start" x="12" y="-68.3" font-family="Times,serif" font-size="14.00">&#45; types = (bigint?, integer?)</text>
<text text-anchor="start" x="12" y="-53.3" font-family="Times,serif" font-size="14.00">&#45; keys = ()</text>
<text text-anchor="start" x="12" y="-38.3" font-family="Times,serif" font-size="14.00">Project (#0, #1)</text>
<text text-anchor="start" x="12" y="-23.3" font-family="Times,serif" font-size="14.00">&#45; types = (bigint?, integer?)</text>
<text text-anchor="start" x="12" y="-8.3" font-family="Times,serif" font-size="14.00">&#45; keys = ()</text>
</g>
<!-- node0&#45;&gt;node2 -->
<g id="edge2" class="edge">
<title>node0&#45;&gt;node2</title>
<path fill="none" stroke="black" d="M67.55,-165.36C76.04,-152.94 86.66,-137.41 97.17,-122.06"/>
<polygon fill="black" stroke="black" points="100.22,-123.8 102.98,-113.57 94.44,-119.85 100.22,-123.8"/>
<text text-anchor="start" x="91" y="-135.8" font-family="Times,serif" font-size="14.00">%0</text>
</g>
<!-- node1 -->
<g id="node2" class="node">
<title>node1</title>
<polygon fill="none" stroke="black" points="118.5,-165.5 118.5,-218.5 345.5,-218.5 345.5,-165.5 118.5,-165.5"/>
<text text-anchor="start" x="126.5" y="-203.3" font-family="Times,serif" font-size="14.00">Get hir_to_qgm.public.r (u39)</text>
<text text-anchor="start" x="126.5" y="-188.3" font-family="Times,serif" font-size="14.00">&#45; types = (bigint?, integer?)</text>
<text text-anchor="start" x="126.5" y="-173.3" font-family="Times,serif" font-size="14.00">&#45; keys = ()</text>
</g>
<!-- node1&#45;&gt;node2 -->
<g id="edge1" class="edge">
<title>node1&#45;&gt;node2</title>
<path fill="none" stroke="black" d="M214.45,-165.36C205.96,-152.94 195.34,-137.41 184.83,-122.06"/>
<polygon fill="black" stroke="black" points="187.56,-119.85 179.02,-113.57 181.78,-123.8 187.56,-119.85"/>
<text text-anchor="start" x="199" y="-135.8" font-family="Times,serif" font-size="14.00">%1</text>
</g>
</g>
</svg>
