<?xml version="1.0" encoding="UTF-8" standalone="no"?>
<!DOCTYPE svg PUBLIC "-//W3C//DTD SVG 1.1//EN"
 "http://www.w3.org/Graphics/SVG/1.1/DTD/svg11.dtd">
<!-- Generated by graphviz version 2.43.0 (0)
 -->
<!-- Title: G Pages: 1 -->
<svg width="322pt" height="254pt"
 viewBox="0.00 0.00 322.00 254.09" xmlns="http://www.w3.org/2000/svg" xmlns:xlink="http://www.w3.org/1999/xlink">
<g id="graph0" class="graph" transform="scale(1 1) rotate(0) translate(4 250.09)">
<title>G</title>
<polygon fill="white" stroke="transparent" points="-4,4 -4,-250.09 318,-250.09 318,4 -4,4"/>
<g id="clust1" class="cluster">
<title>cluster1</title>
<polygon fill="none" stroke="black" points="44,-125 44,-238.09 306,-238.09 306,-125 44,-125"/>
<text text-anchor="middle" x="94.5" y="-222.89" font-family="Times,serif" font-size="14.00">Box1:Select</text>
</g>
<g id="clust3" class="cluster">
<title>cluster0</title>
<polygon fill="none" stroke="black" points="8,-8 8,-117 170,-117 170,-8 8,-8"/>
<text text-anchor="middle" x="49.5" y="-101.8" font-family="Times,serif" font-size="14.00">Box0:Get</text>
</g>
<!-- boxhead1 -->
<g id="node1" class="node">
<title>boxhead1</title>
<polygon fill="none" stroke="black" points="144.5,-135.55 144.5,-204.55 297.5,-204.55 297.5,-135.55 144.5,-135.55"/>
<text text-anchor="middle" x="221" y="-189.35" font-family="Times,serif" font-size="14.00">Distinct: Preserve</text>
<polyline fill="none" stroke="black" points="144.5,-181.55 297.5,-181.55 "/>
<text text-anchor="middle" x="221" y="-166.35" font-family="Times,serif" font-size="14.00">0: Q0.C0 (bigint?)</text>
<polyline fill="none" stroke="black" points="144.5,-158.55 297.5,-158.55 "/>
<text text-anchor="middle" x="221" y="-143.35" font-family="Times,serif" font-size="14.00">1: Q0.C1 (integer?)</text>
</g>
<!-- Q0 -->
<g id="node2" class="node">
<title>Q0</title>
<ellipse fill="none" stroke="black" cx="89" cy="-170.05" rx="37.09" ry="37.09"/>
<text text-anchor="middle" x="89" y="-166.35" font-family="Times,serif" font-size="14.00">Q0(F)</text>
</g>
<!-- boxhead0 -->
<g id="node3" class="node">
<title>boxhead0</title>
<polygon fill="none" stroke="black" points="16,-16.5 16,-85.5 162,-85.5 162,-16.5 16,-16.5"/>
<text text-anchor="middle" x="89" y="-70.3" font-family="Times,serif" font-size="14.00">Distinct: Preserve</text>
<polyline fill="none" stroke="black" points="16,-62.5 162,-62.5 "/>
<text text-anchor="middle" x="89" y="-47.3" font-family="Times,serif" font-size="14.00">0: C0 (bigint?)</text>
<polyline fill="none" stroke="black" points="16,-39.5 162,-39.5 "/>
<text text-anchor="middle" x="89" y="-24.3" font-family="Times,serif" font-size="14.00">1: C1 (integer?)</text>
</g>
<!-- Q0&#45;&gt;boxhead0 -->
<g id="edge1" class="edge">
<title>Q0&#45;&gt;boxhead0</title>
<path fill="none" stroke="black" stroke-dasharray="5,2" d="M89,-132.97C89,-127.85 89,-122.46 89,-117"/>
</g>
</g>
</svg>
