<?xml version="1.0" encoding="UTF-8" standalone="no"?>
<!DOCTYPE svg PUBLIC "-//W3C//DTD SVG 1.1//EN"
 "http://www.w3.org/Graphics/SVG/1.1/DTD/svg11.dtd">
<!-- Generated by graphviz version 2.43.0 (0)
 -->
<!-- Title: G Pages: 1 -->
<svg width="603pt" height="302pt"
 viewBox="0.00 0.00 603.00 302.00" xmlns="http://www.w3.org/2000/svg" xmlns:xlink="http://www.w3.org/1999/xlink">
<g id="graph0" class="graph" transform="scale(1 1) rotate(0) translate(4 298)">
<title>G</title>
<polygon fill="white" stroke="transparent" points="-4,4 -4,-298 599,-298 599,4 -4,4"/>
<!-- node0 -->
<g id="node1" class="node">
<title>node0</title>
<polygon fill="none" stroke="black" points="237,-255.5 237,-293.5 338,-293.5 338,-255.5 237,-255.5"/>
<text text-anchor="start" x="245" y="-278.3" font-family="Times,serif" font-size="14.00">Let l0 =</text>
<text text-anchor="start" x="245" y="-263.3" font-family="Times,serif" font-size="14.00"> Constant ()</text>
</g>
<!-- node2 -->
<g id="node3" class="node">
<title>node2</title>
<polygon fill="none" stroke="black" points="15,-165.5 15,-203.5 284,-203.5 284,-165.5 15,-165.5"/>
<text text-anchor="start" x="23" y="-188.3" font-family="Times,serif" font-size="14.00">Join %0 %1</text>
<text text-anchor="start" x="23" y="-173.3" font-family="Times,serif" font-size="14.00"> implementation = Unimplemented</text>
</g>
<!-- node0&#45;&gt;node2 -->
<g id="edge1" class="edge">
<title>node0&#45;&gt;node2</title>
<path fill="none" stroke="black" d="M259.24,-255.48C238.36,-242.16 209.71,-223.9 186.93,-209.37"/>
<polygon fill="black" stroke="black" points="188.51,-206.22 178.2,-203.8 184.75,-212.13 188.51,-206.22"/>
<text text-anchor="start" x="226.5" y="-225.8" font-family="Times,serif" font-size="14.00">%0</text>
</g>
<!-- node4 -->
<g id="node5" class="node">
<title>node4</title>
<polygon fill="none" stroke="black" points="302,-165.5 302,-203.5 571,-203.5 571,-165.5 302,-165.5"/>
<text text-anchor="start" x="310" y="-188.3" font-family="Times,serif" font-size="14.00">Join %0 %3</text>
<text text-anchor="start" x="310" y="-173.3" font-family="Times,serif" font-size="14.00"> implementation = Unimplemented</text>
</g>
<!-- node0&#45;&gt;node4 -->
<g id="edge6" class="edge">
<title>node0&#45;&gt;node4</title>
<path fill="none" stroke="black" d="M318.01,-255.48C340.84,-242 372.24,-223.45 396.99,-208.84"/>
<polygon fill="black" stroke="black" points="398.94,-211.75 405.77,-203.65 395.38,-205.72 398.94,-211.75"/>
<text text-anchor="start" x="370.5" y="-225.8" font-family="Times,serif" font-size="14.00">%0</text>
</g>
<!-- node1 -->
<g id="node2" class="node">
<title>node1</title>
<polygon fill="none" stroke="black" points="0,-256.5 0,-292.5 219,-292.5 219,-256.5 0,-256.5"/>
<text text-anchor="start" x="8" y="-270.8" font-family="Times,serif" font-size="14.00">Get tpch.public.orders (u68)</text>
</g>
<!-- node1&#45;&gt;node2 -->
<g id="edge3" class="edge">
<title>node1&#45;&gt;node2</title>
<path fill="none" stroke="black" d="M117.4,-256.11C122.99,-243.82 130.59,-227.09 137,-213"/>
<polygon fill="black" stroke="black" points="140.25,-214.31 141.2,-203.76 133.88,-211.41 140.25,-214.31"/>
<text text-anchor="start" x="131.5" y="-225.8" font-family="Times,serif" font-size="14.00">%1</text>
</g>
<!-- node5 -->
<g id="node6" class="node">
<title>node5</title>
<polygon fill="none" stroke="black" points="72.5,-0.5 72.5,-113.5 512.5,-113.5 512.5,-0.5 72.5,-0.5"/>
<text text-anchor="start" x="80.5" y="-98.3" font-family="Times,serif" font-size="14.00">Join %2 %4</text>
<text text-anchor="start" x="80.5" y="-83.3" font-family="Times,serif" font-size="14.00"> implementation = Unimplemented</text>
<text text-anchor="start" x="80.5" y="-68.3" font-family="Times,serif" font-size="14.00"> Project (#0..=#16)</text>
<text text-anchor="start" x="80.5" y="-53.3" font-family="Times,serif" font-size="14.00"> Filter (#14 = #3)</text>
<text text-anchor="start" x="80.5" y="-38.3" font-family="Times,serif" font-size="14.00"> Project (#0..=#16)</text>
<text text-anchor="start" x="80.5" y="-23.3" font-family="Times,serif" font-size="14.00"> Filter (((#14 + #3) = i32tonumeric(123)) &amp;&amp; (#14 = #3))</text>
<text text-anchor="start" x="80.5" y="-8.3" font-family="Times,serif" font-size="14.00"> Project (#0..=#16)</text>
</g>
<!-- node2&#45;&gt;node5 -->
<g id="edge2" class="edge">
<title>node2&#45;&gt;node5</title>
<path fill="none" stroke="black" d="M170.29,-165.25C183.92,-153.29 202.6,-136.9 221.26,-120.52"/>
<polygon fill="black" stroke="black" points="224.03,-122.74 229.24,-113.52 219.42,-117.48 224.03,-122.74"/>
<text text-anchor="start" x="203.5" y="-135.8" font-family="Times,serif" font-size="14.00">%2</text>
</g>
<!-- node3 -->
<g id="node4" class="node">
<title>node3</title>
<polygon fill="none" stroke="black" points="356,-256.5 356,-292.5 595,-292.5 595,-256.5 356,-256.5"/>
<text text-anchor="start" x="364" y="-270.8" font-family="Times,serif" font-size="14.00">Get tpch.public.customer (u64)</text>
</g>
<!-- node3&#45;&gt;node4 -->
<g id="edge5" class="edge">
<title>node3&#45;&gt;node4</title>
<path fill="none" stroke="black" d="M467.79,-256.11C462.35,-243.82 454.93,-227.09 448.69,-213"/>
<polygon fill="black" stroke="black" points="451.84,-211.48 444.59,-203.76 445.44,-214.32 451.84,-211.48"/>
<text text-anchor="start" x="457.5" y="-225.8" font-family="Times,serif" font-size="14.00">%3</text>
</g>
<!-- node4&#45;&gt;node5 -->
<g id="edge4" class="edge">
<title>node4&#45;&gt;node5</title>
<path fill="none" stroke="black" d="M415.56,-165.25C401.78,-153.24 382.86,-136.75 363.99,-120.3"/>
<polygon fill="black" stroke="black" points="366.04,-117.45 356.2,-113.52 361.44,-122.73 366.04,-117.45"/>
<text text-anchor="start" x="393.5" y="-135.8" font-family="Times,serif" font-size="14.00">%4</text>
</g>
</g>
</svg>
