<?xml version="1.0" encoding="UTF-8" standalone="no"?>
<!DOCTYPE svg PUBLIC "-//W3C//DTD SVG 1.1//EN"
 "http://www.w3.org/Graphics/SVG/1.1/DTD/svg11.dtd">
<!-- Generated by graphviz version 2.43.0 (0)
 -->
<!-- Title: G Pages: 1 -->
<svg width="1137pt" height="542pt"
 viewBox="0.00 0.00 1137.00 542.00" xmlns="http://www.w3.org/2000/svg" xmlns:xlink="http://www.w3.org/1999/xlink">
<g id="graph0" class="graph" transform="scale(1 1) rotate(0) translate(4 538)">
<title>G</title>
<polygon fill="white" stroke="transparent" points="-4,4 -4,-538 1133,-538 1133,4 -4,4"/>
<!-- node0 -->
<g id="node1" class="node">
<title>node0</title>
<polygon fill="none" stroke="black" points="545,-465.5 545,-533.5 646,-533.5 646,-465.5 545,-465.5"/>
<text text-anchor="start" x="553" y="-518.3" font-family="Times,serif" font-size="14.00">Let l0 =</text>
<text text-anchor="start" x="553" y="-503.3" font-family="Times,serif" font-size="14.00"> Constant ()</text>
<text text-anchor="start" x="553" y="-488.3" font-family="Times,serif" font-size="14.00"> types = ()</text>
<text text-anchor="start" x="553" y="-473.3" font-family="Times,serif" font-size="14.00"> keys = (())</text>
</g>
<!-- node2 -->
<g id="node3" class="node">
<title>node2</title>
<polygon fill="none" stroke="black" points="60,-345.5 60,-413.5 587,-413.5 587,-345.5 60,-345.5"/>
<text text-anchor="start" x="68" y="-398.3" font-family="Times,serif" font-size="14.00">Join %0 %1</text>
<text text-anchor="start" x="68" y="-383.3" font-family="Times,serif" font-size="14.00"> implementation = Unimplemented</text>
<text text-anchor="start" x="68" y="-368.3" font-family="Times,serif" font-size="14.00"> types = (integer?, integer, text, numeric, date, text, text, integer, text)</text>
<text text-anchor="start" x="68" y="-353.3" font-family="Times,serif" font-size="14.00"> keys = ()</text>
</g>
<!-- node0&#45;&gt;node2 -->
<g id="edge1" class="edge">
<title>node0&#45;&gt;node2</title>
<path fill="none" stroke="black" d="M544.89,-469.17C542.07,-467.72 539.26,-466.32 536.5,-465 500.61,-447.79 460.23,-431.13 424.36,-417.21"/>
<polygon fill="black" stroke="black" points="425.45,-413.88 414.86,-413.55 422.93,-420.41 425.45,-413.88"/>
<text text-anchor="start" x="496.5" y="-435.8" font-family="Times,serif" font-size="14.00">%0</text>
</g>
<!-- node4 -->
<g id="node5" class="node">
<title>node4</title>
<polygon fill="none" stroke="black" points="605,-345.5 605,-413.5 1070,-413.5 1070,-345.5 605,-345.5"/>
<text text-anchor="start" x="613" y="-398.3" font-family="Times,serif" font-size="14.00">Join %0 %3</text>
<text text-anchor="start" x="613" y="-383.3" font-family="Times,serif" font-size="14.00"> implementation = Unimplemented</text>
<text text-anchor="start" x="613" y="-368.3" font-family="Times,serif" font-size="14.00"> types = (integer?, text, text, integer, text, numeric, text, text)</text>
<text text-anchor="start" x="613" y="-353.3" font-family="Times,serif" font-size="14.00"> keys = ()</text>
</g>
<!-- node0&#45;&gt;node4 -->
<g id="edge6" class="edge">
<title>node0&#45;&gt;node4</title>
<path fill="none" stroke="black" d="M646.1,-469.9C649.27,-468.22 652.42,-466.57 655.5,-465 687.13,-448.85 722.44,-432.17 753.47,-417.93"/>
<polygon fill="black" stroke="black" points="755.32,-420.93 762.96,-413.59 752.41,-414.57 755.32,-420.93"/>
<text text-anchor="start" x="719.5" y="-435.8" font-family="Times,serif" font-size="14.00">%0</text>
</g>
<!-- node1 -->
<g id="node2" class="node">
<title>node1</title>
<polygon fill="none" stroke="black" points="0,-473 0,-526 527,-526 527,-473 0,-473"/>
<text text-anchor="start" x="8" y="-510.8" font-family="Times,serif" font-size="14.00">Get tpch.public.orders (u68)</text>
<text text-anchor="start" x="8" y="-495.8" font-family="Times,serif" font-size="14.00"> types = (integer?, integer, text, numeric, date, text, text, integer, text)</text>
<text text-anchor="start" x="8" y="-480.8" font-family="Times,serif" font-size="14.00"> keys = ()</text>
</g>
<!-- node1&#45;&gt;node2 -->
<g id="edge3" class="edge">
<title>node1&#45;&gt;node2</title>
<path fill="none" stroke="black" d="M276.52,-472.9C283.96,-458.25 293.49,-439.52 302.01,-422.76"/>
<polygon fill="black" stroke="black" points="305.21,-424.18 306.63,-413.68 298.97,-421.01 305.21,-424.18"/>
<text text-anchor="start" x="296.5" y="-435.8" font-family="Times,serif" font-size="14.00">%1</text>
</g>
<!-- node5 -->
<g id="node6" class="node">
<title>node5</title>
<polygon fill="none" stroke="black" points="125.5,-0.5 125.5,-293.5 1035.5,-293.5 1035.5,-0.5 125.5,-0.5"/>
<text text-anchor="start" x="133.5" y="-278.3" font-family="Times,serif" font-size="14.00">Join %2 %4</text>
<text text-anchor="start" x="133.5" y="-263.3" font-family="Times,serif" font-size="14.00"> implementation = Unimplemented</text>
<text text-anchor="start" x="133.5" y="-248.3" font-family="Times,serif" font-size="14.00"> types = (integer?, integer, text, numeric, date, text, text, integer, text, integer?, text, text, integer, text, numeric, text, text)</text>
<text text-anchor="start" x="133.5" y="-233.3" font-family="Times,serif" font-size="14.00"> keys = ()</text>
<text text-anchor="start" x="133.5" y="-218.3" font-family="Times,serif" font-size="14.00"> Project (#0..=#16)</text>
<text text-anchor="start" x="133.5" y="-203.3" font-family="Times,serif" font-size="14.00"> types = (integer?, integer, text, numeric, date, text, text, integer, text, integer?, text, text, integer, text, numeric, text, text)</text>
<text text-anchor="start" x="133.5" y="-188.3" font-family="Times,serif" font-size="14.00"> keys = ()</text>
<text text-anchor="start" x="133.5" y="-173.3" font-family="Times,serif" font-size="14.00"> Filter (#14 = #3)</text>
<text text-anchor="start" x="133.5" y="-158.3" font-family="Times,serif" font-size="14.00"> types = (integer?, integer, text, numeric, date, text, text, integer, text, integer?, text, text, integer, text, numeric, text, text)</text>
<text text-anchor="start" x="133.5" y="-143.3" font-family="Times,serif" font-size="14.00"> keys = ()</text>
<text text-anchor="start" x="133.5" y="-128.3" font-family="Times,serif" font-size="14.00"> Project (#0..=#16)</text>
<text text-anchor="start" x="133.5" y="-113.3" font-family="Times,serif" font-size="14.00"> types = (integer?, integer, text, numeric, date, text, text, integer, text, integer?, text, text, integer, text, numeric, text, text)</text>
<text text-anchor="start" x="133.5" y="-98.3" font-family="Times,serif" font-size="14.00"> keys = ()</text>
<text text-anchor="start" x="133.5" y="-83.3" font-family="Times,serif" font-size="14.00"> Filter (((#14 + #3) = i32tonumeric(123)) &amp;&amp; (#14 = #3))</text>
<text text-anchor="start" x="133.5" y="-68.3" font-family="Times,serif" font-size="14.00"> types = (integer?, integer, text, numeric, date, text, text, integer, text, integer?, text, text, integer, text, numeric, text, text)</text>
<text text-anchor="start" x="133.5" y="-53.3" font-family="Times,serif" font-size="14.00"> keys = ()</text>
<text text-anchor="start" x="133.5" y="-38.3" font-family="Times,serif" font-size="14.00"> Project (#0..=#16)</text>
<text text-anchor="start" x="133.5" y="-23.3" font-family="Times,serif" font-size="14.00"> types = (integer?, integer, text, numeric, date, text, text, integer, text, integer?, text, text, integer, text, numeric, text, text)</text>
<text text-anchor="start" x="133.5" y="-8.3" font-family="Times,serif" font-size="14.00"> keys = ()</text>
</g>
<!-- node2&#45;&gt;node5 -->
<g id="edge2" class="edge">
<title>node2&#45;&gt;node5</title>
<path fill="none" stroke="black" d="M360.32,-345.47C374.54,-332.73 391.87,-317.18 410.51,-300.46"/>
<polygon fill="black" stroke="black" points="412.89,-303.03 418,-293.74 408.22,-297.82 412.89,-303.03"/>
<text text-anchor="start" x="391.5" y="-315.8" font-family="Times,serif" font-size="14.00">%2</text>
</g>
<!-- node3 -->
<g id="node4" class="node">
<title>node3</title>
<polygon fill="none" stroke="black" points="664,-473 664,-526 1129,-526 1129,-473 664,-473"/>
<text text-anchor="start" x="672" y="-510.8" font-family="Times,serif" font-size="14.00">Get tpch.public.customer (u64)</text>
<text text-anchor="start" x="672" y="-495.8" font-family="Times,serif" font-size="14.00"> types = (integer?, text, text, integer, text, numeric, text, text)</text>
<text text-anchor="start" x="672" y="-480.8" font-family="Times,serif" font-size="14.00"> keys = ()</text>
</g>
<!-- node3&#45;&gt;node4 -->
<g id="edge5" class="edge">
<title>node3&#45;&gt;node4</title>
<path fill="none" stroke="black" d="M883.7,-472.9C876.38,-458.25 867.01,-439.52 858.63,-422.76"/>
<polygon fill="black" stroke="black" points="861.69,-421.06 854.09,-413.68 855.43,-424.19 861.69,-421.06"/>
<text text-anchor="start" x="870.5" y="-435.8" font-family="Times,serif" font-size="14.00">%3</text>
</g>
<!-- node4&#45;&gt;node5 -->
<g id="edge4" class="edge">
<title>node4&#45;&gt;node5</title>
<path fill="none" stroke="black" d="M800.68,-345.47C786.46,-332.73 769.13,-317.18 750.49,-300.46"/>
<polygon fill="black" stroke="black" points="752.78,-297.82 743,-293.74 748.11,-303.03 752.78,-297.82"/>
<text text-anchor="start" x="774.5" y="-315.8" font-family="Times,serif" font-size="14.00">%4</text>
</g>
</g>
</svg>
