<?xml version="1.0" encoding="UTF-8" standalone="no"?>
<!DOCTYPE svg PUBLIC "-//W3C//DTD SVG 1.1//EN"
 "http://www.w3.org/Graphics/SVG/1.1/DTD/svg11.dtd">
<!-- Generated by graphviz version 2.43.0 (0)
 -->
<!-- Title: G Pages: 1 -->
<svg width="607pt" height="909pt"
 viewBox="0.00 0.00 607.00 909.00" xmlns="http://www.w3.org/2000/svg" xmlns:xlink="http://www.w3.org/1999/xlink">
<g id="graph0" class="graph" transform="scale(1 1) rotate(0) translate(4 905)">
<title>G</title>
<polygon fill="white" stroke="transparent" points="-4,4 -4,-905 603,-905 603,4 -4,4"/>
<!-- node0 -->
<g id="node1" class="node">
<title>node0</title>
<polygon fill="none" stroke="black" points="251,-862.5 251,-900.5 352,-900.5 352,-862.5 251,-862.5"/>
<text text-anchor="start" x="259" y="-885.3" font-family="Times,serif" font-size="14.00">Let l0 =</text>
<text text-anchor="start" x="259" y="-870.3" font-family="Times,serif" font-size="14.00"> Constant ()</text>
</g>
<!-- node2 -->
<g id="node3" class="node">
<title>node2</title>
<polygon fill="none" stroke="black" points="24,-757.5 24,-810.5 293,-810.5 293,-757.5 24,-757.5"/>
<text text-anchor="start" x="32" y="-795.3" font-family="Times,serif" font-size="14.00">Let l1 =</text>
<text text-anchor="start" x="32" y="-780.3" font-family="Times,serif" font-size="14.00"> Join %0 %1</text>
<text text-anchor="start" x="32" y="-765.3" font-family="Times,serif" font-size="14.00"> implementation = Unimplemented</text>
</g>
<!-- node0&#45;&gt;node2 -->
<g id="edge11" class="edge">
<title>node0&#45;&gt;node2</title>
<path fill="none" stroke="black" d="M274.27,-862.31C254.79,-849.31 228.1,-831.48 205.25,-816.22"/>
<polygon fill="black" stroke="black" points="206.96,-813.16 196.7,-810.51 203.08,-818.98 206.96,-813.16"/>
<text text-anchor="start" x="243.5" y="-832.8" font-family="Times,serif" font-size="14.00">%0</text>
</g>
<!-- node4 -->
<g id="node5" class="node">
<title>node4</title>
<polygon fill="none" stroke="black" points="311,-757.5 311,-810.5 580,-810.5 580,-757.5 311,-757.5"/>
<text text-anchor="start" x="319" y="-795.3" font-family="Times,serif" font-size="14.00">Let l2 =</text>
<text text-anchor="start" x="319" y="-780.3" font-family="Times,serif" font-size="14.00"> Join %0 %3</text>
<text text-anchor="start" x="319" y="-765.3" font-family="Times,serif" font-size="14.00"> implementation = Unimplemented</text>
</g>
<!-- node0&#45;&gt;node4 -->
<g id="edge17" class="edge">
<title>node0&#45;&gt;node4</title>
<path fill="none" stroke="black" d="M328.92,-862.31C348.53,-849.31 375.41,-831.48 398.42,-816.22"/>
<polygon fill="black" stroke="black" points="400.63,-818.96 407.03,-810.51 396.76,-813.12 400.63,-818.96"/>
<text text-anchor="start" x="377.5" y="-832.8" font-family="Times,serif" font-size="14.00">%0</text>
</g>
<!-- node1 -->
<g id="node2" class="node">
<title>node1</title>
<polygon fill="none" stroke="black" points="4.5,-863.5 4.5,-899.5 232.5,-899.5 232.5,-863.5 4.5,-863.5"/>
<text text-anchor="start" x="12.5" y="-877.8" font-family="Times,serif" font-size="14.00">Get materialize.public.r (u38)</text>
</g>
<!-- node1&#45;&gt;node2 -->
<g id="edge14" class="edge">
<title>node1&#45;&gt;node2</title>
<path fill="none" stroke="black" d="M125.65,-863.43C130.7,-851.37 137.65,-834.78 143.85,-819.97"/>
<polygon fill="black" stroke="black" points="147.16,-821.13 147.8,-810.55 140.7,-818.43 147.16,-821.13"/>
<text text-anchor="start" x="140.5" y="-832.8" font-family="Times,serif" font-size="14.00">%1</text>
</g>
<!-- node5 -->
<g id="node6" class="node">
<title>node5</title>
<polygon fill="none" stroke="black" points="268,-622.5 268,-705.5 537,-705.5 537,-622.5 268,-622.5"/>
<text text-anchor="start" x="276" y="-690.3" font-family="Times,serif" font-size="14.00">Let l3 =</text>
<text text-anchor="start" x="276" y="-675.3" font-family="Times,serif" font-size="14.00"> Join %2 %4</text>
<text text-anchor="start" x="276" y="-660.3" font-family="Times,serif" font-size="14.00"> implementation = Unimplemented</text>
<text text-anchor="start" x="276" y="-645.3" font-family="Times,serif" font-size="14.00"> Project (#0..#3)</text>
<text text-anchor="start" x="276" y="-630.3" font-family="Times,serif" font-size="14.00"> Filter (#1 = coalesce(#2, 0))</text>
</g>
<!-- node2&#45;&gt;node5 -->
<g id="edge2" class="edge">
<title>node2&#45;&gt;node5</title>
<path fill="none" stroke="black" d="M211.44,-757.4C240.01,-743.58 276.12,-726.12 309.23,-710.11"/>
<polygon fill="black" stroke="black" points="311,-713.14 318.48,-705.63 307.95,-706.84 311,-713.14"/>
<text text-anchor="start" x="280.5" y="-727.8" font-family="Times,serif" font-size="14.00">%2</text>
</g>
<!-- node7 -->
<g id="node8" class="node">
<title>node7</title>
<polygon fill="none" stroke="black" points="138,-565.5 138,-603.5 335,-603.5 335,-565.5 138,-565.5"/>
<text text-anchor="start" x="146" y="-588.3" font-family="Times,serif" font-size="14.00">Get %2 (l1)</text>
<text text-anchor="start" x="146" y="-573.3" font-family="Times,serif" font-size="14.00"> Distinct group=(#0, #1)</text>
</g>
<!-- node2&#45;&gt;node7 -->
<g id="edge4" class="edge">
<title>node2&#45;&gt;node7</title>
<path fill="none" stroke="black" d="M168.7,-757.18C183.41,-719.94 210.46,-651.43 225.57,-613.18"/>
<polygon fill="black" stroke="black" points="228.9,-614.28 229.31,-603.69 222.39,-611.71 228.9,-614.28"/>
<text text-anchor="start" x="181.5" y="-727.8" font-family="Times,serif" font-size="14.00">%2</text>
</g>
<!-- node9 -->
<g id="node10" class="node">
<title>node9</title>
<polygon fill="none" stroke="black" points="0,-300.5 0,-353.5 269,-353.5 269,-300.5 0,-300.5"/>
<text text-anchor="start" x="8" y="-338.3" font-family="Times,serif" font-size="14.00">Join %8 %2 (= #0 #2) (= #1 #3)</text>
<text text-anchor="start" x="8" y="-323.3" font-family="Times,serif" font-size="14.00"> implementation = Unimplemented</text>
<text text-anchor="start" x="8" y="-308.3" font-family="Times,serif" font-size="14.00"> Project (#0, #1)</text>
</g>
<!-- node2&#45;&gt;node9 -->
<g id="edge15" class="edge">
<title>node2&#45;&gt;node9</title>
<path fill="none" stroke="black" d="M145.91,-757.44C135.53,-733.99 122.5,-697.98 122.5,-665 122.5,-665 122.5,-665 122.5,-422.5 122.5,-402.87 125.08,-381.13 127.85,-363.45"/>
<polygon fill="black" stroke="black" points="131.3,-363.99 129.48,-353.56 124.4,-362.85 131.3,-363.99"/>
<text text-anchor="start" x="122.5" y="-516.3" font-family="Times,serif" font-size="14.00">%2</text>
</g>
<!-- node3 -->
<g id="node4" class="node">
<title>node3</title>
<polygon fill="none" stroke="black" points="370,-863.5 370,-899.5 599,-899.5 599,-863.5 370,-863.5"/>
<text text-anchor="start" x="378" y="-877.8" font-family="Times,serif" font-size="14.00">Get materialize.public.s (u40)</text>
</g>
<!-- node3&#45;&gt;node4 -->
<g id="edge1" class="edge">
<title>node3&#45;&gt;node4</title>
<path fill="none" stroke="black" d="M477.53,-863.43C472.6,-851.37 465.83,-834.78 459.78,-819.97"/>
<polygon fill="black" stroke="black" points="462.96,-818.49 455.94,-810.55 456.48,-821.14 462.96,-818.49"/>
<text text-anchor="start" x="467.5" y="-832.8" font-family="Times,serif" font-size="14.00">%3</text>
</g>
<!-- node4&#45;&gt;node5 -->
<g id="edge12" class="edge">
<title>node4&#45;&gt;node5</title>
<path fill="none" stroke="black" d="M436.17,-757.4C431.67,-745.05 426.11,-729.8 420.82,-715.27"/>
<polygon fill="black" stroke="black" points="424.1,-714.06 417.39,-705.86 417.53,-716.46 424.1,-714.06"/>
<text text-anchor="start" x="428.5" y="-727.8" font-family="Times,serif" font-size="14.00">%4</text>
</g>
<!-- node6 -->
<g id="node7" class="node">
<title>node6</title>
<polygon fill="none" stroke="black" points="254,-493.5 254,-546.5 451,-546.5 451,-493.5 254,-493.5"/>
<text text-anchor="start" x="262" y="-531.3" font-family="Times,serif" font-size="14.00">Get %5 (l3)</text>
<text text-anchor="start" x="262" y="-516.3" font-family="Times,serif" font-size="14.00"> Distinct group=(#0, #1)</text>
<text text-anchor="start" x="262" y="-501.3" font-family="Times,serif" font-size="14.00"> Negate</text>
</g>
<!-- node5&#45;&gt;node6 -->
<g id="edge8" class="edge">
<title>node5&#45;&gt;node6</title>
<path fill="none" stroke="black" d="M388.17,-622.31C380.82,-601.42 371.94,-576.21 364.88,-556.17"/>
<polygon fill="black" stroke="black" points="368.1,-554.77 361.48,-546.5 361.5,-557.1 368.1,-554.77"/>
<text text-anchor="start" x="379.5" y="-580.8" font-family="Times,serif" font-size="14.00">%5</text>
</g>
<!-- node12 -->
<g id="node13" class="node">
<title>node12</title>
<polygon fill="none" stroke="black" points="334,-120.5 334,-158.5 461,-158.5 461,-120.5 334,-120.5"/>
<text text-anchor="start" x="342" y="-143.3" font-family="Times,serif" font-size="14.00">Let l4 =</text>
<text text-anchor="start" x="342" y="-128.3" font-family="Times,serif" font-size="14.00"> Union %5 %11</text>
</g>
<!-- node5&#45;&gt;node12 -->
<g id="edge10" class="edge">
<title>node5&#45;&gt;node12</title>
<path fill="none" stroke="black" d="M438.52,-622.29C458.56,-595.45 479.5,-558.44 479.5,-521 479.5,-521 479.5,-521 479.5,-228.5 479.5,-201.89 459.18,-179.96 438.77,-164.65"/>
<polygon fill="black" stroke="black" points="440.56,-161.64 430.38,-158.71 436.51,-167.35 440.56,-161.64"/>
<text text-anchor="start" x="479.5" y="-375.8" font-family="Times,serif" font-size="14.00">%5</text>
</g>
<!-- node8 -->
<g id="node9" class="node">
<title>node8</title>
<polygon fill="none" stroke="black" points="156,-405.5 156,-441.5 269,-441.5 269,-405.5 156,-405.5"/>
<text text-anchor="start" x="164" y="-419.8" font-family="Times,serif" font-size="14.00">Union %6 %7</text>
</g>
<!-- node6&#45;&gt;node8 -->
<g id="edge6" class="edge">
<title>node6&#45;&gt;node8</title>
<path fill="none" stroke="black" d="M314.61,-493.43C293.36,-479.08 267.06,-461.32 246.47,-447.43"/>
<polygon fill="black" stroke="black" points="248.27,-444.43 238.03,-441.73 244.36,-450.23 248.27,-444.43"/>
<text text-anchor="start" x="286.5" y="-463.8" font-family="Times,serif" font-size="14.00">%6</text>
</g>
<!-- node7&#45;&gt;node8 -->
<g id="edge13" class="edge">
<title>node7&#45;&gt;node8</title>
<path fill="none" stroke="black" d="M227.7,-565.31C225.29,-559.57 222.95,-553.13 221.5,-547 213.95,-515 212.23,-477.11 212.06,-452.03"/>
<polygon fill="black" stroke="black" points="215.56,-451.81 212.07,-441.8 208.56,-451.8 215.56,-451.81"/>
<text text-anchor="start" x="221.5" y="-516.3" font-family="Times,serif" font-size="14.00">%7</text>
</g>
<!-- node8&#45;&gt;node9 -->
<g id="edge7" class="edge">
<title>node8&#45;&gt;node9</title>
<path fill="none" stroke="black" d="M198.19,-405.17C188.17,-393.03 174.46,-376.41 162.33,-361.71"/>
<polygon fill="black" stroke="black" points="164.84,-359.26 155.78,-353.78 159.44,-363.72 164.84,-359.26"/>
<text text-anchor="start" x="183.5" y="-375.8" font-family="Times,serif" font-size="14.00">%8</text>
</g>
<!-- node11 -->
<g id="node12" class="node">
<title>node11</title>
<polygon fill="none" stroke="black" points="182,-210.5 182,-248.5 451,-248.5 451,-210.5 182,-210.5"/>
<text text-anchor="start" x="190" y="-233.3" font-family="Times,serif" font-size="14.00">Join %9 %10</text>
<text text-anchor="start" x="190" y="-218.3" font-family="Times,serif" font-size="14.00"> implementation = Unimplemented</text>
</g>
<!-- node9&#45;&gt;node11 -->
<g id="edge16" class="edge">
<title>node9&#45;&gt;node11</title>
<path fill="none" stroke="black" d="M183.27,-300.41C211.15,-285.78 245.83,-267.58 272.81,-253.42"/>
<polygon fill="black" stroke="black" points="274.78,-256.34 282.01,-248.6 271.53,-250.14 274.78,-256.34"/>
<text text-anchor="start" x="242.5" y="-270.8" font-family="Times,serif" font-size="14.00">%9</text>
</g>
<!-- node10 -->
<g id="node11" class="node">
<title>node10</title>
<polygon fill="none" stroke="black" points="287,-309 287,-345 446,-345 446,-309 287,-309"/>
<text text-anchor="start" x="295" y="-323.3" font-family="Times,serif" font-size="14.00">Constant (null, null)</text>
</g>
<!-- node10&#45;&gt;node11 -->
<g id="edge5" class="edge">
<title>node10&#45;&gt;node11</title>
<path fill="none" stroke="black" d="M357.56,-308.93C350.14,-294.75 339.45,-274.33 330.83,-257.88"/>
<polygon fill="black" stroke="black" points="333.78,-255.96 326.04,-248.73 327.58,-259.21 333.78,-255.96"/>
<text text-anchor="start" x="342.5" y="-270.8" font-family="Times,serif" font-size="14.00">%10</text>
</g>
<!-- node11&#45;&gt;node12 -->
<g id="edge3" class="edge">
<title>node11&#45;&gt;node12</title>
<path fill="none" stroke="black" d="M333.28,-210.27C345.01,-197.52 360.84,-180.33 373.85,-166.2"/>
<polygon fill="black" stroke="black" points="376.54,-168.44 380.74,-158.71 371.39,-163.7 376.54,-168.44"/>
<text text-anchor="start" x="361.5" y="-180.8" font-family="Times,serif" font-size="14.00">%11</text>
</g>
<!-- node13 -->
<g id="node14" class="node">
<title>node13</title>
<polygon fill="none" stroke="black" points="313.5,-0.5 313.5,-68.5 481.5,-68.5 481.5,-0.5 313.5,-0.5"/>
<text text-anchor="start" x="321.5" y="-53.3" font-family="Times,serif" font-size="14.00">Get %12 (l4)</text>
<text text-anchor="start" x="321.5" y="-38.3" font-family="Times,serif" font-size="14.00"> Map coalesce(#3, 0)</text>
<text text-anchor="start" x="321.5" y="-23.3" font-family="Times,serif" font-size="14.00"> Project (#0..#4)</text>
<text text-anchor="start" x="321.5" y="-8.3" font-family="Times,serif" font-size="14.00"> Project (#0, #1, #4)</text>
</g>
<!-- node12&#45;&gt;node13 -->
<g id="edge9" class="edge">
<title>node12&#45;&gt;node13</title>
<path fill="none" stroke="black" d="M397.5,-120.09C397.5,-108.63 397.5,-93.39 397.5,-79"/>
<polygon fill="black" stroke="black" points="401,-78.74 397.5,-68.74 394,-78.74 401,-78.74"/>
<text text-anchor="start" x="397.5" y="-90.8" font-family="Times,serif" font-size="14.00">%12</text>
</g>
</g>
</svg>
