<?xml version="1.0" encoding="UTF-8" standalone="no"?>
<!DOCTYPE svg PUBLIC "-//W3C//DTD SVG 1.1//EN"
 "http://www.w3.org/Graphics/SVG/1.1/DTD/svg11.dtd">
<!-- Generated by graphviz version 2.43.0 (0)
 -->
<!-- Title: G Pages: 1 -->
<svg width="484pt" height="150pt"
 viewBox="0.00 0.00 483.50 150.00" xmlns="http://www.w3.org/2000/svg" xmlns:xlink="http://www.w3.org/1999/xlink">
<g id="graph0" class="graph" transform="scale(1 1) rotate(0) translate(4 146)">
<title>G</title>
<polygon fill="white" stroke="transparent" points="-4,4 -4,-146 479.5,-146 479.5,4 -4,4"/>
<!-- node0 -->
<g id="node1" class="node">
<title>node0</title>
<polygon fill="none" stroke="black" points="0,-105.5 0,-141.5 228,-141.5 228,-105.5 0,-105.5"/>
<text text-anchor="start" x="8" y="-119.8" font-family="Times,serif" font-size="14.00">Get materialize.public.r (u38)</text>
</g>
<!-- node2 -->
<g id="node3" class="node">
<title>node2</title>
<polygon fill="none" stroke="black" points="59,-0.5 59,-53.5 415,-53.5 415,-0.5 59,-0.5"/>
<text text-anchor="start" x="67" y="-38.3" font-family="Times,serif" font-size="14.00">LeftOuterJoin %0 %1 on (#1 = coalesce(#2, 0))</text>
<text text-anchor="start" x="67" y="-23.3" font-family="Times,serif" font-size="14.00"> Map coalesce(#3, 0)</text>
<text text-anchor="start" x="67" y="-8.3" font-family="Times,serif" font-size="14.00"> Project (#0, #1, #4)</text>
</g>
<!-- node0&#45;&gt;node2 -->
<g id="edge1" class="edge">
<title>node0&#45;&gt;node2</title>
<path fill="none" stroke="black" d="M136.27,-105.39C152.82,-92.67 175.88,-74.96 195.76,-59.69"/>
<polygon fill="black" stroke="black" points="197.97,-62.4 203.77,-53.53 193.7,-56.85 197.97,-62.4"/>
<text text-anchor="start" x="180" y="-75.8" font-family="Times,serif" font-size="14.00">%0</text>
</g>
<!-- node1 -->
<g id="node2" class="node">
<title>node1</title>
<polygon fill="none" stroke="black" points="246.5,-105.5 246.5,-141.5 475.5,-141.5 475.5,-105.5 246.5,-105.5"/>
<text text-anchor="start" x="254.5" y="-119.8" font-family="Times,serif" font-size="14.00">Get materialize.public.s (u40)</text>
</g>
<!-- node1&#45;&gt;node2 -->
<g id="edge2" class="edge">
<title>node1&#45;&gt;node2</title>
<path fill="none" stroke="black" d="M338.54,-105.39C321.86,-92.67 298.62,-74.96 278.58,-59.69"/>
<polygon fill="black" stroke="black" points="280.58,-56.81 270.51,-53.53 276.34,-62.38 280.58,-56.81"/>
<text text-anchor="start" x="314" y="-75.8" font-family="Times,serif" font-size="14.00">%1</text>
</g>
</g>
</svg>
