<?xml version="1.0" encoding="UTF-8" standalone="no"?>
<!DOCTYPE svg PUBLIC "-//W3C//DTD SVG 1.1//EN"
 "http://www.w3.org/Graphics/SVG/1.1/DTD/svg11.dtd">
<!-- Generated by graphviz version 2.43.0 (0)
 -->
<!-- Title: G Pages: 1 -->
<svg width="792pt" height="135pt"
 viewBox="0.00 0.00 791.50 135.00" xmlns="http://www.w3.org/2000/svg" xmlns:xlink="http://www.w3.org/1999/xlink">
<g id="graph0" class="graph" transform="scale(1 1) rotate(0) translate(4 131)">
<title>G</title>
<polygon fill="white" stroke="transparent" points="-4,4 -4,-131 787.5,-131 787.5,4 -4,4"/>
<!-- node0 -->
<g id="node1" class="node">
<title>node0</title>
<polygon fill="none" stroke="black" points="0,-90.5 0,-126.5 227,-126.5 227,-90.5 0,-90.5"/>
<text text-anchor="start" x="8" y="-104.8" font-family="Times,serif" font-size="14.00">Get hir_to_qgm.public.r (u39)</text>
</g>
<!-- node2 -->
<g id="node3" class="node">
<title>node2</title>
<polygon fill="none" stroke="black" points="217.5,-0.5 217.5,-38.5 409.5,-38.5 409.5,-0.5 217.5,-0.5"/>
<text text-anchor="start" x="225.5" y="-23.3" font-family="Times,serif" font-size="14.00">InnerJoin %0 %1 on true</text>
<text text-anchor="start" x="225.5" y="-8.3" font-family="Times,serif" font-size="14.00">Filter (#0 = #2)</text>
</g>
<!-- node0&#45;&gt;node2 -->
<g id="edge2" class="edge">
<title>node0&#45;&gt;node2</title>
<path fill="none" stroke="black" d="M153.01,-90.31C184.44,-76.64 228.63,-57.42 262.69,-42.6"/>
<polygon fill="black" stroke="black" points="264.23,-45.75 272,-38.55 261.44,-39.33 264.23,-45.75"/>
<text text-anchor="start" x="225.5" y="-60.8" font-family="Times,serif" font-size="14.00">%0</text>
</g>
<!-- node1 -->
<g id="node2" class="node">
<title>node1</title>
<polygon fill="none" stroke="black" points="245.5,-90.5 245.5,-126.5 783.5,-126.5 783.5,-90.5 245.5,-90.5"/>
<text text-anchor="start" x="253.5" y="-104.8" font-family="Times,serif" font-size="14.00">CallTable wrap2((#^0 * i32toi64(#^1)), &quot;a&quot;, (#^0 * i32toi64(#^1)), &quot;b&quot;)</text>
</g>
<!-- node1&#45;&gt;node2 -->
<g id="edge1" class="edge">
<title>node1&#45;&gt;node2</title>
<path fill="none" stroke="black" d="M474.79,-90.31C443.21,-76.64 398.8,-57.42 364.57,-42.6"/>
<polygon fill="black" stroke="black" points="365.77,-39.31 355.2,-38.55 362.99,-45.74 365.77,-39.31"/>
<text text-anchor="start" x="432.5" y="-60.8" font-family="Times,serif" font-size="14.00">%1</text>
</g>
</g>
</svg>
