<?xml version="1.0" encoding="UTF-8" standalone="no"?>
<!DOCTYPE svg PUBLIC "-//W3C//DTD SVG 1.1//EN"
 "http://www.w3.org/Graphics/SVG/1.1/DTD/svg11.dtd">
<!-- Generated by graphviz version 2.43.0 (0)
 -->
<!-- Title: G Pages: 1 -->
<svg width="770pt" height="550pt"
 viewBox="0.00 0.00 770.00 550.00" xmlns="http://www.w3.org/2000/svg" xmlns:xlink="http://www.w3.org/1999/xlink">
<g id="graph0" class="graph" transform="scale(1 1) rotate(0) translate(4 546)">
<title>G</title>
<polygon fill="white" stroke="transparent" points="-4,4 -4,-546 766,-546 766,4 -4,4"/>
<g id="clust1" class="cluster">
<title>cluster3</title>
<polygon fill="none" stroke="black" points="452,-356 452,-534 714,-534 714,-356 452,-356"/>
<text text-anchor="middle" x="502.5" y="-518.8" font-family="Times,serif" font-size="14.00">Box3:Select</text>
</g>
<g id="clust3" class="cluster">
<title>cluster0</title>
<polygon fill="none" stroke="black" points="149,-159 149,-337 582,-337 582,-159 149,-159"/>
<text text-anchor="middle" x="199.5" y="-321.8" font-family="Times,serif" font-size="14.00">Box0:Select</text>
</g>
<g id="clust5" class="cluster">
<title>cluster1</title>
<polygon fill="none" stroke="black" points="8,-19.5 8,-128.5 170,-128.5 170,-19.5 8,-19.5"/>
<text text-anchor="middle" x="49.5" y="-113.3" font-family="Times,serif" font-size="14.00">Box1:Get</text>
</g>
<g id="clust7" class="cluster">
<title>cluster2</title>
<polygon fill="none" stroke="black" points="178,-8 178,-140 754,-140 754,-8 178,-8"/>
<text text-anchor="middle" x="239.5" y="-124.8" font-family="Times,serif" font-size="14.00">Box2:CallTable</text>
</g>
<!-- boxhead3 -->
<g id="node1" class="node">
<title>boxhead3</title>
<polygon fill="none" stroke="black" points="552.5,-364.5 552.5,-502.5 705.5,-502.5 705.5,-364.5 552.5,-364.5"/>
<text text-anchor="middle" x="629" y="-487.3" font-family="Times,serif" font-size="14.00">Distinct: Preserve</text>
<polyline fill="none" stroke="black" points="552.5,-479.5 705.5,-479.5 "/>
<text text-anchor="middle" x="629" y="-464.3" font-family="Times,serif" font-size="14.00">0: Q2.C0 (bigint)</text>
<polyline fill="none" stroke="black" points="552.5,-456.5 705.5,-456.5 "/>
<text text-anchor="middle" x="629" y="-441.3" font-family="Times,serif" font-size="14.00">1: Q2.C1 (integer?)</text>
<polyline fill="none" stroke="black" points="552.5,-433.5 705.5,-433.5 "/>
<text text-anchor="middle" x="629" y="-418.3" font-family="Times,serif" font-size="14.00">2: Q2.C2 (bigint)</text>
<polyline fill="none" stroke="black" points="552.5,-410.5 705.5,-410.5 "/>
<text text-anchor="middle" x="629" y="-395.3" font-family="Times,serif" font-size="14.00">3: Q2.C3 (text)</text>
<polyline fill="none" stroke="black" points="552.5,-387.5 705.5,-387.5 "/>
<text text-anchor="middle" x="629" y="-372.3" font-family="Times,serif" font-size="14.00">(Q2.C0 = Q2.C2)</text>
</g>
<!-- Q2 -->
<g id="node2" class="node">
<title>Q2</title>
<ellipse fill="none" stroke="black" cx="497" cy="-433.5" rx="37.09" ry="37.09"/>
<text text-anchor="middle" x="497" y="-429.8" font-family="Times,serif" font-size="14.00">Q2(F)</text>
</g>
<!-- boxhead0 -->
<g id="node3" class="node">
<title>boxhead0</title>
<polygon fill="none" stroke="black" points="420.5,-167.5 420.5,-305.5 573.5,-305.5 573.5,-167.5 420.5,-167.5"/>
<text text-anchor="middle" x="497" y="-290.3" font-family="Times,serif" font-size="14.00">Distinct: Preserve</text>
<polyline fill="none" stroke="black" points="420.5,-282.5 573.5,-282.5 "/>
<text text-anchor="middle" x="497" y="-267.3" font-family="Times,serif" font-size="14.00">0: Q0.C0 (bigint?)</text>
<polyline fill="none" stroke="black" points="420.5,-259.5 573.5,-259.5 "/>
<text text-anchor="middle" x="497" y="-244.3" font-family="Times,serif" font-size="14.00">1: Q0.C1 (integer?)</text>
<polyline fill="none" stroke="black" points="420.5,-236.5 573.5,-236.5 "/>
<text text-anchor="middle" x="497" y="-221.3" font-family="Times,serif" font-size="14.00">2: Q1.C0 (bigint?)</text>
<polyline fill="none" stroke="black" points="420.5,-213.5 573.5,-213.5 "/>
<text text-anchor="middle" x="497" y="-198.3" font-family="Times,serif" font-size="14.00">3: Q1.C1 (text)</text>
<polyline fill="none" stroke="black" points="420.5,-190.5 573.5,-190.5 "/>
<text text-anchor="middle" x="497" y="-175.3" font-family="Times,serif" font-size="14.00">true</text>
</g>
<!-- Q2&#45;&gt;boxhead0 -->
<g id="edge2" class="edge">
<title>Q2&#45;&gt;boxhead0</title>
<path fill="none" stroke="black" stroke-dasharray="5,2" d="M497,-396.28C497,-379.33 497,-358.23 497,-337"/>
</g>
<!-- Q0 -->
<g id="node4" class="node">
<title>Q0</title>
<ellipse fill="none" stroke="black" cx="194" cy="-236.5" rx="37.09" ry="37.09"/>
<text text-anchor="middle" x="194" y="-232.8" font-family="Times,serif" font-size="14.00">Q0(F)</text>
</g>
<!-- boxhead1 -->
<g id="node6" class="node">
<title>boxhead1</title>
<polygon fill="none" stroke="black" points="16,-28 16,-97 162,-97 162,-28 16,-28"/>
<text text-anchor="middle" x="89" y="-81.8" font-family="Times,serif" font-size="14.00">Distinct: Preserve</text>
<polyline fill="none" stroke="black" points="16,-74 162,-74 "/>
<text text-anchor="middle" x="89" y="-58.8" font-family="Times,serif" font-size="14.00">0: C0 (bigint?)</text>
<polyline fill="none" stroke="black" points="16,-51 162,-51 "/>
<text text-anchor="middle" x="89" y="-35.8" font-family="Times,serif" font-size="14.00">1: C1 (integer?)</text>
</g>
<!-- Q0&#45;&gt;boxhead1 -->
<g id="edge3" class="edge">
<title>Q0&#45;&gt;boxhead1</title>
<path fill="none" stroke="black" stroke-dasharray="5,2" d="M174.99,-204.35C162.08,-183.22 144.55,-154.49 128.68,-128.5"/>
</g>
<!-- Q1 -->
<g id="node5" class="node">
<title>Q1</title>
<ellipse fill="none" stroke="black" cx="365" cy="-236.5" rx="37.09" ry="37.09"/>
<text text-anchor="middle" x="365" y="-232.8" font-family="Times,serif" font-size="14.00">Q1(F)</text>
</g>
<!-- Q1&#45;&gt;Q0 -->
<g id="edge1" class="edge">
<title>Q1&#45;&gt;Q0</title>
<path fill="none" stroke="red" d="M327.67,-236.5C302.28,-236.5 268.47,-236.5 241.2,-236.5"/>
<polygon fill="red" stroke="red" points="241.1,-233 231.1,-236.5 241.1,-240 241.1,-233"/>
<text text-anchor="middle" x="279.5" y="-243.3" font-family="Times,serif" font-size="14.00">correlation</text>
</g>
<!-- boxhead2 -->
<g id="node7" class="node">
<title>boxhead2</title>
<polygon fill="none" stroke="black" points="186,-16.5 186,-108.5 746,-108.5 746,-16.5 186,-16.5"/>
<text text-anchor="middle" x="466" y="-93.3" font-family="Times,serif" font-size="14.00">Distinct: Preserve</text>
<polyline fill="none" stroke="black" points="186,-85.5 746,-85.5 "/>
<text text-anchor="middle" x="466" y="-70.3" font-family="Times,serif" font-size="14.00">0: C0 (bigint?)</text>
<polyline fill="none" stroke="black" points="186,-62.5 746,-62.5 "/>
<text text-anchor="middle" x="466" y="-47.3" font-family="Times,serif" font-size="14.00">1: C1 (text)</text>
<polyline fill="none" stroke="black" points="186,-39.5 746,-39.5 "/>
<text text-anchor="middle" x="466" y="-24.3" font-family="Times,serif" font-size="14.00">CALL: wrap2((Q0.C0 * i32toi64(Q0.C1)), &quot;a&quot;, (Q0.C0 * i32toi64(Q0.C1)), &quot;b&quot;)</text>
</g>
<!-- Q1&#45;&gt;boxhead2 -->
<g id="edge4" class="edge">
<title>Q1&#45;&gt;boxhead2</title>
<path fill="none" stroke="black" stroke-dasharray="5,2" d="M383.52,-203.95C394.1,-185.95 407.85,-162.53 421.08,-140"/>
</g>
</g>
</svg>
