<?xml version="1.0" encoding="UTF-8" standalone="no"?>
<!DOCTYPE svg PUBLIC "-//W3C//DTD SVG 1.1//EN"
 "http://www.w3.org/Graphics/SVG/1.1/DTD/svg11.dtd">
<!-- Generated by graphviz version 2.43.0 (0)
 -->
<!-- Title: G Pages: 1 -->
<svg width="792pt" height="212pt"
 viewBox="0.00 0.00 791.50 212.00" xmlns="http://www.w3.org/2000/svg" xmlns:xlink="http://www.w3.org/1999/xlink">
<g id="graph0" class="graph" transform="scale(1 1) rotate(0) translate(4 208)">
<title>G</title>
<polygon fill="white" stroke="transparent" points="-4,4 -4,-208 787.5,-208 787.5,4 -4,4"/>
<!-- node0 -->
<g id="node1" class="node">
<title>node0</title>
<polygon fill="none" stroke="black" points="0,-150.5 0,-203.5 227,-203.5 227,-150.5 0,-150.5"/>
<text text-anchor="start" x="8" y="-188.3" font-family="Times,serif" font-size="14.00">Get hir_to_qgm.public.r (u39)</text>
<text text-anchor="start" x="8" y="-173.3" font-family="Times,serif" font-size="14.00">&#45; types = (bigint?, integer?)</text>
<text text-anchor="start" x="8" y="-158.3" font-family="Times,serif" font-size="14.00">&#45; keys = ()</text>
</g>
<!-- node2 -->
<g id="node3" class="node">
<title>node2</title>
<polygon fill="none" stroke="black" points="158.5,-0.5 158.5,-98.5 468.5,-98.5 468.5,-0.5 158.5,-0.5"/>
<text text-anchor="start" x="166.5" y="-83.3" font-family="Times,serif" font-size="14.00">InnerJoin %0 %1 on true</text>
<text text-anchor="start" x="166.5" y="-68.3" font-family="Times,serif" font-size="14.00">&#45; types = (bigint?, integer?, bigint?, text)</text>
<text text-anchor="start" x="166.5" y="-53.3" font-family="Times,serif" font-size="14.00">&#45; keys = ()</text>
<text text-anchor="start" x="166.5" y="-38.3" font-family="Times,serif" font-size="14.00">Filter (#0 = #2)</text>
<text text-anchor="start" x="166.5" y="-23.3" font-family="Times,serif" font-size="14.00">&#45; types = (bigint?, integer?, bigint?, text)</text>
<text text-anchor="start" x="166.5" y="-8.3" font-family="Times,serif" font-size="14.00">&#45; keys = ()</text>
</g>
<!-- node0&#45;&gt;node2 -->
<g id="edge2" class="edge">
<title>node0&#45;&gt;node2</title>
<path fill="none" stroke="black" d="M154.46,-150.3C175.71,-136.96 202.51,-120.15 228.02,-104.14"/>
<polygon fill="black" stroke="black" points="230,-107.03 236.61,-98.75 226.28,-101.1 230,-107.03"/>
<text text-anchor="start" x="208.5" y="-120.8" font-family="Times,serif" font-size="14.00">%0</text>
</g>
<!-- node1 -->
<g id="node2" class="node">
<title>node1</title>
<polygon fill="none" stroke="black" points="245.5,-150.5 245.5,-203.5 783.5,-203.5 783.5,-150.5 245.5,-150.5"/>
<text text-anchor="start" x="253.5" y="-188.3" font-family="Times,serif" font-size="14.00">CallTable wrap2((#^0 * i32toi64(#^1)), &quot;a&quot;, (#^0 * i32toi64(#^1)), &quot;b&quot;)</text>
<text text-anchor="start" x="253.5" y="-173.3" font-family="Times,serif" font-size="14.00">&#45; types = (bigint?, text)</text>
<text text-anchor="start" x="253.5" y="-158.3" font-family="Times,serif" font-size="14.00">&#45; keys = ()</text>
</g>
<!-- node1&#45;&gt;node2 -->
<g id="edge1" class="edge">
<title>node1&#45;&gt;node2</title>
<path fill="none" stroke="black" d="M473.34,-150.3C451.98,-136.96 425.05,-120.15 399.41,-104.14"/>
<polygon fill="black" stroke="black" points="401.11,-101.08 390.78,-98.75 397.4,-107.01 401.11,-101.08"/>
<text text-anchor="start" x="444.5" y="-120.8" font-family="Times,serif" font-size="14.00">%1</text>
</g>
</g>
</svg>
