<?xml version="1.0" encoding="UTF-8" standalone="no"?>
<!DOCTYPE svg PUBLIC "-//W3C//DTD SVG 1.1//EN"
 "http://www.w3.org/Graphics/SVG/1.1/DTD/svg11.dtd">
<!-- Generated by graphviz version 2.43.0 (0)
 -->
<!-- Title: G Pages: 1 -->
<svg width="662pt" height="482pt"
 viewBox="0.00 0.00 662.00 482.00" xmlns="http://www.w3.org/2000/svg" xmlns:xlink="http://www.w3.org/1999/xlink">
<g id="graph0" class="graph" transform="scale(1 1) rotate(0) translate(4 478)">
<title>G</title>
<polygon fill="white" stroke="transparent" points="-4,4 -4,-478 658,-478 658,4 -4,4"/>
<g id="clust1" class="cluster">
<title>cluster2</title>
<polygon fill="none" stroke="black" points="214,-288 214,-466 646,-466 646,-288 214,-288"/>
<text text-anchor="middle" x="264.5" y="-450.8" font-family="Times,serif" font-size="14.00">Box2:Select</text>
</g>
<g id="clust3" class="cluster">
<title>cluster1</title>
<polygon fill="none" stroke="black" points="44,-125 44,-280 382,-280 382,-125 44,-125"/>
<text text-anchor="middle" x="94.5" y="-264.8" font-family="Times,serif" font-size="14.00">Box1:Select</text>
</g>
<g id="clust5" class="cluster">
<title>cluster0</title>
<polygon fill="none" stroke="black" points="8,-8 8,-117 170,-117 170,-8 8,-8"/>
<text text-anchor="middle" x="49.5" y="-101.8" font-family="Times,serif" font-size="14.00">Box0:Get</text>
</g>
<!-- boxhead2 -->
<g id="node1" class="node">
<title>boxhead2</title>
<polygon fill="none" stroke="black" points="314.5,-296.5 314.5,-434.5 637.5,-434.5 637.5,-296.5 314.5,-296.5"/>
<text text-anchor="middle" x="476" y="-419.3" font-family="Times,serif" font-size="14.00">Distinct: Preserve</text>
<polyline fill="none" stroke="black" points="314.5,-411.5 637.5,-411.5 "/>
<text text-anchor="middle" x="476" y="-396.3" font-family="Times,serif" font-size="14.00">0: Q1.C0 (integer?)</text>
<polyline fill="none" stroke="black" points="314.5,-388.5 637.5,-388.5 "/>
<text text-anchor="middle" x="476" y="-373.3" font-family="Times,serif" font-size="14.00">1: Q1.C1 (integer?)</text>
<polyline fill="none" stroke="black" points="314.5,-365.5 637.5,-365.5 "/>
<text text-anchor="middle" x="476" y="-350.3" font-family="Times,serif" font-size="14.00">2: Q1.C2 (integer?)</text>
<polyline fill="none" stroke="black" points="314.5,-342.5 637.5,-342.5 "/>
<text text-anchor="middle" x="476" y="-327.3" font-family="Times,serif" font-size="14.00">3: Q1.C3 (integer?)</text>
<polyline fill="none" stroke="black" points="314.5,-319.5 637.5,-319.5 "/>
<text text-anchor="middle" x="476" y="-304.3" font-family="Times,serif" font-size="14.00">4: coalesce(Q1.C2, Q1.C3, Q1.C1) (integer)</text>
</g>
<!-- Q1 -->
<g id="node2" class="node">
<title>Q1</title>
<ellipse fill="none" stroke="black" cx="259" cy="-365.5" rx="37.09" ry="37.09"/>
<text text-anchor="middle" x="259" y="-361.8" font-family="Times,serif" font-size="14.00">Q1(F)</text>
</g>
<!-- boxhead1 -->
<g id="node3" class="node">
<title>boxhead1</title>
<polygon fill="none" stroke="black" points="144.5,-133.5 144.5,-248.5 373.5,-248.5 373.5,-133.5 144.5,-133.5"/>
<text text-anchor="middle" x="259" y="-233.3" font-family="Times,serif" font-size="14.00">Distinct: Preserve</text>
<polyline fill="none" stroke="black" points="144.5,-225.5 373.5,-225.5 "/>
<text text-anchor="middle" x="259" y="-210.3" font-family="Times,serif" font-size="14.00">0: Q0.C0 (integer?)</text>
<polyline fill="none" stroke="black" points="144.5,-202.5 373.5,-202.5 "/>
<text text-anchor="middle" x="259" y="-187.3" font-family="Times,serif" font-size="14.00">1: Q0.C1 (integer?)</text>
<polyline fill="none" stroke="black" points="144.5,-179.5 373.5,-179.5 "/>
<text text-anchor="middle" x="259" y="-164.3" font-family="Times,serif" font-size="14.00">2: (Q0.C0 + Q0.C1) (integer?)</text>
<polyline fill="none" stroke="black" points="144.5,-156.5 373.5,-156.5 "/>
<text text-anchor="middle" x="259" y="-141.3" font-family="Times,serif" font-size="14.00">3: (Q0.C0 &#45; Q0.C1) (integer?)</text>
</g>
<!-- Q1&#45;&gt;boxhead1 -->
<g id="edge1" class="edge">
<title>Q1&#45;&gt;boxhead1</title>
<path fill="none" stroke="black" stroke-dasharray="5,2" d="M259,-328.34C259,-314.11 259,-297.1 259,-280"/>
</g>
<!-- Q0 -->
<g id="node4" class="node">
<title>Q0</title>
<ellipse fill="none" stroke="black" cx="89" cy="-191" rx="37.09" ry="37.09"/>
<text text-anchor="middle" x="89" y="-187.3" font-family="Times,serif" font-size="14.00">Q0(F)</text>
</g>
<!-- boxhead0 -->
<g id="node5" class="node">
<title>boxhead0</title>
<polygon fill="none" stroke="black" points="16,-16.5 16,-85.5 162,-85.5 162,-16.5 16,-16.5"/>
<text text-anchor="middle" x="89" y="-70.3" font-family="Times,serif" font-size="14.00">Distinct: Preserve</text>
<polyline fill="none" stroke="black" points="16,-62.5 162,-62.5 "/>
<text text-anchor="middle" x="89" y="-47.3" font-family="Times,serif" font-size="14.00">0: C0 (integer?)</text>
<polyline fill="none" stroke="black" points="16,-39.5 162,-39.5 "/>
<text text-anchor="middle" x="89" y="-24.3" font-family="Times,serif" font-size="14.00">1: C1 (integer?)</text>
</g>
<!-- Q0&#45;&gt;boxhead0 -->
<g id="edge2" class="edge">
<title>Q0&#45;&gt;boxhead0</title>
<path fill="none" stroke="black" stroke-dasharray="5,2" d="M89,-153.74C89,-142.45 89,-129.63 89,-117"/>
</g>
</g>
</svg>
