<?xml version="1.0" encoding="UTF-8" standalone="no"?>
<!DOCTYPE svg PUBLIC "-//W3C//DTD SVG 1.1//EN"
 "http://www.w3.org/Graphics/SVG/1.1/DTD/svg11.dtd">
<!-- Generated by graphviz version 2.43.0 (0)
 -->
<!-- Title: G Pages: 1 -->
<svg width="684pt" height="343pt"
 viewBox="0.00 0.00 684.00 343.00" xmlns="http://www.w3.org/2000/svg" xmlns:xlink="http://www.w3.org/1999/xlink">
<g id="graph0" class="graph" transform="scale(1 1) rotate(0) translate(4 339)">
<title>G</title>
<polygon fill="white" stroke="transparent" points="-4,4 -4,-339 680,-339 680,4 -4,4"/>
<!-- node0 -->
<g id="node1" class="node">
<title>node0</title>
<polygon fill="none" stroke="black" points="290,-298.5 290,-334.5 386,-334.5 386,-298.5 290,-298.5"/>
<text text-anchor="start" x="298" y="-312.8" font-family="Times,serif" font-size="14.00">Constant ()</text>
</g>
<!-- node2 -->
<g id="node3" class="node">
<title>node2</title>
<polygon fill="none" stroke="black" points="55,-208.5 55,-246.5 329,-246.5 329,-208.5 55,-208.5"/>
<text text-anchor="start" x="63" y="-231.3" font-family="Times,serif" font-size="14.00">Join %0 %1</text>
<text text-anchor="start" x="63" y="-216.3" font-family="Times,serif" font-size="14.00">&#45; implementation = Unimplemented</text>
</g>
<!-- node0&#45;&gt;node2 -->
<g id="edge5" class="edge">
<title>node0&#45;&gt;node2</title>
<path fill="none" stroke="black" d="M309.16,-298.31C286.8,-284.99 255.6,-266.4 231.02,-251.75"/>
<polygon fill="black" stroke="black" points="232.67,-248.66 222.29,-246.55 229.09,-254.68 232.67,-248.66"/>
<text text-anchor="start" x="278" y="-268.8" font-family="Times,serif" font-size="14.00">%0</text>
</g>
<!-- node5 -->
<g id="node6" class="node">
<title>node5</title>
<polygon fill="none" stroke="black" points="347,-208.5 347,-246.5 621,-246.5 621,-208.5 347,-208.5"/>
<text text-anchor="start" x="355" y="-231.3" font-family="Times,serif" font-size="14.00">Join %0 %4</text>
<text text-anchor="start" x="355" y="-216.3" font-family="Times,serif" font-size="14.00">&#45; implementation = Unimplemented</text>
</g>
<!-- node0&#45;&gt;node5 -->
<g id="edge2" class="edge">
<title>node0&#45;&gt;node5</title>
<path fill="none" stroke="black" d="M366.84,-298.31C389.2,-284.99 420.4,-266.4 444.98,-251.75"/>
<polygon fill="black" stroke="black" points="446.91,-254.68 453.71,-246.55 443.33,-248.66 446.91,-254.68"/>
<text text-anchor="start" x="419" y="-268.8" font-family="Times,serif" font-size="14.00">%0</text>
</g>
<!-- node1 -->
<g id="node2" class="node">
<title>node1</title>
<polygon fill="none" stroke="black" points="0,-298.5 0,-334.5 272,-334.5 272,-298.5 0,-298.5"/>
<text text-anchor="start" x="8" y="-312.8" font-family="Times,serif" font-size="14.00">Get negate_threshold.public.r (u51)</text>
</g>
<!-- node1&#45;&gt;node2 -->
<g id="edge3" class="edge">
<title>node1&#45;&gt;node2</title>
<path fill="none" stroke="black" d="M147.06,-298.31C154.96,-286.04 165.74,-269.3 174.76,-255.29"/>
<polygon fill="black" stroke="black" points="177.91,-256.85 180.38,-246.55 172.03,-253.07 177.91,-256.85"/>
<text text-anchor="start" x="167" y="-268.8" font-family="Times,serif" font-size="14.00">%1</text>
</g>
<!-- node3 -->
<g id="node4" class="node">
<title>node3</title>
<polygon fill="none" stroke="black" points="215,-88.5 215,-156.5 361,-156.5 361,-88.5 215,-88.5"/>
<text text-anchor="start" x="223" y="-141.3" font-family="Times,serif" font-size="14.00">Map #0</text>
<text text-anchor="start" x="223" y="-126.3" font-family="Times,serif" font-size="14.00">Map #1</text>
<text text-anchor="start" x="223" y="-111.3" font-family="Times,serif" font-size="14.00">Project (#0..=#3)</text>
<text text-anchor="start" x="223" y="-96.3" font-family="Times,serif" font-size="14.00">Project (#2, #3)</text>
</g>
<!-- node2&#45;&gt;node3 -->
<g id="edge8" class="edge">
<title>node2&#45;&gt;node3</title>
<path fill="none" stroke="black" d="M209.16,-208.09C220.56,-195.85 235.99,-179.3 250.18,-164.08"/>
<polygon fill="black" stroke="black" points="252.76,-166.45 257.02,-156.74 247.64,-161.67 252.76,-166.45"/>
<text text-anchor="start" x="240" y="-178.8" font-family="Times,serif" font-size="14.00">%2</text>
</g>
<!-- node7 -->
<g id="node8" class="node">
<title>node7</title>
<polygon fill="none" stroke="black" points="313.5,-0.5 313.5,-36.5 426.5,-36.5 426.5,-0.5 313.5,-0.5"/>
<text text-anchor="start" x="321.5" y="-14.8" font-family="Times,serif" font-size="14.00">Union %3 %6</text>
</g>
<!-- node3&#45;&gt;node7 -->
<g id="edge4" class="edge">
<title>node3&#45;&gt;node7</title>
<path fill="none" stroke="black" d="M314.62,-88.38C325.98,-74.26 339.02,-58.04 349.59,-44.89"/>
<polygon fill="black" stroke="black" points="352.6,-46.73 356.14,-36.74 347.15,-42.34 352.6,-46.73"/>
<text text-anchor="start" x="341" y="-58.8" font-family="Times,serif" font-size="14.00">%3</text>
</g>
<!-- node4 -->
<g id="node5" class="node">
<title>node4</title>
<polygon fill="none" stroke="black" points="404,-298.5 404,-334.5 676,-334.5 676,-298.5 404,-298.5"/>
<text text-anchor="start" x="412" y="-312.8" font-family="Times,serif" font-size="14.00">Get negate_threshold.public.s (u52)</text>
</g>
<!-- node4&#45;&gt;node5 -->
<g id="edge7" class="edge">
<title>node4&#45;&gt;node5</title>
<path fill="none" stroke="black" d="M528.94,-298.31C521.04,-286.04 510.26,-269.3 501.24,-255.29"/>
<polygon fill="black" stroke="black" points="503.97,-253.07 495.62,-246.55 498.09,-256.85 503.97,-253.07"/>
<text text-anchor="start" x="517" y="-268.8" font-family="Times,serif" font-size="14.00">%4</text>
</g>
<!-- node6 -->
<g id="node7" class="node">
<title>node6</title>
<polygon fill="none" stroke="black" points="395,-88.5 395,-156.5 541,-156.5 541,-88.5 395,-88.5"/>
<text text-anchor="start" x="403" y="-141.3" font-family="Times,serif" font-size="14.00">Map #0</text>
<text text-anchor="start" x="403" y="-126.3" font-family="Times,serif" font-size="14.00">Map #1</text>
<text text-anchor="start" x="403" y="-111.3" font-family="Times,serif" font-size="14.00">Project (#0..=#3)</text>
<text text-anchor="start" x="403" y="-96.3" font-family="Times,serif" font-size="14.00">Project (#2, #3)</text>
</g>
<!-- node5&#45;&gt;node6 -->
<g id="edge6" class="edge">
<title>node5&#45;&gt;node6</title>
<path fill="none" stroke="black" d="M481.14,-208.09C479.36,-196.63 476.99,-181.39 474.76,-167"/>
<polygon fill="black" stroke="black" points="478.16,-166.09 473.16,-156.74 471.24,-167.16 478.16,-166.09"/>
<text text-anchor="start" x="477" y="-178.8" font-family="Times,serif" font-size="14.00">%5</text>
</g>
<!-- node6&#45;&gt;node7 -->
<g id="edge1" class="edge">
<title>node6&#45;&gt;node7</title>
<path fill="none" stroke="black" d="M436.18,-88.38C422.35,-73.99 406.43,-57.42 393.67,-44.14"/>
<polygon fill="black" stroke="black" points="396.02,-41.53 386.57,-36.74 390.97,-46.38 396.02,-41.53"/>
<text text-anchor="start" x="416" y="-58.8" font-family="Times,serif" font-size="14.00">%6</text>
</g>
</g>
</svg>
