<?xml version="1.0" encoding="UTF-8" standalone="no"?>
<!DOCTYPE svg PUBLIC "-//W3C//DTD SVG 1.1//EN"
 "http://www.w3.org/Graphics/SVG/1.1/DTD/svg11.dtd">
<!-- Generated by graphviz version 2.43.0 (0)
 -->
<!-- Title: G Pages: 1 -->
<svg width="570pt" height="133pt"
 viewBox="0.00 0.00 570.00 133.00" xmlns="http://www.w3.org/2000/svg" xmlns:xlink="http://www.w3.org/1999/xlink">
<g id="graph0" class="graph" transform="scale(1 1) rotate(0) translate(4 129)">
<title>G</title>
<polygon fill="white" stroke="transparent" points="-4,4 -4,-129 566,-129 566,4 -4,4"/>
<!-- node0 -->
<g id="node1" class="node">
<title>node0</title>
<polygon fill="none" stroke="black" points="0,-88.5 0,-124.5 272,-124.5 272,-88.5 0,-88.5"/>
<text text-anchor="start" x="8" y="-102.8" font-family="Times,serif" font-size="14.00">Get negate_threshold.public.r (u51)</text>
</g>
<!-- node2 -->
<g id="node3" class="node">
<title>node2</title>
<polygon fill="none" stroke="black" points="224.5,-0.5 224.5,-36.5 337.5,-36.5 337.5,-0.5 224.5,-0.5"/>
<text text-anchor="start" x="232.5" y="-14.8" font-family="Times,serif" font-size="14.00">Union %0 %1</text>
</g>
<!-- node0&#45;&gt;node2 -->
<g id="edge2" class="edge">
<title>node0&#45;&gt;node2</title>
<path fill="none" stroke="black" d="M164.99,-88.3C187.52,-74.94 218.93,-56.31 243.39,-41.81"/>
<polygon fill="black" stroke="black" points="245.24,-44.78 252.06,-36.67 241.67,-38.76 245.24,-44.78"/>
<text text-anchor="start" x="218" y="-58.8" font-family="Times,serif" font-size="14.00">%0</text>
</g>
<!-- node1 -->
<g id="node2" class="node">
<title>node1</title>
<polygon fill="none" stroke="black" points="290,-88.5 290,-124.5 562,-124.5 562,-88.5 290,-88.5"/>
<text text-anchor="start" x="298" y="-102.8" font-family="Times,serif" font-size="14.00">Get negate_threshold.public.s (u52)</text>
</g>
<!-- node1&#45;&gt;node2 -->
<g id="edge1" class="edge">
<title>node1&#45;&gt;node2</title>
<path fill="none" stroke="black" d="M397.01,-88.3C374.48,-74.94 343.07,-56.31 318.61,-41.81"/>
<polygon fill="black" stroke="black" points="320.33,-38.76 309.94,-36.67 316.76,-44.78 320.33,-38.76"/>
<text text-anchor="start" x="363" y="-58.8" font-family="Times,serif" font-size="14.00">%1</text>
</g>
</g>
</svg>
