<?xml version="1.0" encoding="UTF-8" standalone="no"?>
<!DOCTYPE svg PUBLIC "-//W3C//DTD SVG 1.1//EN"
 "http://www.w3.org/Graphics/SVG/1.1/DTD/svg11.dtd">
<!-- Generated by graphviz version 2.43.0 (0)
 -->
<!-- Title: G Pages: 1 -->
<svg width="570pt" height="150pt"
 viewBox="0.00 0.00 570.00 150.00" xmlns="http://www.w3.org/2000/svg" xmlns:xlink="http://www.w3.org/1999/xlink">
<g id="graph0" class="graph" transform="scale(1 1) rotate(0) translate(4 146)">
<title>G</title>
<polygon fill="white" stroke="transparent" points="-4,4 -4,-146 566,-146 566,4 -4,4"/>
<!-- node0 -->
<g id="node1" class="node">
<title>node0</title>
<polygon fill="none" stroke="black" points="0,-88.5 0,-141.5 272,-141.5 272,-88.5 0,-88.5"/>
<text text-anchor="start" x="8" y="-126.3" font-family="Times,serif" font-size="14.00">Get negate_threshold.public.r (u51)</text>
<text text-anchor="start" x="8" y="-111.3" font-family="Times,serif" font-size="14.00">Map #0, #1</text>
<text text-anchor="start" x="8" y="-96.3" font-family="Times,serif" font-size="14.00">Project (#2, #3)</text>
</g>
<!-- node2 -->
<g id="node3" class="node">
<title>node2</title>
<polygon fill="none" stroke="black" points="224.5,-0.5 224.5,-36.5 337.5,-36.5 337.5,-0.5 224.5,-0.5"/>
<text text-anchor="start" x="232.5" y="-14.8" font-family="Times,serif" font-size="14.00">Union %0 %1</text>
</g>
<!-- node0&#45;&gt;node2 -->
<g id="edge2" class="edge">
<title>node0&#45;&gt;node2</title>
<path fill="none" stroke="black" d="M175.24,-88.43C197.35,-74.01 224.74,-56.17 246.1,-42.24"/>
<polygon fill="black" stroke="black" points="248.09,-45.12 254.56,-36.73 244.27,-39.26 248.09,-45.12"/>
<text text-anchor="start" x="226" y="-58.8" font-family="Times,serif" font-size="14.00">%0</text>
</g>
<!-- node1 -->
<g id="node2" class="node">
<title>node1</title>
<polygon fill="none" stroke="black" points="290,-88.5 290,-141.5 562,-141.5 562,-88.5 290,-88.5"/>
<text text-anchor="start" x="298" y="-126.3" font-family="Times,serif" font-size="14.00">Get negate_threshold.public.s (u52)</text>
<text text-anchor="start" x="298" y="-111.3" font-family="Times,serif" font-size="14.00">Map #0, #1</text>
<text text-anchor="start" x="298" y="-96.3" font-family="Times,serif" font-size="14.00">Project (#2, #3)</text>
</g>
<!-- node1&#45;&gt;node2 -->
<g id="edge1" class="edge">
<title>node1&#45;&gt;node2</title>
<path fill="none" stroke="black" d="M386.76,-88.43C364.65,-74.01 337.26,-56.17 315.9,-42.24"/>
<polygon fill="black" stroke="black" points="317.73,-39.26 307.44,-36.73 313.91,-45.12 317.73,-39.26"/>
<text text-anchor="start" x="358" y="-58.8" font-family="Times,serif" font-size="14.00">%1</text>
</g>
</g>
</svg>
