<?xml version="1.0" encoding="UTF-8" standalone="no"?>
<!DOCTYPE svg PUBLIC "-//W3C//DTD SVG 1.1//EN"
 "http://www.w3.org/Graphics/SVG/1.1/DTD/svg11.dtd">
<!-- Generated by graphviz version 2.43.0 (0)
 -->
<!-- Title: G Pages: 1 -->
<svg width="570pt" height="167pt"
 viewBox="0.00 0.00 570.00 167.00" xmlns="http://www.w3.org/2000/svg" xmlns:xlink="http://www.w3.org/1999/xlink">
<g id="graph0" class="graph" transform="scale(1 1) rotate(0) translate(4 163)">
<title>G</title>
<polygon fill="white" stroke="transparent" points="-4,4 -4,-163 566,-163 566,4 -4,4"/>
<!-- node0 -->
<g id="node1" class="node">
<title>node0</title>
<polygon fill="none" stroke="black" points="0,-105.5 0,-158.5 272,-158.5 272,-105.5 0,-105.5"/>
<text text-anchor="start" x="8" y="-143.3" font-family="Times,serif" font-size="14.00">Get negate_threshold.public.r (u51)</text>
<text text-anchor="start" x="8" y="-128.3" font-family="Times,serif" font-size="14.00">&#45; types = (bigint?, integer?)</text>
<text text-anchor="start" x="8" y="-113.3" font-family="Times,serif" font-size="14.00">&#45; keys = ()</text>
</g>
<!-- node2 -->
<g id="node3" class="node">
<title>node2</title>
<polygon fill="none" stroke="black" points="174,-0.5 174,-53.5 388,-53.5 388,-0.5 174,-0.5"/>
<text text-anchor="start" x="182" y="-38.3" font-family="Times,serif" font-size="14.00">Union %0 %1</text>
<text text-anchor="start" x="182" y="-23.3" font-family="Times,serif" font-size="14.00">&#45; types = (bigint?, integer?)</text>
<text text-anchor="start" x="182" y="-8.3" font-family="Times,serif" font-size="14.00">&#45; keys = ()</text>
</g>
<!-- node0&#45;&gt;node2 -->
<g id="edge2" class="edge">
<title>node0&#45;&gt;node2</title>
<path fill="none" stroke="black" d="M172.22,-105.27C191.75,-91.4 216.03,-74.15 236.68,-59.48"/>
<polygon fill="black" stroke="black" points="238.87,-62.22 245,-53.58 234.82,-56.51 238.87,-62.22"/>
<text text-anchor="start" x="218" y="-75.8" font-family="Times,serif" font-size="14.00">%0</text>
</g>
<!-- node1 -->
<g id="node2" class="node">
<title>node1</title>
<polygon fill="none" stroke="black" points="290,-105.5 290,-158.5 562,-158.5 562,-105.5 290,-105.5"/>
<text text-anchor="start" x="298" y="-143.3" font-family="Times,serif" font-size="14.00">Get negate_threshold.public.s (u52)</text>
<text text-anchor="start" x="298" y="-128.3" font-family="Times,serif" font-size="14.00">&#45; types = (bigint?, integer?)</text>
<text text-anchor="start" x="298" y="-113.3" font-family="Times,serif" font-size="14.00">&#45; keys = ()</text>
</g>
<!-- node1&#45;&gt;node2 -->
<g id="edge1" class="edge">
<title>node1&#45;&gt;node2</title>
<path fill="none" stroke="black" d="M389.78,-105.27C370.25,-91.4 345.97,-74.15 325.32,-59.48"/>
<polygon fill="black" stroke="black" points="327.18,-56.51 317,-53.58 323.13,-62.22 327.18,-56.51"/>
<text text-anchor="start" x="363" y="-75.8" font-family="Times,serif" font-size="14.00">%1</text>
</g>
</g>
</svg>
