<?xml version="1.0" encoding="UTF-8" standalone="no"?>
<!DOCTYPE svg PUBLIC "-//W3C//DTD SVG 1.1//EN"
 "http://www.w3.org/Graphics/SVG/1.1/DTD/svg11.dtd">
<!-- Generated by graphviz version 2.43.0 (0)
 -->
<!-- Title: G Pages: 1 -->
<svg width="708pt" height="557pt"
 viewBox="0.00 0.00 708.00 557.00" xmlns="http://www.w3.org/2000/svg" xmlns:xlink="http://www.w3.org/1999/xlink">
<g id="graph0" class="graph" transform="scale(1 1) rotate(0) translate(4 553)">
<title>G</title>
<polygon fill="white" stroke="transparent" points="-4,4 -4,-553 704,-553 704,4 -4,4"/>
<!-- node0 -->
<g id="node1" class="node">
<title>node0</title>
<polygon fill="none" stroke="black" points="299.5,-495.5 299.5,-548.5 399.5,-548.5 399.5,-495.5 299.5,-495.5"/>
<text text-anchor="start" x="307.5" y="-533.3" font-family="Times,serif" font-size="14.00">Constant ()</text>
<text text-anchor="start" x="307.5" y="-518.3" font-family="Times,serif" font-size="14.00">&#45; types = ()</text>
<text text-anchor="start" x="307.5" y="-503.3" font-family="Times,serif" font-size="14.00">&#45; keys = (())</text>
</g>
<!-- node2 -->
<g id="node3" class="node">
<title>node2</title>
<polygon fill="none" stroke="black" points="33.5,-375.5 33.5,-443.5 307.5,-443.5 307.5,-375.5 33.5,-375.5"/>
<text text-anchor="start" x="41.5" y="-428.3" font-family="Times,serif" font-size="14.00">Join %0 %1</text>
<text text-anchor="start" x="41.5" y="-413.3" font-family="Times,serif" font-size="14.00">&#45; implementation = Unimplemented</text>
<text text-anchor="start" x="41.5" y="-398.3" font-family="Times,serif" font-size="14.00">&#45; types = (bigint?, integer?)</text>
<text text-anchor="start" x="41.5" y="-383.3" font-family="Times,serif" font-size="14.00">&#45; keys = ()</text>
</g>
<!-- node0&#45;&gt;node2 -->
<g id="edge5" class="edge">
<title>node0&#45;&gt;node2</title>
<path fill="none" stroke="black" d="M307.98,-495.37C285.63,-481.57 257.6,-464.27 232.69,-448.89"/>
<polygon fill="black" stroke="black" points="234.37,-445.82 224.02,-443.54 230.69,-451.77 234.37,-445.82"/>
<text text-anchor="start" x="275.5" y="-465.8" font-family="Times,serif" font-size="14.00">%0</text>
</g>
<!-- node5 -->
<g id="node6" class="node">
<title>node5</title>
<polygon fill="none" stroke="black" points="392.5,-375.5 392.5,-443.5 666.5,-443.5 666.5,-375.5 392.5,-375.5"/>
<text text-anchor="start" x="400.5" y="-428.3" font-family="Times,serif" font-size="14.00">Join %0 %4</text>
<text text-anchor="start" x="400.5" y="-413.3" font-family="Times,serif" font-size="14.00">&#45; implementation = Unimplemented</text>
<text text-anchor="start" x="400.5" y="-398.3" font-family="Times,serif" font-size="14.00">&#45; types = (bigint?, integer?)</text>
<text text-anchor="start" x="400.5" y="-383.3" font-family="Times,serif" font-size="14.00">&#45; keys = ()</text>
</g>
<!-- node0&#45;&gt;node5 -->
<g id="edge2" class="edge">
<title>node0&#45;&gt;node5</title>
<path fill="none" stroke="black" d="M391.25,-495.37C413.73,-481.57 441.92,-464.27 466.96,-448.89"/>
<polygon fill="black" stroke="black" points="468.99,-451.76 475.68,-443.54 465.32,-445.79 468.99,-451.76"/>
<text text-anchor="start" x="444.5" y="-465.8" font-family="Times,serif" font-size="14.00">%0</text>
</g>
<!-- node1 -->
<g id="node2" class="node">
<title>node1</title>
<polygon fill="none" stroke="black" points="9.5,-495.5 9.5,-548.5 281.5,-548.5 281.5,-495.5 9.5,-495.5"/>
<text text-anchor="start" x="17.5" y="-533.3" font-family="Times,serif" font-size="14.00">Get negate_threshold.public.r (u51)</text>
<text text-anchor="start" x="17.5" y="-518.3" font-family="Times,serif" font-size="14.00">&#45; types = (bigint?, integer?)</text>
<text text-anchor="start" x="17.5" y="-503.3" font-family="Times,serif" font-size="14.00">&#45; keys = ()</text>
</g>
<!-- node1&#45;&gt;node2 -->
<g id="edge3" class="edge">
<title>node1&#45;&gt;node2</title>
<path fill="none" stroke="black" d="M151.3,-495.37C154.11,-482.96 157.56,-467.71 160.75,-453.58"/>
<polygon fill="black" stroke="black" points="164.23,-454.07 163.02,-443.54 157.4,-452.52 164.23,-454.07"/>
<text text-anchor="start" x="158.5" y="-465.8" font-family="Times,serif" font-size="14.00">%1</text>
</g>
<!-- node3 -->
<g id="node4" class="node">
<title>node3</title>
<polygon fill="none" stroke="black" points="0,-105.5 0,-323.5 341,-323.5 341,-105.5 0,-105.5"/>
<text text-anchor="start" x="8" y="-308.3" font-family="Times,serif" font-size="14.00">&#45; types = (bigint?, integer?)</text>
<text text-anchor="start" x="8" y="-293.3" font-family="Times,serif" font-size="14.00">&#45; keys = ()</text>
<text text-anchor="start" x="8" y="-278.3" font-family="Times,serif" font-size="14.00">Map #0</text>
<text text-anchor="start" x="8" y="-263.3" font-family="Times,serif" font-size="14.00">&#45; types = (bigint?, integer?, bigint?)</text>
<text text-anchor="start" x="8" y="-248.3" font-family="Times,serif" font-size="14.00">&#45; keys = ()</text>
<text text-anchor="start" x="8" y="-233.3" font-family="Times,serif" font-size="14.00">Map #1</text>
<text text-anchor="start" x="8" y="-218.3" font-family="Times,serif" font-size="14.00">&#45; types = (bigint?, integer?, bigint?, integer?)</text>
<text text-anchor="start" x="8" y="-203.3" font-family="Times,serif" font-size="14.00">&#45; keys = ()</text>
<text text-anchor="start" x="8" y="-188.3" font-family="Times,serif" font-size="14.00">Project (#0..=#3)</text>
<text text-anchor="start" x="8" y="-173.3" font-family="Times,serif" font-size="14.00">&#45; types = (bigint?, integer?, bigint?, integer?)</text>
<text text-anchor="start" x="8" y="-158.3" font-family="Times,serif" font-size="14.00">&#45; keys = ()</text>
<text text-anchor="start" x="8" y="-143.3" font-family="Times,serif" font-size="14.00">Project (#2, #3)</text>
<text text-anchor="start" x="8" y="-128.3" font-family="Times,serif" font-size="14.00">&#45; types = (bigint?, integer?)</text>
<text text-anchor="start" x="8" y="-113.3" font-family="Times,serif" font-size="14.00">&#45; keys = ()</text>
</g>
<!-- node2&#45;&gt;node3 -->
<g id="edge8" class="edge">
<title>node2&#45;&gt;node3</title>
<path fill="none" stroke="black" d="M170.5,-375.32C170.5,-363.3 170.5,-348.93 170.5,-333.8"/>
<polygon fill="black" stroke="black" points="174,-333.77 170.5,-323.77 167,-333.77 174,-333.77"/>
<text text-anchor="start" x="170.5" y="-345.8" font-family="Times,serif" font-size="14.00">%2</text>
</g>
<!-- node7 -->
<g id="node8" class="node">
<title>node7</title>
<polygon fill="none" stroke="black" points="242.5,-0.5 242.5,-53.5 456.5,-53.5 456.5,-0.5 242.5,-0.5"/>
<text text-anchor="start" x="250.5" y="-38.3" font-family="Times,serif" font-size="14.00">Union %3 %6</text>
<text text-anchor="start" x="250.5" y="-23.3" font-family="Times,serif" font-size="14.00">&#45; types = (bigint?, integer?)</text>
<text text-anchor="start" x="250.5" y="-8.3" font-family="Times,serif" font-size="14.00">&#45; keys = ()</text>
</g>
<!-- node3&#45;&gt;node7 -->
<g id="edge4" class="edge">
<title>node3&#45;&gt;node7</title>
<path fill="none" stroke="black" d="M274.88,-105.33C290.4,-89.24 305.31,-73.8 317.66,-61"/>
<polygon fill="black" stroke="black" points="320.2,-63.41 324.62,-53.78 315.16,-58.55 320.2,-63.41"/>
<text text-anchor="start" x="305.5" y="-75.8" font-family="Times,serif" font-size="14.00">%3</text>
</g>
<!-- node4 -->
<g id="node5" class="node">
<title>node4</title>
<polygon fill="none" stroke="black" points="417.5,-495.5 417.5,-548.5 689.5,-548.5 689.5,-495.5 417.5,-495.5"/>
<text text-anchor="start" x="425.5" y="-533.3" font-family="Times,serif" font-size="14.00">Get negate_threshold.public.s (u52)</text>
<text text-anchor="start" x="425.5" y="-518.3" font-family="Times,serif" font-size="14.00">&#45; types = (bigint?, integer?)</text>
<text text-anchor="start" x="425.5" y="-503.3" font-family="Times,serif" font-size="14.00">&#45; keys = ()</text>
</g>
<!-- node4&#45;&gt;node5 -->
<g id="edge7" class="edge">
<title>node4&#45;&gt;node5</title>
<path fill="none" stroke="black" d="M547.93,-495.37C545.24,-482.96 541.93,-467.71 538.86,-453.58"/>
<polygon fill="black" stroke="black" points="542.22,-452.57 536.68,-443.54 535.38,-454.06 542.22,-452.57"/>
<text text-anchor="start" x="543.5" y="-465.8" font-family="Times,serif" font-size="14.00">%4</text>
</g>
<!-- node6 -->
<g id="node7" class="node">
<title>node6</title>
<polygon fill="none" stroke="black" points="359,-105.5 359,-323.5 700,-323.5 700,-105.5 359,-105.5"/>
<text text-anchor="start" x="367" y="-308.3" font-family="Times,serif" font-size="14.00">&#45; types = (bigint?, integer?)</text>
<text text-anchor="start" x="367" y="-293.3" font-family="Times,serif" font-size="14.00">&#45; keys = ()</text>
<text text-anchor="start" x="367" y="-278.3" font-family="Times,serif" font-size="14.00">Map #0</text>
<text text-anchor="start" x="367" y="-263.3" font-family="Times,serif" font-size="14.00">&#45; types = (bigint?, integer?, bigint?)</text>
<text text-anchor="start" x="367" y="-248.3" font-family="Times,serif" font-size="14.00">&#45; keys = ()</text>
<text text-anchor="start" x="367" y="-233.3" font-family="Times,serif" font-size="14.00">Map #1</text>
<text text-anchor="start" x="367" y="-218.3" font-family="Times,serif" font-size="14.00">&#45; types = (bigint?, integer?, bigint?, integer?)</text>
<text text-anchor="start" x="367" y="-203.3" font-family="Times,serif" font-size="14.00">&#45; keys = ()</text>
<text text-anchor="start" x="367" y="-188.3" font-family="Times,serif" font-size="14.00">Project (#0..=#3)</text>
<text text-anchor="start" x="367" y="-173.3" font-family="Times,serif" font-size="14.00">&#45; types = (bigint?, integer?, bigint?, integer?)</text>
<text text-anchor="start" x="367" y="-158.3" font-family="Times,serif" font-size="14.00">&#45; keys = ()</text>
<text text-anchor="start" x="367" y="-143.3" font-family="Times,serif" font-size="14.00">Project (#2, #3)</text>
<text text-anchor="start" x="367" y="-128.3" font-family="Times,serif" font-size="14.00">&#45; types = (bigint?, integer?)</text>
<text text-anchor="start" x="367" y="-113.3" font-family="Times,serif" font-size="14.00">&#45; keys = ()</text>
</g>
<!-- node5&#45;&gt;node6 -->
<g id="edge6" class="edge">
<title>node5&#45;&gt;node6</title>
<path fill="none" stroke="black" d="M529.5,-375.32C529.5,-363.3 529.5,-348.93 529.5,-333.8"/>
<polygon fill="black" stroke="black" points="533,-333.77 529.5,-323.77 526,-333.77 533,-333.77"/>
<text text-anchor="start" x="529.5" y="-345.8" font-family="Times,serif" font-size="14.00">%5</text>
</g>
<!-- node6&#45;&gt;node7 -->
<g id="edge1" class="edge">
<title>node6&#45;&gt;node7</title>
<path fill="none" stroke="black" d="M424.53,-105.33C408.93,-89.24 393.94,-73.8 381.52,-61"/>
<polygon fill="black" stroke="black" points="383.99,-58.52 374.52,-53.78 378.97,-63.4 383.99,-58.52"/>
<text text-anchor="start" x="402.5" y="-75.8" font-family="Times,serif" font-size="14.00">%6</text>
</g>
</g>
</svg>
