<?xml version="1.0" encoding="UTF-8" standalone="no"?>
<!DOCTYPE svg PUBLIC "-//W3C//DTD SVG 1.1//EN"
 "http://www.w3.org/Graphics/SVG/1.1/DTD/svg11.dtd">
<!-- Generated by graphviz version 2.43.0 (0)
 -->
<!-- Title: G Pages: 1 -->
<svg width="724pt" height="787pt"
 viewBox="0.00 0.00 724.00 787.00" xmlns="http://www.w3.org/2000/svg" xmlns:xlink="http://www.w3.org/1999/xlink">
<g id="graph0" class="graph" transform="scale(1 1) rotate(0) translate(4 783)">
<title>G</title>
<polygon fill="white" stroke="transparent" points="-4,4 -4,-783 720,-783 720,4 -4,4"/>
<!-- node0 -->
<g id="node1" class="node">
<title>node0</title>
<polygon fill="none" stroke="black" points="306.5,-740.5 306.5,-778.5 407.5,-778.5 407.5,-740.5 306.5,-740.5"/>
<text text-anchor="start" x="314.5" y="-763.3" font-family="Times,serif" font-size="14.00">Let l0 =</text>
<text text-anchor="start" x="314.5" y="-748.3" font-family="Times,serif" font-size="14.00"> Constant ()</text>
</g>
<!-- node2 -->
<g id="node3" class="node">
<title>node2</title>
<polygon fill="none" stroke="black" points="79.5,-635.5 79.5,-688.5 348.5,-688.5 348.5,-635.5 79.5,-635.5"/>
<text text-anchor="start" x="87.5" y="-673.3" font-family="Times,serif" font-size="14.00">Let l1 =</text>
<text text-anchor="start" x="87.5" y="-658.3" font-family="Times,serif" font-size="14.00"> Join %0 %1</text>
<text text-anchor="start" x="87.5" y="-643.3" font-family="Times,serif" font-size="14.00"> implementation = Unimplemented</text>
</g>
<!-- node0&#45;&gt;node2 -->
<g id="edge2" class="edge">
<title>node0&#45;&gt;node2</title>
<path fill="none" stroke="black" d="M329.77,-740.31C310.29,-727.31 283.6,-709.48 260.75,-694.22"/>
<polygon fill="black" stroke="black" points="262.46,-691.16 252.2,-688.51 258.58,-696.98 262.46,-691.16"/>
<text text-anchor="start" x="298" y="-710.8" font-family="Times,serif" font-size="14.00">%0</text>
</g>
<!-- node4 -->
<g id="node5" class="node">
<title>node4</title>
<polygon fill="none" stroke="black" points="366.5,-635.5 366.5,-688.5 635.5,-688.5 635.5,-635.5 366.5,-635.5"/>
<text text-anchor="start" x="374.5" y="-673.3" font-family="Times,serif" font-size="14.00">Let l2 =</text>
<text text-anchor="start" x="374.5" y="-658.3" font-family="Times,serif" font-size="14.00"> Join %0 %3</text>
<text text-anchor="start" x="374.5" y="-643.3" font-family="Times,serif" font-size="14.00"> implementation = Unimplemented</text>
</g>
<!-- node0&#45;&gt;node4 -->
<g id="edge14" class="edge">
<title>node0&#45;&gt;node4</title>
<path fill="none" stroke="black" d="M384.42,-740.31C404.03,-727.31 430.91,-709.48 453.92,-694.22"/>
<polygon fill="black" stroke="black" points="456.13,-696.96 462.53,-688.51 452.26,-691.12 456.13,-696.96"/>
<text text-anchor="start" x="433" y="-710.8" font-family="Times,serif" font-size="14.00">%0</text>
</g>
<!-- node1 -->
<g id="node2" class="node">
<title>node1</title>
<polygon fill="none" stroke="black" points="0,-741.5 0,-777.5 288,-777.5 288,-741.5 0,-741.5"/>
<text text-anchor="start" x="8" y="-755.8" font-family="Times,serif" font-size="14.00">Get simplify_outer_joins.public.l (u95)</text>
</g>
<!-- node1&#45;&gt;node2 -->
<g id="edge15" class="edge">
<title>node1&#45;&gt;node2</title>
<path fill="none" stroke="black" d="M156.51,-741.43C165.61,-729.02 178.21,-711.83 189.3,-696.7"/>
<polygon fill="black" stroke="black" points="192.18,-698.69 195.27,-688.55 186.53,-694.55 192.18,-698.69"/>
<text text-anchor="start" x="182" y="-710.8" font-family="Times,serif" font-size="14.00">%1</text>
</g>
<!-- node5 -->
<g id="node6" class="node">
<title>node5</title>
<polygon fill="none" stroke="black" points="323.5,-500.5 323.5,-583.5 592.5,-583.5 592.5,-500.5 323.5,-500.5"/>
<text text-anchor="start" x="331.5" y="-568.3" font-family="Times,serif" font-size="14.00">Let l3 =</text>
<text text-anchor="start" x="331.5" y="-553.3" font-family="Times,serif" font-size="14.00"> Join %2 %4</text>
<text text-anchor="start" x="331.5" y="-538.3" font-family="Times,serif" font-size="14.00"> implementation = Unimplemented</text>
<text text-anchor="start" x="331.5" y="-523.3" font-family="Times,serif" font-size="14.00"> Project (#0..=#3)</text>
<text text-anchor="start" x="331.5" y="-508.3" font-family="Times,serif" font-size="14.00"> Filter true</text>
</g>
<!-- node2&#45;&gt;node5 -->
<g id="edge5" class="edge">
<title>node2&#45;&gt;node5</title>
<path fill="none" stroke="black" d="M266.94,-635.4C295.51,-621.58 331.62,-604.12 364.73,-588.11"/>
<polygon fill="black" stroke="black" points="366.5,-591.14 373.98,-583.63 363.45,-584.84 366.5,-591.14"/>
<text text-anchor="start" x="336" y="-605.8" font-family="Times,serif" font-size="14.00">%2</text>
</g>
<!-- node7 -->
<g id="node8" class="node">
<title>node7</title>
<polygon fill="none" stroke="black" points="193.5,-443.5 193.5,-481.5 390.5,-481.5 390.5,-443.5 193.5,-443.5"/>
<text text-anchor="start" x="201.5" y="-466.3" font-family="Times,serif" font-size="14.00">Get %2 (l1)</text>
<text text-anchor="start" x="201.5" y="-451.3" font-family="Times,serif" font-size="14.00"> Distinct group=(#0, #1)</text>
</g>
<!-- node2&#45;&gt;node7 -->
<g id="edge13" class="edge">
<title>node2&#45;&gt;node7</title>
<path fill="none" stroke="black" d="M224.2,-635.18C238.91,-597.94 265.96,-529.43 281.07,-491.18"/>
<polygon fill="black" stroke="black" points="284.4,-492.28 284.81,-481.69 277.89,-489.71 284.4,-492.28"/>
<text text-anchor="start" x="237" y="-605.8" font-family="Times,serif" font-size="14.00">%2</text>
</g>
<!-- node9 -->
<g id="node10" class="node">
<title>node9</title>
<polygon fill="none" stroke="black" points="55.5,-178.5 55.5,-231.5 324.5,-231.5 324.5,-178.5 55.5,-178.5"/>
<text text-anchor="start" x="63.5" y="-216.3" font-family="Times,serif" font-size="14.00">Join %8 %2 (= #0 #2) (= #1 #3)</text>
<text text-anchor="start" x="63.5" y="-201.3" font-family="Times,serif" font-size="14.00"> implementation = Unimplemented</text>
<text text-anchor="start" x="63.5" y="-186.3" font-family="Times,serif" font-size="14.00"> Project (#0, #1)</text>
</g>
<!-- node2&#45;&gt;node9 -->
<g id="edge6" class="edge">
<title>node2&#45;&gt;node9</title>
<path fill="none" stroke="black" d="M201.41,-635.44C191.03,-611.99 178,-575.98 178,-543 178,-543 178,-543 178,-300.5 178,-280.87 180.58,-259.13 183.35,-241.45"/>
<polygon fill="black" stroke="black" points="186.8,-241.99 184.98,-231.56 179.9,-240.85 186.8,-241.99"/>
<text text-anchor="start" x="178" y="-394.3" font-family="Times,serif" font-size="14.00">%2</text>
</g>
<!-- node3 -->
<g id="node4" class="node">
<title>node3</title>
<polygon fill="none" stroke="black" points="426,-741.5 426,-777.5 716,-777.5 716,-741.5 426,-741.5"/>
<text text-anchor="start" x="434" y="-755.8" font-family="Times,serif" font-size="14.00">Get simplify_outer_joins.public.r (u97)</text>
</g>
<!-- node3&#45;&gt;node4 -->
<g id="edge4" class="edge">
<title>node3&#45;&gt;node4</title>
<path fill="none" stroke="black" d="M558.49,-741.43C549.39,-729.02 536.79,-711.83 525.7,-696.7"/>
<polygon fill="black" stroke="black" points="528.47,-694.55 519.73,-688.55 522.82,-698.69 528.47,-694.55"/>
<text text-anchor="start" x="542" y="-710.8" font-family="Times,serif" font-size="14.00">%3</text>
</g>
<!-- node4&#45;&gt;node5 -->
<g id="edge9" class="edge">
<title>node4&#45;&gt;node5</title>
<path fill="none" stroke="black" d="M491.67,-635.4C487.17,-623.05 481.61,-607.8 476.32,-593.27"/>
<polygon fill="black" stroke="black" points="479.6,-592.06 472.89,-583.86 473.03,-594.46 479.6,-592.06"/>
<text text-anchor="start" x="484" y="-605.8" font-family="Times,serif" font-size="14.00">%4</text>
</g>
<!-- node6 -->
<g id="node7" class="node">
<title>node6</title>
<polygon fill="none" stroke="black" points="309.5,-371.5 309.5,-424.5 506.5,-424.5 506.5,-371.5 309.5,-371.5"/>
<text text-anchor="start" x="317.5" y="-409.3" font-family="Times,serif" font-size="14.00">Get %5 (l3)</text>
<text text-anchor="start" x="317.5" y="-394.3" font-family="Times,serif" font-size="14.00"> Distinct group=(#0, #1)</text>
<text text-anchor="start" x="317.5" y="-379.3" font-family="Times,serif" font-size="14.00"> Negate</text>
</g>
<!-- node5&#45;&gt;node6 -->
<g id="edge10" class="edge">
<title>node5&#45;&gt;node6</title>
<path fill="none" stroke="black" d="M443.67,-500.31C436.32,-479.42 427.44,-454.21 420.38,-434.17"/>
<polygon fill="black" stroke="black" points="423.6,-432.77 416.98,-424.5 417,-435.1 423.6,-432.77"/>
<text text-anchor="start" x="435" y="-458.8" font-family="Times,serif" font-size="14.00">%5</text>
</g>
<!-- node12 -->
<g id="node13" class="node">
<title>node12</title>
<polygon fill="none" stroke="black" points="392,-0.5 392,-36.5 514,-36.5 514,-0.5 392,-0.5"/>
<text text-anchor="start" x="400" y="-14.8" font-family="Times,serif" font-size="14.00">Union %5 %11</text>
</g>
<!-- node5&#45;&gt;node12 -->
<g id="edge1" class="edge">
<title>node5&#45;&gt;node12</title>
<path fill="none" stroke="black" d="M494.02,-500.29C514.06,-473.45 535,-436.44 535,-399 535,-399 535,-399 535,-106.5 535,-79.68 514.11,-57.78 493.42,-42.65"/>
<polygon fill="black" stroke="black" points="495.16,-39.59 484.94,-36.79 491.18,-45.35 495.16,-39.59"/>
<text text-anchor="start" x="535" y="-253.8" font-family="Times,serif" font-size="14.00">%5</text>
</g>
<!-- node8 -->
<g id="node9" class="node">
<title>node8</title>
<polygon fill="none" stroke="black" points="211.5,-283.5 211.5,-319.5 324.5,-319.5 324.5,-283.5 211.5,-283.5"/>
<text text-anchor="start" x="219.5" y="-297.8" font-family="Times,serif" font-size="14.00">Union %6 %7</text>
</g>
<!-- node6&#45;&gt;node8 -->
<g id="edge16" class="edge">
<title>node6&#45;&gt;node8</title>
<path fill="none" stroke="black" d="M370.11,-371.43C348.86,-357.08 322.56,-339.32 301.97,-325.43"/>
<polygon fill="black" stroke="black" points="303.77,-322.43 293.53,-319.73 299.86,-328.23 303.77,-322.43"/>
<text text-anchor="start" x="342" y="-341.8" font-family="Times,serif" font-size="14.00">%6</text>
</g>
<!-- node7&#45;&gt;node8 -->
<g id="edge3" class="edge">
<title>node7&#45;&gt;node8</title>
<path fill="none" stroke="black" d="M283.83,-443.25C281.58,-437.51 279.39,-431.09 278,-425 270.7,-392.92 268.56,-355.05 268.02,-330"/>
<polygon fill="black" stroke="black" points="271.52,-329.72 267.87,-319.78 264.52,-329.83 271.52,-329.72"/>
<text text-anchor="start" x="278" y="-394.3" font-family="Times,serif" font-size="14.00">%7</text>
</g>
<!-- node8&#45;&gt;node9 -->
<g id="edge11" class="edge">
<title>node8&#45;&gt;node9</title>
<path fill="none" stroke="black" d="M253.69,-283.17C243.67,-271.03 229.96,-254.41 217.83,-239.71"/>
<polygon fill="black" stroke="black" points="220.34,-237.26 211.28,-231.78 214.94,-241.72 220.34,-237.26"/>
<text text-anchor="start" x="239" y="-253.8" font-family="Times,serif" font-size="14.00">%8</text>
</g>
<!-- node11 -->
<g id="node12" class="node">
<title>node11</title>
<polygon fill="none" stroke="black" points="237.5,-88.5 237.5,-126.5 506.5,-126.5 506.5,-88.5 237.5,-88.5"/>
<text text-anchor="start" x="245.5" y="-111.3" font-family="Times,serif" font-size="14.00">Join %9 %10</text>
<text text-anchor="start" x="245.5" y="-96.3" font-family="Times,serif" font-size="14.00"> implementation = Unimplemented</text>
</g>
<!-- node9&#45;&gt;node11 -->
<g id="edge12" class="edge">
<title>node9&#45;&gt;node11</title>
<path fill="none" stroke="black" d="M238.77,-178.41C266.65,-163.78 301.33,-145.58 328.31,-131.42"/>
<polygon fill="black" stroke="black" points="330.28,-134.34 337.51,-126.6 327.03,-128.14 330.28,-134.34"/>
<text text-anchor="start" x="297" y="-148.8" font-family="Times,serif" font-size="14.00">%9</text>
</g>
<!-- node10 -->
<g id="node11" class="node">
<title>node10</title>
<polygon fill="none" stroke="black" points="342.5,-187 342.5,-223 501.5,-223 501.5,-187 342.5,-187"/>
<text text-anchor="start" x="350.5" y="-201.3" font-family="Times,serif" font-size="14.00">Constant (null, null)</text>
</g>
<!-- node10&#45;&gt;node11 -->
<g id="edge7" class="edge">
<title>node10&#45;&gt;node11</title>
<path fill="none" stroke="black" d="M413.06,-186.93C405.64,-172.75 394.95,-152.33 386.33,-135.88"/>
<polygon fill="black" stroke="black" points="389.28,-133.96 381.54,-126.73 383.08,-137.21 389.28,-133.96"/>
<text text-anchor="start" x="398" y="-148.8" font-family="Times,serif" font-size="14.00">%10</text>
</g>
<!-- node11&#45;&gt;node12 -->
<g id="edge8" class="edge">
<title>node11&#45;&gt;node12</title>
<path fill="none" stroke="black" d="M388.78,-88.47C400.75,-75.62 416.97,-58.19 430.12,-44.07"/>
<polygon fill="black" stroke="black" points="432.81,-46.32 437.06,-36.62 427.69,-41.55 432.81,-46.32"/>
<text text-anchor="start" x="419" y="-58.8" font-family="Times,serif" font-size="14.00">%11</text>
</g>
</g>
</svg>
