<?xml version="1.0" encoding="UTF-8" standalone="no"?>
<!DOCTYPE svg PUBLIC "-//W3C//DTD SVG 1.1//EN"
 "http://www.w3.org/Graphics/SVG/1.1/DTD/svg11.dtd">
<!-- Generated by graphviz version 2.43.0 (0)
 -->
<!-- Title: G Pages: 1 -->
<svg width="724pt" height="819pt"
 viewBox="0.00 0.00 724.00 819.00" xmlns="http://www.w3.org/2000/svg" xmlns:xlink="http://www.w3.org/1999/xlink">
<g id="graph0" class="graph" transform="scale(1 1) rotate(0) translate(4 815)">
<title>G</title>
<polygon fill="white" stroke="transparent" points="-4,4 -4,-815 720,-815 720,4 -4,4"/>
<!-- node0 -->
<g id="node1" class="node">
<title>node0</title>
<polygon fill="none" stroke="black" points="306.5,-772.5 306.5,-810.5 407.5,-810.5 407.5,-772.5 306.5,-772.5"/>
<text text-anchor="start" x="314.5" y="-795.3" font-family="Times,serif" font-size="14.00">Let l0 =</text>
<text text-anchor="start" x="314.5" y="-780.3" font-family="Times,serif" font-size="14.00"> Constant ()</text>
</g>
<!-- node2 -->
<g id="node3" class="node">
<title>node2</title>
<polygon fill="none" stroke="black" points="79.5,-667.5 79.5,-720.5 348.5,-720.5 348.5,-667.5 79.5,-667.5"/>
<text text-anchor="start" x="87.5" y="-705.3" font-family="Times,serif" font-size="14.00">Let l1 =</text>
<text text-anchor="start" x="87.5" y="-690.3" font-family="Times,serif" font-size="14.00"> Join %0 %1</text>
<text text-anchor="start" x="87.5" y="-675.3" font-family="Times,serif" font-size="14.00"> implementation = Unimplemented</text>
</g>
<!-- node0&#45;&gt;node2 -->
<g id="edge8" class="edge">
<title>node0&#45;&gt;node2</title>
<path fill="none" stroke="black" d="M329.77,-772.31C310.29,-759.31 283.6,-741.48 260.75,-726.22"/>
<polygon fill="black" stroke="black" points="262.46,-723.16 252.2,-720.51 258.58,-728.98 262.46,-723.16"/>
<text text-anchor="start" x="298" y="-742.8" font-family="Times,serif" font-size="14.00">%0</text>
</g>
<!-- node4 -->
<g id="node5" class="node">
<title>node4</title>
<polygon fill="none" stroke="black" points="366.5,-667.5 366.5,-720.5 635.5,-720.5 635.5,-667.5 366.5,-667.5"/>
<text text-anchor="start" x="374.5" y="-705.3" font-family="Times,serif" font-size="14.00">Let l2 =</text>
<text text-anchor="start" x="374.5" y="-690.3" font-family="Times,serif" font-size="14.00"> Join %0 %3</text>
<text text-anchor="start" x="374.5" y="-675.3" font-family="Times,serif" font-size="14.00"> implementation = Unimplemented</text>
</g>
<!-- node0&#45;&gt;node4 -->
<g id="edge10" class="edge">
<title>node0&#45;&gt;node4</title>
<path fill="none" stroke="black" d="M384.42,-772.31C404.03,-759.31 430.91,-741.48 453.92,-726.22"/>
<polygon fill="black" stroke="black" points="456.13,-728.96 462.53,-720.51 452.26,-723.12 456.13,-728.96"/>
<text text-anchor="start" x="433" y="-742.8" font-family="Times,serif" font-size="14.00">%0</text>
</g>
<!-- node1 -->
<g id="node2" class="node">
<title>node1</title>
<polygon fill="none" stroke="black" points="0,-773.5 0,-809.5 288,-809.5 288,-773.5 0,-773.5"/>
<text text-anchor="start" x="8" y="-787.8" font-family="Times,serif" font-size="14.00">Get simplify_outer_joins.public.l (u79)</text>
</g>
<!-- node1&#45;&gt;node2 -->
<g id="edge11" class="edge">
<title>node1&#45;&gt;node2</title>
<path fill="none" stroke="black" d="M156.51,-773.43C165.61,-761.02 178.21,-743.83 189.3,-728.7"/>
<polygon fill="black" stroke="black" points="192.18,-730.69 195.27,-720.55 186.53,-726.55 192.18,-730.69"/>
<text text-anchor="start" x="182" y="-742.8" font-family="Times,serif" font-size="14.00">%1</text>
</g>
<!-- node5 -->
<g id="node6" class="node">
<title>node5</title>
<polygon fill="none" stroke="black" points="323.5,-532.5 323.5,-615.5 592.5,-615.5 592.5,-532.5 323.5,-532.5"/>
<text text-anchor="start" x="331.5" y="-600.3" font-family="Times,serif" font-size="14.00">Let l3 =</text>
<text text-anchor="start" x="331.5" y="-585.3" font-family="Times,serif" font-size="14.00"> Join %2 %4</text>
<text text-anchor="start" x="331.5" y="-570.3" font-family="Times,serif" font-size="14.00"> implementation = Unimplemented</text>
<text text-anchor="start" x="331.5" y="-555.3" font-family="Times,serif" font-size="14.00"> Project (#0..#3)</text>
<text text-anchor="start" x="331.5" y="-540.3" font-family="Times,serif" font-size="14.00"> Filter true</text>
</g>
<!-- node2&#45;&gt;node5 -->
<g id="edge9" class="edge">
<title>node2&#45;&gt;node5</title>
<path fill="none" stroke="black" d="M266.94,-667.4C295.51,-653.58 331.62,-636.12 364.73,-620.11"/>
<polygon fill="black" stroke="black" points="366.5,-623.14 373.98,-615.63 363.45,-616.84 366.5,-623.14"/>
<text text-anchor="start" x="336" y="-637.8" font-family="Times,serif" font-size="14.00">%2</text>
</g>
<!-- node7 -->
<g id="node8" class="node">
<title>node7</title>
<polygon fill="none" stroke="black" points="193.5,-475.5 193.5,-513.5 390.5,-513.5 390.5,-475.5 193.5,-475.5"/>
<text text-anchor="start" x="201.5" y="-498.3" font-family="Times,serif" font-size="14.00">Get %2 (l1)</text>
<text text-anchor="start" x="201.5" y="-483.3" font-family="Times,serif" font-size="14.00"> Distinct group=(#0, #1)</text>
</g>
<!-- node2&#45;&gt;node7 -->
<g id="edge16" class="edge">
<title>node2&#45;&gt;node7</title>
<path fill="none" stroke="black" d="M224.2,-667.18C238.91,-629.94 265.96,-561.43 281.07,-523.18"/>
<polygon fill="black" stroke="black" points="284.4,-524.28 284.81,-513.69 277.89,-521.71 284.4,-524.28"/>
<text text-anchor="start" x="237" y="-637.8" font-family="Times,serif" font-size="14.00">%2</text>
</g>
<!-- node9 -->
<g id="node10" class="node">
<title>node9</title>
<polygon fill="none" stroke="black" points="55.5,-210.5 55.5,-263.5 324.5,-263.5 324.5,-210.5 55.5,-210.5"/>
<text text-anchor="start" x="63.5" y="-248.3" font-family="Times,serif" font-size="14.00">Join %8 %2 (= #0 #2) (= #1 #3)</text>
<text text-anchor="start" x="63.5" y="-233.3" font-family="Times,serif" font-size="14.00"> implementation = Unimplemented</text>
<text text-anchor="start" x="63.5" y="-218.3" font-family="Times,serif" font-size="14.00"> Project (#0, #1)</text>
</g>
<!-- node2&#45;&gt;node9 -->
<g id="edge2" class="edge">
<title>node2&#45;&gt;node9</title>
<path fill="none" stroke="black" d="M201.41,-667.44C191.03,-643.99 178,-607.98 178,-575 178,-575 178,-575 178,-332.5 178,-312.87 180.58,-291.13 183.35,-273.45"/>
<polygon fill="black" stroke="black" points="186.8,-273.99 184.98,-263.56 179.9,-272.85 186.8,-273.99"/>
<text text-anchor="start" x="178" y="-426.3" font-family="Times,serif" font-size="14.00">%2</text>
</g>
<!-- node3 -->
<g id="node4" class="node">
<title>node3</title>
<polygon fill="none" stroke="black" points="426,-773.5 426,-809.5 716,-809.5 716,-773.5 426,-773.5"/>
<text text-anchor="start" x="434" y="-787.8" font-family="Times,serif" font-size="14.00">Get simplify_outer_joins.public.r (u81)</text>
</g>
<!-- node3&#45;&gt;node4 -->
<g id="edge7" class="edge">
<title>node3&#45;&gt;node4</title>
<path fill="none" stroke="black" d="M558.49,-773.43C549.39,-761.02 536.79,-743.83 525.7,-728.7"/>
<polygon fill="black" stroke="black" points="528.47,-726.55 519.73,-720.55 522.82,-730.69 528.47,-726.55"/>
<text text-anchor="start" x="542" y="-742.8" font-family="Times,serif" font-size="14.00">%3</text>
</g>
<!-- node4&#45;&gt;node5 -->
<g id="edge12" class="edge">
<title>node4&#45;&gt;node5</title>
<path fill="none" stroke="black" d="M491.67,-667.4C487.17,-655.05 481.61,-639.8 476.32,-625.27"/>
<polygon fill="black" stroke="black" points="479.6,-624.06 472.89,-615.86 473.03,-626.46 479.6,-624.06"/>
<text text-anchor="start" x="484" y="-637.8" font-family="Times,serif" font-size="14.00">%4</text>
</g>
<!-- node6 -->
<g id="node7" class="node">
<title>node6</title>
<polygon fill="none" stroke="black" points="309.5,-403.5 309.5,-456.5 506.5,-456.5 506.5,-403.5 309.5,-403.5"/>
<text text-anchor="start" x="317.5" y="-441.3" font-family="Times,serif" font-size="14.00">Get %5 (l3)</text>
<text text-anchor="start" x="317.5" y="-426.3" font-family="Times,serif" font-size="14.00"> Distinct group=(#0, #1)</text>
<text text-anchor="start" x="317.5" y="-411.3" font-family="Times,serif" font-size="14.00"> Negate</text>
</g>
<!-- node5&#45;&gt;node6 -->
<g id="edge14" class="edge">
<title>node5&#45;&gt;node6</title>
<path fill="none" stroke="black" d="M443.67,-532.31C436.32,-511.42 427.44,-486.21 420.38,-466.17"/>
<polygon fill="black" stroke="black" points="423.6,-464.77 416.98,-456.5 417,-467.1 423.6,-464.77"/>
<text text-anchor="start" x="435" y="-490.8" font-family="Times,serif" font-size="14.00">%5</text>
</g>
<!-- node12 -->
<g id="node13" class="node">
<title>node12</title>
<polygon fill="none" stroke="black" points="369,-0.5 369,-68.5 537,-68.5 537,-0.5 369,-0.5"/>
<text text-anchor="start" x="377" y="-53.3" font-family="Times,serif" font-size="14.00">Union %5 %11</text>
<text text-anchor="start" x="377" y="-38.3" font-family="Times,serif" font-size="14.00"> Map #0, #1, #2, #3</text>
<text text-anchor="start" x="377" y="-23.3" font-family="Times,serif" font-size="14.00"> Project (#4..#7)</text>
<text text-anchor="start" x="377" y="-8.3" font-family="Times,serif" font-size="14.00"> Project (#0..#3)</text>
</g>
<!-- node5&#45;&gt;node12 -->
<g id="edge6" class="edge">
<title>node5&#45;&gt;node12</title>
<path fill="none" stroke="black" d="M494.02,-532.29C514.06,-505.45 535,-468.44 535,-431 535,-431 535,-431 535,-138.5 535,-114.5 521.21,-92.86 504.93,-75.68"/>
<polygon fill="black" stroke="black" points="507.39,-73.19 497.84,-68.6 502.44,-78.14 507.39,-73.19"/>
<text text-anchor="start" x="535" y="-285.8" font-family="Times,serif" font-size="14.00">%5</text>
</g>
<!-- node8 -->
<g id="node9" class="node">
<title>node8</title>
<polygon fill="none" stroke="black" points="211.5,-315.5 211.5,-351.5 324.5,-351.5 324.5,-315.5 211.5,-315.5"/>
<text text-anchor="start" x="219.5" y="-329.8" font-family="Times,serif" font-size="14.00">Union %6 %7</text>
</g>
<!-- node6&#45;&gt;node8 -->
<g id="edge13" class="edge">
<title>node6&#45;&gt;node8</title>
<path fill="none" stroke="black" d="M370.11,-403.43C348.86,-389.08 322.56,-371.32 301.97,-357.43"/>
<polygon fill="black" stroke="black" points="303.77,-354.43 293.53,-351.73 299.86,-360.23 303.77,-354.43"/>
<text text-anchor="start" x="342" y="-373.8" font-family="Times,serif" font-size="14.00">%6</text>
</g>
<!-- node7&#45;&gt;node8 -->
<g id="edge5" class="edge">
<title>node7&#45;&gt;node8</title>
<path fill="none" stroke="black" d="M283.83,-475.25C281.58,-469.51 279.39,-463.09 278,-457 270.7,-424.92 268.56,-387.05 268.02,-362"/>
<polygon fill="black" stroke="black" points="271.52,-361.72 267.87,-351.78 264.52,-361.83 271.52,-361.72"/>
<text text-anchor="start" x="278" y="-426.3" font-family="Times,serif" font-size="14.00">%7</text>
</g>
<!-- node8&#45;&gt;node9 -->
<g id="edge4" class="edge">
<title>node8&#45;&gt;node9</title>
<path fill="none" stroke="black" d="M253.69,-315.17C243.67,-303.03 229.96,-286.41 217.83,-271.71"/>
<polygon fill="black" stroke="black" points="220.34,-269.26 211.28,-263.78 214.94,-273.72 220.34,-269.26"/>
<text text-anchor="start" x="239" y="-285.8" font-family="Times,serif" font-size="14.00">%8</text>
</g>
<!-- node11 -->
<g id="node12" class="node">
<title>node11</title>
<polygon fill="none" stroke="black" points="237.5,-120.5 237.5,-158.5 506.5,-158.5 506.5,-120.5 237.5,-120.5"/>
<text text-anchor="start" x="245.5" y="-143.3" font-family="Times,serif" font-size="14.00">Join %9 %10</text>
<text text-anchor="start" x="245.5" y="-128.3" font-family="Times,serif" font-size="14.00"> implementation = Unimplemented</text>
</g>
<!-- node9&#45;&gt;node11 -->
<g id="edge15" class="edge">
<title>node9&#45;&gt;node11</title>
<path fill="none" stroke="black" d="M238.77,-210.41C266.65,-195.78 301.33,-177.58 328.31,-163.42"/>
<polygon fill="black" stroke="black" points="330.28,-166.34 337.51,-158.6 327.03,-160.14 330.28,-166.34"/>
<text text-anchor="start" x="297" y="-180.8" font-family="Times,serif" font-size="14.00">%9</text>
</g>
<!-- node10 -->
<g id="node11" class="node">
<title>node10</title>
<polygon fill="none" stroke="black" points="342.5,-219 342.5,-255 501.5,-255 501.5,-219 342.5,-219"/>
<text text-anchor="start" x="350.5" y="-233.3" font-family="Times,serif" font-size="14.00">Constant (null, null)</text>
</g>
<!-- node10&#45;&gt;node11 -->
<g id="edge1" class="edge">
<title>node10&#45;&gt;node11</title>
<path fill="none" stroke="black" d="M413.06,-218.93C405.64,-204.75 394.95,-184.33 386.33,-167.88"/>
<polygon fill="black" stroke="black" points="389.28,-165.96 381.54,-158.73 383.08,-169.21 389.28,-165.96"/>
<text text-anchor="start" x="398" y="-180.8" font-family="Times,serif" font-size="14.00">%10</text>
</g>
<!-- node11&#45;&gt;node12 -->
<g id="edge3" class="edge">
<title>node11&#45;&gt;node12</title>
<path fill="none" stroke="black" d="M386.48,-120.09C395.93,-108.08 408.65,-91.9 420.43,-76.91"/>
<polygon fill="black" stroke="black" points="423.43,-78.77 426.86,-68.74 417.92,-74.44 423.43,-78.77"/>
<text text-anchor="start" x="412" y="-90.8" font-family="Times,serif" font-size="14.00">%11</text>
</g>
</g>
</svg>
