<?xml version="1.0" encoding="UTF-8" standalone="no"?>
<!DOCTYPE svg PUBLIC "-//W3C//DTD SVG 1.1//EN"
 "http://www.w3.org/Graphics/SVG/1.1/DTD/svg11.dtd">
<!-- Generated by graphviz version 2.43.0 (0)
 -->
<!-- Title: G Pages: 1 -->
<svg width="821pt" height="570pt"
 viewBox="0.00 0.00 820.50 570.00" xmlns="http://www.w3.org/2000/svg" xmlns:xlink="http://www.w3.org/1999/xlink">
<g id="graph0" class="graph" transform="scale(1 1) rotate(0) translate(4 566)">
<title>G</title>
<polygon fill="white" stroke="transparent" points="-4,4 -4,-566 816.5,-566 816.5,4 -4,4"/>
<!-- node0 -->
<g id="node1" class="node">
<title>node0</title>
<polygon fill="none" stroke="black" points="0,-523.5 0,-561.5 288,-561.5 288,-523.5 0,-523.5"/>
<text text-anchor="start" x="8" y="-546.3" font-family="Times,serif" font-size="14.00">Get simplify_outer_joins.public.l (u95)</text>
<text text-anchor="start" x="8" y="-531.3" font-family="Times,serif" font-size="14.00"> ArrangeBy ()</text>
</g>
<!-- node2 -->
<g id="node3" class="node">
<title>node2</title>
<polygon fill="none" stroke="black" points="144.5,-418.5 144.5,-471.5 449.5,-471.5 449.5,-418.5 144.5,-418.5"/>
<text text-anchor="start" x="152.5" y="-456.3" font-family="Times,serif" font-size="14.00">Let l0 =</text>
<text text-anchor="start" x="152.5" y="-441.3" font-family="Times,serif" font-size="14.00"> Join %0 %1</text>
<text text-anchor="start" x="152.5" y="-426.3" font-family="Times,serif" font-size="14.00"> implementation = Differential %1 %0.()</text>
</g>
<!-- node0&#45;&gt;node2 -->
<g id="edge1" class="edge">
<title>node0&#45;&gt;node2</title>
<path fill="none" stroke="black" d="M173.14,-523.31C194.16,-510.19 223.04,-492.17 247.63,-476.82"/>
<polygon fill="black" stroke="black" points="249.49,-479.78 256.12,-471.51 245.79,-473.84 249.49,-479.78"/>
<text text-anchor="start" x="226" y="-493.8" font-family="Times,serif" font-size="14.00">%0</text>
</g>
<!-- node1 -->
<g id="node2" class="node">
<title>node1</title>
<polygon fill="none" stroke="black" points="306,-524.5 306,-560.5 596,-560.5 596,-524.5 306,-524.5"/>
<text text-anchor="start" x="314" y="-538.8" font-family="Times,serif" font-size="14.00">Get simplify_outer_joins.public.r (u97)</text>
</g>
<!-- node1&#45;&gt;node2 -->
<g id="edge8" class="edge">
<title>node1&#45;&gt;node2</title>
<path fill="none" stroke="black" d="M423.47,-524.43C402.26,-511.28 372.38,-492.74 346.98,-477"/>
<polygon fill="black" stroke="black" points="348.55,-473.85 338.21,-471.55 344.86,-479.8 348.55,-473.85"/>
<text text-anchor="start" x="388" y="-493.8" font-family="Times,serif" font-size="14.00">%1</text>
</g>
<!-- node3 -->
<g id="node4" class="node">
<title>node3</title>
<polygon fill="none" stroke="black" points="615.5,-298.5 615.5,-366.5 812.5,-366.5 812.5,-298.5 615.5,-298.5"/>
<text text-anchor="start" x="623.5" y="-351.3" font-family="Times,serif" font-size="14.00">Get %2 (l0)</text>
<text text-anchor="start" x="623.5" y="-336.3" font-family="Times,serif" font-size="14.00"> Project (#0, #1)</text>
<text text-anchor="start" x="623.5" y="-321.3" font-family="Times,serif" font-size="14.00"> Distinct group=(#0, #1)</text>
<text text-anchor="start" x="623.5" y="-306.3" font-family="Times,serif" font-size="14.00"> Negate</text>
</g>
<!-- node2&#45;&gt;node3 -->
<g id="edge4" class="edge">
<title>node2&#45;&gt;node3</title>
<path fill="none" stroke="black" d="M405.72,-418.5C462.56,-404.78 533.45,-387.09 605.74,-367.03"/>
<polygon fill="black" stroke="black" points="606.79,-370.37 615.48,-364.31 604.91,-363.62 606.79,-370.37"/>
<text text-anchor="start" x="538" y="-388.8" font-family="Times,serif" font-size="14.00">%2</text>
</g>
<!-- node8 -->
<g id="node9" class="node">
<title>node8</title>
<polygon fill="none" stroke="black" points="240.5,-0.5 240.5,-36.5 353.5,-36.5 353.5,-0.5 240.5,-0.5"/>
<text text-anchor="start" x="248.5" y="-14.8" font-family="Times,serif" font-size="14.00">Union %2 %7</text>
</g>
<!-- node2&#45;&gt;node8 -->
<g id="edge5" class="edge">
<title>node2&#45;&gt;node8</title>
<path fill="none" stroke="black" d="M291.13,-418.25C286.57,-395.96 281,-362.77 281,-333.5 281,-333.5 281,-333.5 281,-121.5 281,-95.86 286,-67.02 290.41,-46.57"/>
<polygon fill="black" stroke="black" points="293.85,-47.22 292.63,-36.7 287.02,-45.68 293.85,-47.22"/>
<text text-anchor="start" x="281" y="-223.8" font-family="Times,serif" font-size="14.00">%2</text>
</g>
<!-- node5 -->
<g id="node6" class="node">
<title>node5</title>
<polygon fill="none" stroke="black" points="638.5,-209.5 638.5,-245.5 751.5,-245.5 751.5,-209.5 638.5,-209.5"/>
<text text-anchor="start" x="646.5" y="-223.8" font-family="Times,serif" font-size="14.00">Union %3 %4</text>
</g>
<!-- node3&#45;&gt;node5 -->
<g id="edge3" class="edge">
<title>node3&#45;&gt;node5</title>
<path fill="none" stroke="black" d="M707.88,-298.34C705.36,-284.65 702.47,-268.97 700.06,-255.94"/>
<polygon fill="black" stroke="black" points="703.43,-254.92 698.18,-245.72 696.55,-256.19 703.43,-254.92"/>
<text text-anchor="start" x="704" y="-268.8" font-family="Times,serif" font-size="14.00">%3</text>
</g>
<!-- node4 -->
<g id="node5" class="node">
<title>node4</title>
<polygon fill="none" stroke="black" points="309,-313.5 309,-351.5 597,-351.5 597,-313.5 309,-313.5"/>
<text text-anchor="start" x="317" y="-336.3" font-family="Times,serif" font-size="14.00">Get simplify_outer_joins.public.l (u95)</text>
<text text-anchor="start" x="317" y="-321.3" font-family="Times,serif" font-size="14.00"> Distinct group=(#0, #1)</text>
</g>
<!-- node4&#45;&gt;node5 -->
<g id="edge6" class="edge">
<title>node4&#45;&gt;node5</title>
<path fill="none" stroke="black" d="M495.43,-313.44C537.36,-295.6 601.46,-268.31 645.64,-249.51"/>
<polygon fill="black" stroke="black" points="647.2,-252.65 655.03,-245.51 644.46,-246.21 647.2,-252.65"/>
<text text-anchor="start" x="602" y="-268.8" font-family="Times,serif" font-size="14.00">%4</text>
</g>
<!-- node7 -->
<g id="node8" class="node">
<title>node7</title>
<polygon fill="none" stroke="black" points="309,-88.5 309,-156.5 665,-156.5 665,-88.5 309,-88.5"/>
<text text-anchor="start" x="317" y="-141.3" font-family="Times,serif" font-size="14.00">Join %5 %6 (= #0 #2) (= #1 #3)</text>
<text text-anchor="start" x="317" y="-126.3" font-family="Times,serif" font-size="14.00"> implementation = Differential %5 %6.(#0, #1)</text>
<text text-anchor="start" x="317" y="-111.3" font-family="Times,serif" font-size="14.00"> Map null, null</text>
<text text-anchor="start" x="317" y="-96.3" font-family="Times,serif" font-size="14.00"> Project (#0, #1, #4, #5)</text>
</g>
<!-- node5&#45;&gt;node7 -->
<g id="edge7" class="edge">
<title>node5&#45;&gt;node7</title>
<path fill="none" stroke="black" d="M660.65,-209.49C634.18,-196.38 596.56,-177.75 563.11,-161.19"/>
<polygon fill="black" stroke="black" points="564.31,-157.88 553.79,-156.57 561.2,-164.15 564.31,-157.88"/>
<text text-anchor="start" x="615" y="-178.8" font-family="Times,serif" font-size="14.00">%5</text>
</g>
<!-- node6 -->
<g id="node7" class="node">
<title>node6</title>
<polygon fill="none" stroke="black" points="332,-208.5 332,-246.5 620,-246.5 620,-208.5 332,-208.5"/>
<text text-anchor="start" x="340" y="-231.3" font-family="Times,serif" font-size="14.00">Get simplify_outer_joins.public.l (u95)</text>
<text text-anchor="start" x="340" y="-216.3" font-family="Times,serif" font-size="14.00"> ArrangeBy (#0, #1)</text>
</g>
<!-- node6&#45;&gt;node7 -->
<g id="edge9" class="edge">
<title>node6&#45;&gt;node7</title>
<path fill="none" stroke="black" d="M477.97,-208.09C479.19,-196.63 480.82,-181.39 482.35,-167"/>
<polygon fill="black" stroke="black" points="485.87,-167.06 483.45,-156.74 478.91,-166.32 485.87,-167.06"/>
<text text-anchor="start" x="481" y="-178.8" font-family="Times,serif" font-size="14.00">%6</text>
</g>
<!-- node7&#45;&gt;node8 -->
<g id="edge2" class="edge">
<title>node7&#45;&gt;node8</title>
<path fill="none" stroke="black" d="M425.31,-88.38C396.65,-73 363.36,-55.12 337.87,-41.44"/>
<polygon fill="black" stroke="black" points="339.32,-38.25 328.85,-36.6 336.01,-44.41 339.32,-38.25"/>
<text text-anchor="start" x="387" y="-58.8" font-family="Times,serif" font-size="14.00">%7</text>
</g>
</g>
</svg>
