<?xml version="1.0" encoding="UTF-8" standalone="no"?>
<!DOCTYPE svg PUBLIC "-//W3C//DTD SVG 1.1//EN"
 "http://www.w3.org/Graphics/SVG/1.1/DTD/svg11.dtd">
<!-- Generated by graphviz version 2.43.0 (0)
 -->
<!-- Title: G Pages: 1 -->
<svg width="604pt" height="167pt"
 viewBox="0.00 0.00 604.00 167.00" xmlns="http://www.w3.org/2000/svg" xmlns:xlink="http://www.w3.org/1999/xlink">
<g id="graph0" class="graph" transform="scale(1 1) rotate(0) translate(4 163)">
<title>G</title>
<polygon fill="white" stroke="transparent" points="-4,4 -4,-163 600,-163 600,4 -4,4"/>
<!-- node0 -->
<g id="node1" class="node">
<title>node0</title>
<polygon fill="none" stroke="black" points="0,-105.5 0,-158.5 288,-158.5 288,-105.5 0,-105.5"/>
<text text-anchor="start" x="8" y="-143.3" font-family="Times,serif" font-size="14.00">Get simplify_outer_joins.public.l (u79)</text>
<text text-anchor="start" x="8" y="-128.3" font-family="Times,serif" font-size="14.00"> types = (integer?, integer?)</text>
<text text-anchor="start" x="8" y="-113.3" font-family="Times,serif" font-size="14.00"> keys = ()</text>
</g>
<!-- node2 -->
<g id="node3" class="node">
<title>node2</title>
<polygon fill="none" stroke="black" points="119,-0.5 119,-53.5 475,-53.5 475,-0.5 119,-0.5"/>
<text text-anchor="start" x="127" y="-38.3" font-family="Times,serif" font-size="14.00">LeftOuterJoin %0 %1 on true</text>
<text text-anchor="start" x="127" y="-23.3" font-family="Times,serif" font-size="14.00"> types = (integer?, integer?, integer?, integer?)</text>
<text text-anchor="start" x="127" y="-8.3" font-family="Times,serif" font-size="14.00"> keys = ()</text>
</g>
<!-- node0&#45;&gt;node2 -->
<g id="edge1" class="edge">
<title>node0&#45;&gt;node2</title>
<path fill="none" stroke="black" d="M182.21,-105.27C202.92,-91.33 228.67,-74 250.53,-59.28"/>
<polygon fill="black" stroke="black" points="252.67,-62.06 259.01,-53.58 248.76,-56.26 252.67,-62.06"/>
<text text-anchor="start" x="230" y="-75.8" font-family="Times,serif" font-size="14.00">%0</text>
</g>
<!-- node1 -->
<g id="node2" class="node">
<title>node1</title>
<polygon fill="none" stroke="black" points="306,-105.5 306,-158.5 596,-158.5 596,-105.5 306,-105.5"/>
<text text-anchor="start" x="314" y="-143.3" font-family="Times,serif" font-size="14.00">Get simplify_outer_joins.public.r (u81)</text>
<text text-anchor="start" x="314" y="-128.3" font-family="Times,serif" font-size="14.00"> types = (integer?, integer)</text>
<text text-anchor="start" x="314" y="-113.3" font-family="Times,serif" font-size="14.00"> keys = ()</text>
</g>
<!-- node1&#45;&gt;node2 -->
<g id="edge2" class="edge">
<title>node1&#45;&gt;node2</title>
<path fill="none" stroke="black" d="M412.54,-105.27C391.69,-91.33 365.78,-74 343.77,-59.28"/>
<polygon fill="black" stroke="black" points="345.5,-56.23 335.24,-53.58 341.61,-62.04 345.5,-56.23"/>
<text text-anchor="start" x="384" y="-75.8" font-family="Times,serif" font-size="14.00">%1</text>
</g>
</g>
</svg>
