<?xml version="1.0" encoding="UTF-8" standalone="no"?>
<!DOCTYPE svg PUBLIC "-//W3C//DTD SVG 1.1//EN"
 "http://www.w3.org/Graphics/SVG/1.1/DTD/svg11.dtd">
<!-- Generated by graphviz version 2.43.0 (0)
 -->
<!-- Title: G Pages: 1 -->
<svg width="876pt" height="1346pt"
 viewBox="0.00 0.00 875.50 1346.00" xmlns="http://www.w3.org/2000/svg" xmlns:xlink="http://www.w3.org/1999/xlink">
<g id="graph0" class="graph" transform="scale(1 1) rotate(0) translate(4 1342)">
<title>G</title>
<polygon fill="white" stroke="transparent" points="-4,4 -4,-1342 871.5,-1342 871.5,4 -4,4"/>
<!-- node0 -->
<g id="node1" class="node">
<title>node0</title>
<polygon fill="none" stroke="black" points="324.5,-1269.5 324.5,-1337.5 425.5,-1337.5 425.5,-1269.5 324.5,-1269.5"/>
<text text-anchor="start" x="332.5" y="-1322.3" font-family="Times,serif" font-size="14.00">Let l0 =</text>
<text text-anchor="start" x="332.5" y="-1307.3" font-family="Times,serif" font-size="14.00"> Constant ()</text>
<text text-anchor="start" x="332.5" y="-1292.3" font-family="Times,serif" font-size="14.00"> types = ()</text>
<text text-anchor="start" x="332.5" y="-1277.3" font-family="Times,serif" font-size="14.00"> keys = (())</text>
</g>
<!-- node2 -->
<g id="node3" class="node">
<title>node2</title>
<polygon fill="none" stroke="black" points="97.5,-1134.5 97.5,-1217.5 366.5,-1217.5 366.5,-1134.5 97.5,-1134.5"/>
<text text-anchor="start" x="105.5" y="-1202.3" font-family="Times,serif" font-size="14.00">Let l1 =</text>
<text text-anchor="start" x="105.5" y="-1187.3" font-family="Times,serif" font-size="14.00"> Join %0 %1</text>
<text text-anchor="start" x="105.5" y="-1172.3" font-family="Times,serif" font-size="14.00"> implementation = Unimplemented</text>
<text text-anchor="start" x="105.5" y="-1157.3" font-family="Times,serif" font-size="14.00"> types = (integer?, integer?)</text>
<text text-anchor="start" x="105.5" y="-1142.3" font-family="Times,serif" font-size="14.00"> keys = ()</text>
</g>
<!-- node0&#45;&gt;node2 -->
<g id="edge8" class="edge">
<title>node0&#45;&gt;node2</title>
<path fill="none" stroke="black" d="M337.05,-1269.2C321.41,-1255.47 303,-1239.31 285.99,-1224.39"/>
<polygon fill="black" stroke="black" points="288.12,-1221.59 278.29,-1217.63 283.5,-1226.86 288.12,-1221.59"/>
<text text-anchor="start" x="316" y="-1239.8" font-family="Times,serif" font-size="14.00">%0</text>
</g>
<!-- node4 -->
<g id="node5" class="node">
<title>node4</title>
<polygon fill="none" stroke="black" points="384.5,-1134.5 384.5,-1217.5 653.5,-1217.5 653.5,-1134.5 384.5,-1134.5"/>
<text text-anchor="start" x="392.5" y="-1202.3" font-family="Times,serif" font-size="14.00">Let l2 =</text>
<text text-anchor="start" x="392.5" y="-1187.3" font-family="Times,serif" font-size="14.00"> Join %0 %3</text>
<text text-anchor="start" x="392.5" y="-1172.3" font-family="Times,serif" font-size="14.00"> implementation = Unimplemented</text>
<text text-anchor="start" x="392.5" y="-1157.3" font-family="Times,serif" font-size="14.00"> types = (integer?, integer)</text>
<text text-anchor="start" x="392.5" y="-1142.3" font-family="Times,serif" font-size="14.00"> keys = ()</text>
</g>
<!-- node0&#45;&gt;node4 -->
<g id="edge10" class="edge">
<title>node0&#45;&gt;node4</title>
<path fill="none" stroke="black" d="M413.21,-1269.2C428.96,-1255.47 447.51,-1239.31 464.63,-1224.39"/>
<polygon fill="black" stroke="black" points="467.14,-1226.84 472.38,-1217.63 462.54,-1221.56 467.14,-1226.84"/>
<text text-anchor="start" x="447" y="-1239.8" font-family="Times,serif" font-size="14.00">%0</text>
</g>
<!-- node1 -->
<g id="node2" class="node">
<title>node1</title>
<polygon fill="none" stroke="black" points="18,-1277 18,-1330 306,-1330 306,-1277 18,-1277"/>
<text text-anchor="start" x="26" y="-1314.8" font-family="Times,serif" font-size="14.00">Get simplify_outer_joins.public.l (u79)</text>
<text text-anchor="start" x="26" y="-1299.8" font-family="Times,serif" font-size="14.00"> types = (integer?, integer?)</text>
<text text-anchor="start" x="26" y="-1284.8" font-family="Times,serif" font-size="14.00"> keys = ()</text>
</g>
<!-- node1&#45;&gt;node2 -->
<g id="edge11" class="edge">
<title>node1&#45;&gt;node2</title>
<path fill="none" stroke="black" d="M176.33,-1276.8C184.37,-1262.39 194.68,-1243.91 204.23,-1226.79"/>
<polygon fill="black" stroke="black" points="207.33,-1228.42 209.14,-1217.98 201.21,-1225.01 207.33,-1228.42"/>
<text text-anchor="start" x="197" y="-1239.8" font-family="Times,serif" font-size="14.00">%1</text>
</g>
<!-- node5 -->
<g id="node6" class="node">
<title>node5</title>
<polygon fill="none" stroke="black" points="307,-909.5 307,-1082.5 655,-1082.5 655,-909.5 307,-909.5"/>
<text text-anchor="start" x="315" y="-1067.3" font-family="Times,serif" font-size="14.00">Let l3 =</text>
<text text-anchor="start" x="315" y="-1052.3" font-family="Times,serif" font-size="14.00"> Join %2 %4</text>
<text text-anchor="start" x="315" y="-1037.3" font-family="Times,serif" font-size="14.00"> implementation = Unimplemented</text>
<text text-anchor="start" x="315" y="-1022.3" font-family="Times,serif" font-size="14.00"> types = (integer?, integer?, integer?, integer)</text>
<text text-anchor="start" x="315" y="-1007.3" font-family="Times,serif" font-size="14.00"> keys = ()</text>
<text text-anchor="start" x="315" y="-992.3" font-family="Times,serif" font-size="14.00"> Project (#0..#3)</text>
<text text-anchor="start" x="315" y="-977.3" font-family="Times,serif" font-size="14.00"> types = (integer?, integer?, integer?, integer)</text>
<text text-anchor="start" x="315" y="-962.3" font-family="Times,serif" font-size="14.00"> keys = ()</text>
<text text-anchor="start" x="315" y="-947.3" font-family="Times,serif" font-size="14.00"> Filter true</text>
<text text-anchor="start" x="315" y="-932.3" font-family="Times,serif" font-size="14.00"> types = (integer?, integer?, integer?, integer)</text>
<text text-anchor="start" x="315" y="-917.3" font-family="Times,serif" font-size="14.00"> keys = ()</text>
</g>
<!-- node2&#45;&gt;node5 -->
<g id="edge9" class="edge">
<title>node2&#45;&gt;node5</title>
<path fill="none" stroke="black" d="M288.81,-1134.39C308.05,-1120.63 330.39,-1104.66 352.89,-1088.58"/>
<polygon fill="black" stroke="black" points="355.08,-1091.32 361.17,-1082.66 351,-1085.63 355.08,-1091.32"/>
<text text-anchor="start" x="334" y="-1104.8" font-family="Times,serif" font-size="14.00">%2</text>
</g>
<!-- node7 -->
<g id="node8" class="node">
<title>node7</title>
<polygon fill="none" stroke="black" points="129.5,-792.5 129.5,-890.5 348.5,-890.5 348.5,-792.5 129.5,-792.5"/>
<text text-anchor="start" x="137.5" y="-875.3" font-family="Times,serif" font-size="14.00">Get %2 (l1)</text>
<text text-anchor="start" x="137.5" y="-860.3" font-family="Times,serif" font-size="14.00"> types = (integer?, integer?)</text>
<text text-anchor="start" x="137.5" y="-845.3" font-family="Times,serif" font-size="14.00"> keys = ()</text>
<text text-anchor="start" x="137.5" y="-830.3" font-family="Times,serif" font-size="14.00"> Distinct group=(#0, #1)</text>
<text text-anchor="start" x="137.5" y="-815.3" font-family="Times,serif" font-size="14.00"> types = (integer?, integer?)</text>
<text text-anchor="start" x="137.5" y="-800.3" font-family="Times,serif" font-size="14.00"> keys = ((#0, #1))</text>
</g>
<!-- node2&#45;&gt;node7 -->
<g id="edge16" class="edge">
<title>node2&#45;&gt;node7</title>
<path fill="none" stroke="black" d="M232.86,-1134.23C234.09,-1075.79 236.36,-967.91 237.77,-900.98"/>
<polygon fill="black" stroke="black" points="241.28,-900.68 237.99,-890.6 234.28,-900.53 241.28,-900.68"/>
<text text-anchor="start" x="234" y="-1104.8" font-family="Times,serif" font-size="14.00">%2</text>
</g>
<!-- node9 -->
<g id="node10" class="node">
<title>node9</title>
<polygon fill="none" stroke="black" points="0,-360.5 0,-473.5 356,-473.5 356,-360.5 0,-360.5"/>
<text text-anchor="start" x="8" y="-458.3" font-family="Times,serif" font-size="14.00">Join %8 %2 (= #0 #2) (= #1 #3)</text>
<text text-anchor="start" x="8" y="-443.3" font-family="Times,serif" font-size="14.00"> implementation = Unimplemented</text>
<text text-anchor="start" x="8" y="-428.3" font-family="Times,serif" font-size="14.00"> types = (integer?, integer?, integer?, integer?)</text>
<text text-anchor="start" x="8" y="-413.3" font-family="Times,serif" font-size="14.00"> keys = ()</text>
<text text-anchor="start" x="8" y="-398.3" font-family="Times,serif" font-size="14.00"> Project (#0, #1)</text>
<text text-anchor="start" x="8" y="-383.3" font-family="Times,serif" font-size="14.00"> types = (integer?, integer?)</text>
<text text-anchor="start" x="8" y="-368.3" font-family="Times,serif" font-size="14.00"> keys = ()</text>
</g>
<!-- node2&#45;&gt;node9 -->
<g id="edge2" class="edge">
<title>node2&#45;&gt;node9</title>
<path fill="none" stroke="black" d="M185.02,-1134.29C152.12,-1101.07 114,-1050.95 114,-997 114,-997 114,-997 114,-551 114,-527.45 122.25,-503.67 132.82,-482.86"/>
<polygon fill="black" stroke="black" points="136.02,-484.29 137.65,-473.82 129.85,-480.99 136.02,-484.29"/>
<text text-anchor="start" x="114" y="-698.3" font-family="Times,serif" font-size="14.00">%2</text>
</g>
<!-- node3 -->
<g id="node4" class="node">
<title>node3</title>
<polygon fill="none" stroke="black" points="444,-1277 444,-1330 734,-1330 734,-1277 444,-1277"/>
<text text-anchor="start" x="452" y="-1314.8" font-family="Times,serif" font-size="14.00">Get simplify_outer_joins.public.r (u81)</text>
<text text-anchor="start" x="452" y="-1299.8" font-family="Times,serif" font-size="14.00"> types = (integer?, integer)</text>
<text text-anchor="start" x="452" y="-1284.8" font-family="Times,serif" font-size="14.00"> keys = ()</text>
</g>
<!-- node3&#45;&gt;node4 -->
<g id="edge7" class="edge">
<title>node3&#45;&gt;node4</title>
<path fill="none" stroke="black" d="M574.67,-1276.8C566.63,-1262.39 556.32,-1243.91 546.77,-1226.79"/>
<polygon fill="black" stroke="black" points="549.79,-1225.01 541.86,-1217.98 543.67,-1228.42 549.79,-1225.01"/>
<text text-anchor="start" x="560" y="-1239.8" font-family="Times,serif" font-size="14.00">%3</text>
</g>
<!-- node4&#45;&gt;node5 -->
<g id="edge12" class="edge">
<title>node4&#45;&gt;node5</title>
<path fill="none" stroke="black" d="M510.28,-1134.16C507.61,-1121.65 504.55,-1107.33 501.44,-1092.76"/>
<polygon fill="black" stroke="black" points="504.8,-1091.7 499.29,-1082.65 497.95,-1093.16 504.8,-1091.7"/>
<text text-anchor="start" x="505" y="-1104.8" font-family="Times,serif" font-size="14.00">%4</text>
</g>
<!-- node6 -->
<g id="node7" class="node">
<title>node6</title>
<polygon fill="none" stroke="black" points="280,-630.5 280,-773.5 628,-773.5 628,-630.5 280,-630.5"/>
<text text-anchor="start" x="288" y="-758.3" font-family="Times,serif" font-size="14.00">Get %5 (l3)</text>
<text text-anchor="start" x="288" y="-743.3" font-family="Times,serif" font-size="14.00"> types = (integer?, integer?, integer?, integer)</text>
<text text-anchor="start" x="288" y="-728.3" font-family="Times,serif" font-size="14.00"> keys = ()</text>
<text text-anchor="start" x="288" y="-713.3" font-family="Times,serif" font-size="14.00"> Distinct group=(#0, #1)</text>
<text text-anchor="start" x="288" y="-698.3" font-family="Times,serif" font-size="14.00"> types = (integer?, integer?)</text>
<text text-anchor="start" x="288" y="-683.3" font-family="Times,serif" font-size="14.00"> keys = ((#0, #1))</text>
<text text-anchor="start" x="288" y="-668.3" font-family="Times,serif" font-size="14.00"> Negate</text>
<text text-anchor="start" x="288" y="-653.3" font-family="Times,serif" font-size="14.00"> types = (integer?, integer?)</text>
<text text-anchor="start" x="288" y="-638.3" font-family="Times,serif" font-size="14.00"> keys = ()</text>
</g>
<!-- node5&#45;&gt;node6 -->
<g id="edge14" class="edge">
<title>node5&#45;&gt;node6</title>
<path fill="none" stroke="black" d="M473.08,-909.36C469.42,-869.82 465.11,-823.1 461.5,-784.12"/>
<polygon fill="black" stroke="black" points="464.96,-783.51 460.55,-773.87 457.99,-784.15 464.96,-783.51"/>
<text text-anchor="start" x="470" y="-837.8" font-family="Times,serif" font-size="14.00">%5</text>
</g>
<!-- node12 -->
<g id="node13" class="node">
<title>node12</title>
<polygon fill="none" stroke="black" points="238.5,-0.5 238.5,-188.5 867.5,-188.5 867.5,-0.5 238.5,-0.5"/>
<text text-anchor="start" x="246.5" y="-173.3" font-family="Times,serif" font-size="14.00">Union %5 %11</text>
<text text-anchor="start" x="246.5" y="-158.3" font-family="Times,serif" font-size="14.00"> types = (integer?, integer?, integer?, integer?)</text>
<text text-anchor="start" x="246.5" y="-143.3" font-family="Times,serif" font-size="14.00"> keys = ()</text>
<text text-anchor="start" x="246.5" y="-128.3" font-family="Times,serif" font-size="14.00"> Map #0, #1, #2, #3</text>
<text text-anchor="start" x="246.5" y="-113.3" font-family="Times,serif" font-size="14.00"> types = (integer?, integer?, integer?, integer?, integer?, integer?, integer?, integer?)</text>
<text text-anchor="start" x="246.5" y="-98.3" font-family="Times,serif" font-size="14.00"> keys = ()</text>
<text text-anchor="start" x="246.5" y="-83.3" font-family="Times,serif" font-size="14.00"> Project (#4..#7)</text>
<text text-anchor="start" x="246.5" y="-68.3" font-family="Times,serif" font-size="14.00"> types = (integer?, integer?, integer?, integer?)</text>
<text text-anchor="start" x="246.5" y="-53.3" font-family="Times,serif" font-size="14.00"> keys = ()</text>
<text text-anchor="start" x="246.5" y="-38.3" font-family="Times,serif" font-size="14.00"> Project (#0..#3)</text>
<text text-anchor="start" x="246.5" y="-23.3" font-family="Times,serif" font-size="14.00"> types = (integer?, integer?, integer?, integer?)</text>
<text text-anchor="start" x="246.5" y="-8.3" font-family="Times,serif" font-size="14.00"> keys = ()</text>
</g>
<!-- node5&#45;&gt;node12 -->
<g id="edge6" class="edge">
<title>node5&#45;&gt;node12</title>
<path fill="none" stroke="black" d="M565.68,-909.2C610.35,-854.79 656,-780.28 656,-703 656,-703 656,-703 656,-273.5 656,-247.22 647.49,-221.34 635.36,-197.8"/>
<polygon fill="black" stroke="black" points="638.38,-196.03 630.54,-188.9 632.22,-199.36 638.38,-196.03"/>
<text text-anchor="start" x="656" y="-495.8" font-family="Times,serif" font-size="14.00">%5</text>
</g>
<!-- node8 -->
<g id="node9" class="node">
<title>node8</title>
<polygon fill="none" stroke="black" points="142.5,-525.5 142.5,-578.5 361.5,-578.5 361.5,-525.5 142.5,-525.5"/>
<text text-anchor="start" x="150.5" y="-563.3" font-family="Times,serif" font-size="14.00">Union %6 %7</text>
<text text-anchor="start" x="150.5" y="-548.3" font-family="Times,serif" font-size="14.00"> types = (integer?, integer?)</text>
<text text-anchor="start" x="150.5" y="-533.3" font-family="Times,serif" font-size="14.00"> keys = ()</text>
</g>
<!-- node6&#45;&gt;node8 -->
<g id="edge13" class="edge">
<title>node6&#45;&gt;node8</title>
<path fill="none" stroke="black" d="M357.73,-630.47C335.88,-614.46 313.73,-598.23 295.39,-584.79"/>
<polygon fill="black" stroke="black" points="297.38,-581.91 287.24,-578.82 293.24,-587.56 297.38,-581.91"/>
<text text-anchor="start" x="328" y="-600.8" font-family="Times,serif" font-size="14.00">%6</text>
</g>
<!-- node7&#45;&gt;node8 -->
<g id="edge5" class="edge">
<title>node7&#45;&gt;node8</title>
<path fill="none" stroke="black" d="M240.93,-792.42C242.67,-749.75 245.36,-685.72 248,-630 248.63,-616.63 249.38,-601.95 250.06,-589.04"/>
<polygon fill="black" stroke="black" points="253.57,-588.83 250.61,-578.66 246.58,-588.47 253.57,-588.83"/>
<text text-anchor="start" x="248" y="-698.3" font-family="Times,serif" font-size="14.00">%7</text>
</g>
<!-- node8&#45;&gt;node9 -->
<g id="edge4" class="edge">
<title>node8&#45;&gt;node9</title>
<path fill="none" stroke="black" d="M237.73,-525.36C230.89,-513.05 222.34,-497.7 213.88,-482.49"/>
<polygon fill="black" stroke="black" points="216.84,-480.61 208.92,-473.57 210.72,-484.01 216.84,-480.61"/>
<text text-anchor="start" x="226" y="-495.8" font-family="Times,serif" font-size="14.00">%8</text>
</g>
<!-- node11 -->
<g id="node12" class="node">
<title>node11</title>
<polygon fill="none" stroke="black" points="272,-240.5 272,-308.5 628,-308.5 628,-240.5 272,-240.5"/>
<text text-anchor="start" x="280" y="-293.3" font-family="Times,serif" font-size="14.00">Join %9 %10</text>
<text text-anchor="start" x="280" y="-278.3" font-family="Times,serif" font-size="14.00"> implementation = Unimplemented</text>
<text text-anchor="start" x="280" y="-263.3" font-family="Times,serif" font-size="14.00"> types = (integer?, integer?, integer?, integer?)</text>
<text text-anchor="start" x="280" y="-248.3" font-family="Times,serif" font-size="14.00"> keys = ()</text>
</g>
<!-- node9&#45;&gt;node11 -->
<g id="edge15" class="edge">
<title>node9&#45;&gt;node11</title>
<path fill="none" stroke="black" d="M285.5,-360.47C316.19,-344.62 348.9,-327.72 377,-313.21"/>
<polygon fill="black" stroke="black" points="378.68,-316.28 385.95,-308.58 375.46,-310.06 378.68,-316.28"/>
<text text-anchor="start" x="346" y="-330.8" font-family="Times,serif" font-size="14.00">%9</text>
</g>
<!-- node10 -->
<g id="node11" class="node">
<title>node10</title>
<polygon fill="none" stroke="black" points="374.5,-390.5 374.5,-443.5 593.5,-443.5 593.5,-390.5 374.5,-390.5"/>
<text text-anchor="start" x="382.5" y="-428.3" font-family="Times,serif" font-size="14.00">Constant (null, null)</text>
<text text-anchor="start" x="382.5" y="-413.3" font-family="Times,serif" font-size="14.00"> types = (integer?, integer?)</text>
<text text-anchor="start" x="382.5" y="-398.3" font-family="Times,serif" font-size="14.00"> keys = (())</text>
</g>
<!-- node10&#45;&gt;node11 -->
<g id="edge1" class="edge">
<title>node10&#45;&gt;node11</title>
<path fill="none" stroke="black" d="M477.76,-390.23C472.9,-370.13 466.04,-341.77 460.35,-318.28"/>
<polygon fill="black" stroke="black" points="463.75,-317.44 458,-308.55 456.95,-319.09 463.75,-317.44"/>
<text text-anchor="start" x="465" y="-330.8" font-family="Times,serif" font-size="14.00">%10</text>
</g>
<!-- node11&#45;&gt;node12 -->
<g id="edge3" class="edge">
<title>node11&#45;&gt;node12</title>
<path fill="none" stroke="black" d="M469.13,-240.44C476.4,-227.88 485.11,-212.83 494.13,-197.24"/>
<polygon fill="black" stroke="black" points="497.18,-198.95 499.16,-188.54 491.12,-195.45 497.18,-198.95"/>
<text text-anchor="start" x="486" y="-210.8" font-family="Times,serif" font-size="14.00">%11</text>
</g>
</g>
</svg>
