<?xml version="1.0" encoding="UTF-8" standalone="no"?>
<!DOCTYPE svg PUBLIC "-//W3C//DTD SVG 1.1//EN"
 "http://www.w3.org/Graphics/SVG/1.1/DTD/svg11.dtd">
<!-- Generated by graphviz version 2.43.0 (0)
 -->
<!-- Title: G Pages: 1 -->
<svg width="971pt" height="947pt"
 viewBox="0.00 0.00 971.00 947.00" xmlns="http://www.w3.org/2000/svg" xmlns:xlink="http://www.w3.org/1999/xlink">
<g id="graph0" class="graph" transform="scale(1 1) rotate(0) translate(4 943)">
<title>G</title>
<polygon fill="white" stroke="transparent" points="-4,4 -4,-943 967,-943 967,4 -4,4"/>
<!-- node0 -->
<g id="node1" class="node">
<title>node0</title>
<polygon fill="none" stroke="black" points="0,-840.5 0,-938.5 288,-938.5 288,-840.5 0,-840.5"/>
<text text-anchor="start" x="8" y="-923.3" font-family="Times,serif" font-size="14.00">Get simplify_outer_joins.public.l (u79)</text>
<text text-anchor="start" x="8" y="-908.3" font-family="Times,serif" font-size="14.00"> types = (integer?, integer?)</text>
<text text-anchor="start" x="8" y="-893.3" font-family="Times,serif" font-size="14.00"> keys = ()</text>
<text text-anchor="start" x="8" y="-878.3" font-family="Times,serif" font-size="14.00"> ArrangeBy ()</text>
<text text-anchor="start" x="8" y="-863.3" font-family="Times,serif" font-size="14.00"> types = (integer?, integer?)</text>
<text text-anchor="start" x="8" y="-848.3" font-family="Times,serif" font-size="14.00"> keys = ()</text>
</g>
<!-- node2 -->
<g id="node3" class="node">
<title>node2</title>
<polygon fill="none" stroke="black" points="123,-705.5 123,-788.5 471,-788.5 471,-705.5 123,-705.5"/>
<text text-anchor="start" x="131" y="-773.3" font-family="Times,serif" font-size="14.00">Let l0 =</text>
<text text-anchor="start" x="131" y="-758.3" font-family="Times,serif" font-size="14.00"> Join %0 %1</text>
<text text-anchor="start" x="131" y="-743.3" font-family="Times,serif" font-size="14.00"> implementation = Differential %1 %0.()</text>
<text text-anchor="start" x="131" y="-728.3" font-family="Times,serif" font-size="14.00"> types = (integer?, integer?, integer?, integer)</text>
<text text-anchor="start" x="131" y="-713.3" font-family="Times,serif" font-size="14.00"> keys = ()</text>
</g>
<!-- node0&#45;&gt;node2 -->
<g id="edge4" class="edge">
<title>node0&#45;&gt;node2</title>
<path fill="none" stroke="black" d="M196.65,-840.15C212.4,-825.69 229.65,-809.85 245.33,-795.45"/>
<polygon fill="black" stroke="black" points="247.9,-797.84 252.89,-788.5 243.16,-792.69 247.9,-797.84"/>
<text text-anchor="start" x="230" y="-810.8" font-family="Times,serif" font-size="14.00">%0</text>
</g>
<!-- node1 -->
<g id="node2" class="node">
<title>node1</title>
<polygon fill="none" stroke="black" points="306,-863 306,-916 596,-916 596,-863 306,-863"/>
<text text-anchor="start" x="314" y="-900.8" font-family="Times,serif" font-size="14.00">Get simplify_outer_joins.public.r (u81)</text>
<text text-anchor="start" x="314" y="-885.8" font-family="Times,serif" font-size="14.00"> types = (integer?, integer)</text>
<text text-anchor="start" x="314" y="-870.8" font-family="Times,serif" font-size="14.00"> keys = ()</text>
</g>
<!-- node1&#45;&gt;node2 -->
<g id="edge6" class="edge">
<title>node1&#45;&gt;node2</title>
<path fill="none" stroke="black" d="M422.75,-862.73C402.14,-843.92 373.6,-817.88 348.92,-795.37"/>
<polygon fill="black" stroke="black" points="351.14,-792.66 341.39,-788.5 346.42,-797.83 351.14,-792.66"/>
<text text-anchor="start" x="374" y="-810.8" font-family="Times,serif" font-size="14.00">%1</text>
</g>
<!-- node3 -->
<g id="node4" class="node">
<title>node3</title>
<polygon fill="none" stroke="black" points="615,-465.5 615,-653.5 963,-653.5 963,-465.5 615,-465.5"/>
<text text-anchor="start" x="623" y="-638.3" font-family="Times,serif" font-size="14.00">Get %2 (l0)</text>
<text text-anchor="start" x="623" y="-623.3" font-family="Times,serif" font-size="14.00"> types = (integer?, integer?, integer?, integer)</text>
<text text-anchor="start" x="623" y="-608.3" font-family="Times,serif" font-size="14.00"> keys = ()</text>
<text text-anchor="start" x="623" y="-593.3" font-family="Times,serif" font-size="14.00"> Project (#0, #1)</text>
<text text-anchor="start" x="623" y="-578.3" font-family="Times,serif" font-size="14.00"> types = (integer?, integer?)</text>
<text text-anchor="start" x="623" y="-563.3" font-family="Times,serif" font-size="14.00"> keys = ()</text>
<text text-anchor="start" x="623" y="-548.3" font-family="Times,serif" font-size="14.00"> Distinct group=(#0, #1)</text>
<text text-anchor="start" x="623" y="-533.3" font-family="Times,serif" font-size="14.00"> types = (integer?, integer?)</text>
<text text-anchor="start" x="623" y="-518.3" font-family="Times,serif" font-size="14.00"> keys = ((#0, #1))</text>
<text text-anchor="start" x="623" y="-503.3" font-family="Times,serif" font-size="14.00"> Negate</text>
<text text-anchor="start" x="623" y="-488.3" font-family="Times,serif" font-size="14.00"> types = (integer?, integer?)</text>
<text text-anchor="start" x="623" y="-473.3" font-family="Times,serif" font-size="14.00"> keys = ()</text>
</g>
<!-- node2&#45;&gt;node3 -->
<g id="edge1" class="edge">
<title>node2&#45;&gt;node3</title>
<path fill="none" stroke="black" d="M453.33,-705.48C500.1,-691.85 551.34,-675.42 605.55,-654.08"/>
<polygon fill="black" stroke="black" points="606.99,-657.28 614.99,-650.33 604.4,-650.77 606.99,-657.28"/>
<text text-anchor="start" x="556" y="-675.8" font-family="Times,serif" font-size="14.00">%2</text>
</g>
<!-- node8 -->
<g id="node9" class="node">
<title>node8</title>
<polygon fill="none" stroke="black" points="119,-0.5 119,-53.5 475,-53.5 475,-0.5 119,-0.5"/>
<text text-anchor="start" x="127" y="-38.3" font-family="Times,serif" font-size="14.00">Union %2 %7</text>
<text text-anchor="start" x="127" y="-23.3" font-family="Times,serif" font-size="14.00"> types = (integer?, integer?, integer?, integer?)</text>
<text text-anchor="start" x="127" y="-8.3" font-family="Times,serif" font-size="14.00"> keys = ()</text>
</g>
<!-- node2&#45;&gt;node8 -->
<g id="edge8" class="edge">
<title>node2&#45;&gt;node8</title>
<path fill="none" stroke="black" d="M291.45,-705.19C286.83,-667.67 281,-610.44 281,-560.5 281,-560.5 281,-560.5 281,-183.5 281,-142.17 286.66,-94.99 291.25,-63.54"/>
<polygon fill="black" stroke="black" points="294.73,-63.92 292.75,-53.51 287.81,-62.88 294.73,-63.92"/>
<text text-anchor="start" x="281" y="-360.8" font-family="Times,serif" font-size="14.00">%2</text>
</g>
<!-- node5 -->
<g id="node6" class="node">
<title>node5</title>
<polygon fill="none" stroke="black" points="649.5,-338 649.5,-391 868.5,-391 868.5,-338 649.5,-338"/>
<text text-anchor="start" x="657.5" y="-375.8" font-family="Times,serif" font-size="14.00">Union %3 %4</text>
<text text-anchor="start" x="657.5" y="-360.8" font-family="Times,serif" font-size="14.00"> types = (integer?, integer?)</text>
<text text-anchor="start" x="657.5" y="-345.8" font-family="Times,serif" font-size="14.00"> keys = ()</text>
</g>
<!-- node3&#45;&gt;node5 -->
<g id="edge3" class="edge">
<title>node3&#45;&gt;node5</title>
<path fill="none" stroke="black" d="M774.53,-465.39C771,-442.67 767.42,-419.69 764.6,-401.52"/>
<polygon fill="black" stroke="black" points="768.02,-400.75 763.03,-391.41 761.1,-401.83 768.02,-400.75"/>
<text text-anchor="start" x="771" y="-435.8" font-family="Times,serif" font-size="14.00">%3</text>
</g>
<!-- node4 -->
<g id="node5" class="node">
<title>node4</title>
<polygon fill="none" stroke="black" points="309,-510.5 309,-608.5 597,-608.5 597,-510.5 309,-510.5"/>
<text text-anchor="start" x="317" y="-593.3" font-family="Times,serif" font-size="14.00">Get simplify_outer_joins.public.l (u79)</text>
<text text-anchor="start" x="317" y="-578.3" font-family="Times,serif" font-size="14.00"> types = (integer?, integer?)</text>
<text text-anchor="start" x="317" y="-563.3" font-family="Times,serif" font-size="14.00"> keys = ()</text>
<text text-anchor="start" x="317" y="-548.3" font-family="Times,serif" font-size="14.00"> Distinct group=(#0, #1)</text>
<text text-anchor="start" x="317" y="-533.3" font-family="Times,serif" font-size="14.00"> types = (integer?, integer?)</text>
<text text-anchor="start" x="317" y="-518.3" font-family="Times,serif" font-size="14.00"> keys = ((#0, #1))</text>
</g>
<!-- node4&#45;&gt;node5 -->
<g id="edge5" class="edge">
<title>node4&#45;&gt;node5</title>
<path fill="none" stroke="black" d="M529.43,-510.3C585.87,-474.7 661.05,-427.28 709.74,-396.57"/>
<polygon fill="black" stroke="black" points="711.62,-399.52 718.21,-391.23 707.88,-393.6 711.62,-399.52"/>
<text text-anchor="start" x="651" y="-435.8" font-family="Times,serif" font-size="14.00">%4</text>
</g>
<!-- node7 -->
<g id="node8" class="node">
<title>node7</title>
<polygon fill="none" stroke="black" points="309,-105.5 309,-263.5 801,-263.5 801,-105.5 309,-105.5"/>
<text text-anchor="start" x="317" y="-248.3" font-family="Times,serif" font-size="14.00">Join %5 %6 (= #0 #2) (= #1 #3)</text>
<text text-anchor="start" x="317" y="-233.3" font-family="Times,serif" font-size="14.00"> implementation = Differential %5 %6.(#0, #1)</text>
<text text-anchor="start" x="317" y="-218.3" font-family="Times,serif" font-size="14.00"> types = (integer?, integer?, integer?, integer?)</text>
<text text-anchor="start" x="317" y="-203.3" font-family="Times,serif" font-size="14.00"> keys = ()</text>
<text text-anchor="start" x="317" y="-188.3" font-family="Times,serif" font-size="14.00"> Map null, null</text>
<text text-anchor="start" x="317" y="-173.3" font-family="Times,serif" font-size="14.00"> types = (integer?, integer?, integer?, integer?, integer?, integer?)</text>
<text text-anchor="start" x="317" y="-158.3" font-family="Times,serif" font-size="14.00"> keys = ()</text>
<text text-anchor="start" x="317" y="-143.3" font-family="Times,serif" font-size="14.00"> Project (#0, #1, #4, #5)</text>
<text text-anchor="start" x="317" y="-128.3" font-family="Times,serif" font-size="14.00"> types = (integer?, integer?, integer?, integer?)</text>
<text text-anchor="start" x="317" y="-113.3" font-family="Times,serif" font-size="14.00"> keys = ()</text>
</g>
<!-- node5&#45;&gt;node7 -->
<g id="edge7" class="edge">
<title>node5&#45;&gt;node7</title>
<path fill="none" stroke="black" d="M729.77,-338C709.24,-320.08 680.5,-295.01 652.25,-270.36"/>
<polygon fill="black" stroke="black" points="654.53,-267.7 644.7,-263.77 649.93,-272.98 654.53,-267.7"/>
<text text-anchor="start" x="681" y="-285.8" font-family="Times,serif" font-size="14.00">%5</text>
</g>
<!-- node6 -->
<g id="node7" class="node">
<title>node6</title>
<polygon fill="none" stroke="black" points="343,-315.5 343,-413.5 631,-413.5 631,-315.5 343,-315.5"/>
<text text-anchor="start" x="351" y="-398.3" font-family="Times,serif" font-size="14.00">Get simplify_outer_joins.public.l (u79)</text>
<text text-anchor="start" x="351" y="-383.3" font-family="Times,serif" font-size="14.00"> types = (integer?, integer?)</text>
<text text-anchor="start" x="351" y="-368.3" font-family="Times,serif" font-size="14.00"> keys = ()</text>
<text text-anchor="start" x="351" y="-353.3" font-family="Times,serif" font-size="14.00"> ArrangeBy (#0, #1)</text>
<text text-anchor="start" x="351" y="-338.3" font-family="Times,serif" font-size="14.00"> types = (integer?, integer?)</text>
<text text-anchor="start" x="351" y="-323.3" font-family="Times,serif" font-size="14.00"> keys = ()</text>
</g>
<!-- node6&#45;&gt;node7 -->
<g id="edge9" class="edge">
<title>node6&#45;&gt;node7</title>
<path fill="none" stroke="black" d="M505.4,-315.33C510.4,-302.24 515.98,-287.64 521.54,-273.1"/>
<polygon fill="black" stroke="black" points="524.88,-274.15 525.18,-263.56 518.34,-271.65 524.88,-274.15"/>
<text text-anchor="start" x="516" y="-285.8" font-family="Times,serif" font-size="14.00">%6</text>
</g>
<!-- node7&#45;&gt;node8 -->
<g id="edge2" class="edge">
<title>node7&#45;&gt;node8</title>
<path fill="none" stroke="black" d="M425.24,-105.29C397.88,-88.8 370.57,-72.34 348.22,-58.87"/>
<polygon fill="black" stroke="black" points="349.96,-55.84 339.59,-53.67 346.35,-61.83 349.96,-55.84"/>
<text text-anchor="start" x="388" y="-75.8" font-family="Times,serif" font-size="14.00">%7</text>
</g>
</g>
</svg>
