<?xml version="1.0" encoding="UTF-8" standalone="no"?>
<!DOCTYPE svg PUBLIC "-//W3C//DTD SVG 1.1//EN"
 "http://www.w3.org/Graphics/SVG/1.1/DTD/svg11.dtd">
<!-- Generated by graphviz version 2.43.0 (0)
 -->
<!-- Title: G Pages: 1 -->
<svg width="742pt" height="1211pt"
 viewBox="0.00 0.00 742.00 1211.00" xmlns="http://www.w3.org/2000/svg" xmlns:xlink="http://www.w3.org/1999/xlink">
<g id="graph0" class="graph" transform="scale(1 1) rotate(0) translate(4 1207)">
<title>G</title>
<polygon fill="white" stroke="transparent" points="-4,4 -4,-1207 738,-1207 738,4 -4,4"/>
<!-- node0 -->
<g id="node1" class="node">
<title>node0</title>
<polygon fill="none" stroke="black" points="324.5,-1134.5 324.5,-1202.5 425.5,-1202.5 425.5,-1134.5 324.5,-1134.5"/>
<text text-anchor="start" x="332.5" y="-1187.3" font-family="Times,serif" font-size="14.00">Let l0 =</text>
<text text-anchor="start" x="332.5" y="-1172.3" font-family="Times,serif" font-size="14.00"> Constant ()</text>
<text text-anchor="start" x="332.5" y="-1157.3" font-family="Times,serif" font-size="14.00"> types = ()</text>
<text text-anchor="start" x="332.5" y="-1142.3" font-family="Times,serif" font-size="14.00"> keys = (())</text>
</g>
<!-- node2 -->
<g id="node3" class="node">
<title>node2</title>
<polygon fill="none" stroke="black" points="97.5,-999.5 97.5,-1082.5 366.5,-1082.5 366.5,-999.5 97.5,-999.5"/>
<text text-anchor="start" x="105.5" y="-1067.3" font-family="Times,serif" font-size="14.00">Let l1 =</text>
<text text-anchor="start" x="105.5" y="-1052.3" font-family="Times,serif" font-size="14.00"> Join %0 %1</text>
<text text-anchor="start" x="105.5" y="-1037.3" font-family="Times,serif" font-size="14.00"> implementation = Unimplemented</text>
<text text-anchor="start" x="105.5" y="-1022.3" font-family="Times,serif" font-size="14.00"> types = (integer?, integer?)</text>
<text text-anchor="start" x="105.5" y="-1007.3" font-family="Times,serif" font-size="14.00"> keys = ()</text>
</g>
<!-- node0&#45;&gt;node2 -->
<g id="edge2" class="edge">
<title>node0&#45;&gt;node2</title>
<path fill="none" stroke="black" d="M337.05,-1134.2C321.41,-1120.47 303,-1104.31 285.99,-1089.39"/>
<polygon fill="black" stroke="black" points="288.12,-1086.59 278.29,-1082.63 283.5,-1091.86 288.12,-1086.59"/>
<text text-anchor="start" x="316" y="-1104.8" font-family="Times,serif" font-size="14.00">%0</text>
</g>
<!-- node4 -->
<g id="node5" class="node">
<title>node4</title>
<polygon fill="none" stroke="black" points="384.5,-999.5 384.5,-1082.5 653.5,-1082.5 653.5,-999.5 384.5,-999.5"/>
<text text-anchor="start" x="392.5" y="-1067.3" font-family="Times,serif" font-size="14.00">Let l2 =</text>
<text text-anchor="start" x="392.5" y="-1052.3" font-family="Times,serif" font-size="14.00"> Join %0 %3</text>
<text text-anchor="start" x="392.5" y="-1037.3" font-family="Times,serif" font-size="14.00"> implementation = Unimplemented</text>
<text text-anchor="start" x="392.5" y="-1022.3" font-family="Times,serif" font-size="14.00"> types = (integer?, integer)</text>
<text text-anchor="start" x="392.5" y="-1007.3" font-family="Times,serif" font-size="14.00"> keys = ()</text>
</g>
<!-- node0&#45;&gt;node4 -->
<g id="edge14" class="edge">
<title>node0&#45;&gt;node4</title>
<path fill="none" stroke="black" d="M413.21,-1134.2C428.96,-1120.47 447.51,-1104.31 464.63,-1089.39"/>
<polygon fill="black" stroke="black" points="467.14,-1091.84 472.38,-1082.63 462.54,-1086.56 467.14,-1091.84"/>
<text text-anchor="start" x="447" y="-1104.8" font-family="Times,serif" font-size="14.00">%0</text>
</g>
<!-- node1 -->
<g id="node2" class="node">
<title>node1</title>
<polygon fill="none" stroke="black" points="18,-1142 18,-1195 306,-1195 306,-1142 18,-1142"/>
<text text-anchor="start" x="26" y="-1179.8" font-family="Times,serif" font-size="14.00">Get simplify_outer_joins.public.l (u95)</text>
<text text-anchor="start" x="26" y="-1164.8" font-family="Times,serif" font-size="14.00"> types = (integer?, integer?)</text>
<text text-anchor="start" x="26" y="-1149.8" font-family="Times,serif" font-size="14.00"> keys = ()</text>
</g>
<!-- node1&#45;&gt;node2 -->
<g id="edge15" class="edge">
<title>node1&#45;&gt;node2</title>
<path fill="none" stroke="black" d="M176.33,-1141.8C184.37,-1127.39 194.68,-1108.91 204.23,-1091.79"/>
<polygon fill="black" stroke="black" points="207.33,-1093.42 209.14,-1082.98 201.21,-1090.01 207.33,-1093.42"/>
<text text-anchor="start" x="197" y="-1104.8" font-family="Times,serif" font-size="14.00">%1</text>
</g>
<!-- node5 -->
<g id="node6" class="node">
<title>node5</title>
<polygon fill="none" stroke="black" points="307,-774.5 307,-947.5 655,-947.5 655,-774.5 307,-774.5"/>
<text text-anchor="start" x="315" y="-932.3" font-family="Times,serif" font-size="14.00">Let l3 =</text>
<text text-anchor="start" x="315" y="-917.3" font-family="Times,serif" font-size="14.00"> Join %2 %4</text>
<text text-anchor="start" x="315" y="-902.3" font-family="Times,serif" font-size="14.00"> implementation = Unimplemented</text>
<text text-anchor="start" x="315" y="-887.3" font-family="Times,serif" font-size="14.00"> types = (integer?, integer?, integer?, integer)</text>
<text text-anchor="start" x="315" y="-872.3" font-family="Times,serif" font-size="14.00"> keys = ()</text>
<text text-anchor="start" x="315" y="-857.3" font-family="Times,serif" font-size="14.00"> Project (#0..=#3)</text>
<text text-anchor="start" x="315" y="-842.3" font-family="Times,serif" font-size="14.00"> types = (integer?, integer?, integer?, integer)</text>
<text text-anchor="start" x="315" y="-827.3" font-family="Times,serif" font-size="14.00"> keys = ()</text>
<text text-anchor="start" x="315" y="-812.3" font-family="Times,serif" font-size="14.00"> Filter true</text>
<text text-anchor="start" x="315" y="-797.3" font-family="Times,serif" font-size="14.00"> types = (integer?, integer?, integer?, integer)</text>
<text text-anchor="start" x="315" y="-782.3" font-family="Times,serif" font-size="14.00"> keys = ()</text>
</g>
<!-- node2&#45;&gt;node5 -->
<g id="edge5" class="edge">
<title>node2&#45;&gt;node5</title>
<path fill="none" stroke="black" d="M288.81,-999.39C308.05,-985.63 330.39,-969.66 352.89,-953.58"/>
<polygon fill="black" stroke="black" points="355.08,-956.32 361.17,-947.66 351,-950.63 355.08,-956.32"/>
<text text-anchor="start" x="334" y="-969.8" font-family="Times,serif" font-size="14.00">%2</text>
</g>
<!-- node7 -->
<g id="node8" class="node">
<title>node7</title>
<polygon fill="none" stroke="black" points="129.5,-657.5 129.5,-755.5 348.5,-755.5 348.5,-657.5 129.5,-657.5"/>
<text text-anchor="start" x="137.5" y="-740.3" font-family="Times,serif" font-size="14.00">Get %2 (l1)</text>
<text text-anchor="start" x="137.5" y="-725.3" font-family="Times,serif" font-size="14.00"> types = (integer?, integer?)</text>
<text text-anchor="start" x="137.5" y="-710.3" font-family="Times,serif" font-size="14.00"> keys = ()</text>
<text text-anchor="start" x="137.5" y="-695.3" font-family="Times,serif" font-size="14.00"> Distinct group=(#0, #1)</text>
<text text-anchor="start" x="137.5" y="-680.3" font-family="Times,serif" font-size="14.00"> types = (integer?, integer?)</text>
<text text-anchor="start" x="137.5" y="-665.3" font-family="Times,serif" font-size="14.00"> keys = ((#0, #1))</text>
</g>
<!-- node2&#45;&gt;node7 -->
<g id="edge13" class="edge">
<title>node2&#45;&gt;node7</title>
<path fill="none" stroke="black" d="M232.86,-999.23C234.09,-940.79 236.36,-832.91 237.77,-765.98"/>
<polygon fill="black" stroke="black" points="241.28,-765.68 237.99,-755.6 234.28,-765.53 241.28,-765.68"/>
<text text-anchor="start" x="234" y="-969.8" font-family="Times,serif" font-size="14.00">%2</text>
</g>
<!-- node9 -->
<g id="node10" class="node">
<title>node9</title>
<polygon fill="none" stroke="black" points="0,-225.5 0,-338.5 356,-338.5 356,-225.5 0,-225.5"/>
<text text-anchor="start" x="8" y="-323.3" font-family="Times,serif" font-size="14.00">Join %8 %2 (= #0 #2) (= #1 #3)</text>
<text text-anchor="start" x="8" y="-308.3" font-family="Times,serif" font-size="14.00"> implementation = Unimplemented</text>
<text text-anchor="start" x="8" y="-293.3" font-family="Times,serif" font-size="14.00"> types = (integer?, integer?, integer?, integer?)</text>
<text text-anchor="start" x="8" y="-278.3" font-family="Times,serif" font-size="14.00"> keys = ()</text>
<text text-anchor="start" x="8" y="-263.3" font-family="Times,serif" font-size="14.00"> Project (#0, #1)</text>
<text text-anchor="start" x="8" y="-248.3" font-family="Times,serif" font-size="14.00"> types = (integer?, integer?)</text>
<text text-anchor="start" x="8" y="-233.3" font-family="Times,serif" font-size="14.00"> keys = ()</text>
</g>
<!-- node2&#45;&gt;node9 -->
<g id="edge6" class="edge">
<title>node2&#45;&gt;node9</title>
<path fill="none" stroke="black" d="M185.02,-999.29C152.12,-966.07 114,-915.95 114,-862 114,-862 114,-862 114,-416 114,-392.45 122.25,-368.67 132.82,-347.86"/>
<polygon fill="black" stroke="black" points="136.02,-349.29 137.65,-338.82 129.85,-345.99 136.02,-349.29"/>
<text text-anchor="start" x="114" y="-563.3" font-family="Times,serif" font-size="14.00">%2</text>
</g>
<!-- node3 -->
<g id="node4" class="node">
<title>node3</title>
<polygon fill="none" stroke="black" points="444,-1142 444,-1195 734,-1195 734,-1142 444,-1142"/>
<text text-anchor="start" x="452" y="-1179.8" font-family="Times,serif" font-size="14.00">Get simplify_outer_joins.public.r (u97)</text>
<text text-anchor="start" x="452" y="-1164.8" font-family="Times,serif" font-size="14.00"> types = (integer?, integer)</text>
<text text-anchor="start" x="452" y="-1149.8" font-family="Times,serif" font-size="14.00"> keys = ()</text>
</g>
<!-- node3&#45;&gt;node4 -->
<g id="edge4" class="edge">
<title>node3&#45;&gt;node4</title>
<path fill="none" stroke="black" d="M574.67,-1141.8C566.63,-1127.39 556.32,-1108.91 546.77,-1091.79"/>
<polygon fill="black" stroke="black" points="549.79,-1090.01 541.86,-1082.98 543.67,-1093.42 549.79,-1090.01"/>
<text text-anchor="start" x="560" y="-1104.8" font-family="Times,serif" font-size="14.00">%3</text>
</g>
<!-- node4&#45;&gt;node5 -->
<g id="edge9" class="edge">
<title>node4&#45;&gt;node5</title>
<path fill="none" stroke="black" d="M510.28,-999.16C507.61,-986.65 504.55,-972.33 501.44,-957.76"/>
<polygon fill="black" stroke="black" points="504.8,-956.7 499.29,-947.65 497.95,-958.16 504.8,-956.7"/>
<text text-anchor="start" x="505" y="-969.8" font-family="Times,serif" font-size="14.00">%4</text>
</g>
<!-- node6 -->
<g id="node7" class="node">
<title>node6</title>
<polygon fill="none" stroke="black" points="280,-495.5 280,-638.5 628,-638.5 628,-495.5 280,-495.5"/>
<text text-anchor="start" x="288" y="-623.3" font-family="Times,serif" font-size="14.00">Get %5 (l3)</text>
<text text-anchor="start" x="288" y="-608.3" font-family="Times,serif" font-size="14.00"> types = (integer?, integer?, integer?, integer)</text>
<text text-anchor="start" x="288" y="-593.3" font-family="Times,serif" font-size="14.00"> keys = ()</text>
<text text-anchor="start" x="288" y="-578.3" font-family="Times,serif" font-size="14.00"> Distinct group=(#0, #1)</text>
<text text-anchor="start" x="288" y="-563.3" font-family="Times,serif" font-size="14.00"> types = (integer?, integer?)</text>
<text text-anchor="start" x="288" y="-548.3" font-family="Times,serif" font-size="14.00"> keys = ((#0, #1))</text>
<text text-anchor="start" x="288" y="-533.3" font-family="Times,serif" font-size="14.00"> Negate</text>
<text text-anchor="start" x="288" y="-518.3" font-family="Times,serif" font-size="14.00"> types = (integer?, integer?)</text>
<text text-anchor="start" x="288" y="-503.3" font-family="Times,serif" font-size="14.00"> keys = ()</text>
</g>
<!-- node5&#45;&gt;node6 -->
<g id="edge10" class="edge">
<title>node5&#45;&gt;node6</title>
<path fill="none" stroke="black" d="M473.08,-774.36C469.42,-734.82 465.11,-688.1 461.5,-649.12"/>
<polygon fill="black" stroke="black" points="464.96,-648.51 460.55,-638.87 457.99,-649.15 464.96,-648.51"/>
<text text-anchor="start" x="470" y="-702.8" font-family="Times,serif" font-size="14.00">%5</text>
</g>
<!-- node12 -->
<g id="node13" class="node">
<title>node12</title>
<polygon fill="none" stroke="black" points="375,-0.5 375,-53.5 731,-53.5 731,-0.5 375,-0.5"/>
<text text-anchor="start" x="383" y="-38.3" font-family="Times,serif" font-size="14.00">Union %5 %11</text>
<text text-anchor="start" x="383" y="-23.3" font-family="Times,serif" font-size="14.00"> types = (integer?, integer?, integer?, integer?)</text>
<text text-anchor="start" x="383" y="-8.3" font-family="Times,serif" font-size="14.00"> keys = ()</text>
</g>
<!-- node5&#45;&gt;node12 -->
<g id="edge1" class="edge">
<title>node5&#45;&gt;node12</title>
<path fill="none" stroke="black" d="M565.68,-774.2C610.35,-719.79 656,-645.28 656,-568 656,-568 656,-568 656,-138.5 656,-105.72 631.45,-78.62 606.33,-59.45"/>
<polygon fill="black" stroke="black" points="608.32,-56.57 598.18,-53.51 604.2,-62.23 608.32,-56.57"/>
<text text-anchor="start" x="656" y="-360.8" font-family="Times,serif" font-size="14.00">%5</text>
</g>
<!-- node8 -->
<g id="node9" class="node">
<title>node8</title>
<polygon fill="none" stroke="black" points="142.5,-390.5 142.5,-443.5 361.5,-443.5 361.5,-390.5 142.5,-390.5"/>
<text text-anchor="start" x="150.5" y="-428.3" font-family="Times,serif" font-size="14.00">Union %6 %7</text>
<text text-anchor="start" x="150.5" y="-413.3" font-family="Times,serif" font-size="14.00"> types = (integer?, integer?)</text>
<text text-anchor="start" x="150.5" y="-398.3" font-family="Times,serif" font-size="14.00"> keys = ()</text>
</g>
<!-- node6&#45;&gt;node8 -->
<g id="edge16" class="edge">
<title>node6&#45;&gt;node8</title>
<path fill="none" stroke="black" d="M357.73,-495.47C335.88,-479.46 313.73,-463.23 295.39,-449.79"/>
<polygon fill="black" stroke="black" points="297.38,-446.91 287.24,-443.82 293.24,-452.56 297.38,-446.91"/>
<text text-anchor="start" x="328" y="-465.8" font-family="Times,serif" font-size="14.00">%6</text>
</g>
<!-- node7&#45;&gt;node8 -->
<g id="edge3" class="edge">
<title>node7&#45;&gt;node8</title>
<path fill="none" stroke="black" d="M240.93,-657.42C242.67,-614.75 245.36,-550.72 248,-495 248.63,-481.63 249.38,-466.95 250.06,-454.04"/>
<polygon fill="black" stroke="black" points="253.57,-453.83 250.61,-443.66 246.58,-453.47 253.57,-453.83"/>
<text text-anchor="start" x="248" y="-563.3" font-family="Times,serif" font-size="14.00">%7</text>
</g>
<!-- node8&#45;&gt;node9 -->
<g id="edge11" class="edge">
<title>node8&#45;&gt;node9</title>
<path fill="none" stroke="black" d="M237.73,-390.36C230.89,-378.05 222.34,-362.7 213.88,-347.49"/>
<polygon fill="black" stroke="black" points="216.84,-345.61 208.92,-338.57 210.72,-349.01 216.84,-345.61"/>
<text text-anchor="start" x="226" y="-360.8" font-family="Times,serif" font-size="14.00">%8</text>
</g>
<!-- node11 -->
<g id="node12" class="node">
<title>node11</title>
<polygon fill="none" stroke="black" points="272,-105.5 272,-173.5 628,-173.5 628,-105.5 272,-105.5"/>
<text text-anchor="start" x="280" y="-158.3" font-family="Times,serif" font-size="14.00">Join %9 %10</text>
<text text-anchor="start" x="280" y="-143.3" font-family="Times,serif" font-size="14.00"> implementation = Unimplemented</text>
<text text-anchor="start" x="280" y="-128.3" font-family="Times,serif" font-size="14.00"> types = (integer?, integer?, integer?, integer?)</text>
<text text-anchor="start" x="280" y="-113.3" font-family="Times,serif" font-size="14.00"> keys = ()</text>
</g>
<!-- node9&#45;&gt;node11 -->
<g id="edge12" class="edge">
<title>node9&#45;&gt;node11</title>
<path fill="none" stroke="black" d="M285.5,-225.47C316.19,-209.62 348.9,-192.72 377,-178.21"/>
<polygon fill="black" stroke="black" points="378.68,-181.28 385.95,-173.58 375.46,-175.06 378.68,-181.28"/>
<text text-anchor="start" x="346" y="-195.8" font-family="Times,serif" font-size="14.00">%9</text>
</g>
<!-- node10 -->
<g id="node11" class="node">
<title>node10</title>
<polygon fill="none" stroke="black" points="374.5,-255.5 374.5,-308.5 593.5,-308.5 593.5,-255.5 374.5,-255.5"/>
<text text-anchor="start" x="382.5" y="-293.3" font-family="Times,serif" font-size="14.00">Constant (null, null)</text>
<text text-anchor="start" x="382.5" y="-278.3" font-family="Times,serif" font-size="14.00"> types = (integer?, integer?)</text>
<text text-anchor="start" x="382.5" y="-263.3" font-family="Times,serif" font-size="14.00"> keys = (())</text>
</g>
<!-- node10&#45;&gt;node11 -->
<g id="edge7" class="edge">
<title>node10&#45;&gt;node11</title>
<path fill="none" stroke="black" d="M477.76,-255.23C472.9,-235.13 466.04,-206.77 460.35,-183.28"/>
<polygon fill="black" stroke="black" points="463.75,-182.44 458,-173.55 456.95,-184.09 463.75,-182.44"/>
<text text-anchor="start" x="465" y="-195.8" font-family="Times,serif" font-size="14.00">%10</text>
</g>
<!-- node11&#45;&gt;node12 -->
<g id="edge8" class="edge">
<title>node11&#45;&gt;node12</title>
<path fill="none" stroke="black" d="M480.9,-105.35C493.9,-91.4 509,-75.21 522.01,-61.25"/>
<polygon fill="black" stroke="black" points="524.73,-63.46 528.99,-53.75 519.61,-58.68 524.73,-63.46"/>
<text text-anchor="start" x="510" y="-75.8" font-family="Times,serif" font-size="14.00">%11</text>
</g>
</g>
</svg>
