<?xml version="1.0" encoding="UTF-8" standalone="no"?>
<!DOCTYPE svg PUBLIC "-//W3C//DTD SVG 1.1//EN"
 "http://www.w3.org/Graphics/SVG/1.1/DTD/svg11.dtd">
<!-- Generated by graphviz version 2.43.0 (0)
 -->
<!-- Title: G Pages: 1 -->
<svg width="1277pt" height="1561pt"
 viewBox="0.00 0.00 1276.50 1561.00" xmlns="http://www.w3.org/2000/svg" xmlns:xlink="http://www.w3.org/1999/xlink">
<g id="graph0" class="graph" transform="scale(1 1) rotate(0) translate(4 1557)">
<title>G</title>
<polygon fill="white" stroke="transparent" points="-4,4 -4,-1557 1272.5,-1557 1272.5,4 -4,4"/>
<!-- node0 -->
<g id="node1" class="node">
<title>node0</title>
<polygon fill="none" stroke="black" points="515,-1514.5 515,-1552.5 616,-1552.5 616,-1514.5 515,-1514.5"/>
<text text-anchor="start" x="523" y="-1537.3" font-family="Times,serif" font-size="14.00">Let l0 =</text>
<text text-anchor="start" x="523" y="-1522.3" font-family="Times,serif" font-size="14.00"> Constant ()</text>
</g>
<!-- node2 -->
<g id="node3" class="node">
<title>node2</title>
<polygon fill="none" stroke="black" points="861,-1409.5 861,-1462.5 1130,-1462.5 1130,-1409.5 861,-1409.5"/>
<text text-anchor="start" x="869" y="-1447.3" font-family="Times,serif" font-size="14.00">Let l1 =</text>
<text text-anchor="start" x="869" y="-1432.3" font-family="Times,serif" font-size="14.00"> Join %0 %1</text>
<text text-anchor="start" x="869" y="-1417.3" font-family="Times,serif" font-size="14.00"> implementation = Unimplemented</text>
</g>
<!-- node0&#45;&gt;node2 -->
<g id="edge23" class="edge">
<title>node0&#45;&gt;node2</title>
<path fill="none" stroke="black" d="M612.02,-1514.41C642.24,-1503.29 682.71,-1489.58 719.5,-1481 774.23,-1468.23 791.3,-1471.83 850.71,-1463.05"/>
<polygon fill="black" stroke="black" points="851.27,-1466.51 860.63,-1461.53 850.21,-1459.59 851.27,-1466.51"/>
<text text-anchor="start" x="719.5" y="-1484.8" font-family="Times,serif" font-size="14.00">%0</text>
</g>
<!-- node4 -->
<g id="node5" class="node">
<title>node4</title>
<polygon fill="none" stroke="black" points="574,-1409.5 574,-1462.5 843,-1462.5 843,-1409.5 574,-1409.5"/>
<text text-anchor="start" x="582" y="-1447.3" font-family="Times,serif" font-size="14.00">Let l2 =</text>
<text text-anchor="start" x="582" y="-1432.3" font-family="Times,serif" font-size="14.00"> Join %0 %3</text>
<text text-anchor="start" x="582" y="-1417.3" font-family="Times,serif" font-size="14.00"> implementation = Unimplemented</text>
</g>
<!-- node0&#45;&gt;node4 -->
<g id="edge19" class="edge">
<title>node0&#45;&gt;node4</title>
<path fill="none" stroke="black" d="M587.6,-1514.35C600.41,-1504.12 617.02,-1491.37 632.5,-1481 639.09,-1476.59 646.14,-1472.15 653.2,-1467.88"/>
<polygon fill="black" stroke="black" points="655.3,-1470.7 662.09,-1462.58 651.71,-1464.69 655.3,-1470.7"/>
<text text-anchor="start" x="632.5" y="-1484.8" font-family="Times,serif" font-size="14.00">%0</text>
</g>
<!-- node14 -->
<g id="node15" class="node">
<title>node14</title>
<polygon fill="none" stroke="black" points="287,-1409.5 287,-1462.5 556,-1462.5 556,-1409.5 287,-1409.5"/>
<text text-anchor="start" x="295" y="-1447.3" font-family="Times,serif" font-size="14.00">Let l5 =</text>
<text text-anchor="start" x="295" y="-1432.3" font-family="Times,serif" font-size="14.00"> Join %0 %13</text>
<text text-anchor="start" x="295" y="-1417.3" font-family="Times,serif" font-size="14.00"> implementation = Unimplemented</text>
</g>
<!-- node0&#45;&gt;node14 -->
<g id="edge12" class="edge">
<title>node0&#45;&gt;node14</title>
<path fill="none" stroke="black" d="M538.08,-1514.31C518.47,-1501.31 491.59,-1483.48 468.58,-1468.22"/>
<polygon fill="black" stroke="black" points="470.24,-1465.12 459.97,-1462.51 466.37,-1470.96 470.24,-1465.12"/>
<text text-anchor="start" x="506.5" y="-1484.8" font-family="Times,serif" font-size="14.00">%0</text>
</g>
<!-- node1 -->
<g id="node2" class="node">
<title>node1</title>
<polygon fill="none" stroke="black" points="960.5,-1515.5 960.5,-1551.5 1268.5,-1551.5 1268.5,-1515.5 960.5,-1515.5"/>
<text text-anchor="start" x="968.5" y="-1529.8" font-family="Times,serif" font-size="14.00">Get simplify_outer_joins.public.t1 (u118)</text>
</g>
<!-- node1&#45;&gt;node2 -->
<g id="edge27" class="edge">
<title>node1&#45;&gt;node2</title>
<path fill="none" stroke="black" d="M1093.23,-1515.43C1077.13,-1502.51 1054.55,-1484.39 1035.15,-1468.82"/>
<polygon fill="black" stroke="black" points="1037.33,-1466.08 1027.34,-1462.55 1032.95,-1471.54 1037.33,-1466.08"/>
<text text-anchor="start" x="1066.5" y="-1484.8" font-family="Times,serif" font-size="14.00">%1</text>
</g>
<!-- node5 -->
<g id="node6" class="node">
<title>node5</title>
<polygon fill="none" stroke="black" points="579,-1274.5 579,-1357.5 848,-1357.5 848,-1274.5 579,-1274.5"/>
<text text-anchor="start" x="587" y="-1342.3" font-family="Times,serif" font-size="14.00">Let l3 =</text>
<text text-anchor="start" x="587" y="-1327.3" font-family="Times,serif" font-size="14.00"> Join %2 %4</text>
<text text-anchor="start" x="587" y="-1312.3" font-family="Times,serif" font-size="14.00"> implementation = Unimplemented</text>
<text text-anchor="start" x="587" y="-1297.3" font-family="Times,serif" font-size="14.00"> Project (#0..#3)</text>
<text text-anchor="start" x="587" y="-1282.3" font-family="Times,serif" font-size="14.00"> Filter (true &amp;&amp; (#0 = #2))</text>
</g>
<!-- node2&#45;&gt;node5 -->
<g id="edge9" class="edge">
<title>node2&#45;&gt;node5</title>
<path fill="none" stroke="black" d="M895.67,-1409.45C878.37,-1404.03 860.73,-1397.84 844.5,-1391 825.37,-1382.94 805.48,-1372.74 787.16,-1362.52"/>
<polygon fill="black" stroke="black" points="788.73,-1359.39 778.3,-1357.51 785.29,-1365.48 788.73,-1359.39"/>
<text text-anchor="start" x="844.5" y="-1379.8" font-family="Times,serif" font-size="14.00">%2</text>
</g>
<!-- node7 -->
<g id="node8" class="node">
<title>node7</title>
<polygon fill="none" stroke="black" points="897,-1217.5 897,-1255.5 1094,-1255.5 1094,-1217.5 897,-1217.5"/>
<text text-anchor="start" x="905" y="-1240.3" font-family="Times,serif" font-size="14.00">Get %2 (l1)</text>
<text text-anchor="start" x="905" y="-1225.3" font-family="Times,serif" font-size="14.00"> Distinct group=(#0, #1)</text>
</g>
<!-- node2&#45;&gt;node7 -->
<g id="edge29" class="edge">
<title>node2&#45;&gt;node7</title>
<path fill="none" stroke="black" d="M995.5,-1409.18C995.5,-1372.26 995.5,-1304.59 995.5,-1266.16"/>
<polygon fill="black" stroke="black" points="999,-1265.69 995.5,-1255.69 992,-1265.69 999,-1265.69"/>
<text text-anchor="start" x="995.5" y="-1379.8" font-family="Times,serif" font-size="14.00">%2</text>
</g>
<!-- node9 -->
<g id="node10" class="node">
<title>node9</title>
<polygon fill="none" stroke="black" points="747,-952.5 747,-1005.5 1016,-1005.5 1016,-952.5 747,-952.5"/>
<text text-anchor="start" x="755" y="-990.3" font-family="Times,serif" font-size="14.00">Join %8 %2 (= #0 #2) (= #1 #3)</text>
<text text-anchor="start" x="755" y="-975.3" font-family="Times,serif" font-size="14.00"> implementation = Unimplemented</text>
<text text-anchor="start" x="755" y="-960.3" font-family="Times,serif" font-size="14.00"> Project (#0, #1)</text>
</g>
<!-- node2&#45;&gt;node9 -->
<g id="edge30" class="edge">
<title>node2&#45;&gt;node9</title>
<path fill="none" stroke="black" d="M947.48,-1409.49C916.33,-1389.11 881.5,-1357.31 881.5,-1317 881.5,-1317 881.5,-1317 881.5,-1074.5 881.5,-1055.21 881.5,-1033.7 881.5,-1016.08"/>
<polygon fill="black" stroke="black" points="885,-1015.67 881.5,-1005.67 878,-1015.67 885,-1015.67"/>
<text text-anchor="start" x="881.5" y="-1168.3" font-family="Times,serif" font-size="14.00">%2</text>
</g>
<!-- node3 -->
<g id="node4" class="node">
<title>node3</title>
<polygon fill="none" stroke="black" points="634.5,-1515.5 634.5,-1551.5 942.5,-1551.5 942.5,-1515.5 634.5,-1515.5"/>
<text text-anchor="start" x="642.5" y="-1529.8" font-family="Times,serif" font-size="14.00">Get simplify_outer_joins.public.t1 (u118)</text>
</g>
<!-- node3&#45;&gt;node4 -->
<g id="edge24" class="edge">
<title>node3&#45;&gt;node4</title>
<path fill="none" stroke="black" d="M774.2,-1515.43C763.71,-1502.91 749.14,-1485.51 736.38,-1470.28"/>
<polygon fill="black" stroke="black" points="739.01,-1467.97 729.91,-1462.55 733.65,-1472.47 739.01,-1467.97"/>
<text text-anchor="start" x="756.5" y="-1484.8" font-family="Times,serif" font-size="14.00">%3</text>
</g>
<!-- node4&#45;&gt;node5 -->
<g id="edge13" class="edge">
<title>node4&#45;&gt;node5</title>
<path fill="none" stroke="black" d="M709.58,-1409.4C710.1,-1397.29 710.73,-1382.38 711.33,-1368.1"/>
<polygon fill="black" stroke="black" points="714.84,-1368 711.77,-1357.86 707.85,-1367.71 714.84,-1368"/>
<text text-anchor="start" x="711.5" y="-1379.8" font-family="Times,serif" font-size="14.00">%4</text>
</g>
<!-- node6 -->
<g id="node7" class="node">
<title>node6</title>
<polygon fill="none" stroke="black" points="648,-1145.5 648,-1198.5 845,-1198.5 845,-1145.5 648,-1145.5"/>
<text text-anchor="start" x="656" y="-1183.3" font-family="Times,serif" font-size="14.00">Get %5 (l3)</text>
<text text-anchor="start" x="656" y="-1168.3" font-family="Times,serif" font-size="14.00"> Distinct group=(#0, #1)</text>
<text text-anchor="start" x="656" y="-1153.3" font-family="Times,serif" font-size="14.00"> Negate</text>
</g>
<!-- node5&#45;&gt;node6 -->
<g id="edge8" class="edge">
<title>node5&#45;&gt;node6</title>
<path fill="none" stroke="black" d="M722.96,-1274.31C727.79,-1253.51 733.62,-1228.44 738.26,-1208.45"/>
<polygon fill="black" stroke="black" points="741.72,-1209.03 740.57,-1198.5 734.9,-1207.45 741.72,-1209.03"/>
<text text-anchor="start" x="736.5" y="-1232.8" font-family="Times,serif" font-size="14.00">%5</text>
</g>
<!-- node12 -->
<g id="node13" class="node">
<title>node12</title>
<polygon fill="none" stroke="black" points="556,-772.5 556,-810.5 683,-810.5 683,-772.5 556,-772.5"/>
<text text-anchor="start" x="564" y="-795.3" font-family="Times,serif" font-size="14.00">Let l4 =</text>
<text text-anchor="start" x="564" y="-780.3" font-family="Times,serif" font-size="14.00"> Union %5 %11</text>
</g>
<!-- node5&#45;&gt;node12 -->
<g id="edge21" class="edge">
<title>node5&#45;&gt;node12</title>
<path fill="none" stroke="black" d="M668.43,-1274.5C644.3,-1248.28 619.5,-1211.88 619.5,-1173 619.5,-1173 619.5,-1173 619.5,-880.5 619.5,-860.7 619.5,-838.39 619.5,-821.19"/>
<polygon fill="black" stroke="black" points="623,-820.7 619.5,-810.7 616,-820.7 623,-820.7"/>
<text text-anchor="start" x="619.5" y="-1027.8" font-family="Times,serif" font-size="14.00">%5</text>
</g>
<!-- node8 -->
<g id="node9" class="node">
<title>node8</title>
<polygon fill="none" stroke="black" points="910,-1057.5 910,-1093.5 1023,-1093.5 1023,-1057.5 910,-1057.5"/>
<text text-anchor="start" x="918" y="-1071.8" font-family="Times,serif" font-size="14.00">Union %6 %7</text>
</g>
<!-- node6&#45;&gt;node8 -->
<g id="edge22" class="edge">
<title>node6&#45;&gt;node8</title>
<path fill="none" stroke="black" d="M806.04,-1145.43C840.9,-1130.45 884.39,-1111.77 917.3,-1097.63"/>
<polygon fill="black" stroke="black" points="918.91,-1100.75 926.72,-1093.59 916.15,-1094.32 918.91,-1100.75"/>
<text text-anchor="start" x="883.5" y="-1115.8" font-family="Times,serif" font-size="14.00">%6</text>
</g>
<!-- node7&#45;&gt;node8 -->
<g id="edge1" class="edge">
<title>node7&#45;&gt;node8</title>
<path fill="none" stroke="black" d="M992.17,-1217.26C987.09,-1189.41 977.37,-1136.12 971.46,-1103.69"/>
<polygon fill="black" stroke="black" points="974.85,-1102.77 969.61,-1093.56 967.96,-1104.03 974.85,-1102.77"/>
<text text-anchor="start" x="989.5" y="-1168.3" font-family="Times,serif" font-size="14.00">%7</text>
</g>
<!-- node8&#45;&gt;node9 -->
<g id="edge6" class="edge">
<title>node8&#45;&gt;node9</title>
<path fill="none" stroke="black" d="M950.91,-1057.17C939.89,-1044.92 924.77,-1028.11 911.46,-1013.3"/>
<polygon fill="black" stroke="black" points="913.98,-1010.87 904.69,-1005.78 908.77,-1015.56 913.98,-1010.87"/>
<text text-anchor="start" x="934.5" y="-1027.8" font-family="Times,serif" font-size="14.00">%8</text>
</g>
<!-- node11 -->
<g id="node12" class="node">
<title>node11</title>
<polygon fill="none" stroke="black" points="747,-862.5 747,-900.5 1016,-900.5 1016,-862.5 747,-862.5"/>
<text text-anchor="start" x="755" y="-885.3" font-family="Times,serif" font-size="14.00">Join %9 %10</text>
<text text-anchor="start" x="755" y="-870.3" font-family="Times,serif" font-size="14.00"> implementation = Unimplemented</text>
</g>
<!-- node9&#45;&gt;node11 -->
<g id="edge7" class="edge">
<title>node9&#45;&gt;node11</title>
<path fill="none" stroke="black" d="M881.5,-952.41C881.5,-939.63 881.5,-924.13 881.5,-910.98"/>
<polygon fill="black" stroke="black" points="885,-910.6 881.5,-900.6 878,-910.6 885,-910.6"/>
<text text-anchor="start" x="881.5" y="-922.8" font-family="Times,serif" font-size="14.00">%9</text>
</g>
<!-- node10 -->
<g id="node11" class="node">
<title>node10</title>
<polygon fill="none" stroke="black" points="1034,-961 1034,-997 1193,-997 1193,-961 1034,-961"/>
<text text-anchor="start" x="1042" y="-975.3" font-family="Times,serif" font-size="14.00">Constant (null, null)</text>
</g>
<!-- node10&#45;&gt;node11 -->
<g id="edge25" class="edge">
<title>node10&#45;&gt;node11</title>
<path fill="none" stroke="black" d="M1072.02,-960.93C1033.69,-945.15 976.54,-921.62 934.83,-904.45"/>
<polygon fill="black" stroke="black" points="935.96,-901.13 925.38,-900.56 933.29,-907.6 935.96,-901.13"/>
<text text-anchor="start" x="1004.5" y="-922.8" font-family="Times,serif" font-size="14.00">%10</text>
</g>
<!-- node11&#45;&gt;node12 -->
<g id="edge15" class="edge">
<title>node11&#45;&gt;node12</title>
<path fill="none" stroke="black" d="M827.85,-862.48C785.87,-848.38 727.37,-828.73 683.05,-813.84"/>
<polygon fill="black" stroke="black" points="684.12,-810.51 673.53,-810.65 681.89,-817.15 684.12,-810.51"/>
<text text-anchor="start" x="766.5" y="-832.8" font-family="Times,serif" font-size="14.00">%11</text>
</g>
<!-- node15 -->
<g id="node16" class="node">
<title>node15</title>
<polygon fill="none" stroke="black" points="311,-637.5 311,-720.5 580,-720.5 580,-637.5 311,-637.5"/>
<text text-anchor="start" x="319" y="-705.3" font-family="Times,serif" font-size="14.00">Let l6 =</text>
<text text-anchor="start" x="319" y="-690.3" font-family="Times,serif" font-size="14.00"> Join %12 %14</text>
<text text-anchor="start" x="319" y="-675.3" font-family="Times,serif" font-size="14.00"> implementation = Unimplemented</text>
<text text-anchor="start" x="319" y="-660.3" font-family="Times,serif" font-size="14.00"> Project (#0..#5)</text>
<text text-anchor="start" x="319" y="-645.3" font-family="Times,serif" font-size="14.00"> Filter true</text>
</g>
<!-- node12&#45;&gt;node15 -->
<g id="edge31" class="edge">
<title>node12&#45;&gt;node15</title>
<path fill="none" stroke="black" d="M590.77,-772.25C570.91,-759.64 543.55,-742.27 517.93,-726"/>
<polygon fill="black" stroke="black" points="519.64,-722.94 509.32,-720.53 515.89,-728.85 519.64,-722.94"/>
<text text-anchor="start" x="558.5" y="-742.8" font-family="Times,serif" font-size="14.00">%12</text>
</g>
<!-- node17 -->
<g id="node18" class="node">
<title>node17</title>
<polygon fill="none" stroke="black" points="489,-580.5 489,-618.5 746,-618.5 746,-580.5 489,-580.5"/>
<text text-anchor="start" x="497" y="-603.3" font-family="Times,serif" font-size="14.00">Get %12 (l4)</text>
<text text-anchor="start" x="497" y="-588.3" font-family="Times,serif" font-size="14.00"> Distinct group=(#0, #1, #2, #3)</text>
</g>
<!-- node12&#45;&gt;node17 -->
<g id="edge2" class="edge">
<title>node12&#45;&gt;node17</title>
<path fill="none" stroke="black" d="M619.31,-772.28C618.96,-739.02 618.21,-668.23 617.8,-628.7"/>
<polygon fill="black" stroke="black" points="621.3,-628.63 617.69,-618.66 614.3,-628.7 621.3,-628.63"/>
<text text-anchor="start" x="619.5" y="-742.8" font-family="Times,serif" font-size="14.00">%12</text>
</g>
<!-- node19 -->
<g id="node20" class="node">
<title>node19</title>
<polygon fill="none" stroke="black" points="523.5,-315.5 523.5,-368.5 951.5,-368.5 951.5,-315.5 523.5,-315.5"/>
<text text-anchor="start" x="531.5" y="-353.3" font-family="Times,serif" font-size="14.00">Join %18 %12 (= #0 #4) (= #1 #5) (= #2 #6) (= #3 #7)</text>
<text text-anchor="start" x="531.5" y="-338.3" font-family="Times,serif" font-size="14.00"> implementation = Unimplemented</text>
<text text-anchor="start" x="531.5" y="-323.3" font-family="Times,serif" font-size="14.00"> Project (#0..#3)</text>
</g>
<!-- node12&#45;&gt;node19 -->
<g id="edge28" class="edge">
<title>node12&#45;&gt;node19</title>
<path fill="none" stroke="black" d="M674.81,-772.44C714.68,-755.54 761.5,-725.92 761.5,-680 761.5,-680 761.5,-680 761.5,-437.5 761.5,-417.55 756.41,-395.94 750.92,-378.42"/>
<polygon fill="black" stroke="black" points="754.14,-377.02 747.68,-368.63 747.5,-379.22 754.14,-377.02"/>
<text text-anchor="start" x="761.5" y="-531.3" font-family="Times,serif" font-size="14.00">%12</text>
</g>
<!-- node13 -->
<g id="node14" class="node">
<title>node13</title>
<polygon fill="none" stroke="black" points="188.5,-1515.5 188.5,-1551.5 496.5,-1551.5 496.5,-1515.5 188.5,-1515.5"/>
<text text-anchor="start" x="196.5" y="-1529.8" font-family="Times,serif" font-size="14.00">Get simplify_outer_joins.public.t2 (u120)</text>
</g>
<!-- node13&#45;&gt;node14 -->
<g id="edge10" class="edge">
<title>node13&#45;&gt;node14</title>
<path fill="none" stroke="black" d="M356.62,-1515.43C366.98,-1502.91 381.37,-1485.51 393.97,-1470.28"/>
<polygon fill="black" stroke="black" points="396.68,-1472.49 400.36,-1462.55 391.29,-1468.03 396.68,-1472.49"/>
<text text-anchor="start" x="384.5" y="-1484.8" font-family="Times,serif" font-size="14.00">%13</text>
</g>
<!-- node14&#45;&gt;node15 -->
<g id="edge14" class="edge">
<title>node14&#45;&gt;node15</title>
<path fill="none" stroke="black" d="M427.01,-1409.35C431.63,-1385.54 437.5,-1349.04 437.5,-1317 437.5,-1317 437.5,-1317 437.5,-790.5 437.5,-770.94 438.76,-749.49 440.28,-730.74"/>
<polygon fill="black" stroke="black" points="443.78,-730.88 441.15,-720.62 436.81,-730.29 443.78,-730.88"/>
<text text-anchor="start" x="437.5" y="-1027.8" font-family="Times,serif" font-size="14.00">%14</text>
</g>
<!-- node16 -->
<g id="node17" class="node">
<title>node16</title>
<polygon fill="none" stroke="black" points="348,-508.5 348,-561.5 605,-561.5 605,-508.5 348,-508.5"/>
<text text-anchor="start" x="356" y="-546.3" font-family="Times,serif" font-size="14.00">Get %15 (l6)</text>
<text text-anchor="start" x="356" y="-531.3" font-family="Times,serif" font-size="14.00"> Distinct group=(#0, #1, #2, #3)</text>
<text text-anchor="start" x="356" y="-516.3" font-family="Times,serif" font-size="14.00"> Negate</text>
</g>
<!-- node15&#45;&gt;node16 -->
<g id="edge11" class="edge">
<title>node15&#45;&gt;node16</title>
<path fill="none" stroke="black" d="M441.31,-637.14C440.75,-619.23 441.84,-598.2 447.5,-580 448.48,-576.86 449.75,-573.72 451.23,-570.67"/>
<polygon fill="black" stroke="black" points="454.37,-572.22 456.12,-561.77 448.24,-568.84 454.37,-572.22"/>
<text text-anchor="start" x="447.5" y="-595.8" font-family="Times,serif" font-size="14.00">%15</text>
</g>
<!-- node22 -->
<g id="node23" class="node">
<title>node22</title>
<polygon fill="none" stroke="black" points="0,-120.5 0,-173.5 671,-173.5 671,-120.5 0,-120.5"/>
<text text-anchor="start" x="8" y="-158.3" font-family="Times,serif" font-size="14.00">Let l7 =</text>
<text text-anchor="start" x="8" y="-143.3" font-family="Times,serif" font-size="14.00"> Union %15 %21</text>
<text text-anchor="start" x="8" y="-128.3" font-family="Times,serif" font-size="14.00"> Filter (((((#0 = #2) &amp;&amp; (#3 = #0)) &amp;&amp; (#2 = #1)) &amp;&amp; (#2 &lt; #1)) &amp;&amp; (#3 = i32tof64(5)))</text>
</g>
<!-- node15&#45;&gt;node22 -->
<g id="edge26" class="edge">
<title>node15&#45;&gt;node22</title>
<path fill="none" stroke="black" d="M381.02,-637.46C350.02,-612.58 319.5,-577.53 319.5,-536 319.5,-536 319.5,-536 319.5,-243.5 319.5,-223.54 322.94,-201.56 326.63,-183.72"/>
<polygon fill="black" stroke="black" points="330.09,-184.26 328.81,-173.75 323.26,-182.77 330.09,-184.26"/>
<text text-anchor="start" x="319.5" y="-390.8" font-family="Times,serif" font-size="14.00">%15</text>
</g>
<!-- node18 -->
<g id="node19" class="node">
<title>node18</title>
<polygon fill="none" stroke="black" points="576,-420.5 576,-456.5 707,-456.5 707,-420.5 576,-420.5"/>
<text text-anchor="start" x="584" y="-434.8" font-family="Times,serif" font-size="14.00">Union %16 %17</text>
</g>
<!-- node16&#45;&gt;node18 -->
<g id="edge16" class="edge">
<title>node16&#45;&gt;node18</title>
<path fill="none" stroke="black" d="M521.15,-508.43C546.62,-493.84 578.24,-475.73 602.68,-461.73"/>
<polygon fill="black" stroke="black" points="604.73,-464.59 611.67,-456.59 601.25,-458.52 604.73,-464.59"/>
<text text-anchor="start" x="579.5" y="-478.8" font-family="Times,serif" font-size="14.00">%16</text>
</g>
<!-- node17&#45;&gt;node18 -->
<g id="edge3" class="edge">
<title>node17&#45;&gt;node18</title>
<path fill="none" stroke="black" d="M620.25,-580.26C624.46,-552.41 632.5,-499.12 637.4,-466.69"/>
<polygon fill="black" stroke="black" points="640.89,-466.97 638.92,-456.56 633.97,-465.93 640.89,-466.97"/>
<text text-anchor="start" x="631.5" y="-531.3" font-family="Times,serif" font-size="14.00">%17</text>
</g>
<!-- node18&#45;&gt;node19 -->
<g id="edge5" class="edge">
<title>node18&#45;&gt;node19</title>
<path fill="none" stroke="black" d="M659.11,-420.17C671.67,-407.8 688.94,-390.8 704.08,-375.9"/>
<polygon fill="black" stroke="black" points="706.64,-378.29 711.31,-368.78 701.73,-373.3 706.64,-378.29"/>
<text text-anchor="start" x="692.5" y="-390.8" font-family="Times,serif" font-size="14.00">%18</text>
</g>
<!-- node21 -->
<g id="node22" class="node">
<title>node21</title>
<polygon fill="none" stroke="black" points="348,-225.5 348,-263.5 617,-263.5 617,-225.5 348,-225.5"/>
<text text-anchor="start" x="356" y="-248.3" font-family="Times,serif" font-size="14.00">Join %19 %20</text>
<text text-anchor="start" x="356" y="-233.3" font-family="Times,serif" font-size="14.00"> implementation = Unimplemented</text>
</g>
<!-- node19&#45;&gt;node21 -->
<g id="edge20" class="edge">
<title>node19&#45;&gt;node21</title>
<path fill="none" stroke="black" d="M669.16,-315.41C628.91,-300.33 578.54,-281.47 540.27,-267.14"/>
<polygon fill="black" stroke="black" points="541.41,-263.83 530.82,-263.6 538.96,-270.38 541.41,-263.83"/>
<text text-anchor="start" x="618.5" y="-285.8" font-family="Times,serif" font-size="14.00">%19</text>
</g>
<!-- node20 -->
<g id="node21" class="node">
<title>node20</title>
<polygon fill="none" stroke="black" points="347,-324 347,-360 506,-360 506,-324 347,-324"/>
<text text-anchor="start" x="355" y="-338.3" font-family="Times,serif" font-size="14.00">Constant (null, null)</text>
</g>
<!-- node20&#45;&gt;node21 -->
<g id="edge4" class="edge">
<title>node20&#45;&gt;node21</title>
<path fill="none" stroke="black" d="M436.51,-323.93C444.9,-309.62 457.02,-288.95 466.72,-272.42"/>
<polygon fill="black" stroke="black" points="469.77,-274.12 471.81,-263.73 463.73,-270.58 469.77,-274.12"/>
<text text-anchor="start" x="460.5" y="-285.8" font-family="Times,serif" font-size="14.00">%20</text>
</g>
<!-- node21&#45;&gt;node22 -->
<g id="edge17" class="edge">
<title>node21&#45;&gt;node22</title>
<path fill="none" stroke="black" d="M454.5,-225.31C434.4,-212.25 406.8,-194.32 383.25,-179.02"/>
<polygon fill="black" stroke="black" points="385.07,-176.03 374.77,-173.51 381.25,-181.9 385.07,-176.03"/>
<text text-anchor="start" x="422.5" y="-195.8" font-family="Times,serif" font-size="14.00">%21</text>
</g>
<!-- node23 -->
<g id="node24" class="node">
<title>node23</title>
<polygon fill="none" stroke="black" points="251.5,-0.5 251.5,-68.5 419.5,-68.5 419.5,-0.5 251.5,-0.5"/>
<text text-anchor="start" x="259.5" y="-53.3" font-family="Times,serif" font-size="14.00">Get %22 (l7)</text>
<text text-anchor="start" x="259.5" y="-38.3" font-family="Times,serif" font-size="14.00"> Map &quot;qgm(false)&quot;</text>
<text text-anchor="start" x="259.5" y="-23.3" font-family="Times,serif" font-size="14.00"> Project (#0..#6)</text>
<text text-anchor="start" x="259.5" y="-8.3" font-family="Times,serif" font-size="14.00"> Project (#6, #0..#5)</text>
</g>
<!-- node22&#45;&gt;node23 -->
<g id="edge18" class="edge">
<title>node22&#45;&gt;node23</title>
<path fill="none" stroke="black" d="M335.5,-120.37C335.5,-107.96 335.5,-92.71 335.5,-78.58"/>
<polygon fill="black" stroke="black" points="339,-78.54 335.5,-68.54 332,-78.54 339,-78.54"/>
<text text-anchor="start" x="335.5" y="-90.8" font-family="Times,serif" font-size="14.00">%22</text>
</g>
</g>
</svg>
