<?xml version="1.0" encoding="UTF-8" standalone="no"?>
<!DOCTYPE svg PUBLIC "-//W3C//DTD SVG 1.1//EN"
 "http://www.w3.org/Graphics/SVG/1.1/DTD/svg11.dtd">
<!-- Generated by graphviz version 2.43.0 (0)
 -->
<!-- Title: G Pages: 1 -->
<svg width="833pt" height="253pt"
 viewBox="0.00 0.00 832.50 253.00" xmlns="http://www.w3.org/2000/svg" xmlns:xlink="http://www.w3.org/1999/xlink">
<g id="graph0" class="graph" transform="scale(1 1) rotate(0) translate(4 249)">
<title>G</title>
<polygon fill="white" stroke="transparent" points="-4,4 -4,-249 828.5,-249 828.5,4 -4,4"/>
<!-- node0 -->
<g id="node1" class="node">
<title>node0</title>
<polygon fill="none" stroke="black" points="0,-208.5 0,-244.5 308,-244.5 308,-208.5 0,-208.5"/>
<text text-anchor="start" x="8" y="-222.8" font-family="Times,serif" font-size="14.00">Get simplify_outer_joins.public.t1 (u118)</text>
</g>
<!-- node2 -->
<g id="node3" class="node">
<title>node2</title>
<polygon fill="none" stroke="black" points="146,-120.5 146,-156.5 488,-156.5 488,-120.5 146,-120.5"/>
<text text-anchor="start" x="154" y="-134.8" font-family="Times,serif" font-size="14.00">LeftOuterJoin %0 %1 on (true &amp;&amp; (#0 = #2))</text>
</g>
<!-- node0&#45;&gt;node2 -->
<g id="edge2" class="edge">
<title>node0&#45;&gt;node2</title>
<path fill="none" stroke="black" d="M186.59,-208.3C212.22,-194.78 248.08,-175.86 275.71,-161.28"/>
<polygon fill="black" stroke="black" points="277.53,-164.28 284.74,-156.52 274.26,-158.09 277.53,-164.28"/>
<text text-anchor="start" x="246" y="-178.8" font-family="Times,serif" font-size="14.00">%0</text>
</g>
<!-- node1 -->
<g id="node2" class="node">
<title>node1</title>
<polygon fill="none" stroke="black" points="326,-208.5 326,-244.5 634,-244.5 634,-208.5 326,-208.5"/>
<text text-anchor="start" x="334" y="-222.8" font-family="Times,serif" font-size="14.00">Get simplify_outer_joins.public.t1 (u118)</text>
</g>
<!-- node1&#45;&gt;node2 -->
<g id="edge3" class="edge">
<title>node1&#45;&gt;node2</title>
<path fill="none" stroke="black" d="M447.41,-208.3C421.78,-194.78 385.92,-175.86 358.29,-161.28"/>
<polygon fill="black" stroke="black" points="359.74,-158.09 349.26,-156.52 356.47,-164.28 359.74,-158.09"/>
<text text-anchor="start" x="409" y="-178.8" font-family="Times,serif" font-size="14.00">%1</text>
</g>
<!-- node4 -->
<g id="node5" class="node">
<title>node4</title>
<polygon fill="none" stroke="black" points="153.5,-0.5 153.5,-68.5 824.5,-68.5 824.5,-0.5 153.5,-0.5"/>
<text text-anchor="start" x="161.5" y="-53.3" font-family="Times,serif" font-size="14.00">LeftOuterJoin %2 %3 on true</text>
<text text-anchor="start" x="161.5" y="-38.3" font-family="Times,serif" font-size="14.00"> Filter (((((#0 = #2) &amp;&amp; (#3 = #0)) &amp;&amp; (#2 = #1)) &amp;&amp; (#2 &lt; #1)) &amp;&amp; (#3 = i32tof64(5)))</text>
<text text-anchor="start" x="161.5" y="-23.3" font-family="Times,serif" font-size="14.00"> Map &quot;qgm(false)&quot;</text>
<text text-anchor="start" x="161.5" y="-8.3" font-family="Times,serif" font-size="14.00"> Project (#6, #0..#5)</text>
</g>
<!-- node2&#45;&gt;node4 -->
<g id="edge1" class="edge">
<title>node2&#45;&gt;node4</title>
<path fill="none" stroke="black" d="M345.79,-120.43C367.28,-107.69 397.48,-89.77 424.62,-73.68"/>
<polygon fill="black" stroke="black" points="426.49,-76.64 433.31,-68.53 422.92,-70.62 426.49,-76.64"/>
<text text-anchor="start" x="398" y="-90.8" font-family="Times,serif" font-size="14.00">%2</text>
</g>
<!-- node3 -->
<g id="node4" class="node">
<title>node3</title>
<polygon fill="none" stroke="black" points="506,-120.5 506,-156.5 814,-156.5 814,-120.5 506,-120.5"/>
<text text-anchor="start" x="514" y="-134.8" font-family="Times,serif" font-size="14.00">Get simplify_outer_joins.public.t2 (u120)</text>
</g>
<!-- node3&#45;&gt;node4 -->
<g id="edge4" class="edge">
<title>node3&#45;&gt;node4</title>
<path fill="none" stroke="black" d="M631.38,-120.43C610.02,-107.69 579.98,-89.77 553.01,-73.68"/>
<polygon fill="black" stroke="black" points="554.75,-70.64 544.37,-68.53 551.16,-76.66 554.75,-70.64"/>
<text text-anchor="start" x="599" y="-90.8" font-family="Times,serif" font-size="14.00">%3</text>
</g>
</g>
</svg>
