<?xml version="1.0" encoding="UTF-8" standalone="no"?>
<!DOCTYPE svg PUBLIC "-//W3C//DTD SVG 1.1//EN"
 "http://www.w3.org/Graphics/SVG/1.1/DTD/svg11.dtd">
<!-- Generated by graphviz version 2.43.0 (0)
 -->
<!-- Title: G Pages: 1 -->
<svg width="2341pt" height="2525pt"
 viewBox="0.00 0.00 2340.50 2525.00" xmlns="http://www.w3.org/2000/svg" xmlns:xlink="http://www.w3.org/1999/xlink">
<g id="graph0" class="graph" transform="scale(1 1) rotate(0) translate(4 2521)">
<title>G</title>
<polygon fill="white" stroke="transparent" points="-4,4 -4,-2521 2336.5,-2521 2336.5,4 -4,4"/>
<!-- node0 -->
<g id="node1" class="node">
<title>node0</title>
<polygon fill="none" stroke="black" points="1038.5,-2448.5 1038.5,-2516.5 1139.5,-2516.5 1139.5,-2448.5 1038.5,-2448.5"/>
<text text-anchor="start" x="1046.5" y="-2501.3" font-family="Times,serif" font-size="14.00">Let l0 =</text>
<text text-anchor="start" x="1046.5" y="-2486.3" font-family="Times,serif" font-size="14.00"> Constant ()</text>
<text text-anchor="start" x="1046.5" y="-2471.3" font-family="Times,serif" font-size="14.00"> types = ()</text>
<text text-anchor="start" x="1046.5" y="-2456.3" font-family="Times,serif" font-size="14.00"> keys = (())</text>
</g>
<!-- node2 -->
<g id="node3" class="node">
<title>node2</title>
<polygon fill="none" stroke="black" points="1490,-2313.5 1490,-2396.5 1834,-2396.5 1834,-2313.5 1490,-2313.5"/>
<text text-anchor="start" x="1498" y="-2381.3" font-family="Times,serif" font-size="14.00">Let l1 =</text>
<text text-anchor="start" x="1498" y="-2366.3" font-family="Times,serif" font-size="14.00"> Join %0 %1</text>
<text text-anchor="start" x="1498" y="-2351.3" font-family="Times,serif" font-size="14.00"> implementation = Unimplemented</text>
<text text-anchor="start" x="1498" y="-2336.3" font-family="Times,serif" font-size="14.00"> types = (double precision?, double precision)</text>
<text text-anchor="start" x="1498" y="-2321.3" font-family="Times,serif" font-size="14.00"> keys = ()</text>
</g>
<!-- node0&#45;&gt;node2 -->
<g id="edge23" class="edge">
<title>node0&#45;&gt;node2</title>
<path fill="none" stroke="black" d="M1139.6,-2452C1142.74,-2450.56 1145.89,-2449.21 1149,-2448 1285.13,-2395.02 1331.57,-2419.36 1479.74,-2397.11"/>
<polygon fill="black" stroke="black" points="1480.31,-2400.57 1489.65,-2395.58 1479.24,-2393.65 1480.31,-2400.57"/>
<text text-anchor="start" x="1267" y="-2418.8" font-family="Times,serif" font-size="14.00">%0</text>
</g>
<!-- node4 -->
<g id="node5" class="node">
<title>node4</title>
<polygon fill="none" stroke="black" points="1128,-2313.5 1128,-2396.5 1472,-2396.5 1472,-2313.5 1128,-2313.5"/>
<text text-anchor="start" x="1136" y="-2381.3" font-family="Times,serif" font-size="14.00">Let l2 =</text>
<text text-anchor="start" x="1136" y="-2366.3" font-family="Times,serif" font-size="14.00"> Join %0 %3</text>
<text text-anchor="start" x="1136" y="-2351.3" font-family="Times,serif" font-size="14.00"> implementation = Unimplemented</text>
<text text-anchor="start" x="1136" y="-2336.3" font-family="Times,serif" font-size="14.00"> types = (double precision?, double precision)</text>
<text text-anchor="start" x="1136" y="-2321.3" font-family="Times,serif" font-size="14.00"> keys = ()</text>
</g>
<!-- node0&#45;&gt;node4 -->
<g id="edge19" class="edge">
<title>node0&#45;&gt;node4</title>
<path fill="none" stroke="black" d="M1122.4,-2448.32C1135.06,-2436.84 1150.05,-2424.49 1165,-2415 1172.61,-2410.17 1180.69,-2405.55 1188.96,-2401.18"/>
<polygon fill="black" stroke="black" points="1190.7,-2404.22 1197.99,-2396.53 1187.5,-2397.99 1190.7,-2404.22"/>
<text text-anchor="start" x="1165" y="-2418.8" font-family="Times,serif" font-size="14.00">%0</text>
</g>
<!-- node14 -->
<g id="node15" class="node">
<title>node14</title>
<polygon fill="none" stroke="black" points="736,-2313.5 736,-2396.5 1080,-2396.5 1080,-2313.5 736,-2313.5"/>
<text text-anchor="start" x="744" y="-2381.3" font-family="Times,serif" font-size="14.00">Let l5 =</text>
<text text-anchor="start" x="744" y="-2366.3" font-family="Times,serif" font-size="14.00"> Join %0 %13</text>
<text text-anchor="start" x="744" y="-2351.3" font-family="Times,serif" font-size="14.00"> implementation = Unimplemented</text>
<text text-anchor="start" x="744" y="-2336.3" font-family="Times,serif" font-size="14.00"> types = (double precision?, double precision)</text>
<text text-anchor="start" x="744" y="-2321.3" font-family="Times,serif" font-size="14.00"> keys = ()</text>
</g>
<!-- node0&#45;&gt;node14 -->
<g id="edge12" class="edge">
<title>node0&#45;&gt;node14</title>
<path fill="none" stroke="black" d="M1040.97,-2448.2C1020.73,-2434.16 996.81,-2417.58 974.89,-2402.38"/>
<polygon fill="black" stroke="black" points="976.81,-2399.45 966.6,-2396.63 972.82,-2405.2 976.81,-2399.45"/>
<text text-anchor="start" x="1015" y="-2418.8" font-family="Times,serif" font-size="14.00">%0</text>
</g>
<!-- node1 -->
<g id="node2" class="node">
<title>node1</title>
<polygon fill="none" stroke="black" points="1520,-2456 1520,-2509 1864,-2509 1864,-2456 1520,-2456"/>
<text text-anchor="start" x="1528" y="-2493.8" font-family="Times,serif" font-size="14.00">Get simplify_outer_joins.public.t1 (u118)</text>
<text text-anchor="start" x="1528" y="-2478.8" font-family="Times,serif" font-size="14.00"> types = (double precision?, double precision)</text>
<text text-anchor="start" x="1528" y="-2463.8" font-family="Times,serif" font-size="14.00"> keys = ()</text>
</g>
<!-- node1&#45;&gt;node2 -->
<g id="edge27" class="edge">
<title>node1&#45;&gt;node2</title>
<path fill="none" stroke="black" d="M1685.86,-2455.8C1682.47,-2441.65 1678.16,-2423.59 1674.13,-2406.73"/>
<polygon fill="black" stroke="black" points="1677.53,-2405.89 1671.8,-2396.98 1670.72,-2407.52 1677.53,-2405.89"/>
<text text-anchor="start" x="1680" y="-2418.8" font-family="Times,serif" font-size="14.00">%1</text>
</g>
<!-- node5 -->
<g id="node6" class="node">
<title>node5</title>
<polygon fill="none" stroke="black" points="1005.5,-2088.5 1005.5,-2261.5 1610.5,-2261.5 1610.5,-2088.5 1005.5,-2088.5"/>
<text text-anchor="start" x="1013.5" y="-2246.3" font-family="Times,serif" font-size="14.00">Let l3 =</text>
<text text-anchor="start" x="1013.5" y="-2231.3" font-family="Times,serif" font-size="14.00"> Join %2 %4</text>
<text text-anchor="start" x="1013.5" y="-2216.3" font-family="Times,serif" font-size="14.00"> implementation = Unimplemented</text>
<text text-anchor="start" x="1013.5" y="-2201.3" font-family="Times,serif" font-size="14.00"> types = (double precision?, double precision, double precision?, double precision)</text>
<text text-anchor="start" x="1013.5" y="-2186.3" font-family="Times,serif" font-size="14.00"> keys = ()</text>
<text text-anchor="start" x="1013.5" y="-2171.3" font-family="Times,serif" font-size="14.00"> Project (#0..#3)</text>
<text text-anchor="start" x="1013.5" y="-2156.3" font-family="Times,serif" font-size="14.00"> types = (double precision?, double precision, double precision?, double precision)</text>
<text text-anchor="start" x="1013.5" y="-2141.3" font-family="Times,serif" font-size="14.00"> keys = ()</text>
<text text-anchor="start" x="1013.5" y="-2126.3" font-family="Times,serif" font-size="14.00"> Filter (true &amp;&amp; (#0 = #2))</text>
<text text-anchor="start" x="1013.5" y="-2111.3" font-family="Times,serif" font-size="14.00"> types = (double precision?, double precision, double precision?, double precision)</text>
<text text-anchor="start" x="1013.5" y="-2096.3" font-family="Times,serif" font-size="14.00"> keys = ()</text>
</g>
<!-- node2&#45;&gt;node5 -->
<g id="edge9" class="edge">
<title>node2&#45;&gt;node5</title>
<path fill="none" stroke="black" d="M1581.23,-2313.39C1553.16,-2299.27 1520.45,-2282.82 1487.61,-2266.31"/>
<polygon fill="black" stroke="black" points="1488.86,-2263.02 1478.35,-2261.66 1485.72,-2269.28 1488.86,-2263.02"/>
<text text-anchor="start" x="1538" y="-2283.8" font-family="Times,serif" font-size="14.00">%2</text>
</g>
<!-- node7 -->
<g id="node8" class="node">
<title>node7</title>
<polygon fill="none" stroke="black" points="1679,-1971.5 1679,-2069.5 2023,-2069.5 2023,-1971.5 1679,-1971.5"/>
<text text-anchor="start" x="1687" y="-2054.3" font-family="Times,serif" font-size="14.00">Get %2 (l1)</text>
<text text-anchor="start" x="1687" y="-2039.3" font-family="Times,serif" font-size="14.00"> types = (double precision?, double precision)</text>
<text text-anchor="start" x="1687" y="-2024.3" font-family="Times,serif" font-size="14.00"> keys = ()</text>
<text text-anchor="start" x="1687" y="-2009.3" font-family="Times,serif" font-size="14.00"> Distinct group=(#0, #1)</text>
<text text-anchor="start" x="1687" y="-1994.3" font-family="Times,serif" font-size="14.00"> types = (double precision?, double precision)</text>
<text text-anchor="start" x="1687" y="-1979.3" font-family="Times,serif" font-size="14.00"> keys = ((#0, #1))</text>
</g>
<!-- node2&#45;&gt;node7 -->
<g id="edge29" class="edge">
<title>node2&#45;&gt;node7</title>
<path fill="none" stroke="black" d="M1685.18,-2313.23C1718.66,-2254.31 1780.72,-2145.13 1818.69,-2078.34"/>
<polygon fill="black" stroke="black" points="1821.76,-2080.03 1823.66,-2069.6 1815.67,-2076.57 1821.76,-2080.03"/>
<text text-anchor="start" x="1702" y="-2283.8" font-family="Times,serif" font-size="14.00">%2</text>
</g>
<!-- node9 -->
<g id="node10" class="node">
<title>node9</title>
<polygon fill="none" stroke="black" points="1358.5,-1539.5 1358.5,-1652.5 1963.5,-1652.5 1963.5,-1539.5 1358.5,-1539.5"/>
<text text-anchor="start" x="1366.5" y="-1637.3" font-family="Times,serif" font-size="14.00">Join %8 %2 (= #0 #2) (= #1 #3)</text>
<text text-anchor="start" x="1366.5" y="-1622.3" font-family="Times,serif" font-size="14.00"> implementation = Unimplemented</text>
<text text-anchor="start" x="1366.5" y="-1607.3" font-family="Times,serif" font-size="14.00"> types = (double precision?, double precision, double precision?, double precision)</text>
<text text-anchor="start" x="1366.5" y="-1592.3" font-family="Times,serif" font-size="14.00"> keys = ()</text>
<text text-anchor="start" x="1366.5" y="-1577.3" font-family="Times,serif" font-size="14.00"> Project (#0, #1)</text>
<text text-anchor="start" x="1366.5" y="-1562.3" font-family="Times,serif" font-size="14.00"> types = (double precision?, double precision)</text>
<text text-anchor="start" x="1366.5" y="-1547.3" font-family="Times,serif" font-size="14.00"> keys = ()</text>
</g>
<!-- node2&#45;&gt;node9 -->
<g id="edge30" class="edge">
<title>node2&#45;&gt;node9</title>
<path fill="none" stroke="black" d="M1661.64,-2313.35C1661.35,-2277.27 1661,-2223.13 1661,-2176 1661,-2176 1661,-2176 1661,-1730 1661,-1708.17 1661,-1684.33 1661,-1662.94"/>
<polygon fill="black" stroke="black" points="1664.5,-1662.65 1661,-1652.65 1657.5,-1662.65 1664.5,-1662.65"/>
<text text-anchor="start" x="1661" y="-1877.3" font-family="Times,serif" font-size="14.00">%2</text>
</g>
<!-- node3 -->
<g id="node4" class="node">
<title>node3</title>
<polygon fill="none" stroke="black" points="1158,-2456 1158,-2509 1502,-2509 1502,-2456 1158,-2456"/>
<text text-anchor="start" x="1166" y="-2493.8" font-family="Times,serif" font-size="14.00">Get simplify_outer_joins.public.t1 (u118)</text>
<text text-anchor="start" x="1166" y="-2478.8" font-family="Times,serif" font-size="14.00"> types = (double precision?, double precision)</text>
<text text-anchor="start" x="1166" y="-2463.8" font-family="Times,serif" font-size="14.00"> keys = ()</text>
</g>
<!-- node3&#45;&gt;node4 -->
<g id="edge24" class="edge">
<title>node3&#45;&gt;node4</title>
<path fill="none" stroke="black" d="M1323.86,-2455.8C1320.47,-2441.65 1316.16,-2423.59 1312.13,-2406.73"/>
<polygon fill="black" stroke="black" points="1315.53,-2405.89 1309.8,-2396.98 1308.72,-2407.52 1315.53,-2405.89"/>
<text text-anchor="start" x="1318" y="-2418.8" font-family="Times,serif" font-size="14.00">%3</text>
</g>
<!-- node4&#45;&gt;node5 -->
<g id="edge13" class="edge">
<title>node4&#45;&gt;node5</title>
<path fill="none" stroke="black" d="M1301.84,-2313.16C1302.4,-2300.65 1303.04,-2286.33 1303.7,-2271.76"/>
<polygon fill="black" stroke="black" points="1307.2,-2271.8 1304.15,-2261.65 1300.2,-2271.49 1307.2,-2271.8"/>
<text text-anchor="start" x="1304" y="-2283.8" font-family="Times,serif" font-size="14.00">%4</text>
</g>
<!-- node6 -->
<g id="node7" class="node">
<title>node6</title>
<polygon fill="none" stroke="black" points="1020.5,-1809.5 1020.5,-1952.5 1625.5,-1952.5 1625.5,-1809.5 1020.5,-1809.5"/>
<text text-anchor="start" x="1028.5" y="-1937.3" font-family="Times,serif" font-size="14.00">Get %5 (l3)</text>
<text text-anchor="start" x="1028.5" y="-1922.3" font-family="Times,serif" font-size="14.00"> types = (double precision?, double precision, double precision?, double precision)</text>
<text text-anchor="start" x="1028.5" y="-1907.3" font-family="Times,serif" font-size="14.00"> keys = ()</text>
<text text-anchor="start" x="1028.5" y="-1892.3" font-family="Times,serif" font-size="14.00"> Distinct group=(#0, #1)</text>
<text text-anchor="start" x="1028.5" y="-1877.3" font-family="Times,serif" font-size="14.00"> types = (double precision?, double precision)</text>
<text text-anchor="start" x="1028.5" y="-1862.3" font-family="Times,serif" font-size="14.00"> keys = ((#0, #1))</text>
<text text-anchor="start" x="1028.5" y="-1847.3" font-family="Times,serif" font-size="14.00"> Negate</text>
<text text-anchor="start" x="1028.5" y="-1832.3" font-family="Times,serif" font-size="14.00"> types = (double precision?, double precision)</text>
<text text-anchor="start" x="1028.5" y="-1817.3" font-family="Times,serif" font-size="14.00"> keys = ()</text>
</g>
<!-- node5&#45;&gt;node6 -->
<g id="edge8" class="edge">
<title>node5&#45;&gt;node6</title>
<path fill="none" stroke="black" d="M1312.4,-2088.36C1314.43,-2048.82 1316.83,-2002.1 1318.83,-1963.12"/>
<polygon fill="black" stroke="black" points="1322.34,-1963.04 1319.36,-1952.87 1315.35,-1962.68 1322.34,-1963.04"/>
<text text-anchor="start" x="1319" y="-2016.8" font-family="Times,serif" font-size="14.00">%5</text>
</g>
<!-- node12 -->
<g id="node13" class="node">
<title>node12</title>
<polygon fill="none" stroke="black" points="1071,-1299.5 1071,-1367.5 1683,-1367.5 1683,-1299.5 1071,-1299.5"/>
<text text-anchor="start" x="1079" y="-1352.3" font-family="Times,serif" font-size="14.00">Let l4 =</text>
<text text-anchor="start" x="1079" y="-1337.3" font-family="Times,serif" font-size="14.00"> Union %5 %11</text>
<text text-anchor="start" x="1079" y="-1322.3" font-family="Times,serif" font-size="14.00"> types = (double precision?, double precision, double precision?, double precision?)</text>
<text text-anchor="start" x="1079" y="-1307.3" font-family="Times,serif" font-size="14.00"> keys = ()</text>
</g>
<!-- node5&#45;&gt;node12 -->
<g id="edge21" class="edge">
<title>node5&#45;&gt;node12</title>
<path fill="none" stroke="black" d="M1133,-2088.25C1060.49,-2039.49 993,-1970.37 993,-1882 993,-1882 993,-1882 993,-1452.5 993,-1415.13 1060.29,-1388.37 1138.54,-1369.88"/>
<polygon fill="black" stroke="black" points="1139.68,-1373.21 1148.63,-1367.56 1138.1,-1366.39 1139.68,-1373.21"/>
<text text-anchor="start" x="993" y="-1674.8" font-family="Times,serif" font-size="14.00">%5</text>
</g>
<!-- node8 -->
<g id="node9" class="node">
<title>node8</title>
<polygon fill="none" stroke="black" points="1689,-1704.5 1689,-1757.5 2033,-1757.5 2033,-1704.5 1689,-1704.5"/>
<text text-anchor="start" x="1697" y="-1742.3" font-family="Times,serif" font-size="14.00">Union %6 %7</text>
<text text-anchor="start" x="1697" y="-1727.3" font-family="Times,serif" font-size="14.00"> types = (double precision?, double precision)</text>
<text text-anchor="start" x="1697" y="-1712.3" font-family="Times,serif" font-size="14.00"> keys = ()</text>
</g>
<!-- node6&#45;&gt;node8 -->
<g id="edge22" class="edge">
<title>node6&#45;&gt;node8</title>
<path fill="none" stroke="black" d="M1579.39,-1809.47C1642.83,-1792.02 1707.2,-1774.31 1758.36,-1760.24"/>
<polygon fill="black" stroke="black" points="1759.37,-1763.59 1768.08,-1757.56 1757.51,-1756.84 1759.37,-1763.59"/>
<text text-anchor="start" x="1687" y="-1779.8" font-family="Times,serif" font-size="14.00">%6</text>
</g>
<!-- node7&#45;&gt;node8 -->
<g id="edge1" class="edge">
<title>node7&#45;&gt;node8</title>
<path fill="none" stroke="black" d="M1852.67,-1971.38C1854.67,-1913.92 1857.97,-1819.16 1859.76,-1767.79"/>
<polygon fill="black" stroke="black" points="1863.26,-1767.63 1860.11,-1757.52 1856.27,-1767.39 1863.26,-1767.63"/>
<text text-anchor="start" x="1858" y="-1877.3" font-family="Times,serif" font-size="14.00">%7</text>
</g>
<!-- node8&#45;&gt;node9 -->
<g id="edge6" class="edge">
<title>node8&#45;&gt;node9</title>
<path fill="none" stroke="black" d="M1822.44,-1704.36C1802.64,-1691.19 1777.59,-1674.53 1753.17,-1658.29"/>
<polygon fill="black" stroke="black" points="1754.83,-1655.2 1744.57,-1652.57 1750.96,-1661.03 1754.83,-1655.2"/>
<text text-anchor="start" x="1790" y="-1674.8" font-family="Times,serif" font-size="14.00">%8</text>
</g>
<!-- node11 -->
<g id="node12" class="node">
<title>node11</title>
<polygon fill="none" stroke="black" points="1355,-1419.5 1355,-1487.5 1967,-1487.5 1967,-1419.5 1355,-1419.5"/>
<text text-anchor="start" x="1363" y="-1472.3" font-family="Times,serif" font-size="14.00">Join %9 %10</text>
<text text-anchor="start" x="1363" y="-1457.3" font-family="Times,serif" font-size="14.00"> implementation = Unimplemented</text>
<text text-anchor="start" x="1363" y="-1442.3" font-family="Times,serif" font-size="14.00"> types = (double precision?, double precision, double precision?, double precision?)</text>
<text text-anchor="start" x="1363" y="-1427.3" font-family="Times,serif" font-size="14.00"> keys = ()</text>
</g>
<!-- node9&#45;&gt;node11 -->
<g id="edge7" class="edge">
<title>node9&#45;&gt;node11</title>
<path fill="none" stroke="black" d="M1661,-1539.47C1661,-1525.67 1661,-1511.08 1661,-1497.95"/>
<polygon fill="black" stroke="black" points="1664.5,-1497.79 1661,-1487.79 1657.5,-1497.79 1664.5,-1497.79"/>
<text text-anchor="start" x="1661" y="-1509.8" font-family="Times,serif" font-size="14.00">%9</text>
</g>
<!-- node10 -->
<g id="node11" class="node">
<title>node10</title>
<polygon fill="none" stroke="black" points="1981.5,-1569.5 1981.5,-1622.5 2332.5,-1622.5 2332.5,-1569.5 1981.5,-1569.5"/>
<text text-anchor="start" x="1989.5" y="-1607.3" font-family="Times,serif" font-size="14.00">Constant (null, null)</text>
<text text-anchor="start" x="1989.5" y="-1592.3" font-family="Times,serif" font-size="14.00"> types = (double precision?, double precision?)</text>
<text text-anchor="start" x="1989.5" y="-1577.3" font-family="Times,serif" font-size="14.00"> keys = (())</text>
</g>
<!-- node10&#45;&gt;node11 -->
<g id="edge25" class="edge">
<title>node10&#45;&gt;node11</title>
<path fill="none" stroke="black" d="M2074.27,-1569.4C2042.37,-1559.68 2005.54,-1548.63 1972,-1539 1914.29,-1522.43 1850.32,-1504.9 1795.47,-1490.14"/>
<polygon fill="black" stroke="black" points="1796.26,-1486.72 1785.7,-1487.51 1794.45,-1493.48 1796.26,-1486.72"/>
<text text-anchor="start" x="1904" y="-1509.8" font-family="Times,serif" font-size="14.00">%10</text>
</g>
<!-- node11&#45;&gt;node12 -->
<g id="edge15" class="edge">
<title>node11&#45;&gt;node12</title>
<path fill="none" stroke="black" d="M1581.51,-1419.47C1545.51,-1404.51 1502.81,-1386.77 1465.76,-1371.38"/>
<polygon fill="black" stroke="black" points="1467.05,-1368.12 1456.47,-1367.52 1464.36,-1374.59 1467.05,-1368.12"/>
<text text-anchor="start" x="1537" y="-1389.8" font-family="Times,serif" font-size="14.00">%11</text>
</g>
<!-- node15 -->
<g id="node16" class="node">
<title>node15</title>
<polygon fill="none" stroke="black" points="471.5,-1074.5 471.5,-1247.5 1344.5,-1247.5 1344.5,-1074.5 471.5,-1074.5"/>
<text text-anchor="start" x="479.5" y="-1232.3" font-family="Times,serif" font-size="14.00">Let l6 =</text>
<text text-anchor="start" x="479.5" y="-1217.3" font-family="Times,serif" font-size="14.00"> Join %12 %14</text>
<text text-anchor="start" x="479.5" y="-1202.3" font-family="Times,serif" font-size="14.00"> implementation = Unimplemented</text>
<text text-anchor="start" x="479.5" y="-1187.3" font-family="Times,serif" font-size="14.00"> types = (double precision?, double precision, double precision?, double precision?, double precision?, double precision)</text>
<text text-anchor="start" x="479.5" y="-1172.3" font-family="Times,serif" font-size="14.00"> keys = ()</text>
<text text-anchor="start" x="479.5" y="-1157.3" font-family="Times,serif" font-size="14.00"> Project (#0..#5)</text>
<text text-anchor="start" x="479.5" y="-1142.3" font-family="Times,serif" font-size="14.00"> types = (double precision?, double precision, double precision?, double precision?, double precision?, double precision)</text>
<text text-anchor="start" x="479.5" y="-1127.3" font-family="Times,serif" font-size="14.00"> keys = ()</text>
<text text-anchor="start" x="479.5" y="-1112.3" font-family="Times,serif" font-size="14.00"> Filter true</text>
<text text-anchor="start" x="479.5" y="-1097.3" font-family="Times,serif" font-size="14.00"> types = (double precision?, double precision, double precision?, double precision?, double precision?, double precision)</text>
<text text-anchor="start" x="479.5" y="-1082.3" font-family="Times,serif" font-size="14.00"> keys = ()</text>
</g>
<!-- node12&#45;&gt;node15 -->
<g id="edge31" class="edge">
<title>node12&#45;&gt;node15</title>
<path fill="none" stroke="black" d="M1286.02,-1299.42C1247.43,-1285.4 1200.43,-1268.31 1152.85,-1251.01"/>
<polygon fill="black" stroke="black" points="1153.92,-1247.68 1143.33,-1247.55 1151.53,-1254.26 1153.92,-1247.68"/>
<text text-anchor="start" x="1226" y="-1269.8" font-family="Times,serif" font-size="14.00">%12</text>
</g>
<!-- node17 -->
<g id="node18" class="node">
<title>node17</title>
<polygon fill="none" stroke="black" points="1071,-957.5 1071,-1055.5 1683,-1055.5 1683,-957.5 1071,-957.5"/>
<text text-anchor="start" x="1079" y="-1040.3" font-family="Times,serif" font-size="14.00">Get %12 (l4)</text>
<text text-anchor="start" x="1079" y="-1025.3" font-family="Times,serif" font-size="14.00"> types = (double precision?, double precision, double precision?, double precision?)</text>
<text text-anchor="start" x="1079" y="-1010.3" font-family="Times,serif" font-size="14.00"> keys = ()</text>
<text text-anchor="start" x="1079" y="-995.3" font-family="Times,serif" font-size="14.00"> Distinct group=(#0, #1, #2, #3)</text>
<text text-anchor="start" x="1079" y="-980.3" font-family="Times,serif" font-size="14.00"> types = (double precision?, double precision, double precision?, double precision?)</text>
<text text-anchor="start" x="1079" y="-965.3" font-family="Times,serif" font-size="14.00"> keys = ((#0..#3))</text>
</g>
<!-- node12&#45;&gt;node17 -->
<g id="edge2" class="edge">
<title>node12&#45;&gt;node17</title>
<path fill="none" stroke="black" d="M1377,-1299.25C1377,-1244.31 1377,-1133.92 1377,-1065.79"/>
<polygon fill="black" stroke="black" points="1380.5,-1065.65 1377,-1055.65 1373.5,-1065.65 1380.5,-1065.65"/>
<text text-anchor="start" x="1377" y="-1269.8" font-family="Times,serif" font-size="14.00">%12</text>
</g>
<!-- node19 -->
<g id="node20" class="node">
<title>node19</title>
<polygon fill="none" stroke="black" points="1021,-525.5 1021,-638.5 2163,-638.5 2163,-525.5 1021,-525.5"/>
<text text-anchor="start" x="1029" y="-623.3" font-family="Times,serif" font-size="14.00">Join %18 %12 (= #0 #4) (= #1 #5) (= #2 #6) (= #3 #7)</text>
<text text-anchor="start" x="1029" y="-608.3" font-family="Times,serif" font-size="14.00"> implementation = Unimplemented</text>
<text text-anchor="start" x="1029" y="-593.3" font-family="Times,serif" font-size="14.00"> types = (double precision?, double precision, double precision?, double precision?, double precision?, double precision, double precision?, double precision?)</text>
<text text-anchor="start" x="1029" y="-578.3" font-family="Times,serif" font-size="14.00"> keys = ()</text>
<text text-anchor="start" x="1029" y="-563.3" font-family="Times,serif" font-size="14.00"> Project (#0..#3)</text>
<text text-anchor="start" x="1029" y="-548.3" font-family="Times,serif" font-size="14.00"> types = (double precision?, double precision, double precision?, double precision?)</text>
<text text-anchor="start" x="1029" y="-533.3" font-family="Times,serif" font-size="14.00"> keys = ()</text>
</g>
<!-- node12&#45;&gt;node19 -->
<g id="edge28" class="edge">
<title>node12&#45;&gt;node19</title>
<path fill="none" stroke="black" d="M1564.66,-1299.4C1634.9,-1275.25 1698,-1233.62 1698,-1162 1698,-1162 1698,-1162 1698,-716 1698,-690.19 1685.65,-666.51 1669.37,-646.5"/>
<polygon fill="black" stroke="black" points="1671.87,-644.04 1662.7,-638.73 1666.56,-648.6 1671.87,-644.04"/>
<text text-anchor="start" x="1698" y="-863.3" font-family="Times,serif" font-size="14.00">%12</text>
</g>
<!-- node13 -->
<g id="node14" class="node">
<title>node13</title>
<polygon fill="none" stroke="black" points="676,-2456 676,-2509 1020,-2509 1020,-2456 676,-2456"/>
<text text-anchor="start" x="684" y="-2493.8" font-family="Times,serif" font-size="14.00">Get simplify_outer_joins.public.t2 (u120)</text>
<text text-anchor="start" x="684" y="-2478.8" font-family="Times,serif" font-size="14.00"> types = (double precision?, double precision)</text>
<text text-anchor="start" x="684" y="-2463.8" font-family="Times,serif" font-size="14.00"> keys = ()</text>
</g>
<!-- node13&#45;&gt;node14 -->
<g id="edge10" class="edge">
<title>node13&#45;&gt;node14</title>
<path fill="none" stroke="black" d="M860.29,-2455.8C867.11,-2441.52 875.85,-2423.25 883.97,-2406.26"/>
<polygon fill="black" stroke="black" points="887.25,-2407.51 888.41,-2396.98 880.94,-2404.49 887.25,-2407.51"/>
<text text-anchor="start" x="878" y="-2418.8" font-family="Times,serif" font-size="14.00">%13</text>
</g>
<!-- node14&#45;&gt;node15 -->
<g id="edge14" class="edge">
<title>node14&#45;&gt;node15</title>
<path fill="none" stroke="black" d="M908,-2313.35C908,-2277.27 908,-2223.13 908,-2176 908,-2176 908,-2176 908,-1332.5 908,-1308.41 908,-1282.41 908,-1258.15"/>
<polygon fill="black" stroke="black" points="911.5,-1257.86 908,-1247.86 904.5,-1257.86 911.5,-1257.86"/>
<text text-anchor="start" x="908" y="-1674.8" font-family="Times,serif" font-size="14.00">%14</text>
</g>
<!-- node16 -->
<g id="node17" class="node">
<title>node16</title>
<polygon fill="none" stroke="black" points="471.5,-795.5 471.5,-938.5 1344.5,-938.5 1344.5,-795.5 471.5,-795.5"/>
<text text-anchor="start" x="479.5" y="-923.3" font-family="Times,serif" font-size="14.00">Get %15 (l6)</text>
<text text-anchor="start" x="479.5" y="-908.3" font-family="Times,serif" font-size="14.00"> types = (double precision?, double precision, double precision?, double precision?, double precision?, double precision)</text>
<text text-anchor="start" x="479.5" y="-893.3" font-family="Times,serif" font-size="14.00"> keys = ()</text>
<text text-anchor="start" x="479.5" y="-878.3" font-family="Times,serif" font-size="14.00"> Distinct group=(#0, #1, #2, #3)</text>
<text text-anchor="start" x="479.5" y="-863.3" font-family="Times,serif" font-size="14.00"> types = (double precision?, double precision, double precision?, double precision?)</text>
<text text-anchor="start" x="479.5" y="-848.3" font-family="Times,serif" font-size="14.00"> keys = ((#0..#3))</text>
<text text-anchor="start" x="479.5" y="-833.3" font-family="Times,serif" font-size="14.00"> Negate</text>
<text text-anchor="start" x="479.5" y="-818.3" font-family="Times,serif" font-size="14.00"> types = (double precision?, double precision, double precision?, double precision?)</text>
<text text-anchor="start" x="479.5" y="-803.3" font-family="Times,serif" font-size="14.00"> keys = ()</text>
</g>
<!-- node15&#45;&gt;node16 -->
<g id="edge11" class="edge">
<title>node15&#45;&gt;node16</title>
<path fill="none" stroke="black" d="M908,-1074.36C908,-1034.82 908,-988.1 908,-949.12"/>
<polygon fill="black" stroke="black" points="911.5,-948.87 908,-938.87 904.5,-948.87 911.5,-948.87"/>
<text text-anchor="start" x="908" y="-1002.8" font-family="Times,serif" font-size="14.00">%15</text>
</g>
<!-- node22 -->
<g id="node23" class="node">
<title>node22</title>
<polygon fill="none" stroke="black" points="18.5,-240.5 18.5,-353.5 899.5,-353.5 899.5,-240.5 18.5,-240.5"/>
<text text-anchor="start" x="26.5" y="-338.3" font-family="Times,serif" font-size="14.00">Let l7 =</text>
<text text-anchor="start" x="26.5" y="-323.3" font-family="Times,serif" font-size="14.00"> Union %15 %21</text>
<text text-anchor="start" x="26.5" y="-308.3" font-family="Times,serif" font-size="14.00"> types = (double precision?, double precision, double precision?, double precision?, double precision?, double precision?)</text>
<text text-anchor="start" x="26.5" y="-293.3" font-family="Times,serif" font-size="14.00"> keys = ()</text>
<text text-anchor="start" x="26.5" y="-278.3" font-family="Times,serif" font-size="14.00"> Filter (((((#0 = #2) &amp;&amp; (#3 = #0)) &amp;&amp; (#2 = #1)) &amp;&amp; (#2 &lt; #1)) &amp;&amp; (#3 = i32tof64(5)))</text>
<text text-anchor="start" x="26.5" y="-263.3" font-family="Times,serif" font-size="14.00"> types = (double precision?, double precision, double precision?, double precision?, double precision?, double precision?)</text>
<text text-anchor="start" x="26.5" y="-248.3" font-family="Times,serif" font-size="14.00"> keys = ()</text>
</g>
<!-- node15&#45;&gt;node22 -->
<g id="edge26" class="edge">
<title>node15&#45;&gt;node22</title>
<path fill="none" stroke="black" d="M603.03,-1074.38C515.38,-1030.04 443,-964.28 443,-868 443,-868 443,-868 443,-438.5 443,-414.01 445.43,-387.28 448.39,-363.77"/>
<polygon fill="black" stroke="black" points="451.9,-363.93 449.74,-353.56 444.96,-363.02 451.9,-363.93"/>
<text text-anchor="start" x="443" y="-660.8" font-family="Times,serif" font-size="14.00">%15</text>
</g>
<!-- node18 -->
<g id="node19" class="node">
<title>node18</title>
<polygon fill="none" stroke="black" points="1058,-690.5 1058,-743.5 1670,-743.5 1670,-690.5 1058,-690.5"/>
<text text-anchor="start" x="1066" y="-728.3" font-family="Times,serif" font-size="14.00">Union %16 %17</text>
<text text-anchor="start" x="1066" y="-713.3" font-family="Times,serif" font-size="14.00"> types = (double precision?, double precision, double precision?, double precision?)</text>
<text text-anchor="start" x="1066" y="-698.3" font-family="Times,serif" font-size="14.00"> keys = ()</text>
</g>
<!-- node16&#45;&gt;node18 -->
<g id="edge16" class="edge">
<title>node16&#45;&gt;node18</title>
<path fill="none" stroke="black" d="M1125.32,-795.47C1178.52,-778.2 1232.51,-760.68 1275.65,-746.68"/>
<polygon fill="black" stroke="black" points="1276.81,-749.98 1285.25,-743.56 1274.65,-743.32 1276.81,-749.98"/>
<text text-anchor="start" x="1217" y="-765.8" font-family="Times,serif" font-size="14.00">%16</text>
</g>
<!-- node17&#45;&gt;node18 -->
<g id="edge3" class="edge">
<title>node17&#45;&gt;node18</title>
<path fill="none" stroke="black" d="M1374.82,-957.38C1372.23,-899.92 1367.94,-805.16 1365.62,-753.79"/>
<polygon fill="black" stroke="black" points="1369.1,-753.35 1365.15,-743.52 1362.11,-753.67 1369.1,-753.35"/>
<text text-anchor="start" x="1374" y="-863.3" font-family="Times,serif" font-size="14.00">%17</text>
</g>
<!-- node18&#45;&gt;node19 -->
<g id="edge5" class="edge">
<title>node18&#45;&gt;node19</title>
<path fill="none" stroke="black" d="M1407.96,-690.36C1430.83,-677.02 1459.84,-660.1 1488.02,-643.66"/>
<polygon fill="black" stroke="black" points="1489.86,-646.64 1496.73,-638.57 1486.33,-640.59 1489.86,-646.64"/>
<text text-anchor="start" x="1465" y="-660.8" font-family="Times,serif" font-size="14.00">%18</text>
</g>
<!-- node21 -->
<g id="node22" class="node">
<title>node21</title>
<polygon fill="none" stroke="black" points="471.5,-405.5 471.5,-473.5 1352.5,-473.5 1352.5,-405.5 471.5,-405.5"/>
<text text-anchor="start" x="479.5" y="-458.3" font-family="Times,serif" font-size="14.00">Join %19 %20</text>
<text text-anchor="start" x="479.5" y="-443.3" font-family="Times,serif" font-size="14.00"> implementation = Unimplemented</text>
<text text-anchor="start" x="479.5" y="-428.3" font-family="Times,serif" font-size="14.00"> types = (double precision?, double precision, double precision?, double precision?, double precision?, double precision?)</text>
<text text-anchor="start" x="479.5" y="-413.3" font-family="Times,serif" font-size="14.00"> keys = ()</text>
</g>
<!-- node19&#45;&gt;node21 -->
<g id="edge20" class="edge">
<title>node19&#45;&gt;node21</title>
<path fill="none" stroke="black" d="M1323.25,-525.47C1242.05,-508.69 1155.18,-490.75 1082.3,-475.69"/>
<polygon fill="black" stroke="black" points="1082.62,-472.18 1072.11,-473.58 1081.2,-479.03 1082.62,-472.18"/>
<text text-anchor="start" x="1232" y="-495.8" font-family="Times,serif" font-size="14.00">%19</text>
</g>
<!-- node20 -->
<g id="node21" class="node">
<title>node20</title>
<polygon fill="none" stroke="black" points="651.5,-555.5 651.5,-608.5 1002.5,-608.5 1002.5,-555.5 651.5,-555.5"/>
<text text-anchor="start" x="659.5" y="-593.3" font-family="Times,serif" font-size="14.00">Constant (null, null)</text>
<text text-anchor="start" x="659.5" y="-578.3" font-family="Times,serif" font-size="14.00"> types = (double precision?, double precision?)</text>
<text text-anchor="start" x="659.5" y="-563.3" font-family="Times,serif" font-size="14.00"> keys = (())</text>
</g>
<!-- node20&#45;&gt;node21 -->
<g id="edge4" class="edge">
<title>node20&#45;&gt;node21</title>
<path fill="none" stroke="black" d="M842.59,-555.23C854.91,-534.86 872.37,-506.01 886.69,-482.34"/>
<polygon fill="black" stroke="black" points="889.83,-483.91 892.01,-473.55 883.84,-480.29 889.83,-483.91"/>
<text text-anchor="start" x="880" y="-495.8" font-family="Times,serif" font-size="14.00">%20</text>
</g>
<!-- node21&#45;&gt;node22 -->
<g id="edge17" class="edge">
<title>node21&#45;&gt;node22</title>
<path fill="none" stroke="black" d="M805.51,-405.47C758.5,-390.89 701.81,-373.31 648.01,-356.62"/>
<polygon fill="black" stroke="black" points="648.95,-353.25 638.36,-353.63 646.87,-359.93 648.95,-353.25"/>
<text text-anchor="start" x="740" y="-375.8" font-family="Times,serif" font-size="14.00">%21</text>
</g>
<!-- node23 -->
<g id="node24" class="node">
<title>node23</title>
<polygon fill="none" stroke="black" points="0,-0.5 0,-188.5 918,-188.5 918,-0.5 0,-0.5"/>
<text text-anchor="start" x="8" y="-173.3" font-family="Times,serif" font-size="14.00">Get %22 (l7)</text>
<text text-anchor="start" x="8" y="-158.3" font-family="Times,serif" font-size="14.00"> types = (double precision?, double precision, double precision?, double precision?, double precision?, double precision?)</text>
<text text-anchor="start" x="8" y="-143.3" font-family="Times,serif" font-size="14.00"> keys = ()</text>
<text text-anchor="start" x="8" y="-128.3" font-family="Times,serif" font-size="14.00"> Map &quot;qgm(false)&quot;</text>
<text text-anchor="start" x="8" y="-113.3" font-family="Times,serif" font-size="14.00"> types = (double precision?, double precision, double precision?, double precision?, double precision?, double precision?, text)</text>
<text text-anchor="start" x="8" y="-98.3" font-family="Times,serif" font-size="14.00"> keys = ()</text>
<text text-anchor="start" x="8" y="-83.3" font-family="Times,serif" font-size="14.00"> Project (#0..#6)</text>
<text text-anchor="start" x="8" y="-68.3" font-family="Times,serif" font-size="14.00"> types = (double precision?, double precision, double precision?, double precision?, double precision?, double precision?, text)</text>
<text text-anchor="start" x="8" y="-53.3" font-family="Times,serif" font-size="14.00"> keys = ()</text>
<text text-anchor="start" x="8" y="-38.3" font-family="Times,serif" font-size="14.00"> Project (#6, #0..#5)</text>
<text text-anchor="start" x="8" y="-23.3" font-family="Times,serif" font-size="14.00"> types = (text, double precision?, double precision, double precision?, double precision?, double precision?, double precision?)</text>
<text text-anchor="start" x="8" y="-8.3" font-family="Times,serif" font-size="14.00"> keys = ()</text>
</g>
<!-- node22&#45;&gt;node23 -->
<g id="edge18" class="edge">
<title>node22&#45;&gt;node23</title>
<path fill="none" stroke="black" d="M459,-240.42C459,-227.45 459,-213.24 459,-198.94"/>
<polygon fill="black" stroke="black" points="462.5,-198.52 459,-188.52 455.5,-198.52 462.5,-198.52"/>
<text text-anchor="start" x="459" y="-210.8" font-family="Times,serif" font-size="14.00">%22</text>
</g>
</g>
</svg>
