<?xml version="1.0" encoding="UTF-8" standalone="no"?>
<!DOCTYPE svg PUBLIC "-//W3C//DTD SVG 1.1//EN"
 "http://www.w3.org/Graphics/SVG/1.1/DTD/svg11.dtd">
<!-- Generated by graphviz version 2.43.0 (0)
 -->
<!-- Title: G Pages: 1 -->
<svg width="1088pt" height="1074pt"
 viewBox="0.00 0.00 1088.00 1074.00" xmlns="http://www.w3.org/2000/svg" xmlns:xlink="http://www.w3.org/1999/xlink">
<g id="graph0" class="graph" transform="scale(1 1) rotate(0) translate(4 1070)">
<title>G</title>
<polygon fill="white" stroke="transparent" points="-4,4 -4,-1070 1084,-1070 1084,4 -4,4"/>
<!-- node0 -->
<g id="node1" class="node">
<title>node0</title>
<polygon fill="none" stroke="black" points="326.5,-1027.5 326.5,-1065.5 427.5,-1065.5 427.5,-1027.5 326.5,-1027.5"/>
<text text-anchor="start" x="334.5" y="-1050.3" font-family="Times,serif" font-size="14.00">Let l0 =</text>
<text text-anchor="start" x="334.5" y="-1035.3" font-family="Times,serif" font-size="14.00"> Constant ()</text>
</g>
<!-- node2 -->
<g id="node3" class="node">
<title>node2</title>
<polygon fill="none" stroke="black" points="98.5,-930 98.5,-968 367.5,-968 367.5,-930 98.5,-930"/>
<text text-anchor="start" x="106.5" y="-952.8" font-family="Times,serif" font-size="14.00">Join %0 %1</text>
<text text-anchor="start" x="106.5" y="-937.8" font-family="Times,serif" font-size="14.00"> implementation = Unimplemented</text>
</g>
<!-- node0&#45;&gt;node2 -->
<g id="edge1" class="edge">
<title>node0&#45;&gt;node2</title>
<path fill="none" stroke="black" d="M349.58,-1027.31C326.66,-1012.11 293.8,-990.32 268.81,-973.75"/>
<polygon fill="black" stroke="black" points="270.59,-970.73 260.32,-968.12 266.72,-976.56 270.59,-970.73"/>
<text text-anchor="start" x="318" y="-997.8" font-family="Times,serif" font-size="14.00">%0</text>
</g>
<!-- node4 -->
<g id="node5" class="node">
<title>node4</title>
<polygon fill="none" stroke="black" points="385.5,-930 385.5,-968 654.5,-968 654.5,-930 385.5,-930"/>
<text text-anchor="start" x="393.5" y="-952.8" font-family="Times,serif" font-size="14.00">Join %0 %3</text>
<text text-anchor="start" x="393.5" y="-937.8" font-family="Times,serif" font-size="14.00"> implementation = Unimplemented</text>
</g>
<!-- node0&#45;&gt;node4 -->
<g id="edge16" class="edge">
<title>node0&#45;&gt;node4</title>
<path fill="none" stroke="black" d="M399.1,-1027.35C411.91,-1017.12 428.52,-1004.37 444,-994 454.7,-986.84 466.6,-979.61 477.76,-973.15"/>
<polygon fill="black" stroke="black" points="479.57,-976.15 486.51,-968.14 476.09,-970.07 479.57,-976.15"/>
<text text-anchor="start" x="444" y="-997.8" font-family="Times,serif" font-size="14.00">%0</text>
</g>
<!-- node7 -->
<g id="node8" class="node">
<title>node7</title>
<polygon fill="none" stroke="black" points="672.5,-922.5 672.5,-975.5 941.5,-975.5 941.5,-922.5 672.5,-922.5"/>
<text text-anchor="start" x="680.5" y="-960.3" font-family="Times,serif" font-size="14.00">Let l2 =</text>
<text text-anchor="start" x="680.5" y="-945.3" font-family="Times,serif" font-size="14.00"> Join %0 %6</text>
<text text-anchor="start" x="680.5" y="-930.3" font-family="Times,serif" font-size="14.00"> implementation = Unimplemented</text>
</g>
<!-- node0&#45;&gt;node7 -->
<g id="edge8" class="edge">
<title>node0&#45;&gt;node7</title>
<path fill="none" stroke="black" d="M422.87,-1027.5C452.92,-1016.34 493.29,-1002.56 530,-994 585.55,-981.05 602.9,-984.92 662.38,-976.18"/>
<polygon fill="black" stroke="black" points="662.95,-979.64 672.3,-974.67 661.89,-972.72 662.95,-979.64"/>
<text text-anchor="start" x="530" y="-997.8" font-family="Times,serif" font-size="14.00">%0</text>
</g>
<!-- node1 -->
<g id="node2" class="node">
<title>node1</title>
<polygon fill="none" stroke="black" points="0,-1028.5 0,-1064.5 308,-1064.5 308,-1028.5 0,-1028.5"/>
<text text-anchor="start" x="8" y="-1042.8" font-family="Times,serif" font-size="14.00">Get simplify_outer_joins.public.t1 (u118)</text>
</g>
<!-- node1&#45;&gt;node2 -->
<g id="edge20" class="edge">
<title>node1&#45;&gt;node2</title>
<path fill="none" stroke="black" d="M168.12,-1028.43C180.18,-1013.86 197.69,-992.68 211.49,-976"/>
<polygon fill="black" stroke="black" points="214.25,-978.16 217.92,-968.23 208.85,-973.7 214.25,-978.16"/>
<text text-anchor="start" x="196" y="-997.8" font-family="Times,serif" font-size="14.00">%1</text>
</g>
<!-- node5 -->
<g id="node6" class="node">
<title>node5</title>
<polygon fill="none" stroke="black" points="385.5,-757.5 385.5,-870.5 654.5,-870.5 654.5,-757.5 385.5,-757.5"/>
<text text-anchor="start" x="393.5" y="-855.3" font-family="Times,serif" font-size="14.00">Let l1 =</text>
<text text-anchor="start" x="393.5" y="-840.3" font-family="Times,serif" font-size="14.00"> Join %2 %4</text>
<text text-anchor="start" x="393.5" y="-825.3" font-family="Times,serif" font-size="14.00"> implementation = Unimplemented</text>
<text text-anchor="start" x="393.5" y="-810.3" font-family="Times,serif" font-size="14.00"> Project (#0..#3)</text>
<text text-anchor="start" x="393.5" y="-795.3" font-family="Times,serif" font-size="14.00"> Filter (true &amp;&amp; (#0 = #2))</text>
<text text-anchor="start" x="393.5" y="-780.3" font-family="Times,serif" font-size="14.00"> Map #0, #1, #2, #3</text>
<text text-anchor="start" x="393.5" y="-765.3" font-family="Times,serif" font-size="14.00"> Project (#4..#7)</text>
</g>
<!-- node2&#45;&gt;node5 -->
<g id="edge13" class="edge">
<title>node2&#45;&gt;node5</title>
<path fill="none" stroke="black" d="M272,-929.92C302.84,-915.64 347.73,-894.83 390.88,-874.84"/>
<polygon fill="black" stroke="black" points="392.45,-877.97 400.05,-870.59 389.51,-871.61 392.45,-877.97"/>
<text text-anchor="start" x="359" y="-892.8" font-family="Times,serif" font-size="14.00">%2</text>
</g>
<!-- node3 -->
<g id="node4" class="node">
<title>node3</title>
<polygon fill="none" stroke="black" points="446,-1028.5 446,-1064.5 754,-1064.5 754,-1028.5 446,-1028.5"/>
<text text-anchor="start" x="454" y="-1042.8" font-family="Times,serif" font-size="14.00">Get simplify_outer_joins.public.t1 (u118)</text>
</g>
<!-- node3&#45;&gt;node4 -->
<g id="edge14" class="edge">
<title>node3&#45;&gt;node4</title>
<path fill="none" stroke="black" d="M585.7,-1028.43C573.49,-1013.86 555.75,-992.68 541.78,-976"/>
<polygon fill="black" stroke="black" points="544.37,-973.64 535.27,-968.23 539.01,-978.14 544.37,-973.64"/>
<text text-anchor="start" x="567" y="-997.8" font-family="Times,serif" font-size="14.00">%3</text>
</g>
<!-- node4&#45;&gt;node5 -->
<g id="edge18" class="edge">
<title>node4&#45;&gt;node5</title>
<path fill="none" stroke="black" d="M520,-929.79C520,-916.88 520,-898.71 520,-880.63"/>
<polygon fill="black" stroke="black" points="523.5,-880.62 520,-870.62 516.5,-880.62 523.5,-880.62"/>
<text text-anchor="start" x="520" y="-892.8" font-family="Times,serif" font-size="14.00">%4</text>
</g>
<!-- node8 -->
<g id="node9" class="node">
<title>node8</title>
<polygon fill="none" stroke="black" points="583.5,-622.5 583.5,-705.5 852.5,-705.5 852.5,-622.5 583.5,-622.5"/>
<text text-anchor="start" x="591.5" y="-690.3" font-family="Times,serif" font-size="14.00">Let l3 =</text>
<text text-anchor="start" x="591.5" y="-675.3" font-family="Times,serif" font-size="14.00"> Join %5 %7</text>
<text text-anchor="start" x="591.5" y="-660.3" font-family="Times,serif" font-size="14.00"> implementation = Unimplemented</text>
<text text-anchor="start" x="591.5" y="-645.3" font-family="Times,serif" font-size="14.00"> Project (#0..#5)</text>
<text text-anchor="start" x="591.5" y="-630.3" font-family="Times,serif" font-size="14.00"> Filter true</text>
</g>
<!-- node5&#45;&gt;node8 -->
<g id="edge4" class="edge">
<title>node5&#45;&gt;node8</title>
<path fill="none" stroke="black" d="M594.29,-757.47C614.45,-742.4 636.08,-726.23 655.52,-711.7"/>
<polygon fill="black" stroke="black" points="657.79,-714.37 663.71,-705.58 653.6,-708.77 657.79,-714.37"/>
<text text-anchor="start" x="636" y="-727.8" font-family="Times,serif" font-size="14.00">%5</text>
</g>
<!-- node10 -->
<g id="node11" class="node">
<title>node10</title>
<polygon fill="none" stroke="black" points="427.5,-565.5 427.5,-603.5 684.5,-603.5 684.5,-565.5 427.5,-565.5"/>
<text text-anchor="start" x="435.5" y="-588.3" font-family="Times,serif" font-size="14.00">Get %5 (l1)</text>
<text text-anchor="start" x="435.5" y="-573.3" font-family="Times,serif" font-size="14.00"> Distinct group=(#0, #1, #2, #3)</text>
</g>
<!-- node5&#45;&gt;node10 -->
<g id="edge17" class="edge">
<title>node5&#45;&gt;node10</title>
<path fill="none" stroke="black" d="M528.81,-757.35C535.99,-711.93 545.85,-649.61 551.51,-613.85"/>
<polygon fill="black" stroke="black" points="555.02,-614.07 553.13,-603.65 548.11,-612.98 555.02,-614.07"/>
<text text-anchor="start" x="533" y="-727.8" font-family="Times,serif" font-size="14.00">%5</text>
</g>
<!-- node12 -->
<g id="node13" class="node">
<title>node12</title>
<polygon fill="none" stroke="black" points="325.5,-300.5 325.5,-353.5 744.5,-353.5 744.5,-300.5 325.5,-300.5"/>
<text text-anchor="start" x="333.5" y="-338.3" font-family="Times,serif" font-size="14.00">Join %11 %5 (= #0 #4) (= #1 #5) (= #2 #6) (= #3 #7)</text>
<text text-anchor="start" x="333.5" y="-323.3" font-family="Times,serif" font-size="14.00"> implementation = Unimplemented</text>
<text text-anchor="start" x="333.5" y="-308.3" font-family="Times,serif" font-size="14.00"> Project (#0..#3)</text>
</g>
<!-- node5&#45;&gt;node12 -->
<g id="edge7" class="edge">
<title>node5&#45;&gt;node12</title>
<path fill="none" stroke="black" d="M454.37,-757.29C431.76,-731.94 412,-699.83 412,-665 412,-665 412,-665 412,-422.5 412,-394.44 432.38,-373.56 456.55,-358.67"/>
<polygon fill="black" stroke="black" points="458.33,-361.69 465.23,-353.65 454.83,-355.63 458.33,-361.69"/>
<text text-anchor="start" x="412" y="-516.3" font-family="Times,serif" font-size="14.00">%5</text>
</g>
<!-- node6 -->
<g id="node7" class="node">
<title>node6</title>
<polygon fill="none" stroke="black" points="772,-1028.5 772,-1064.5 1080,-1064.5 1080,-1028.5 772,-1028.5"/>
<text text-anchor="start" x="780" y="-1042.8" font-family="Times,serif" font-size="14.00">Get simplify_outer_joins.public.t2 (u120)</text>
</g>
<!-- node6&#45;&gt;node7 -->
<g id="edge19" class="edge">
<title>node6&#45;&gt;node7</title>
<path fill="none" stroke="black" d="M904.73,-1028.43C888.63,-1015.51 866.05,-997.39 846.65,-981.82"/>
<polygon fill="black" stroke="black" points="848.83,-979.08 838.84,-975.55 844.45,-984.54 848.83,-979.08"/>
<text text-anchor="start" x="877" y="-997.8" font-family="Times,serif" font-size="14.00">%6</text>
</g>
<!-- node7&#45;&gt;node8 -->
<g id="edge15" class="edge">
<title>node7&#45;&gt;node8</title>
<path fill="none" stroke="black" d="M798.94,-922.39C784.27,-875.73 752.94,-776.12 733.85,-715.41"/>
<polygon fill="black" stroke="black" points="737.12,-714.14 730.78,-705.65 730.44,-716.24 737.12,-714.14"/>
<text text-anchor="start" x="782" y="-810.3" font-family="Times,serif" font-size="14.00">%7</text>
</g>
<!-- node9 -->
<g id="node10" class="node">
<title>node9</title>
<polygon fill="none" stroke="black" points="550.5,-493.5 550.5,-546.5 807.5,-546.5 807.5,-493.5 550.5,-493.5"/>
<text text-anchor="start" x="558.5" y="-531.3" font-family="Times,serif" font-size="14.00">Get %8 (l3)</text>
<text text-anchor="start" x="558.5" y="-516.3" font-family="Times,serif" font-size="14.00"> Distinct group=(#0, #1, #2, #3)</text>
<text text-anchor="start" x="558.5" y="-501.3" font-family="Times,serif" font-size="14.00"> Negate</text>
</g>
<!-- node8&#45;&gt;node9 -->
<g id="edge2" class="edge">
<title>node8&#45;&gt;node9</title>
<path fill="none" stroke="black" d="M706.82,-622.31C701.09,-601.42 694.16,-576.21 688.66,-556.17"/>
<polygon fill="black" stroke="black" points="692.03,-555.22 686,-546.5 685.28,-557.07 692.03,-555.22"/>
<text text-anchor="start" x="700" y="-580.8" font-family="Times,serif" font-size="14.00">%8</text>
</g>
<!-- node15 -->
<g id="node16" class="node">
<title>node15</title>
<polygon fill="none" stroke="black" points="349.5,-0.5 349.5,-158.5 1020.5,-158.5 1020.5,-0.5 349.5,-0.5"/>
<text text-anchor="start" x="357.5" y="-143.3" font-family="Times,serif" font-size="14.00">Union %8 %14</text>
<text text-anchor="start" x="357.5" y="-128.3" font-family="Times,serif" font-size="14.00"> Map #0, #1, #2, #3, #4, #5</text>
<text text-anchor="start" x="357.5" y="-113.3" font-family="Times,serif" font-size="14.00"> Project (#6..#11)</text>
<text text-anchor="start" x="357.5" y="-98.3" font-family="Times,serif" font-size="14.00"> Filter (((((#0 = #2) &amp;&amp; (#3 = #0)) &amp;&amp; (#2 = #1)) &amp;&amp; (#2 &lt; #1)) &amp;&amp; (#3 = i32tof64(5)))</text>
<text text-anchor="start" x="357.5" y="-83.3" font-family="Times,serif" font-size="14.00"> Map #0, #1, #2, #3, #4, #5</text>
<text text-anchor="start" x="357.5" y="-68.3" font-family="Times,serif" font-size="14.00"> Project (#6..#11)</text>
<text text-anchor="start" x="357.5" y="-53.3" font-family="Times,serif" font-size="14.00"> Map #0, #1, #2, #3, #4, #5, &quot;qgm(true)&quot;</text>
<text text-anchor="start" x="357.5" y="-38.3" font-family="Times,serif" font-size="14.00"> Project (#6..#12)</text>
<text text-anchor="start" x="357.5" y="-23.3" font-family="Times,serif" font-size="14.00"> Map #6, #0, #1, #2, #3, #4, #5</text>
<text text-anchor="start" x="357.5" y="-8.3" font-family="Times,serif" font-size="14.00"> Project (#7..#13)</text>
</g>
<!-- node8&#45;&gt;node15 -->
<g id="edge5" class="edge">
<title>node8&#45;&gt;node15</title>
<path fill="none" stroke="black" d="M777.35,-622.48C806.73,-597.25 836,-561.87 836,-521 836,-521 836,-521 836,-228.5 836,-205.42 826.89,-184.75 813.15,-166.7"/>
<polygon fill="black" stroke="black" points="815.56,-164.12 806.53,-158.59 810.14,-168.55 815.56,-164.12"/>
<text text-anchor="start" x="836" y="-375.8" font-family="Times,serif" font-size="14.00">%8</text>
</g>
<!-- node11 -->
<g id="node12" class="node">
<title>node11</title>
<polygon fill="none" stroke="black" points="474,-405.5 474,-441.5 596,-441.5 596,-405.5 474,-405.5"/>
<text text-anchor="start" x="482" y="-419.8" font-family="Times,serif" font-size="14.00">Union %9 %10</text>
</g>
<!-- node9&#45;&gt;node11 -->
<g id="edge10" class="edge">
<title>node9&#45;&gt;node11</title>
<path fill="none" stroke="black" d="M640.03,-493.43C618.07,-479.01 590.87,-461.17 569.66,-447.24"/>
<polygon fill="black" stroke="black" points="571.54,-444.29 561.26,-441.73 567.7,-450.14 571.54,-444.29"/>
<text text-anchor="start" x="611" y="-463.8" font-family="Times,serif" font-size="14.00">%9</text>
</g>
<!-- node10&#45;&gt;node11 -->
<g id="edge3" class="edge">
<title>node10&#45;&gt;node11</title>
<path fill="none" stroke="black" d="M525.23,-565.49C519.08,-560.35 513.46,-554.16 510,-547 495.01,-515.98 508.22,-476.33 520.42,-450.68"/>
<polygon fill="black" stroke="black" points="523.63,-452.09 524.99,-441.59 517.37,-448.95 523.63,-452.09"/>
<text text-anchor="start" x="510" y="-516.3" font-family="Times,serif" font-size="14.00">%10</text>
</g>
<!-- node11&#45;&gt;node12 -->
<g id="edge6" class="edge">
<title>node11&#45;&gt;node12</title>
<path fill="none" stroke="black" d="M535,-405.17C535,-393.7 535,-378.25 535,-364.18"/>
<polygon fill="black" stroke="black" points="538.5,-363.78 535,-353.78 531.5,-363.78 538.5,-363.78"/>
<text text-anchor="start" x="535" y="-375.8" font-family="Times,serif" font-size="14.00">%11</text>
</g>
<!-- node14 -->
<g id="node15" class="node">
<title>node14</title>
<polygon fill="none" stroke="black" points="400.5,-210.5 400.5,-248.5 669.5,-248.5 669.5,-210.5 400.5,-210.5"/>
<text text-anchor="start" x="408.5" y="-233.3" font-family="Times,serif" font-size="14.00">Join %12 %13</text>
<text text-anchor="start" x="408.5" y="-218.3" font-family="Times,serif" font-size="14.00"> implementation = Unimplemented</text>
</g>
<!-- node12&#45;&gt;node14 -->
<g id="edge9" class="edge">
<title>node12&#45;&gt;node14</title>
<path fill="none" stroke="black" d="M535,-300.41C535,-287.63 535,-272.13 535,-258.98"/>
<polygon fill="black" stroke="black" points="538.5,-258.6 535,-248.6 531.5,-258.6 538.5,-258.6"/>
<text text-anchor="start" x="535" y="-270.8" font-family="Times,serif" font-size="14.00">%12</text>
</g>
<!-- node13 -->
<g id="node14" class="node">
<title>node13</title>
<polygon fill="none" stroke="black" points="148.5,-309 148.5,-345 307.5,-345 307.5,-309 148.5,-309"/>
<text text-anchor="start" x="156.5" y="-323.3" font-family="Times,serif" font-size="14.00">Constant (null, null)</text>
</g>
<!-- node13&#45;&gt;node14 -->
<g id="edge12" class="edge">
<title>node13&#45;&gt;node14</title>
<path fill="none" stroke="black" d="M282.89,-308.93C334.46,-292.88 411.8,-268.83 467.2,-251.59"/>
<polygon fill="black" stroke="black" points="468.43,-254.87 476.94,-248.56 466.35,-248.19 468.43,-254.87"/>
<text text-anchor="start" x="408" y="-270.8" font-family="Times,serif" font-size="14.00">%13</text>
</g>
<!-- node14&#45;&gt;node15 -->
<g id="edge11" class="edge">
<title>node14&#45;&gt;node15</title>
<path fill="none" stroke="black" d="M553.39,-210.35C565.17,-198.74 581.39,-182.73 598.43,-165.92"/>
<polygon fill="black" stroke="black" points="601.11,-168.19 605.77,-158.67 596.2,-163.2 601.11,-168.19"/>
<text text-anchor="start" x="583" y="-180.8" font-family="Times,serif" font-size="14.00">%14</text>
</g>
</g>
</svg>
