<?xml version="1.0" encoding="UTF-8" standalone="no"?>
<!DOCTYPE svg PUBLIC "-//W3C//DTD SVG 1.1//EN"
 "http://www.w3.org/Graphics/SVG/1.1/DTD/svg11.dtd">
<!-- Generated by graphviz version 2.43.0 (0)
 -->
<!-- Title: G Pages: 1 -->
<svg width="968pt" height="197pt"
 viewBox="0.00 0.00 968.00 197.00" xmlns="http://www.w3.org/2000/svg" xmlns:xlink="http://www.w3.org/1999/xlink">
<g id="graph0" class="graph" transform="scale(1 1) rotate(0) translate(4 193)">
<title>G</title>
<polygon fill="white" stroke="transparent" points="-4,4 -4,-193 964,-193 964,4 -4,4"/>
<!-- node0 -->
<g id="node1" class="node">
<title>node0</title>
<polygon fill="none" stroke="black" points="0,-128 0,-181 308,-181 308,-128 0,-128"/>
<text text-anchor="start" x="8" y="-165.8" font-family="Times,serif" font-size="14.00">Get simplify_outer_joins.public.t1 (u118)</text>
<text text-anchor="start" x="8" y="-150.8" font-family="Times,serif" font-size="14.00"> Filter (#0 = 5), (#1 = 5), (5 &lt; #1)</text>
<text text-anchor="start" x="8" y="-135.8" font-family="Times,serif" font-size="14.00"> ArrangeBy ()</text>
</g>
<!-- node3 -->
<g id="node4" class="node">
<title>node3</title>
<polygon fill="none" stroke="black" points="306.5,-0.5 306.5,-68.5 653.5,-68.5 653.5,-0.5 306.5,-0.5"/>
<text text-anchor="start" x="314.5" y="-53.3" font-family="Times,serif" font-size="14.00">Join %0 %1 %2</text>
<text text-anchor="start" x="314.5" y="-38.3" font-family="Times,serif" font-size="14.00"> implementation = Differential %2 %0.() %1.()</text>
<text text-anchor="start" x="314.5" y="-23.3" font-family="Times,serif" font-size="14.00"> Map &quot;qgm(true)&quot;</text>
<text text-anchor="start" x="314.5" y="-8.3" font-family="Times,serif" font-size="14.00"> Project (#5, #0, #1, #0, #2..#4)</text>
</g>
<!-- node0&#45;&gt;node3 -->
<g id="edge1" class="edge">
<title>node0&#45;&gt;node3</title>
<path fill="none" stroke="black" d="M224.74,-127.9C269.86,-111.56 329.05,-90.14 379.08,-72.03"/>
<polygon fill="black" stroke="black" points="380.42,-75.27 388.63,-68.57 378.03,-68.69 380.42,-75.27"/>
<text text-anchor="start" x="337" y="-90.8" font-family="Times,serif" font-size="14.00">%0</text>
</g>
<!-- node1 -->
<g id="node2" class="node">
<title>node1</title>
<polygon fill="none" stroke="black" points="326,-120.5 326,-188.5 634,-188.5 634,-120.5 326,-120.5"/>
<text text-anchor="start" x="334" y="-173.3" font-family="Times,serif" font-size="14.00">Get simplify_outer_joins.public.t1 (u118)</text>
<text text-anchor="start" x="334" y="-158.3" font-family="Times,serif" font-size="14.00"> Filter (#0 = 5), (#1 = 5)</text>
<text text-anchor="start" x="334" y="-143.3" font-family="Times,serif" font-size="14.00"> Project (#1)</text>
<text text-anchor="start" x="334" y="-128.3" font-family="Times,serif" font-size="14.00"> ArrangeBy ()</text>
</g>
<!-- node1&#45;&gt;node3 -->
<g id="edge2" class="edge">
<title>node1&#45;&gt;node3</title>
<path fill="none" stroke="black" d="M480,-120.32C480,-107.5 480,-92.65 480,-79"/>
<polygon fill="black" stroke="black" points="483.5,-78.84 480,-68.84 476.5,-78.84 483.5,-78.84"/>
<text text-anchor="start" x="480" y="-90.8" font-family="Times,serif" font-size="14.00">%1</text>
</g>
<!-- node2 -->
<g id="node3" class="node">
<title>node2</title>
<polygon fill="none" stroke="black" points="652,-136.5 652,-172.5 960,-172.5 960,-136.5 652,-136.5"/>
<text text-anchor="start" x="660" y="-150.8" font-family="Times,serif" font-size="14.00">Get simplify_outer_joins.public.t2 (u120)</text>
</g>
<!-- node2&#45;&gt;node3 -->
<g id="edge3" class="edge">
<title>node2&#45;&gt;node3</title>
<path fill="none" stroke="black" d="M758.94,-136.47C712.58,-119.69 640.27,-93.51 580.89,-72.02"/>
<polygon fill="black" stroke="black" points="582.08,-68.73 571.48,-68.61 579.69,-75.31 582.08,-68.73"/>
<text text-anchor="start" x="663" y="-90.8" font-family="Times,serif" font-size="14.00">%2</text>
</g>
</g>
</svg>
