<?xml version="1.0" encoding="UTF-8" standalone="no"?>
<!DOCTYPE svg PUBLIC "-//W3C//DTD SVG 1.1//EN"
 "http://www.w3.org/Graphics/SVG/1.1/DTD/svg11.dtd">
<!-- Generated by graphviz version 2.43.0 (0)
 -->
<!-- Title: G Pages: 1 -->
<svg width="1492pt" height="1247pt"
 viewBox="0.00 0.00 1492.00 1247.00" xmlns="http://www.w3.org/2000/svg" xmlns:xlink="http://www.w3.org/1999/xlink">
<g id="graph0" class="graph" transform="scale(1 1) rotate(0) translate(4 1243)">
<title>G</title>
<polygon fill="white" stroke="transparent" points="-4,4 -4,-1243 1488,-1243 1488,4 -4,4"/>
<g id="clust1" class="cluster">
<title>cluster6</title>
<polygon fill="none" stroke="black" points="1135,-1007 1135,-1231 1389,-1231 1389,-1007 1135,-1007"/>
<text text-anchor="middle" x="1185.5" y="-1215.8" font-family="Times,serif" font-size="14.00">Box6:Select</text>
</g>
<g id="clust3" class="cluster">
<title>cluster5</title>
<polygon fill="none" stroke="black" points="1007,-775 1007,-999 1261,-999 1261,-775 1007,-775"/>
<text text-anchor="middle" x="1057.5" y="-983.8" font-family="Times,serif" font-size="14.00">Box5:Select</text>
</g>
<g id="clust5" class="cluster">
<title>cluster4</title>
<polygon fill="none" stroke="black" points="536,-543 536,-767 1476,-767 1476,-543 536,-543"/>
<text text-anchor="middle" x="586.5" y="-751.8" font-family="Times,serif" font-size="14.00">Box4:Select</text>
</g>
<g id="clust7" class="cluster">
<title>cluster0</title>
<polygon fill="none" stroke="black" points="316,-311 316,-535 662,-535 662,-311 316,-311"/>
<text text-anchor="middle" x="378.5" y="-519.8" font-family="Times,serif" font-size="14.00">Box0:OuterJoin</text>
</g>
<g id="clust9" class="cluster">
<title>cluster1</title>
<polygon fill="none" stroke="black" points="8,-125 8,-303 420,-303 420,-125 8,-125"/>
<text text-anchor="middle" x="58.5" y="-287.8" font-family="Times,serif" font-size="14.00">Box1:Select</text>
</g>
<g id="clust11" class="cluster">
<title>cluster2</title>
<polygon fill="none" stroke="black" points="27,-8 27,-117 189,-117 189,-8 27,-8"/>
<text text-anchor="middle" x="68.5" y="-101.8" font-family="Times,serif" font-size="14.00">Box2:Get</text>
</g>
<g id="clust13" class="cluster">
<title>cluster3</title>
<polygon fill="none" stroke="black" points="428,-159.5 428,-268.5 590,-268.5 590,-159.5 428,-159.5"/>
<text text-anchor="middle" x="469.5" y="-253.3" font-family="Times,serif" font-size="14.00">Box3:Get</text>
</g>
<!-- boxhead6 -->
<g id="node1" class="node">
<title>boxhead6</title>
<polygon fill="none" stroke="black" points="1235,-1015.5 1235,-1199.5 1381,-1199.5 1381,-1015.5 1235,-1015.5"/>
<text text-anchor="middle" x="1308" y="-1184.3" font-family="Times,serif" font-size="14.00">Distinct: Preserve</text>
<polyline fill="none" stroke="black" points="1235,-1176.5 1381,-1176.5 "/>
<text text-anchor="middle" x="1308" y="-1161.3" font-family="Times,serif" font-size="14.00">0: Q6.C6</text>
<polyline fill="none" stroke="black" points="1235,-1153.5 1381,-1153.5 "/>
<text text-anchor="middle" x="1308" y="-1138.3" font-family="Times,serif" font-size="14.00">1: Q6.C0</text>
<polyline fill="none" stroke="black" points="1235,-1130.5 1381,-1130.5 "/>
<text text-anchor="middle" x="1308" y="-1115.3" font-family="Times,serif" font-size="14.00">2: Q6.C1</text>
<polyline fill="none" stroke="black" points="1235,-1107.5 1381,-1107.5 "/>
<text text-anchor="middle" x="1308" y="-1092.3" font-family="Times,serif" font-size="14.00">3: Q6.C2</text>
<polyline fill="none" stroke="black" points="1235,-1084.5 1381,-1084.5 "/>
<text text-anchor="middle" x="1308" y="-1069.3" font-family="Times,serif" font-size="14.00">4: Q6.C3</text>
<polyline fill="none" stroke="black" points="1235,-1061.5 1381,-1061.5 "/>
<text text-anchor="middle" x="1308" y="-1046.3" font-family="Times,serif" font-size="14.00">5: Q6.C4</text>
<polyline fill="none" stroke="black" points="1235,-1038.5 1381,-1038.5 "/>
<text text-anchor="middle" x="1308" y="-1023.3" font-family="Times,serif" font-size="14.00">6: Q6.C5</text>
</g>
<!-- Q6 -->
<g id="node2" class="node">
<title>Q6</title>
<ellipse fill="none" stroke="black" cx="1180" cy="-1107.5" rx="37.09" ry="37.09"/>
<text text-anchor="middle" x="1180" y="-1103.8" font-family="Times,serif" font-size="14.00">Q6(F)</text>
</g>
<!-- boxhead5 -->
<g id="node3" class="node">
<title>boxhead5</title>
<polygon fill="none" stroke="black" points="1107,-783.5 1107,-967.5 1253,-967.5 1253,-783.5 1107,-783.5"/>
<text text-anchor="middle" x="1180" y="-952.3" font-family="Times,serif" font-size="14.00">Distinct: Preserve</text>
<polyline fill="none" stroke="black" points="1107,-944.5 1253,-944.5 "/>
<text text-anchor="middle" x="1180" y="-929.3" font-family="Times,serif" font-size="14.00">0: Q5.C0</text>
<polyline fill="none" stroke="black" points="1107,-921.5 1253,-921.5 "/>
<text text-anchor="middle" x="1180" y="-906.3" font-family="Times,serif" font-size="14.00">1: Q5.C1</text>
<polyline fill="none" stroke="black" points="1107,-898.5 1253,-898.5 "/>
<text text-anchor="middle" x="1180" y="-883.3" font-family="Times,serif" font-size="14.00">2: Q5.C2</text>
<polyline fill="none" stroke="black" points="1107,-875.5 1253,-875.5 "/>
<text text-anchor="middle" x="1180" y="-860.3" font-family="Times,serif" font-size="14.00">3: Q5.C3</text>
<polyline fill="none" stroke="black" points="1107,-852.5 1253,-852.5 "/>
<text text-anchor="middle" x="1180" y="-837.3" font-family="Times,serif" font-size="14.00">4: Q5.C4</text>
<polyline fill="none" stroke="black" points="1107,-829.5 1253,-829.5 "/>
<text text-anchor="middle" x="1180" y="-814.3" font-family="Times,serif" font-size="14.00">5: Q5.C5</text>
<polyline fill="none" stroke="black" points="1107,-806.5 1253,-806.5 "/>
<text text-anchor="middle" x="1180" y="-791.3" font-family="Times,serif" font-size="14.00">6: &quot;qgm(true)&quot;</text>
</g>
<!-- Q6&#45;&gt;boxhead5 -->
<g id="edge1" class="edge">
<title>Q6&#45;&gt;boxhead5</title>
<path fill="none" stroke="black" stroke-dasharray="5,2" d="M1180,-1070.31C1180,-1050.66 1180,-1025.09 1180,-999"/>
</g>
<!-- Q5 -->
<g id="node4" class="node">
<title>Q5</title>
<ellipse fill="none" stroke="black" cx="1052" cy="-875.5" rx="37.09" ry="37.09"/>
<text text-anchor="middle" x="1052" y="-871.8" font-family="Times,serif" font-size="14.00">Q5(F)</text>
</g>
<!-- boxhead4 -->
<g id="node5" class="node">
<title>boxhead4</title>
<polygon fill="none" stroke="black" points="636,-551.5 636,-735.5 1468,-735.5 1468,-551.5 636,-551.5"/>
<text text-anchor="middle" x="1052" y="-720.3" font-family="Times,serif" font-size="14.00">Distinct: Preserve</text>
<polyline fill="none" stroke="black" points="636,-712.5 1468,-712.5 "/>
<text text-anchor="middle" x="1052" y="-697.3" font-family="Times,serif" font-size="14.00">0: Q4.C0</text>
<polyline fill="none" stroke="black" points="636,-689.5 1468,-689.5 "/>
<text text-anchor="middle" x="1052" y="-674.3" font-family="Times,serif" font-size="14.00">1: Q4.C1</text>
<polyline fill="none" stroke="black" points="636,-666.5 1468,-666.5 "/>
<text text-anchor="middle" x="1052" y="-651.3" font-family="Times,serif" font-size="14.00">2: Q4.C2</text>
<polyline fill="none" stroke="black" points="636,-643.5 1468,-643.5 "/>
<text text-anchor="middle" x="1052" y="-628.3" font-family="Times,serif" font-size="14.00">3: Q4.C3</text>
<polyline fill="none" stroke="black" points="636,-620.5 1468,-620.5 "/>
<text text-anchor="middle" x="1052" y="-605.3" font-family="Times,serif" font-size="14.00">4: Q4.C4</text>
<polyline fill="none" stroke="black" points="636,-597.5 1468,-597.5 "/>
<text text-anchor="middle" x="1052" y="-582.3" font-family="Times,serif" font-size="14.00">5: Q4.C5</text>
<polyline fill="none" stroke="black" points="636,-574.5 1468,-574.5 "/>
<text text-anchor="middle" x="1052" y="-559.3" font-family="Times,serif" font-size="14.00">(((((Q4.C0 = Q4.C2) &amp;&amp; (Q4.C3 = Q4.C0)) &amp;&amp; (Q4.C2 = Q4.C1)) &amp;&amp; (Q4.C2 &lt; Q4.C1)) &amp;&amp; (Q4.C3 = i32tof64(5)))</text>
</g>
<!-- Q5&#45;&gt;boxhead4 -->
<g id="edge2" class="edge">
<title>Q5&#45;&gt;boxhead4</title>
<path fill="none" stroke="black" stroke-dasharray="5,2" d="M1052,-838.31C1052,-818.66 1052,-793.09 1052,-767"/>
</g>
<!-- Q4 -->
<g id="node6" class="node">
<title>Q4</title>
<ellipse fill="none" stroke="black" cx="581" cy="-643.5" rx="37.09" ry="37.09"/>
<text text-anchor="middle" x="581" y="-639.8" font-family="Times,serif" font-size="14.00">Q4(F)</text>
</g>
<!-- boxhead0 -->
<g id="node7" class="node">
<title>boxhead0</title>
<polygon fill="none" stroke="black" points="508,-319.5 508,-503.5 654,-503.5 654,-319.5 508,-319.5"/>
<text text-anchor="middle" x="581" y="-488.3" font-family="Times,serif" font-size="14.00">Distinct: Preserve</text>
<polyline fill="none" stroke="black" points="508,-480.5 654,-480.5 "/>
<text text-anchor="middle" x="581" y="-465.3" font-family="Times,serif" font-size="14.00">0: Q2.C0</text>
<polyline fill="none" stroke="black" points="508,-457.5 654,-457.5 "/>
<text text-anchor="middle" x="581" y="-442.3" font-family="Times,serif" font-size="14.00">1: Q2.C1</text>
<polyline fill="none" stroke="black" points="508,-434.5 654,-434.5 "/>
<text text-anchor="middle" x="581" y="-419.3" font-family="Times,serif" font-size="14.00">2: Q2.C2</text>
<polyline fill="none" stroke="black" points="508,-411.5 654,-411.5 "/>
<text text-anchor="middle" x="581" y="-396.3" font-family="Times,serif" font-size="14.00">3: Q2.C3</text>
<polyline fill="none" stroke="black" points="508,-388.5 654,-388.5 "/>
<text text-anchor="middle" x="581" y="-373.3" font-family="Times,serif" font-size="14.00">4: Q3.C0</text>
<polyline fill="none" stroke="black" points="508,-365.5 654,-365.5 "/>
<text text-anchor="middle" x="581" y="-350.3" font-family="Times,serif" font-size="14.00">5: Q3.C1</text>
<polyline fill="none" stroke="black" points="508,-342.5 654,-342.5 "/>
<text text-anchor="middle" x="581" y="-327.3" font-family="Times,serif" font-size="14.00">true</text>
</g>
<!-- Q4&#45;&gt;boxhead0 -->
<g id="edge3" class="edge">
<title>Q4&#45;&gt;boxhead0</title>
<path fill="none" stroke="black" stroke-dasharray="5,2" d="M581,-606.31C581,-586.66 581,-561.09 581,-535"/>
</g>
<!-- Q2 -->
<g id="node8" class="node">
<title>Q2</title>
<ellipse fill="none" stroke="black" cx="361" cy="-411.5" rx="37.09" ry="37.09"/>
<text text-anchor="middle" x="361" y="-407.8" font-family="Times,serif" font-size="14.00">Q2(P)</text>
</g>
<!-- boxhead1 -->
<g id="node10" class="node">
<title>boxhead1</title>
<polygon fill="none" stroke="black" points="200,-133.5 200,-271.5 412,-271.5 412,-133.5 200,-133.5"/>
<text text-anchor="middle" x="306" y="-256.3" font-family="Times,serif" font-size="14.00">Distinct: Preserve</text>
<polyline fill="none" stroke="black" points="200,-248.5 412,-248.5 "/>
<text text-anchor="middle" x="306" y="-233.3" font-family="Times,serif" font-size="14.00">0: Q0.C0</text>
<polyline fill="none" stroke="black" points="200,-225.5 412,-225.5 "/>
<text text-anchor="middle" x="306" y="-210.3" font-family="Times,serif" font-size="14.00">1: Q0.C1</text>
<polyline fill="none" stroke="black" points="200,-202.5 412,-202.5 "/>
<text text-anchor="middle" x="306" y="-187.3" font-family="Times,serif" font-size="14.00">2: Q1.C0</text>
<polyline fill="none" stroke="black" points="200,-179.5 412,-179.5 "/>
<text text-anchor="middle" x="306" y="-164.3" font-family="Times,serif" font-size="14.00">3: Q1.C1</text>
<polyline fill="none" stroke="black" points="200,-156.5 412,-156.5 "/>
<text text-anchor="middle" x="306" y="-141.3" font-family="Times,serif" font-size="14.00">(true &amp;&amp; (Q0.C0 = Q1.C0))</text>
</g>
<!-- Q2&#45;&gt;boxhead1 -->
<g id="edge4" class="edge">
<title>Q2&#45;&gt;boxhead1</title>
<path fill="none" stroke="black" stroke-dasharray="5,2" d="M351.67,-375.39C346.33,-355.29 339.34,-328.98 332.44,-303"/>
</g>
<!-- Q3 -->
<g id="node9" class="node">
<title>Q3</title>
<ellipse fill="none" stroke="black" cx="453" cy="-411.5" rx="37.09" ry="37.09"/>
<text text-anchor="middle" x="453" y="-407.8" font-family="Times,serif" font-size="14.00">Q3(F)</text>
</g>
<!-- boxhead3 -->
<g id="node14" class="node">
<title>boxhead3</title>
<polygon fill="none" stroke="black" points="436,-168 436,-237 582,-237 582,-168 436,-168"/>
<text text-anchor="middle" x="509" y="-221.8" font-family="Times,serif" font-size="14.00">Distinct: Preserve</text>
<polyline fill="none" stroke="black" points="436,-214 582,-214 "/>
<text text-anchor="middle" x="509" y="-198.8" font-family="Times,serif" font-size="14.00">0: C0</text>
<polyline fill="none" stroke="black" points="436,-191 582,-191 "/>
<text text-anchor="middle" x="509" y="-175.8" font-family="Times,serif" font-size="14.00">1: C1</text>
</g>
<!-- Q3&#45;&gt;boxhead3 -->
<g id="edge5" class="edge">
<title>Q3&#45;&gt;boxhead3</title>
<path fill="none" stroke="black" stroke-dasharray="5,2" d="M462.5,-375.39C470.4,-346.19 481.85,-303.85 491.42,-268.5"/>
</g>
<!-- Q0 -->
<g id="node11" class="node">
<title>Q0</title>
<ellipse fill="none" stroke="black" cx="145" cy="-202.5" rx="37.09" ry="37.09"/>
<text text-anchor="middle" x="145" y="-198.8" font-family="Times,serif" font-size="14.00">Q0(F)</text>
</g>
<!-- boxhead2 -->
<g id="node13" class="node">
<title>boxhead2</title>
<polygon fill="none" stroke="black" points="35,-16.5 35,-85.5 181,-85.5 181,-16.5 35,-16.5"/>
<text text-anchor="middle" x="108" y="-70.3" font-family="Times,serif" font-size="14.00">Distinct: Preserve</text>
<polyline fill="none" stroke="black" points="35,-62.5 181,-62.5 "/>
<text text-anchor="middle" x="108" y="-47.3" font-family="Times,serif" font-size="14.00">0: C0</text>
<polyline fill="none" stroke="black" points="35,-39.5 181,-39.5 "/>
<text text-anchor="middle" x="108" y="-24.3" font-family="Times,serif" font-size="14.00">1: C1</text>
</g>
<!-- Q0&#45;&gt;boxhead2 -->
<g id="edge6" class="edge">
<title>Q0&#45;&gt;boxhead2</title>
<path fill="none" stroke="black" stroke-dasharray="5,2" d="M136.33,-166.45C132.67,-151.68 128.29,-134 124.09,-117"/>
</g>
<!-- Q1 -->
<g id="node12" class="node">
<title>Q1</title>
<ellipse fill="none" stroke="black" cx="53" cy="-202.5" rx="37.09" ry="37.09"/>
<text text-anchor="middle" x="53" y="-198.8" font-family="Times,serif" font-size="14.00">Q1(F)</text>
</g>
<!-- Q1&#45;&gt;boxhead2 -->
<g id="edge7" class="edge">
<title>Q1&#45;&gt;boxhead2</title>
<path fill="none" stroke="black" stroke-dasharray="5,2" d="M65.48,-167.58C71,-152.58 77.67,-134.43 84.09,-117"/>
</g>
</g>
</svg>
