<?xml version="1.0" encoding="UTF-8" standalone="no"?>
<!DOCTYPE svg PUBLIC "-//W3C//DTD SVG 1.1//EN"
 "http://www.w3.org/Graphics/SVG/1.1/DTD/svg11.dtd">
<!-- Generated by graphviz version 2.43.0 (0)
 -->
<!-- Title: G Pages: 1 -->
<svg width="2185pt" height="1931pt"
 viewBox="0.00 0.00 2185.00 1931.00" xmlns="http://www.w3.org/2000/svg" xmlns:xlink="http://www.w3.org/1999/xlink">
<g id="graph0" class="graph" transform="scale(1 1) rotate(0) translate(4 1927)">
<title>G</title>
<polygon fill="white" stroke="transparent" points="-4,4 -4,-1927 2181,-1927 2181,4 -4,4"/>
<!-- node0 -->
<g id="node1" class="node">
<title>node0</title>
<polygon fill="none" stroke="black" points="762,-1854.5 762,-1922.5 863,-1922.5 863,-1854.5 762,-1854.5"/>
<text text-anchor="start" x="770" y="-1907.3" font-family="Times,serif" font-size="14.00">Let l0 =</text>
<text text-anchor="start" x="770" y="-1892.3" font-family="Times,serif" font-size="14.00"> Constant ()</text>
<text text-anchor="start" x="770" y="-1877.3" font-family="Times,serif" font-size="14.00"> types = ()</text>
<text text-anchor="start" x="770" y="-1862.3" font-family="Times,serif" font-size="14.00"> keys = (())</text>
</g>
<!-- node2 -->
<g id="node3" class="node">
<title>node2</title>
<polygon fill="none" stroke="black" points="459.5,-1727 459.5,-1795 803.5,-1795 803.5,-1727 459.5,-1727"/>
<text text-anchor="start" x="467.5" y="-1779.8" font-family="Times,serif" font-size="14.00">Join %0 %1</text>
<text text-anchor="start" x="467.5" y="-1764.8" font-family="Times,serif" font-size="14.00"> implementation = Unimplemented</text>
<text text-anchor="start" x="467.5" y="-1749.8" font-family="Times,serif" font-size="14.00"> types = (double precision?, double precision)</text>
<text text-anchor="start" x="467.5" y="-1734.8" font-family="Times,serif" font-size="14.00"> keys = ()</text>
</g>
<!-- node0&#45;&gt;node2 -->
<g id="edge1" class="edge">
<title>node0&#45;&gt;node2</title>
<path fill="none" stroke="black" d="M764.47,-1854.2C740.86,-1837.83 712.27,-1818 687.65,-1800.93"/>
<polygon fill="black" stroke="black" points="689.34,-1797.84 679.13,-1795.02 685.35,-1803.6 689.34,-1797.84"/>
<text text-anchor="start" x="738.5" y="-1824.8" font-family="Times,serif" font-size="14.00">%0</text>
</g>
<!-- node4 -->
<g id="node5" class="node">
<title>node4</title>
<polygon fill="none" stroke="black" points="821.5,-1727 821.5,-1795 1165.5,-1795 1165.5,-1727 821.5,-1727"/>
<text text-anchor="start" x="829.5" y="-1779.8" font-family="Times,serif" font-size="14.00">Join %0 %3</text>
<text text-anchor="start" x="829.5" y="-1764.8" font-family="Times,serif" font-size="14.00"> implementation = Unimplemented</text>
<text text-anchor="start" x="829.5" y="-1749.8" font-family="Times,serif" font-size="14.00"> types = (double precision?, double precision)</text>
<text text-anchor="start" x="829.5" y="-1734.8" font-family="Times,serif" font-size="14.00"> keys = ()</text>
</g>
<!-- node0&#45;&gt;node4 -->
<g id="edge16" class="edge">
<title>node0&#45;&gt;node4</title>
<path fill="none" stroke="black" d="M847.2,-1854.45C859.75,-1843.23 874.33,-1831.02 888.5,-1821 898.67,-1813.81 909.8,-1806.77 920.88,-1800.2"/>
<polygon fill="black" stroke="black" points="922.86,-1803.1 929.74,-1795.04 919.33,-1797.05 922.86,-1803.1"/>
<text text-anchor="start" x="888.5" y="-1824.8" font-family="Times,serif" font-size="14.00">%0</text>
</g>
<!-- node7 -->
<g id="node8" class="node">
<title>node7</title>
<polygon fill="none" stroke="black" points="1213.5,-1719.5 1213.5,-1802.5 1557.5,-1802.5 1557.5,-1719.5 1213.5,-1719.5"/>
<text text-anchor="start" x="1221.5" y="-1787.3" font-family="Times,serif" font-size="14.00">Let l2 =</text>
<text text-anchor="start" x="1221.5" y="-1772.3" font-family="Times,serif" font-size="14.00"> Join %0 %6</text>
<text text-anchor="start" x="1221.5" y="-1757.3" font-family="Times,serif" font-size="14.00"> implementation = Unimplemented</text>
<text text-anchor="start" x="1221.5" y="-1742.3" font-family="Times,serif" font-size="14.00"> types = (double precision?, double precision)</text>
<text text-anchor="start" x="1221.5" y="-1727.3" font-family="Times,serif" font-size="14.00"> keys = ()</text>
</g>
<!-- node0&#45;&gt;node7 -->
<g id="edge8" class="edge">
<title>node0&#45;&gt;node7</title>
<path fill="none" stroke="black" d="M863.14,-1858.1C866.27,-1856.63 869.4,-1855.25 872.5,-1854 925.36,-1832.6 940.4,-1831.23 996.5,-1821 1074.72,-1806.73 1095.84,-1814.6 1174.5,-1803 1183.88,-1801.62 1193.49,-1800.1 1203.17,-1798.5"/>
<polygon fill="black" stroke="black" points="1204,-1801.91 1213.28,-1796.8 1202.84,-1795.01 1204,-1801.91"/>
<text text-anchor="start" x="996.5" y="-1824.8" font-family="Times,serif" font-size="14.00">%0</text>
</g>
<!-- node1 -->
<g id="node2" class="node">
<title>node1</title>
<polygon fill="none" stroke="black" points="399.5,-1862 399.5,-1915 743.5,-1915 743.5,-1862 399.5,-1862"/>
<text text-anchor="start" x="407.5" y="-1899.8" font-family="Times,serif" font-size="14.00">Get simplify_outer_joins.public.t1 (u118)</text>
<text text-anchor="start" x="407.5" y="-1884.8" font-family="Times,serif" font-size="14.00"> types = (double precision?, double precision)</text>
<text text-anchor="start" x="407.5" y="-1869.8" font-family="Times,serif" font-size="14.00"> keys = ()</text>
</g>
<!-- node1&#45;&gt;node2 -->
<g id="edge20" class="edge">
<title>node1&#45;&gt;node2</title>
<path fill="none" stroke="black" d="M583.79,-1861.8C591.68,-1845.28 602.13,-1823.43 611.23,-1804.39"/>
<polygon fill="black" stroke="black" points="614.42,-1805.83 615.58,-1795.3 608.11,-1802.81 614.42,-1805.83"/>
<text text-anchor="start" x="601.5" y="-1824.8" font-family="Times,serif" font-size="14.00">%1</text>
</g>
<!-- node5 -->
<g id="node6" class="node">
<title>node5</title>
<polygon fill="none" stroke="black" points="222,-1404.5 222,-1667.5 1349,-1667.5 1349,-1404.5 222,-1404.5"/>
<text text-anchor="start" x="230" y="-1652.3" font-family="Times,serif" font-size="14.00">Let l1 =</text>
<text text-anchor="start" x="230" y="-1637.3" font-family="Times,serif" font-size="14.00"> Join %2 %4</text>
<text text-anchor="start" x="230" y="-1622.3" font-family="Times,serif" font-size="14.00"> implementation = Unimplemented</text>
<text text-anchor="start" x="230" y="-1607.3" font-family="Times,serif" font-size="14.00"> types = (double precision?, double precision, double precision?, double precision)</text>
<text text-anchor="start" x="230" y="-1592.3" font-family="Times,serif" font-size="14.00"> keys = ()</text>
<text text-anchor="start" x="230" y="-1577.3" font-family="Times,serif" font-size="14.00"> Project (#0..#3)</text>
<text text-anchor="start" x="230" y="-1562.3" font-family="Times,serif" font-size="14.00"> types = (double precision?, double precision, double precision?, double precision)</text>
<text text-anchor="start" x="230" y="-1547.3" font-family="Times,serif" font-size="14.00"> keys = ()</text>
<text text-anchor="start" x="230" y="-1532.3" font-family="Times,serif" font-size="14.00"> Filter (true &amp;&amp; (#0 = #2))</text>
<text text-anchor="start" x="230" y="-1517.3" font-family="Times,serif" font-size="14.00"> types = (double precision?, double precision, double precision?, double precision)</text>
<text text-anchor="start" x="230" y="-1502.3" font-family="Times,serif" font-size="14.00"> keys = ()</text>
<text text-anchor="start" x="230" y="-1487.3" font-family="Times,serif" font-size="14.00"> Map #0, #1, #2, #3</text>
<text text-anchor="start" x="230" y="-1472.3" font-family="Times,serif" font-size="14.00"> types = (double precision?, double precision, double precision?, double precision, double precision?, double precision, double precision?, double precision)</text>
<text text-anchor="start" x="230" y="-1457.3" font-family="Times,serif" font-size="14.00"> keys = ()</text>
<text text-anchor="start" x="230" y="-1442.3" font-family="Times,serif" font-size="14.00"> Project (#4..#7)</text>
<text text-anchor="start" x="230" y="-1427.3" font-family="Times,serif" font-size="14.00"> types = (double precision?, double precision, double precision?, double precision)</text>
<text text-anchor="start" x="230" y="-1412.3" font-family="Times,serif" font-size="14.00"> keys = ()</text>
</g>
<!-- node2&#45;&gt;node5 -->
<g id="edge13" class="edge">
<title>node2&#45;&gt;node5</title>
<path fill="none" stroke="black" d="M654.56,-1726.61C664.35,-1712.43 676.48,-1694.86 689.38,-1676.18"/>
<polygon fill="black" stroke="black" points="692.35,-1678.04 695.15,-1667.83 686.59,-1674.07 692.35,-1678.04"/>
<text text-anchor="start" x="681.5" y="-1689.8" font-family="Times,serif" font-size="14.00">%2</text>
</g>
<!-- node3 -->
<g id="node4" class="node">
<title>node3</title>
<polygon fill="none" stroke="black" points="881.5,-1862 881.5,-1915 1225.5,-1915 1225.5,-1862 881.5,-1862"/>
<text text-anchor="start" x="889.5" y="-1899.8" font-family="Times,serif" font-size="14.00">Get simplify_outer_joins.public.t1 (u118)</text>
<text text-anchor="start" x="889.5" y="-1884.8" font-family="Times,serif" font-size="14.00"> types = (double precision?, double precision)</text>
<text text-anchor="start" x="889.5" y="-1869.8" font-family="Times,serif" font-size="14.00"> keys = ()</text>
</g>
<!-- node3&#45;&gt;node4 -->
<g id="edge14" class="edge">
<title>node3&#45;&gt;node4</title>
<path fill="none" stroke="black" d="M1041.21,-1861.8C1033.32,-1845.28 1022.87,-1823.43 1013.77,-1804.39"/>
<polygon fill="black" stroke="black" points="1016.89,-1802.81 1009.42,-1795.3 1010.58,-1805.83 1016.89,-1802.81"/>
<text text-anchor="start" x="1028.5" y="-1824.8" font-family="Times,serif" font-size="14.00">%3</text>
</g>
<!-- node4&#45;&gt;node5 -->
<g id="edge18" class="edge">
<title>node4&#45;&gt;node5</title>
<path fill="none" stroke="black" d="M962.36,-1726.61C948.89,-1712.18 932.15,-1694.23 914.38,-1675.18"/>
<polygon fill="black" stroke="black" points="916.91,-1672.75 907.53,-1667.83 911.79,-1677.53 916.91,-1672.75"/>
<text text-anchor="start" x="937.5" y="-1689.8" font-family="Times,serif" font-size="14.00">%4</text>
</g>
<!-- node8 -->
<g id="node9" class="node">
<title>node8</title>
<polygon fill="none" stroke="black" points="917.5,-1179.5 917.5,-1352.5 1783.5,-1352.5 1783.5,-1179.5 917.5,-1179.5"/>
<text text-anchor="start" x="925.5" y="-1337.3" font-family="Times,serif" font-size="14.00">Let l3 =</text>
<text text-anchor="start" x="925.5" y="-1322.3" font-family="Times,serif" font-size="14.00"> Join %5 %7</text>
<text text-anchor="start" x="925.5" y="-1307.3" font-family="Times,serif" font-size="14.00"> implementation = Unimplemented</text>
<text text-anchor="start" x="925.5" y="-1292.3" font-family="Times,serif" font-size="14.00"> types = (double precision?, double precision, double precision?, double precision, double precision?, double precision)</text>
<text text-anchor="start" x="925.5" y="-1277.3" font-family="Times,serif" font-size="14.00"> keys = ()</text>
<text text-anchor="start" x="925.5" y="-1262.3" font-family="Times,serif" font-size="14.00"> Project (#0..#5)</text>
<text text-anchor="start" x="925.5" y="-1247.3" font-family="Times,serif" font-size="14.00"> types = (double precision?, double precision, double precision?, double precision, double precision?, double precision)</text>
<text text-anchor="start" x="925.5" y="-1232.3" font-family="Times,serif" font-size="14.00"> keys = ()</text>
<text text-anchor="start" x="925.5" y="-1217.3" font-family="Times,serif" font-size="14.00"> Filter true</text>
<text text-anchor="start" x="925.5" y="-1202.3" font-family="Times,serif" font-size="14.00"> types = (double precision?, double precision, double precision?, double precision, double precision?, double precision)</text>
<text text-anchor="start" x="925.5" y="-1187.3" font-family="Times,serif" font-size="14.00"> keys = ()</text>
</g>
<!-- node5&#45;&gt;node8 -->
<g id="edge4" class="edge">
<title>node5&#45;&gt;node8</title>
<path fill="none" stroke="black" d="M1060.97,-1404.34C1094.65,-1388.36 1128.47,-1372.32 1160.5,-1357.12"/>
<polygon fill="black" stroke="black" points="1162.4,-1360.1 1169.94,-1352.65 1159.4,-1353.77 1162.4,-1360.1"/>
<text text-anchor="start" x="1118.5" y="-1374.8" font-family="Times,serif" font-size="14.00">%5</text>
</g>
<!-- node10 -->
<g id="node11" class="node">
<title>node10</title>
<polygon fill="none" stroke="black" points="577,-1062.5 577,-1160.5 1182,-1160.5 1182,-1062.5 577,-1062.5"/>
<text text-anchor="start" x="585" y="-1145.3" font-family="Times,serif" font-size="14.00">Get %5 (l1)</text>
<text text-anchor="start" x="585" y="-1130.3" font-family="Times,serif" font-size="14.00"> types = (double precision?, double precision, double precision?, double precision)</text>
<text text-anchor="start" x="585" y="-1115.3" font-family="Times,serif" font-size="14.00"> keys = ()</text>
<text text-anchor="start" x="585" y="-1100.3" font-family="Times,serif" font-size="14.00"> Distinct group=(#0, #1, #2, #3)</text>
<text text-anchor="start" x="585" y="-1085.3" font-family="Times,serif" font-size="14.00"> types = (double precision?, double precision, double precision?, double precision)</text>
<text text-anchor="start" x="585" y="-1070.3" font-family="Times,serif" font-size="14.00"> keys = ((#0..#3))</text>
</g>
<!-- node5&#45;&gt;node10 -->
<g id="edge17" class="edge">
<title>node5&#45;&gt;node10</title>
<path fill="none" stroke="black" d="M814.6,-1404.21C831.98,-1326.09 853.2,-1230.71 866.54,-1170.76"/>
<polygon fill="black" stroke="black" points="870.01,-1171.25 868.77,-1160.73 863.18,-1169.73 870.01,-1171.25"/>
<text text-anchor="start" x="820.5" y="-1374.8" font-family="Times,serif" font-size="14.00">%5</text>
</g>
<!-- node12 -->
<g id="node13" class="node">
<title>node12</title>
<polygon fill="none" stroke="black" points="369,-630.5 369,-743.5 1496,-743.5 1496,-630.5 369,-630.5"/>
<text text-anchor="start" x="377" y="-728.3" font-family="Times,serif" font-size="14.00">Join %11 %5 (= #0 #4) (= #1 #5) (= #2 #6) (= #3 #7)</text>
<text text-anchor="start" x="377" y="-713.3" font-family="Times,serif" font-size="14.00"> implementation = Unimplemented</text>
<text text-anchor="start" x="377" y="-698.3" font-family="Times,serif" font-size="14.00"> types = (double precision?, double precision, double precision?, double precision, double precision?, double precision, double precision?, double precision)</text>
<text text-anchor="start" x="377" y="-683.3" font-family="Times,serif" font-size="14.00"> keys = ()</text>
<text text-anchor="start" x="377" y="-668.3" font-family="Times,serif" font-size="14.00"> Project (#0..#3)</text>
<text text-anchor="start" x="377" y="-653.3" font-family="Times,serif" font-size="14.00"> types = (double precision?, double precision, double precision?, double precision)</text>
<text text-anchor="start" x="377" y="-638.3" font-family="Times,serif" font-size="14.00"> keys = ()</text>
</g>
<!-- node5&#45;&gt;node12 -->
<g id="edge7" class="edge">
<title>node5&#45;&gt;node12</title>
<path fill="none" stroke="black" d="M619.35,-1404.18C586.8,-1364.73 562.5,-1318.15 562.5,-1267 562.5,-1267 562.5,-1267 562.5,-821 562.5,-791.5 604.68,-766.76 660.56,-746.92"/>
<polygon fill="black" stroke="black" points="661.71,-750.23 670.02,-743.66 659.42,-743.61 661.71,-750.23"/>
<text text-anchor="start" x="562.5" y="-968.3" font-family="Times,serif" font-size="14.00">%5</text>
</g>
<!-- node6 -->
<g id="node7" class="node">
<title>node6</title>
<polygon fill="none" stroke="black" points="1243.5,-1862 1243.5,-1915 1587.5,-1915 1587.5,-1862 1243.5,-1862"/>
<text text-anchor="start" x="1251.5" y="-1899.8" font-family="Times,serif" font-size="14.00">Get simplify_outer_joins.public.t2 (u120)</text>
<text text-anchor="start" x="1251.5" y="-1884.8" font-family="Times,serif" font-size="14.00"> types = (double precision?, double precision)</text>
<text text-anchor="start" x="1251.5" y="-1869.8" font-family="Times,serif" font-size="14.00"> keys = ()</text>
</g>
<!-- node6&#45;&gt;node7 -->
<g id="edge19" class="edge">
<title>node6&#45;&gt;node7</title>
<path fill="none" stroke="black" d="M1409.36,-1861.8C1405.97,-1847.65 1401.66,-1829.59 1397.63,-1812.73"/>
<polygon fill="black" stroke="black" points="1401.03,-1811.89 1395.3,-1802.98 1394.22,-1813.52 1401.03,-1811.89"/>
<text text-anchor="start" x="1402.5" y="-1824.8" font-family="Times,serif" font-size="14.00">%6</text>
</g>
<!-- node7&#45;&gt;node8 -->
<g id="edge15" class="edge">
<title>node7&#45;&gt;node8</title>
<path fill="none" stroke="black" d="M1382.61,-1719.24C1377.1,-1641.69 1364.98,-1471.02 1357.31,-1362.95"/>
<polygon fill="black" stroke="black" points="1360.78,-1362.42 1356.58,-1352.69 1353.8,-1362.91 1360.78,-1362.42"/>
<text text-anchor="start" x="1378.5" y="-1532.3" font-family="Times,serif" font-size="14.00">%7</text>
</g>
<!-- node9 -->
<g id="node10" class="node">
<title>node9</title>
<polygon fill="none" stroke="black" points="789.5,-900.5 789.5,-1043.5 1655.5,-1043.5 1655.5,-900.5 789.5,-900.5"/>
<text text-anchor="start" x="797.5" y="-1028.3" font-family="Times,serif" font-size="14.00">Get %8 (l3)</text>
<text text-anchor="start" x="797.5" y="-1013.3" font-family="Times,serif" font-size="14.00"> types = (double precision?, double precision, double precision?, double precision, double precision?, double precision)</text>
<text text-anchor="start" x="797.5" y="-998.3" font-family="Times,serif" font-size="14.00"> keys = ()</text>
<text text-anchor="start" x="797.5" y="-983.3" font-family="Times,serif" font-size="14.00"> Distinct group=(#0, #1, #2, #3)</text>
<text text-anchor="start" x="797.5" y="-968.3" font-family="Times,serif" font-size="14.00"> types = (double precision?, double precision, double precision?, double precision)</text>
<text text-anchor="start" x="797.5" y="-953.3" font-family="Times,serif" font-size="14.00"> keys = ((#0..#3))</text>
<text text-anchor="start" x="797.5" y="-938.3" font-family="Times,serif" font-size="14.00"> Negate</text>
<text text-anchor="start" x="797.5" y="-923.3" font-family="Times,serif" font-size="14.00"> types = (double precision?, double precision, double precision?, double precision)</text>
<text text-anchor="start" x="797.5" y="-908.3" font-family="Times,serif" font-size="14.00"> keys = ()</text>
</g>
<!-- node8&#45;&gt;node9 -->
<g id="edge2" class="edge">
<title>node8&#45;&gt;node9</title>
<path fill="none" stroke="black" d="M1312.96,-1179.36C1295.48,-1139.48 1274.8,-1092.3 1257.63,-1053.13"/>
<polygon fill="black" stroke="black" points="1260.79,-1051.62 1253.57,-1043.87 1254.38,-1054.44 1260.79,-1051.62"/>
<text text-anchor="start" x="1301.5" y="-1107.8" font-family="Times,serif" font-size="14.00">%8</text>
</g>
<!-- node15 -->
<g id="node16" class="node">
<title>node15</title>
<polygon fill="none" stroke="black" points="438,-0.5 438,-458.5 2177,-458.5 2177,-0.5 438,-0.5"/>
<text text-anchor="start" x="446" y="-443.3" font-family="Times,serif" font-size="14.00">Union %8 %14</text>
<text text-anchor="start" x="446" y="-428.3" font-family="Times,serif" font-size="14.00"> types = (double precision?, double precision, double precision?, double precision, double precision?, double precision?)</text>
<text text-anchor="start" x="446" y="-413.3" font-family="Times,serif" font-size="14.00"> keys = ()</text>
<text text-anchor="start" x="446" y="-398.3" font-family="Times,serif" font-size="14.00"> Map #0, #1, #2, #3, #4, #5</text>
<text text-anchor="start" x="446" y="-383.3" font-family="Times,serif" font-size="14.00"> types = (double precision?, double precision, double precision?, double precision, double precision?, double precision?, double precision?, double precision, double precision?, double precision, double precision?, double precision?)</text>
<text text-anchor="start" x="446" y="-368.3" font-family="Times,serif" font-size="14.00"> keys = ()</text>
<text text-anchor="start" x="446" y="-353.3" font-family="Times,serif" font-size="14.00"> Project (#6..#11)</text>
<text text-anchor="start" x="446" y="-338.3" font-family="Times,serif" font-size="14.00"> types = (double precision?, double precision, double precision?, double precision, double precision?, double precision?)</text>
<text text-anchor="start" x="446" y="-323.3" font-family="Times,serif" font-size="14.00"> keys = ()</text>
<text text-anchor="start" x="446" y="-308.3" font-family="Times,serif" font-size="14.00"> Filter (((((#0 = #2) &amp;&amp; (#3 = #0)) &amp;&amp; (#2 = #1)) &amp;&amp; (#2 &lt; #1)) &amp;&amp; (#3 = i32tof64(5)))</text>
<text text-anchor="start" x="446" y="-293.3" font-family="Times,serif" font-size="14.00"> types = (double precision?, double precision, double precision?, double precision, double precision?, double precision?)</text>
<text text-anchor="start" x="446" y="-278.3" font-family="Times,serif" font-size="14.00"> keys = ()</text>
<text text-anchor="start" x="446" y="-263.3" font-family="Times,serif" font-size="14.00"> Map #0, #1, #2, #3, #4, #5</text>
<text text-anchor="start" x="446" y="-248.3" font-family="Times,serif" font-size="14.00"> types = (double precision?, double precision, double precision?, double precision, double precision?, double precision?, double precision?, double precision, double precision?, double precision, double precision?, double precision?)</text>
<text text-anchor="start" x="446" y="-233.3" font-family="Times,serif" font-size="14.00"> keys = ()</text>
<text text-anchor="start" x="446" y="-218.3" font-family="Times,serif" font-size="14.00"> Project (#6..#11)</text>
<text text-anchor="start" x="446" y="-203.3" font-family="Times,serif" font-size="14.00"> types = (double precision?, double precision, double precision?, double precision, double precision?, double precision?)</text>
<text text-anchor="start" x="446" y="-188.3" font-family="Times,serif" font-size="14.00"> keys = ()</text>
<text text-anchor="start" x="446" y="-173.3" font-family="Times,serif" font-size="14.00"> Map #0, #1, #2, #3, #4, #5, &quot;qgm(true)&quot;</text>
<text text-anchor="start" x="446" y="-158.3" font-family="Times,serif" font-size="14.00"> types = (double precision?, double precision, double precision?, double precision, double precision?, double precision?, double precision?, double precision, double precision?, double precision, double precision?, double precision?, text)</text>
<text text-anchor="start" x="446" y="-143.3" font-family="Times,serif" font-size="14.00"> keys = ()</text>
<text text-anchor="start" x="446" y="-128.3" font-family="Times,serif" font-size="14.00"> Project (#6..#12)</text>
<text text-anchor="start" x="446" y="-113.3" font-family="Times,serif" font-size="14.00"> types = (double precision?, double precision, double precision?, double precision, double precision?, double precision?, text)</text>
<text text-anchor="start" x="446" y="-98.3" font-family="Times,serif" font-size="14.00"> keys = ()</text>
<text text-anchor="start" x="446" y="-83.3" font-family="Times,serif" font-size="14.00"> Map #6, #0, #1, #2, #3, #4, #5</text>
<text text-anchor="start" x="446" y="-68.3" font-family="Times,serif" font-size="14.00"> types = (double precision?, double precision, double precision?, double precision, double precision?, double precision?, text, text, double precision?, double precision, double precision?, double precision, double precision?, double precision?)</text>
<text text-anchor="start" x="446" y="-53.3" font-family="Times,serif" font-size="14.00"> keys = ()</text>
<text text-anchor="start" x="446" y="-38.3" font-family="Times,serif" font-size="14.00"> Project (#7..#13)</text>
<text text-anchor="start" x="446" y="-23.3" font-family="Times,serif" font-size="14.00"> types = (text, double precision?, double precision, double precision?, double precision, double precision?, double precision?)</text>
<text text-anchor="start" x="446" y="-8.3" font-family="Times,serif" font-size="14.00"> keys = ()</text>
</g>
<!-- node8&#45;&gt;node15 -->
<g id="edge5" class="edge">
<title>node8&#45;&gt;node15</title>
<path fill="none" stroke="black" d="M1538.89,-1179.48C1614.24,-1131.39 1683.5,-1062.77 1683.5,-973 1683.5,-973 1683.5,-973 1683.5,-543.5 1683.5,-516.41 1677.66,-491.22 1667.45,-467.86"/>
<polygon fill="black" stroke="black" points="1670.55,-466.24 1663.15,-458.66 1664.21,-469.2 1670.55,-466.24"/>
<text text-anchor="start" x="1683.5" y="-765.8" font-family="Times,serif" font-size="14.00">%8</text>
</g>
<!-- node11 -->
<g id="node12" class="node">
<title>node11</title>
<polygon fill="none" stroke="black" points="630,-795.5 630,-848.5 1235,-848.5 1235,-795.5 630,-795.5"/>
<text text-anchor="start" x="638" y="-833.3" font-family="Times,serif" font-size="14.00">Union %9 %10</text>
<text text-anchor="start" x="638" y="-818.3" font-family="Times,serif" font-size="14.00"> types = (double precision?, double precision, double precision?, double precision)</text>
<text text-anchor="start" x="638" y="-803.3" font-family="Times,serif" font-size="14.00"> keys = ()</text>
</g>
<!-- node9&#45;&gt;node11 -->
<g id="edge10" class="edge">
<title>node9&#45;&gt;node11</title>
<path fill="none" stroke="black" d="M1084.29,-900.47C1051.8,-883.88 1018.85,-867.07 991.99,-853.36"/>
<polygon fill="black" stroke="black" points="993.25,-850.08 982.76,-848.65 990.07,-856.31 993.25,-850.08"/>
<text text-anchor="start" x="1042.5" y="-870.8" font-family="Times,serif" font-size="14.00">%9</text>
</g>
<!-- node10&#45;&gt;node11 -->
<g id="edge3" class="edge">
<title>node10&#45;&gt;node11</title>
<path fill="none" stroke="black" d="M763.38,-1062.31C757.69,-1056.82 752.64,-1050.74 748.5,-1044 715.02,-989.46 713.04,-953.28 748.5,-900 762.39,-879.13 783.14,-863.91 805.75,-852.81"/>
<polygon fill="black" stroke="black" points="807.24,-855.97 814.85,-848.6 804.3,-849.62 807.24,-855.97"/>
<text text-anchor="start" x="748.5" y="-968.3" font-family="Times,serif" font-size="14.00">%10</text>
</g>
<!-- node11&#45;&gt;node12 -->
<g id="edge6" class="edge">
<title>node11&#45;&gt;node12</title>
<path fill="none" stroke="black" d="M932.5,-795.36C932.5,-783.4 932.5,-768.56 932.5,-753.77"/>
<polygon fill="black" stroke="black" points="936,-753.57 932.5,-743.57 929,-753.57 936,-753.57"/>
<text text-anchor="start" x="932.5" y="-765.8" font-family="Times,serif" font-size="14.00">%11</text>
</g>
<!-- node14 -->
<g id="node15" class="node">
<title>node14</title>
<polygon fill="none" stroke="black" points="496,-510.5 496,-578.5 1369,-578.5 1369,-510.5 496,-510.5"/>
<text text-anchor="start" x="504" y="-563.3" font-family="Times,serif" font-size="14.00">Join %12 %13</text>
<text text-anchor="start" x="504" y="-548.3" font-family="Times,serif" font-size="14.00"> implementation = Unimplemented</text>
<text text-anchor="start" x="504" y="-533.3" font-family="Times,serif" font-size="14.00"> types = (double precision?, double precision, double precision?, double precision, double precision?, double precision?)</text>
<text text-anchor="start" x="504" y="-518.3" font-family="Times,serif" font-size="14.00"> keys = ()</text>
</g>
<!-- node12&#45;&gt;node14 -->
<g id="edge9" class="edge">
<title>node12&#45;&gt;node14</title>
<path fill="none" stroke="black" d="M932.5,-630.47C932.5,-616.67 932.5,-602.08 932.5,-588.95"/>
<polygon fill="black" stroke="black" points="936,-588.79 932.5,-578.79 929,-588.79 936,-588.79"/>
<text text-anchor="start" x="932.5" y="-600.8" font-family="Times,serif" font-size="14.00">%12</text>
</g>
<!-- node13 -->
<g id="node14" class="node">
<title>node13</title>
<polygon fill="none" stroke="black" points="0,-660.5 0,-713.5 351,-713.5 351,-660.5 0,-660.5"/>
<text text-anchor="start" x="8" y="-698.3" font-family="Times,serif" font-size="14.00">Constant (null, null)</text>
<text text-anchor="start" x="8" y="-683.3" font-family="Times,serif" font-size="14.00"> types = (double precision?, double precision?)</text>
<text text-anchor="start" x="8" y="-668.3" font-family="Times,serif" font-size="14.00"> keys = (())</text>
</g>
<!-- node13&#45;&gt;node14 -->
<g id="edge12" class="edge">
<title>node13&#45;&gt;node14</title>
<path fill="none" stroke="black" d="M250.47,-660.41C283.59,-649.83 323.17,-638.16 359.5,-630 450.17,-609.64 550.04,-592.96 640.66,-579.97"/>
<polygon fill="black" stroke="black" points="641.4,-583.4 650.81,-578.53 640.42,-576.47 641.4,-583.4"/>
<text text-anchor="start" x="516.5" y="-600.8" font-family="Times,serif" font-size="14.00">%13</text>
</g>
<!-- node14&#45;&gt;node15 -->
<g id="edge11" class="edge">
<title>node14&#45;&gt;node15</title>
<path fill="none" stroke="black" d="M972.28,-510.3C987.39,-497.69 1005.98,-482.17 1026.6,-464.96"/>
<polygon fill="black" stroke="black" points="1028.85,-467.64 1034.28,-458.54 1024.36,-462.27 1028.85,-467.64"/>
<text text-anchor="start" x="1003.5" y="-480.8" font-family="Times,serif" font-size="14.00">%14</text>
</g>
</g>
</svg>
