<?xml version="1.0" encoding="UTF-8" standalone="no"?>
<!DOCTYPE svg PUBLIC "-//W3C//DTD SVG 1.1//EN"
 "http://www.w3.org/Graphics/SVG/1.1/DTD/svg11.dtd">
<!-- Generated by graphviz version 2.43.0 (0)
 -->
<!-- Title: G Pages: 1 -->
<svg width="1076pt" height="407pt"
 viewBox="0.00 0.00 1076.00 407.00" xmlns="http://www.w3.org/2000/svg" xmlns:xlink="http://www.w3.org/1999/xlink">
<g id="graph0" class="graph" transform="scale(1 1) rotate(0) translate(4 403)">
<title>G</title>
<polygon fill="white" stroke="transparent" points="-4,4 -4,-403 1072,-403 1072,4 -4,4"/>
<!-- node0 -->
<g id="node1" class="node">
<title>node0</title>
<polygon fill="none" stroke="black" points="0,-233 0,-376 344,-376 344,-233 0,-233"/>
<text text-anchor="start" x="8" y="-360.8" font-family="Times,serif" font-size="14.00">Get simplify_outer_joins.public.t1 (u118)</text>
<text text-anchor="start" x="8" y="-345.8" font-family="Times,serif" font-size="14.00"> types = (double precision?, double precision)</text>
<text text-anchor="start" x="8" y="-330.8" font-family="Times,serif" font-size="14.00"> keys = ()</text>
<text text-anchor="start" x="8" y="-315.8" font-family="Times,serif" font-size="14.00"> Filter (#0 = 5), (#1 = 5), (5 &lt; #1)</text>
<text text-anchor="start" x="8" y="-300.8" font-family="Times,serif" font-size="14.00"> types = (double precision, double precision)</text>
<text text-anchor="start" x="8" y="-285.8" font-family="Times,serif" font-size="14.00"> keys = ()</text>
<text text-anchor="start" x="8" y="-270.8" font-family="Times,serif" font-size="14.00"> ArrangeBy ()</text>
<text text-anchor="start" x="8" y="-255.8" font-family="Times,serif" font-size="14.00"> types = (double precision, double precision)</text>
<text text-anchor="start" x="8" y="-240.8" font-family="Times,serif" font-size="14.00"> keys = ()</text>
</g>
<!-- node3 -->
<g id="node4" class="node">
<title>node3</title>
<polygon fill="none" stroke="black" points="90,-0.5 90,-158.5 978,-158.5 978,-0.5 90,-0.5"/>
<text text-anchor="start" x="98" y="-143.3" font-family="Times,serif" font-size="14.00">Join %0 %1 %2</text>
<text text-anchor="start" x="98" y="-128.3" font-family="Times,serif" font-size="14.00"> implementation = Differential %2 %0.() %1.()</text>
<text text-anchor="start" x="98" y="-113.3" font-family="Times,serif" font-size="14.00"> types = (double precision, double precision, double precision, double precision?, double precision)</text>
<text text-anchor="start" x="98" y="-98.3" font-family="Times,serif" font-size="14.00"> keys = ()</text>
<text text-anchor="start" x="98" y="-83.3" font-family="Times,serif" font-size="14.00"> Map &quot;qgm(true)&quot;</text>
<text text-anchor="start" x="98" y="-68.3" font-family="Times,serif" font-size="14.00"> types = (double precision, double precision, double precision, double precision?, double precision, text)</text>
<text text-anchor="start" x="98" y="-53.3" font-family="Times,serif" font-size="14.00"> keys = ()</text>
<text text-anchor="start" x="98" y="-38.3" font-family="Times,serif" font-size="14.00"> Project (#5, #0, #1, #0, #2..#4)</text>
<text text-anchor="start" x="98" y="-23.3" font-family="Times,serif" font-size="14.00"> types = (text, double precision, double precision, double precision, double precision, double precision?, double precision)</text>
<text text-anchor="start" x="98" y="-8.3" font-family="Times,serif" font-size="14.00"> keys = ()</text>
</g>
<!-- node0&#45;&gt;node3 -->
<g id="edge1" class="edge">
<title>node0&#45;&gt;node3</title>
<path fill="none" stroke="black" d="M286.54,-232.94C322.11,-211.03 361.66,-186.66 398.52,-163.96"/>
<polygon fill="black" stroke="black" points="400.65,-166.76 407.33,-158.53 396.98,-160.8 400.65,-166.76"/>
<text text-anchor="start" x="375" y="-180.8" font-family="Times,serif" font-size="14.00">%0</text>
</g>
<!-- node1 -->
<g id="node2" class="node">
<title>node1</title>
<polygon fill="none" stroke="black" points="362,-210.5 362,-398.5 706,-398.5 706,-210.5 362,-210.5"/>
<text text-anchor="start" x="370" y="-383.3" font-family="Times,serif" font-size="14.00">Get simplify_outer_joins.public.t1 (u118)</text>
<text text-anchor="start" x="370" y="-368.3" font-family="Times,serif" font-size="14.00"> types = (double precision?, double precision)</text>
<text text-anchor="start" x="370" y="-353.3" font-family="Times,serif" font-size="14.00"> keys = ()</text>
<text text-anchor="start" x="370" y="-338.3" font-family="Times,serif" font-size="14.00"> Filter (#0 = 5), (#1 = 5)</text>
<text text-anchor="start" x="370" y="-323.3" font-family="Times,serif" font-size="14.00"> types = (double precision, double precision)</text>
<text text-anchor="start" x="370" y="-308.3" font-family="Times,serif" font-size="14.00"> keys = ()</text>
<text text-anchor="start" x="370" y="-293.3" font-family="Times,serif" font-size="14.00"> Project (#1)</text>
<text text-anchor="start" x="370" y="-278.3" font-family="Times,serif" font-size="14.00"> types = (double precision)</text>
<text text-anchor="start" x="370" y="-263.3" font-family="Times,serif" font-size="14.00"> keys = ()</text>
<text text-anchor="start" x="370" y="-248.3" font-family="Times,serif" font-size="14.00"> ArrangeBy ()</text>
<text text-anchor="start" x="370" y="-233.3" font-family="Times,serif" font-size="14.00"> types = (double precision)</text>
<text text-anchor="start" x="370" y="-218.3" font-family="Times,serif" font-size="14.00"> keys = ()</text>
</g>
<!-- node1&#45;&gt;node3 -->
<g id="edge2" class="edge">
<title>node1&#45;&gt;node3</title>
<path fill="none" stroke="black" d="M534,-210.22C534,-196.52 534,-182.45 534,-168.86"/>
<polygon fill="black" stroke="black" points="537.5,-168.57 534,-158.57 530.5,-168.57 537.5,-168.57"/>
<text text-anchor="start" x="534" y="-180.8" font-family="Times,serif" font-size="14.00">%1</text>
</g>
<!-- node2 -->
<g id="node3" class="node">
<title>node2</title>
<polygon fill="none" stroke="black" points="724,-278 724,-331 1068,-331 1068,-278 724,-278"/>
<text text-anchor="start" x="732" y="-315.8" font-family="Times,serif" font-size="14.00">Get simplify_outer_joins.public.t2 (u120)</text>
<text text-anchor="start" x="732" y="-300.8" font-family="Times,serif" font-size="14.00"> types = (double precision?, double precision)</text>
<text text-anchor="start" x="732" y="-285.8" font-family="Times,serif" font-size="14.00"> keys = ()</text>
</g>
<!-- node2&#45;&gt;node3 -->
<g id="edge3" class="edge">
<title>node2&#45;&gt;node3</title>
<path fill="none" stroke="black" d="M854.47,-277.92C809.51,-250.22 735.4,-204.57 669.77,-164.14"/>
<polygon fill="black" stroke="black" points="671.33,-160.99 660.98,-158.72 667.66,-166.95 671.33,-160.99"/>
<text text-anchor="start" x="715" y="-180.8" font-family="Times,serif" font-size="14.00">%2</text>
</g>
</g>
</svg>
