<?xml version="1.0" encoding="UTF-8" standalone="no"?>
<!DOCTYPE svg PUBLIC "-//W3C//DTD SVG 1.1//EN"
 "http://www.w3.org/Graphics/SVG/1.1/DTD/svg11.dtd">
<!-- Generated by graphviz version 2.43.0 (0)
 -->
<!-- Title: G Pages: 1 -->
<svg width="1068pt" height="407pt"
 viewBox="0.00 0.00 1068.00 407.00" xmlns="http://www.w3.org/2000/svg" xmlns:xlink="http://www.w3.org/1999/xlink">
<g id="graph0" class="graph" transform="scale(1 1) rotate(0) translate(4 403)">
<title>G</title>
<polygon fill="white" stroke="transparent" points="-4,4 -4,-403 1064,-403 1064,4 -4,4"/>
<!-- node0 -->
<g id="node1" class="node">
<title>node0</title>
<polygon fill="none" stroke="black" points="0,-345.5 0,-398.5 344,-398.5 344,-345.5 0,-345.5"/>
<text text-anchor="start" x="8" y="-383.3" font-family="Times,serif" font-size="14.00">Get simplify_outer_joins.public.t1 (u118)</text>
<text text-anchor="start" x="8" y="-368.3" font-family="Times,serif" font-size="14.00"> types = (double precision?, double precision)</text>
<text text-anchor="start" x="8" y="-353.3" font-family="Times,serif" font-size="14.00"> keys = ()</text>
</g>
<!-- node2 -->
<g id="node3" class="node">
<title>node2</title>
<polygon fill="none" stroke="black" points="47,-240.5 47,-293.5 659,-293.5 659,-240.5 47,-240.5"/>
<text text-anchor="start" x="55" y="-278.3" font-family="Times,serif" font-size="14.00">LeftOuterJoin %0 %1 on (true &amp;&amp; (#0 = #2))</text>
<text text-anchor="start" x="55" y="-263.3" font-family="Times,serif" font-size="14.00"> types = (double precision?, double precision, double precision?, double precision?)</text>
<text text-anchor="start" x="55" y="-248.3" font-family="Times,serif" font-size="14.00"> keys = ()</text>
</g>
<!-- node0&#45;&gt;node2 -->
<g id="edge3" class="edge">
<title>node0&#45;&gt;node2</title>
<path fill="none" stroke="black" d="M217.21,-345.27C242.03,-331.15 272.97,-313.54 299.05,-298.7"/>
<polygon fill="black" stroke="black" points="301.1,-301.56 308.06,-293.58 297.63,-295.48 301.1,-301.56"/>
<text text-anchor="start" x="274" y="-315.8" font-family="Times,serif" font-size="14.00">%0</text>
</g>
<!-- node1 -->
<g id="node2" class="node">
<title>node1</title>
<polygon fill="none" stroke="black" points="362,-345.5 362,-398.5 706,-398.5 706,-345.5 362,-345.5"/>
<text text-anchor="start" x="370" y="-383.3" font-family="Times,serif" font-size="14.00">Get simplify_outer_joins.public.t1 (u118)</text>
<text text-anchor="start" x="370" y="-368.3" font-family="Times,serif" font-size="14.00"> types = (double precision?, double precision)</text>
<text text-anchor="start" x="370" y="-353.3" font-family="Times,serif" font-size="14.00"> keys = ()</text>
</g>
<!-- node1&#45;&gt;node2 -->
<g id="edge2" class="edge">
<title>node1&#45;&gt;node2</title>
<path fill="none" stroke="black" d="M488.79,-345.27C463.97,-331.15 433.03,-313.54 406.95,-298.7"/>
<polygon fill="black" stroke="black" points="408.37,-295.48 397.94,-293.58 404.9,-301.56 408.37,-295.48"/>
<text text-anchor="start" x="455" y="-315.8" font-family="Times,serif" font-size="14.00">%1</text>
</g>
<!-- node4 -->
<g id="node5" class="node">
<title>node4</title>
<polygon fill="none" stroke="black" points="142,-0.5 142,-188.5 1060,-188.5 1060,-0.5 142,-0.5"/>
<text text-anchor="start" x="150" y="-173.3" font-family="Times,serif" font-size="14.00">LeftOuterJoin %2 %3 on true</text>
<text text-anchor="start" x="150" y="-158.3" font-family="Times,serif" font-size="14.00"> types = (double precision?, double precision, double precision?, double precision?, double precision?, double precision?)</text>
<text text-anchor="start" x="150" y="-143.3" font-family="Times,serif" font-size="14.00"> keys = ()</text>
<text text-anchor="start" x="150" y="-128.3" font-family="Times,serif" font-size="14.00"> Filter (((((#0 = #2) &amp;&amp; (#3 = #0)) &amp;&amp; (#2 = #1)) &amp;&amp; (#2 &lt; #1)) &amp;&amp; (#3 = i32tof64(5)))</text>
<text text-anchor="start" x="150" y="-113.3" font-family="Times,serif" font-size="14.00"> types = (double precision?, double precision, double precision?, double precision?, double precision?, double precision?)</text>
<text text-anchor="start" x="150" y="-98.3" font-family="Times,serif" font-size="14.00"> keys = ()</text>
<text text-anchor="start" x="150" y="-83.3" font-family="Times,serif" font-size="14.00"> Map &quot;qgm(true)&quot;</text>
<text text-anchor="start" x="150" y="-68.3" font-family="Times,serif" font-size="14.00"> types = (double precision?, double precision, double precision?, double precision?, double precision?, double precision?, text)</text>
<text text-anchor="start" x="150" y="-53.3" font-family="Times,serif" font-size="14.00"> keys = ()</text>
<text text-anchor="start" x="150" y="-38.3" font-family="Times,serif" font-size="14.00"> Project (#6, #0..#5)</text>
<text text-anchor="start" x="150" y="-23.3" font-family="Times,serif" font-size="14.00"> types = (text, double precision?, double precision, double precision?, double precision?, double precision?, double precision?)</text>
<text text-anchor="start" x="150" y="-8.3" font-family="Times,serif" font-size="14.00"> keys = ()</text>
</g>
<!-- node2&#45;&gt;node4 -->
<g id="edge1" class="edge">
<title>node2&#45;&gt;node4</title>
<path fill="none" stroke="black" d="M390.13,-240.47C408.64,-227.75 432.35,-211.45 457.14,-194.4"/>
<polygon fill="black" stroke="black" points="459.33,-197.15 465.58,-188.6 455.36,-191.38 459.33,-197.15"/>
<text text-anchor="start" x="434" y="-210.8" font-family="Times,serif" font-size="14.00">%2</text>
</g>
<!-- node3 -->
<g id="node4" class="node">
<title>node3</title>
<polygon fill="none" stroke="black" points="677,-240.5 677,-293.5 1021,-293.5 1021,-240.5 677,-240.5"/>
<text text-anchor="start" x="685" y="-278.3" font-family="Times,serif" font-size="14.00">Get simplify_outer_joins.public.t2 (u120)</text>
<text text-anchor="start" x="685" y="-263.3" font-family="Times,serif" font-size="14.00"> types = (double precision?, double precision)</text>
<text text-anchor="start" x="685" y="-248.3" font-family="Times,serif" font-size="14.00"> keys = ()</text>
</g>
<!-- node3&#45;&gt;node4 -->
<g id="edge4" class="edge">
<title>node3&#45;&gt;node4</title>
<path fill="none" stroke="black" d="M811.87,-240.47C793.36,-227.75 769.65,-211.45 744.86,-194.4"/>
<polygon fill="black" stroke="black" points="746.64,-191.38 736.42,-188.6 742.67,-197.15 746.64,-191.38"/>
<text text-anchor="start" x="782" y="-210.8" font-family="Times,serif" font-size="14.00">%3</text>
</g>
</g>
</svg>
