<?xml version="1.0" encoding="UTF-8" standalone="no"?>
<!DOCTYPE svg PUBLIC "-//W3C//DTD SVG 1.1//EN"
 "http://www.w3.org/Graphics/SVG/1.1/DTD/svg11.dtd">
<!-- Generated by graphviz version 2.43.0 (0)
 -->
<!-- Title: G Pages: 1 -->
<svg width="904pt" height="551pt"
 viewBox="0.00 0.00 903.50 551.00" xmlns="http://www.w3.org/2000/svg" xmlns:xlink="http://www.w3.org/1999/xlink">
<g id="graph0" class="graph" transform="scale(1 1) rotate(0) translate(4 547)">
<title>G</title>
<polygon fill="white" stroke="transparent" points="-4,4 -4,-547 899.5,-547 899.5,4 -4,4"/>
<!-- node0 -->
<g id="node1" class="node">
<title>node0</title>
<polygon fill="none" stroke="black" points="530,-506.5 530,-542.5 626,-542.5 626,-506.5 530,-506.5"/>
<text text-anchor="start" x="538" y="-520.8" font-family="Times,serif" font-size="14.00">Constant ()</text>
</g>
<!-- node2 -->
<g id="node3" class="node">
<title>node2</title>
<polygon fill="none" stroke="black" points="17,-416.5 17,-454.5 291,-454.5 291,-416.5 17,-416.5"/>
<text text-anchor="start" x="25" y="-439.3" font-family="Times,serif" font-size="14.00">Join %0 %1</text>
<text text-anchor="start" x="25" y="-424.3" font-family="Times,serif" font-size="14.00">&#45; implementation = Unimplemented</text>
</g>
<!-- node0&#45;&gt;node2 -->
<g id="edge4" class="edge">
<title>node0&#45;&gt;node2</title>
<path fill="none" stroke="black" d="M529.76,-508.49C512.3,-502.63 492.56,-495.52 475,-488 461.66,-482.29 459.86,-477.29 446,-473 386.47,-454.58 366.72,-462.29 301.18,-455.07"/>
<polygon fill="black" stroke="black" points="301.5,-451.59 291.16,-453.89 300.69,-458.54 301.5,-451.59"/>
<text text-anchor="start" x="475" y="-476.8" font-family="Times,serif" font-size="14.00">%0</text>
</g>
<!-- node4 -->
<g id="node5" class="node">
<title>node4</title>
<polygon fill="none" stroke="black" points="309,-416.5 309,-454.5 583,-454.5 583,-416.5 309,-416.5"/>
<text text-anchor="start" x="317" y="-439.3" font-family="Times,serif" font-size="14.00">Join %0 %3</text>
<text text-anchor="start" x="317" y="-424.3" font-family="Times,serif" font-size="14.00">&#45; implementation = Unimplemented</text>
</g>
<!-- node0&#45;&gt;node4 -->
<g id="edge9" class="edge">
<title>node0&#45;&gt;node4</title>
<path fill="none" stroke="black" d="M552.36,-506.38C537.64,-496.58 518.81,-484.06 502,-473 495.74,-468.88 489.06,-464.51 482.59,-460.28"/>
<polygon fill="black" stroke="black" points="484.23,-457.18 473.95,-454.65 480.41,-463.04 484.23,-457.18"/>
<text text-anchor="start" x="522" y="-476.8" font-family="Times,serif" font-size="14.00">%0</text>
</g>
<!-- node8 -->
<g id="node9" class="node">
<title>node8</title>
<polygon fill="none" stroke="black" points="601,-416.5 601,-454.5 875,-454.5 875,-416.5 601,-416.5"/>
<text text-anchor="start" x="609" y="-439.3" font-family="Times,serif" font-size="14.00">Join %0 %7</text>
<text text-anchor="start" x="609" y="-424.3" font-family="Times,serif" font-size="14.00">&#45; implementation = Unimplemented</text>
</g>
<!-- node0&#45;&gt;node8 -->
<g id="edge11" class="edge">
<title>node0&#45;&gt;node8</title>
<path fill="none" stroke="black" d="M609.61,-506.31C634.32,-492.88 668.9,-474.07 695.94,-459.37"/>
<polygon fill="black" stroke="black" points="697.69,-462.4 704.8,-454.55 694.35,-456.25 697.69,-462.4"/>
<text text-anchor="start" x="667" y="-476.8" font-family="Times,serif" font-size="14.00">%0</text>
</g>
<!-- node1 -->
<g id="node2" class="node">
<title>node1</title>
<polygon fill="none" stroke="black" points="0,-506.5 0,-542.5 242,-542.5 242,-506.5 0,-506.5"/>
<text text-anchor="start" x="8" y="-520.8" font-family="Times,serif" font-size="14.00">Get optimizer_101.public.a (u9)</text>
</g>
<!-- node1&#45;&gt;node2 -->
<g id="edge1" class="edge">
<title>node1&#45;&gt;node2</title>
<path fill="none" stroke="black" d="M127.52,-506.31C132.08,-494.28 138.28,-477.94 143.53,-464.09"/>
<polygon fill="black" stroke="black" points="146.88,-465.14 147.15,-454.55 140.33,-462.66 146.88,-465.14"/>
<text text-anchor="start" x="140" y="-476.8" font-family="Times,serif" font-size="14.00">%1</text>
</g>
<!-- node5 -->
<g id="node6" class="node">
<title>node5</title>
<polygon fill="none" stroke="black" points="309,-296.5 309,-364.5 583,-364.5 583,-296.5 309,-296.5"/>
<text text-anchor="start" x="317" y="-349.3" font-family="Times,serif" font-size="14.00">Join %2 %4</text>
<text text-anchor="start" x="317" y="-334.3" font-family="Times,serif" font-size="14.00">&#45; implementation = Unimplemented</text>
<text text-anchor="start" x="317" y="-319.3" font-family="Times,serif" font-size="14.00">Project (#0..=#4)</text>
<text text-anchor="start" x="317" y="-304.3" font-family="Times,serif" font-size="14.00">Filter true</text>
</g>
<!-- node2&#45;&gt;node5 -->
<g id="edge3" class="edge">
<title>node2&#45;&gt;node5</title>
<path fill="none" stroke="black" d="M205.2,-416.44C243.15,-403.05 296.15,-384.36 342.77,-367.91"/>
<polygon fill="black" stroke="black" points="344.04,-371.18 352.31,-364.55 341.72,-364.57 344.04,-371.18"/>
<text text-anchor="start" x="300" y="-386.8" font-family="Times,serif" font-size="14.00">%2</text>
</g>
<!-- node3 -->
<g id="node4" class="node">
<title>node3</title>
<polygon fill="none" stroke="black" points="260,-506.5 260,-542.5 512,-542.5 512,-506.5 260,-506.5"/>
<text text-anchor="start" x="268" y="-520.8" font-family="Times,serif" font-size="14.00">Get optimizer_101.public.b (u10)</text>
</g>
<!-- node3&#45;&gt;node4 -->
<g id="edge6" class="edge">
<title>node3&#45;&gt;node4</title>
<path fill="none" stroke="black" d="M397.85,-506.31C406.4,-493.93 418.08,-476.98 427.8,-462.89"/>
<polygon fill="black" stroke="black" points="430.75,-464.77 433.55,-454.55 424.99,-460.8 430.75,-464.77"/>
<text text-anchor="start" x="419" y="-476.8" font-family="Times,serif" font-size="14.00">%3</text>
</g>
<!-- node4&#45;&gt;node5 -->
<g id="edge10" class="edge">
<title>node4&#45;&gt;node5</title>
<path fill="none" stroke="black" d="M446,-416.09C446,-404.63 446,-389.39 446,-375"/>
<polygon fill="black" stroke="black" points="449.5,-374.74 446,-364.74 442.5,-374.74 449.5,-374.74"/>
<text text-anchor="start" x="446" y="-386.8" font-family="Times,serif" font-size="14.00">%4</text>
</g>
<!-- node6 -->
<g id="node7" class="node">
<title>node6</title>
<polygon fill="none" stroke="black" points="565,-208.5 565,-244.5 619,-244.5 619,-208.5 565,-208.5"/>
</g>
<!-- node5&#45;&gt;node6 -->
<g id="edge8" class="edge">
<title>node5&#45;&gt;node6</title>
<path fill="none" stroke="black" d="M493.4,-296.38C514.87,-281.38 539.72,-264.02 559.1,-250.48"/>
<polygon fill="black" stroke="black" points="561.13,-253.34 567.32,-244.74 557.12,-247.6 561.13,-253.34"/>
<text text-anchor="start" x="540" y="-266.8" font-family="Times,serif" font-size="14.00">%5</text>
</g>
<!-- node9 -->
<g id="node10" class="node">
<title>node9</title>
<polygon fill="none" stroke="black" points="510,-88.5 510,-156.5 784,-156.5 784,-88.5 510,-88.5"/>
<text text-anchor="start" x="518" y="-141.3" font-family="Times,serif" font-size="14.00">Join %6 %8</text>
<text text-anchor="start" x="518" y="-126.3" font-family="Times,serif" font-size="14.00">&#45; implementation = Unimplemented</text>
<text text-anchor="start" x="518" y="-111.3" font-family="Times,serif" font-size="14.00">Project (#0..=#5)</text>
<text text-anchor="start" x="518" y="-96.3" font-family="Times,serif" font-size="14.00">Filter true</text>
</g>
<!-- node6&#45;&gt;node9 -->
<g id="edge5" class="edge">
<title>node6&#45;&gt;node9</title>
<path fill="none" stroke="black" d="M601.33,-208.2C607.62,-196.52 616.22,-180.59 624.25,-165.69"/>
<polygon fill="black" stroke="black" points="627.49,-167.05 629.16,-156.59 621.33,-163.73 627.49,-167.05"/>
<text text-anchor="start" x="617" y="-178.8" font-family="Times,serif" font-size="14.00">%6</text>
</g>
<!-- node7 -->
<g id="node8" class="node">
<title>node7</title>
<polygon fill="none" stroke="black" points="644.5,-506.5 644.5,-542.5 895.5,-542.5 895.5,-506.5 644.5,-506.5"/>
<text text-anchor="start" x="652.5" y="-520.8" font-family="Times,serif" font-size="14.00">Get optimizer_101.public.c (u11)</text>
</g>
<!-- node7&#45;&gt;node8 -->
<g id="edge7" class="edge">
<title>node7&#45;&gt;node8</title>
<path fill="none" stroke="black" d="M763.68,-506.31C759.25,-494.28 753.24,-477.94 748.15,-464.09"/>
<polygon fill="black" stroke="black" points="751.38,-462.73 744.64,-454.55 744.81,-465.14 751.38,-462.73"/>
<text text-anchor="start" x="756" y="-476.8" font-family="Times,serif" font-size="14.00">%7</text>
</g>
<!-- node8&#45;&gt;node9 -->
<g id="edge2" class="edge">
<title>node8&#45;&gt;node9</title>
<path fill="none" stroke="black" d="M732.71,-416.44C718.6,-368.18 679.71,-235.28 659.52,-166.3"/>
<polygon fill="black" stroke="black" points="662.85,-165.22 656.69,-156.61 656.14,-167.19 662.85,-165.22"/>
<text text-anchor="start" x="691" y="-266.8" font-family="Times,serif" font-size="14.00">%8</text>
</g>
<!-- node10 -->
<g id="node11" class="node">
<title>node10</title>
<polygon fill="none" stroke="black" points="520.5,-0.5 520.5,-36.5 773.5,-36.5 773.5,-0.5 520.5,-0.5"/>
<text text-anchor="start" x="528.5" y="-14.8" font-family="Times,serif" font-size="14.00">Filter ((#0 = #3) &amp;&amp; (#4 = #5))</text>
</g>
<!-- node9&#45;&gt;node10 -->
<g id="edge12" class="edge">
<title>node9&#45;&gt;node10</title>
<path fill="none" stroke="black" d="M647,-88.38C647,-74.93 647,-59.58 647,-46.79"/>
<polygon fill="black" stroke="black" points="650.5,-46.74 647,-36.74 643.5,-46.74 650.5,-46.74"/>
<text text-anchor="start" x="647" y="-58.8" font-family="Times,serif" font-size="14.00">%9</text>
</g>
</g>
</svg>
