<?xml version="1.0" encoding="UTF-8" standalone="no"?>
<!DOCTYPE svg PUBLIC "-//W3C//DTD SVG 1.1//EN"
 "http://www.w3.org/Graphics/SVG/1.1/DTD/svg11.dtd">
<!-- Generated by graphviz version 2.43.0 (0)
 -->
<!-- Title: G Pages: 1 -->
<svg width="627pt" height="223pt"
 viewBox="0.00 0.00 626.50 223.00" xmlns="http://www.w3.org/2000/svg" xmlns:xlink="http://www.w3.org/1999/xlink">
<g id="graph0" class="graph" transform="scale(1 1) rotate(0) translate(4 219)">
<title>G</title>
<polygon fill="white" stroke="transparent" points="-4,4 -4,-219 622.5,-219 622.5,4 -4,4"/>
<!-- node0 -->
<g id="node1" class="node">
<title>node0</title>
<polygon fill="none" stroke="black" points="0,-178.5 0,-214.5 242,-214.5 242,-178.5 0,-178.5"/>
<text text-anchor="start" x="8" y="-192.8" font-family="Times,serif" font-size="14.00">Get optimizer_101.public.a (u9)</text>
</g>
<!-- node2 -->
<g id="node3" class="node">
<title>node2</title>
<polygon fill="none" stroke="black" points="157,-90.5 157,-126.5 349,-126.5 349,-90.5 157,-90.5"/>
<text text-anchor="start" x="165" y="-104.8" font-family="Times,serif" font-size="14.00">InnerJoin %0 %1 on true</text>
</g>
<!-- node0&#45;&gt;node2 -->
<g id="edge4" class="edge">
<title>node0&#45;&gt;node2</title>
<path fill="none" stroke="black" d="M147.39,-178.3C167.72,-165.06 196,-146.64 218.17,-132.19"/>
<polygon fill="black" stroke="black" points="220.18,-135.06 226.65,-126.67 216.36,-129.19 220.18,-135.06"/>
<text text-anchor="start" x="195" y="-148.8" font-family="Times,serif" font-size="14.00">%0</text>
</g>
<!-- node1 -->
<g id="node2" class="node">
<title>node1</title>
<polygon fill="none" stroke="black" points="260,-178.5 260,-214.5 512,-214.5 512,-178.5 260,-178.5"/>
<text text-anchor="start" x="268" y="-192.8" font-family="Times,serif" font-size="14.00">Get optimizer_101.public.b (u10)</text>
</g>
<!-- node1&#45;&gt;node2 -->
<g id="edge1" class="edge">
<title>node1&#45;&gt;node2</title>
<path fill="none" stroke="black" d="M359.41,-178.3C338.93,-165.06 310.44,-146.64 288.09,-132.19"/>
<polygon fill="black" stroke="black" points="289.85,-129.16 279.55,-126.67 286.05,-135.04 289.85,-129.16"/>
<text text-anchor="start" x="328" y="-148.8" font-family="Times,serif" font-size="14.00">%1</text>
</g>
<!-- node4 -->
<g id="node5" class="node">
<title>node4</title>
<polygon fill="none" stroke="black" points="246.5,-0.5 246.5,-38.5 499.5,-38.5 499.5,-0.5 246.5,-0.5"/>
<text text-anchor="start" x="254.5" y="-23.3" font-family="Times,serif" font-size="14.00">InnerJoin %2 %3 on true</text>
<text text-anchor="start" x="254.5" y="-8.3" font-family="Times,serif" font-size="14.00">Filter ((#0 = #3) &amp;&amp; (#4 = #5))</text>
</g>
<!-- node2&#45;&gt;node4 -->
<g id="edge2" class="edge">
<title>node2&#45;&gt;node4</title>
<path fill="none" stroke="black" d="M276.71,-90.31C294.76,-77.23 319.83,-59.05 339.86,-44.53"/>
<polygon fill="black" stroke="black" points="342.06,-47.25 348.1,-38.55 337.95,-41.59 342.06,-47.25"/>
<text text-anchor="start" x="321" y="-60.8" font-family="Times,serif" font-size="14.00">%2</text>
</g>
<!-- node3 -->
<g id="node4" class="node">
<title>node3</title>
<polygon fill="none" stroke="black" points="367.5,-90.5 367.5,-126.5 618.5,-126.5 618.5,-90.5 367.5,-90.5"/>
<text text-anchor="start" x="375.5" y="-104.8" font-family="Times,serif" font-size="14.00">Get optimizer_101.public.c (u11)</text>
</g>
<!-- node3&#45;&gt;node4 -->
<g id="edge3" class="edge">
<title>node3&#45;&gt;node4</title>
<path fill="none" stroke="black" d="M469.29,-90.31C451.24,-77.23 426.17,-59.05 406.14,-44.53"/>
<polygon fill="black" stroke="black" points="408.05,-41.59 397.9,-38.55 403.94,-47.25 408.05,-41.59"/>
<text text-anchor="start" x="443" y="-60.8" font-family="Times,serif" font-size="14.00">%3</text>
</g>
</g>
</svg>
