<?xml version="1.0" encoding="UTF-8" standalone="no"?>
<!DOCTYPE svg PUBLIC "-//W3C//DTD SVG 1.1//EN"
 "http://www.w3.org/Graphics/SVG/1.1/DTD/svg11.dtd">
<!-- Generated by graphviz version 2.43.0 (0)
 -->
<!-- Title: G Pages: 1 -->
<svg width="782pt" height="317pt"
 viewBox="0.00 0.00 781.50 317.00" xmlns="http://www.w3.org/2000/svg" xmlns:xlink="http://www.w3.org/1999/xlink">
<g id="graph0" class="graph" transform="scale(1 1) rotate(0) translate(4 313)">
<title>G</title>
<polygon fill="white" stroke="transparent" points="-4,4 -4,-313 777.5,-313 777.5,4 -4,4"/>
<!-- node0 -->
<g id="node1" class="node">
<title>node0</title>
<polygon fill="none" stroke="black" points="0,-255.5 0,-308.5 292,-308.5 292,-255.5 0,-255.5"/>
<text text-anchor="start" x="8" y="-293.3" font-family="Times,serif" font-size="14.00">Get optimizer_101.public.a (u9)</text>
<text text-anchor="start" x="8" y="-278.3" font-family="Times,serif" font-size="14.00">&#45; types = (integer?, integer?, integer?)</text>
<text text-anchor="start" x="8" y="-263.3" font-family="Times,serif" font-size="14.00">&#45; keys = ()</text>
</g>
<!-- node2 -->
<g id="node3" class="node">
<title>node2</title>
<polygon fill="none" stroke="black" points="77,-150.5 77,-203.5 505,-203.5 505,-150.5 77,-150.5"/>
<text text-anchor="start" x="85" y="-188.3" font-family="Times,serif" font-size="14.00">InnerJoin %0 %1 on true</text>
<text text-anchor="start" x="85" y="-173.3" font-family="Times,serif" font-size="14.00">&#45; types = (integer?, integer?, integer?, integer?, integer?)</text>
<text text-anchor="start" x="85" y="-158.3" font-family="Times,serif" font-size="14.00">&#45; keys = ()</text>
</g>
<!-- node0&#45;&gt;node2 -->
<g id="edge4" class="edge">
<title>node0&#45;&gt;node2</title>
<path fill="none" stroke="black" d="M182.22,-255.27C201.75,-241.4 226.03,-224.15 246.68,-209.48"/>
<polygon fill="black" stroke="black" points="248.87,-212.22 255,-203.58 244.82,-206.51 248.87,-212.22"/>
<text text-anchor="start" x="228" y="-225.8" font-family="Times,serif" font-size="14.00">%0</text>
</g>
<!-- node1 -->
<g id="node2" class="node">
<title>node1</title>
<polygon fill="none" stroke="black" points="310,-255.5 310,-308.5 562,-308.5 562,-255.5 310,-255.5"/>
<text text-anchor="start" x="318" y="-293.3" font-family="Times,serif" font-size="14.00">Get optimizer_101.public.b (u10)</text>
<text text-anchor="start" x="318" y="-278.3" font-family="Times,serif" font-size="14.00">&#45; types = (integer?, integer?)</text>
<text text-anchor="start" x="318" y="-263.3" font-family="Times,serif" font-size="14.00">&#45; keys = ()</text>
</g>
<!-- node1&#45;&gt;node2 -->
<g id="edge1" class="edge">
<title>node1&#45;&gt;node2</title>
<path fill="none" stroke="black" d="M399.78,-255.27C380.25,-241.4 355.97,-224.15 335.32,-209.48"/>
<polygon fill="black" stroke="black" points="337.18,-206.51 327,-203.58 333.13,-212.22 337.18,-206.51"/>
<text text-anchor="start" x="373" y="-225.8" font-family="Times,serif" font-size="14.00">%1</text>
</g>
<!-- node4 -->
<g id="node5" class="node">
<title>node4</title>
<polygon fill="none" stroke="black" points="221.5,-0.5 221.5,-98.5 718.5,-98.5 718.5,-0.5 221.5,-0.5"/>
<text text-anchor="start" x="229.5" y="-83.3" font-family="Times,serif" font-size="14.00">InnerJoin %2 %3 on true</text>
<text text-anchor="start" x="229.5" y="-68.3" font-family="Times,serif" font-size="14.00">&#45; types = (integer?, integer?, integer?, integer?, integer?, integer?)</text>
<text text-anchor="start" x="229.5" y="-53.3" font-family="Times,serif" font-size="14.00">&#45; keys = ()</text>
<text text-anchor="start" x="229.5" y="-38.3" font-family="Times,serif" font-size="14.00">Filter ((#0 = #3) &amp;&amp; (#4 = #5))</text>
<text text-anchor="start" x="229.5" y="-23.3" font-family="Times,serif" font-size="14.00">&#45; types = (integer?, integer?, integer?, integer?, integer?, integer?)</text>
<text text-anchor="start" x="229.5" y="-8.3" font-family="Times,serif" font-size="14.00">&#45; keys = ()</text>
</g>
<!-- node2&#45;&gt;node4 -->
<g id="edge2" class="edge">
<title>node2&#45;&gt;node4</title>
<path fill="none" stroke="black" d="M327.66,-150.3C346.51,-137.08 370.24,-120.44 392.9,-104.56"/>
<polygon fill="black" stroke="black" points="395,-107.36 401.18,-98.75 390.99,-101.62 395,-107.36"/>
<text text-anchor="start" x="376" y="-120.8" font-family="Times,serif" font-size="14.00">%2</text>
</g>
<!-- node3 -->
<g id="node4" class="node">
<title>node3</title>
<polygon fill="none" stroke="black" points="522.5,-150.5 522.5,-203.5 773.5,-203.5 773.5,-150.5 522.5,-150.5"/>
<text text-anchor="start" x="530.5" y="-188.3" font-family="Times,serif" font-size="14.00">Get optimizer_101.public.c (u11)</text>
<text text-anchor="start" x="530.5" y="-173.3" font-family="Times,serif" font-size="14.00">&#45; types = (integer?)</text>
<text text-anchor="start" x="530.5" y="-158.3" font-family="Times,serif" font-size="14.00">&#45; keys = ()</text>
</g>
<!-- node3&#45;&gt;node4 -->
<g id="edge3" class="edge">
<title>node3&#45;&gt;node4</title>
<path fill="none" stroke="black" d="M611.55,-150.3C592.8,-137.08 569.2,-120.44 546.67,-104.56"/>
<polygon fill="black" stroke="black" points="548.62,-101.65 538.43,-98.75 544.59,-107.37 548.62,-101.65"/>
<text text-anchor="start" x="585" y="-120.8" font-family="Times,serif" font-size="14.00">%3</text>
</g>
</g>
</svg>
