<?xml version="1.0" encoding="UTF-8" standalone="no"?>
<!DOCTYPE svg PUBLIC "-//W3C//DTD SVG 1.1//EN"
 "http://www.w3.org/Graphics/SVG/1.1/DTD/svg11.dtd">
<!-- Generated by graphviz version 2.43.0 (0)
 -->
<!-- Title: G Pages: 1 -->
<svg width="840pt" height="317pt"
 viewBox="0.00 0.00 839.50 317.00" xmlns="http://www.w3.org/2000/svg" xmlns:xlink="http://www.w3.org/1999/xlink">
<g id="graph0" class="graph" transform="scale(1 1) rotate(0) translate(4 313)">
<title>G</title>
<polygon fill="white" stroke="transparent" points="-4,4 -4,-313 835.5,-313 835.5,4 -4,4"/>
<!-- node0 -->
<g id="node1" class="node">
<title>node0</title>
<polygon fill="none" stroke="black" points="0,-165.5 0,-308.5 292,-308.5 292,-165.5 0,-165.5"/>
<text text-anchor="start" x="8" y="-293.3" font-family="Times,serif" font-size="14.00">Get optimizer_101.public.a (u9)</text>
<text text-anchor="start" x="8" y="-278.3" font-family="Times,serif" font-size="14.00">&#45; types = (integer?, integer?, integer?)</text>
<text text-anchor="start" x="8" y="-263.3" font-family="Times,serif" font-size="14.00">&#45; keys = ()</text>
<text text-anchor="start" x="8" y="-248.3" font-family="Times,serif" font-size="14.00">Filter !(isnull(#0))</text>
<text text-anchor="start" x="8" y="-233.3" font-family="Times,serif" font-size="14.00">&#45; types = (integer, integer?, integer?)</text>
<text text-anchor="start" x="8" y="-218.3" font-family="Times,serif" font-size="14.00">&#45; keys = ()</text>
<text text-anchor="start" x="8" y="-203.3" font-family="Times,serif" font-size="14.00">ArrangeBy (#0)</text>
<text text-anchor="start" x="8" y="-188.3" font-family="Times,serif" font-size="14.00">&#45; types = (integer, integer?, integer?)</text>
<text text-anchor="start" x="8" y="-173.3" font-family="Times,serif" font-size="14.00">&#45; keys = ()</text>
</g>
<!-- node3 -->
<g id="node4" class="node">
<title>node3</title>
<polygon fill="none" stroke="black" points="205,-0.5 205,-113.5 667,-113.5 667,-0.5 205,-0.5"/>
<text text-anchor="start" x="213" y="-98.3" font-family="Times,serif" font-size="14.00">Join %0 %1 %2 (= #0 #3) (= #4 #5)</text>
<text text-anchor="start" x="213" y="-83.3" font-family="Times,serif" font-size="14.00">&#45; implementation = Differential %2 %1.(#1) %0.(#0)</text>
<text text-anchor="start" x="213" y="-68.3" font-family="Times,serif" font-size="14.00">&#45; types = (integer, integer?, integer?, integer, integer, integer)</text>
<text text-anchor="start" x="213" y="-53.3" font-family="Times,serif" font-size="14.00">&#45; keys = ()</text>
<text text-anchor="start" x="213" y="-38.3" font-family="Times,serif" font-size="14.00">Project (#0..=#2, #0, #4, #4)</text>
<text text-anchor="start" x="213" y="-23.3" font-family="Times,serif" font-size="14.00">&#45; types = (integer, integer?, integer?, integer, integer, integer)</text>
<text text-anchor="start" x="213" y="-8.3" font-family="Times,serif" font-size="14.00">&#45; keys = ()</text>
</g>
<!-- node0&#45;&gt;node3 -->
<g id="edge3" class="edge">
<title>node0&#45;&gt;node3</title>
<path fill="none" stroke="black" d="M261.03,-165.39C286.07,-150.03 312.36,-133.89 336.72,-118.94"/>
<polygon fill="black" stroke="black" points="338.56,-121.91 345.25,-113.7 334.9,-115.95 338.56,-121.91"/>
<text text-anchor="start" x="309" y="-135.8" font-family="Times,serif" font-size="14.00">%0</text>
</g>
<!-- node1 -->
<g id="node2" class="node">
<title>node1</title>
<polygon fill="none" stroke="black" points="310,-165.5 310,-308.5 562,-308.5 562,-165.5 310,-165.5"/>
<text text-anchor="start" x="318" y="-293.3" font-family="Times,serif" font-size="14.00">Get optimizer_101.public.b (u10)</text>
<text text-anchor="start" x="318" y="-278.3" font-family="Times,serif" font-size="14.00">&#45; types = (integer?, integer?)</text>
<text text-anchor="start" x="318" y="-263.3" font-family="Times,serif" font-size="14.00">&#45; keys = ()</text>
<text text-anchor="start" x="318" y="-248.3" font-family="Times,serif" font-size="14.00">Filter !(isnull(#0)), !(isnull(#1))</text>
<text text-anchor="start" x="318" y="-233.3" font-family="Times,serif" font-size="14.00">&#45; types = (integer, integer)</text>
<text text-anchor="start" x="318" y="-218.3" font-family="Times,serif" font-size="14.00">&#45; keys = ()</text>
<text text-anchor="start" x="318" y="-203.3" font-family="Times,serif" font-size="14.00">ArrangeBy (#1)</text>
<text text-anchor="start" x="318" y="-188.3" font-family="Times,serif" font-size="14.00">&#45; types = (integer, integer)</text>
<text text-anchor="start" x="318" y="-173.3" font-family="Times,serif" font-size="14.00">&#45; keys = ()</text>
</g>
<!-- node1&#45;&gt;node3 -->
<g id="edge1" class="edge">
<title>node1&#45;&gt;node3</title>
<path fill="none" stroke="black" d="M436,-165.39C436,-151.7 436,-137.41 436,-123.87"/>
<polygon fill="black" stroke="black" points="439.5,-123.7 436,-113.7 432.5,-123.7 439.5,-123.7"/>
<text text-anchor="start" x="436" y="-135.8" font-family="Times,serif" font-size="14.00">%1</text>
</g>
<!-- node2 -->
<g id="node3" class="node">
<title>node2</title>
<polygon fill="none" stroke="black" points="580.5,-188 580.5,-286 831.5,-286 831.5,-188 580.5,-188"/>
<text text-anchor="start" x="588.5" y="-270.8" font-family="Times,serif" font-size="14.00">Get optimizer_101.public.c (u11)</text>
<text text-anchor="start" x="588.5" y="-255.8" font-family="Times,serif" font-size="14.00">&#45; types = (integer?)</text>
<text text-anchor="start" x="588.5" y="-240.8" font-family="Times,serif" font-size="14.00">&#45; keys = ()</text>
<text text-anchor="start" x="588.5" y="-225.8" font-family="Times,serif" font-size="14.00">Filter !(isnull(#0))</text>
<text text-anchor="start" x="588.5" y="-210.8" font-family="Times,serif" font-size="14.00">&#45; types = (integer)</text>
<text text-anchor="start" x="588.5" y="-195.8" font-family="Times,serif" font-size="14.00">&#45; keys = ()</text>
</g>
<!-- node2&#45;&gt;node3 -->
<g id="edge2" class="edge">
<title>node2&#45;&gt;node3</title>
<path fill="none" stroke="black" d="M632.93,-187.83C600.97,-166.76 563.1,-141.79 529.14,-119.4"/>
<polygon fill="black" stroke="black" points="530.87,-116.35 520.6,-113.77 527.02,-122.2 530.87,-116.35"/>
<text text-anchor="start" x="571" y="-135.8" font-family="Times,serif" font-size="14.00">%2</text>
</g>
</g>
</svg>
