<?xml version="1.0" encoding="UTF-8" standalone="no"?>
<!DOCTYPE svg PUBLIC "-//W3C//DTD SVG 1.1//EN"
 "http://www.w3.org/Graphics/SVG/1.1/DTD/svg11.dtd">
<!-- Generated by graphviz version 2.43.0 (0)
 -->
<!-- Title: G Pages: 1 -->
<svg width="958pt" height="827pt"
 viewBox="0.00 0.00 957.50 827.00" xmlns="http://www.w3.org/2000/svg" xmlns:xlink="http://www.w3.org/1999/xlink">
<g id="graph0" class="graph" transform="scale(1 1) rotate(0) translate(4 823)">
<title>G</title>
<polygon fill="white" stroke="transparent" points="-4,4 -4,-823 953.5,-823 953.5,4 -4,4"/>
<!-- node0 -->
<g id="node1" class="node">
<title>node0</title>
<polygon fill="none" stroke="black" points="580,-765.5 580,-818.5 680,-818.5 680,-765.5 580,-765.5"/>
<text text-anchor="start" x="588" y="-803.3" font-family="Times,serif" font-size="14.00">Constant ()</text>
<text text-anchor="start" x="588" y="-788.3" font-family="Times,serif" font-size="14.00">&#45; types = ()</text>
<text text-anchor="start" x="588" y="-773.3" font-family="Times,serif" font-size="14.00">&#45; keys = (())</text>
</g>
<!-- node2 -->
<g id="node3" class="node">
<title>node2</title>
<polygon fill="none" stroke="black" points="43,-645.5 43,-713.5 335,-713.5 335,-645.5 43,-645.5"/>
<text text-anchor="start" x="51" y="-698.3" font-family="Times,serif" font-size="14.00">Join %0 %1</text>
<text text-anchor="start" x="51" y="-683.3" font-family="Times,serif" font-size="14.00">&#45; implementation = Unimplemented</text>
<text text-anchor="start" x="51" y="-668.3" font-family="Times,serif" font-size="14.00">&#45; types = (integer?, integer?, integer?)</text>
<text text-anchor="start" x="51" y="-653.3" font-family="Times,serif" font-size="14.00">&#45; keys = ()</text>
</g>
<!-- node0&#45;&gt;node2 -->
<g id="edge4" class="edge">
<title>node0&#45;&gt;node2</title>
<path fill="none" stroke="black" d="M579.82,-768.79C576.84,-767.5 573.88,-766.23 571,-765 568.79,-764.06 493.33,-732.61 491,-732 430.32,-716.08 410.73,-724.12 345.36,-714.12"/>
<polygon fill="black" stroke="black" points="345.8,-710.64 335.38,-712.51 344.69,-717.55 345.8,-710.64"/>
<text text-anchor="start" x="526" y="-735.8" font-family="Times,serif" font-size="14.00">%0</text>
</g>
<!-- node4 -->
<g id="node5" class="node">
<title>node4</title>
<polygon fill="none" stroke="black" points="353,-645.5 353,-713.5 627,-713.5 627,-645.5 353,-645.5"/>
<text text-anchor="start" x="361" y="-698.3" font-family="Times,serif" font-size="14.00">Join %0 %3</text>
<text text-anchor="start" x="361" y="-683.3" font-family="Times,serif" font-size="14.00">&#45; implementation = Unimplemented</text>
<text text-anchor="start" x="361" y="-668.3" font-family="Times,serif" font-size="14.00">&#45; types = (integer?, integer?)</text>
<text text-anchor="start" x="361" y="-653.3" font-family="Times,serif" font-size="14.00">&#45; keys = ()</text>
</g>
<!-- node0&#45;&gt;node4 -->
<g id="edge9" class="edge">
<title>node0&#45;&gt;node4</title>
<path fill="none" stroke="black" d="M597.53,-765.37C580.42,-751.87 559.08,-735.02 539.92,-719.9"/>
<polygon fill="black" stroke="black" points="541.88,-716.99 531.86,-713.54 537.54,-722.48 541.88,-716.99"/>
<text text-anchor="start" x="572" y="-735.8" font-family="Times,serif" font-size="14.00">%0</text>
</g>
<!-- node8 -->
<g id="node9" class="node">
<title>node8</title>
<polygon fill="none" stroke="black" points="645,-645.5 645,-713.5 919,-713.5 919,-645.5 645,-645.5"/>
<text text-anchor="start" x="653" y="-698.3" font-family="Times,serif" font-size="14.00">Join %0 %7</text>
<text text-anchor="start" x="653" y="-683.3" font-family="Times,serif" font-size="14.00">&#45; implementation = Unimplemented</text>
<text text-anchor="start" x="653" y="-668.3" font-family="Times,serif" font-size="14.00">&#45; types = (integer?)</text>
<text text-anchor="start" x="653" y="-653.3" font-family="Times,serif" font-size="14.00">&#45; keys = ()</text>
</g>
<!-- node0&#45;&gt;node8 -->
<g id="edge11" class="edge">
<title>node0&#45;&gt;node8</title>
<path fill="none" stroke="black" d="M665.25,-765.37C683.99,-751.75 707.42,-734.72 728.36,-719.5"/>
<polygon fill="black" stroke="black" points="730.52,-722.25 736.55,-713.54 726.4,-716.59 730.52,-722.25"/>
<text text-anchor="start" x="710" y="-735.8" font-family="Times,serif" font-size="14.00">%0</text>
</g>
<!-- node1 -->
<g id="node2" class="node">
<title>node1</title>
<polygon fill="none" stroke="black" points="0,-765.5 0,-818.5 292,-818.5 292,-765.5 0,-765.5"/>
<text text-anchor="start" x="8" y="-803.3" font-family="Times,serif" font-size="14.00">Get optimizer_101.public.a (u9)</text>
<text text-anchor="start" x="8" y="-788.3" font-family="Times,serif" font-size="14.00">&#45; types = (integer?, integer?, integer?)</text>
<text text-anchor="start" x="8" y="-773.3" font-family="Times,serif" font-size="14.00">&#45; keys = ()</text>
</g>
<!-- node1&#45;&gt;node2 -->
<g id="edge1" class="edge">
<title>node1&#45;&gt;node2</title>
<path fill="none" stroke="black" d="M155.97,-765.37C160.85,-752.84 166.85,-737.41 172.4,-723.17"/>
<polygon fill="black" stroke="black" points="175.78,-724.13 176.14,-713.54 169.25,-721.59 175.78,-724.13"/>
<text text-anchor="start" x="169" y="-735.8" font-family="Times,serif" font-size="14.00">%1</text>
</g>
<!-- node5 -->
<g id="node6" class="node">
<title>node5</title>
<polygon fill="none" stroke="black" points="276,-435.5 276,-593.5 704,-593.5 704,-435.5 276,-435.5"/>
<text text-anchor="start" x="284" y="-578.3" font-family="Times,serif" font-size="14.00">Join %2 %4</text>
<text text-anchor="start" x="284" y="-563.3" font-family="Times,serif" font-size="14.00">&#45; implementation = Unimplemented</text>
<text text-anchor="start" x="284" y="-548.3" font-family="Times,serif" font-size="14.00">&#45; types = (integer?, integer?, integer?, integer?, integer?)</text>
<text text-anchor="start" x="284" y="-533.3" font-family="Times,serif" font-size="14.00">&#45; keys = ()</text>
<text text-anchor="start" x="284" y="-518.3" font-family="Times,serif" font-size="14.00">Project (#0..=#4)</text>
<text text-anchor="start" x="284" y="-503.3" font-family="Times,serif" font-size="14.00">&#45; types = (integer?, integer?, integer?, integer?, integer?)</text>
<text text-anchor="start" x="284" y="-488.3" font-family="Times,serif" font-size="14.00">&#45; keys = ()</text>
<text text-anchor="start" x="284" y="-473.3" font-family="Times,serif" font-size="14.00">Filter true</text>
<text text-anchor="start" x="284" y="-458.3" font-family="Times,serif" font-size="14.00">&#45; types = (integer?, integer?, integer?, integer?, integer?)</text>
<text text-anchor="start" x="284" y="-443.3" font-family="Times,serif" font-size="14.00">&#45; keys = ()</text>
</g>
<!-- node2&#45;&gt;node5 -->
<g id="edge3" class="edge">
<title>node2&#45;&gt;node5</title>
<path fill="none" stroke="black" d="M250.27,-645.32C275.54,-631.64 306.06,-615.11 336.73,-598.5"/>
<polygon fill="black" stroke="black" points="338.68,-601.42 345.81,-593.58 335.35,-595.27 338.68,-601.42"/>
<text text-anchor="start" x="303" y="-615.8" font-family="Times,serif" font-size="14.00">%2</text>
</g>
<!-- node3 -->
<g id="node4" class="node">
<title>node3</title>
<polygon fill="none" stroke="black" points="310,-765.5 310,-818.5 562,-818.5 562,-765.5 310,-765.5"/>
<text text-anchor="start" x="318" y="-803.3" font-family="Times,serif" font-size="14.00">Get optimizer_101.public.b (u10)</text>
<text text-anchor="start" x="318" y="-788.3" font-family="Times,serif" font-size="14.00">&#45; types = (integer?, integer?)</text>
<text text-anchor="start" x="318" y="-773.3" font-family="Times,serif" font-size="14.00">&#45; keys = ()</text>
</g>
<!-- node3&#45;&gt;node4 -->
<g id="edge6" class="edge">
<title>node3&#45;&gt;node4</title>
<path fill="none" stroke="black" d="M448.52,-765.37C454.71,-752.71 462.33,-737.11 469.35,-722.75"/>
<polygon fill="black" stroke="black" points="472.61,-724.06 473.85,-713.54 466.32,-720.99 472.61,-724.06"/>
<text text-anchor="start" x="464" y="-735.8" font-family="Times,serif" font-size="14.00">%3</text>
</g>
<!-- node4&#45;&gt;node5 -->
<g id="edge10" class="edge">
<title>node4&#45;&gt;node5</title>
<path fill="none" stroke="black" d="M490,-645.12C490,-632.94 490,-618.52 490,-603.8"/>
<polygon fill="black" stroke="black" points="493.5,-603.59 490,-593.59 486.5,-603.59 493.5,-603.59"/>
<text text-anchor="start" x="490" y="-615.8" font-family="Times,serif" font-size="14.00">%4</text>
</g>
<!-- node6 -->
<g id="node7" class="node">
<title>node6</title>
<polygon fill="none" stroke="black" points="301,-345.5 301,-383.5 729,-383.5 729,-345.5 301,-345.5"/>
<text text-anchor="start" x="309" y="-368.3" font-family="Times,serif" font-size="14.00">&#45; types = (integer?, integer?, integer?, integer?, integer?)</text>
<text text-anchor="start" x="309" y="-353.3" font-family="Times,serif" font-size="14.00">&#45; keys = ()</text>
</g>
<!-- node5&#45;&gt;node6 -->
<g id="edge8" class="edge">
<title>node5&#45;&gt;node6</title>
<path fill="none" stroke="black" d="M503.23,-435.17C505.72,-420.41 508.18,-405.88 510.2,-393.94"/>
<polygon fill="black" stroke="black" points="513.7,-394.22 511.91,-383.78 506.8,-393.05 513.7,-394.22"/>
<text text-anchor="start" x="508" y="-405.8" font-family="Times,serif" font-size="14.00">%5</text>
</g>
<!-- node9 -->
<g id="node10" class="node">
<title>node9</title>
<polygon fill="none" stroke="black" points="387.5,-135.5 387.5,-293.5 884.5,-293.5 884.5,-135.5 387.5,-135.5"/>
<text text-anchor="start" x="395.5" y="-278.3" font-family="Times,serif" font-size="14.00">Join %6 %8</text>
<text text-anchor="start" x="395.5" y="-263.3" font-family="Times,serif" font-size="14.00">&#45; implementation = Unimplemented</text>
<text text-anchor="start" x="395.5" y="-248.3" font-family="Times,serif" font-size="14.00">&#45; types = (integer?, integer?, integer?, integer?, integer?, integer?)</text>
<text text-anchor="start" x="395.5" y="-233.3" font-family="Times,serif" font-size="14.00">&#45; keys = ()</text>
<text text-anchor="start" x="395.5" y="-218.3" font-family="Times,serif" font-size="14.00">Project (#0..=#5)</text>
<text text-anchor="start" x="395.5" y="-203.3" font-family="Times,serif" font-size="14.00">&#45; types = (integer?, integer?, integer?, integer?, integer?, integer?)</text>
<text text-anchor="start" x="395.5" y="-188.3" font-family="Times,serif" font-size="14.00">&#45; keys = ()</text>
<text text-anchor="start" x="395.5" y="-173.3" font-family="Times,serif" font-size="14.00">Filter true</text>
<text text-anchor="start" x="395.5" y="-158.3" font-family="Times,serif" font-size="14.00">&#45; types = (integer?, integer?, integer?, integer?, integer?, integer?)</text>
<text text-anchor="start" x="395.5" y="-143.3" font-family="Times,serif" font-size="14.00">&#45; keys = ()</text>
</g>
<!-- node6&#45;&gt;node9 -->
<g id="edge5" class="edge">
<title>node6&#45;&gt;node9</title>
<path fill="none" stroke="black" d="M529.84,-345.35C539.16,-333.94 551.96,-318.3 565.43,-301.82"/>
<polygon fill="black" stroke="black" points="568.47,-303.63 572.09,-293.67 563.05,-299.2 568.47,-303.63"/>
<text text-anchor="start" x="554" y="-315.8" font-family="Times,serif" font-size="14.00">%6</text>
</g>
<!-- node7 -->
<g id="node8" class="node">
<title>node7</title>
<polygon fill="none" stroke="black" points="698.5,-765.5 698.5,-818.5 949.5,-818.5 949.5,-765.5 698.5,-765.5"/>
<text text-anchor="start" x="706.5" y="-803.3" font-family="Times,serif" font-size="14.00">Get optimizer_101.public.c (u11)</text>
<text text-anchor="start" x="706.5" y="-788.3" font-family="Times,serif" font-size="14.00">&#45; types = (integer?)</text>
<text text-anchor="start" x="706.5" y="-773.3" font-family="Times,serif" font-size="14.00">&#45; keys = ()</text>
</g>
<!-- node7&#45;&gt;node8 -->
<g id="edge7" class="edge">
<title>node7&#45;&gt;node8</title>
<path fill="none" stroke="black" d="M814.26,-765.37C809.49,-752.84 803.63,-737.41 798.22,-723.17"/>
<polygon fill="black" stroke="black" points="801.38,-721.65 794.56,-713.54 794.84,-724.13 801.38,-721.65"/>
<text text-anchor="start" x="806" y="-735.8" font-family="Times,serif" font-size="14.00">%7</text>
</g>
<!-- node8&#45;&gt;node9 -->
<g id="edge2" class="edge">
<title>node8&#45;&gt;node9</title>
<path fill="none" stroke="black" d="M783.31,-645.28C784.52,-583.54 781.47,-448.05 738,-345 731.78,-330.26 723.42,-315.78 714.14,-302.16"/>
<polygon fill="black" stroke="black" points="716.87,-299.95 708.25,-293.79 711.14,-303.98 716.87,-299.95"/>
<text text-anchor="start" x="760" y="-405.8" font-family="Times,serif" font-size="14.00">%8</text>
</g>
<!-- node10 -->
<g id="node11" class="node">
<title>node10</title>
<polygon fill="none" stroke="black" points="387.5,-0.5 387.5,-83.5 884.5,-83.5 884.5,-0.5 387.5,-0.5"/>
<text text-anchor="start" x="395.5" y="-68.3" font-family="Times,serif" font-size="14.00">&#45; types = (integer?, integer?, integer?, integer?, integer?, integer?)</text>
<text text-anchor="start" x="395.5" y="-53.3" font-family="Times,serif" font-size="14.00">&#45; keys = ()</text>
<text text-anchor="start" x="395.5" y="-38.3" font-family="Times,serif" font-size="14.00">Filter ((#0 = #3) &amp;&amp; (#4 = #5))</text>
<text text-anchor="start" x="395.5" y="-23.3" font-family="Times,serif" font-size="14.00">&#45; types = (integer?, integer?, integer?, integer?, integer?, integer?)</text>
<text text-anchor="start" x="395.5" y="-8.3" font-family="Times,serif" font-size="14.00">&#45; keys = ()</text>
</g>
<!-- node9&#45;&gt;node10 -->
<g id="edge12" class="edge">
<title>node9&#45;&gt;node10</title>
<path fill="none" stroke="black" d="M636,-135.24C636,-121.14 636,-106.8 636,-93.75"/>
<polygon fill="black" stroke="black" points="639.5,-93.59 636,-83.59 632.5,-93.59 639.5,-93.59"/>
<text text-anchor="start" x="636" y="-105.8" font-family="Times,serif" font-size="14.00">%9</text>
</g>
</g>
</svg>
