<?xml version="1.0" encoding="UTF-8" standalone="no"?>
<!DOCTYPE svg PUBLIC "-//W3C//DTD SVG 1.1//EN"
 "http://www.w3.org/Graphics/SVG/1.1/DTD/svg11.dtd">
<!-- Generated by graphviz version 2.43.0 (0)
 -->
<!-- Title: G Pages: 1 -->
<svg width="353pt" height="197pt"
 viewBox="0.00 0.00 353.00 197.00" xmlns="http://www.w3.org/2000/svg" xmlns:xlink="http://www.w3.org/1999/xlink">
<g id="graph0" class="graph" transform="scale(1 1) rotate(0) translate(4 193)">
<title>G</title>
<polygon fill="white" stroke="transparent" points="-4,4 -4,-193 349,-193 349,4 -4,4"/>
<!-- node0 -->
<g id="node1" class="node">
<title>node0</title>
<polygon fill="none" stroke="black" points="31,-150.5 31,-188.5 132,-188.5 132,-150.5 31,-150.5"/>
<text text-anchor="start" x="39" y="-173.3" font-family="Times,serif" font-size="14.00">Let l0 =</text>
<text text-anchor="start" x="39" y="-158.3" font-family="Times,serif" font-size="14.00"> Constant ()</text>
</g>
<!-- node2 -->
<g id="node3" class="node">
<title>node2</title>
<polygon fill="none" stroke="black" points="0,-0.5 0,-98.5 329,-98.5 329,-0.5 0,-0.5"/>
<text text-anchor="start" x="8" y="-83.3" font-family="Times,serif" font-size="14.00">Join %0 %1</text>
<text text-anchor="start" x="8" y="-68.3" font-family="Times,serif" font-size="14.00"> implementation = Unimplemented</text>
<text text-anchor="start" x="8" y="-53.3" font-family="Times,serif" font-size="14.00"> Map #0, #1, (#0 + #1), (#0 &#45; #1)</text>
<text text-anchor="start" x="8" y="-38.3" font-family="Times,serif" font-size="14.00"> Project (#2..=#5)</text>
<text text-anchor="start" x="8" y="-23.3" font-family="Times,serif" font-size="14.00"> Map #0, #1, #2, #3, coalesce(#2, #3, #1)</text>
<text text-anchor="start" x="8" y="-8.3" font-family="Times,serif" font-size="14.00"> Project (#4..=#8)</text>
</g>
<!-- node0&#45;&gt;node2 -->
<g id="edge1" class="edge">
<title>node0&#45;&gt;node2</title>
<path fill="none" stroke="black" d="M94.29,-150.32C102.57,-138.54 113.86,-122.5 124.95,-106.72"/>
<polygon fill="black" stroke="black" points="127.83,-108.72 130.72,-98.52 122.11,-104.69 127.83,-108.72"/>
<text text-anchor="start" x="116.5" y="-120.8" font-family="Times,serif" font-size="14.00">%0</text>
</g>
<!-- node1 -->
<g id="node2" class="node">
<title>node1</title>
<polygon fill="none" stroke="black" points="150,-151.5 150,-187.5 345,-187.5 345,-151.5 150,-151.5"/>
<text text-anchor="start" x="158" y="-165.8" font-family="Times,serif" font-size="14.00">Get types.public.t (u127)</text>
</g>
<!-- node1&#45;&gt;node2 -->
<g id="edge2" class="edge">
<title>node1&#45;&gt;node2</title>
<path fill="none" stroke="black" d="M235.43,-151.34C227.12,-139.53 215.57,-123.11 204.2,-106.94"/>
<polygon fill="black" stroke="black" points="206.91,-104.71 198.29,-98.54 201.18,-108.73 206.91,-104.71"/>
<text text-anchor="start" x="220.5" y="-120.8" font-family="Times,serif" font-size="14.00">%1</text>
</g>
</g>
</svg>
