<?xml version="1.0" encoding="UTF-8" standalone="no"?>
<!DOCTYPE svg PUBLIC "-//W3C//DTD SVG 1.1//EN"
 "http://www.w3.org/Graphics/SVG/1.1/DTD/svg11.dtd">
<!-- Generated by graphviz version 2.43.0 (0)
 -->
<!-- Title: G Pages: 1 -->
<svg width="557pt" height="482pt"
 viewBox="0.00 0.00 557.00 482.00" xmlns="http://www.w3.org/2000/svg" xmlns:xlink="http://www.w3.org/1999/xlink">
<g id="graph0" class="graph" transform="scale(1 1) rotate(0) translate(4 478)">
<title>G</title>
<polygon fill="white" stroke="transparent" points="-4,4 -4,-478 553,-478 553,4 -4,4"/>
<g id="clust1" class="cluster">
<title>cluster2</title>
<polygon fill="none" stroke="black" points="177,-288 177,-466 541,-466 541,-288 177,-288"/>
<text text-anchor="middle" x="227.5" y="-450.8" font-family="Times,serif" font-size="14.00">Box2:Select</text>
</g>
<g id="clust3" class="cluster">
<title>cluster1</title>
<polygon fill="none" stroke="black" points="44,-125 44,-280 308,-280 308,-125 44,-125"/>
<text text-anchor="middle" x="94.5" y="-264.8" font-family="Times,serif" font-size="14.00">Box1:Select</text>
</g>
<g id="clust5" class="cluster">
<title>cluster0</title>
<polygon fill="none" stroke="black" points="8,-8 8,-117 170,-117 170,-8 8,-8"/>
<text text-anchor="middle" x="49.5" y="-101.8" font-family="Times,serif" font-size="14.00">Box0:Get</text>
</g>
<!-- boxhead2 -->
<g id="node1" class="node">
<title>boxhead2</title>
<polygon fill="none" stroke="black" points="277,-296.5 277,-434.5 533,-434.5 533,-296.5 277,-296.5"/>
<text text-anchor="middle" x="405" y="-419.3" font-family="Times,serif" font-size="14.00">Distinct: Preserve</text>
<polyline fill="none" stroke="black" points="277,-411.5 533,-411.5 "/>
<text text-anchor="middle" x="405" y="-396.3" font-family="Times,serif" font-size="14.00">0: Q1.C0</text>
<polyline fill="none" stroke="black" points="277,-388.5 533,-388.5 "/>
<text text-anchor="middle" x="405" y="-373.3" font-family="Times,serif" font-size="14.00">1: Q1.C1</text>
<polyline fill="none" stroke="black" points="277,-365.5 533,-365.5 "/>
<text text-anchor="middle" x="405" y="-350.3" font-family="Times,serif" font-size="14.00">2: Q1.C2</text>
<polyline fill="none" stroke="black" points="277,-342.5 533,-342.5 "/>
<text text-anchor="middle" x="405" y="-327.3" font-family="Times,serif" font-size="14.00">3: Q1.C3</text>
<polyline fill="none" stroke="black" points="277,-319.5 533,-319.5 "/>
<text text-anchor="middle" x="405" y="-304.3" font-family="Times,serif" font-size="14.00">4: coalesce(Q1.C2, Q1.C3, Q1.C1)</text>
</g>
<!-- Q1 -->
<g id="node2" class="node">
<title>Q1</title>
<ellipse fill="none" stroke="black" cx="222" cy="-365.5" rx="37.09" ry="37.09"/>
<text text-anchor="middle" x="222" y="-361.8" font-family="Times,serif" font-size="14.00">Q1(F)</text>
</g>
<!-- boxhead1 -->
<g id="node3" class="node">
<title>boxhead1</title>
<polygon fill="none" stroke="black" points="144.5,-133.5 144.5,-248.5 299.5,-248.5 299.5,-133.5 144.5,-133.5"/>
<text text-anchor="middle" x="222" y="-233.3" font-family="Times,serif" font-size="14.00">Distinct: Preserve</text>
<polyline fill="none" stroke="black" points="144.5,-225.5 299.5,-225.5 "/>
<text text-anchor="middle" x="222" y="-210.3" font-family="Times,serif" font-size="14.00">0: Q0.C0</text>
<polyline fill="none" stroke="black" points="144.5,-202.5 299.5,-202.5 "/>
<text text-anchor="middle" x="222" y="-187.3" font-family="Times,serif" font-size="14.00">1: Q0.C1</text>
<polyline fill="none" stroke="black" points="144.5,-179.5 299.5,-179.5 "/>
<text text-anchor="middle" x="222" y="-164.3" font-family="Times,serif" font-size="14.00">2: (Q0.C0 + Q0.C1)</text>
<polyline fill="none" stroke="black" points="144.5,-156.5 299.5,-156.5 "/>
<text text-anchor="middle" x="222" y="-141.3" font-family="Times,serif" font-size="14.00">3: (Q0.C0 &#45; Q0.C1)</text>
</g>
<!-- Q1&#45;&gt;boxhead1 -->
<g id="edge1" class="edge">
<title>Q1&#45;&gt;boxhead1</title>
<path fill="none" stroke="black" stroke-dasharray="5,2" d="M222,-328.34C222,-314.11 222,-297.1 222,-280"/>
</g>
<!-- Q0 -->
<g id="node4" class="node">
<title>Q0</title>
<ellipse fill="none" stroke="black" cx="89" cy="-191" rx="37.09" ry="37.09"/>
<text text-anchor="middle" x="89" y="-187.3" font-family="Times,serif" font-size="14.00">Q0(F)</text>
</g>
<!-- boxhead0 -->
<g id="node5" class="node">
<title>boxhead0</title>
<polygon fill="none" stroke="black" points="16,-16.5 16,-85.5 162,-85.5 162,-16.5 16,-16.5"/>
<text text-anchor="middle" x="89" y="-70.3" font-family="Times,serif" font-size="14.00">Distinct: Preserve</text>
<polyline fill="none" stroke="black" points="16,-62.5 162,-62.5 "/>
<text text-anchor="middle" x="89" y="-47.3" font-family="Times,serif" font-size="14.00">0: C0</text>
<polyline fill="none" stroke="black" points="16,-39.5 162,-39.5 "/>
<text text-anchor="middle" x="89" y="-24.3" font-family="Times,serif" font-size="14.00">1: C1</text>
</g>
<!-- Q0&#45;&gt;boxhead0 -->
<g id="edge2" class="edge">
<title>Q0&#45;&gt;boxhead0</title>
<path fill="none" stroke="black" stroke-dasharray="5,2" d="M89,-153.74C89,-142.45 89,-129.63 89,-117"/>
</g>
</g>
</svg>
