<?xml version="1.0" encoding="UTF-8" standalone="no"?>
<!DOCTYPE svg PUBLIC "-//W3C//DTD SVG 1.1//EN"
 "http://www.w3.org/Graphics/SVG/1.1/DTD/svg11.dtd">
<!-- Generated by graphviz version 2.43.0 (0)
 -->
<!-- Title: G Pages: 1 -->
<svg width="596pt" height="300pt"
 viewBox="0.00 0.00 595.50 300.00" xmlns="http://www.w3.org/2000/svg" xmlns:xlink="http://www.w3.org/1999/xlink">
<g id="graph0" class="graph" transform="scale(1 1) rotate(0) translate(4 296)">
<title>G</title>
<polygon fill="white" stroke="transparent" points="-4,4 -4,-296 591.5,-296 591.5,4 -4,4"/>
<!-- node0 -->
<g id="node1" class="node">
<title>node0</title>
<polygon fill="none" stroke="black" points="245.5,-255.5 245.5,-291.5 341.5,-291.5 341.5,-255.5 245.5,-255.5"/>
<text text-anchor="start" x="253.5" y="-269.8" font-family="Times,serif" font-size="14.00">Constant ()</text>
</g>
<!-- node2 -->
<g id="node3" class="node">
<title>node2</title>
<polygon fill="none" stroke="black" points="10.5,-165.5 10.5,-203.5 284.5,-203.5 284.5,-165.5 10.5,-165.5"/>
<text text-anchor="start" x="18.5" y="-188.3" font-family="Times,serif" font-size="14.00">Join %0 %1</text>
<text text-anchor="start" x="18.5" y="-173.3" font-family="Times,serif" font-size="14.00">&#45; implementation = Unimplemented</text>
</g>
<!-- node0&#45;&gt;node2 -->
<g id="edge2" class="edge">
<title>node0&#45;&gt;node2</title>
<path fill="none" stroke="black" d="M264.66,-255.31C242.3,-241.99 211.1,-223.4 186.52,-208.75"/>
<polygon fill="black" stroke="black" points="188.17,-205.66 177.79,-203.55 184.59,-211.68 188.17,-205.66"/>
<text text-anchor="start" x="234.5" y="-225.8" font-family="Times,serif" font-size="14.00">%0</text>
</g>
<!-- node4 -->
<g id="node5" class="node">
<title>node4</title>
<polygon fill="none" stroke="black" points="302.5,-165.5 302.5,-203.5 576.5,-203.5 576.5,-165.5 302.5,-165.5"/>
<text text-anchor="start" x="310.5" y="-188.3" font-family="Times,serif" font-size="14.00">Join %0 %3</text>
<text text-anchor="start" x="310.5" y="-173.3" font-family="Times,serif" font-size="14.00">&#45; implementation = Unimplemented</text>
</g>
<!-- node0&#45;&gt;node4 -->
<g id="edge1" class="edge">
<title>node0&#45;&gt;node4</title>
<path fill="none" stroke="black" d="M322.34,-255.31C344.7,-241.99 375.9,-223.4 400.48,-208.75"/>
<polygon fill="black" stroke="black" points="402.41,-211.68 409.21,-203.55 398.83,-205.66 402.41,-211.68"/>
<text text-anchor="start" x="374.5" y="-225.8" font-family="Times,serif" font-size="14.00">%0</text>
</g>
<!-- node1 -->
<g id="node2" class="node">
<title>node1</title>
<polygon fill="none" stroke="black" points="0,-255.5 0,-291.5 227,-291.5 227,-255.5 0,-255.5"/>
<text text-anchor="start" x="8" y="-269.8" font-family="Times,serif" font-size="14.00">Get hir_to_qgm.public.r (u43)</text>
</g>
<!-- node1&#45;&gt;node2 -->
<g id="edge5" class="edge">
<title>node1&#45;&gt;node2</title>
<path fill="none" stroke="black" d="M120.22,-255.31C124.92,-243.28 131.31,-226.94 136.72,-213.09"/>
<polygon fill="black" stroke="black" points="140.07,-214.14 140.45,-203.55 133.55,-211.59 140.07,-214.14"/>
<text text-anchor="start" x="133.5" y="-225.8" font-family="Times,serif" font-size="14.00">%1</text>
</g>
<!-- node5 -->
<g id="node6" class="node">
<title>node5</title>
<polygon fill="none" stroke="black" points="156.5,-0.5 156.5,-113.5 430.5,-113.5 430.5,-0.5 156.5,-0.5"/>
<text text-anchor="start" x="164.5" y="-98.3" font-family="Times,serif" font-size="14.00">Join %2 %4</text>
<text text-anchor="start" x="164.5" y="-83.3" font-family="Times,serif" font-size="14.00">&#45; implementation = Unimplemented</text>
<text text-anchor="start" x="164.5" y="-68.3" font-family="Times,serif" font-size="14.00">Project (#0..=#3)</text>
<text text-anchor="start" x="164.5" y="-53.3" font-family="Times,serif" font-size="14.00">Filter true</text>
<text text-anchor="start" x="164.5" y="-38.3" font-family="Times,serif" font-size="14.00">Project (#0..=#3)</text>
<text text-anchor="start" x="164.5" y="-23.3" font-family="Times,serif" font-size="14.00">Filter (#0 = #2)</text>
<text text-anchor="start" x="164.5" y="-8.3" font-family="Times,serif" font-size="14.00">Project (#0..=#3)</text>
</g>
<!-- node2&#45;&gt;node5 -->
<g id="edge4" class="edge">
<title>node2&#45;&gt;node5</title>
<path fill="none" stroke="black" d="M168.73,-165.25C182.76,-153.19 202.06,-136.6 221.28,-120.08"/>
<polygon fill="black" stroke="black" points="223.61,-122.69 228.92,-113.52 219.05,-117.38 223.61,-122.69"/>
<text text-anchor="start" x="203.5" y="-135.8" font-family="Times,serif" font-size="14.00">%2</text>
</g>
<!-- node3 -->
<g id="node4" class="node">
<title>node3</title>
<polygon fill="none" stroke="black" points="359.5,-255.5 359.5,-291.5 587.5,-291.5 587.5,-255.5 359.5,-255.5"/>
<text text-anchor="start" x="367.5" y="-269.8" font-family="Times,serif" font-size="14.00">Get hir_to_qgm.public.s (u44)</text>
</g>
<!-- node3&#45;&gt;node4 -->
<g id="edge3" class="edge">
<title>node3&#45;&gt;node4</title>
<path fill="none" stroke="black" d="M466.78,-255.31C462.08,-243.28 455.69,-226.94 450.28,-213.09"/>
<polygon fill="black" stroke="black" points="453.45,-211.59 446.55,-203.55 446.93,-214.14 453.45,-211.59"/>
<text text-anchor="start" x="459.5" y="-225.8" font-family="Times,serif" font-size="14.00">%3</text>
</g>
<!-- node4&#45;&gt;node5 -->
<g id="edge6" class="edge">
<title>node4&#45;&gt;node5</title>
<path fill="none" stroke="black" d="M418.27,-165.25C404.24,-153.19 384.94,-136.6 365.72,-120.08"/>
<polygon fill="black" stroke="black" points="367.95,-117.38 358.08,-113.52 363.39,-122.69 367.95,-117.38"/>
<text text-anchor="start" x="395.5" y="-135.8" font-family="Times,serif" font-size="14.00">%4</text>
</g>
</g>
</svg>
