<?xml version="1.0" encoding="UTF-8" standalone="no"?>
<!DOCTYPE svg PUBLIC "-//W3C//DTD SVG 1.1//EN"
 "http://www.w3.org/Graphics/SVG/1.1/DTD/svg11.dtd">
<!-- Generated by graphviz version 2.43.0 (0)
 -->
<!-- Title: G Pages: 1 -->
<svg width="482pt" height="135pt"
 viewBox="0.00 0.00 481.50 135.00" xmlns="http://www.w3.org/2000/svg" xmlns:xlink="http://www.w3.org/1999/xlink">
<g id="graph0" class="graph" transform="scale(1 1) rotate(0) translate(4 131)">
<title>G</title>
<polygon fill="white" stroke="transparent" points="-4,4 -4,-131 477.5,-131 477.5,4 -4,4"/>
<!-- node0 -->
<g id="node1" class="node">
<title>node0</title>
<polygon fill="none" stroke="black" points="0,-90.5 0,-126.5 227,-126.5 227,-90.5 0,-90.5"/>
<text text-anchor="start" x="8" y="-104.8" font-family="Times,serif" font-size="14.00">Get hir_to_qgm.public.r (u43)</text>
</g>
<!-- node2 -->
<g id="node3" class="node">
<title>node2</title>
<polygon fill="none" stroke="black" points="140.5,-0.5 140.5,-38.5 332.5,-38.5 332.5,-0.5 140.5,-0.5"/>
<text text-anchor="start" x="148.5" y="-23.3" font-family="Times,serif" font-size="14.00">InnerJoin %0 %1 on true</text>
<text text-anchor="start" x="148.5" y="-8.3" font-family="Times,serif" font-size="14.00">Filter (#0 = #2)</text>
</g>
<!-- node0&#45;&gt;node2 -->
<g id="edge2" class="edge">
<title>node0&#45;&gt;node2</title>
<path fill="none" stroke="black" d="M137.8,-90.31C156.38,-77.17 182.23,-58.89 202.81,-44.33"/>
<polygon fill="black" stroke="black" points="204.84,-47.18 210.98,-38.55 200.79,-41.47 204.84,-47.18"/>
<text text-anchor="start" x="182.5" y="-60.8" font-family="Times,serif" font-size="14.00">%0</text>
</g>
<!-- node1 -->
<g id="node2" class="node">
<title>node1</title>
<polygon fill="none" stroke="black" points="245.5,-90.5 245.5,-126.5 473.5,-126.5 473.5,-90.5 245.5,-90.5"/>
<text text-anchor="start" x="253.5" y="-104.8" font-family="Times,serif" font-size="14.00">Get hir_to_qgm.public.s (u44)</text>
</g>
<!-- node1&#45;&gt;node2 -->
<g id="edge1" class="edge">
<title>node1&#45;&gt;node2</title>
<path fill="none" stroke="black" d="M335.2,-90.31C316.62,-77.17 290.77,-58.89 270.19,-44.33"/>
<polygon fill="black" stroke="black" points="272.21,-41.47 262.02,-38.55 268.16,-47.18 272.21,-41.47"/>
<text text-anchor="start" x="309.5" y="-60.8" font-family="Times,serif" font-size="14.00">%1</text>
</g>
</g>
</svg>
