<?xml version="1.0" encoding="UTF-8" standalone="no"?>
<!DOCTYPE svg PUBLIC "-//W3C//DTD SVG 1.1//EN"
 "http://www.w3.org/Graphics/SVG/1.1/DTD/svg11.dtd">
<!-- Generated by graphviz version 2.43.0 (0)
 -->
<!-- Title: G Pages: 1 -->
<svg width="482pt" height="212pt"
 viewBox="0.00 0.00 481.50 212.00" xmlns="http://www.w3.org/2000/svg" xmlns:xlink="http://www.w3.org/1999/xlink">
<g id="graph0" class="graph" transform="scale(1 1) rotate(0) translate(4 208)">
<title>G</title>
<polygon fill="white" stroke="transparent" points="-4,4 -4,-208 477.5,-208 477.5,4 -4,4"/>
<!-- node0 -->
<g id="node1" class="node">
<title>node0</title>
<polygon fill="none" stroke="black" points="0,-150.5 0,-203.5 227,-203.5 227,-150.5 0,-150.5"/>
<text text-anchor="start" x="8" y="-188.3" font-family="Times,serif" font-size="14.00">Get hir_to_qgm.public.r (u43)</text>
<text text-anchor="start" x="8" y="-173.3" font-family="Times,serif" font-size="14.00">&#45; types = (bigint?, integer?)</text>
<text text-anchor="start" x="8" y="-158.3" font-family="Times,serif" font-size="14.00">&#45; keys = ()</text>
</g>
<!-- node2 -->
<g id="node3" class="node">
<title>node2</title>
<polygon fill="none" stroke="black" points="66,-0.5 66,-98.5 407,-98.5 407,-0.5 66,-0.5"/>
<text text-anchor="start" x="74" y="-83.3" font-family="Times,serif" font-size="14.00">InnerJoin %0 %1 on true</text>
<text text-anchor="start" x="74" y="-68.3" font-family="Times,serif" font-size="14.00">&#45; types = (bigint?, integer?, bigint?, integer?)</text>
<text text-anchor="start" x="74" y="-53.3" font-family="Times,serif" font-size="14.00">&#45; keys = ()</text>
<text text-anchor="start" x="74" y="-38.3" font-family="Times,serif" font-size="14.00">Filter (#0 = #2)</text>
<text text-anchor="start" x="74" y="-23.3" font-family="Times,serif" font-size="14.00">&#45; types = (bigint?, integer?, bigint?, integer?)</text>
<text text-anchor="start" x="74" y="-8.3" font-family="Times,serif" font-size="14.00">&#45; keys = ()</text>
</g>
<!-- node0&#45;&gt;node2 -->
<g id="edge2" class="edge">
<title>node0&#45;&gt;node2</title>
<path fill="none" stroke="black" d="M138.69,-150.3C151.19,-137.54 166.81,-121.6 181.88,-106.23"/>
<polygon fill="black" stroke="black" points="184.71,-108.34 189.21,-98.75 179.71,-103.44 184.71,-108.34"/>
<text text-anchor="start" x="171.5" y="-120.8" font-family="Times,serif" font-size="14.00">%0</text>
</g>
<!-- node1 -->
<g id="node2" class="node">
<title>node1</title>
<polygon fill="none" stroke="black" points="245.5,-150.5 245.5,-203.5 473.5,-203.5 473.5,-150.5 245.5,-150.5"/>
<text text-anchor="start" x="253.5" y="-188.3" font-family="Times,serif" font-size="14.00">Get hir_to_qgm.public.s (u44)</text>
<text text-anchor="start" x="253.5" y="-173.3" font-family="Times,serif" font-size="14.00">&#45; types = (bigint?, integer?)</text>
<text text-anchor="start" x="253.5" y="-158.3" font-family="Times,serif" font-size="14.00">&#45; keys = ()</text>
</g>
<!-- node1&#45;&gt;node2 -->
<g id="edge1" class="edge">
<title>node1&#45;&gt;node2</title>
<path fill="none" stroke="black" d="M334.31,-150.3C321.81,-137.54 306.19,-121.6 291.12,-106.23"/>
<polygon fill="black" stroke="black" points="293.29,-103.44 283.79,-98.75 288.29,-108.34 293.29,-103.44"/>
<text text-anchor="start" x="315.5" y="-120.8" font-family="Times,serif" font-size="14.00">%1</text>
</g>
</g>
</svg>
