<?xml version="1.0" encoding="UTF-8" standalone="no"?>
<!DOCTYPE svg PUBLIC "-//W3C//DTD SVG 1.1//EN"
 "http://www.w3.org/Graphics/SVG/1.1/DTD/svg11.dtd">
<!-- Generated by graphviz version 2.43.0 (0)
 -->
<!-- Title: G Pages: 1 -->
<svg width="600pt" height="527pt"
 viewBox="0.00 0.00 599.50 527.00" xmlns="http://www.w3.org/2000/svg" xmlns:xlink="http://www.w3.org/1999/xlink">
<g id="graph0" class="graph" transform="scale(1 1) rotate(0) translate(4 523)">
<title>G</title>
<polygon fill="white" stroke="transparent" points="-4,4 -4,-523 595.5,-523 595.5,4 -4,4"/>
<!-- node0 -->
<g id="node1" class="node">
<title>node0</title>
<polygon fill="none" stroke="black" points="245.5,-465.5 245.5,-518.5 345.5,-518.5 345.5,-465.5 245.5,-465.5"/>
<text text-anchor="start" x="253.5" y="-503.3" font-family="Times,serif" font-size="14.00">Constant ()</text>
<text text-anchor="start" x="253.5" y="-488.3" font-family="Times,serif" font-size="14.00">&#45; types = ()</text>
<text text-anchor="start" x="253.5" y="-473.3" font-family="Times,serif" font-size="14.00">&#45; keys = (())</text>
</g>
<!-- node2 -->
<g id="node3" class="node">
<title>node2</title>
<polygon fill="none" stroke="black" points="12.5,-345.5 12.5,-413.5 286.5,-413.5 286.5,-345.5 12.5,-345.5"/>
<text text-anchor="start" x="20.5" y="-398.3" font-family="Times,serif" font-size="14.00">Join %0 %1</text>
<text text-anchor="start" x="20.5" y="-383.3" font-family="Times,serif" font-size="14.00">&#45; implementation = Unimplemented</text>
<text text-anchor="start" x="20.5" y="-368.3" font-family="Times,serif" font-size="14.00">&#45; types = (bigint?, integer?)</text>
<text text-anchor="start" x="20.5" y="-353.3" font-family="Times,serif" font-size="14.00">&#45; keys = ()</text>
</g>
<!-- node0&#45;&gt;node2 -->
<g id="edge2" class="edge">
<title>node0&#45;&gt;node2</title>
<path fill="none" stroke="black" d="M261.64,-465.37C243.72,-451.81 221.34,-434.87 201.29,-419.7"/>
<polygon fill="black" stroke="black" points="203.24,-416.79 193.16,-413.54 199.02,-422.37 203.24,-416.79"/>
<text text-anchor="start" x="236.5" y="-435.8" font-family="Times,serif" font-size="14.00">%0</text>
</g>
<!-- node4 -->
<g id="node5" class="node">
<title>node4</title>
<polygon fill="none" stroke="black" points="304.5,-345.5 304.5,-413.5 578.5,-413.5 578.5,-345.5 304.5,-345.5"/>
<text text-anchor="start" x="312.5" y="-398.3" font-family="Times,serif" font-size="14.00">Join %0 %3</text>
<text text-anchor="start" x="312.5" y="-383.3" font-family="Times,serif" font-size="14.00">&#45; implementation = Unimplemented</text>
<text text-anchor="start" x="312.5" y="-368.3" font-family="Times,serif" font-size="14.00">&#45; types = (bigint?, integer?)</text>
<text text-anchor="start" x="312.5" y="-353.3" font-family="Times,serif" font-size="14.00">&#45; keys = ()</text>
</g>
<!-- node0&#45;&gt;node4 -->
<g id="edge1" class="edge">
<title>node0&#45;&gt;node4</title>
<path fill="none" stroke="black" d="M329.36,-465.37C347.28,-451.81 369.66,-434.87 389.71,-419.7"/>
<polygon fill="black" stroke="black" points="391.98,-422.37 397.84,-413.54 387.76,-416.79 391.98,-422.37"/>
<text text-anchor="start" x="372.5" y="-435.8" font-family="Times,serif" font-size="14.00">%0</text>
</g>
<!-- node1 -->
<g id="node2" class="node">
<title>node1</title>
<polygon fill="none" stroke="black" points="0,-465.5 0,-518.5 227,-518.5 227,-465.5 0,-465.5"/>
<text text-anchor="start" x="8" y="-503.3" font-family="Times,serif" font-size="14.00">Get hir_to_qgm.public.r (u43)</text>
<text text-anchor="start" x="8" y="-488.3" font-family="Times,serif" font-size="14.00">&#45; types = (bigint?, integer?)</text>
<text text-anchor="start" x="8" y="-473.3" font-family="Times,serif" font-size="14.00">&#45; keys = ()</text>
</g>
<!-- node1&#45;&gt;node2 -->
<g id="edge5" class="edge">
<title>node1&#45;&gt;node2</title>
<path fill="none" stroke="black" d="M121.85,-465.37C125.93,-452.84 130.96,-437.41 135.6,-423.17"/>
<polygon fill="black" stroke="black" points="138.97,-424.13 138.74,-413.54 132.31,-421.97 138.97,-424.13"/>
<text text-anchor="start" x="133.5" y="-435.8" font-family="Times,serif" font-size="14.00">%1</text>
</g>
<!-- node5 -->
<g id="node6" class="node">
<title>node5</title>
<polygon fill="none" stroke="black" points="125,-0.5 125,-293.5 466,-293.5 466,-0.5 125,-0.5"/>
<text text-anchor="start" x="133" y="-278.3" font-family="Times,serif" font-size="14.00">Join %2 %4</text>
<text text-anchor="start" x="133" y="-263.3" font-family="Times,serif" font-size="14.00">&#45; implementation = Unimplemented</text>
<text text-anchor="start" x="133" y="-248.3" font-family="Times,serif" font-size="14.00">&#45; types = (bigint?, integer?, bigint?, integer?)</text>
<text text-anchor="start" x="133" y="-233.3" font-family="Times,serif" font-size="14.00">&#45; keys = ()</text>
<text text-anchor="start" x="133" y="-218.3" font-family="Times,serif" font-size="14.00">Project (#0..=#3)</text>
<text text-anchor="start" x="133" y="-203.3" font-family="Times,serif" font-size="14.00">&#45; types = (bigint?, integer?, bigint?, integer?)</text>
<text text-anchor="start" x="133" y="-188.3" font-family="Times,serif" font-size="14.00">&#45; keys = ()</text>
<text text-anchor="start" x="133" y="-173.3" font-family="Times,serif" font-size="14.00">Filter true</text>
<text text-anchor="start" x="133" y="-158.3" font-family="Times,serif" font-size="14.00">&#45; types = (bigint?, integer?, bigint?, integer?)</text>
<text text-anchor="start" x="133" y="-143.3" font-family="Times,serif" font-size="14.00">&#45; keys = ()</text>
<text text-anchor="start" x="133" y="-128.3" font-family="Times,serif" font-size="14.00">Project (#0..=#3)</text>
<text text-anchor="start" x="133" y="-113.3" font-family="Times,serif" font-size="14.00">&#45; types = (bigint?, integer?, bigint?, integer?)</text>
<text text-anchor="start" x="133" y="-98.3" font-family="Times,serif" font-size="14.00">&#45; keys = ()</text>
<text text-anchor="start" x="133" y="-83.3" font-family="Times,serif" font-size="14.00">Filter (#0 = #2)</text>
<text text-anchor="start" x="133" y="-68.3" font-family="Times,serif" font-size="14.00">&#45; types = (bigint, integer?, bigint, integer?)</text>
<text text-anchor="start" x="133" y="-53.3" font-family="Times,serif" font-size="14.00">&#45; keys = ()</text>
<text text-anchor="start" x="133" y="-38.3" font-family="Times,serif" font-size="14.00">Project (#0..=#3)</text>
<text text-anchor="start" x="133" y="-23.3" font-family="Times,serif" font-size="14.00">&#45; types = (bigint, integer?, bigint, integer?)</text>
<text text-anchor="start" x="133" y="-8.3" font-family="Times,serif" font-size="14.00">&#45; keys = ()</text>
</g>
<!-- node2&#45;&gt;node5 -->
<g id="edge4" class="edge">
<title>node2&#45;&gt;node5</title>
<path fill="none" stroke="black" d="M170.42,-345.47C178.21,-333.18 187.65,-318.28 197.81,-302.23"/>
<polygon fill="black" stroke="black" points="200.79,-304.07 203.18,-293.74 194.88,-300.32 200.79,-304.07"/>
<text text-anchor="start" x="189.5" y="-315.8" font-family="Times,serif" font-size="14.00">%2</text>
</g>
<!-- node3 -->
<g id="node4" class="node">
<title>node3</title>
<polygon fill="none" stroke="black" points="363.5,-465.5 363.5,-518.5 591.5,-518.5 591.5,-465.5 363.5,-465.5"/>
<text text-anchor="start" x="371.5" y="-503.3" font-family="Times,serif" font-size="14.00">Get hir_to_qgm.public.s (u44)</text>
<text text-anchor="start" x="371.5" y="-488.3" font-family="Times,serif" font-size="14.00">&#45; types = (bigint?, integer?)</text>
<text text-anchor="start" x="371.5" y="-473.3" font-family="Times,serif" font-size="14.00">&#45; keys = ()</text>
</g>
<!-- node3&#45;&gt;node4 -->
<g id="edge3" class="edge">
<title>node3&#45;&gt;node4</title>
<path fill="none" stroke="black" d="M469.15,-465.37C465.07,-452.84 460.04,-437.41 455.4,-423.17"/>
<polygon fill="black" stroke="black" points="458.69,-421.97 452.26,-413.54 452.03,-424.13 458.69,-421.97"/>
<text text-anchor="start" x="462.5" y="-435.8" font-family="Times,serif" font-size="14.00">%3</text>
</g>
<!-- node4&#45;&gt;node5 -->
<g id="edge6" class="edge">
<title>node4&#45;&gt;node5</title>
<path fill="none" stroke="black" d="M420.58,-345.47C412.79,-333.18 403.35,-318.28 393.19,-302.23"/>
<polygon fill="black" stroke="black" points="396.12,-300.32 387.82,-293.74 390.21,-304.07 396.12,-300.32"/>
<text text-anchor="start" x="405.5" y="-315.8" font-family="Times,serif" font-size="14.00">%4</text>
</g>
</g>
</svg>
