<?xml version="1.0" encoding="UTF-8" standalone="no"?>
<!DOCTYPE svg PUBLIC "-//W3C//DTD SVG 1.1//EN"
 "http://www.w3.org/Graphics/SVG/1.1/DTD/svg11.dtd">
<!-- Generated by graphviz version 2.43.0 (0)
 -->
<!-- Title: G Pages: 1 -->
<svg width="621pt" height="617pt"
 viewBox="0.00 0.00 621.00 617.00" xmlns="http://www.w3.org/2000/svg" xmlns:xlink="http://www.w3.org/1999/xlink">
<g id="graph0" class="graph" transform="scale(1 1) rotate(0) translate(4 613)">
<title>G</title>
<polygon fill="white" stroke="transparent" points="-4,4 -4,-613 617,-613 617,4 -4,4"/>
<!-- node0 -->
<g id="node1" class="node">
<title>node0</title>
<polygon fill="none" stroke="black" points="0,-570.5 0,-608.5 179,-608.5 179,-570.5 0,-570.5"/>
<text text-anchor="start" x="8" y="-593.3" font-family="Times,serif" font-size="14.00">Get qgm.public.r (u42)</text>
<text text-anchor="start" x="8" y="-578.3" font-family="Times,serif" font-size="14.00"> ArrangeBy (#1)</text>
</g>
<!-- node2 -->
<g id="node3" class="node">
<title>node2</title>
<polygon fill="none" stroke="black" points="25.5,-435.5 25.5,-518.5 351.5,-518.5 351.5,-435.5 25.5,-435.5"/>
<text text-anchor="start" x="33.5" y="-503.3" font-family="Times,serif" font-size="14.00">Let l0 =</text>
<text text-anchor="start" x="33.5" y="-488.3" font-family="Times,serif" font-size="14.00"> Join %0 %1 (= #1 #2)</text>
<text text-anchor="start" x="33.5" y="-473.3" font-family="Times,serif" font-size="14.00"> implementation = Differential %1 %0.(#1)</text>
<text text-anchor="start" x="33.5" y="-458.3" font-family="Times,serif" font-size="14.00"> Filter (#0 &gt; #3)</text>
<text text-anchor="start" x="33.5" y="-443.3" font-family="Times,serif" font-size="14.00"> Project (#0, #1, #3)</text>
</g>
<!-- node0&#45;&gt;node2 -->
<g id="edge2" class="edge">
<title>node0&#45;&gt;node2</title>
<path fill="none" stroke="black" d="M105.85,-570.25C116.61,-558.24 131.24,-541.91 145.2,-526.33"/>
<polygon fill="black" stroke="black" points="147.91,-528.55 151.98,-518.76 142.7,-523.88 147.91,-528.55"/>
<text text-anchor="start" x="133.5" y="-540.8" font-family="Times,serif" font-size="14.00">%0</text>
</g>
<!-- node1 -->
<g id="node2" class="node">
<title>node1</title>
<polygon fill="none" stroke="black" points="197.5,-571.5 197.5,-607.5 377.5,-607.5 377.5,-571.5 197.5,-571.5"/>
<text text-anchor="start" x="205.5" y="-585.8" font-family="Times,serif" font-size="14.00">Get qgm.public.s (u44)</text>
</g>
<!-- node1&#45;&gt;node2 -->
<g id="edge6" class="edge">
<title>node1&#45;&gt;node2</title>
<path fill="none" stroke="black" d="M272.03,-571.23C261.19,-559.13 246.12,-542.32 231.77,-526.3"/>
<polygon fill="black" stroke="black" points="234.08,-523.63 224.8,-518.52 228.87,-528.3 234.08,-523.63"/>
<text text-anchor="start" x="252.5" y="-540.8" font-family="Times,serif" font-size="14.00">%1</text>
</g>
<!-- node3 -->
<g id="node4" class="node">
<title>node3</title>
<polygon fill="none" stroke="black" points="416,-315.5 416,-383.5 613,-383.5 613,-315.5 416,-315.5"/>
<text text-anchor="start" x="424" y="-368.3" font-family="Times,serif" font-size="14.00">Get %2 (l0)</text>
<text text-anchor="start" x="424" y="-353.3" font-family="Times,serif" font-size="14.00"> Project (#0, #1)</text>
<text text-anchor="start" x="424" y="-338.3" font-family="Times,serif" font-size="14.00"> Distinct group=(#0, #1)</text>
<text text-anchor="start" x="424" y="-323.3" font-family="Times,serif" font-size="14.00"> Negate</text>
</g>
<!-- node2&#45;&gt;node3 -->
<g id="edge1" class="edge">
<title>node2&#45;&gt;node3</title>
<path fill="none" stroke="black" d="M293.89,-435.43C334.28,-419.88 380.08,-402.25 419.44,-387.1"/>
<polygon fill="black" stroke="black" points="420.7,-390.36 428.78,-383.5 418.19,-383.83 420.7,-390.36"/>
<text text-anchor="start" x="380.5" y="-405.8" font-family="Times,serif" font-size="14.00">%2</text>
</g>
<!-- node8 -->
<g id="node9" class="node">
<title>node8</title>
<polygon fill="none" stroke="black" points="104.5,-0.5 104.5,-53.5 272.5,-53.5 272.5,-0.5 104.5,-0.5"/>
<text text-anchor="start" x="112.5" y="-38.3" font-family="Times,serif" font-size="14.00">Union %2 %7</text>
<text text-anchor="start" x="112.5" y="-23.3" font-family="Times,serif" font-size="14.00"> Map coalesce(#2, 0)</text>
<text text-anchor="start" x="112.5" y="-8.3" font-family="Times,serif" font-size="14.00"> Project (#0, #1, #3)</text>
</g>
<!-- node2&#45;&gt;node8 -->
<g id="edge9" class="edge">
<title>node2&#45;&gt;node8</title>
<path fill="none" stroke="black" d="M180.69,-435.47C176.63,-410.97 172.5,-379.05 172.5,-350.5 172.5,-350.5 172.5,-350.5 172.5,-138.5 172.5,-113.35 176.61,-85.3 180.67,-63.76"/>
<polygon fill="black" stroke="black" points="184.14,-64.23 182.63,-53.75 177.27,-62.88 184.14,-64.23"/>
<text text-anchor="start" x="172.5" y="-240.8" font-family="Times,serif" font-size="14.00">%2</text>
</g>
<!-- node5 -->
<g id="node6" class="node">
<title>node5</title>
<polygon fill="none" stroke="black" points="425,-226.5 425,-262.5 538,-262.5 538,-226.5 425,-226.5"/>
<text text-anchor="start" x="433" y="-240.8" font-family="Times,serif" font-size="14.00">Union %3 %4</text>
</g>
<!-- node3&#45;&gt;node5 -->
<g id="edge3" class="edge">
<title>node3&#45;&gt;node5</title>
<path fill="none" stroke="black" d="M503.88,-315.34C499.45,-301.51 494.37,-285.66 490.17,-272.55"/>
<polygon fill="black" stroke="black" points="493.4,-271.18 487.02,-262.72 486.74,-273.31 493.4,-271.18"/>
<text text-anchor="start" x="497.5" y="-285.8" font-family="Times,serif" font-size="14.00">%3</text>
</g>
<!-- node4 -->
<g id="node5" class="node">
<title>node4</title>
<polygon fill="none" stroke="black" points="201,-330.5 201,-368.5 398,-368.5 398,-330.5 201,-330.5"/>
<text text-anchor="start" x="209" y="-353.3" font-family="Times,serif" font-size="14.00">Get qgm.public.r (u42)</text>
<text text-anchor="start" x="209" y="-338.3" font-family="Times,serif" font-size="14.00"> Distinct group=(#0, #1)</text>
</g>
<!-- node4&#45;&gt;node5 -->
<g id="edge5" class="edge">
<title>node4&#45;&gt;node5</title>
<path fill="none" stroke="black" d="M331.62,-330.32C362.49,-312.85 409.22,-286.41 442.28,-267.7"/>
<polygon fill="black" stroke="black" points="444.24,-270.61 451.21,-262.64 440.79,-264.52 444.24,-270.61"/>
<text text-anchor="start" x="411.5" y="-285.8" font-family="Times,serif" font-size="14.00">%4</text>
</g>
<!-- node7 -->
<g id="node8" class="node">
<title>node7</title>
<polygon fill="none" stroke="black" points="200.5,-105.5 200.5,-173.5 556.5,-173.5 556.5,-105.5 200.5,-105.5"/>
<text text-anchor="start" x="208.5" y="-158.3" font-family="Times,serif" font-size="14.00">Join %5 %6 (= #0 #2) (= #1 #3)</text>
<text text-anchor="start" x="208.5" y="-143.3" font-family="Times,serif" font-size="14.00"> implementation = Differential %5 %6.(#0, #1)</text>
<text text-anchor="start" x="208.5" y="-128.3" font-family="Times,serif" font-size="14.00"> Map null</text>
<text text-anchor="start" x="208.5" y="-113.3" font-family="Times,serif" font-size="14.00"> Project (#0, #1, #4)</text>
</g>
<!-- node5&#45;&gt;node7 -->
<g id="edge4" class="edge">
<title>node5&#45;&gt;node7</title>
<path fill="none" stroke="black" d="M464.49,-226.49C452.1,-214.1 434.79,-196.79 418.94,-180.94"/>
<polygon fill="black" stroke="black" points="421.33,-178.38 411.79,-173.79 416.38,-183.33 421.33,-178.38"/>
<text text-anchor="start" x="441.5" y="-195.8" font-family="Times,serif" font-size="14.00">%5</text>
</g>
<!-- node6 -->
<g id="node7" class="node">
<title>node6</title>
<polygon fill="none" stroke="black" points="228,-225.5 228,-263.5 407,-263.5 407,-225.5 228,-225.5"/>
<text text-anchor="start" x="236" y="-248.3" font-family="Times,serif" font-size="14.00">Get qgm.public.r (u42)</text>
<text text-anchor="start" x="236" y="-233.3" font-family="Times,serif" font-size="14.00"> ArrangeBy (#0, #1)</text>
</g>
<!-- node6&#45;&gt;node7 -->
<g id="edge8" class="edge">
<title>node6&#45;&gt;node7</title>
<path fill="none" stroke="black" d="M328.41,-225.09C335.39,-213.3 344.74,-197.5 353.48,-182.75"/>
<polygon fill="black" stroke="black" points="356.73,-184.13 358.81,-173.74 350.7,-180.56 356.73,-184.13"/>
<text text-anchor="start" x="347.5" y="-195.8" font-family="Times,serif" font-size="14.00">%6</text>
</g>
<!-- node7&#45;&gt;node8 -->
<g id="edge7" class="edge">
<title>node7&#45;&gt;node8</title>
<path fill="none" stroke="black" d="M321.75,-105.5C296.33,-90.71 266.53,-73.38 241.56,-58.86"/>
<polygon fill="black" stroke="black" points="243,-55.65 232.6,-53.65 239.48,-61.7 243,-55.65"/>
<text text-anchor="start" x="288.5" y="-75.8" font-family="Times,serif" font-size="14.00">%7</text>
</g>
</g>
</svg>
