<?xml version="1.0" encoding="UTF-8" standalone="no"?>
<!DOCTYPE svg PUBLIC "-//W3C//DTD SVG 1.1//EN"
 "http://www.w3.org/Graphics/SVG/1.1/DTD/svg11.dtd">
<!-- Generated by graphviz version 2.43.0 (0)
 -->
<!-- Title: G Pages: 1 -->
<svg width="790pt" height="645pt"
 viewBox="0.00 0.00 790.00 645.00" xmlns="http://www.w3.org/2000/svg" xmlns:xlink="http://www.w3.org/1999/xlink">
<g id="graph0" class="graph" transform="scale(1 1) rotate(0) translate(4 641)">
<title>G</title>
<polygon fill="white" stroke="transparent" points="-4,4 -4,-641 786,-641 786,4 -4,4"/>
<g id="clust1" class="cluster">
<title>cluster4</title>
<polygon fill="none" stroke="black" points="520,-497 520,-629 774,-629 774,-497 520,-497"/>
<text text-anchor="middle" x="570.5" y="-613.8" font-family="Times,serif" font-size="14.00">Box4:Select</text>
</g>
<g id="clust3" class="cluster">
<title>cluster3</title>
<polygon fill="none" stroke="black" points="381,-311 381,-489 656,-489 656,-311 381,-311"/>
<text text-anchor="middle" x="431.5" y="-473.8" font-family="Times,serif" font-size="14.00">Box3:Select</text>
</g>
<g id="clust5" class="cluster">
<title>cluster0</title>
<polygon fill="none" stroke="black" points="83,-125 83,-303 585,-303 585,-125 83,-125"/>
<text text-anchor="middle" x="145.5" y="-287.8" font-family="Times,serif" font-size="14.00">Box0:OuterJoin</text>
</g>
<g id="clust7" class="cluster">
<title>cluster1</title>
<polygon fill="none" stroke="black" points="8,-8 8,-117 170,-117 170,-8 8,-8"/>
<text text-anchor="middle" x="49.5" y="-101.8" font-family="Times,serif" font-size="14.00">Box1:Get</text>
</g>
<g id="clust9" class="cluster">
<title>cluster2</title>
<polygon fill="none" stroke="black" points="178,-8 178,-117 340,-117 340,-8 178,-8"/>
<text text-anchor="middle" x="219.5" y="-101.8" font-family="Times,serif" font-size="14.00">Box2:Get</text>
</g>
<!-- boxhead4 -->
<g id="node1" class="node">
<title>boxhead4</title>
<polygon fill="none" stroke="black" points="620,-505.5 620,-597.5 766,-597.5 766,-505.5 620,-505.5"/>
<text text-anchor="middle" x="693" y="-582.3" font-family="Times,serif" font-size="14.00">Distinct: Preserve</text>
<polyline fill="none" stroke="black" points="620,-574.5 766,-574.5 "/>
<text text-anchor="middle" x="693" y="-559.3" font-family="Times,serif" font-size="14.00">0: Q3.C0</text>
<polyline fill="none" stroke="black" points="620,-551.5 766,-551.5 "/>
<text text-anchor="middle" x="693" y="-536.3" font-family="Times,serif" font-size="14.00">1: Q3.C1</text>
<polyline fill="none" stroke="black" points="620,-528.5 766,-528.5 "/>
<text text-anchor="middle" x="693" y="-513.3" font-family="Times,serif" font-size="14.00">2: Q3.C4</text>
</g>
<!-- Q3 -->
<g id="node2" class="node">
<title>Q3</title>
<ellipse fill="none" stroke="black" cx="565" cy="-551.5" rx="37.09" ry="37.09"/>
<text text-anchor="middle" x="565" y="-547.8" font-family="Times,serif" font-size="14.00">Q3(F)</text>
</g>
<!-- boxhead3 -->
<g id="node3" class="node">
<title>boxhead3</title>
<polygon fill="none" stroke="black" points="481.5,-319.5 481.5,-457.5 648.5,-457.5 648.5,-319.5 481.5,-319.5"/>
<text text-anchor="middle" x="565" y="-442.3" font-family="Times,serif" font-size="14.00">Distinct: Preserve</text>
<polyline fill="none" stroke="black" points="481.5,-434.5 648.5,-434.5 "/>
<text text-anchor="middle" x="565" y="-419.3" font-family="Times,serif" font-size="14.00">0: Q2.C0</text>
<polyline fill="none" stroke="black" points="481.5,-411.5 648.5,-411.5 "/>
<text text-anchor="middle" x="565" y="-396.3" font-family="Times,serif" font-size="14.00">1: Q2.C1</text>
<polyline fill="none" stroke="black" points="481.5,-388.5 648.5,-388.5 "/>
<text text-anchor="middle" x="565" y="-373.3" font-family="Times,serif" font-size="14.00">2: Q2.C2</text>
<polyline fill="none" stroke="black" points="481.5,-365.5 648.5,-365.5 "/>
<text text-anchor="middle" x="565" y="-350.3" font-family="Times,serif" font-size="14.00">3: Q2.C3</text>
<polyline fill="none" stroke="black" points="481.5,-342.5 648.5,-342.5 "/>
<text text-anchor="middle" x="565" y="-327.3" font-family="Times,serif" font-size="14.00">4: coalesce(Q2.C3, 0)</text>
</g>
<!-- Q3&#45;&gt;boxhead3 -->
<g id="edge1" class="edge">
<title>Q3&#45;&gt;boxhead3</title>
<path fill="none" stroke="black" stroke-dasharray="5,2" d="M565,-514.37C565,-506.56 565,-497.95 565,-489"/>
</g>
<!-- Q2 -->
<g id="node4" class="node">
<title>Q2</title>
<ellipse fill="none" stroke="black" cx="426" cy="-388.5" rx="37.09" ry="37.09"/>
<text text-anchor="middle" x="426" y="-384.8" font-family="Times,serif" font-size="14.00">Q2(F)</text>
</g>
<!-- boxhead0 -->
<g id="node5" class="node">
<title>boxhead0</title>
<polygon fill="none" stroke="black" points="275,-133.5 275,-271.5 577,-271.5 577,-133.5 275,-133.5"/>
<text text-anchor="middle" x="426" y="-256.3" font-family="Times,serif" font-size="14.00">Distinct: Preserve</text>
<polyline fill="none" stroke="black" points="275,-248.5 577,-248.5 "/>
<text text-anchor="middle" x="426" y="-233.3" font-family="Times,serif" font-size="14.00">0: Q0.C0</text>
<polyline fill="none" stroke="black" points="275,-225.5 577,-225.5 "/>
<text text-anchor="middle" x="426" y="-210.3" font-family="Times,serif" font-size="14.00">1: Q0.C1</text>
<polyline fill="none" stroke="black" points="275,-202.5 577,-202.5 "/>
<text text-anchor="middle" x="426" y="-187.3" font-family="Times,serif" font-size="14.00">2: Q1.C0</text>
<polyline fill="none" stroke="black" points="275,-179.5 577,-179.5 "/>
<text text-anchor="middle" x="426" y="-164.3" font-family="Times,serif" font-size="14.00">3: Q1.C1</text>
<polyline fill="none" stroke="black" points="275,-156.5 577,-156.5 "/>
<text text-anchor="middle" x="426" y="-141.3" font-family="Times,serif" font-size="14.00">((Q0.C1 = Q1.C0) &amp;&amp; (Q0.C0 &gt; Q1.C1))</text>
</g>
<!-- Q2&#45;&gt;boxhead0 -->
<g id="edge2" class="edge">
<title>Q2&#45;&gt;boxhead0</title>
<path fill="none" stroke="black" stroke-dasharray="5,2" d="M426,-351.15C426,-337.07 426,-320.21 426,-303"/>
</g>
<!-- Q0 -->
<g id="node6" class="node">
<title>Q0</title>
<ellipse fill="none" stroke="black" cx="128" cy="-202.5" rx="37.09" ry="37.09"/>
<text text-anchor="middle" x="128" y="-198.8" font-family="Times,serif" font-size="14.00">Q0(P)</text>
</g>
<!-- boxhead1 -->
<g id="node8" class="node">
<title>boxhead1</title>
<polygon fill="none" stroke="black" points="16,-16.5 16,-85.5 162,-85.5 162,-16.5 16,-16.5"/>
<text text-anchor="middle" x="89" y="-70.3" font-family="Times,serif" font-size="14.00">Distinct: Preserve</text>
<polyline fill="none" stroke="black" points="16,-62.5 162,-62.5 "/>
<text text-anchor="middle" x="89" y="-47.3" font-family="Times,serif" font-size="14.00">0: C0</text>
<polyline fill="none" stroke="black" points="16,-39.5 162,-39.5 "/>
<text text-anchor="middle" x="89" y="-24.3" font-family="Times,serif" font-size="14.00">1: C1</text>
</g>
<!-- Q0&#45;&gt;boxhead1 -->
<g id="edge3" class="edge">
<title>Q0&#45;&gt;boxhead1</title>
<path fill="none" stroke="black" stroke-dasharray="5,2" d="M118.86,-166.45C115,-151.68 110.39,-134 105.96,-117"/>
</g>
<!-- Q1 -->
<g id="node7" class="node">
<title>Q1</title>
<ellipse fill="none" stroke="black" cx="220" cy="-202.5" rx="37.09" ry="37.09"/>
<text text-anchor="middle" x="220" y="-198.8" font-family="Times,serif" font-size="14.00">Q1(F)</text>
</g>
<!-- boxhead2 -->
<g id="node9" class="node">
<title>boxhead2</title>
<polygon fill="none" stroke="black" points="186,-16.5 186,-85.5 332,-85.5 332,-16.5 186,-16.5"/>
<text text-anchor="middle" x="259" y="-70.3" font-family="Times,serif" font-size="14.00">Distinct: Preserve</text>
<polyline fill="none" stroke="black" points="186,-62.5 332,-62.5 "/>
<text text-anchor="middle" x="259" y="-47.3" font-family="Times,serif" font-size="14.00">0: C0</text>
<polyline fill="none" stroke="black" points="186,-39.5 332,-39.5 "/>
<text text-anchor="middle" x="259" y="-24.3" font-family="Times,serif" font-size="14.00">1: C1</text>
</g>
<!-- Q1&#45;&gt;boxhead2 -->
<g id="edge4" class="edge">
<title>Q1&#45;&gt;boxhead2</title>
<path fill="none" stroke="black" stroke-dasharray="5,2" d="M229.14,-166.45C233,-151.68 237.61,-134 242.04,-117"/>
</g>
</g>
</svg>
