<?xml version="1.0" encoding="UTF-8" standalone="no"?>
<!DOCTYPE svg PUBLIC "-//W3C//DTD SVG 1.1//EN"
 "http://www.w3.org/Graphics/SVG/1.1/DTD/svg11.dtd">
<!-- Generated by graphviz version 2.43.0 (0)
 -->
<!-- Title: G Pages: 1 -->
<svg width="394pt" height="150pt"
 viewBox="0.00 0.00 394.00 150.00" xmlns="http://www.w3.org/2000/svg" xmlns:xlink="http://www.w3.org/1999/xlink">
<g id="graph0" class="graph" transform="scale(1 1) rotate(0) translate(4 146)">
<title>G</title>
<polygon fill="white" stroke="transparent" points="-4,4 -4,-146 390,-146 390,4 -4,4"/>
<!-- node0 -->
<g id="node1" class="node">
<title>node0</title>
<polygon fill="none" stroke="black" points="4.5,-105.5 4.5,-141.5 183.5,-141.5 183.5,-105.5 4.5,-105.5"/>
<text text-anchor="start" x="12.5" y="-119.8" font-family="Times,serif" font-size="14.00">Get qgm.public.r (u42)</text>
</g>
<!-- node2 -->
<g id="node3" class="node">
<title>node2</title>
<polygon fill="none" stroke="black" points="0,-0.5 0,-53.5 386,-53.5 386,-0.5 0,-0.5"/>
<text text-anchor="start" x="8" y="-38.3" font-family="Times,serif" font-size="14.00">LeftOuterJoin %0 %1 on ((#1 = #2) &amp;&amp; (#0 &gt; #3))</text>
<text text-anchor="start" x="8" y="-23.3" font-family="Times,serif" font-size="14.00"> Map coalesce(#3, 0)</text>
<text text-anchor="start" x="8" y="-8.3" font-family="Times,serif" font-size="14.00"> Project (#0, #1, #4)</text>
</g>
<!-- node0&#45;&gt;node2 -->
<g id="edge2" class="edge">
<title>node0&#45;&gt;node2</title>
<path fill="none" stroke="black" d="M112.16,-105.17C125.11,-92.8 142.93,-75.8 158.54,-60.9"/>
<polygon fill="black" stroke="black" points="161.18,-63.22 165.99,-53.78 156.34,-58.15 161.18,-63.22"/>
<text text-anchor="start" x="147" y="-75.8" font-family="Times,serif" font-size="14.00">%0</text>
</g>
<!-- node1 -->
<g id="node2" class="node">
<title>node1</title>
<polygon fill="none" stroke="black" points="202,-105.5 202,-141.5 382,-141.5 382,-105.5 202,-105.5"/>
<text text-anchor="start" x="210" y="-119.8" font-family="Times,serif" font-size="14.00">Get qgm.public.s (u44)</text>
</g>
<!-- node1&#45;&gt;node2 -->
<g id="edge1" class="edge">
<title>node1&#45;&gt;node2</title>
<path fill="none" stroke="black" d="M273.84,-105.17C260.89,-92.8 243.07,-75.8 227.46,-60.9"/>
<polygon fill="black" stroke="black" points="229.66,-58.15 220.01,-53.78 224.82,-63.22 229.66,-58.15"/>
<text text-anchor="start" x="254" y="-75.8" font-family="Times,serif" font-size="14.00">%1</text>
</g>
</g>
</svg>
