<?xml version="1.0" encoding="UTF-8" standalone="no"?>
<!DOCTYPE svg PUBLIC "-//W3C//DTD SVG 1.1//EN"
 "http://www.w3.org/Graphics/SVG/1.1/DTD/svg11.dtd">
<!-- Generated by graphviz version 2.43.0 (0)
 -->
<!-- Title: G Pages: 1 -->
<svg width="716pt" height="1127pt"
 viewBox="0.00 0.00 715.50 1127.00" xmlns="http://www.w3.org/2000/svg" xmlns:xlink="http://www.w3.org/1999/xlink">
<g id="graph0" class="graph" transform="scale(1 1) rotate(0) translate(4 1123)">
<title>G</title>
<polygon fill="white" stroke="transparent" points="-4,4 -4,-1123 711.5,-1123 711.5,4 -4,4"/>
<!-- node0 -->
<g id="node1" class="node">
<title>node0</title>
<polygon fill="none" stroke="black" points="0,-1020.5 0,-1118.5 203,-1118.5 203,-1020.5 0,-1020.5"/>
<text text-anchor="start" x="8" y="-1103.3" font-family="Times,serif" font-size="14.00">Get qgm.public.r (u42)</text>
<text text-anchor="start" x="8" y="-1088.3" font-family="Times,serif" font-size="14.00"> types = (integer, integer)</text>
<text text-anchor="start" x="8" y="-1073.3" font-family="Times,serif" font-size="14.00"> keys = ()</text>
<text text-anchor="start" x="8" y="-1058.3" font-family="Times,serif" font-size="14.00"> ArrangeBy (#1)</text>
<text text-anchor="start" x="8" y="-1043.3" font-family="Times,serif" font-size="14.00"> types = (integer, integer)</text>
<text text-anchor="start" x="8" y="-1028.3" font-family="Times,serif" font-size="14.00"> keys = ()</text>
</g>
<!-- node2 -->
<g id="node3" class="node">
<title>node2</title>
<polygon fill="none" stroke="black" points="48.5,-795.5 48.5,-968.5 374.5,-968.5 374.5,-795.5 48.5,-795.5"/>
<text text-anchor="start" x="56.5" y="-953.3" font-family="Times,serif" font-size="14.00">Let l0 =</text>
<text text-anchor="start" x="56.5" y="-938.3" font-family="Times,serif" font-size="14.00"> Join %0 %1 (= #1 #2)</text>
<text text-anchor="start" x="56.5" y="-923.3" font-family="Times,serif" font-size="14.00"> implementation = Differential %1 %0.(#1)</text>
<text text-anchor="start" x="56.5" y="-908.3" font-family="Times,serif" font-size="14.00"> types = (integer, integer, integer, integer)</text>
<text text-anchor="start" x="56.5" y="-893.3" font-family="Times,serif" font-size="14.00"> keys = ()</text>
<text text-anchor="start" x="56.5" y="-878.3" font-family="Times,serif" font-size="14.00"> Filter (#0 &gt; #3)</text>
<text text-anchor="start" x="56.5" y="-863.3" font-family="Times,serif" font-size="14.00"> types = (integer, integer, integer, integer)</text>
<text text-anchor="start" x="56.5" y="-848.3" font-family="Times,serif" font-size="14.00"> keys = ()</text>
<text text-anchor="start" x="56.5" y="-833.3" font-family="Times,serif" font-size="14.00"> Project (#0, #1, #3)</text>
<text text-anchor="start" x="56.5" y="-818.3" font-family="Times,serif" font-size="14.00"> types = (integer, integer, integer)</text>
<text text-anchor="start" x="56.5" y="-803.3" font-family="Times,serif" font-size="14.00"> keys = ()</text>
</g>
<!-- node0&#45;&gt;node2 -->
<g id="edge2" class="edge">
<title>node0&#45;&gt;node2</title>
<path fill="none" stroke="black" d="M130.11,-1020.25C137.94,-1007.05 146.69,-992.29 155.48,-977.47"/>
<polygon fill="black" stroke="black" points="158.56,-979.13 160.66,-968.74 152.54,-975.56 158.56,-979.13"/>
<text text-anchor="start" x="147.5" y="-990.8" font-family="Times,serif" font-size="14.00">%0</text>
</g>
<!-- node1 -->
<g id="node2" class="node">
<title>node1</title>
<polygon fill="none" stroke="black" points="221,-1043 221,-1096 424,-1096 424,-1043 221,-1043"/>
<text text-anchor="start" x="229" y="-1080.8" font-family="Times,serif" font-size="14.00">Get qgm.public.s (u44)</text>
<text text-anchor="start" x="229" y="-1065.8" font-family="Times,serif" font-size="14.00"> types = (integer, integer)</text>
<text text-anchor="start" x="229" y="-1050.8" font-family="Times,serif" font-size="14.00"> keys = ()</text>
</g>
<!-- node1&#45;&gt;node2 -->
<g id="edge6" class="edge">
<title>node1&#45;&gt;node2</title>
<path fill="none" stroke="black" d="M307.07,-1042.71C296.72,-1025.42 282.4,-1001.48 267.99,-977.4"/>
<polygon fill="black" stroke="black" points="270.82,-975.31 262.68,-968.53 264.81,-978.91 270.82,-975.31"/>
<text text-anchor="start" x="279.5" y="-990.8" font-family="Times,serif" font-size="14.00">%1</text>
</g>
<!-- node3 -->
<g id="node4" class="node">
<title>node3</title>
<polygon fill="none" stroke="black" points="445.5,-555.5 445.5,-743.5 707.5,-743.5 707.5,-555.5 445.5,-555.5"/>
<text text-anchor="start" x="453.5" y="-728.3" font-family="Times,serif" font-size="14.00">Get %2 (l0)</text>
<text text-anchor="start" x="453.5" y="-713.3" font-family="Times,serif" font-size="14.00"> types = (integer, integer, integer)</text>
<text text-anchor="start" x="453.5" y="-698.3" font-family="Times,serif" font-size="14.00"> keys = ()</text>
<text text-anchor="start" x="453.5" y="-683.3" font-family="Times,serif" font-size="14.00"> Project (#0, #1)</text>
<text text-anchor="start" x="453.5" y="-668.3" font-family="Times,serif" font-size="14.00"> types = (integer, integer)</text>
<text text-anchor="start" x="453.5" y="-653.3" font-family="Times,serif" font-size="14.00"> keys = ()</text>
<text text-anchor="start" x="453.5" y="-638.3" font-family="Times,serif" font-size="14.00"> Distinct group=(#0, #1)</text>
<text text-anchor="start" x="453.5" y="-623.3" font-family="Times,serif" font-size="14.00"> types = (integer, integer)</text>
<text text-anchor="start" x="453.5" y="-608.3" font-family="Times,serif" font-size="14.00"> keys = ((#0, #1))</text>
<text text-anchor="start" x="453.5" y="-593.3" font-family="Times,serif" font-size="14.00"> Negate</text>
<text text-anchor="start" x="453.5" y="-578.3" font-family="Times,serif" font-size="14.00"> types = (integer, integer)</text>
<text text-anchor="start" x="453.5" y="-563.3" font-family="Times,serif" font-size="14.00"> keys = ()</text>
</g>
<!-- node2&#45;&gt;node3 -->
<g id="edge1" class="edge">
<title>node2&#45;&gt;node3</title>
<path fill="none" stroke="black" d="M353.99,-795.48C381.5,-778.62 409.99,-760.91 436.5,-744 436.59,-743.94 436.68,-743.88 436.78,-743.82"/>
<polygon fill="black" stroke="black" points="438.92,-746.61 445.45,-738.26 435.14,-740.71 438.92,-746.61"/>
<text text-anchor="start" x="405.5" y="-765.8" font-family="Times,serif" font-size="14.00">%2</text>
</g>
<!-- node8 -->
<g id="node9" class="node">
<title>node8</title>
<polygon fill="none" stroke="black" points="42.5,-0.5 42.5,-143.5 380.5,-143.5 380.5,-0.5 42.5,-0.5"/>
<text text-anchor="start" x="50.5" y="-128.3" font-family="Times,serif" font-size="14.00">Union %2 %7</text>
<text text-anchor="start" x="50.5" y="-113.3" font-family="Times,serif" font-size="14.00"> types = (integer, integer, integer?)</text>
<text text-anchor="start" x="50.5" y="-98.3" font-family="Times,serif" font-size="14.00"> keys = ()</text>
<text text-anchor="start" x="50.5" y="-83.3" font-family="Times,serif" font-size="14.00"> Map coalesce(#2, 0)</text>
<text text-anchor="start" x="50.5" y="-68.3" font-family="Times,serif" font-size="14.00"> types = (integer, integer, integer?, integer?)</text>
<text text-anchor="start" x="50.5" y="-53.3" font-family="Times,serif" font-size="14.00"> keys = ()</text>
<text text-anchor="start" x="50.5" y="-38.3" font-family="Times,serif" font-size="14.00"> Project (#0, #1, #3)</text>
<text text-anchor="start" x="50.5" y="-23.3" font-family="Times,serif" font-size="14.00"> types = (integer, integer, integer?)</text>
<text text-anchor="start" x="50.5" y="-8.3" font-family="Times,serif" font-size="14.00"> keys = ()</text>
</g>
<!-- node2&#45;&gt;node8 -->
<g id="edge9" class="edge">
<title>node2&#45;&gt;node8</title>
<path fill="none" stroke="black" d="M202.73,-795.44C199,-752.07 195.5,-698.54 195.5,-650.5 195.5,-650.5 195.5,-650.5 195.5,-273.5 195.5,-234.08 198.61,-190.44 202.09,-153.96"/>
<polygon fill="black" stroke="black" points="205.59,-154.17 203.08,-143.88 198.62,-153.49 205.59,-154.17"/>
<text text-anchor="start" x="195.5" y="-450.8" font-family="Times,serif" font-size="14.00">%2</text>
</g>
<!-- node5 -->
<g id="node6" class="node">
<title>node5</title>
<polygon fill="none" stroke="black" points="466,-428 466,-481 669,-481 669,-428 466,-428"/>
<text text-anchor="start" x="474" y="-465.8" font-family="Times,serif" font-size="14.00">Union %3 %4</text>
<text text-anchor="start" x="474" y="-450.8" font-family="Times,serif" font-size="14.00"> types = (integer, integer)</text>
<text text-anchor="start" x="474" y="-435.8" font-family="Times,serif" font-size="14.00"> keys = ()</text>
</g>
<!-- node3&#45;&gt;node5 -->
<g id="edge3" class="edge">
<title>node3&#45;&gt;node5</title>
<path fill="none" stroke="black" d="M572.16,-555.39C571.1,-532.67 570.03,-509.69 569.18,-491.52"/>
<polygon fill="black" stroke="black" points="572.67,-491.23 568.71,-481.41 565.68,-491.56 572.67,-491.23"/>
<text text-anchor="start" x="570.5" y="-525.8" font-family="Times,serif" font-size="14.00">%3</text>
</g>
<!-- node4 -->
<g id="node5" class="node">
<title>node4</title>
<polygon fill="none" stroke="black" points="224,-600.5 224,-698.5 427,-698.5 427,-600.5 224,-600.5"/>
<text text-anchor="start" x="232" y="-683.3" font-family="Times,serif" font-size="14.00">Get qgm.public.r (u42)</text>
<text text-anchor="start" x="232" y="-668.3" font-family="Times,serif" font-size="14.00"> types = (integer, integer)</text>
<text text-anchor="start" x="232" y="-653.3" font-family="Times,serif" font-size="14.00"> keys = ()</text>
<text text-anchor="start" x="232" y="-638.3" font-family="Times,serif" font-size="14.00"> Distinct group=(#0, #1)</text>
<text text-anchor="start" x="232" y="-623.3" font-family="Times,serif" font-size="14.00"> types = (integer, integer)</text>
<text text-anchor="start" x="232" y="-608.3" font-family="Times,serif" font-size="14.00"> keys = ((#0, #1))</text>
</g>
<!-- node4&#45;&gt;node5 -->
<g id="edge5" class="edge">
<title>node4&#45;&gt;node5</title>
<path fill="none" stroke="black" d="M381.51,-600.38C398.97,-585.63 418.4,-569.48 436.5,-555 465.58,-531.74 499.02,-506.36 524.83,-487.05"/>
<polygon fill="black" stroke="black" points="527.01,-489.8 532.93,-481.01 522.83,-484.19 527.01,-489.8"/>
<text text-anchor="start" x="475.5" y="-525.8" font-family="Times,serif" font-size="14.00">%4</text>
</g>
<!-- node7 -->
<g id="node8" class="node">
<title>node7</title>
<polygon fill="none" stroke="black" points="223.5,-195.5 223.5,-353.5 611.5,-353.5 611.5,-195.5 223.5,-195.5"/>
<text text-anchor="start" x="231.5" y="-338.3" font-family="Times,serif" font-size="14.00">Join %5 %6 (= #0 #2) (= #1 #3)</text>
<text text-anchor="start" x="231.5" y="-323.3" font-family="Times,serif" font-size="14.00"> implementation = Differential %5 %6.(#0, #1)</text>
<text text-anchor="start" x="231.5" y="-308.3" font-family="Times,serif" font-size="14.00"> types = (integer, integer, integer, integer)</text>
<text text-anchor="start" x="231.5" y="-293.3" font-family="Times,serif" font-size="14.00"> keys = ()</text>
<text text-anchor="start" x="231.5" y="-278.3" font-family="Times,serif" font-size="14.00"> Map null</text>
<text text-anchor="start" x="231.5" y="-263.3" font-family="Times,serif" font-size="14.00"> types = (integer, integer, integer, integer, integer?)</text>
<text text-anchor="start" x="231.5" y="-248.3" font-family="Times,serif" font-size="14.00"> keys = ()</text>
<text text-anchor="start" x="231.5" y="-233.3" font-family="Times,serif" font-size="14.00"> Project (#0, #1, #4)</text>
<text text-anchor="start" x="231.5" y="-218.3" font-family="Times,serif" font-size="14.00"> types = (integer, integer, integer?)</text>
<text text-anchor="start" x="231.5" y="-203.3" font-family="Times,serif" font-size="14.00"> keys = ()</text>
</g>
<!-- node5&#45;&gt;node7 -->
<g id="edge4" class="edge">
<title>node5&#45;&gt;node7</title>
<path fill="none" stroke="black" d="M546.01,-428C531.17,-410.39 510.5,-385.86 490.07,-361.62"/>
<polygon fill="black" stroke="black" points="492.57,-359.16 483.45,-353.77 487.22,-363.67 492.57,-359.16"/>
<text text-anchor="start" x="509.5" y="-375.8" font-family="Times,serif" font-size="14.00">%5</text>
</g>
<!-- node6 -->
<g id="node7" class="node">
<title>node6</title>
<polygon fill="none" stroke="black" points="245,-405.5 245,-503.5 448,-503.5 448,-405.5 245,-405.5"/>
<text text-anchor="start" x="253" y="-488.3" font-family="Times,serif" font-size="14.00">Get qgm.public.r (u42)</text>
<text text-anchor="start" x="253" y="-473.3" font-family="Times,serif" font-size="14.00"> types = (integer, integer)</text>
<text text-anchor="start" x="253" y="-458.3" font-family="Times,serif" font-size="14.00"> keys = ()</text>
<text text-anchor="start" x="253" y="-443.3" font-family="Times,serif" font-size="14.00"> ArrangeBy (#0, #1)</text>
<text text-anchor="start" x="253" y="-428.3" font-family="Times,serif" font-size="14.00"> types = (integer, integer)</text>
<text text-anchor="start" x="253" y="-413.3" font-family="Times,serif" font-size="14.00"> keys = ()</text>
</g>
<!-- node6&#45;&gt;node7 -->
<g id="edge8" class="edge">
<title>node6&#45;&gt;node7</title>
<path fill="none" stroke="black" d="M365.71,-405.33C370.94,-392.24 376.76,-377.64 382.56,-363.1"/>
<polygon fill="black" stroke="black" points="385.91,-364.15 386.36,-353.56 379.41,-361.55 385.91,-364.15"/>
<text text-anchor="start" x="377.5" y="-375.8" font-family="Times,serif" font-size="14.00">%6</text>
</g>
<!-- node7&#45;&gt;node8 -->
<g id="edge7" class="edge">
<title>node7&#45;&gt;node8</title>
<path fill="none" stroke="black" d="M337.27,-195.41C322.22,-180.76 306.49,-165.45 291.45,-150.81"/>
<polygon fill="black" stroke="black" points="293.73,-148.15 284.13,-143.69 288.85,-153.17 293.73,-148.15"/>
<text text-anchor="start" x="314.5" y="-165.8" font-family="Times,serif" font-size="14.00">%7</text>
</g>
</g>
</svg>
