<?xml version="1.0" encoding="UTF-8" standalone="no"?>
<!DOCTYPE svg PUBLIC "-//W3C//DTD SVG 1.1//EN"
 "http://www.w3.org/Graphics/SVG/1.1/DTD/svg11.dtd">
<!-- Generated by graphviz version 2.43.0 (0)
 -->
<!-- Title: G Pages: 1 -->
<svg width="728pt" height="1466pt"
 viewBox="0.00 0.00 727.50 1466.00" xmlns="http://www.w3.org/2000/svg" xmlns:xlink="http://www.w3.org/1999/xlink">
<g id="graph0" class="graph" transform="scale(1 1) rotate(0) translate(4 1462)">
<title>G</title>
<polygon fill="white" stroke="transparent" points="-4,4 -4,-1462 723.5,-1462 723.5,4 -4,4"/>
<!-- node0 -->
<g id="node1" class="node">
<title>node0</title>
<polygon fill="none" stroke="black" points="309,-1389.5 309,-1457.5 410,-1457.5 410,-1389.5 309,-1389.5"/>
<text text-anchor="start" x="317" y="-1442.3" font-family="Times,serif" font-size="14.00">Let l0 =</text>
<text text-anchor="start" x="317" y="-1427.3" font-family="Times,serif" font-size="14.00"> Constant ()</text>
<text text-anchor="start" x="317" y="-1412.3" font-family="Times,serif" font-size="14.00"> types = ()</text>
<text text-anchor="start" x="317" y="-1397.3" font-family="Times,serif" font-size="14.00"> keys = (())</text>
</g>
<!-- node2 -->
<g id="node3" class="node">
<title>node2</title>
<polygon fill="none" stroke="black" points="82,-1254.5 82,-1337.5 351,-1337.5 351,-1254.5 82,-1254.5"/>
<text text-anchor="start" x="90" y="-1322.3" font-family="Times,serif" font-size="14.00">Let l1 =</text>
<text text-anchor="start" x="90" y="-1307.3" font-family="Times,serif" font-size="14.00"> Join %0 %1</text>
<text text-anchor="start" x="90" y="-1292.3" font-family="Times,serif" font-size="14.00"> implementation = Unimplemented</text>
<text text-anchor="start" x="90" y="-1277.3" font-family="Times,serif" font-size="14.00"> types = (integer, integer)</text>
<text text-anchor="start" x="90" y="-1262.3" font-family="Times,serif" font-size="14.00"> keys = ()</text>
</g>
<!-- node0&#45;&gt;node2 -->
<g id="edge4" class="edge">
<title>node0&#45;&gt;node2</title>
<path fill="none" stroke="black" d="M321.55,-1389.2C305.91,-1375.47 287.5,-1359.31 270.49,-1344.39"/>
<polygon fill="black" stroke="black" points="272.62,-1341.59 262.79,-1337.63 268,-1346.86 272.62,-1341.59"/>
<text text-anchor="start" x="301.5" y="-1359.8" font-family="Times,serif" font-size="14.00">%0</text>
</g>
<!-- node4 -->
<g id="node5" class="node">
<title>node4</title>
<polygon fill="none" stroke="black" points="369,-1254.5 369,-1337.5 638,-1337.5 638,-1254.5 369,-1254.5"/>
<text text-anchor="start" x="377" y="-1322.3" font-family="Times,serif" font-size="14.00">Let l2 =</text>
<text text-anchor="start" x="377" y="-1307.3" font-family="Times,serif" font-size="14.00"> Join %0 %3</text>
<text text-anchor="start" x="377" y="-1292.3" font-family="Times,serif" font-size="14.00"> implementation = Unimplemented</text>
<text text-anchor="start" x="377" y="-1277.3" font-family="Times,serif" font-size="14.00"> types = (integer, integer)</text>
<text text-anchor="start" x="377" y="-1262.3" font-family="Times,serif" font-size="14.00"> keys = ()</text>
</g>
<!-- node0&#45;&gt;node4 -->
<g id="edge1" class="edge">
<title>node0&#45;&gt;node4</title>
<path fill="none" stroke="black" d="M397.71,-1389.2C413.46,-1375.47 432.01,-1359.31 449.13,-1344.39"/>
<polygon fill="black" stroke="black" points="451.64,-1346.84 456.88,-1337.63 447.04,-1341.56 451.64,-1346.84"/>
<text text-anchor="start" x="431.5" y="-1359.8" font-family="Times,serif" font-size="14.00">%0</text>
</g>
<!-- node1 -->
<g id="node2" class="node">
<title>node1</title>
<polygon fill="none" stroke="black" points="88,-1397 88,-1450 291,-1450 291,-1397 88,-1397"/>
<text text-anchor="start" x="96" y="-1434.8" font-family="Times,serif" font-size="14.00">Get qgm.public.r (u42)</text>
<text text-anchor="start" x="96" y="-1419.8" font-family="Times,serif" font-size="14.00"> types = (integer, integer)</text>
<text text-anchor="start" x="96" y="-1404.8" font-family="Times,serif" font-size="14.00"> keys = ()</text>
</g>
<!-- node1&#45;&gt;node2 -->
<g id="edge13" class="edge">
<title>node1&#45;&gt;node2</title>
<path fill="none" stroke="black" d="M195.03,-1396.8C198.04,-1382.79 201.89,-1364.93 205.48,-1348.2"/>
<polygon fill="black" stroke="black" points="209,-1348.49 207.68,-1337.98 202.16,-1347.02 209,-1348.49"/>
<text text-anchor="start" x="203.5" y="-1359.8" font-family="Times,serif" font-size="14.00">%1</text>
</g>
<!-- node5 -->
<g id="node6" class="node">
<title>node5</title>
<polygon fill="none" stroke="black" points="298,-1029.5 298,-1202.5 619,-1202.5 619,-1029.5 298,-1029.5"/>
<text text-anchor="start" x="306" y="-1187.3" font-family="Times,serif" font-size="14.00">Let l3 =</text>
<text text-anchor="start" x="306" y="-1172.3" font-family="Times,serif" font-size="14.00"> Join %2 %4</text>
<text text-anchor="start" x="306" y="-1157.3" font-family="Times,serif" font-size="14.00"> implementation = Unimplemented</text>
<text text-anchor="start" x="306" y="-1142.3" font-family="Times,serif" font-size="14.00"> types = (integer, integer, integer, integer)</text>
<text text-anchor="start" x="306" y="-1127.3" font-family="Times,serif" font-size="14.00"> keys = ()</text>
<text text-anchor="start" x="306" y="-1112.3" font-family="Times,serif" font-size="14.00"> Project (#0..#3)</text>
<text text-anchor="start" x="306" y="-1097.3" font-family="Times,serif" font-size="14.00"> types = (integer, integer, integer, integer)</text>
<text text-anchor="start" x="306" y="-1082.3" font-family="Times,serif" font-size="14.00"> keys = ()</text>
<text text-anchor="start" x="306" y="-1067.3" font-family="Times,serif" font-size="14.00"> Filter ((#1 = #2) &amp;&amp; (#0 &gt; #3))</text>
<text text-anchor="start" x="306" y="-1052.3" font-family="Times,serif" font-size="14.00"> types = (integer, integer, integer, integer)</text>
<text text-anchor="start" x="306" y="-1037.3" font-family="Times,serif" font-size="14.00"> keys = ()</text>
</g>
<!-- node2&#45;&gt;node5 -->
<g id="edge2" class="edge">
<title>node2&#45;&gt;node5</title>
<path fill="none" stroke="black" d="M271.72,-1254.39C290.27,-1240.74 311.79,-1224.91 333.48,-1208.96"/>
<polygon fill="black" stroke="black" points="335.82,-1211.58 341.8,-1202.84 331.67,-1205.94 335.82,-1211.58"/>
<text text-anchor="start" x="316.5" y="-1224.8" font-family="Times,serif" font-size="14.00">%2</text>
</g>
<!-- node7 -->
<g id="node8" class="node">
<title>node7</title>
<polygon fill="none" stroke="black" points="123,-912.5 123,-1010.5 326,-1010.5 326,-912.5 123,-912.5"/>
<text text-anchor="start" x="131" y="-995.3" font-family="Times,serif" font-size="14.00">Get %2 (l1)</text>
<text text-anchor="start" x="131" y="-980.3" font-family="Times,serif" font-size="14.00"> types = (integer, integer)</text>
<text text-anchor="start" x="131" y="-965.3" font-family="Times,serif" font-size="14.00"> keys = ()</text>
<text text-anchor="start" x="131" y="-950.3" font-family="Times,serif" font-size="14.00"> Distinct group=(#0, #1)</text>
<text text-anchor="start" x="131" y="-935.3" font-family="Times,serif" font-size="14.00"> types = (integer, integer)</text>
<text text-anchor="start" x="131" y="-920.3" font-family="Times,serif" font-size="14.00"> keys = ((#0, #1))</text>
</g>
<!-- node2&#45;&gt;node7 -->
<g id="edge11" class="edge">
<title>node2&#45;&gt;node7</title>
<path fill="none" stroke="black" d="M217.48,-1254.23C218.89,-1195.79 221.48,-1087.91 223.09,-1020.98"/>
<polygon fill="black" stroke="black" points="226.6,-1020.69 223.34,-1010.6 219.6,-1020.52 226.6,-1020.69"/>
<text text-anchor="start" x="218.5" y="-1224.8" font-family="Times,serif" font-size="14.00">%2</text>
</g>
<!-- node9 -->
<g id="node10" class="node">
<title>node9</title>
<polygon fill="none" stroke="black" points="0,-480.5 0,-593.5 321,-593.5 321,-480.5 0,-480.5"/>
<text text-anchor="start" x="8" y="-578.3" font-family="Times,serif" font-size="14.00">Join %8 %2 (= #0 #2) (= #1 #3)</text>
<text text-anchor="start" x="8" y="-563.3" font-family="Times,serif" font-size="14.00"> implementation = Unimplemented</text>
<text text-anchor="start" x="8" y="-548.3" font-family="Times,serif" font-size="14.00"> types = (integer, integer, integer, integer)</text>
<text text-anchor="start" x="8" y="-533.3" font-family="Times,serif" font-size="14.00"> keys = ()</text>
<text text-anchor="start" x="8" y="-518.3" font-family="Times,serif" font-size="14.00"> Project (#0, #1)</text>
<text text-anchor="start" x="8" y="-503.3" font-family="Times,serif" font-size="14.00"> types = (integer, integer)</text>
<text text-anchor="start" x="8" y="-488.3" font-family="Times,serif" font-size="14.00"> keys = ()</text>
</g>
<!-- node2&#45;&gt;node9 -->
<g id="edge9" class="edge">
<title>node2&#45;&gt;node9</title>
<path fill="none" stroke="black" d="M174.13,-1254.23C143.87,-1220.59 108.5,-1169.95 108.5,-1117 108.5,-1117 108.5,-1117 108.5,-671 108.5,-648 115.33,-624.19 124.04,-603.2"/>
<polygon fill="black" stroke="black" points="127.37,-604.32 128.16,-593.76 120.95,-601.53 127.37,-604.32"/>
<text text-anchor="start" x="108.5" y="-818.3" font-family="Times,serif" font-size="14.00">%2</text>
</g>
<!-- node3 -->
<g id="node4" class="node">
<title>node3</title>
<polygon fill="none" stroke="black" points="428,-1397 428,-1450 631,-1450 631,-1397 428,-1397"/>
<text text-anchor="start" x="436" y="-1434.8" font-family="Times,serif" font-size="14.00">Get qgm.public.s (u44)</text>
<text text-anchor="start" x="436" y="-1419.8" font-family="Times,serif" font-size="14.00"> types = (integer, integer)</text>
<text text-anchor="start" x="436" y="-1404.8" font-family="Times,serif" font-size="14.00"> keys = ()</text>
</g>
<!-- node3&#45;&gt;node4 -->
<g id="edge3" class="edge">
<title>node3&#45;&gt;node4</title>
<path fill="none" stroke="black" d="M524.18,-1396.8C521.27,-1382.79 517.57,-1364.93 514.11,-1348.2"/>
<polygon fill="black" stroke="black" points="517.45,-1347.06 511.99,-1337.98 510.59,-1348.48 517.45,-1347.06"/>
<text text-anchor="start" x="518.5" y="-1359.8" font-family="Times,serif" font-size="14.00">%3</text>
</g>
<!-- node4&#45;&gt;node5 -->
<g id="edge10" class="edge">
<title>node4&#45;&gt;node5</title>
<path fill="none" stroke="black" d="M493.18,-1254.16C490.01,-1241.65 486.39,-1227.33 482.71,-1212.76"/>
<polygon fill="black" stroke="black" points="486,-1211.49 480.15,-1202.65 479.21,-1213.21 486,-1211.49"/>
<text text-anchor="start" x="487.5" y="-1224.8" font-family="Times,serif" font-size="14.00">%4</text>
</g>
<!-- node6 -->
<g id="node7" class="node">
<title>node6</title>
<polygon fill="none" stroke="black" points="266,-750.5 266,-893.5 587,-893.5 587,-750.5 266,-750.5"/>
<text text-anchor="start" x="274" y="-878.3" font-family="Times,serif" font-size="14.00">Get %5 (l3)</text>
<text text-anchor="start" x="274" y="-863.3" font-family="Times,serif" font-size="14.00"> types = (integer, integer, integer, integer)</text>
<text text-anchor="start" x="274" y="-848.3" font-family="Times,serif" font-size="14.00"> keys = ()</text>
<text text-anchor="start" x="274" y="-833.3" font-family="Times,serif" font-size="14.00"> Distinct group=(#0, #1)</text>
<text text-anchor="start" x="274" y="-818.3" font-family="Times,serif" font-size="14.00"> types = (integer, integer)</text>
<text text-anchor="start" x="274" y="-803.3" font-family="Times,serif" font-size="14.00"> keys = ((#0, #1))</text>
<text text-anchor="start" x="274" y="-788.3" font-family="Times,serif" font-size="14.00"> Negate</text>
<text text-anchor="start" x="274" y="-773.3" font-family="Times,serif" font-size="14.00"> types = (integer, integer)</text>
<text text-anchor="start" x="274" y="-758.3" font-family="Times,serif" font-size="14.00"> keys = ()</text>
</g>
<!-- node5&#45;&gt;node6 -->
<g id="edge12" class="edge">
<title>node5&#45;&gt;node6</title>
<path fill="none" stroke="black" d="M449.12,-1029.36C444.78,-989.82 439.66,-943.1 435.39,-904.12"/>
<polygon fill="black" stroke="black" points="438.84,-903.43 434.27,-893.87 431.88,-904.19 438.84,-903.43"/>
<text text-anchor="start" x="445.5" y="-957.8" font-family="Times,serif" font-size="14.00">%5</text>
</g>
<!-- node12 -->
<g id="node13" class="node">
<title>node12</title>
<polygon fill="none" stroke="black" points="347.5,-240.5 347.5,-308.5 685.5,-308.5 685.5,-240.5 347.5,-240.5"/>
<text text-anchor="start" x="355.5" y="-293.3" font-family="Times,serif" font-size="14.00">Let l4 =</text>
<text text-anchor="start" x="355.5" y="-278.3" font-family="Times,serif" font-size="14.00"> Union %5 %11</text>
<text text-anchor="start" x="355.5" y="-263.3" font-family="Times,serif" font-size="14.00"> types = (integer, integer, integer?, integer?)</text>
<text text-anchor="start" x="355.5" y="-248.3" font-family="Times,serif" font-size="14.00"> keys = ()</text>
</g>
<!-- node5&#45;&gt;node12 -->
<g id="edge16" class="edge">
<title>node5&#45;&gt;node12</title>
<path fill="none" stroke="black" d="M533.32,-1029.32C573.76,-974.24 615.5,-898.98 615.5,-823 615.5,-823 615.5,-823 615.5,-393.5 615.5,-362.63 595.37,-335.6 573.26,-315.23"/>
<polygon fill="black" stroke="black" points="575.53,-312.57 565.71,-308.58 570.9,-317.82 575.53,-312.57"/>
<text text-anchor="start" x="615.5" y="-615.8" font-family="Times,serif" font-size="14.00">%5</text>
</g>
<!-- node8 -->
<g id="node9" class="node">
<title>node8</title>
<polygon fill="none" stroke="black" points="137,-645.5 137,-698.5 340,-698.5 340,-645.5 137,-645.5"/>
<text text-anchor="start" x="145" y="-683.3" font-family="Times,serif" font-size="14.00">Union %6 %7</text>
<text text-anchor="start" x="145" y="-668.3" font-family="Times,serif" font-size="14.00"> types = (integer, integer)</text>
<text text-anchor="start" x="145" y="-653.3" font-family="Times,serif" font-size="14.00"> keys = ()</text>
</g>
<!-- node6&#45;&gt;node8 -->
<g id="edge6" class="edge">
<title>node6&#45;&gt;node8</title>
<path fill="none" stroke="black" d="M336.9,-750.47C316.75,-734.6 296.32,-718.52 279.34,-705.15"/>
<polygon fill="black" stroke="black" points="281.32,-702.26 271.3,-698.82 276.99,-707.76 281.32,-702.26"/>
<text text-anchor="start" x="310.5" y="-720.8" font-family="Times,serif" font-size="14.00">%6</text>
</g>
<!-- node7&#45;&gt;node8 -->
<g id="edge17" class="edge">
<title>node7&#45;&gt;node8</title>
<path fill="none" stroke="black" d="M226.25,-912.41C227.88,-869.74 230.5,-805.7 233.5,-750 234.23,-736.49 235.16,-721.65 236.02,-708.64"/>
<polygon fill="black" stroke="black" points="239.51,-708.87 236.69,-698.66 232.53,-708.4 239.51,-708.87"/>
<text text-anchor="start" x="233.5" y="-818.3" font-family="Times,serif" font-size="14.00">%7</text>
</g>
<!-- node8&#45;&gt;node9 -->
<g id="edge8" class="edge">
<title>node8&#45;&gt;node9</title>
<path fill="none" stroke="black" d="M223.46,-645.36C216.24,-633.05 207.24,-617.7 198.32,-602.49"/>
<polygon fill="black" stroke="black" points="201.17,-600.43 193.09,-593.57 195.13,-603.97 201.17,-600.43"/>
<text text-anchor="start" x="211.5" y="-615.8" font-family="Times,serif" font-size="14.00">%8</text>
</g>
<!-- node11 -->
<g id="node12" class="node">
<title>node11</title>
<polygon fill="none" stroke="black" points="249.5,-360.5 249.5,-428.5 587.5,-428.5 587.5,-360.5 249.5,-360.5"/>
<text text-anchor="start" x="257.5" y="-413.3" font-family="Times,serif" font-size="14.00">Join %9 %10</text>
<text text-anchor="start" x="257.5" y="-398.3" font-family="Times,serif" font-size="14.00"> implementation = Unimplemented</text>
<text text-anchor="start" x="257.5" y="-383.3" font-family="Times,serif" font-size="14.00"> types = (integer, integer, integer?, integer?)</text>
<text text-anchor="start" x="257.5" y="-368.3" font-family="Times,serif" font-size="14.00"> keys = ()</text>
</g>
<!-- node9&#45;&gt;node11 -->
<g id="edge14" class="edge">
<title>node9&#45;&gt;node11</title>
<path fill="none" stroke="black" d="M262.47,-480.47C291.45,-464.69 322.33,-447.87 348.91,-433.4"/>
<polygon fill="black" stroke="black" points="350.64,-436.44 357.75,-428.58 347.29,-430.29 350.64,-436.44"/>
<text text-anchor="start" x="320.5" y="-450.8" font-family="Times,serif" font-size="14.00">%9</text>
</g>
<!-- node10 -->
<g id="node11" class="node">
<title>node10</title>
<polygon fill="none" stroke="black" points="339,-510.5 339,-563.5 558,-563.5 558,-510.5 339,-510.5"/>
<text text-anchor="start" x="347" y="-548.3" font-family="Times,serif" font-size="14.00">Constant (null, null)</text>
<text text-anchor="start" x="347" y="-533.3" font-family="Times,serif" font-size="14.00"> types = (integer?, integer?)</text>
<text text-anchor="start" x="347" y="-518.3" font-family="Times,serif" font-size="14.00"> keys = (())</text>
</g>
<!-- node10&#45;&gt;node11 -->
<g id="edge5" class="edge">
<title>node10&#45;&gt;node11</title>
<path fill="none" stroke="black" d="M443,-510.23C438.72,-490.22 432.7,-462.02 427.7,-438.59"/>
<polygon fill="black" stroke="black" points="431.07,-437.6 425.56,-428.55 424.22,-439.06 431.07,-437.6"/>
<text text-anchor="start" x="432.5" y="-450.8" font-family="Times,serif" font-size="14.00">%10</text>
</g>
<!-- node11&#45;&gt;node12 -->
<g id="edge7" class="edge">
<title>node11&#45;&gt;node12</title>
<path fill="none" stroke="black" d="M446.06,-360.32C457.33,-346.74 470.49,-330.9 482.36,-316.6"/>
<polygon fill="black" stroke="black" points="485.11,-318.77 488.81,-308.84 479.73,-314.3 485.11,-318.77"/>
<text text-anchor="start" x="472.5" y="-330.8" font-family="Times,serif" font-size="14.00">%11</text>
</g>
<!-- node13 -->
<g id="node14" class="node">
<title>node13</title>
<polygon fill="none" stroke="black" points="313.5,-0.5 313.5,-188.5 719.5,-188.5 719.5,-0.5 313.5,-0.5"/>
<text text-anchor="start" x="321.5" y="-173.3" font-family="Times,serif" font-size="14.00">Get %12 (l4)</text>
<text text-anchor="start" x="321.5" y="-158.3" font-family="Times,serif" font-size="14.00"> types = (integer, integer, integer?, integer?)</text>
<text text-anchor="start" x="321.5" y="-143.3" font-family="Times,serif" font-size="14.00"> keys = ()</text>
<text text-anchor="start" x="321.5" y="-128.3" font-family="Times,serif" font-size="14.00"> Map coalesce(#3, 0)</text>
<text text-anchor="start" x="321.5" y="-113.3" font-family="Times,serif" font-size="14.00"> types = (integer, integer, integer?, integer?, integer?)</text>
<text text-anchor="start" x="321.5" y="-98.3" font-family="Times,serif" font-size="14.00"> keys = ()</text>
<text text-anchor="start" x="321.5" y="-83.3" font-family="Times,serif" font-size="14.00"> Project (#0..#4)</text>
<text text-anchor="start" x="321.5" y="-68.3" font-family="Times,serif" font-size="14.00"> types = (integer, integer, integer?, integer?, integer?)</text>
<text text-anchor="start" x="321.5" y="-53.3" font-family="Times,serif" font-size="14.00"> keys = ()</text>
<text text-anchor="start" x="321.5" y="-38.3" font-family="Times,serif" font-size="14.00"> Project (#0, #1, #4)</text>
<text text-anchor="start" x="321.5" y="-23.3" font-family="Times,serif" font-size="14.00"> types = (integer, integer, integer?)</text>
<text text-anchor="start" x="321.5" y="-8.3" font-family="Times,serif" font-size="14.00"> keys = ()</text>
</g>
<!-- node12&#45;&gt;node13 -->
<g id="edge15" class="edge">
<title>node12&#45;&gt;node13</title>
<path fill="none" stroke="black" d="M516.5,-240.44C516.5,-228.35 516.5,-213.94 516.5,-198.97"/>
<polygon fill="black" stroke="black" points="520,-198.54 516.5,-188.54 513,-198.54 520,-198.54"/>
<text text-anchor="start" x="516.5" y="-210.8" font-family="Times,serif" font-size="14.00">%12</text>
</g>
</g>
</svg>
