<?xml version="1.0" encoding="UTF-8" standalone="no"?>
<!DOCTYPE svg PUBLIC "-//W3C//DTD SVG 1.1//EN"
 "http://www.w3.org/Graphics/SVG/1.1/DTD/svg11.dtd">
<!-- Generated by graphviz version 2.43.0 (0)
 -->
<!-- Title: G Pages: 1 -->
<svg width="724pt" height="392pt"
 viewBox="0.00 0.00 724.00 392.00" xmlns="http://www.w3.org/2000/svg" xmlns:xlink="http://www.w3.org/1999/xlink">
<g id="graph0" class="graph" transform="scale(1 1) rotate(0) translate(4 388)">
<title>G</title>
<polygon fill="white" stroke="transparent" points="-4,4 -4,-388 720,-388 720,4 -4,4"/>
<!-- node0 -->
<g id="node1" class="node">
<title>node0</title>
<polygon fill="none" stroke="black" points="302.5,-345.5 302.5,-383.5 403.5,-383.5 403.5,-345.5 302.5,-345.5"/>
<text text-anchor="start" x="310.5" y="-368.3" font-family="Times,serif" font-size="14.00">Let l0 =</text>
<text text-anchor="start" x="310.5" y="-353.3" font-family="Times,serif" font-size="14.00"> Constant ()</text>
</g>
<!-- node2 -->
<g id="node3" class="node">
<title>node2</title>
<polygon fill="none" stroke="black" points="80.5,-255.5 80.5,-293.5 349.5,-293.5 349.5,-255.5 80.5,-255.5"/>
<text text-anchor="start" x="88.5" y="-278.3" font-family="Times,serif" font-size="14.00">Join %0 %1</text>
<text text-anchor="start" x="88.5" y="-263.3" font-family="Times,serif" font-size="14.00"> implementation = Unimplemented</text>
</g>
<!-- node0&#45;&gt;node2 -->
<g id="edge5" class="edge">
<title>node0&#45;&gt;node2</title>
<path fill="none" stroke="black" d="M324.74,-345.48C303.86,-332.16 275.21,-313.9 252.43,-299.37"/>
<polygon fill="black" stroke="black" points="254.01,-296.22 243.7,-293.8 250.25,-302.13 254.01,-296.22"/>
<text text-anchor="start" x="292" y="-315.8" font-family="Times,serif" font-size="14.00">%0</text>
</g>
<!-- node4 -->
<g id="node5" class="node">
<title>node4</title>
<polygon fill="none" stroke="black" points="367.5,-255.5 367.5,-293.5 636.5,-293.5 636.5,-255.5 367.5,-255.5"/>
<text text-anchor="start" x="375.5" y="-278.3" font-family="Times,serif" font-size="14.00">Join %0 %3</text>
<text text-anchor="start" x="375.5" y="-263.3" font-family="Times,serif" font-size="14.00"> implementation = Unimplemented</text>
</g>
<!-- node0&#45;&gt;node4 -->
<g id="edge1" class="edge">
<title>node0&#45;&gt;node4</title>
<path fill="none" stroke="black" d="M383.51,-345.48C406.34,-332 437.74,-313.45 462.49,-298.84"/>
<polygon fill="black" stroke="black" points="464.44,-301.75 471.27,-293.65 460.88,-295.72 464.44,-301.75"/>
<text text-anchor="start" x="436" y="-315.8" font-family="Times,serif" font-size="14.00">%0</text>
</g>
<!-- node1 -->
<g id="node2" class="node">
<title>node1</title>
<polygon fill="none" stroke="black" points="65.5,-346.5 65.5,-382.5 284.5,-382.5 284.5,-346.5 65.5,-346.5"/>
<text text-anchor="start" x="73.5" y="-360.8" font-family="Times,serif" font-size="14.00">Get tpch.public.orders (u24)</text>
</g>
<!-- node1&#45;&gt;node2 -->
<g id="edge6" class="edge">
<title>node1&#45;&gt;node2</title>
<path fill="none" stroke="black" d="M182.9,-346.11C188.49,-333.82 196.09,-317.09 202.5,-303"/>
<polygon fill="black" stroke="black" points="205.75,-304.31 206.7,-293.76 199.38,-301.41 205.75,-304.31"/>
<text text-anchor="start" x="197" y="-315.8" font-family="Times,serif" font-size="14.00">%1</text>
</g>
<!-- node5 -->
<g id="node6" class="node">
<title>node5</title>
<polygon fill="none" stroke="black" points="0,-0.5 0,-203.5 716,-203.5 716,-0.5 0,-0.5"/>
<text text-anchor="start" x="8" y="-188.3" font-family="Times,serif" font-size="14.00">Join %2 %4</text>
<text text-anchor="start" x="8" y="-173.3" font-family="Times,serif" font-size="14.00"> implementation = Unimplemented</text>
<text text-anchor="start" x="8" y="-158.3" font-family="Times,serif" font-size="14.00"> Project (#0..#16)</text>
<text text-anchor="start" x="8" y="-143.3" font-family="Times,serif" font-size="14.00"> Filter (#14 = #3)</text>
<text text-anchor="start" x="8" y="-128.3" font-family="Times,serif" font-size="14.00"> Map #0, #1, #2, #3, #4, #5, #6, #7, #8, #9, #10, #11, #12, #13, #14, #15, #16</text>
<text text-anchor="start" x="8" y="-113.3" font-family="Times,serif" font-size="14.00"> Project (#17..#33)</text>
<text text-anchor="start" x="8" y="-98.3" font-family="Times,serif" font-size="14.00"> Filter (((#14 + #3) = i32tonumeric(123)) &amp;&amp; (#14 = #3))</text>
<text text-anchor="start" x="8" y="-83.3" font-family="Times,serif" font-size="14.00"> Map #0, #1, #2, #3, #4, #5, #6, #7, #8, #9, #10, #11, #12, #13, #14, #15, #16</text>
<text text-anchor="start" x="8" y="-68.3" font-family="Times,serif" font-size="14.00"> Project (#17..#33)</text>
<text text-anchor="start" x="8" y="-53.3" font-family="Times,serif" font-size="14.00"> Map #0, #1, #2, #3, #4, #5, #6, #7, #8, #9, #10, #11, #12, #13, #14, #15, #16, &quot;qgm(true)&quot;</text>
<text text-anchor="start" x="8" y="-38.3" font-family="Times,serif" font-size="14.00"> Project (#17..#34)</text>
<text text-anchor="start" x="8" y="-23.3" font-family="Times,serif" font-size="14.00"> Map #17, #0, #1, #2, #3, #4, #5, #6, #7, #8, #9, #10, #11, #12, #13, #14, #15, #16</text>
<text text-anchor="start" x="8" y="-8.3" font-family="Times,serif" font-size="14.00"> Project (#18..#35)</text>
</g>
<!-- node2&#45;&gt;node5 -->
<g id="edge3" class="edge">
<title>node2&#45;&gt;node5</title>
<path fill="none" stroke="black" d="M230.3,-255.25C239.8,-243.93 252.87,-228.35 267.05,-211.44"/>
<polygon fill="black" stroke="black" points="269.88,-213.51 273.63,-203.6 264.52,-209.01 269.88,-213.51"/>
<text text-anchor="start" x="257" y="-225.8" font-family="Times,serif" font-size="14.00">%2</text>
</g>
<!-- node3 -->
<g id="node4" class="node">
<title>node3</title>
<polygon fill="none" stroke="black" points="421.5,-346.5 421.5,-382.5 660.5,-382.5 660.5,-346.5 421.5,-346.5"/>
<text text-anchor="start" x="429.5" y="-360.8" font-family="Times,serif" font-size="14.00">Get tpch.public.customer (u20)</text>
</g>
<!-- node3&#45;&gt;node4 -->
<g id="edge4" class="edge">
<title>node3&#45;&gt;node4</title>
<path fill="none" stroke="black" d="M533.29,-346.11C527.85,-333.82 520.43,-317.09 514.19,-303"/>
<polygon fill="black" stroke="black" points="517.34,-301.48 510.09,-293.76 510.94,-304.32 517.34,-301.48"/>
<text text-anchor="start" x="523" y="-315.8" font-family="Times,serif" font-size="14.00">%3</text>
</g>
<!-- node4&#45;&gt;node5 -->
<g id="edge2" class="edge">
<title>node4&#45;&gt;node5</title>
<path fill="none" stroke="black" d="M486.59,-255.25C477.03,-243.93 463.86,-228.35 449.59,-211.44"/>
<polygon fill="black" stroke="black" points="452.09,-208.98 442.96,-203.6 446.74,-213.5 452.09,-208.98"/>
<text text-anchor="start" x="470" y="-225.8" font-family="Times,serif" font-size="14.00">%4</text>
</g>
</g>
</svg>
