<?xml version="1.0" encoding="UTF-8" standalone="no"?>
<!DOCTYPE svg PUBLIC "-//W3C//DTD SVG 1.1//EN"
 "http://www.w3.org/Graphics/SVG/1.1/DTD/svg11.dtd">
<!-- Generated by graphviz version 2.43.0 (0)
 -->
<!-- Title: G Pages: 1 -->
<svg width="1072pt" height="302pt"
 viewBox="0.00 0.00 1072.00 302.00" xmlns="http://www.w3.org/2000/svg" xmlns:xlink="http://www.w3.org/1999/xlink">
<g id="graph0" class="graph" transform="scale(1 1) rotate(0) translate(4 298)">
<title>G</title>
<polygon fill="white" stroke="transparent" points="-4,4 -4,-298 1068,-298 1068,4 -4,4"/>
<!-- node0 -->
<g id="node1" class="node">
<title>node0</title>
<polygon fill="none" stroke="black" points="11.5,-240.5 11.5,-293.5 538.5,-293.5 538.5,-240.5 11.5,-240.5"/>
<text text-anchor="start" x="19.5" y="-278.3" font-family="Times,serif" font-size="14.00">Get tpch.public.orders (u24)</text>
<text text-anchor="start" x="19.5" y="-263.3" font-family="Times,serif" font-size="14.00"> types = (integer?, integer, text, numeric, date, text, text, integer, text)</text>
<text text-anchor="start" x="19.5" y="-248.3" font-family="Times,serif" font-size="14.00"> keys = ()</text>
</g>
<!-- node2 -->
<g id="node3" class="node">
<title>node2</title>
<polygon fill="none" stroke="black" points="0,-0.5 0,-188.5 1064,-188.5 1064,-0.5 0,-0.5"/>
<text text-anchor="start" x="8" y="-173.3" font-family="Times,serif" font-size="14.00">FullOuterJoin %0 %1 on (#14 = #3)</text>
<text text-anchor="start" x="8" y="-158.3" font-family="Times,serif" font-size="14.00"> types = (integer?, integer?, text?, numeric?, date?, text?, text?, integer?, text?, integer?, text?, text?, integer?, text?, numeric?, text?, text?)</text>
<text text-anchor="start" x="8" y="-143.3" font-family="Times,serif" font-size="14.00"> keys = ()</text>
<text text-anchor="start" x="8" y="-128.3" font-family="Times,serif" font-size="14.00"> Filter (((#14 + #3) = i32tonumeric(123)) &amp;&amp; (#14 = #3))</text>
<text text-anchor="start" x="8" y="-113.3" font-family="Times,serif" font-size="14.00"> types = (integer?, integer?, text?, numeric?, date?, text?, text?, integer?, text?, integer?, text?, text?, integer?, text?, numeric?, text?, text?)</text>
<text text-anchor="start" x="8" y="-98.3" font-family="Times,serif" font-size="14.00"> keys = ()</text>
<text text-anchor="start" x="8" y="-83.3" font-family="Times,serif" font-size="14.00"> Map &quot;qgm(true)&quot;</text>
<text text-anchor="start" x="8" y="-68.3" font-family="Times,serif" font-size="14.00"> types = (integer?, integer?, text?, numeric?, date?, text?, text?, integer?, text?, integer?, text?, text?, integer?, text?, numeric?, text?, text?, text)</text>
<text text-anchor="start" x="8" y="-53.3" font-family="Times,serif" font-size="14.00"> keys = ()</text>
<text text-anchor="start" x="8" y="-38.3" font-family="Times,serif" font-size="14.00"> Project (#17, #0..#16)</text>
<text text-anchor="start" x="8" y="-23.3" font-family="Times,serif" font-size="14.00"> types = (text, integer?, integer?, text?, numeric?, date?, text?, text?, integer?, text?, integer?, text?, text?, integer?, text?, numeric?, text?, text?)</text>
<text text-anchor="start" x="8" y="-8.3" font-family="Times,serif" font-size="14.00"> keys = ()</text>
</g>
<!-- node0&#45;&gt;node2 -->
<g id="edge2" class="edge">
<title>node0&#45;&gt;node2</title>
<path fill="none" stroke="black" d="M313.48,-240.47C332.74,-227.69 357.44,-211.31 383.26,-194.18"/>
<polygon fill="black" stroke="black" points="385.27,-197.04 391.67,-188.6 381.4,-191.21 385.27,-197.04"/>
<text text-anchor="start" x="359" y="-210.8" font-family="Times,serif" font-size="14.00">%0</text>
</g>
<!-- node1 -->
<g id="node2" class="node">
<title>node1</title>
<polygon fill="none" stroke="black" points="556.5,-240.5 556.5,-293.5 1021.5,-293.5 1021.5,-240.5 556.5,-240.5"/>
<text text-anchor="start" x="564.5" y="-278.3" font-family="Times,serif" font-size="14.00">Get tpch.public.customer (u20)</text>
<text text-anchor="start" x="564.5" y="-263.3" font-family="Times,serif" font-size="14.00"> types = (integer?, text, text, integer, text, numeric, text, text)</text>
<text text-anchor="start" x="564.5" y="-248.3" font-family="Times,serif" font-size="14.00"> keys = ()</text>
</g>
<!-- node1&#45;&gt;node2 -->
<g id="edge1" class="edge">
<title>node1&#45;&gt;node2</title>
<path fill="none" stroke="black" d="M750.52,-240.47C731.26,-227.69 706.56,-211.31 680.74,-194.18"/>
<polygon fill="black" stroke="black" points="682.6,-191.21 672.33,-188.6 678.73,-197.04 682.6,-191.21"/>
<text text-anchor="start" x="721" y="-210.8" font-family="Times,serif" font-size="14.00">%1</text>
</g>
</g>
</svg>
