<?xml version="1.0" encoding="UTF-8" standalone="no"?>
<!DOCTYPE svg PUBLIC "-//W3C//DTD SVG 1.1//EN"
 "http://www.w3.org/Graphics/SVG/1.1/DTD/svg11.dtd">
<!-- Generated by graphviz version 2.43.0 (0)
 -->
<!-- Title: G Pages: 1 -->
<svg width="1018pt" height="362pt"
 viewBox="0.00 0.00 1018.00 362.00" xmlns="http://www.w3.org/2000/svg" xmlns:xlink="http://www.w3.org/1999/xlink">
<g id="graph0" class="graph" transform="scale(1 1) rotate(0) translate(4 358)">
<title>G</title>
<polygon fill="white" stroke="transparent" points="-4,4 -4,-358 1014,-358 1014,4 -4,4"/>
<!-- node0 -->
<g id="node1" class="node">
<title>node0</title>
<polygon fill="none" stroke="black" points="0,-210.5 0,-353.5 527,-353.5 527,-210.5 0,-210.5"/>
<text text-anchor="start" x="8" y="-338.3" font-family="Times,serif" font-size="14.00">Get tpch.public.orders (u24)</text>
<text text-anchor="start" x="8" y="-323.3" font-family="Times,serif" font-size="14.00"> types = (integer?, integer, text, numeric, date, text, text, integer, text)</text>
<text text-anchor="start" x="8" y="-308.3" font-family="Times,serif" font-size="14.00"> keys = ()</text>
<text text-anchor="start" x="8" y="-293.3" font-family="Times,serif" font-size="14.00"> Filter (123 = (#3 + #3))</text>
<text text-anchor="start" x="8" y="-278.3" font-family="Times,serif" font-size="14.00"> types = (integer?, integer, text, numeric, date, text, text, integer, text)</text>
<text text-anchor="start" x="8" y="-263.3" font-family="Times,serif" font-size="14.00"> keys = ()</text>
<text text-anchor="start" x="8" y="-248.3" font-family="Times,serif" font-size="14.00"> ArrangeBy (#3)</text>
<text text-anchor="start" x="8" y="-233.3" font-family="Times,serif" font-size="14.00"> types = (integer?, integer, text, numeric, date, text, text, integer, text)</text>
<text text-anchor="start" x="8" y="-218.3" font-family="Times,serif" font-size="14.00"> keys = ()</text>
</g>
<!-- node2 -->
<g id="node3" class="node">
<title>node2</title>
<polygon fill="none" stroke="black" points="47,-0.5 47,-158.5 994,-158.5 994,-0.5 47,-0.5"/>
<text text-anchor="start" x="55" y="-143.3" font-family="Times,serif" font-size="14.00">Join %0 %1 (= #3 #14)</text>
<text text-anchor="start" x="55" y="-128.3" font-family="Times,serif" font-size="14.00"> implementation = Differential %1 %0.(#3)</text>
<text text-anchor="start" x="55" y="-113.3" font-family="Times,serif" font-size="14.00"> types = (integer?, integer, text, numeric, date, text, text, integer, text, integer?, text, text, integer, text, numeric, text, text)</text>
<text text-anchor="start" x="55" y="-98.3" font-family="Times,serif" font-size="14.00"> keys = ()</text>
<text text-anchor="start" x="55" y="-83.3" font-family="Times,serif" font-size="14.00"> Map &quot;qgm(true)&quot;</text>
<text text-anchor="start" x="55" y="-68.3" font-family="Times,serif" font-size="14.00"> types = (integer?, integer, text, numeric, date, text, text, integer, text, integer?, text, text, integer, text, numeric, text, text, text)</text>
<text text-anchor="start" x="55" y="-53.3" font-family="Times,serif" font-size="14.00"> keys = ()</text>
<text text-anchor="start" x="55" y="-38.3" font-family="Times,serif" font-size="14.00"> Project (#17, #0..#13, #3, #15, #16)</text>
<text text-anchor="start" x="55" y="-23.3" font-family="Times,serif" font-size="14.00"> types = (text, integer?, integer, text, numeric, date, text, text, integer, text, integer?, text, text, integer, text, numeric, text, text)</text>
<text text-anchor="start" x="55" y="-8.3" font-family="Times,serif" font-size="14.00"> keys = ()</text>
</g>
<!-- node0&#45;&gt;node2 -->
<g id="edge2" class="edge">
<title>node0&#45;&gt;node2</title>
<path fill="none" stroke="black" d="M354.11,-210.31C372.91,-195.65 392.89,-180.05 412.25,-164.95"/>
<polygon fill="black" stroke="black" points="414.48,-167.65 420.21,-158.74 410.17,-162.13 414.48,-167.65"/>
<text text-anchor="start" x="392.5" y="-180.8" font-family="Times,serif" font-size="14.00">%0</text>
</g>
<!-- node1 -->
<g id="node2" class="node">
<title>node1</title>
<polygon fill="none" stroke="black" points="545,-255.5 545,-308.5 1010,-308.5 1010,-255.5 545,-255.5"/>
<text text-anchor="start" x="553" y="-293.3" font-family="Times,serif" font-size="14.00">Get tpch.public.customer (u20)</text>
<text text-anchor="start" x="553" y="-278.3" font-family="Times,serif" font-size="14.00"> types = (integer?, text, text, integer, text, numeric, text, text)</text>
<text text-anchor="start" x="553" y="-263.3" font-family="Times,serif" font-size="14.00"> keys = ()</text>
</g>
<!-- node1&#45;&gt;node2 -->
<g id="edge1" class="edge">
<title>node1&#45;&gt;node2</title>
<path fill="none" stroke="black" d="M744.69,-255.4C715.32,-232.49 670.57,-197.58 628.76,-164.96"/>
<polygon fill="black" stroke="black" points="630.75,-162.08 620.72,-158.68 626.45,-167.59 630.75,-162.08"/>
<text text-anchor="start" x="657.5" y="-180.8" font-family="Times,serif" font-size="14.00">%1</text>
</g>
</g>
</svg>
