<?xml version="1.0" encoding="UTF-8" standalone="no"?>
<!DOCTYPE svg PUBLIC "-//W3C//DTD SVG 1.1//EN"
 "http://www.w3.org/Graphics/SVG/1.1/DTD/svg11.dtd">
<!-- Generated by graphviz version 2.43.0 (0)
 -->
<!-- Title: G Pages: 1 -->
<svg width="1292pt" height="602pt"
 viewBox="0.00 0.00 1291.50 602.00" xmlns="http://www.w3.org/2000/svg" xmlns:xlink="http://www.w3.org/1999/xlink">
<g id="graph0" class="graph" transform="scale(1 1) rotate(0) translate(4 598)">
<title>G</title>
<polygon fill="white" stroke="transparent" points="-4,4 -4,-598 1287.5,-598 1287.5,4 -4,4"/>
<!-- node0 -->
<g id="node1" class="node">
<title>node0</title>
<polygon fill="none" stroke="black" points="401,-555.5 401,-593.5 502,-593.5 502,-555.5 401,-555.5"/>
<text text-anchor="start" x="409" y="-578.3" font-family="Times,serif" font-size="14.00">Let l0 =</text>
<text text-anchor="start" x="409" y="-563.3" font-family="Times,serif" font-size="14.00"> Constant ()</text>
</g>
<!-- node2 -->
<g id="node3" class="node">
<title>node2</title>
<polygon fill="none" stroke="black" points="240,-465.5 240,-503.5 509,-503.5 509,-465.5 240,-465.5"/>
<text text-anchor="start" x="248" y="-488.3" font-family="Times,serif" font-size="14.00">Join %0 %1</text>
<text text-anchor="start" x="248" y="-473.3" font-family="Times,serif" font-size="14.00"> implementation = Unimplemented</text>
</g>
<!-- node0&#45;&gt;node2 -->
<g id="edge9" class="edge">
<title>node0&#45;&gt;node2</title>
<path fill="none" stroke="black" d="M435.55,-555.27C424.5,-542.64 409.63,-525.65 397.33,-511.59"/>
<polygon fill="black" stroke="black" points="399.65,-508.93 390.43,-503.71 394.39,-513.54 399.65,-508.93"/>
<text text-anchor="start" x="418.5" y="-525.8" font-family="Times,serif" font-size="14.00">%0</text>
</g>
<!-- node4 -->
<g id="node5" class="node">
<title>node4</title>
<polygon fill="none" stroke="black" points="527,-465.5 527,-503.5 796,-503.5 796,-465.5 527,-465.5"/>
<text text-anchor="start" x="535" y="-488.3" font-family="Times,serif" font-size="14.00">Join %0 %3</text>
<text text-anchor="start" x="535" y="-473.3" font-family="Times,serif" font-size="14.00"> implementation = Unimplemented</text>
</g>
<!-- node0&#45;&gt;node4 -->
<g id="edge3" class="edge">
<title>node0&#45;&gt;node4</title>
<path fill="none" stroke="black" d="M494.5,-555.48C527.52,-541.64 573.27,-522.47 608.54,-507.69"/>
<polygon fill="black" stroke="black" points="610.32,-510.74 618.19,-503.65 607.62,-504.28 610.32,-510.74"/>
<text text-anchor="start" x="568.5" y="-525.8" font-family="Times,serif" font-size="14.00">%0</text>
</g>
<!-- node6 -->
<g id="node7" class="node">
<title>node6</title>
<polygon fill="none" stroke="black" points="814,-465.5 814,-503.5 1083,-503.5 1083,-465.5 814,-465.5"/>
<text text-anchor="start" x="822" y="-488.3" font-family="Times,serif" font-size="14.00">Join %0 %5</text>
<text text-anchor="start" x="822" y="-473.3" font-family="Times,serif" font-size="14.00"> implementation = Unimplemented</text>
</g>
<!-- node0&#45;&gt;node6 -->
<g id="edge8" class="edge">
<title>node0&#45;&gt;node6</title>
<path fill="none" stroke="black" d="M502.15,-557.54C505.31,-556.65 508.44,-555.8 511.5,-555 548.45,-545.37 558.29,-545.56 595.5,-537 622.71,-530.74 629.04,-527.02 656.5,-522 719.04,-510.58 737.59,-512.1 803.67,-504.2"/>
<polygon fill="black" stroke="black" points="804.28,-507.65 813.78,-502.96 803.43,-500.7 804.28,-507.65"/>
<text text-anchor="start" x="656.5" y="-525.8" font-family="Times,serif" font-size="14.00">%0</text>
</g>
<!-- node1 -->
<g id="node2" class="node">
<title>node1</title>
<polygon fill="none" stroke="black" points="0,-556.5 0,-592.5 383,-592.5 383,-556.5 0,-556.5"/>
<text text-anchor="start" x="8" y="-570.8" font-family="Times,serif" font-size="14.00">Get simplify_outer_joins.public.table_f1_f2_f3 (u41)</text>
</g>
<!-- node1&#45;&gt;node2 -->
<g id="edge4" class="edge">
<title>node1&#45;&gt;node2</title>
<path fill="none" stroke="black" d="M227.22,-556.32C255.88,-542.54 296.34,-523.09 327.6,-508.05"/>
<polygon fill="black" stroke="black" points="329.49,-511.03 336.98,-503.54 326.46,-504.72 329.49,-511.03"/>
<text text-anchor="start" x="294.5" y="-525.8" font-family="Times,serif" font-size="14.00">%1</text>
</g>
<!-- node8 -->
<g id="node9" class="node">
<title>node8</title>
<polygon fill="none" stroke="black" points="255,-0.5 255,-233.5 638,-233.5 638,-0.5 255,-0.5"/>
<text text-anchor="start" x="263" y="-218.3" font-family="Times,serif" font-size="14.00">Join %2 %7</text>
<text text-anchor="start" x="263" y="-203.3" font-family="Times,serif" font-size="14.00"> implementation = Unimplemented</text>
<text text-anchor="start" x="263" y="-188.3" font-family="Times,serif" font-size="14.00"> Project (#0..#7)</text>
<text text-anchor="start" x="263" y="-173.3" font-family="Times,serif" font-size="14.00"> Filter (true &amp;&amp; (#2 = #4))</text>
<text text-anchor="start" x="263" y="-158.3" font-family="Times,serif" font-size="14.00"> Map #0, #1, #2, #3, #4, #5, #6, #7</text>
<text text-anchor="start" x="263" y="-143.3" font-family="Times,serif" font-size="14.00"> Project (#8..#15)</text>
<text text-anchor="start" x="263" y="-128.3" font-family="Times,serif" font-size="14.00"> Map #2, #0, #1, #3, #4, #5, #6, #7</text>
<text text-anchor="start" x="263" y="-113.3" font-family="Times,serif" font-size="14.00"> Project (#8..#15)</text>
<text text-anchor="start" x="263" y="-98.3" font-family="Times,serif" font-size="14.00"> Filter (true &amp;&amp; (#3 = 0))</text>
<text text-anchor="start" x="263" y="-83.3" font-family="Times,serif" font-size="14.00"> Map #0, #1, #2, #3, #4, #5, #6, #7</text>
<text text-anchor="start" x="263" y="-68.3" font-family="Times,serif" font-size="14.00"> Project (#8..#15)</text>
<text text-anchor="start" x="263" y="-53.3" font-family="Times,serif" font-size="14.00"> Map #0, #1, #2, #3, #4, #5, #6, #7, &quot;qgm(true)&quot;</text>
<text text-anchor="start" x="263" y="-38.3" font-family="Times,serif" font-size="14.00"> Project (#8..#16)</text>
<text text-anchor="start" x="263" y="-23.3" font-family="Times,serif" font-size="14.00"> Map #8, #0, #1, #2, #3, #5, #7</text>
<text text-anchor="start" x="263" y="-8.3" font-family="Times,serif" font-size="14.00"> Project (#9..#15)</text>
</g>
<!-- node2&#45;&gt;node8 -->
<g id="edge5" class="edge">
<title>node2&#45;&gt;node8</title>
<path fill="none" stroke="black" d="M378.07,-465.37C385.98,-425.23 405.55,-325.88 421.75,-243.67"/>
<polygon fill="black" stroke="black" points="425.2,-244.22 423.7,-233.73 418.34,-242.86 425.2,-244.22"/>
<text text-anchor="start" x="413.5" y="-345.8" font-family="Times,serif" font-size="14.00">%2</text>
</g>
<!-- node3 -->
<g id="node4" class="node">
<title>node3</title>
<polygon fill="none" stroke="black" points="520,-556.5 520,-592.5 903,-592.5 903,-556.5 520,-556.5"/>
<text text-anchor="start" x="528" y="-570.8" font-family="Times,serif" font-size="14.00">Get simplify_outer_joins.public.table_f3_f4_f5 (u43)</text>
</g>
<!-- node3&#45;&gt;node4 -->
<g id="edge10" class="edge">
<title>node3&#45;&gt;node4</title>
<path fill="none" stroke="black" d="M701.62,-556.11C694.57,-543.71 684.95,-526.77 676.9,-512.6"/>
<polygon fill="black" stroke="black" points="679.86,-510.72 671.87,-503.76 673.77,-514.18 679.86,-510.72"/>
<text text-anchor="start" x="688.5" y="-525.8" font-family="Times,serif" font-size="14.00">%3</text>
</g>
<!-- node7 -->
<g id="node8" class="node">
<title>node7</title>
<polygon fill="none" stroke="black" points="527,-285.5 527,-413.5 796,-413.5 796,-285.5 527,-285.5"/>
<text text-anchor="start" x="535" y="-398.3" font-family="Times,serif" font-size="14.00">Join %4 %6</text>
<text text-anchor="start" x="535" y="-383.3" font-family="Times,serif" font-size="14.00"> implementation = Unimplemented</text>
<text text-anchor="start" x="535" y="-368.3" font-family="Times,serif" font-size="14.00"> Project (#0..#4)</text>
<text text-anchor="start" x="535" y="-353.3" font-family="Times,serif" font-size="14.00"> Filter (true &amp;&amp; (#2 = #3))</text>
<text text-anchor="start" x="535" y="-338.3" font-family="Times,serif" font-size="14.00"> Map #0, #1, #2, #3, #4</text>
<text text-anchor="start" x="535" y="-323.3" font-family="Times,serif" font-size="14.00"> Project (#5..#9)</text>
<text text-anchor="start" x="535" y="-308.3" font-family="Times,serif" font-size="14.00"> Map #3, #0, #1, #2, #4</text>
<text text-anchor="start" x="535" y="-293.3" font-family="Times,serif" font-size="14.00"> Project (#5..#9)</text>
</g>
<!-- node4&#45;&gt;node7 -->
<g id="edge1" class="edge">
<title>node4&#45;&gt;node7</title>
<path fill="none" stroke="black" d="M661.5,-465.29C661.5,-454.2 661.5,-439.22 661.5,-423.76"/>
<polygon fill="black" stroke="black" points="665,-423.56 661.5,-413.56 658,-423.56 665,-423.56"/>
<text text-anchor="start" x="661.5" y="-435.8" font-family="Times,serif" font-size="14.00">%4</text>
</g>
<!-- node5 -->
<g id="node6" class="node">
<title>node5</title>
<polygon fill="none" stroke="black" points="921.5,-556.5 921.5,-592.5 1283.5,-592.5 1283.5,-556.5 921.5,-556.5"/>
<text text-anchor="start" x="929.5" y="-570.8" font-family="Times,serif" font-size="14.00">Get simplify_outer_joins.public.table_f5_f6 (u39)</text>
</g>
<!-- node5&#45;&gt;node6 -->
<g id="edge2" class="edge">
<title>node5&#45;&gt;node6</title>
<path fill="none" stroke="black" d="M1072.44,-556.32C1048.64,-542.72 1015.16,-523.59 988.99,-508.64"/>
<polygon fill="black" stroke="black" points="990.49,-505.46 980.07,-503.54 987.02,-511.54 990.49,-505.46"/>
<text text-anchor="start" x="1034.5" y="-525.8" font-family="Times,serif" font-size="14.00">%5</text>
</g>
<!-- node6&#45;&gt;node7 -->
<g id="edge6" class="edge">
<title>node6&#45;&gt;node7</title>
<path fill="none" stroke="black" d="M909.5,-465.42C882.18,-452.77 843.84,-435 805.45,-417.21"/>
<polygon fill="black" stroke="black" points="806.77,-413.96 796.22,-412.93 803.82,-420.31 806.77,-413.96"/>
<text text-anchor="start" x="863.5" y="-435.8" font-family="Times,serif" font-size="14.00">%6</text>
</g>
<!-- node7&#45;&gt;node8 -->
<g id="edge7" class="edge">
<title>node7&#45;&gt;node8</title>
<path fill="none" stroke="black" d="M602.47,-285.21C589.65,-271.47 575.66,-256.47 561.51,-241.3"/>
<polygon fill="black" stroke="black" points="563.93,-238.76 554.55,-233.84 558.81,-243.54 563.93,-238.76"/>
<text text-anchor="start" x="579.5" y="-255.8" font-family="Times,serif" font-size="14.00">%7</text>
</g>
</g>
</svg>
