<?xml version="1.0" encoding="UTF-8" standalone="no"?>
<!DOCTYPE svg PUBLIC "-//W3C//DTD SVG 1.1//EN"
 "http://www.w3.org/Graphics/SVG/1.1/DTD/svg11.dtd">
<!-- Generated by graphviz version 2.43.0 (0)
 -->
<!-- Title: G Pages: 1 -->
<svg width="1173pt" height="197pt"
 viewBox="0.00 0.00 1172.50 197.00" xmlns="http://www.w3.org/2000/svg" xmlns:xlink="http://www.w3.org/1999/xlink">
<g id="graph0" class="graph" transform="scale(1 1) rotate(0) translate(4 193)">
<title>G</title>
<polygon fill="white" stroke="transparent" points="-4,4 -4,-193 1168.5,-193 1168.5,4 -4,4"/>
<!-- node0 -->
<g id="node1" class="node">
<title>node0</title>
<polygon fill="none" stroke="black" points="0,-128 0,-181 383,-181 383,-128 0,-128"/>
<text text-anchor="start" x="8" y="-165.8" font-family="Times,serif" font-size="14.00">Get simplify_outer_joins.public.table_f1_f2_f3 (u41)</text>
<text text-anchor="start" x="8" y="-150.8" font-family="Times,serif" font-size="14.00"> Filter !(isnull(#2))</text>
<text text-anchor="start" x="8" y="-135.8" font-family="Times,serif" font-size="14.00"> ArrangeBy ()</text>
</g>
<!-- node3 -->
<g id="node4" class="node">
<title>node3</title>
<polygon fill="none" stroke="black" points="408.5,-0.5 408.5,-68.5 776.5,-68.5 776.5,-0.5 408.5,-0.5"/>
<text text-anchor="start" x="416.5" y="-53.3" font-family="Times,serif" font-size="14.00">Join %0 %1 %2 (= #2 #3)</text>
<text text-anchor="start" x="416.5" y="-38.3" font-family="Times,serif" font-size="14.00"> implementation = Differential %2 %0.() %1.(#0)</text>
<text text-anchor="start" x="416.5" y="-23.3" font-family="Times,serif" font-size="14.00"> Map &quot;qgm(true)&quot;</text>
<text text-anchor="start" x="416.5" y="-8.3" font-family="Times,serif" font-size="14.00"> Project (#7, #2, #0, #1, #5, #4, #6)</text>
</g>
<!-- node0&#45;&gt;node3 -->
<g id="edge1" class="edge">
<title>node0&#45;&gt;node3</title>
<path fill="none" stroke="black" d="M278.51,-127.9C334.59,-111.39 408.34,-89.69 470.27,-71.47"/>
<polygon fill="black" stroke="black" points="471.5,-74.75 480.11,-68.57 469.52,-68.04 471.5,-74.75"/>
<text text-anchor="start" x="416.5" y="-90.8" font-family="Times,serif" font-size="14.00">%0</text>
</g>
<!-- node1 -->
<g id="node2" class="node">
<title>node1</title>
<polygon fill="none" stroke="black" points="401,-120.5 401,-188.5 784,-188.5 784,-120.5 401,-120.5"/>
<text text-anchor="start" x="409" y="-173.3" font-family="Times,serif" font-size="14.00">Get simplify_outer_joins.public.table_f3_f4_f5 (u43)</text>
<text text-anchor="start" x="409" y="-158.3" font-family="Times,serif" font-size="14.00"> Filter (#2 = 0), !(isnull(#0))</text>
<text text-anchor="start" x="409" y="-143.3" font-family="Times,serif" font-size="14.00"> Project (#0, #1)</text>
<text text-anchor="start" x="409" y="-128.3" font-family="Times,serif" font-size="14.00"> ArrangeBy (#0)</text>
</g>
<!-- node1&#45;&gt;node3 -->
<g id="edge2" class="edge">
<title>node1&#45;&gt;node3</title>
<path fill="none" stroke="black" d="M592.5,-120.32C592.5,-107.5 592.5,-92.65 592.5,-79"/>
<polygon fill="black" stroke="black" points="596,-78.84 592.5,-68.84 589,-78.84 596,-78.84"/>
<text text-anchor="start" x="592.5" y="-90.8" font-family="Times,serif" font-size="14.00">%1</text>
</g>
<!-- node2 -->
<g id="node3" class="node">
<title>node2</title>
<polygon fill="none" stroke="black" points="802.5,-135.5 802.5,-173.5 1164.5,-173.5 1164.5,-135.5 802.5,-135.5"/>
<text text-anchor="start" x="810.5" y="-158.3" font-family="Times,serif" font-size="14.00">Get simplify_outer_joins.public.table_f5_f6 (u39)</text>
<text text-anchor="start" x="810.5" y="-143.3" font-family="Times,serif" font-size="14.00"> Filter (#0 = 0)</text>
</g>
<!-- node2&#45;&gt;node3 -->
<g id="edge3" class="edge">
<title>node2&#45;&gt;node3</title>
<path fill="none" stroke="black" d="M923.69,-135.45C867.5,-118.49 781.81,-92.63 711.67,-71.46"/>
<polygon fill="black" stroke="black" points="712.46,-68.05 701.88,-68.51 710.44,-74.75 712.46,-68.05"/>
<text text-anchor="start" x="811.5" y="-90.8" font-family="Times,serif" font-size="14.00">%2</text>
</g>
</g>
</svg>
