<?xml version="1.0" encoding="UTF-8" standalone="no"?>
<!DOCTYPE svg PUBLIC "-//W3C//DTD SVG 1.1//EN"
 "http://www.w3.org/Graphics/SVG/1.1/DTD/svg11.dtd">
<!-- Generated by graphviz version 2.43.0 (0)
 -->
<!-- Title: G Pages: 1 -->
<svg width="1116pt" height="497pt"
 viewBox="0.00 0.00 1116.00 497.00" xmlns="http://www.w3.org/2000/svg" xmlns:xlink="http://www.w3.org/1999/xlink">
<g id="graph0" class="graph" transform="scale(1 1) rotate(0) translate(4 493)">
<title>G</title>
<polygon fill="white" stroke="transparent" points="-4,4 -4,-493 1112,-493 1112,4 -4,4"/>
<!-- node0 -->
<g id="node1" class="node">
<title>node0</title>
<polygon fill="none" stroke="black" points="118.5,-308 118.5,-361 501.5,-361 501.5,-308 118.5,-308"/>
<text text-anchor="start" x="126.5" y="-345.8" font-family="Times,serif" font-size="14.00">Get simplify_outer_joins.public.table_f1_f2_f3 (u41)</text>
<text text-anchor="start" x="126.5" y="-330.8" font-family="Times,serif" font-size="14.00"> types = (integer?, integer?, integer?)</text>
<text text-anchor="start" x="126.5" y="-315.8" font-family="Times,serif" font-size="14.00"> keys = ()</text>
</g>
<!-- node4 -->
<g id="node5" class="node">
<title>node4</title>
<polygon fill="none" stroke="black" points="0,-0.5 0,-233.5 666,-233.5 666,-0.5 0,-0.5"/>
<text text-anchor="start" x="8" y="-218.3" font-family="Times,serif" font-size="14.00">LeftOuterJoin %0 %3 on (true &amp;&amp; (#2 = #4))</text>
<text text-anchor="start" x="8" y="-203.3" font-family="Times,serif" font-size="14.00"> types = (integer?, integer?, integer?, integer?, integer?, integer?, integer?, integer?)</text>
<text text-anchor="start" x="8" y="-188.3" font-family="Times,serif" font-size="14.00"> keys = ()</text>
<text text-anchor="start" x="8" y="-173.3" font-family="Times,serif" font-size="14.00"> Project (#2, #0, #1, #3..#7)</text>
<text text-anchor="start" x="8" y="-158.3" font-family="Times,serif" font-size="14.00"> types = (integer?, integer?, integer?, integer?, integer?, integer?, integer?, integer?)</text>
<text text-anchor="start" x="8" y="-143.3" font-family="Times,serif" font-size="14.00"> keys = ()</text>
<text text-anchor="start" x="8" y="-128.3" font-family="Times,serif" font-size="14.00"> Filter (true &amp;&amp; (#3 = 0))</text>
<text text-anchor="start" x="8" y="-113.3" font-family="Times,serif" font-size="14.00"> types = (integer?, integer?, integer?, integer?, integer?, integer?, integer?, integer?)</text>
<text text-anchor="start" x="8" y="-98.3" font-family="Times,serif" font-size="14.00"> keys = ()</text>
<text text-anchor="start" x="8" y="-83.3" font-family="Times,serif" font-size="14.00"> Map &quot;qgm(true)&quot;</text>
<text text-anchor="start" x="8" y="-68.3" font-family="Times,serif" font-size="14.00"> types = (integer?, integer?, integer?, integer?, integer?, integer?, integer?, integer?, text)</text>
<text text-anchor="start" x="8" y="-53.3" font-family="Times,serif" font-size="14.00"> keys = ()</text>
<text text-anchor="start" x="8" y="-38.3" font-family="Times,serif" font-size="14.00"> Project (#8, #0..#3, #5, #7)</text>
<text text-anchor="start" x="8" y="-23.3" font-family="Times,serif" font-size="14.00"> types = (text, integer?, integer?, integer?, integer?, integer?, integer?)</text>
<text text-anchor="start" x="8" y="-8.3" font-family="Times,serif" font-size="14.00"> keys = ()</text>
</g>
<!-- node0&#45;&gt;node4 -->
<g id="edge3" class="edge">
<title>node0&#45;&gt;node4</title>
<path fill="none" stroke="black" d="M312.73,-307.93C314.51,-291.27 316.97,-268.16 319.58,-243.79"/>
<polygon fill="black" stroke="black" points="323.08,-243.97 320.66,-233.65 316.12,-243.22 323.08,-243.97"/>
<text text-anchor="start" x="319" y="-255.8" font-family="Times,serif" font-size="14.00">%0</text>
</g>
<!-- node1 -->
<g id="node2" class="node">
<title>node1</title>
<polygon fill="none" stroke="black" points="344.5,-435.5 344.5,-488.5 727.5,-488.5 727.5,-435.5 344.5,-435.5"/>
<text text-anchor="start" x="352.5" y="-473.3" font-family="Times,serif" font-size="14.00">Get simplify_outer_joins.public.table_f3_f4_f5 (u43)</text>
<text text-anchor="start" x="352.5" y="-458.3" font-family="Times,serif" font-size="14.00"> types = (integer?, integer?, integer?)</text>
<text text-anchor="start" x="352.5" y="-443.3" font-family="Times,serif" font-size="14.00"> keys = ()</text>
</g>
<!-- node3 -->
<g id="node4" class="node">
<title>node3</title>
<polygon fill="none" stroke="black" points="519,-285.5 519,-383.5 943,-383.5 943,-285.5 519,-285.5"/>
<text text-anchor="start" x="527" y="-368.3" font-family="Times,serif" font-size="14.00">RightOuterJoin %1 %2 on (true &amp;&amp; (#2 = #3))</text>
<text text-anchor="start" x="527" y="-353.3" font-family="Times,serif" font-size="14.00"> types = (integer?, integer?, integer?, integer?, integer?)</text>
<text text-anchor="start" x="527" y="-338.3" font-family="Times,serif" font-size="14.00"> keys = ()</text>
<text text-anchor="start" x="527" y="-323.3" font-family="Times,serif" font-size="14.00"> Project (#3, #0..#2, #4)</text>
<text text-anchor="start" x="527" y="-308.3" font-family="Times,serif" font-size="14.00"> types = (integer?, integer?, integer?, integer?, integer?)</text>
<text text-anchor="start" x="527" y="-293.3" font-family="Times,serif" font-size="14.00"> keys = ()</text>
</g>
<!-- node1&#45;&gt;node3 -->
<g id="edge2" class="edge">
<title>node1&#45;&gt;node3</title>
<path fill="none" stroke="black" d="M575.93,-435.3C596.56,-422.02 622.56,-405.29 647.33,-389.35"/>
<polygon fill="black" stroke="black" points="649.52,-392.1 656.03,-383.75 645.73,-386.22 649.52,-392.1"/>
<text text-anchor="start" x="628" y="-405.8" font-family="Times,serif" font-size="14.00">%1</text>
</g>
<!-- node2 -->
<g id="node3" class="node">
<title>node2</title>
<polygon fill="none" stroke="black" points="746,-435.5 746,-488.5 1108,-488.5 1108,-435.5 746,-435.5"/>
<text text-anchor="start" x="754" y="-473.3" font-family="Times,serif" font-size="14.00">Get simplify_outer_joins.public.table_f5_f6 (u39)</text>
<text text-anchor="start" x="754" y="-458.3" font-family="Times,serif" font-size="14.00"> types = (integer?, integer?)</text>
<text text-anchor="start" x="754" y="-443.3" font-family="Times,serif" font-size="14.00"> keys = ()</text>
</g>
<!-- node2&#45;&gt;node3 -->
<g id="edge4" class="edge">
<title>node2&#45;&gt;node3</title>
<path fill="none" stroke="black" d="M886.86,-435.3C866.13,-422.02 840,-405.29 815.1,-389.35"/>
<polygon fill="black" stroke="black" points="816.66,-386.19 806.35,-383.75 812.89,-392.09 816.66,-386.19"/>
<text text-anchor="start" x="859" y="-405.8" font-family="Times,serif" font-size="14.00">%2</text>
</g>
<!-- node3&#45;&gt;node4 -->
<g id="edge1" class="edge">
<title>node3&#45;&gt;node4</title>
<path fill="none" stroke="black" d="M642.18,-285.41C616.01,-271.24 586.13,-255.06 555.49,-238.47"/>
<polygon fill="black" stroke="black" points="556.86,-235.23 546.4,-233.55 553.53,-241.39 556.86,-235.23"/>
<text text-anchor="start" x="603" y="-255.8" font-family="Times,serif" font-size="14.00">%3</text>
</g>
</g>
</svg>
