<?xml version="1.0" encoding="UTF-8" standalone="no"?>
<!DOCTYPE svg PUBLIC "-//W3C//DTD SVG 1.1//EN"
 "http://www.w3.org/Graphics/SVG/1.1/DTD/svg11.dtd">
<!-- Generated by graphviz version 2.43.0 (0)
 -->
<!-- Title: G Pages: 1 -->
<svg width="340pt" height="437pt"
 viewBox="0.00 0.00 339.50 437.00" xmlns="http://www.w3.org/2000/svg" xmlns:xlink="http://www.w3.org/1999/xlink">
<g id="graph0" class="graph" transform="scale(1 1) rotate(0) translate(4 433)">
<title>G</title>
<polygon fill="white" stroke="transparent" points="-4,4 -4,-433 335.5,-433 335.5,4 -4,4"/>
<!-- node0 -->
<g id="node1" class="node">
<title>node0</title>
<polygon fill="none" stroke="black" points="0,-360.5 0,-428.5 101,-428.5 101,-360.5 0,-360.5"/>
<text text-anchor="start" x="8" y="-413.3" font-family="Times,serif" font-size="14.00">Let l0 =</text>
<text text-anchor="start" x="8" y="-398.3" font-family="Times,serif" font-size="14.00"> Constant ()</text>
<text text-anchor="start" x="8" y="-383.3" font-family="Times,serif" font-size="14.00"> types = ()</text>
<text text-anchor="start" x="8" y="-368.3" font-family="Times,serif" font-size="14.00"> keys = (())</text>
</g>
<!-- node2 -->
<g id="node3" class="node">
<title>node2</title>
<polygon fill="none" stroke="black" points="2,-0.5 2,-308.5 273,-308.5 273,-0.5 2,-0.5"/>
<text text-anchor="start" x="10" y="-293.3" font-family="Times,serif" font-size="14.00">Join %0 %1</text>
<text text-anchor="start" x="10" y="-278.3" font-family="Times,serif" font-size="14.00"> implementation = Unimplemented</text>
<text text-anchor="start" x="10" y="-263.3" font-family="Times,serif" font-size="14.00"> types = (integer?, integer)</text>
<text text-anchor="start" x="10" y="-248.3" font-family="Times,serif" font-size="14.00"> keys = ()</text>
<text text-anchor="start" x="10" y="-233.3" font-family="Times,serif" font-size="14.00"> Project (#0, #1, #1)</text>
<text text-anchor="start" x="10" y="-218.3" font-family="Times,serif" font-size="14.00"> types = (integer?, integer, integer)</text>
<text text-anchor="start" x="10" y="-203.3" font-family="Times,serif" font-size="14.00"> keys = ()</text>
<text text-anchor="start" x="10" y="-188.3" font-family="Times,serif" font-size="14.00"> Project (#2, #0)</text>
<text text-anchor="start" x="10" y="-173.3" font-family="Times,serif" font-size="14.00"> types = (integer, integer?)</text>
<text text-anchor="start" x="10" y="-158.3" font-family="Times,serif" font-size="14.00"> keys = ()</text>
<text text-anchor="start" x="10" y="-143.3" font-family="Times,serif" font-size="14.00"> Reduce group=(#0)</text>
<text text-anchor="start" x="10" y="-128.3" font-family="Times,serif" font-size="14.00"> agg min(#1)</text>
<text text-anchor="start" x="10" y="-113.3" font-family="Times,serif" font-size="14.00"> types = (integer, integer?)</text>
<text text-anchor="start" x="10" y="-98.3" font-family="Times,serif" font-size="14.00"> keys = ((#0))</text>
<text text-anchor="start" x="10" y="-83.3" font-family="Times,serif" font-size="14.00"> Project (#0, #1)</text>
<text text-anchor="start" x="10" y="-68.3" font-family="Times,serif" font-size="14.00"> types = (integer, integer?)</text>
<text text-anchor="start" x="10" y="-53.3" font-family="Times,serif" font-size="14.00"> keys = ((#0))</text>
<text text-anchor="start" x="10" y="-38.3" font-family="Times,serif" font-size="14.00"> Project (#1)</text>
<text text-anchor="start" x="10" y="-23.3" font-family="Times,serif" font-size="14.00"> types = (integer?)</text>
<text text-anchor="start" x="10" y="-8.3" font-family="Times,serif" font-size="14.00"> keys = ()</text>
</g>
<!-- node0&#45;&gt;node2 -->
<g id="edge1" class="edge">
<title>node0&#45;&gt;node2</title>
<path fill="none" stroke="black" d="M62.6,-360.41C67.01,-348.34 72.34,-333.75 78.1,-317.98"/>
<polygon fill="black" stroke="black" points="81.4,-319.17 81.54,-308.57 74.82,-316.76 81.4,-319.17"/>
<text text-anchor="start" x="74.5" y="-330.8" font-family="Times,serif" font-size="14.00">%0</text>
</g>
<!-- node1 -->
<g id="node2" class="node">
<title>node1</title>
<polygon fill="none" stroke="black" points="119.5,-368 119.5,-421 331.5,-421 331.5,-368 119.5,-368"/>
<text text-anchor="start" x="127.5" y="-405.8" font-family="Times,serif" font-size="14.00">Get types.public.t1 (u139)</text>
<text text-anchor="start" x="127.5" y="-390.8" font-family="Times,serif" font-size="14.00"> types = (integer?, integer)</text>
<text text-anchor="start" x="127.5" y="-375.8" font-family="Times,serif" font-size="14.00"> keys = ()</text>
</g>
<!-- node1&#45;&gt;node2 -->
<g id="edge2" class="edge">
<title>node1&#45;&gt;node2</title>
<path fill="none" stroke="black" d="M215.91,-367.58C211.03,-354.38 204.65,-337.11 197.63,-318.13"/>
<polygon fill="black" stroke="black" points="200.89,-316.85 194.14,-308.68 194.32,-319.28 200.89,-316.85"/>
<text text-anchor="start" x="203.5" y="-330.8" font-family="Times,serif" font-size="14.00">%1</text>
</g>
</g>
</svg>
