<?xml version="1.0" encoding="UTF-8" standalone="no"?>
<!DOCTYPE svg PUBLIC "-//W3C//DTD SVG 1.1//EN"
 "http://www.w3.org/Graphics/SVG/1.1/DTD/svg11.dtd">
<!-- Generated by graphviz version 2.43.0 (0)
 -->
<!-- Title: G Pages: 1 -->
<svg width="564pt" height="827pt"
 viewBox="0.00 0.00 564.00 827.00" xmlns="http://www.w3.org/2000/svg" xmlns:xlink="http://www.w3.org/1999/xlink">
<g id="graph0" class="graph" transform="scale(1 1) rotate(0) translate(4 823)">
<title>G</title>
<polygon fill="white" stroke="transparent" points="-4,4 -4,-823 560,-823 560,4 -4,4"/>
<!-- node0 -->
<g id="node1" class="node">
<title>node0</title>
<polygon fill="none" stroke="black" points="227,-780.5 227,-818.5 328,-818.5 328,-780.5 227,-780.5"/>
<text text-anchor="start" x="235" y="-803.3" font-family="Times,serif" font-size="14.00">Let l0 =</text>
<text text-anchor="start" x="235" y="-788.3" font-family="Times,serif" font-size="14.00"> Constant ()</text>
</g>
<!-- node2 -->
<g id="node3" class="node">
<title>node2</title>
<polygon fill="none" stroke="black" points="0,-675.5 0,-728.5 269,-728.5 269,-675.5 0,-675.5"/>
<text text-anchor="start" x="8" y="-713.3" font-family="Times,serif" font-size="14.00">Let l1 =</text>
<text text-anchor="start" x="8" y="-698.3" font-family="Times,serif" font-size="14.00"> Join %0 %1</text>
<text text-anchor="start" x="8" y="-683.3" font-family="Times,serif" font-size="14.00"> implementation = Unimplemented</text>
</g>
<!-- node0&#45;&gt;node2 -->
<g id="edge5" class="edge">
<title>node0&#45;&gt;node2</title>
<path fill="none" stroke="black" d="M250.27,-780.31C230.79,-767.31 204.1,-749.48 181.25,-734.22"/>
<polygon fill="black" stroke="black" points="182.96,-731.16 172.7,-728.51 179.08,-736.98 182.96,-731.16"/>
<text text-anchor="start" x="219.5" y="-750.8" font-family="Times,serif" font-size="14.00">%0</text>
</g>
<!-- node4 -->
<g id="node5" class="node">
<title>node4</title>
<polygon fill="none" stroke="black" points="287,-675.5 287,-728.5 556,-728.5 556,-675.5 287,-675.5"/>
<text text-anchor="start" x="295" y="-713.3" font-family="Times,serif" font-size="14.00">Let l2 =</text>
<text text-anchor="start" x="295" y="-698.3" font-family="Times,serif" font-size="14.00"> Join %0 %3</text>
<text text-anchor="start" x="295" y="-683.3" font-family="Times,serif" font-size="14.00"> implementation = Unimplemented</text>
</g>
<!-- node0&#45;&gt;node4 -->
<g id="edge10" class="edge">
<title>node0&#45;&gt;node4</title>
<path fill="none" stroke="black" d="M304.92,-780.31C324.53,-767.31 351.41,-749.48 374.42,-734.22"/>
<polygon fill="black" stroke="black" points="376.63,-736.96 383.03,-728.51 372.76,-731.12 376.63,-736.96"/>
<text text-anchor="start" x="353.5" y="-750.8" font-family="Times,serif" font-size="14.00">%0</text>
</g>
<!-- node1 -->
<g id="node2" class="node">
<title>node1</title>
<polygon fill="none" stroke="black" points="30,-781.5 30,-817.5 209,-817.5 209,-781.5 30,-781.5"/>
<text text-anchor="start" x="38" y="-795.8" font-family="Times,serif" font-size="14.00">Get qgm.public.r (u42)</text>
</g>
<!-- node1&#45;&gt;node2 -->
<g id="edge7" class="edge">
<title>node1&#45;&gt;node2</title>
<path fill="none" stroke="black" d="M122.18,-781.43C124.04,-769.6 126.58,-753.41 128.87,-738.82"/>
<polygon fill="black" stroke="black" points="132.39,-738.98 130.49,-728.55 125.48,-737.89 132.39,-738.98"/>
<text text-anchor="start" x="127.5" y="-750.8" font-family="Times,serif" font-size="14.00">%1</text>
</g>
<!-- node5 -->
<g id="node6" class="node">
<title>node5</title>
<polygon fill="none" stroke="black" points="227,-540.5 227,-623.5 496,-623.5 496,-540.5 227,-540.5"/>
<text text-anchor="start" x="235" y="-608.3" font-family="Times,serif" font-size="14.00">Let l3 =</text>
<text text-anchor="start" x="235" y="-593.3" font-family="Times,serif" font-size="14.00"> Join %2 %4</text>
<text text-anchor="start" x="235" y="-578.3" font-family="Times,serif" font-size="14.00"> implementation = Unimplemented</text>
<text text-anchor="start" x="235" y="-563.3" font-family="Times,serif" font-size="14.00"> Project (#0..#3)</text>
<text text-anchor="start" x="235" y="-548.3" font-family="Times,serif" font-size="14.00"> Filter (#1 = #2)</text>
</g>
<!-- node2&#45;&gt;node5 -->
<g id="edge14" class="edge">
<title>node2&#45;&gt;node5</title>
<path fill="none" stroke="black" d="M183.76,-675.4C210.22,-661.64 243.64,-644.27 274.33,-628.31"/>
<polygon fill="black" stroke="black" points="276.07,-631.35 283.33,-623.63 272.85,-625.14 276.07,-631.35"/>
<text text-anchor="start" x="248.5" y="-645.8" font-family="Times,serif" font-size="14.00">%2</text>
</g>
<!-- node7 -->
<g id="node8" class="node">
<title>node7</title>
<polygon fill="none" stroke="black" points="107,-300.5 107,-368.5 376,-368.5 376,-300.5 107,-300.5"/>
<text text-anchor="start" x="115" y="-353.3" font-family="Times,serif" font-size="14.00">Join %2 %6 (= #1 #2)</text>
<text text-anchor="start" x="115" y="-338.3" font-family="Times,serif" font-size="14.00"> implementation = Unimplemented</text>
<text text-anchor="start" x="115" y="-323.3" font-family="Times,serif" font-size="14.00"> Project (#0, #1)</text>
<text text-anchor="start" x="115" y="-308.3" font-family="Times,serif" font-size="14.00"> Negate</text>
</g>
<!-- node2&#45;&gt;node7 -->
<g id="edge2" class="edge">
<title>node2&#45;&gt;node7</title>
<path fill="none" stroke="black" d="M134.99,-675.14C136.77,-624.33 144.88,-508.69 181.5,-420 187.7,-404.99 196.98,-390.07 206.4,-377.03"/>
<polygon fill="black" stroke="black" points="209.4,-378.86 212.58,-368.75 203.8,-374.67 209.4,-378.86"/>
<text text-anchor="start" x="155.5" y="-510.8" font-family="Times,serif" font-size="14.00">%2</text>
</g>
<!-- node8 -->
<g id="node9" class="node">
<title>node8</title>
<polygon fill="none" stroke="black" points="181.5,-210.5 181.5,-248.5 301.5,-248.5 301.5,-210.5 181.5,-210.5"/>
<text text-anchor="start" x="189.5" y="-233.3" font-family="Times,serif" font-size="14.00">Union %7 %2</text>
<text text-anchor="start" x="189.5" y="-218.3" font-family="Times,serif" font-size="14.00"> Map null, null</text>
</g>
<!-- node2&#45;&gt;node8 -->
<g id="edge8" class="edge">
<title>node2&#45;&gt;node8</title>
<path fill="none" stroke="black" d="M114.28,-675.46C98.24,-652.6 78.5,-617.47 78.5,-583 78.5,-583 78.5,-583 78.5,-333.5 78.5,-286.56 127.4,-260.14 171.63,-245.85"/>
<polygon fill="black" stroke="black" points="172.73,-249.17 181.27,-242.89 170.68,-242.48 172.73,-249.17"/>
<text text-anchor="start" x="78.5" y="-450.8" font-family="Times,serif" font-size="14.00">%2</text>
</g>
<!-- node3 -->
<g id="node4" class="node">
<title>node3</title>
<polygon fill="none" stroke="black" points="346.5,-781.5 346.5,-817.5 526.5,-817.5 526.5,-781.5 346.5,-781.5"/>
<text text-anchor="start" x="354.5" y="-795.8" font-family="Times,serif" font-size="14.00">Get qgm.public.s (u44)</text>
</g>
<!-- node3&#45;&gt;node4 -->
<g id="edge6" class="edge">
<title>node3&#45;&gt;node4</title>
<path fill="none" stroke="black" d="M433.82,-781.43C431.96,-769.6 429.42,-753.41 427.13,-738.82"/>
<polygon fill="black" stroke="black" points="430.52,-737.89 425.51,-728.55 423.61,-738.98 430.52,-737.89"/>
<text text-anchor="start" x="429.5" y="-750.8" font-family="Times,serif" font-size="14.00">%3</text>
</g>
<!-- node4&#45;&gt;node5 -->
<g id="edge13" class="edge">
<title>node4&#45;&gt;node5</title>
<path fill="none" stroke="black" d="M408.48,-675.4C402.14,-662.93 394.3,-647.51 386.85,-632.86"/>
<polygon fill="black" stroke="black" points="389.93,-631.19 382.28,-623.86 383.69,-634.36 389.93,-631.19"/>
<text text-anchor="start" x="398.5" y="-645.8" font-family="Times,serif" font-size="14.00">%4</text>
</g>
<!-- node6 -->
<g id="node7" class="node">
<title>node6</title>
<polygon fill="none" stroke="black" points="190,-420.5 190,-488.5 357,-488.5 357,-420.5 190,-420.5"/>
<text text-anchor="start" x="198" y="-473.3" font-family="Times,serif" font-size="14.00">Let l4 =</text>
<text text-anchor="start" x="198" y="-458.3" font-family="Times,serif" font-size="14.00"> Get %5 (l3)</text>
<text text-anchor="start" x="198" y="-443.3" font-family="Times,serif" font-size="14.00"> Project (#1)</text>
<text text-anchor="start" x="198" y="-428.3" font-family="Times,serif" font-size="14.00"> Distinct group=(#0)</text>
</g>
<!-- node5&#45;&gt;node6 -->
<g id="edge4" class="edge">
<title>node5&#45;&gt;node6</title>
<path fill="none" stroke="black" d="M332.93,-540.25C323.2,-526.38 312.33,-510.87 302.56,-496.95"/>
<polygon fill="black" stroke="black" points="305.26,-494.69 296.65,-488.51 299.52,-498.71 305.26,-494.69"/>
<text text-anchor="start" x="317.5" y="-510.8" font-family="Times,serif" font-size="14.00">%5</text>
</g>
<!-- node9 -->
<g id="node10" class="node">
<title>node9</title>
<polygon fill="none" stroke="black" points="268.5,-120.5 268.5,-158.5 386.5,-158.5 386.5,-120.5 268.5,-120.5"/>
<text text-anchor="start" x="276.5" y="-143.3" font-family="Times,serif" font-size="14.00">Let l5 =</text>
<text text-anchor="start" x="276.5" y="-128.3" font-family="Times,serif" font-size="14.00"> Union %8 %5</text>
</g>
<!-- node5&#45;&gt;node9 -->
<g id="edge3" class="edge">
<title>node5&#45;&gt;node9</title>
<path fill="none" stroke="black" d="M387.3,-540.27C399.95,-516.49 412.5,-485.37 412.5,-455.5 412.5,-455.5 412.5,-455.5 412.5,-228.5 412.5,-201.5 391.54,-179.61 370.44,-164.42"/>
<polygon fill="black" stroke="black" points="372.31,-161.46 362.07,-158.73 368.37,-167.25 372.31,-161.46"/>
<text text-anchor="start" x="412.5" y="-330.8" font-family="Times,serif" font-size="14.00">%5</text>
</g>
<!-- node6&#45;&gt;node7 -->
<g id="edge1" class="edge">
<title>node6&#45;&gt;node7</title>
<path fill="none" stroke="black" d="M264.5,-420.32C260.99,-407.37 256.92,-392.36 253.19,-378.6"/>
<polygon fill="black" stroke="black" points="256.54,-377.58 250.54,-368.84 249.78,-379.41 256.54,-377.58"/>
<text text-anchor="start" x="258.5" y="-390.8" font-family="Times,serif" font-size="14.00">%6</text>
</g>
<!-- node7&#45;&gt;node8 -->
<g id="edge12" class="edge">
<title>node7&#45;&gt;node8</title>
<path fill="none" stroke="black" d="M241.5,-300.34C241.5,-286.93 241.5,-271.6 241.5,-258.73"/>
<polygon fill="black" stroke="black" points="245,-258.59 241.5,-248.59 238,-258.59 245,-258.59"/>
<text text-anchor="start" x="241.5" y="-270.8" font-family="Times,serif" font-size="14.00">%7</text>
</g>
<!-- node8&#45;&gt;node9 -->
<g id="edge9" class="edge">
<title>node8&#45;&gt;node9</title>
<path fill="none" stroke="black" d="M259.32,-210.27C271.77,-197.52 288.58,-180.33 302.39,-166.2"/>
<polygon fill="black" stroke="black" points="305.22,-168.31 309.7,-158.71 300.21,-163.42 305.22,-168.31"/>
<text text-anchor="start" x="289.5" y="-180.8" font-family="Times,serif" font-size="14.00">%8</text>
</g>
<!-- node10 -->
<g id="node11" class="node">
<title>node10</title>
<polygon fill="none" stroke="black" points="243.5,-0.5 243.5,-68.5 411.5,-68.5 411.5,-0.5 243.5,-0.5"/>
<text text-anchor="start" x="251.5" y="-53.3" font-family="Times,serif" font-size="14.00">Get %9 (l5)</text>
<text text-anchor="start" x="251.5" y="-38.3" font-family="Times,serif" font-size="14.00"> Map coalesce(#3, 0)</text>
<text text-anchor="start" x="251.5" y="-23.3" font-family="Times,serif" font-size="14.00"> Project (#0..#4)</text>
<text text-anchor="start" x="251.5" y="-8.3" font-family="Times,serif" font-size="14.00"> Project (#0, #1, #4)</text>
</g>
<!-- node9&#45;&gt;node10 -->
<g id="edge11" class="edge">
<title>node9&#45;&gt;node10</title>
<path fill="none" stroke="black" d="M327.5,-120.09C327.5,-108.63 327.5,-93.39 327.5,-79"/>
<polygon fill="black" stroke="black" points="331,-78.74 327.5,-68.74 324,-78.74 331,-78.74"/>
<text text-anchor="start" x="327.5" y="-90.8" font-family="Times,serif" font-size="14.00">%9</text>
</g>
</g>
</svg>
