<?xml version="1.0" encoding="UTF-8" standalone="no"?>
<!DOCTYPE svg PUBLIC "-//W3C//DTD SVG 1.1//EN"
 "http://www.w3.org/Graphics/SVG/1.1/DTD/svg11.dtd">
<!-- Generated by graphviz version 2.43.0 (0)
 -->
<!-- Title: G Pages: 1 -->
<svg width="746pt" height="602pt"
 viewBox="0.00 0.00 745.50 602.00" xmlns="http://www.w3.org/2000/svg" xmlns:xlink="http://www.w3.org/1999/xlink">
<g id="graph0" class="graph" transform="scale(1 1) rotate(0) translate(4 598)">
<title>G</title>
<polygon fill="white" stroke="transparent" points="-4,4 -4,-598 741.5,-598 741.5,4 -4,4"/>
<!-- node0 -->
<g id="node1" class="node">
<title>node0</title>
<polygon fill="none" stroke="black" points="0,-555.5 0,-593.5 179,-593.5 179,-555.5 0,-555.5"/>
<text text-anchor="start" x="8" y="-578.3" font-family="Times,serif" font-size="14.00">Get qgm.public.r (u42)</text>
<text text-anchor="start" x="8" y="-563.3" font-family="Times,serif" font-size="14.00"> ArrangeBy (#1)</text>
</g>
<!-- node2 -->
<g id="node3" class="node">
<title>node2</title>
<polygon fill="none" stroke="black" points="25.5,-435.5 25.5,-503.5 351.5,-503.5 351.5,-435.5 25.5,-435.5"/>
<text text-anchor="start" x="33.5" y="-488.3" font-family="Times,serif" font-size="14.00">Let l0 =</text>
<text text-anchor="start" x="33.5" y="-473.3" font-family="Times,serif" font-size="14.00"> Join %0 %1 (= #1 #2)</text>
<text text-anchor="start" x="33.5" y="-458.3" font-family="Times,serif" font-size="14.00"> implementation = Differential %1 %0.(#1)</text>
<text text-anchor="start" x="33.5" y="-443.3" font-family="Times,serif" font-size="14.00"> Project (#0, #1, #3)</text>
</g>
<!-- node0&#45;&gt;node2 -->
<g id="edge3" class="edge">
<title>node0&#45;&gt;node2</title>
<path fill="none" stroke="black" d="M107.2,-555.09C118.96,-542.85 134.87,-526.3 149.49,-511.08"/>
<polygon fill="black" stroke="black" points="152.14,-513.38 156.55,-503.74 147.09,-508.53 152.14,-513.38"/>
<text text-anchor="start" x="139.5" y="-525.8" font-family="Times,serif" font-size="14.00">%0</text>
</g>
<!-- node1 -->
<g id="node2" class="node">
<title>node1</title>
<polygon fill="none" stroke="black" points="197.5,-556.5 197.5,-592.5 377.5,-592.5 377.5,-556.5 197.5,-556.5"/>
<text text-anchor="start" x="205.5" y="-570.8" font-family="Times,serif" font-size="14.00">Get qgm.public.s (u44)</text>
</g>
<!-- node1&#45;&gt;node2 -->
<g id="edge4" class="edge">
<title>node1&#45;&gt;node2</title>
<path fill="none" stroke="black" d="M271.15,-556.49C259.35,-544.22 242.9,-527.1 227.78,-511.37"/>
<polygon fill="black" stroke="black" points="229.95,-508.57 220.49,-503.79 224.9,-513.42 229.95,-508.57"/>
<text text-anchor="start" x="249.5" y="-525.8" font-family="Times,serif" font-size="14.00">%1</text>
</g>
<!-- node4 -->
<g id="node5" class="node">
<title>node4</title>
<polygon fill="none" stroke="black" points="491,-315.5 491,-383.5 658,-383.5 658,-315.5 491,-315.5"/>
<text text-anchor="start" x="499" y="-368.3" font-family="Times,serif" font-size="14.00">Get %2 (l0)</text>
<text text-anchor="start" x="499" y="-353.3" font-family="Times,serif" font-size="14.00"> Project (#1)</text>
<text text-anchor="start" x="499" y="-338.3" font-family="Times,serif" font-size="14.00"> Distinct group=(#0)</text>
<text text-anchor="start" x="499" y="-323.3" font-family="Times,serif" font-size="14.00"> ArrangeBy (#0)</text>
</g>
<!-- node2&#45;&gt;node4 -->
<g id="edge6" class="edge">
<title>node2&#45;&gt;node4</title>
<path fill="none" stroke="black" d="M310.66,-435.44C361.03,-421.3 420.1,-404.09 481.05,-384.42"/>
<polygon fill="black" stroke="black" points="482.42,-387.65 490.85,-381.24 480.26,-381 482.42,-387.65"/>
<text text-anchor="start" x="418.5" y="-405.8" font-family="Times,serif" font-size="14.00">%2</text>
</g>
<!-- node8 -->
<g id="node9" class="node">
<title>node8</title>
<polygon fill="none" stroke="black" points="104.5,-0.5 104.5,-53.5 272.5,-53.5 272.5,-0.5 104.5,-0.5"/>
<text text-anchor="start" x="112.5" y="-38.3" font-family="Times,serif" font-size="14.00">Union %7 %2</text>
<text text-anchor="start" x="112.5" y="-23.3" font-family="Times,serif" font-size="14.00"> Map coalesce(#2, 0)</text>
<text text-anchor="start" x="112.5" y="-8.3" font-family="Times,serif" font-size="14.00"> Project (#0, #1, #3)</text>
</g>
<!-- node2&#45;&gt;node8 -->
<g id="edge5" class="edge">
<title>node2&#45;&gt;node8</title>
<path fill="none" stroke="black" d="M181.58,-435.35C177.25,-411.79 172.5,-379.34 172.5,-350.5 172.5,-350.5 172.5,-350.5 172.5,-123.5 172.5,-103.54 175.94,-81.56 179.63,-63.72"/>
<polygon fill="black" stroke="black" points="183.09,-64.26 181.81,-53.75 176.26,-62.77 183.09,-64.26"/>
<text text-anchor="start" x="172.5" y="-225.8" font-family="Times,serif" font-size="14.00">%2</text>
</g>
<!-- node3 -->
<g id="node4" class="node">
<title>node3</title>
<polygon fill="none" stroke="black" points="294,-331.5 294,-367.5 473,-367.5 473,-331.5 294,-331.5"/>
<text text-anchor="start" x="302" y="-345.8" font-family="Times,serif" font-size="14.00">Get qgm.public.r (u42)</text>
</g>
<!-- node5 -->
<g id="node6" class="node">
<title>node5</title>
<polygon fill="none" stroke="black" points="411.5,-195.5 411.5,-263.5 737.5,-263.5 737.5,-195.5 411.5,-195.5"/>
<text text-anchor="start" x="419.5" y="-248.3" font-family="Times,serif" font-size="14.00">Join %3 %4 (= #1 #2)</text>
<text text-anchor="start" x="419.5" y="-233.3" font-family="Times,serif" font-size="14.00"> implementation = Differential %3 %4.(#0)</text>
<text text-anchor="start" x="419.5" y="-218.3" font-family="Times,serif" font-size="14.00"> Project (#0, #1)</text>
<text text-anchor="start" x="419.5" y="-203.3" font-family="Times,serif" font-size="14.00"> Negate</text>
</g>
<!-- node3&#45;&gt;node5 -->
<g id="edge7" class="edge">
<title>node3&#45;&gt;node5</title>
<path fill="none" stroke="black" d="M411.27,-331.34C437.69,-315.02 478.36,-289.89 512.49,-268.81"/>
<polygon fill="black" stroke="black" points="514.35,-271.77 521.02,-263.54 510.67,-265.82 514.35,-271.77"/>
<text text-anchor="start" x="489.5" y="-285.8" font-family="Times,serif" font-size="14.00">%3</text>
</g>
<!-- node4&#45;&gt;node5 -->
<g id="edge9" class="edge">
<title>node4&#45;&gt;node5</title>
<path fill="none" stroke="black" d="M574.5,-315.32C574.5,-302.5 574.5,-287.65 574.5,-274"/>
<polygon fill="black" stroke="black" points="578,-273.84 574.5,-263.84 571,-273.84 578,-273.84"/>
<text text-anchor="start" x="574.5" y="-285.8" font-family="Times,serif" font-size="14.00">%4</text>
</g>
<!-- node7 -->
<g id="node8" class="node">
<title>node7</title>
<polygon fill="none" stroke="black" points="247,-105.5 247,-143.5 360,-143.5 360,-105.5 247,-105.5"/>
<text text-anchor="start" x="255" y="-128.3" font-family="Times,serif" font-size="14.00">Union %5 %6</text>
<text text-anchor="start" x="255" y="-113.3" font-family="Times,serif" font-size="14.00"> Map null</text>
</g>
<!-- node5&#45;&gt;node7 -->
<g id="edge2" class="edge">
<title>node5&#45;&gt;node7</title>
<path fill="none" stroke="black" d="M487.64,-195.49C446.14,-179.71 397.62,-161.27 360.81,-147.28"/>
<polygon fill="black" stroke="black" points="361.83,-143.92 351.24,-143.64 359.34,-150.47 361.83,-143.92"/>
<text text-anchor="start" x="438.5" y="-165.8" font-family="Times,serif" font-size="14.00">%5</text>
</g>
<!-- node6 -->
<g id="node7" class="node">
<title>node6</title>
<polygon fill="none" stroke="black" points="214,-211.5 214,-247.5 393,-247.5 393,-211.5 214,-211.5"/>
<text text-anchor="start" x="222" y="-225.8" font-family="Times,serif" font-size="14.00">Get qgm.public.r (u42)</text>
</g>
<!-- node6&#45;&gt;node7 -->
<g id="edge1" class="edge">
<title>node6&#45;&gt;node7</title>
<path fill="none" stroke="black" d="M303.5,-211.49C303.5,-195.82 303.5,-172.28 303.5,-153.78"/>
<polygon fill="black" stroke="black" points="307,-153.57 303.5,-143.57 300,-153.57 307,-153.57"/>
<text text-anchor="start" x="303.5" y="-165.8" font-family="Times,serif" font-size="14.00">%6</text>
</g>
<!-- node7&#45;&gt;node8 -->
<g id="edge8" class="edge">
<title>node7&#45;&gt;node8</title>
<path fill="none" stroke="black" d="M281.6,-105.31C266.34,-92.64 245.57,-75.39 227.52,-60.4"/>
<polygon fill="black" stroke="black" points="229.37,-57.39 219.44,-53.7 224.9,-62.78 229.37,-57.39"/>
<text text-anchor="start" x="255.5" y="-75.8" font-family="Times,serif" font-size="14.00">%7</text>
</g>
</g>
</svg>
