<?xml version="1.0" encoding="UTF-8" standalone="no"?>
<!DOCTYPE svg PUBLIC "-//W3C//DTD SVG 1.1//EN"
 "http://www.w3.org/Graphics/SVG/1.1/DTD/svg11.dtd">
<!-- Generated by graphviz version 2.43.0 (0)
 -->
<!-- Title: G Pages: 1 -->
<svg width="793pt" height="1082pt"
 viewBox="0.00 0.00 792.50 1082.00" xmlns="http://www.w3.org/2000/svg" xmlns:xlink="http://www.w3.org/1999/xlink">
<g id="graph0" class="graph" transform="scale(1 1) rotate(0) translate(4 1078)">
<title>G</title>
<polygon fill="white" stroke="transparent" points="-4,4 -4,-1078 788.5,-1078 788.5,4 -4,4"/>
<!-- node0 -->
<g id="node1" class="node">
<title>node0</title>
<polygon fill="none" stroke="black" points="0,-975.5 0,-1073.5 203,-1073.5 203,-975.5 0,-975.5"/>
<text text-anchor="start" x="8" y="-1058.3" font-family="Times,serif" font-size="14.00">Get qgm.public.r (u42)</text>
<text text-anchor="start" x="8" y="-1043.3" font-family="Times,serif" font-size="14.00"> types = (integer, integer)</text>
<text text-anchor="start" x="8" y="-1028.3" font-family="Times,serif" font-size="14.00"> keys = ()</text>
<text text-anchor="start" x="8" y="-1013.3" font-family="Times,serif" font-size="14.00"> ArrangeBy (#1)</text>
<text text-anchor="start" x="8" y="-998.3" font-family="Times,serif" font-size="14.00"> types = (integer, integer)</text>
<text text-anchor="start" x="8" y="-983.3" font-family="Times,serif" font-size="14.00"> keys = ()</text>
</g>
<!-- node2 -->
<g id="node3" class="node">
<title>node2</title>
<polygon fill="none" stroke="black" points="48.5,-795.5 48.5,-923.5 374.5,-923.5 374.5,-795.5 48.5,-795.5"/>
<text text-anchor="start" x="56.5" y="-908.3" font-family="Times,serif" font-size="14.00">Let l0 =</text>
<text text-anchor="start" x="56.5" y="-893.3" font-family="Times,serif" font-size="14.00"> Join %0 %1 (= #1 #2)</text>
<text text-anchor="start" x="56.5" y="-878.3" font-family="Times,serif" font-size="14.00"> implementation = Differential %1 %0.(#1)</text>
<text text-anchor="start" x="56.5" y="-863.3" font-family="Times,serif" font-size="14.00"> types = (integer, integer, integer, integer)</text>
<text text-anchor="start" x="56.5" y="-848.3" font-family="Times,serif" font-size="14.00"> keys = ()</text>
<text text-anchor="start" x="56.5" y="-833.3" font-family="Times,serif" font-size="14.00"> Project (#0, #1, #3)</text>
<text text-anchor="start" x="56.5" y="-818.3" font-family="Times,serif" font-size="14.00"> types = (integer, integer, integer)</text>
<text text-anchor="start" x="56.5" y="-803.3" font-family="Times,serif" font-size="14.00"> keys = ()</text>
</g>
<!-- node0&#45;&gt;node2 -->
<g id="edge3" class="edge">
<title>node0&#45;&gt;node2</title>
<path fill="none" stroke="black" d="M133.91,-975.48C143.07,-961.9 153.25,-946.81 163.14,-932.16"/>
<polygon fill="black" stroke="black" points="166.22,-933.85 168.92,-923.6 160.42,-929.93 166.22,-933.85"/>
<text text-anchor="start" x="156.5" y="-945.8" font-family="Times,serif" font-size="14.00">%0</text>
</g>
<!-- node1 -->
<g id="node2" class="node">
<title>node1</title>
<polygon fill="none" stroke="black" points="221,-998 221,-1051 424,-1051 424,-998 221,-998"/>
<text text-anchor="start" x="229" y="-1035.8" font-family="Times,serif" font-size="14.00">Get qgm.public.s (u44)</text>
<text text-anchor="start" x="229" y="-1020.8" font-family="Times,serif" font-size="14.00"> types = (integer, integer)</text>
<text text-anchor="start" x="229" y="-1005.8" font-family="Times,serif" font-size="14.00"> keys = ()</text>
</g>
<!-- node1&#45;&gt;node2 -->
<g id="edge4" class="edge">
<title>node1&#45;&gt;node2</title>
<path fill="none" stroke="black" d="M304.91,-997.67C292.88,-980 276.29,-955.65 260.43,-932.36"/>
<polygon fill="black" stroke="black" points="263.15,-930.13 254.63,-923.84 257.37,-934.07 263.15,-930.13"/>
<text text-anchor="start" x="276.5" y="-945.8" font-family="Times,serif" font-size="14.00">%1</text>
</g>
<!-- node4 -->
<g id="node5" class="node">
<title>node4</title>
<polygon fill="none" stroke="black" points="490.5,-555.5 490.5,-743.5 752.5,-743.5 752.5,-555.5 490.5,-555.5"/>
<text text-anchor="start" x="498.5" y="-728.3" font-family="Times,serif" font-size="14.00">Get %2 (l0)</text>
<text text-anchor="start" x="498.5" y="-713.3" font-family="Times,serif" font-size="14.00"> types = (integer, integer, integer)</text>
<text text-anchor="start" x="498.5" y="-698.3" font-family="Times,serif" font-size="14.00"> keys = ()</text>
<text text-anchor="start" x="498.5" y="-683.3" font-family="Times,serif" font-size="14.00"> Project (#1)</text>
<text text-anchor="start" x="498.5" y="-668.3" font-family="Times,serif" font-size="14.00"> types = (integer)</text>
<text text-anchor="start" x="498.5" y="-653.3" font-family="Times,serif" font-size="14.00"> keys = ()</text>
<text text-anchor="start" x="498.5" y="-638.3" font-family="Times,serif" font-size="14.00"> Distinct group=(#0)</text>
<text text-anchor="start" x="498.5" y="-623.3" font-family="Times,serif" font-size="14.00"> types = (integer)</text>
<text text-anchor="start" x="498.5" y="-608.3" font-family="Times,serif" font-size="14.00"> keys = ((#0))</text>
<text text-anchor="start" x="498.5" y="-593.3" font-family="Times,serif" font-size="14.00"> ArrangeBy (#0)</text>
<text text-anchor="start" x="498.5" y="-578.3" font-family="Times,serif" font-size="14.00"> types = (integer)</text>
<text text-anchor="start" x="498.5" y="-563.3" font-family="Times,serif" font-size="14.00"> keys = ((#0))</text>
</g>
<!-- node2&#45;&gt;node4 -->
<g id="edge6" class="edge">
<title>node2&#45;&gt;node4</title>
<path fill="none" stroke="black" d="M374.09,-795.39C410.07,-779.82 447.56,-762.32 481.5,-744 481.59,-743.95 481.68,-743.9 481.78,-743.85"/>
<polygon fill="black" stroke="black" points="483.35,-746.98 490.42,-739.08 479.97,-740.85 483.35,-746.98"/>
<text text-anchor="start" x="445.5" y="-765.8" font-family="Times,serif" font-size="14.00">%2</text>
</g>
<!-- node8 -->
<g id="node9" class="node">
<title>node8</title>
<polygon fill="none" stroke="black" points="42.5,-0.5 42.5,-143.5 380.5,-143.5 380.5,-0.5 42.5,-0.5"/>
<text text-anchor="start" x="50.5" y="-128.3" font-family="Times,serif" font-size="14.00">Union %7 %2</text>
<text text-anchor="start" x="50.5" y="-113.3" font-family="Times,serif" font-size="14.00"> types = (integer, integer, integer?)</text>
<text text-anchor="start" x="50.5" y="-98.3" font-family="Times,serif" font-size="14.00"> keys = ()</text>
<text text-anchor="start" x="50.5" y="-83.3" font-family="Times,serif" font-size="14.00"> Map coalesce(#2, 0)</text>
<text text-anchor="start" x="50.5" y="-68.3" font-family="Times,serif" font-size="14.00"> types = (integer, integer, integer?, integer?)</text>
<text text-anchor="start" x="50.5" y="-53.3" font-family="Times,serif" font-size="14.00"> keys = ()</text>
<text text-anchor="start" x="50.5" y="-38.3" font-family="Times,serif" font-size="14.00"> Project (#0, #1, #3)</text>
<text text-anchor="start" x="50.5" y="-23.3" font-family="Times,serif" font-size="14.00"> types = (integer, integer, integer?)</text>
<text text-anchor="start" x="50.5" y="-8.3" font-family="Times,serif" font-size="14.00"> keys = ()</text>
</g>
<!-- node2&#45;&gt;node8 -->
<g id="edge5" class="edge">
<title>node2&#45;&gt;node8</title>
<path fill="none" stroke="black" d="M204.11,-795.33C199.92,-754.15 195.5,-699.21 195.5,-650.5 195.5,-650.5 195.5,-650.5 195.5,-243.5 195.5,-214.24 197.86,-182.28 200.78,-154.02"/>
<polygon fill="black" stroke="black" points="204.29,-154.1 201.87,-143.79 197.33,-153.36 204.29,-154.1"/>
<text text-anchor="start" x="195.5" y="-420.8" font-family="Times,serif" font-size="14.00">%2</text>
</g>
<!-- node3 -->
<g id="node4" class="node">
<title>node3</title>
<polygon fill="none" stroke="black" points="269,-623 269,-676 472,-676 472,-623 269,-623"/>
<text text-anchor="start" x="277" y="-660.8" font-family="Times,serif" font-size="14.00">Get qgm.public.r (u42)</text>
<text text-anchor="start" x="277" y="-645.8" font-family="Times,serif" font-size="14.00"> types = (integer, integer)</text>
<text text-anchor="start" x="277" y="-630.8" font-family="Times,serif" font-size="14.00"> keys = ()</text>
</g>
<!-- node5 -->
<g id="node6" class="node">
<title>node5</title>
<polygon fill="none" stroke="black" points="458.5,-345.5 458.5,-503.5 784.5,-503.5 784.5,-345.5 458.5,-345.5"/>
<text text-anchor="start" x="466.5" y="-488.3" font-family="Times,serif" font-size="14.00">Join %3 %4 (= #1 #2)</text>
<text text-anchor="start" x="466.5" y="-473.3" font-family="Times,serif" font-size="14.00"> implementation = Differential %3 %4.(#0)</text>
<text text-anchor="start" x="466.5" y="-458.3" font-family="Times,serif" font-size="14.00"> types = (integer, integer, integer)</text>
<text text-anchor="start" x="466.5" y="-443.3" font-family="Times,serif" font-size="14.00"> keys = ()</text>
<text text-anchor="start" x="466.5" y="-428.3" font-family="Times,serif" font-size="14.00"> Project (#0, #1)</text>
<text text-anchor="start" x="466.5" y="-413.3" font-family="Times,serif" font-size="14.00"> types = (integer, integer)</text>
<text text-anchor="start" x="466.5" y="-398.3" font-family="Times,serif" font-size="14.00"> keys = ()</text>
<text text-anchor="start" x="466.5" y="-383.3" font-family="Times,serif" font-size="14.00"> Negate</text>
<text text-anchor="start" x="466.5" y="-368.3" font-family="Times,serif" font-size="14.00"> types = (integer, integer)</text>
<text text-anchor="start" x="466.5" y="-353.3" font-family="Times,serif" font-size="14.00"> keys = ()</text>
</g>
<!-- node3&#45;&gt;node5 -->
<g id="edge7" class="edge">
<title>node3&#45;&gt;node5</title>
<path fill="none" stroke="black" d="M399.29,-622.92C430.15,-595.5 480.81,-550.5 525.97,-510.38"/>
<polygon fill="black" stroke="black" points="528.3,-512.98 533.45,-503.72 523.65,-507.75 528.3,-512.98"/>
<text text-anchor="start" x="510.5" y="-525.8" font-family="Times,serif" font-size="14.00">%3</text>
</g>
<!-- node4&#45;&gt;node5 -->
<g id="edge9" class="edge">
<title>node4&#45;&gt;node5</title>
<path fill="none" stroke="black" d="M621.5,-555.22C621.5,-541.52 621.5,-527.45 621.5,-513.86"/>
<polygon fill="black" stroke="black" points="625,-513.57 621.5,-503.57 618,-513.57 625,-513.57"/>
<text text-anchor="start" x="621.5" y="-525.8" font-family="Times,serif" font-size="14.00">%4</text>
</g>
<!-- node7 -->
<g id="node8" class="node">
<title>node7</title>
<polygon fill="none" stroke="black" points="224,-195.5 224,-293.5 493,-293.5 493,-195.5 224,-195.5"/>
<text text-anchor="start" x="232" y="-278.3" font-family="Times,serif" font-size="14.00">Union %5 %6</text>
<text text-anchor="start" x="232" y="-263.3" font-family="Times,serif" font-size="14.00"> types = (integer, integer)</text>
<text text-anchor="start" x="232" y="-248.3" font-family="Times,serif" font-size="14.00"> keys = ()</text>
<text text-anchor="start" x="232" y="-233.3" font-family="Times,serif" font-size="14.00"> Map null</text>
<text text-anchor="start" x="232" y="-218.3" font-family="Times,serif" font-size="14.00"> types = (integer, integer, integer?)</text>
<text text-anchor="start" x="232" y="-203.3" font-family="Times,serif" font-size="14.00"> keys = ()</text>
</g>
<!-- node5&#45;&gt;node7 -->
<g id="edge2" class="edge">
<title>node5&#45;&gt;node7</title>
<path fill="none" stroke="black" d="M506.14,-345.43C483.12,-329.84 459.42,-313.8 437.93,-299.26"/>
<polygon fill="black" stroke="black" points="439.74,-296.26 429.5,-293.55 435.82,-302.05 439.74,-296.26"/>
<text text-anchor="start" x="473.5" y="-315.8" font-family="Times,serif" font-size="14.00">%5</text>
</g>
<!-- node6 -->
<g id="node7" class="node">
<title>node6</title>
<polygon fill="none" stroke="black" points="237,-398 237,-451 440,-451 440,-398 237,-398"/>
<text text-anchor="start" x="245" y="-435.8" font-family="Times,serif" font-size="14.00">Get qgm.public.r (u42)</text>
<text text-anchor="start" x="245" y="-420.8" font-family="Times,serif" font-size="14.00"> types = (integer, integer)</text>
<text text-anchor="start" x="245" y="-405.8" font-family="Times,serif" font-size="14.00"> keys = ()</text>
</g>
<!-- node6&#45;&gt;node7 -->
<g id="edge1" class="edge">
<title>node6&#45;&gt;node7</title>
<path fill="none" stroke="black" d="M341.37,-398C344.11,-373.54 348.36,-335.72 351.94,-303.87"/>
<polygon fill="black" stroke="black" points="355.44,-304.09 353.08,-293.76 348.48,-303.31 355.44,-304.09"/>
<text text-anchor="start" x="350.5" y="-315.8" font-family="Times,serif" font-size="14.00">%6</text>
</g>
<!-- node7&#45;&gt;node8 -->
<g id="edge8" class="edge">
<title>node7&#45;&gt;node8</title>
<path fill="none" stroke="black" d="M316.77,-195.1C305.06,-181.52 292.02,-166.39 279.21,-151.54"/>
<polygon fill="black" stroke="black" points="281.72,-149.09 272.54,-143.8 276.42,-153.66 281.72,-149.09"/>
<text text-anchor="start" x="297.5" y="-165.8" font-family="Times,serif" font-size="14.00">%7</text>
</g>
</g>
</svg>
