<?xml version="1.0" encoding="UTF-8" standalone="no"?>
<!DOCTYPE svg PUBLIC "-//W3C//DTD SVG 1.1//EN"
 "http://www.w3.org/Graphics/SVG/1.1/DTD/svg11.dtd">
<!-- Generated by graphviz version 2.43.0 (0)
 -->
<!-- Title: G Pages: 1 -->
<svg width="617pt" height="1367pt"
 viewBox="0.00 0.00 616.50 1367.00" xmlns="http://www.w3.org/2000/svg" xmlns:xlink="http://www.w3.org/1999/xlink">
<g id="graph0" class="graph" transform="scale(1 1) rotate(0) translate(4 1363)">
<title>G</title>
<polygon fill="white" stroke="transparent" points="-4,4 -4,-1363 612.5,-1363 612.5,4 -4,4"/>
<!-- node0 -->
<g id="node1" class="node">
<title>node0</title>
<polygon fill="none" stroke="black" points="227,-1290.5 227,-1358.5 328,-1358.5 328,-1290.5 227,-1290.5"/>
<text text-anchor="start" x="235" y="-1343.3" font-family="Times,serif" font-size="14.00">Let l0 =</text>
<text text-anchor="start" x="235" y="-1328.3" font-family="Times,serif" font-size="14.00"> Constant ()</text>
<text text-anchor="start" x="235" y="-1313.3" font-family="Times,serif" font-size="14.00"> types = ()</text>
<text text-anchor="start" x="235" y="-1298.3" font-family="Times,serif" font-size="14.00"> keys = (())</text>
</g>
<!-- node2 -->
<g id="node3" class="node">
<title>node2</title>
<polygon fill="none" stroke="black" points="0,-1155.5 0,-1238.5 269,-1238.5 269,-1155.5 0,-1155.5"/>
<text text-anchor="start" x="8" y="-1223.3" font-family="Times,serif" font-size="14.00">Let l1 =</text>
<text text-anchor="start" x="8" y="-1208.3" font-family="Times,serif" font-size="14.00"> Join %0 %1</text>
<text text-anchor="start" x="8" y="-1193.3" font-family="Times,serif" font-size="14.00"> implementation = Unimplemented</text>
<text text-anchor="start" x="8" y="-1178.3" font-family="Times,serif" font-size="14.00"> types = (integer, integer)</text>
<text text-anchor="start" x="8" y="-1163.3" font-family="Times,serif" font-size="14.00"> keys = ()</text>
</g>
<!-- node0&#45;&gt;node2 -->
<g id="edge5" class="edge">
<title>node0&#45;&gt;node2</title>
<path fill="none" stroke="black" d="M239.55,-1290.2C223.91,-1276.47 205.5,-1260.31 188.49,-1245.39"/>
<polygon fill="black" stroke="black" points="190.62,-1242.59 180.79,-1238.63 186,-1247.86 190.62,-1242.59"/>
<text text-anchor="start" x="219.5" y="-1260.8" font-family="Times,serif" font-size="14.00">%0</text>
</g>
<!-- node4 -->
<g id="node5" class="node">
<title>node4</title>
<polygon fill="none" stroke="black" points="287,-1155.5 287,-1238.5 556,-1238.5 556,-1155.5 287,-1155.5"/>
<text text-anchor="start" x="295" y="-1223.3" font-family="Times,serif" font-size="14.00">Let l2 =</text>
<text text-anchor="start" x="295" y="-1208.3" font-family="Times,serif" font-size="14.00"> Join %0 %3</text>
<text text-anchor="start" x="295" y="-1193.3" font-family="Times,serif" font-size="14.00"> implementation = Unimplemented</text>
<text text-anchor="start" x="295" y="-1178.3" font-family="Times,serif" font-size="14.00"> types = (integer, integer)</text>
<text text-anchor="start" x="295" y="-1163.3" font-family="Times,serif" font-size="14.00"> keys = ()</text>
</g>
<!-- node0&#45;&gt;node4 -->
<g id="edge10" class="edge">
<title>node0&#45;&gt;node4</title>
<path fill="none" stroke="black" d="M315.71,-1290.2C331.46,-1276.47 350.01,-1260.31 367.13,-1245.39"/>
<polygon fill="black" stroke="black" points="369.64,-1247.84 374.88,-1238.63 365.04,-1242.56 369.64,-1247.84"/>
<text text-anchor="start" x="349.5" y="-1260.8" font-family="Times,serif" font-size="14.00">%0</text>
</g>
<!-- node1 -->
<g id="node2" class="node">
<title>node1</title>
<polygon fill="none" stroke="black" points="6,-1298 6,-1351 209,-1351 209,-1298 6,-1298"/>
<text text-anchor="start" x="14" y="-1335.8" font-family="Times,serif" font-size="14.00">Get qgm.public.r (u42)</text>
<text text-anchor="start" x="14" y="-1320.8" font-family="Times,serif" font-size="14.00"> types = (integer, integer)</text>
<text text-anchor="start" x="14" y="-1305.8" font-family="Times,serif" font-size="14.00"> keys = ()</text>
</g>
<!-- node1&#45;&gt;node2 -->
<g id="edge7" class="edge">
<title>node1&#45;&gt;node2</title>
<path fill="none" stroke="black" d="M113.03,-1297.8C116.04,-1283.79 119.89,-1265.93 123.48,-1249.2"/>
<polygon fill="black" stroke="black" points="127,-1249.49 125.68,-1238.98 120.16,-1248.02 127,-1249.49"/>
<text text-anchor="start" x="121.5" y="-1260.8" font-family="Times,serif" font-size="14.00">%1</text>
</g>
<!-- node5 -->
<g id="node6" class="node">
<title>node5</title>
<polygon fill="none" stroke="black" points="225,-930.5 225,-1103.5 546,-1103.5 546,-930.5 225,-930.5"/>
<text text-anchor="start" x="233" y="-1088.3" font-family="Times,serif" font-size="14.00">Let l3 =</text>
<text text-anchor="start" x="233" y="-1073.3" font-family="Times,serif" font-size="14.00"> Join %2 %4</text>
<text text-anchor="start" x="233" y="-1058.3" font-family="Times,serif" font-size="14.00"> implementation = Unimplemented</text>
<text text-anchor="start" x="233" y="-1043.3" font-family="Times,serif" font-size="14.00"> types = (integer, integer, integer, integer)</text>
<text text-anchor="start" x="233" y="-1028.3" font-family="Times,serif" font-size="14.00"> keys = ()</text>
<text text-anchor="start" x="233" y="-1013.3" font-family="Times,serif" font-size="14.00"> Project (#0..#3)</text>
<text text-anchor="start" x="233" y="-998.3" font-family="Times,serif" font-size="14.00"> types = (integer, integer, integer, integer)</text>
<text text-anchor="start" x="233" y="-983.3" font-family="Times,serif" font-size="14.00"> keys = ()</text>
<text text-anchor="start" x="233" y="-968.3" font-family="Times,serif" font-size="14.00"> Filter (#1 = #2)</text>
<text text-anchor="start" x="233" y="-953.3" font-family="Times,serif" font-size="14.00"> types = (integer, integer, integer, integer)</text>
<text text-anchor="start" x="233" y="-938.3" font-family="Times,serif" font-size="14.00"> keys = ()</text>
</g>
<!-- node2&#45;&gt;node5 -->
<g id="edge14" class="edge">
<title>node2&#45;&gt;node5</title>
<path fill="none" stroke="black" d="M191.77,-1155.39C211.16,-1141.63 233.68,-1125.66 256.36,-1109.58"/>
<polygon fill="black" stroke="black" points="258.58,-1112.3 264.71,-1103.66 254.53,-1106.59 258.58,-1112.3"/>
<text text-anchor="start" x="238.5" y="-1125.8" font-family="Times,serif" font-size="14.00">%2</text>
</g>
<!-- node7 -->
<g id="node8" class="node">
<title>node7</title>
<polygon fill="none" stroke="black" points="172,-510.5 172,-668.5 441,-668.5 441,-510.5 172,-510.5"/>
<text text-anchor="start" x="180" y="-653.3" font-family="Times,serif" font-size="14.00">Join %2 %6 (= #1 #2)</text>
<text text-anchor="start" x="180" y="-638.3" font-family="Times,serif" font-size="14.00"> implementation = Unimplemented</text>
<text text-anchor="start" x="180" y="-623.3" font-family="Times,serif" font-size="14.00"> types = (integer, integer, integer)</text>
<text text-anchor="start" x="180" y="-608.3" font-family="Times,serif" font-size="14.00"> keys = ()</text>
<text text-anchor="start" x="180" y="-593.3" font-family="Times,serif" font-size="14.00"> Project (#0, #1)</text>
<text text-anchor="start" x="180" y="-578.3" font-family="Times,serif" font-size="14.00"> types = (integer, integer)</text>
<text text-anchor="start" x="180" y="-563.3" font-family="Times,serif" font-size="14.00"> keys = ()</text>
<text text-anchor="start" x="180" y="-548.3" font-family="Times,serif" font-size="14.00"> Negate</text>
<text text-anchor="start" x="180" y="-533.3" font-family="Times,serif" font-size="14.00"> types = (integer, integer)</text>
<text text-anchor="start" x="180" y="-518.3" font-family="Times,serif" font-size="14.00"> keys = ()</text>
</g>
<!-- node2&#45;&gt;node7 -->
<g id="edge2" class="edge">
<title>node2&#45;&gt;node7</title>
<path fill="none" stroke="black" d="M134.89,-1155.3C136.39,-1054.72 143.74,-796.97 179.5,-720 186.65,-704.6 196.43,-689.95 207.4,-676.4"/>
<polygon fill="black" stroke="black" points="210.24,-678.47 213.99,-668.56 204.88,-673.96 210.24,-678.47"/>
<text text-anchor="start" x="147.5" y="-900.8" font-family="Times,serif" font-size="14.00">%2</text>
</g>
<!-- node8 -->
<g id="node9" class="node">
<title>node8</title>
<polygon fill="none" stroke="black" points="137.5,-360.5 137.5,-458.5 475.5,-458.5 475.5,-360.5 137.5,-360.5"/>
<text text-anchor="start" x="145.5" y="-443.3" font-family="Times,serif" font-size="14.00">Union %7 %2</text>
<text text-anchor="start" x="145.5" y="-428.3" font-family="Times,serif" font-size="14.00"> types = (integer, integer)</text>
<text text-anchor="start" x="145.5" y="-413.3" font-family="Times,serif" font-size="14.00"> keys = ()</text>
<text text-anchor="start" x="145.5" y="-398.3" font-family="Times,serif" font-size="14.00"> Map null, null</text>
<text text-anchor="start" x="145.5" y="-383.3" font-family="Times,serif" font-size="14.00"> types = (integer, integer, integer?, integer?)</text>
<text text-anchor="start" x="145.5" y="-368.3" font-family="Times,serif" font-size="14.00"> keys = ()</text>
</g>
<!-- node2&#45;&gt;node8 -->
<g id="edge8" class="edge">
<title>node2&#45;&gt;node8</title>
<path fill="none" stroke="black" d="M125.47,-1155.22C118.31,-1119.29 109.5,-1065.43 109.5,-1018 109.5,-1018 109.5,-1018 109.5,-588.5 109.5,-535.13 149.8,-493.62 193.95,-464.17"/>
<polygon fill="black" stroke="black" points="196.02,-466.99 202.52,-458.62 192.22,-461.11 196.02,-466.99"/>
<text text-anchor="start" x="109.5" y="-795.8" font-family="Times,serif" font-size="14.00">%2</text>
</g>
<!-- node3 -->
<g id="node4" class="node">
<title>node3</title>
<polygon fill="none" stroke="black" points="346,-1298 346,-1351 549,-1351 549,-1298 346,-1298"/>
<text text-anchor="start" x="354" y="-1335.8" font-family="Times,serif" font-size="14.00">Get qgm.public.s (u44)</text>
<text text-anchor="start" x="354" y="-1320.8" font-family="Times,serif" font-size="14.00"> types = (integer, integer)</text>
<text text-anchor="start" x="354" y="-1305.8" font-family="Times,serif" font-size="14.00"> keys = ()</text>
</g>
<!-- node3&#45;&gt;node4 -->
<g id="edge6" class="edge">
<title>node3&#45;&gt;node4</title>
<path fill="none" stroke="black" d="M442.18,-1297.8C439.27,-1283.79 435.57,-1265.93 432.11,-1249.2"/>
<polygon fill="black" stroke="black" points="435.45,-1248.06 429.99,-1238.98 428.59,-1249.48 435.45,-1248.06"/>
<text text-anchor="start" x="436.5" y="-1260.8" font-family="Times,serif" font-size="14.00">%3</text>
</g>
<!-- node4&#45;&gt;node5 -->
<g id="edge13" class="edge">
<title>node4&#45;&gt;node5</title>
<path fill="none" stroke="black" d="M413.24,-1155.16C410.71,-1142.65 407.81,-1128.33 404.87,-1113.76"/>
<polygon fill="black" stroke="black" points="408.24,-1112.76 402.82,-1103.65 401.38,-1114.15 408.24,-1112.76"/>
<text text-anchor="start" x="408.5" y="-1125.8" font-family="Times,serif" font-size="14.00">%4</text>
</g>
<!-- node6 -->
<g id="node7" class="node">
<title>node6</title>
<polygon fill="none" stroke="black" points="189,-720.5 189,-878.5 510,-878.5 510,-720.5 189,-720.5"/>
<text text-anchor="start" x="197" y="-863.3" font-family="Times,serif" font-size="14.00">Let l4 =</text>
<text text-anchor="start" x="197" y="-848.3" font-family="Times,serif" font-size="14.00"> Get %5 (l3)</text>
<text text-anchor="start" x="197" y="-833.3" font-family="Times,serif" font-size="14.00"> types = (integer, integer, integer, integer)</text>
<text text-anchor="start" x="197" y="-818.3" font-family="Times,serif" font-size="14.00"> keys = ()</text>
<text text-anchor="start" x="197" y="-803.3" font-family="Times,serif" font-size="14.00"> Project (#1)</text>
<text text-anchor="start" x="197" y="-788.3" font-family="Times,serif" font-size="14.00"> types = (integer)</text>
<text text-anchor="start" x="197" y="-773.3" font-family="Times,serif" font-size="14.00"> keys = ()</text>
<text text-anchor="start" x="197" y="-758.3" font-family="Times,serif" font-size="14.00"> Distinct group=(#0)</text>
<text text-anchor="start" x="197" y="-743.3" font-family="Times,serif" font-size="14.00"> types = (integer)</text>
<text text-anchor="start" x="197" y="-728.3" font-family="Times,serif" font-size="14.00"> keys = ((#0))</text>
</g>
<!-- node5&#45;&gt;node6 -->
<g id="edge4" class="edge">
<title>node5&#45;&gt;node6</title>
<path fill="none" stroke="black" d="M371.17,-930.21C368.88,-916.51 366.51,-902.32 364.21,-888.58"/>
<polygon fill="black" stroke="black" points="367.66,-887.95 362.56,-878.66 360.75,-889.1 367.66,-887.95"/>
<text text-anchor="start" x="367.5" y="-900.8" font-family="Times,serif" font-size="14.00">%5</text>
</g>
<!-- node9 -->
<g id="node10" class="node">
<title>node9</title>
<polygon fill="none" stroke="black" points="236.5,-240.5 236.5,-308.5 574.5,-308.5 574.5,-240.5 236.5,-240.5"/>
<text text-anchor="start" x="244.5" y="-293.3" font-family="Times,serif" font-size="14.00">Let l5 =</text>
<text text-anchor="start" x="244.5" y="-278.3" font-family="Times,serif" font-size="14.00"> Union %8 %5</text>
<text text-anchor="start" x="244.5" y="-263.3" font-family="Times,serif" font-size="14.00"> types = (integer, integer, integer?, integer?)</text>
<text text-anchor="start" x="244.5" y="-248.3" font-family="Times,serif" font-size="14.00"> keys = ()</text>
</g>
<!-- node5&#45;&gt;node9 -->
<g id="edge3" class="edge">
<title>node5&#45;&gt;node9</title>
<path fill="none" stroke="black" d="M482.51,-930.3C496.49,-914.38 509.5,-897.04 519.5,-879 536.9,-847.6 538.5,-836.4 538.5,-800.5 538.5,-800.5 538.5,-800.5 538.5,-408.5 538.5,-368.93 508.7,-337.02 477.32,-314.39"/>
<polygon fill="black" stroke="black" points="479.1,-311.36 468.88,-308.54 475.11,-317.12 479.1,-311.36"/>
<text text-anchor="start" x="538.5" y="-585.8" font-family="Times,serif" font-size="14.00">%5</text>
</g>
<!-- node6&#45;&gt;node7 -->
<g id="edge1" class="edge">
<title>node6&#45;&gt;node7</title>
<path fill="none" stroke="black" d="M333.37,-720.46C330.55,-706.82 327.6,-692.55 324.73,-678.66"/>
<polygon fill="black" stroke="black" points="328.1,-677.72 322.65,-668.63 321.25,-679.14 328.1,-677.72"/>
<text text-anchor="start" x="328.5" y="-690.8" font-family="Times,serif" font-size="14.00">%6</text>
</g>
<!-- node7&#45;&gt;node8 -->
<g id="edge12" class="edge">
<title>node7&#45;&gt;node8</title>
<path fill="none" stroke="black" d="M306.5,-510.43C306.5,-496.5 306.5,-482.2 306.5,-468.94"/>
<polygon fill="black" stroke="black" points="310,-468.55 306.5,-458.55 303,-468.55 310,-468.55"/>
<text text-anchor="start" x="306.5" y="-480.8" font-family="Times,serif" font-size="14.00">%7</text>
</g>
<!-- node8&#45;&gt;node9 -->
<g id="edge9" class="edge">
<title>node8&#45;&gt;node9</title>
<path fill="none" stroke="black" d="M342.24,-360.48C352.79,-346.31 364.25,-330.92 374.47,-317.18"/>
<polygon fill="black" stroke="black" points="377.5,-318.98 380.66,-308.87 371.88,-314.8 377.5,-318.98"/>
<text text-anchor="start" x="364.5" y="-330.8" font-family="Times,serif" font-size="14.00">%8</text>
</g>
<!-- node10 -->
<g id="node11" class="node">
<title>node10</title>
<polygon fill="none" stroke="black" points="202.5,-0.5 202.5,-188.5 608.5,-188.5 608.5,-0.5 202.5,-0.5"/>
<text text-anchor="start" x="210.5" y="-173.3" font-family="Times,serif" font-size="14.00">Get %9 (l5)</text>
<text text-anchor="start" x="210.5" y="-158.3" font-family="Times,serif" font-size="14.00"> types = (integer, integer, integer?, integer?)</text>
<text text-anchor="start" x="210.5" y="-143.3" font-family="Times,serif" font-size="14.00"> keys = ()</text>
<text text-anchor="start" x="210.5" y="-128.3" font-family="Times,serif" font-size="14.00"> Map coalesce(#3, 0)</text>
<text text-anchor="start" x="210.5" y="-113.3" font-family="Times,serif" font-size="14.00"> types = (integer, integer, integer?, integer?, integer?)</text>
<text text-anchor="start" x="210.5" y="-98.3" font-family="Times,serif" font-size="14.00"> keys = ()</text>
<text text-anchor="start" x="210.5" y="-83.3" font-family="Times,serif" font-size="14.00"> Project (#0..#4)</text>
<text text-anchor="start" x="210.5" y="-68.3" font-family="Times,serif" font-size="14.00"> types = (integer, integer, integer?, integer?, integer?)</text>
<text text-anchor="start" x="210.5" y="-53.3" font-family="Times,serif" font-size="14.00"> keys = ()</text>
<text text-anchor="start" x="210.5" y="-38.3" font-family="Times,serif" font-size="14.00"> Project (#0, #1, #4)</text>
<text text-anchor="start" x="210.5" y="-23.3" font-family="Times,serif" font-size="14.00"> types = (integer, integer, integer?)</text>
<text text-anchor="start" x="210.5" y="-8.3" font-family="Times,serif" font-size="14.00"> keys = ()</text>
</g>
<!-- node9&#45;&gt;node10 -->
<g id="edge11" class="edge">
<title>node9&#45;&gt;node10</title>
<path fill="none" stroke="black" d="M405.5,-240.44C405.5,-228.35 405.5,-213.94 405.5,-198.97"/>
<polygon fill="black" stroke="black" points="409,-198.54 405.5,-188.54 402,-198.54 409,-198.54"/>
<text text-anchor="start" x="405.5" y="-210.8" font-family="Times,serif" font-size="14.00">%9</text>
</g>
</g>
</svg>
