<?xml version="1.0" encoding="UTF-8" standalone="no"?>
<!DOCTYPE svg PUBLIC "-//W3C//DTD SVG 1.1//EN"
 "http://www.w3.org/Graphics/SVG/1.1/DTD/svg11.dtd">
<!-- Generated by graphviz version 2.43.0 (0)
 -->
<!-- Title: G Pages: 1 -->
<svg width="749pt" height="645pt"
 viewBox="0.00 0.00 749.00 645.00" xmlns="http://www.w3.org/2000/svg" xmlns:xlink="http://www.w3.org/1999/xlink">
<g id="graph0" class="graph" transform="scale(1 1) rotate(0) translate(4 641)">
<title>G</title>
<polygon fill="white" stroke="transparent" points="-4,4 -4,-641 745,-641 745,4 -4,4"/>
<g id="clust1" class="cluster">
<title>cluster4</title>
<polygon fill="none" stroke="black" points="479,-497 479,-629 733,-629 733,-497 479,-497"/>
<text text-anchor="middle" x="529.5" y="-613.8" font-family="Times,serif" font-size="14.00">Box4:Select</text>
</g>
<g id="clust3" class="cluster">
<title>cluster3</title>
<polygon fill="none" stroke="black" points="307,-311 307,-489 649,-489 649,-311 307,-311"/>
<text text-anchor="middle" x="357.5" y="-473.8" font-family="Times,serif" font-size="14.00">Box3:Select</text>
</g>
<g id="clust5" class="cluster">
<title>cluster0</title>
<polygon fill="none" stroke="black" points="83,-125 83,-303 437,-303 437,-125 83,-125"/>
<text text-anchor="middle" x="145.5" y="-287.8" font-family="Times,serif" font-size="14.00">Box0:OuterJoin</text>
</g>
<g id="clust7" class="cluster">
<title>cluster1</title>
<polygon fill="none" stroke="black" points="8,-8 8,-117 170,-117 170,-8 8,-8"/>
<text text-anchor="middle" x="49.5" y="-101.8" font-family="Times,serif" font-size="14.00">Box1:Get</text>
</g>
<g id="clust9" class="cluster">
<title>cluster2</title>
<polygon fill="none" stroke="black" points="178,-8 178,-117 340,-117 340,-8 178,-8"/>
<text text-anchor="middle" x="219.5" y="-101.8" font-family="Times,serif" font-size="14.00">Box2:Get</text>
</g>
<!-- boxhead4 -->
<g id="node1" class="node">
<title>boxhead4</title>
<polygon fill="none" stroke="black" points="579,-505.5 579,-597.5 725,-597.5 725,-505.5 579,-505.5"/>
<text text-anchor="middle" x="652" y="-582.3" font-family="Times,serif" font-size="14.00">Distinct: Preserve</text>
<polyline fill="none" stroke="black" points="579,-574.5 725,-574.5 "/>
<text text-anchor="middle" x="652" y="-559.3" font-family="Times,serif" font-size="14.00">0: Q3.C0 (integer)</text>
<polyline fill="none" stroke="black" points="579,-551.5 725,-551.5 "/>
<text text-anchor="middle" x="652" y="-536.3" font-family="Times,serif" font-size="14.00">1: Q3.C1 (integer)</text>
<polyline fill="none" stroke="black" points="579,-528.5 725,-528.5 "/>
<text text-anchor="middle" x="652" y="-513.3" font-family="Times,serif" font-size="14.00">2: Q3.C4 (integer)</text>
</g>
<!-- Q3 -->
<g id="node2" class="node">
<title>Q3</title>
<ellipse fill="none" stroke="black" cx="524" cy="-551.5" rx="37.09" ry="37.09"/>
<text text-anchor="middle" x="524" y="-547.8" font-family="Times,serif" font-size="14.00">Q3(F)</text>
</g>
<!-- boxhead3 -->
<g id="node3" class="node">
<title>boxhead3</title>
<polygon fill="none" stroke="black" points="407,-319.5 407,-457.5 641,-457.5 641,-319.5 407,-319.5"/>
<text text-anchor="middle" x="524" y="-442.3" font-family="Times,serif" font-size="14.00">Distinct: Preserve</text>
<polyline fill="none" stroke="black" points="407,-434.5 641,-434.5 "/>
<text text-anchor="middle" x="524" y="-419.3" font-family="Times,serif" font-size="14.00">0: Q2.C0 (integer)</text>
<polyline fill="none" stroke="black" points="407,-411.5 641,-411.5 "/>
<text text-anchor="middle" x="524" y="-396.3" font-family="Times,serif" font-size="14.00">1: Q2.C1 (integer)</text>
<polyline fill="none" stroke="black" points="407,-388.5 641,-388.5 "/>
<text text-anchor="middle" x="524" y="-373.3" font-family="Times,serif" font-size="14.00">2: Q2.C2 (integer?)</text>
<polyline fill="none" stroke="black" points="407,-365.5 641,-365.5 "/>
<text text-anchor="middle" x="524" y="-350.3" font-family="Times,serif" font-size="14.00">3: Q2.C3 (integer?)</text>
<polyline fill="none" stroke="black" points="407,-342.5 641,-342.5 "/>
<text text-anchor="middle" x="524" y="-327.3" font-family="Times,serif" font-size="14.00">4: coalesce(Q2.C3, 0) (integer)</text>
</g>
<!-- Q3&#45;&gt;boxhead3 -->
<g id="edge1" class="edge">
<title>Q3&#45;&gt;boxhead3</title>
<path fill="none" stroke="black" stroke-dasharray="5,2" d="M524,-514.37C524,-506.56 524,-497.95 524,-489"/>
</g>
<!-- Q2 -->
<g id="node4" class="node">
<title>Q2</title>
<ellipse fill="none" stroke="black" cx="352" cy="-388.5" rx="37.09" ry="37.09"/>
<text text-anchor="middle" x="352" y="-384.8" font-family="Times,serif" font-size="14.00">Q2(F)</text>
</g>
<!-- boxhead0 -->
<g id="node5" class="node">
<title>boxhead0</title>
<polygon fill="none" stroke="black" points="275.5,-133.5 275.5,-271.5 428.5,-271.5 428.5,-133.5 275.5,-133.5"/>
<text text-anchor="middle" x="352" y="-256.3" font-family="Times,serif" font-size="14.00">Distinct: Preserve</text>
<polyline fill="none" stroke="black" points="275.5,-248.5 428.5,-248.5 "/>
<text text-anchor="middle" x="352" y="-233.3" font-family="Times,serif" font-size="14.00">0: Q0.C0 (integer)</text>
<polyline fill="none" stroke="black" points="275.5,-225.5 428.5,-225.5 "/>
<text text-anchor="middle" x="352" y="-210.3" font-family="Times,serif" font-size="14.00">1: Q0.C1 (integer)</text>
<polyline fill="none" stroke="black" points="275.5,-202.5 428.5,-202.5 "/>
<text text-anchor="middle" x="352" y="-187.3" font-family="Times,serif" font-size="14.00">2: Q1.C0 (integer?)</text>
<polyline fill="none" stroke="black" points="275.5,-179.5 428.5,-179.5 "/>
<text text-anchor="middle" x="352" y="-164.3" font-family="Times,serif" font-size="14.00">3: Q1.C1 (integer?)</text>
<polyline fill="none" stroke="black" points="275.5,-156.5 428.5,-156.5 "/>
<text text-anchor="middle" x="352" y="-141.3" font-family="Times,serif" font-size="14.00">(Q0.C1 = Q1.C0)</text>
</g>
<!-- Q2&#45;&gt;boxhead0 -->
<g id="edge2" class="edge">
<title>Q2&#45;&gt;boxhead0</title>
<path fill="none" stroke="black" stroke-dasharray="5,2" d="M352,-351.15C352,-337.07 352,-320.21 352,-303"/>
</g>
<!-- Q0 -->
<g id="node6" class="node">
<title>Q0</title>
<ellipse fill="none" stroke="black" cx="128" cy="-202.5" rx="37.09" ry="37.09"/>
<text text-anchor="middle" x="128" y="-198.8" font-family="Times,serif" font-size="14.00">Q0(P)</text>
</g>
<!-- boxhead1 -->
<g id="node8" class="node">
<title>boxhead1</title>
<polygon fill="none" stroke="black" points="16,-16.5 16,-85.5 162,-85.5 162,-16.5 16,-16.5"/>
<text text-anchor="middle" x="89" y="-70.3" font-family="Times,serif" font-size="14.00">Distinct: Preserve</text>
<polyline fill="none" stroke="black" points="16,-62.5 162,-62.5 "/>
<text text-anchor="middle" x="89" y="-47.3" font-family="Times,serif" font-size="14.00">0: C0 (integer)</text>
<polyline fill="none" stroke="black" points="16,-39.5 162,-39.5 "/>
<text text-anchor="middle" x="89" y="-24.3" font-family="Times,serif" font-size="14.00">1: C1 (integer)</text>
</g>
<!-- Q0&#45;&gt;boxhead1 -->
<g id="edge3" class="edge">
<title>Q0&#45;&gt;boxhead1</title>
<path fill="none" stroke="black" stroke-dasharray="5,2" d="M118.86,-166.45C115,-151.68 110.39,-134 105.96,-117"/>
</g>
<!-- Q1 -->
<g id="node7" class="node">
<title>Q1</title>
<ellipse fill="none" stroke="black" cx="220" cy="-202.5" rx="37.09" ry="37.09"/>
<text text-anchor="middle" x="220" y="-198.8" font-family="Times,serif" font-size="14.00">Q1(F)</text>
</g>
<!-- boxhead2 -->
<g id="node9" class="node">
<title>boxhead2</title>
<polygon fill="none" stroke="black" points="186,-16.5 186,-85.5 332,-85.5 332,-16.5 186,-16.5"/>
<text text-anchor="middle" x="259" y="-70.3" font-family="Times,serif" font-size="14.00">Distinct: Preserve</text>
<polyline fill="none" stroke="black" points="186,-62.5 332,-62.5 "/>
<text text-anchor="middle" x="259" y="-47.3" font-family="Times,serif" font-size="14.00">0: C0 (integer)</text>
<polyline fill="none" stroke="black" points="186,-39.5 332,-39.5 "/>
<text text-anchor="middle" x="259" y="-24.3" font-family="Times,serif" font-size="14.00">1: C1 (integer)</text>
</g>
<!-- Q1&#45;&gt;boxhead2 -->
<g id="edge4" class="edge">
<title>Q1&#45;&gt;boxhead2</title>
<path fill="none" stroke="black" stroke-dasharray="5,2" d="M229.14,-166.45C233,-151.68 237.61,-134 242.04,-117"/>
</g>
</g>
</svg>
