<?xml version="1.0" encoding="UTF-8" standalone="no"?>
<!DOCTYPE svg PUBLIC "-//W3C//DTD SVG 1.1//EN"
 "http://www.w3.org/Graphics/SVG/1.1/DTD/svg11.dtd">
<!-- Generated by graphviz version 2.43.0 (0)
 -->
<!-- Title: G Pages: 1 -->
<svg width="724pt" height="705pt"
 viewBox="0.00 0.00 724.00 705.00" xmlns="http://www.w3.org/2000/svg" xmlns:xlink="http://www.w3.org/1999/xlink">
<g id="graph0" class="graph" transform="scale(1 1) rotate(0) translate(4 701)">
<title>G</title>
<polygon fill="white" stroke="transparent" points="-4,4 -4,-701 720,-701 720,4 -4,4"/>
<!-- node0 -->
<g id="node1" class="node">
<title>node0</title>
<polygon fill="none" stroke="black" points="306.5,-658.5 306.5,-696.5 407.5,-696.5 407.5,-658.5 306.5,-658.5"/>
<text text-anchor="start" x="314.5" y="-681.3" font-family="Times,serif" font-size="14.00">Let l0 =</text>
<text text-anchor="start" x="314.5" y="-666.3" font-family="Times,serif" font-size="14.00"> Constant ()</text>
</g>
<!-- node2 -->
<g id="node3" class="node">
<title>node2</title>
<polygon fill="none" stroke="black" points="79.5,-553.5 79.5,-606.5 348.5,-606.5 348.5,-553.5 79.5,-553.5"/>
<text text-anchor="start" x="87.5" y="-591.3" font-family="Times,serif" font-size="14.00">Let l1 =</text>
<text text-anchor="start" x="87.5" y="-576.3" font-family="Times,serif" font-size="14.00"> Join %0 %1</text>
<text text-anchor="start" x="87.5" y="-561.3" font-family="Times,serif" font-size="14.00"> implementation = Unimplemented</text>
</g>
<!-- node0&#45;&gt;node2 -->
<g id="edge1" class="edge">
<title>node0&#45;&gt;node2</title>
<path fill="none" stroke="black" d="M329.77,-658.31C310.29,-645.31 283.6,-627.48 260.75,-612.22"/>
<polygon fill="black" stroke="black" points="262.46,-609.16 252.2,-606.51 258.58,-614.98 262.46,-609.16"/>
<text text-anchor="start" x="298" y="-628.8" font-family="Times,serif" font-size="14.00">%0</text>
</g>
<!-- node4 -->
<g id="node5" class="node">
<title>node4</title>
<polygon fill="none" stroke="black" points="366.5,-553.5 366.5,-606.5 635.5,-606.5 635.5,-553.5 366.5,-553.5"/>
<text text-anchor="start" x="374.5" y="-591.3" font-family="Times,serif" font-size="14.00">Let l2 =</text>
<text text-anchor="start" x="374.5" y="-576.3" font-family="Times,serif" font-size="14.00"> Join %0 %3</text>
<text text-anchor="start" x="374.5" y="-561.3" font-family="Times,serif" font-size="14.00"> implementation = Unimplemented</text>
</g>
<!-- node0&#45;&gt;node4 -->
<g id="edge6" class="edge">
<title>node0&#45;&gt;node4</title>
<path fill="none" stroke="black" d="M384.42,-658.31C404.03,-645.31 430.91,-627.48 453.92,-612.22"/>
<polygon fill="black" stroke="black" points="456.13,-614.96 462.53,-606.51 452.26,-609.12 456.13,-614.96"/>
<text text-anchor="start" x="433" y="-628.8" font-family="Times,serif" font-size="14.00">%0</text>
</g>
<!-- node1 -->
<g id="node2" class="node">
<title>node1</title>
<polygon fill="none" stroke="black" points="0,-659.5 0,-695.5 288,-695.5 288,-659.5 0,-659.5"/>
<text text-anchor="start" x="8" y="-673.8" font-family="Times,serif" font-size="14.00">Get simplify_outer_joins.public.l (u95)</text>
</g>
<!-- node1&#45;&gt;node2 -->
<g id="edge7" class="edge">
<title>node1&#45;&gt;node2</title>
<path fill="none" stroke="black" d="M156.51,-659.43C165.61,-647.02 178.21,-629.83 189.3,-614.7"/>
<polygon fill="black" stroke="black" points="192.18,-616.69 195.27,-606.55 186.53,-612.55 192.18,-616.69"/>
<text text-anchor="start" x="182" y="-628.8" font-family="Times,serif" font-size="14.00">%1</text>
</g>
<!-- node5 -->
<g id="node6" class="node">
<title>node5</title>
<polygon fill="none" stroke="black" points="306.5,-418.5 306.5,-501.5 575.5,-501.5 575.5,-418.5 306.5,-418.5"/>
<text text-anchor="start" x="314.5" y="-486.3" font-family="Times,serif" font-size="14.00">Let l3 =</text>
<text text-anchor="start" x="314.5" y="-471.3" font-family="Times,serif" font-size="14.00"> Join %2 %4</text>
<text text-anchor="start" x="314.5" y="-456.3" font-family="Times,serif" font-size="14.00"> implementation = Unimplemented</text>
<text text-anchor="start" x="314.5" y="-441.3" font-family="Times,serif" font-size="14.00"> Project (#0..=#3)</text>
<text text-anchor="start" x="314.5" y="-426.3" font-family="Times,serif" font-size="14.00"> Filter (#1 = #2)</text>
</g>
<!-- node2&#45;&gt;node5 -->
<g id="edge12" class="edge">
<title>node2&#45;&gt;node5</title>
<path fill="none" stroke="black" d="M263.26,-553.4C289.72,-539.64 323.14,-522.27 353.83,-506.31"/>
<polygon fill="black" stroke="black" points="355.57,-509.35 362.83,-501.63 352.35,-503.14 355.57,-509.35"/>
<text text-anchor="start" x="327" y="-523.8" font-family="Times,serif" font-size="14.00">%2</text>
</g>
<!-- node7 -->
<g id="node8" class="node">
<title>node7</title>
<polygon fill="none" stroke="black" points="186.5,-178.5 186.5,-246.5 455.5,-246.5 455.5,-178.5 186.5,-178.5"/>
<text text-anchor="start" x="194.5" y="-231.3" font-family="Times,serif" font-size="14.00">Join %2 %6 (= #1 #2)</text>
<text text-anchor="start" x="194.5" y="-216.3" font-family="Times,serif" font-size="14.00"> implementation = Unimplemented</text>
<text text-anchor="start" x="194.5" y="-201.3" font-family="Times,serif" font-size="14.00"> Project (#0, #1)</text>
<text text-anchor="start" x="194.5" y="-186.3" font-family="Times,serif" font-size="14.00"> Negate</text>
</g>
<!-- node2&#45;&gt;node7 -->
<g id="edge2" class="edge">
<title>node2&#45;&gt;node7</title>
<path fill="none" stroke="black" d="M214.49,-553.14C216.27,-502.33 224.38,-386.69 261,-298 267.2,-282.99 276.48,-268.07 285.9,-255.03"/>
<polygon fill="black" stroke="black" points="288.9,-256.86 292.08,-246.75 283.3,-252.67 288.9,-256.86"/>
<text text-anchor="start" x="235" y="-388.8" font-family="Times,serif" font-size="14.00">%2</text>
</g>
<!-- node8 -->
<g id="node9" class="node">
<title>node8</title>
<polygon fill="none" stroke="black" points="261,-88.5 261,-126.5 381,-126.5 381,-88.5 261,-88.5"/>
<text text-anchor="start" x="269" y="-111.3" font-family="Times,serif" font-size="14.00">Union %7 %2</text>
<text text-anchor="start" x="269" y="-96.3" font-family="Times,serif" font-size="14.00"> Map null, null</text>
</g>
<!-- node2&#45;&gt;node8 -->
<g id="edge9" class="edge">
<title>node2&#45;&gt;node8</title>
<path fill="none" stroke="black" d="M193.78,-553.46C177.74,-530.6 158,-495.47 158,-461 158,-461 158,-461 158,-211.5 158,-164.56 206.9,-138.14 251.13,-123.85"/>
<polygon fill="black" stroke="black" points="252.23,-127.17 260.77,-120.89 250.18,-120.48 252.23,-127.17"/>
<text text-anchor="start" x="158" y="-328.8" font-family="Times,serif" font-size="14.00">%2</text>
</g>
<!-- node3 -->
<g id="node4" class="node">
<title>node3</title>
<polygon fill="none" stroke="black" points="426,-659.5 426,-695.5 716,-695.5 716,-659.5 426,-659.5"/>
<text text-anchor="start" x="434" y="-673.8" font-family="Times,serif" font-size="14.00">Get simplify_outer_joins.public.r (u97)</text>
</g>
<!-- node3&#45;&gt;node4 -->
<g id="edge13" class="edge">
<title>node3&#45;&gt;node4</title>
<path fill="none" stroke="black" d="M558.49,-659.43C549.39,-647.02 536.79,-629.83 525.7,-614.7"/>
<polygon fill="black" stroke="black" points="528.47,-612.55 519.73,-606.55 522.82,-616.69 528.47,-612.55"/>
<text text-anchor="start" x="542" y="-628.8" font-family="Times,serif" font-size="14.00">%3</text>
</g>
<!-- node4&#45;&gt;node5 -->
<g id="edge8" class="edge">
<title>node4&#45;&gt;node5</title>
<path fill="none" stroke="black" d="M487.98,-553.4C481.64,-540.93 473.8,-525.51 466.35,-510.86"/>
<polygon fill="black" stroke="black" points="469.43,-509.19 461.78,-501.86 463.19,-512.36 469.43,-509.19"/>
<text text-anchor="start" x="478" y="-523.8" font-family="Times,serif" font-size="14.00">%4</text>
</g>
<!-- node6 -->
<g id="node7" class="node">
<title>node6</title>
<polygon fill="none" stroke="black" points="269.5,-298.5 269.5,-366.5 436.5,-366.5 436.5,-298.5 269.5,-298.5"/>
<text text-anchor="start" x="277.5" y="-351.3" font-family="Times,serif" font-size="14.00">Let l4 =</text>
<text text-anchor="start" x="277.5" y="-336.3" font-family="Times,serif" font-size="14.00"> Get %5 (l3)</text>
<text text-anchor="start" x="277.5" y="-321.3" font-family="Times,serif" font-size="14.00"> Project (#1)</text>
<text text-anchor="start" x="277.5" y="-306.3" font-family="Times,serif" font-size="14.00"> Distinct group=(#0)</text>
</g>
<!-- node5&#45;&gt;node6 -->
<g id="edge3" class="edge">
<title>node5&#45;&gt;node6</title>
<path fill="none" stroke="black" d="M412.43,-418.25C402.7,-404.38 391.83,-388.87 382.06,-374.95"/>
<polygon fill="black" stroke="black" points="384.76,-372.69 376.15,-366.51 379.02,-376.71 384.76,-372.69"/>
<text text-anchor="start" x="397" y="-388.8" font-family="Times,serif" font-size="14.00">%5</text>
</g>
<!-- node9 -->
<g id="node10" class="node">
<title>node9</title>
<polygon fill="none" stroke="black" points="350.5,-0.5 350.5,-36.5 463.5,-36.5 463.5,-0.5 350.5,-0.5"/>
<text text-anchor="start" x="358.5" y="-14.8" font-family="Times,serif" font-size="14.00">Union %8 %5</text>
</g>
<!-- node5&#45;&gt;node9 -->
<g id="edge11" class="edge">
<title>node5&#45;&gt;node9</title>
<path fill="none" stroke="black" d="M466.8,-418.27C479.45,-394.49 492,-363.37 492,-333.5 492,-333.5 492,-333.5 492,-106.5 492,-79.1 470.16,-57.12 448.62,-42.11"/>
<polygon fill="black" stroke="black" points="450.38,-39.08 440.11,-36.5 446.53,-44.93 450.38,-39.08"/>
<text text-anchor="start" x="492" y="-208.8" font-family="Times,serif" font-size="14.00">%5</text>
</g>
<!-- node6&#45;&gt;node7 -->
<g id="edge4" class="edge">
<title>node6&#45;&gt;node7</title>
<path fill="none" stroke="black" d="M344,-298.32C340.49,-285.37 336.42,-270.36 332.69,-256.6"/>
<polygon fill="black" stroke="black" points="336.04,-255.58 330.04,-246.84 329.28,-257.41 336.04,-255.58"/>
<text text-anchor="start" x="338" y="-268.8" font-family="Times,serif" font-size="14.00">%6</text>
</g>
<!-- node7&#45;&gt;node8 -->
<g id="edge5" class="edge">
<title>node7&#45;&gt;node8</title>
<path fill="none" stroke="black" d="M321,-178.34C321,-164.93 321,-149.6 321,-136.73"/>
<polygon fill="black" stroke="black" points="324.5,-136.59 321,-126.59 317.5,-136.59 324.5,-136.59"/>
<text text-anchor="start" x="321" y="-148.8" font-family="Times,serif" font-size="14.00">%7</text>
</g>
<!-- node8&#45;&gt;node9 -->
<g id="edge10" class="edge">
<title>node8&#45;&gt;node9</title>
<path fill="none" stroke="black" d="M338.82,-88.47C351.52,-75.62 368.75,-58.19 382.71,-44.07"/>
<polygon fill="black" stroke="black" points="385.54,-46.19 390.08,-36.62 380.56,-41.27 385.54,-46.19"/>
<text text-anchor="start" x="371" y="-58.8" font-family="Times,serif" font-size="14.00">%8</text>
</g>
</g>
</svg>
