<?xml version="1.0" encoding="UTF-8" standalone="no"?>
<!DOCTYPE svg PUBLIC "-//W3C//DTD SVG 1.1//EN"
 "http://www.w3.org/Graphics/SVG/1.1/DTD/svg11.dtd">
<!-- Generated by graphviz version 2.43.0 (0)
 -->
<!-- Title: G Pages: 1 -->
<svg width="724pt" height="737pt"
 viewBox="0.00 0.00 724.00 737.00" xmlns="http://www.w3.org/2000/svg" xmlns:xlink="http://www.w3.org/1999/xlink">
<g id="graph0" class="graph" transform="scale(1 1) rotate(0) translate(4 733)">
<title>G</title>
<polygon fill="white" stroke="transparent" points="-4,4 -4,-733 720,-733 720,4 -4,4"/>
<!-- node0 -->
<g id="node1" class="node">
<title>node0</title>
<polygon fill="none" stroke="black" points="306.5,-690.5 306.5,-728.5 407.5,-728.5 407.5,-690.5 306.5,-690.5"/>
<text text-anchor="start" x="314.5" y="-713.3" font-family="Times,serif" font-size="14.00">Let l0 =</text>
<text text-anchor="start" x="314.5" y="-698.3" font-family="Times,serif" font-size="14.00"> Constant ()</text>
</g>
<!-- node2 -->
<g id="node3" class="node">
<title>node2</title>
<polygon fill="none" stroke="black" points="79.5,-585.5 79.5,-638.5 348.5,-638.5 348.5,-585.5 79.5,-585.5"/>
<text text-anchor="start" x="87.5" y="-623.3" font-family="Times,serif" font-size="14.00">Let l1 =</text>
<text text-anchor="start" x="87.5" y="-608.3" font-family="Times,serif" font-size="14.00"> Join %0 %1</text>
<text text-anchor="start" x="87.5" y="-593.3" font-family="Times,serif" font-size="14.00"> implementation = Unimplemented</text>
</g>
<!-- node0&#45;&gt;node2 -->
<g id="edge9" class="edge">
<title>node0&#45;&gt;node2</title>
<path fill="none" stroke="black" d="M329.77,-690.31C310.29,-677.31 283.6,-659.48 260.75,-644.22"/>
<polygon fill="black" stroke="black" points="262.46,-641.16 252.2,-638.51 258.58,-646.98 262.46,-641.16"/>
<text text-anchor="start" x="298" y="-660.8" font-family="Times,serif" font-size="14.00">%0</text>
</g>
<!-- node4 -->
<g id="node5" class="node">
<title>node4</title>
<polygon fill="none" stroke="black" points="366.5,-585.5 366.5,-638.5 635.5,-638.5 635.5,-585.5 366.5,-585.5"/>
<text text-anchor="start" x="374.5" y="-623.3" font-family="Times,serif" font-size="14.00">Let l2 =</text>
<text text-anchor="start" x="374.5" y="-608.3" font-family="Times,serif" font-size="14.00"> Join %0 %3</text>
<text text-anchor="start" x="374.5" y="-593.3" font-family="Times,serif" font-size="14.00"> implementation = Unimplemented</text>
</g>
<!-- node0&#45;&gt;node4 -->
<g id="edge2" class="edge">
<title>node0&#45;&gt;node4</title>
<path fill="none" stroke="black" d="M384.42,-690.31C404.03,-677.31 430.91,-659.48 453.92,-644.22"/>
<polygon fill="black" stroke="black" points="456.13,-646.96 462.53,-638.51 452.26,-641.12 456.13,-646.96"/>
<text text-anchor="start" x="433" y="-660.8" font-family="Times,serif" font-size="14.00">%0</text>
</g>
<!-- node1 -->
<g id="node2" class="node">
<title>node1</title>
<polygon fill="none" stroke="black" points="0,-691.5 0,-727.5 288,-727.5 288,-691.5 0,-691.5"/>
<text text-anchor="start" x="8" y="-705.8" font-family="Times,serif" font-size="14.00">Get simplify_outer_joins.public.l (u79)</text>
</g>
<!-- node1&#45;&gt;node2 -->
<g id="edge7" class="edge">
<title>node1&#45;&gt;node2</title>
<path fill="none" stroke="black" d="M156.51,-691.43C165.61,-679.02 178.21,-661.83 189.3,-646.7"/>
<polygon fill="black" stroke="black" points="192.18,-648.69 195.27,-638.55 186.53,-644.55 192.18,-648.69"/>
<text text-anchor="start" x="182" y="-660.8" font-family="Times,serif" font-size="14.00">%1</text>
</g>
<!-- node5 -->
<g id="node6" class="node">
<title>node5</title>
<polygon fill="none" stroke="black" points="306.5,-450.5 306.5,-533.5 575.5,-533.5 575.5,-450.5 306.5,-450.5"/>
<text text-anchor="start" x="314.5" y="-518.3" font-family="Times,serif" font-size="14.00">Let l3 =</text>
<text text-anchor="start" x="314.5" y="-503.3" font-family="Times,serif" font-size="14.00"> Join %2 %4</text>
<text text-anchor="start" x="314.5" y="-488.3" font-family="Times,serif" font-size="14.00"> implementation = Unimplemented</text>
<text text-anchor="start" x="314.5" y="-473.3" font-family="Times,serif" font-size="14.00"> Project (#0..#3)</text>
<text text-anchor="start" x="314.5" y="-458.3" font-family="Times,serif" font-size="14.00"> Filter (#1 = #2)</text>
</g>
<!-- node2&#45;&gt;node5 -->
<g id="edge12" class="edge">
<title>node2&#45;&gt;node5</title>
<path fill="none" stroke="black" d="M263.26,-585.4C289.72,-571.64 323.14,-554.27 353.83,-538.31"/>
<polygon fill="black" stroke="black" points="355.57,-541.35 362.83,-533.63 352.35,-535.14 355.57,-541.35"/>
<text text-anchor="start" x="327" y="-555.8" font-family="Times,serif" font-size="14.00">%2</text>
</g>
<!-- node7 -->
<g id="node8" class="node">
<title>node7</title>
<polygon fill="none" stroke="black" points="186.5,-210.5 186.5,-278.5 455.5,-278.5 455.5,-210.5 186.5,-210.5"/>
<text text-anchor="start" x="194.5" y="-263.3" font-family="Times,serif" font-size="14.00">Join %2 %6 (= #1 #2)</text>
<text text-anchor="start" x="194.5" y="-248.3" font-family="Times,serif" font-size="14.00"> implementation = Unimplemented</text>
<text text-anchor="start" x="194.5" y="-233.3" font-family="Times,serif" font-size="14.00"> Project (#0, #1)</text>
<text text-anchor="start" x="194.5" y="-218.3" font-family="Times,serif" font-size="14.00"> Negate</text>
</g>
<!-- node2&#45;&gt;node7 -->
<g id="edge1" class="edge">
<title>node2&#45;&gt;node7</title>
<path fill="none" stroke="black" d="M214.49,-585.14C216.27,-534.33 224.38,-418.69 261,-330 267.2,-314.99 276.48,-300.07 285.9,-287.03"/>
<polygon fill="black" stroke="black" points="288.9,-288.86 292.08,-278.75 283.3,-284.67 288.9,-288.86"/>
<text text-anchor="start" x="235" y="-420.8" font-family="Times,serif" font-size="14.00">%2</text>
</g>
<!-- node8 -->
<g id="node9" class="node">
<title>node8</title>
<polygon fill="none" stroke="black" points="261,-120.5 261,-158.5 381,-158.5 381,-120.5 261,-120.5"/>
<text text-anchor="start" x="269" y="-143.3" font-family="Times,serif" font-size="14.00">Union %7 %2</text>
<text text-anchor="start" x="269" y="-128.3" font-family="Times,serif" font-size="14.00"> Map null, null</text>
</g>
<!-- node2&#45;&gt;node8 -->
<g id="edge8" class="edge">
<title>node2&#45;&gt;node8</title>
<path fill="none" stroke="black" d="M193.78,-585.46C177.74,-562.6 158,-527.47 158,-493 158,-493 158,-493 158,-243.5 158,-196.56 206.9,-170.14 251.13,-155.85"/>
<polygon fill="black" stroke="black" points="252.23,-159.17 260.77,-152.89 250.18,-152.48 252.23,-159.17"/>
<text text-anchor="start" x="158" y="-360.8" font-family="Times,serif" font-size="14.00">%2</text>
</g>
<!-- node3 -->
<g id="node4" class="node">
<title>node3</title>
<polygon fill="none" stroke="black" points="426,-691.5 426,-727.5 716,-727.5 716,-691.5 426,-691.5"/>
<text text-anchor="start" x="434" y="-705.8" font-family="Times,serif" font-size="14.00">Get simplify_outer_joins.public.r (u81)</text>
</g>
<!-- node3&#45;&gt;node4 -->
<g id="edge4" class="edge">
<title>node3&#45;&gt;node4</title>
<path fill="none" stroke="black" d="M558.49,-691.43C549.39,-679.02 536.79,-661.83 525.7,-646.7"/>
<polygon fill="black" stroke="black" points="528.47,-644.55 519.73,-638.55 522.82,-648.69 528.47,-644.55"/>
<text text-anchor="start" x="542" y="-660.8" font-family="Times,serif" font-size="14.00">%3</text>
</g>
<!-- node4&#45;&gt;node5 -->
<g id="edge11" class="edge">
<title>node4&#45;&gt;node5</title>
<path fill="none" stroke="black" d="M487.98,-585.4C481.64,-572.93 473.8,-557.51 466.35,-542.86"/>
<polygon fill="black" stroke="black" points="469.43,-541.19 461.78,-533.86 463.19,-544.36 469.43,-541.19"/>
<text text-anchor="start" x="478" y="-555.8" font-family="Times,serif" font-size="14.00">%4</text>
</g>
<!-- node6 -->
<g id="node7" class="node">
<title>node6</title>
<polygon fill="none" stroke="black" points="269.5,-330.5 269.5,-398.5 436.5,-398.5 436.5,-330.5 269.5,-330.5"/>
<text text-anchor="start" x="277.5" y="-383.3" font-family="Times,serif" font-size="14.00">Let l4 =</text>
<text text-anchor="start" x="277.5" y="-368.3" font-family="Times,serif" font-size="14.00"> Get %5 (l3)</text>
<text text-anchor="start" x="277.5" y="-353.3" font-family="Times,serif" font-size="14.00"> Project (#1)</text>
<text text-anchor="start" x="277.5" y="-338.3" font-family="Times,serif" font-size="14.00"> Distinct group=(#0)</text>
</g>
<!-- node5&#45;&gt;node6 -->
<g id="edge13" class="edge">
<title>node5&#45;&gt;node6</title>
<path fill="none" stroke="black" d="M412.43,-450.25C402.7,-436.38 391.83,-420.87 382.06,-406.95"/>
<polygon fill="black" stroke="black" points="384.76,-404.69 376.15,-398.51 379.02,-408.71 384.76,-404.69"/>
<text text-anchor="start" x="397" y="-420.8" font-family="Times,serif" font-size="14.00">%5</text>
</g>
<!-- node9 -->
<g id="node10" class="node">
<title>node9</title>
<polygon fill="none" stroke="black" points="323,-0.5 323,-68.5 491,-68.5 491,-0.5 323,-0.5"/>
<text text-anchor="start" x="331" y="-53.3" font-family="Times,serif" font-size="14.00">Union %8 %5</text>
<text text-anchor="start" x="331" y="-38.3" font-family="Times,serif" font-size="14.00"> Map #0, #1, #2, #3</text>
<text text-anchor="start" x="331" y="-23.3" font-family="Times,serif" font-size="14.00"> Project (#4..#7)</text>
<text text-anchor="start" x="331" y="-8.3" font-family="Times,serif" font-size="14.00"> Project (#0..#3)</text>
</g>
<!-- node5&#45;&gt;node9 -->
<g id="edge6" class="edge">
<title>node5&#45;&gt;node9</title>
<path fill="none" stroke="black" d="M466.8,-450.27C479.45,-426.49 492,-395.37 492,-365.5 492,-365.5 492,-365.5 492,-138.5 492,-114.36 477.94,-92.82 461.25,-75.75"/>
<polygon fill="black" stroke="black" points="463.6,-73.15 453.98,-68.72 458.73,-78.18 463.6,-73.15"/>
<text text-anchor="start" x="492" y="-240.8" font-family="Times,serif" font-size="14.00">%5</text>
</g>
<!-- node6&#45;&gt;node7 -->
<g id="edge5" class="edge">
<title>node6&#45;&gt;node7</title>
<path fill="none" stroke="black" d="M344,-330.32C340.49,-317.37 336.42,-302.36 332.69,-288.6"/>
<polygon fill="black" stroke="black" points="336.04,-287.58 330.04,-278.84 329.28,-289.41 336.04,-287.58"/>
<text text-anchor="start" x="338" y="-300.8" font-family="Times,serif" font-size="14.00">%6</text>
</g>
<!-- node7&#45;&gt;node8 -->
<g id="edge10" class="edge">
<title>node7&#45;&gt;node8</title>
<path fill="none" stroke="black" d="M321,-210.34C321,-196.93 321,-181.6 321,-168.73"/>
<polygon fill="black" stroke="black" points="324.5,-168.59 321,-158.59 317.5,-168.59 324.5,-168.59"/>
<text text-anchor="start" x="321" y="-180.8" font-family="Times,serif" font-size="14.00">%7</text>
</g>
<!-- node8&#45;&gt;node9 -->
<g id="edge3" class="edge">
<title>node8&#45;&gt;node9</title>
<path fill="none" stroke="black" d="M336.38,-120.09C346.5,-107.96 360.16,-91.6 372.77,-76.5"/>
<polygon fill="black" stroke="black" points="375.52,-78.66 379.24,-68.74 370.15,-74.18 375.52,-78.66"/>
<text text-anchor="start" x="364" y="-90.8" font-family="Times,serif" font-size="14.00">%8</text>
</g>
</g>
</svg>
