<?xml version="1.0" encoding="UTF-8" standalone="no"?>
<!DOCTYPE svg PUBLIC "-//W3C//DTD SVG 1.1//EN"
 "http://www.w3.org/Graphics/SVG/1.1/DTD/svg11.dtd">
<!-- Generated by graphviz version 2.43.0 (0)
 -->
<!-- Title: G Pages: 1 -->
<svg width="724pt" height="1112pt"
 viewBox="0.00 0.00 724.00 1112.00" xmlns="http://www.w3.org/2000/svg" xmlns:xlink="http://www.w3.org/1999/xlink">
<g id="graph0" class="graph" transform="scale(1 1) rotate(0) translate(4 1108)">
<title>G</title>
<polygon fill="white" stroke="transparent" points="-4,4 -4,-1108 720,-1108 720,4 -4,4"/>
<!-- node0 -->
<g id="node1" class="node">
<title>node0</title>
<polygon fill="none" stroke="black" points="306.5,-1035.5 306.5,-1103.5 407.5,-1103.5 407.5,-1035.5 306.5,-1035.5"/>
<text text-anchor="start" x="314.5" y="-1088.3" font-family="Times,serif" font-size="14.00">Let l0 =</text>
<text text-anchor="start" x="314.5" y="-1073.3" font-family="Times,serif" font-size="14.00"> Constant ()</text>
<text text-anchor="start" x="314.5" y="-1058.3" font-family="Times,serif" font-size="14.00"> types = ()</text>
<text text-anchor="start" x="314.5" y="-1043.3" font-family="Times,serif" font-size="14.00"> keys = (())</text>
</g>
<!-- node2 -->
<g id="node3" class="node">
<title>node2</title>
<polygon fill="none" stroke="black" points="79.5,-900.5 79.5,-983.5 348.5,-983.5 348.5,-900.5 79.5,-900.5"/>
<text text-anchor="start" x="87.5" y="-968.3" font-family="Times,serif" font-size="14.00">Let l1 =</text>
<text text-anchor="start" x="87.5" y="-953.3" font-family="Times,serif" font-size="14.00"> Join %0 %1</text>
<text text-anchor="start" x="87.5" y="-938.3" font-family="Times,serif" font-size="14.00"> implementation = Unimplemented</text>
<text text-anchor="start" x="87.5" y="-923.3" font-family="Times,serif" font-size="14.00"> types = (integer?, integer?)</text>
<text text-anchor="start" x="87.5" y="-908.3" font-family="Times,serif" font-size="14.00"> keys = ()</text>
</g>
<!-- node0&#45;&gt;node2 -->
<g id="edge1" class="edge">
<title>node0&#45;&gt;node2</title>
<path fill="none" stroke="black" d="M319.05,-1035.2C303.41,-1021.47 285,-1005.31 267.99,-990.39"/>
<polygon fill="black" stroke="black" points="270.12,-987.59 260.29,-983.63 265.5,-992.86 270.12,-987.59"/>
<text text-anchor="start" x="298" y="-1005.8" font-family="Times,serif" font-size="14.00">%0</text>
</g>
<!-- node4 -->
<g id="node5" class="node">
<title>node4</title>
<polygon fill="none" stroke="black" points="366.5,-900.5 366.5,-983.5 635.5,-983.5 635.5,-900.5 366.5,-900.5"/>
<text text-anchor="start" x="374.5" y="-968.3" font-family="Times,serif" font-size="14.00">Let l2 =</text>
<text text-anchor="start" x="374.5" y="-953.3" font-family="Times,serif" font-size="14.00"> Join %0 %3</text>
<text text-anchor="start" x="374.5" y="-938.3" font-family="Times,serif" font-size="14.00"> implementation = Unimplemented</text>
<text text-anchor="start" x="374.5" y="-923.3" font-family="Times,serif" font-size="14.00"> types = (integer?, integer)</text>
<text text-anchor="start" x="374.5" y="-908.3" font-family="Times,serif" font-size="14.00"> keys = ()</text>
</g>
<!-- node0&#45;&gt;node4 -->
<g id="edge6" class="edge">
<title>node0&#45;&gt;node4</title>
<path fill="none" stroke="black" d="M395.21,-1035.2C410.96,-1021.47 429.51,-1005.31 446.63,-990.39"/>
<polygon fill="black" stroke="black" points="449.14,-992.84 454.38,-983.63 444.54,-987.56 449.14,-992.84"/>
<text text-anchor="start" x="429" y="-1005.8" font-family="Times,serif" font-size="14.00">%0</text>
</g>
<!-- node1 -->
<g id="node2" class="node">
<title>node1</title>
<polygon fill="none" stroke="black" points="0,-1043 0,-1096 288,-1096 288,-1043 0,-1043"/>
<text text-anchor="start" x="8" y="-1080.8" font-family="Times,serif" font-size="14.00">Get simplify_outer_joins.public.l (u95)</text>
<text text-anchor="start" x="8" y="-1065.8" font-family="Times,serif" font-size="14.00"> types = (integer?, integer?)</text>
<text text-anchor="start" x="8" y="-1050.8" font-family="Times,serif" font-size="14.00"> keys = ()</text>
</g>
<!-- node1&#45;&gt;node2 -->
<g id="edge7" class="edge">
<title>node1&#45;&gt;node2</title>
<path fill="none" stroke="black" d="M158.33,-1042.8C166.37,-1028.39 176.68,-1009.91 186.23,-992.79"/>
<polygon fill="black" stroke="black" points="189.33,-994.42 191.14,-983.98 183.21,-991.01 189.33,-994.42"/>
<text text-anchor="start" x="179" y="-1005.8" font-family="Times,serif" font-size="14.00">%1</text>
</g>
<!-- node5 -->
<g id="node6" class="node">
<title>node5</title>
<polygon fill="none" stroke="black" points="297,-675.5 297,-848.5 645,-848.5 645,-675.5 297,-675.5"/>
<text text-anchor="start" x="305" y="-833.3" font-family="Times,serif" font-size="14.00">Let l3 =</text>
<text text-anchor="start" x="305" y="-818.3" font-family="Times,serif" font-size="14.00"> Join %2 %4</text>
<text text-anchor="start" x="305" y="-803.3" font-family="Times,serif" font-size="14.00"> implementation = Unimplemented</text>
<text text-anchor="start" x="305" y="-788.3" font-family="Times,serif" font-size="14.00"> types = (integer?, integer?, integer?, integer)</text>
<text text-anchor="start" x="305" y="-773.3" font-family="Times,serif" font-size="14.00"> keys = ()</text>
<text text-anchor="start" x="305" y="-758.3" font-family="Times,serif" font-size="14.00"> Project (#0..=#3)</text>
<text text-anchor="start" x="305" y="-743.3" font-family="Times,serif" font-size="14.00"> types = (integer?, integer?, integer?, integer)</text>
<text text-anchor="start" x="305" y="-728.3" font-family="Times,serif" font-size="14.00"> keys = ()</text>
<text text-anchor="start" x="305" y="-713.3" font-family="Times,serif" font-size="14.00"> Filter (#1 = #2)</text>
<text text-anchor="start" x="305" y="-698.3" font-family="Times,serif" font-size="14.00"> types = (integer?, integer, integer, integer)</text>
<text text-anchor="start" x="305" y="-683.3" font-family="Times,serif" font-size="14.00"> keys = ()</text>
</g>
<!-- node2&#45;&gt;node5 -->
<g id="edge12" class="edge">
<title>node2&#45;&gt;node5</title>
<path fill="none" stroke="black" d="M272.64,-900.39C292.58,-886.57 315.75,-870.52 339.07,-854.37"/>
<polygon fill="black" stroke="black" points="341.1,-857.23 347.33,-848.66 337.11,-851.47 341.1,-857.23"/>
<text text-anchor="start" x="319" y="-870.8" font-family="Times,serif" font-size="14.00">%2</text>
</g>
<!-- node7 -->
<g id="node8" class="node">
<title>node7</title>
<polygon fill="none" stroke="black" points="248,-255.5 248,-413.5 528,-413.5 528,-255.5 248,-255.5"/>
<text text-anchor="start" x="256" y="-398.3" font-family="Times,serif" font-size="14.00">Join %2 %6 (= #1 #2)</text>
<text text-anchor="start" x="256" y="-383.3" font-family="Times,serif" font-size="14.00"> implementation = Unimplemented</text>
<text text-anchor="start" x="256" y="-368.3" font-family="Times,serif" font-size="14.00"> types = (integer?, integer?, integer)</text>
<text text-anchor="start" x="256" y="-353.3" font-family="Times,serif" font-size="14.00"> keys = ()</text>
<text text-anchor="start" x="256" y="-338.3" font-family="Times,serif" font-size="14.00"> Project (#0, #1)</text>
<text text-anchor="start" x="256" y="-323.3" font-family="Times,serif" font-size="14.00"> types = (integer?, integer?)</text>
<text text-anchor="start" x="256" y="-308.3" font-family="Times,serif" font-size="14.00"> keys = ()</text>
<text text-anchor="start" x="256" y="-293.3" font-family="Times,serif" font-size="14.00"> Negate</text>
<text text-anchor="start" x="256" y="-278.3" font-family="Times,serif" font-size="14.00"> types = (integer?, integer?)</text>
<text text-anchor="start" x="256" y="-263.3" font-family="Times,serif" font-size="14.00"> keys = ()</text>
</g>
<!-- node2&#45;&gt;node7 -->
<g id="edge2" class="edge">
<title>node2&#45;&gt;node7</title>
<path fill="none" stroke="black" d="M214.35,-900.29C215.77,-799.66 222.94,-541.83 259,-465 266.21,-449.63 276.05,-435.03 287.09,-421.55"/>
<polygon fill="black" stroke="black" points="289.91,-423.63 293.72,-413.74 284.58,-419.1 289.91,-423.63"/>
<text text-anchor="start" x="227" y="-645.8" font-family="Times,serif" font-size="14.00">%2</text>
</g>
<!-- node8 -->
<g id="node9" class="node">
<title>node8</title>
<polygon fill="none" stroke="black" points="210,-105.5 210,-203.5 566,-203.5 566,-105.5 210,-105.5"/>
<text text-anchor="start" x="218" y="-188.3" font-family="Times,serif" font-size="14.00">Union %7 %2</text>
<text text-anchor="start" x="218" y="-173.3" font-family="Times,serif" font-size="14.00"> types = (integer?, integer?)</text>
<text text-anchor="start" x="218" y="-158.3" font-family="Times,serif" font-size="14.00"> keys = ()</text>
<text text-anchor="start" x="218" y="-143.3" font-family="Times,serif" font-size="14.00"> Map null, null</text>
<text text-anchor="start" x="218" y="-128.3" font-family="Times,serif" font-size="14.00"> types = (integer?, integer?, integer?, integer?)</text>
<text text-anchor="start" x="218" y="-113.3" font-family="Times,serif" font-size="14.00"> keys = ()</text>
</g>
<!-- node2&#45;&gt;node8 -->
<g id="edge9" class="edge">
<title>node2&#45;&gt;node8</title>
<path fill="none" stroke="black" d="M204.97,-900.22C197.81,-864.29 189,-810.43 189,-763 189,-763 189,-763 189,-333.5 189,-279.94 229.54,-238.46 274.03,-209.08"/>
<polygon fill="black" stroke="black" points="276.14,-211.88 282.67,-203.55 272.36,-205.99 276.14,-211.88"/>
<text text-anchor="start" x="189" y="-540.8" font-family="Times,serif" font-size="14.00">%2</text>
</g>
<!-- node3 -->
<g id="node4" class="node">
<title>node3</title>
<polygon fill="none" stroke="black" points="426,-1043 426,-1096 716,-1096 716,-1043 426,-1043"/>
<text text-anchor="start" x="434" y="-1080.8" font-family="Times,serif" font-size="14.00">Get simplify_outer_joins.public.r (u97)</text>
<text text-anchor="start" x="434" y="-1065.8" font-family="Times,serif" font-size="14.00"> types = (integer?, integer)</text>
<text text-anchor="start" x="434" y="-1050.8" font-family="Times,serif" font-size="14.00"> keys = ()</text>
</g>
<!-- node3&#45;&gt;node4 -->
<g id="edge13" class="edge">
<title>node3&#45;&gt;node4</title>
<path fill="none" stroke="black" d="M556.67,-1042.8C548.63,-1028.39 538.32,-1009.91 528.77,-992.79"/>
<polygon fill="black" stroke="black" points="531.79,-991.01 523.86,-983.98 525.67,-994.42 531.79,-991.01"/>
<text text-anchor="start" x="542" y="-1005.8" font-family="Times,serif" font-size="14.00">%3</text>
</g>
<!-- node4&#45;&gt;node5 -->
<g id="edge8" class="edge">
<title>node4&#45;&gt;node5</title>
<path fill="none" stroke="black" d="M494.12,-900.16C492.01,-887.65 489.59,-873.33 487.14,-858.76"/>
<polygon fill="black" stroke="black" points="490.55,-857.93 485.44,-848.65 483.65,-859.1 490.55,-857.93"/>
<text text-anchor="start" x="490" y="-870.8" font-family="Times,serif" font-size="14.00">%4</text>
</g>
<!-- node6 -->
<g id="node7" class="node">
<title>node6</title>
<polygon fill="none" stroke="black" points="268,-465.5 268,-623.5 598,-623.5 598,-465.5 268,-465.5"/>
<text text-anchor="start" x="276" y="-608.3" font-family="Times,serif" font-size="14.00">Let l4 =</text>
<text text-anchor="start" x="276" y="-593.3" font-family="Times,serif" font-size="14.00"> Get %5 (l3)</text>
<text text-anchor="start" x="276" y="-578.3" font-family="Times,serif" font-size="14.00"> types = (integer?, integer, integer, integer)</text>
<text text-anchor="start" x="276" y="-563.3" font-family="Times,serif" font-size="14.00"> keys = ()</text>
<text text-anchor="start" x="276" y="-548.3" font-family="Times,serif" font-size="14.00"> Project (#1)</text>
<text text-anchor="start" x="276" y="-533.3" font-family="Times,serif" font-size="14.00"> types = (integer)</text>
<text text-anchor="start" x="276" y="-518.3" font-family="Times,serif" font-size="14.00"> keys = ()</text>
<text text-anchor="start" x="276" y="-503.3" font-family="Times,serif" font-size="14.00"> Distinct group=(#0)</text>
<text text-anchor="start" x="276" y="-488.3" font-family="Times,serif" font-size="14.00"> types = (integer)</text>
<text text-anchor="start" x="276" y="-473.3" font-family="Times,serif" font-size="14.00"> keys = ((#0))</text>
</g>
<!-- node5&#45;&gt;node6 -->
<g id="edge3" class="edge">
<title>node5&#45;&gt;node6</title>
<path fill="none" stroke="black" d="M455.87,-675.21C453.46,-661.51 450.96,-647.32 448.53,-633.58"/>
<polygon fill="black" stroke="black" points="451.97,-632.9 446.78,-623.66 445.07,-634.11 451.97,-632.9"/>
<text text-anchor="start" x="452" y="-645.8" font-family="Times,serif" font-size="14.00">%5</text>
</g>
<!-- node9 -->
<g id="node10" class="node">
<title>node9</title>
<polygon fill="none" stroke="black" points="314,-0.5 314,-53.5 670,-53.5 670,-0.5 314,-0.5"/>
<text text-anchor="start" x="322" y="-38.3" font-family="Times,serif" font-size="14.00">Union %8 %5</text>
<text text-anchor="start" x="322" y="-23.3" font-family="Times,serif" font-size="14.00"> types = (integer?, integer?, integer?, integer?)</text>
<text text-anchor="start" x="322" y="-8.3" font-family="Times,serif" font-size="14.00"> keys = ()</text>
</g>
<!-- node5&#45;&gt;node9 -->
<g id="edge11" class="edge">
<title>node5&#45;&gt;node9</title>
<path fill="none" stroke="black" d="M569.47,-675.46C583.66,-659.53 596.86,-642.14 607,-624 624.51,-592.66 626,-581.4 626,-545.5 626,-545.5 626,-545.5 626,-153.5 626,-111.78 590.96,-79.91 556.72,-58.72"/>
<polygon fill="black" stroke="black" points="558.44,-55.67 548.05,-53.57 554.86,-61.69 558.44,-55.67"/>
<text text-anchor="start" x="626" y="-330.8" font-family="Times,serif" font-size="14.00">%5</text>
</g>
<!-- node6&#45;&gt;node7 -->
<g id="edge4" class="edge">
<title>node6&#45;&gt;node7</title>
<path fill="none" stroke="black" d="M416.12,-465.46C413.17,-451.82 410.08,-437.55 407.07,-423.66"/>
<polygon fill="black" stroke="black" points="410.44,-422.67 404.9,-413.63 403.6,-424.15 410.44,-422.67"/>
<text text-anchor="start" x="411" y="-435.8" font-family="Times,serif" font-size="14.00">%6</text>
</g>
<!-- node7&#45;&gt;node8 -->
<g id="edge5" class="edge">
<title>node7&#45;&gt;node8</title>
<path fill="none" stroke="black" d="M388,-255.43C388,-241.5 388,-227.2 388,-213.94"/>
<polygon fill="black" stroke="black" points="391.5,-213.55 388,-203.55 384.5,-213.55 391.5,-213.55"/>
<text text-anchor="start" x="388" y="-225.8" font-family="Times,serif" font-size="14.00">%7</text>
</g>
<!-- node8&#45;&gt;node9 -->
<g id="edge10" class="edge">
<title>node8&#45;&gt;node9</title>
<path fill="none" stroke="black" d="M427.91,-105.34C439.96,-90.8 452.93,-75.15 464.02,-61.76"/>
<polygon fill="black" stroke="black" points="466.98,-63.68 470.66,-53.75 461.59,-59.21 466.98,-63.68"/>
<text text-anchor="start" x="455" y="-75.8" font-family="Times,serif" font-size="14.00">%8</text>
</g>
</g>
</svg>
