<?xml version="1.0" encoding="UTF-8" standalone="no"?>
<!DOCTYPE svg PUBLIC "-//W3C//DTD SVG 1.1//EN"
 "http://www.w3.org/Graphics/SVG/1.1/DTD/svg11.dtd">
<!-- Generated by graphviz version 2.43.0 (0)
 -->
<!-- Title: G Pages: 1 -->
<svg width="815pt" height="1247pt"
 viewBox="0.00 0.00 814.50 1247.00" xmlns="http://www.w3.org/2000/svg" xmlns:xlink="http://www.w3.org/1999/xlink">
<g id="graph0" class="graph" transform="scale(1 1) rotate(0) translate(4 1243)">
<title>G</title>
<polygon fill="white" stroke="transparent" points="-4,4 -4,-1243 810.5,-1243 810.5,4 -4,4"/>
<!-- node0 -->
<g id="node1" class="node">
<title>node0</title>
<polygon fill="none" stroke="black" points="306.5,-1170.5 306.5,-1238.5 407.5,-1238.5 407.5,-1170.5 306.5,-1170.5"/>
<text text-anchor="start" x="314.5" y="-1223.3" font-family="Times,serif" font-size="14.00">Let l0 =</text>
<text text-anchor="start" x="314.5" y="-1208.3" font-family="Times,serif" font-size="14.00"> Constant ()</text>
<text text-anchor="start" x="314.5" y="-1193.3" font-family="Times,serif" font-size="14.00"> types = ()</text>
<text text-anchor="start" x="314.5" y="-1178.3" font-family="Times,serif" font-size="14.00"> keys = (())</text>
</g>
<!-- node2 -->
<g id="node3" class="node">
<title>node2</title>
<polygon fill="none" stroke="black" points="79.5,-1035.5 79.5,-1118.5 348.5,-1118.5 348.5,-1035.5 79.5,-1035.5"/>
<text text-anchor="start" x="87.5" y="-1103.3" font-family="Times,serif" font-size="14.00">Let l1 =</text>
<text text-anchor="start" x="87.5" y="-1088.3" font-family="Times,serif" font-size="14.00"> Join %0 %1</text>
<text text-anchor="start" x="87.5" y="-1073.3" font-family="Times,serif" font-size="14.00"> implementation = Unimplemented</text>
<text text-anchor="start" x="87.5" y="-1058.3" font-family="Times,serif" font-size="14.00"> types = (integer?, integer?)</text>
<text text-anchor="start" x="87.5" y="-1043.3" font-family="Times,serif" font-size="14.00"> keys = ()</text>
</g>
<!-- node0&#45;&gt;node2 -->
<g id="edge9" class="edge">
<title>node0&#45;&gt;node2</title>
<path fill="none" stroke="black" d="M319.05,-1170.2C303.41,-1156.47 285,-1140.31 267.99,-1125.39"/>
<polygon fill="black" stroke="black" points="270.12,-1122.59 260.29,-1118.63 265.5,-1127.86 270.12,-1122.59"/>
<text text-anchor="start" x="298" y="-1140.8" font-family="Times,serif" font-size="14.00">%0</text>
</g>
<!-- node4 -->
<g id="node5" class="node">
<title>node4</title>
<polygon fill="none" stroke="black" points="366.5,-1035.5 366.5,-1118.5 635.5,-1118.5 635.5,-1035.5 366.5,-1035.5"/>
<text text-anchor="start" x="374.5" y="-1103.3" font-family="Times,serif" font-size="14.00">Let l2 =</text>
<text text-anchor="start" x="374.5" y="-1088.3" font-family="Times,serif" font-size="14.00"> Join %0 %3</text>
<text text-anchor="start" x="374.5" y="-1073.3" font-family="Times,serif" font-size="14.00"> implementation = Unimplemented</text>
<text text-anchor="start" x="374.5" y="-1058.3" font-family="Times,serif" font-size="14.00"> types = (integer?, integer)</text>
<text text-anchor="start" x="374.5" y="-1043.3" font-family="Times,serif" font-size="14.00"> keys = ()</text>
</g>
<!-- node0&#45;&gt;node4 -->
<g id="edge2" class="edge">
<title>node0&#45;&gt;node4</title>
<path fill="none" stroke="black" d="M395.21,-1170.2C410.96,-1156.47 429.51,-1140.31 446.63,-1125.39"/>
<polygon fill="black" stroke="black" points="449.14,-1127.84 454.38,-1118.63 444.54,-1122.56 449.14,-1127.84"/>
<text text-anchor="start" x="429" y="-1140.8" font-family="Times,serif" font-size="14.00">%0</text>
</g>
<!-- node1 -->
<g id="node2" class="node">
<title>node1</title>
<polygon fill="none" stroke="black" points="0,-1178 0,-1231 288,-1231 288,-1178 0,-1178"/>
<text text-anchor="start" x="8" y="-1215.8" font-family="Times,serif" font-size="14.00">Get simplify_outer_joins.public.l (u79)</text>
<text text-anchor="start" x="8" y="-1200.8" font-family="Times,serif" font-size="14.00"> types = (integer?, integer?)</text>
<text text-anchor="start" x="8" y="-1185.8" font-family="Times,serif" font-size="14.00"> keys = ()</text>
</g>
<!-- node1&#45;&gt;node2 -->
<g id="edge7" class="edge">
<title>node1&#45;&gt;node2</title>
<path fill="none" stroke="black" d="M158.33,-1177.8C166.37,-1163.39 176.68,-1144.91 186.23,-1127.79"/>
<polygon fill="black" stroke="black" points="189.33,-1129.42 191.14,-1118.98 183.21,-1126.01 189.33,-1129.42"/>
<text text-anchor="start" x="179" y="-1140.8" font-family="Times,serif" font-size="14.00">%1</text>
</g>
<!-- node5 -->
<g id="node6" class="node">
<title>node5</title>
<polygon fill="none" stroke="black" points="297,-810.5 297,-983.5 645,-983.5 645,-810.5 297,-810.5"/>
<text text-anchor="start" x="305" y="-968.3" font-family="Times,serif" font-size="14.00">Let l3 =</text>
<text text-anchor="start" x="305" y="-953.3" font-family="Times,serif" font-size="14.00"> Join %2 %4</text>
<text text-anchor="start" x="305" y="-938.3" font-family="Times,serif" font-size="14.00"> implementation = Unimplemented</text>
<text text-anchor="start" x="305" y="-923.3" font-family="Times,serif" font-size="14.00"> types = (integer?, integer?, integer?, integer)</text>
<text text-anchor="start" x="305" y="-908.3" font-family="Times,serif" font-size="14.00"> keys = ()</text>
<text text-anchor="start" x="305" y="-893.3" font-family="Times,serif" font-size="14.00"> Project (#0..#3)</text>
<text text-anchor="start" x="305" y="-878.3" font-family="Times,serif" font-size="14.00"> types = (integer?, integer?, integer?, integer)</text>
<text text-anchor="start" x="305" y="-863.3" font-family="Times,serif" font-size="14.00"> keys = ()</text>
<text text-anchor="start" x="305" y="-848.3" font-family="Times,serif" font-size="14.00"> Filter (#1 = #2)</text>
<text text-anchor="start" x="305" y="-833.3" font-family="Times,serif" font-size="14.00"> types = (integer?, integer, integer, integer)</text>
<text text-anchor="start" x="305" y="-818.3" font-family="Times,serif" font-size="14.00"> keys = ()</text>
</g>
<!-- node2&#45;&gt;node5 -->
<g id="edge12" class="edge">
<title>node2&#45;&gt;node5</title>
<path fill="none" stroke="black" d="M272.64,-1035.39C292.58,-1021.57 315.75,-1005.52 339.07,-989.37"/>
<polygon fill="black" stroke="black" points="341.1,-992.23 347.33,-983.66 337.11,-986.47 341.1,-992.23"/>
<text text-anchor="start" x="319" y="-1005.8" font-family="Times,serif" font-size="14.00">%2</text>
</g>
<!-- node7 -->
<g id="node8" class="node">
<title>node7</title>
<polygon fill="none" stroke="black" points="248,-390.5 248,-548.5 528,-548.5 528,-390.5 248,-390.5"/>
<text text-anchor="start" x="256" y="-533.3" font-family="Times,serif" font-size="14.00">Join %2 %6 (= #1 #2)</text>
<text text-anchor="start" x="256" y="-518.3" font-family="Times,serif" font-size="14.00"> implementation = Unimplemented</text>
<text text-anchor="start" x="256" y="-503.3" font-family="Times,serif" font-size="14.00"> types = (integer?, integer?, integer)</text>
<text text-anchor="start" x="256" y="-488.3" font-family="Times,serif" font-size="14.00"> keys = ()</text>
<text text-anchor="start" x="256" y="-473.3" font-family="Times,serif" font-size="14.00"> Project (#0, #1)</text>
<text text-anchor="start" x="256" y="-458.3" font-family="Times,serif" font-size="14.00"> types = (integer?, integer?)</text>
<text text-anchor="start" x="256" y="-443.3" font-family="Times,serif" font-size="14.00"> keys = ()</text>
<text text-anchor="start" x="256" y="-428.3" font-family="Times,serif" font-size="14.00"> Negate</text>
<text text-anchor="start" x="256" y="-413.3" font-family="Times,serif" font-size="14.00"> types = (integer?, integer?)</text>
<text text-anchor="start" x="256" y="-398.3" font-family="Times,serif" font-size="14.00"> keys = ()</text>
</g>
<!-- node2&#45;&gt;node7 -->
<g id="edge1" class="edge">
<title>node2&#45;&gt;node7</title>
<path fill="none" stroke="black" d="M214.35,-1035.29C215.77,-934.66 222.94,-676.83 259,-600 266.21,-584.63 276.05,-570.03 287.09,-556.55"/>
<polygon fill="black" stroke="black" points="289.91,-558.63 293.72,-548.74 284.58,-554.1 289.91,-558.63"/>
<text text-anchor="start" x="227" y="-780.8" font-family="Times,serif" font-size="14.00">%2</text>
</g>
<!-- node8 -->
<g id="node9" class="node">
<title>node8</title>
<polygon fill="none" stroke="black" points="210,-240.5 210,-338.5 566,-338.5 566,-240.5 210,-240.5"/>
<text text-anchor="start" x="218" y="-323.3" font-family="Times,serif" font-size="14.00">Union %7 %2</text>
<text text-anchor="start" x="218" y="-308.3" font-family="Times,serif" font-size="14.00"> types = (integer?, integer?)</text>
<text text-anchor="start" x="218" y="-293.3" font-family="Times,serif" font-size="14.00"> keys = ()</text>
<text text-anchor="start" x="218" y="-278.3" font-family="Times,serif" font-size="14.00"> Map null, null</text>
<text text-anchor="start" x="218" y="-263.3" font-family="Times,serif" font-size="14.00"> types = (integer?, integer?, integer?, integer?)</text>
<text text-anchor="start" x="218" y="-248.3" font-family="Times,serif" font-size="14.00"> keys = ()</text>
</g>
<!-- node2&#45;&gt;node8 -->
<g id="edge8" class="edge">
<title>node2&#45;&gt;node8</title>
<path fill="none" stroke="black" d="M204.97,-1035.22C197.81,-999.29 189,-945.43 189,-898 189,-898 189,-898 189,-468.5 189,-414.94 229.54,-373.46 274.03,-344.08"/>
<polygon fill="black" stroke="black" points="276.14,-346.88 282.67,-338.55 272.36,-340.99 276.14,-346.88"/>
<text text-anchor="start" x="189" y="-675.8" font-family="Times,serif" font-size="14.00">%2</text>
</g>
<!-- node3 -->
<g id="node4" class="node">
<title>node3</title>
<polygon fill="none" stroke="black" points="426,-1178 426,-1231 716,-1231 716,-1178 426,-1178"/>
<text text-anchor="start" x="434" y="-1215.8" font-family="Times,serif" font-size="14.00">Get simplify_outer_joins.public.r (u81)</text>
<text text-anchor="start" x="434" y="-1200.8" font-family="Times,serif" font-size="14.00"> types = (integer?, integer)</text>
<text text-anchor="start" x="434" y="-1185.8" font-family="Times,serif" font-size="14.00"> keys = ()</text>
</g>
<!-- node3&#45;&gt;node4 -->
<g id="edge4" class="edge">
<title>node3&#45;&gt;node4</title>
<path fill="none" stroke="black" d="M556.67,-1177.8C548.63,-1163.39 538.32,-1144.91 528.77,-1127.79"/>
<polygon fill="black" stroke="black" points="531.79,-1126.01 523.86,-1118.98 525.67,-1129.42 531.79,-1126.01"/>
<text text-anchor="start" x="542" y="-1140.8" font-family="Times,serif" font-size="14.00">%3</text>
</g>
<!-- node4&#45;&gt;node5 -->
<g id="edge11" class="edge">
<title>node4&#45;&gt;node5</title>
<path fill="none" stroke="black" d="M494.12,-1035.16C492.01,-1022.65 489.59,-1008.33 487.14,-993.76"/>
<polygon fill="black" stroke="black" points="490.55,-992.93 485.44,-983.65 483.65,-994.1 490.55,-992.93"/>
<text text-anchor="start" x="490" y="-1005.8" font-family="Times,serif" font-size="14.00">%4</text>
</g>
<!-- node6 -->
<g id="node7" class="node">
<title>node6</title>
<polygon fill="none" stroke="black" points="268,-600.5 268,-758.5 598,-758.5 598,-600.5 268,-600.5"/>
<text text-anchor="start" x="276" y="-743.3" font-family="Times,serif" font-size="14.00">Let l4 =</text>
<text text-anchor="start" x="276" y="-728.3" font-family="Times,serif" font-size="14.00"> Get %5 (l3)</text>
<text text-anchor="start" x="276" y="-713.3" font-family="Times,serif" font-size="14.00"> types = (integer?, integer, integer, integer)</text>
<text text-anchor="start" x="276" y="-698.3" font-family="Times,serif" font-size="14.00"> keys = ()</text>
<text text-anchor="start" x="276" y="-683.3" font-family="Times,serif" font-size="14.00"> Project (#1)</text>
<text text-anchor="start" x="276" y="-668.3" font-family="Times,serif" font-size="14.00"> types = (integer)</text>
<text text-anchor="start" x="276" y="-653.3" font-family="Times,serif" font-size="14.00"> keys = ()</text>
<text text-anchor="start" x="276" y="-638.3" font-family="Times,serif" font-size="14.00"> Distinct group=(#0)</text>
<text text-anchor="start" x="276" y="-623.3" font-family="Times,serif" font-size="14.00"> types = (integer)</text>
<text text-anchor="start" x="276" y="-608.3" font-family="Times,serif" font-size="14.00"> keys = ((#0))</text>
</g>
<!-- node5&#45;&gt;node6 -->
<g id="edge13" class="edge">
<title>node5&#45;&gt;node6</title>
<path fill="none" stroke="black" d="M455.87,-810.21C453.46,-796.51 450.96,-782.32 448.53,-768.58"/>
<polygon fill="black" stroke="black" points="451.97,-767.9 446.78,-758.66 445.07,-769.11 451.97,-767.9"/>
<text text-anchor="start" x="452" y="-780.8" font-family="Times,serif" font-size="14.00">%5</text>
</g>
<!-- node9 -->
<g id="node10" class="node">
<title>node9</title>
<polygon fill="none" stroke="black" points="177.5,-0.5 177.5,-188.5 806.5,-188.5 806.5,-0.5 177.5,-0.5"/>
<text text-anchor="start" x="185.5" y="-173.3" font-family="Times,serif" font-size="14.00">Union %8 %5</text>
<text text-anchor="start" x="185.5" y="-158.3" font-family="Times,serif" font-size="14.00"> types = (integer?, integer?, integer?, integer?)</text>
<text text-anchor="start" x="185.5" y="-143.3" font-family="Times,serif" font-size="14.00"> keys = ()</text>
<text text-anchor="start" x="185.5" y="-128.3" font-family="Times,serif" font-size="14.00"> Map #0, #1, #2, #3</text>
<text text-anchor="start" x="185.5" y="-113.3" font-family="Times,serif" font-size="14.00"> types = (integer?, integer?, integer?, integer?, integer?, integer?, integer?, integer?)</text>
<text text-anchor="start" x="185.5" y="-98.3" font-family="Times,serif" font-size="14.00"> keys = ()</text>
<text text-anchor="start" x="185.5" y="-83.3" font-family="Times,serif" font-size="14.00"> Project (#4..#7)</text>
<text text-anchor="start" x="185.5" y="-68.3" font-family="Times,serif" font-size="14.00"> types = (integer?, integer?, integer?, integer?)</text>
<text text-anchor="start" x="185.5" y="-53.3" font-family="Times,serif" font-size="14.00"> keys = ()</text>
<text text-anchor="start" x="185.5" y="-38.3" font-family="Times,serif" font-size="14.00"> Project (#0..#3)</text>
<text text-anchor="start" x="185.5" y="-23.3" font-family="Times,serif" font-size="14.00"> types = (integer?, integer?, integer?, integer?)</text>
<text text-anchor="start" x="185.5" y="-8.3" font-family="Times,serif" font-size="14.00"> keys = ()</text>
</g>
<!-- node5&#45;&gt;node9 -->
<g id="edge6" class="edge">
<title>node5&#45;&gt;node9</title>
<path fill="none" stroke="black" d="M569.47,-810.46C583.66,-794.53 596.86,-777.14 607,-759 624.51,-727.66 626,-716.4 626,-680.5 626,-680.5 626,-680.5 626,-288.5 626,-255.78 612.85,-224.62 594.78,-197.26"/>
<polygon fill="black" stroke="black" points="597.58,-195.14 589.03,-188.89 591.81,-199.11 597.58,-195.14"/>
<text text-anchor="start" x="626" y="-465.8" font-family="Times,serif" font-size="14.00">%5</text>
</g>
<!-- node6&#45;&gt;node7 -->
<g id="edge5" class="edge">
<title>node6&#45;&gt;node7</title>
<path fill="none" stroke="black" d="M416.12,-600.46C413.17,-586.82 410.08,-572.55 407.07,-558.66"/>
<polygon fill="black" stroke="black" points="410.44,-557.67 404.9,-548.63 403.6,-559.15 410.44,-557.67"/>
<text text-anchor="start" x="411" y="-570.8" font-family="Times,serif" font-size="14.00">%6</text>
</g>
<!-- node7&#45;&gt;node8 -->
<g id="edge10" class="edge">
<title>node7&#45;&gt;node8</title>
<path fill="none" stroke="black" d="M388,-390.43C388,-376.5 388,-362.2 388,-348.94"/>
<polygon fill="black" stroke="black" points="391.5,-348.55 388,-338.55 384.5,-348.55 391.5,-348.55"/>
<text text-anchor="start" x="388" y="-360.8" font-family="Times,serif" font-size="14.00">%7</text>
</g>
<!-- node8&#45;&gt;node9 -->
<g id="edge3" class="edge">
<title>node8&#45;&gt;node9</title>
<path fill="none" stroke="black" d="M413.98,-240.3C421.07,-227.14 429.03,-212.36 437.08,-197.41"/>
<polygon fill="black" stroke="black" points="440.17,-199.07 441.83,-188.6 434.01,-195.75 440.17,-199.07"/>
<text text-anchor="start" x="430" y="-210.8" font-family="Times,serif" font-size="14.00">%8</text>
</g>
</g>
</svg>
