<?xml version="1.0" encoding="UTF-8" standalone="no"?>
<!DOCTYPE svg PUBLIC "-//W3C//DTD SVG 1.1//EN"
 "http://www.w3.org/Graphics/SVG/1.1/DTD/svg11.dtd">
<!-- Generated by graphviz version 2.43.0 (0)
 -->
<!-- Title: G Pages: 1 -->
<svg width="695pt" height="1066pt"
 viewBox="0.00 0.00 695.00 1066.00" xmlns="http://www.w3.org/2000/svg" xmlns:xlink="http://www.w3.org/1999/xlink">
<g id="graph0" class="graph" transform="scale(1 1) rotate(0) translate(4 1062)">
<title>G</title>
<polygon fill="white" stroke="transparent" points="-4,4 -4,-1062 691,-1062 691,4 -4,4"/>
<!-- node0 -->
<g id="node1" class="node">
<title>node0</title>
<polygon fill="none" stroke="black" points="223,-1021.5 223,-1057.5 319,-1057.5 319,-1021.5 223,-1021.5"/>
<text text-anchor="start" x="231" y="-1035.8" font-family="Times,serif" font-size="14.00">Constant ()</text>
</g>
<!-- node2 -->
<g id="node3" class="node">
<title>node2</title>
<polygon fill="none" stroke="black" points="227,-916.5 227,-969.5 501,-969.5 501,-916.5 227,-916.5"/>
<text text-anchor="start" x="235" y="-954.3" font-family="Times,serif" font-size="14.00">Join %0 %1</text>
<text text-anchor="start" x="235" y="-939.3" font-family="Times,serif" font-size="14.00">&#45; implementation = Unimplemented</text>
<text text-anchor="start" x="235" y="-924.3" font-family="Times,serif" font-size="14.00">Filter true</text>
</g>
<!-- node0&#45;&gt;node2 -->
<g id="edge12" class="edge">
<title>node0&#45;&gt;node2</title>
<path fill="none" stroke="black" d="M288.06,-1021.17C300.11,-1008.92 316.66,-992.11 331.23,-977.3"/>
<polygon fill="black" stroke="black" points="334.11,-979.36 338.63,-969.78 329.12,-974.45 334.11,-979.36"/>
<text text-anchor="start" x="321" y="-991.8" font-family="Times,serif" font-size="14.00">%0</text>
</g>
<!-- node1 -->
<g id="node2" class="node">
<title>node1</title>
<polygon fill="none" stroke="black" points="337,-1021.5 337,-1057.5 579,-1057.5 579,-1021.5 337,-1021.5"/>
<text text-anchor="start" x="345" y="-1035.8" font-family="Times,serif" font-size="14.00">Get optimizer_101.public.a (u9)</text>
</g>
<!-- node1&#45;&gt;node2 -->
<g id="edge9" class="edge">
<title>node1&#45;&gt;node2</title>
<path fill="none" stroke="black" d="M440.76,-1021.17C428.46,-1008.8 411.54,-991.8 396.72,-976.9"/>
<polygon fill="black" stroke="black" points="399.18,-974.4 389.64,-969.78 394.21,-979.34 399.18,-974.4"/>
<text text-anchor="start" x="422" y="-991.8" font-family="Times,serif" font-size="14.00">%1</text>
</g>
<!-- node3 -->
<g id="node4" class="node">
<title>node3</title>
<polygon fill="none" stroke="black" points="45.5,-828.5 45.5,-864.5 208.5,-864.5 208.5,-828.5 45.5,-828.5"/>
<text text-anchor="start" x="53.5" y="-842.8" font-family="Times,serif" font-size="14.00">Distinct group=(#0)</text>
</g>
<!-- node2&#45;&gt;node3 -->
<g id="edge14" class="edge">
<title>node2&#45;&gt;node3</title>
<path fill="none" stroke="black" d="M299.86,-916.43C262.15,-901.39 215.05,-882.61 179.54,-868.45"/>
<polygon fill="black" stroke="black" points="180.44,-865.04 169.85,-864.59 177.85,-871.54 180.44,-865.04"/>
<text text-anchor="start" x="253" y="-886.8" font-family="Times,serif" font-size="14.00">%2</text>
</g>
<!-- node15 -->
<g id="node16" class="node">
<title>node15</title>
<polygon fill="none" stroke="black" points="413,-0.5 413,-83.5 687,-83.5 687,-0.5 413,-0.5"/>
<text text-anchor="start" x="421" y="-68.3" font-family="Times,serif" font-size="14.00">Join %2 %14 (= #0 #3)</text>
<text text-anchor="start" x="421" y="-53.3" font-family="Times,serif" font-size="14.00">&#45; implementation = Unimplemented</text>
<text text-anchor="start" x="421" y="-38.3" font-family="Times,serif" font-size="14.00">Project (#0..=#2, #4)</text>
<text text-anchor="start" x="421" y="-23.3" font-family="Times,serif" font-size="14.00">Filter #3</text>
<text text-anchor="start" x="421" y="-8.3" font-family="Times,serif" font-size="14.00">Project (#0..=#2)</text>
</g>
<!-- node2&#45;&gt;node15 -->
<g id="edge2" class="edge">
<title>node2&#45;&gt;node15</title>
<path fill="none" stroke="black" d="M480.76,-916.49C540.59,-899.94 601,-876.13 601,-847.5 601,-847.5 601,-847.5 601,-152.5 601,-131.78 593.41,-110.75 584.08,-92.73"/>
<polygon fill="black" stroke="black" points="586.95,-90.69 579.08,-83.6 580.81,-94.05 586.95,-90.69"/>
<text text-anchor="start" x="601" y="-476.8" font-family="Times,serif" font-size="14.00">%2</text>
</g>
<!-- node5 -->
<g id="node6" class="node">
<title>node5</title>
<polygon fill="none" stroke="black" points="155,-708.5 155,-776.5 429,-776.5 429,-708.5 155,-708.5"/>
<text text-anchor="start" x="163" y="-761.3" font-family="Times,serif" font-size="14.00">Join %3 %4</text>
<text text-anchor="start" x="163" y="-746.3" font-family="Times,serif" font-size="14.00">&#45; implementation = Unimplemented</text>
<text text-anchor="start" x="163" y="-731.3" font-family="Times,serif" font-size="14.00">Filter (#1 = #0)</text>
<text text-anchor="start" x="163" y="-716.3" font-family="Times,serif" font-size="14.00">Distinct group=(#0)</text>
</g>
<!-- node3&#45;&gt;node5 -->
<g id="edge8" class="edge">
<title>node3&#45;&gt;node5</title>
<path fill="none" stroke="black" d="M154.62,-828.43C175.14,-815.74 203.96,-797.93 229.9,-781.89"/>
<polygon fill="black" stroke="black" points="231.91,-784.76 238.57,-776.53 228.23,-778.81 231.91,-784.76"/>
<text text-anchor="start" x="205" y="-798.8" font-family="Times,serif" font-size="14.00">%3</text>
</g>
<!-- node9 -->
<g id="node10" class="node">
<title>node9</title>
<polygon fill="none" stroke="black" points="104.5,-653.5 104.5,-689.5 267.5,-689.5 267.5,-653.5 104.5,-653.5"/>
<text text-anchor="start" x="112.5" y="-667.8" font-family="Times,serif" font-size="14.00">Distinct group=(#0)</text>
</g>
<!-- node3&#45;&gt;node9 -->
<g id="edge15" class="edge">
<title>node3&#45;&gt;node9</title>
<path fill="none" stroke="black" d="M125.7,-828.27C124.42,-801.03 125.09,-747.1 146,-708 148.13,-704.02 150.89,-700.28 153.96,-696.82"/>
<polygon fill="black" stroke="black" points="156.46,-699.27 161.08,-689.73 151.52,-694.31 156.46,-699.27"/>
<text text-anchor="start" x="126" y="-798.8" font-family="Times,serif" font-size="14.00">%3</text>
</g>
<!-- node11 -->
<g id="node12" class="node">
<title>node11</title>
<polygon fill="none" stroke="black" points="0,-313.5 0,-366.5 274,-366.5 274,-313.5 0,-313.5"/>
<text text-anchor="start" x="8" y="-351.3" font-family="Times,serif" font-size="14.00">Join %10 %3 (= #0 #1)</text>
<text text-anchor="start" x="8" y="-336.3" font-family="Times,serif" font-size="14.00">&#45; implementation = Unimplemented</text>
<text text-anchor="start" x="8" y="-321.3" font-family="Times,serif" font-size="14.00">Project (#0)</text>
</g>
<!-- node3&#45;&gt;node11 -->
<g id="edge17" class="edge">
<title>node3&#45;&gt;node11</title>
<path fill="none" stroke="black" d="M116.21,-828.18C104.98,-808.44 89,-774.87 89,-743.5 89,-743.5 89,-743.5 89,-435.5 89,-413.88 99.11,-392.19 110.06,-375.06"/>
<polygon fill="black" stroke="black" points="113.11,-376.79 115.81,-366.54 107.31,-372.87 113.11,-376.79"/>
<text text-anchor="start" x="89" y="-566.8" font-family="Times,serif" font-size="14.00">%3</text>
</g>
<!-- node4 -->
<g id="node5" class="node">
<title>node4</title>
<polygon fill="none" stroke="black" points="227,-828.5 227,-864.5 479,-864.5 479,-828.5 227,-828.5"/>
<text text-anchor="start" x="235" y="-842.8" font-family="Times,serif" font-size="14.00">Get optimizer_101.public.b (u10)</text>
</g>
<!-- node4&#45;&gt;node5 -->
<g id="edge13" class="edge">
<title>node4&#45;&gt;node5</title>
<path fill="none" stroke="black" d="M342.65,-828.2C335.61,-816.41 325.96,-800.29 316.98,-785.27"/>
<polygon fill="black" stroke="black" points="319.93,-783.38 311.79,-776.59 313.92,-786.97 319.93,-783.38"/>
<text text-anchor="start" x="332" y="-798.8" font-family="Times,serif" font-size="14.00">%4</text>
</g>
<!-- node7 -->
<g id="node8" class="node">
<title>node7</title>
<polygon fill="none" stroke="black" points="257,-596.5 257,-634.5 531,-634.5 531,-596.5 257,-596.5"/>
<text text-anchor="start" x="265" y="-619.3" font-family="Times,serif" font-size="14.00">Join %5 %6</text>
<text text-anchor="start" x="265" y="-604.3" font-family="Times,serif" font-size="14.00">&#45; implementation = Unimplemented</text>
</g>
<!-- node5&#45;&gt;node7 -->
<g id="edge16" class="edge">
<title>node5&#45;&gt;node7</title>
<path fill="none" stroke="black" d="M319.07,-708.33C335.83,-687.79 357.05,-661.79 372.62,-642.7"/>
<polygon fill="black" stroke="black" points="375.52,-644.68 379.14,-634.72 370.1,-640.25 375.52,-644.68"/>
<text text-anchor="start" x="364" y="-667.8" font-family="Times,serif" font-size="14.00">%5</text>
</g>
<!-- node6 -->
<g id="node7" class="node">
<title>node6</title>
<polygon fill="none" stroke="black" points="447,-724.5 447,-760.5 573,-760.5 573,-724.5 447,-724.5"/>
<text text-anchor="start" x="455" y="-738.8" font-family="Times,serif" font-size="14.00">Constant (true)</text>
</g>
<!-- node6&#45;&gt;node7 -->
<g id="edge19" class="edge">
<title>node6&#45;&gt;node7</title>
<path fill="none" stroke="black" d="M494.11,-724.38C474.41,-703.14 440.62,-666.74 417.81,-642.16"/>
<polygon fill="black" stroke="black" points="420.19,-639.58 410.82,-634.63 415.06,-644.34 420.19,-639.58"/>
<text text-anchor="start" x="458" y="-667.8" font-family="Times,serif" font-size="14.00">%6</text>
</g>
<!-- node8 -->
<g id="node9" class="node">
<title>node8</title>
<polygon fill="none" stroke="black" points="231.5,-506.5 231.5,-544.5 394.5,-544.5 394.5,-506.5 231.5,-506.5"/>
<text text-anchor="start" x="239.5" y="-529.3" font-family="Times,serif" font-size="14.00">Distinct group=(#0)</text>
<text text-anchor="start" x="239.5" y="-514.3" font-family="Times,serif" font-size="14.00">Negate</text>
</g>
<!-- node7&#45;&gt;node8 -->
<g id="edge5" class="edge">
<title>node7&#45;&gt;node8</title>
<path fill="none" stroke="black" d="M377.22,-596.27C365.49,-583.52 349.66,-566.33 336.65,-552.2"/>
<polygon fill="black" stroke="black" points="339.11,-549.7 329.76,-544.71 333.96,-554.44 339.11,-549.7"/>
<text text-anchor="start" x="359" y="-566.8" font-family="Times,serif" font-size="14.00">%7</text>
</g>
<!-- node14 -->
<g id="node15" class="node">
<title>node14</title>
<polygon fill="none" stroke="black" points="395,-135.5 395,-171.5 517,-171.5 517,-135.5 395,-135.5"/>
<text text-anchor="start" x="403" y="-149.8" font-family="Times,serif" font-size="14.00">Union %7 %13</text>
</g>
<!-- node7&#45;&gt;node14 -->
<g id="edge6" class="edge">
<title>node7&#45;&gt;node14</title>
<path fill="none" stroke="black" d="M416.73,-596.47C434.43,-580.27 456,-554.72 456,-526.5 456,-526.5 456,-526.5 456,-241.5 456,-221.55 456,-199.03 456,-181.9"/>
<polygon fill="black" stroke="black" points="459.5,-181.5 456,-171.5 452.5,-181.5 459.5,-181.5"/>
<text text-anchor="start" x="456" y="-388.8" font-family="Times,serif" font-size="14.00">%7</text>
</g>
<!-- node10 -->
<g id="node11" class="node">
<title>node10</title>
<polygon fill="none" stroke="black" points="129.5,-418.5 129.5,-454.5 242.5,-454.5 242.5,-418.5 129.5,-418.5"/>
<text text-anchor="start" x="137.5" y="-432.8" font-family="Times,serif" font-size="14.00">Union %8 %9</text>
</g>
<!-- node8&#45;&gt;node10 -->
<g id="edge18" class="edge">
<title>node8&#45;&gt;node10</title>
<path fill="none" stroke="black" d="M286.69,-506.47C267.15,-493.09 240.35,-474.73 219.32,-460.32"/>
<polygon fill="black" stroke="black" points="221.21,-457.38 210.98,-454.62 217.26,-463.15 221.21,-457.38"/>
<text text-anchor="start" x="258" y="-476.8" font-family="Times,serif" font-size="14.00">%8</text>
</g>
<!-- node9&#45;&gt;node10 -->
<g id="edge10" class="edge">
<title>node9&#45;&gt;node10</title>
<path fill="none" stroke="black" d="M186,-653.37C186,-613.31 186,-513.25 186,-464.73"/>
<polygon fill="black" stroke="black" points="189.5,-464.66 186,-454.66 182.5,-464.66 189.5,-464.66"/>
<text text-anchor="start" x="186" y="-566.8" font-family="Times,serif" font-size="14.00">%9</text>
</g>
<!-- node10&#45;&gt;node11 -->
<g id="edge3" class="edge">
<title>node10&#45;&gt;node11</title>
<path fill="none" stroke="black" d="M177.01,-418.17C170.89,-406.37 162.58,-390.33 155.12,-375.94"/>
<polygon fill="black" stroke="black" points="158.08,-374.05 150.37,-366.78 151.86,-377.27 158.08,-374.05"/>
<text text-anchor="start" x="168" y="-388.8" font-family="Times,serif" font-size="14.00">%10</text>
</g>
<!-- node13 -->
<g id="node14" class="node">
<title>node13</title>
<polygon fill="none" stroke="black" points="154,-223.5 154,-261.5 428,-261.5 428,-223.5 154,-223.5"/>
<text text-anchor="start" x="162" y="-246.3" font-family="Times,serif" font-size="14.00">Join %11 %12</text>
<text text-anchor="start" x="162" y="-231.3" font-family="Times,serif" font-size="14.00">&#45; implementation = Unimplemented</text>
</g>
<!-- node11&#45;&gt;node13 -->
<g id="edge1" class="edge">
<title>node11&#45;&gt;node13</title>
<path fill="none" stroke="black" d="M178.27,-313.41C201.55,-298.97 230.43,-281.06 253.13,-266.98"/>
<polygon fill="black" stroke="black" points="255.16,-269.84 261.82,-261.6 251.48,-263.89 255.16,-269.84"/>
<text text-anchor="start" x="228" y="-283.8" font-family="Times,serif" font-size="14.00">%11</text>
</g>
<!-- node12 -->
<g id="node13" class="node">
<title>node12</title>
<polygon fill="none" stroke="black" points="292,-322 292,-358 422,-358 422,-322 292,-322"/>
<text text-anchor="start" x="300" y="-336.3" font-family="Times,serif" font-size="14.00">Constant (false)</text>
</g>
<!-- node12&#45;&gt;node13 -->
<g id="edge11" class="edge">
<title>node12&#45;&gt;node13</title>
<path fill="none" stroke="black" d="M345.2,-321.93C335.22,-307.49 320.76,-286.56 309.29,-269.96"/>
<polygon fill="black" stroke="black" points="312.16,-267.96 303.6,-261.73 306.4,-271.94 312.16,-267.96"/>
<text text-anchor="start" x="326" y="-283.8" font-family="Times,serif" font-size="14.00">%12</text>
</g>
<!-- node13&#45;&gt;node14 -->
<g id="edge7" class="edge">
<title>node13&#45;&gt;node14</title>
<path fill="none" stroke="black" d="M325.19,-223.47C351.14,-209.79 386.94,-190.92 414.52,-176.37"/>
<polygon fill="black" stroke="black" points="416.33,-179.38 423.54,-171.62 413.06,-173.18 416.33,-179.38"/>
<text text-anchor="start" x="389" y="-193.8" font-family="Times,serif" font-size="14.00">%13</text>
</g>
<!-- node14&#45;&gt;node15 -->
<g id="edge4" class="edge">
<title>node14&#45;&gt;node15</title>
<path fill="none" stroke="black" d="M470.69,-135.39C480.89,-123.5 495.04,-107.02 508.56,-91.27"/>
<polygon fill="black" stroke="black" points="511.27,-93.49 515.13,-83.62 505.96,-88.93 511.27,-93.49"/>
<text text-anchor="start" x="497" y="-105.8" font-family="Times,serif" font-size="14.00">%14</text>
</g>
</g>
</svg>
