<?xml version="1.0" encoding="UTF-8" standalone="no"?>
<!DOCTYPE svg PUBLIC "-//W3C//DTD SVG 1.1//EN"
 "http://www.w3.org/Graphics/SVG/1.1/DTD/svg11.dtd">
<!-- Generated by graphviz version 2.43.0 (0)
 -->
<!-- Title: G Pages: 1 -->
<svg width="780pt" height="197pt"
 viewBox="0.00 0.00 780.00 197.00" xmlns="http://www.w3.org/2000/svg" xmlns:xlink="http://www.w3.org/1999/xlink">
<g id="graph0" class="graph" transform="scale(1 1) rotate(0) translate(4 193)">
<title>G</title>
<polygon fill="white" stroke="transparent" points="-4,4 -4,-193 776,-193 776,4 -4,4"/>
<!-- node0 -->
<g id="node1" class="node">
<title>node0</title>
<polygon fill="none" stroke="black" points="0,-129 0,-165 242,-165 242,-129 0,-129"/>
<text text-anchor="start" x="8" y="-143.3" font-family="Times,serif" font-size="14.00">Get optimizer_101.public.a (u9)</text>
</g>
<!-- node3 -->
<g id="node4" class="node">
<title>node3</title>
<polygon fill="none" stroke="black" points="184.5,-0.5 184.5,-53.5 577.5,-53.5 577.5,-0.5 184.5,-0.5"/>
<text text-anchor="start" x="192.5" y="-38.3" font-family="Times,serif" font-size="14.00">Join %0 %1 %2 (= #0 #3 #4)</text>
<text text-anchor="start" x="192.5" y="-23.3" font-family="Times,serif" font-size="14.00">&#45; implementation = Differential %0 %1.(#0) %2.(#0)</text>
<text text-anchor="start" x="192.5" y="-8.3" font-family="Times,serif" font-size="14.00">Project (#0..=#2)</text>
</g>
<!-- node0&#45;&gt;node3 -->
<g id="edge3" class="edge">
<title>node0&#45;&gt;node3</title>
<path fill="none" stroke="black" d="M158.53,-128.97C199.48,-110.38 265.83,-80.27 315.43,-57.76"/>
<polygon fill="black" stroke="black" points="317.14,-60.83 324.8,-53.51 314.24,-54.45 317.14,-60.83"/>
<text text-anchor="start" x="282" y="-75.8" font-family="Times,serif" font-size="14.00">%0</text>
</g>
<!-- node1 -->
<g id="node2" class="node">
<title>node1</title>
<polygon fill="none" stroke="black" points="260,-105.5 260,-188.5 502,-188.5 502,-105.5 260,-105.5"/>
<text text-anchor="start" x="268" y="-173.3" font-family="Times,serif" font-size="14.00">Get optimizer_101.public.a (u9)</text>
<text text-anchor="start" x="268" y="-158.3" font-family="Times,serif" font-size="14.00">Filter !(isnull(#0))</text>
<text text-anchor="start" x="268" y="-143.3" font-family="Times,serif" font-size="14.00">Project (#0)</text>
<text text-anchor="start" x="268" y="-128.3" font-family="Times,serif" font-size="14.00">Distinct group=(#0)</text>
<text text-anchor="start" x="268" y="-113.3" font-family="Times,serif" font-size="14.00">ArrangeBy (#0)</text>
</g>
<!-- node1&#45;&gt;node3 -->
<g id="edge1" class="edge">
<title>node1&#45;&gt;node3</title>
<path fill="none" stroke="black" d="M381,-105.39C381,-91.82 381,-76.8 381,-63.64"/>
<polygon fill="black" stroke="black" points="384.5,-63.54 381,-53.54 377.5,-63.54 384.5,-63.54"/>
<text text-anchor="start" x="381" y="-75.8" font-family="Times,serif" font-size="14.00">%1</text>
</g>
<!-- node2 -->
<g id="node3" class="node">
<title>node2</title>
<polygon fill="none" stroke="black" points="520,-105.5 520,-188.5 772,-188.5 772,-105.5 520,-105.5"/>
<text text-anchor="start" x="528" y="-173.3" font-family="Times,serif" font-size="14.00">Get optimizer_101.public.b (u10)</text>
<text text-anchor="start" x="528" y="-158.3" font-family="Times,serif" font-size="14.00">Filter !(isnull(#0))</text>
<text text-anchor="start" x="528" y="-143.3" font-family="Times,serif" font-size="14.00">Project (#0)</text>
<text text-anchor="start" x="528" y="-128.3" font-family="Times,serif" font-size="14.00">Distinct group=(#0)</text>
<text text-anchor="start" x="528" y="-113.3" font-family="Times,serif" font-size="14.00">ArrangeBy (#0)</text>
</g>
<!-- node2&#45;&gt;node3 -->
<g id="edge2" class="edge">
<title>node2&#45;&gt;node3</title>
<path fill="none" stroke="black" d="M554.8,-105.39C519.65,-89.74 480.18,-72.16 447.75,-57.72"/>
<polygon fill="black" stroke="black" points="448.92,-54.41 438.36,-53.54 446.07,-60.81 448.92,-54.41"/>
<text text-anchor="start" x="514" y="-75.8" font-family="Times,serif" font-size="14.00">%2</text>
</g>
</g>
</svg>
