<?xml version="1.0" encoding="UTF-8" standalone="no"?>
<!DOCTYPE svg PUBLIC "-//W3C//DTD SVG 1.1//EN"
 "http://www.w3.org/Graphics/SVG/1.1/DTD/svg11.dtd">
<!-- Generated by graphviz version 2.43.0 (0)
 -->
<!-- Title: G Pages: 1 -->
<svg width="816pt" height="1691pt"
 viewBox="0.00 0.00 815.50 1691.00" xmlns="http://www.w3.org/2000/svg" xmlns:xlink="http://www.w3.org/1999/xlink">
<g id="graph0" class="graph" transform="scale(1 1) rotate(0) translate(4 1687)">
<title>G</title>
<polygon fill="white" stroke="transparent" points="-4,4 -4,-1687 811.5,-1687 811.5,4 -4,4"/>
<!-- node0 -->
<g id="node1" class="node">
<title>node0</title>
<polygon fill="none" stroke="black" points="377,-1629.5 377,-1682.5 477,-1682.5 477,-1629.5 377,-1629.5"/>
<text text-anchor="start" x="385" y="-1667.3" font-family="Times,serif" font-size="14.00">Constant ()</text>
<text text-anchor="start" x="385" y="-1652.3" font-family="Times,serif" font-size="14.00">&#45; types = ()</text>
<text text-anchor="start" x="385" y="-1637.3" font-family="Times,serif" font-size="14.00">&#45; keys = (())</text>
</g>
<!-- node2 -->
<g id="node3" class="node">
<title>node2</title>
<polygon fill="none" stroke="black" points="388,-1464.5 388,-1577.5 680,-1577.5 680,-1464.5 388,-1464.5"/>
<text text-anchor="start" x="396" y="-1562.3" font-family="Times,serif" font-size="14.00">Join %0 %1</text>
<text text-anchor="start" x="396" y="-1547.3" font-family="Times,serif" font-size="14.00">&#45; implementation = Unimplemented</text>
<text text-anchor="start" x="396" y="-1532.3" font-family="Times,serif" font-size="14.00">&#45; types = (integer?, integer?, integer?)</text>
<text text-anchor="start" x="396" y="-1517.3" font-family="Times,serif" font-size="14.00">&#45; keys = ()</text>
<text text-anchor="start" x="396" y="-1502.3" font-family="Times,serif" font-size="14.00">Filter true</text>
<text text-anchor="start" x="396" y="-1487.3" font-family="Times,serif" font-size="14.00">&#45; types = (integer?, integer?, integer?)</text>
<text text-anchor="start" x="396" y="-1472.3" font-family="Times,serif" font-size="14.00">&#45; keys = ()</text>
</g>
<!-- node0&#45;&gt;node2 -->
<g id="edge12" class="edge">
<title>node0&#45;&gt;node2</title>
<path fill="none" stroke="black" d="M447.63,-1629.36C457.71,-1616.82 470.34,-1601.13 482.8,-1585.64"/>
<polygon fill="black" stroke="black" points="485.75,-1587.56 489.29,-1577.57 480.3,-1583.17 485.75,-1587.56"/>
<text text-anchor="start" x="475" y="-1599.8" font-family="Times,serif" font-size="14.00">%0</text>
</g>
<!-- node1 -->
<g id="node2" class="node">
<title>node1</title>
<polygon fill="none" stroke="black" points="495,-1629.5 495,-1682.5 787,-1682.5 787,-1629.5 495,-1629.5"/>
<text text-anchor="start" x="503" y="-1667.3" font-family="Times,serif" font-size="14.00">Get optimizer_101.public.a (u9)</text>
<text text-anchor="start" x="503" y="-1652.3" font-family="Times,serif" font-size="14.00">&#45; types = (integer?, integer?, integer?)</text>
<text text-anchor="start" x="503" y="-1637.3" font-family="Times,serif" font-size="14.00">&#45; keys = ()</text>
</g>
<!-- node1&#45;&gt;node2 -->
<g id="edge9" class="edge">
<title>node1&#45;&gt;node2</title>
<path fill="none" stroke="black" d="M620.37,-1629.36C610.29,-1616.82 597.66,-1601.13 585.2,-1585.64"/>
<polygon fill="black" stroke="black" points="587.7,-1583.17 578.71,-1577.57 582.25,-1587.56 587.7,-1583.17"/>
<text text-anchor="start" x="603" y="-1599.8" font-family="Times,serif" font-size="14.00">%1</text>
</g>
<!-- node3 -->
<g id="node4" class="node">
<title>node3</title>
<polygon fill="none" stroke="black" points="0,-1329.5 0,-1412.5 292,-1412.5 292,-1329.5 0,-1329.5"/>
<text text-anchor="start" x="8" y="-1397.3" font-family="Times,serif" font-size="14.00">&#45; types = (integer?, integer?, integer?)</text>
<text text-anchor="start" x="8" y="-1382.3" font-family="Times,serif" font-size="14.00">&#45; keys = ()</text>
<text text-anchor="start" x="8" y="-1367.3" font-family="Times,serif" font-size="14.00">Distinct group=(#0)</text>
<text text-anchor="start" x="8" y="-1352.3" font-family="Times,serif" font-size="14.00">&#45; types = (integer?)</text>
<text text-anchor="start" x="8" y="-1337.3" font-family="Times,serif" font-size="14.00">&#45; keys = ((#0))</text>
</g>
<!-- node2&#45;&gt;node3 -->
<g id="edge14" class="edge">
<title>node2&#45;&gt;node3</title>
<path fill="none" stroke="black" d="M388.42,-1464.47C346.61,-1448.52 301.6,-1431.35 261.85,-1416.19"/>
<polygon fill="black" stroke="black" points="262.99,-1412.88 252.4,-1412.58 260.49,-1419.42 262.99,-1412.88"/>
<text text-anchor="start" x="340" y="-1434.8" font-family="Times,serif" font-size="14.00">%2</text>
</g>
<!-- node15 -->
<g id="node16" class="node">
<title>node15</title>
<polygon fill="none" stroke="black" points="382.5,-0.5 382.5,-203.5 807.5,-203.5 807.5,-0.5 382.5,-0.5"/>
<text text-anchor="start" x="390.5" y="-188.3" font-family="Times,serif" font-size="14.00">Join %2 %14 (= #0 #3)</text>
<text text-anchor="start" x="390.5" y="-173.3" font-family="Times,serif" font-size="14.00">&#45; implementation = Unimplemented</text>
<text text-anchor="start" x="390.5" y="-158.3" font-family="Times,serif" font-size="14.00">&#45; types = (integer?, integer?, integer?, integer?, boolean)</text>
<text text-anchor="start" x="390.5" y="-143.3" font-family="Times,serif" font-size="14.00">&#45; keys = ()</text>
<text text-anchor="start" x="390.5" y="-128.3" font-family="Times,serif" font-size="14.00">Project (#0..=#2, #4)</text>
<text text-anchor="start" x="390.5" y="-113.3" font-family="Times,serif" font-size="14.00">&#45; types = (integer?, integer?, integer?, boolean)</text>
<text text-anchor="start" x="390.5" y="-98.3" font-family="Times,serif" font-size="14.00">&#45; keys = ()</text>
<text text-anchor="start" x="390.5" y="-83.3" font-family="Times,serif" font-size="14.00">Filter #3</text>
<text text-anchor="start" x="390.5" y="-68.3" font-family="Times,serif" font-size="14.00">&#45; types = (integer?, integer?, integer?, boolean)</text>
<text text-anchor="start" x="390.5" y="-53.3" font-family="Times,serif" font-size="14.00">&#45; keys = ()</text>
<text text-anchor="start" x="390.5" y="-38.3" font-family="Times,serif" font-size="14.00">Project (#0..=#2)</text>
<text text-anchor="start" x="390.5" y="-23.3" font-family="Times,serif" font-size="14.00">&#45; types = (integer?, integer?, integer?)</text>
<text text-anchor="start" x="390.5" y="-8.3" font-family="Times,serif" font-size="14.00">&#45; keys = ()</text>
</g>
<!-- node2&#45;&gt;node15 -->
<g id="edge2" class="edge">
<title>node2&#45;&gt;node15</title>
<path fill="none" stroke="black" d="M615.59,-1464.45C641.71,-1439.86 664,-1408.25 664,-1372 664,-1372 664,-1372 664,-281 664,-258.34 659.08,-235.08 651.86,-213.16"/>
<polygon fill="black" stroke="black" points="655.1,-211.83 648.52,-203.53 648.49,-214.12 655.1,-211.83"/>
<text text-anchor="start" x="664" y="-720.8" font-family="Times,serif" font-size="14.00">%2</text>
</g>
<!-- node5 -->
<g id="node6" class="node">
<title>node5</title>
<polygon fill="none" stroke="black" points="174,-1119.5 174,-1277.5 466,-1277.5 466,-1119.5 174,-1119.5"/>
<text text-anchor="start" x="182" y="-1262.3" font-family="Times,serif" font-size="14.00">Join %3 %4</text>
<text text-anchor="start" x="182" y="-1247.3" font-family="Times,serif" font-size="14.00">&#45; implementation = Unimplemented</text>
<text text-anchor="start" x="182" y="-1232.3" font-family="Times,serif" font-size="14.00">&#45; types = (integer?, integer?, integer?)</text>
<text text-anchor="start" x="182" y="-1217.3" font-family="Times,serif" font-size="14.00">&#45; keys = ()</text>
<text text-anchor="start" x="182" y="-1202.3" font-family="Times,serif" font-size="14.00">Filter (#1 = #0)</text>
<text text-anchor="start" x="182" y="-1187.3" font-family="Times,serif" font-size="14.00">&#45; types = (integer, integer, integer?)</text>
<text text-anchor="start" x="182" y="-1172.3" font-family="Times,serif" font-size="14.00">&#45; keys = ()</text>
<text text-anchor="start" x="182" y="-1157.3" font-family="Times,serif" font-size="14.00">Distinct group=(#0)</text>
<text text-anchor="start" x="182" y="-1142.3" font-family="Times,serif" font-size="14.00">&#45; types = (integer)</text>
<text text-anchor="start" x="182" y="-1127.3" font-family="Times,serif" font-size="14.00">&#45; keys = ((#0))</text>
</g>
<!-- node3&#45;&gt;node5 -->
<g id="edge8" class="edge">
<title>node3&#45;&gt;node5</title>
<path fill="none" stroke="black" d="M187.68,-1329.16C201.37,-1315.75 217.13,-1300.3 232.9,-1284.85"/>
<polygon fill="black" stroke="black" points="235.45,-1287.25 240.14,-1277.76 230.55,-1282.25 235.45,-1287.25"/>
<text text-anchor="start" x="218" y="-1299.8" font-family="Times,serif" font-size="14.00">%3</text>
</g>
<!-- node9 -->
<g id="node10" class="node">
<title>node9</title>
<polygon fill="none" stroke="black" points="127.5,-1017.5 127.5,-1100.5 290.5,-1100.5 290.5,-1017.5 127.5,-1017.5"/>
<text text-anchor="start" x="135.5" y="-1085.3" font-family="Times,serif" font-size="14.00">&#45; types = (integer?)</text>
<text text-anchor="start" x="135.5" y="-1070.3" font-family="Times,serif" font-size="14.00">&#45; keys = ((#0))</text>
<text text-anchor="start" x="135.5" y="-1055.3" font-family="Times,serif" font-size="14.00">Distinct group=(#0)</text>
<text text-anchor="start" x="135.5" y="-1040.3" font-family="Times,serif" font-size="14.00">&#45; types = (integer?)</text>
<text text-anchor="start" x="135.5" y="-1025.3" font-family="Times,serif" font-size="14.00">&#45; keys = ((#0))</text>
</g>
<!-- node3&#45;&gt;node9 -->
<g id="edge15" class="edge">
<title>node3&#45;&gt;node9</title>
<path fill="none" stroke="black" d="M142.28,-1329.4C139.13,-1278.5 138.65,-1189.4 165,-1119 166.16,-1115.89 167.55,-1112.8 169.09,-1109.76"/>
<polygon fill="black" stroke="black" points="172.27,-1111.26 174.15,-1100.83 166.17,-1107.81 172.27,-1111.26"/>
<text text-anchor="start" x="142" y="-1299.8" font-family="Times,serif" font-size="14.00">%3</text>
</g>
<!-- node11 -->
<g id="node12" class="node">
<title>node11</title>
<polygon fill="none" stroke="black" points="23,-480.5 23,-593.5 297,-593.5 297,-480.5 23,-480.5"/>
<text text-anchor="start" x="31" y="-578.3" font-family="Times,serif" font-size="14.00">Join %10 %3 (= #0 #1)</text>
<text text-anchor="start" x="31" y="-563.3" font-family="Times,serif" font-size="14.00">&#45; implementation = Unimplemented</text>
<text text-anchor="start" x="31" y="-548.3" font-family="Times,serif" font-size="14.00">&#45; types = (integer?, integer?)</text>
<text text-anchor="start" x="31" y="-533.3" font-family="Times,serif" font-size="14.00">&#45; keys = ()</text>
<text text-anchor="start" x="31" y="-518.3" font-family="Times,serif" font-size="14.00">Project (#0)</text>
<text text-anchor="start" x="31" y="-503.3" font-family="Times,serif" font-size="14.00">&#45; types = (integer?)</text>
<text text-anchor="start" x="31" y="-488.3" font-family="Times,serif" font-size="14.00">&#45; keys = ()</text>
</g>
<!-- node3&#45;&gt;node11 -->
<g id="edge17" class="edge">
<title>node3&#45;&gt;node11</title>
<path fill="none" stroke="black" d="M131.63,-1329.22C120.87,-1295.03 108,-1244.69 108,-1199.5 108,-1199.5 108,-1199.5 108,-671 108,-648 114.83,-624.19 123.54,-603.2"/>
<polygon fill="black" stroke="black" points="126.87,-604.32 127.66,-593.76 120.45,-601.53 126.87,-604.32"/>
<text text-anchor="start" x="108" y="-900.8" font-family="Times,serif" font-size="14.00">%3</text>
</g>
<!-- node4 -->
<g id="node5" class="node">
<title>node4</title>
<polygon fill="none" stroke="black" points="310,-1344.5 310,-1397.5 562,-1397.5 562,-1344.5 310,-1344.5"/>
<text text-anchor="start" x="318" y="-1382.3" font-family="Times,serif" font-size="14.00">Get optimizer_101.public.b (u10)</text>
<text text-anchor="start" x="318" y="-1367.3" font-family="Times,serif" font-size="14.00">&#45; types = (integer?, integer?)</text>
<text text-anchor="start" x="318" y="-1352.3" font-family="Times,serif" font-size="14.00">&#45; keys = ()</text>
</g>
<!-- node4&#45;&gt;node5 -->
<g id="edge13" class="edge">
<title>node4&#45;&gt;node5</title>
<path fill="none" stroke="black" d="M418.63,-1344.47C407.92,-1328.73 393.49,-1307.52 378.98,-1286.19"/>
<polygon fill="black" stroke="black" points="381.72,-1284 373.2,-1277.7 375.94,-1287.94 381.72,-1284"/>
<text text-anchor="start" x="396" y="-1299.8" font-family="Times,serif" font-size="14.00">%4</text>
</g>
<!-- node7 -->
<g id="node8" class="node">
<title>node7</title>
<polygon fill="none" stroke="black" points="298,-930.5 298,-998.5 572,-998.5 572,-930.5 298,-930.5"/>
<text text-anchor="start" x="306" y="-983.3" font-family="Times,serif" font-size="14.00">Join %5 %6</text>
<text text-anchor="start" x="306" y="-968.3" font-family="Times,serif" font-size="14.00">&#45; implementation = Unimplemented</text>
<text text-anchor="start" x="306" y="-953.3" font-family="Times,serif" font-size="14.00">&#45; types = (integer, boolean)</text>
<text text-anchor="start" x="306" y="-938.3" font-family="Times,serif" font-size="14.00">&#45; keys = ((#0))</text>
</g>
<!-- node5&#45;&gt;node7 -->
<g id="edge16" class="edge">
<title>node5&#45;&gt;node7</title>
<path fill="none" stroke="black" d="M358.77,-1119.28C377.21,-1082.08 398.53,-1039.07 413.93,-1008.01"/>
<polygon fill="black" stroke="black" points="417.2,-1009.29 418.51,-998.77 410.93,-1006.18 417.2,-1009.29"/>
<text text-anchor="start" x="408" y="-1055.3" font-family="Times,serif" font-size="14.00">%5</text>
</g>
<!-- node6 -->
<g id="node7" class="node">
<title>node6</title>
<polygon fill="none" stroke="black" points="484,-1172 484,-1225 636,-1225 636,-1172 484,-1172"/>
<text text-anchor="start" x="492" y="-1209.8" font-family="Times,serif" font-size="14.00">Constant (true)</text>
<text text-anchor="start" x="492" y="-1194.8" font-family="Times,serif" font-size="14.00">&#45; types = (boolean)</text>
<text text-anchor="start" x="492" y="-1179.8" font-family="Times,serif" font-size="14.00">&#45; keys = (())</text>
</g>
<!-- node6&#45;&gt;node7 -->
<g id="edge19" class="edge">
<title>node6&#45;&gt;node7</title>
<path fill="none" stroke="black" d="M546.15,-1171.79C524.77,-1132.11 483.52,-1055.55 457.73,-1007.68"/>
<polygon fill="black" stroke="black" points="460.77,-1005.94 452.94,-998.8 454.6,-1009.26 460.77,-1005.94"/>
<text text-anchor="start" x="505" y="-1055.3" font-family="Times,serif" font-size="14.00">%6</text>
</g>
<!-- node8 -->
<g id="node9" class="node">
<title>node8</title>
<polygon fill="none" stroke="black" points="253.5,-750.5 253.5,-878.5 464.5,-878.5 464.5,-750.5 253.5,-750.5"/>
<text text-anchor="start" x="261.5" y="-863.3" font-family="Times,serif" font-size="14.00">&#45; types = (integer, boolean)</text>
<text text-anchor="start" x="261.5" y="-848.3" font-family="Times,serif" font-size="14.00">&#45; keys = ((#0))</text>
<text text-anchor="start" x="261.5" y="-833.3" font-family="Times,serif" font-size="14.00">Distinct group=(#0)</text>
<text text-anchor="start" x="261.5" y="-818.3" font-family="Times,serif" font-size="14.00">&#45; types = (integer)</text>
<text text-anchor="start" x="261.5" y="-803.3" font-family="Times,serif" font-size="14.00">&#45; keys = ((#0))</text>
<text text-anchor="start" x="261.5" y="-788.3" font-family="Times,serif" font-size="14.00">Negate</text>
<text text-anchor="start" x="261.5" y="-773.3" font-family="Times,serif" font-size="14.00">&#45; types = (integer)</text>
<text text-anchor="start" x="261.5" y="-758.3" font-family="Times,serif" font-size="14.00">&#45; keys = ()</text>
</g>
<!-- node7&#45;&gt;node8 -->
<g id="edge5" class="edge">
<title>node7&#45;&gt;node8</title>
<path fill="none" stroke="black" d="M417.94,-930.29C411.46,-917.65 403.79,-902.71 396.16,-887.86"/>
<polygon fill="black" stroke="black" points="399.11,-885.94 391.43,-878.65 392.88,-889.14 399.11,-885.94"/>
<text text-anchor="start" x="409" y="-900.8" font-family="Times,serif" font-size="14.00">%7</text>
</g>
<!-- node14 -->
<g id="node15" class="node">
<title>node14</title>
<polygon fill="none" stroke="black" points="403,-255.5 403,-308.5 623,-308.5 623,-255.5 403,-255.5"/>
<text text-anchor="start" x="411" y="-293.3" font-family="Times,serif" font-size="14.00">Union %7 %13</text>
<text text-anchor="start" x="411" y="-278.3" font-family="Times,serif" font-size="14.00">&#45; types = (integer?, boolean)</text>
<text text-anchor="start" x="411" y="-263.3" font-family="Times,serif" font-size="14.00">&#45; keys = ()</text>
</g>
<!-- node7&#45;&gt;node14 -->
<g id="edge6" class="edge">
<title>node7&#45;&gt;node14</title>
<path fill="none" stroke="black" d="M464.49,-930.23C486.58,-901.81 513,-858.78 513,-815.5 513,-815.5 513,-815.5 513,-393.5 513,-368.61 513,-340.56 513,-318.95"/>
<polygon fill="black" stroke="black" points="516.5,-318.9 513,-308.9 509.5,-318.9 516.5,-318.9"/>
<text text-anchor="start" x="513" y="-615.8" font-family="Times,serif" font-size="14.00">%7</text>
</g>
<!-- node10 -->
<g id="node11" class="node">
<title>node10</title>
<polygon fill="none" stroke="black" points="136.5,-645.5 136.5,-698.5 291.5,-698.5 291.5,-645.5 136.5,-645.5"/>
<text text-anchor="start" x="144.5" y="-683.3" font-family="Times,serif" font-size="14.00">Union %8 %9</text>
<text text-anchor="start" x="144.5" y="-668.3" font-family="Times,serif" font-size="14.00">&#45; types = (integer?)</text>
<text text-anchor="start" x="144.5" y="-653.3" font-family="Times,serif" font-size="14.00">&#45; keys = ()</text>
</g>
<!-- node8&#45;&gt;node10 -->
<g id="edge18" class="edge">
<title>node8&#45;&gt;node10</title>
<path fill="none" stroke="black" d="M293.71,-750.24C277.86,-734.87 261.53,-719.06 247.82,-705.77"/>
<polygon fill="black" stroke="black" points="250.11,-703.12 240.49,-698.67 245.24,-708.14 250.11,-703.12"/>
<text text-anchor="start" x="274" y="-720.8" font-family="Times,serif" font-size="14.00">%8</text>
</g>
<!-- node9&#45;&gt;node10 -->
<g id="edge10" class="edge">
<title>node9&#45;&gt;node10</title>
<path fill="none" stroke="black" d="M209.53,-1017.16C210.51,-941.51 212.6,-780.74 213.53,-708.94"/>
<polygon fill="black" stroke="black" points="217.04,-708.65 213.67,-698.61 210.04,-708.56 217.04,-708.65"/>
<text text-anchor="start" x="212" y="-900.8" font-family="Times,serif" font-size="14.00">%9</text>
</g>
<!-- node10&#45;&gt;node11 -->
<g id="edge3" class="edge">
<title>node10&#45;&gt;node11</title>
<path fill="none" stroke="black" d="M203.59,-645.36C198.64,-633.17 192.48,-617.99 186.36,-602.92"/>
<polygon fill="black" stroke="black" points="189.57,-601.52 182.56,-593.57 183.08,-604.16 189.57,-601.52"/>
<text text-anchor="start" x="195" y="-615.8" font-family="Times,serif" font-size="14.00">%10</text>
</g>
<!-- node13 -->
<g id="node14" class="node">
<title>node13</title>
<polygon fill="none" stroke="black" points="211,-360.5 211,-428.5 485,-428.5 485,-360.5 211,-360.5"/>
<text text-anchor="start" x="219" y="-413.3" font-family="Times,serif" font-size="14.00">Join %11 %12</text>
<text text-anchor="start" x="219" y="-398.3" font-family="Times,serif" font-size="14.00">&#45; implementation = Unimplemented</text>
<text text-anchor="start" x="219" y="-383.3" font-family="Times,serif" font-size="14.00">&#45; types = (integer?, boolean)</text>
<text text-anchor="start" x="219" y="-368.3" font-family="Times,serif" font-size="14.00">&#45; keys = ()</text>
</g>
<!-- node11&#45;&gt;node13 -->
<g id="edge1" class="edge">
<title>node11&#45;&gt;node13</title>
<path fill="none" stroke="black" d="M234.3,-480.47C254.78,-465.17 276.56,-448.89 295.51,-434.72"/>
<polygon fill="black" stroke="black" points="297.82,-437.37 303.73,-428.58 293.63,-431.77 297.82,-437.37"/>
<text text-anchor="start" x="277" y="-450.8" font-family="Times,serif" font-size="14.00">%11</text>
</g>
<!-- node12 -->
<g id="node13" class="node">
<title>node12</title>
<polygon fill="none" stroke="black" points="315,-510.5 315,-563.5 467,-563.5 467,-510.5 315,-510.5"/>
<text text-anchor="start" x="323" y="-548.3" font-family="Times,serif" font-size="14.00">Constant (false)</text>
<text text-anchor="start" x="323" y="-533.3" font-family="Times,serif" font-size="14.00">&#45; types = (boolean)</text>
<text text-anchor="start" x="323" y="-518.3" font-family="Times,serif" font-size="14.00">&#45; keys = (())</text>
</g>
<!-- node12&#45;&gt;node13 -->
<g id="edge11" class="edge">
<title>node12&#45;&gt;node13</title>
<path fill="none" stroke="black" d="M383.11,-510.23C376.96,-490.13 368.28,-461.77 361.09,-438.28"/>
<polygon fill="black" stroke="black" points="364.39,-437.08 358.11,-428.55 357.69,-439.13 364.39,-437.08"/>
<text text-anchor="start" x="369" y="-450.8" font-family="Times,serif" font-size="14.00">%12</text>
</g>
<!-- node13&#45;&gt;node14 -->
<g id="edge7" class="edge">
<title>node13&#45;&gt;node14</title>
<path fill="none" stroke="black" d="M397.51,-360.35C419.38,-345.7 444.95,-328.57 466.47,-314.16"/>
<polygon fill="black" stroke="black" points="468.45,-317.05 474.81,-308.58 464.55,-311.23 468.45,-317.05"/>
<text text-anchor="start" x="446" y="-330.8" font-family="Times,serif" font-size="14.00">%13</text>
</g>
<!-- node14&#45;&gt;node15 -->
<g id="edge4" class="edge">
<title>node14&#45;&gt;node15</title>
<path fill="none" stroke="black" d="M524.75,-255.5C530.15,-243.76 536.97,-228.96 544.23,-213.22"/>
<polygon fill="black" stroke="black" points="547.53,-214.4 548.54,-203.85 541.18,-211.47 547.53,-214.4"/>
<text text-anchor="start" x="540" y="-225.8" font-family="Times,serif" font-size="14.00">%14</text>
</g>
</g>
</svg>
