<?xml version="1.0" encoding="UTF-8" standalone="no"?>
<!DOCTYPE svg PUBLIC "-//W3C//DTD SVG 1.1//EN"
 "http://www.w3.org/Graphics/SVG/1.1/DTD/svg11.dtd">
<!-- Generated by graphviz version 2.43.0 (0)
 -->
<!-- Title: G Pages: 1 -->
<svg width="880pt" height="407pt"
 viewBox="0.00 0.00 880.00 407.00" xmlns="http://www.w3.org/2000/svg" xmlns:xlink="http://www.w3.org/1999/xlink">
<g id="graph0" class="graph" transform="scale(1 1) rotate(0) translate(4 403)">
<title>G</title>
<polygon fill="white" stroke="transparent" points="-4,4 -4,-403 876,-403 876,4 -4,4"/>
<!-- node0 -->
<g id="node1" class="node">
<title>node0</title>
<polygon fill="none" stroke="black" points="0,-255.5 0,-308.5 292,-308.5 292,-255.5 0,-255.5"/>
<text text-anchor="start" x="8" y="-293.3" font-family="Times,serif" font-size="14.00">Get optimizer_101.public.a (u9)</text>
<text text-anchor="start" x="8" y="-278.3" font-family="Times,serif" font-size="14.00">&#45; types = (integer?, integer?, integer?)</text>
<text text-anchor="start" x="8" y="-263.3" font-family="Times,serif" font-size="14.00">&#45; keys = ()</text>
</g>
<!-- node3 -->
<g id="node4" class="node">
<title>node3</title>
<polygon fill="none" stroke="black" points="250,-0.5 250,-113.5 662,-113.5 662,-0.5 250,-0.5"/>
<text text-anchor="start" x="258" y="-98.3" font-family="Times,serif" font-size="14.00">Join %0 %1 %2 (= #0 #3 #4)</text>
<text text-anchor="start" x="258" y="-83.3" font-family="Times,serif" font-size="14.00">&#45; implementation = Differential %0 %1.(#0) %2.(#0)</text>
<text text-anchor="start" x="258" y="-68.3" font-family="Times,serif" font-size="14.00">&#45; types = (integer?, integer?, integer?, integer, integer)</text>
<text text-anchor="start" x="258" y="-53.3" font-family="Times,serif" font-size="14.00">&#45; keys = ()</text>
<text text-anchor="start" x="258" y="-38.3" font-family="Times,serif" font-size="14.00">Project (#0..=#2)</text>
<text text-anchor="start" x="258" y="-23.3" font-family="Times,serif" font-size="14.00">&#45; types = (integer?, integer?, integer?)</text>
<text text-anchor="start" x="258" y="-8.3" font-family="Times,serif" font-size="14.00">&#45; keys = ()</text>
</g>
<!-- node0&#45;&gt;node3 -->
<g id="edge3" class="edge">
<title>node0&#45;&gt;node3</title>
<path fill="none" stroke="black" d="M179.59,-255.28C210.8,-231.52 258.7,-195.41 301,-165 321.86,-150 344.52,-134.13 365.9,-119.34"/>
<polygon fill="black" stroke="black" points="368.1,-122.07 374.34,-113.51 364.12,-116.31 368.1,-122.07"/>
<text text-anchor="start" x="348" y="-135.8" font-family="Times,serif" font-size="14.00">%0</text>
</g>
<!-- node1 -->
<g id="node2" class="node">
<title>node1</title>
<polygon fill="none" stroke="black" points="310,-165.5 310,-398.5 602,-398.5 602,-165.5 310,-165.5"/>
<text text-anchor="start" x="318" y="-383.3" font-family="Times,serif" font-size="14.00">Get optimizer_101.public.a (u9)</text>
<text text-anchor="start" x="318" y="-368.3" font-family="Times,serif" font-size="14.00">&#45; types = (integer?, integer?, integer?)</text>
<text text-anchor="start" x="318" y="-353.3" font-family="Times,serif" font-size="14.00">&#45; keys = ()</text>
<text text-anchor="start" x="318" y="-338.3" font-family="Times,serif" font-size="14.00">Filter !(isnull(#0))</text>
<text text-anchor="start" x="318" y="-323.3" font-family="Times,serif" font-size="14.00">&#45; types = (integer, integer?, integer?)</text>
<text text-anchor="start" x="318" y="-308.3" font-family="Times,serif" font-size="14.00">&#45; keys = ()</text>
<text text-anchor="start" x="318" y="-293.3" font-family="Times,serif" font-size="14.00">Project (#0)</text>
<text text-anchor="start" x="318" y="-278.3" font-family="Times,serif" font-size="14.00">&#45; types = (integer)</text>
<text text-anchor="start" x="318" y="-263.3" font-family="Times,serif" font-size="14.00">&#45; keys = ()</text>
<text text-anchor="start" x="318" y="-248.3" font-family="Times,serif" font-size="14.00">Distinct group=(#0)</text>
<text text-anchor="start" x="318" y="-233.3" font-family="Times,serif" font-size="14.00">&#45; types = (integer)</text>
<text text-anchor="start" x="318" y="-218.3" font-family="Times,serif" font-size="14.00">&#45; keys = ((#0))</text>
<text text-anchor="start" x="318" y="-203.3" font-family="Times,serif" font-size="14.00">ArrangeBy (#0)</text>
<text text-anchor="start" x="318" y="-188.3" font-family="Times,serif" font-size="14.00">&#45; types = (integer)</text>
<text text-anchor="start" x="318" y="-173.3" font-family="Times,serif" font-size="14.00">&#45; keys = ((#0))</text>
</g>
<!-- node1&#45;&gt;node3 -->
<g id="edge1" class="edge">
<title>node1&#45;&gt;node3</title>
<path fill="none" stroke="black" d="M456,-165.25C456,-151.03 456,-136.89 456,-123.78"/>
<polygon fill="black" stroke="black" points="459.5,-123.5 456,-113.5 452.5,-123.5 459.5,-123.5"/>
<text text-anchor="start" x="456" y="-135.8" font-family="Times,serif" font-size="14.00">%1</text>
</g>
<!-- node2 -->
<g id="node3" class="node">
<title>node2</title>
<polygon fill="none" stroke="black" points="620,-165.5 620,-398.5 872,-398.5 872,-165.5 620,-165.5"/>
<text text-anchor="start" x="628" y="-383.3" font-family="Times,serif" font-size="14.00">Get optimizer_101.public.b (u10)</text>
<text text-anchor="start" x="628" y="-368.3" font-family="Times,serif" font-size="14.00">&#45; types = (integer?, integer?)</text>
<text text-anchor="start" x="628" y="-353.3" font-family="Times,serif" font-size="14.00">&#45; keys = ()</text>
<text text-anchor="start" x="628" y="-338.3" font-family="Times,serif" font-size="14.00">Filter !(isnull(#0))</text>
<text text-anchor="start" x="628" y="-323.3" font-family="Times,serif" font-size="14.00">&#45; types = (integer, integer?)</text>
<text text-anchor="start" x="628" y="-308.3" font-family="Times,serif" font-size="14.00">&#45; keys = ()</text>
<text text-anchor="start" x="628" y="-293.3" font-family="Times,serif" font-size="14.00">Project (#0)</text>
<text text-anchor="start" x="628" y="-278.3" font-family="Times,serif" font-size="14.00">&#45; types = (integer)</text>
<text text-anchor="start" x="628" y="-263.3" font-family="Times,serif" font-size="14.00">&#45; keys = ()</text>
<text text-anchor="start" x="628" y="-248.3" font-family="Times,serif" font-size="14.00">Distinct group=(#0)</text>
<text text-anchor="start" x="628" y="-233.3" font-family="Times,serif" font-size="14.00">&#45; types = (integer)</text>
<text text-anchor="start" x="628" y="-218.3" font-family="Times,serif" font-size="14.00">&#45; keys = ((#0))</text>
<text text-anchor="start" x="628" y="-203.3" font-family="Times,serif" font-size="14.00">ArrangeBy (#0)</text>
<text text-anchor="start" x="628" y="-188.3" font-family="Times,serif" font-size="14.00">&#45; types = (integer)</text>
<text text-anchor="start" x="628" y="-173.3" font-family="Times,serif" font-size="14.00">&#45; keys = ((#0))</text>
</g>
<!-- node2&#45;&gt;node3 -->
<g id="edge2" class="edge">
<title>node2&#45;&gt;node3</title>
<path fill="none" stroke="black" d="M619.86,-171.91C616.89,-169.57 613.94,-167.26 611,-165 591.11,-149.66 569.21,-133.9 548.29,-119.34"/>
<polygon fill="black" stroke="black" points="550.23,-116.43 540.01,-113.61 546.24,-122.18 550.23,-116.43"/>
<text text-anchor="start" x="587" y="-135.8" font-family="Times,serif" font-size="14.00">%2</text>
</g>
</g>
</svg>
