<?xml version="1.0" encoding="UTF-8" standalone="no"?>
<!DOCTYPE svg PUBLIC "-//W3C//DTD SVG 1.1//EN"
 "http://www.w3.org/Graphics/SVG/1.1/DTD/svg11.dtd">
<!-- Generated by graphviz version 2.43.0 (0)
 -->
<!-- Title: G Pages: 1 -->
<svg width="887pt" height="1395pt"
 viewBox="0.00 0.00 886.50 1395.00" xmlns="http://www.w3.org/2000/svg" xmlns:xlink="http://www.w3.org/1999/xlink">
<g id="graph0" class="graph" transform="scale(1 1) rotate(0) translate(4 1391)">
<title>G</title>
<polygon fill="white" stroke="transparent" points="-4,4 -4,-1391 882.5,-1391 882.5,4 -4,4"/>
<!-- node0 -->
<g id="node1" class="node">
<title>node0</title>
<polygon fill="none" stroke="black" points="272,-1348.5 272,-1386.5 373,-1386.5 373,-1348.5 272,-1348.5"/>
<text text-anchor="start" x="280" y="-1371.3" font-family="Times,serif" font-size="14.00">Let l0 =</text>
<text text-anchor="start" x="280" y="-1356.3" font-family="Times,serif" font-size="14.00"> Constant ()</text>
</g>
<!-- node2 -->
<g id="node3" class="node">
<title>node2</title>
<polygon fill="none" stroke="black" points="188,-1243.5 188,-1296.5 457,-1296.5 457,-1243.5 188,-1243.5"/>
<text text-anchor="start" x="196" y="-1281.3" font-family="Times,serif" font-size="14.00">Let l1 =</text>
<text text-anchor="start" x="196" y="-1266.3" font-family="Times,serif" font-size="14.00"> Join %0 %1</text>
<text text-anchor="start" x="196" y="-1251.3" font-family="Times,serif" font-size="14.00"> implementation = Unimplemented</text>
</g>
<!-- node0&#45;&gt;node2 -->
<g id="edge21" class="edge">
<title>node0&#45;&gt;node2</title>
<path fill="none" stroke="black" d="M322.5,-1348.09C322.5,-1336.42 322.5,-1320.95 322.5,-1306.93"/>
<polygon fill="black" stroke="black" points="326,-1306.58 322.5,-1296.58 319,-1306.58 326,-1306.58"/>
<text text-anchor="start" x="322.5" y="-1318.8" font-family="Times,serif" font-size="14.00">%0</text>
</g>
<!-- node4 -->
<g id="node5" class="node">
<title>node4</title>
<polygon fill="none" stroke="black" points="484,-1243.5 484,-1296.5 753,-1296.5 753,-1243.5 484,-1243.5"/>
<text text-anchor="start" x="492" y="-1281.3" font-family="Times,serif" font-size="14.00">Let l2 =</text>
<text text-anchor="start" x="492" y="-1266.3" font-family="Times,serif" font-size="14.00"> Join %0 %3</text>
<text text-anchor="start" x="492" y="-1251.3" font-family="Times,serif" font-size="14.00"> implementation = Unimplemented</text>
</g>
<!-- node0&#45;&gt;node4 -->
<g id="edge12" class="edge">
<title>node0&#45;&gt;node4</title>
<path fill="none" stroke="black" d="M373.05,-1350.19C415.94,-1336.35 478.49,-1316.17 529.71,-1299.65"/>
<polygon fill="black" stroke="black" points="531.02,-1302.9 539.46,-1296.5 528.87,-1296.24 531.02,-1302.9"/>
<text text-anchor="start" x="478.5" y="-1318.8" font-family="Times,serif" font-size="14.00">%0</text>
</g>
<!-- node14 -->
<g id="node15" class="node">
<title>node14</title>
<polygon fill="none" stroke="black" points="156,-570.5 156,-623.5 425,-623.5 425,-570.5 156,-570.5"/>
<text text-anchor="start" x="164" y="-608.3" font-family="Times,serif" font-size="14.00">Let l6 =</text>
<text text-anchor="start" x="164" y="-593.3" font-family="Times,serif" font-size="14.00"> Join %0 %13</text>
<text text-anchor="start" x="164" y="-578.3" font-family="Times,serif" font-size="14.00"> implementation = Unimplemented</text>
</g>
<!-- node0&#45;&gt;node14 -->
<g id="edge16" class="edge">
<title>node0&#45;&gt;node14</title>
<path fill="none" stroke="black" d="M271.88,-1350.44C218.64,-1331.99 142.5,-1300.45 142.5,-1271 142.5,-1271 142.5,-1271 142.5,-692.5 142.5,-663.19 163.37,-642.57 189.44,-628.24"/>
<polygon fill="black" stroke="black" points="191.15,-631.3 198.45,-623.62 187.96,-625.07 191.15,-631.3"/>
<text text-anchor="start" x="142.5" y="-958.8" font-family="Times,serif" font-size="14.00">%0</text>
</g>
<!-- node1 -->
<g id="node2" class="node">
<title>node1</title>
<polygon fill="none" stroke="black" points="0,-1349.5 0,-1385.5 209,-1385.5 209,-1349.5 0,-1349.5"/>
<text text-anchor="start" x="8" y="-1363.8" font-family="Times,serif" font-size="14.00">Get rej_nulls.public.r (u43)</text>
</g>
<!-- node1&#45;&gt;node2 -->
<g id="edge11" class="edge">
<title>node1&#45;&gt;node2</title>
<path fill="none" stroke="black" d="M143.47,-1349.43C174.28,-1335.93 218.02,-1316.77 254.56,-1300.76"/>
<polygon fill="black" stroke="black" points="256.41,-1303.77 264.17,-1296.55 253.6,-1297.36 256.41,-1303.77"/>
<text text-anchor="start" x="220.5" y="-1318.8" font-family="Times,serif" font-size="14.00">%1</text>
</g>
<!-- node5 -->
<g id="node6" class="node">
<title>node5</title>
<polygon fill="none" stroke="black" points="404,-1108.5 404,-1191.5 673,-1191.5 673,-1108.5 404,-1108.5"/>
<text text-anchor="start" x="412" y="-1176.3" font-family="Times,serif" font-size="14.00">Let l3 =</text>
<text text-anchor="start" x="412" y="-1161.3" font-family="Times,serif" font-size="14.00"> Join %2 %4</text>
<text text-anchor="start" x="412" y="-1146.3" font-family="Times,serif" font-size="14.00"> implementation = Unimplemented</text>
<text text-anchor="start" x="412" y="-1131.3" font-family="Times,serif" font-size="14.00"> Project (#0..#3)</text>
<text text-anchor="start" x="412" y="-1116.3" font-family="Times,serif" font-size="14.00"> Filter (#1 = #2)</text>
</g>
<!-- node2&#45;&gt;node5 -->
<g id="edge20" class="edge">
<title>node2&#45;&gt;node5</title>
<path fill="none" stroke="black" d="M369.37,-1243.4C394.44,-1229.7 426.07,-1212.42 455.18,-1196.52"/>
<polygon fill="black" stroke="black" points="457.02,-1199.5 464.12,-1191.63 453.67,-1193.36 457.02,-1199.5"/>
<text text-anchor="start" x="430.5" y="-1213.8" font-family="Times,serif" font-size="14.00">%2</text>
</g>
<!-- node9 -->
<g id="node10" class="node">
<title>node9</title>
<polygon fill="none" stroke="black" points="211,-868.5 211,-936.5 480,-936.5 480,-868.5 211,-868.5"/>
<text text-anchor="start" x="219" y="-921.3" font-family="Times,serif" font-size="14.00">Join %2 %6 (= #1 #2)</text>
<text text-anchor="start" x="219" y="-906.3" font-family="Times,serif" font-size="14.00"> implementation = Unimplemented</text>
<text text-anchor="start" x="219" y="-891.3" font-family="Times,serif" font-size="14.00"> Project (#0, #1)</text>
<text text-anchor="start" x="219" y="-876.3" font-family="Times,serif" font-size="14.00"> Negate</text>
</g>
<!-- node2&#45;&gt;node9 -->
<g id="edge4" class="edge">
<title>node2&#45;&gt;node9</title>
<path fill="none" stroke="black" d="M324.12,-1243.3C328.01,-1181.45 337.93,-1023.79 342.77,-946.94"/>
<polygon fill="black" stroke="black" points="346.28,-946.85 343.41,-936.65 339.29,-946.41 346.28,-946.85"/>
<text text-anchor="start" x="334.5" y="-1078.8" font-family="Times,serif" font-size="14.00">%2</text>
</g>
<!-- node10 -->
<g id="node11" class="node">
<title>node10</title>
<polygon fill="none" stroke="black" points="285.5,-771 285.5,-809 405.5,-809 405.5,-771 285.5,-771"/>
<text text-anchor="start" x="293.5" y="-793.8" font-family="Times,serif" font-size="14.00">Union %9 %2</text>
<text text-anchor="start" x="293.5" y="-778.8" font-family="Times,serif" font-size="14.00"> Map null, null</text>
</g>
<!-- node2&#45;&gt;node10 -->
<g id="edge9" class="edge">
<title>node2&#45;&gt;node10</title>
<path fill="none" stroke="black" d="M301.26,-1243.31C249.16,-1176.97 124.68,-996.18 201.5,-868 217.87,-840.69 247.59,-822.52 275.79,-810.73"/>
<polygon fill="black" stroke="black" points="277.27,-813.91 285.28,-806.97 274.69,-807.4 277.27,-813.91"/>
<text text-anchor="start" x="195.5" y="-1018.8" font-family="Times,serif" font-size="14.00">%2</text>
</g>
<!-- node3 -->
<g id="node4" class="node">
<title>node3</title>
<polygon fill="none" stroke="black" points="514,-1349.5 514,-1385.5 723,-1385.5 723,-1349.5 514,-1349.5"/>
<text text-anchor="start" x="522" y="-1363.8" font-family="Times,serif" font-size="14.00">Get rej_nulls.public.s (u45)</text>
</g>
<!-- node3&#45;&gt;node4 -->
<g id="edge22" class="edge">
<title>node3&#45;&gt;node4</title>
<path fill="none" stroke="black" d="M618.5,-1349.43C618.5,-1337.6 618.5,-1321.41 618.5,-1306.82"/>
<polygon fill="black" stroke="black" points="622,-1306.55 618.5,-1296.55 615,-1306.56 622,-1306.55"/>
<text text-anchor="start" x="618.5" y="-1318.8" font-family="Times,serif" font-size="14.00">%3</text>
</g>
<!-- node4&#45;&gt;node5 -->
<g id="edge10" class="edge">
<title>node4&#45;&gt;node5</title>
<path fill="none" stroke="black" d="M601.14,-1243.4C592.61,-1230.82 582.04,-1215.22 572.02,-1200.44"/>
<polygon fill="black" stroke="black" points="574.71,-1198.18 566.2,-1191.86 568.92,-1202.11 574.71,-1198.18"/>
<text text-anchor="start" x="587.5" y="-1213.8" font-family="Times,serif" font-size="14.00">%4</text>
</g>
<!-- node7 -->
<g id="node8" class="node">
<title>node7</title>
<polygon fill="none" stroke="black" points="558,-868.5 558,-936.5 827,-936.5 827,-868.5 558,-868.5"/>
<text text-anchor="start" x="566" y="-921.3" font-family="Times,serif" font-size="14.00">Join %4 %6 (= #0 #2)</text>
<text text-anchor="start" x="566" y="-906.3" font-family="Times,serif" font-size="14.00"> implementation = Unimplemented</text>
<text text-anchor="start" x="566" y="-891.3" font-family="Times,serif" font-size="14.00"> Project (#0, #1)</text>
<text text-anchor="start" x="566" y="-876.3" font-family="Times,serif" font-size="14.00"> Negate</text>
</g>
<!-- node4&#45;&gt;node7 -->
<g id="edge13" class="edge">
<title>node4&#45;&gt;node7</title>
<path fill="none" stroke="black" d="M644.64,-1243.22C657.64,-1229.14 672.63,-1210.77 682.5,-1192 711.5,-1136.83 711.98,-1118.75 720.5,-1057 724.69,-1026.62 725.39,-1018.28 720.5,-988 718.26,-974.14 714.09,-959.48 709.63,-946.32"/>
<polygon fill="black" stroke="black" points="712.83,-944.86 706.2,-936.6 706.23,-947.19 712.83,-944.86"/>
<text text-anchor="start" x="717.5" y="-1078.8" font-family="Times,serif" font-size="14.00">%4</text>
</g>
<!-- node8 -->
<g id="node9" class="node">
<title>node8</title>
<polygon fill="none" stroke="black" points="593.5,-763.5 593.5,-816.5 791.5,-816.5 791.5,-763.5 593.5,-763.5"/>
<text text-anchor="start" x="601.5" y="-801.3" font-family="Times,serif" font-size="14.00">Union %7 %4</text>
<text text-anchor="start" x="601.5" y="-786.3" font-family="Times,serif" font-size="14.00"> Map null, null</text>
<text text-anchor="start" x="601.5" y="-771.3" font-family="Times,serif" font-size="14.00"> Project (#2, #3, #0, #1)</text>
</g>
<!-- node4&#45;&gt;node8 -->
<g id="edge26" class="edge">
<title>node4&#45;&gt;node8</title>
<path fill="none" stroke="black" d="M753.27,-1249.67C806.63,-1233.67 855.5,-1204.43 855.5,-1151 855.5,-1151 855.5,-1151 855.5,-901.5 855.5,-863.84 825.32,-838.13 790.93,-821.06"/>
<polygon fill="black" stroke="black" points="792.17,-817.77 781.63,-816.69 789.19,-824.11 792.17,-817.77"/>
<text text-anchor="start" x="855.5" y="-1018.8" font-family="Times,serif" font-size="14.00">%4</text>
</g>
<!-- node6 -->
<g id="node7" class="node">
<title>node6</title>
<polygon fill="none" stroke="black" points="544,-988.5 544,-1056.5 711,-1056.5 711,-988.5 544,-988.5"/>
<text text-anchor="start" x="552" y="-1041.3" font-family="Times,serif" font-size="14.00">Let l4 =</text>
<text text-anchor="start" x="552" y="-1026.3" font-family="Times,serif" font-size="14.00"> Get %5 (l3)</text>
<text text-anchor="start" x="552" y="-1011.3" font-family="Times,serif" font-size="14.00"> Project (#1)</text>
<text text-anchor="start" x="552" y="-996.3" font-family="Times,serif" font-size="14.00"> Distinct group=(#0)</text>
</g>
<!-- node5&#45;&gt;node6 -->
<g id="edge15" class="edge">
<title>node5&#45;&gt;node6</title>
<path fill="none" stroke="black" d="M567.4,-1108.25C577.23,-1094.38 588.23,-1078.87 598.11,-1064.95"/>
<polygon fill="black" stroke="black" points="601.16,-1066.7 604.09,-1056.51 595.45,-1062.65 601.16,-1066.7"/>
<text text-anchor="start" x="590.5" y="-1078.8" font-family="Times,serif" font-size="14.00">%5</text>
</g>
<!-- node11 -->
<g id="node12" class="node">
<title>node11</title>
<polygon fill="none" stroke="black" points="453.5,-675.5 453.5,-711.5 575.5,-711.5 575.5,-675.5 453.5,-675.5"/>
<text text-anchor="start" x="461.5" y="-689.8" font-family="Times,serif" font-size="14.00">Union %10 %5</text>
</g>
<!-- node5&#45;&gt;node11 -->
<g id="edge5" class="edge">
<title>node5&#45;&gt;node11</title>
<path fill="none" stroke="black" d="M527.69,-1108.34C522.13,-1083.92 516.5,-1052.15 516.5,-1023.5 516.5,-1023.5 516.5,-1023.5 516.5,-789 516.5,-766.37 515.92,-740.69 515.38,-721.82"/>
<polygon fill="black" stroke="black" points="518.87,-721.46 515.08,-711.57 511.88,-721.67 518.87,-721.46"/>
<text text-anchor="start" x="516.5" y="-898.8" font-family="Times,serif" font-size="14.00">%5</text>
</g>
<!-- node6&#45;&gt;node7 -->
<g id="edge19" class="edge">
<title>node6&#45;&gt;node7</title>
<path fill="none" stroke="black" d="M645.78,-988.32C653.05,-975.12 661.5,-959.78 669.2,-945.8"/>
<polygon fill="black" stroke="black" points="672.37,-947.29 674.13,-936.84 666.24,-943.91 672.37,-947.29"/>
<text text-anchor="start" x="663.5" y="-958.8" font-family="Times,serif" font-size="14.00">%6</text>
</g>
<!-- node6&#45;&gt;node9 -->
<g id="edge29" class="edge">
<title>node6&#45;&gt;node9</title>
<path fill="none" stroke="black" d="M548.57,-988.47C512.97,-973.58 470.78,-955.92 434.1,-940.57"/>
<polygon fill="black" stroke="black" points="434.98,-937.15 424.41,-936.52 432.28,-943.61 434.98,-937.15"/>
<text text-anchor="start" x="502.5" y="-958.8" font-family="Times,serif" font-size="14.00">%6</text>
</g>
<!-- node7&#45;&gt;node8 -->
<g id="edge23" class="edge">
<title>node7&#45;&gt;node8</title>
<path fill="none" stroke="black" d="M692.5,-868.35C692.5,-855.3 692.5,-840.3 692.5,-826.99"/>
<polygon fill="black" stroke="black" points="696,-826.75 692.5,-816.75 689,-826.75 696,-826.75"/>
<text text-anchor="start" x="692.5" y="-838.8" font-family="Times,serif" font-size="14.00">%7</text>
</g>
<!-- node12 -->
<g id="node13" class="node">
<title>node12</title>
<polygon fill="none" stroke="black" points="451,-578 451,-616 578,-616 578,-578 451,-578"/>
<text text-anchor="start" x="459" y="-600.8" font-family="Times,serif" font-size="14.00">Let l5 =</text>
<text text-anchor="start" x="459" y="-585.8" font-family="Times,serif" font-size="14.00"> Union %8 %11</text>
</g>
<!-- node8&#45;&gt;node12 -->
<g id="edge7" class="edge">
<title>node8&#45;&gt;node12</title>
<path fill="none" stroke="black" d="M668.49,-763.24C634.53,-726.79 572.79,-660.55 538.71,-623.98"/>
<polygon fill="black" stroke="black" points="540.86,-621.15 531.48,-616.22 535.74,-625.92 540.86,-621.15"/>
<text text-anchor="start" x="617.5" y="-689.8" font-family="Times,serif" font-size="14.00">%8</text>
</g>
<!-- node9&#45;&gt;node10 -->
<g id="edge6" class="edge">
<title>node9&#45;&gt;node10</title>
<path fill="none" stroke="black" d="M345.5,-868.35C345.5,-852.69 345.5,-834.21 345.5,-819.23"/>
<polygon fill="black" stroke="black" points="349,-819.04 345.5,-809.04 342,-819.04 349,-819.04"/>
<text text-anchor="start" x="345.5" y="-838.8" font-family="Times,serif" font-size="14.00">%9</text>
</g>
<!-- node10&#45;&gt;node11 -->
<g id="edge24" class="edge">
<title>node10&#45;&gt;node11</title>
<path fill="none" stroke="black" d="M378.08,-770.78C405.81,-755.27 445.72,-732.96 475.21,-716.47"/>
<polygon fill="black" stroke="black" points="476.99,-719.49 484.01,-711.55 473.57,-713.38 476.99,-719.49"/>
<text text-anchor="start" x="449.5" y="-733.8" font-family="Times,serif" font-size="14.00">%10</text>
</g>
<!-- node11&#45;&gt;node12 -->
<g id="edge30" class="edge">
<title>node11&#45;&gt;node12</title>
<path fill="none" stroke="black" d="M514.5,-675.17C514.5,-661.57 514.5,-642.37 514.5,-626.52"/>
<polygon fill="black" stroke="black" points="518,-626.19 514.5,-616.19 511,-626.19 518,-626.19"/>
<text text-anchor="start" x="514.5" y="-645.8" font-family="Times,serif" font-size="14.00">%11</text>
</g>
<!-- node15 -->
<g id="node16" class="node">
<title>node15</title>
<polygon fill="none" stroke="black" points="356,-435.5 356,-518.5 625,-518.5 625,-435.5 356,-435.5"/>
<text text-anchor="start" x="364" y="-503.3" font-family="Times,serif" font-size="14.00">Let l7 =</text>
<text text-anchor="start" x="364" y="-488.3" font-family="Times,serif" font-size="14.00"> Join %12 %14</text>
<text text-anchor="start" x="364" y="-473.3" font-family="Times,serif" font-size="14.00"> implementation = Unimplemented</text>
<text text-anchor="start" x="364" y="-458.3" font-family="Times,serif" font-size="14.00"> Project (#0..#5)</text>
<text text-anchor="start" x="364" y="-443.3" font-family="Times,serif" font-size="14.00"> Filter (#2 = #5)</text>
</g>
<!-- node12&#45;&gt;node15 -->
<g id="edge1" class="edge">
<title>node12&#45;&gt;node15</title>
<path fill="none" stroke="black" d="M510.8,-577.82C508.14,-564.74 504.42,-546.42 500.88,-529.03"/>
<polygon fill="black" stroke="black" points="504.25,-528.05 498.83,-518.95 497.39,-529.45 504.25,-528.05"/>
<text text-anchor="start" x="504.5" y="-540.8" font-family="Times,serif" font-size="14.00">%12</text>
</g>
<!-- node13 -->
<g id="node14" class="node">
<title>node13</title>
<polygon fill="none" stroke="black" points="186.5,-675.5 186.5,-711.5 394.5,-711.5 394.5,-675.5 186.5,-675.5"/>
<text text-anchor="start" x="194.5" y="-689.8" font-family="Times,serif" font-size="14.00">Get rej_nulls.public.t (u47)</text>
</g>
<!-- node13&#45;&gt;node14 -->
<g id="edge8" class="edge">
<title>node13&#45;&gt;node14</title>
<path fill="none" stroke="black" d="M290.5,-675.17C290.5,-663.7 290.5,-648.25 290.5,-634.18"/>
<polygon fill="black" stroke="black" points="294,-633.78 290.5,-623.78 287,-633.78 294,-633.78"/>
<text text-anchor="start" x="290.5" y="-645.8" font-family="Times,serif" font-size="14.00">%13</text>
</g>
<!-- node14&#45;&gt;node15 -->
<g id="edge3" class="edge">
<title>node14&#45;&gt;node15</title>
<path fill="none" stroke="black" d="M333.9,-570.4C357.01,-556.76 386.15,-539.57 413,-523.72"/>
<polygon fill="black" stroke="black" points="414.8,-526.73 421.63,-518.63 411.24,-520.7 414.8,-526.73"/>
<text text-anchor="start" x="390.5" y="-540.8" font-family="Times,serif" font-size="14.00">%14</text>
</g>
<!-- node17 -->
<g id="node18" class="node">
<title>node17</title>
<polygon fill="none" stroke="black" points="257,-195.5 257,-263.5 526,-263.5 526,-195.5 257,-195.5"/>
<text text-anchor="start" x="265" y="-248.3" font-family="Times,serif" font-size="14.00">Join %14 %16 (= #1 #2)</text>
<text text-anchor="start" x="265" y="-233.3" font-family="Times,serif" font-size="14.00"> implementation = Unimplemented</text>
<text text-anchor="start" x="265" y="-218.3" font-family="Times,serif" font-size="14.00"> Project (#0, #1)</text>
<text text-anchor="start" x="265" y="-203.3" font-family="Times,serif" font-size="14.00"> Negate</text>
</g>
<!-- node14&#45;&gt;node17 -->
<g id="edge14" class="edge">
<title>node14&#45;&gt;node17</title>
<path fill="none" stroke="black" d="M290.65,-570.2C291.75,-519.5 298.28,-404.03 333.5,-315 339.41,-300.07 348.35,-285.17 357.47,-272.13"/>
<polygon fill="black" stroke="black" points="360.43,-274 363.45,-263.84 354.76,-269.9 360.43,-274"/>
<text text-anchor="start" x="307.5" y="-405.8" font-family="Times,serif" font-size="14.00">%14</text>
</g>
<!-- node18 -->
<g id="node19" class="node">
<title>node18</title>
<polygon fill="none" stroke="black" points="292.5,-90.5 292.5,-143.5 490.5,-143.5 490.5,-90.5 292.5,-90.5"/>
<text text-anchor="start" x="300.5" y="-128.3" font-family="Times,serif" font-size="14.00">Union %17 %14</text>
<text text-anchor="start" x="300.5" y="-113.3" font-family="Times,serif" font-size="14.00"> Map null, null, null, null</text>
<text text-anchor="start" x="300.5" y="-98.3" font-family="Times,serif" font-size="14.00"> Project (#2..#5, #0, #1)</text>
</g>
<!-- node14&#45;&gt;node18 -->
<g id="edge28" class="edge">
<title>node14&#45;&gt;node18</title>
<path fill="none" stroke="black" d="M267.77,-570.37C250.07,-547.72 228.5,-512.94 228.5,-478 228.5,-478 228.5,-478 228.5,-228.5 228.5,-190.84 258.68,-165.13 293.07,-148.06"/>
<polygon fill="black" stroke="black" points="294.81,-151.11 302.37,-143.69 291.83,-144.77 294.81,-151.11"/>
<text text-anchor="start" x="228.5" y="-345.8" font-family="Times,serif" font-size="14.00">%14</text>
</g>
<!-- node16 -->
<g id="node17" class="node">
<title>node16</title>
<polygon fill="none" stroke="black" points="342,-315.5 342,-383.5 509,-383.5 509,-315.5 342,-315.5"/>
<text text-anchor="start" x="350" y="-368.3" font-family="Times,serif" font-size="14.00">Let l8 =</text>
<text text-anchor="start" x="350" y="-353.3" font-family="Times,serif" font-size="14.00"> Get %15 (l7)</text>
<text text-anchor="start" x="350" y="-338.3" font-family="Times,serif" font-size="14.00"> Project (#2)</text>
<text text-anchor="start" x="350" y="-323.3" font-family="Times,serif" font-size="14.00"> Distinct group=(#0)</text>
</g>
<!-- node15&#45;&gt;node16 -->
<g id="edge27" class="edge">
<title>node15&#45;&gt;node16</title>
<path fill="none" stroke="black" d="M469.4,-435.25C462.35,-421.65 454.48,-406.46 447.38,-392.74"/>
<polygon fill="black" stroke="black" points="450.31,-390.78 442.6,-383.51 444.09,-394 450.31,-390.78"/>
<text text-anchor="start" x="457.5" y="-405.8" font-family="Times,serif" font-size="14.00">%15</text>
</g>
<!-- node19 -->
<g id="node20" class="node">
<title>node19</title>
<polygon fill="none" stroke="black" points="411,-0.5 411,-38.5 542,-38.5 542,-0.5 411,-0.5"/>
<text text-anchor="start" x="419" y="-23.3" font-family="Times,serif" font-size="14.00">Union %18 %15</text>
<text text-anchor="start" x="419" y="-8.3" font-family="Times,serif" font-size="14.00"> Filter (#0 &gt; 0)</text>
</g>
<!-- node15&#45;&gt;node19 -->
<g id="edge18" class="edge">
<title>node15&#45;&gt;node19</title>
<path fill="none" stroke="black" d="M527.98,-435.43C545.47,-412.31 562.5,-381.77 562.5,-350.5 562.5,-350.5 562.5,-350.5 562.5,-116 562.5,-85.99 538.77,-61.16 516.24,-44.34"/>
<polygon fill="black" stroke="black" points="518.21,-41.45 508.03,-38.52 514.16,-47.16 518.21,-41.45"/>
<text text-anchor="start" x="562.5" y="-225.8" font-family="Times,serif" font-size="14.00">%15</text>
</g>
<!-- node16&#45;&gt;node17 -->
<g id="edge2" class="edge">
<title>node16&#45;&gt;node17</title>
<path fill="none" stroke="black" d="M415.94,-315.32C412.21,-302.37 407.88,-287.36 403.92,-273.6"/>
<polygon fill="black" stroke="black" points="407.24,-272.48 401.11,-263.84 400.51,-274.42 407.24,-272.48"/>
<text text-anchor="start" x="410.5" y="-285.8" font-family="Times,serif" font-size="14.00">%16</text>
</g>
<!-- node17&#45;&gt;node18 -->
<g id="edge25" class="edge">
<title>node17&#45;&gt;node18</title>
<path fill="none" stroke="black" d="M391.5,-195.35C391.5,-182.3 391.5,-167.3 391.5,-153.99"/>
<polygon fill="black" stroke="black" points="395,-153.75 391.5,-143.75 388,-153.75 395,-153.75"/>
<text text-anchor="start" x="391.5" y="-165.8" font-family="Times,serif" font-size="14.00">%17</text>
</g>
<!-- node18&#45;&gt;node19 -->
<g id="edge17" class="edge">
<title>node18&#45;&gt;node19</title>
<path fill="none" stroke="black" d="M414.28,-90.41C426.45,-76.74 441.39,-59.95 453.58,-46.26"/>
<polygon fill="black" stroke="black" points="456.36,-48.39 460.39,-38.6 451.13,-43.74 456.36,-48.39"/>
<text text-anchor="start" x="441.5" y="-60.8" font-family="Times,serif" font-size="14.00">%18</text>
</g>
</g>
</svg>
