<?xml version="1.0" encoding="UTF-8" standalone="no"?>
<!DOCTYPE svg PUBLIC "-//W3C//DTD SVG 1.1//EN"
 "http://www.w3.org/Graphics/SVG/1.1/DTD/svg11.dtd">
<!-- Generated by graphviz version 2.43.0 (0)
 -->
<!-- Title: G Pages: 1 -->
<svg width="671pt" height="167pt"
 viewBox="0.00 0.00 670.50 167.00" xmlns="http://www.w3.org/2000/svg" xmlns:xlink="http://www.w3.org/1999/xlink">
<g id="graph0" class="graph" transform="scale(1 1) rotate(0) translate(4 163)">
<title>G</title>
<polygon fill="white" stroke="transparent" points="-4,4 -4,-163 666.5,-163 666.5,4 -4,4"/>
<!-- node0 -->
<g id="node1" class="node">
<title>node0</title>
<polygon fill="none" stroke="black" points="0,-105.5 0,-158.5 209,-158.5 209,-105.5 0,-105.5"/>
<text text-anchor="start" x="8" y="-143.3" font-family="Times,serif" font-size="14.00">Get rej_nulls.public.r (u43)</text>
<text text-anchor="start" x="8" y="-128.3" font-family="Times,serif" font-size="14.00"> Filter (#0 &gt; 0)</text>
<text text-anchor="start" x="8" y="-113.3" font-family="Times,serif" font-size="14.00"> ArrangeBy (#1)</text>
</g>
<!-- node3 -->
<g id="node4" class="node">
<title>node3</title>
<polygon fill="none" stroke="black" points="137,-0.5 137,-53.5 526,-53.5 526,-0.5 137,-0.5"/>
<text text-anchor="start" x="145" y="-38.3" font-family="Times,serif" font-size="14.00">Join %0 %1 %2 (= #1 #2 #5)</text>
<text text-anchor="start" x="145" y="-23.3" font-family="Times,serif" font-size="14.00"> implementation = Differential %2 %0.(#1) %1.(#0)</text>
<text text-anchor="start" x="145" y="-8.3" font-family="Times,serif" font-size="14.00"> Project (#0, #1, #1, #3, #4, #1)</text>
</g>
<!-- node0&#45;&gt;node3 -->
<g id="edge1" class="edge">
<title>node0&#45;&gt;node3</title>
<path fill="none" stroke="black" d="M160.9,-105.41C192.71,-90.98 232.6,-72.87 265.82,-57.8"/>
<polygon fill="black" stroke="black" points="267.33,-60.96 274.99,-53.64 264.44,-54.58 267.33,-60.96"/>
<text text-anchor="start" x="232.5" y="-75.8" font-family="Times,serif" font-size="14.00">%0</text>
</g>
<!-- node1 -->
<g id="node2" class="node">
<title>node1</title>
<polygon fill="none" stroke="black" points="227,-113 227,-151 436,-151 436,-113 227,-113"/>
<text text-anchor="start" x="235" y="-135.8" font-family="Times,serif" font-size="14.00">Get rej_nulls.public.s (u45)</text>
<text text-anchor="start" x="235" y="-120.8" font-family="Times,serif" font-size="14.00"> ArrangeBy (#0)</text>
</g>
<!-- node1&#45;&gt;node3 -->
<g id="edge3" class="edge">
<title>node1&#45;&gt;node3</title>
<path fill="none" stroke="black" d="M331.5,-112.59C331.5,-99.11 331.5,-80.38 331.5,-63.97"/>
<polygon fill="black" stroke="black" points="335,-63.61 331.5,-53.61 328,-63.61 335,-63.61"/>
<text text-anchor="start" x="331.5" y="-75.8" font-family="Times,serif" font-size="14.00">%1</text>
</g>
<!-- node2 -->
<g id="node3" class="node">
<title>node2</title>
<polygon fill="none" stroke="black" points="454.5,-113 454.5,-151 662.5,-151 662.5,-113 454.5,-113"/>
<text text-anchor="start" x="462.5" y="-135.8" font-family="Times,serif" font-size="14.00">Get rej_nulls.public.t (u47)</text>
<text text-anchor="start" x="462.5" y="-120.8" font-family="Times,serif" font-size="14.00"> Filter !(isnull(#1))</text>
</g>
<!-- node2&#45;&gt;node3 -->
<g id="edge2" class="edge">
<title>node2&#45;&gt;node3</title>
<path fill="none" stroke="black" d="M518.7,-112.94C485.15,-97.72 436.47,-75.63 397.15,-57.79"/>
<polygon fill="black" stroke="black" points="398.45,-54.53 387.89,-53.59 395.55,-60.91 398.45,-54.53"/>
<text text-anchor="start" x="459.5" y="-75.8" font-family="Times,serif" font-size="14.00">%2</text>
</g>
</g>
</svg>
