<?xml version="1.0" encoding="UTF-8" standalone="no"?>
<!DOCTYPE svg PUBLIC "-//W3C//DTD SVG 1.1//EN"
 "http://www.w3.org/Graphics/SVG/1.1/DTD/svg11.dtd">
<!-- Generated by graphviz version 2.43.0 (0)
 -->
<!-- Title: G Pages: 1 -->
<svg width="585pt" height="223pt"
 viewBox="0.00 0.00 584.50 223.00" xmlns="http://www.w3.org/2000/svg" xmlns:xlink="http://www.w3.org/1999/xlink">
<g id="graph0" class="graph" transform="scale(1 1) rotate(0) translate(4 219)">
<title>G</title>
<polygon fill="white" stroke="transparent" points="-4,4 -4,-219 580.5,-219 580.5,4 -4,4"/>
<!-- node0 -->
<g id="node1" class="node">
<title>node0</title>
<polygon fill="none" stroke="black" points="0,-178.5 0,-214.5 209,-214.5 209,-178.5 0,-178.5"/>
<text text-anchor="start" x="8" y="-192.8" font-family="Times,serif" font-size="14.00">Get rej_nulls.public.r (u43)</text>
</g>
<!-- node2 -->
<g id="node3" class="node">
<title>node2</title>
<polygon fill="none" stroke="black" points="84.5,-90.5 84.5,-126.5 350.5,-126.5 350.5,-90.5 84.5,-90.5"/>
<text text-anchor="start" x="92.5" y="-104.8" font-family="Times,serif" font-size="14.00">FullOuterJoin %0 %1 on (#1 = #2)</text>
</g>
<!-- node0&#45;&gt;node2 -->
<g id="edge3" class="edge">
<title>node0&#45;&gt;node2</title>
<path fill="none" stroke="black" d="M127.1,-178.3C144.26,-165.24 168.06,-147.13 186.93,-132.77"/>
<polygon fill="black" stroke="black" points="189.11,-135.51 194.94,-126.67 184.87,-129.94 189.11,-135.51"/>
<text text-anchor="start" x="168.5" y="-148.8" font-family="Times,serif" font-size="14.00">%0</text>
</g>
<!-- node1 -->
<g id="node2" class="node">
<title>node1</title>
<polygon fill="none" stroke="black" points="227,-178.5 227,-214.5 436,-214.5 436,-178.5 227,-178.5"/>
<text text-anchor="start" x="235" y="-192.8" font-family="Times,serif" font-size="14.00">Get rej_nulls.public.s (u45)</text>
</g>
<!-- node1&#45;&gt;node2 -->
<g id="edge1" class="edge">
<title>node1&#45;&gt;node2</title>
<path fill="none" stroke="black" d="M308.7,-178.3C291.38,-165.24 267.38,-147.13 248.34,-132.77"/>
<polygon fill="black" stroke="black" points="250.35,-129.9 240.26,-126.67 246.13,-135.48 250.35,-129.9"/>
<text text-anchor="start" x="281.5" y="-148.8" font-family="Times,serif" font-size="14.00">%1</text>
</g>
<!-- node4 -->
<g id="node5" class="node">
<title>node4</title>
<polygon fill="none" stroke="black" points="206.5,-0.5 206.5,-38.5 484.5,-38.5 484.5,-0.5 206.5,-0.5"/>
<text text-anchor="start" x="214.5" y="-23.3" font-family="Times,serif" font-size="14.00">RightOuterJoin %2 %3 on (#2 = #5)</text>
<text text-anchor="start" x="214.5" y="-8.3" font-family="Times,serif" font-size="14.00"> Filter (#0 &gt; 0)</text>
</g>
<!-- node2&#45;&gt;node4 -->
<g id="edge2" class="edge">
<title>node2&#45;&gt;node4</title>
<path fill="none" stroke="black" d="M242.79,-90.31C262.13,-77.17 289.02,-58.89 310.44,-44.33"/>
<polygon fill="black" stroke="black" points="312.64,-47.07 318.94,-38.55 308.7,-41.28 312.64,-47.07"/>
<text text-anchor="start" x="288.5" y="-60.8" font-family="Times,serif" font-size="14.00">%2</text>
</g>
<!-- node3 -->
<g id="node4" class="node">
<title>node3</title>
<polygon fill="none" stroke="black" points="368.5,-90.5 368.5,-126.5 576.5,-126.5 576.5,-90.5 368.5,-90.5"/>
<text text-anchor="start" x="376.5" y="-104.8" font-family="Times,serif" font-size="14.00">Get rej_nulls.public.t (u47)</text>
</g>
<!-- node3&#45;&gt;node4 -->
<g id="edge4" class="edge">
<title>node3&#45;&gt;node4</title>
<path fill="none" stroke="black" d="M447.41,-90.31C428.22,-77.17 401.54,-58.89 380.29,-44.33"/>
<polygon fill="black" stroke="black" points="382.08,-41.32 371.85,-38.55 378.12,-47.09 382.08,-41.32"/>
<text text-anchor="start" x="419.5" y="-60.8" font-family="Times,serif" font-size="14.00">%3</text>
</g>
</g>
</svg>
