<?xml version="1.0" encoding="UTF-8" standalone="no"?>
<!DOCTYPE svg PUBLIC "-//W3C//DTD SVG 1.1//EN"
 "http://www.w3.org/Graphics/SVG/1.1/DTD/svg11.dtd">
<!-- Generated by graphviz version 2.43.0 (0)
 -->
<!-- Title: G Pages: 1 -->
<svg width="681pt" height="317pt"
 viewBox="0.00 0.00 681.00 317.00" xmlns="http://www.w3.org/2000/svg" xmlns:xlink="http://www.w3.org/1999/xlink">
<g id="graph0" class="graph" transform="scale(1 1) rotate(0) translate(4 313)">
<title>G</title>
<polygon fill="white" stroke="transparent" points="-4,4 -4,-313 677,-313 677,4 -4,4"/>
<!-- node0 -->
<g id="node1" class="node">
<title>node0</title>
<polygon fill="none" stroke="black" points="0,-165.5 0,-308.5 209,-308.5 209,-165.5 0,-165.5"/>
<text text-anchor="start" x="8" y="-293.3" font-family="Times,serif" font-size="14.00">Get rej_nulls.public.r (u43)</text>
<text text-anchor="start" x="8" y="-278.3" font-family="Times,serif" font-size="14.00"> types = (integer, integer)</text>
<text text-anchor="start" x="8" y="-263.3" font-family="Times,serif" font-size="14.00"> keys = ()</text>
<text text-anchor="start" x="8" y="-248.3" font-family="Times,serif" font-size="14.00"> Filter (#0 &gt; 0)</text>
<text text-anchor="start" x="8" y="-233.3" font-family="Times,serif" font-size="14.00"> types = (integer, integer)</text>
<text text-anchor="start" x="8" y="-218.3" font-family="Times,serif" font-size="14.00"> keys = ()</text>
<text text-anchor="start" x="8" y="-203.3" font-family="Times,serif" font-size="14.00"> ArrangeBy (#1)</text>
<text text-anchor="start" x="8" y="-188.3" font-family="Times,serif" font-size="14.00"> types = (integer, integer)</text>
<text text-anchor="start" x="8" y="-173.3" font-family="Times,serif" font-size="14.00"> keys = ()</text>
</g>
<!-- node3 -->
<g id="node4" class="node">
<title>node3</title>
<polygon fill="none" stroke="black" points="107,-0.5 107,-113.5 556,-113.5 556,-0.5 107,-0.5"/>
<text text-anchor="start" x="115" y="-98.3" font-family="Times,serif" font-size="14.00">Join %0 %1 %2 (= #1 #2 #5)</text>
<text text-anchor="start" x="115" y="-83.3" font-family="Times,serif" font-size="14.00"> implementation = Differential %2 %0.(#1) %1.(#0)</text>
<text text-anchor="start" x="115" y="-68.3" font-family="Times,serif" font-size="14.00"> types = (integer, integer, integer, integer, integer?, integer)</text>
<text text-anchor="start" x="115" y="-53.3" font-family="Times,serif" font-size="14.00"> keys = ()</text>
<text text-anchor="start" x="115" y="-38.3" font-family="Times,serif" font-size="14.00"> Project (#0, #1, #1, #3, #4, #1)</text>
<text text-anchor="start" x="115" y="-23.3" font-family="Times,serif" font-size="14.00"> types = (integer, integer, integer, integer, integer?, integer)</text>
<text text-anchor="start" x="115" y="-8.3" font-family="Times,serif" font-size="14.00"> keys = ()</text>
</g>
<!-- node0&#45;&gt;node3 -->
<g id="edge1" class="edge">
<title>node0&#45;&gt;node3</title>
<path fill="none" stroke="black" d="M194.54,-165.39C213.71,-150.36 233.82,-134.6 252.54,-119.92"/>
<polygon fill="black" stroke="black" points="254.76,-122.62 260.47,-113.7 250.44,-117.12 254.76,-122.62"/>
<text text-anchor="start" x="232.5" y="-135.8" font-family="Times,serif" font-size="14.00">%0</text>
</g>
<!-- node1 -->
<g id="node2" class="node">
<title>node1</title>
<polygon fill="none" stroke="black" points="227,-188 227,-286 436,-286 436,-188 227,-188"/>
<text text-anchor="start" x="235" y="-270.8" font-family="Times,serif" font-size="14.00">Get rej_nulls.public.s (u45)</text>
<text text-anchor="start" x="235" y="-255.8" font-family="Times,serif" font-size="14.00"> types = (integer, integer)</text>
<text text-anchor="start" x="235" y="-240.8" font-family="Times,serif" font-size="14.00"> keys = ()</text>
<text text-anchor="start" x="235" y="-225.8" font-family="Times,serif" font-size="14.00"> ArrangeBy (#0)</text>
<text text-anchor="start" x="235" y="-210.8" font-family="Times,serif" font-size="14.00"> types = (integer, integer)</text>
<text text-anchor="start" x="235" y="-195.8" font-family="Times,serif" font-size="14.00"> keys = ()</text>
</g>
<!-- node1&#45;&gt;node3 -->
<g id="edge3" class="edge">
<title>node1&#45;&gt;node3</title>
<path fill="none" stroke="black" d="M331.5,-187.83C331.5,-168.19 331.5,-145.16 331.5,-123.99"/>
<polygon fill="black" stroke="black" points="335,-123.77 331.5,-113.77 328,-123.77 335,-123.77"/>
<text text-anchor="start" x="331.5" y="-135.8" font-family="Times,serif" font-size="14.00">%1</text>
</g>
<!-- node2 -->
<g id="node3" class="node">
<title>node2</title>
<polygon fill="none" stroke="black" points="454,-188 454,-286 673,-286 673,-188 454,-188"/>
<text text-anchor="start" x="462" y="-270.8" font-family="Times,serif" font-size="14.00">Get rej_nulls.public.t (u47)</text>
<text text-anchor="start" x="462" y="-255.8" font-family="Times,serif" font-size="14.00"> types = (integer?, integer?)</text>
<text text-anchor="start" x="462" y="-240.8" font-family="Times,serif" font-size="14.00"> keys = ()</text>
<text text-anchor="start" x="462" y="-225.8" font-family="Times,serif" font-size="14.00"> Filter !(isnull(#1))</text>
<text text-anchor="start" x="462" y="-210.8" font-family="Times,serif" font-size="14.00"> types = (integer?, integer)</text>
<text text-anchor="start" x="462" y="-195.8" font-family="Times,serif" font-size="14.00"> keys = ()</text>
</g>
<!-- node2&#45;&gt;node3 -->
<g id="edge2" class="edge">
<title>node2&#45;&gt;node3</title>
<path fill="none" stroke="black" d="M500.72,-187.83C473.49,-166.94 441.26,-142.21 412.28,-119.97"/>
<polygon fill="black" stroke="black" points="414.26,-117.08 404.19,-113.77 410,-122.64 414.26,-117.08"/>
<text text-anchor="start" x="447.5" y="-135.8" font-family="Times,serif" font-size="14.00">%2</text>
</g>
</g>
</svg>
