<?xml version="1.0" encoding="UTF-8" standalone="no"?>
<!DOCTYPE svg PUBLIC "-//W3C//DTD SVG 1.1//EN"
 "http://www.w3.org/Graphics/SVG/1.1/DTD/svg11.dtd">
<!-- Generated by graphviz version 2.43.0 (0)
 -->
<!-- Title: G Pages: 1 -->
<svg width="641pt" height="317pt"
 viewBox="0.00 0.00 641.00 317.00" xmlns="http://www.w3.org/2000/svg" xmlns:xlink="http://www.w3.org/1999/xlink">
<g id="graph0" class="graph" transform="scale(1 1) rotate(0) translate(4 313)">
<title>G</title>
<polygon fill="white" stroke="transparent" points="-4,4 -4,-313 637,-313 637,4 -4,4"/>
<!-- node0 -->
<g id="node1" class="node">
<title>node0</title>
<polygon fill="none" stroke="black" points="0,-255.5 0,-308.5 209,-308.5 209,-255.5 0,-255.5"/>
<text text-anchor="start" x="8" y="-293.3" font-family="Times,serif" font-size="14.00">Get rej_nulls.public.r (u43)</text>
<text text-anchor="start" x="8" y="-278.3" font-family="Times,serif" font-size="14.00"> types = (integer, integer)</text>
<text text-anchor="start" x="8" y="-263.3" font-family="Times,serif" font-size="14.00"> keys = ()</text>
</g>
<!-- node2 -->
<g id="node3" class="node">
<title>node2</title>
<polygon fill="none" stroke="black" points="39.5,-150.5 39.5,-203.5 395.5,-203.5 395.5,-150.5 39.5,-150.5"/>
<text text-anchor="start" x="47.5" y="-188.3" font-family="Times,serif" font-size="14.00">FullOuterJoin %0 %1 on (#1 = #2)</text>
<text text-anchor="start" x="47.5" y="-173.3" font-family="Times,serif" font-size="14.00"> types = (integer?, integer?, integer?, integer?)</text>
<text text-anchor="start" x="47.5" y="-158.3" font-family="Times,serif" font-size="14.00"> keys = ()</text>
</g>
<!-- node0&#45;&gt;node2 -->
<g id="edge3" class="edge">
<title>node0&#45;&gt;node2</title>
<path fill="none" stroke="black" d="M132.72,-255.27C147.55,-241.76 165.89,-225.05 181.71,-210.63"/>
<polygon fill="black" stroke="black" points="184.21,-213.08 189.24,-203.75 179.5,-207.9 184.21,-213.08"/>
<text text-anchor="start" x="168.5" y="-225.8" font-family="Times,serif" font-size="14.00">%0</text>
</g>
<!-- node1 -->
<g id="node2" class="node">
<title>node1</title>
<polygon fill="none" stroke="black" points="227,-255.5 227,-308.5 436,-308.5 436,-255.5 227,-255.5"/>
<text text-anchor="start" x="235" y="-293.3" font-family="Times,serif" font-size="14.00">Get rej_nulls.public.s (u45)</text>
<text text-anchor="start" x="235" y="-278.3" font-family="Times,serif" font-size="14.00"> types = (integer, integer)</text>
<text text-anchor="start" x="235" y="-263.3" font-family="Times,serif" font-size="14.00"> keys = ()</text>
</g>
<!-- node1&#45;&gt;node2 -->
<g id="edge1" class="edge">
<title>node1&#45;&gt;node2</title>
<path fill="none" stroke="black" d="M303.03,-255.27C288.06,-241.76 269.57,-225.05 253.61,-210.63"/>
<polygon fill="black" stroke="black" points="255.77,-207.86 246.01,-203.75 251.08,-213.06 255.77,-207.86"/>
<text text-anchor="start" x="281.5" y="-225.8" font-family="Times,serif" font-size="14.00">%1</text>
</g>
<!-- node4 -->
<g id="node5" class="node">
<title>node4</title>
<polygon fill="none" stroke="black" points="124.5,-0.5 124.5,-98.5 616.5,-98.5 616.5,-0.5 124.5,-0.5"/>
<text text-anchor="start" x="132.5" y="-83.3" font-family="Times,serif" font-size="14.00">RightOuterJoin %2 %3 on (#2 = #5)</text>
<text text-anchor="start" x="132.5" y="-68.3" font-family="Times,serif" font-size="14.00"> types = (integer?, integer?, integer?, integer?, integer?, integer?)</text>
<text text-anchor="start" x="132.5" y="-53.3" font-family="Times,serif" font-size="14.00"> keys = ()</text>
<text text-anchor="start" x="132.5" y="-38.3" font-family="Times,serif" font-size="14.00"> Filter (#0 &gt; 0)</text>
<text text-anchor="start" x="132.5" y="-23.3" font-family="Times,serif" font-size="14.00"> types = (integer?, integer?, integer?, integer?, integer?, integer?)</text>
<text text-anchor="start" x="132.5" y="-8.3" font-family="Times,serif" font-size="14.00"> keys = ()</text>
</g>
<!-- node2&#45;&gt;node4 -->
<g id="edge2" class="edge">
<title>node2&#45;&gt;node4</title>
<path fill="none" stroke="black" d="M248.83,-150.3C264.74,-137.25 284.7,-120.88 303.83,-105.19"/>
<polygon fill="black" stroke="black" points="306.17,-107.8 311.68,-98.75 301.73,-102.38 306.17,-107.8"/>
<text text-anchor="start" x="288.5" y="-120.8" font-family="Times,serif" font-size="14.00">%2</text>
</g>
<!-- node3 -->
<g id="node4" class="node">
<title>node3</title>
<polygon fill="none" stroke="black" points="414,-150.5 414,-203.5 633,-203.5 633,-150.5 414,-150.5"/>
<text text-anchor="start" x="422" y="-188.3" font-family="Times,serif" font-size="14.00">Get rej_nulls.public.t (u47)</text>
<text text-anchor="start" x="422" y="-173.3" font-family="Times,serif" font-size="14.00"> types = (integer?, integer?)</text>
<text text-anchor="start" x="422" y="-158.3" font-family="Times,serif" font-size="14.00"> keys = ()</text>
</g>
<!-- node3&#45;&gt;node4 -->
<g id="edge4" class="edge">
<title>node3&#45;&gt;node4</title>
<path fill="none" stroke="black" d="M492.17,-150.3C476.26,-137.25 456.3,-120.88 437.17,-105.19"/>
<polygon fill="black" stroke="black" points="439.27,-102.38 429.32,-98.75 434.83,-107.8 439.27,-102.38"/>
<text text-anchor="start" x="469.5" y="-120.8" font-family="Times,serif" font-size="14.00">%3</text>
</g>
</g>
</svg>
