<?xml version="1.0" encoding="UTF-8" standalone="no"?>
<!DOCTYPE svg PUBLIC "-//W3C//DTD SVG 1.1//EN"
 "http://www.w3.org/Graphics/SVG/1.1/DTD/svg11.dtd">
<!-- Generated by graphviz version 2.43.0 (0)
 -->
<!-- Title: G Pages: 1 -->
<svg width="990pt" height="2282pt"
 viewBox="0.00 0.00 989.50 2282.00" xmlns="http://www.w3.org/2000/svg" xmlns:xlink="http://www.w3.org/1999/xlink">
<g id="graph0" class="graph" transform="scale(1 1) rotate(0) translate(4 2278)">
<title>G</title>
<polygon fill="white" stroke="transparent" points="-4,4 -4,-2278 985.5,-2278 985.5,4 -4,4"/>
<!-- node0 -->
<g id="node1" class="node">
<title>node0</title>
<polygon fill="none" stroke="black" points="285,-2205.5 285,-2273.5 386,-2273.5 386,-2205.5 285,-2205.5"/>
<text text-anchor="start" x="293" y="-2258.3" font-family="Times,serif" font-size="14.00">Let l0 =</text>
<text text-anchor="start" x="293" y="-2243.3" font-family="Times,serif" font-size="14.00"> Constant ()</text>
<text text-anchor="start" x="293" y="-2228.3" font-family="Times,serif" font-size="14.00"> types = ()</text>
<text text-anchor="start" x="293" y="-2213.3" font-family="Times,serif" font-size="14.00"> keys = (())</text>
</g>
<!-- node2 -->
<g id="node3" class="node">
<title>node2</title>
<polygon fill="none" stroke="black" points="201,-2070.5 201,-2153.5 470,-2153.5 470,-2070.5 201,-2070.5"/>
<text text-anchor="start" x="209" y="-2138.3" font-family="Times,serif" font-size="14.00">Let l1 =</text>
<text text-anchor="start" x="209" y="-2123.3" font-family="Times,serif" font-size="14.00"> Join %0 %1</text>
<text text-anchor="start" x="209" y="-2108.3" font-family="Times,serif" font-size="14.00"> implementation = Unimplemented</text>
<text text-anchor="start" x="209" y="-2093.3" font-family="Times,serif" font-size="14.00"> types = (integer, integer)</text>
<text text-anchor="start" x="209" y="-2078.3" font-family="Times,serif" font-size="14.00"> keys = ()</text>
</g>
<!-- node0&#45;&gt;node2 -->
<g id="edge21" class="edge">
<title>node0&#45;&gt;node2</title>
<path fill="none" stroke="black" d="M335.5,-2205.2C335.5,-2192.46 335.5,-2177.63 335.5,-2163.63"/>
<polygon fill="black" stroke="black" points="339,-2163.63 335.5,-2153.63 332,-2163.63 339,-2163.63"/>
<text text-anchor="start" x="335.5" y="-2175.8" font-family="Times,serif" font-size="14.00">%0</text>
</g>
<!-- node4 -->
<g id="node5" class="node">
<title>node4</title>
<polygon fill="none" stroke="black" points="532,-2070.5 532,-2153.5 801,-2153.5 801,-2070.5 532,-2070.5"/>
<text text-anchor="start" x="540" y="-2138.3" font-family="Times,serif" font-size="14.00">Let l2 =</text>
<text text-anchor="start" x="540" y="-2123.3" font-family="Times,serif" font-size="14.00"> Join %0 %3</text>
<text text-anchor="start" x="540" y="-2108.3" font-family="Times,serif" font-size="14.00"> implementation = Unimplemented</text>
<text text-anchor="start" x="540" y="-2093.3" font-family="Times,serif" font-size="14.00"> types = (integer, integer)</text>
<text text-anchor="start" x="540" y="-2078.3" font-family="Times,serif" font-size="14.00"> keys = ()</text>
</g>
<!-- node0&#45;&gt;node4 -->
<g id="edge12" class="edge">
<title>node0&#45;&gt;node4</title>
<path fill="none" stroke="black" d="M386.13,-2219.3C429.53,-2202.85 493.72,-2178.51 549.74,-2157.27"/>
<polygon fill="black" stroke="black" points="551.26,-2160.44 559.37,-2153.62 548.78,-2153.89 551.26,-2160.44"/>
<text text-anchor="start" x="500.5" y="-2175.8" font-family="Times,serif" font-size="14.00">%0</text>
</g>
<!-- node14 -->
<g id="node15" class="node">
<title>node14</title>
<polygon fill="none" stroke="black" points="137,-990.5 137,-1073.5 406,-1073.5 406,-990.5 137,-990.5"/>
<text text-anchor="start" x="145" y="-1058.3" font-family="Times,serif" font-size="14.00">Let l6 =</text>
<text text-anchor="start" x="145" y="-1043.3" font-family="Times,serif" font-size="14.00"> Join %0 %13</text>
<text text-anchor="start" x="145" y="-1028.3" font-family="Times,serif" font-size="14.00"> implementation = Unimplemented</text>
<text text-anchor="start" x="145" y="-1013.3" font-family="Times,serif" font-size="14.00"> types = (integer?, integer?)</text>
<text text-anchor="start" x="145" y="-998.3" font-family="Times,serif" font-size="14.00"> keys = ()</text>
</g>
<!-- node0&#45;&gt;node14 -->
<g id="edge16" class="edge">
<title>node0&#45;&gt;node14</title>
<path fill="none" stroke="black" d="M284.79,-2228.53C227.61,-2213.99 142.5,-2180.95 142.5,-2113 142.5,-2113 142.5,-2113 142.5,-1151 142.5,-1122.08 160.36,-1098.35 182.8,-1079.94"/>
<polygon fill="black" stroke="black" points="185.15,-1082.55 190.9,-1073.65 180.86,-1077.02 185.15,-1082.55"/>
<text text-anchor="start" x="142.5" y="-1605.8" font-family="Times,serif" font-size="14.00">%0</text>
</g>
<!-- node1 -->
<g id="node2" class="node">
<title>node1</title>
<polygon fill="none" stroke="black" points="0,-2213 0,-2266 209,-2266 209,-2213 0,-2213"/>
<text text-anchor="start" x="8" y="-2250.8" font-family="Times,serif" font-size="14.00">Get rej_nulls.public.r (u43)</text>
<text text-anchor="start" x="8" y="-2235.8" font-family="Times,serif" font-size="14.00"> types = (integer, integer)</text>
<text text-anchor="start" x="8" y="-2220.8" font-family="Times,serif" font-size="14.00"> keys = ()</text>
</g>
<!-- node1&#45;&gt;node2 -->
<g id="edge11" class="edge">
<title>node1&#45;&gt;node2</title>
<path fill="none" stroke="black" d="M151.52,-2212.95C180.35,-2197.29 218.07,-2176.8 251.85,-2158.45"/>
<polygon fill="black" stroke="black" points="253.69,-2161.43 260.8,-2153.58 250.34,-2155.28 253.69,-2161.43"/>
<text text-anchor="start" x="220.5" y="-2175.8" font-family="Times,serif" font-size="14.00">%1</text>
</g>
<!-- node5 -->
<g id="node6" class="node">
<title>node5</title>
<polygon fill="none" stroke="black" points="411,-1845.5 411,-2018.5 732,-2018.5 732,-1845.5 411,-1845.5"/>
<text text-anchor="start" x="419" y="-2003.3" font-family="Times,serif" font-size="14.00">Let l3 =</text>
<text text-anchor="start" x="419" y="-1988.3" font-family="Times,serif" font-size="14.00"> Join %2 %4</text>
<text text-anchor="start" x="419" y="-1973.3" font-family="Times,serif" font-size="14.00"> implementation = Unimplemented</text>
<text text-anchor="start" x="419" y="-1958.3" font-family="Times,serif" font-size="14.00"> types = (integer, integer, integer, integer)</text>
<text text-anchor="start" x="419" y="-1943.3" font-family="Times,serif" font-size="14.00"> keys = ()</text>
<text text-anchor="start" x="419" y="-1928.3" font-family="Times,serif" font-size="14.00"> Project (#0..#3)</text>
<text text-anchor="start" x="419" y="-1913.3" font-family="Times,serif" font-size="14.00"> types = (integer, integer, integer, integer)</text>
<text text-anchor="start" x="419" y="-1898.3" font-family="Times,serif" font-size="14.00"> keys = ()</text>
<text text-anchor="start" x="419" y="-1883.3" font-family="Times,serif" font-size="14.00"> Filter (#1 = #2)</text>
<text text-anchor="start" x="419" y="-1868.3" font-family="Times,serif" font-size="14.00"> types = (integer, integer, integer, integer)</text>
<text text-anchor="start" x="419" y="-1853.3" font-family="Times,serif" font-size="14.00"> keys = ()</text>
</g>
<!-- node2&#45;&gt;node5 -->
<g id="edge20" class="edge">
<title>node2&#45;&gt;node5</title>
<path fill="none" stroke="black" d="M389.35,-2070.39C407.44,-2056.74 428.43,-2040.91 449.58,-2024.96"/>
<polygon fill="black" stroke="black" points="451.82,-2027.65 457.69,-2018.84 447.6,-2022.07 451.82,-2027.65"/>
<text text-anchor="start" x="431.5" y="-2040.8" font-family="Times,serif" font-size="14.00">%2</text>
</g>
<!-- node9 -->
<g id="node10" class="node">
<title>node9</title>
<polygon fill="none" stroke="black" points="231,-1425.5 231,-1583.5 500,-1583.5 500,-1425.5 231,-1425.5"/>
<text text-anchor="start" x="239" y="-1568.3" font-family="Times,serif" font-size="14.00">Join %2 %6 (= #1 #2)</text>
<text text-anchor="start" x="239" y="-1553.3" font-family="Times,serif" font-size="14.00"> implementation = Unimplemented</text>
<text text-anchor="start" x="239" y="-1538.3" font-family="Times,serif" font-size="14.00"> types = (integer, integer, integer)</text>
<text text-anchor="start" x="239" y="-1523.3" font-family="Times,serif" font-size="14.00"> keys = ()</text>
<text text-anchor="start" x="239" y="-1508.3" font-family="Times,serif" font-size="14.00"> Project (#0, #1)</text>
<text text-anchor="start" x="239" y="-1493.3" font-family="Times,serif" font-size="14.00"> types = (integer, integer)</text>
<text text-anchor="start" x="239" y="-1478.3" font-family="Times,serif" font-size="14.00"> keys = ()</text>
<text text-anchor="start" x="239" y="-1463.3" font-family="Times,serif" font-size="14.00"> Negate</text>
<text text-anchor="start" x="239" y="-1448.3" font-family="Times,serif" font-size="14.00"> types = (integer, integer)</text>
<text text-anchor="start" x="239" y="-1433.3" font-family="Times,serif" font-size="14.00"> keys = ()</text>
</g>
<!-- node2&#45;&gt;node9 -->
<g id="edge4" class="edge">
<title>node2&#45;&gt;node9</title>
<path fill="none" stroke="black" d="M337.51,-2070.33C342.32,-1973.36 354.54,-1726.73 361.13,-1593.72"/>
<polygon fill="black" stroke="black" points="364.63,-1593.72 361.63,-1583.56 357.64,-1593.38 364.63,-1593.72"/>
<text text-anchor="start" x="349.5" y="-1815.8" font-family="Times,serif" font-size="14.00">%2</text>
</g>
<!-- node10 -->
<g id="node11" class="node">
<title>node10</title>
<polygon fill="none" stroke="black" points="170.5,-1253 170.5,-1351 508.5,-1351 508.5,-1253 170.5,-1253"/>
<text text-anchor="start" x="178.5" y="-1335.8" font-family="Times,serif" font-size="14.00">Union %9 %2</text>
<text text-anchor="start" x="178.5" y="-1320.8" font-family="Times,serif" font-size="14.00"> types = (integer, integer)</text>
<text text-anchor="start" x="178.5" y="-1305.8" font-family="Times,serif" font-size="14.00"> keys = ()</text>
<text text-anchor="start" x="178.5" y="-1290.8" font-family="Times,serif" font-size="14.00"> Map null, null</text>
<text text-anchor="start" x="178.5" y="-1275.8" font-family="Times,serif" font-size="14.00"> types = (integer, integer, integer?, integer?)</text>
<text text-anchor="start" x="178.5" y="-1260.8" font-family="Times,serif" font-size="14.00"> keys = ()</text>
</g>
<!-- node2&#45;&gt;node10 -->
<g id="edge9" class="edge">
<title>node2&#45;&gt;node10</title>
<path fill="none" stroke="black" d="M281.4,-2070.5C244.58,-2037.93 202.5,-1988.55 202.5,-1933 202.5,-1933 202.5,-1933 202.5,-1503.5 202.5,-1467.6 204.19,-1456.45 221.5,-1425 234.92,-1400.62 254.49,-1377.63 273.86,-1358.31"/>
<polygon fill="black" stroke="black" points="276.54,-1360.58 281.26,-1351.1 271.65,-1355.57 276.54,-1360.58"/>
<text text-anchor="start" x="202.5" y="-1710.8" font-family="Times,serif" font-size="14.00">%2</text>
</g>
<!-- node3 -->
<g id="node4" class="node">
<title>node3</title>
<polygon fill="none" stroke="black" points="562,-2213 562,-2266 771,-2266 771,-2213 562,-2213"/>
<text text-anchor="start" x="570" y="-2250.8" font-family="Times,serif" font-size="14.00">Get rej_nulls.public.s (u45)</text>
<text text-anchor="start" x="570" y="-2235.8" font-family="Times,serif" font-size="14.00"> types = (integer, integer)</text>
<text text-anchor="start" x="570" y="-2220.8" font-family="Times,serif" font-size="14.00"> keys = ()</text>
</g>
<!-- node3&#45;&gt;node4 -->
<g id="edge22" class="edge">
<title>node3&#45;&gt;node4</title>
<path fill="none" stroke="black" d="M666.5,-2212.8C666.5,-2198.79 666.5,-2180.93 666.5,-2164.2"/>
<polygon fill="black" stroke="black" points="670,-2163.98 666.5,-2153.98 663,-2163.98 670,-2163.98"/>
<text text-anchor="start" x="666.5" y="-2175.8" font-family="Times,serif" font-size="14.00">%3</text>
</g>
<!-- node4&#45;&gt;node5 -->
<g id="edge10" class="edge">
<title>node4&#45;&gt;node5</title>
<path fill="none" stroke="black" d="M644.71,-2070.16C637.84,-2057.29 629.94,-2042.5 621.93,-2027.5"/>
<polygon fill="black" stroke="black" points="625.01,-2025.83 617.21,-2018.65 618.83,-2029.12 625.01,-2025.83"/>
<text text-anchor="start" x="632.5" y="-2040.8" font-family="Times,serif" font-size="14.00">%4</text>
</g>
<!-- node7 -->
<g id="node8" class="node">
<title>node7</title>
<polygon fill="none" stroke="black" points="654,-1425.5 654,-1583.5 923,-1583.5 923,-1425.5 654,-1425.5"/>
<text text-anchor="start" x="662" y="-1568.3" font-family="Times,serif" font-size="14.00">Join %4 %6 (= #0 #2)</text>
<text text-anchor="start" x="662" y="-1553.3" font-family="Times,serif" font-size="14.00"> implementation = Unimplemented</text>
<text text-anchor="start" x="662" y="-1538.3" font-family="Times,serif" font-size="14.00"> types = (integer, integer, integer)</text>
<text text-anchor="start" x="662" y="-1523.3" font-family="Times,serif" font-size="14.00"> keys = ()</text>
<text text-anchor="start" x="662" y="-1508.3" font-family="Times,serif" font-size="14.00"> Project (#0, #1)</text>
<text text-anchor="start" x="662" y="-1493.3" font-family="Times,serif" font-size="14.00"> types = (integer, integer)</text>
<text text-anchor="start" x="662" y="-1478.3" font-family="Times,serif" font-size="14.00"> keys = ()</text>
<text text-anchor="start" x="662" y="-1463.3" font-family="Times,serif" font-size="14.00"> Negate</text>
<text text-anchor="start" x="662" y="-1448.3" font-family="Times,serif" font-size="14.00"> types = (integer, integer)</text>
<text text-anchor="start" x="662" y="-1433.3" font-family="Times,serif" font-size="14.00"> keys = ()</text>
</g>
<!-- node4&#45;&gt;node7 -->
<g id="edge13" class="edge">
<title>node4&#45;&gt;node7</title>
<path fill="none" stroke="black" d="M709.41,-2070.37C764.95,-2014.42 858.73,-1907.59 893.5,-1794 914.19,-1726.43 917.11,-1701.61 893.5,-1635 888.17,-1619.98 880.28,-1605.42 871.17,-1591.83"/>
<polygon fill="black" stroke="black" points="873.95,-1589.7 865.35,-1583.5 868.21,-1593.71 873.95,-1589.7"/>
<text text-anchor="start" x="886.5" y="-1815.8" font-family="Times,serif" font-size="14.00">%4</text>
</g>
<!-- node8 -->
<g id="node9" class="node">
<title>node8</title>
<polygon fill="none" stroke="black" points="619,-1230.5 619,-1373.5 958,-1373.5 958,-1230.5 619,-1230.5"/>
<text text-anchor="start" x="627" y="-1358.3" font-family="Times,serif" font-size="14.00">Union %7 %4</text>
<text text-anchor="start" x="627" y="-1343.3" font-family="Times,serif" font-size="14.00"> types = (integer, integer)</text>
<text text-anchor="start" x="627" y="-1328.3" font-family="Times,serif" font-size="14.00"> keys = ()</text>
<text text-anchor="start" x="627" y="-1313.3" font-family="Times,serif" font-size="14.00"> Map null, null</text>
<text text-anchor="start" x="627" y="-1298.3" font-family="Times,serif" font-size="14.00"> types = (integer, integer, integer?, integer?)</text>
<text text-anchor="start" x="627" y="-1283.3" font-family="Times,serif" font-size="14.00"> keys = ()</text>
<text text-anchor="start" x="627" y="-1268.3" font-family="Times,serif" font-size="14.00"> Project (#2, #3, #0, #1)</text>
<text text-anchor="start" x="627" y="-1253.3" font-family="Times,serif" font-size="14.00"> types = (integer?, integer?, integer, integer)</text>
<text text-anchor="start" x="627" y="-1238.3" font-family="Times,serif" font-size="14.00"> keys = ()</text>
</g>
<!-- node4&#45;&gt;node8 -->
<g id="edge26" class="edge">
<title>node4&#45;&gt;node8</title>
<path fill="none" stroke="black" d="M801.39,-2082.74C877.9,-2057.93 958.5,-2012.85 958.5,-1933 958.5,-1933 958.5,-1933 958.5,-1503.5 958.5,-1456.19 930.63,-1414.32 897.45,-1381.24"/>
<polygon fill="black" stroke="black" points="899.47,-1378.32 889.84,-1373.89 894.6,-1383.36 899.47,-1378.32"/>
<text text-anchor="start" x="958.5" y="-1710.8" font-family="Times,serif" font-size="14.00">%4</text>
</g>
<!-- node6 -->
<g id="node7" class="node">
<title>node6</title>
<polygon fill="none" stroke="black" points="563,-1635.5 563,-1793.5 884,-1793.5 884,-1635.5 563,-1635.5"/>
<text text-anchor="start" x="571" y="-1778.3" font-family="Times,serif" font-size="14.00">Let l4 =</text>
<text text-anchor="start" x="571" y="-1763.3" font-family="Times,serif" font-size="14.00"> Get %5 (l3)</text>
<text text-anchor="start" x="571" y="-1748.3" font-family="Times,serif" font-size="14.00"> types = (integer, integer, integer, integer)</text>
<text text-anchor="start" x="571" y="-1733.3" font-family="Times,serif" font-size="14.00"> keys = ()</text>
<text text-anchor="start" x="571" y="-1718.3" font-family="Times,serif" font-size="14.00"> Project (#1)</text>
<text text-anchor="start" x="571" y="-1703.3" font-family="Times,serif" font-size="14.00"> types = (integer)</text>
<text text-anchor="start" x="571" y="-1688.3" font-family="Times,serif" font-size="14.00"> keys = ()</text>
<text text-anchor="start" x="571" y="-1673.3" font-family="Times,serif" font-size="14.00"> Distinct group=(#0)</text>
<text text-anchor="start" x="571" y="-1658.3" font-family="Times,serif" font-size="14.00"> types = (integer)</text>
<text text-anchor="start" x="571" y="-1643.3" font-family="Times,serif" font-size="14.00"> keys = ((#0))</text>
</g>
<!-- node5&#45;&gt;node6 -->
<g id="edge15" class="edge">
<title>node5&#45;&gt;node6</title>
<path fill="none" stroke="black" d="M632.01,-1845.21C642.05,-1830.98 652.46,-1816.22 662.5,-1801.98"/>
<polygon fill="black" stroke="black" points="665.47,-1803.85 668.37,-1793.66 659.75,-1799.81 665.47,-1803.85"/>
<text text-anchor="start" x="651.5" y="-1815.8" font-family="Times,serif" font-size="14.00">%5</text>
</g>
<!-- node11 -->
<g id="node12" class="node">
<title>node11</title>
<polygon fill="none" stroke="black" points="408.5,-1125.5 408.5,-1178.5 746.5,-1178.5 746.5,-1125.5 408.5,-1125.5"/>
<text text-anchor="start" x="416.5" y="-1163.3" font-family="Times,serif" font-size="14.00">Union %10 %5</text>
<text text-anchor="start" x="416.5" y="-1148.3" font-family="Times,serif" font-size="14.00"> types = (integer, integer, integer?, integer?)</text>
<text text-anchor="start" x="416.5" y="-1133.3" font-family="Times,serif" font-size="14.00"> keys = ()</text>
</g>
<!-- node5&#45;&gt;node11 -->
<g id="edge5" class="edge">
<title>node5&#45;&gt;node11</title>
<path fill="none" stroke="black" d="M559.59,-1845.26C557.59,-1828.3 555.76,-1810.61 554.5,-1794 537.01,-1563.9 562.91,-1286.29 573.41,-1188.87"/>
<polygon fill="black" stroke="black" points="576.92,-1189.01 574.52,-1178.69 569.96,-1188.25 576.92,-1189.01"/>
<text text-anchor="start" x="553.5" y="-1500.8" font-family="Times,serif" font-size="14.00">%5</text>
</g>
<!-- node6&#45;&gt;node7 -->
<g id="edge19" class="edge">
<title>node6&#45;&gt;node7</title>
<path fill="none" stroke="black" d="M747.89,-1635.46C752.19,-1621.69 756.7,-1607.27 761.08,-1593.26"/>
<polygon fill="black" stroke="black" points="764.44,-1594.22 764.08,-1583.63 757.76,-1592.14 764.44,-1594.22"/>
<text text-anchor="start" x="757.5" y="-1605.8" font-family="Times,serif" font-size="14.00">%6</text>
</g>
<!-- node6&#45;&gt;node9 -->
<g id="edge29" class="edge">
<title>node6&#45;&gt;node9</title>
<path fill="none" stroke="black" d="M589.18,-1635.46C562.97,-1620.23 535.4,-1604.22 508.92,-1588.83"/>
<polygon fill="black" stroke="black" points="510.39,-1585.63 499.98,-1583.63 506.87,-1591.68 510.39,-1585.63"/>
<text text-anchor="start" x="554.5" y="-1605.8" font-family="Times,serif" font-size="14.00">%6</text>
</g>
<!-- node7&#45;&gt;node8 -->
<g id="edge23" class="edge">
<title>node7&#45;&gt;node8</title>
<path fill="none" stroke="black" d="M788.5,-1425.41C788.5,-1411.83 788.5,-1397.67 788.5,-1384.02"/>
<polygon fill="black" stroke="black" points="792,-1383.69 788.5,-1373.69 785,-1383.69 792,-1383.69"/>
<text text-anchor="start" x="788.5" y="-1395.8" font-family="Times,serif" font-size="14.00">%7</text>
</g>
<!-- node12 -->
<g id="node13" class="node">
<title>node12</title>
<polygon fill="none" stroke="black" points="424.5,-998 424.5,-1066 780.5,-1066 780.5,-998 424.5,-998"/>
<text text-anchor="start" x="432.5" y="-1050.8" font-family="Times,serif" font-size="14.00">Let l5 =</text>
<text text-anchor="start" x="432.5" y="-1035.8" font-family="Times,serif" font-size="14.00"> Union %8 %11</text>
<text text-anchor="start" x="432.5" y="-1020.8" font-family="Times,serif" font-size="14.00"> types = (integer?, integer?, integer?, integer?)</text>
<text text-anchor="start" x="432.5" y="-1005.8" font-family="Times,serif" font-size="14.00"> keys = ()</text>
</g>
<!-- node8&#45;&gt;node12 -->
<g id="edge7" class="edge">
<title>node8&#45;&gt;node12</title>
<path fill="none" stroke="black" d="M788.44,-1230.27C785.3,-1195.88 776.7,-1155.51 755.5,-1125 740.05,-1102.77 717.33,-1085 694.11,-1071.23"/>
<polygon fill="black" stroke="black" points="695.61,-1068.07 685.19,-1066.15 692.15,-1074.15 695.61,-1068.07"/>
<text text-anchor="start" x="778.5" y="-1148.3" font-family="Times,serif" font-size="14.00">%8</text>
</g>
<!-- node9&#45;&gt;node10 -->
<g id="edge6" class="edge">
<title>node9&#45;&gt;node10</title>
<path fill="none" stroke="black" d="M355.37,-1425.41C352.59,-1403.96 349.63,-1381.09 347.02,-1360.99"/>
<polygon fill="black" stroke="black" points="350.49,-1360.53 345.73,-1351.06 343.55,-1361.43 350.49,-1360.53"/>
<text text-anchor="start" x="352.5" y="-1395.8" font-family="Times,serif" font-size="14.00">%9</text>
</g>
<!-- node10&#45;&gt;node11 -->
<g id="edge24" class="edge">
<title>node10&#45;&gt;node11</title>
<path fill="none" stroke="black" d="M405.13,-1252.94C431.19,-1234.62 461.76,-1214.06 490.5,-1197 498.3,-1192.37 506.65,-1187.75 514.98,-1183.33"/>
<polygon fill="black" stroke="black" points="516.73,-1186.37 523.98,-1178.64 513.49,-1180.16 516.73,-1186.37"/>
<text text-anchor="start" x="490.5" y="-1200.8" font-family="Times,serif" font-size="14.00">%10</text>
</g>
<!-- node11&#45;&gt;node12 -->
<g id="edge30" class="edge">
<title>node11&#45;&gt;node12</title>
<path fill="none" stroke="black" d="M582.92,-1125.4C585.97,-1111.03 589.85,-1092.71 593.35,-1076.19"/>
<polygon fill="black" stroke="black" points="596.82,-1076.69 595.47,-1066.18 589.97,-1075.24 596.82,-1076.69"/>
<text text-anchor="start" x="589.5" y="-1095.8" font-family="Times,serif" font-size="14.00">%11</text>
</g>
<!-- node15 -->
<g id="node16" class="node">
<title>node15</title>
<polygon fill="none" stroke="black" points="335.5,-765.5 335.5,-938.5 827.5,-938.5 827.5,-765.5 335.5,-765.5"/>
<text text-anchor="start" x="343.5" y="-923.3" font-family="Times,serif" font-size="14.00">Let l7 =</text>
<text text-anchor="start" x="343.5" y="-908.3" font-family="Times,serif" font-size="14.00"> Join %12 %14</text>
<text text-anchor="start" x="343.5" y="-893.3" font-family="Times,serif" font-size="14.00"> implementation = Unimplemented</text>
<text text-anchor="start" x="343.5" y="-878.3" font-family="Times,serif" font-size="14.00"> types = (integer?, integer?, integer?, integer?, integer?, integer?)</text>
<text text-anchor="start" x="343.5" y="-863.3" font-family="Times,serif" font-size="14.00"> keys = ()</text>
<text text-anchor="start" x="343.5" y="-848.3" font-family="Times,serif" font-size="14.00"> Project (#0..#5)</text>
<text text-anchor="start" x="343.5" y="-833.3" font-family="Times,serif" font-size="14.00"> types = (integer?, integer?, integer?, integer?, integer?, integer?)</text>
<text text-anchor="start" x="343.5" y="-818.3" font-family="Times,serif" font-size="14.00"> keys = ()</text>
<text text-anchor="start" x="343.5" y="-803.3" font-family="Times,serif" font-size="14.00"> Filter (#2 = #5)</text>
<text text-anchor="start" x="343.5" y="-788.3" font-family="Times,serif" font-size="14.00"> types = (integer?, integer?, integer, integer?, integer?, integer)</text>
<text text-anchor="start" x="343.5" y="-773.3" font-family="Times,serif" font-size="14.00"> keys = ()</text>
</g>
<!-- node12&#45;&gt;node15 -->
<g id="edge1" class="edge">
<title>node12&#45;&gt;node15</title>
<path fill="none" stroke="black" d="M598.6,-997.94C596.94,-983.9 594.92,-966.74 592.85,-949.21"/>
<polygon fill="black" stroke="black" points="596.28,-948.39 591.63,-938.87 589.33,-949.21 596.28,-948.39"/>
<text text-anchor="start" x="594.5" y="-960.8" font-family="Times,serif" font-size="14.00">%12</text>
</g>
<!-- node13 -->
<g id="node14" class="node">
<title>node13</title>
<polygon fill="none" stroke="black" points="171,-1125.5 171,-1178.5 390,-1178.5 390,-1125.5 171,-1125.5"/>
<text text-anchor="start" x="179" y="-1163.3" font-family="Times,serif" font-size="14.00">Get rej_nulls.public.t (u47)</text>
<text text-anchor="start" x="179" y="-1148.3" font-family="Times,serif" font-size="14.00"> types = (integer?, integer?)</text>
<text text-anchor="start" x="179" y="-1133.3" font-family="Times,serif" font-size="14.00"> keys = ()</text>
</g>
<!-- node13&#45;&gt;node14 -->
<g id="edge8" class="edge">
<title>node13&#45;&gt;node14</title>
<path fill="none" stroke="black" d="M278.55,-1125.4C277.62,-1113.29 276.49,-1098.38 275.4,-1084.1"/>
<polygon fill="black" stroke="black" points="278.87,-1083.57 274.62,-1073.86 271.89,-1084.1 278.87,-1083.57"/>
<text text-anchor="start" x="276.5" y="-1095.8" font-family="Times,serif" font-size="14.00">%13</text>
</g>
<!-- node14&#45;&gt;node15 -->
<g id="edge3" class="edge">
<title>node14&#45;&gt;node15</title>
<path fill="none" stroke="black" d="M342.23,-990.39C366.6,-976.39 394.97,-960.1 423.47,-943.74"/>
<polygon fill="black" stroke="black" points="425.39,-946.67 432.32,-938.66 421.91,-940.6 425.39,-946.67"/>
<text text-anchor="start" x="398.5" y="-960.8" font-family="Times,serif" font-size="14.00">%14</text>
</g>
<!-- node17 -->
<g id="node18" class="node">
<title>node17</title>
<polygon fill="none" stroke="black" points="322.5,-345.5 322.5,-503.5 602.5,-503.5 602.5,-345.5 322.5,-345.5"/>
<text text-anchor="start" x="330.5" y="-488.3" font-family="Times,serif" font-size="14.00">Join %14 %16 (= #1 #2)</text>
<text text-anchor="start" x="330.5" y="-473.3" font-family="Times,serif" font-size="14.00"> implementation = Unimplemented</text>
<text text-anchor="start" x="330.5" y="-458.3" font-family="Times,serif" font-size="14.00"> types = (integer?, integer?, integer)</text>
<text text-anchor="start" x="330.5" y="-443.3" font-family="Times,serif" font-size="14.00"> keys = ()</text>
<text text-anchor="start" x="330.5" y="-428.3" font-family="Times,serif" font-size="14.00"> Project (#0, #1)</text>
<text text-anchor="start" x="330.5" y="-413.3" font-family="Times,serif" font-size="14.00"> types = (integer?, integer?)</text>
<text text-anchor="start" x="330.5" y="-398.3" font-family="Times,serif" font-size="14.00"> keys = ()</text>
<text text-anchor="start" x="330.5" y="-383.3" font-family="Times,serif" font-size="14.00"> Negate</text>
<text text-anchor="start" x="330.5" y="-368.3" font-family="Times,serif" font-size="14.00"> types = (integer?, integer?)</text>
<text text-anchor="start" x="330.5" y="-353.3" font-family="Times,serif" font-size="14.00"> keys = ()</text>
</g>
<!-- node14&#45;&gt;node17 -->
<g id="edge14" class="edge">
<title>node14&#45;&gt;node17</title>
<path fill="none" stroke="black" d="M269.61,-990.45C265.58,-889.59 259.4,-630.18 298.5,-555 306.83,-538.98 318.13,-524.29 330.91,-511.02"/>
<polygon fill="black" stroke="black" points="333.55,-513.34 338.16,-503.8 328.61,-508.38 333.55,-513.34"/>
<text text-anchor="start" x="268.5" y="-735.8" font-family="Times,serif" font-size="14.00">%14</text>
</g>
<!-- node18 -->
<g id="node19" class="node">
<title>node18</title>
<polygon fill="none" stroke="black" points="216.5,-150.5 216.5,-293.5 708.5,-293.5 708.5,-150.5 216.5,-150.5"/>
<text text-anchor="start" x="224.5" y="-278.3" font-family="Times,serif" font-size="14.00">Union %17 %14</text>
<text text-anchor="start" x="224.5" y="-263.3" font-family="Times,serif" font-size="14.00"> types = (integer?, integer?)</text>
<text text-anchor="start" x="224.5" y="-248.3" font-family="Times,serif" font-size="14.00"> keys = ()</text>
<text text-anchor="start" x="224.5" y="-233.3" font-family="Times,serif" font-size="14.00"> Map null, null, null, null</text>
<text text-anchor="start" x="224.5" y="-218.3" font-family="Times,serif" font-size="14.00"> types = (integer?, integer?, integer?, integer?, integer?, integer?)</text>
<text text-anchor="start" x="224.5" y="-203.3" font-family="Times,serif" font-size="14.00"> keys = ()</text>
<text text-anchor="start" x="224.5" y="-188.3" font-family="Times,serif" font-size="14.00"> Project (#2..#5, #0, #1)</text>
<text text-anchor="start" x="224.5" y="-173.3" font-family="Times,serif" font-size="14.00"> types = (integer?, integer?, integer?, integer?, integer?, integer?)</text>
<text text-anchor="start" x="224.5" y="-158.3" font-family="Times,serif" font-size="14.00"> keys = ()</text>
</g>
<!-- node14&#45;&gt;node18 -->
<g id="edge28" class="edge">
<title>node14&#45;&gt;node18</title>
<path fill="none" stroke="black" d="M252.43,-990.26C237.59,-954.81 219.5,-901.61 219.5,-853 219.5,-853 219.5,-853 219.5,-423.5 219.5,-371.48 253.05,-330.43 295.21,-299.39"/>
<polygon fill="black" stroke="black" points="297.35,-302.16 303.47,-293.51 293.29,-296.46 297.35,-302.16"/>
<text text-anchor="start" x="219.5" y="-630.8" font-family="Times,serif" font-size="14.00">%14</text>
</g>
<!-- node16 -->
<g id="node17" class="node">
<title>node16</title>
<polygon fill="none" stroke="black" points="307.5,-555.5 307.5,-713.5 783.5,-713.5 783.5,-555.5 307.5,-555.5"/>
<text text-anchor="start" x="315.5" y="-698.3" font-family="Times,serif" font-size="14.00">Let l8 =</text>
<text text-anchor="start" x="315.5" y="-683.3" font-family="Times,serif" font-size="14.00"> Get %15 (l7)</text>
<text text-anchor="start" x="315.5" y="-668.3" font-family="Times,serif" font-size="14.00"> types = (integer?, integer?, integer, integer?, integer?, integer)</text>
<text text-anchor="start" x="315.5" y="-653.3" font-family="Times,serif" font-size="14.00"> keys = ()</text>
<text text-anchor="start" x="315.5" y="-638.3" font-family="Times,serif" font-size="14.00"> Project (#2)</text>
<text text-anchor="start" x="315.5" y="-623.3" font-family="Times,serif" font-size="14.00"> types = (integer)</text>
<text text-anchor="start" x="315.5" y="-608.3" font-family="Times,serif" font-size="14.00"> keys = ()</text>
<text text-anchor="start" x="315.5" y="-593.3" font-family="Times,serif" font-size="14.00"> Distinct group=(#0)</text>
<text text-anchor="start" x="315.5" y="-578.3" font-family="Times,serif" font-size="14.00"> types = (integer)</text>
<text text-anchor="start" x="315.5" y="-563.3" font-family="Times,serif" font-size="14.00"> keys = ((#0))</text>
</g>
<!-- node15&#45;&gt;node16 -->
<g id="edge27" class="edge">
<title>node15&#45;&gt;node16</title>
<path fill="none" stroke="black" d="M567.17,-765.21C564.88,-751.51 562.51,-737.32 560.21,-723.58"/>
<polygon fill="black" stroke="black" points="563.66,-722.95 558.56,-713.66 556.75,-724.1 563.66,-722.95"/>
<text text-anchor="start" x="563.5" y="-735.8" font-family="Times,serif" font-size="14.00">%15</text>
</g>
<!-- node19 -->
<g id="node20" class="node">
<title>node19</title>
<polygon fill="none" stroke="black" points="353.5,-0.5 353.5,-98.5 845.5,-98.5 845.5,-0.5 353.5,-0.5"/>
<text text-anchor="start" x="361.5" y="-83.3" font-family="Times,serif" font-size="14.00">Union %18 %15</text>
<text text-anchor="start" x="361.5" y="-68.3" font-family="Times,serif" font-size="14.00"> types = (integer?, integer?, integer?, integer?, integer?, integer?)</text>
<text text-anchor="start" x="361.5" y="-53.3" font-family="Times,serif" font-size="14.00"> keys = ()</text>
<text text-anchor="start" x="361.5" y="-38.3" font-family="Times,serif" font-size="14.00"> Filter (#0 &gt; 0)</text>
<text text-anchor="start" x="361.5" y="-23.3" font-family="Times,serif" font-size="14.00"> types = (integer, integer?, integer?, integer?, integer?, integer?)</text>
<text text-anchor="start" x="361.5" y="-8.3" font-family="Times,serif" font-size="14.00"> keys = ()</text>
</g>
<!-- node15&#45;&gt;node19 -->
<g id="edge18" class="edge">
<title>node15&#45;&gt;node19</title>
<path fill="none" stroke="black" d="M743.1,-765.46C761.76,-750.31 778.93,-733.16 792.5,-714 813.25,-684.71 811.5,-671.4 811.5,-635.5 811.5,-635.5 811.5,-635.5 811.5,-221 811.5,-169.53 773.08,-130.98 728.96,-103.68"/>
<polygon fill="black" stroke="black" points="730.74,-100.67 720.36,-98.55 727.15,-106.68 730.74,-100.67"/>
<text text-anchor="start" x="811.5" y="-420.8" font-family="Times,serif" font-size="14.00">%15</text>
</g>
<!-- node16&#45;&gt;node17 -->
<g id="edge2" class="edge">
<title>node16&#45;&gt;node17</title>
<path fill="none" stroke="black" d="M514.36,-555.46C508.86,-541.69 503.11,-527.27 497.52,-513.26"/>
<polygon fill="black" stroke="black" points="500.64,-511.63 493.68,-503.63 494.13,-514.22 500.64,-511.63"/>
<text text-anchor="start" x="505.5" y="-525.8" font-family="Times,serif" font-size="14.00">%16</text>
</g>
<!-- node17&#45;&gt;node18 -->
<g id="edge25" class="edge">
<title>node17&#45;&gt;node18</title>
<path fill="none" stroke="black" d="M462.5,-345.41C462.5,-331.83 462.5,-317.67 462.5,-304.02"/>
<polygon fill="black" stroke="black" points="466,-303.69 462.5,-293.69 459,-303.69 466,-303.69"/>
<text text-anchor="start" x="462.5" y="-315.8" font-family="Times,serif" font-size="14.00">%17</text>
</g>
<!-- node18&#45;&gt;node19 -->
<g id="edge17" class="edge">
<title>node18&#45;&gt;node19</title>
<path fill="none" stroke="black" d="M519.41,-150.17C531.09,-135.64 543.23,-120.53 554.42,-106.61"/>
<polygon fill="black" stroke="black" points="557.35,-108.54 560.89,-98.56 551.89,-104.16 557.35,-108.54"/>
<text text-anchor="start" x="542.5" y="-120.8" font-family="Times,serif" font-size="14.00">%18</text>
</g>
</g>
</svg>
