<?xml version="1.0" encoding="UTF-8" standalone="no"?>
<!DOCTYPE svg PUBLIC "-//W3C//DTD SVG 1.1//EN"
 "http://www.w3.org/Graphics/SVG/1.1/DTD/svg11.dtd">
<!-- Generated by graphviz version 2.43.0 (0)
 -->
<!-- Title: G Pages: 1 -->
<svg width="862pt" height="1072pt"
 viewBox="0.00 0.00 861.50 1072.00" xmlns="http://www.w3.org/2000/svg" xmlns:xlink="http://www.w3.org/1999/xlink">
<g id="graph0" class="graph" transform="scale(1 1) rotate(0) translate(4 1068)">
<title>G</title>
<polygon fill="white" stroke="transparent" points="-4,4 -4,-1068 857.5,-1068 857.5,4 -4,4"/>
<!-- node0 -->
<g id="node1" class="node">
<title>node0</title>
<polygon fill="none" stroke="black" points="284,-1025.5 284,-1063.5 385,-1063.5 385,-1025.5 284,-1025.5"/>
<text text-anchor="start" x="292" y="-1048.3" font-family="Times,serif" font-size="14.00">Let l0 =</text>
<text text-anchor="start" x="292" y="-1033.3" font-family="Times,serif" font-size="14.00"> Constant ()</text>
</g>
<!-- node2 -->
<g id="node3" class="node">
<title>node2</title>
<polygon fill="none" stroke="black" points="0,-905.5 0,-943.5 269,-943.5 269,-905.5 0,-905.5"/>
<text text-anchor="start" x="8" y="-928.3" font-family="Times,serif" font-size="14.00">Join %0 %1</text>
<text text-anchor="start" x="8" y="-913.3" font-family="Times,serif" font-size="14.00"> implementation = Unimplemented</text>
</g>
<!-- node0&#45;&gt;node2 -->
<g id="edge9" class="edge">
<title>node0&#45;&gt;node2</title>
<path fill="none" stroke="black" d="M297.68,-1025.36C286.59,-1019.68 274.45,-1013.26 263.5,-1007 231.4,-988.66 195.97,-966.1 170.37,-949.36"/>
<polygon fill="black" stroke="black" points="172.03,-946.27 161.75,-943.71 168.19,-952.12 172.03,-946.27"/>
<text text-anchor="start" x="263.5" y="-995.8" font-family="Times,serif" font-size="14.00">%0</text>
</g>
<!-- node4 -->
<g id="node5" class="node">
<title>node4</title>
<polygon fill="none" stroke="black" points="462,-875.5 462,-973.5 731,-973.5 731,-875.5 462,-875.5"/>
<text text-anchor="start" x="470" y="-958.3" font-family="Times,serif" font-size="14.00">Let l1 =</text>
<text text-anchor="start" x="470" y="-943.3" font-family="Times,serif" font-size="14.00"> Join %0 %3</text>
<text text-anchor="start" x="470" y="-928.3" font-family="Times,serif" font-size="14.00"> implementation = Unimplemented</text>
<text text-anchor="start" x="470" y="-913.3" font-family="Times,serif" font-size="14.00"> Map #0, #1, 1</text>
<text text-anchor="start" x="470" y="-898.3" font-family="Times,serif" font-size="14.00"> Project (#2..=#4)</text>
<text text-anchor="start" x="470" y="-883.3" font-family="Times,serif" font-size="14.00"> Project (#2)</text>
</g>
<!-- node0&#45;&gt;node4 -->
<g id="edge1" class="edge">
<title>node0&#45;&gt;node4</title>
<path fill="none" stroke="black" d="M374.58,-1025.45C402.86,-1012.71 442.29,-994.95 480.09,-977.93"/>
<polygon fill="black" stroke="black" points="481.97,-980.92 489.65,-973.62 479.1,-974.54 481.97,-980.92"/>
<text text-anchor="start" x="441.5" y="-995.8" font-family="Times,serif" font-size="14.00">%0</text>
</g>
<!-- node8 -->
<g id="node9" class="node">
<title>node8</title>
<polygon fill="none" stroke="black" points="315.5,-818.5 315.5,-856.5 461.5,-856.5 461.5,-818.5 315.5,-818.5"/>
<text text-anchor="start" x="323.5" y="-841.3" font-family="Times,serif" font-size="14.00">Get %0 (l0)</text>
<text text-anchor="start" x="323.5" y="-826.3" font-family="Times,serif" font-size="14.00"> Distinct group=()</text>
</g>
<!-- node0&#45;&gt;node8 -->
<g id="edge19" class="edge">
<title>node0&#45;&gt;node8</title>
<path fill="none" stroke="black" d="M339.29,-1025.31C348.76,-989.37 369.91,-909.06 381.15,-866.39"/>
<polygon fill="black" stroke="black" points="384.56,-867.21 383.72,-856.65 377.79,-865.43 384.56,-867.21"/>
<text text-anchor="start" x="346.5" y="-995.8" font-family="Times,serif" font-size="14.00">%0</text>
</g>
<!-- node10 -->
<g id="node11" class="node">
<title>node10</title>
<polygon fill="none" stroke="black" points="299,-313.5 299,-366.5 568,-366.5 568,-313.5 299,-313.5"/>
<text text-anchor="start" x="307" y="-351.3" font-family="Times,serif" font-size="14.00">Join %9 %0</text>
<text text-anchor="start" x="307" y="-336.3" font-family="Times,serif" font-size="14.00"> implementation = Unimplemented</text>
<text text-anchor="start" x="307" y="-321.3" font-family="Times,serif" font-size="14.00"> Project ()</text>
</g>
<!-- node0&#45;&gt;node10 -->
<g id="edge18" class="edge">
<title>node0&#45;&gt;node10</title>
<path fill="none" stroke="black" d="M325.74,-1025.17C315.67,-1002.36 300.5,-961.96 300.5,-925.5 300.5,-925.5 300.5,-925.5 300.5,-435.5 300.5,-406.87 321.24,-386.11 346.33,-371.48"/>
<polygon fill="black" stroke="black" points="348.26,-374.42 355.36,-366.56 344.91,-368.27 348.26,-374.42"/>
<text text-anchor="start" x="300.5" y="-626.8" font-family="Times,serif" font-size="14.00">%0</text>
</g>
<!-- node1 -->
<g id="node2" class="node">
<title>node1</title>
<polygon fill="none" stroke="black" points="32.5,-1026.5 32.5,-1062.5 236.5,-1062.5 236.5,-1026.5 32.5,-1026.5"/>
<text text-anchor="start" x="40.5" y="-1040.8" font-family="Times,serif" font-size="14.00">Get types.public.t2 (u141)</text>
</g>
<!-- node1&#45;&gt;node2 -->
<g id="edge2" class="edge">
<title>node1&#45;&gt;node2</title>
<path fill="none" stroke="black" d="M134.5,-1026.34C134.5,-1007.36 134.5,-976.47 134.5,-953.88"/>
<polygon fill="black" stroke="black" points="138,-953.84 134.5,-943.84 131,-953.84 138,-953.84"/>
<text text-anchor="start" x="134.5" y="-995.8" font-family="Times,serif" font-size="14.00">%1</text>
</g>
<!-- node14 -->
<g id="node15" class="node">
<title>node14</title>
<polygon fill="none" stroke="black" points="11,-0.5 11,-83.5 280,-83.5 280,-0.5 11,-0.5"/>
<text text-anchor="start" x="19" y="-68.3" font-family="Times,serif" font-size="14.00">Join %2 %13</text>
<text text-anchor="start" x="19" y="-53.3" font-family="Times,serif" font-size="14.00"> implementation = Unimplemented</text>
<text text-anchor="start" x="19" y="-38.3" font-family="Times,serif" font-size="14.00"> Project (#0..=#2)</text>
<text text-anchor="start" x="19" y="-23.3" font-family="Times,serif" font-size="14.00"> Project (#0..=#2)</text>
<text text-anchor="start" x="19" y="-8.3" font-family="Times,serif" font-size="14.00"> Project (#2)</text>
</g>
<!-- node2&#45;&gt;node14 -->
<g id="edge6" class="edge">
<title>node2&#45;&gt;node14</title>
<path fill="none" stroke="black" d="M133.63,-905.43C132.2,-874.1 129.5,-807.66 129.5,-751.5 129.5,-751.5 129.5,-751.5 129.5,-152.5 129.5,-133.13 131.98,-112.03 134.99,-93.57"/>
<polygon fill="black" stroke="black" points="138.46,-94.06 136.7,-83.61 131.56,-92.88 138.46,-94.06"/>
<text text-anchor="start" x="129.5" y="-432.8" font-family="Times,serif" font-size="14.00">%2</text>
</g>
<!-- node3 -->
<g id="node4" class="node">
<title>node3</title>
<polygon fill="none" stroke="black" points="494.5,-1026.5 494.5,-1062.5 698.5,-1062.5 698.5,-1026.5 494.5,-1026.5"/>
<text text-anchor="start" x="502.5" y="-1040.8" font-family="Times,serif" font-size="14.00">Get types.public.t1 (u139)</text>
</g>
<!-- node3&#45;&gt;node4 -->
<g id="edge4" class="edge">
<title>node3&#45;&gt;node4</title>
<path fill="none" stroke="black" d="M596.5,-1026.34C596.5,-1014.96 596.5,-999.31 596.5,-983.72"/>
<polygon fill="black" stroke="black" points="600,-983.54 596.5,-973.54 593,-983.54 600,-983.54"/>
<text text-anchor="start" x="596.5" y="-995.8" font-family="Times,serif" font-size="14.00">%3</text>
</g>
<!-- node5 -->
<g id="node6" class="node">
<title>node5</title>
<polygon fill="none" stroke="black" points="390,-701.5 390,-799.5 803,-799.5 803,-701.5 390,-701.5"/>
<text text-anchor="start" x="398" y="-784.3" font-family="Times,serif" font-size="14.00">Get %4 (l1)</text>
<text text-anchor="start" x="398" y="-769.3" font-family="Times,serif" font-size="14.00"> Reduce group=()</text>
<text text-anchor="start" x="398" y="-754.3" font-family="Times,serif" font-size="14.00"> agg count(true)</text>
<text text-anchor="start" x="398" y="-739.3" font-family="Times,serif" font-size="14.00"> Filter (#0 &gt; 1)</text>
<text text-anchor="start" x="398" y="-724.3" font-family="Times,serif" font-size="14.00"> Project ()</text>
<text text-anchor="start" x="398" y="-709.3" font-family="Times,serif" font-size="14.00"> Map (err: more than one record produced in subquery)</text>
</g>
<!-- node4&#45;&gt;node5 -->
<g id="edge14" class="edge">
<title>node4&#45;&gt;node5</title>
<path fill="none" stroke="black" d="M596.5,-875.13C596.5,-854.81 596.5,-830.99 596.5,-809.72"/>
<polygon fill="black" stroke="black" points="600,-809.51 596.5,-799.51 593,-809.51 600,-809.51"/>
<text text-anchor="start" x="596.5" y="-833.8" font-family="Times,serif" font-size="14.00">%4</text>
</g>
<!-- node6 -->
<g id="node7" class="node">
<title>node6</title>
<polygon fill="none" stroke="black" points="537.5,-611.5 537.5,-649.5 655.5,-649.5 655.5,-611.5 537.5,-611.5"/>
<text text-anchor="start" x="545.5" y="-634.3" font-family="Times,serif" font-size="14.00">Let l2 =</text>
<text text-anchor="start" x="545.5" y="-619.3" font-family="Times,serif" font-size="14.00"> Union %4 %5</text>
</g>
<!-- node4&#45;&gt;node6 -->
<g id="edge5" class="edge">
<title>node4&#45;&gt;node6</title>
<path fill="none" stroke="black" d="M730.24,-875.44C762.83,-857.04 793.7,-832.41 812.5,-800 834.58,-761.94 838.41,-736.56 812.5,-701 779.18,-655.28 715.27,-638.98 665.58,-633.49"/>
<polygon fill="black" stroke="black" points="665.82,-630 655.53,-632.5 665.14,-636.96 665.82,-630"/>
<text text-anchor="start" x="830.5" y="-746.8" font-family="Times,serif" font-size="14.00">%4</text>
</g>
<!-- node5&#45;&gt;node6 -->
<g id="edge11" class="edge">
<title>node5&#45;&gt;node6</title>
<path fill="none" stroke="black" d="M596.5,-701.16C596.5,-687.09 596.5,-672.17 596.5,-659.77"/>
<polygon fill="black" stroke="black" points="600,-659.6 596.5,-649.6 593,-659.6 600,-659.6"/>
<text text-anchor="start" x="596.5" y="-671.8" font-family="Times,serif" font-size="14.00">%5</text>
</g>
<!-- node7 -->
<g id="node8" class="node">
<title>node7</title>
<polygon fill="none" stroke="black" points="407.5,-506.5 407.5,-559.5 553.5,-559.5 553.5,-506.5 407.5,-506.5"/>
<text text-anchor="start" x="415.5" y="-544.3" font-family="Times,serif" font-size="14.00">Get %6 (l2)</text>
<text text-anchor="start" x="415.5" y="-529.3" font-family="Times,serif" font-size="14.00"> Distinct group=()</text>
<text text-anchor="start" x="415.5" y="-514.3" font-family="Times,serif" font-size="14.00"> Negate</text>
</g>
<!-- node6&#45;&gt;node7 -->
<g id="edge3" class="edge">
<title>node6&#45;&gt;node7</title>
<path fill="none" stroke="black" d="M574.41,-611.31C559.02,-598.64 538.06,-581.39 519.85,-566.4"/>
<polygon fill="black" stroke="black" points="521.66,-563.35 511.71,-559.7 517.21,-568.75 521.66,-563.35"/>
<text text-anchor="start" x="548.5" y="-581.8" font-family="Times,serif" font-size="14.00">%6</text>
</g>
<!-- node13 -->
<g id="node14" class="node">
<title>node13</title>
<polygon fill="none" stroke="black" points="304.5,-135.5 304.5,-171.5 426.5,-171.5 426.5,-135.5 304.5,-135.5"/>
<text text-anchor="start" x="312.5" y="-149.8" font-family="Times,serif" font-size="14.00">Union %6 %12</text>
</g>
<!-- node6&#45;&gt;node13 -->
<g id="edge15" class="edge">
<title>node6&#45;&gt;node13</title>
<path fill="none" stroke="black" d="M596.5,-611.19C596.5,-591.97 596.5,-560.86 596.5,-534 596.5,-534 596.5,-534 596.5,-241.5 596.5,-206.88 504.5,-181.31 436.62,-167.15"/>
<polygon fill="black" stroke="black" points="437.3,-163.72 426.8,-165.15 435.9,-170.58 437.3,-163.72"/>
<text text-anchor="start" x="596.5" y="-388.8" font-family="Times,serif" font-size="14.00">%6</text>
</g>
<!-- node9 -->
<g id="node10" class="node">
<title>node9</title>
<polygon fill="none" stroke="black" points="377,-418.5 377,-454.5 490,-454.5 490,-418.5 377,-418.5"/>
<text text-anchor="start" x="385" y="-432.8" font-family="Times,serif" font-size="14.00">Union %7 %8</text>
</g>
<!-- node7&#45;&gt;node9 -->
<g id="edge10" class="edge">
<title>node7&#45;&gt;node9</title>
<path fill="none" stroke="black" d="M467.66,-506.18C461.1,-492.99 453.13,-476.97 446.54,-463.72"/>
<polygon fill="black" stroke="black" points="449.61,-462.04 442.02,-454.64 443.34,-465.15 449.61,-462.04"/>
<text text-anchor="start" x="457.5" y="-476.8" font-family="Times,serif" font-size="14.00">%7</text>
</g>
<!-- node8&#45;&gt;node9 -->
<g id="edge13" class="edge">
<title>node8&#45;&gt;node9</title>
<path fill="none" stroke="black" d="M383.42,-818.43C375.6,-788.96 361.5,-728.62 361.5,-676.5 361.5,-676.5 361.5,-676.5 361.5,-532 361.5,-503.72 382.15,-478.63 401.34,-461.42"/>
<polygon fill="black" stroke="black" points="403.79,-463.92 409.12,-454.76 399.25,-458.6 403.79,-463.92"/>
<text text-anchor="start" x="361.5" y="-626.8" font-family="Times,serif" font-size="14.00">%8</text>
</g>
<!-- node9&#45;&gt;node10 -->
<g id="edge12" class="edge">
<title>node9&#45;&gt;node10</title>
<path fill="none" stroke="black" d="M433.5,-418.17C433.5,-406.7 433.5,-391.25 433.5,-377.18"/>
<polygon fill="black" stroke="black" points="437,-376.78 433.5,-366.78 430,-376.78 437,-376.78"/>
<text text-anchor="start" x="433.5" y="-388.8" font-family="Times,serif" font-size="14.00">%9</text>
</g>
<!-- node12 -->
<g id="node13" class="node">
<title>node12</title>
<polygon fill="none" stroke="black" points="231,-223.5 231,-261.5 500,-261.5 500,-223.5 231,-223.5"/>
<text text-anchor="start" x="239" y="-246.3" font-family="Times,serif" font-size="14.00">Join %10 %11</text>
<text text-anchor="start" x="239" y="-231.3" font-family="Times,serif" font-size="14.00"> implementation = Unimplemented</text>
</g>
<!-- node10&#45;&gt;node12 -->
<g id="edge16" class="edge">
<title>node10&#45;&gt;node12</title>
<path fill="none" stroke="black" d="M415.28,-313.41C405.72,-299.99 394.04,-283.58 384.39,-270.03"/>
<polygon fill="black" stroke="black" points="387.04,-267.71 378.39,-261.6 381.33,-271.77 387.04,-267.71"/>
<text text-anchor="start" x="401.5" y="-283.8" font-family="Times,serif" font-size="14.00">%10</text>
</g>
<!-- node11 -->
<g id="node12" class="node">
<title>node11</title>
<polygon fill="none" stroke="black" points="158,-322 158,-358 281,-358 281,-322 158,-322"/>
<text text-anchor="start" x="166" y="-336.3" font-family="Times,serif" font-size="14.00">Constant (null)</text>
</g>
<!-- node11&#45;&gt;node12 -->
<g id="edge7" class="edge">
<title>node11&#45;&gt;node12</title>
<path fill="none" stroke="black" d="M245.6,-321.93C268.96,-306.65 303.43,-284.1 329.43,-267.1"/>
<polygon fill="black" stroke="black" points="331.43,-269.97 337.89,-261.56 327.6,-264.11 331.43,-269.97"/>
<text text-anchor="start" x="306.5" y="-283.8" font-family="Times,serif" font-size="14.00">%11</text>
</g>
<!-- node12&#45;&gt;node13 -->
<g id="edge8" class="edge">
<title>node12&#45;&gt;node13</title>
<path fill="none" stroke="black" d="M365.5,-223.47C365.5,-211.46 365.5,-195.43 365.5,-181.86"/>
<polygon fill="black" stroke="black" points="369,-181.62 365.5,-171.62 362,-181.62 369,-181.62"/>
<text text-anchor="start" x="365.5" y="-193.8" font-family="Times,serif" font-size="14.00">%12</text>
</g>
<!-- node13&#45;&gt;node14 -->
<g id="edge17" class="edge">
<title>node13&#45;&gt;node14</title>
<path fill="none" stroke="black" d="M331.12,-135.39C305.72,-122.74 269.88,-104.91 236.46,-88.27"/>
<polygon fill="black" stroke="black" points="237.62,-84.94 227.11,-83.62 234.5,-91.21 237.62,-84.94"/>
<text text-anchor="start" x="288.5" y="-105.8" font-family="Times,serif" font-size="14.00">%13</text>
</g>
</g>
</svg>
