<?xml version="1.0" encoding="UTF-8" standalone="no"?>
<!DOCTYPE svg PUBLIC "-//W3C//DTD SVG 1.1//EN"
 "http://www.w3.org/Graphics/SVG/1.1/DTD/svg11.dtd">
<!-- Generated by graphviz version 2.43.0 (0)
 -->
<!-- Title: G Pages: 1 -->
<svg width="908pt" height="1796pt"
 viewBox="0.00 0.00 907.50 1796.00" xmlns="http://www.w3.org/2000/svg" xmlns:xlink="http://www.w3.org/1999/xlink">
<g id="graph0" class="graph" transform="scale(1 1) rotate(0) translate(4 1792)">
<title>G</title>
<polygon fill="white" stroke="transparent" points="-4,4 -4,-1792 903.5,-1792 903.5,4 -4,4"/>
<!-- node0 -->
<g id="node1" class="node">
<title>node0</title>
<polygon fill="none" stroke="black" points="292,-1719.5 292,-1787.5 393,-1787.5 393,-1719.5 292,-1719.5"/>
<text text-anchor="start" x="300" y="-1772.3" font-family="Times,serif" font-size="14.00">Let l0 =</text>
<text text-anchor="start" x="300" y="-1757.3" font-family="Times,serif" font-size="14.00"> Constant ()</text>
<text text-anchor="start" x="300" y="-1742.3" font-family="Times,serif" font-size="14.00"> types = ()</text>
<text text-anchor="start" x="300" y="-1727.3" font-family="Times,serif" font-size="14.00"> keys = (())</text>
</g>
<!-- node2 -->
<g id="node3" class="node">
<title>node2</title>
<polygon fill="none" stroke="black" points="1,-1524.5 1,-1592.5 270,-1592.5 270,-1524.5 1,-1524.5"/>
<text text-anchor="start" x="9" y="-1577.3" font-family="Times,serif" font-size="14.00">Join %0 %1</text>
<text text-anchor="start" x="9" y="-1562.3" font-family="Times,serif" font-size="14.00"> implementation = Unimplemented</text>
<text text-anchor="start" x="9" y="-1547.3" font-family="Times,serif" font-size="14.00"> types = (integer?, integer?)</text>
<text text-anchor="start" x="9" y="-1532.3" font-family="Times,serif" font-size="14.00"> keys = ()</text>
</g>
<!-- node0&#45;&gt;node2 -->
<g id="edge9" class="edge">
<title>node0&#45;&gt;node2</title>
<path fill="none" stroke="black" d="M294.24,-1719.28C286.46,-1713.42 278.62,-1707.2 271.5,-1701 235.17,-1669.37 197.49,-1629.52 171.03,-1600.18"/>
<polygon fill="black" stroke="black" points="173.5,-1597.69 164.22,-1592.58 168.29,-1602.36 173.5,-1597.69"/>
<text text-anchor="start" x="271.5" y="-1689.8" font-family="Times,serif" font-size="14.00">%0</text>
</g>
<!-- node4 -->
<g id="node5" class="node">
<title>node4</title>
<polygon fill="none" stroke="black" points="423.5,-1449.5 423.5,-1667.5 821.5,-1667.5 821.5,-1449.5 423.5,-1449.5"/>
<text text-anchor="start" x="431.5" y="-1652.3" font-family="Times,serif" font-size="14.00">Let l1 =</text>
<text text-anchor="start" x="431.5" y="-1637.3" font-family="Times,serif" font-size="14.00"> Join %0 %3</text>
<text text-anchor="start" x="431.5" y="-1622.3" font-family="Times,serif" font-size="14.00"> implementation = Unimplemented</text>
<text text-anchor="start" x="431.5" y="-1607.3" font-family="Times,serif" font-size="14.00"> types = (integer?, integer)</text>
<text text-anchor="start" x="431.5" y="-1592.3" font-family="Times,serif" font-size="14.00"> keys = ()</text>
<text text-anchor="start" x="431.5" y="-1577.3" font-family="Times,serif" font-size="14.00"> Map #0, #1, 1</text>
<text text-anchor="start" x="431.5" y="-1562.3" font-family="Times,serif" font-size="14.00"> types = (integer?, integer, integer?, integer, integer)</text>
<text text-anchor="start" x="431.5" y="-1547.3" font-family="Times,serif" font-size="14.00"> keys = ()</text>
<text text-anchor="start" x="431.5" y="-1532.3" font-family="Times,serif" font-size="14.00"> Project (#2..=#4)</text>
<text text-anchor="start" x="431.5" y="-1517.3" font-family="Times,serif" font-size="14.00"> types = (integer?, integer, integer)</text>
<text text-anchor="start" x="431.5" y="-1502.3" font-family="Times,serif" font-size="14.00"> keys = ()</text>
<text text-anchor="start" x="431.5" y="-1487.3" font-family="Times,serif" font-size="14.00"> Project (#2)</text>
<text text-anchor="start" x="431.5" y="-1472.3" font-family="Times,serif" font-size="14.00"> types = (integer)</text>
<text text-anchor="start" x="431.5" y="-1457.3" font-family="Times,serif" font-size="14.00"> keys = ()</text>
</g>
<!-- node0&#45;&gt;node4 -->
<g id="edge1" class="edge">
<title>node0&#45;&gt;node4</title>
<path fill="none" stroke="black" d="M390.63,-1719.32C409.81,-1706.1 433.1,-1690.05 457.44,-1673.27"/>
<polygon fill="black" stroke="black" points="459.48,-1676.12 465.73,-1667.56 455.51,-1670.36 459.48,-1676.12"/>
<text text-anchor="start" x="432.5" y="-1689.8" font-family="Times,serif" font-size="14.00">%0</text>
</g>
<!-- node8 -->
<g id="node9" class="node">
<title>node8</title>
<polygon fill="none" stroke="black" points="323.5,-1332.5 323.5,-1430.5 469.5,-1430.5 469.5,-1332.5 323.5,-1332.5"/>
<text text-anchor="start" x="331.5" y="-1415.3" font-family="Times,serif" font-size="14.00">Get %0 (l0)</text>
<text text-anchor="start" x="331.5" y="-1400.3" font-family="Times,serif" font-size="14.00"> types = ()</text>
<text text-anchor="start" x="331.5" y="-1385.3" font-family="Times,serif" font-size="14.00"> keys = (())</text>
<text text-anchor="start" x="331.5" y="-1370.3" font-family="Times,serif" font-size="14.00"> Distinct group=()</text>
<text text-anchor="start" x="331.5" y="-1355.3" font-family="Times,serif" font-size="14.00"> types = ()</text>
<text text-anchor="start" x="331.5" y="-1340.3" font-family="Times,serif" font-size="14.00"> keys = (())</text>
</g>
<!-- node0&#45;&gt;node8 -->
<g id="edge19" class="edge">
<title>node0&#45;&gt;node8</title>
<path fill="none" stroke="black" d="M347.34,-1719.34C356.51,-1656.53 376.51,-1519.48 387.97,-1440.93"/>
<polygon fill="black" stroke="black" points="391.48,-1441.11 389.46,-1430.71 384.56,-1440.1 391.48,-1441.11"/>
<text text-anchor="start" x="350.5" y="-1689.8" font-family="Times,serif" font-size="14.00">%0</text>
</g>
<!-- node10 -->
<g id="node11" class="node">
<title>node10</title>
<polygon fill="none" stroke="black" points="325,-480.5 325,-593.5 594,-593.5 594,-480.5 325,-480.5"/>
<text text-anchor="start" x="333" y="-578.3" font-family="Times,serif" font-size="14.00">Join %9 %0</text>
<text text-anchor="start" x="333" y="-563.3" font-family="Times,serif" font-size="14.00"> implementation = Unimplemented</text>
<text text-anchor="start" x="333" y="-548.3" font-family="Times,serif" font-size="14.00"> types = ()</text>
<text text-anchor="start" x="333" y="-533.3" font-family="Times,serif" font-size="14.00"> keys = ()</text>
<text text-anchor="start" x="333" y="-518.3" font-family="Times,serif" font-size="14.00"> Project ()</text>
<text text-anchor="start" x="333" y="-503.3" font-family="Times,serif" font-size="14.00"> types = ()</text>
<text text-anchor="start" x="333" y="-488.3" font-family="Times,serif" font-size="14.00"> keys = ()</text>
</g>
<!-- node0&#45;&gt;node10 -->
<g id="edge18" class="edge">
<title>node0&#45;&gt;node10</title>
<path fill="none" stroke="black" d="M333.03,-1719.34C322.97,-1681.14 308.5,-1616.32 308.5,-1559.5 308.5,-1559.5 308.5,-1559.5 308.5,-671 308.5,-643 323.3,-619.49 343.64,-600.41"/>
<polygon fill="black" stroke="black" points="346.19,-602.83 351.37,-593.58 341.56,-597.58 346.19,-602.83"/>
<text text-anchor="start" x="308.5" y="-975.8" font-family="Times,serif" font-size="14.00">%0</text>
</g>
<!-- node1 -->
<g id="node2" class="node">
<title>node1</title>
<polygon fill="none" stroke="black" points="26,-1727 26,-1780 245,-1780 245,-1727 26,-1727"/>
<text text-anchor="start" x="34" y="-1764.8" font-family="Times,serif" font-size="14.00">Get types.public.t2 (u141)</text>
<text text-anchor="start" x="34" y="-1749.8" font-family="Times,serif" font-size="14.00"> types = (integer?, integer?)</text>
<text text-anchor="start" x="34" y="-1734.8" font-family="Times,serif" font-size="14.00"> keys = ()</text>
</g>
<!-- node1&#45;&gt;node2 -->
<g id="edge2" class="edge">
<title>node1&#45;&gt;node2</title>
<path fill="none" stroke="black" d="M135.5,-1726.87C135.5,-1695.29 135.5,-1641.12 135.5,-1602.98"/>
<polygon fill="black" stroke="black" points="139,-1602.68 135.5,-1592.68 132,-1602.68 139,-1602.68"/>
<text text-anchor="start" x="135.5" y="-1689.8" font-family="Times,serif" font-size="14.00">%1</text>
</g>
<!-- node14 -->
<g id="node15" class="node">
<title>node14</title>
<polygon fill="none" stroke="black" points="0,-0.5 0,-203.5 287,-203.5 287,-0.5 0,-0.5"/>
<text text-anchor="start" x="8" y="-188.3" font-family="Times,serif" font-size="14.00">Join %2 %13</text>
<text text-anchor="start" x="8" y="-173.3" font-family="Times,serif" font-size="14.00"> implementation = Unimplemented</text>
<text text-anchor="start" x="8" y="-158.3" font-family="Times,serif" font-size="14.00"> types = (integer?, integer?, integer?)</text>
<text text-anchor="start" x="8" y="-143.3" font-family="Times,serif" font-size="14.00"> keys = ()</text>
<text text-anchor="start" x="8" y="-128.3" font-family="Times,serif" font-size="14.00"> Project (#0..=#2)</text>
<text text-anchor="start" x="8" y="-113.3" font-family="Times,serif" font-size="14.00"> types = (integer?, integer?, integer?)</text>
<text text-anchor="start" x="8" y="-98.3" font-family="Times,serif" font-size="14.00"> keys = ()</text>
<text text-anchor="start" x="8" y="-83.3" font-family="Times,serif" font-size="14.00"> Project (#0..=#2)</text>
<text text-anchor="start" x="8" y="-68.3" font-family="Times,serif" font-size="14.00"> types = (integer?, integer?, integer?)</text>
<text text-anchor="start" x="8" y="-53.3" font-family="Times,serif" font-size="14.00"> keys = ()</text>
<text text-anchor="start" x="8" y="-38.3" font-family="Times,serif" font-size="14.00"> Project (#2)</text>
<text text-anchor="start" x="8" y="-23.3" font-family="Times,serif" font-size="14.00"> types = (integer?)</text>
<text text-anchor="start" x="8" y="-8.3" font-family="Times,serif" font-size="14.00"> keys = ()</text>
</g>
<!-- node2&#45;&gt;node14 -->
<g id="edge6" class="edge">
<title>node2&#45;&gt;node14</title>
<path fill="none" stroke="black" d="M134.28,-1524.11C132.05,-1459.63 127.5,-1313.5 127.5,-1190.5 127.5,-1190.5 127.5,-1190.5 127.5,-281 127.5,-259.21 128.7,-235.97 130.45,-213.73"/>
<polygon fill="black" stroke="black" points="133.96,-213.84 131.29,-203.58 126.98,-213.26 133.96,-213.84"/>
<text text-anchor="start" x="127.5" y="-668.3" font-family="Times,serif" font-size="14.00">%2</text>
</g>
<!-- node3 -->
<g id="node4" class="node">
<title>node3</title>
<polygon fill="none" stroke="black" points="516.5,-1727 516.5,-1780 728.5,-1780 728.5,-1727 516.5,-1727"/>
<text text-anchor="start" x="524.5" y="-1764.8" font-family="Times,serif" font-size="14.00">Get types.public.t1 (u139)</text>
<text text-anchor="start" x="524.5" y="-1749.8" font-family="Times,serif" font-size="14.00"> types = (integer?, integer)</text>
<text text-anchor="start" x="524.5" y="-1734.8" font-family="Times,serif" font-size="14.00"> keys = ()</text>
</g>
<!-- node3&#45;&gt;node4 -->
<g id="edge4" class="edge">
<title>node3&#45;&gt;node4</title>
<path fill="none" stroke="black" d="M622.5,-1726.87C622.5,-1713.57 622.5,-1696.27 622.5,-1677.85"/>
<polygon fill="black" stroke="black" points="626,-1677.83 622.5,-1667.83 619,-1677.83 626,-1677.83"/>
<text text-anchor="start" x="622.5" y="-1689.8" font-family="Times,serif" font-size="14.00">%3</text>
</g>
<!-- node5 -->
<g id="node6" class="node">
<title>node5</title>
<polygon fill="none" stroke="black" points="416,-1065.5 416,-1313.5 829,-1313.5 829,-1065.5 416,-1065.5"/>
<text text-anchor="start" x="424" y="-1298.3" font-family="Times,serif" font-size="14.00">Get %4 (l1)</text>
<text text-anchor="start" x="424" y="-1283.3" font-family="Times,serif" font-size="14.00"> types = (integer)</text>
<text text-anchor="start" x="424" y="-1268.3" font-family="Times,serif" font-size="14.00"> keys = ()</text>
<text text-anchor="start" x="424" y="-1253.3" font-family="Times,serif" font-size="14.00"> Reduce group=()</text>
<text text-anchor="start" x="424" y="-1238.3" font-family="Times,serif" font-size="14.00"> agg count(true)</text>
<text text-anchor="start" x="424" y="-1223.3" font-family="Times,serif" font-size="14.00"> types = (bigint)</text>
<text text-anchor="start" x="424" y="-1208.3" font-family="Times,serif" font-size="14.00"> keys = (())</text>
<text text-anchor="start" x="424" y="-1193.3" font-family="Times,serif" font-size="14.00"> Filter (#0 &gt; 1)</text>
<text text-anchor="start" x="424" y="-1178.3" font-family="Times,serif" font-size="14.00"> types = (bigint)</text>
<text text-anchor="start" x="424" y="-1163.3" font-family="Times,serif" font-size="14.00"> keys = (())</text>
<text text-anchor="start" x="424" y="-1148.3" font-family="Times,serif" font-size="14.00"> Project ()</text>
<text text-anchor="start" x="424" y="-1133.3" font-family="Times,serif" font-size="14.00"> types = ()</text>
<text text-anchor="start" x="424" y="-1118.3" font-family="Times,serif" font-size="14.00"> keys = (())</text>
<text text-anchor="start" x="424" y="-1103.3" font-family="Times,serif" font-size="14.00"> Map (err: more than one record produced in subquery)</text>
<text text-anchor="start" x="424" y="-1088.3" font-family="Times,serif" font-size="14.00"> types = (integer)</text>
<text text-anchor="start" x="424" y="-1073.3" font-family="Times,serif" font-size="14.00"> keys = (())</text>
</g>
<!-- node4&#45;&gt;node5 -->
<g id="edge14" class="edge">
<title>node4&#45;&gt;node5</title>
<path fill="none" stroke="black" d="M622.5,-1449.37C622.5,-1410.01 622.5,-1365.05 622.5,-1323.77"/>
<polygon fill="black" stroke="black" points="626,-1323.64 622.5,-1313.64 619,-1323.64 626,-1323.64"/>
<text text-anchor="start" x="622.5" y="-1377.8" font-family="Times,serif" font-size="14.00">%4</text>
</g>
<!-- node6 -->
<g id="node7" class="node">
<title>node6</title>
<polygon fill="none" stroke="black" points="551,-945.5 551,-1013.5 694,-1013.5 694,-945.5 551,-945.5"/>
<text text-anchor="start" x="559" y="-998.3" font-family="Times,serif" font-size="14.00">Let l2 =</text>
<text text-anchor="start" x="559" y="-983.3" font-family="Times,serif" font-size="14.00"> Union %4 %5</text>
<text text-anchor="start" x="559" y="-968.3" font-family="Times,serif" font-size="14.00"> types = (integer)</text>
<text text-anchor="start" x="559" y="-953.3" font-family="Times,serif" font-size="14.00"> keys = ()</text>
</g>
<!-- node4&#45;&gt;node6 -->
<g id="edge5" class="edge">
<title>node4&#45;&gt;node6</title>
<path fill="none" stroke="black" d="M748.73,-1449.26C784.79,-1410.66 819.45,-1364.19 838.5,-1314 877.78,-1210.54 900.89,-1156.4 838.5,-1065 808.51,-1021.06 751.95,-999.97 704.23,-989.85"/>
<polygon fill="black" stroke="black" points="704.69,-986.37 694.2,-987.85 703.32,-993.23 704.69,-986.37"/>
<text text-anchor="start" x="876.5" y="-1185.8" font-family="Times,serif" font-size="14.00">%4</text>
</g>
<!-- node5&#45;&gt;node6 -->
<g id="edge11" class="edge">
<title>node5&#45;&gt;node6</title>
<path fill="none" stroke="black" d="M622.5,-1065.4C622.5,-1050.6 622.5,-1036.33 622.5,-1023.85"/>
<polygon fill="black" stroke="black" points="626,-1023.82 622.5,-1013.82 619,-1023.82 626,-1023.82"/>
<text text-anchor="start" x="622.5" y="-1035.8" font-family="Times,serif" font-size="14.00">%5</text>
</g>
<!-- node7 -->
<g id="node8" class="node">
<title>node7</title>
<polygon fill="none" stroke="black" points="433.5,-750.5 433.5,-893.5 579.5,-893.5 579.5,-750.5 433.5,-750.5"/>
<text text-anchor="start" x="441.5" y="-878.3" font-family="Times,serif" font-size="14.00">Get %6 (l2)</text>
<text text-anchor="start" x="441.5" y="-863.3" font-family="Times,serif" font-size="14.00"> types = (integer)</text>
<text text-anchor="start" x="441.5" y="-848.3" font-family="Times,serif" font-size="14.00"> keys = ()</text>
<text text-anchor="start" x="441.5" y="-833.3" font-family="Times,serif" font-size="14.00"> Distinct group=()</text>
<text text-anchor="start" x="441.5" y="-818.3" font-family="Times,serif" font-size="14.00"> types = ()</text>
<text text-anchor="start" x="441.5" y="-803.3" font-family="Times,serif" font-size="14.00"> keys = (())</text>
<text text-anchor="start" x="441.5" y="-788.3" font-family="Times,serif" font-size="14.00"> Negate</text>
<text text-anchor="start" x="441.5" y="-773.3" font-family="Times,serif" font-size="14.00"> types = ()</text>
<text text-anchor="start" x="441.5" y="-758.3" font-family="Times,serif" font-size="14.00"> keys = ()</text>
</g>
<!-- node6&#45;&gt;node7 -->
<g id="edge3" class="edge">
<title>node6&#45;&gt;node7</title>
<path fill="none" stroke="black" d="M597.62,-945.14C588.12,-932.42 576.85,-917.31 565.53,-902.12"/>
<polygon fill="black" stroke="black" points="568.02,-899.62 559.24,-893.7 562.41,-903.81 568.02,-899.62"/>
<text text-anchor="start" x="581.5" y="-915.8" font-family="Times,serif" font-size="14.00">%6</text>
</g>
<!-- node13 -->
<g id="node14" class="node">
<title>node13</title>
<polygon fill="none" stroke="black" points="309,-255.5 309,-308.5 460,-308.5 460,-255.5 309,-255.5"/>
<text text-anchor="start" x="317" y="-293.3" font-family="Times,serif" font-size="14.00">Union %6 %12</text>
<text text-anchor="start" x="317" y="-278.3" font-family="Times,serif" font-size="14.00"> types = (integer?)</text>
<text text-anchor="start" x="317" y="-263.3" font-family="Times,serif" font-size="14.00"> keys = ()</text>
</g>
<!-- node6&#45;&gt;node13 -->
<g id="edge15" class="edge">
<title>node6&#45;&gt;node13</title>
<path fill="none" stroke="black" d="M622.5,-945.44C622.5,-913.96 622.5,-865.25 622.5,-823 622.5,-823 622.5,-823 622.5,-393.5 622.5,-324.14 538.31,-298.19 470.07,-288.56"/>
<polygon fill="black" stroke="black" points="470.5,-285.09 460.13,-287.25 469.59,-292.03 470.5,-285.09"/>
<text text-anchor="start" x="622.5" y="-615.8" font-family="Times,serif" font-size="14.00">%6</text>
</g>
<!-- node9 -->
<g id="node10" class="node">
<title>node9</title>
<polygon fill="none" stroke="black" points="403,-645.5 403,-698.5 516,-698.5 516,-645.5 403,-645.5"/>
<text text-anchor="start" x="411" y="-683.3" font-family="Times,serif" font-size="14.00">Union %7 %8</text>
<text text-anchor="start" x="411" y="-668.3" font-family="Times,serif" font-size="14.00"> types = ()</text>
<text text-anchor="start" x="411" y="-653.3" font-family="Times,serif" font-size="14.00"> keys = ()</text>
</g>
<!-- node7&#45;&gt;node9 -->
<g id="edge10" class="edge">
<title>node7&#45;&gt;node9</title>
<path fill="none" stroke="black" d="M484.1,-750.47C479.47,-735.9 474.79,-721.15 470.77,-708.49"/>
<polygon fill="black" stroke="black" points="474.06,-707.29 467.7,-698.82 467.39,-709.41 474.06,-707.29"/>
<text text-anchor="start" x="476.5" y="-720.8" font-family="Times,serif" font-size="14.00">%7</text>
</g>
<!-- node8&#45;&gt;node9 -->
<g id="edge13" class="edge">
<title>node8&#45;&gt;node9</title>
<path fill="none" stroke="black" d="M394.42,-1332.37C391.77,-1266.5 387.5,-1144.57 387.5,-1040.5 387.5,-1040.5 387.5,-1040.5 387.5,-821 387.5,-778.66 411.62,-735.75 431.94,-707.12"/>
<polygon fill="black" stroke="black" points="435.01,-708.84 438.09,-698.71 429.36,-704.71 435.01,-708.84"/>
<text text-anchor="start" x="387.5" y="-975.8" font-family="Times,serif" font-size="14.00">%8</text>
</g>
<!-- node9&#45;&gt;node10 -->
<g id="edge12" class="edge">
<title>node9&#45;&gt;node10</title>
<path fill="none" stroke="black" d="M459.5,-645.36C459.5,-633.4 459.5,-618.56 459.5,-603.77"/>
<polygon fill="black" stroke="black" points="463,-603.57 459.5,-593.57 456,-603.57 463,-603.57"/>
<text text-anchor="start" x="459.5" y="-615.8" font-family="Times,serif" font-size="14.00">%9</text>
</g>
<!-- node12 -->
<g id="node13" class="node">
<title>node12</title>
<polygon fill="none" stroke="black" points="250,-360.5 250,-428.5 519,-428.5 519,-360.5 250,-360.5"/>
<text text-anchor="start" x="258" y="-413.3" font-family="Times,serif" font-size="14.00">Join %10 %11</text>
<text text-anchor="start" x="258" y="-398.3" font-family="Times,serif" font-size="14.00"> implementation = Unimplemented</text>
<text text-anchor="start" x="258" y="-383.3" font-family="Times,serif" font-size="14.00"> types = (integer?)</text>
<text text-anchor="start" x="258" y="-368.3" font-family="Times,serif" font-size="14.00"> keys = ()</text>
</g>
<!-- node10&#45;&gt;node12 -->
<g id="edge16" class="edge">
<title>node10&#45;&gt;node12</title>
<path fill="none" stroke="black" d="M429.86,-480.47C422.27,-466.26 414.24,-451.21 407.07,-437.79"/>
<polygon fill="black" stroke="black" points="410.06,-435.96 402.27,-428.79 403.89,-439.26 410.06,-435.96"/>
<text text-anchor="start" x="419.5" y="-450.8" font-family="Times,serif" font-size="14.00">%10</text>
</g>
<!-- node11 -->
<g id="node12" class="node">
<title>node11</title>
<polygon fill="none" stroke="black" points="156,-510.5 156,-563.5 307,-563.5 307,-510.5 156,-510.5"/>
<text text-anchor="start" x="164" y="-548.3" font-family="Times,serif" font-size="14.00">Constant (null)</text>
<text text-anchor="start" x="164" y="-533.3" font-family="Times,serif" font-size="14.00"> types = (integer?)</text>
<text text-anchor="start" x="164" y="-518.3" font-family="Times,serif" font-size="14.00"> keys = (())</text>
</g>
<!-- node11&#45;&gt;node12 -->
<g id="edge7" class="edge">
<title>node11&#45;&gt;node12</title>
<path fill="none" stroke="black" d="M259.56,-510.23C282.33,-489.32 314.83,-459.48 340.97,-435.47"/>
<polygon fill="black" stroke="black" points="343.52,-437.89 348.51,-428.55 338.78,-432.73 343.52,-437.89"/>
<text text-anchor="start" x="326.5" y="-450.8" font-family="Times,serif" font-size="14.00">%11</text>
</g>
<!-- node12&#45;&gt;node13 -->
<g id="edge8" class="edge">
<title>node12&#45;&gt;node13</title>
<path fill="none" stroke="black" d="M384.5,-360.35C384.5,-347.3 384.5,-332.3 384.5,-318.99"/>
<polygon fill="black" stroke="black" points="388,-318.75 384.5,-308.75 381,-318.75 388,-318.75"/>
<text text-anchor="start" x="384.5" y="-330.8" font-family="Times,serif" font-size="14.00">%12</text>
</g>
<!-- node13&#45;&gt;node14 -->
<g id="edge17" class="edge">
<title>node13&#45;&gt;node14</title>
<path fill="none" stroke="black" d="M349.97,-255.5C332.91,-242.9 311.06,-226.76 287.99,-209.72"/>
<polygon fill="black" stroke="black" points="289.9,-206.78 279.78,-203.66 285.75,-212.41 289.9,-206.78"/>
<text text-anchor="start" x="320.5" y="-225.8" font-family="Times,serif" font-size="14.00">%13</text>
</g>
</g>
</svg>
