<?xml version="1.0" encoding="UTF-8" standalone="no"?>
<!DOCTYPE svg PUBLIC "-//W3C//DTD SVG 1.1//EN"
 "http://www.w3.org/Graphics/SVG/1.1/DTD/svg11.dtd">
<!-- Generated by graphviz version 2.43.0 (0)
 -->
<!-- Title: G Pages: 1 -->
<svg width="332pt" height="182pt"
 viewBox="0.00 0.00 331.50 182.00" xmlns="http://www.w3.org/2000/svg" xmlns:xlink="http://www.w3.org/1999/xlink">
<g id="graph0" class="graph" transform="scale(1 1) rotate(0) translate(4 178)">
<title>G</title>
<polygon fill="white" stroke="transparent" points="-4,4 -4,-178 327.5,-178 327.5,4 -4,4"/>
<!-- node0 -->
<g id="node1" class="node">
<title>node0</title>
<polygon fill="none" stroke="black" points="0,-135.5 0,-173.5 101,-173.5 101,-135.5 0,-135.5"/>
<text text-anchor="start" x="8" y="-158.3" font-family="Times,serif" font-size="14.00">Let l0 =</text>
<text text-anchor="start" x="8" y="-143.3" font-family="Times,serif" font-size="14.00"> Constant ()</text>
</g>
<!-- node2 -->
<g id="node3" class="node">
<title>node2</title>
<polygon fill="none" stroke="black" points="1,-0.5 1,-83.5 270,-83.5 270,-0.5 1,-0.5"/>
<text text-anchor="start" x="9" y="-68.3" font-family="Times,serif" font-size="14.00">Join %0 %1</text>
<text text-anchor="start" x="9" y="-53.3" font-family="Times,serif" font-size="14.00"> implementation = Unimplemented</text>
<text text-anchor="start" x="9" y="-38.3" font-family="Times,serif" font-size="14.00"> Map #0, #1, strtoi64(&quot;TRUE&quot;)</text>
<text text-anchor="start" x="9" y="-23.3" font-family="Times,serif" font-size="14.00"> Project (#2..=#4)</text>
<text text-anchor="start" x="9" y="-8.3" font-family="Times,serif" font-size="14.00"> Project (#2)</text>
</g>
<!-- node0&#45;&gt;node2 -->
<g id="edge2" class="edge">
<title>node0&#45;&gt;node2</title>
<path fill="none" stroke="black" d="M64.54,-135.25C73.69,-123.35 86.11,-107.21 98,-91.76"/>
<polygon fill="black" stroke="black" points="100.82,-93.82 104.14,-83.76 95.27,-89.56 100.82,-93.82"/>
<text text-anchor="start" x="88.5" y="-105.8" font-family="Times,serif" font-size="14.00">%0</text>
</g>
<!-- node1 -->
<g id="node2" class="node">
<title>node1</title>
<polygon fill="none" stroke="black" points="119.5,-136.5 119.5,-172.5 323.5,-172.5 323.5,-136.5 119.5,-136.5"/>
<text text-anchor="start" x="127.5" y="-150.8" font-family="Times,serif" font-size="14.00">Get types.public.t1 (u139)</text>
</g>
<!-- node1&#45;&gt;node2 -->
<g id="edge1" class="edge">
<title>node1&#45;&gt;node2</title>
<path fill="none" stroke="black" d="M208.06,-136.23C198.73,-124.24 185.8,-107.62 173.43,-91.73"/>
<polygon fill="black" stroke="black" points="175.94,-89.26 167.03,-83.52 170.41,-93.56 175.94,-89.26"/>
<text text-anchor="start" x="190.5" y="-105.8" font-family="Times,serif" font-size="14.00">%1</text>
</g>
</g>
</svg>
