<?xml version="1.0" encoding="UTF-8" standalone="no"?>
<!DOCTYPE svg PUBLIC "-//W3C//DTD SVG 1.1//EN"
 "http://www.w3.org/Graphics/SVG/1.1/DTD/svg11.dtd">
<!-- Generated by graphviz version 2.43.0 (0)
 -->
<!-- Title: G Pages: 1 -->
<svg width="397pt" height="332pt"
 viewBox="0.00 0.00 397.00 332.00" xmlns="http://www.w3.org/2000/svg" xmlns:xlink="http://www.w3.org/1999/xlink">
<g id="graph0" class="graph" transform="scale(1 1) rotate(0) translate(4 328)">
<title>G</title>
<polygon fill="white" stroke="transparent" points="-4,4 -4,-328 393,-328 393,4 -4,4"/>
<!-- node0 -->
<g id="node1" class="node">
<title>node0</title>
<polygon fill="none" stroke="black" points="57,-255.5 57,-323.5 158,-323.5 158,-255.5 57,-255.5"/>
<text text-anchor="start" x="65" y="-308.3" font-family="Times,serif" font-size="14.00">Let l0 =</text>
<text text-anchor="start" x="65" y="-293.3" font-family="Times,serif" font-size="14.00"> Constant ()</text>
<text text-anchor="start" x="65" y="-278.3" font-family="Times,serif" font-size="14.00"> types = ()</text>
<text text-anchor="start" x="65" y="-263.3" font-family="Times,serif" font-size="14.00"> keys = (())</text>
</g>
<!-- node2 -->
<g id="node3" class="node">
<title>node2</title>
<polygon fill="none" stroke="black" points="0,-0.5 0,-203.5 389,-203.5 389,-0.5 0,-0.5"/>
<text text-anchor="start" x="8" y="-188.3" font-family="Times,serif" font-size="14.00">Join %0 %1</text>
<text text-anchor="start" x="8" y="-173.3" font-family="Times,serif" font-size="14.00"> implementation = Unimplemented</text>
<text text-anchor="start" x="8" y="-158.3" font-family="Times,serif" font-size="14.00"> types = (integer?, integer)</text>
<text text-anchor="start" x="8" y="-143.3" font-family="Times,serif" font-size="14.00"> keys = ()</text>
<text text-anchor="start" x="8" y="-128.3" font-family="Times,serif" font-size="14.00"> Map #0, #1, strtoi64(&quot;TRUE&quot;)</text>
<text text-anchor="start" x="8" y="-113.3" font-family="Times,serif" font-size="14.00"> types = (integer?, integer, integer?, integer, bigint)</text>
<text text-anchor="start" x="8" y="-98.3" font-family="Times,serif" font-size="14.00"> keys = ()</text>
<text text-anchor="start" x="8" y="-83.3" font-family="Times,serif" font-size="14.00"> Project (#2..=#4)</text>
<text text-anchor="start" x="8" y="-68.3" font-family="Times,serif" font-size="14.00"> types = (integer?, integer, bigint)</text>
<text text-anchor="start" x="8" y="-53.3" font-family="Times,serif" font-size="14.00"> keys = ()</text>
<text text-anchor="start" x="8" y="-38.3" font-family="Times,serif" font-size="14.00"> Project (#2)</text>
<text text-anchor="start" x="8" y="-23.3" font-family="Times,serif" font-size="14.00"> types = (bigint)</text>
<text text-anchor="start" x="8" y="-8.3" font-family="Times,serif" font-size="14.00"> keys = ()</text>
</g>
<!-- node0&#45;&gt;node2 -->
<g id="edge2" class="edge">
<title>node0&#45;&gt;node2</title>
<path fill="none" stroke="black" d="M123.05,-255.34C128.81,-243.05 135.71,-228.35 142.91,-213"/>
<polygon fill="black" stroke="black" points="146.1,-214.43 147.18,-203.89 139.77,-211.46 146.1,-214.43"/>
<text text-anchor="start" x="138.5" y="-225.8" font-family="Times,serif" font-size="14.00">%0</text>
</g>
<!-- node1 -->
<g id="node2" class="node">
<title>node1</title>
<polygon fill="none" stroke="black" points="176.5,-263 176.5,-316 388.5,-316 388.5,-263 176.5,-263"/>
<text text-anchor="start" x="184.5" y="-300.8" font-family="Times,serif" font-size="14.00">Get types.public.t1 (u139)</text>
<text text-anchor="start" x="184.5" y="-285.8" font-family="Times,serif" font-size="14.00"> types = (integer?, integer)</text>
<text text-anchor="start" x="184.5" y="-270.8" font-family="Times,serif" font-size="14.00"> keys = ()</text>
</g>
<!-- node1&#45;&gt;node2 -->
<g id="edge1" class="edge">
<title>node1&#45;&gt;node2</title>
<path fill="none" stroke="black" d="M270.26,-262.71C263.85,-249.19 255.51,-231.61 246.72,-213.07"/>
<polygon fill="black" stroke="black" points="249.82,-211.44 242.37,-203.91 243.49,-214.44 249.82,-211.44"/>
<text text-anchor="start" x="255.5" y="-225.8" font-family="Times,serif" font-size="14.00">%1</text>
</g>
</g>
</svg>
