<?xml version="1.0" encoding="UTF-8" standalone="no"?>
<!DOCTYPE svg PUBLIC "-//W3C//DTD SVG 1.1//EN"
 "http://www.w3.org/Graphics/SVG/1.1/DTD/svg11.dtd">
<!-- Generated by graphviz version 2.43.0 (0)
 -->
<!-- Title: G Pages: 1 -->
<svg width="281pt" height="287pt"
 viewBox="0.00 0.00 281.00 287.00" xmlns="http://www.w3.org/2000/svg" xmlns:xlink="http://www.w3.org/1999/xlink">
<g id="graph0" class="graph" transform="scale(1 1) rotate(0) translate(4 283)">
<title>G</title>
<polygon fill="white" stroke="transparent" points="-4,4 -4,-283 277,-283 277,4 -4,4"/>
<!-- node0 -->
<g id="node1" class="node">
<title>node0</title>
<polygon fill="none" stroke="black" points="28,-240.5 28,-278.5 129,-278.5 129,-240.5 28,-240.5"/>
<text text-anchor="start" x="36" y="-263.3" font-family="Times,serif" font-size="14.00">Let l0 =</text>
<text text-anchor="start" x="36" y="-248.3" font-family="Times,serif" font-size="14.00"> Constant ()</text>
</g>
<!-- node2 -->
<g id="node3" class="node">
<title>node2</title>
<polygon fill="none" stroke="black" points="2,-135.5 2,-188.5 271,-188.5 271,-135.5 2,-135.5"/>
<text text-anchor="start" x="10" y="-173.3" font-family="Times,serif" font-size="14.00">Let l1 =</text>
<text text-anchor="start" x="10" y="-158.3" font-family="Times,serif" font-size="14.00"> Join %0 %1</text>
<text text-anchor="start" x="10" y="-143.3" font-family="Times,serif" font-size="14.00"> implementation = Unimplemented</text>
</g>
<!-- node0&#45;&gt;node2 -->
<g id="edge3" class="edge">
<title>node0&#45;&gt;node2</title>
<path fill="none" stroke="black" d="M89.68,-240.09C97.04,-227.97 106.9,-211.73 115.68,-197.29"/>
<polygon fill="black" stroke="black" points="118.77,-198.94 120.97,-188.58 112.78,-195.31 118.77,-198.94"/>
<text text-anchor="start" x="109.5" y="-210.8" font-family="Times,serif" font-size="14.00">%0</text>
</g>
<!-- node1 -->
<g id="node2" class="node">
<title>node1</title>
<polygon fill="none" stroke="black" points="147.5,-241.5 147.5,-277.5 243.5,-277.5 243.5,-241.5 147.5,-241.5"/>
<text text-anchor="start" x="155.5" y="-255.8" font-family="Times,serif" font-size="14.00">Constant ()</text>
</g>
<!-- node1&#45;&gt;node2 -->
<g id="edge1" class="edge">
<title>node1&#45;&gt;node2</title>
<path fill="none" stroke="black" d="M184.95,-241.43C177.36,-229.14 166.86,-212.15 157.58,-197.12"/>
<polygon fill="black" stroke="black" points="160.52,-195.22 152.29,-188.55 154.57,-198.9 160.52,-195.22"/>
<text text-anchor="start" x="170.5" y="-210.8" font-family="Times,serif" font-size="14.00">%1</text>
</g>
<!-- node3 -->
<g id="node4" class="node">
<title>node3</title>
<polygon fill="none" stroke="black" points="0,-0.5 0,-83.5 273,-83.5 273,-0.5 0,-0.5"/>
<text text-anchor="start" x="8" y="-68.3" font-family="Times,serif" font-size="14.00">Get %2 (l1)</text>
<text text-anchor="start" x="8" y="-53.3" font-family="Times,serif" font-size="14.00"> Map 2022&#45;02&#45;14 16:27:51.107 UTC</text>
<text text-anchor="start" x="8" y="-38.3" font-family="Times,serif" font-size="14.00"> Map &quot;materialize&quot;</text>
<text text-anchor="start" x="8" y="-23.3" font-family="Times,serif" font-size="14.00"> Map &quot;issue_10445&quot;</text>
<text text-anchor="start" x="8" y="-8.3" font-family="Times,serif" font-size="14.00"> Project (#0..#2)</text>
</g>
<!-- node2&#45;&gt;node3 -->
<g id="edge2" class="edge">
<title>node2&#45;&gt;node3</title>
<path fill="none" stroke="black" d="M136.5,-135.4C136.5,-123.29 136.5,-108.38 136.5,-94.1"/>
<polygon fill="black" stroke="black" points="140,-93.86 136.5,-83.86 133,-93.86 140,-93.86"/>
<text text-anchor="start" x="136.5" y="-105.8" font-family="Times,serif" font-size="14.00">%2</text>
</g>
</g>
</svg>
