<?xml version="1.0" encoding="UTF-8" standalone="no"?>
<!DOCTYPE svg PUBLIC "-//W3C//DTD SVG 1.1//EN"
 "http://www.w3.org/Graphics/SVG/1.1/DTD/svg11.dtd">
<!-- Generated by graphviz version 2.43.0 (0)
 -->
<!-- Title: G Pages: 1 -->
<svg width="361pt" height="497pt"
 viewBox="0.00 0.00 361.00 497.00" xmlns="http://www.w3.org/2000/svg" xmlns:xlink="http://www.w3.org/1999/xlink">
<g id="graph0" class="graph" transform="scale(1 1) rotate(0) translate(4 493)">
<title>G</title>
<polygon fill="white" stroke="transparent" points="-4,4 -4,-493 357,-493 357,4 -4,4"/>
<!-- node0 -->
<g id="node1" class="node">
<title>node0</title>
<polygon fill="none" stroke="black" points="68,-420.5 68,-488.5 169,-488.5 169,-420.5 68,-420.5"/>
<text text-anchor="start" x="76" y="-473.3" font-family="Times,serif" font-size="14.00">Let l0 =</text>
<text text-anchor="start" x="76" y="-458.3" font-family="Times,serif" font-size="14.00"> Constant ()</text>
<text text-anchor="start" x="76" y="-443.3" font-family="Times,serif" font-size="14.00"> types = ()</text>
<text text-anchor="start" x="76" y="-428.3" font-family="Times,serif" font-size="14.00"> keys = (())</text>
</g>
<!-- node2 -->
<g id="node3" class="node">
<title>node2</title>
<polygon fill="none" stroke="black" points="42,-285.5 42,-368.5 311,-368.5 311,-285.5 42,-285.5"/>
<text text-anchor="start" x="50" y="-353.3" font-family="Times,serif" font-size="14.00">Let l1 =</text>
<text text-anchor="start" x="50" y="-338.3" font-family="Times,serif" font-size="14.00"> Join %0 %1</text>
<text text-anchor="start" x="50" y="-323.3" font-family="Times,serif" font-size="14.00"> implementation = Unimplemented</text>
<text text-anchor="start" x="50" y="-308.3" font-family="Times,serif" font-size="14.00"> types = ()</text>
<text text-anchor="start" x="50" y="-293.3" font-family="Times,serif" font-size="14.00"> keys = (())</text>
</g>
<!-- node0&#45;&gt;node2 -->
<g id="edge3" class="edge">
<title>node0&#45;&gt;node2</title>
<path fill="none" stroke="black" d="M133.89,-420.2C139.89,-407.21 146.9,-392.05 153.48,-377.82"/>
<polygon fill="black" stroke="black" points="156.71,-379.17 157.72,-368.63 150.35,-376.24 156.71,-379.17"/>
<text text-anchor="start" x="147.5" y="-390.8" font-family="Times,serif" font-size="14.00">%0</text>
</g>
<!-- node1 -->
<g id="node2" class="node">
<title>node1</title>
<polygon fill="none" stroke="black" points="187.5,-428 187.5,-481 283.5,-481 283.5,-428 187.5,-428"/>
<text text-anchor="start" x="195.5" y="-465.8" font-family="Times,serif" font-size="14.00">Constant ()</text>
<text text-anchor="start" x="195.5" y="-450.8" font-family="Times,serif" font-size="14.00"> types = ()</text>
<text text-anchor="start" x="195.5" y="-435.8" font-family="Times,serif" font-size="14.00"> keys = (())</text>
</g>
<!-- node1&#45;&gt;node2 -->
<g id="edge1" class="edge">
<title>node1&#45;&gt;node2</title>
<path fill="none" stroke="black" d="M223.42,-427.8C216.7,-413.52 208.12,-395.25 200.13,-378.26"/>
<polygon fill="black" stroke="black" points="203.19,-376.54 195.77,-368.98 196.85,-379.52 203.19,-376.54"/>
<text text-anchor="start" x="210.5" y="-390.8" font-family="Times,serif" font-size="14.00">%1</text>
</g>
<!-- node3 -->
<g id="node4" class="node">
<title>node3</title>
<polygon fill="none" stroke="black" points="0,-0.5 0,-233.5 353,-233.5 353,-0.5 0,-0.5"/>
<text text-anchor="start" x="8" y="-218.3" font-family="Times,serif" font-size="14.00">Get %2 (l1)</text>
<text text-anchor="start" x="8" y="-203.3" font-family="Times,serif" font-size="14.00"> types = ()</text>
<text text-anchor="start" x="8" y="-188.3" font-family="Times,serif" font-size="14.00"> keys = (())</text>
<text text-anchor="start" x="8" y="-173.3" font-family="Times,serif" font-size="14.00"> Map 2022&#45;02&#45;14 16:27:51.221 UTC</text>
<text text-anchor="start" x="8" y="-158.3" font-family="Times,serif" font-size="14.00"> types = (timestamp with time zone)</text>
<text text-anchor="start" x="8" y="-143.3" font-family="Times,serif" font-size="14.00"> keys = (())</text>
<text text-anchor="start" x="8" y="-128.3" font-family="Times,serif" font-size="14.00"> Map &quot;materialize&quot;</text>
<text text-anchor="start" x="8" y="-113.3" font-family="Times,serif" font-size="14.00"> types = (timestamp with time zone, text)</text>
<text text-anchor="start" x="8" y="-98.3" font-family="Times,serif" font-size="14.00"> keys = (())</text>
<text text-anchor="start" x="8" y="-83.3" font-family="Times,serif" font-size="14.00"> Map &quot;issue_10445&quot;</text>
<text text-anchor="start" x="8" y="-68.3" font-family="Times,serif" font-size="14.00"> types = (timestamp with time zone, text, text)</text>
<text text-anchor="start" x="8" y="-53.3" font-family="Times,serif" font-size="14.00"> keys = (())</text>
<text text-anchor="start" x="8" y="-38.3" font-family="Times,serif" font-size="14.00"> Project (#0..#2)</text>
<text text-anchor="start" x="8" y="-23.3" font-family="Times,serif" font-size="14.00"> types = (timestamp with time zone, text, text)</text>
<text text-anchor="start" x="8" y="-8.3" font-family="Times,serif" font-size="14.00"> keys = (())</text>
</g>
<!-- node2&#45;&gt;node3 -->
<g id="edge2" class="edge">
<title>node2&#45;&gt;node3</title>
<path fill="none" stroke="black" d="M176.5,-285.4C176.5,-273.11 176.5,-258.9 176.5,-244.06"/>
<polygon fill="black" stroke="black" points="180,-243.71 176.5,-233.71 173,-243.71 180,-243.71"/>
<text text-anchor="start" x="176.5" y="-255.8" font-family="Times,serif" font-size="14.00">%2</text>
</g>
</g>
</svg>
