<?xml version="1.0" encoding="UTF-8" standalone="no"?>
<!DOCTYPE svg PUBLIC "-//W3C//DTD SVG 1.1//EN"
 "http://www.w3.org/Graphics/SVG/1.1/DTD/svg11.dtd">
<!-- Generated by graphviz version 2.43.0 (0)
 -->
<!-- Title: G Pages: 1 -->
<svg width="750pt" height="1162pt"
 viewBox="0.00 0.00 749.50 1162.00" xmlns="http://www.w3.org/2000/svg" xmlns:xlink="http://www.w3.org/1999/xlink">
<g id="graph0" class="graph" transform="scale(1 1) rotate(0) translate(4 1158)">
<title>G</title>
<polygon fill="white" stroke="transparent" points="-4,4 -4,-1158 745.5,-1158 745.5,4 -4,4"/>
<!-- node0 -->
<g id="node1" class="node">
<title>node0</title>
<polygon fill="none" stroke="black" points="314,-1115.5 314,-1153.5 415,-1153.5 415,-1115.5 314,-1115.5"/>
<text text-anchor="start" x="322" y="-1138.3" font-family="Times,serif" font-size="14.00">Let l0 =</text>
<text text-anchor="start" x="322" y="-1123.3" font-family="Times,serif" font-size="14.00"> Constant ()</text>
</g>
<!-- node2 -->
<g id="node3" class="node">
<title>node2</title>
<polygon fill="none" stroke="black" points="341,-995.5 341,-1063.5 610,-1063.5 610,-995.5 341,-995.5"/>
<text text-anchor="start" x="349" y="-1048.3" font-family="Times,serif" font-size="14.00">Let l1 =</text>
<text text-anchor="start" x="349" y="-1033.3" font-family="Times,serif" font-size="14.00"> Join %0 %1</text>
<text text-anchor="start" x="349" y="-1018.3" font-family="Times,serif" font-size="14.00"> implementation = Unimplemented</text>
<text text-anchor="start" x="349" y="-1003.3" font-family="Times,serif" font-size="14.00"> Filter true</text>
</g>
<!-- node0&#45;&gt;node2 -->
<g id="edge3" class="edge">
<title>node0&#45;&gt;node2</title>
<path fill="none" stroke="black" d="M384.09,-1115.32C397.37,-1103 415.45,-1086.22 432.03,-1070.84"/>
<polygon fill="black" stroke="black" points="434.57,-1073.26 439.52,-1063.89 429.8,-1068.13 434.57,-1073.26"/>
<text text-anchor="start" x="420.5" y="-1085.8" font-family="Times,serif" font-size="14.00">%0</text>
</g>
<!-- node1 -->
<g id="node2" class="node">
<title>node1</title>
<polygon fill="none" stroke="black" points="433.5,-1116.5 433.5,-1152.5 741.5,-1152.5 741.5,-1116.5 433.5,-1116.5"/>
<text text-anchor="start" x="441.5" y="-1130.8" font-family="Times,serif" font-size="14.00">Get decorrelation.public.students (u104)</text>
</g>
<!-- node1&#45;&gt;node2 -->
<g id="edge18" class="edge">
<title>node1&#45;&gt;node2</title>
<path fill="none" stroke="black" d="M569.01,-1116.49C555.54,-1104.1 536.71,-1086.79 519.47,-1070.94"/>
<polygon fill="black" stroke="black" points="521.42,-1067.98 511.69,-1063.79 516.69,-1073.13 521.42,-1067.98"/>
<text text-anchor="start" x="544.5" y="-1085.8" font-family="Times,serif" font-size="14.00">%1</text>
</g>
<!-- node3 -->
<g id="node4" class="node">
<title>node3</title>
<polygon fill="none" stroke="black" points="40,-890.5 40,-943.5 207,-943.5 207,-890.5 40,-890.5"/>
<text text-anchor="start" x="48" y="-928.3" font-family="Times,serif" font-size="14.00">Let l2 =</text>
<text text-anchor="start" x="48" y="-913.3" font-family="Times,serif" font-size="14.00"> Get %2 (l1)</text>
<text text-anchor="start" x="48" y="-898.3" font-family="Times,serif" font-size="14.00"> Distinct group=(#0)</text>
</g>
<!-- node2&#45;&gt;node3 -->
<g id="edge10" class="edge">
<title>node2&#45;&gt;node3</title>
<path fill="none" stroke="black" d="M370.37,-995.5C320.8,-979.94 262.24,-961.55 214.6,-946.6"/>
<polygon fill="black" stroke="black" points="215.5,-943.21 204.91,-943.56 213.41,-949.89 215.5,-943.21"/>
<text text-anchor="start" x="310.5" y="-965.8" font-family="Times,serif" font-size="14.00">%2</text>
</g>
<!-- node15 -->
<g id="node16" class="node">
<title>node15</title>
<polygon fill="none" stroke="black" points="414,-0.5 414,-98.5 683,-98.5 683,-0.5 414,-0.5"/>
<text text-anchor="start" x="422" y="-83.3" font-family="Times,serif" font-size="14.00">Join %2 %14 (= #0 #3)</text>
<text text-anchor="start" x="422" y="-68.3" font-family="Times,serif" font-size="14.00"> implementation = Unimplemented</text>
<text text-anchor="start" x="422" y="-53.3" font-family="Times,serif" font-size="14.00"> Project (#0..#2, #4)</text>
<text text-anchor="start" x="422" y="-38.3" font-family="Times,serif" font-size="14.00"> Filter #3</text>
<text text-anchor="start" x="422" y="-23.3" font-family="Times,serif" font-size="14.00"> Project (#0..#2)</text>
<text text-anchor="start" x="422" y="-8.3" font-family="Times,serif" font-size="14.00"> Project (#1)</text>
</g>
<!-- node2&#45;&gt;node15 -->
<g id="edge9" class="edge">
<title>node2&#45;&gt;node15</title>
<path fill="none" stroke="black" d="M541.74,-995.42C568.64,-976.96 593.5,-950.98 593.5,-918 593.5,-918 593.5,-918 593.5,-167.5 593.5,-147.39 587.64,-126.56 580.15,-108.14"/>
<polygon fill="black" stroke="black" points="583.27,-106.55 576.1,-98.75 576.84,-109.32 583.27,-106.55"/>
<text text-anchor="start" x="593.5" y="-491.8" font-family="Times,serif" font-size="14.00">%2</text>
</g>
<!-- node5 -->
<g id="node6" class="node">
<title>node5</title>
<polygon fill="none" stroke="black" points="152,-755.5 152,-838.5 421,-838.5 421,-755.5 152,-755.5"/>
<text text-anchor="start" x="160" y="-823.3" font-family="Times,serif" font-size="14.00">Join %3 %4</text>
<text text-anchor="start" x="160" y="-808.3" font-family="Times,serif" font-size="14.00"> implementation = Unimplemented</text>
<text text-anchor="start" x="160" y="-793.3" font-family="Times,serif" font-size="14.00"> Filter (#0 = #1)</text>
<text text-anchor="start" x="160" y="-778.3" font-family="Times,serif" font-size="14.00"> Project (#0, #4)</text>
<text text-anchor="start" x="160" y="-763.3" font-family="Times,serif" font-size="14.00"> Distinct group=(#0)</text>
</g>
<!-- node3&#45;&gt;node5 -->
<g id="edge2" class="edge">
<title>node3&#45;&gt;node5</title>
<path fill="none" stroke="black" d="M158.87,-890.4C177.38,-876.99 200.63,-860.16 222.2,-844.55"/>
<polygon fill="black" stroke="black" points="224.32,-847.33 230.37,-838.63 220.22,-841.66 224.32,-847.33"/>
<text text-anchor="start" x="205.5" y="-860.8" font-family="Times,serif" font-size="14.00">%3</text>
</g>
<!-- node9 -->
<g id="node10" class="node">
<title>node9</title>
<polygon fill="none" stroke="black" points="100,-698.5 100,-736.5 267,-736.5 267,-698.5 100,-698.5"/>
<text text-anchor="start" x="108" y="-721.3" font-family="Times,serif" font-size="14.00">Get %3 (l2)</text>
<text text-anchor="start" x="108" y="-706.3" font-family="Times,serif" font-size="14.00"> Distinct group=(#0)</text>
</g>
<!-- node3&#45;&gt;node9 -->
<g id="edge4" class="edge">
<title>node3&#45;&gt;node9</title>
<path fill="none" stroke="black" d="M121.13,-890.39C119.22,-857.2 119.87,-798.43 142.5,-755 144.59,-750.99 147.31,-747.22 150.36,-743.73"/>
<polygon fill="black" stroke="black" points="152.9,-746.14 157.43,-736.56 147.92,-741.22 152.9,-746.14"/>
<text text-anchor="start" x="121.5" y="-860.8" font-family="Times,serif" font-size="14.00">%3</text>
</g>
<!-- node11 -->
<g id="node12" class="node">
<title>node11</title>
<polygon fill="none" stroke="black" points="0,-328.5 0,-381.5 269,-381.5 269,-328.5 0,-328.5"/>
<text text-anchor="start" x="8" y="-366.3" font-family="Times,serif" font-size="14.00">Join %10 %3 (= #0 #1)</text>
<text text-anchor="start" x="8" y="-351.3" font-family="Times,serif" font-size="14.00"> implementation = Unimplemented</text>
<text text-anchor="start" x="8" y="-336.3" font-family="Times,serif" font-size="14.00"> Project (#0)</text>
</g>
<!-- node3&#45;&gt;node11 -->
<g id="edge14" class="edge">
<title>node3&#45;&gt;node11</title>
<path fill="none" stroke="black" d="M110,-890.06C99.07,-866.65 85.5,-830.93 85.5,-798 85.5,-798 85.5,-798 85.5,-450.5 85.5,-428.94 95.68,-407.4 106.75,-390.35"/>
<polygon fill="black" stroke="black" points="109.81,-392.09 112.58,-381.86 104.03,-388.13 109.81,-392.09"/>
<text text-anchor="start" x="85.5" y="-596.8" font-family="Times,serif" font-size="14.00">%3</text>
</g>
<!-- node4 -->
<g id="node5" class="node">
<title>node4</title>
<polygon fill="none" stroke="black" points="225,-899 225,-935 498,-935 498,-899 225,-899"/>
<text text-anchor="start" x="233" y="-913.3" font-family="Times,serif" font-size="14.00">Get decorrelation.public.test (u112)</text>
</g>
<!-- node4&#45;&gt;node5 -->
<g id="edge13" class="edge">
<title>node4&#45;&gt;node5</title>
<path fill="none" stroke="black" d="M350.59,-898.84C342.01,-885.33 329.58,-865.78 317.95,-847.49"/>
<polygon fill="black" stroke="black" points="320.65,-845.2 312.33,-838.64 314.74,-848.96 320.65,-845.2"/>
<text text-anchor="start" x="333.5" y="-860.8" font-family="Times,serif" font-size="14.00">%4</text>
</g>
<!-- node7 -->
<g id="node8" class="node">
<title>node7</title>
<polygon fill="none" stroke="black" points="254,-626.5 254,-679.5 523,-679.5 523,-626.5 254,-626.5"/>
<text text-anchor="start" x="262" y="-664.3" font-family="Times,serif" font-size="14.00">Let l3 =</text>
<text text-anchor="start" x="262" y="-649.3" font-family="Times,serif" font-size="14.00"> Join %5 %6</text>
<text text-anchor="start" x="262" y="-634.3" font-family="Times,serif" font-size="14.00"> implementation = Unimplemented</text>
</g>
<!-- node5&#45;&gt;node7 -->
<g id="edge15" class="edge">
<title>node5&#45;&gt;node7</title>
<path fill="none" stroke="black" d="M315.73,-755.31C331.08,-733.94 349.67,-708.06 364.22,-687.81"/>
<polygon fill="black" stroke="black" points="367.19,-689.66 370.18,-679.5 361.51,-685.58 367.19,-689.66"/>
<text text-anchor="start" x="356.5" y="-713.8" font-family="Times,serif" font-size="14.00">%5</text>
</g>
<!-- node6 -->
<g id="node7" class="node">
<title>node6</title>
<polygon fill="none" stroke="black" points="439.5,-779 439.5,-815 565.5,-815 565.5,-779 439.5,-779"/>
<text text-anchor="start" x="447.5" y="-793.3" font-family="Times,serif" font-size="14.00">Constant (true)</text>
</g>
<!-- node6&#45;&gt;node7 -->
<g id="edge12" class="edge">
<title>node6&#45;&gt;node7</title>
<path fill="none" stroke="black" d="M488.75,-778.87C470.69,-756.38 438.59,-716.39 415.57,-687.72"/>
<polygon fill="black" stroke="black" points="418.04,-685.2 409.05,-679.59 412.58,-689.58 418.04,-685.2"/>
<text text-anchor="start" x="452.5" y="-713.8" font-family="Times,serif" font-size="14.00">%6</text>
</g>
<!-- node8 -->
<g id="node9" class="node">
<title>node8</title>
<polygon fill="none" stroke="black" points="244,-521.5 244,-574.5 411,-574.5 411,-521.5 244,-521.5"/>
<text text-anchor="start" x="252" y="-559.3" font-family="Times,serif" font-size="14.00">Get %7 (l3)</text>
<text text-anchor="start" x="252" y="-544.3" font-family="Times,serif" font-size="14.00"> Distinct group=(#0)</text>
<text text-anchor="start" x="252" y="-529.3" font-family="Times,serif" font-size="14.00"> Negate</text>
</g>
<!-- node7&#45;&gt;node8 -->
<g id="edge19" class="edge">
<title>node7&#45;&gt;node8</title>
<path fill="none" stroke="black" d="M373.26,-626.27C365.62,-613.37 356.26,-597.56 347.99,-583.61"/>
<polygon fill="black" stroke="black" points="350.86,-581.58 342.75,-574.75 344.84,-585.14 350.86,-581.58"/>
<text text-anchor="start" x="362.5" y="-596.8" font-family="Times,serif" font-size="14.00">%7</text>
</g>
<!-- node14 -->
<g id="node15" class="node">
<title>node14</title>
<polygon fill="none" stroke="black" points="410.5,-150.5 410.5,-186.5 532.5,-186.5 532.5,-150.5 410.5,-150.5"/>
<text text-anchor="start" x="418.5" y="-164.8" font-family="Times,serif" font-size="14.00">Union %7 %13</text>
</g>
<!-- node7&#45;&gt;node14 -->
<g id="edge16" class="edge">
<title>node7&#45;&gt;node14</title>
<path fill="none" stroke="black" d="M425.63,-626.32C447.73,-607.75 471.5,-580.46 471.5,-549 471.5,-549 471.5,-549 471.5,-256.5 471.5,-236.55 471.5,-214.03 471.5,-196.9"/>
<polygon fill="black" stroke="black" points="475,-196.5 471.5,-186.5 468,-196.5 475,-196.5"/>
<text text-anchor="start" x="471.5" y="-403.8" font-family="Times,serif" font-size="14.00">%7</text>
</g>
<!-- node10 -->
<g id="node11" class="node">
<title>node10</title>
<polygon fill="none" stroke="black" points="127,-433.5 127,-469.5 240,-469.5 240,-433.5 127,-433.5"/>
<text text-anchor="start" x="135" y="-447.8" font-family="Times,serif" font-size="14.00">Union %8 %9</text>
</g>
<!-- node8&#45;&gt;node10 -->
<g id="edge8" class="edge">
<title>node8&#45;&gt;node10</title>
<path fill="none" stroke="black" d="M288.53,-521.43C266.57,-507.01 239.37,-489.17 218.16,-475.24"/>
<polygon fill="black" stroke="black" points="220.04,-472.29 209.76,-469.73 216.2,-478.14 220.04,-472.29"/>
<text text-anchor="start" x="260.5" y="-491.8" font-family="Times,serif" font-size="14.00">%8</text>
</g>
<!-- node9&#45;&gt;node10 -->
<g id="edge1" class="edge">
<title>node9&#45;&gt;node10</title>
<path fill="none" stroke="black" d="M183.5,-698.35C183.5,-652.91 183.5,-533.98 183.5,-479.94"/>
<polygon fill="black" stroke="black" points="187,-479.73 183.5,-469.73 180,-479.73 187,-479.73"/>
<text text-anchor="start" x="183.5" y="-596.8" font-family="Times,serif" font-size="14.00">%9</text>
</g>
<!-- node10&#45;&gt;node11 -->
<g id="edge11" class="edge">
<title>node10&#45;&gt;node11</title>
<path fill="none" stroke="black" d="M174.51,-433.17C168.39,-421.37 160.08,-405.33 152.62,-390.94"/>
<polygon fill="black" stroke="black" points="155.58,-389.05 147.87,-381.78 149.36,-392.27 155.58,-389.05"/>
<text text-anchor="start" x="165.5" y="-403.8" font-family="Times,serif" font-size="14.00">%10</text>
</g>
<!-- node13 -->
<g id="node14" class="node">
<title>node13</title>
<polygon fill="none" stroke="black" points="174,-238.5 174,-276.5 443,-276.5 443,-238.5 174,-238.5"/>
<text text-anchor="start" x="182" y="-261.3" font-family="Times,serif" font-size="14.00">Join %11 %12</text>
<text text-anchor="start" x="182" y="-246.3" font-family="Times,serif" font-size="14.00"> implementation = Unimplemented</text>
</g>
<!-- node11&#45;&gt;node13 -->
<g id="edge7" class="edge">
<title>node11&#45;&gt;node13</title>
<path fill="none" stroke="black" d="M181.13,-328.41C207.78,-313.78 240.93,-295.58 266.73,-281.42"/>
<polygon fill="black" stroke="black" points="268.45,-284.48 275.53,-276.6 265.08,-278.34 268.45,-284.48"/>
<text text-anchor="start" x="237.5" y="-298.8" font-family="Times,serif" font-size="14.00">%11</text>
</g>
<!-- node12 -->
<g id="node13" class="node">
<title>node12</title>
<polygon fill="none" stroke="black" points="287.5,-337 287.5,-373 417.5,-373 417.5,-337 287.5,-337"/>
<text text-anchor="start" x="295.5" y="-351.3" font-family="Times,serif" font-size="14.00">Constant (false)</text>
</g>
<!-- node12&#45;&gt;node13 -->
<g id="edge6" class="edge">
<title>node12&#45;&gt;node13</title>
<path fill="none" stroke="black" d="M344.63,-336.93C338.1,-322.75 328.69,-302.33 321.11,-285.88"/>
<polygon fill="black" stroke="black" points="324.26,-284.34 316.9,-276.73 317.9,-287.27 324.26,-284.34"/>
<text text-anchor="start" x="332.5" y="-298.8" font-family="Times,serif" font-size="14.00">%12</text>
</g>
<!-- node13&#45;&gt;node14 -->
<g id="edge17" class="edge">
<title>node13&#45;&gt;node14</title>
<path fill="none" stroke="black" d="M342.27,-238.47C367.91,-224.79 403.27,-205.92 430.53,-191.37"/>
<polygon fill="black" stroke="black" points="432.26,-194.41 439.43,-186.62 428.96,-188.24 432.26,-194.41"/>
<text text-anchor="start" x="405.5" y="-208.8" font-family="Times,serif" font-size="14.00">%13</text>
</g>
<!-- node14&#45;&gt;node15 -->
<g id="edge5" class="edge">
<title>node14&#45;&gt;node15</title>
<path fill="none" stroke="black" d="M482.7,-150.49C490.26,-138.99 500.73,-123.09 511.09,-107.35"/>
<polygon fill="black" stroke="black" points="514.24,-108.92 516.81,-98.65 508.39,-105.07 514.24,-108.92"/>
<text text-anchor="start" x="503.5" y="-120.8" font-family="Times,serif" font-size="14.00">%14</text>
</g>
</g>
</svg>
