<?xml version="1.0" encoding="UTF-8" standalone="no"?>
<!DOCTYPE svg PUBLIC "-//W3C//DTD SVG 1.1//EN"
 "http://www.w3.org/Graphics/SVG/1.1/DTD/svg11.dtd">
<!-- Generated by graphviz version 2.43.0 (0)
 -->
<!-- Title: G Pages: 1 -->
<svg width="608pt" height="182pt"
 viewBox="0.00 0.00 607.50 182.00" xmlns="http://www.w3.org/2000/svg" xmlns:xlink="http://www.w3.org/1999/xlink">
<g id="graph0" class="graph" transform="scale(1 1) rotate(0) translate(4 178)">
<title>G</title>
<polygon fill="white" stroke="transparent" points="-4,4 -4,-178 603.5,-178 603.5,4 -4,4"/>
<!-- node0 -->
<g id="node1" class="node">
<title>node0</title>
<polygon fill="none" stroke="black" points="0,-120.5 0,-158.5 308,-158.5 308,-120.5 0,-120.5"/>
<text text-anchor="start" x="8" y="-143.3" font-family="Times,serif" font-size="14.00">Get decorrelation.public.students (u104)</text>
<text text-anchor="start" x="8" y="-128.3" font-family="Times,serif" font-size="14.00"> Project (#0, #1)</text>
</g>
<!-- node2 -->
<g id="node3" class="node">
<title>node2</title>
<polygon fill="none" stroke="black" points="145,-0.5 145,-53.5 471,-53.5 471,-0.5 145,-0.5"/>
<text text-anchor="start" x="153" y="-38.3" font-family="Times,serif" font-size="14.00">Join %0 %1 (= #0 #2)</text>
<text text-anchor="start" x="153" y="-23.3" font-family="Times,serif" font-size="14.00"> implementation = Differential %0 %1.(#0)</text>
<text text-anchor="start" x="153" y="-8.3" font-family="Times,serif" font-size="14.00"> Project (#1)</text>
</g>
<!-- node0&#45;&gt;node2 -->
<g id="edge2" class="edge">
<title>node0&#45;&gt;node2</title>
<path fill="none" stroke="black" d="M179.43,-120.25C202.42,-103.75 236.77,-79.11 264.18,-59.44"/>
<polygon fill="black" stroke="black" points="266.36,-62.18 272.45,-53.51 262.28,-56.5 266.36,-62.18"/>
<text text-anchor="start" x="245" y="-75.8" font-family="Times,serif" font-size="14.00">%0</text>
</g>
<!-- node1 -->
<g id="node2" class="node">
<title>node1</title>
<polygon fill="none" stroke="black" points="326.5,-105.5 326.5,-173.5 599.5,-173.5 599.5,-105.5 326.5,-105.5"/>
<text text-anchor="start" x="334.5" y="-158.3" font-family="Times,serif" font-size="14.00">Get decorrelation.public.test (u112)</text>
<text text-anchor="start" x="334.5" y="-143.3" font-family="Times,serif" font-size="14.00"> Project (#0)</text>
<text text-anchor="start" x="334.5" y="-128.3" font-family="Times,serif" font-size="14.00"> Distinct group=(#0)</text>
<text text-anchor="start" x="334.5" y="-113.3" font-family="Times,serif" font-size="14.00"> ArrangeBy (#0)</text>
</g>
<!-- node1&#45;&gt;node2 -->
<g id="edge1" class="edge">
<title>node1&#45;&gt;node2</title>
<path fill="none" stroke="black" d="M416.49,-105.35C396.21,-90.88 372.53,-74 352.48,-59.71"/>
<polygon fill="black" stroke="black" points="354.3,-56.71 344.13,-53.75 350.24,-62.41 354.3,-56.71"/>
<text text-anchor="start" x="391" y="-75.8" font-family="Times,serif" font-size="14.00">%1</text>
</g>
</g>
</svg>
