<?xml version="1.0" encoding="UTF-8" standalone="no"?>
<!DOCTYPE svg PUBLIC "-//W3C//DTD SVG 1.1//EN"
 "http://www.w3.org/Graphics/SVG/1.1/DTD/svg11.dtd">
<!-- Generated by graphviz version 2.43.0 (0)
 -->
<!-- Title: G Pages: 1 -->
<svg width="316pt" height="239pt"
 viewBox="0.00 0.00 316.00 239.00" xmlns="http://www.w3.org/2000/svg" xmlns:xlink="http://www.w3.org/1999/xlink">
<g id="graph0" class="graph" transform="scale(1 1) rotate(0) translate(4 235)">
<title>G</title>
<polygon fill="white" stroke="transparent" points="-4,4 -4,-235 312,-235 312,4 -4,4"/>
<!-- node0 -->
<g id="node1" class="node">
<title>node0</title>
<polygon fill="none" stroke="black" points="0,-0.5 0,-143.5 308,-143.5 308,-0.5 0,-0.5"/>
<text text-anchor="start" x="8" y="-128.3" font-family="Times,serif" font-size="14.00">Get decorrelation.public.students (u104)</text>
<text text-anchor="start" x="8" y="-113.3" font-family="Times,serif" font-size="14.00"> Filter exists(%1)</text>
<text text-anchor="start" x="8" y="-98.3" font-family="Times,serif" font-size="14.00"> </text>
<text text-anchor="start" x="8" y="-83.3" font-family="Times,serif" font-size="14.00"> %1 =</text>
<text text-anchor="start" x="8" y="-68.3" font-family="Times,serif" font-size="14.00"> Get decorrelation.public.test (u112)</text>
<text text-anchor="start" x="8" y="-53.3" font-family="Times,serif" font-size="14.00"> Filter (#^0 = #0)</text>
<text text-anchor="start" x="8" y="-38.3" font-family="Times,serif" font-size="14.00"> Project (#3)</text>
<text text-anchor="start" x="8" y="-23.3" font-family="Times,serif" font-size="14.00"> </text>
<text text-anchor="start" x="8" y="-8.3" font-family="Times,serif" font-size="14.00"> Project (#1)</text>
</g>
<!-- node1 -->
<g id="node2" class="node">
<title>node1</title>
<ellipse fill="none" stroke="black" cx="154" cy="-213" rx="38.99" ry="18"/>
<text text-anchor="middle" x="154" y="-209.3" font-family="Times,serif" font-size="14.00">node1</text>
</g>
<!-- node1&#45;&gt;node0 -->
<g id="edge1" class="edge">
<title>node1&#45;&gt;node0</title>
<path fill="none" stroke="black" d="M154,-194.96C154,-184.19 154,-169.42 154,-153.86"/>
<polygon fill="black" stroke="black" points="157.5,-153.56 154,-143.56 150.5,-153.56 157.5,-153.56"/>
<text text-anchor="start" x="154" y="-165.8" font-family="Times,serif" font-size="14.00">%1</text>
</g>
</g>
</svg>
