<?xml version="1.0" encoding="UTF-8" standalone="no"?>
<!DOCTYPE svg PUBLIC "-//W3C//DTD SVG 1.1//EN"
 "http://www.w3.org/Graphics/SVG/1.1/DTD/svg11.dtd">
<!-- Generated by graphviz version 2.43.0 (0)
 -->
<!-- Title: G Pages: 1 -->
<svg width="875pt" height="1886pt"
 viewBox="0.00 0.00 874.50 1886.00" xmlns="http://www.w3.org/2000/svg" xmlns:xlink="http://www.w3.org/1999/xlink">
<g id="graph0" class="graph" transform="scale(1 1) rotate(0) translate(4 1882)">
<title>G</title>
<polygon fill="white" stroke="transparent" points="-4,4 -4,-1882 870.5,-1882 870.5,4 -4,4"/>
<!-- node0 -->
<g id="node1" class="node">
<title>node0</title>
<polygon fill="none" stroke="black" points="439,-1809.5 439,-1877.5 540,-1877.5 540,-1809.5 439,-1809.5"/>
<text text-anchor="start" x="447" y="-1862.3" font-family="Times,serif" font-size="14.00">Let l0 =</text>
<text text-anchor="start" x="447" y="-1847.3" font-family="Times,serif" font-size="14.00"> Constant ()</text>
<text text-anchor="start" x="447" y="-1832.3" font-family="Times,serif" font-size="14.00"> types = ()</text>
<text text-anchor="start" x="447" y="-1817.3" font-family="Times,serif" font-size="14.00"> keys = (())</text>
</g>
<!-- node2 -->
<g id="node3" class="node">
<title>node2</title>
<polygon fill="none" stroke="black" points="466,-1629.5 466,-1757.5 735,-1757.5 735,-1629.5 466,-1629.5"/>
<text text-anchor="start" x="474" y="-1742.3" font-family="Times,serif" font-size="14.00">Let l1 =</text>
<text text-anchor="start" x="474" y="-1727.3" font-family="Times,serif" font-size="14.00"> Join %0 %1</text>
<text text-anchor="start" x="474" y="-1712.3" font-family="Times,serif" font-size="14.00"> implementation = Unimplemented</text>
<text text-anchor="start" x="474" y="-1697.3" font-family="Times,serif" font-size="14.00"> types = (integer, text, smallint?)</text>
<text text-anchor="start" x="474" y="-1682.3" font-family="Times,serif" font-size="14.00"> keys = ()</text>
<text text-anchor="start" x="474" y="-1667.3" font-family="Times,serif" font-size="14.00"> Filter true</text>
<text text-anchor="start" x="474" y="-1652.3" font-family="Times,serif" font-size="14.00"> types = (integer, text, smallint?)</text>
<text text-anchor="start" x="474" y="-1637.3" font-family="Times,serif" font-size="14.00"> keys = ()</text>
</g>
<!-- node0&#45;&gt;node2 -->
<g id="edge3" class="edge">
<title>node0&#45;&gt;node2</title>
<path fill="none" stroke="black" d="M514.41,-1809.29C524.06,-1796.41 535.51,-1781.15 546.86,-1766.02"/>
<polygon fill="black" stroke="black" points="549.94,-1767.75 553.14,-1757.65 544.34,-1763.55 549.94,-1767.75"/>
<text text-anchor="start" x="538.5" y="-1779.8" font-family="Times,serif" font-size="14.00">%0</text>
</g>
<!-- node1 -->
<g id="node2" class="node">
<title>node1</title>
<polygon fill="none" stroke="black" points="558.5,-1817 558.5,-1870 866.5,-1870 866.5,-1817 558.5,-1817"/>
<text text-anchor="start" x="566.5" y="-1854.8" font-family="Times,serif" font-size="14.00">Get decorrelation.public.students (u104)</text>
<text text-anchor="start" x="566.5" y="-1839.8" font-family="Times,serif" font-size="14.00"> types = (integer, text, smallint?)</text>
<text text-anchor="start" x="566.5" y="-1824.8" font-family="Times,serif" font-size="14.00"> keys = ()</text>
</g>
<!-- node1&#45;&gt;node2 -->
<g id="edge18" class="edge">
<title>node1&#45;&gt;node2</title>
<path fill="none" stroke="black" d="M692.99,-1816.72C682.23,-1802.5 668.28,-1784.07 654.5,-1765.86"/>
<polygon fill="black" stroke="black" points="657.02,-1763.38 648.19,-1757.52 651.43,-1767.61 657.02,-1763.38"/>
<text text-anchor="start" x="672.5" y="-1779.8" font-family="Times,serif" font-size="14.00">%1</text>
</g>
<!-- node3 -->
<g id="node4" class="node">
<title>node3</title>
<polygon fill="none" stroke="black" points="11.5,-1464.5 11.5,-1577.5 265.5,-1577.5 265.5,-1464.5 11.5,-1464.5"/>
<text text-anchor="start" x="19.5" y="-1562.3" font-family="Times,serif" font-size="14.00">Let l2 =</text>
<text text-anchor="start" x="19.5" y="-1547.3" font-family="Times,serif" font-size="14.00"> Get %2 (l1)</text>
<text text-anchor="start" x="19.5" y="-1532.3" font-family="Times,serif" font-size="14.00"> types = (integer, text, smallint?)</text>
<text text-anchor="start" x="19.5" y="-1517.3" font-family="Times,serif" font-size="14.00"> keys = ()</text>
<text text-anchor="start" x="19.5" y="-1502.3" font-family="Times,serif" font-size="14.00"> Distinct group=(#0)</text>
<text text-anchor="start" x="19.5" y="-1487.3" font-family="Times,serif" font-size="14.00"> types = (integer)</text>
<text text-anchor="start" x="19.5" y="-1472.3" font-family="Times,serif" font-size="14.00"> keys = ((#0))</text>
</g>
<!-- node2&#45;&gt;node3 -->
<g id="edge10" class="edge">
<title>node2&#45;&gt;node3</title>
<path fill="none" stroke="black" d="M465.89,-1647.01C409.55,-1627.53 343.26,-1604.04 275.41,-1578.31"/>
<polygon fill="black" stroke="black" points="276.42,-1574.95 265.83,-1574.67 273.93,-1581.49 276.42,-1574.95"/>
<text text-anchor="start" x="364.5" y="-1599.8" font-family="Times,serif" font-size="14.00">%2</text>
</g>
<!-- node15 -->
<g id="node16" class="node">
<title>node15</title>
<polygon fill="none" stroke="black" points="484,-0.5 484,-248.5 861,-248.5 861,-0.5 484,-0.5"/>
<text text-anchor="start" x="492" y="-233.3" font-family="Times,serif" font-size="14.00">Join %2 %14 (= #0 #3)</text>
<text text-anchor="start" x="492" y="-218.3" font-family="Times,serif" font-size="14.00"> implementation = Unimplemented</text>
<text text-anchor="start" x="492" y="-203.3" font-family="Times,serif" font-size="14.00"> types = (integer, text, smallint?, integer, boolean)</text>
<text text-anchor="start" x="492" y="-188.3" font-family="Times,serif" font-size="14.00"> keys = ()</text>
<text text-anchor="start" x="492" y="-173.3" font-family="Times,serif" font-size="14.00"> Project (#0..#2, #4)</text>
<text text-anchor="start" x="492" y="-158.3" font-family="Times,serif" font-size="14.00"> types = (integer, text, smallint?, boolean)</text>
<text text-anchor="start" x="492" y="-143.3" font-family="Times,serif" font-size="14.00"> keys = ()</text>
<text text-anchor="start" x="492" y="-128.3" font-family="Times,serif" font-size="14.00"> Filter #3</text>
<text text-anchor="start" x="492" y="-113.3" font-family="Times,serif" font-size="14.00"> types = (integer, text, smallint?, boolean)</text>
<text text-anchor="start" x="492" y="-98.3" font-family="Times,serif" font-size="14.00"> keys = ()</text>
<text text-anchor="start" x="492" y="-83.3" font-family="Times,serif" font-size="14.00"> Project (#0..#2)</text>
<text text-anchor="start" x="492" y="-68.3" font-family="Times,serif" font-size="14.00"> types = (integer, text, smallint?)</text>
<text text-anchor="start" x="492" y="-53.3" font-family="Times,serif" font-size="14.00"> keys = ()</text>
<text text-anchor="start" x="492" y="-38.3" font-family="Times,serif" font-size="14.00"> Project (#1)</text>
<text text-anchor="start" x="492" y="-23.3" font-family="Times,serif" font-size="14.00"> types = (text)</text>
<text text-anchor="start" x="492" y="-8.3" font-family="Times,serif" font-size="14.00"> keys = ()</text>
</g>
<!-- node2&#45;&gt;node15 -->
<g id="edge9" class="edge">
<title>node2&#45;&gt;node15</title>
<path fill="none" stroke="black" d="M697.78,-1629.16C728.93,-1600.92 755.5,-1564.4 755.5,-1522 755.5,-1522 755.5,-1522 755.5,-326 755.5,-303.36 750.92,-280.29 743.92,-258.25"/>
<polygon fill="black" stroke="black" points="747.16,-256.91 740.66,-248.54 740.53,-259.14 747.16,-256.91"/>
<text text-anchor="start" x="755.5" y="-765.8" font-family="Times,serif" font-size="14.00">%2</text>
</g>
<!-- node5 -->
<g id="node6" class="node">
<title>node5</title>
<polygon fill="none" stroke="black" points="167,-1209.5 167,-1412.5 562,-1412.5 562,-1209.5 167,-1209.5"/>
<text text-anchor="start" x="175" y="-1397.3" font-family="Times,serif" font-size="14.00">Join %3 %4</text>
<text text-anchor="start" x="175" y="-1382.3" font-family="Times,serif" font-size="14.00"> implementation = Unimplemented</text>
<text text-anchor="start" x="175" y="-1367.3" font-family="Times,serif" font-size="14.00"> types = (integer, integer, integer, integer, numeric?)</text>
<text text-anchor="start" x="175" y="-1352.3" font-family="Times,serif" font-size="14.00"> keys = ()</text>
<text text-anchor="start" x="175" y="-1337.3" font-family="Times,serif" font-size="14.00"> Filter (#0 = #1)</text>
<text text-anchor="start" x="175" y="-1322.3" font-family="Times,serif" font-size="14.00"> types = (integer, integer, integer, integer, numeric?)</text>
<text text-anchor="start" x="175" y="-1307.3" font-family="Times,serif" font-size="14.00"> keys = ()</text>
<text text-anchor="start" x="175" y="-1292.3" font-family="Times,serif" font-size="14.00"> Project (#0, #4)</text>
<text text-anchor="start" x="175" y="-1277.3" font-family="Times,serif" font-size="14.00"> types = (integer, numeric?)</text>
<text text-anchor="start" x="175" y="-1262.3" font-family="Times,serif" font-size="14.00"> keys = ()</text>
<text text-anchor="start" x="175" y="-1247.3" font-family="Times,serif" font-size="14.00"> Distinct group=(#0)</text>
<text text-anchor="start" x="175" y="-1232.3" font-family="Times,serif" font-size="14.00"> types = (integer)</text>
<text text-anchor="start" x="175" y="-1217.3" font-family="Times,serif" font-size="14.00"> keys = ((#0))</text>
</g>
<!-- node3&#45;&gt;node5 -->
<g id="edge2" class="edge">
<title>node3&#45;&gt;node5</title>
<path fill="none" stroke="black" d="M199.06,-1464.26C214.03,-1450.49 230.57,-1435.26 247.24,-1419.92"/>
<polygon fill="black" stroke="black" points="249.92,-1422.22 254.9,-1412.87 245.17,-1417.06 249.92,-1422.22"/>
<text text-anchor="start" x="231.5" y="-1434.8" font-family="Times,serif" font-size="14.00">%3</text>
</g>
<!-- node9 -->
<g id="node10" class="node">
<title>node9</title>
<polygon fill="none" stroke="black" points="116,-1092.5 116,-1190.5 283,-1190.5 283,-1092.5 116,-1092.5"/>
<text text-anchor="start" x="124" y="-1175.3" font-family="Times,serif" font-size="14.00">Get %3 (l2)</text>
<text text-anchor="start" x="124" y="-1160.3" font-family="Times,serif" font-size="14.00"> types = (integer)</text>
<text text-anchor="start" x="124" y="-1145.3" font-family="Times,serif" font-size="14.00"> keys = ((#0))</text>
<text text-anchor="start" x="124" y="-1130.3" font-family="Times,serif" font-size="14.00"> Distinct group=(#0)</text>
<text text-anchor="start" x="124" y="-1115.3" font-family="Times,serif" font-size="14.00"> types = (integer)</text>
<text text-anchor="start" x="124" y="-1100.3" font-family="Times,serif" font-size="14.00"> keys = ((#0))</text>
</g>
<!-- node3&#45;&gt;node9 -->
<g id="edge4" class="edge">
<title>node3&#45;&gt;node9</title>
<path fill="none" stroke="black" d="M133.72,-1464.26C130.12,-1400.81 129.8,-1294.84 157.5,-1209 158.51,-1205.88 159.69,-1202.76 161.02,-1199.67"/>
<polygon fill="black" stroke="black" points="164.24,-1201.04 165.36,-1190.51 157.92,-1198.05 164.24,-1201.04"/>
<text text-anchor="start" x="133.5" y="-1434.8" font-family="Times,serif" font-size="14.00">%3</text>
</g>
<!-- node11 -->
<g id="node12" class="node">
<title>node11</title>
<polygon fill="none" stroke="black" points="0,-525.5 0,-638.5 269,-638.5 269,-525.5 0,-525.5"/>
<text text-anchor="start" x="8" y="-623.3" font-family="Times,serif" font-size="14.00">Join %10 %3 (= #0 #1)</text>
<text text-anchor="start" x="8" y="-608.3" font-family="Times,serif" font-size="14.00"> implementation = Unimplemented</text>
<text text-anchor="start" x="8" y="-593.3" font-family="Times,serif" font-size="14.00"> types = (integer, integer)</text>
<text text-anchor="start" x="8" y="-578.3" font-family="Times,serif" font-size="14.00"> keys = ()</text>
<text text-anchor="start" x="8" y="-563.3" font-family="Times,serif" font-size="14.00"> Project (#0)</text>
<text text-anchor="start" x="8" y="-548.3" font-family="Times,serif" font-size="14.00"> types = (integer)</text>
<text text-anchor="start" x="8" y="-533.3" font-family="Times,serif" font-size="14.00"> keys = ()</text>
</g>
<!-- node3&#45;&gt;node11 -->
<g id="edge14" class="edge">
<title>node3&#45;&gt;node11</title>
<path fill="none" stroke="black" d="M122.71,-1464.44C112.27,-1422.83 100.5,-1364.31 100.5,-1312 100.5,-1312 100.5,-1312 100.5,-716 100.5,-693.57 105.09,-669.66 110.9,-648.39"/>
<polygon fill="black" stroke="black" points="114.35,-649.08 113.74,-638.5 107.62,-647.15 114.35,-649.08"/>
<text text-anchor="start" x="100.5" y="-960.8" font-family="Times,serif" font-size="14.00">%3</text>
</g>
<!-- node4 -->
<g id="node5" class="node">
<title>node4</title>
<polygon fill="none" stroke="black" points="284,-1494.5 284,-1547.5 619,-1547.5 619,-1494.5 284,-1494.5"/>
<text text-anchor="start" x="292" y="-1532.3" font-family="Times,serif" font-size="14.00">Get decorrelation.public.test (u112)</text>
<text text-anchor="start" x="292" y="-1517.3" font-family="Times,serif" font-size="14.00"> types = (integer, integer, integer, numeric?)</text>
<text text-anchor="start" x="292" y="-1502.3" font-family="Times,serif" font-size="14.00"> keys = ()</text>
</g>
<!-- node4&#45;&gt;node5 -->
<g id="edge13" class="edge">
<title>node4&#45;&gt;node5</title>
<path fill="none" stroke="black" d="M440.83,-1494.5C433.05,-1475.88 421.9,-1449.24 410.53,-1422.05"/>
<polygon fill="black" stroke="black" points="413.76,-1420.7 406.67,-1412.82 407.3,-1423.4 413.76,-1420.7"/>
<text text-anchor="start" x="418.5" y="-1434.8" font-family="Times,serif" font-size="14.00">%4</text>
</g>
<!-- node7 -->
<g id="node8" class="node">
<title>node7</title>
<polygon fill="none" stroke="black" points="332,-990.5 332,-1073.5 601,-1073.5 601,-990.5 332,-990.5"/>
<text text-anchor="start" x="340" y="-1058.3" font-family="Times,serif" font-size="14.00">Let l3 =</text>
<text text-anchor="start" x="340" y="-1043.3" font-family="Times,serif" font-size="14.00"> Join %5 %6</text>
<text text-anchor="start" x="340" y="-1028.3" font-family="Times,serif" font-size="14.00"> implementation = Unimplemented</text>
<text text-anchor="start" x="340" y="-1013.3" font-family="Times,serif" font-size="14.00"> types = (integer, boolean)</text>
<text text-anchor="start" x="340" y="-998.3" font-family="Times,serif" font-size="14.00"> keys = ((#0))</text>
</g>
<!-- node5&#45;&gt;node7 -->
<g id="edge15" class="edge">
<title>node5&#45;&gt;node7</title>
<path fill="none" stroke="black" d="M401.61,-1209.21C417.39,-1166.37 435.08,-1118.32 448.01,-1083.22"/>
<polygon fill="black" stroke="black" points="451.35,-1084.28 451.52,-1073.69 444.78,-1081.86 451.35,-1084.28"/>
<text text-anchor="start" x="444.5" y="-1137.8" font-family="Times,serif" font-size="14.00">%5</text>
</g>
<!-- node6 -->
<g id="node7" class="node">
<title>node6</title>
<polygon fill="none" stroke="black" points="580,-1284.5 580,-1337.5 727,-1337.5 727,-1284.5 580,-1284.5"/>
<text text-anchor="start" x="588" y="-1322.3" font-family="Times,serif" font-size="14.00">Constant (true)</text>
<text text-anchor="start" x="588" y="-1307.3" font-family="Times,serif" font-size="14.00"> types = (boolean)</text>
<text text-anchor="start" x="588" y="-1292.3" font-family="Times,serif" font-size="14.00"> keys = (())</text>
</g>
<!-- node6&#45;&gt;node7 -->
<g id="edge12" class="edge">
<title>node6&#45;&gt;node7</title>
<path fill="none" stroke="black" d="M636.24,-1284.44C605.22,-1238.48 539.54,-1141.2 499.59,-1082.02"/>
<polygon fill="black" stroke="black" points="502.39,-1079.9 493.89,-1073.57 496.59,-1083.82 502.39,-1079.9"/>
<text text-anchor="start" x="571.5" y="-1137.8" font-family="Times,serif" font-size="14.00">%6</text>
</g>
<!-- node8 -->
<g id="node9" class="node">
<title>node8</title>
<polygon fill="none" stroke="black" points="243.5,-795.5 243.5,-938.5 449.5,-938.5 449.5,-795.5 243.5,-795.5"/>
<text text-anchor="start" x="251.5" y="-923.3" font-family="Times,serif" font-size="14.00">Get %7 (l3)</text>
<text text-anchor="start" x="251.5" y="-908.3" font-family="Times,serif" font-size="14.00"> types = (integer, boolean)</text>
<text text-anchor="start" x="251.5" y="-893.3" font-family="Times,serif" font-size="14.00"> keys = ((#0))</text>
<text text-anchor="start" x="251.5" y="-878.3" font-family="Times,serif" font-size="14.00"> Distinct group=(#0)</text>
<text text-anchor="start" x="251.5" y="-863.3" font-family="Times,serif" font-size="14.00"> types = (integer)</text>
<text text-anchor="start" x="251.5" y="-848.3" font-family="Times,serif" font-size="14.00"> keys = ((#0))</text>
<text text-anchor="start" x="251.5" y="-833.3" font-family="Times,serif" font-size="14.00"> Negate</text>
<text text-anchor="start" x="251.5" y="-818.3" font-family="Times,serif" font-size="14.00"> types = (integer)</text>
<text text-anchor="start" x="251.5" y="-803.3" font-family="Times,serif" font-size="14.00"> keys = ()</text>
</g>
<!-- node7&#45;&gt;node8 -->
<g id="edge19" class="edge">
<title>node7&#45;&gt;node8</title>
<path fill="none" stroke="black" d="M436.53,-990.29C426.81,-977.08 415.66,-961.95 404.61,-946.93"/>
<polygon fill="black" stroke="black" points="407.23,-944.59 398.49,-938.61 401.6,-948.74 407.23,-944.59"/>
<text text-anchor="start" x="421.5" y="-960.8" font-family="Times,serif" font-size="14.00">%7</text>
</g>
<!-- node14 -->
<g id="node15" class="node">
<title>node14</title>
<polygon fill="none" stroke="black" points="397.5,-300.5 397.5,-353.5 603.5,-353.5 603.5,-300.5 397.5,-300.5"/>
<text text-anchor="start" x="405.5" y="-338.3" font-family="Times,serif" font-size="14.00">Union %7 %13</text>
<text text-anchor="start" x="405.5" y="-323.3" font-family="Times,serif" font-size="14.00"> types = (integer, boolean)</text>
<text text-anchor="start" x="405.5" y="-308.3" font-family="Times,serif" font-size="14.00"> keys = ()</text>
</g>
<!-- node7&#45;&gt;node14 -->
<g id="edge16" class="edge">
<title>node7&#45;&gt;node14</title>
<path fill="none" stroke="black" d="M479.84,-990.29C489.37,-957.61 500.5,-910.35 500.5,-868 500.5,-868 500.5,-868 500.5,-438.5 500.5,-413.61 500.5,-385.56 500.5,-363.95"/>
<polygon fill="black" stroke="black" points="504,-363.9 500.5,-353.9 497,-363.9 504,-363.9"/>
<text text-anchor="start" x="500.5" y="-660.8" font-family="Times,serif" font-size="14.00">%7</text>
</g>
<!-- node10 -->
<g id="node11" class="node">
<title>node10</title>
<polygon fill="none" stroke="black" points="129,-690.5 129,-743.5 272,-743.5 272,-690.5 129,-690.5"/>
<text text-anchor="start" x="137" y="-728.3" font-family="Times,serif" font-size="14.00">Union %8 %9</text>
<text text-anchor="start" x="137" y="-713.3" font-family="Times,serif" font-size="14.00"> types = (integer)</text>
<text text-anchor="start" x="137" y="-698.3" font-family="Times,serif" font-size="14.00"> keys = ()</text>
</g>
<!-- node8&#45;&gt;node10 -->
<g id="edge8" class="edge">
<title>node8&#45;&gt;node10</title>
<path fill="none" stroke="black" d="M276.92,-795.47C261.69,-780.03 246.27,-764.4 233.3,-751.25"/>
<polygon fill="black" stroke="black" points="235.49,-748.48 225.97,-743.82 230.5,-753.4 235.49,-748.48"/>
<text text-anchor="start" x="256.5" y="-765.8" font-family="Times,serif" font-size="14.00">%8</text>
</g>
<!-- node9&#45;&gt;node10 -->
<g id="edge1" class="edge">
<title>node9&#45;&gt;node10</title>
<path fill="none" stroke="black" d="M199.61,-1092.45C199.82,-1006.9 200.23,-830.05 200.41,-754.02"/>
<polygon fill="black" stroke="black" points="203.92,-753.57 200.44,-743.56 196.92,-753.55 203.92,-753.57"/>
<text text-anchor="start" x="200.5" y="-960.8" font-family="Times,serif" font-size="14.00">%9</text>
</g>
<!-- node10&#45;&gt;node11 -->
<g id="edge11" class="edge">
<title>node10&#45;&gt;node11</title>
<path fill="none" stroke="black" d="M187.77,-690.36C181.73,-678.17 174.19,-662.99 166.71,-647.92"/>
<polygon fill="black" stroke="black" points="169.66,-645.98 162.08,-638.57 163.39,-649.09 169.66,-645.98"/>
<text text-anchor="start" x="177.5" y="-660.8" font-family="Times,serif" font-size="14.00">%10</text>
</g>
<!-- node13 -->
<g id="node14" class="node">
<title>node13</title>
<polygon fill="none" stroke="black" points="203,-405.5 203,-473.5 472,-473.5 472,-405.5 203,-405.5"/>
<text text-anchor="start" x="211" y="-458.3" font-family="Times,serif" font-size="14.00">Join %11 %12</text>
<text text-anchor="start" x="211" y="-443.3" font-family="Times,serif" font-size="14.00"> implementation = Unimplemented</text>
<text text-anchor="start" x="211" y="-428.3" font-family="Times,serif" font-size="14.00"> types = (integer, boolean)</text>
<text text-anchor="start" x="211" y="-413.3" font-family="Times,serif" font-size="14.00"> keys = ()</text>
</g>
<!-- node11&#45;&gt;node13 -->
<g id="edge7" class="edge">
<title>node11&#45;&gt;node13</title>
<path fill="none" stroke="black" d="M214.73,-525.47C237.04,-510.03 260.78,-493.6 281.38,-479.34"/>
<polygon fill="black" stroke="black" points="283.47,-482.15 289.7,-473.58 279.49,-476.4 283.47,-482.15"/>
<text text-anchor="start" x="260.5" y="-495.8" font-family="Times,serif" font-size="14.00">%11</text>
</g>
<!-- node12 -->
<g id="node13" class="node">
<title>node12</title>
<polygon fill="none" stroke="black" points="287,-555.5 287,-608.5 434,-608.5 434,-555.5 287,-555.5"/>
<text text-anchor="start" x="295" y="-593.3" font-family="Times,serif" font-size="14.00">Constant (false)</text>
<text text-anchor="start" x="295" y="-578.3" font-family="Times,serif" font-size="14.00"> types = (boolean)</text>
<text text-anchor="start" x="295" y="-563.3" font-family="Times,serif" font-size="14.00"> keys = (())</text>
</g>
<!-- node12&#45;&gt;node13 -->
<g id="edge6" class="edge">
<title>node12&#45;&gt;node13</title>
<path fill="none" stroke="black" d="M356.28,-555.23C353.01,-535.22 348.39,-507.02 344.55,-483.59"/>
<polygon fill="black" stroke="black" points="347.98,-482.85 342.91,-473.55 341.07,-483.98 347.98,-482.85"/>
<text text-anchor="start" x="348.5" y="-495.8" font-family="Times,serif" font-size="14.00">%12</text>
</g>
<!-- node13&#45;&gt;node14 -->
<g id="edge17" class="edge">
<title>node13&#45;&gt;node14</title>
<path fill="none" stroke="black" d="M386.41,-405.35C407.92,-390.76 433.06,-373.72 454.25,-359.35"/>
<polygon fill="black" stroke="black" points="456.46,-362.09 462.77,-353.58 452.53,-356.29 456.46,-362.09"/>
<text text-anchor="start" x="434.5" y="-375.8" font-family="Times,serif" font-size="14.00">%13</text>
</g>
<!-- node14&#45;&gt;node15 -->
<g id="edge5" class="edge">
<title>node14&#45;&gt;node15</title>
<path fill="none" stroke="black" d="M522.63,-300.2C532.94,-288.18 546.05,-272.9 560.22,-256.39"/>
<polygon fill="black" stroke="black" points="562.94,-258.59 566.79,-248.72 557.62,-254.04 562.94,-258.59"/>
<text text-anchor="start" x="547.5" y="-270.8" font-family="Times,serif" font-size="14.00">%14</text>
</g>
</g>
</svg>
