<?xml version="1.0" encoding="UTF-8" standalone="no"?>
<!DOCTYPE svg PUBLIC "-//W3C//DTD SVG 1.1//EN"
 "http://www.w3.org/Graphics/SVG/1.1/DTD/svg11.dtd">
<!-- Generated by graphviz version 2.43.0 (0)
 -->
<!-- Title: G Pages: 1 -->
<svg width="670pt" height="362pt"
 viewBox="0.00 0.00 669.50 362.00" xmlns="http://www.w3.org/2000/svg" xmlns:xlink="http://www.w3.org/1999/xlink">
<g id="graph0" class="graph" transform="scale(1 1) rotate(0) translate(4 358)">
<title>G</title>
<polygon fill="white" stroke="transparent" points="-4,4 -4,-358 665.5,-358 665.5,4 -4,4"/>
<!-- node0 -->
<g id="node1" class="node">
<title>node0</title>
<polygon fill="none" stroke="black" points="0,-210.5 0,-308.5 308,-308.5 308,-210.5 0,-210.5"/>
<text text-anchor="start" x="8" y="-293.3" font-family="Times,serif" font-size="14.00">Get decorrelation.public.students (u104)</text>
<text text-anchor="start" x="8" y="-278.3" font-family="Times,serif" font-size="14.00"> types = (integer, text, smallint?)</text>
<text text-anchor="start" x="8" y="-263.3" font-family="Times,serif" font-size="14.00"> keys = ()</text>
<text text-anchor="start" x="8" y="-248.3" font-family="Times,serif" font-size="14.00"> Project (#0, #1)</text>
<text text-anchor="start" x="8" y="-233.3" font-family="Times,serif" font-size="14.00"> types = (integer, text)</text>
<text text-anchor="start" x="8" y="-218.3" font-family="Times,serif" font-size="14.00"> keys = ()</text>
</g>
<!-- node2 -->
<g id="node3" class="node">
<title>node2</title>
<polygon fill="none" stroke="black" points="161,-0.5 161,-113.5 487,-113.5 487,-0.5 161,-0.5"/>
<text text-anchor="start" x="169" y="-98.3" font-family="Times,serif" font-size="14.00">Join %0 %1 (= #0 #2)</text>
<text text-anchor="start" x="169" y="-83.3" font-family="Times,serif" font-size="14.00"> implementation = Differential %0 %1.(#0)</text>
<text text-anchor="start" x="169" y="-68.3" font-family="Times,serif" font-size="14.00"> types = (integer, text, integer)</text>
<text text-anchor="start" x="169" y="-53.3" font-family="Times,serif" font-size="14.00"> keys = ()</text>
<text text-anchor="start" x="169" y="-38.3" font-family="Times,serif" font-size="14.00"> Project (#1)</text>
<text text-anchor="start" x="169" y="-23.3" font-family="Times,serif" font-size="14.00"> types = (text)</text>
<text text-anchor="start" x="169" y="-8.3" font-family="Times,serif" font-size="14.00"> keys = ()</text>
</g>
<!-- node0&#45;&gt;node2 -->
<g id="edge2" class="edge">
<title>node0&#45;&gt;node2</title>
<path fill="none" stroke="black" d="M194.72,-210.48C217.26,-183.9 245.55,-150.52 269.93,-121.78"/>
<polygon fill="black" stroke="black" points="272.89,-123.69 276.69,-113.8 267.55,-119.17 272.89,-123.69"/>
<text text-anchor="start" x="260" y="-135.8" font-family="Times,serif" font-size="14.00">%0</text>
</g>
<!-- node1 -->
<g id="node2" class="node">
<title>node1</title>
<polygon fill="none" stroke="black" points="326.5,-165.5 326.5,-353.5 661.5,-353.5 661.5,-165.5 326.5,-165.5"/>
<text text-anchor="start" x="334.5" y="-338.3" font-family="Times,serif" font-size="14.00">Get decorrelation.public.test (u112)</text>
<text text-anchor="start" x="334.5" y="-323.3" font-family="Times,serif" font-size="14.00"> types = (integer, integer, integer, numeric?)</text>
<text text-anchor="start" x="334.5" y="-308.3" font-family="Times,serif" font-size="14.00"> keys = ()</text>
<text text-anchor="start" x="334.5" y="-293.3" font-family="Times,serif" font-size="14.00"> Project (#0)</text>
<text text-anchor="start" x="334.5" y="-278.3" font-family="Times,serif" font-size="14.00"> types = (integer)</text>
<text text-anchor="start" x="334.5" y="-263.3" font-family="Times,serif" font-size="14.00"> keys = ()</text>
<text text-anchor="start" x="334.5" y="-248.3" font-family="Times,serif" font-size="14.00"> Distinct group=(#0)</text>
<text text-anchor="start" x="334.5" y="-233.3" font-family="Times,serif" font-size="14.00"> types = (integer)</text>
<text text-anchor="start" x="334.5" y="-218.3" font-family="Times,serif" font-size="14.00"> keys = ((#0))</text>
<text text-anchor="start" x="334.5" y="-203.3" font-family="Times,serif" font-size="14.00"> ArrangeBy (#0)</text>
<text text-anchor="start" x="334.5" y="-188.3" font-family="Times,serif" font-size="14.00"> types = (integer)</text>
<text text-anchor="start" x="334.5" y="-173.3" font-family="Times,serif" font-size="14.00"> keys = ((#0))</text>
</g>
<!-- node1&#45;&gt;node2 -->
<g id="edge1" class="edge">
<title>node1&#45;&gt;node2</title>
<path fill="none" stroke="black" d="M414.97,-165.29C402.32,-150.37 389.48,-135.23 377.6,-121.22"/>
<polygon fill="black" stroke="black" points="380.24,-118.92 371.1,-113.56 374.9,-123.45 380.24,-118.92"/>
<text text-anchor="start" x="399" y="-135.8" font-family="Times,serif" font-size="14.00">%1</text>
</g>
</g>
</svg>
