<?xml version="1.0" encoding="UTF-8" standalone="no"?>
<!DOCTYPE svg PUBLIC "-//W3C//DTD SVG 1.1//EN"
 "http://www.w3.org/Graphics/SVG/1.1/DTD/svg11.dtd">
<!-- Generated by graphviz version 2.43.0 (0)
 -->
<!-- Title: G Pages: 1 -->
<svg width="746pt" height="223pt"
 viewBox="0.00 0.00 746.00 223.00" xmlns="http://www.w3.org/2000/svg" xmlns:xlink="http://www.w3.org/1999/xlink">
<g id="graph0" class="graph" transform="scale(1 1) rotate(0) translate(4 219)">
<title>G</title>
<polygon fill="white" stroke="transparent" points="-4,4 -4,-219 742,-219 742,4 -4,4"/>
<!-- node0 -->
<g id="node1" class="node">
<title>node0</title>
<polygon fill="none" stroke="black" points="0,-178.5 0,-214.5 288,-214.5 288,-178.5 0,-178.5"/>
<text text-anchor="start" x="8" y="-192.8" font-family="Times,serif" font-size="14.00">Get simplify_outer_joins.public.l (u95)</text>
</g>
<!-- node2 -->
<g id="node3" class="node">
<title>node2</title>
<polygon fill="none" stroke="black" points="164,-90.5 164,-126.5 430,-126.5 430,-90.5 164,-90.5"/>
<text text-anchor="start" x="172" y="-104.8" font-family="Times,serif" font-size="14.00">FullOuterJoin %0 %1 on (#1 = #2)</text>
</g>
<!-- node0&#45;&gt;node2 -->
<g id="edge4" class="edge">
<title>node0&#45;&gt;node2</title>
<path fill="none" stroke="black" d="M174.59,-178.3C198.54,-164.84 232.02,-146.03 257.91,-131.47"/>
<polygon fill="black" stroke="black" points="259.72,-134.47 266.72,-126.52 256.29,-128.37 259.72,-134.47"/>
<text text-anchor="start" x="230" y="-148.8" font-family="Times,serif" font-size="14.00">%0</text>
</g>
<!-- node1 -->
<g id="node2" class="node">
<title>node1</title>
<polygon fill="none" stroke="black" points="306,-178.5 306,-214.5 596,-214.5 596,-178.5 306,-178.5"/>
<text text-anchor="start" x="314" y="-192.8" font-family="Times,serif" font-size="14.00">Get simplify_outer_joins.public.r (u97)</text>
</g>
<!-- node1&#45;&gt;node2 -->
<g id="edge1" class="edge">
<title>node1&#45;&gt;node2</title>
<path fill="none" stroke="black" d="M420.21,-178.3C396.1,-164.84 362.41,-146.03 336.35,-131.47"/>
<polygon fill="black" stroke="black" points="337.92,-128.34 327.48,-126.52 334.5,-134.45 337.92,-128.34"/>
<text text-anchor="start" x="384" y="-148.8" font-family="Times,serif" font-size="14.00">%1</text>
</g>
<!-- node4 -->
<g id="node5" class="node">
<title>node4</title>
<polygon fill="none" stroke="black" points="311.5,-0.5 311.5,-38.5 578.5,-38.5 578.5,-0.5 311.5,-0.5"/>
<text text-anchor="start" x="319.5" y="-23.3" font-family="Times,serif" font-size="14.00">LeftOuterJoin %2 %3 on (#1 = #4)</text>
<text text-anchor="start" x="319.5" y="-8.3" font-family="Times,serif" font-size="14.00"> Filter (#0 &gt; #3)</text>
</g>
<!-- node2&#45;&gt;node4 -->
<g id="edge3" class="edge">
<title>node2&#45;&gt;node4</title>
<path fill="none" stroke="black" d="M326.24,-90.31C348.9,-76.99 380.52,-58.4 405.44,-43.75"/>
<polygon fill="black" stroke="black" points="407.45,-46.64 414.29,-38.55 403.9,-40.6 407.45,-46.64"/>
<text text-anchor="start" x="380" y="-60.8" font-family="Times,serif" font-size="14.00">%2</text>
</g>
<!-- node3 -->
<g id="node4" class="node">
<title>node3</title>
<polygon fill="none" stroke="black" points="448,-90.5 448,-126.5 738,-126.5 738,-90.5 448,-90.5"/>
<text text-anchor="start" x="456" y="-104.8" font-family="Times,serif" font-size="14.00">Get simplify_outer_joins.public.t (u99)</text>
</g>
<!-- node3&#45;&gt;node4 -->
<g id="edge2" class="edge">
<title>node3&#45;&gt;node4</title>
<path fill="none" stroke="black" d="M563.76,-90.31C541.1,-76.99 509.48,-58.4 484.56,-43.75"/>
<polygon fill="black" stroke="black" points="486.1,-40.6 475.71,-38.55 482.55,-46.64 486.1,-40.6"/>
<text text-anchor="start" x="532" y="-60.8" font-family="Times,serif" font-size="14.00">%3</text>
</g>
</g>
</svg>
