<?xml version="1.0" encoding="UTF-8" standalone="no"?>
<!DOCTYPE svg PUBLIC "-//W3C//DTD SVG 1.1//EN"
 "http://www.w3.org/Graphics/SVG/1.1/DTD/svg11.dtd">
<!-- Generated by graphviz version 2.43.0 (0)
 -->
<!-- Title: G Pages: 1 -->
<svg width="988pt" height="1391pt"
 viewBox="0.00 0.00 988.00 1391.00" xmlns="http://www.w3.org/2000/svg" xmlns:xlink="http://www.w3.org/1999/xlink">
<g id="graph0" class="graph" transform="scale(1 1) rotate(0) translate(4 1387)">
<title>G</title>
<polygon fill="white" stroke="transparent" points="-4,4 -4,-1387 984,-1387 984,4 -4,4"/>
<!-- node0 -->
<g id="node1" class="node">
<title>node0</title>
<polygon fill="none" stroke="black" points="0,-1239.5 0,-1382.5 288,-1382.5 288,-1239.5 0,-1239.5"/>
<text text-anchor="start" x="8" y="-1367.3" font-family="Times,serif" font-size="14.00">Get simplify_outer_joins.public.l (u95)</text>
<text text-anchor="start" x="8" y="-1352.3" font-family="Times,serif" font-size="14.00"> types = (integer?, integer?)</text>
<text text-anchor="start" x="8" y="-1337.3" font-family="Times,serif" font-size="14.00"> keys = ()</text>
<text text-anchor="start" x="8" y="-1322.3" font-family="Times,serif" font-size="14.00"> Filter !(isnull(#1))</text>
<text text-anchor="start" x="8" y="-1307.3" font-family="Times,serif" font-size="14.00"> types = (integer?, integer)</text>
<text text-anchor="start" x="8" y="-1292.3" font-family="Times,serif" font-size="14.00"> keys = ()</text>
<text text-anchor="start" x="8" y="-1277.3" font-family="Times,serif" font-size="14.00"> ArrangeBy (#1)</text>
<text text-anchor="start" x="8" y="-1262.3" font-family="Times,serif" font-size="14.00"> types = (integer?, integer)</text>
<text text-anchor="start" x="8" y="-1247.3" font-family="Times,serif" font-size="14.00"> keys = ()</text>
</g>
<!-- node2 -->
<g id="node3" class="node">
<title>node2</title>
<polygon fill="none" stroke="black" points="132,-1059.5 132,-1187.5 462,-1187.5 462,-1059.5 132,-1059.5"/>
<text text-anchor="start" x="140" y="-1172.3" font-family="Times,serif" font-size="14.00">Let l0 =</text>
<text text-anchor="start" x="140" y="-1157.3" font-family="Times,serif" font-size="14.00"> Join %0 %1 (= #1 #2)</text>
<text text-anchor="start" x="140" y="-1142.3" font-family="Times,serif" font-size="14.00"> implementation = Differential %1 %0.(#1)</text>
<text text-anchor="start" x="140" y="-1127.3" font-family="Times,serif" font-size="14.00"> types = (integer?, integer, integer, integer)</text>
<text text-anchor="start" x="140" y="-1112.3" font-family="Times,serif" font-size="14.00"> keys = ()</text>
<text text-anchor="start" x="140" y="-1097.3" font-family="Times,serif" font-size="14.00"> Project (#0, #1, #3)</text>
<text text-anchor="start" x="140" y="-1082.3" font-family="Times,serif" font-size="14.00"> types = (integer?, integer, integer)</text>
<text text-anchor="start" x="140" y="-1067.3" font-family="Times,serif" font-size="14.00"> keys = ()</text>
</g>
<!-- node0&#45;&gt;node2 -->
<g id="edge13" class="edge">
<title>node0&#45;&gt;node2</title>
<path fill="none" stroke="black" d="M202.28,-1239.34C214.11,-1225 226.55,-1209.91 238.39,-1195.56"/>
<polygon fill="black" stroke="black" points="241.24,-1197.61 244.9,-1187.67 235.84,-1193.16 241.24,-1197.61"/>
<text text-anchor="start" x="230" y="-1209.8" font-family="Times,serif" font-size="14.00">%0</text>
</g>
<!-- node1 -->
<g id="node2" class="node">
<title>node1</title>
<polygon fill="none" stroke="black" points="306,-1262 306,-1360 596,-1360 596,-1262 306,-1262"/>
<text text-anchor="start" x="314" y="-1344.8" font-family="Times,serif" font-size="14.00">Get simplify_outer_joins.public.r (u97)</text>
<text text-anchor="start" x="314" y="-1329.8" font-family="Times,serif" font-size="14.00"> types = (integer?, integer)</text>
<text text-anchor="start" x="314" y="-1314.8" font-family="Times,serif" font-size="14.00"> keys = ()</text>
<text text-anchor="start" x="314" y="-1299.8" font-family="Times,serif" font-size="14.00"> Filter !(isnull(#0))</text>
<text text-anchor="start" x="314" y="-1284.8" font-family="Times,serif" font-size="14.00"> types = (integer, integer)</text>
<text text-anchor="start" x="314" y="-1269.8" font-family="Times,serif" font-size="14.00"> keys = ()</text>
</g>
<!-- node1&#45;&gt;node2 -->
<g id="edge10" class="edge">
<title>node1&#45;&gt;node2</title>
<path fill="none" stroke="black" d="M410.94,-1261.75C394.12,-1241.48 374.22,-1217.51 355.79,-1195.31"/>
<polygon fill="black" stroke="black" points="358.42,-1193 349.34,-1187.55 353.03,-1197.48 358.42,-1193"/>
<text text-anchor="start" x="374" y="-1209.8" font-family="Times,serif" font-size="14.00">%1</text>
</g>
<!-- node4 -->
<g id="node5" class="node">
<title>node4</title>
<polygon fill="none" stroke="black" points="451,-879.5 451,-1007.5 789,-1007.5 789,-879.5 451,-879.5"/>
<text text-anchor="start" x="459" y="-992.3" font-family="Times,serif" font-size="14.00">Let l1 =</text>
<text text-anchor="start" x="459" y="-977.3" font-family="Times,serif" font-size="14.00"> Join %2 %3 (= #1 #3)</text>
<text text-anchor="start" x="459" y="-962.3" font-family="Times,serif" font-size="14.00"> implementation = Differential %2 %3.(#0)</text>
<text text-anchor="start" x="459" y="-947.3" font-family="Times,serif" font-size="14.00"> types = (integer?, integer, integer, integer?)</text>
<text text-anchor="start" x="459" y="-932.3" font-family="Times,serif" font-size="14.00"> keys = ()</text>
<text text-anchor="start" x="459" y="-917.3" font-family="Times,serif" font-size="14.00"> Project (#0..=#2)</text>
<text text-anchor="start" x="459" y="-902.3" font-family="Times,serif" font-size="14.00"> types = (integer?, integer, integer)</text>
<text text-anchor="start" x="459" y="-887.3" font-family="Times,serif" font-size="14.00"> keys = ()</text>
</g>
<!-- node2&#45;&gt;node4 -->
<g id="edge2" class="edge">
<title>node2&#45;&gt;node4</title>
<path fill="none" stroke="black" d="M411.33,-1059.49C438.93,-1044.29 468.53,-1027.97 496.52,-1012.55"/>
<polygon fill="black" stroke="black" points="498.48,-1015.46 505.55,-1007.57 495.1,-1009.33 498.48,-1015.46"/>
<text text-anchor="start" x="468" y="-1029.8" font-family="Times,serif" font-size="14.00">%2</text>
</g>
<!-- node5 -->
<g id="node6" class="node">
<title>node5</title>
<polygon fill="none" stroke="black" points="161.5,-677 161.5,-790 432.5,-790 432.5,-677 161.5,-677"/>
<text text-anchor="start" x="169.5" y="-774.8" font-family="Times,serif" font-size="14.00">Let l2 =</text>
<text text-anchor="start" x="169.5" y="-759.8" font-family="Times,serif" font-size="14.00"> Get %2 (l0)</text>
<text text-anchor="start" x="169.5" y="-744.8" font-family="Times,serif" font-size="14.00"> types = (integer?, integer, integer)</text>
<text text-anchor="start" x="169.5" y="-729.8" font-family="Times,serif" font-size="14.00"> keys = ()</text>
<text text-anchor="start" x="169.5" y="-714.8" font-family="Times,serif" font-size="14.00"> Filter (#0 &gt; #2)</text>
<text text-anchor="start" x="169.5" y="-699.8" font-family="Times,serif" font-size="14.00"> types = (integer, integer, integer)</text>
<text text-anchor="start" x="169.5" y="-684.8" font-family="Times,serif" font-size="14.00"> keys = ()</text>
</g>
<!-- node2&#45;&gt;node5 -->
<g id="edge12" class="edge">
<title>node2&#45;&gt;node5</title>
<path fill="none" stroke="black" d="M297,-1059.3C297,-988.07 297,-872.82 297,-800.48"/>
<polygon fill="black" stroke="black" points="300.5,-800.12 297,-790.12 293.5,-800.12 300.5,-800.12"/>
<text text-anchor="start" x="297" y="-939.8" font-family="Times,serif" font-size="14.00">%2</text>
</g>
<!-- node3 -->
<g id="node4" class="node">
<title>node3</title>
<polygon fill="none" stroke="black" points="480,-1074.5 480,-1172.5 770,-1172.5 770,-1074.5 480,-1074.5"/>
<text text-anchor="start" x="488" y="-1157.3" font-family="Times,serif" font-size="14.00">Get simplify_outer_joins.public.t (u99)</text>
<text text-anchor="start" x="488" y="-1142.3" font-family="Times,serif" font-size="14.00"> types = (integer?)</text>
<text text-anchor="start" x="488" y="-1127.3" font-family="Times,serif" font-size="14.00"> keys = ()</text>
<text text-anchor="start" x="488" y="-1112.3" font-family="Times,serif" font-size="14.00"> ArrangeBy (#0)</text>
<text text-anchor="start" x="488" y="-1097.3" font-family="Times,serif" font-size="14.00"> types = (integer?)</text>
<text text-anchor="start" x="488" y="-1082.3" font-family="Times,serif" font-size="14.00"> keys = ()</text>
</g>
<!-- node3&#45;&gt;node4 -->
<g id="edge3" class="edge">
<title>node3&#45;&gt;node4</title>
<path fill="none" stroke="black" d="M623.65,-1074.33C623.16,-1056.96 622.6,-1036.95 622.06,-1017.91"/>
<polygon fill="black" stroke="black" points="625.56,-1017.66 621.78,-1007.77 618.56,-1017.86 625.56,-1017.66"/>
<text text-anchor="start" x="622" y="-1029.8" font-family="Times,serif" font-size="14.00">%3</text>
</g>
<!-- node6 -->
<g id="node7" class="node">
<title>node6</title>
<polygon fill="none" stroke="black" points="455.5,-639.5 455.5,-827.5 726.5,-827.5 726.5,-639.5 455.5,-639.5"/>
<text text-anchor="start" x="463.5" y="-812.3" font-family="Times,serif" font-size="14.00">Get %4 (l1)</text>
<text text-anchor="start" x="463.5" y="-797.3" font-family="Times,serif" font-size="14.00"> types = (integer?, integer, integer)</text>
<text text-anchor="start" x="463.5" y="-782.3" font-family="Times,serif" font-size="14.00"> keys = ()</text>
<text text-anchor="start" x="463.5" y="-767.3" font-family="Times,serif" font-size="14.00"> Project (#1)</text>
<text text-anchor="start" x="463.5" y="-752.3" font-family="Times,serif" font-size="14.00"> types = (integer)</text>
<text text-anchor="start" x="463.5" y="-737.3" font-family="Times,serif" font-size="14.00"> keys = ()</text>
<text text-anchor="start" x="463.5" y="-722.3" font-family="Times,serif" font-size="14.00"> Distinct group=(#0)</text>
<text text-anchor="start" x="463.5" y="-707.3" font-family="Times,serif" font-size="14.00"> types = (integer)</text>
<text text-anchor="start" x="463.5" y="-692.3" font-family="Times,serif" font-size="14.00"> keys = ((#0))</text>
<text text-anchor="start" x="463.5" y="-677.3" font-family="Times,serif" font-size="14.00"> ArrangeBy (#0)</text>
<text text-anchor="start" x="463.5" y="-662.3" font-family="Times,serif" font-size="14.00"> types = (integer)</text>
<text text-anchor="start" x="463.5" y="-647.3" font-family="Times,serif" font-size="14.00"> keys = ((#0))</text>
</g>
<!-- node4&#45;&gt;node6 -->
<g id="edge4" class="edge">
<title>node4&#45;&gt;node6</title>
<path fill="none" stroke="black" d="M611.18,-879.25C609.36,-866.17 607.39,-852.06 605.43,-837.98"/>
<polygon fill="black" stroke="black" points="608.85,-837.15 604,-827.73 601.91,-838.12 608.85,-837.15"/>
<text text-anchor="start" x="608" y="-849.8" font-family="Times,serif" font-size="14.00">%4</text>
</g>
<!-- node10 -->
<g id="node11" class="node">
<title>node10</title>
<polygon fill="none" stroke="black" points="600,-477.5 600,-620.5 980,-620.5 980,-477.5 600,-477.5"/>
<text text-anchor="start" x="608" y="-605.3" font-family="Times,serif" font-size="14.00">Get %4 (l1)</text>
<text text-anchor="start" x="608" y="-590.3" font-family="Times,serif" font-size="14.00"> types = (integer?, integer, integer)</text>
<text text-anchor="start" x="608" y="-575.3" font-family="Times,serif" font-size="14.00"> keys = ()</text>
<text text-anchor="start" x="608" y="-560.3" font-family="Times,serif" font-size="14.00"> Filter (#0 &gt; #2)</text>
<text text-anchor="start" x="608" y="-545.3" font-family="Times,serif" font-size="14.00"> types = (integer, integer, integer)</text>
<text text-anchor="start" x="608" y="-530.3" font-family="Times,serif" font-size="14.00"> keys = ()</text>
<text text-anchor="start" x="608" y="-515.3" font-family="Times,serif" font-size="14.00"> Project (#0, #1, #1, #2, #1)</text>
<text text-anchor="start" x="608" y="-500.3" font-family="Times,serif" font-size="14.00"> types = (integer, integer, integer, integer, integer)</text>
<text text-anchor="start" x="608" y="-485.3" font-family="Times,serif" font-size="14.00"> keys = ()</text>
</g>
<!-- node4&#45;&gt;node10 -->
<g id="edge11" class="edge">
<title>node4&#45;&gt;node10</title>
<path fill="none" stroke="black" d="M697.23,-879.47C712.06,-864.05 726.04,-846.58 736,-828 768.75,-766.88 781.8,-688.73 786.92,-630.86"/>
<polygon fill="black" stroke="black" points="790.43,-630.92 787.76,-620.67 783.45,-630.35 790.43,-630.92"/>
<text text-anchor="start" x="724" y="-849.8" font-family="Times,serif" font-size="14.00">%4</text>
</g>
<!-- node7 -->
<g id="node8" class="node">
<title>node7</title>
<polygon fill="none" stroke="black" points="409,-255.5 409,-458.5 735,-458.5 735,-255.5 409,-255.5"/>
<text text-anchor="start" x="417" y="-443.3" font-family="Times,serif" font-size="14.00">Join %5 %6 (= #1 #3)</text>
<text text-anchor="start" x="417" y="-428.3" font-family="Times,serif" font-size="14.00"> implementation = Differential %5 %6.(#0)</text>
<text text-anchor="start" x="417" y="-413.3" font-family="Times,serif" font-size="14.00"> types = (integer, integer, integer, integer)</text>
<text text-anchor="start" x="417" y="-398.3" font-family="Times,serif" font-size="14.00"> keys = ()</text>
<text text-anchor="start" x="417" y="-383.3" font-family="Times,serif" font-size="14.00"> Project (#0..=#2)</text>
<text text-anchor="start" x="417" y="-368.3" font-family="Times,serif" font-size="14.00"> types = (integer, integer, integer)</text>
<text text-anchor="start" x="417" y="-353.3" font-family="Times,serif" font-size="14.00"> keys = ()</text>
<text text-anchor="start" x="417" y="-338.3" font-family="Times,serif" font-size="14.00"> Negate</text>
<text text-anchor="start" x="417" y="-323.3" font-family="Times,serif" font-size="14.00"> types = (integer, integer, integer)</text>
<text text-anchor="start" x="417" y="-308.3" font-family="Times,serif" font-size="14.00"> keys = ()</text>
<text text-anchor="start" x="417" y="-293.3" font-family="Times,serif" font-size="14.00"> Project (#0, #1, #1, #2)</text>
<text text-anchor="start" x="417" y="-278.3" font-family="Times,serif" font-size="14.00"> types = (integer, integer, integer, integer)</text>
<text text-anchor="start" x="417" y="-263.3" font-family="Times,serif" font-size="14.00"> keys = ()</text>
</g>
<!-- node5&#45;&gt;node7 -->
<g id="edge9" class="edge">
<title>node5&#45;&gt;node7</title>
<path fill="none" stroke="black" d="M337.87,-676.84C378.35,-621.72 441.41,-535.85 491.89,-467.1"/>
<polygon fill="black" stroke="black" points="494.88,-468.94 497.98,-458.8 489.24,-464.79 494.88,-468.94"/>
<text text-anchor="start" x="483" y="-545.3" font-family="Times,serif" font-size="14.00">%5</text>
</g>
<!-- node8 -->
<g id="node9" class="node">
<title>node8</title>
<polygon fill="none" stroke="black" points="69.5,-308 69.5,-406 390.5,-406 390.5,-308 69.5,-308"/>
<text text-anchor="start" x="77.5" y="-390.8" font-family="Times,serif" font-size="14.00">Get %5 (l2)</text>
<text text-anchor="start" x="77.5" y="-375.8" font-family="Times,serif" font-size="14.00"> types = (integer, integer, integer)</text>
<text text-anchor="start" x="77.5" y="-360.8" font-family="Times,serif" font-size="14.00"> keys = ()</text>
<text text-anchor="start" x="77.5" y="-345.8" font-family="Times,serif" font-size="14.00"> Project (#0, #1, #1, #2)</text>
<text text-anchor="start" x="77.5" y="-330.8" font-family="Times,serif" font-size="14.00"> types = (integer, integer, integer, integer)</text>
<text text-anchor="start" x="77.5" y="-315.8" font-family="Times,serif" font-size="14.00"> keys = ()</text>
</g>
<!-- node5&#45;&gt;node8 -->
<g id="edge5" class="edge">
<title>node5&#45;&gt;node8</title>
<path fill="none" stroke="black" d="M287.04,-676.84C274.53,-606.92 253.17,-487.52 240.44,-416.36"/>
<polygon fill="black" stroke="black" points="243.83,-415.45 238.63,-406.22 236.94,-416.68 243.83,-415.45"/>
<text text-anchor="start" x="276" y="-545.3" font-family="Times,serif" font-size="14.00">%5</text>
</g>
<!-- node6&#45;&gt;node7 -->
<g id="edge7" class="edge">
<title>node6&#45;&gt;node7</title>
<path fill="none" stroke="black" d="M570.33,-639.33C569.4,-633.15 568.61,-627 568,-621 562.92,-571.27 562.92,-515.98 564.58,-468.98"/>
<polygon fill="black" stroke="black" points="568.09,-468.9 564.97,-458.77 561.09,-468.63 568.09,-468.9"/>
<text text-anchor="start" x="568" y="-545.3" font-family="Times,serif" font-size="14.00">%6</text>
</g>
<!-- node9 -->
<g id="node10" class="node">
<title>node9</title>
<polygon fill="none" stroke="black" points="374,-105.5 374,-203.5 762,-203.5 762,-105.5 374,-105.5"/>
<text text-anchor="start" x="382" y="-188.3" font-family="Times,serif" font-size="14.00">Union %7 %8</text>
<text text-anchor="start" x="382" y="-173.3" font-family="Times,serif" font-size="14.00"> types = (integer, integer, integer, integer)</text>
<text text-anchor="start" x="382" y="-158.3" font-family="Times,serif" font-size="14.00"> keys = ()</text>
<text text-anchor="start" x="382" y="-143.3" font-family="Times,serif" font-size="14.00"> Map null</text>
<text text-anchor="start" x="382" y="-128.3" font-family="Times,serif" font-size="14.00"> types = (integer, integer, integer, integer, integer?)</text>
<text text-anchor="start" x="382" y="-113.3" font-family="Times,serif" font-size="14.00"> keys = ()</text>
</g>
<!-- node7&#45;&gt;node9 -->
<g id="edge8" class="edge">
<title>node7&#45;&gt;node9</title>
<path fill="none" stroke="black" d="M569.99,-255.46C569.71,-241.19 569.43,-226.94 569.16,-213.85"/>
<polygon fill="black" stroke="black" points="572.66,-213.55 568.96,-203.62 565.66,-213.68 572.66,-213.55"/>
<text text-anchor="start" x="569" y="-225.8" font-family="Times,serif" font-size="14.00">%7</text>
</g>
<!-- node8&#45;&gt;node9 -->
<g id="edge6" class="edge">
<title>node8&#45;&gt;node9</title>
<path fill="none" stroke="black" d="M310.84,-307.94C339.05,-291.18 370.92,-272.25 400,-255 425.3,-239.99 452.75,-223.73 477.98,-208.78"/>
<polygon fill="black" stroke="black" points="479.99,-211.66 486.81,-203.56 476.42,-205.64 479.99,-211.66"/>
<text text-anchor="start" x="455" y="-225.8" font-family="Times,serif" font-size="14.00">%8</text>
</g>
<!-- node11 -->
<g id="node12" class="node">
<title>node11</title>
<polygon fill="none" stroke="black" points="485,-0.5 485,-53.5 873,-53.5 873,-0.5 485,-0.5"/>
<text text-anchor="start" x="493" y="-38.3" font-family="Times,serif" font-size="14.00">Union %9 %10</text>
<text text-anchor="start" x="493" y="-23.3" font-family="Times,serif" font-size="14.00"> types = (integer, integer, integer, integer, integer?)</text>
<text text-anchor="start" x="493" y="-8.3" font-family="Times,serif" font-size="14.00"> keys = ()</text>
</g>
<!-- node9&#45;&gt;node11 -->
<g id="edge1" class="edge">
<title>node9&#45;&gt;node11</title>
<path fill="none" stroke="black" d="M610.6,-105.34C623.58,-90.66 637.56,-74.86 649.47,-61.38"/>
<polygon fill="black" stroke="black" points="652.22,-63.56 656.23,-53.75 646.98,-58.92 652.22,-63.56"/>
<text text-anchor="start" x="639" y="-75.8" font-family="Times,serif" font-size="14.00">%9</text>
</g>
<!-- node10&#45;&gt;node11 -->
<g id="edge14" class="edge">
<title>node10&#45;&gt;node11</title>
<path fill="none" stroke="black" d="M803.71,-477.34C817.78,-386.14 830.19,-224.95 771,-105 762.21,-87.19 747.2,-71.96 731.82,-59.86"/>
<polygon fill="black" stroke="black" points="733.88,-57.03 723.78,-53.82 729.68,-62.63 733.88,-57.03"/>
<text text-anchor="start" x="809" y="-225.8" font-family="Times,serif" font-size="14.00">%10</text>
</g>
</g>
</svg>
