<?xml version="1.0" encoding="UTF-8" standalone="no"?>
<!DOCTYPE svg PUBLIC "-//W3C//DTD SVG 1.1//EN"
 "http://www.w3.org/Graphics/SVG/1.1/DTD/svg11.dtd">
<!-- Generated by graphviz version 2.43.0 (0)
 -->
<!-- Title: G Pages: 1 -->
<svg width="850pt" height="737pt"
 viewBox="0.00 0.00 850.00 737.00" xmlns="http://www.w3.org/2000/svg" xmlns:xlink="http://www.w3.org/1999/xlink">
<g id="graph0" class="graph" transform="scale(1 1) rotate(0) translate(4 733)">
<title>G</title>
<polygon fill="white" stroke="transparent" points="-4,4 -4,-733 846,-733 846,4 -4,4"/>
<g id="clust1" class="cluster">
<title>cluster5</title>
<polygon fill="none" stroke="black" points="572,-520 572,-721 834,-721 834,-520 572,-520"/>
<text text-anchor="middle" x="622.5" y="-705.8" font-family="Times,serif" font-size="14.00">Box5:Select</text>
</g>
<g id="clust3" class="cluster">
<title>cluster0</title>
<polygon fill="none" stroke="black" points="348,-311 348,-512 702,-512 702,-311 348,-311"/>
<text text-anchor="middle" x="410.5" y="-496.8" font-family="Times,serif" font-size="14.00">Box0:OuterJoin</text>
</g>
<g id="clust5" class="cluster">
<title>cluster1</title>
<polygon fill="none" stroke="black" points="83,-125 83,-303 437,-303 437,-125 83,-125"/>
<text text-anchor="middle" x="145.5" y="-287.8" font-family="Times,serif" font-size="14.00">Box1:OuterJoin</text>
</g>
<g id="clust7" class="cluster">
<title>cluster2</title>
<polygon fill="none" stroke="black" points="8,-8 8,-117 170,-117 170,-8 8,-8"/>
<text text-anchor="middle" x="49.5" y="-101.8" font-family="Times,serif" font-size="14.00">Box2:Get</text>
</g>
<g id="clust9" class="cluster">
<title>cluster3</title>
<polygon fill="none" stroke="black" points="178,-8 178,-117 340,-117 340,-8 178,-8"/>
<text text-anchor="middle" x="219.5" y="-101.8" font-family="Times,serif" font-size="14.00">Box3:Get</text>
</g>
<g id="clust11" class="cluster">
<title>cluster4</title>
<polygon fill="none" stroke="black" points="445,-171 445,-257 607,-257 607,-171 445,-171"/>
<text text-anchor="middle" x="486.5" y="-241.8" font-family="Times,serif" font-size="14.00">Box4:Get</text>
</g>
<!-- boxhead5 -->
<g id="node1" class="node">
<title>boxhead5</title>
<polygon fill="none" stroke="black" points="672.5,-528.5 672.5,-689.5 825.5,-689.5 825.5,-528.5 672.5,-528.5"/>
<text text-anchor="middle" x="749" y="-674.3" font-family="Times,serif" font-size="14.00">Distinct: Preserve</text>
<polyline fill="none" stroke="black" points="672.5,-666.5 825.5,-666.5 "/>
<text text-anchor="middle" x="749" y="-651.3" font-family="Times,serif" font-size="14.00">0: integer (Q4.C0)</text>
<polyline fill="none" stroke="black" points="672.5,-643.5 825.5,-643.5 "/>
<text text-anchor="middle" x="749" y="-628.3" font-family="Times,serif" font-size="14.00">1: integer? (Q4.C1)</text>
<polyline fill="none" stroke="black" points="672.5,-620.5 825.5,-620.5 "/>
<text text-anchor="middle" x="749" y="-605.3" font-family="Times,serif" font-size="14.00">2: integer? (Q4.C2)</text>
<polyline fill="none" stroke="black" points="672.5,-597.5 825.5,-597.5 "/>
<text text-anchor="middle" x="749" y="-582.3" font-family="Times,serif" font-size="14.00">3: integer (Q4.C3)</text>
<polyline fill="none" stroke="black" points="672.5,-574.5 825.5,-574.5 "/>
<text text-anchor="middle" x="749" y="-559.3" font-family="Times,serif" font-size="14.00">4: integer? (Q4.C4)</text>
<polyline fill="none" stroke="black" points="672.5,-551.5 825.5,-551.5 "/>
<text text-anchor="middle" x="749" y="-536.3" font-family="Times,serif" font-size="14.00">(Q4.C0 &gt; Q4.C3)</text>
</g>
<!-- Q4 -->
<g id="node2" class="node">
<title>Q4</title>
<ellipse fill="none" stroke="black" cx="617" cy="-609" rx="37.09" ry="37.09"/>
<text text-anchor="middle" x="617" y="-605.3" font-family="Times,serif" font-size="14.00">Q4(F)</text>
</g>
<!-- boxhead0 -->
<g id="node3" class="node">
<title>boxhead0</title>
<polygon fill="none" stroke="black" points="540.5,-319.5 540.5,-480.5 693.5,-480.5 693.5,-319.5 540.5,-319.5"/>
<text text-anchor="middle" x="617" y="-465.3" font-family="Times,serif" font-size="14.00">Distinct: Preserve</text>
<polyline fill="none" stroke="black" points="540.5,-457.5 693.5,-457.5 "/>
<text text-anchor="middle" x="617" y="-442.3" font-family="Times,serif" font-size="14.00">0: integer? (Q2.C0)</text>
<polyline fill="none" stroke="black" points="540.5,-434.5 693.5,-434.5 "/>
<text text-anchor="middle" x="617" y="-419.3" font-family="Times,serif" font-size="14.00">1: integer? (Q2.C1)</text>
<polyline fill="none" stroke="black" points="540.5,-411.5 693.5,-411.5 "/>
<text text-anchor="middle" x="617" y="-396.3" font-family="Times,serif" font-size="14.00">2: integer? (Q2.C2)</text>
<polyline fill="none" stroke="black" points="540.5,-388.5 693.5,-388.5 "/>
<text text-anchor="middle" x="617" y="-373.3" font-family="Times,serif" font-size="14.00">3: integer? (Q2.C3)</text>
<polyline fill="none" stroke="black" points="540.5,-365.5 693.5,-365.5 "/>
<text text-anchor="middle" x="617" y="-350.3" font-family="Times,serif" font-size="14.00">4: integer? (Q3.C0)</text>
<polyline fill="none" stroke="black" points="540.5,-342.5 693.5,-342.5 "/>
<text text-anchor="middle" x="617" y="-327.3" font-family="Times,serif" font-size="14.00">(Q2.C1 = Q3.C0)</text>
</g>
<!-- Q4&#45;&gt;boxhead0 -->
<g id="edge1" class="edge">
<title>Q4&#45;&gt;boxhead0</title>
<path fill="none" stroke="black" stroke-dasharray="5,2" d="M617,-571.94C617,-554.97 617,-533.7 617,-512"/>
</g>
<!-- Q2 -->
<g id="node4" class="node">
<title>Q2</title>
<ellipse fill="none" stroke="black" cx="393" cy="-400" rx="37.09" ry="37.09"/>
<text text-anchor="middle" x="393" y="-396.3" font-family="Times,serif" font-size="14.00">Q2(P)</text>
</g>
<!-- boxhead1 -->
<g id="node6" class="node">
<title>boxhead1</title>
<polygon fill="none" stroke="black" points="275.5,-133.5 275.5,-271.5 428.5,-271.5 428.5,-133.5 275.5,-133.5"/>
<text text-anchor="middle" x="352" y="-256.3" font-family="Times,serif" font-size="14.00">Distinct: Preserve</text>
<polyline fill="none" stroke="black" points="275.5,-248.5 428.5,-248.5 "/>
<text text-anchor="middle" x="352" y="-233.3" font-family="Times,serif" font-size="14.00">0: integer? (Q0.C0)</text>
<polyline fill="none" stroke="black" points="275.5,-225.5 428.5,-225.5 "/>
<text text-anchor="middle" x="352" y="-210.3" font-family="Times,serif" font-size="14.00">1: integer? (Q0.C1)</text>
<polyline fill="none" stroke="black" points="275.5,-202.5 428.5,-202.5 "/>
<text text-anchor="middle" x="352" y="-187.3" font-family="Times,serif" font-size="14.00">2: integer? (Q1.C0)</text>
<polyline fill="none" stroke="black" points="275.5,-179.5 428.5,-179.5 "/>
<text text-anchor="middle" x="352" y="-164.3" font-family="Times,serif" font-size="14.00">3: integer? (Q1.C1)</text>
<polyline fill="none" stroke="black" points="275.5,-156.5 428.5,-156.5 "/>
<text text-anchor="middle" x="352" y="-141.3" font-family="Times,serif" font-size="14.00">(Q0.C1 = Q1.C0)</text>
</g>
<!-- Q2&#45;&gt;boxhead1 -->
<g id="edge2" class="edge">
<title>Q2&#45;&gt;boxhead1</title>
<path fill="none" stroke="black" stroke-dasharray="5,2" d="M385.58,-363.6C381.97,-346.39 377.43,-324.75 372.87,-303"/>
</g>
<!-- Q3 -->
<g id="node5" class="node">
<title>Q3</title>
<ellipse fill="none" stroke="black" cx="485" cy="-400" rx="37.09" ry="37.09"/>
<text text-anchor="middle" x="485" y="-396.3" font-family="Times,serif" font-size="14.00">Q3(F)</text>
</g>
<!-- boxhead4 -->
<g id="node11" class="node">
<title>boxhead4</title>
<polygon fill="none" stroke="black" points="453,-179.5 453,-225.5 599,-225.5 599,-179.5 453,-179.5"/>
<text text-anchor="middle" x="526" y="-210.3" font-family="Times,serif" font-size="14.00">Distinct: Preserve</text>
<polyline fill="none" stroke="black" points="453,-202.5 599,-202.5 "/>
<text text-anchor="middle" x="526" y="-187.3" font-family="Times,serif" font-size="14.00">0: integer? (C0)</text>
</g>
<!-- Q3&#45;&gt;boxhead4 -->
<g id="edge3" class="edge">
<title>Q3&#45;&gt;boxhead4</title>
<path fill="none" stroke="black" stroke-dasharray="5,2" d="M492.42,-363.6C498.66,-333.86 507.67,-290.92 514.78,-257"/>
</g>
<!-- Q0 -->
<g id="node7" class="node">
<title>Q0</title>
<ellipse fill="none" stroke="black" cx="128" cy="-202.5" rx="37.09" ry="37.09"/>
<text text-anchor="middle" x="128" y="-198.8" font-family="Times,serif" font-size="14.00">Q0(P)</text>
</g>
<!-- boxhead2 -->
<g id="node9" class="node">
<title>boxhead2</title>
<polygon fill="none" stroke="black" points="16,-16.5 16,-85.5 162,-85.5 162,-16.5 16,-16.5"/>
<text text-anchor="middle" x="89" y="-70.3" font-family="Times,serif" font-size="14.00">Distinct: Preserve</text>
<polyline fill="none" stroke="black" points="16,-62.5 162,-62.5 "/>
<text text-anchor="middle" x="89" y="-47.3" font-family="Times,serif" font-size="14.00">0: integer? (C0)</text>
<polyline fill="none" stroke="black" points="16,-39.5 162,-39.5 "/>
<text text-anchor="middle" x="89" y="-24.3" font-family="Times,serif" font-size="14.00">1: integer? (C1)</text>
</g>
<!-- Q0&#45;&gt;boxhead2 -->
<g id="edge4" class="edge">
<title>Q0&#45;&gt;boxhead2</title>
<path fill="none" stroke="black" stroke-dasharray="5,2" d="M118.86,-166.45C115,-151.68 110.39,-134 105.96,-117"/>
</g>
<!-- Q1 -->
<g id="node8" class="node">
<title>Q1</title>
<ellipse fill="none" stroke="black" cx="220" cy="-202.5" rx="37.09" ry="37.09"/>
<text text-anchor="middle" x="220" y="-198.8" font-family="Times,serif" font-size="14.00">Q1(P)</text>
</g>
<!-- boxhead3 -->
<g id="node10" class="node">
<title>boxhead3</title>
<polygon fill="none" stroke="black" points="186,-16.5 186,-85.5 332,-85.5 332,-16.5 186,-16.5"/>
<text text-anchor="middle" x="259" y="-70.3" font-family="Times,serif" font-size="14.00">Distinct: Preserve</text>
<polyline fill="none" stroke="black" points="186,-62.5 332,-62.5 "/>
<text text-anchor="middle" x="259" y="-47.3" font-family="Times,serif" font-size="14.00">0: integer? (C0)</text>
<polyline fill="none" stroke="black" points="186,-39.5 332,-39.5 "/>
<text text-anchor="middle" x="259" y="-24.3" font-family="Times,serif" font-size="14.00">1: integer (C1)</text>
</g>
<!-- Q1&#45;&gt;boxhead3 -->
<g id="edge5" class="edge">
<title>Q1&#45;&gt;boxhead3</title>
<path fill="none" stroke="black" stroke-dasharray="5,2" d="M229.14,-166.45C233,-151.68 237.61,-134 242.04,-117"/>
</g>
</g>
</svg>
