<?xml version="1.0" encoding="UTF-8" standalone="no"?>
<!DOCTYPE svg PUBLIC "-//W3C//DTD SVG 1.1//EN"
 "http://www.w3.org/Graphics/SVG/1.1/DTD/svg11.dtd">
<!-- Generated by graphviz version 2.43.0 (0)
 -->
<!-- Title: G Pages: 1 -->
<svg width="1137pt" height="842pt"
 viewBox="0.00 0.00 1137.00 842.00" xmlns="http://www.w3.org/2000/svg" xmlns:xlink="http://www.w3.org/1999/xlink">
<g id="graph0" class="graph" transform="scale(1 1) rotate(0) translate(4 838)">
<title>G</title>
<polygon fill="white" stroke="transparent" points="-4,4 -4,-838 1133,-838 1133,4 -4,4"/>
<!-- node0 -->
<g id="node1" class="node">
<title>node0</title>
<polygon fill="none" stroke="black" points="545,-765.5 545,-833.5 646,-833.5 646,-765.5 545,-765.5"/>
<text text-anchor="start" x="553" y="-818.3" font-family="Times,serif" font-size="14.00">Let l0 =</text>
<text text-anchor="start" x="553" y="-803.3" font-family="Times,serif" font-size="14.00"> Constant ()</text>
<text text-anchor="start" x="553" y="-788.3" font-family="Times,serif" font-size="14.00"> types = ()</text>
<text text-anchor="start" x="553" y="-773.3" font-family="Times,serif" font-size="14.00"> keys = (())</text>
</g>
<!-- node2 -->
<g id="node3" class="node">
<title>node2</title>
<polygon fill="none" stroke="black" points="60,-630.5 60,-713.5 587,-713.5 587,-630.5 60,-630.5"/>
<text text-anchor="start" x="68" y="-698.3" font-family="Times,serif" font-size="14.00">Let l1 =</text>
<text text-anchor="start" x="68" y="-683.3" font-family="Times,serif" font-size="14.00"> Join %0 %1</text>
<text text-anchor="start" x="68" y="-668.3" font-family="Times,serif" font-size="14.00"> implementation = Unimplemented</text>
<text text-anchor="start" x="68" y="-653.3" font-family="Times,serif" font-size="14.00"> types = (integer?, integer, text, numeric, date, text, text, integer, text)</text>
<text text-anchor="start" x="68" y="-638.3" font-family="Times,serif" font-size="14.00"> keys = ()</text>
</g>
<!-- node0&#45;&gt;node2 -->
<g id="edge7" class="edge">
<title>node0&#45;&gt;node2</title>
<path fill="none" stroke="black" d="M544.84,-769.27C542.03,-767.8 539.24,-766.37 536.5,-765 503.29,-748.46 466.42,-731.92 432.8,-717.51"/>
<polygon fill="black" stroke="black" points="433.99,-714.21 423.41,-713.51 431.24,-720.65 433.99,-714.21"/>
<text text-anchor="start" x="495.5" y="-735.8" font-family="Times,serif" font-size="14.00">%0</text>
</g>
<!-- node4 -->
<g id="node5" class="node">
<title>node4</title>
<polygon fill="none" stroke="black" points="605,-630.5 605,-713.5 1070,-713.5 1070,-630.5 605,-630.5"/>
<text text-anchor="start" x="613" y="-698.3" font-family="Times,serif" font-size="14.00">Let l2 =</text>
<text text-anchor="start" x="613" y="-683.3" font-family="Times,serif" font-size="14.00"> Join %0 %3</text>
<text text-anchor="start" x="613" y="-668.3" font-family="Times,serif" font-size="14.00"> implementation = Unimplemented</text>
<text text-anchor="start" x="613" y="-653.3" font-family="Times,serif" font-size="14.00"> types = (integer?, text, text, integer, text, numeric, text, text)</text>
<text text-anchor="start" x="613" y="-638.3" font-family="Times,serif" font-size="14.00"> keys = ()</text>
</g>
<!-- node0&#45;&gt;node4 -->
<g id="edge3" class="edge">
<title>node0&#45;&gt;node4</title>
<path fill="none" stroke="black" d="M646.16,-770.02C649.31,-768.31 652.45,-766.62 655.5,-765 684.96,-749.34 717.4,-732.74 746.63,-718.01"/>
<polygon fill="black" stroke="black" points="748.23,-721.13 755.59,-713.51 745.09,-714.87 748.23,-721.13"/>
<text text-anchor="start" x="714.5" y="-735.8" font-family="Times,serif" font-size="14.00">%0</text>
</g>
<!-- node1 -->
<g id="node2" class="node">
<title>node1</title>
<polygon fill="none" stroke="black" points="0,-773 0,-826 527,-826 527,-773 0,-773"/>
<text text-anchor="start" x="8" y="-810.8" font-family="Times,serif" font-size="14.00">Get tpch.public.orders (u68)</text>
<text text-anchor="start" x="8" y="-795.8" font-family="Times,serif" font-size="14.00"> types = (integer?, integer, text, numeric, date, text, text, integer, text)</text>
<text text-anchor="start" x="8" y="-780.8" font-family="Times,serif" font-size="14.00"> keys = ()</text>
</g>
<!-- node1&#45;&gt;node2 -->
<g id="edge6" class="edge">
<title>node1&#45;&gt;node2</title>
<path fill="none" stroke="black" d="M275.79,-772.8C282.61,-758.52 291.35,-740.25 299.47,-723.26"/>
<polygon fill="black" stroke="black" points="302.75,-724.51 303.91,-713.98 296.44,-721.49 302.75,-724.51"/>
<text text-anchor="start" x="293.5" y="-735.8" font-family="Times,serif" font-size="14.00">%1</text>
</g>
<!-- node5 -->
<g id="node6" class="node">
<title>node5</title>
<polygon fill="none" stroke="black" points="125.5,-405.5 125.5,-578.5 1035.5,-578.5 1035.5,-405.5 125.5,-405.5"/>
<text text-anchor="start" x="133.5" y="-563.3" font-family="Times,serif" font-size="14.00">Let l3 =</text>
<text text-anchor="start" x="133.5" y="-548.3" font-family="Times,serif" font-size="14.00"> Join %2 %4</text>
<text text-anchor="start" x="133.5" y="-533.3" font-family="Times,serif" font-size="14.00"> implementation = Unimplemented</text>
<text text-anchor="start" x="133.5" y="-518.3" font-family="Times,serif" font-size="14.00"> types = (integer?, integer, text, numeric, date, text, text, integer, text, integer?, text, text, integer, text, numeric, text, text)</text>
<text text-anchor="start" x="133.5" y="-503.3" font-family="Times,serif" font-size="14.00"> keys = ()</text>
<text text-anchor="start" x="133.5" y="-488.3" font-family="Times,serif" font-size="14.00"> Project (#0..#16)</text>
<text text-anchor="start" x="133.5" y="-473.3" font-family="Times,serif" font-size="14.00"> types = (integer?, integer, text, numeric, date, text, text, integer, text, integer?, text, text, integer, text, numeric, text, text)</text>
<text text-anchor="start" x="133.5" y="-458.3" font-family="Times,serif" font-size="14.00"> keys = ()</text>
<text text-anchor="start" x="133.5" y="-443.3" font-family="Times,serif" font-size="14.00"> Filter true</text>
<text text-anchor="start" x="133.5" y="-428.3" font-family="Times,serif" font-size="14.00"> types = (integer?, integer, text, numeric, date, text, text, integer, text, integer?, text, text, integer, text, numeric, text, text)</text>
<text text-anchor="start" x="133.5" y="-413.3" font-family="Times,serif" font-size="14.00"> keys = ()</text>
</g>
<!-- node2&#45;&gt;node5 -->
<g id="edge4" class="edge">
<title>node2&#45;&gt;node5</title>
<path fill="none" stroke="black" d="M382.14,-630.39C402.08,-616.57 425.25,-600.52 448.57,-584.37"/>
<polygon fill="black" stroke="black" points="450.6,-587.23 456.83,-578.66 446.61,-581.47 450.6,-587.23"/>
<text text-anchor="start" x="428.5" y="-600.8" font-family="Times,serif" font-size="14.00">%2</text>
</g>
<!-- node3 -->
<g id="node4" class="node">
<title>node3</title>
<polygon fill="none" stroke="black" points="664,-773 664,-826 1129,-826 1129,-773 664,-773"/>
<text text-anchor="start" x="672" y="-810.8" font-family="Times,serif" font-size="14.00">Get tpch.public.customer (u64)</text>
<text text-anchor="start" x="672" y="-795.8" font-family="Times,serif" font-size="14.00"> types = (integer?, text, text, integer, text, numeric, text, text)</text>
<text text-anchor="start" x="672" y="-780.8" font-family="Times,serif" font-size="14.00"> keys = ()</text>
</g>
<!-- node3&#45;&gt;node4 -->
<g id="edge1" class="edge">
<title>node3&#45;&gt;node4</title>
<path fill="none" stroke="black" d="M884.42,-772.8C877.7,-758.52 869.12,-740.25 861.13,-723.26"/>
<polygon fill="black" stroke="black" points="864.19,-721.54 856.77,-713.98 857.85,-724.52 864.19,-721.54"/>
<text text-anchor="start" x="871.5" y="-735.8" font-family="Times,serif" font-size="14.00">%3</text>
</g>
<!-- node4&#45;&gt;node5 -->
<g id="edge8" class="edge">
<title>node4&#45;&gt;node5</title>
<path fill="none" stroke="black" d="M778.86,-630.39C758.92,-616.57 735.75,-600.52 712.43,-584.37"/>
<polygon fill="black" stroke="black" points="714.39,-581.47 704.17,-578.66 710.4,-587.23 714.39,-581.47"/>
<text text-anchor="start" x="746.5" y="-600.8" font-family="Times,serif" font-size="14.00">%4</text>
</g>
<!-- node6 -->
<g id="node7" class="node">
<title>node6</title>
<polygon fill="none" stroke="black" points="125.5,-240.5 125.5,-353.5 1035.5,-353.5 1035.5,-240.5 125.5,-240.5"/>
<text text-anchor="start" x="133.5" y="-338.3" font-family="Times,serif" font-size="14.00">Let l4 =</text>
<text text-anchor="start" x="133.5" y="-323.3" font-family="Times,serif" font-size="14.00"> Get %5 (l3)</text>
<text text-anchor="start" x="133.5" y="-308.3" font-family="Times,serif" font-size="14.00"> types = (integer?, integer, text, numeric, date, text, text, integer, text, integer?, text, text, integer, text, numeric, text, text)</text>
<text text-anchor="start" x="133.5" y="-293.3" font-family="Times,serif" font-size="14.00"> keys = ()</text>
<text text-anchor="start" x="133.5" y="-278.3" font-family="Times,serif" font-size="14.00"> Filter (((#14 + #3) = i32tonumeric(123)) &amp;&amp; (#14 = #3))</text>
<text text-anchor="start" x="133.5" y="-263.3" font-family="Times,serif" font-size="14.00"> types = (integer?, integer, text, numeric, date, text, text, integer, text, integer?, text, text, integer, text, numeric, text, text)</text>
<text text-anchor="start" x="133.5" y="-248.3" font-family="Times,serif" font-size="14.00"> keys = ()</text>
</g>
<!-- node5&#45;&gt;node6 -->
<g id="edge2" class="edge">
<title>node5&#45;&gt;node6</title>
<path fill="none" stroke="black" d="M580.5,-405.22C580.5,-391.26 580.5,-377 580.5,-363.62"/>
<polygon fill="black" stroke="black" points="584,-363.59 580.5,-353.59 577,-363.59 584,-363.59"/>
<text text-anchor="start" x="580.5" y="-375.8" font-family="Times,serif" font-size="14.00">%5</text>
</g>
<!-- node7 -->
<g id="node8" class="node">
<title>node7</title>
<polygon fill="none" stroke="black" points="107,-0.5 107,-188.5 1054,-188.5 1054,-0.5 107,-0.5"/>
<text text-anchor="start" x="115" y="-173.3" font-family="Times,serif" font-size="14.00">Get %6 (l4)</text>
<text text-anchor="start" x="115" y="-158.3" font-family="Times,serif" font-size="14.00"> types = (integer?, integer, text, numeric, date, text, text, integer, text, integer?, text, text, integer, text, numeric, text, text)</text>
<text text-anchor="start" x="115" y="-143.3" font-family="Times,serif" font-size="14.00"> keys = ()</text>
<text text-anchor="start" x="115" y="-128.3" font-family="Times,serif" font-size="14.00"> Map &quot;qgm(false)&quot;</text>
<text text-anchor="start" x="115" y="-113.3" font-family="Times,serif" font-size="14.00"> types = (integer?, integer, text, numeric, date, text, text, integer, text, integer?, text, text, integer, text, numeric, text, text, text)</text>
<text text-anchor="start" x="115" y="-98.3" font-family="Times,serif" font-size="14.00"> keys = ()</text>
<text text-anchor="start" x="115" y="-83.3" font-family="Times,serif" font-size="14.00"> Project (#0..#17)</text>
<text text-anchor="start" x="115" y="-68.3" font-family="Times,serif" font-size="14.00"> types = (integer?, integer, text, numeric, date, text, text, integer, text, integer?, text, text, integer, text, numeric, text, text, text)</text>
<text text-anchor="start" x="115" y="-53.3" font-family="Times,serif" font-size="14.00"> keys = ()</text>
<text text-anchor="start" x="115" y="-38.3" font-family="Times,serif" font-size="14.00"> Project (#17, #0..#16)</text>
<text text-anchor="start" x="115" y="-23.3" font-family="Times,serif" font-size="14.00"> types = (text, integer?, integer, text, numeric, date, text, text, integer, text, integer?, text, text, integer, text, numeric, text, text)</text>
<text text-anchor="start" x="115" y="-8.3" font-family="Times,serif" font-size="14.00"> keys = ()</text>
</g>
<!-- node6&#45;&gt;node7 -->
<g id="edge5" class="edge">
<title>node6&#45;&gt;node7</title>
<path fill="none" stroke="black" d="M580.5,-240.42C580.5,-227.45 580.5,-213.24 580.5,-198.94"/>
<polygon fill="black" stroke="black" points="584,-198.52 580.5,-188.52 577,-198.52 584,-198.52"/>
<text text-anchor="start" x="580.5" y="-210.8" font-family="Times,serif" font-size="14.00">%6</text>
</g>
</g>
</svg>
