<?xml version="1.0" encoding="UTF-8" standalone="no"?>
<!DOCTYPE svg PUBLIC "-//W3C//DTD SVG 1.1//EN"
 "http://www.w3.org/Graphics/SVG/1.1/DTD/svg11.dtd">
<!-- Generated by graphviz version 2.43.0 (0)
 -->
<!-- Title: G Pages: 1 -->
<svg width="1018pt" height="302pt"
 viewBox="0.00 0.00 1018.00 302.00" xmlns="http://www.w3.org/2000/svg" xmlns:xlink="http://www.w3.org/1999/xlink">
<g id="graph0" class="graph" transform="scale(1 1) rotate(0) translate(4 298)">
<title>G</title>
<polygon fill="white" stroke="transparent" points="-4,4 -4,-298 1014,-298 1014,4 -4,4"/>
<!-- node0 -->
<g id="node1" class="node">
<title>node0</title>
<polygon fill="none" stroke="black" points="0,-240.5 0,-293.5 527,-293.5 527,-240.5 0,-240.5"/>
<text text-anchor="start" x="8" y="-278.3" font-family="Times,serif" font-size="14.00">Get tpch.public.orders (u68)</text>
<text text-anchor="start" x="8" y="-263.3" font-family="Times,serif" font-size="14.00"> types = (integer?, integer, text, numeric, date, text, text, integer, text)</text>
<text text-anchor="start" x="8" y="-248.3" font-family="Times,serif" font-size="14.00"> keys = ()</text>
</g>
<!-- node2 -->
<g id="node3" class="node">
<title>node2</title>
<polygon fill="none" stroke="black" points="47,-0.5 47,-188.5 994,-188.5 994,-0.5 47,-0.5"/>
<text text-anchor="start" x="55" y="-173.3" font-family="Times,serif" font-size="14.00">InnerJoin %0 %1 on true</text>
<text text-anchor="start" x="55" y="-158.3" font-family="Times,serif" font-size="14.00"> types = (integer?, integer, text, numeric, date, text, text, integer, text, integer?, text, text, integer, text, numeric, text, text)</text>
<text text-anchor="start" x="55" y="-143.3" font-family="Times,serif" font-size="14.00"> keys = ()</text>
<text text-anchor="start" x="55" y="-128.3" font-family="Times,serif" font-size="14.00"> Filter (((#14 + #3) = i32tonumeric(123)) &amp;&amp; (#14 = #3))</text>
<text text-anchor="start" x="55" y="-113.3" font-family="Times,serif" font-size="14.00"> types = (integer?, integer, text, numeric, date, text, text, integer, text, integer?, text, text, integer, text, numeric, text, text)</text>
<text text-anchor="start" x="55" y="-98.3" font-family="Times,serif" font-size="14.00"> keys = ()</text>
<text text-anchor="start" x="55" y="-83.3" font-family="Times,serif" font-size="14.00"> Map &quot;qgm(false)&quot;</text>
<text text-anchor="start" x="55" y="-68.3" font-family="Times,serif" font-size="14.00"> types = (integer?, integer, text, numeric, date, text, text, integer, text, integer?, text, text, integer, text, numeric, text, text, text)</text>
<text text-anchor="start" x="55" y="-53.3" font-family="Times,serif" font-size="14.00"> keys = ()</text>
<text text-anchor="start" x="55" y="-38.3" font-family="Times,serif" font-size="14.00"> Project (#17, #0..#16)</text>
<text text-anchor="start" x="55" y="-23.3" font-family="Times,serif" font-size="14.00"> types = (text, integer?, integer, text, numeric, date, text, text, integer, text, integer?, text, text, integer, text, numeric, text, text)</text>
<text text-anchor="start" x="55" y="-8.3" font-family="Times,serif" font-size="14.00"> keys = ()</text>
</g>
<!-- node0&#45;&gt;node2 -->
<g id="edge2" class="edge">
<title>node0&#45;&gt;node2</title>
<path fill="none" stroke="black" d="M301.98,-240.47C321.24,-227.69 345.94,-211.31 371.76,-194.18"/>
<polygon fill="black" stroke="black" points="373.77,-197.04 380.17,-188.6 369.9,-191.21 373.77,-197.04"/>
<text text-anchor="start" x="347.5" y="-210.8" font-family="Times,serif" font-size="14.00">%0</text>
</g>
<!-- node1 -->
<g id="node2" class="node">
<title>node1</title>
<polygon fill="none" stroke="black" points="545,-240.5 545,-293.5 1010,-293.5 1010,-240.5 545,-240.5"/>
<text text-anchor="start" x="553" y="-278.3" font-family="Times,serif" font-size="14.00">Get tpch.public.customer (u64)</text>
<text text-anchor="start" x="553" y="-263.3" font-family="Times,serif" font-size="14.00"> types = (integer?, text, text, integer, text, numeric, text, text)</text>
<text text-anchor="start" x="553" y="-248.3" font-family="Times,serif" font-size="14.00"> keys = ()</text>
</g>
<!-- node1&#45;&gt;node2 -->
<g id="edge1" class="edge">
<title>node1&#45;&gt;node2</title>
<path fill="none" stroke="black" d="M739.02,-240.47C719.76,-227.69 695.06,-211.31 669.24,-194.18"/>
<polygon fill="black" stroke="black" points="671.1,-191.21 660.83,-188.6 667.23,-197.04 671.1,-191.21"/>
<text text-anchor="start" x="709.5" y="-210.8" font-family="Times,serif" font-size="14.00">%1</text>
</g>
</g>
</svg>
