<?xml version="1.0" encoding="UTF-8" standalone="no"?>
<!DOCTYPE svg PUBLIC "-//W3C//DTD SVG 1.1//EN"
 "http://www.w3.org/Graphics/SVG/1.1/DTD/svg11.dtd">
<!-- Generated by graphviz version 2.43.0 (0)
 -->
<!-- Title: G Pages: 1 -->
<svg width="767pt" height="534pt"
 viewBox="0.00 0.00 767.00 534.09" xmlns="http://www.w3.org/2000/svg" xmlns:xlink="http://www.w3.org/1999/xlink">
<g id="graph0" class="graph" transform="scale(1 1) rotate(0) translate(4 530.09)">
<title>G</title>
<polygon fill="white" stroke="transparent" points="-4,4 -4,-530.09 763,-530.09 763,4 -4,4"/>
<g id="clust1" class="cluster">
<title>cluster1</title>
<polygon fill="none" stroke="black" points="255,-386.09 255,-518.09 700,-518.09 700,-386.09 255,-386.09"/>
<text text-anchor="middle" x="305.5" y="-502.89" font-family="Times,serif" font-size="14.00">Box1:Select</text>
</g>
<g id="clust3" class="cluster">
<title>cluster0</title>
<polygon fill="none" stroke="black" points="8,-8 8,-117 170,-117 170,-8 8,-8"/>
<text text-anchor="middle" x="49.5" y="-101.8" font-family="Times,serif" font-size="14.00">Box0:Get</text>
</g>
<g id="clust5" class="cluster">
<title>cluster3</title>
<polygon fill="none" stroke="black" points="220,-265 220,-378.09 474,-378.09 474,-265 220,-265"/>
<text text-anchor="middle" x="270.5" y="-362.89" font-family="Times,serif" font-size="14.00">Box3:Select</text>
</g>
<g id="clust7" class="cluster">
<title>cluster2</title>
<polygon fill="none" stroke="black" points="76,-125 76,-257 361,-257 361,-125 76,-125"/>
<text text-anchor="middle" x="126.5" y="-241.8" font-family="Times,serif" font-size="14.00">Box2:Select</text>
</g>
<g id="clust9" class="cluster">
<title>cluster6</title>
<polygon fill="none" stroke="black" points="497,-265 497,-378.09 751,-378.09 751,-265 497,-265"/>
<text text-anchor="middle" x="547.5" y="-362.89" font-family="Times,serif" font-size="14.00">Box6:Select</text>
</g>
<g id="clust11" class="cluster">
<title>cluster5</title>
<polygon fill="none" stroke="black" points="369,-125 369,-257 654,-257 654,-125 369,-125"/>
<text text-anchor="middle" x="419.5" y="-241.8" font-family="Times,serif" font-size="14.00">Box5:Select</text>
</g>
<g id="clust13" class="cluster">
<title>cluster4</title>
<polygon fill="none" stroke="black" points="333,-8 333,-117 495,-117 495,-8 333,-8"/>
<text text-anchor="middle" x="374.5" y="-101.8" font-family="Times,serif" font-size="14.00">Box4:Get</text>
</g>
<!-- boxhead1 -->
<g id="node1" class="node">
<title>boxhead1</title>
<polygon fill="none" stroke="black" points="542,-394.59 542,-486.59 692,-486.59 692,-394.59 542,-394.59"/>
<text text-anchor="middle" x="617" y="-471.39" font-family="Times,serif" font-size="14.00">Distinct: Preserve</text>
<polyline fill="none" stroke="black" points="542,-463.59 692,-463.59 "/>
<text text-anchor="middle" x="617" y="-448.39" font-family="Times,serif" font-size="14.00">0: Q0.C0</text>
<polyline fill="none" stroke="black" points="542,-440.59 692,-440.59 "/>
<text text-anchor="middle" x="617" y="-425.39" font-family="Times,serif" font-size="14.00">1: Q0.C1</text>
<polyline fill="none" stroke="black" points="542,-417.59 692,-417.59 "/>
<text text-anchor="middle" x="617" y="-402.39" font-family="Times,serif" font-size="14.00">(Q3.C0 &amp;&amp; Q6.C0)</text>
</g>
<!-- Q0 -->
<g id="node2" class="node">
<title>Q0</title>
<ellipse fill="none" stroke="black" cx="300" cy="-440.59" rx="37.09" ry="37.09"/>
<text text-anchor="middle" x="300" y="-436.89" font-family="Times,serif" font-size="14.00">Q0(F)</text>
</g>
<!-- boxhead0 -->
<g id="node5" class="node">
<title>boxhead0</title>
<polygon fill="none" stroke="black" points="16,-16.5 16,-85.5 162,-85.5 162,-16.5 16,-16.5"/>
<text text-anchor="middle" x="89" y="-70.3" font-family="Times,serif" font-size="14.00">Distinct: Preserve</text>
<polyline fill="none" stroke="black" points="16,-62.5 162,-62.5 "/>
<text text-anchor="middle" x="89" y="-47.3" font-family="Times,serif" font-size="14.00">0: C0</text>
<polyline fill="none" stroke="black" points="16,-39.5 162,-39.5 "/>
<text text-anchor="middle" x="89" y="-24.3" font-family="Times,serif" font-size="14.00">1: C1</text>
</g>
<!-- Q0&#45;&gt;boxhead0 -->
<g id="edge1" class="edge">
<title>Q0&#45;&gt;boxhead0</title>
<path fill="none" stroke="black" stroke-dasharray="5,2" d="M266.25,-424.87C213.04,-399.53 111.6,-342.05 72,-257 51.68,-213.36 57.47,-158.84 67.51,-117"/>
</g>
<!-- Q3 -->
<g id="node3" class="node">
<title>Q3</title>
<ellipse fill="none" stroke="black" cx="393" cy="-440.59" rx="37.89" ry="37.89"/>
<text text-anchor="middle" x="393" y="-436.89" font-family="Times,serif" font-size="14.00">Q3(E)</text>
</g>
<!-- boxhead3 -->
<g id="node6" class="node">
<title>boxhead3</title>
<polygon fill="none" stroke="black" points="320,-287.05 320,-333.05 466,-333.05 466,-287.05 320,-287.05"/>
<text text-anchor="middle" x="393" y="-317.85" font-family="Times,serif" font-size="14.00">Distinct: Preserve</text>
<polyline fill="none" stroke="black" points="320,-310.05 466,-310.05 "/>
<text text-anchor="middle" x="393" y="-294.85" font-family="Times,serif" font-size="14.00">0: Q2.C1</text>
</g>
<!-- Q3&#45;&gt;boxhead3 -->
<g id="edge2" class="edge">
<title>Q3&#45;&gt;boxhead3</title>
<path fill="none" stroke="black" stroke-dasharray="5,2" d="M393,-402.76C393,-395 393,-386.58 393,-378.09"/>
</g>
<!-- Q6 -->
<g id="node4" class="node">
<title>Q6</title>
<ellipse fill="none" stroke="black" cx="486" cy="-440.59" rx="37.89" ry="37.89"/>
<text text-anchor="middle" x="486" y="-436.89" font-family="Times,serif" font-size="14.00">Q6(E)</text>
</g>
<!-- boxhead6 -->
<g id="node10" class="node">
<title>boxhead6</title>
<polygon fill="none" stroke="black" points="597,-287.05 597,-333.05 743,-333.05 743,-287.05 597,-287.05"/>
<text text-anchor="middle" x="670" y="-317.85" font-family="Times,serif" font-size="14.00">Distinct: Preserve</text>
<polyline fill="none" stroke="black" points="597,-310.05 743,-310.05 "/>
<text text-anchor="middle" x="670" y="-294.85" font-family="Times,serif" font-size="14.00">0: Q5.C1</text>
</g>
<!-- Q6&#45;&gt;boxhead6 -->
<g id="edge3" class="edge">
<title>Q6&#45;&gt;boxhead6</title>
<path fill="none" stroke="black" stroke-dasharray="5,2" d="M506.61,-408.82C513.93,-400.14 522.89,-391.58 533,-386.09 554.71,-374.31 565.39,-388.05 588,-378.09"/>
</g>
<!-- Q2 -->
<g id="node7" class="node">
<title>Q2</title>
<ellipse fill="none" stroke="black" cx="265" cy="-310.05" rx="37.09" ry="37.09"/>
<text text-anchor="middle" x="265" y="-306.35" font-family="Times,serif" font-size="14.00">Q2(F)</text>
</g>
<!-- boxhead2 -->
<g id="node8" class="node">
<title>boxhead2</title>
<polygon fill="none" stroke="black" points="176.5,-133.5 176.5,-225.5 353.5,-225.5 353.5,-133.5 176.5,-133.5"/>
<text text-anchor="middle" x="265" y="-210.3" font-family="Times,serif" font-size="14.00">Distinct: Preserve</text>
<polyline fill="none" stroke="black" points="176.5,-202.5 353.5,-202.5 "/>
<text text-anchor="middle" x="265" y="-187.3" font-family="Times,serif" font-size="14.00">0: Q1.C0</text>
<polyline fill="none" stroke="black" points="176.5,-179.5 353.5,-179.5 "/>
<text text-anchor="middle" x="265" y="-164.3" font-family="Times,serif" font-size="14.00">1: Q1.C1</text>
<polyline fill="none" stroke="black" points="176.5,-156.5 353.5,-156.5 "/>
<text text-anchor="middle" x="265" y="-141.3" font-family="Times,serif" font-size="14.00">(Q1.C0 != i32toi64(5))</text>
</g>
<!-- Q2&#45;&gt;boxhead2 -->
<g id="edge4" class="edge">
<title>Q2&#45;&gt;boxhead2</title>
<path fill="none" stroke="black" stroke-dasharray="5,2" d="M265,-272.9C265,-267.83 265,-262.48 265,-257"/>
</g>
<!-- Q1 -->
<g id="node9" class="node">
<title>Q1</title>
<ellipse fill="none" stroke="black" cx="121" cy="-179.5" rx="37.09" ry="37.09"/>
<text text-anchor="middle" x="121" y="-175.8" font-family="Times,serif" font-size="14.00">Q1(F)</text>
</g>
<!-- Q1&#45;&gt;boxhead0 -->
<g id="edge5" class="edge">
<title>Q1&#45;&gt;boxhead0</title>
<path fill="none" stroke="black" stroke-dasharray="5,2" d="M112.09,-143.26C110.01,-135.05 107.73,-126.05 105.44,-117"/>
</g>
<!-- Q5 -->
<g id="node11" class="node">
<title>Q5</title>
<ellipse fill="none" stroke="black" cx="542" cy="-310.05" rx="37.09" ry="37.09"/>
<text text-anchor="middle" x="542" y="-306.35" font-family="Times,serif" font-size="14.00">Q5(F)</text>
</g>
<!-- boxhead5 -->
<g id="node12" class="node">
<title>boxhead5</title>
<polygon fill="none" stroke="black" points="469.5,-133.5 469.5,-225.5 646.5,-225.5 646.5,-133.5 469.5,-133.5"/>
<text text-anchor="middle" x="558" y="-210.3" font-family="Times,serif" font-size="14.00">Distinct: Preserve</text>
<polyline fill="none" stroke="black" points="469.5,-202.5 646.5,-202.5 "/>
<text text-anchor="middle" x="558" y="-187.3" font-family="Times,serif" font-size="14.00">0: Q4.C0</text>
<polyline fill="none" stroke="black" points="469.5,-179.5 646.5,-179.5 "/>
<text text-anchor="middle" x="558" y="-164.3" font-family="Times,serif" font-size="14.00">1: Q4.C1</text>
<polyline fill="none" stroke="black" points="469.5,-156.5 646.5,-156.5 "/>
<text text-anchor="middle" x="558" y="-141.3" font-family="Times,serif" font-size="14.00">(Q4.C0 != i32toi64(5))</text>
</g>
<!-- Q5&#45;&gt;boxhead5 -->
<g id="edge6" class="edge">
<title>Q5&#45;&gt;boxhead5</title>
<path fill="none" stroke="black" stroke-dasharray="5,2" d="M546.46,-273.24C547.1,-268.07 547.78,-262.6 548.48,-257"/>
</g>
<!-- Q4 -->
<g id="node13" class="node">
<title>Q4</title>
<ellipse fill="none" stroke="black" cx="414" cy="-179.5" rx="37.09" ry="37.09"/>
<text text-anchor="middle" x="414" y="-175.8" font-family="Times,serif" font-size="14.00">Q4(F)</text>
</g>
<!-- boxhead4 -->
<g id="node14" class="node">
<title>boxhead4</title>
<polygon fill="none" stroke="black" points="341,-16.5 341,-85.5 487,-85.5 487,-16.5 341,-16.5"/>
<text text-anchor="middle" x="414" y="-70.3" font-family="Times,serif" font-size="14.00">Distinct: Preserve</text>
<polyline fill="none" stroke="black" points="341,-62.5 487,-62.5 "/>
<text text-anchor="middle" x="414" y="-47.3" font-family="Times,serif" font-size="14.00">0: C0</text>
<polyline fill="none" stroke="black" points="341,-39.5 487,-39.5 "/>
<text text-anchor="middle" x="414" y="-24.3" font-family="Times,serif" font-size="14.00">1: C1</text>
</g>
<!-- Q4&#45;&gt;boxhead4 -->
<g id="edge7" class="edge">
<title>Q4&#45;&gt;boxhead4</title>
<path fill="none" stroke="black" stroke-dasharray="5,2" d="M414,-142.25C414,-134.31 414,-125.68 414,-117"/>
</g>
</g>
</svg>
