<?xml version="1.0" encoding="UTF-8" standalone="no"?>
<!DOCTYPE svg PUBLIC "-//W3C//DTD SVG 1.1//EN"
 "http://www.w3.org/Graphics/SVG/1.1/DTD/svg11.dtd">
<!-- Generated by graphviz version 2.43.0 (0)
 -->
<!-- Title: G Pages: 1 -->
<svg width="880pt" height="674pt"
 viewBox="0.00 0.00 880.00 674.09" xmlns="http://www.w3.org/2000/svg" xmlns:xlink="http://www.w3.org/1999/xlink">
<g id="graph0" class="graph" transform="scale(1 1) rotate(0) translate(4 670.09)">
<title>G</title>
<polygon fill="white" stroke="transparent" points="-4,4 -4,-670.09 876,-670.09 876,4 -4,4"/>
<g id="clust1" class="cluster">
<title>cluster1</title>
<polygon fill="none" stroke="black" points="383,-526.09 383,-658.09 828,-658.09 828,-526.09 383,-526.09"/>
<text text-anchor="middle" x="433.5" y="-642.89" font-family="Times,serif" font-size="14.00">Box1:Select</text>
</g>
<g id="clust3" class="cluster">
<title>cluster0</title>
<polygon fill="none" stroke="black" points="8,-8 8,-117 170,-117 170,-8 8,-8"/>
<text text-anchor="middle" x="49.5" y="-101.8" font-family="Times,serif" font-size="14.00">Box0:Get</text>
</g>
<g id="clust5" class="cluster">
<title>cluster4</title>
<polygon fill="none" stroke="black" points="348,-405 348,-518.09 602,-518.09 602,-405 348,-405"/>
<text text-anchor="middle" x="398.5" y="-502.89" font-family="Times,serif" font-size="14.00">Box4:Select</text>
</g>
<g id="clust7" class="cluster">
<title>cluster3</title>
<polygon fill="none" stroke="black" points="220,-265 220,-397 474,-397 474,-265 220,-265"/>
<text text-anchor="middle" x="270.5" y="-381.8" font-family="Times,serif" font-size="14.00">Box3:Select</text>
</g>
<g id="clust9" class="cluster">
<title>cluster2</title>
<polygon fill="none" stroke="black" points="76,-125 76,-257 361,-257 361,-125 76,-125"/>
<text text-anchor="middle" x="126.5" y="-241.8" font-family="Times,serif" font-size="14.00">Box2:Select</text>
</g>
<g id="clust11" class="cluster">
<title>cluster8</title>
<polygon fill="none" stroke="black" points="610,-405 610,-518.09 864,-518.09 864,-405 610,-405"/>
<text text-anchor="middle" x="660.5" y="-502.89" font-family="Times,serif" font-size="14.00">Box8:Select</text>
</g>
<g id="clust13" class="cluster">
<title>cluster7</title>
<polygon fill="none" stroke="black" points="497,-265 497,-397 751,-397 751,-265 497,-265"/>
<text text-anchor="middle" x="547.5" y="-381.8" font-family="Times,serif" font-size="14.00">Box7:Select</text>
</g>
<g id="clust15" class="cluster">
<title>cluster6</title>
<polygon fill="none" stroke="black" points="369,-125 369,-257 654,-257 654,-125 369,-125"/>
<text text-anchor="middle" x="419.5" y="-241.8" font-family="Times,serif" font-size="14.00">Box6:Select</text>
</g>
<g id="clust17" class="cluster">
<title>cluster5</title>
<polygon fill="none" stroke="black" points="333,-8 333,-117 495,-117 495,-8 333,-8"/>
<text text-anchor="middle" x="374.5" y="-101.8" font-family="Times,serif" font-size="14.00">Box5:Get</text>
</g>
<!-- boxhead1 -->
<g id="node1" class="node">
<title>boxhead1</title>
<polygon fill="none" stroke="black" points="670,-534.59 670,-626.59 820,-626.59 820,-534.59 670,-534.59"/>
<text text-anchor="middle" x="745" y="-611.39" font-family="Times,serif" font-size="14.00">Distinct: Preserve</text>
<polyline fill="none" stroke="black" points="670,-603.59 820,-603.59 "/>
<text text-anchor="middle" x="745" y="-588.39" font-family="Times,serif" font-size="14.00">0: Q0.C0</text>
<polyline fill="none" stroke="black" points="670,-580.59 820,-580.59 "/>
<text text-anchor="middle" x="745" y="-565.39" font-family="Times,serif" font-size="14.00">1: Q0.C1</text>
<polyline fill="none" stroke="black" points="670,-557.59 820,-557.59 "/>
<text text-anchor="middle" x="745" y="-542.39" font-family="Times,serif" font-size="14.00">(Q4.C0 &amp;&amp; Q8.C0)</text>
</g>
<!-- Q0 -->
<g id="node2" class="node">
<title>Q0</title>
<ellipse fill="none" stroke="black" cx="428" cy="-580.59" rx="37.09" ry="37.09"/>
<text text-anchor="middle" x="428" y="-576.89" font-family="Times,serif" font-size="14.00">Q0(F)</text>
</g>
<!-- boxhead0 -->
<g id="node5" class="node">
<title>boxhead0</title>
<polygon fill="none" stroke="black" points="16,-16.5 16,-85.5 162,-85.5 162,-16.5 16,-16.5"/>
<text text-anchor="middle" x="89" y="-70.3" font-family="Times,serif" font-size="14.00">Distinct: Preserve</text>
<polyline fill="none" stroke="black" points="16,-62.5 162,-62.5 "/>
<text text-anchor="middle" x="89" y="-47.3" font-family="Times,serif" font-size="14.00">0: C0</text>
<polyline fill="none" stroke="black" points="16,-39.5 162,-39.5 "/>
<text text-anchor="middle" x="89" y="-24.3" font-family="Times,serif" font-size="14.00">1: C1</text>
</g>
<!-- Q0&#45;&gt;boxhead0 -->
<g id="edge1" class="edge">
<title>Q0&#45;&gt;boxhead0</title>
<path fill="none" stroke="black" stroke-dasharray="5,2" d="M395.36,-563.01C320.41,-522.78 137.41,-411.81 72,-257 53.34,-212.82 58.93,-158.58 68.47,-117"/>
</g>
<!-- Q4 -->
<g id="node3" class="node">
<title>Q4</title>
<ellipse fill="none" stroke="black" cx="521" cy="-580.59" rx="37.89" ry="37.89"/>
<text text-anchor="middle" x="521" y="-576.89" font-family="Times,serif" font-size="14.00">Q4(E)</text>
</g>
<!-- boxhead4 -->
<g id="node6" class="node">
<title>boxhead4</title>
<polygon fill="none" stroke="black" points="448,-415.55 448,-484.55 594,-484.55 594,-415.55 448,-415.55"/>
<text text-anchor="middle" x="521" y="-469.35" font-family="Times,serif" font-size="14.00">Distinct: Preserve</text>
<polyline fill="none" stroke="black" points="448,-461.55 594,-461.55 "/>
<text text-anchor="middle" x="521" y="-446.35" font-family="Times,serif" font-size="14.00">0: Q3.C1</text>
<polyline fill="none" stroke="black" points="448,-438.55 594,-438.55 "/>
<text text-anchor="middle" x="521" y="-423.35" font-family="Times,serif" font-size="14.00">1: Q3.C2</text>
</g>
<!-- Q4&#45;&gt;boxhead4 -->
<g id="edge2" class="edge">
<title>Q4&#45;&gt;boxhead4</title>
<path fill="none" stroke="black" stroke-dasharray="5,2" d="M521,-542.76C521,-535 521,-526.58 521,-518.09"/>
</g>
<!-- Q8 -->
<g id="node4" class="node">
<title>Q8</title>
<ellipse fill="none" stroke="black" cx="614" cy="-580.59" rx="37.89" ry="37.89"/>
<text text-anchor="middle" x="614" y="-576.89" font-family="Times,serif" font-size="14.00">Q8(E)</text>
</g>
<!-- boxhead8 -->
<g id="node12" class="node">
<title>boxhead8</title>
<polygon fill="none" stroke="black" points="710,-415.55 710,-484.55 856,-484.55 856,-415.55 710,-415.55"/>
<text text-anchor="middle" x="783" y="-469.35" font-family="Times,serif" font-size="14.00">Distinct: Preserve</text>
<polyline fill="none" stroke="black" points="710,-461.55 856,-461.55 "/>
<text text-anchor="middle" x="783" y="-446.35" font-family="Times,serif" font-size="14.00">0: Q7.C1</text>
<polyline fill="none" stroke="black" points="710,-438.55 856,-438.55 "/>
<text text-anchor="middle" x="783" y="-423.35" font-family="Times,serif" font-size="14.00">1: Q7.C2</text>
</g>
<!-- Q8&#45;&gt;boxhead8 -->
<g id="edge3" class="edge">
<title>Q8&#45;&gt;boxhead8</title>
<path fill="none" stroke="black" stroke-dasharray="5,2" d="M634.79,-549.14C642.12,-540.48 651.04,-531.84 661,-526.09 676.7,-517.03 684.61,-525.84 701,-518.09"/>
</g>
<!-- Q3 -->
<g id="node7" class="node">
<title>Q3</title>
<ellipse fill="none" stroke="black" cx="393" cy="-450.05" rx="37.09" ry="37.09"/>
<text text-anchor="middle" x="393" y="-446.35" font-family="Times,serif" font-size="14.00">Q3(F)</text>
</g>
<!-- boxhead3 -->
<g id="node8" class="node">
<title>boxhead3</title>
<polygon fill="none" stroke="black" points="320,-273.5 320,-365.5 466,-365.5 466,-273.5 320,-273.5"/>
<text text-anchor="middle" x="393" y="-350.3" font-family="Times,serif" font-size="14.00">Distinct: Preserve</text>
<polyline fill="none" stroke="black" points="320,-342.5 466,-342.5 "/>
<text text-anchor="middle" x="393" y="-327.3" font-family="Times,serif" font-size="14.00">0: Q2.C0</text>
<polyline fill="none" stroke="black" points="320,-319.5 466,-319.5 "/>
<text text-anchor="middle" x="393" y="-304.3" font-family="Times,serif" font-size="14.00">1: Q2.C1</text>
<polyline fill="none" stroke="black" points="320,-296.5 466,-296.5 "/>
<text text-anchor="middle" x="393" y="-281.3" font-family="Times,serif" font-size="14.00">2: (Q2.C1 + 1)</text>
</g>
<!-- Q3&#45;&gt;boxhead3 -->
<g id="edge4" class="edge">
<title>Q3&#45;&gt;boxhead3</title>
<path fill="none" stroke="black" stroke-dasharray="5,2" d="M393,-412.9C393,-407.83 393,-402.48 393,-397"/>
</g>
<!-- Q2 -->
<g id="node9" class="node">
<title>Q2</title>
<ellipse fill="none" stroke="black" cx="265" cy="-319.5" rx="37.09" ry="37.09"/>
<text text-anchor="middle" x="265" y="-315.8" font-family="Times,serif" font-size="14.00">Q2(F)</text>
</g>
<!-- boxhead2 -->
<g id="node10" class="node">
<title>boxhead2</title>
<polygon fill="none" stroke="black" points="176.5,-133.5 176.5,-225.5 353.5,-225.5 353.5,-133.5 176.5,-133.5"/>
<text text-anchor="middle" x="265" y="-210.3" font-family="Times,serif" font-size="14.00">Distinct: Preserve</text>
<polyline fill="none" stroke="black" points="176.5,-202.5 353.5,-202.5 "/>
<text text-anchor="middle" x="265" y="-187.3" font-family="Times,serif" font-size="14.00">0: Q1.C0</text>
<polyline fill="none" stroke="black" points="176.5,-179.5 353.5,-179.5 "/>
<text text-anchor="middle" x="265" y="-164.3" font-family="Times,serif" font-size="14.00">1: Q1.C1</text>
<polyline fill="none" stroke="black" points="176.5,-156.5 353.5,-156.5 "/>
<text text-anchor="middle" x="265" y="-141.3" font-family="Times,serif" font-size="14.00">(Q1.C0 != i32toi64(5))</text>
</g>
<!-- Q2&#45;&gt;boxhead2 -->
<g id="edge5" class="edge">
<title>Q2&#45;&gt;boxhead2</title>
<path fill="none" stroke="black" stroke-dasharray="5,2" d="M265,-282.24C265,-274.38 265,-265.77 265,-257"/>
</g>
<!-- Q1 -->
<g id="node11" class="node">
<title>Q1</title>
<ellipse fill="none" stroke="black" cx="121" cy="-179.5" rx="37.09" ry="37.09"/>
<text text-anchor="middle" x="121" y="-175.8" font-family="Times,serif" font-size="14.00">Q1(F)</text>
</g>
<!-- Q1&#45;&gt;boxhead0 -->
<g id="edge6" class="edge">
<title>Q1&#45;&gt;boxhead0</title>
<path fill="none" stroke="black" stroke-dasharray="5,2" d="M112.09,-143.26C110.01,-135.05 107.73,-126.05 105.44,-117"/>
</g>
<!-- Q7 -->
<g id="node13" class="node">
<title>Q7</title>
<ellipse fill="none" stroke="black" cx="655" cy="-450.05" rx="37.09" ry="37.09"/>
<text text-anchor="middle" x="655" y="-446.35" font-family="Times,serif" font-size="14.00">Q7(F)</text>
</g>
<!-- boxhead7 -->
<g id="node14" class="node">
<title>boxhead7</title>
<polygon fill="none" stroke="black" points="597,-273.5 597,-365.5 743,-365.5 743,-273.5 597,-273.5"/>
<text text-anchor="middle" x="670" y="-350.3" font-family="Times,serif" font-size="14.00">Distinct: Preserve</text>
<polyline fill="none" stroke="black" points="597,-342.5 743,-342.5 "/>
<text text-anchor="middle" x="670" y="-327.3" font-family="Times,serif" font-size="14.00">0: Q6.C0</text>
<polyline fill="none" stroke="black" points="597,-319.5 743,-319.5 "/>
<text text-anchor="middle" x="670" y="-304.3" font-family="Times,serif" font-size="14.00">1: Q6.C1</text>
<polyline fill="none" stroke="black" points="597,-296.5 743,-296.5 "/>
<text text-anchor="middle" x="670" y="-281.3" font-family="Times,serif" font-size="14.00">2: (Q6.C1 + 1)</text>
</g>
<!-- Q7&#45;&gt;boxhead7 -->
<g id="edge7" class="edge">
<title>Q7&#45;&gt;boxhead7</title>
<path fill="none" stroke="black" stroke-dasharray="5,2" d="M659.22,-412.9C659.81,-407.83 660.43,-402.48 661.07,-397"/>
</g>
<!-- Q6 -->
<g id="node15" class="node">
<title>Q6</title>
<ellipse fill="none" stroke="black" cx="542" cy="-319.5" rx="37.09" ry="37.09"/>
<text text-anchor="middle" x="542" y="-315.8" font-family="Times,serif" font-size="14.00">Q6(F)</text>
</g>
<!-- boxhead6 -->
<g id="node16" class="node">
<title>boxhead6</title>
<polygon fill="none" stroke="black" points="469.5,-133.5 469.5,-225.5 646.5,-225.5 646.5,-133.5 469.5,-133.5"/>
<text text-anchor="middle" x="558" y="-210.3" font-family="Times,serif" font-size="14.00">Distinct: Preserve</text>
<polyline fill="none" stroke="black" points="469.5,-202.5 646.5,-202.5 "/>
<text text-anchor="middle" x="558" y="-187.3" font-family="Times,serif" font-size="14.00">0: Q5.C0</text>
<polyline fill="none" stroke="black" points="469.5,-179.5 646.5,-179.5 "/>
<text text-anchor="middle" x="558" y="-164.3" font-family="Times,serif" font-size="14.00">1: Q5.C1</text>
<polyline fill="none" stroke="black" points="469.5,-156.5 646.5,-156.5 "/>
<text text-anchor="middle" x="558" y="-141.3" font-family="Times,serif" font-size="14.00">(Q5.C0 != i32toi64(5))</text>
</g>
<!-- Q6&#45;&gt;boxhead6 -->
<g id="edge8" class="edge">
<title>Q6&#45;&gt;boxhead6</title>
<path fill="none" stroke="black" stroke-dasharray="5,2" d="M546.16,-282.6C547.09,-274.64 548.1,-265.9 549.13,-257"/>
</g>
<!-- Q5 -->
<g id="node17" class="node">
<title>Q5</title>
<ellipse fill="none" stroke="black" cx="414" cy="-179.5" rx="37.09" ry="37.09"/>
<text text-anchor="middle" x="414" y="-175.8" font-family="Times,serif" font-size="14.00">Q5(F)</text>
</g>
<!-- boxhead5 -->
<g id="node18" class="node">
<title>boxhead5</title>
<polygon fill="none" stroke="black" points="341,-16.5 341,-85.5 487,-85.5 487,-16.5 341,-16.5"/>
<text text-anchor="middle" x="414" y="-70.3" font-family="Times,serif" font-size="14.00">Distinct: Preserve</text>
<polyline fill="none" stroke="black" points="341,-62.5 487,-62.5 "/>
<text text-anchor="middle" x="414" y="-47.3" font-family="Times,serif" font-size="14.00">0: C0</text>
<polyline fill="none" stroke="black" points="341,-39.5 487,-39.5 "/>
<text text-anchor="middle" x="414" y="-24.3" font-family="Times,serif" font-size="14.00">1: C1</text>
</g>
<!-- Q5&#45;&gt;boxhead5 -->
<g id="edge9" class="edge">
<title>Q5&#45;&gt;boxhead5</title>
<path fill="none" stroke="black" stroke-dasharray="5,2" d="M414,-142.25C414,-134.31 414,-125.68 414,-117"/>
</g>
</g>
</svg>
