<?xml version="1.0" encoding="UTF-8" standalone="no"?>
<!DOCTYPE svg PUBLIC "-//W3C//DTD SVG 1.1//EN"
 "http://www.w3.org/Graphics/SVG/1.1/DTD/svg11.dtd">
<!-- Generated by graphviz version 2.43.0 (0)
 -->
<!-- Title: G Pages: 1 -->
<svg width="264pt" height="344pt"
 viewBox="0.00 0.00 264.00 344.00" xmlns="http://www.w3.org/2000/svg" xmlns:xlink="http://www.w3.org/1999/xlink">
<g id="graph0" class="graph" transform="scale(1 1) rotate(0) translate(4 340)">
<title>G</title>
<polygon fill="white" stroke="transparent" points="-4,4 -4,-340 260,-340 260,4 -4,4"/>
<!-- node0 -->
<g id="node1" class="node">
<title>node0</title>
<polygon fill="none" stroke="black" points="0,-0.5 0,-248.5 256,-248.5 256,-0.5 0,-0.5"/>
<text text-anchor="start" x="8" y="-233.3" font-family="Times,serif" font-size="14.00">Get hir_to_qgm.public.r (u47)</text>
<text text-anchor="start" x="8" y="-218.3" font-family="Times,serif" font-size="14.00">Filter (exists(%1) &amp;&amp; exists(%2))</text>
<text text-anchor="start" x="8" y="-203.3" font-family="Times,serif" font-size="14.00">&#45;</text>
<text text-anchor="start" x="8" y="-188.3" font-family="Times,serif" font-size="14.00">&#45; %1 =</text>
<text text-anchor="start" x="8" y="-173.3" font-family="Times,serif" font-size="14.00">&#45; Get hir_to_qgm.public.r (u47)</text>
<text text-anchor="start" x="8" y="-158.3" font-family="Times,serif" font-size="14.00">&#45; Filter (#0 != i32toi64(5))</text>
<text text-anchor="start" x="8" y="-143.3" font-family="Times,serif" font-size="14.00">&#45; Map (#1 + 1)</text>
<text text-anchor="start" x="8" y="-128.3" font-family="Times,serif" font-size="14.00">&#45; Project (#1, #2)</text>
<text text-anchor="start" x="8" y="-113.3" font-family="Times,serif" font-size="14.00">&#45;</text>
<text text-anchor="start" x="8" y="-98.3" font-family="Times,serif" font-size="14.00">&#45;</text>
<text text-anchor="start" x="8" y="-83.3" font-family="Times,serif" font-size="14.00">&#45; %2 =</text>
<text text-anchor="start" x="8" y="-68.3" font-family="Times,serif" font-size="14.00">&#45; Get hir_to_qgm.public.s (u48)</text>
<text text-anchor="start" x="8" y="-53.3" font-family="Times,serif" font-size="14.00">&#45; Filter (#0 != i32toi64(5))</text>
<text text-anchor="start" x="8" y="-38.3" font-family="Times,serif" font-size="14.00">&#45; Map (#1 + 1)</text>
<text text-anchor="start" x="8" y="-23.3" font-family="Times,serif" font-size="14.00">&#45; Project (#1, #2)</text>
<text text-anchor="start" x="8" y="-8.3" font-family="Times,serif" font-size="14.00">&#45;</text>
</g>
<!-- node1 -->
<g id="node2" class="node">
<title>node1</title>
<ellipse fill="none" stroke="black" cx="80" cy="-318" rx="38.99" ry="18"/>
<text text-anchor="middle" x="80" y="-314.3" font-family="Times,serif" font-size="14.00">node1</text>
</g>
<!-- node1&#45;&gt;node0 -->
<g id="edge1" class="edge">
<title>node1&#45;&gt;node0</title>
<path fill="none" stroke="black" d="M84.26,-300.01C86.91,-289.45 90.58,-274.79 94.69,-258.41"/>
<polygon fill="black" stroke="black" points="98.11,-259.14 97.15,-248.59 91.32,-257.44 98.11,-259.14"/>
<text text-anchor="start" x="92" y="-270.8" font-family="Times,serif" font-size="14.00">%1</text>
</g>
<!-- node2 -->
<g id="node3" class="node">
<title>node2</title>
<ellipse fill="none" stroke="black" cx="176" cy="-318" rx="38.99" ry="18"/>
<text text-anchor="middle" x="176" y="-314.3" font-family="Times,serif" font-size="14.00">node2</text>
</g>
<!-- node2&#45;&gt;node0 -->
<g id="edge2" class="edge">
<title>node2&#45;&gt;node0</title>
<path fill="none" stroke="black" d="M171.74,-300.01C169.09,-289.45 165.42,-274.79 161.31,-258.41"/>
<polygon fill="black" stroke="black" points="164.68,-257.44 158.85,-248.59 157.89,-259.14 164.68,-257.44"/>
<text text-anchor="start" x="166" y="-270.8" font-family="Times,serif" font-size="14.00">%2</text>
</g>
</g>
</svg>
