<?xml version="1.0" encoding="UTF-8" standalone="no"?>
<!DOCTYPE svg PUBLIC "-//W3C//DTD SVG 1.1//EN"
 "http://www.w3.org/Graphics/SVG/1.1/DTD/svg11.dtd">
<!-- Generated by graphviz version 2.43.0 (0)
 -->
<!-- Title: G Pages: 1 -->
<svg width="931pt" height="674pt"
 viewBox="0.00 0.00 931.00 674.09" xmlns="http://www.w3.org/2000/svg" xmlns:xlink="http://www.w3.org/1999/xlink">
<g id="graph0" class="graph" transform="scale(1 1) rotate(0) translate(4 670.09)">
<title>G</title>
<polygon fill="white" stroke="transparent" points="-4,4 -4,-670.09 927,-670.09 927,4 -4,4"/>
<g id="clust1" class="cluster">
<title>cluster1</title>
<polygon fill="none" stroke="black" points="402,-526.09 402,-658.09 850,-658.09 850,-526.09 402,-526.09"/>
<text text-anchor="middle" x="452.5" y="-642.89" font-family="Times,serif" font-size="14.00">Box1:Select</text>
</g>
<g id="clust3" class="cluster">
<title>cluster0</title>
<polygon fill="none" stroke="black" points="8,-8 8,-117 170,-117 170,-8 8,-8"/>
<text text-anchor="middle" x="49.5" y="-101.8" font-family="Times,serif" font-size="14.00">Box0:Get</text>
</g>
<g id="clust5" class="cluster">
<title>cluster4</title>
<polygon fill="none" stroke="black" points="363,-405 363,-518.09 625,-518.09 625,-405 363,-405"/>
<text text-anchor="middle" x="413.5" y="-502.89" font-family="Times,serif" font-size="14.00">Box4:Select</text>
</g>
<g id="clust7" class="cluster">
<title>cluster3</title>
<polygon fill="none" stroke="black" points="211,-265 211,-397 513,-397 513,-265 211,-265"/>
<text text-anchor="middle" x="261.5" y="-381.8" font-family="Times,serif" font-size="14.00">Box3:Select</text>
</g>
<g id="clust9" class="cluster">
<title>cluster2</title>
<polygon fill="none" stroke="black" points="76,-125 76,-257 361,-257 361,-125 76,-125"/>
<text text-anchor="middle" x="126.5" y="-241.8" font-family="Times,serif" font-size="14.00">Box2:Select</text>
</g>
<g id="clust11" class="cluster">
<title>cluster8</title>
<polygon fill="none" stroke="black" points="653,-405 653,-518.09 915,-518.09 915,-405 653,-405"/>
<text text-anchor="middle" x="703.5" y="-502.89" font-family="Times,serif" font-size="14.00">Box8:Select</text>
</g>
<g id="clust13" class="cluster">
<title>cluster7</title>
<polygon fill="none" stroke="black" points="521,-265 521,-397 823,-397 823,-265 521,-265"/>
<text text-anchor="middle" x="571.5" y="-381.8" font-family="Times,serif" font-size="14.00">Box7:Select</text>
</g>
<g id="clust15" class="cluster">
<title>cluster6</title>
<polygon fill="none" stroke="black" points="377,-125 377,-257 662,-257 662,-125 377,-125"/>
<text text-anchor="middle" x="427.5" y="-241.8" font-family="Times,serif" font-size="14.00">Box6:Select</text>
</g>
<g id="clust17" class="cluster">
<title>cluster5</title>
<polygon fill="none" stroke="black" points="341,-8 341,-117 503,-117 503,-8 341,-8"/>
<text text-anchor="middle" x="382.5" y="-101.8" font-family="Times,serif" font-size="14.00">Box5:Get</text>
</g>
<!-- boxhead1 -->
<g id="node1" class="node">
<title>boxhead1</title>
<polygon fill="none" stroke="black" points="688.5,-534.59 688.5,-626.59 841.5,-626.59 841.5,-534.59 688.5,-534.59"/>
<text text-anchor="middle" x="765" y="-611.39" font-family="Times,serif" font-size="14.00">Distinct: Preserve</text>
<polyline fill="none" stroke="black" points="688.5,-603.59 841.5,-603.59 "/>
<text text-anchor="middle" x="765" y="-588.39" font-family="Times,serif" font-size="14.00">0: Q0.C0 (bigint?)</text>
<polyline fill="none" stroke="black" points="688.5,-580.59 841.5,-580.59 "/>
<text text-anchor="middle" x="765" y="-565.39" font-family="Times,serif" font-size="14.00">1: Q0.C1 (integer?)</text>
<polyline fill="none" stroke="black" points="688.5,-557.59 841.5,-557.59 "/>
<text text-anchor="middle" x="765" y="-542.39" font-family="Times,serif" font-size="14.00">(Q4.C0 &amp;&amp; Q8.C0)</text>
</g>
<!-- Q0 -->
<g id="node2" class="node">
<title>Q0</title>
<ellipse fill="none" stroke="black" cx="447" cy="-580.59" rx="37.09" ry="37.09"/>
<text text-anchor="middle" x="447" y="-576.89" font-family="Times,serif" font-size="14.00">Q0(F)</text>
</g>
<!-- boxhead0 -->
<g id="node5" class="node">
<title>boxhead0</title>
<polygon fill="none" stroke="black" points="16,-16.5 16,-85.5 162,-85.5 162,-16.5 16,-16.5"/>
<text text-anchor="middle" x="89" y="-70.3" font-family="Times,serif" font-size="14.00">Distinct: Preserve</text>
<polyline fill="none" stroke="black" points="16,-62.5 162,-62.5 "/>
<text text-anchor="middle" x="89" y="-47.3" font-family="Times,serif" font-size="14.00">0: C0 (bigint?)</text>
<polyline fill="none" stroke="black" points="16,-39.5 162,-39.5 "/>
<text text-anchor="middle" x="89" y="-24.3" font-family="Times,serif" font-size="14.00">1: C1 (integer?)</text>
</g>
<!-- Q0&#45;&gt;boxhead0 -->
<g id="edge1" class="edge">
<title>Q0&#45;&gt;boxhead0</title>
<path fill="none" stroke="black" stroke-dasharray="5,2" d="M413.53,-564.49C334.33,-526.52 137.17,-418.46 72,-257 54.08,-212.6 59.59,-158.48 68.91,-117"/>
</g>
<!-- Q4 -->
<g id="node3" class="node">
<title>Q4</title>
<ellipse fill="none" stroke="black" cx="540" cy="-580.59" rx="37.89" ry="37.89"/>
<text text-anchor="middle" x="540" y="-576.89" font-family="Times,serif" font-size="14.00">Q4(E)</text>
</g>
<!-- boxhead4 -->
<g id="node6" class="node">
<title>boxhead4</title>
<polygon fill="none" stroke="black" points="463.5,-415.55 463.5,-484.55 616.5,-484.55 616.5,-415.55 463.5,-415.55"/>
<text text-anchor="middle" x="540" y="-469.35" font-family="Times,serif" font-size="14.00">Distinct: Preserve</text>
<polyline fill="none" stroke="black" points="463.5,-461.55 616.5,-461.55 "/>
<text text-anchor="middle" x="540" y="-446.35" font-family="Times,serif" font-size="14.00">0: Q3.C1 (integer?)</text>
<polyline fill="none" stroke="black" points="463.5,-438.55 616.5,-438.55 "/>
<text text-anchor="middle" x="540" y="-423.35" font-family="Times,serif" font-size="14.00">1: Q3.C2 (integer?)</text>
</g>
<!-- Q4&#45;&gt;boxhead4 -->
<g id="edge2" class="edge">
<title>Q4&#45;&gt;boxhead4</title>
<path fill="none" stroke="black" stroke-dasharray="5,2" d="M540,-542.76C540,-535 540,-526.58 540,-518.09"/>
</g>
<!-- Q8 -->
<g id="node4" class="node">
<title>Q8</title>
<ellipse fill="none" stroke="black" cx="633" cy="-580.59" rx="37.89" ry="37.89"/>
<text text-anchor="middle" x="633" y="-576.89" font-family="Times,serif" font-size="14.00">Q8(E)</text>
</g>
<!-- boxhead8 -->
<g id="node12" class="node">
<title>boxhead8</title>
<polygon fill="none" stroke="black" points="753.5,-415.55 753.5,-484.55 906.5,-484.55 906.5,-415.55 753.5,-415.55"/>
<text text-anchor="middle" x="830" y="-469.35" font-family="Times,serif" font-size="14.00">Distinct: Preserve</text>
<polyline fill="none" stroke="black" points="753.5,-461.55 906.5,-461.55 "/>
<text text-anchor="middle" x="830" y="-446.35" font-family="Times,serif" font-size="14.00">0: Q7.C1 (integer?)</text>
<polyline fill="none" stroke="black" points="753.5,-438.55 906.5,-438.55 "/>
<text text-anchor="middle" x="830" y="-423.35" font-family="Times,serif" font-size="14.00">1: Q7.C2 (integer?)</text>
</g>
<!-- Q8&#45;&gt;boxhead8 -->
<g id="edge3" class="edge">
<title>Q8&#45;&gt;boxhead8</title>
<path fill="none" stroke="black" stroke-dasharray="5,2" d="M653.54,-548.69C660.86,-540.01 669.84,-531.48 680,-526.09 705.33,-512.67 717.52,-529.08 744,-518.09"/>
</g>
<!-- Q3 -->
<g id="node7" class="node">
<title>Q3</title>
<ellipse fill="none" stroke="black" cx="408" cy="-450.05" rx="37.09" ry="37.09"/>
<text text-anchor="middle" x="408" y="-446.35" font-family="Times,serif" font-size="14.00">Q3(F)</text>
</g>
<!-- boxhead3 -->
<g id="node8" class="node">
<title>boxhead3</title>
<polygon fill="none" stroke="black" points="311,-273.5 311,-365.5 505,-365.5 505,-273.5 311,-273.5"/>
<text text-anchor="middle" x="408" y="-350.3" font-family="Times,serif" font-size="14.00">Distinct: Preserve</text>
<polyline fill="none" stroke="black" points="311,-342.5 505,-342.5 "/>
<text text-anchor="middle" x="408" y="-327.3" font-family="Times,serif" font-size="14.00">0: Q2.C0 (bigint)</text>
<polyline fill="none" stroke="black" points="311,-319.5 505,-319.5 "/>
<text text-anchor="middle" x="408" y="-304.3" font-family="Times,serif" font-size="14.00">1: Q2.C1 (integer?)</text>
<polyline fill="none" stroke="black" points="311,-296.5 505,-296.5 "/>
<text text-anchor="middle" x="408" y="-281.3" font-family="Times,serif" font-size="14.00">2: (Q2.C1 + 1) (integer?)</text>
</g>
<!-- Q3&#45;&gt;boxhead3 -->
<g id="edge4" class="edge">
<title>Q3&#45;&gt;boxhead3</title>
<path fill="none" stroke="black" stroke-dasharray="5,2" d="M408,-412.9C408,-407.83 408,-402.48 408,-397"/>
</g>
<!-- Q2 -->
<g id="node9" class="node">
<title>Q2</title>
<ellipse fill="none" stroke="black" cx="256" cy="-319.5" rx="37.09" ry="37.09"/>
<text text-anchor="middle" x="256" y="-315.8" font-family="Times,serif" font-size="14.00">Q2(F)</text>
</g>
<!-- boxhead2 -->
<g id="node10" class="node">
<title>boxhead2</title>
<polygon fill="none" stroke="black" points="176.5,-133.5 176.5,-225.5 353.5,-225.5 353.5,-133.5 176.5,-133.5"/>
<text text-anchor="middle" x="265" y="-210.3" font-family="Times,serif" font-size="14.00">Distinct: Preserve</text>
<polyline fill="none" stroke="black" points="176.5,-202.5 353.5,-202.5 "/>
<text text-anchor="middle" x="265" y="-187.3" font-family="Times,serif" font-size="14.00">0: Q1.C0 (bigint)</text>
<polyline fill="none" stroke="black" points="176.5,-179.5 353.5,-179.5 "/>
<text text-anchor="middle" x="265" y="-164.3" font-family="Times,serif" font-size="14.00">1: Q1.C1 (integer?)</text>
<polyline fill="none" stroke="black" points="176.5,-156.5 353.5,-156.5 "/>
<text text-anchor="middle" x="265" y="-141.3" font-family="Times,serif" font-size="14.00">(Q1.C0 != i32toi64(5))</text>
</g>
<!-- Q2&#45;&gt;boxhead2 -->
<g id="edge5" class="edge">
<title>Q2&#45;&gt;boxhead2</title>
<path fill="none" stroke="black" stroke-dasharray="5,2" d="M258.36,-282.24C258.88,-274.38 259.44,-265.77 260.01,-257"/>
</g>
<!-- Q1 -->
<g id="node11" class="node">
<title>Q1</title>
<ellipse fill="none" stroke="black" cx="121" cy="-179.5" rx="37.09" ry="37.09"/>
<text text-anchor="middle" x="121" y="-175.8" font-family="Times,serif" font-size="14.00">Q1(F)</text>
</g>
<!-- Q1&#45;&gt;boxhead0 -->
<g id="edge6" class="edge">
<title>Q1&#45;&gt;boxhead0</title>
<path fill="none" stroke="black" stroke-dasharray="5,2" d="M112.09,-143.26C110.01,-135.05 107.73,-126.05 105.44,-117"/>
</g>
<!-- Q7 -->
<g id="node13" class="node">
<title>Q7</title>
<ellipse fill="none" stroke="black" cx="698" cy="-450.05" rx="37.09" ry="37.09"/>
<text text-anchor="middle" x="698" y="-446.35" font-family="Times,serif" font-size="14.00">Q7(F)</text>
</g>
<!-- boxhead7 -->
<g id="node14" class="node">
<title>boxhead7</title>
<polygon fill="none" stroke="black" points="621,-273.5 621,-365.5 815,-365.5 815,-273.5 621,-273.5"/>
<text text-anchor="middle" x="718" y="-350.3" font-family="Times,serif" font-size="14.00">Distinct: Preserve</text>
<polyline fill="none" stroke="black" points="621,-342.5 815,-342.5 "/>
<text text-anchor="middle" x="718" y="-327.3" font-family="Times,serif" font-size="14.00">0: Q6.C0 (bigint)</text>
<polyline fill="none" stroke="black" points="621,-319.5 815,-319.5 "/>
<text text-anchor="middle" x="718" y="-304.3" font-family="Times,serif" font-size="14.00">1: Q6.C1 (integer?)</text>
<polyline fill="none" stroke="black" points="621,-296.5 815,-296.5 "/>
<text text-anchor="middle" x="718" y="-281.3" font-family="Times,serif" font-size="14.00">2: (Q6.C1 + 1) (integer?)</text>
</g>
<!-- Q7&#45;&gt;boxhead7 -->
<g id="edge7" class="edge">
<title>Q7&#45;&gt;boxhead7</title>
<path fill="none" stroke="black" stroke-dasharray="5,2" d="M703.57,-413.24C704.37,-408.07 705.23,-402.6 706.1,-397"/>
</g>
<!-- Q6 -->
<g id="node15" class="node">
<title>Q6</title>
<ellipse fill="none" stroke="black" cx="566" cy="-319.5" rx="37.09" ry="37.09"/>
<text text-anchor="middle" x="566" y="-315.8" font-family="Times,serif" font-size="14.00">Q6(F)</text>
</g>
<!-- boxhead6 -->
<g id="node16" class="node">
<title>boxhead6</title>
<polygon fill="none" stroke="black" points="477.5,-133.5 477.5,-225.5 654.5,-225.5 654.5,-133.5 477.5,-133.5"/>
<text text-anchor="middle" x="566" y="-210.3" font-family="Times,serif" font-size="14.00">Distinct: Preserve</text>
<polyline fill="none" stroke="black" points="477.5,-202.5 654.5,-202.5 "/>
<text text-anchor="middle" x="566" y="-187.3" font-family="Times,serif" font-size="14.00">0: Q5.C0 (bigint)</text>
<polyline fill="none" stroke="black" points="477.5,-179.5 654.5,-179.5 "/>
<text text-anchor="middle" x="566" y="-164.3" font-family="Times,serif" font-size="14.00">1: Q5.C1 (integer?)</text>
<polyline fill="none" stroke="black" points="477.5,-156.5 654.5,-156.5 "/>
<text text-anchor="middle" x="566" y="-141.3" font-family="Times,serif" font-size="14.00">(Q5.C0 != i32toi64(5))</text>
</g>
<!-- Q6&#45;&gt;boxhead6 -->
<g id="edge8" class="edge">
<title>Q6&#45;&gt;boxhead6</title>
<path fill="none" stroke="black" stroke-dasharray="5,2" d="M566,-282.24C566,-274.38 566,-265.77 566,-257"/>
</g>
<!-- Q5 -->
<g id="node17" class="node">
<title>Q5</title>
<ellipse fill="none" stroke="black" cx="422" cy="-179.5" rx="37.09" ry="37.09"/>
<text text-anchor="middle" x="422" y="-175.8" font-family="Times,serif" font-size="14.00">Q5(F)</text>
</g>
<!-- boxhead5 -->
<g id="node18" class="node">
<title>boxhead5</title>
<polygon fill="none" stroke="black" points="349,-16.5 349,-85.5 495,-85.5 495,-16.5 349,-16.5"/>
<text text-anchor="middle" x="422" y="-70.3" font-family="Times,serif" font-size="14.00">Distinct: Preserve</text>
<polyline fill="none" stroke="black" points="349,-62.5 495,-62.5 "/>
<text text-anchor="middle" x="422" y="-47.3" font-family="Times,serif" font-size="14.00">0: C0 (bigint?)</text>
<polyline fill="none" stroke="black" points="349,-39.5 495,-39.5 "/>
<text text-anchor="middle" x="422" y="-24.3" font-family="Times,serif" font-size="14.00">1: C1 (integer?)</text>
</g>
<!-- Q5&#45;&gt;boxhead5 -->
<g id="edge9" class="edge">
<title>Q5&#45;&gt;boxhead5</title>
<path fill="none" stroke="black" stroke-dasharray="5,2" d="M422,-142.25C422,-134.31 422,-125.68 422,-117"/>
</g>
</g>
</svg>
