<?xml version="1.0" encoding="UTF-8" standalone="no"?>
<!DOCTYPE svg PUBLIC "-//W3C//DTD SVG 1.1//EN"
 "http://www.w3.org/Graphics/SVG/1.1/DTD/svg11.dtd">
<!-- Generated by graphviz version 2.43.0 (0)
 -->
<!-- Title: G Pages: 1 -->
<svg width="1007pt" height="1621pt"
 viewBox="0.00 0.00 1006.50 1621.00" xmlns="http://www.w3.org/2000/svg" xmlns:xlink="http://www.w3.org/1999/xlink">
<g id="graph0" class="graph" transform="scale(1 1) rotate(0) translate(4 1617)">
<title>G</title>
<polygon fill="white" stroke="transparent" points="-4,4 -4,-1617 1002.5,-1617 1002.5,4 -4,4"/>
<!-- node0 -->
<g id="node1" class="node">
<title>node0</title>
<polygon fill="none" stroke="black" points="469.5,-1574.5 469.5,-1612.5 570.5,-1612.5 570.5,-1574.5 469.5,-1574.5"/>
<text text-anchor="start" x="477.5" y="-1597.3" font-family="Times,serif" font-size="14.00">Let l0 =</text>
<text text-anchor="start" x="477.5" y="-1582.3" font-family="Times,serif" font-size="14.00"> Constant ()</text>
</g>
<!-- node2 -->
<g id="node3" class="node">
<title>node2</title>
<polygon fill="none" stroke="black" points="303.5,-787.5 303.5,-840.5 572.5,-840.5 572.5,-787.5 303.5,-787.5"/>
<text text-anchor="start" x="311.5" y="-825.3" font-family="Times,serif" font-size="14.00">Let l1 =</text>
<text text-anchor="start" x="311.5" y="-810.3" font-family="Times,serif" font-size="14.00"> Join %0 %1</text>
<text text-anchor="start" x="311.5" y="-795.3" font-family="Times,serif" font-size="14.00"> implementation = Unimplemented</text>
</g>
<!-- node0&#45;&gt;node2 -->
<g id="edge14" class="edge">
<title>node0&#45;&gt;node2</title>
<path fill="none" stroke="black" d="M469.28,-1586.99C383.5,-1576.24 219,-1548.88 219,-1497 219,-1497 219,-1497 219,-918 219,-875.8 252.7,-850.86 293.67,-836.13"/>
<polygon fill="black" stroke="black" points="295,-839.38 303.36,-832.87 292.76,-832.74 295,-839.38"/>
<text text-anchor="start" x="219" y="-1160.8" font-family="Times,serif" font-size="14.00">%0</text>
</g>
<!-- node4 -->
<g id="node5" class="node">
<title>node4</title>
<polygon fill="none" stroke="black" points="672.5,-1469.5 672.5,-1522.5 941.5,-1522.5 941.5,-1469.5 672.5,-1469.5"/>
<text text-anchor="start" x="680.5" y="-1507.3" font-family="Times,serif" font-size="14.00">Let l2 =</text>
<text text-anchor="start" x="680.5" y="-1492.3" font-family="Times,serif" font-size="14.00"> Join %0 %3</text>
<text text-anchor="start" x="680.5" y="-1477.3" font-family="Times,serif" font-size="14.00"> implementation = Unimplemented</text>
</g>
<!-- node0&#45;&gt;node4 -->
<g id="edge17" class="edge">
<title>node0&#45;&gt;node4</title>
<path fill="none" stroke="black" d="M570.65,-1575.65C612.06,-1561.87 671.55,-1542.07 720.49,-1525.79"/>
<polygon fill="black" stroke="black" points="721.74,-1529.06 730.13,-1522.58 719.53,-1522.42 721.74,-1529.06"/>
<text text-anchor="start" x="672" y="-1544.8" font-family="Times,serif" font-size="14.00">%0</text>
</g>
<!-- node6 -->
<g id="node7" class="node">
<title>node6</title>
<polygon fill="none" stroke="black" points="385.5,-1469.5 385.5,-1522.5 654.5,-1522.5 654.5,-1469.5 385.5,-1469.5"/>
<text text-anchor="start" x="393.5" y="-1507.3" font-family="Times,serif" font-size="14.00">Let l3 =</text>
<text text-anchor="start" x="393.5" y="-1492.3" font-family="Times,serif" font-size="14.00"> Join %0 %5</text>
<text text-anchor="start" x="393.5" y="-1477.3" font-family="Times,serif" font-size="14.00"> implementation = Unimplemented</text>
</g>
<!-- node0&#45;&gt;node6 -->
<g id="edge8" class="edge">
<title>node0&#45;&gt;node6</title>
<path fill="none" stroke="black" d="M520,-1574.09C520,-1562.42 520,-1546.95 520,-1532.93"/>
<polygon fill="black" stroke="black" points="523.5,-1532.58 520,-1522.58 516.5,-1532.58 523.5,-1532.58"/>
<text text-anchor="start" x="520" y="-1544.8" font-family="Times,serif" font-size="14.00">%0</text>
</g>
<!-- node1 -->
<g id="node2" class="node">
<title>node1</title>
<polygon fill="none" stroke="black" points="246.5,-901 246.5,-937 629.5,-937 629.5,-901 246.5,-901"/>
<text text-anchor="start" x="254.5" y="-915.3" font-family="Times,serif" font-size="14.00">Get simplify_outer_joins.public.table_f1_f2_f3 (u41)</text>
</g>
<!-- node1&#45;&gt;node2 -->
<g id="edge31" class="edge">
<title>node1&#45;&gt;node2</title>
<path fill="none" stroke="black" d="M438,-900.99C438,-887.36 438,-867.77 438,-850.73"/>
<polygon fill="black" stroke="black" points="441.5,-850.53 438,-840.53 434.5,-850.53 441.5,-850.53"/>
<text text-anchor="start" x="438" y="-862.8" font-family="Times,serif" font-size="14.00">%1</text>
</g>
<!-- node15 -->
<g id="node16" class="node">
<title>node15</title>
<polygon fill="none" stroke="black" points="553.5,-652.5 553.5,-735.5 822.5,-735.5 822.5,-652.5 553.5,-652.5"/>
<text text-anchor="start" x="561.5" y="-720.3" font-family="Times,serif" font-size="14.00">Let l6 =</text>
<text text-anchor="start" x="561.5" y="-705.3" font-family="Times,serif" font-size="14.00"> Join %2 %14</text>
<text text-anchor="start" x="561.5" y="-690.3" font-family="Times,serif" font-size="14.00"> implementation = Unimplemented</text>
<text text-anchor="start" x="561.5" y="-675.3" font-family="Times,serif" font-size="14.00"> Project (#0..#7)</text>
<text text-anchor="start" x="561.5" y="-660.3" font-family="Times,serif" font-size="14.00"> Filter (true &amp;&amp; (#2 = #4))</text>
</g>
<!-- node2&#45;&gt;node15 -->
<g id="edge1" class="edge">
<title>node2&#45;&gt;node15</title>
<path fill="none" stroke="black" d="M492.25,-787.4C521.64,-773.52 558.83,-755.97 592.87,-739.9"/>
<polygon fill="black" stroke="black" points="594.36,-743.07 601.91,-735.63 591.37,-736.74 594.36,-743.07"/>
<text text-anchor="start" x="563" y="-757.8" font-family="Times,serif" font-size="14.00">%2</text>
</g>
<!-- node17 -->
<g id="node18" class="node">
<title>node17</title>
<polygon fill="none" stroke="black" points="402.5,-595.5 402.5,-633.5 629.5,-633.5 629.5,-595.5 402.5,-595.5"/>
<text text-anchor="start" x="410.5" y="-618.3" font-family="Times,serif" font-size="14.00">Get %2 (l1)</text>
<text text-anchor="start" x="410.5" y="-603.3" font-family="Times,serif" font-size="14.00"> Distinct group=(#0, #1, #2)</text>
</g>
<!-- node2&#45;&gt;node17 -->
<g id="edge21" class="edge">
<title>node2&#45;&gt;node17</title>
<path fill="none" stroke="black" d="M448.2,-787.18C462.91,-749.94 489.96,-681.43 505.07,-643.18"/>
<polygon fill="black" stroke="black" points="508.4,-644.28 508.81,-633.69 501.89,-641.71 508.4,-644.28"/>
<text text-anchor="start" x="460" y="-757.8" font-family="Times,serif" font-size="14.00">%2</text>
</g>
<!-- node19 -->
<g id="node20" class="node">
<title>node19</title>
<polygon fill="none" stroke="black" points="342.5,-330.5 342.5,-383.5 683.5,-383.5 683.5,-330.5 342.5,-330.5"/>
<text text-anchor="start" x="350.5" y="-368.3" font-family="Times,serif" font-size="14.00">Join %18 %2 (= #0 #3) (= #1 #4) (= #2 #5)</text>
<text text-anchor="start" x="350.5" y="-353.3" font-family="Times,serif" font-size="14.00"> implementation = Unimplemented</text>
<text text-anchor="start" x="350.5" y="-338.3" font-family="Times,serif" font-size="14.00"> Project (#0..#2)</text>
</g>
<!-- node2&#45;&gt;node19 -->
<g id="edge27" class="edge">
<title>node2&#45;&gt;node19</title>
<path fill="none" stroke="black" d="M419.59,-787.2C404.98,-764.16 387,-728.92 387,-695 387,-695 387,-695 387,-452.5 387,-424.25 407.52,-403.41 432,-388.6"/>
<polygon fill="black" stroke="black" points="433.83,-391.59 440.8,-383.61 430.38,-385.5 433.83,-391.59"/>
<text text-anchor="start" x="387" y="-546.3" font-family="Times,serif" font-size="14.00">%2</text>
</g>
<!-- node3 -->
<g id="node4" class="node">
<title>node3</title>
<polygon fill="none" stroke="black" points="615.5,-1575.5 615.5,-1611.5 998.5,-1611.5 998.5,-1575.5 615.5,-1575.5"/>
<text text-anchor="start" x="623.5" y="-1589.8" font-family="Times,serif" font-size="14.00">Get simplify_outer_joins.public.table_f3_f4_f5 (u43)</text>
</g>
<!-- node3&#45;&gt;node4 -->
<g id="edge3" class="edge">
<title>node3&#45;&gt;node4</title>
<path fill="none" stroke="black" d="M807,-1575.43C807,-1563.6 807,-1547.41 807,-1532.82"/>
<polygon fill="black" stroke="black" points="810.5,-1532.55 807,-1522.55 803.5,-1532.56 810.5,-1532.55"/>
<text text-anchor="start" x="807" y="-1544.8" font-family="Times,serif" font-size="14.00">%3</text>
</g>
<!-- node7 -->
<g id="node8" class="node">
<title>node7</title>
<polygon fill="none" stroke="black" points="671.5,-1334.5 671.5,-1417.5 940.5,-1417.5 940.5,-1334.5 671.5,-1334.5"/>
<text text-anchor="start" x="679.5" y="-1402.3" font-family="Times,serif" font-size="14.00">Let l4 =</text>
<text text-anchor="start" x="679.5" y="-1387.3" font-family="Times,serif" font-size="14.00"> Join %4 %6</text>
<text text-anchor="start" x="679.5" y="-1372.3" font-family="Times,serif" font-size="14.00"> implementation = Unimplemented</text>
<text text-anchor="start" x="679.5" y="-1357.3" font-family="Times,serif" font-size="14.00"> Project (#0..#4)</text>
<text text-anchor="start" x="679.5" y="-1342.3" font-family="Times,serif" font-size="14.00"> Filter (true &amp;&amp; (#2 = #3))</text>
</g>
<!-- node4&#45;&gt;node7 -->
<g id="edge22" class="edge">
<title>node4&#45;&gt;node7</title>
<path fill="none" stroke="black" d="M806.78,-1469.4C806.68,-1457.29 806.55,-1442.38 806.43,-1428.1"/>
<polygon fill="black" stroke="black" points="809.93,-1427.83 806.35,-1417.86 802.93,-1427.89 809.93,-1427.83"/>
<text text-anchor="start" x="806" y="-1439.8" font-family="Times,serif" font-size="14.00">%4</text>
</g>
<!-- node5 -->
<g id="node6" class="node">
<title>node5</title>
<polygon fill="none" stroke="black" points="0,-1575.5 0,-1611.5 362,-1611.5 362,-1575.5 0,-1575.5"/>
<text text-anchor="start" x="8" y="-1589.8" font-family="Times,serif" font-size="14.00">Get simplify_outer_joins.public.table_f5_f6 (u39)</text>
</g>
<!-- node5&#45;&gt;node6 -->
<g id="edge2" class="edge">
<title>node5&#45;&gt;node6</title>
<path fill="none" stroke="black" d="M241.61,-1575.43C290.93,-1561.53 361.6,-1541.62 419.39,-1525.34"/>
<polygon fill="black" stroke="black" points="420.61,-1528.64 429.29,-1522.55 418.71,-1521.9 420.61,-1528.64"/>
<text text-anchor="start" x="361" y="-1544.8" font-family="Times,serif" font-size="14.00">%5</text>
</g>
<!-- node6&#45;&gt;node7 -->
<g id="edge16" class="edge">
<title>node6&#45;&gt;node7</title>
<path fill="none" stroke="black" d="M595.48,-1469.41C611.59,-1463.61 628.44,-1457.3 644,-1451 666.07,-1442.06 689.52,-1431.81 711.52,-1421.84"/>
<polygon fill="black" stroke="black" points="713.2,-1424.92 720.85,-1417.59 710.3,-1418.55 713.2,-1424.92"/>
<text text-anchor="start" x="675" y="-1439.8" font-family="Times,serif" font-size="14.00">%6</text>
</g>
<!-- node9 -->
<g id="node10" class="node">
<title>node9</title>
<polygon fill="none" stroke="black" points="552.5,-1277.5 552.5,-1315.5 749.5,-1315.5 749.5,-1277.5 552.5,-1277.5"/>
<text text-anchor="start" x="560.5" y="-1300.3" font-family="Times,serif" font-size="14.00">Get %6 (l3)</text>
<text text-anchor="start" x="560.5" y="-1285.3" font-family="Times,serif" font-size="14.00"> Distinct group=(#0, #1)</text>
</g>
<!-- node6&#45;&gt;node9 -->
<g id="edge15" class="edge">
<title>node6&#45;&gt;node9</title>
<path fill="none" stroke="black" d="M537.13,-1469.18C562.04,-1431.62 608.04,-1362.26 633.28,-1324.21"/>
<polygon fill="black" stroke="black" points="636.32,-1325.96 638.93,-1315.69 630.49,-1322.09 636.32,-1325.96"/>
<text text-anchor="start" x="558" y="-1439.8" font-family="Times,serif" font-size="14.00">%6</text>
</g>
<!-- node11 -->
<g id="node12" class="node">
<title>node11</title>
<polygon fill="none" stroke="black" points="647.5,-997.5 647.5,-1050.5 916.5,-1050.5 916.5,-997.5 647.5,-997.5"/>
<text text-anchor="start" x="655.5" y="-1035.3" font-family="Times,serif" font-size="14.00">Join %10 %6 (= #0 #2) (= #1 #3)</text>
<text text-anchor="start" x="655.5" y="-1020.3" font-family="Times,serif" font-size="14.00"> implementation = Unimplemented</text>
<text text-anchor="start" x="655.5" y="-1005.3" font-family="Times,serif" font-size="14.00"> Project (#0, #1)</text>
</g>
<!-- node6&#45;&gt;node11 -->
<g id="edge5" class="edge">
<title>node6&#45;&gt;node11</title>
<path fill="none" stroke="black" d="M520.34,-1469.22C520.63,-1445.31 521,-1408.75 521,-1377 521,-1377 521,-1377 521,-1119.5 521,-1090.85 577.29,-1068.43 637.59,-1052.63"/>
<polygon fill="black" stroke="black" points="638.47,-1056.02 647.3,-1050.15 636.74,-1049.24 638.47,-1056.02"/>
<text text-anchor="start" x="521" y="-1220.8" font-family="Times,serif" font-size="14.00">%6</text>
</g>
<!-- node8 -->
<g id="node9" class="node">
<title>node8</title>
<polygon fill="none" stroke="black" points="701,-1190.5 701,-1258.5 899,-1258.5 899,-1190.5 701,-1190.5"/>
<text text-anchor="start" x="709" y="-1243.3" font-family="Times,serif" font-size="14.00">Get %7 (l4)</text>
<text text-anchor="start" x="709" y="-1228.3" font-family="Times,serif" font-size="14.00"> Project (#3, #4, #0..#2)</text>
<text text-anchor="start" x="709" y="-1213.3" font-family="Times,serif" font-size="14.00"> Distinct group=(#0, #1)</text>
<text text-anchor="start" x="709" y="-1198.3" font-family="Times,serif" font-size="14.00"> Negate</text>
</g>
<!-- node7&#45;&gt;node8 -->
<g id="edge18" class="edge">
<title>node7&#45;&gt;node8</title>
<path fill="none" stroke="black" d="M804.36,-1334.15C803.55,-1313.88 802.56,-1289.4 801.74,-1268.81"/>
<polygon fill="black" stroke="black" points="805.23,-1268.6 801.33,-1258.75 798.24,-1268.88 805.23,-1268.6"/>
<text text-anchor="start" x="803" y="-1292.8" font-family="Times,serif" font-size="14.00">%7</text>
</g>
<!-- node14 -->
<g id="node15" class="node">
<title>node14</title>
<polygon fill="none" stroke="black" points="683,-787.5 683,-840.5 881,-840.5 881,-787.5 683,-787.5"/>
<text text-anchor="start" x="691" y="-825.3" font-family="Times,serif" font-size="14.00">Let l5 =</text>
<text text-anchor="start" x="691" y="-810.3" font-family="Times,serif" font-size="14.00"> Union %7 %13</text>
<text text-anchor="start" x="691" y="-795.3" font-family="Times,serif" font-size="14.00"> Project (#3, #0..#2, #4)</text>
</g>
<!-- node7&#45;&gt;node14 -->
<g id="edge11" class="edge">
<title>node7&#45;&gt;node14</title>
<path fill="none" stroke="black" d="M875.5,-1334.27C910.25,-1308.24 945,-1270.86 945,-1225.5 945,-1225.5 945,-1225.5 945,-918 945,-883.88 919.16,-860.6 888.05,-844.94"/>
<polygon fill="black" stroke="black" points="889.24,-841.63 878.7,-840.52 886.25,-847.96 889.24,-841.63"/>
<text text-anchor="start" x="945" y="-1072.8" font-family="Times,serif" font-size="14.00">%7</text>
</g>
<!-- node10 -->
<g id="node11" class="node">
<title>node10</title>
<polygon fill="none" stroke="black" points="725.5,-1102.5 725.5,-1138.5 838.5,-1138.5 838.5,-1102.5 725.5,-1102.5"/>
<text text-anchor="start" x="733.5" y="-1116.8" font-family="Times,serif" font-size="14.00">Union %8 %9</text>
</g>
<!-- node8&#45;&gt;node10 -->
<g id="edge9" class="edge">
<title>node8&#45;&gt;node10</title>
<path fill="none" stroke="black" d="M794.16,-1190.38C791.78,-1176.93 789.07,-1161.58 786.82,-1148.79"/>
<polygon fill="black" stroke="black" points="790.23,-1147.98 785.04,-1138.74 783.33,-1149.2 790.23,-1147.98"/>
<text text-anchor="start" x="790" y="-1160.8" font-family="Times,serif" font-size="14.00">%8</text>
</g>
<!-- node9&#45;&gt;node10 -->
<g id="edge13" class="edge">
<title>node9&#45;&gt;node10</title>
<path fill="none" stroke="black" d="M649.74,-1277.41C649.08,-1254.96 651.02,-1216.42 669,-1190 683,-1169.42 705.43,-1153.98 726.63,-1143.02"/>
<polygon fill="black" stroke="black" points="728.19,-1146.15 735.62,-1138.6 725.1,-1139.87 728.19,-1146.15"/>
<text text-anchor="start" x="669" y="-1220.8" font-family="Times,serif" font-size="14.00">%9</text>
</g>
<!-- node10&#45;&gt;node11 -->
<g id="edge26" class="edge">
<title>node10&#45;&gt;node11</title>
<path fill="none" stroke="black" d="M782,-1102.17C782,-1090.7 782,-1075.25 782,-1061.18"/>
<polygon fill="black" stroke="black" points="785.5,-1060.78 782,-1050.78 778.5,-1060.78 785.5,-1060.78"/>
<text text-anchor="start" x="782" y="-1072.8" font-family="Times,serif" font-size="14.00">%10</text>
</g>
<!-- node13 -->
<g id="node14" class="node">
<title>node13</title>
<polygon fill="none" stroke="black" points="647.5,-892.5 647.5,-945.5 916.5,-945.5 916.5,-892.5 647.5,-892.5"/>
<text text-anchor="start" x="655.5" y="-930.3" font-family="Times,serif" font-size="14.00">Join %11 %12</text>
<text text-anchor="start" x="655.5" y="-915.3" font-family="Times,serif" font-size="14.00"> implementation = Unimplemented</text>
<text text-anchor="start" x="655.5" y="-900.3" font-family="Times,serif" font-size="14.00"> Project (#2..#4, #0, #1)</text>
</g>
<!-- node11&#45;&gt;node13 -->
<g id="edge23" class="edge">
<title>node11&#45;&gt;node13</title>
<path fill="none" stroke="black" d="M782,-997.27C782,-984.74 782,-969.46 782,-955.81"/>
<polygon fill="black" stroke="black" points="785.5,-955.75 782,-945.75 778.5,-955.75 785.5,-955.75"/>
<text text-anchor="start" x="782" y="-967.8" font-family="Times,serif" font-size="14.00">%11</text>
</g>
<!-- node12 -->
<g id="node13" class="node">
<title>node12</title>
<polygon fill="none" stroke="black" points="434.5,-1006 434.5,-1042 629.5,-1042 629.5,-1006 434.5,-1006"/>
<text text-anchor="start" x="442.5" y="-1020.3" font-family="Times,serif" font-size="14.00">Constant (null, null, null)</text>
</g>
<!-- node12&#45;&gt;node13 -->
<g id="edge30" class="edge">
<title>node12&#45;&gt;node13</title>
<path fill="none" stroke="black" d="M573.28,-1005.99C610.57,-990.63 666.26,-967.69 710.73,-949.36"/>
<polygon fill="black" stroke="black" points="712.13,-952.57 720.04,-945.53 709.46,-946.1 712.13,-952.57"/>
<text text-anchor="start" x="671" y="-967.8" font-family="Times,serif" font-size="14.00">%12</text>
</g>
<!-- node13&#45;&gt;node14 -->
<g id="edge20" class="edge">
<title>node13&#45;&gt;node14</title>
<path fill="none" stroke="black" d="M782,-892.27C782,-879.74 782,-864.46 782,-850.81"/>
<polygon fill="black" stroke="black" points="785.5,-850.75 782,-840.75 778.5,-850.75 785.5,-850.75"/>
<text text-anchor="start" x="782" y="-862.8" font-family="Times,serif" font-size="14.00">%13</text>
</g>
<!-- node14&#45;&gt;node15 -->
<g id="edge29" class="edge">
<title>node14&#45;&gt;node15</title>
<path fill="none" stroke="black" d="M761.6,-787.4C751.49,-774.7 738.92,-758.93 727.06,-744.03"/>
<polygon fill="black" stroke="black" points="729.52,-741.51 720.55,-735.86 724.05,-745.87 729.52,-741.51"/>
<text text-anchor="start" x="746" y="-757.8" font-family="Times,serif" font-size="14.00">%14</text>
</g>
<!-- node16 -->
<g id="node17" class="node">
<title>node16</title>
<polygon fill="none" stroke="black" points="517.5,-523.5 517.5,-576.5 744.5,-576.5 744.5,-523.5 517.5,-523.5"/>
<text text-anchor="start" x="525.5" y="-561.3" font-family="Times,serif" font-size="14.00">Get %15 (l6)</text>
<text text-anchor="start" x="525.5" y="-546.3" font-family="Times,serif" font-size="14.00"> Distinct group=(#0, #1, #2)</text>
<text text-anchor="start" x="525.5" y="-531.3" font-family="Times,serif" font-size="14.00"> Negate</text>
</g>
<!-- node15&#45;&gt;node16 -->
<g id="edge12" class="edge">
<title>node15&#45;&gt;node16</title>
<path fill="none" stroke="black" d="M671.67,-652.31C663.24,-631.32 653.07,-605.98 645.01,-585.9"/>
<polygon fill="black" stroke="black" points="648.21,-584.48 641.24,-576.5 641.71,-587.08 648.21,-584.48"/>
<text text-anchor="start" x="662" y="-610.8" font-family="Times,serif" font-size="14.00">%15</text>
</g>
<!-- node22 -->
<g id="node23" class="node">
<title>node22</title>
<polygon fill="none" stroke="black" points="529,-120.5 529,-188.5 757,-188.5 757,-120.5 529,-120.5"/>
<text text-anchor="start" x="537" y="-173.3" font-family="Times,serif" font-size="14.00">Let l7 =</text>
<text text-anchor="start" x="537" y="-158.3" font-family="Times,serif" font-size="14.00"> Union %15 %21</text>
<text text-anchor="start" x="537" y="-143.3" font-family="Times,serif" font-size="14.00"> Project (#2, #0, #1, #3..#7)</text>
<text text-anchor="start" x="537" y="-128.3" font-family="Times,serif" font-size="14.00"> Filter (true &amp;&amp; (#3 = 0))</text>
</g>
<!-- node15&#45;&gt;node22 -->
<g id="edge24" class="edge">
<title>node15&#45;&gt;node22</title>
<path fill="none" stroke="black" d="M728.26,-652.32C750.23,-625.77 773,-589.07 773,-551 773,-551 773,-551 773,-258.5 773,-231.32 755.32,-210.17 733,-194.31"/>
<polygon fill="black" stroke="black" points="734.85,-191.34 724.59,-188.71 730.97,-197.17 734.85,-191.34"/>
<text text-anchor="start" x="773" y="-405.8" font-family="Times,serif" font-size="14.00">%15</text>
</g>
<!-- node18 -->
<g id="node19" class="node">
<title>node18</title>
<polygon fill="none" stroke="black" points="447.5,-435.5 447.5,-471.5 578.5,-471.5 578.5,-435.5 447.5,-435.5"/>
<text text-anchor="start" x="455.5" y="-449.8" font-family="Times,serif" font-size="14.00">Union %16 %17</text>
</g>
<!-- node16&#45;&gt;node18 -->
<g id="edge4" class="edge">
<title>node16&#45;&gt;node18</title>
<path fill="none" stroke="black" d="M599.07,-523.43C581.47,-509.33 559.77,-491.96 542.57,-478.18"/>
<polygon fill="black" stroke="black" points="544.51,-475.25 534.52,-471.73 540.13,-480.71 544.51,-475.25"/>
<text text-anchor="start" x="575" y="-493.8" font-family="Times,serif" font-size="14.00">%16</text>
</g>
<!-- node17&#45;&gt;node18 -->
<g id="edge10" class="edge">
<title>node17&#45;&gt;node18</title>
<path fill="none" stroke="black" d="M490.23,-595.12C484.87,-589.92 479.95,-583.81 477,-577 463.02,-544.76 480.16,-505.47 495.24,-480.23"/>
<polygon fill="black" stroke="black" points="498.3,-481.94 500.64,-471.61 492.36,-478.22 498.3,-481.94"/>
<text text-anchor="start" x="477" y="-546.3" font-family="Times,serif" font-size="14.00">%17</text>
</g>
<!-- node18&#45;&gt;node19 -->
<g id="edge6" class="edge">
<title>node18&#45;&gt;node19</title>
<path fill="none" stroke="black" d="M513,-435.17C513,-423.7 513,-408.25 513,-394.18"/>
<polygon fill="black" stroke="black" points="516.5,-393.78 513,-383.78 509.5,-393.78 516.5,-393.78"/>
<text text-anchor="start" x="513" y="-405.8" font-family="Times,serif" font-size="14.00">%18</text>
</g>
<!-- node21 -->
<g id="node22" class="node">
<title>node21</title>
<polygon fill="none" stroke="black" points="378.5,-240.5 378.5,-278.5 647.5,-278.5 647.5,-240.5 378.5,-240.5"/>
<text text-anchor="start" x="386.5" y="-263.3" font-family="Times,serif" font-size="14.00">Join %19 %20</text>
<text text-anchor="start" x="386.5" y="-248.3" font-family="Times,serif" font-size="14.00"> implementation = Unimplemented</text>
</g>
<!-- node19&#45;&gt;node21 -->
<g id="edge7" class="edge">
<title>node19&#45;&gt;node21</title>
<path fill="none" stroke="black" d="M513,-330.41C513,-317.63 513,-302.13 513,-288.98"/>
<polygon fill="black" stroke="black" points="516.5,-288.6 513,-278.6 509.5,-288.6 516.5,-288.6"/>
<text text-anchor="start" x="513" y="-300.8" font-family="Times,serif" font-size="14.00">%19</text>
</g>
<!-- node20 -->
<g id="node21" class="node">
<title>node20</title>
<polygon fill="none" stroke="black" points="57.5,-339 57.5,-375 324.5,-375 324.5,-339 57.5,-339"/>
<text text-anchor="start" x="65.5" y="-353.3" font-family="Times,serif" font-size="14.00">Constant (null, null, null, null, null)</text>
</g>
<!-- node20&#45;&gt;node21 -->
<g id="edge19" class="edge">
<title>node20&#45;&gt;node21</title>
<path fill="none" stroke="black" d="M248.57,-338.93C302.78,-322.85 384.11,-298.73 442.25,-281.48"/>
<polygon fill="black" stroke="black" points="443.51,-284.76 452.1,-278.56 441.52,-278.05 443.51,-284.76"/>
<text text-anchor="start" x="381" y="-300.8" font-family="Times,serif" font-size="14.00">%20</text>
</g>
<!-- node21&#45;&gt;node22 -->
<g id="edge25" class="edge">
<title>node21&#45;&gt;node22</title>
<path fill="none" stroke="black" d="M535.94,-240.32C551.77,-227.79 573.42,-210.63 593.11,-195.03"/>
<polygon fill="black" stroke="black" points="595.45,-197.64 601.12,-188.68 591.11,-192.15 595.45,-197.64"/>
<text text-anchor="start" x="578" y="-210.8" font-family="Times,serif" font-size="14.00">%21</text>
</g>
<!-- node23 -->
<g id="node24" class="node">
<title>node23</title>
<polygon fill="none" stroke="black" points="529,-0.5 529,-68.5 757,-68.5 757,-0.5 529,-0.5"/>
<text text-anchor="start" x="537" y="-53.3" font-family="Times,serif" font-size="14.00">Get %22 (l7)</text>
<text text-anchor="start" x="537" y="-38.3" font-family="Times,serif" font-size="14.00"> Map &quot;qgm(false)&quot;</text>
<text text-anchor="start" x="537" y="-23.3" font-family="Times,serif" font-size="14.00"> Project (#0..#8)</text>
<text text-anchor="start" x="537" y="-8.3" font-family="Times,serif" font-size="14.00"> Project (#8, #0..#3, #5, #7)</text>
</g>
<!-- node22&#45;&gt;node23 -->
<g id="edge28" class="edge">
<title>node22&#45;&gt;node23</title>
<path fill="none" stroke="black" d="M643,-120.32C643,-107.5 643,-92.65 643,-79"/>
<polygon fill="black" stroke="black" points="646.5,-78.84 643,-68.84 639.5,-78.84 646.5,-78.84"/>
<text text-anchor="start" x="643" y="-90.8" font-family="Times,serif" font-size="14.00">%22</text>
</g>
</g>
</svg>
