<?xml version="1.0" encoding="UTF-8" standalone="no"?>
<!DOCTYPE svg PUBLIC "-//W3C//DTD SVG 1.1//EN"
 "http://www.w3.org/Graphics/SVG/1.1/DTD/svg11.dtd">
<!-- Generated by graphviz version 2.43.0 (0)
 -->
<!-- Title: G Pages: 1 -->
<svg width="1173pt" height="182pt"
 viewBox="0.00 0.00 1172.50 182.00" xmlns="http://www.w3.org/2000/svg" xmlns:xlink="http://www.w3.org/1999/xlink">
<g id="graph0" class="graph" transform="scale(1 1) rotate(0) translate(4 178)">
<title>G</title>
<polygon fill="white" stroke="transparent" points="-4,4 -4,-178 1168.5,-178 1168.5,4 -4,4"/>
<!-- node0 -->
<g id="node1" class="node">
<title>node0</title>
<polygon fill="none" stroke="black" points="0,-120.5 0,-173.5 383,-173.5 383,-120.5 0,-120.5"/>
<text text-anchor="start" x="8" y="-158.3" font-family="Times,serif" font-size="14.00">Get simplify_outer_joins.public.table_f1_f2_f3 (u41)</text>
<text text-anchor="start" x="8" y="-143.3" font-family="Times,serif" font-size="14.00"> Filter !(isnull(#2))</text>
<text text-anchor="start" x="8" y="-128.3" font-family="Times,serif" font-size="14.00"> ArrangeBy ()</text>
</g>
<!-- node3 -->
<g id="node4" class="node">
<title>node3</title>
<polygon fill="none" stroke="black" points="408.5,-0.5 408.5,-68.5 776.5,-68.5 776.5,-0.5 408.5,-0.5"/>
<text text-anchor="start" x="416.5" y="-53.3" font-family="Times,serif" font-size="14.00">Join %0 %1 %2 (= #2 #3)</text>
<text text-anchor="start" x="416.5" y="-38.3" font-family="Times,serif" font-size="14.00"> implementation = Differential %2 %0.() %1.(#0)</text>
<text text-anchor="start" x="416.5" y="-23.3" font-family="Times,serif" font-size="14.00"> Map &quot;qgm(false)&quot;</text>
<text text-anchor="start" x="416.5" y="-8.3" font-family="Times,serif" font-size="14.00"> Project (#7, #2, #0, #1, #5, #4, #6)</text>
</g>
<!-- node0&#45;&gt;node3 -->
<g id="edge3" class="edge">
<title>node0&#45;&gt;node3</title>
<path fill="none" stroke="black" d="M284.25,-120.44C337.17,-105.86 404.34,-87.35 462.46,-71.33"/>
<polygon fill="black" stroke="black" points="463.74,-74.61 472.45,-68.58 461.88,-67.86 463.74,-74.61"/>
<text text-anchor="start" x="404.5" y="-90.8" font-family="Times,serif" font-size="14.00">%0</text>
</g>
<!-- node1 -->
<g id="node2" class="node">
<title>node1</title>
<polygon fill="none" stroke="black" points="401,-120.5 401,-173.5 784,-173.5 784,-120.5 401,-120.5"/>
<text text-anchor="start" x="409" y="-158.3" font-family="Times,serif" font-size="14.00">Get simplify_outer_joins.public.table_f3_f4_f5 (u43)</text>
<text text-anchor="start" x="409" y="-143.3" font-family="Times,serif" font-size="14.00"> Filter (#2 = 0), !(isnull(#0))</text>
<text text-anchor="start" x="409" y="-128.3" font-family="Times,serif" font-size="14.00"> ArrangeBy (#0)</text>
</g>
<!-- node1&#45;&gt;node3 -->
<g id="edge1" class="edge">
<title>node1&#45;&gt;node3</title>
<path fill="none" stroke="black" d="M592.5,-120.37C592.5,-107.96 592.5,-92.71 592.5,-78.58"/>
<polygon fill="black" stroke="black" points="596,-78.54 592.5,-68.54 589,-78.54 596,-78.54"/>
<text text-anchor="start" x="592.5" y="-90.8" font-family="Times,serif" font-size="14.00">%1</text>
</g>
<!-- node2 -->
<g id="node3" class="node">
<title>node2</title>
<polygon fill="none" stroke="black" points="802.5,-120.5 802.5,-173.5 1164.5,-173.5 1164.5,-120.5 802.5,-120.5"/>
<text text-anchor="start" x="810.5" y="-158.3" font-family="Times,serif" font-size="14.00">Get simplify_outer_joins.public.table_f5_f6 (u39)</text>
<text text-anchor="start" x="810.5" y="-143.3" font-family="Times,serif" font-size="14.00"> Filter (#0 = 0)</text>
<text text-anchor="start" x="810.5" y="-128.3" font-family="Times,serif" font-size="14.00"> Project (#1)</text>
</g>
<!-- node2&#45;&gt;node3 -->
<g id="edge2" class="edge">
<title>node2&#45;&gt;node3</title>
<path fill="none" stroke="black" d="M892.81,-120.37C841.21,-105.79 775.76,-87.29 719.15,-71.29"/>
<polygon fill="black" stroke="black" points="719.99,-67.89 709.42,-68.54 718.09,-74.63 719.99,-67.89"/>
<text text-anchor="start" x="823.5" y="-90.8" font-family="Times,serif" font-size="14.00">%2</text>
</g>
</g>
</svg>
