<?xml version="1.0" encoding="UTF-8" standalone="no"?>
<!DOCTYPE svg PUBLIC "-//W3C//DTD SVG 1.1//EN"
 "http://www.w3.org/Graphics/SVG/1.1/DTD/svg11.dtd">
<!-- Generated by graphviz version 2.43.0 (0)
 -->
<!-- Title: G Pages: 1 -->
<svg width="963pt" height="270pt"
 viewBox="0.00 0.00 962.50 270.00" xmlns="http://www.w3.org/2000/svg" xmlns:xlink="http://www.w3.org/1999/xlink">
<g id="graph0" class="graph" transform="scale(1 1) rotate(0) translate(4 266)">
<title>G</title>
<polygon fill="white" stroke="transparent" points="-4,4 -4,-266 958.5,-266 958.5,4 -4,4"/>
<!-- node0 -->
<g id="node1" class="node">
<title>node0</title>
<polygon fill="none" stroke="black" points="0,-136.5 0,-172.5 383,-172.5 383,-136.5 0,-136.5"/>
<text text-anchor="start" x="8" y="-150.8" font-family="Times,serif" font-size="14.00">Get simplify_outer_joins.public.table_f1_f2_f3 (u41)</text>
</g>
<!-- node4 -->
<g id="node5" class="node">
<title>node4</title>
<polygon fill="none" stroke="black" points="43.5,-0.5 43.5,-83.5 385.5,-83.5 385.5,-0.5 43.5,-0.5"/>
<text text-anchor="start" x="51.5" y="-68.3" font-family="Times,serif" font-size="14.00">LeftOuterJoin %0 %3 on (true &amp;&amp; (#2 = #4))</text>
<text text-anchor="start" x="51.5" y="-53.3" font-family="Times,serif" font-size="14.00"> Project (#2, #0, #1, #3..#7)</text>
<text text-anchor="start" x="51.5" y="-38.3" font-family="Times,serif" font-size="14.00"> Filter (true &amp;&amp; (#3 = 0))</text>
<text text-anchor="start" x="51.5" y="-23.3" font-family="Times,serif" font-size="14.00"> Map &quot;qgm(false)&quot;</text>
<text text-anchor="start" x="51.5" y="-8.3" font-family="Times,serif" font-size="14.00"> Project (#8, #0..#3, #5, #7)</text>
</g>
<!-- node0&#45;&gt;node4 -->
<g id="edge2" class="edge">
<title>node0&#45;&gt;node4</title>
<path fill="none" stroke="black" d="M195.09,-136.23C197.5,-124.68 200.8,-108.84 203.99,-93.49"/>
<polygon fill="black" stroke="black" points="207.45,-94.02 206.07,-83.52 200.6,-92.6 207.45,-94.02"/>
<text text-anchor="start" x="202.5" y="-105.8" font-family="Times,serif" font-size="14.00">%0</text>
</g>
<!-- node1 -->
<g id="node2" class="node">
<title>node1</title>
<polygon fill="none" stroke="black" points="191,-225.5 191,-261.5 574,-261.5 574,-225.5 191,-225.5"/>
<text text-anchor="start" x="199" y="-239.8" font-family="Times,serif" font-size="14.00">Get simplify_outer_joins.public.table_f3_f4_f5 (u43)</text>
</g>
<!-- node3 -->
<g id="node4" class="node">
<title>node3</title>
<polygon fill="none" stroke="black" points="401,-135.5 401,-173.5 754,-173.5 754,-135.5 401,-135.5"/>
<text text-anchor="start" x="409" y="-158.3" font-family="Times,serif" font-size="14.00">RightOuterJoin %1 %2 on (true &amp;&amp; (#2 = #3))</text>
<text text-anchor="start" x="409" y="-143.3" font-family="Times,serif" font-size="14.00"> Project (#3, #0..#2, #4)</text>
</g>
<!-- node1&#45;&gt;node3 -->
<g id="edge1" class="edge">
<title>node1&#45;&gt;node3</title>
<path fill="none" stroke="black" d="M421.03,-225.31C451.53,-211.7 494.38,-192.58 527.53,-177.79"/>
<polygon fill="black" stroke="black" points="529.33,-180.82 537.04,-173.55 526.48,-174.43 529.33,-180.82"/>
<text text-anchor="start" x="492.5" y="-195.8" font-family="Times,serif" font-size="14.00">%1</text>
</g>
<!-- node2 -->
<g id="node3" class="node">
<title>node2</title>
<polygon fill="none" stroke="black" points="592.5,-225.5 592.5,-261.5 954.5,-261.5 954.5,-225.5 592.5,-225.5"/>
<text text-anchor="start" x="600.5" y="-239.8" font-family="Times,serif" font-size="14.00">Get simplify_outer_joins.public.table_f5_f6 (u39)</text>
</g>
<!-- node2&#45;&gt;node3 -->
<g id="edge3" class="edge">
<title>node2&#45;&gt;node3</title>
<path fill="none" stroke="black" d="M734.78,-225.31C704.11,-211.7 661.04,-192.58 627.73,-177.79"/>
<polygon fill="black" stroke="black" points="628.73,-174.41 618.17,-173.55 625.89,-180.81 628.73,-174.41"/>
<text text-anchor="start" x="693.5" y="-195.8" font-family="Times,serif" font-size="14.00">%2</text>
</g>
<!-- node3&#45;&gt;node4 -->
<g id="edge4" class="edge">
<title>node3&#45;&gt;node4</title>
<path fill="none" stroke="black" d="M517.96,-135.38C474.33,-122.09 413.19,-103.48 357.21,-86.44"/>
<polygon fill="black" stroke="black" points="358.13,-83.06 347.55,-83.5 356.1,-89.76 358.13,-83.06"/>
<text text-anchor="start" x="450.5" y="-105.8" font-family="Times,serif" font-size="14.00">%3</text>
</g>
</g>
</svg>
