<?xml version="1.0" encoding="UTF-8" standalone="no"?>
<!DOCTYPE svg PUBLIC "-//W3C//DTD SVG 1.1//EN"
 "http://www.w3.org/Graphics/SVG/1.1/DTD/svg11.dtd">
<!-- Generated by graphviz version 2.43.0 (0)
 -->
<!-- Title: G Pages: 1 -->
<svg width="1345pt" height="2705pt"
 viewBox="0.00 0.00 1345.00 2705.00" xmlns="http://www.w3.org/2000/svg" xmlns:xlink="http://www.w3.org/1999/xlink">
<g id="graph0" class="graph" transform="scale(1 1) rotate(0) translate(4 2701)">
<title>G</title>
<polygon fill="white" stroke="transparent" points="-4,4 -4,-2701 1341,-2701 1341,4 -4,4"/>
<!-- node0 -->
<g id="node1" class="node">
<title>node0</title>
<polygon fill="none" stroke="black" points="570.5,-2628.5 570.5,-2696.5 671.5,-2696.5 671.5,-2628.5 570.5,-2628.5"/>
<text text-anchor="start" x="578.5" y="-2681.3" font-family="Times,serif" font-size="14.00">Let l0 =</text>
<text text-anchor="start" x="578.5" y="-2666.3" font-family="Times,serif" font-size="14.00"> Constant ()</text>
<text text-anchor="start" x="578.5" y="-2651.3" font-family="Times,serif" font-size="14.00"> types = ()</text>
<text text-anchor="start" x="578.5" y="-2636.3" font-family="Times,serif" font-size="14.00"> keys = (())</text>
</g>
<!-- node2 -->
<g id="node3" class="node">
<title>node2</title>
<polygon fill="none" stroke="black" points="419.5,-1359.5 419.5,-1442.5 706.5,-1442.5 706.5,-1359.5 419.5,-1359.5"/>
<text text-anchor="start" x="427.5" y="-1427.3" font-family="Times,serif" font-size="14.00">Let l1 =</text>
<text text-anchor="start" x="427.5" y="-1412.3" font-family="Times,serif" font-size="14.00"> Join %0 %1</text>
<text text-anchor="start" x="427.5" y="-1397.3" font-family="Times,serif" font-size="14.00"> implementation = Unimplemented</text>
<text text-anchor="start" x="427.5" y="-1382.3" font-family="Times,serif" font-size="14.00"> types = (integer?, integer?, integer?)</text>
<text text-anchor="start" x="427.5" y="-1367.3" font-family="Times,serif" font-size="14.00"> keys = ()</text>
</g>
<!-- node0&#45;&gt;node2 -->
<g id="edge14" class="edge">
<title>node0&#45;&gt;node2</title>
<path fill="none" stroke="black" d="M570.19,-2643.99C490.23,-2615.68 344,-2560.55 344,-2536 344,-2536 344,-2536 344,-1565 344,-1511.23 387,-1473.11 434.9,-1447.33"/>
<polygon fill="black" stroke="black" points="436.63,-1450.37 443.89,-1442.65 433.4,-1444.16 436.63,-1450.37"/>
<text text-anchor="start" x="344" y="-1914.8" font-family="Times,serif" font-size="14.00">%0</text>
</g>
<!-- node4 -->
<g id="node5" class="node">
<title>node4</title>
<polygon fill="none" stroke="black" points="807.5,-2493.5 807.5,-2576.5 1094.5,-2576.5 1094.5,-2493.5 807.5,-2493.5"/>
<text text-anchor="start" x="815.5" y="-2561.3" font-family="Times,serif" font-size="14.00">Let l2 =</text>
<text text-anchor="start" x="815.5" y="-2546.3" font-family="Times,serif" font-size="14.00"> Join %0 %3</text>
<text text-anchor="start" x="815.5" y="-2531.3" font-family="Times,serif" font-size="14.00"> implementation = Unimplemented</text>
<text text-anchor="start" x="815.5" y="-2516.3" font-family="Times,serif" font-size="14.00"> types = (integer?, integer?, integer?)</text>
<text text-anchor="start" x="815.5" y="-2501.3" font-family="Times,serif" font-size="14.00"> keys = ()</text>
</g>
<!-- node0&#45;&gt;node4 -->
<g id="edge17" class="edge">
<title>node0&#45;&gt;node4</title>
<path fill="none" stroke="black" d="M671.84,-2642.17C715.16,-2625.69 779.09,-2601.38 834.84,-2580.18"/>
<polygon fill="black" stroke="black" points="836.32,-2583.36 844.42,-2576.53 833.83,-2576.81 836.32,-2583.36"/>
<text text-anchor="start" x="786" y="-2598.8" font-family="Times,serif" font-size="14.00">%0</text>
</g>
<!-- node6 -->
<g id="node7" class="node">
<title>node6</title>
<polygon fill="none" stroke="black" points="486.5,-2493.5 486.5,-2576.5 755.5,-2576.5 755.5,-2493.5 486.5,-2493.5"/>
<text text-anchor="start" x="494.5" y="-2561.3" font-family="Times,serif" font-size="14.00">Let l3 =</text>
<text text-anchor="start" x="494.5" y="-2546.3" font-family="Times,serif" font-size="14.00"> Join %0 %5</text>
<text text-anchor="start" x="494.5" y="-2531.3" font-family="Times,serif" font-size="14.00"> implementation = Unimplemented</text>
<text text-anchor="start" x="494.5" y="-2516.3" font-family="Times,serif" font-size="14.00"> types = (integer?, integer?)</text>
<text text-anchor="start" x="494.5" y="-2501.3" font-family="Times,serif" font-size="14.00"> keys = ()</text>
</g>
<!-- node0&#45;&gt;node6 -->
<g id="edge8" class="edge">
<title>node0&#45;&gt;node6</title>
<path fill="none" stroke="black" d="M621,-2628.2C621,-2615.46 621,-2600.63 621,-2586.63"/>
<polygon fill="black" stroke="black" points="624.5,-2586.63 621,-2576.63 617.5,-2586.63 624.5,-2586.63"/>
<text text-anchor="start" x="621" y="-2598.8" font-family="Times,serif" font-size="14.00">%0</text>
</g>
<!-- node1 -->
<g id="node2" class="node">
<title>node1</title>
<polygon fill="none" stroke="black" points="371.5,-1539.5 371.5,-1592.5 754.5,-1592.5 754.5,-1539.5 371.5,-1539.5"/>
<text text-anchor="start" x="379.5" y="-1577.3" font-family="Times,serif" font-size="14.00">Get simplify_outer_joins.public.table_f1_f2_f3 (u41)</text>
<text text-anchor="start" x="379.5" y="-1562.3" font-family="Times,serif" font-size="14.00"> types = (integer?, integer?, integer?)</text>
<text text-anchor="start" x="379.5" y="-1547.3" font-family="Times,serif" font-size="14.00"> keys = ()</text>
</g>
<!-- node1&#45;&gt;node2 -->
<g id="edge31" class="edge">
<title>node1&#45;&gt;node2</title>
<path fill="none" stroke="black" d="M563,-1539.17C563,-1516.07 563,-1481.53 563,-1452.89"/>
<polygon fill="black" stroke="black" points="566.5,-1452.63 563,-1442.63 559.5,-1452.63 566.5,-1452.63"/>
<text text-anchor="start" x="563" y="-1479.8" font-family="Times,serif" font-size="14.00">%1</text>
</g>
<!-- node15 -->
<g id="node16" class="node">
<title>node15</title>
<polygon fill="none" stroke="black" points="640.5,-1119.5 640.5,-1292.5 1269.5,-1292.5 1269.5,-1119.5 640.5,-1119.5"/>
<text text-anchor="start" x="648.5" y="-1277.3" font-family="Times,serif" font-size="14.00">Let l6 =</text>
<text text-anchor="start" x="648.5" y="-1262.3" font-family="Times,serif" font-size="14.00"> Join %2 %14</text>
<text text-anchor="start" x="648.5" y="-1247.3" font-family="Times,serif" font-size="14.00"> implementation = Unimplemented</text>
<text text-anchor="start" x="648.5" y="-1232.3" font-family="Times,serif" font-size="14.00"> types = (integer?, integer?, integer?, integer?, integer?, integer?, integer?, integer?)</text>
<text text-anchor="start" x="648.5" y="-1217.3" font-family="Times,serif" font-size="14.00"> keys = ()</text>
<text text-anchor="start" x="648.5" y="-1202.3" font-family="Times,serif" font-size="14.00"> Project (#0..#7)</text>
<text text-anchor="start" x="648.5" y="-1187.3" font-family="Times,serif" font-size="14.00"> types = (integer?, integer?, integer?, integer?, integer?, integer?, integer?, integer?)</text>
<text text-anchor="start" x="648.5" y="-1172.3" font-family="Times,serif" font-size="14.00"> keys = ()</text>
<text text-anchor="start" x="648.5" y="-1157.3" font-family="Times,serif" font-size="14.00"> Filter (true &amp;&amp; (#2 = #4))</text>
<text text-anchor="start" x="648.5" y="-1142.3" font-family="Times,serif" font-size="14.00"> types = (integer?, integer?, integer?, integer?, integer?, integer?, integer?, integer?)</text>
<text text-anchor="start" x="648.5" y="-1127.3" font-family="Times,serif" font-size="14.00"> keys = ()</text>
</g>
<!-- node2&#45;&gt;node15 -->
<g id="edge1" class="edge">
<title>node2&#45;&gt;node15</title>
<path fill="none" stroke="black" d="M645.65,-1359.31C682.64,-1341.1 727.83,-1318.85 772.12,-1297.04"/>
<polygon fill="black" stroke="black" points="773.84,-1300.1 781.26,-1292.54 770.74,-1293.82 773.84,-1300.1"/>
<text text-anchor="start" x="735" y="-1314.8" font-family="Times,serif" font-size="14.00">%2</text>
</g>
<!-- node17 -->
<g id="node18" class="node">
<title>node17</title>
<polygon fill="none" stroke="black" points="448.5,-1002.5 448.5,-1100.5 735.5,-1100.5 735.5,-1002.5 448.5,-1002.5"/>
<text text-anchor="start" x="456.5" y="-1085.3" font-family="Times,serif" font-size="14.00">Get %2 (l1)</text>
<text text-anchor="start" x="456.5" y="-1070.3" font-family="Times,serif" font-size="14.00"> types = (integer?, integer?, integer?)</text>
<text text-anchor="start" x="456.5" y="-1055.3" font-family="Times,serif" font-size="14.00"> keys = ()</text>
<text text-anchor="start" x="456.5" y="-1040.3" font-family="Times,serif" font-size="14.00"> Distinct group=(#0, #1, #2)</text>
<text text-anchor="start" x="456.5" y="-1025.3" font-family="Times,serif" font-size="14.00"> types = (integer?, integer?, integer?)</text>
<text text-anchor="start" x="456.5" y="-1010.3" font-family="Times,serif" font-size="14.00"> keys = ((#0..#2))</text>
</g>
<!-- node2&#45;&gt;node17 -->
<g id="edge21" class="edge">
<title>node2&#45;&gt;node17</title>
<path fill="none" stroke="black" d="M566.38,-1359.46C571.51,-1298.03 581.27,-1181.07 587.15,-1110.6"/>
<polygon fill="black" stroke="black" points="590.65,-1110.81 587.99,-1100.56 583.67,-1110.23 590.65,-1110.81"/>
<text text-anchor="start" x="570" y="-1314.8" font-family="Times,serif" font-size="14.00">%2</text>
</g>
<!-- node19 -->
<g id="node20" class="node">
<title>node19</title>
<polygon fill="none" stroke="black" points="442,-570.5 442,-683.5 934,-683.5 934,-570.5 442,-570.5"/>
<text text-anchor="start" x="450" y="-668.3" font-family="Times,serif" font-size="14.00">Join %18 %2 (= #0 #3) (= #1 #4) (= #2 #5)</text>
<text text-anchor="start" x="450" y="-653.3" font-family="Times,serif" font-size="14.00"> implementation = Unimplemented</text>
<text text-anchor="start" x="450" y="-638.3" font-family="Times,serif" font-size="14.00"> types = (integer?, integer?, integer?, integer?, integer?, integer?)</text>
<text text-anchor="start" x="450" y="-623.3" font-family="Times,serif" font-size="14.00"> keys = ()</text>
<text text-anchor="start" x="450" y="-608.3" font-family="Times,serif" font-size="14.00"> Project (#0..#2)</text>
<text text-anchor="start" x="450" y="-593.3" font-family="Times,serif" font-size="14.00"> types = (integer?, integer?, integer?)</text>
<text text-anchor="start" x="450" y="-578.3" font-family="Times,serif" font-size="14.00"> keys = ()</text>
</g>
<!-- node2&#45;&gt;node19 -->
<g id="edge27" class="edge">
<title>node2&#45;&gt;node19</title>
<path fill="none" stroke="black" d="M514.59,-1359.3C477.63,-1323.44 433,-1267.6 433,-1207 433,-1207 433,-1207 433,-761 433,-730.96 447.08,-707.7 468.63,-689.68"/>
<polygon fill="black" stroke="black" points="470.8,-692.43 476.55,-683.53 466.5,-686.9 470.8,-692.43"/>
<text text-anchor="start" x="433" y="-908.3" font-family="Times,serif" font-size="14.00">%2</text>
</g>
<!-- node3 -->
<g id="node4" class="node">
<title>node3</title>
<polygon fill="none" stroke="black" points="759.5,-2636 759.5,-2689 1142.5,-2689 1142.5,-2636 759.5,-2636"/>
<text text-anchor="start" x="767.5" y="-2673.8" font-family="Times,serif" font-size="14.00">Get simplify_outer_joins.public.table_f3_f4_f5 (u43)</text>
<text text-anchor="start" x="767.5" y="-2658.8" font-family="Times,serif" font-size="14.00"> types = (integer?, integer?, integer?)</text>
<text text-anchor="start" x="767.5" y="-2643.8" font-family="Times,serif" font-size="14.00"> keys = ()</text>
</g>
<!-- node3&#45;&gt;node4 -->
<g id="edge3" class="edge">
<title>node3&#45;&gt;node4</title>
<path fill="none" stroke="black" d="M951,-2635.8C951,-2621.79 951,-2603.93 951,-2587.2"/>
<polygon fill="black" stroke="black" points="954.5,-2586.98 951,-2576.98 947.5,-2586.98 954.5,-2586.98"/>
<text text-anchor="start" x="951" y="-2598.8" font-family="Times,serif" font-size="14.00">%3</text>
</g>
<!-- node7 -->
<g id="node8" class="node">
<title>node7</title>
<polygon fill="none" stroke="black" points="749,-2268.5 749,-2441.5 1173,-2441.5 1173,-2268.5 749,-2268.5"/>
<text text-anchor="start" x="757" y="-2426.3" font-family="Times,serif" font-size="14.00">Let l4 =</text>
<text text-anchor="start" x="757" y="-2411.3" font-family="Times,serif" font-size="14.00"> Join %4 %6</text>
<text text-anchor="start" x="757" y="-2396.3" font-family="Times,serif" font-size="14.00"> implementation = Unimplemented</text>
<text text-anchor="start" x="757" y="-2381.3" font-family="Times,serif" font-size="14.00"> types = (integer?, integer?, integer?, integer?, integer?)</text>
<text text-anchor="start" x="757" y="-2366.3" font-family="Times,serif" font-size="14.00"> keys = ()</text>
<text text-anchor="start" x="757" y="-2351.3" font-family="Times,serif" font-size="14.00"> Project (#0..#4)</text>
<text text-anchor="start" x="757" y="-2336.3" font-family="Times,serif" font-size="14.00"> types = (integer?, integer?, integer?, integer?, integer?)</text>
<text text-anchor="start" x="757" y="-2321.3" font-family="Times,serif" font-size="14.00"> keys = ()</text>
<text text-anchor="start" x="757" y="-2306.3" font-family="Times,serif" font-size="14.00"> Filter (true &amp;&amp; (#2 = #3))</text>
<text text-anchor="start" x="757" y="-2291.3" font-family="Times,serif" font-size="14.00"> types = (integer?, integer?, integer?, integer?, integer?)</text>
<text text-anchor="start" x="757" y="-2276.3" font-family="Times,serif" font-size="14.00"> keys = ()</text>
</g>
<!-- node4&#45;&gt;node7 -->
<g id="edge22" class="edge">
<title>node4&#45;&gt;node7</title>
<path fill="none" stroke="black" d="M953.29,-2493.16C954,-2480.65 954.8,-2466.33 955.62,-2451.76"/>
<polygon fill="black" stroke="black" points="959.12,-2451.83 956.19,-2441.65 952.13,-2451.44 959.12,-2451.83"/>
<text text-anchor="start" x="955" y="-2463.8" font-family="Times,serif" font-size="14.00">%4</text>
</g>
<!-- node5 -->
<g id="node6" class="node">
<title>node5</title>
<polygon fill="none" stroke="black" points="125,-2636 125,-2689 487,-2689 487,-2636 125,-2636"/>
<text text-anchor="start" x="133" y="-2673.8" font-family="Times,serif" font-size="14.00">Get simplify_outer_joins.public.table_f5_f6 (u39)</text>
<text text-anchor="start" x="133" y="-2658.8" font-family="Times,serif" font-size="14.00"> types = (integer?, integer?)</text>
<text text-anchor="start" x="133" y="-2643.8" font-family="Times,serif" font-size="14.00"> keys = ()</text>
</g>
<!-- node5&#45;&gt;node6 -->
<g id="edge2" class="edge">
<title>node5&#45;&gt;node6</title>
<path fill="none" stroke="black" d="M370.12,-2635.95C410.18,-2619.99 462.84,-2599.01 509.57,-2580.39"/>
<polygon fill="black" stroke="black" points="511.14,-2583.54 519.14,-2576.58 508.55,-2577.03 511.14,-2583.54"/>
<text text-anchor="start" x="464" y="-2598.8" font-family="Times,serif" font-size="14.00">%5</text>
</g>
<!-- node6&#45;&gt;node7 -->
<g id="edge16" class="edge">
<title>node6&#45;&gt;node7</title>
<path fill="none" stroke="black" d="M708.04,-2493.39C720.5,-2487.34 733.12,-2481.09 745,-2475 762.68,-2465.93 781.05,-2456.24 799.27,-2446.46"/>
<polygon fill="black" stroke="black" points="801.06,-2449.47 808.2,-2441.64 797.74,-2443.31 801.06,-2449.47"/>
<text text-anchor="start" x="768" y="-2463.8" font-family="Times,serif" font-size="14.00">%6</text>
</g>
<!-- node9 -->
<g id="node10" class="node">
<title>node9</title>
<polygon fill="none" stroke="black" points="627.5,-2151.5 627.5,-2249.5 846.5,-2249.5 846.5,-2151.5 627.5,-2151.5"/>
<text text-anchor="start" x="635.5" y="-2234.3" font-family="Times,serif" font-size="14.00">Get %6 (l3)</text>
<text text-anchor="start" x="635.5" y="-2219.3" font-family="Times,serif" font-size="14.00"> types = (integer?, integer?)</text>
<text text-anchor="start" x="635.5" y="-2204.3" font-family="Times,serif" font-size="14.00"> keys = ()</text>
<text text-anchor="start" x="635.5" y="-2189.3" font-family="Times,serif" font-size="14.00"> Distinct group=(#0, #1)</text>
<text text-anchor="start" x="635.5" y="-2174.3" font-family="Times,serif" font-size="14.00"> types = (integer?, integer?)</text>
<text text-anchor="start" x="635.5" y="-2159.3" font-family="Times,serif" font-size="14.00"> keys = ((#0, #1))</text>
</g>
<!-- node6&#45;&gt;node9 -->
<g id="edge15" class="edge">
<title>node6&#45;&gt;node9</title>
<path fill="none" stroke="black" d="M635.22,-2493.23C655.69,-2434.55 693.56,-2326.02 716.89,-2259.16"/>
<polygon fill="black" stroke="black" points="720.23,-2260.2 720.22,-2249.6 713.62,-2257.89 720.23,-2260.2"/>
<text text-anchor="start" x="646" y="-2463.8" font-family="Times,serif" font-size="14.00">%6</text>
</g>
<!-- node11 -->
<g id="node12" class="node">
<title>node11</title>
<polygon fill="none" stroke="black" points="806,-1674.5 806,-1787.5 1162,-1787.5 1162,-1674.5 806,-1674.5"/>
<text text-anchor="start" x="814" y="-1772.3" font-family="Times,serif" font-size="14.00">Join %10 %6 (= #0 #2) (= #1 #3)</text>
<text text-anchor="start" x="814" y="-1757.3" font-family="Times,serif" font-size="14.00"> implementation = Unimplemented</text>
<text text-anchor="start" x="814" y="-1742.3" font-family="Times,serif" font-size="14.00"> types = (integer?, integer?, integer?, integer?)</text>
<text text-anchor="start" x="814" y="-1727.3" font-family="Times,serif" font-size="14.00"> keys = ()</text>
<text text-anchor="start" x="814" y="-1712.3" font-family="Times,serif" font-size="14.00"> Project (#0, #1)</text>
<text text-anchor="start" x="814" y="-1697.3" font-family="Times,serif" font-size="14.00"> types = (integer?, integer?)</text>
<text text-anchor="start" x="814" y="-1682.3" font-family="Times,serif" font-size="14.00"> keys = ()</text>
</g>
<!-- node6&#45;&gt;node11 -->
<g id="edge5" class="edge">
<title>node6&#45;&gt;node11</title>
<path fill="none" stroke="black" d="M617.78,-2493.38C615.19,-2457.32 612,-2403.19 612,-2356 612,-2356 612,-2356 612,-1865 612,-1854.07 704.27,-1821.04 796.9,-1790.63"/>
<polygon fill="black" stroke="black" points="798.03,-1793.94 806.44,-1787.51 795.85,-1787.29 798.03,-1793.94"/>
<text text-anchor="start" x="612" y="-2034.8" font-family="Times,serif" font-size="14.00">%6</text>
</g>
<!-- node8 -->
<g id="node9" class="node">
<title>node8</title>
<polygon fill="none" stroke="black" points="772,-1944.5 772,-2132.5 1196,-2132.5 1196,-1944.5 772,-1944.5"/>
<text text-anchor="start" x="780" y="-2117.3" font-family="Times,serif" font-size="14.00">Get %7 (l4)</text>
<text text-anchor="start" x="780" y="-2102.3" font-family="Times,serif" font-size="14.00"> types = (integer?, integer?, integer?, integer?, integer?)</text>
<text text-anchor="start" x="780" y="-2087.3" font-family="Times,serif" font-size="14.00"> keys = ()</text>
<text text-anchor="start" x="780" y="-2072.3" font-family="Times,serif" font-size="14.00"> Project (#3, #4, #0..#2)</text>
<text text-anchor="start" x="780" y="-2057.3" font-family="Times,serif" font-size="14.00"> types = (integer?, integer?, integer?, integer?, integer?)</text>
<text text-anchor="start" x="780" y="-2042.3" font-family="Times,serif" font-size="14.00"> keys = ()</text>
<text text-anchor="start" x="780" y="-2027.3" font-family="Times,serif" font-size="14.00"> Distinct group=(#0, #1)</text>
<text text-anchor="start" x="780" y="-2012.3" font-family="Times,serif" font-size="14.00"> types = (integer?, integer?)</text>
<text text-anchor="start" x="780" y="-1997.3" font-family="Times,serif" font-size="14.00"> keys = ((#0, #1))</text>
<text text-anchor="start" x="780" y="-1982.3" font-family="Times,serif" font-size="14.00"> Negate</text>
<text text-anchor="start" x="780" y="-1967.3" font-family="Times,serif" font-size="14.00"> types = (integer?, integer?)</text>
<text text-anchor="start" x="780" y="-1952.3" font-family="Times,serif" font-size="14.00"> keys = ()</text>
</g>
<!-- node7&#45;&gt;node8 -->
<g id="edge18" class="edge">
<title>node7&#45;&gt;node8</title>
<path fill="none" stroke="black" d="M967.25,-2268.48C970.09,-2229.74 973.46,-2183.62 976.43,-2142.95"/>
<polygon fill="black" stroke="black" points="979.94,-2142.97 977.18,-2132.74 972.96,-2142.46 979.94,-2142.97"/>
<text text-anchor="start" x="975" y="-2196.8" font-family="Times,serif" font-size="14.00">%7</text>
</g>
<!-- node14 -->
<g id="node15" class="node">
<title>node14</title>
<polygon fill="none" stroke="black" points="772,-1344.5 772,-1457.5 1196,-1457.5 1196,-1344.5 772,-1344.5"/>
<text text-anchor="start" x="780" y="-1442.3" font-family="Times,serif" font-size="14.00">Let l5 =</text>
<text text-anchor="start" x="780" y="-1427.3" font-family="Times,serif" font-size="14.00"> Union %7 %13</text>
<text text-anchor="start" x="780" y="-1412.3" font-family="Times,serif" font-size="14.00"> types = (integer?, integer?, integer?, integer?, integer?)</text>
<text text-anchor="start" x="780" y="-1397.3" font-family="Times,serif" font-size="14.00"> keys = ()</text>
<text text-anchor="start" x="780" y="-1382.3" font-family="Times,serif" font-size="14.00"> Project (#3, #0..#2, #4)</text>
<text text-anchor="start" x="780" y="-1367.3" font-family="Times,serif" font-size="14.00"> types = (integer?, integer?, integer?, integer?, integer?)</text>
<text text-anchor="start" x="780" y="-1352.3" font-family="Times,serif" font-size="14.00"> keys = ()</text>
</g>
<!-- node7&#45;&gt;node14 -->
<g id="edge11" class="edge">
<title>node7&#45;&gt;node14</title>
<path fill="none" stroke="black" d="M1084.53,-2268.47C1128.92,-2231.7 1175.3,-2185.15 1205,-2133 1225.98,-2096.15 1224,-2081.9 1224,-2039.5 1224,-2039.5 1224,-2039.5 1224,-1565 1224,-1520.51 1195.43,-1487.32 1158.01,-1462.93"/>
<polygon fill="black" stroke="black" points="1159.72,-1459.87 1149.38,-1457.54 1156.01,-1465.8 1159.72,-1459.87"/>
<text text-anchor="start" x="1224" y="-1809.8" font-family="Times,serif" font-size="14.00">%7</text>
</g>
<!-- node10 -->
<g id="node11" class="node">
<title>node10</title>
<polygon fill="none" stroke="black" points="874.5,-1839.5 874.5,-1892.5 1093.5,-1892.5 1093.5,-1839.5 874.5,-1839.5"/>
<text text-anchor="start" x="882.5" y="-1877.3" font-family="Times,serif" font-size="14.00">Union %8 %9</text>
<text text-anchor="start" x="882.5" y="-1862.3" font-family="Times,serif" font-size="14.00"> types = (integer?, integer?)</text>
<text text-anchor="start" x="882.5" y="-1847.3" font-family="Times,serif" font-size="14.00"> keys = ()</text>
</g>
<!-- node8&#45;&gt;node10 -->
<g id="edge9" class="edge">
<title>node8&#45;&gt;node10</title>
<path fill="none" stroke="black" d="M984,-1944.27C984,-1929.6 984,-1915.24 984,-1902.97"/>
<polygon fill="black" stroke="black" points="987.5,-1902.76 984,-1892.76 980.5,-1902.76 987.5,-1902.76"/>
<text text-anchor="start" x="984" y="-1914.8" font-family="Times,serif" font-size="14.00">%8</text>
</g>
<!-- node9&#45;&gt;node10 -->
<g id="edge13" class="edge">
<title>node9&#45;&gt;node10</title>
<path fill="none" stroke="black" d="M722.2,-2151.4C708.25,-2095.72 695.46,-2004.02 740,-1944 769.04,-1904.87 817.99,-1885.14 864.46,-1875.36"/>
<polygon fill="black" stroke="black" points="865.2,-1878.78 874.33,-1873.42 863.85,-1871.92 865.2,-1878.78"/>
<text text-anchor="start" x="740" y="-2034.8" font-family="Times,serif" font-size="14.00">%9</text>
</g>
<!-- node10&#45;&gt;node11 -->
<g id="edge26" class="edge">
<title>node10&#45;&gt;node11</title>
<path fill="none" stroke="black" d="M984,-1839.36C984,-1827.4 984,-1812.56 984,-1797.77"/>
<polygon fill="black" stroke="black" points="987.5,-1797.57 984,-1787.57 980.5,-1797.57 987.5,-1797.57"/>
<text text-anchor="start" x="984" y="-1809.8" font-family="Times,serif" font-size="14.00">%10</text>
</g>
<!-- node13 -->
<g id="node14" class="node">
<title>node13</title>
<polygon fill="none" stroke="black" points="772,-1509.5 772,-1622.5 1196,-1622.5 1196,-1509.5 772,-1509.5"/>
<text text-anchor="start" x="780" y="-1607.3" font-family="Times,serif" font-size="14.00">Join %11 %12</text>
<text text-anchor="start" x="780" y="-1592.3" font-family="Times,serif" font-size="14.00"> implementation = Unimplemented</text>
<text text-anchor="start" x="780" y="-1577.3" font-family="Times,serif" font-size="14.00"> types = (integer?, integer?, integer?, integer?, integer?)</text>
<text text-anchor="start" x="780" y="-1562.3" font-family="Times,serif" font-size="14.00"> keys = ()</text>
<text text-anchor="start" x="780" y="-1547.3" font-family="Times,serif" font-size="14.00"> Project (#2..#4, #0, #1)</text>
<text text-anchor="start" x="780" y="-1532.3" font-family="Times,serif" font-size="14.00"> types = (integer?, integer?, integer?, integer?, integer?)</text>
<text text-anchor="start" x="780" y="-1517.3" font-family="Times,serif" font-size="14.00"> keys = ()</text>
</g>
<!-- node11&#45;&gt;node13 -->
<g id="edge23" class="edge">
<title>node11&#45;&gt;node13</title>
<path fill="none" stroke="black" d="M984,-1674.36C984,-1661.06 984,-1646.73 984,-1633.01"/>
<polygon fill="black" stroke="black" points="987.5,-1632.67 984,-1622.67 980.5,-1632.67 987.5,-1632.67"/>
<text text-anchor="start" x="984" y="-1644.8" font-family="Times,serif" font-size="14.00">%11</text>
</g>
<!-- node12 -->
<g id="node13" class="node">
<title>node12</title>
<polygon fill="none" stroke="black" points="500.5,-1704.5 500.5,-1757.5 787.5,-1757.5 787.5,-1704.5 500.5,-1704.5"/>
<text text-anchor="start" x="508.5" y="-1742.3" font-family="Times,serif" font-size="14.00">Constant (null, null, null)</text>
<text text-anchor="start" x="508.5" y="-1727.3" font-family="Times,serif" font-size="14.00"> types = (integer?, integer?, integer?)</text>
<text text-anchor="start" x="508.5" y="-1712.3" font-family="Times,serif" font-size="14.00"> keys = (())</text>
</g>
<!-- node12&#45;&gt;node13 -->
<g id="edge30" class="edge">
<title>node12&#45;&gt;node13</title>
<path fill="none" stroke="black" d="M697.5,-1704.35C740.72,-1683.63 803.31,-1653.63 858.96,-1626.94"/>
<polygon fill="black" stroke="black" points="860.69,-1630 868.19,-1622.52 857.66,-1623.69 860.69,-1630"/>
<text text-anchor="start" x="824" y="-1644.8" font-family="Times,serif" font-size="14.00">%12</text>
</g>
<!-- node13&#45;&gt;node14 -->
<g id="edge20" class="edge">
<title>node13&#45;&gt;node14</title>
<path fill="none" stroke="black" d="M984,-1509.36C984,-1496.06 984,-1481.73 984,-1468.01"/>
<polygon fill="black" stroke="black" points="987.5,-1467.67 984,-1457.67 980.5,-1467.67 987.5,-1467.67"/>
<text text-anchor="start" x="984" y="-1479.8" font-family="Times,serif" font-size="14.00">%13</text>
</g>
<!-- node14&#45;&gt;node15 -->
<g id="edge29" class="edge">
<title>node14&#45;&gt;node15</title>
<path fill="none" stroke="black" d="M975.65,-1344.44C973.68,-1331.32 971.52,-1316.96 969.37,-1302.62"/>
<polygon fill="black" stroke="black" points="972.83,-1302.09 967.88,-1292.72 965.91,-1303.13 972.83,-1302.09"/>
<text text-anchor="start" x="972" y="-1314.8" font-family="Times,serif" font-size="14.00">%14</text>
</g>
<!-- node16 -->
<g id="node17" class="node">
<title>node16</title>
<polygon fill="none" stroke="black" points="581.5,-840.5 581.5,-983.5 1210.5,-983.5 1210.5,-840.5 581.5,-840.5"/>
<text text-anchor="start" x="589.5" y="-968.3" font-family="Times,serif" font-size="14.00">Get %15 (l6)</text>
<text text-anchor="start" x="589.5" y="-953.3" font-family="Times,serif" font-size="14.00"> types = (integer?, integer?, integer?, integer?, integer?, integer?, integer?, integer?)</text>
<text text-anchor="start" x="589.5" y="-938.3" font-family="Times,serif" font-size="14.00"> keys = ()</text>
<text text-anchor="start" x="589.5" y="-923.3" font-family="Times,serif" font-size="14.00"> Distinct group=(#0, #1, #2)</text>
<text text-anchor="start" x="589.5" y="-908.3" font-family="Times,serif" font-size="14.00"> types = (integer?, integer?, integer?)</text>
<text text-anchor="start" x="589.5" y="-893.3" font-family="Times,serif" font-size="14.00"> keys = ((#0..#2))</text>
<text text-anchor="start" x="589.5" y="-878.3" font-family="Times,serif" font-size="14.00"> Negate</text>
<text text-anchor="start" x="589.5" y="-863.3" font-family="Times,serif" font-size="14.00"> types = (integer?, integer?, integer?)</text>
<text text-anchor="start" x="589.5" y="-848.3" font-family="Times,serif" font-size="14.00"> keys = ()</text>
</g>
<!-- node15&#45;&gt;node16 -->
<g id="edge12" class="edge">
<title>node15&#45;&gt;node16</title>
<path fill="none" stroke="black" d="M937.7,-1119.36C929.71,-1079.82 920.27,-1033.1 912.39,-994.12"/>
<polygon fill="black" stroke="black" points="915.73,-992.98 910.32,-983.87 908.87,-994.37 915.73,-992.98"/>
<text text-anchor="start" x="932" y="-1047.8" font-family="Times,serif" font-size="14.00">%15</text>
</g>
<!-- node22 -->
<g id="node23" class="node">
<title>node22</title>
<polygon fill="none" stroke="black" points="689.5,-240.5 689.5,-398.5 1318.5,-398.5 1318.5,-240.5 689.5,-240.5"/>
<text text-anchor="start" x="697.5" y="-383.3" font-family="Times,serif" font-size="14.00">Let l7 =</text>
<text text-anchor="start" x="697.5" y="-368.3" font-family="Times,serif" font-size="14.00"> Union %15 %21</text>
<text text-anchor="start" x="697.5" y="-353.3" font-family="Times,serif" font-size="14.00"> types = (integer?, integer?, integer?, integer?, integer?, integer?, integer?, integer?)</text>
<text text-anchor="start" x="697.5" y="-338.3" font-family="Times,serif" font-size="14.00"> keys = ()</text>
<text text-anchor="start" x="697.5" y="-323.3" font-family="Times,serif" font-size="14.00"> Project (#2, #0, #1, #3..#7)</text>
<text text-anchor="start" x="697.5" y="-308.3" font-family="Times,serif" font-size="14.00"> types = (integer?, integer?, integer?, integer?, integer?, integer?, integer?, integer?)</text>
<text text-anchor="start" x="697.5" y="-293.3" font-family="Times,serif" font-size="14.00"> keys = ()</text>
<text text-anchor="start" x="697.5" y="-278.3" font-family="Times,serif" font-size="14.00"> Filter (true &amp;&amp; (#3 = 0))</text>
<text text-anchor="start" x="697.5" y="-263.3" font-family="Times,serif" font-size="14.00"> types = (integer?, integer?, integer?, integer?, integer?, integer?, integer?, integer?)</text>
<text text-anchor="start" x="697.5" y="-248.3" font-family="Times,serif" font-size="14.00"> keys = ()</text>
</g>
<!-- node15&#45;&gt;node22 -->
<g id="edge24" class="edge">
<title>node15&#45;&gt;node22</title>
<path fill="none" stroke="black" d="M1107.39,-1119.35C1174.76,-1069.35 1239,-999.1 1239,-913 1239,-913 1239,-913 1239,-483.5 1239,-452.27 1224.82,-426.55 1203.42,-405.52"/>
<polygon fill="black" stroke="black" points="1205.62,-402.78 1195.9,-398.56 1200.86,-407.92 1205.62,-402.78"/>
<text text-anchor="start" x="1239" y="-705.8" font-family="Times,serif" font-size="14.00">%15</text>
</g>
<!-- node18 -->
<g id="node19" class="node">
<title>node18</title>
<polygon fill="none" stroke="black" points="544.5,-735.5 544.5,-788.5 831.5,-788.5 831.5,-735.5 544.5,-735.5"/>
<text text-anchor="start" x="552.5" y="-773.3" font-family="Times,serif" font-size="14.00">Union %16 %17</text>
<text text-anchor="start" x="552.5" y="-758.3" font-family="Times,serif" font-size="14.00"> types = (integer?, integer?, integer?)</text>
<text text-anchor="start" x="552.5" y="-743.3" font-family="Times,serif" font-size="14.00"> keys = ()</text>
</g>
<!-- node16&#45;&gt;node18 -->
<g id="edge4" class="edge">
<title>node16&#45;&gt;node18</title>
<path fill="none" stroke="black" d="M796.87,-840.47C774.37,-824.46 751.56,-808.23 732.68,-794.79"/>
<polygon fill="black" stroke="black" points="734.47,-791.77 724.29,-788.82 730.41,-797.47 734.47,-791.77"/>
<text text-anchor="start" x="767" y="-810.8" font-family="Times,serif" font-size="14.00">%16</text>
</g>
<!-- node17&#45;&gt;node18 -->
<g id="edge10" class="edge">
<title>node17&#45;&gt;node18</title>
<path fill="none" stroke="black" d="M549.69,-1002.46C546.17,-996.55 543.15,-990.34 541,-984 520.44,-923.39 507.87,-894.76 541,-840 553.27,-819.73 572.83,-804.53 593.72,-793.24"/>
<polygon fill="black" stroke="black" points="595.43,-796.31 602.75,-788.64 592.25,-790.07 595.43,-796.31"/>
<text text-anchor="start" x="541" y="-908.3" font-family="Times,serif" font-size="14.00">%17</text>
</g>
<!-- node18&#45;&gt;node19 -->
<g id="edge6" class="edge">
<title>node18&#45;&gt;node19</title>
<path fill="none" stroke="black" d="M688,-735.36C688,-723.4 688,-708.56 688,-693.77"/>
<polygon fill="black" stroke="black" points="691.5,-693.57 688,-683.57 684.5,-693.57 691.5,-693.57"/>
<text text-anchor="start" x="688" y="-705.8" font-family="Times,serif" font-size="14.00">%18</text>
</g>
<!-- node21 -->
<g id="node22" class="node">
<title>node21</title>
<polygon fill="none" stroke="black" points="373.5,-450.5 373.5,-518.5 1002.5,-518.5 1002.5,-450.5 373.5,-450.5"/>
<text text-anchor="start" x="381.5" y="-503.3" font-family="Times,serif" font-size="14.00">Join %19 %20</text>
<text text-anchor="start" x="381.5" y="-488.3" font-family="Times,serif" font-size="14.00"> implementation = Unimplemented</text>
<text text-anchor="start" x="381.5" y="-473.3" font-family="Times,serif" font-size="14.00"> types = (integer?, integer?, integer?, integer?, integer?, integer?, integer?, integer?)</text>
<text text-anchor="start" x="381.5" y="-458.3" font-family="Times,serif" font-size="14.00"> keys = ()</text>
</g>
<!-- node19&#45;&gt;node21 -->
<g id="edge7" class="edge">
<title>node19&#45;&gt;node21</title>
<path fill="none" stroke="black" d="M688,-570.47C688,-556.67 688,-542.08 688,-528.95"/>
<polygon fill="black" stroke="black" points="691.5,-528.79 688,-518.79 684.5,-528.79 691.5,-528.79"/>
<text text-anchor="start" x="688" y="-540.8" font-family="Times,serif" font-size="14.00">%19</text>
</g>
<!-- node20 -->
<g id="node21" class="node">
<title>node20</title>
<polygon fill="none" stroke="black" points="0,-600.5 0,-653.5 424,-653.5 424,-600.5 0,-600.5"/>
<text text-anchor="start" x="8" y="-638.3" font-family="Times,serif" font-size="14.00">Constant (null, null, null, null, null)</text>
<text text-anchor="start" x="8" y="-623.3" font-family="Times,serif" font-size="14.00"> types = (integer?, integer?, integer?, integer?, integer?)</text>
<text text-anchor="start" x="8" y="-608.3" font-family="Times,serif" font-size="14.00"> keys = (())</text>
</g>
<!-- node20&#45;&gt;node21 -->
<g id="edge19" class="edge">
<title>node20&#45;&gt;node21</title>
<path fill="none" stroke="black" d="M298.48,-600.48C373.37,-578.37 482.54,-546.14 566.27,-521.43"/>
<polygon fill="black" stroke="black" points="567.49,-524.72 576.09,-518.53 565.51,-518.01 567.49,-524.72"/>
<text text-anchor="start" x="507" y="-540.8" font-family="Times,serif" font-size="14.00">%20</text>
</g>
<!-- node21&#45;&gt;node22 -->
<g id="edge25" class="edge">
<title>node21&#45;&gt;node22</title>
<path fill="none" stroke="black" d="M752.33,-450.32C778.97,-436.58 811.17,-419.97 843.51,-403.29"/>
<polygon fill="black" stroke="black" points="845.34,-406.28 852.63,-398.58 842.13,-400.06 845.34,-406.28"/>
<text text-anchor="start" x="808" y="-420.8" font-family="Times,serif" font-size="14.00">%21</text>
</g>
<!-- node23 -->
<g id="node24" class="node">
<title>node23</title>
<polygon fill="none" stroke="black" points="671,-0.5 671,-188.5 1337,-188.5 1337,-0.5 671,-0.5"/>
<text text-anchor="start" x="679" y="-173.3" font-family="Times,serif" font-size="14.00">Get %22 (l7)</text>
<text text-anchor="start" x="679" y="-158.3" font-family="Times,serif" font-size="14.00"> types = (integer?, integer?, integer?, integer?, integer?, integer?, integer?, integer?)</text>
<text text-anchor="start" x="679" y="-143.3" font-family="Times,serif" font-size="14.00"> keys = ()</text>
<text text-anchor="start" x="679" y="-128.3" font-family="Times,serif" font-size="14.00"> Map &quot;qgm(false)&quot;</text>
<text text-anchor="start" x="679" y="-113.3" font-family="Times,serif" font-size="14.00"> types = (integer?, integer?, integer?, integer?, integer?, integer?, integer?, integer?, text)</text>
<text text-anchor="start" x="679" y="-98.3" font-family="Times,serif" font-size="14.00"> keys = ()</text>
<text text-anchor="start" x="679" y="-83.3" font-family="Times,serif" font-size="14.00"> Project (#0..#8)</text>
<text text-anchor="start" x="679" y="-68.3" font-family="Times,serif" font-size="14.00"> types = (integer?, integer?, integer?, integer?, integer?, integer?, integer?, integer?, text)</text>
<text text-anchor="start" x="679" y="-53.3" font-family="Times,serif" font-size="14.00"> keys = ()</text>
<text text-anchor="start" x="679" y="-38.3" font-family="Times,serif" font-size="14.00"> Project (#8, #0..#3, #5, #7)</text>
<text text-anchor="start" x="679" y="-23.3" font-family="Times,serif" font-size="14.00"> types = (text, integer?, integer?, integer?, integer?, integer?, integer?)</text>
<text text-anchor="start" x="679" y="-8.3" font-family="Times,serif" font-size="14.00"> keys = ()</text>
</g>
<!-- node22&#45;&gt;node23 -->
<g id="edge28" class="edge">
<title>node22&#45;&gt;node23</title>
<path fill="none" stroke="black" d="M1004,-240.19C1004,-226.76 1004,-212.62 1004,-198.66"/>
<polygon fill="black" stroke="black" points="1007.5,-198.54 1004,-188.54 1000.5,-198.54 1007.5,-198.54"/>
<text text-anchor="start" x="1004" y="-210.8" font-family="Times,serif" font-size="14.00">%22</text>
</g>
</g>
</svg>
