<?xml version="1.0" encoding="UTF-8" standalone="no"?>
<!DOCTYPE svg PUBLIC "-//W3C//DTD SVG 1.1//EN"
 "http://www.w3.org/Graphics/SVG/1.1/DTD/svg11.dtd">
<!-- Generated by graphviz version 2.43.0 (0)
 -->
<!-- Title: G Pages: 1 -->
<svg width="1173pt" height="362pt"
 viewBox="0.00 0.00 1172.50 362.00" xmlns="http://www.w3.org/2000/svg" xmlns:xlink="http://www.w3.org/1999/xlink">
<g id="graph0" class="graph" transform="scale(1 1) rotate(0) translate(4 358)">
<title>G</title>
<polygon fill="white" stroke="transparent" points="-4,4 -4,-358 1168.5,-358 1168.5,4 -4,4"/>
<!-- node0 -->
<g id="node1" class="node">
<title>node0</title>
<polygon fill="none" stroke="black" points="0,-210.5 0,-353.5 383,-353.5 383,-210.5 0,-210.5"/>
<text text-anchor="start" x="8" y="-338.3" font-family="Times,serif" font-size="14.00">Get simplify_outer_joins.public.table_f1_f2_f3 (u41)</text>
<text text-anchor="start" x="8" y="-323.3" font-family="Times,serif" font-size="14.00"> types = (integer?, integer?, integer?)</text>
<text text-anchor="start" x="8" y="-308.3" font-family="Times,serif" font-size="14.00"> keys = ()</text>
<text text-anchor="start" x="8" y="-293.3" font-family="Times,serif" font-size="14.00"> Filter !(isnull(#2))</text>
<text text-anchor="start" x="8" y="-278.3" font-family="Times,serif" font-size="14.00"> types = (integer?, integer?, integer)</text>
<text text-anchor="start" x="8" y="-263.3" font-family="Times,serif" font-size="14.00"> keys = ()</text>
<text text-anchor="start" x="8" y="-248.3" font-family="Times,serif" font-size="14.00"> ArrangeBy ()</text>
<text text-anchor="start" x="8" y="-233.3" font-family="Times,serif" font-size="14.00"> types = (integer?, integer?, integer)</text>
<text text-anchor="start" x="8" y="-218.3" font-family="Times,serif" font-size="14.00"> keys = ()</text>
</g>
<!-- node3 -->
<g id="node4" class="node">
<title>node3</title>
<polygon fill="none" stroke="black" points="307,-0.5 307,-158.5 878,-158.5 878,-0.5 307,-0.5"/>
<text text-anchor="start" x="315" y="-143.3" font-family="Times,serif" font-size="14.00">Join %0 %1 %2 (= #2 #3)</text>
<text text-anchor="start" x="315" y="-128.3" font-family="Times,serif" font-size="14.00"> implementation = Differential %2 %0.() %1.(#0)</text>
<text text-anchor="start" x="315" y="-113.3" font-family="Times,serif" font-size="14.00"> types = (integer?, integer?, integer, integer, integer?, integer, integer?)</text>
<text text-anchor="start" x="315" y="-98.3" font-family="Times,serif" font-size="14.00"> keys = ()</text>
<text text-anchor="start" x="315" y="-83.3" font-family="Times,serif" font-size="14.00"> Map &quot;qgm(false)&quot;</text>
<text text-anchor="start" x="315" y="-68.3" font-family="Times,serif" font-size="14.00"> types = (integer?, integer?, integer, integer, integer?, integer, integer?, text)</text>
<text text-anchor="start" x="315" y="-53.3" font-family="Times,serif" font-size="14.00"> keys = ()</text>
<text text-anchor="start" x="315" y="-38.3" font-family="Times,serif" font-size="14.00"> Project (#7, #2, #0, #1, #5, #4, #6)</text>
<text text-anchor="start" x="315" y="-23.3" font-family="Times,serif" font-size="14.00"> types = (text, integer, integer?, integer?, integer, integer?, integer?)</text>
<text text-anchor="start" x="315" y="-8.3" font-family="Times,serif" font-size="14.00"> keys = ()</text>
</g>
<!-- node0&#45;&gt;node3 -->
<g id="edge3" class="edge">
<title>node0&#45;&gt;node3</title>
<path fill="none" stroke="black" d="M332.6,-210.45C363.08,-195.21 395.59,-178.96 426.92,-163.29"/>
<polygon fill="black" stroke="black" points="428.78,-166.27 436.16,-158.67 425.65,-160.01 428.78,-166.27"/>
<text text-anchor="start" x="392.5" y="-180.8" font-family="Times,serif" font-size="14.00">%0</text>
</g>
<!-- node1 -->
<g id="node2" class="node">
<title>node1</title>
<polygon fill="none" stroke="black" points="401,-210.5 401,-353.5 784,-353.5 784,-210.5 401,-210.5"/>
<text text-anchor="start" x="409" y="-338.3" font-family="Times,serif" font-size="14.00">Get simplify_outer_joins.public.table_f3_f4_f5 (u43)</text>
<text text-anchor="start" x="409" y="-323.3" font-family="Times,serif" font-size="14.00"> types = (integer?, integer?, integer?)</text>
<text text-anchor="start" x="409" y="-308.3" font-family="Times,serif" font-size="14.00"> keys = ()</text>
<text text-anchor="start" x="409" y="-293.3" font-family="Times,serif" font-size="14.00"> Filter (#2 = 0), !(isnull(#0))</text>
<text text-anchor="start" x="409" y="-278.3" font-family="Times,serif" font-size="14.00"> types = (integer, integer?, integer)</text>
<text text-anchor="start" x="409" y="-263.3" font-family="Times,serif" font-size="14.00"> keys = ()</text>
<text text-anchor="start" x="409" y="-248.3" font-family="Times,serif" font-size="14.00"> ArrangeBy (#0)</text>
<text text-anchor="start" x="409" y="-233.3" font-family="Times,serif" font-size="14.00"> types = (integer, integer?, integer)</text>
<text text-anchor="start" x="409" y="-218.3" font-family="Times,serif" font-size="14.00"> keys = ()</text>
</g>
<!-- node1&#45;&gt;node3 -->
<g id="edge1" class="edge">
<title>node1&#45;&gt;node3</title>
<path fill="none" stroke="black" d="M592.5,-210.31C592.5,-196.88 592.5,-182.68 592.5,-168.79"/>
<polygon fill="black" stroke="black" points="596,-168.74 592.5,-158.74 589,-168.74 596,-168.74"/>
<text text-anchor="start" x="592.5" y="-180.8" font-family="Times,serif" font-size="14.00">%1</text>
</g>
<!-- node2 -->
<g id="node3" class="node">
<title>node2</title>
<polygon fill="none" stroke="black" points="802.5,-210.5 802.5,-353.5 1164.5,-353.5 1164.5,-210.5 802.5,-210.5"/>
<text text-anchor="start" x="810.5" y="-338.3" font-family="Times,serif" font-size="14.00">Get simplify_outer_joins.public.table_f5_f6 (u39)</text>
<text text-anchor="start" x="810.5" y="-323.3" font-family="Times,serif" font-size="14.00"> types = (integer?, integer?)</text>
<text text-anchor="start" x="810.5" y="-308.3" font-family="Times,serif" font-size="14.00"> keys = ()</text>
<text text-anchor="start" x="810.5" y="-293.3" font-family="Times,serif" font-size="14.00"> Filter (#0 = 0)</text>
<text text-anchor="start" x="810.5" y="-278.3" font-family="Times,serif" font-size="14.00"> types = (integer, integer?)</text>
<text text-anchor="start" x="810.5" y="-263.3" font-family="Times,serif" font-size="14.00"> keys = ()</text>
<text text-anchor="start" x="810.5" y="-248.3" font-family="Times,serif" font-size="14.00"> Project (#1)</text>
<text text-anchor="start" x="810.5" y="-233.3" font-family="Times,serif" font-size="14.00"> types = (integer?)</text>
<text text-anchor="start" x="810.5" y="-218.3" font-family="Times,serif" font-size="14.00"> keys = ()</text>
</g>
<!-- node2&#45;&gt;node3 -->
<g id="edge2" class="edge">
<title>node2&#45;&gt;node3</title>
<path fill="none" stroke="black" d="M845.92,-210.45C816.19,-195.21 784.5,-178.96 753.95,-163.29"/>
<polygon fill="black" stroke="black" points="755.44,-160.12 744.94,-158.67 752.24,-166.35 755.44,-160.12"/>
<text text-anchor="start" x="800.5" y="-180.8" font-family="Times,serif" font-size="14.00">%2</text>
</g>
</g>
</svg>
