<?xml version="1.0" encoding="UTF-8" standalone="no"?>
<!DOCTYPE svg PUBLIC "-//W3C//DTD SVG 1.1//EN"
 "http://www.w3.org/Graphics/SVG/1.1/DTD/svg11.dtd">
<!-- Generated by graphviz version 2.43.0 (0)
 -->
<!-- Title: G Pages: 1 -->
<svg width="319pt" height="152pt"
 viewBox="0.00 0.00 319.00 152.00" xmlns="http://www.w3.org/2000/svg" xmlns:xlink="http://www.w3.org/1999/xlink">
<g id="graph0" class="graph" transform="scale(1 1) rotate(0) translate(4 148)">
<title>G</title>
<polygon fill="white" stroke="transparent" points="-4,4 -4,-148 315,-148 315,4 -4,4"/>
<!-- node0 -->
<g id="node1" class="node">
<title>node0</title>
<polygon fill="none" stroke="black" points="3,-105.5 3,-143.5 104,-143.5 104,-105.5 3,-105.5"/>
<text text-anchor="start" x="11" y="-128.3" font-family="Times,serif" font-size="14.00">Let l0 =</text>
<text text-anchor="start" x="11" y="-113.3" font-family="Times,serif" font-size="14.00"> Constant ()</text>
</g>
<!-- node2 -->
<g id="node3" class="node">
<title>node2</title>
<polygon fill="none" stroke="black" points="0,-0.5 0,-53.5 269,-53.5 269,-0.5 0,-0.5"/>
<text text-anchor="start" x="8" y="-38.3" font-family="Times,serif" font-size="14.00">Join %0 %1</text>
<text text-anchor="start" x="8" y="-23.3" font-family="Times,serif" font-size="14.00"> implementation = Unimplemented</text>
<text text-anchor="start" x="8" y="-8.3" font-family="Times,serif" font-size="14.00"> Filter (coalesce(#0, #1) &gt; 0)</text>
</g>
<!-- node0&#45;&gt;node2 -->
<g id="edge1" class="edge">
<title>node0&#45;&gt;node2</title>
<path fill="none" stroke="black" d="M69.12,-105.09C79.59,-92.74 93.69,-76.12 106.11,-61.47"/>
<polygon fill="black" stroke="black" points="109.01,-63.47 112.81,-53.58 103.67,-58.94 109.01,-63.47"/>
<text text-anchor="start" x="96.5" y="-75.8" font-family="Times,serif" font-size="14.00">%0</text>
</g>
<!-- node1 -->
<g id="node2" class="node">
<title>node1</title>
<polygon fill="none" stroke="black" points="122,-106.5 122,-142.5 311,-142.5 311,-106.5 122,-106.5"/>
<text text-anchor="start" x="130" y="-120.8" font-family="Times,serif" font-size="14.00">Get types.public.u (u33)</text>
</g>
<!-- node1&#45;&gt;node2 -->
<g id="edge2" class="edge">
<title>node1&#45;&gt;node2</title>
<path fill="none" stroke="black" d="M201.84,-106.43C191.09,-93.91 176.15,-76.51 163.08,-61.28"/>
<polygon fill="black" stroke="black" points="165.61,-58.86 156.44,-53.55 160.3,-63.42 165.61,-58.86"/>
<text text-anchor="start" x="182.5" y="-75.8" font-family="Times,serif" font-size="14.00">%1</text>
</g>
</g>
</svg>
