<?xml version="1.0" encoding="UTF-8" standalone="no"?>
<!DOCTYPE svg PUBLIC "-//W3C//DTD SVG 1.1//EN"
 "http://www.w3.org/Graphics/SVG/1.1/DTD/svg11.dtd">
<!-- Generated by graphviz version 2.43.0 (0)
 -->
<!-- Title: G Pages: 1 -->
<svg width="340pt" height="242pt"
 viewBox="0.00 0.00 339.50 242.00" xmlns="http://www.w3.org/2000/svg" xmlns:xlink="http://www.w3.org/1999/xlink">
<g id="graph0" class="graph" transform="scale(1 1) rotate(0) translate(4 238)">
<title>G</title>
<polygon fill="white" stroke="transparent" points="-4,4 -4,-238 335.5,-238 335.5,4 -4,4"/>
<!-- node0 -->
<g id="node1" class="node">
<title>node0</title>
<polygon fill="none" stroke="black" points="0,-165.5 0,-233.5 101,-233.5 101,-165.5 0,-165.5"/>
<text text-anchor="start" x="8" y="-218.3" font-family="Times,serif" font-size="14.00">Let l0 =</text>
<text text-anchor="start" x="8" y="-203.3" font-family="Times,serif" font-size="14.00"> Constant ()</text>
<text text-anchor="start" x="8" y="-188.3" font-family="Times,serif" font-size="14.00"> types = ()</text>
<text text-anchor="start" x="8" y="-173.3" font-family="Times,serif" font-size="14.00"> keys = (())</text>
</g>
<!-- node2 -->
<g id="node3" class="node">
<title>node2</title>
<polygon fill="none" stroke="black" points="3,-0.5 3,-113.5 272,-113.5 272,-0.5 3,-0.5"/>
<text text-anchor="start" x="11" y="-98.3" font-family="Times,serif" font-size="14.00">Join %0 %1</text>
<text text-anchor="start" x="11" y="-83.3" font-family="Times,serif" font-size="14.00"> implementation = Unimplemented</text>
<text text-anchor="start" x="11" y="-68.3" font-family="Times,serif" font-size="14.00"> types = (integer?, integer)</text>
<text text-anchor="start" x="11" y="-53.3" font-family="Times,serif" font-size="14.00"> keys = ()</text>
<text text-anchor="start" x="11" y="-38.3" font-family="Times,serif" font-size="14.00"> Filter (coalesce(#0, #1) &gt; 0)</text>
<text text-anchor="start" x="11" y="-23.3" font-family="Times,serif" font-size="14.00"> types = (integer?, integer)</text>
<text text-anchor="start" x="11" y="-8.3" font-family="Times,serif" font-size="14.00"> keys = ()</text>
</g>
<!-- node0&#45;&gt;node2 -->
<g id="edge1" class="edge">
<title>node0&#45;&gt;node2</title>
<path fill="none" stroke="black" d="M71.12,-165.2C79.1,-152.31 88.52,-137.11 97.71,-122.26"/>
<polygon fill="black" stroke="black" points="100.8,-123.92 103.09,-113.58 94.85,-120.24 100.8,-123.92"/>
<text text-anchor="start" x="91.5" y="-135.8" font-family="Times,serif" font-size="14.00">%0</text>
</g>
<!-- node1 -->
<g id="node2" class="node">
<title>node1</title>
<polygon fill="none" stroke="black" points="119.5,-173 119.5,-226 331.5,-226 331.5,-173 119.5,-173"/>
<text text-anchor="start" x="127.5" y="-210.8" font-family="Times,serif" font-size="14.00">Get types.public.u (u33)</text>
<text text-anchor="start" x="127.5" y="-195.8" font-family="Times,serif" font-size="14.00"> types = (integer?, integer)</text>
<text text-anchor="start" x="127.5" y="-180.8" font-family="Times,serif" font-size="14.00"> keys = ()</text>
</g>
<!-- node1&#45;&gt;node2 -->
<g id="edge2" class="edge">
<title>node1&#45;&gt;node2</title>
<path fill="none" stroke="black" d="M209.36,-172.73C200.45,-158.5 188.95,-140.14 177.77,-122.29"/>
<polygon fill="black" stroke="black" points="180.59,-120.21 172.32,-113.59 174.66,-123.92 180.59,-120.21"/>
<text text-anchor="start" x="191.5" y="-135.8" font-family="Times,serif" font-size="14.00">%1</text>
</g>
</g>
</svg>
