<?xml version="1.0" encoding="UTF-8" standalone="no"?>
<!DOCTYPE svg PUBLIC "-//W3C//DTD SVG 1.1//EN"
 "http://www.w3.org/Graphics/SVG/1.1/DTD/svg11.dtd">
<!-- Generated by graphviz version 2.43.0 (0)
 -->
<!-- Title: G Pages: 1 -->
<svg width="1088pt" height="969pt"
 viewBox="0.00 0.00 1088.00 969.00" xmlns="http://www.w3.org/2000/svg" xmlns:xlink="http://www.w3.org/1999/xlink">
<g id="graph0" class="graph" transform="scale(1 1) rotate(0) translate(4 965)">
<title>G</title>
<polygon fill="white" stroke="transparent" points="-4,4 -4,-965 1084,-965 1084,4 -4,4"/>
<!-- node0 -->
<g id="node1" class="node">
<title>node0</title>
<polygon fill="none" stroke="black" points="326.5,-922.5 326.5,-960.5 427.5,-960.5 427.5,-922.5 326.5,-922.5"/>
<text text-anchor="start" x="334.5" y="-945.3" font-family="Times,serif" font-size="14.00">Let l0 =</text>
<text text-anchor="start" x="334.5" y="-930.3" font-family="Times,serif" font-size="14.00"> Constant ()</text>
</g>
<!-- node2 -->
<g id="node3" class="node">
<title>node2</title>
<polygon fill="none" stroke="black" points="98.5,-825 98.5,-863 367.5,-863 367.5,-825 98.5,-825"/>
<text text-anchor="start" x="106.5" y="-847.8" font-family="Times,serif" font-size="14.00">Join %0 %1</text>
<text text-anchor="start" x="106.5" y="-832.8" font-family="Times,serif" font-size="14.00"> implementation = Unimplemented</text>
</g>
<!-- node0&#45;&gt;node2 -->
<g id="edge3" class="edge">
<title>node0&#45;&gt;node2</title>
<path fill="none" stroke="black" d="M349.58,-922.31C326.66,-907.11 293.8,-885.32 268.81,-868.75"/>
<polygon fill="black" stroke="black" points="270.59,-865.73 260.32,-863.12 266.72,-871.56 270.59,-865.73"/>
<text text-anchor="start" x="318" y="-892.8" font-family="Times,serif" font-size="14.00">%0</text>
</g>
<!-- node4 -->
<g id="node5" class="node">
<title>node4</title>
<polygon fill="none" stroke="black" points="385.5,-825 385.5,-863 654.5,-863 654.5,-825 385.5,-825"/>
<text text-anchor="start" x="393.5" y="-847.8" font-family="Times,serif" font-size="14.00">Join %0 %3</text>
<text text-anchor="start" x="393.5" y="-832.8" font-family="Times,serif" font-size="14.00"> implementation = Unimplemented</text>
</g>
<!-- node0&#45;&gt;node4 -->
<g id="edge17" class="edge">
<title>node0&#45;&gt;node4</title>
<path fill="none" stroke="black" d="M399.1,-922.35C411.91,-912.12 428.52,-899.37 444,-889 454.7,-881.84 466.6,-874.61 477.76,-868.15"/>
<polygon fill="black" stroke="black" points="479.57,-871.15 486.51,-863.14 476.09,-865.07 479.57,-871.15"/>
<text text-anchor="start" x="444" y="-892.8" font-family="Times,serif" font-size="14.00">%0</text>
</g>
<!-- node7 -->
<g id="node8" class="node">
<title>node7</title>
<polygon fill="none" stroke="black" points="672.5,-817.5 672.5,-870.5 941.5,-870.5 941.5,-817.5 672.5,-817.5"/>
<text text-anchor="start" x="680.5" y="-855.3" font-family="Times,serif" font-size="14.00">Let l2 =</text>
<text text-anchor="start" x="680.5" y="-840.3" font-family="Times,serif" font-size="14.00"> Join %0 %6</text>
<text text-anchor="start" x="680.5" y="-825.3" font-family="Times,serif" font-size="14.00"> implementation = Unimplemented</text>
</g>
<!-- node0&#45;&gt;node7 -->
<g id="edge13" class="edge">
<title>node0&#45;&gt;node7</title>
<path fill="none" stroke="black" d="M422.87,-922.5C452.92,-911.34 493.29,-897.56 530,-889 585.55,-876.05 602.9,-879.92 662.38,-871.18"/>
<polygon fill="black" stroke="black" points="662.95,-874.64 672.3,-869.67 661.89,-867.72 662.95,-874.64"/>
<text text-anchor="start" x="530" y="-892.8" font-family="Times,serif" font-size="14.00">%0</text>
</g>
<!-- node1 -->
<g id="node2" class="node">
<title>node1</title>
<polygon fill="none" stroke="black" points="0,-923.5 0,-959.5 308,-959.5 308,-923.5 0,-923.5"/>
<text text-anchor="start" x="8" y="-937.8" font-family="Times,serif" font-size="14.00">Get simplify_outer_joins.public.t1 (u101)</text>
</g>
<!-- node1&#45;&gt;node2 -->
<g id="edge4" class="edge">
<title>node1&#45;&gt;node2</title>
<path fill="none" stroke="black" d="M168.12,-923.43C180.18,-908.86 197.69,-887.68 211.49,-871"/>
<polygon fill="black" stroke="black" points="214.25,-873.16 217.92,-863.23 208.85,-868.7 214.25,-873.16"/>
<text text-anchor="start" x="196" y="-892.8" font-family="Times,serif" font-size="14.00">%1</text>
</g>
<!-- node5 -->
<g id="node6" class="node">
<title>node5</title>
<polygon fill="none" stroke="black" points="385.5,-667.5 385.5,-765.5 654.5,-765.5 654.5,-667.5 385.5,-667.5"/>
<text text-anchor="start" x="393.5" y="-750.3" font-family="Times,serif" font-size="14.00">Let l1 =</text>
<text text-anchor="start" x="393.5" y="-735.3" font-family="Times,serif" font-size="14.00"> Join %2 %4</text>
<text text-anchor="start" x="393.5" y="-720.3" font-family="Times,serif" font-size="14.00"> implementation = Unimplemented</text>
<text text-anchor="start" x="393.5" y="-705.3" font-family="Times,serif" font-size="14.00"> Project (#0..=#3)</text>
<text text-anchor="start" x="393.5" y="-690.3" font-family="Times,serif" font-size="14.00"> Filter (true &amp;&amp; (#0 = #2))</text>
<text text-anchor="start" x="393.5" y="-675.3" font-family="Times,serif" font-size="14.00"> Project (#0..=#3)</text>
</g>
<!-- node2&#45;&gt;node5 -->
<g id="edge1" class="edge">
<title>node2&#45;&gt;node5</title>
<path fill="none" stroke="black" d="M274.43,-824.89C307.61,-810.37 355.89,-789.26 400.88,-769.59"/>
<polygon fill="black" stroke="black" points="402.37,-772.76 410.13,-765.54 399.56,-766.34 402.37,-772.76"/>
<text text-anchor="start" x="367" y="-787.8" font-family="Times,serif" font-size="14.00">%2</text>
</g>
<!-- node3 -->
<g id="node4" class="node">
<title>node3</title>
<polygon fill="none" stroke="black" points="446,-923.5 446,-959.5 754,-959.5 754,-923.5 446,-923.5"/>
<text text-anchor="start" x="454" y="-937.8" font-family="Times,serif" font-size="14.00">Get simplify_outer_joins.public.t1 (u101)</text>
</g>
<!-- node3&#45;&gt;node4 -->
<g id="edge8" class="edge">
<title>node3&#45;&gt;node4</title>
<path fill="none" stroke="black" d="M585.7,-923.43C573.49,-908.86 555.75,-887.68 541.78,-871"/>
<polygon fill="black" stroke="black" points="544.37,-868.64 535.27,-863.23 539.01,-873.14 544.37,-868.64"/>
<text text-anchor="start" x="567" y="-892.8" font-family="Times,serif" font-size="14.00">%3</text>
</g>
<!-- node4&#45;&gt;node5 -->
<g id="edge9" class="edge">
<title>node4&#45;&gt;node5</title>
<path fill="none" stroke="black" d="M520,-824.75C520,-811.79 520,-793.62 520,-775.91"/>
<polygon fill="black" stroke="black" points="523.5,-775.58 520,-765.58 516.5,-775.58 523.5,-775.58"/>
<text text-anchor="start" x="520" y="-787.8" font-family="Times,serif" font-size="14.00">%4</text>
</g>
<!-- node8 -->
<g id="node9" class="node">
<title>node8</title>
<polygon fill="none" stroke="black" points="583.5,-532.5 583.5,-615.5 852.5,-615.5 852.5,-532.5 583.5,-532.5"/>
<text text-anchor="start" x="591.5" y="-600.3" font-family="Times,serif" font-size="14.00">Let l3 =</text>
<text text-anchor="start" x="591.5" y="-585.3" font-family="Times,serif" font-size="14.00"> Join %5 %7</text>
<text text-anchor="start" x="591.5" y="-570.3" font-family="Times,serif" font-size="14.00"> implementation = Unimplemented</text>
<text text-anchor="start" x="591.5" y="-555.3" font-family="Times,serif" font-size="14.00"> Project (#0..=#5)</text>
<text text-anchor="start" x="591.5" y="-540.3" font-family="Times,serif" font-size="14.00"> Filter true</text>
</g>
<!-- node5&#45;&gt;node8 -->
<g id="edge10" class="edge">
<title>node5&#45;&gt;node8</title>
<path fill="none" stroke="black" d="M587.86,-667.34C608.72,-652.54 631.63,-636.28 652.34,-621.59"/>
<polygon fill="black" stroke="black" points="654.64,-624.25 660.77,-615.61 650.58,-618.55 654.64,-624.25"/>
<text text-anchor="start" x="630" y="-637.8" font-family="Times,serif" font-size="14.00">%5</text>
</g>
<!-- node10 -->
<g id="node11" class="node">
<title>node10</title>
<polygon fill="none" stroke="black" points="427.5,-475.5 427.5,-513.5 684.5,-513.5 684.5,-475.5 427.5,-475.5"/>
<text text-anchor="start" x="435.5" y="-498.3" font-family="Times,serif" font-size="14.00">Get %5 (l1)</text>
<text text-anchor="start" x="435.5" y="-483.3" font-family="Times,serif" font-size="14.00"> Distinct group=(#0, #1, #2, #3)</text>
</g>
<!-- node5&#45;&gt;node10 -->
<g id="edge20" class="edge">
<title>node5&#45;&gt;node10</title>
<path fill="none" stroke="black" d="M527.86,-667.49C535.07,-623.42 545.51,-559.63 551.43,-523.41"/>
<polygon fill="black" stroke="black" points="554.89,-523.96 553.05,-513.53 547.98,-522.83 554.89,-523.96"/>
<text text-anchor="start" x="532" y="-637.8" font-family="Times,serif" font-size="14.00">%5</text>
</g>
<!-- node12 -->
<g id="node13" class="node">
<title>node12</title>
<polygon fill="none" stroke="black" points="325.5,-210.5 325.5,-263.5 744.5,-263.5 744.5,-210.5 325.5,-210.5"/>
<text text-anchor="start" x="333.5" y="-248.3" font-family="Times,serif" font-size="14.00">Join %11 %5 (= #0 #4) (= #1 #5) (= #2 #6) (= #3 #7)</text>
<text text-anchor="start" x="333.5" y="-233.3" font-family="Times,serif" font-size="14.00"> implementation = Unimplemented</text>
<text text-anchor="start" x="333.5" y="-218.3" font-family="Times,serif" font-size="14.00"> Project (#0..=#3)</text>
</g>
<!-- node5&#45;&gt;node12 -->
<g id="edge19" class="edge">
<title>node5&#45;&gt;node12</title>
<path fill="none" stroke="black" d="M458.43,-667.42C434.17,-642.88 412,-610.69 412,-575 412,-575 412,-575 412,-332.5 412,-304.44 432.38,-283.56 456.55,-268.67"/>
<polygon fill="black" stroke="black" points="458.33,-271.69 465.23,-263.65 454.83,-265.63 458.33,-271.69"/>
<text text-anchor="start" x="412" y="-426.3" font-family="Times,serif" font-size="14.00">%5</text>
</g>
<!-- node6 -->
<g id="node7" class="node">
<title>node6</title>
<polygon fill="none" stroke="black" points="772,-923.5 772,-959.5 1080,-959.5 1080,-923.5 772,-923.5"/>
<text text-anchor="start" x="780" y="-937.8" font-family="Times,serif" font-size="14.00">Get simplify_outer_joins.public.t2 (u103)</text>
</g>
<!-- node6&#45;&gt;node7 -->
<g id="edge6" class="edge">
<title>node6&#45;&gt;node7</title>
<path fill="none" stroke="black" d="M904.73,-923.43C888.63,-910.51 866.05,-892.39 846.65,-876.82"/>
<polygon fill="black" stroke="black" points="848.83,-874.08 838.84,-870.55 844.45,-879.54 848.83,-874.08"/>
<text text-anchor="start" x="877" y="-892.8" font-family="Times,serif" font-size="14.00">%6</text>
</g>
<!-- node7&#45;&gt;node8 -->
<g id="edge15" class="edge">
<title>node7&#45;&gt;node8</title>
<path fill="none" stroke="black" d="M798.47,-817.3C783.82,-773.21 753.67,-682.4 734.72,-625.34"/>
<polygon fill="black" stroke="black" points="738.02,-624.17 731.54,-615.79 731.37,-626.38 738.02,-624.17"/>
<text text-anchor="start" x="781" y="-712.8" font-family="Times,serif" font-size="14.00">%7</text>
</g>
<!-- node9 -->
<g id="node10" class="node">
<title>node9</title>
<polygon fill="none" stroke="black" points="550.5,-403.5 550.5,-456.5 807.5,-456.5 807.5,-403.5 550.5,-403.5"/>
<text text-anchor="start" x="558.5" y="-441.3" font-family="Times,serif" font-size="14.00">Get %8 (l3)</text>
<text text-anchor="start" x="558.5" y="-426.3" font-family="Times,serif" font-size="14.00"> Distinct group=(#0, #1, #2, #3)</text>
<text text-anchor="start" x="558.5" y="-411.3" font-family="Times,serif" font-size="14.00"> Negate</text>
</g>
<!-- node8&#45;&gt;node9 -->
<g id="edge18" class="edge">
<title>node8&#45;&gt;node9</title>
<path fill="none" stroke="black" d="M706.82,-532.31C701.09,-511.42 694.16,-486.21 688.66,-466.17"/>
<polygon fill="black" stroke="black" points="692.03,-465.22 686,-456.5 685.28,-467.07 692.03,-465.22"/>
<text text-anchor="start" x="700" y="-490.8" font-family="Times,serif" font-size="14.00">%8</text>
</g>
<!-- node15 -->
<g id="node16" class="node">
<title>node15</title>
<polygon fill="none" stroke="black" points="349.5,-0.5 349.5,-68.5 1020.5,-68.5 1020.5,-0.5 349.5,-0.5"/>
<text text-anchor="start" x="357.5" y="-53.3" font-family="Times,serif" font-size="14.00">Union %8 %14</text>
<text text-anchor="start" x="357.5" y="-38.3" font-family="Times,serif" font-size="14.00"> Project (#0..=#5)</text>
<text text-anchor="start" x="357.5" y="-23.3" font-family="Times,serif" font-size="14.00"> Filter (((((#0 = #2) &amp;&amp; (#3 = #0)) &amp;&amp; (#2 = #1)) &amp;&amp; (#2 &lt; #1)) &amp;&amp; (#3 = i32tof64(5)))</text>
<text text-anchor="start" x="357.5" y="-8.3" font-family="Times,serif" font-size="14.00"> Project (#0..=#5)</text>
</g>
<!-- node8&#45;&gt;node15 -->
<g id="edge2" class="edge">
<title>node8&#45;&gt;node15</title>
<path fill="none" stroke="black" d="M777.35,-532.48C806.73,-507.25 836,-471.87 836,-431 836,-431 836,-431 836,-138.5 836,-110.26 817.75,-89.2 793.93,-73.75"/>
<polygon fill="black" stroke="black" points="795.66,-70.71 785.3,-68.52 792.04,-76.69 795.66,-70.71"/>
<text text-anchor="start" x="836" y="-285.8" font-family="Times,serif" font-size="14.00">%8</text>
</g>
<!-- node11 -->
<g id="node12" class="node">
<title>node11</title>
<polygon fill="none" stroke="black" points="474,-315.5 474,-351.5 596,-351.5 596,-315.5 474,-315.5"/>
<text text-anchor="start" x="482" y="-329.8" font-family="Times,serif" font-size="14.00">Union %9 %10</text>
</g>
<!-- node9&#45;&gt;node11 -->
<g id="edge14" class="edge">
<title>node9&#45;&gt;node11</title>
<path fill="none" stroke="black" d="M640.03,-403.43C618.07,-389.01 590.87,-371.17 569.66,-357.24"/>
<polygon fill="black" stroke="black" points="571.54,-354.29 561.26,-351.73 567.7,-360.14 571.54,-354.29"/>
<text text-anchor="start" x="611" y="-373.8" font-family="Times,serif" font-size="14.00">%9</text>
</g>
<!-- node10&#45;&gt;node11 -->
<g id="edge7" class="edge">
<title>node10&#45;&gt;node11</title>
<path fill="none" stroke="black" d="M525.23,-475.49C519.08,-470.35 513.46,-464.16 510,-457 495.01,-425.98 508.22,-386.33 520.42,-360.68"/>
<polygon fill="black" stroke="black" points="523.63,-362.09 524.99,-351.59 517.37,-358.95 523.63,-362.09"/>
<text text-anchor="start" x="510" y="-426.3" font-family="Times,serif" font-size="14.00">%10</text>
</g>
<!-- node11&#45;&gt;node12 -->
<g id="edge5" class="edge">
<title>node11&#45;&gt;node12</title>
<path fill="none" stroke="black" d="M535,-315.17C535,-303.7 535,-288.25 535,-274.18"/>
<polygon fill="black" stroke="black" points="538.5,-273.78 535,-263.78 531.5,-273.78 538.5,-273.78"/>
<text text-anchor="start" x="535" y="-285.8" font-family="Times,serif" font-size="14.00">%11</text>
</g>
<!-- node14 -->
<g id="node15" class="node">
<title>node14</title>
<polygon fill="none" stroke="black" points="400.5,-120.5 400.5,-158.5 669.5,-158.5 669.5,-120.5 400.5,-120.5"/>
<text text-anchor="start" x="408.5" y="-143.3" font-family="Times,serif" font-size="14.00">Join %12 %13</text>
<text text-anchor="start" x="408.5" y="-128.3" font-family="Times,serif" font-size="14.00"> implementation = Unimplemented</text>
</g>
<!-- node12&#45;&gt;node14 -->
<g id="edge16" class="edge">
<title>node12&#45;&gt;node14</title>
<path fill="none" stroke="black" d="M535,-210.41C535,-197.63 535,-182.13 535,-168.98"/>
<polygon fill="black" stroke="black" points="538.5,-168.6 535,-158.6 531.5,-168.6 538.5,-168.6"/>
<text text-anchor="start" x="535" y="-180.8" font-family="Times,serif" font-size="14.00">%12</text>
</g>
<!-- node13 -->
<g id="node14" class="node">
<title>node13</title>
<polygon fill="none" stroke="black" points="148.5,-219 148.5,-255 307.5,-255 307.5,-219 148.5,-219"/>
<text text-anchor="start" x="156.5" y="-233.3" font-family="Times,serif" font-size="14.00">Constant (null, null)</text>
</g>
<!-- node13&#45;&gt;node14 -->
<g id="edge11" class="edge">
<title>node13&#45;&gt;node14</title>
<path fill="none" stroke="black" d="M282.89,-218.93C334.46,-202.88 411.8,-178.83 467.2,-161.59"/>
<polygon fill="black" stroke="black" points="468.43,-164.87 476.94,-158.56 466.35,-158.19 468.43,-164.87"/>
<text text-anchor="start" x="408" y="-180.8" font-family="Times,serif" font-size="14.00">%13</text>
</g>
<!-- node14&#45;&gt;node15 -->
<g id="edge12" class="edge">
<title>node14&#45;&gt;node15</title>
<path fill="none" stroke="black" d="M561.47,-120.32C579.97,-107.62 605.38,-90.17 628.34,-74.4"/>
<polygon fill="black" stroke="black" points="630.41,-77.23 636.68,-68.68 626.45,-71.46 630.41,-77.23"/>
<text text-anchor="start" x="610" y="-90.8" font-family="Times,serif" font-size="14.00">%14</text>
</g>
</g>
</svg>
