<?xml version="1.0" encoding="UTF-8" standalone="no"?>
<!DOCTYPE svg PUBLIC "-//W3C//DTD SVG 1.1//EN"
 "http://www.w3.org/Graphics/SVG/1.1/DTD/svg11.dtd">
<!-- Generated by graphviz version 2.43.0 (0)
 -->
<!-- Title: G Pages: 1 -->
<svg width="968pt" height="182pt"
 viewBox="0.00 0.00 968.00 182.00" xmlns="http://www.w3.org/2000/svg" xmlns:xlink="http://www.w3.org/1999/xlink">
<g id="graph0" class="graph" transform="scale(1 1) rotate(0) translate(4 178)">
<title>G</title>
<polygon fill="white" stroke="transparent" points="-4,4 -4,-178 964,-178 964,4 -4,4"/>
<!-- node0 -->
<g id="node1" class="node">
<title>node0</title>
<polygon fill="none" stroke="black" points="0,-113 0,-166 308,-166 308,-113 0,-113"/>
<text text-anchor="start" x="8" y="-150.8" font-family="Times,serif" font-size="14.00">Get simplify_outer_joins.public.t1 (u101)</text>
<text text-anchor="start" x="8" y="-135.8" font-family="Times,serif" font-size="14.00"> Filter (#0 = 5), (#1 = 5), (5 &lt; #1)</text>
<text text-anchor="start" x="8" y="-120.8" font-family="Times,serif" font-size="14.00"> ArrangeBy ()</text>
</g>
<!-- node3 -->
<g id="node4" class="node">
<title>node3</title>
<polygon fill="none" stroke="black" points="306.5,-0.5 306.5,-53.5 653.5,-53.5 653.5,-0.5 306.5,-0.5"/>
<text text-anchor="start" x="314.5" y="-38.3" font-family="Times,serif" font-size="14.00">Join %0 %1 %2</text>
<text text-anchor="start" x="314.5" y="-23.3" font-family="Times,serif" font-size="14.00"> implementation = Differential %2 %0.() %1.()</text>
<text text-anchor="start" x="314.5" y="-8.3" font-family="Times,serif" font-size="14.00"> Project (#0, #1, #0, #2..=#4)</text>
</g>
<!-- node0&#45;&gt;node3 -->
<g id="edge1" class="edge">
<title>node0&#45;&gt;node3</title>
<path fill="none" stroke="black" d="M229.61,-112.87C279,-96.13 343.59,-74.24 394.79,-56.88"/>
<polygon fill="black" stroke="black" points="396.17,-60.11 404.52,-53.59 393.92,-53.48 396.17,-60.11"/>
<text text-anchor="start" x="347" y="-75.8" font-family="Times,serif" font-size="14.00">%0</text>
</g>
<!-- node1 -->
<g id="node2" class="node">
<title>node1</title>
<polygon fill="none" stroke="black" points="326,-105.5 326,-173.5 634,-173.5 634,-105.5 326,-105.5"/>
<text text-anchor="start" x="334" y="-158.3" font-family="Times,serif" font-size="14.00">Get simplify_outer_joins.public.t1 (u101)</text>
<text text-anchor="start" x="334" y="-143.3" font-family="Times,serif" font-size="14.00"> Filter (#0 = 5), (#1 = 5)</text>
<text text-anchor="start" x="334" y="-128.3" font-family="Times,serif" font-size="14.00"> Project (#1)</text>
<text text-anchor="start" x="334" y="-113.3" font-family="Times,serif" font-size="14.00"> ArrangeBy ()</text>
</g>
<!-- node1&#45;&gt;node3 -->
<g id="edge2" class="edge">
<title>node1&#45;&gt;node3</title>
<path fill="none" stroke="black" d="M480,-105.35C480,-92.3 480,-77.3 480,-63.99"/>
<polygon fill="black" stroke="black" points="483.5,-63.75 480,-53.75 476.5,-63.75 483.5,-63.75"/>
<text text-anchor="start" x="480" y="-75.8" font-family="Times,serif" font-size="14.00">%1</text>
</g>
<!-- node2 -->
<g id="node3" class="node">
<title>node2</title>
<polygon fill="none" stroke="black" points="652,-121.5 652,-157.5 960,-157.5 960,-121.5 652,-121.5"/>
<text text-anchor="start" x="660" y="-135.8" font-family="Times,serif" font-size="14.00">Get simplify_outer_joins.public.t2 (u103)</text>
</g>
<!-- node2&#45;&gt;node3 -->
<g id="edge3" class="edge">
<title>node2&#45;&gt;node3</title>
<path fill="none" stroke="black" d="M755.78,-121.48C705,-104.27 625.59,-77.35 564.99,-56.81"/>
<polygon fill="black" stroke="black" points="566.03,-53.47 555.44,-53.57 563.79,-60.1 566.03,-53.47"/>
<text text-anchor="start" x="653" y="-75.8" font-family="Times,serif" font-size="14.00">%2</text>
</g>
</g>
</svg>
