<?xml version="1.0" encoding="UTF-8" standalone="no"?>
<!DOCTYPE svg PUBLIC "-//W3C//DTD SVG 1.1//EN"
 "http://www.w3.org/Graphics/SVG/1.1/DTD/svg11.dtd">
<!-- Generated by graphviz version 2.43.0 (0)
 -->
<!-- Title: G Pages: 1 -->
<svg width="833pt" height="223pt"
 viewBox="0.00 0.00 832.50 223.00" xmlns="http://www.w3.org/2000/svg" xmlns:xlink="http://www.w3.org/1999/xlink">
<g id="graph0" class="graph" transform="scale(1 1) rotate(0) translate(4 219)">
<title>G</title>
<polygon fill="white" stroke="transparent" points="-4,4 -4,-219 828.5,-219 828.5,4 -4,4"/>
<!-- node0 -->
<g id="node1" class="node">
<title>node0</title>
<polygon fill="none" stroke="black" points="0,-178.5 0,-214.5 308,-214.5 308,-178.5 0,-178.5"/>
<text text-anchor="start" x="8" y="-192.8" font-family="Times,serif" font-size="14.00">Get simplify_outer_joins.public.t1 (u101)</text>
</g>
<!-- node2 -->
<g id="node3" class="node">
<title>node2</title>
<polygon fill="none" stroke="black" points="146,-90.5 146,-126.5 488,-126.5 488,-90.5 146,-90.5"/>
<text text-anchor="start" x="154" y="-104.8" font-family="Times,serif" font-size="14.00">LeftOuterJoin %0 %1 on (true &amp;&amp; (#0 = #2))</text>
</g>
<!-- node0&#45;&gt;node2 -->
<g id="edge4" class="edge">
<title>node0&#45;&gt;node2</title>
<path fill="none" stroke="black" d="M186.59,-178.3C212.22,-164.78 248.08,-145.86 275.71,-131.28"/>
<polygon fill="black" stroke="black" points="277.53,-134.28 284.74,-126.52 274.26,-128.09 277.53,-134.28"/>
<text text-anchor="start" x="246" y="-148.8" font-family="Times,serif" font-size="14.00">%0</text>
</g>
<!-- node1 -->
<g id="node2" class="node">
<title>node1</title>
<polygon fill="none" stroke="black" points="326,-178.5 326,-214.5 634,-214.5 634,-178.5 326,-178.5"/>
<text text-anchor="start" x="334" y="-192.8" font-family="Times,serif" font-size="14.00">Get simplify_outer_joins.public.t1 (u101)</text>
</g>
<!-- node1&#45;&gt;node2 -->
<g id="edge1" class="edge">
<title>node1&#45;&gt;node2</title>
<path fill="none" stroke="black" d="M447.41,-178.3C421.78,-164.78 385.92,-145.86 358.29,-131.28"/>
<polygon fill="black" stroke="black" points="359.74,-128.09 349.26,-126.52 356.47,-134.28 359.74,-128.09"/>
<text text-anchor="start" x="409" y="-148.8" font-family="Times,serif" font-size="14.00">%1</text>
</g>
<!-- node4 -->
<g id="node5" class="node">
<title>node4</title>
<polygon fill="none" stroke="black" points="153.5,-0.5 153.5,-38.5 824.5,-38.5 824.5,-0.5 153.5,-0.5"/>
<text text-anchor="start" x="161.5" y="-23.3" font-family="Times,serif" font-size="14.00">LeftOuterJoin %2 %3 on true</text>
<text text-anchor="start" x="161.5" y="-8.3" font-family="Times,serif" font-size="14.00"> Filter (((((#0 = #2) &amp;&amp; (#3 = #0)) &amp;&amp; (#2 = #1)) &amp;&amp; (#2 &lt; #1)) &amp;&amp; (#3 = i32tof64(5)))</text>
</g>
<!-- node2&#45;&gt;node4 -->
<g id="edge2" class="edge">
<title>node2&#45;&gt;node4</title>
<path fill="none" stroke="black" d="M350.98,-90.31C377.66,-76.82 415.04,-57.91 444.17,-43.18"/>
<polygon fill="black" stroke="black" points="445.97,-46.19 453.31,-38.55 442.81,-39.94 445.97,-46.19"/>
<text text-anchor="start" x="414" y="-60.8" font-family="Times,serif" font-size="14.00">%2</text>
</g>
<!-- node3 -->
<g id="node4" class="node">
<title>node3</title>
<polygon fill="none" stroke="black" points="506,-90.5 506,-126.5 814,-126.5 814,-90.5 506,-90.5"/>
<text text-anchor="start" x="514" y="-104.8" font-family="Times,serif" font-size="14.00">Get simplify_outer_joins.public.t2 (u103)</text>
</g>
<!-- node3&#45;&gt;node4 -->
<g id="edge3" class="edge">
<title>node3&#45;&gt;node4</title>
<path fill="none" stroke="black" d="M626.22,-90.31C599.69,-76.82 562.53,-57.91 533.57,-43.18"/>
<polygon fill="black" stroke="black" points="534.98,-39.97 524.48,-38.55 531.81,-46.21 534.98,-39.97"/>
<text text-anchor="start" x="589" y="-60.8" font-family="Times,serif" font-size="14.00">%3</text>
</g>
</g>
</svg>
