<?xml version="1.0" encoding="UTF-8" standalone="no"?>
<!DOCTYPE svg PUBLIC "-//W3C//DTD SVG 1.1//EN"
 "http://www.w3.org/Graphics/SVG/1.1/DTD/svg11.dtd">
<!-- Generated by graphviz version 2.43.0 (0)
 -->
<!-- Title: G Pages: 1 -->
<svg width="1547pt" height="783pt"
 viewBox="0.00 0.00 1547.00 783.00" xmlns="http://www.w3.org/2000/svg" xmlns:xlink="http://www.w3.org/1999/xlink">
<g id="graph0" class="graph" transform="scale(1 1) rotate(0) translate(4 779)">
<title>G</title>
<polygon fill="white" stroke="transparent" points="-4,4 -4,-779 1543,-779 1543,4 -4,4"/>
<g id="clust1" class="cluster">
<title>cluster4</title>
<polygon fill="none" stroke="black" points="591,-543 591,-767 1531,-767 1531,-543 591,-543"/>
<text text-anchor="middle" x="641.5" y="-751.8" font-family="Times,serif" font-size="14.00">Box4:Select</text>
</g>
<g id="clust3" class="cluster">
<title>cluster0</title>
<polygon fill="none" stroke="black" points="334,-311 334,-535 754,-535 754,-311 334,-311"/>
<text text-anchor="middle" x="396.5" y="-519.8" font-family="Times,serif" font-size="14.00">Box0:OuterJoin</text>
</g>
<g id="clust5" class="cluster">
<title>cluster1</title>
<polygon fill="none" stroke="black" points="8,-125 8,-303 428,-303 428,-125 8,-125"/>
<text text-anchor="middle" x="70.5" y="-287.8" font-family="Times,serif" font-size="14.00">Box1:OuterJoin</text>
</g>
<g id="clust7" class="cluster">
<title>cluster2</title>
<polygon fill="none" stroke="black" points="9,-8 9,-117 219,-117 219,-8 9,-8"/>
<text text-anchor="middle" x="50.5" y="-101.8" font-family="Times,serif" font-size="14.00">Box2:Get</text>
</g>
<g id="clust9" class="cluster">
<title>cluster3</title>
<polygon fill="none" stroke="black" points="436,-159.5 436,-268.5 646,-268.5 646,-159.5 436,-159.5"/>
<text text-anchor="middle" x="477.5" y="-253.3" font-family="Times,serif" font-size="14.00">Box3:Get</text>
</g>
<!-- boxhead4 -->
<g id="node1" class="node">
<title>boxhead4</title>
<polygon fill="none" stroke="black" points="691,-551.5 691,-735.5 1523,-735.5 1523,-551.5 691,-551.5"/>
<text text-anchor="middle" x="1107" y="-720.3" font-family="Times,serif" font-size="14.00">Distinct: Preserve</text>
<polyline fill="none" stroke="black" points="691,-712.5 1523,-712.5 "/>
<text text-anchor="middle" x="1107" y="-697.3" font-family="Times,serif" font-size="14.00">0: double precision (Q4.C0)</text>
<polyline fill="none" stroke="black" points="691,-689.5 1523,-689.5 "/>
<text text-anchor="middle" x="1107" y="-674.3" font-family="Times,serif" font-size="14.00">1: double precision (Q4.C1)</text>
<polyline fill="none" stroke="black" points="691,-666.5 1523,-666.5 "/>
<text text-anchor="middle" x="1107" y="-651.3" font-family="Times,serif" font-size="14.00">2: double precision (Q4.C2)</text>
<polyline fill="none" stroke="black" points="691,-643.5 1523,-643.5 "/>
<text text-anchor="middle" x="1107" y="-628.3" font-family="Times,serif" font-size="14.00">3: double precision (Q4.C3)</text>
<polyline fill="none" stroke="black" points="691,-620.5 1523,-620.5 "/>
<text text-anchor="middle" x="1107" y="-605.3" font-family="Times,serif" font-size="14.00">4: double precision? (Q4.C4)</text>
<polyline fill="none" stroke="black" points="691,-597.5 1523,-597.5 "/>
<text text-anchor="middle" x="1107" y="-582.3" font-family="Times,serif" font-size="14.00">5: double precision? (Q4.C5)</text>
<polyline fill="none" stroke="black" points="691,-574.5 1523,-574.5 "/>
<text text-anchor="middle" x="1107" y="-559.3" font-family="Times,serif" font-size="14.00">(((((Q4.C0 = Q4.C2) &amp;&amp; (Q4.C3 = Q4.C0)) &amp;&amp; (Q4.C2 = Q4.C1)) &amp;&amp; (Q4.C2 &lt; Q4.C1)) &amp;&amp; (Q4.C3 = i32tof64(5)))</text>
</g>
<!-- Q4 -->
<g id="node2" class="node">
<title>Q4</title>
<ellipse fill="none" stroke="black" cx="636" cy="-643.5" rx="37.09" ry="37.09"/>
<text text-anchor="middle" x="636" y="-639.8" font-family="Times,serif" font-size="14.00">Q4(F)</text>
</g>
<!-- boxhead0 -->
<g id="node3" class="node">
<title>boxhead0</title>
<polygon fill="none" stroke="black" points="526.5,-319.5 526.5,-503.5 745.5,-503.5 745.5,-319.5 526.5,-319.5"/>
<text text-anchor="middle" x="636" y="-488.3" font-family="Times,serif" font-size="14.00">Distinct: Preserve</text>
<polyline fill="none" stroke="black" points="526.5,-480.5 745.5,-480.5 "/>
<text text-anchor="middle" x="636" y="-465.3" font-family="Times,serif" font-size="14.00">0: double precision? (Q2.C0)</text>
<polyline fill="none" stroke="black" points="526.5,-457.5 745.5,-457.5 "/>
<text text-anchor="middle" x="636" y="-442.3" font-family="Times,serif" font-size="14.00">1: double precision (Q2.C1)</text>
<polyline fill="none" stroke="black" points="526.5,-434.5 745.5,-434.5 "/>
<text text-anchor="middle" x="636" y="-419.3" font-family="Times,serif" font-size="14.00">2: double precision? (Q2.C2)</text>
<polyline fill="none" stroke="black" points="526.5,-411.5 745.5,-411.5 "/>
<text text-anchor="middle" x="636" y="-396.3" font-family="Times,serif" font-size="14.00">3: double precision? (Q2.C3)</text>
<polyline fill="none" stroke="black" points="526.5,-388.5 745.5,-388.5 "/>
<text text-anchor="middle" x="636" y="-373.3" font-family="Times,serif" font-size="14.00">4: double precision? (Q3.C0)</text>
<polyline fill="none" stroke="black" points="526.5,-365.5 745.5,-365.5 "/>
<text text-anchor="middle" x="636" y="-350.3" font-family="Times,serif" font-size="14.00">5: double precision? (Q3.C1)</text>
<polyline fill="none" stroke="black" points="526.5,-342.5 745.5,-342.5 "/>
<text text-anchor="middle" x="636" y="-327.3" font-family="Times,serif" font-size="14.00">true</text>
</g>
<!-- Q4&#45;&gt;boxhead0 -->
<g id="edge1" class="edge">
<title>Q4&#45;&gt;boxhead0</title>
<path fill="none" stroke="black" stroke-dasharray="5,2" d="M636,-606.31C636,-586.66 636,-561.09 636,-535"/>
</g>
<!-- Q2 -->
<g id="node4" class="node">
<title>Q2</title>
<ellipse fill="none" stroke="black" cx="379" cy="-411.5" rx="37.09" ry="37.09"/>
<text text-anchor="middle" x="379" y="-407.8" font-family="Times,serif" font-size="14.00">Q2(P)</text>
</g>
<!-- boxhead1 -->
<g id="node6" class="node">
<title>boxhead1</title>
<polygon fill="none" stroke="black" points="200.5,-133.5 200.5,-271.5 419.5,-271.5 419.5,-133.5 200.5,-133.5"/>
<text text-anchor="middle" x="310" y="-256.3" font-family="Times,serif" font-size="14.00">Distinct: Preserve</text>
<polyline fill="none" stroke="black" points="200.5,-248.5 419.5,-248.5 "/>
<text text-anchor="middle" x="310" y="-233.3" font-family="Times,serif" font-size="14.00">0: double precision? (Q0.C0)</text>
<polyline fill="none" stroke="black" points="200.5,-225.5 419.5,-225.5 "/>
<text text-anchor="middle" x="310" y="-210.3" font-family="Times,serif" font-size="14.00">1: double precision (Q0.C1)</text>
<polyline fill="none" stroke="black" points="200.5,-202.5 419.5,-202.5 "/>
<text text-anchor="middle" x="310" y="-187.3" font-family="Times,serif" font-size="14.00">2: double precision? (Q1.C0)</text>
<polyline fill="none" stroke="black" points="200.5,-179.5 419.5,-179.5 "/>
<text text-anchor="middle" x="310" y="-164.3" font-family="Times,serif" font-size="14.00">3: double precision? (Q1.C1)</text>
<polyline fill="none" stroke="black" points="200.5,-156.5 419.5,-156.5 "/>
<text text-anchor="middle" x="310" y="-141.3" font-family="Times,serif" font-size="14.00">(true &amp;&amp; (Q0.C0 = Q1.C0))</text>
</g>
<!-- Q2&#45;&gt;boxhead1 -->
<g id="edge2" class="edge">
<title>Q2&#45;&gt;boxhead1</title>
<path fill="none" stroke="black" stroke-dasharray="5,2" d="M367.45,-375.85C360.73,-355.7 351.89,-329.18 343.17,-303"/>
</g>
<!-- Q3 -->
<g id="node5" class="node">
<title>Q3</title>
<ellipse fill="none" stroke="black" cx="471" cy="-411.5" rx="37.09" ry="37.09"/>
<text text-anchor="middle" x="471" y="-407.8" font-family="Times,serif" font-size="14.00">Q3(F)</text>
</g>
<!-- boxhead3 -->
<g id="node10" class="node">
<title>boxhead3</title>
<polygon fill="none" stroke="black" points="444,-168 444,-237 638,-237 638,-168 444,-168"/>
<text text-anchor="middle" x="541" y="-221.8" font-family="Times,serif" font-size="14.00">Distinct: Preserve</text>
<polyline fill="none" stroke="black" points="444,-214 638,-214 "/>
<text text-anchor="middle" x="541" y="-198.8" font-family="Times,serif" font-size="14.00">0: double precision? (C0)</text>
<polyline fill="none" stroke="black" points="444,-191 638,-191 "/>
<text text-anchor="middle" x="541" y="-175.8" font-family="Times,serif" font-size="14.00">1: double precision (C1)</text>
</g>
<!-- Q3&#45;&gt;boxhead3 -->
<g id="edge3" class="edge">
<title>Q3&#45;&gt;boxhead3</title>
<path fill="none" stroke="black" stroke-dasharray="5,2" d="M482.72,-375.85C492.59,-346.64 507,-304.04 519.02,-268.5"/>
</g>
<!-- Q0 -->
<g id="node7" class="node">
<title>Q0</title>
<ellipse fill="none" stroke="black" cx="145" cy="-202.5" rx="37.09" ry="37.09"/>
<text text-anchor="middle" x="145" y="-198.8" font-family="Times,serif" font-size="14.00">Q0(P)</text>
</g>
<!-- boxhead2 -->
<g id="node9" class="node">
<title>boxhead2</title>
<polygon fill="none" stroke="black" points="17,-16.5 17,-85.5 211,-85.5 211,-16.5 17,-16.5"/>
<text text-anchor="middle" x="114" y="-70.3" font-family="Times,serif" font-size="14.00">Distinct: Preserve</text>
<polyline fill="none" stroke="black" points="17,-62.5 211,-62.5 "/>
<text text-anchor="middle" x="114" y="-47.3" font-family="Times,serif" font-size="14.00">0: double precision? (C0)</text>
<polyline fill="none" stroke="black" points="17,-39.5 211,-39.5 "/>
<text text-anchor="middle" x="114" y="-24.3" font-family="Times,serif" font-size="14.00">1: double precision (C1)</text>
</g>
<!-- Q0&#45;&gt;boxhead2 -->
<g id="edge4" class="edge">
<title>Q0&#45;&gt;boxhead2</title>
<path fill="none" stroke="black" stroke-dasharray="5,2" d="M137.65,-166.07C134.61,-151.38 130.97,-133.85 127.48,-117"/>
</g>
<!-- Q1 -->
<g id="node8" class="node">
<title>Q1</title>
<ellipse fill="none" stroke="black" cx="53" cy="-202.5" rx="37.09" ry="37.09"/>
<text text-anchor="middle" x="53" y="-198.8" font-family="Times,serif" font-size="14.00">Q1(F)</text>
</g>
<!-- Q1&#45;&gt;boxhead2 -->
<g id="edge5" class="edge">
<title>Q1&#45;&gt;boxhead2</title>
<path fill="none" stroke="black" stroke-dasharray="5,2" d="M66.69,-167.95C72.84,-152.89 80.31,-134.58 87.48,-117"/>
</g>
</g>
</svg>
