<?xml version="1.0" encoding="UTF-8" standalone="no"?>
<!DOCTYPE svg PUBLIC "-//W3C//DTD SVG 1.1//EN"
 "http://www.w3.org/Graphics/SVG/1.1/DTD/svg11.dtd">
<!-- Generated by graphviz version 2.43.0 (0)
 -->
<!-- Title: G Pages: 1 -->
<svg width="1076pt" height="362pt"
 viewBox="0.00 0.00 1076.00 362.00" xmlns="http://www.w3.org/2000/svg" xmlns:xlink="http://www.w3.org/1999/xlink">
<g id="graph0" class="graph" transform="scale(1 1) rotate(0) translate(4 358)">
<title>G</title>
<polygon fill="white" stroke="transparent" points="-4,4 -4,-358 1072,-358 1072,4 -4,4"/>
<!-- node0 -->
<g id="node1" class="node">
<title>node0</title>
<polygon fill="none" stroke="black" points="0,-188 0,-331 344,-331 344,-188 0,-188"/>
<text text-anchor="start" x="8" y="-315.8" font-family="Times,serif" font-size="14.00">Get simplify_outer_joins.public.t1 (u101)</text>
<text text-anchor="start" x="8" y="-300.8" font-family="Times,serif" font-size="14.00"> types = (double precision?, double precision)</text>
<text text-anchor="start" x="8" y="-285.8" font-family="Times,serif" font-size="14.00"> keys = ()</text>
<text text-anchor="start" x="8" y="-270.8" font-family="Times,serif" font-size="14.00"> Filter (#0 = 5), (#1 = 5), (5 &lt; #1)</text>
<text text-anchor="start" x="8" y="-255.8" font-family="Times,serif" font-size="14.00"> types = (double precision, double precision)</text>
<text text-anchor="start" x="8" y="-240.8" font-family="Times,serif" font-size="14.00"> keys = ()</text>
<text text-anchor="start" x="8" y="-225.8" font-family="Times,serif" font-size="14.00"> ArrangeBy ()</text>
<text text-anchor="start" x="8" y="-210.8" font-family="Times,serif" font-size="14.00"> types = (double precision, double precision)</text>
<text text-anchor="start" x="8" y="-195.8" font-family="Times,serif" font-size="14.00"> keys = ()</text>
</g>
<!-- node3 -->
<g id="node4" class="node">
<title>node3</title>
<polygon fill="none" stroke="black" points="108.5,-0.5 108.5,-113.5 959.5,-113.5 959.5,-0.5 108.5,-0.5"/>
<text text-anchor="start" x="116.5" y="-98.3" font-family="Times,serif" font-size="14.00">Join %0 %1 %2</text>
<text text-anchor="start" x="116.5" y="-83.3" font-family="Times,serif" font-size="14.00"> implementation = Differential %2 %0.() %1.()</text>
<text text-anchor="start" x="116.5" y="-68.3" font-family="Times,serif" font-size="14.00"> types = (double precision, double precision, double precision, double precision?, double precision)</text>
<text text-anchor="start" x="116.5" y="-53.3" font-family="Times,serif" font-size="14.00"> keys = ()</text>
<text text-anchor="start" x="116.5" y="-38.3" font-family="Times,serif" font-size="14.00"> Project (#0, #1, #0, #2..=#4)</text>
<text text-anchor="start" x="116.5" y="-23.3" font-family="Times,serif" font-size="14.00"> types = (double precision, double precision, double precision, double precision, double precision?, double precision)</text>
<text text-anchor="start" x="116.5" y="-8.3" font-family="Times,serif" font-size="14.00"> keys = ()</text>
</g>
<!-- node0&#45;&gt;node3 -->
<g id="edge1" class="edge">
<title>node0&#45;&gt;node3</title>
<path fill="none" stroke="black" d="M299.37,-187.95C340.27,-165.3 385.18,-140.43 424.66,-118.56"/>
<polygon fill="black" stroke="black" points="426.47,-121.56 433.52,-113.65 423.08,-115.44 426.47,-121.56"/>
<text text-anchor="start" x="397" y="-135.8" font-family="Times,serif" font-size="14.00">%0</text>
</g>
<!-- node1 -->
<g id="node2" class="node">
<title>node1</title>
<polygon fill="none" stroke="black" points="362,-165.5 362,-353.5 706,-353.5 706,-165.5 362,-165.5"/>
<text text-anchor="start" x="370" y="-338.3" font-family="Times,serif" font-size="14.00">Get simplify_outer_joins.public.t1 (u101)</text>
<text text-anchor="start" x="370" y="-323.3" font-family="Times,serif" font-size="14.00"> types = (double precision?, double precision)</text>
<text text-anchor="start" x="370" y="-308.3" font-family="Times,serif" font-size="14.00"> keys = ()</text>
<text text-anchor="start" x="370" y="-293.3" font-family="Times,serif" font-size="14.00"> Filter (#0 = 5), (#1 = 5)</text>
<text text-anchor="start" x="370" y="-278.3" font-family="Times,serif" font-size="14.00"> types = (double precision, double precision)</text>
<text text-anchor="start" x="370" y="-263.3" font-family="Times,serif" font-size="14.00"> keys = ()</text>
<text text-anchor="start" x="370" y="-248.3" font-family="Times,serif" font-size="14.00"> Project (#1)</text>
<text text-anchor="start" x="370" y="-233.3" font-family="Times,serif" font-size="14.00"> types = (double precision)</text>
<text text-anchor="start" x="370" y="-218.3" font-family="Times,serif" font-size="14.00"> keys = ()</text>
<text text-anchor="start" x="370" y="-203.3" font-family="Times,serif" font-size="14.00"> ArrangeBy ()</text>
<text text-anchor="start" x="370" y="-188.3" font-family="Times,serif" font-size="14.00"> types = (double precision)</text>
<text text-anchor="start" x="370" y="-173.3" font-family="Times,serif" font-size="14.00"> keys = ()</text>
</g>
<!-- node1&#45;&gt;node3 -->
<g id="edge2" class="edge">
<title>node1&#45;&gt;node3</title>
<path fill="none" stroke="black" d="M534,-165.29C534,-151.2 534,-136.91 534,-123.56"/>
<polygon fill="black" stroke="black" points="537.5,-123.56 534,-113.56 530.5,-123.56 537.5,-123.56"/>
<text text-anchor="start" x="534" y="-135.8" font-family="Times,serif" font-size="14.00">%1</text>
</g>
<!-- node2 -->
<g id="node3" class="node">
<title>node2</title>
<polygon fill="none" stroke="black" points="724,-233 724,-286 1068,-286 1068,-233 724,-233"/>
<text text-anchor="start" x="732" y="-270.8" font-family="Times,serif" font-size="14.00">Get simplify_outer_joins.public.t2 (u103)</text>
<text text-anchor="start" x="732" y="-255.8" font-family="Times,serif" font-size="14.00"> types = (double precision?, double precision)</text>
<text text-anchor="start" x="732" y="-240.8" font-family="Times,serif" font-size="14.00"> keys = ()</text>
</g>
<!-- node2&#45;&gt;node3 -->
<g id="edge3" class="edge">
<title>node2&#45;&gt;node3</title>
<path fill="none" stroke="black" d="M849.78,-232.9C797.96,-204.2 712.14,-156.66 643.03,-118.39"/>
<polygon fill="black" stroke="black" points="644.7,-115.31 634.26,-113.53 641.31,-121.44 644.7,-115.31"/>
<text text-anchor="start" x="694" y="-135.8" font-family="Times,serif" font-size="14.00">%2</text>
</g>
</g>
</svg>
