<?xml version="1.0" encoding="UTF-8" standalone="no"?>
<!DOCTYPE svg PUBLIC "-//W3C//DTD SVG 1.1//EN"
 "http://www.w3.org/Graphics/SVG/1.1/DTD/svg11.dtd">
<!-- Generated by graphviz version 2.43.0 (0)
 -->
<!-- Title: G Pages: 1 -->
<svg width="1735pt" height="1616pt"
 viewBox="0.00 0.00 1735.00 1616.00" xmlns="http://www.w3.org/2000/svg" xmlns:xlink="http://www.w3.org/1999/xlink">
<g id="graph0" class="graph" transform="scale(1 1) rotate(0) translate(4 1612)">
<title>G</title>
<polygon fill="white" stroke="transparent" points="-4,4 -4,-1612 1731,-1612 1731,4 -4,4"/>
<!-- node0 -->
<g id="node1" class="node">
<title>node0</title>
<polygon fill="none" stroke="black" points="654,-1539.5 654,-1607.5 755,-1607.5 755,-1539.5 654,-1539.5"/>
<text text-anchor="start" x="662" y="-1592.3" font-family="Times,serif" font-size="14.00">Let l0 =</text>
<text text-anchor="start" x="662" y="-1577.3" font-family="Times,serif" font-size="14.00"> Constant ()</text>
<text text-anchor="start" x="662" y="-1562.3" font-family="Times,serif" font-size="14.00"> types = ()</text>
<text text-anchor="start" x="662" y="-1547.3" font-family="Times,serif" font-size="14.00"> keys = (())</text>
</g>
<!-- node2 -->
<g id="node3" class="node">
<title>node2</title>
<polygon fill="none" stroke="black" points="351.5,-1412 351.5,-1480 695.5,-1480 695.5,-1412 351.5,-1412"/>
<text text-anchor="start" x="359.5" y="-1464.8" font-family="Times,serif" font-size="14.00">Join %0 %1</text>
<text text-anchor="start" x="359.5" y="-1449.8" font-family="Times,serif" font-size="14.00"> implementation = Unimplemented</text>
<text text-anchor="start" x="359.5" y="-1434.8" font-family="Times,serif" font-size="14.00"> types = (double precision?, double precision)</text>
<text text-anchor="start" x="359.5" y="-1419.8" font-family="Times,serif" font-size="14.00"> keys = ()</text>
</g>
<!-- node0&#45;&gt;node2 -->
<g id="edge3" class="edge">
<title>node0&#45;&gt;node2</title>
<path fill="none" stroke="black" d="M656.47,-1539.2C632.86,-1522.83 604.27,-1503 579.65,-1485.93"/>
<polygon fill="black" stroke="black" points="581.34,-1482.84 571.13,-1480.02 577.35,-1488.6 581.34,-1482.84"/>
<text text-anchor="start" x="630.5" y="-1509.8" font-family="Times,serif" font-size="14.00">%0</text>
</g>
<!-- node4 -->
<g id="node5" class="node">
<title>node4</title>
<polygon fill="none" stroke="black" points="713.5,-1412 713.5,-1480 1057.5,-1480 1057.5,-1412 713.5,-1412"/>
<text text-anchor="start" x="721.5" y="-1464.8" font-family="Times,serif" font-size="14.00">Join %0 %3</text>
<text text-anchor="start" x="721.5" y="-1449.8" font-family="Times,serif" font-size="14.00"> implementation = Unimplemented</text>
<text text-anchor="start" x="721.5" y="-1434.8" font-family="Times,serif" font-size="14.00"> types = (double precision?, double precision)</text>
<text text-anchor="start" x="721.5" y="-1419.8" font-family="Times,serif" font-size="14.00"> keys = ()</text>
</g>
<!-- node0&#45;&gt;node4 -->
<g id="edge17" class="edge">
<title>node0&#45;&gt;node4</title>
<path fill="none" stroke="black" d="M739.2,-1539.45C751.75,-1528.23 766.33,-1516.02 780.5,-1506 790.67,-1498.81 801.8,-1491.77 812.88,-1485.2"/>
<polygon fill="black" stroke="black" points="814.86,-1488.1 821.74,-1480.04 811.33,-1482.05 814.86,-1488.1"/>
<text text-anchor="start" x="780.5" y="-1509.8" font-family="Times,serif" font-size="14.00">%0</text>
</g>
<!-- node7 -->
<g id="node8" class="node">
<title>node7</title>
<polygon fill="none" stroke="black" points="1100.5,-1404.5 1100.5,-1487.5 1444.5,-1487.5 1444.5,-1404.5 1100.5,-1404.5"/>
<text text-anchor="start" x="1108.5" y="-1472.3" font-family="Times,serif" font-size="14.00">Let l2 =</text>
<text text-anchor="start" x="1108.5" y="-1457.3" font-family="Times,serif" font-size="14.00"> Join %0 %6</text>
<text text-anchor="start" x="1108.5" y="-1442.3" font-family="Times,serif" font-size="14.00"> implementation = Unimplemented</text>
<text text-anchor="start" x="1108.5" y="-1427.3" font-family="Times,serif" font-size="14.00"> types = (double precision?, double precision)</text>
<text text-anchor="start" x="1108.5" y="-1412.3" font-family="Times,serif" font-size="14.00"> keys = ()</text>
</g>
<!-- node0&#45;&gt;node7 -->
<g id="edge13" class="edge">
<title>node0&#45;&gt;node7</title>
<path fill="none" stroke="black" d="M755.14,-1543.1C758.27,-1541.63 761.4,-1540.25 764.5,-1539 817.36,-1517.6 832.4,-1516.23 888.5,-1506 966.72,-1491.73 987.86,-1499.77 1066.5,-1488 1074.38,-1486.82 1082.42,-1485.54 1090.53,-1484.19"/>
<polygon fill="black" stroke="black" points="1091.18,-1487.63 1100.46,-1482.51 1090.01,-1480.73 1091.18,-1487.63"/>
<text text-anchor="start" x="888.5" y="-1509.8" font-family="Times,serif" font-size="14.00">%0</text>
</g>
<!-- node1 -->
<g id="node2" class="node">
<title>node1</title>
<polygon fill="none" stroke="black" points="291.5,-1547 291.5,-1600 635.5,-1600 635.5,-1547 291.5,-1547"/>
<text text-anchor="start" x="299.5" y="-1584.8" font-family="Times,serif" font-size="14.00">Get simplify_outer_joins.public.t1 (u101)</text>
<text text-anchor="start" x="299.5" y="-1569.8" font-family="Times,serif" font-size="14.00"> types = (double precision?, double precision)</text>
<text text-anchor="start" x="299.5" y="-1554.8" font-family="Times,serif" font-size="14.00"> keys = ()</text>
</g>
<!-- node1&#45;&gt;node2 -->
<g id="edge4" class="edge">
<title>node1&#45;&gt;node2</title>
<path fill="none" stroke="black" d="M475.79,-1546.8C483.68,-1530.28 494.13,-1508.43 503.23,-1489.39"/>
<polygon fill="black" stroke="black" points="506.42,-1490.83 507.58,-1480.3 500.11,-1487.81 506.42,-1490.83"/>
<text text-anchor="start" x="493.5" y="-1509.8" font-family="Times,serif" font-size="14.00">%1</text>
</g>
<!-- node5 -->
<g id="node6" class="node">
<title>node5</title>
<polygon fill="none" stroke="black" points="509,-1134.5 509,-1352.5 1114,-1352.5 1114,-1134.5 509,-1134.5"/>
<text text-anchor="start" x="517" y="-1337.3" font-family="Times,serif" font-size="14.00">Let l1 =</text>
<text text-anchor="start" x="517" y="-1322.3" font-family="Times,serif" font-size="14.00"> Join %2 %4</text>
<text text-anchor="start" x="517" y="-1307.3" font-family="Times,serif" font-size="14.00"> implementation = Unimplemented</text>
<text text-anchor="start" x="517" y="-1292.3" font-family="Times,serif" font-size="14.00"> types = (double precision?, double precision, double precision?, double precision)</text>
<text text-anchor="start" x="517" y="-1277.3" font-family="Times,serif" font-size="14.00"> keys = ()</text>
<text text-anchor="start" x="517" y="-1262.3" font-family="Times,serif" font-size="14.00"> Project (#0..=#3)</text>
<text text-anchor="start" x="517" y="-1247.3" font-family="Times,serif" font-size="14.00"> types = (double precision?, double precision, double precision?, double precision)</text>
<text text-anchor="start" x="517" y="-1232.3" font-family="Times,serif" font-size="14.00"> keys = ()</text>
<text text-anchor="start" x="517" y="-1217.3" font-family="Times,serif" font-size="14.00"> Filter (true &amp;&amp; (#0 = #2))</text>
<text text-anchor="start" x="517" y="-1202.3" font-family="Times,serif" font-size="14.00"> types = (double precision?, double precision, double precision?, double precision)</text>
<text text-anchor="start" x="517" y="-1187.3" font-family="Times,serif" font-size="14.00"> keys = ()</text>
<text text-anchor="start" x="517" y="-1172.3" font-family="Times,serif" font-size="14.00"> Project (#0..=#3)</text>
<text text-anchor="start" x="517" y="-1157.3" font-family="Times,serif" font-size="14.00"> types = (double precision?, double precision, double precision?, double precision)</text>
<text text-anchor="start" x="517" y="-1142.3" font-family="Times,serif" font-size="14.00"> keys = ()</text>
</g>
<!-- node2&#45;&gt;node5 -->
<g id="edge1" class="edge">
<title>node2&#45;&gt;node5</title>
<path fill="none" stroke="black" d="M571.06,-1411.89C592.72,-1396.81 619.78,-1377.97 647.85,-1358.43"/>
<polygon fill="black" stroke="black" points="649.98,-1361.21 656.19,-1352.62 645.99,-1355.46 649.98,-1361.21"/>
<text text-anchor="start" x="625.5" y="-1374.8" font-family="Times,serif" font-size="14.00">%2</text>
</g>
<!-- node3 -->
<g id="node4" class="node">
<title>node3</title>
<polygon fill="none" stroke="black" points="773.5,-1547 773.5,-1600 1117.5,-1600 1117.5,-1547 773.5,-1547"/>
<text text-anchor="start" x="781.5" y="-1584.8" font-family="Times,serif" font-size="14.00">Get simplify_outer_joins.public.t1 (u101)</text>
<text text-anchor="start" x="781.5" y="-1569.8" font-family="Times,serif" font-size="14.00"> types = (double precision?, double precision)</text>
<text text-anchor="start" x="781.5" y="-1554.8" font-family="Times,serif" font-size="14.00"> keys = ()</text>
</g>
<!-- node3&#45;&gt;node4 -->
<g id="edge8" class="edge">
<title>node3&#45;&gt;node4</title>
<path fill="none" stroke="black" d="M933.21,-1546.8C925.32,-1530.28 914.87,-1508.43 905.77,-1489.39"/>
<polygon fill="black" stroke="black" points="908.89,-1487.81 901.42,-1480.3 902.58,-1490.83 908.89,-1487.81"/>
<text text-anchor="start" x="920.5" y="-1509.8" font-family="Times,serif" font-size="14.00">%3</text>
</g>
<!-- node4&#45;&gt;node5 -->
<g id="edge9" class="edge">
<title>node4&#45;&gt;node5</title>
<path fill="none" stroke="black" d="M873.28,-1411.89C868.07,-1397.78 861.65,-1380.38 854.94,-1362.19"/>
<polygon fill="black" stroke="black" points="858.15,-1360.79 851.41,-1352.62 851.58,-1363.22 858.15,-1360.79"/>
<text text-anchor="start" x="863.5" y="-1374.8" font-family="Times,serif" font-size="14.00">%4</text>
</g>
<!-- node8 -->
<g id="node9" class="node">
<title>node8</title>
<polygon fill="none" stroke="black" points="839.5,-909.5 839.5,-1082.5 1705.5,-1082.5 1705.5,-909.5 839.5,-909.5"/>
<text text-anchor="start" x="847.5" y="-1067.3" font-family="Times,serif" font-size="14.00">Let l3 =</text>
<text text-anchor="start" x="847.5" y="-1052.3" font-family="Times,serif" font-size="14.00"> Join %5 %7</text>
<text text-anchor="start" x="847.5" y="-1037.3" font-family="Times,serif" font-size="14.00"> implementation = Unimplemented</text>
<text text-anchor="start" x="847.5" y="-1022.3" font-family="Times,serif" font-size="14.00"> types = (double precision?, double precision, double precision?, double precision, double precision?, double precision)</text>
<text text-anchor="start" x="847.5" y="-1007.3" font-family="Times,serif" font-size="14.00"> keys = ()</text>
<text text-anchor="start" x="847.5" y="-992.3" font-family="Times,serif" font-size="14.00"> Project (#0..=#5)</text>
<text text-anchor="start" x="847.5" y="-977.3" font-family="Times,serif" font-size="14.00"> types = (double precision?, double precision, double precision?, double precision, double precision?, double precision)</text>
<text text-anchor="start" x="847.5" y="-962.3" font-family="Times,serif" font-size="14.00"> keys = ()</text>
<text text-anchor="start" x="847.5" y="-947.3" font-family="Times,serif" font-size="14.00"> Filter true</text>
<text text-anchor="start" x="847.5" y="-932.3" font-family="Times,serif" font-size="14.00"> types = (double precision?, double precision, double precision?, double precision, double precision?, double precision)</text>
<text text-anchor="start" x="847.5" y="-917.3" font-family="Times,serif" font-size="14.00"> keys = ()</text>
</g>
<!-- node5&#45;&gt;node8 -->
<g id="edge10" class="edge">
<title>node5&#45;&gt;node8</title>
<path fill="none" stroke="black" d="M1014.37,-1134.46C1043.93,-1118.72 1074.09,-1102.66 1102.9,-1087.32"/>
<polygon fill="black" stroke="black" points="1104.61,-1090.37 1111.79,-1082.58 1101.32,-1084.2 1104.61,-1090.37"/>
<text text-anchor="start" x="1069.5" y="-1104.8" font-family="Times,serif" font-size="14.00">%5</text>
</g>
<!-- node10 -->
<g id="node11" class="node">
<title>node10</title>
<polygon fill="none" stroke="black" points="577,-792.5 577,-890.5 1182,-890.5 1182,-792.5 577,-792.5"/>
<text text-anchor="start" x="585" y="-875.3" font-family="Times,serif" font-size="14.00">Get %5 (l1)</text>
<text text-anchor="start" x="585" y="-860.3" font-family="Times,serif" font-size="14.00"> types = (double precision?, double precision, double precision?, double precision)</text>
<text text-anchor="start" x="585" y="-845.3" font-family="Times,serif" font-size="14.00"> keys = ()</text>
<text text-anchor="start" x="585" y="-830.3" font-family="Times,serif" font-size="14.00"> Distinct group=(#0, #1, #2, #3)</text>
<text text-anchor="start" x="585" y="-815.3" font-family="Times,serif" font-size="14.00"> types = (double precision?, double precision, double precision?, double precision)</text>
<text text-anchor="start" x="585" y="-800.3" font-family="Times,serif" font-size="14.00"> keys = ((#0..=#3))</text>
</g>
<!-- node5&#45;&gt;node10 -->
<g id="edge20" class="edge">
<title>node5&#45;&gt;node10</title>
<path fill="none" stroke="black" d="M802.28,-1134.25C800.3,-1067.43 804.54,-981.02 830.5,-909 831.62,-905.9 832.93,-902.81 834.4,-899.77"/>
<polygon fill="black" stroke="black" points="837.56,-901.27 839.19,-890.8 831.39,-897.97 837.56,-901.27"/>
<text text-anchor="start" x="801.5" y="-1104.8" font-family="Times,serif" font-size="14.00">%5</text>
</g>
<!-- node12 -->
<g id="node13" class="node">
<title>node12</title>
<polygon fill="none" stroke="black" points="369,-360.5 369,-473.5 1496,-473.5 1496,-360.5 369,-360.5"/>
<text text-anchor="start" x="377" y="-458.3" font-family="Times,serif" font-size="14.00">Join %11 %5 (= #0 #4) (= #1 #5) (= #2 #6) (= #3 #7)</text>
<text text-anchor="start" x="377" y="-443.3" font-family="Times,serif" font-size="14.00"> implementation = Unimplemented</text>
<text text-anchor="start" x="377" y="-428.3" font-family="Times,serif" font-size="14.00"> types = (double precision?, double precision, double precision?, double precision, double precision?, double precision, double precision?, double precision)</text>
<text text-anchor="start" x="377" y="-413.3" font-family="Times,serif" font-size="14.00"> keys = ()</text>
<text text-anchor="start" x="377" y="-398.3" font-family="Times,serif" font-size="14.00"> Project (#0..=#3)</text>
<text text-anchor="start" x="377" y="-383.3" font-family="Times,serif" font-size="14.00"> types = (double precision?, double precision, double precision?, double precision)</text>
<text text-anchor="start" x="377" y="-368.3" font-family="Times,serif" font-size="14.00"> keys = ()</text>
</g>
<!-- node5&#45;&gt;node12 -->
<g id="edge19" class="edge">
<title>node5&#45;&gt;node12</title>
<path fill="none" stroke="black" d="M631.86,-1134.36C592.6,-1097.16 562.5,-1051.03 562.5,-997 562.5,-997 562.5,-997 562.5,-551 562.5,-521.5 604.68,-496.76 660.56,-476.92"/>
<polygon fill="black" stroke="black" points="661.71,-480.23 670.02,-473.66 659.42,-473.61 661.71,-480.23"/>
<text text-anchor="start" x="562.5" y="-698.3" font-family="Times,serif" font-size="14.00">%5</text>
</g>
<!-- node6 -->
<g id="node7" class="node">
<title>node6</title>
<polygon fill="none" stroke="black" points="1135.5,-1547 1135.5,-1600 1479.5,-1600 1479.5,-1547 1135.5,-1547"/>
<text text-anchor="start" x="1143.5" y="-1584.8" font-family="Times,serif" font-size="14.00">Get simplify_outer_joins.public.t2 (u103)</text>
<text text-anchor="start" x="1143.5" y="-1569.8" font-family="Times,serif" font-size="14.00"> types = (double precision?, double precision)</text>
<text text-anchor="start" x="1143.5" y="-1554.8" font-family="Times,serif" font-size="14.00"> keys = ()</text>
</g>
<!-- node6&#45;&gt;node7 -->
<g id="edge6" class="edge">
<title>node6&#45;&gt;node7</title>
<path fill="none" stroke="black" d="M1300.33,-1546.8C1296.39,-1532.65 1291.35,-1514.59 1286.65,-1497.73"/>
<polygon fill="black" stroke="black" points="1289.99,-1496.67 1283.93,-1487.98 1283.24,-1498.55 1289.99,-1496.67"/>
<text text-anchor="start" x="1292.5" y="-1509.8" font-family="Times,serif" font-size="14.00">%6</text>
</g>
<!-- node7&#45;&gt;node8 -->
<g id="edge15" class="edge">
<title>node7&#45;&gt;node8</title>
<path fill="none" stroke="black" d="M1272.5,-1404.45C1272.5,-1334.56 1272.5,-1189.58 1272.5,-1092.77"/>
<polygon fill="black" stroke="black" points="1276,-1092.68 1272.5,-1082.68 1269,-1092.68 1276,-1092.68"/>
<text text-anchor="start" x="1272.5" y="-1239.8" font-family="Times,serif" font-size="14.00">%7</text>
</g>
<!-- node9 -->
<g id="node10" class="node">
<title>node9</title>
<polygon fill="none" stroke="black" points="755.5,-630.5 755.5,-773.5 1621.5,-773.5 1621.5,-630.5 755.5,-630.5"/>
<text text-anchor="start" x="763.5" y="-758.3" font-family="Times,serif" font-size="14.00">Get %8 (l3)</text>
<text text-anchor="start" x="763.5" y="-743.3" font-family="Times,serif" font-size="14.00"> types = (double precision?, double precision, double precision?, double precision, double precision?, double precision)</text>
<text text-anchor="start" x="763.5" y="-728.3" font-family="Times,serif" font-size="14.00"> keys = ()</text>
<text text-anchor="start" x="763.5" y="-713.3" font-family="Times,serif" font-size="14.00"> Distinct group=(#0, #1, #2, #3)</text>
<text text-anchor="start" x="763.5" y="-698.3" font-family="Times,serif" font-size="14.00"> types = (double precision?, double precision, double precision?, double precision)</text>
<text text-anchor="start" x="763.5" y="-683.3" font-family="Times,serif" font-size="14.00"> keys = ((#0..=#3))</text>
<text text-anchor="start" x="763.5" y="-668.3" font-family="Times,serif" font-size="14.00"> Negate</text>
<text text-anchor="start" x="763.5" y="-653.3" font-family="Times,serif" font-size="14.00"> types = (double precision?, double precision, double precision?, double precision)</text>
<text text-anchor="start" x="763.5" y="-638.3" font-family="Times,serif" font-size="14.00"> keys = ()</text>
</g>
<!-- node8&#45;&gt;node9 -->
<g id="edge18" class="edge">
<title>node8&#45;&gt;node9</title>
<path fill="none" stroke="black" d="M1247.86,-909.36C1236.44,-869.65 1222.93,-822.7 1211.69,-783.63"/>
<polygon fill="black" stroke="black" points="1215.02,-782.51 1208.89,-773.87 1208.29,-784.45 1215.02,-782.51"/>
<text text-anchor="start" x="1239.5" y="-837.8" font-family="Times,serif" font-size="14.00">%8</text>
</g>
<!-- node15 -->
<g id="node16" class="node">
<title>node15</title>
<polygon fill="none" stroke="black" points="854,-0.5 854,-188.5 1727,-188.5 1727,-0.5 854,-0.5"/>
<text text-anchor="start" x="862" y="-173.3" font-family="Times,serif" font-size="14.00">Union %8 %14</text>
<text text-anchor="start" x="862" y="-158.3" font-family="Times,serif" font-size="14.00"> types = (double precision?, double precision, double precision?, double precision, double precision?, double precision?)</text>
<text text-anchor="start" x="862" y="-143.3" font-family="Times,serif" font-size="14.00"> keys = ()</text>
<text text-anchor="start" x="862" y="-128.3" font-family="Times,serif" font-size="14.00"> Project (#0..=#5)</text>
<text text-anchor="start" x="862" y="-113.3" font-family="Times,serif" font-size="14.00"> types = (double precision?, double precision, double precision?, double precision, double precision?, double precision?)</text>
<text text-anchor="start" x="862" y="-98.3" font-family="Times,serif" font-size="14.00"> keys = ()</text>
<text text-anchor="start" x="862" y="-83.3" font-family="Times,serif" font-size="14.00"> Filter (((((#0 = #2) &amp;&amp; (#3 = #0)) &amp;&amp; (#2 = #1)) &amp;&amp; (#2 &lt; #1)) &amp;&amp; (#3 = i32tof64(5)))</text>
<text text-anchor="start" x="862" y="-68.3" font-family="Times,serif" font-size="14.00"> types = (double precision?, double precision, double precision?, double precision, double precision?, double precision?)</text>
<text text-anchor="start" x="862" y="-53.3" font-family="Times,serif" font-size="14.00"> keys = ()</text>
<text text-anchor="start" x="862" y="-38.3" font-family="Times,serif" font-size="14.00"> Project (#0..=#5)</text>
<text text-anchor="start" x="862" y="-23.3" font-family="Times,serif" font-size="14.00"> types = (double precision?, double precision, double precision?, double precision, double precision?, double precision?)</text>
<text text-anchor="start" x="862" y="-8.3" font-family="Times,serif" font-size="14.00"> keys = ()</text>
</g>
<!-- node8&#45;&gt;node15 -->
<g id="edge2" class="edge">
<title>node8&#45;&gt;node15</title>
<path fill="none" stroke="black" d="M1496.7,-909.47C1577.66,-862.9 1649.5,-795.52 1649.5,-703 1649.5,-703 1649.5,-703 1649.5,-273.5 1649.5,-242.68 1638.75,-217.19 1620.96,-196.12"/>
<polygon fill="black" stroke="black" points="1623.41,-193.61 1614.1,-188.55 1618.22,-198.31 1623.41,-193.61"/>
<text text-anchor="start" x="1649.5" y="-495.8" font-family="Times,serif" font-size="14.00">%8</text>
</g>
<!-- node11 -->
<g id="node12" class="node">
<title>node11</title>
<polygon fill="none" stroke="black" points="630,-525.5 630,-578.5 1235,-578.5 1235,-525.5 630,-525.5"/>
<text text-anchor="start" x="638" y="-563.3" font-family="Times,serif" font-size="14.00">Union %9 %10</text>
<text text-anchor="start" x="638" y="-548.3" font-family="Times,serif" font-size="14.00"> types = (double precision?, double precision, double precision?, double precision)</text>
<text text-anchor="start" x="638" y="-533.3" font-family="Times,serif" font-size="14.00"> keys = ()</text>
</g>
<!-- node9&#45;&gt;node11 -->
<g id="edge14" class="edge">
<title>node9&#45;&gt;node11</title>
<path fill="none" stroke="black" d="M1066.5,-630.47C1038.06,-614.03 1009.23,-597.36 985.64,-583.72"/>
<polygon fill="black" stroke="black" points="987.27,-580.62 976.86,-578.65 983.77,-586.68 987.27,-580.62"/>
<text text-anchor="start" x="1029.5" y="-600.8" font-family="Times,serif" font-size="14.00">%9</text>
</g>
<!-- node10&#45;&gt;node11 -->
<g id="edge7" class="edge">
<title>node10&#45;&gt;node11</title>
<path fill="none" stroke="black" d="M730.48,-792.35C724.48,-786.87 719.08,-780.78 714.5,-774 678.69,-720.96 677.54,-682.25 714.5,-630 729.23,-609.17 750.09,-593.94 773.12,-582.81"/>
<polygon fill="black" stroke="black" points="774.74,-585.91 782.4,-578.59 771.85,-579.54 774.74,-585.91"/>
<text text-anchor="start" x="714.5" y="-698.3" font-family="Times,serif" font-size="14.00">%10</text>
</g>
<!-- node11&#45;&gt;node12 -->
<g id="edge5" class="edge">
<title>node11&#45;&gt;node12</title>
<path fill="none" stroke="black" d="M932.5,-525.36C932.5,-513.4 932.5,-498.56 932.5,-483.77"/>
<polygon fill="black" stroke="black" points="936,-483.57 932.5,-473.57 929,-483.57 936,-483.57"/>
<text text-anchor="start" x="932.5" y="-495.8" font-family="Times,serif" font-size="14.00">%11</text>
</g>
<!-- node14 -->
<g id="node15" class="node">
<title>node14</title>
<polygon fill="none" stroke="black" points="496,-240.5 496,-308.5 1369,-308.5 1369,-240.5 496,-240.5"/>
<text text-anchor="start" x="504" y="-293.3" font-family="Times,serif" font-size="14.00">Join %12 %13</text>
<text text-anchor="start" x="504" y="-278.3" font-family="Times,serif" font-size="14.00"> implementation = Unimplemented</text>
<text text-anchor="start" x="504" y="-263.3" font-family="Times,serif" font-size="14.00"> types = (double precision?, double precision, double precision?, double precision, double precision?, double precision?)</text>
<text text-anchor="start" x="504" y="-248.3" font-family="Times,serif" font-size="14.00"> keys = ()</text>
</g>
<!-- node12&#45;&gt;node14 -->
<g id="edge16" class="edge">
<title>node12&#45;&gt;node14</title>
<path fill="none" stroke="black" d="M932.5,-360.47C932.5,-346.67 932.5,-332.08 932.5,-318.95"/>
<polygon fill="black" stroke="black" points="936,-318.79 932.5,-308.79 929,-318.79 936,-318.79"/>
<text text-anchor="start" x="932.5" y="-330.8" font-family="Times,serif" font-size="14.00">%12</text>
</g>
<!-- node13 -->
<g id="node14" class="node">
<title>node13</title>
<polygon fill="none" stroke="black" points="0,-390.5 0,-443.5 351,-443.5 351,-390.5 0,-390.5"/>
<text text-anchor="start" x="8" y="-428.3" font-family="Times,serif" font-size="14.00">Constant (null, null)</text>
<text text-anchor="start" x="8" y="-413.3" font-family="Times,serif" font-size="14.00"> types = (double precision?, double precision?)</text>
<text text-anchor="start" x="8" y="-398.3" font-family="Times,serif" font-size="14.00"> keys = (())</text>
</g>
<!-- node13&#45;&gt;node14 -->
<g id="edge11" class="edge">
<title>node13&#45;&gt;node14</title>
<path fill="none" stroke="black" d="M250.47,-390.41C283.59,-379.83 323.17,-368.16 359.5,-360 450.17,-339.64 550.04,-322.96 640.66,-309.97"/>
<polygon fill="black" stroke="black" points="641.4,-313.4 650.81,-308.53 640.42,-306.47 641.4,-313.4"/>
<text text-anchor="start" x="516.5" y="-330.8" font-family="Times,serif" font-size="14.00">%13</text>
</g>
<!-- node14&#45;&gt;node15 -->
<g id="edge12" class="edge">
<title>node14&#45;&gt;node15</title>
<path fill="none" stroke="black" d="M999,-240.44C1026.47,-226.78 1059.89,-210.16 1094.16,-193.12"/>
<polygon fill="black" stroke="black" points="1095.97,-196.13 1103.37,-188.54 1092.85,-189.86 1095.97,-196.13"/>
<text text-anchor="start" x="1058.5" y="-210.8" font-family="Times,serif" font-size="14.00">%14</text>
</g>
</g>
</svg>
