<?xml version="1.0" encoding="UTF-8" standalone="no"?>
<!DOCTYPE svg PUBLIC "-//W3C//DTD SVG 1.1//EN"
 "http://www.w3.org/Graphics/SVG/1.1/DTD/svg11.dtd">
<!-- Generated by graphviz version 2.43.0 (0)
 -->
<!-- Title: G Pages: 1 -->
<svg width="1050pt" height="317pt"
 viewBox="0.00 0.00 1049.50 317.00" xmlns="http://www.w3.org/2000/svg" xmlns:xlink="http://www.w3.org/1999/xlink">
<g id="graph0" class="graph" transform="scale(1 1) rotate(0) translate(4 313)">
<title>G</title>
<polygon fill="white" stroke="transparent" points="-4,4 -4,-313 1045.5,-313 1045.5,4 -4,4"/>
<!-- node0 -->
<g id="node1" class="node">
<title>node0</title>
<polygon fill="none" stroke="black" points="0,-255.5 0,-308.5 344,-308.5 344,-255.5 0,-255.5"/>
<text text-anchor="start" x="8" y="-293.3" font-family="Times,serif" font-size="14.00">Get simplify_outer_joins.public.t1 (u101)</text>
<text text-anchor="start" x="8" y="-278.3" font-family="Times,serif" font-size="14.00"> types = (double precision?, double precision)</text>
<text text-anchor="start" x="8" y="-263.3" font-family="Times,serif" font-size="14.00"> keys = ()</text>
</g>
<!-- node2 -->
<g id="node3" class="node">
<title>node2</title>
<polygon fill="none" stroke="black" points="47,-150.5 47,-203.5 659,-203.5 659,-150.5 47,-150.5"/>
<text text-anchor="start" x="55" y="-188.3" font-family="Times,serif" font-size="14.00">LeftOuterJoin %0 %1 on (true &amp;&amp; (#0 = #2))</text>
<text text-anchor="start" x="55" y="-173.3" font-family="Times,serif" font-size="14.00"> types = (double precision?, double precision, double precision?, double precision?)</text>
<text text-anchor="start" x="55" y="-158.3" font-family="Times,serif" font-size="14.00"> keys = ()</text>
</g>
<!-- node0&#45;&gt;node2 -->
<g id="edge4" class="edge">
<title>node0&#45;&gt;node2</title>
<path fill="none" stroke="black" d="M217.21,-255.27C242.03,-241.15 272.97,-223.54 299.05,-208.7"/>
<polygon fill="black" stroke="black" points="301.1,-211.56 308.06,-203.58 297.63,-205.48 301.1,-211.56"/>
<text text-anchor="start" x="274" y="-225.8" font-family="Times,serif" font-size="14.00">%0</text>
</g>
<!-- node1 -->
<g id="node2" class="node">
<title>node1</title>
<polygon fill="none" stroke="black" points="362,-255.5 362,-308.5 706,-308.5 706,-255.5 362,-255.5"/>
<text text-anchor="start" x="370" y="-293.3" font-family="Times,serif" font-size="14.00">Get simplify_outer_joins.public.t1 (u101)</text>
<text text-anchor="start" x="370" y="-278.3" font-family="Times,serif" font-size="14.00"> types = (double precision?, double precision)</text>
<text text-anchor="start" x="370" y="-263.3" font-family="Times,serif" font-size="14.00"> keys = ()</text>
</g>
<!-- node1&#45;&gt;node2 -->
<g id="edge1" class="edge">
<title>node1&#45;&gt;node2</title>
<path fill="none" stroke="black" d="M488.79,-255.27C463.97,-241.15 433.03,-223.54 406.95,-208.7"/>
<polygon fill="black" stroke="black" points="408.37,-205.48 397.94,-203.58 404.9,-211.56 408.37,-205.48"/>
<text text-anchor="start" x="455" y="-225.8" font-family="Times,serif" font-size="14.00">%1</text>
</g>
<!-- node4 -->
<g id="node5" class="node">
<title>node4</title>
<polygon fill="none" stroke="black" points="160.5,-0.5 160.5,-98.5 1041.5,-98.5 1041.5,-0.5 160.5,-0.5"/>
<text text-anchor="start" x="168.5" y="-83.3" font-family="Times,serif" font-size="14.00">LeftOuterJoin %2 %3 on true</text>
<text text-anchor="start" x="168.5" y="-68.3" font-family="Times,serif" font-size="14.00"> types = (double precision?, double precision, double precision?, double precision?, double precision?, double precision?)</text>
<text text-anchor="start" x="168.5" y="-53.3" font-family="Times,serif" font-size="14.00"> keys = ()</text>
<text text-anchor="start" x="168.5" y="-38.3" font-family="Times,serif" font-size="14.00"> Filter (((((#0 = #2) &amp;&amp; (#3 = #0)) &amp;&amp; (#2 = #1)) &amp;&amp; (#2 &lt; #1)) &amp;&amp; (#3 = i32tof64(5)))</text>
<text text-anchor="start" x="168.5" y="-23.3" font-family="Times,serif" font-size="14.00"> types = (double precision?, double precision, double precision?, double precision?, double precision?, double precision?)</text>
<text text-anchor="start" x="168.5" y="-8.3" font-family="Times,serif" font-size="14.00"> keys = ()</text>
</g>
<!-- node2&#45;&gt;node4 -->
<g id="edge2" class="edge">
<title>node2&#45;&gt;node4</title>
<path fill="none" stroke="black" d="M403.49,-150.45C430.41,-136.83 464.58,-119.54 496.89,-103.18"/>
<polygon fill="black" stroke="black" points="498.61,-106.24 505.95,-98.6 495.44,-99.99 498.61,-106.24"/>
<text text-anchor="start" x="470" y="-120.8" font-family="Times,serif" font-size="14.00">%2</text>
</g>
<!-- node3 -->
<g id="node4" class="node">
<title>node3</title>
<polygon fill="none" stroke="black" points="677,-150.5 677,-203.5 1021,-203.5 1021,-150.5 677,-150.5"/>
<text text-anchor="start" x="685" y="-188.3" font-family="Times,serif" font-size="14.00">Get simplify_outer_joins.public.t2 (u103)</text>
<text text-anchor="start" x="685" y="-173.3" font-family="Times,serif" font-size="14.00"> types = (double precision?, double precision)</text>
<text text-anchor="start" x="685" y="-158.3" font-family="Times,serif" font-size="14.00"> keys = ()</text>
</g>
<!-- node3&#45;&gt;node4 -->
<g id="edge3" class="edge">
<title>node3&#45;&gt;node4</title>
<path fill="none" stroke="black" d="M798.51,-150.45C771.59,-136.83 737.42,-119.54 705.11,-103.18"/>
<polygon fill="black" stroke="black" points="706.56,-99.99 696.05,-98.6 703.39,-106.24 706.56,-99.99"/>
<text text-anchor="start" x="761" y="-120.8" font-family="Times,serif" font-size="14.00">%3</text>
</g>
</g>
</svg>
