<?xml version="1.0" encoding="UTF-8" standalone="no"?>
<!DOCTYPE svg PUBLIC "-//W3C//DTD SVG 1.1//EN"
 "http://www.w3.org/Graphics/SVG/1.1/DTD/svg11.dtd">
<!-- Generated by graphviz version 2.43.0 (0)
 -->
<!-- Title: G Pages: 1 -->
<svg width="372pt" height="302pt"
 viewBox="0.00 0.00 372.00 302.00" xmlns="http://www.w3.org/2000/svg" xmlns:xlink="http://www.w3.org/1999/xlink">
<g id="graph0" class="graph" transform="scale(1 1) rotate(0) translate(4 298)">
<title>G</title>
<polygon fill="white" stroke="transparent" points="-4,4 -4,-298 368,-298 368,4 -4,4"/>
<!-- node0 -->
<g id="node1" class="node">
<title>node0</title>
<polygon fill="none" stroke="black" points="0,-255.5 0,-293.5 101,-293.5 101,-255.5 0,-255.5"/>
<text text-anchor="start" x="8" y="-278.3" font-family="Times,serif" font-size="14.00">Let l0 =</text>
<text text-anchor="start" x="8" y="-263.3" font-family="Times,serif" font-size="14.00"> Constant ()</text>
</g>
<!-- node2 -->
<g id="node3" class="node">
<title>node2</title>
<polygon fill="none" stroke="black" points="11,-150.5 11,-203.5 280,-203.5 280,-150.5 11,-150.5"/>
<text text-anchor="start" x="19" y="-188.3" font-family="Times,serif" font-size="14.00">Let l1 =</text>
<text text-anchor="start" x="19" y="-173.3" font-family="Times,serif" font-size="14.00"> Join %0 %1</text>
<text text-anchor="start" x="19" y="-158.3" font-family="Times,serif" font-size="14.00"> implementation = Unimplemented</text>
</g>
<!-- node0&#45;&gt;node2 -->
<g id="edge3" class="edge">
<title>node0&#45;&gt;node2</title>
<path fill="none" stroke="black" d="M68.82,-255.09C81.21,-242.62 97.94,-225.81 112.61,-211.06"/>
<polygon fill="black" stroke="black" points="115.49,-213.13 120.06,-203.58 110.52,-208.2 115.49,-213.13"/>
<text text-anchor="start" x="101.5" y="-225.8" font-family="Times,serif" font-size="14.00">%0</text>
</g>
<!-- node1 -->
<g id="node2" class="node">
<title>node1</title>
<polygon fill="none" stroke="black" points="119,-256.5 119,-292.5 364,-292.5 364,-256.5 119,-256.5"/>
<text text-anchor="start" x="127" y="-270.8" font-family="Times,serif" font-size="14.00">Get issue_10800.public.t1 (u87)</text>
</g>
<!-- node1&#45;&gt;node2 -->
<g id="edge2" class="edge">
<title>node1&#45;&gt;node2</title>
<path fill="none" stroke="black" d="M224.34,-256.43C211.64,-243.79 193.94,-226.19 178.54,-210.86"/>
<polygon fill="black" stroke="black" points="180.75,-208.13 171.19,-203.55 175.81,-213.09 180.75,-208.13"/>
<text text-anchor="start" x="201.5" y="-225.8" font-family="Times,serif" font-size="14.00">%1</text>
</g>
<!-- node3 -->
<g id="node4" class="node">
<title>node3</title>
<polygon fill="none" stroke="black" points="63.5,-0.5 63.5,-98.5 227.5,-98.5 227.5,-0.5 63.5,-0.5"/>
<text text-anchor="start" x="71.5" y="-83.3" font-family="Times,serif" font-size="14.00">Get %2 (l1)</text>
<text text-anchor="start" x="71.5" y="-68.3" font-family="Times,serif" font-size="14.00"> Map #1</text>
<text text-anchor="start" x="71.5" y="-53.3" font-family="Times,serif" font-size="14.00"> Project (#0..=#2)</text>
<text text-anchor="start" x="71.5" y="-38.3" font-family="Times,serif" font-size="14.00"> Reduce group=(#2)</text>
<text text-anchor="start" x="71.5" y="-23.3" font-family="Times,serif" font-size="14.00"> agg count(true)</text>
<text text-anchor="start" x="71.5" y="-8.3" font-family="Times,serif" font-size="14.00"> Project (#1)</text>
</g>
<!-- node2&#45;&gt;node3 -->
<g id="edge1" class="edge">
<title>node2&#45;&gt;node3</title>
<path fill="none" stroke="black" d="M145.5,-150.3C145.5,-138.24 145.5,-123.33 145.5,-108.75"/>
<polygon fill="black" stroke="black" points="149,-108.75 145.5,-98.75 142,-108.75 149,-108.75"/>
<text text-anchor="start" x="145.5" y="-120.8" font-family="Times,serif" font-size="14.00">%2</text>
</g>
</g>
</svg>
