<?xml version="1.0" encoding="UTF-8" standalone="no"?>
<!DOCTYPE svg PUBLIC "-//W3C//DTD SVG 1.1//EN"
 "http://www.w3.org/Graphics/SVG/1.1/DTD/svg11.dtd">
<!-- Generated by graphviz version 2.43.0 (0)
 -->
<!-- Title: G Pages: 1 -->
<svg width="372pt" height="512pt"
 viewBox="0.00 0.00 372.00 512.00" xmlns="http://www.w3.org/2000/svg" xmlns:xlink="http://www.w3.org/1999/xlink">
<g id="graph0" class="graph" transform="scale(1 1) rotate(0) translate(4 508)">
<title>G</title>
<polygon fill="white" stroke="transparent" points="-4,4 -4,-508 368,-508 368,4 -4,4"/>
<!-- node0 -->
<g id="node1" class="node">
<title>node0</title>
<polygon fill="none" stroke="black" points="0,-435.5 0,-503.5 101,-503.5 101,-435.5 0,-435.5"/>
<text text-anchor="start" x="8" y="-488.3" font-family="Times,serif" font-size="14.00">Let l0 =</text>
<text text-anchor="start" x="8" y="-473.3" font-family="Times,serif" font-size="14.00"> Constant ()</text>
<text text-anchor="start" x="8" y="-458.3" font-family="Times,serif" font-size="14.00"> types = ()</text>
<text text-anchor="start" x="8" y="-443.3" font-family="Times,serif" font-size="14.00"> keys = (())</text>
</g>
<!-- node2 -->
<g id="node3" class="node">
<title>node2</title>
<polygon fill="none" stroke="black" points="11,-300.5 11,-383.5 280,-383.5 280,-300.5 11,-300.5"/>
<text text-anchor="start" x="19" y="-368.3" font-family="Times,serif" font-size="14.00">Let l1 =</text>
<text text-anchor="start" x="19" y="-353.3" font-family="Times,serif" font-size="14.00"> Join %0 %1</text>
<text text-anchor="start" x="19" y="-338.3" font-family="Times,serif" font-size="14.00"> implementation = Unimplemented</text>
<text text-anchor="start" x="19" y="-323.3" font-family="Times,serif" font-size="14.00"> types = (integer?, integer?)</text>
<text text-anchor="start" x="19" y="-308.3" font-family="Times,serif" font-size="14.00"> keys = ()</text>
</g>
<!-- node0&#45;&gt;node2 -->
<g id="edge3" class="edge">
<title>node0&#45;&gt;node2</title>
<path fill="none" stroke="black" d="M75.71,-435.2C85.73,-421.96 97.45,-406.47 108.41,-392"/>
<polygon fill="black" stroke="black" points="111.5,-393.71 114.75,-383.63 105.92,-389.49 111.5,-393.71"/>
<text text-anchor="start" x="98.5" y="-405.8" font-family="Times,serif" font-size="14.00">%0</text>
</g>
<!-- node1 -->
<g id="node2" class="node">
<title>node1</title>
<polygon fill="none" stroke="black" points="119,-443 119,-496 364,-496 364,-443 119,-443"/>
<text text-anchor="start" x="127" y="-480.8" font-family="Times,serif" font-size="14.00">Get issue_10800.public.t1 (u87)</text>
<text text-anchor="start" x="127" y="-465.8" font-family="Times,serif" font-size="14.00"> types = (integer?, integer?)</text>
<text text-anchor="start" x="127" y="-450.8" font-family="Times,serif" font-size="14.00"> keys = ()</text>
</g>
<!-- node1&#45;&gt;node2 -->
<g id="edge2" class="edge">
<title>node1&#45;&gt;node2</title>
<path fill="none" stroke="black" d="M221.84,-442.8C210.72,-428.26 196.43,-409.57 183.22,-392.32"/>
<polygon fill="black" stroke="black" points="185.7,-389.8 176.85,-383.98 180.14,-394.05 185.7,-389.8"/>
<text text-anchor="start" x="201.5" y="-405.8" font-family="Times,serif" font-size="14.00">%1</text>
</g>
<!-- node3 -->
<g id="node4" class="node">
<title>node3</title>
<polygon fill="none" stroke="black" points="2,-0.5 2,-248.5 289,-248.5 289,-0.5 2,-0.5"/>
<text text-anchor="start" x="10" y="-233.3" font-family="Times,serif" font-size="14.00">Get %2 (l1)</text>
<text text-anchor="start" x="10" y="-218.3" font-family="Times,serif" font-size="14.00"> types = (integer?, integer?)</text>
<text text-anchor="start" x="10" y="-203.3" font-family="Times,serif" font-size="14.00"> keys = ()</text>
<text text-anchor="start" x="10" y="-188.3" font-family="Times,serif" font-size="14.00"> Map #1</text>
<text text-anchor="start" x="10" y="-173.3" font-family="Times,serif" font-size="14.00"> types = (integer?, integer?, integer?)</text>
<text text-anchor="start" x="10" y="-158.3" font-family="Times,serif" font-size="14.00"> keys = ()</text>
<text text-anchor="start" x="10" y="-143.3" font-family="Times,serif" font-size="14.00"> Project (#0..=#2)</text>
<text text-anchor="start" x="10" y="-128.3" font-family="Times,serif" font-size="14.00"> types = (integer?, integer?, integer?)</text>
<text text-anchor="start" x="10" y="-113.3" font-family="Times,serif" font-size="14.00"> keys = ()</text>
<text text-anchor="start" x="10" y="-98.3" font-family="Times,serif" font-size="14.00"> Reduce group=(#2)</text>
<text text-anchor="start" x="10" y="-83.3" font-family="Times,serif" font-size="14.00"> agg count(true)</text>
<text text-anchor="start" x="10" y="-68.3" font-family="Times,serif" font-size="14.00"> types = (integer?, bigint)</text>
<text text-anchor="start" x="10" y="-53.3" font-family="Times,serif" font-size="14.00"> keys = ((#0))</text>
<text text-anchor="start" x="10" y="-38.3" font-family="Times,serif" font-size="14.00"> Project (#1)</text>
<text text-anchor="start" x="10" y="-23.3" font-family="Times,serif" font-size="14.00"> types = (bigint)</text>
<text text-anchor="start" x="10" y="-8.3" font-family="Times,serif" font-size="14.00"> keys = ()</text>
</g>
<!-- node2&#45;&gt;node3 -->
<g id="edge1" class="edge">
<title>node2&#45;&gt;node3</title>
<path fill="none" stroke="black" d="M145.5,-300.47C145.5,-288.18 145.5,-273.96 145.5,-259.03"/>
<polygon fill="black" stroke="black" points="149,-258.6 145.5,-248.6 142,-258.6 149,-258.6"/>
<text text-anchor="start" x="145.5" y="-270.8" font-family="Times,serif" font-size="14.00">%2</text>
</g>
</g>
</svg>
