<?xml version="1.0" encoding="UTF-8" standalone="no"?>
<!DOCTYPE svg PUBLIC "-//W3C//DTD SVG 1.1//EN"
 "http://www.w3.org/Graphics/SVG/1.1/DTD/svg11.dtd">
<!-- Generated by graphviz version 2.43.0 (0)
 -->
<!-- Title: G Pages: 1 -->
<svg width="870pt" height="808pt"
 viewBox="0.00 0.00 869.50 808.00" xmlns="http://www.w3.org/2000/svg" xmlns:xlink="http://www.w3.org/1999/xlink">
<g id="graph0" class="graph" transform="scale(1 1) rotate(0) translate(4 804)">
<title>G</title>
<polygon fill="white" stroke="transparent" points="-4,4 -4,-804 865.5,-804 865.5,4 -4,4"/>
<!-- node0 -->
<g id="node1" class="node">
<title>node0</title>
<polygon fill="none" stroke="black" points="312.5,-761.5 312.5,-799.5 413.5,-799.5 413.5,-761.5 312.5,-761.5"/>
<text text-anchor="start" x="320.5" y="-784.3" font-family="Times,serif" font-size="14.00">Let l0 =</text>
<text text-anchor="start" x="320.5" y="-769.3" font-family="Times,serif" font-size="14.00"> Constant ()</text>
</g>
<!-- node2 -->
<g id="node3" class="node">
<title>node2</title>
<polygon fill="none" stroke="black" points="28.5,-656.5 28.5,-709.5 297.5,-709.5 297.5,-656.5 28.5,-656.5"/>
<text text-anchor="start" x="36.5" y="-694.3" font-family="Times,serif" font-size="14.00">Let l1 =</text>
<text text-anchor="start" x="36.5" y="-679.3" font-family="Times,serif" font-size="14.00"> Join %0 %1</text>
<text text-anchor="start" x="36.5" y="-664.3" font-family="Times,serif" font-size="14.00"> implementation = Unimplemented</text>
</g>
<!-- node0&#45;&gt;node2 -->
<g id="edge13" class="edge">
<title>node0&#45;&gt;node2</title>
<path fill="none" stroke="black" d="M324.91,-761.31C296.96,-747.96 258.36,-729.53 225.86,-714.02"/>
<polygon fill="black" stroke="black" points="226.97,-710.66 216.43,-709.51 223.95,-716.98 226.97,-710.66"/>
<text text-anchor="start" x="281" y="-731.8" font-family="Times,serif" font-size="14.00">%0</text>
</g>
<!-- node4 -->
<g id="node5" class="node">
<title>node4</title>
<polygon fill="none" stroke="black" points="429.5,-656.5 429.5,-709.5 698.5,-709.5 698.5,-656.5 429.5,-656.5"/>
<text text-anchor="start" x="437.5" y="-694.3" font-family="Times,serif" font-size="14.00">Let l2 =</text>
<text text-anchor="start" x="437.5" y="-679.3" font-family="Times,serif" font-size="14.00"> Join %0 %3</text>
<text text-anchor="start" x="437.5" y="-664.3" font-family="Times,serif" font-size="14.00"> implementation = Unimplemented</text>
</g>
<!-- node0&#45;&gt;node4 -->
<g id="edge16" class="edge">
<title>node0&#45;&gt;node4</title>
<path fill="none" stroke="black" d="M401.28,-761.31C429.49,-747.91 468.5,-729.38 501.24,-713.82"/>
<polygon fill="black" stroke="black" points="502.77,-716.97 510.3,-709.51 499.77,-710.64 502.77,-716.97"/>
<text text-anchor="start" x="469" y="-731.8" font-family="Times,serif" font-size="14.00">%0</text>
</g>
<!-- node1 -->
<g id="node2" class="node">
<title>node1</title>
<polygon fill="none" stroke="black" points="6,-762.5 6,-798.5 294,-798.5 294,-762.5 6,-762.5"/>
<text text-anchor="start" x="14" y="-776.8" font-family="Times,serif" font-size="14.00">Get simplify_outer_joins.public.l (u95)</text>
</g>
<!-- node1&#45;&gt;node2 -->
<g id="edge14" class="edge">
<title>node1&#45;&gt;node2</title>
<path fill="none" stroke="black" d="M152.32,-762.43C153.93,-750.6 156.14,-734.41 158.12,-719.82"/>
<polygon fill="black" stroke="black" points="161.64,-719.94 159.52,-709.55 154.7,-718.99 161.64,-719.94"/>
<text text-anchor="start" x="157" y="-731.8" font-family="Times,serif" font-size="14.00">%1</text>
</g>
<!-- node5 -->
<g id="node6" class="node">
<title>node5</title>
<polygon fill="none" stroke="black" points="232.5,-521.5 232.5,-604.5 501.5,-604.5 501.5,-521.5 232.5,-521.5"/>
<text text-anchor="start" x="240.5" y="-589.3" font-family="Times,serif" font-size="14.00">Let l3 =</text>
<text text-anchor="start" x="240.5" y="-574.3" font-family="Times,serif" font-size="14.00"> Join %2 %4</text>
<text text-anchor="start" x="240.5" y="-559.3" font-family="Times,serif" font-size="14.00"> implementation = Unimplemented</text>
<text text-anchor="start" x="240.5" y="-544.3" font-family="Times,serif" font-size="14.00"> Project (#0..=#3)</text>
<text text-anchor="start" x="240.5" y="-529.3" font-family="Times,serif" font-size="14.00"> Filter (#1 = #2)</text>
</g>
<!-- node2&#45;&gt;node5 -->
<g id="edge17" class="edge">
<title>node2&#45;&gt;node5</title>
<path fill="none" stroke="black" d="M207.26,-656.4C230.84,-642.76 260.56,-625.57 287.95,-609.72"/>
<polygon fill="black" stroke="black" points="289.85,-612.67 296.75,-604.63 286.34,-606.61 289.85,-612.67"/>
<text text-anchor="start" x="265" y="-626.8" font-family="Times,serif" font-size="14.00">%2</text>
</g>
<!-- node9 -->
<g id="node10" class="node">
<title>node9</title>
<polygon fill="none" stroke="black" points="28.5,-281.5 28.5,-349.5 297.5,-349.5 297.5,-281.5 28.5,-281.5"/>
<text text-anchor="start" x="36.5" y="-334.3" font-family="Times,serif" font-size="14.00">Join %2 %6 (= #1 #2)</text>
<text text-anchor="start" x="36.5" y="-319.3" font-family="Times,serif" font-size="14.00"> implementation = Unimplemented</text>
<text text-anchor="start" x="36.5" y="-304.3" font-family="Times,serif" font-size="14.00"> Project (#0, #1)</text>
<text text-anchor="start" x="36.5" y="-289.3" font-family="Times,serif" font-size="14.00"> Negate</text>
</g>
<!-- node2&#45;&gt;node9 -->
<g id="edge9" class="edge">
<title>node2&#45;&gt;node9</title>
<path fill="none" stroke="black" d="M163,-656.3C163,-594.45 163,-436.79 163,-359.94"/>
<polygon fill="black" stroke="black" points="166.5,-359.65 163,-349.65 159.5,-359.65 166.5,-359.65"/>
<text text-anchor="start" x="163" y="-491.8" font-family="Times,serif" font-size="14.00">%2</text>
</g>
<!-- node10 -->
<g id="node11" class="node">
<title>node10</title>
<polygon fill="none" stroke="black" points="103,-184 103,-222 223,-222 223,-184 103,-184"/>
<text text-anchor="start" x="111" y="-206.8" font-family="Times,serif" font-size="14.00">Union %9 %2</text>
<text text-anchor="start" x="111" y="-191.8" font-family="Times,serif" font-size="14.00"> Map null, null</text>
</g>
<!-- node2&#45;&gt;node10 -->
<g id="edge6" class="edge">
<title>node2&#45;&gt;node10</title>
<path fill="none" stroke="black" d="M81.02,-656.32C40.43,-637.99 0,-608.54 0,-564 0,-564 0,-564 0,-314.5 0,-266.56 48.9,-237.99 93.13,-221.95"/>
<polygon fill="black" stroke="black" points="94.46,-225.19 102.77,-218.62 92.17,-218.57 94.46,-225.19"/>
<text text-anchor="start" x="0" y="-431.8" font-family="Times,serif" font-size="14.00">%2</text>
</g>
<!-- node3 -->
<g id="node4" class="node">
<title>node3</title>
<polygon fill="none" stroke="black" points="432,-762.5 432,-798.5 722,-798.5 722,-762.5 432,-762.5"/>
<text text-anchor="start" x="440" y="-776.8" font-family="Times,serif" font-size="14.00">Get simplify_outer_joins.public.r (u97)</text>
</g>
<!-- node3&#45;&gt;node4 -->
<g id="edge2" class="edge">
<title>node3&#45;&gt;node4</title>
<path fill="none" stroke="black" d="M574.68,-762.43C573.07,-750.6 570.86,-734.41 568.88,-719.82"/>
<polygon fill="black" stroke="black" points="572.3,-718.99 567.48,-709.55 565.36,-719.94 572.3,-718.99"/>
<text text-anchor="start" x="571" y="-731.8" font-family="Times,serif" font-size="14.00">%3</text>
</g>
<!-- node4&#45;&gt;node5 -->
<g id="edge4" class="edge">
<title>node4&#45;&gt;node5</title>
<path fill="none" stroke="black" d="M521.25,-656.4C498.58,-642.82 470.03,-625.72 443.68,-609.93"/>
<polygon fill="black" stroke="black" points="445.21,-606.77 434.84,-604.63 441.62,-612.77 445.21,-606.77"/>
<text text-anchor="start" x="488" y="-626.8" font-family="Times,serif" font-size="14.00">%4</text>
</g>
<!-- node7 -->
<g id="node8" class="node">
<title>node7</title>
<polygon fill="none" stroke="black" points="592.5,-281.5 592.5,-349.5 861.5,-349.5 861.5,-281.5 592.5,-281.5"/>
<text text-anchor="start" x="600.5" y="-334.3" font-family="Times,serif" font-size="14.00">Join %4 %6 (= #0 #2)</text>
<text text-anchor="start" x="600.5" y="-319.3" font-family="Times,serif" font-size="14.00"> implementation = Unimplemented</text>
<text text-anchor="start" x="600.5" y="-304.3" font-family="Times,serif" font-size="14.00"> Project (#0, #1)</text>
<text text-anchor="start" x="600.5" y="-289.3" font-family="Times,serif" font-size="14.00"> Negate</text>
</g>
<!-- node4&#45;&gt;node7 -->
<g id="edge5" class="edge">
<title>node4&#45;&gt;node7</title>
<path fill="none" stroke="black" d="M575.46,-656.3C603.15,-594.2 673.93,-435.5 708.05,-359"/>
<polygon fill="black" stroke="black" points="711.34,-360.2 712.22,-349.65 704.95,-357.35 711.34,-360.2"/>
<text text-anchor="start" x="649" y="-491.8" font-family="Times,serif" font-size="14.00">%4</text>
</g>
<!-- node8 -->
<g id="node9" class="node">
<title>node8</title>
<polygon fill="none" stroke="black" points="465,-176.5 465,-229.5 663,-229.5 663,-176.5 465,-176.5"/>
<text text-anchor="start" x="473" y="-214.3" font-family="Times,serif" font-size="14.00">Union %7 %4</text>
<text text-anchor="start" x="473" y="-199.3" font-family="Times,serif" font-size="14.00"> Map null, null</text>
<text text-anchor="start" x="473" y="-184.3" font-family="Times,serif" font-size="14.00"> Project (#2, #3, #0, #1)</text>
</g>
<!-- node4&#45;&gt;node8 -->
<g id="edge18" class="edge">
<title>node4&#45;&gt;node8</title>
<path fill="none" stroke="black" d="M564,-656.22C564,-632.31 564,-595.75 564,-564 564,-564 564,-564 564,-314.5 564,-289.61 564,-261.56 564,-239.95"/>
<polygon fill="black" stroke="black" points="567.5,-239.9 564,-229.9 560.5,-239.9 567.5,-239.9"/>
<text text-anchor="start" x="564" y="-431.8" font-family="Times,serif" font-size="14.00">%4</text>
</g>
<!-- node6 -->
<g id="node7" class="node">
<title>node6</title>
<polygon fill="none" stroke="black" points="361.5,-401.5 361.5,-469.5 528.5,-469.5 528.5,-401.5 361.5,-401.5"/>
<text text-anchor="start" x="369.5" y="-454.3" font-family="Times,serif" font-size="14.00">Let l4 =</text>
<text text-anchor="start" x="369.5" y="-439.3" font-family="Times,serif" font-size="14.00"> Get %5 (l3)</text>
<text text-anchor="start" x="369.5" y="-424.3" font-family="Times,serif" font-size="14.00"> Project (#1)</text>
<text text-anchor="start" x="369.5" y="-409.3" font-family="Times,serif" font-size="14.00"> Distinct group=(#0)</text>
</g>
<!-- node5&#45;&gt;node6 -->
<g id="edge11" class="edge">
<title>node5&#45;&gt;node6</title>
<path fill="none" stroke="black" d="M392.32,-521.25C400.86,-507.52 410.4,-492.17 418.99,-478.34"/>
<polygon fill="black" stroke="black" points="422.18,-479.85 424.48,-469.51 416.23,-476.16 422.18,-479.85"/>
<text text-anchor="start" x="412" y="-491.8" font-family="Times,serif" font-size="14.00">%5</text>
</g>
<!-- node11 -->
<g id="node12" class="node">
<title>node11</title>
<polygon fill="none" stroke="black" points="273,-88.5 273,-124.5 395,-124.5 395,-88.5 273,-88.5"/>
<text text-anchor="start" x="281" y="-102.8" font-family="Times,serif" font-size="14.00">Union %10 %5</text>
</g>
<!-- node5&#45;&gt;node11 -->
<g id="edge12" class="edge">
<title>node5&#45;&gt;node11</title>
<path fill="none" stroke="black" d="M350.69,-521.44C342.38,-497.2 334,-465.56 334,-436.5 334,-436.5 334,-436.5 334,-202 334,-179.37 334,-153.69 334,-134.82"/>
<polygon fill="black" stroke="black" points="337.5,-134.57 334,-124.57 330.5,-134.57 337.5,-134.57"/>
<text text-anchor="start" x="334" y="-311.8" font-family="Times,serif" font-size="14.00">%5</text>
</g>
<!-- node6&#45;&gt;node7 -->
<g id="edge1" class="edge">
<title>node6&#45;&gt;node7</title>
<path fill="none" stroke="black" d="M523.93,-401.47C559.53,-386.58 601.72,-368.92 638.4,-353.57"/>
<polygon fill="black" stroke="black" points="640.22,-356.61 648.09,-349.52 637.52,-350.15 640.22,-356.61"/>
<text text-anchor="start" x="602" y="-371.8" font-family="Times,serif" font-size="14.00">%6</text>
</g>
<!-- node6&#45;&gt;node9 -->
<g id="edge3" class="edge">
<title>node6&#45;&gt;node9</title>
<path fill="none" stroke="black" d="M366.07,-401.47C330.47,-386.58 288.28,-368.92 251.6,-353.57"/>
<polygon fill="black" stroke="black" points="252.48,-350.15 241.91,-349.52 249.78,-356.61 252.48,-350.15"/>
<text text-anchor="start" x="320" y="-371.8" font-family="Times,serif" font-size="14.00">%6</text>
</g>
<!-- node7&#45;&gt;node8 -->
<g id="edge10" class="edge">
<title>node7&#45;&gt;node8</title>
<path fill="none" stroke="black" d="M678.09,-281.35C656.58,-266.76 631.44,-249.72 610.25,-235.35"/>
<polygon fill="black" stroke="black" points="611.97,-232.29 601.73,-229.58 608.04,-238.09 611.97,-232.29"/>
<text text-anchor="start" x="650" y="-251.8" font-family="Times,serif" font-size="14.00">%7</text>
</g>
<!-- node12 -->
<g id="node13" class="node">
<title>node12</title>
<polygon fill="none" stroke="black" points="387,-0.5 387,-36.5 509,-36.5 509,-0.5 387,-0.5"/>
<text text-anchor="start" x="395" y="-14.8" font-family="Times,serif" font-size="14.00">Union %8 %11</text>
</g>
<!-- node8&#45;&gt;node12 -->
<g id="edge15" class="edge">
<title>node8&#45;&gt;node12</title>
<path fill="none" stroke="black" d="M547.63,-176.24C525.61,-141.6 486.69,-80.37 464.57,-45.57"/>
<polygon fill="black" stroke="black" points="467.39,-43.48 459.07,-36.92 461.48,-47.23 467.39,-43.48"/>
<text text-anchor="start" x="513" y="-102.8" font-family="Times,serif" font-size="14.00">%8</text>
</g>
<!-- node9&#45;&gt;node10 -->
<g id="edge19" class="edge">
<title>node9&#45;&gt;node10</title>
<path fill="none" stroke="black" d="M163,-281.35C163,-265.69 163,-247.21 163,-232.23"/>
<polygon fill="black" stroke="black" points="166.5,-232.04 163,-222.04 159.5,-232.04 166.5,-232.04"/>
<text text-anchor="start" x="163" y="-251.8" font-family="Times,serif" font-size="14.00">%9</text>
</g>
<!-- node10&#45;&gt;node11 -->
<g id="edge8" class="edge">
<title>node10&#45;&gt;node11</title>
<path fill="none" stroke="black" d="M195.97,-183.78C224.03,-168.27 264.41,-145.96 294.25,-129.47"/>
<polygon fill="black" stroke="black" points="296.09,-132.45 303.14,-124.55 292.7,-126.33 296.09,-132.45"/>
<text text-anchor="start" x="269" y="-146.8" font-family="Times,serif" font-size="14.00">%10</text>
</g>
<!-- node11&#45;&gt;node12 -->
<g id="edge7" class="edge">
<title>node11&#45;&gt;node12</title>
<path fill="none" stroke="black" d="M356.8,-88.3C374.12,-75.24 398.12,-57.13 417.16,-42.77"/>
<polygon fill="black" stroke="black" points="419.37,-45.48 425.24,-36.67 415.15,-39.9 419.37,-45.48"/>
<text text-anchor="start" x="397" y="-58.8" font-family="Times,serif" font-size="14.00">%11</text>
</g>
</g>
</svg>
