<?xml version="1.0" encoding="UTF-8" standalone="no"?>
<!DOCTYPE svg PUBLIC "-//W3C//DTD SVG 1.1//EN"
 "http://www.w3.org/Graphics/SVG/1.1/DTD/svg11.dtd">
<!-- Generated by graphviz version 2.43.0 (0)
 -->
<!-- Title: G Pages: 1 -->
<svg width="1586pt" height="654pt"
 viewBox="0.00 0.00 1586.00 654.00" xmlns="http://www.w3.org/2000/svg" xmlns:xlink="http://www.w3.org/1999/xlink">
<g id="graph0" class="graph" transform="scale(1 1) rotate(0) translate(4 650)">
<title>G</title>
<polygon fill="white" stroke="transparent" points="-4,4 -4,-650 1582,-650 1582,4 -4,4"/>
<!-- node0 -->
<g id="node1" class="node">
<title>node0</title>
<polygon fill="none" stroke="black" points="0,-592.5 0,-645.5 288,-645.5 288,-592.5 0,-592.5"/>
<text text-anchor="start" x="8" y="-630.3" font-family="Times,serif" font-size="14.00">Get simplify_outer_joins.public.l (u95)</text>
<text text-anchor="start" x="8" y="-615.3" font-family="Times,serif" font-size="14.00"> Filter !(isnull(#1))</text>
<text text-anchor="start" x="8" y="-600.3" font-family="Times,serif" font-size="14.00"> ArrangeBy (#1)</text>
</g>
<!-- node2 -->
<g id="node3" class="node">
<title>node2</title>
<polygon fill="none" stroke="black" points="134,-472.5 134,-540.5 460,-540.5 460,-472.5 134,-472.5"/>
<text text-anchor="start" x="142" y="-525.3" font-family="Times,serif" font-size="14.00">Let l0 =</text>
<text text-anchor="start" x="142" y="-510.3" font-family="Times,serif" font-size="14.00"> Join %0 %1 (= #1 #2)</text>
<text text-anchor="start" x="142" y="-495.3" font-family="Times,serif" font-size="14.00"> implementation = Differential %1 %0.(#1)</text>
<text text-anchor="start" x="142" y="-480.3" font-family="Times,serif" font-size="14.00"> Project (#0, #1, #3)</text>
</g>
<!-- node0&#45;&gt;node2 -->
<g id="edge11" class="edge">
<title>node0&#45;&gt;node2</title>
<path fill="none" stroke="black" d="M179.49,-592.37C198.35,-578.75 221.93,-561.72 243.01,-546.5"/>
<polygon fill="black" stroke="black" points="245.19,-549.23 251.25,-540.54 241.09,-543.56 245.19,-549.23"/>
<text text-anchor="start" x="226" y="-562.8" font-family="Times,serif" font-size="14.00">%0</text>
</g>
<!-- node1 -->
<g id="node2" class="node">
<title>node1</title>
<polygon fill="none" stroke="black" points="306,-600 306,-638 596,-638 596,-600 306,-600"/>
<text text-anchor="start" x="314" y="-622.8" font-family="Times,serif" font-size="14.00">Get simplify_outer_joins.public.r (u97)</text>
<text text-anchor="start" x="314" y="-607.8" font-family="Times,serif" font-size="14.00"> Filter !(isnull(#0))</text>
</g>
<!-- node1&#45;&gt;node2 -->
<g id="edge12" class="edge">
<title>node1&#45;&gt;node2</title>
<path fill="none" stroke="black" d="M425.57,-599.75C405.46,-585.32 376.67,-564.66 351.42,-546.55"/>
<polygon fill="black" stroke="black" points="353.18,-543.5 343.02,-540.52 349.1,-549.19 353.18,-543.5"/>
<text text-anchor="start" x="388" y="-562.8" font-family="Times,serif" font-size="14.00">%1</text>
</g>
<!-- node3 -->
<g id="node4" class="node">
<title>node3</title>
<polygon fill="none" stroke="black" points="610.5,-337.5 610.5,-420.5 777.5,-420.5 777.5,-337.5 610.5,-337.5"/>
<text text-anchor="start" x="618.5" y="-405.3" font-family="Times,serif" font-size="14.00">Let l1 =</text>
<text text-anchor="start" x="618.5" y="-390.3" font-family="Times,serif" font-size="14.00"> Get %2 (l0)</text>
<text text-anchor="start" x="618.5" y="-375.3" font-family="Times,serif" font-size="14.00"> Project (#1)</text>
<text text-anchor="start" x="618.5" y="-360.3" font-family="Times,serif" font-size="14.00"> Distinct group=(#0)</text>
<text text-anchor="start" x="618.5" y="-345.3" font-family="Times,serif" font-size="14.00"> ArrangeBy (#0)</text>
</g>
<!-- node2&#45;&gt;node3 -->
<g id="edge6" class="edge">
<title>node2&#45;&gt;node3</title>
<path fill="none" stroke="black" d="M431.86,-472.49C482.39,-459.02 540.24,-442.29 600.61,-421.01"/>
<polygon fill="black" stroke="black" points="602.08,-424.2 610.32,-417.55 599.73,-417.61 602.08,-424.2"/>
<text text-anchor="start" x="543" y="-442.8" font-family="Times,serif" font-size="14.00">%2</text>
</g>
<!-- node12 -->
<g id="node13" class="node">
<title>node12</title>
<polygon fill="none" stroke="black" points="172,-280.5 172,-318.5 370,-318.5 370,-280.5 172,-280.5"/>
<text text-anchor="start" x="180" y="-303.3" font-family="Times,serif" font-size="14.00">Get %2 (l0)</text>
<text text-anchor="start" x="180" y="-288.3" font-family="Times,serif" font-size="14.00"> Project (#0, #1, #1, #2)</text>
</g>
<!-- node2&#45;&gt;node12 -->
<g id="edge4" class="edge">
<title>node2&#45;&gt;node12</title>
<path fill="none" stroke="black" d="M292.76,-472.11C287.71,-432.25 279.34,-366.29 274.59,-328.82"/>
<polygon fill="black" stroke="black" points="278.03,-328.09 273.3,-318.61 271.08,-328.97 278.03,-328.09"/>
<text text-anchor="start" x="291" y="-442.8" font-family="Times,serif" font-size="14.00">%2</text>
</g>
<!-- node5 -->
<g id="node6" class="node">
<title>node5</title>
<polygon fill="none" stroke="black" points="1252,-193.5 1252,-261.5 1578,-261.5 1578,-193.5 1252,-193.5"/>
<text text-anchor="start" x="1260" y="-246.3" font-family="Times,serif" font-size="14.00">Join %4 %3 (= #0 #2)</text>
<text text-anchor="start" x="1260" y="-231.3" font-family="Times,serif" font-size="14.00"> implementation = Differential %4 %3.(#0)</text>
<text text-anchor="start" x="1260" y="-216.3" font-family="Times,serif" font-size="14.00"> Project (#0, #1)</text>
<text text-anchor="start" x="1260" y="-201.3" font-family="Times,serif" font-size="14.00"> Negate</text>
</g>
<!-- node3&#45;&gt;node5 -->
<g id="edge14" class="edge">
<title>node3&#45;&gt;node5</title>
<path fill="none" stroke="black" d="M777.77,-360.63C891.85,-336.98 1098.68,-294.09 1245.75,-263.59"/>
<polygon fill="black" stroke="black" points="1246.71,-266.97 1255.79,-261.51 1245.29,-260.12 1246.71,-266.97"/>
<text text-anchor="start" x="1161" y="-295.8" font-family="Times,serif" font-size="14.00">%3</text>
</g>
<!-- node9 -->
<g id="node10" class="node">
<title>node9</title>
<polygon fill="none" stroke="black" points="294,-193.5 294,-261.5 620,-261.5 620,-193.5 294,-193.5"/>
<text text-anchor="start" x="302" y="-246.3" font-family="Times,serif" font-size="14.00">Join %8 %3 (= #1 #2)</text>
<text text-anchor="start" x="302" y="-231.3" font-family="Times,serif" font-size="14.00"> implementation = Differential %8 %3.(#0)</text>
<text text-anchor="start" x="302" y="-216.3" font-family="Times,serif" font-size="14.00"> Project (#0, #1)</text>
<text text-anchor="start" x="302" y="-201.3" font-family="Times,serif" font-size="14.00"> Negate</text>
</g>
<!-- node3&#45;&gt;node9 -->
<g id="edge9" class="edge">
<title>node3&#45;&gt;node9</title>
<path fill="none" stroke="black" d="M629.55,-337.35C594.8,-315.43 552.16,-288.53 517.96,-266.95"/>
<polygon fill="black" stroke="black" points="519.78,-263.97 509.46,-261.59 516.05,-269.89 519.78,-263.97"/>
<text text-anchor="start" x="596" y="-295.8" font-family="Times,serif" font-size="14.00">%3</text>
</g>
<!-- node4 -->
<g id="node5" class="node">
<title>node4</title>
<polygon fill="none" stroke="black" points="1270,-361 1270,-397 1560,-397 1560,-361 1270,-361"/>
<text text-anchor="start" x="1278" y="-375.3" font-family="Times,serif" font-size="14.00">Get simplify_outer_joins.public.r (u97)</text>
</g>
<!-- node4&#45;&gt;node5 -->
<g id="edge15" class="edge">
<title>node4&#45;&gt;node5</title>
<path fill="none" stroke="black" d="M1415,-360.85C1415,-339.31 1415,-301.57 1415,-271.89"/>
<polygon fill="black" stroke="black" points="1418.5,-271.77 1415,-261.77 1411.5,-271.77 1418.5,-271.77"/>
<text text-anchor="start" x="1415" y="-295.8" font-family="Times,serif" font-size="14.00">%4</text>
</g>
<!-- node7 -->
<g id="node8" class="node">
<title>node7</title>
<polygon fill="none" stroke="black" points="990,-88.5 990,-141.5 1188,-141.5 1188,-88.5 990,-88.5"/>
<text text-anchor="start" x="998" y="-126.3" font-family="Times,serif" font-size="14.00">Union %5 %6</text>
<text text-anchor="start" x="998" y="-111.3" font-family="Times,serif" font-size="14.00"> Map null, null</text>
<text text-anchor="start" x="998" y="-96.3" font-family="Times,serif" font-size="14.00"> Project (#2, #3, #0, #1)</text>
</g>
<!-- node5&#45;&gt;node7 -->
<g id="edge5" class="edge">
<title>node5&#45;&gt;node7</title>
<path fill="none" stroke="black" d="M1317.63,-193.5C1271.92,-178 1217.95,-159.71 1173.92,-144.79"/>
<polygon fill="black" stroke="black" points="1174.99,-141.45 1164.4,-141.56 1172.75,-148.08 1174.99,-141.45"/>
<text text-anchor="start" x="1261" y="-163.8" font-family="Times,serif" font-size="14.00">%5</text>
</g>
<!-- node6 -->
<g id="node7" class="node">
<title>node6</title>
<polygon fill="none" stroke="black" points="944,-209.5 944,-245.5 1234,-245.5 1234,-209.5 944,-209.5"/>
<text text-anchor="start" x="952" y="-223.8" font-family="Times,serif" font-size="14.00">Get simplify_outer_joins.public.r (u97)</text>
</g>
<!-- node6&#45;&gt;node7 -->
<g id="edge1" class="edge">
<title>node6&#45;&gt;node7</title>
<path fill="none" stroke="black" d="M1089,-209.23C1089,-193.97 1089,-171.22 1089,-152.01"/>
<polygon fill="black" stroke="black" points="1092.5,-151.77 1089,-141.77 1085.5,-151.77 1092.5,-151.77"/>
<text text-anchor="start" x="1089" y="-163.8" font-family="Times,serif" font-size="14.00">%6</text>
</g>
<!-- node13 -->
<g id="node14" class="node">
<title>node13</title>
<polygon fill="none" stroke="black" points="594,-0.5 594,-36.5 752,-36.5 752,-0.5 594,-0.5"/>
<text text-anchor="start" x="602" y="-14.8" font-family="Times,serif" font-size="14.00">Union %7 %11 %12</text>
</g>
<!-- node7&#45;&gt;node13 -->
<g id="edge13" class="edge">
<title>node7&#45;&gt;node13</title>
<path fill="none" stroke="black" d="M989.89,-91.48C919.25,-75.44 825.29,-54.09 758.06,-38.82"/>
<polygon fill="black" stroke="black" points="758.45,-35.32 747.92,-36.52 756.9,-42.15 758.45,-35.32"/>
<text text-anchor="start" x="893" y="-58.8" font-family="Times,serif" font-size="14.00">%7</text>
</g>
<!-- node8 -->
<g id="node9" class="node">
<title>node8</title>
<polygon fill="none" stroke="black" points="304,-361 304,-397 592,-397 592,-361 304,-361"/>
<text text-anchor="start" x="312" y="-375.3" font-family="Times,serif" font-size="14.00">Get simplify_outer_joins.public.l (u95)</text>
</g>
<!-- node8&#45;&gt;node9 -->
<g id="edge8" class="edge">
<title>node8&#45;&gt;node9</title>
<path fill="none" stroke="black" d="M449.03,-360.85C450.33,-339.31 452.6,-301.57 454.39,-271.89"/>
<polygon fill="black" stroke="black" points="457.89,-271.96 455,-261.77 450.9,-271.54 457.89,-271.96"/>
<text text-anchor="start" x="453" y="-295.8" font-family="Times,serif" font-size="14.00">%8</text>
</g>
<!-- node11 -->
<g id="node12" class="node">
<title>node11</title>
<polygon fill="none" stroke="black" points="612,-96 612,-134 734,-134 734,-96 612,-96"/>
<text text-anchor="start" x="620" y="-118.8" font-family="Times,serif" font-size="14.00">Union %9 %10</text>
<text text-anchor="start" x="620" y="-103.8" font-family="Times,serif" font-size="14.00"> Map null, null</text>
</g>
<!-- node9&#45;&gt;node11 -->
<g id="edge10" class="edge">
<title>node9&#45;&gt;node11</title>
<path fill="none" stroke="black" d="M521.51,-193.5C555.99,-175.86 597.56,-154.59 628.42,-138.8"/>
<polygon fill="black" stroke="black" points="630.33,-141.76 637.64,-134.09 627.14,-135.53 630.33,-141.76"/>
<text text-anchor="start" x="584" y="-163.8" font-family="Times,serif" font-size="14.00">%9</text>
</g>
<!-- node10 -->
<g id="node11" class="node">
<title>node10</title>
<polygon fill="none" stroke="black" points="638,-209.5 638,-245.5 926,-245.5 926,-209.5 638,-209.5"/>
<text text-anchor="start" x="646" y="-223.8" font-family="Times,serif" font-size="14.00">Get simplify_outer_joins.public.l (u95)</text>
</g>
<!-- node10&#45;&gt;node11 -->
<g id="edge7" class="edge">
<title>node10&#45;&gt;node11</title>
<path fill="none" stroke="black" d="M764.97,-209.23C747.05,-191.07 718.66,-162.29 698.16,-141.51"/>
<polygon fill="black" stroke="black" points="700.51,-138.91 691,-134.25 695.53,-143.82 700.51,-138.91"/>
<text text-anchor="start" x="730" y="-163.8" font-family="Times,serif" font-size="14.00">%10</text>
</g>
<!-- node11&#45;&gt;node13 -->
<g id="edge3" class="edge">
<title>node11&#45;&gt;node13</title>
<path fill="none" stroke="black" d="M673,-95.78C673,-81.92 673,-62.62 673,-46.91"/>
<polygon fill="black" stroke="black" points="676.5,-46.71 673,-36.71 669.5,-46.71 676.5,-46.71"/>
<text text-anchor="start" x="673" y="-58.8" font-family="Times,serif" font-size="14.00">%11</text>
</g>
<!-- node12&#45;&gt;node13 -->
<g id="edge2" class="edge">
<title>node12&#45;&gt;node13</title>
<path fill="none" stroke="black" d="M268.43,-280.5C266.21,-257.79 265.88,-218.62 285,-193 356.57,-97.1 493.17,-53.07 583.68,-33.69"/>
<polygon fill="black" stroke="black" points="584.59,-37.07 593.66,-31.61 583.16,-30.22 584.59,-37.07"/>
<text text-anchor="start" x="313" y="-163.8" font-family="Times,serif" font-size="14.00">%12</text>
</g>
</g>
</svg>
