<?xml version="1.0" encoding="UTF-8" standalone="no"?>
<!DOCTYPE svg PUBLIC "-//W3C//DTD SVG 1.1//EN"
 "http://www.w3.org/Graphics/SVG/1.1/DTD/svg11.dtd">
<!-- Generated by graphviz version 2.43.0 (0)
 -->
<!-- Title: G Pages: 1 -->
<svg width="1584pt" height="1181pt"
 viewBox="0.00 0.00 1584.00 1181.00" xmlns="http://www.w3.org/2000/svg" xmlns:xlink="http://www.w3.org/1999/xlink">
<g id="graph0" class="graph" transform="scale(1 1) rotate(0) translate(4 1177)">
<title>G</title>
<polygon fill="white" stroke="transparent" points="-4,4 -4,-1177 1580,-1177 1580,4 -4,4"/>
<!-- node0 -->
<g id="node1" class="node">
<title>node0</title>
<polygon fill="none" stroke="black" points="0,-1029.5 0,-1172.5 288,-1172.5 288,-1029.5 0,-1029.5"/>
<text text-anchor="start" x="8" y="-1157.3" font-family="Times,serif" font-size="14.00">Get simplify_outer_joins.public.l (u95)</text>
<text text-anchor="start" x="8" y="-1142.3" font-family="Times,serif" font-size="14.00"> types = (integer?, integer?)</text>
<text text-anchor="start" x="8" y="-1127.3" font-family="Times,serif" font-size="14.00"> keys = ()</text>
<text text-anchor="start" x="8" y="-1112.3" font-family="Times,serif" font-size="14.00"> Filter !(isnull(#1))</text>
<text text-anchor="start" x="8" y="-1097.3" font-family="Times,serif" font-size="14.00"> types = (integer?, integer)</text>
<text text-anchor="start" x="8" y="-1082.3" font-family="Times,serif" font-size="14.00"> keys = ()</text>
<text text-anchor="start" x="8" y="-1067.3" font-family="Times,serif" font-size="14.00"> ArrangeBy (#1)</text>
<text text-anchor="start" x="8" y="-1052.3" font-family="Times,serif" font-size="14.00"> types = (integer?, integer)</text>
<text text-anchor="start" x="8" y="-1037.3" font-family="Times,serif" font-size="14.00"> keys = ()</text>
</g>
<!-- node2 -->
<g id="node3" class="node">
<title>node2</title>
<polygon fill="none" stroke="black" points="132,-849.5 132,-977.5 462,-977.5 462,-849.5 132,-849.5"/>
<text text-anchor="start" x="140" y="-962.3" font-family="Times,serif" font-size="14.00">Let l0 =</text>
<text text-anchor="start" x="140" y="-947.3" font-family="Times,serif" font-size="14.00"> Join %0 %1 (= #1 #2)</text>
<text text-anchor="start" x="140" y="-932.3" font-family="Times,serif" font-size="14.00"> implementation = Differential %1 %0.(#1)</text>
<text text-anchor="start" x="140" y="-917.3" font-family="Times,serif" font-size="14.00"> types = (integer?, integer, integer, integer)</text>
<text text-anchor="start" x="140" y="-902.3" font-family="Times,serif" font-size="14.00"> keys = ()</text>
<text text-anchor="start" x="140" y="-887.3" font-family="Times,serif" font-size="14.00"> Project (#0, #1, #3)</text>
<text text-anchor="start" x="140" y="-872.3" font-family="Times,serif" font-size="14.00"> types = (integer?, integer, integer)</text>
<text text-anchor="start" x="140" y="-857.3" font-family="Times,serif" font-size="14.00"> keys = ()</text>
</g>
<!-- node0&#45;&gt;node2 -->
<g id="edge11" class="edge">
<title>node0&#45;&gt;node2</title>
<path fill="none" stroke="black" d="M202.28,-1029.34C214.11,-1015 226.55,-999.91 238.39,-985.56"/>
<polygon fill="black" stroke="black" points="241.24,-987.61 244.9,-977.67 235.84,-983.16 241.24,-987.61"/>
<text text-anchor="start" x="230" y="-999.8" font-family="Times,serif" font-size="14.00">%0</text>
</g>
<!-- node1 -->
<g id="node2" class="node">
<title>node1</title>
<polygon fill="none" stroke="black" points="306,-1052 306,-1150 596,-1150 596,-1052 306,-1052"/>
<text text-anchor="start" x="314" y="-1134.8" font-family="Times,serif" font-size="14.00">Get simplify_outer_joins.public.r (u97)</text>
<text text-anchor="start" x="314" y="-1119.8" font-family="Times,serif" font-size="14.00"> types = (integer?, integer)</text>
<text text-anchor="start" x="314" y="-1104.8" font-family="Times,serif" font-size="14.00"> keys = ()</text>
<text text-anchor="start" x="314" y="-1089.8" font-family="Times,serif" font-size="14.00"> Filter !(isnull(#0))</text>
<text text-anchor="start" x="314" y="-1074.8" font-family="Times,serif" font-size="14.00"> types = (integer, integer)</text>
<text text-anchor="start" x="314" y="-1059.8" font-family="Times,serif" font-size="14.00"> keys = ()</text>
</g>
<!-- node1&#45;&gt;node2 -->
<g id="edge12" class="edge">
<title>node1&#45;&gt;node2</title>
<path fill="none" stroke="black" d="M410.94,-1051.75C394.12,-1031.48 374.22,-1007.51 355.79,-985.31"/>
<polygon fill="black" stroke="black" points="358.42,-983 349.34,-977.55 353.03,-987.48 358.42,-983"/>
<text text-anchor="start" x="374" y="-999.8" font-family="Times,serif" font-size="14.00">%1</text>
</g>
<!-- node3 -->
<g id="node4" class="node">
<title>node3</title>
<polygon fill="none" stroke="black" points="616.5,-594.5 616.5,-797.5 887.5,-797.5 887.5,-594.5 616.5,-594.5"/>
<text text-anchor="start" x="624.5" y="-782.3" font-family="Times,serif" font-size="14.00">Let l1 =</text>
<text text-anchor="start" x="624.5" y="-767.3" font-family="Times,serif" font-size="14.00"> Get %2 (l0)</text>
<text text-anchor="start" x="624.5" y="-752.3" font-family="Times,serif" font-size="14.00"> types = (integer?, integer, integer)</text>
<text text-anchor="start" x="624.5" y="-737.3" font-family="Times,serif" font-size="14.00"> keys = ()</text>
<text text-anchor="start" x="624.5" y="-722.3" font-family="Times,serif" font-size="14.00"> Project (#1)</text>
<text text-anchor="start" x="624.5" y="-707.3" font-family="Times,serif" font-size="14.00"> types = (integer)</text>
<text text-anchor="start" x="624.5" y="-692.3" font-family="Times,serif" font-size="14.00"> keys = ()</text>
<text text-anchor="start" x="624.5" y="-677.3" font-family="Times,serif" font-size="14.00"> Distinct group=(#0)</text>
<text text-anchor="start" x="624.5" y="-662.3" font-family="Times,serif" font-size="14.00"> types = (integer)</text>
<text text-anchor="start" x="624.5" y="-647.3" font-family="Times,serif" font-size="14.00"> keys = ((#0))</text>
<text text-anchor="start" x="624.5" y="-632.3" font-family="Times,serif" font-size="14.00"> ArrangeBy (#0)</text>
<text text-anchor="start" x="624.5" y="-617.3" font-family="Times,serif" font-size="14.00"> types = (integer)</text>
<text text-anchor="start" x="624.5" y="-602.3" font-family="Times,serif" font-size="14.00"> keys = ((#0))</text>
</g>
<!-- node2&#45;&gt;node3 -->
<g id="edge6" class="edge">
<title>node2&#45;&gt;node3</title>
<path fill="none" stroke="black" d="M462.06,-860.35C509.9,-842.9 561.48,-821.76 607,-798 607.2,-797.9 607.39,-797.8 607.59,-797.69"/>
<polygon fill="black" stroke="black" points="609.27,-800.76 616.41,-792.94 605.95,-794.6 609.27,-800.76"/>
<text text-anchor="start" x="566" y="-819.8" font-family="Times,serif" font-size="14.00">%2</text>
</g>
<!-- node12 -->
<g id="node13" class="node">
<title>node12</title>
<polygon fill="none" stroke="black" points="100,-477.5 100,-575.5 430,-575.5 430,-477.5 100,-477.5"/>
<text text-anchor="start" x="108" y="-560.3" font-family="Times,serif" font-size="14.00">Get %2 (l0)</text>
<text text-anchor="start" x="108" y="-545.3" font-family="Times,serif" font-size="14.00"> types = (integer?, integer, integer)</text>
<text text-anchor="start" x="108" y="-530.3" font-family="Times,serif" font-size="14.00"> keys = ()</text>
<text text-anchor="start" x="108" y="-515.3" font-family="Times,serif" font-size="14.00"> Project (#0, #1, #1, #2)</text>
<text text-anchor="start" x="108" y="-500.3" font-family="Times,serif" font-size="14.00"> types = (integer?, integer, integer, integer)</text>
<text text-anchor="start" x="108" y="-485.3" font-family="Times,serif" font-size="14.00"> keys = ()</text>
</g>
<!-- node2&#45;&gt;node12 -->
<g id="edge4" class="edge">
<title>node2&#45;&gt;node12</title>
<path fill="none" stroke="black" d="M291.75,-849.36C285.68,-776.26 275.75,-656.85 269.85,-585.85"/>
<polygon fill="black" stroke="black" points="273.33,-585.42 269.01,-575.74 266.35,-586 273.33,-585.42"/>
<text text-anchor="start" x="291" y="-819.8" font-family="Times,serif" font-size="14.00">%2</text>
</g>
<!-- node5 -->
<g id="node6" class="node">
<title>node5</title>
<polygon fill="none" stroke="black" points="1250,-300.5 1250,-458.5 1576,-458.5 1576,-300.5 1250,-300.5"/>
<text text-anchor="start" x="1258" y="-443.3" font-family="Times,serif" font-size="14.00">Join %4 %3 (= #0 #2)</text>
<text text-anchor="start" x="1258" y="-428.3" font-family="Times,serif" font-size="14.00"> implementation = Differential %4 %3.(#0)</text>
<text text-anchor="start" x="1258" y="-413.3" font-family="Times,serif" font-size="14.00"> types = (integer?, integer, integer)</text>
<text text-anchor="start" x="1258" y="-398.3" font-family="Times,serif" font-size="14.00"> keys = ()</text>
<text text-anchor="start" x="1258" y="-383.3" font-family="Times,serif" font-size="14.00"> Project (#0, #1)</text>
<text text-anchor="start" x="1258" y="-368.3" font-family="Times,serif" font-size="14.00"> types = (integer?, integer)</text>
<text text-anchor="start" x="1258" y="-353.3" font-family="Times,serif" font-size="14.00"> keys = ()</text>
<text text-anchor="start" x="1258" y="-338.3" font-family="Times,serif" font-size="14.00"> Negate</text>
<text text-anchor="start" x="1258" y="-323.3" font-family="Times,serif" font-size="14.00"> types = (integer?, integer)</text>
<text text-anchor="start" x="1258" y="-308.3" font-family="Times,serif" font-size="14.00"> keys = ()</text>
</g>
<!-- node3&#45;&gt;node5 -->
<g id="edge14" class="edge">
<title>node3&#45;&gt;node5</title>
<path fill="none" stroke="black" d="M887.76,-630.41C989.92,-581.8 1130.67,-514.83 1240.76,-462.45"/>
<polygon fill="black" stroke="black" points="1242.44,-465.53 1249.97,-458.07 1239.43,-459.21 1242.44,-465.53"/>
<text text-anchor="start" x="1199" y="-522.8" font-family="Times,serif" font-size="14.00">%3</text>
</g>
<!-- node9 -->
<g id="node10" class="node">
<title>node9</title>
<polygon fill="none" stroke="black" points="292,-300.5 292,-458.5 618,-458.5 618,-300.5 292,-300.5"/>
<text text-anchor="start" x="300" y="-443.3" font-family="Times,serif" font-size="14.00">Join %8 %3 (= #1 #2)</text>
<text text-anchor="start" x="300" y="-428.3" font-family="Times,serif" font-size="14.00"> implementation = Differential %8 %3.(#0)</text>
<text text-anchor="start" x="300" y="-413.3" font-family="Times,serif" font-size="14.00"> types = (integer?, integer?, integer)</text>
<text text-anchor="start" x="300" y="-398.3" font-family="Times,serif" font-size="14.00"> keys = ()</text>
<text text-anchor="start" x="300" y="-383.3" font-family="Times,serif" font-size="14.00"> Project (#0, #1)</text>
<text text-anchor="start" x="300" y="-368.3" font-family="Times,serif" font-size="14.00"> types = (integer?, integer?)</text>
<text text-anchor="start" x="300" y="-353.3" font-family="Times,serif" font-size="14.00"> keys = ()</text>
<text text-anchor="start" x="300" y="-338.3" font-family="Times,serif" font-size="14.00"> Negate</text>
<text text-anchor="start" x="300" y="-323.3" font-family="Times,serif" font-size="14.00"> types = (integer?, integer?)</text>
<text text-anchor="start" x="300" y="-308.3" font-family="Times,serif" font-size="14.00"> keys = ()</text>
</g>
<!-- node3&#45;&gt;node9 -->
<g id="edge9" class="edge">
<title>node3&#45;&gt;node9</title>
<path fill="none" stroke="black" d="M656.8,-594.19C617.75,-552.84 573.02,-505.48 535.62,-465.87"/>
<polygon fill="black" stroke="black" points="538.13,-463.44 528.72,-458.57 533.05,-468.24 538.13,-463.44"/>
<text text-anchor="start" x="638" y="-522.8" font-family="Times,serif" font-size="14.00">%3</text>
</g>
<!-- node4 -->
<g id="node5" class="node">
<title>node4</title>
<polygon fill="none" stroke="black" points="1268,-669.5 1268,-722.5 1558,-722.5 1558,-669.5 1268,-669.5"/>
<text text-anchor="start" x="1276" y="-707.3" font-family="Times,serif" font-size="14.00">Get simplify_outer_joins.public.r (u97)</text>
<text text-anchor="start" x="1276" y="-692.3" font-family="Times,serif" font-size="14.00"> types = (integer?, integer)</text>
<text text-anchor="start" x="1276" y="-677.3" font-family="Times,serif" font-size="14.00"> keys = ()</text>
</g>
<!-- node4&#45;&gt;node5 -->
<g id="edge15" class="edge">
<title>node4&#45;&gt;node5</title>
<path fill="none" stroke="black" d="M1413,-669.26C1413,-626.01 1413,-536.8 1413,-468.92"/>
<polygon fill="black" stroke="black" points="1416.5,-468.64 1413,-458.64 1409.5,-468.64 1416.5,-468.64"/>
<text text-anchor="start" x="1413" y="-522.8" font-family="Times,serif" font-size="14.00">%4</text>
</g>
<!-- node7 -->
<g id="node8" class="node">
<title>node7</title>
<polygon fill="none" stroke="black" points="913,-105.5 913,-248.5 1261,-248.5 1261,-105.5 913,-105.5"/>
<text text-anchor="start" x="921" y="-233.3" font-family="Times,serif" font-size="14.00">Union %5 %6</text>
<text text-anchor="start" x="921" y="-218.3" font-family="Times,serif" font-size="14.00"> types = (integer?, integer)</text>
<text text-anchor="start" x="921" y="-203.3" font-family="Times,serif" font-size="14.00"> keys = ()</text>
<text text-anchor="start" x="921" y="-188.3" font-family="Times,serif" font-size="14.00"> Map null, null</text>
<text text-anchor="start" x="921" y="-173.3" font-family="Times,serif" font-size="14.00"> types = (integer?, integer, integer?, integer?)</text>
<text text-anchor="start" x="921" y="-158.3" font-family="Times,serif" font-size="14.00"> keys = ()</text>
<text text-anchor="start" x="921" y="-143.3" font-family="Times,serif" font-size="14.00"> Project (#2, #3, #0, #1)</text>
<text text-anchor="start" x="921" y="-128.3" font-family="Times,serif" font-size="14.00"> types = (integer?, integer?, integer?, integer)</text>
<text text-anchor="start" x="921" y="-113.3" font-family="Times,serif" font-size="14.00"> keys = ()</text>
</g>
<!-- node5&#45;&gt;node7 -->
<g id="edge5" class="edge">
<title>node5&#45;&gt;node7</title>
<path fill="none" stroke="black" d="M1286.03,-300.41C1261.16,-285.11 1235.11,-269.09 1210.36,-253.87"/>
<polygon fill="black" stroke="black" points="1212.02,-250.78 1201.67,-248.52 1208.35,-256.74 1212.02,-250.78"/>
<text text-anchor="start" x="1250" y="-270.8" font-family="Times,serif" font-size="14.00">%5</text>
</g>
<!-- node6 -->
<g id="node7" class="node">
<title>node6</title>
<polygon fill="none" stroke="black" points="942,-353 942,-406 1232,-406 1232,-353 942,-353"/>
<text text-anchor="start" x="950" y="-390.8" font-family="Times,serif" font-size="14.00">Get simplify_outer_joins.public.r (u97)</text>
<text text-anchor="start" x="950" y="-375.8" font-family="Times,serif" font-size="14.00"> types = (integer?, integer)</text>
<text text-anchor="start" x="950" y="-360.8" font-family="Times,serif" font-size="14.00"> keys = ()</text>
</g>
<!-- node6&#45;&gt;node7 -->
<g id="edge1" class="edge">
<title>node6&#45;&gt;node7</title>
<path fill="none" stroke="black" d="M1087,-352.7C1087,-328.93 1087,-292.36 1087,-258.82"/>
<polygon fill="black" stroke="black" points="1090.5,-258.52 1087,-248.52 1083.5,-258.52 1090.5,-258.52"/>
<text text-anchor="start" x="1087" y="-270.8" font-family="Times,serif" font-size="14.00">%6</text>
</g>
<!-- node13 -->
<g id="node14" class="node">
<title>node13</title>
<polygon fill="none" stroke="black" points="415,-0.5 415,-53.5 771,-53.5 771,-0.5 415,-0.5"/>
<text text-anchor="start" x="423" y="-38.3" font-family="Times,serif" font-size="14.00">Union %7 %11 %12</text>
<text text-anchor="start" x="423" y="-23.3" font-family="Times,serif" font-size="14.00"> types = (integer?, integer?, integer?, integer?)</text>
<text text-anchor="start" x="423" y="-8.3" font-family="Times,serif" font-size="14.00"> keys = ()</text>
</g>
<!-- node7&#45;&gt;node13 -->
<g id="edge13" class="edge">
<title>node7&#45;&gt;node13</title>
<path fill="none" stroke="black" d="M912.83,-123.82C837.13,-101.14 751.41,-75.46 687.78,-56.4"/>
<polygon fill="black" stroke="black" points="688.74,-53.03 678.16,-53.51 686.73,-59.74 688.74,-53.03"/>
<text text-anchor="start" x="781" y="-75.8" font-family="Times,serif" font-size="14.00">%7</text>
</g>
<!-- node8 -->
<g id="node9" class="node">
<title>node8</title>
<polygon fill="none" stroke="black" points="310,-669.5 310,-722.5 598,-722.5 598,-669.5 310,-669.5"/>
<text text-anchor="start" x="318" y="-707.3" font-family="Times,serif" font-size="14.00">Get simplify_outer_joins.public.l (u95)</text>
<text text-anchor="start" x="318" y="-692.3" font-family="Times,serif" font-size="14.00"> types = (integer?, integer?)</text>
<text text-anchor="start" x="318" y="-677.3" font-family="Times,serif" font-size="14.00"> keys = ()</text>
</g>
<!-- node8&#45;&gt;node9 -->
<g id="edge8" class="edge">
<title>node8&#45;&gt;node9</title>
<path fill="none" stroke="black" d="M454.08,-669.26C454.22,-626.01 454.5,-536.8 454.72,-468.92"/>
<polygon fill="black" stroke="black" points="458.22,-468.65 454.75,-458.64 451.22,-468.63 458.22,-468.65"/>
<text text-anchor="start" x="454" y="-522.8" font-family="Times,serif" font-size="14.00">%8</text>
</g>
<!-- node11 -->
<g id="node12" class="node">
<title>node11</title>
<polygon fill="none" stroke="black" points="415,-128 415,-226 771,-226 771,-128 415,-128"/>
<text text-anchor="start" x="423" y="-210.8" font-family="Times,serif" font-size="14.00">Union %9 %10</text>
<text text-anchor="start" x="423" y="-195.8" font-family="Times,serif" font-size="14.00"> types = (integer?, integer?)</text>
<text text-anchor="start" x="423" y="-180.8" font-family="Times,serif" font-size="14.00"> keys = ()</text>
<text text-anchor="start" x="423" y="-165.8" font-family="Times,serif" font-size="14.00"> Map null, null</text>
<text text-anchor="start" x="423" y="-150.8" font-family="Times,serif" font-size="14.00"> types = (integer?, integer?, integer?, integer?)</text>
<text text-anchor="start" x="423" y="-135.8" font-family="Times,serif" font-size="14.00"> keys = ()</text>
</g>
<!-- node9&#45;&gt;node11 -->
<g id="edge10" class="edge">
<title>node9&#45;&gt;node11</title>
<path fill="none" stroke="black" d="M508.75,-300.41C523.92,-278.37 540.12,-254.84 554.22,-234.35"/>
<polygon fill="black" stroke="black" points="557.13,-236.29 559.92,-226.06 551.37,-232.32 557.13,-236.29"/>
<text text-anchor="start" x="528" y="-270.8" font-family="Times,serif" font-size="14.00">%9</text>
</g>
<!-- node10 -->
<g id="node11" class="node">
<title>node10</title>
<polygon fill="none" stroke="black" points="636,-353 636,-406 924,-406 924,-353 636,-353"/>
<text text-anchor="start" x="644" y="-390.8" font-family="Times,serif" font-size="14.00">Get simplify_outer_joins.public.l (u95)</text>
<text text-anchor="start" x="644" y="-375.8" font-family="Times,serif" font-size="14.00"> types = (integer?, integer?)</text>
<text text-anchor="start" x="644" y="-360.8" font-family="Times,serif" font-size="14.00"> keys = ()</text>
</g>
<!-- node10&#45;&gt;node11 -->
<g id="edge7" class="edge">
<title>node10&#45;&gt;node11</title>
<path fill="none" stroke="black" d="M755.94,-352.7C728.1,-322.85 681.45,-272.84 645.19,-233.95"/>
<polygon fill="black" stroke="black" points="647.46,-231.26 638.08,-226.33 642.34,-236.03 647.46,-231.26"/>
<text text-anchor="start" x="686" y="-270.8" font-family="Times,serif" font-size="14.00">%10</text>
</g>
<!-- node11&#45;&gt;node13 -->
<g id="edge3" class="edge">
<title>node11&#45;&gt;node13</title>
<path fill="none" stroke="black" d="M593,-127.95C593,-107.15 593,-83.23 593,-64"/>
<polygon fill="black" stroke="black" points="596.5,-63.85 593,-53.85 589.5,-63.85 596.5,-63.85"/>
<text text-anchor="start" x="593" y="-75.8" font-family="Times,serif" font-size="14.00">%11</text>
</g>
<!-- node12&#45;&gt;node13 -->
<g id="edge2" class="edge">
<title>node12&#45;&gt;node13</title>
<path fill="none" stroke="black" d="M262.27,-477.11C261.16,-430.52 263.47,-358.69 283,-300 315.35,-202.77 327.58,-170.96 406,-105 430.37,-84.5 460.93,-68.87 490.25,-57.22"/>
<polygon fill="black" stroke="black" points="491.65,-60.43 499.72,-53.58 489.13,-53.9 491.65,-60.43"/>
<text text-anchor="start" x="294" y="-270.8" font-family="Times,serif" font-size="14.00">%12</text>
</g>
</g>
</svg>
