<?xml version="1.0" encoding="UTF-8" standalone="no"?>
<!DOCTYPE svg PUBLIC "-//W3C//DTD SVG 1.1//EN"
 "http://www.w3.org/Graphics/SVG/1.1/DTD/svg11.dtd">
<!-- Generated by graphviz version 2.43.0 (0)
 -->
<!-- Title: G Pages: 1 -->
<svg width="1077pt" height="1262pt"
 viewBox="0.00 0.00 1076.50 1262.00" xmlns="http://www.w3.org/2000/svg" xmlns:xlink="http://www.w3.org/1999/xlink">
<g id="graph0" class="graph" transform="scale(1 1) rotate(0) translate(4 1258)">
<title>G</title>
<polygon fill="white" stroke="transparent" points="-4,4 -4,-1258 1072.5,-1258 1072.5,4 -4,4"/>
<!-- node0 -->
<g id="node1" class="node">
<title>node0</title>
<polygon fill="none" stroke="black" points="436.5,-1185.5 436.5,-1253.5 537.5,-1253.5 537.5,-1185.5 436.5,-1185.5"/>
<text text-anchor="start" x="444.5" y="-1238.3" font-family="Times,serif" font-size="14.00">Let l0 =</text>
<text text-anchor="start" x="444.5" y="-1223.3" font-family="Times,serif" font-size="14.00"> Constant ()</text>
<text text-anchor="start" x="444.5" y="-1208.3" font-family="Times,serif" font-size="14.00"> types = ()</text>
<text text-anchor="start" x="444.5" y="-1193.3" font-family="Times,serif" font-size="14.00"> keys = (())</text>
</g>
<!-- node2 -->
<g id="node3" class="node">
<title>node2</title>
<polygon fill="none" stroke="black" points="87.5,-1050.5 87.5,-1133.5 356.5,-1133.5 356.5,-1050.5 87.5,-1050.5"/>
<text text-anchor="start" x="95.5" y="-1118.3" font-family="Times,serif" font-size="14.00">Let l1 =</text>
<text text-anchor="start" x="95.5" y="-1103.3" font-family="Times,serif" font-size="14.00"> Join %0 %1</text>
<text text-anchor="start" x="95.5" y="-1088.3" font-family="Times,serif" font-size="14.00"> implementation = Unimplemented</text>
<text text-anchor="start" x="95.5" y="-1073.3" font-family="Times,serif" font-size="14.00"> types = (integer?, integer?)</text>
<text text-anchor="start" x="95.5" y="-1058.3" font-family="Times,serif" font-size="14.00"> keys = ()</text>
</g>
<!-- node0&#45;&gt;node2 -->
<g id="edge13" class="edge">
<title>node0&#45;&gt;node2</title>
<path fill="none" stroke="black" d="M436.22,-1194.45C402.41,-1178.44 356.95,-1156.91 316.6,-1137.8"/>
<polygon fill="black" stroke="black" points="318.08,-1134.63 307.54,-1133.51 315.08,-1140.96 318.08,-1134.63"/>
<text text-anchor="start" x="378" y="-1155.8" font-family="Times,serif" font-size="14.00">%0</text>
</g>
<!-- node4 -->
<g id="node5" class="node">
<title>node4</title>
<polygon fill="none" stroke="black" points="592.5,-1050.5 592.5,-1133.5 861.5,-1133.5 861.5,-1050.5 592.5,-1050.5"/>
<text text-anchor="start" x="600.5" y="-1118.3" font-family="Times,serif" font-size="14.00">Let l2 =</text>
<text text-anchor="start" x="600.5" y="-1103.3" font-family="Times,serif" font-size="14.00"> Join %0 %3</text>
<text text-anchor="start" x="600.5" y="-1088.3" font-family="Times,serif" font-size="14.00"> implementation = Unimplemented</text>
<text text-anchor="start" x="600.5" y="-1073.3" font-family="Times,serif" font-size="14.00"> types = (integer?, integer)</text>
<text text-anchor="start" x="600.5" y="-1058.3" font-family="Times,serif" font-size="14.00"> keys = ()</text>
</g>
<!-- node0&#45;&gt;node4 -->
<g id="edge16" class="edge">
<title>node0&#45;&gt;node4</title>
<path fill="none" stroke="black" d="M537.6,-1192.04C567.4,-1176.46 605.89,-1156.33 640.38,-1138.3"/>
<polygon fill="black" stroke="black" points="642.28,-1141.25 649.52,-1133.51 639.04,-1135.05 642.28,-1141.25"/>
<text text-anchor="start" x="607" y="-1155.8" font-family="Times,serif" font-size="14.00">%0</text>
</g>
<!-- node1 -->
<g id="node2" class="node">
<title>node1</title>
<polygon fill="none" stroke="black" points="78,-1193 78,-1246 366,-1246 366,-1193 78,-1193"/>
<text text-anchor="start" x="86" y="-1230.8" font-family="Times,serif" font-size="14.00">Get simplify_outer_joins.public.l (u95)</text>
<text text-anchor="start" x="86" y="-1215.8" font-family="Times,serif" font-size="14.00"> types = (integer?, integer?)</text>
<text text-anchor="start" x="86" y="-1200.8" font-family="Times,serif" font-size="14.00"> keys = ()</text>
</g>
<!-- node1&#45;&gt;node2 -->
<g id="edge14" class="edge">
<title>node1&#45;&gt;node2</title>
<path fill="none" stroke="black" d="M222,-1192.8C222,-1178.79 222,-1160.93 222,-1144.2"/>
<polygon fill="black" stroke="black" points="225.5,-1143.98 222,-1133.98 218.5,-1143.98 225.5,-1143.98"/>
<text text-anchor="start" x="222" y="-1155.8" font-family="Times,serif" font-size="14.00">%1</text>
</g>
<!-- node5 -->
<g id="node6" class="node">
<title>node5</title>
<polygon fill="none" stroke="black" points="324,-825.5 324,-998.5 672,-998.5 672,-825.5 324,-825.5"/>
<text text-anchor="start" x="332" y="-983.3" font-family="Times,serif" font-size="14.00">Let l3 =</text>
<text text-anchor="start" x="332" y="-968.3" font-family="Times,serif" font-size="14.00"> Join %2 %4</text>
<text text-anchor="start" x="332" y="-953.3" font-family="Times,serif" font-size="14.00"> implementation = Unimplemented</text>
<text text-anchor="start" x="332" y="-938.3" font-family="Times,serif" font-size="14.00"> types = (integer?, integer?, integer?, integer)</text>
<text text-anchor="start" x="332" y="-923.3" font-family="Times,serif" font-size="14.00"> keys = ()</text>
<text text-anchor="start" x="332" y="-908.3" font-family="Times,serif" font-size="14.00"> Project (#0..=#3)</text>
<text text-anchor="start" x="332" y="-893.3" font-family="Times,serif" font-size="14.00"> types = (integer?, integer?, integer?, integer)</text>
<text text-anchor="start" x="332" y="-878.3" font-family="Times,serif" font-size="14.00"> keys = ()</text>
<text text-anchor="start" x="332" y="-863.3" font-family="Times,serif" font-size="14.00"> Filter (#1 = #2)</text>
<text text-anchor="start" x="332" y="-848.3" font-family="Times,serif" font-size="14.00"> types = (integer?, integer, integer, integer)</text>
<text text-anchor="start" x="332" y="-833.3" font-family="Times,serif" font-size="14.00"> keys = ()</text>
</g>
<!-- node2&#45;&gt;node5 -->
<g id="edge17" class="edge">
<title>node2&#45;&gt;node5</title>
<path fill="none" stroke="black" d="M284.97,-1050.39C306.49,-1036.51 331.49,-1020.38 356.65,-1004.16"/>
<polygon fill="black" stroke="black" points="358.67,-1007.02 365.18,-998.66 354.88,-1001.14 358.67,-1007.02"/>
<text text-anchor="start" x="336" y="-1020.8" font-family="Times,serif" font-size="14.00">%2</text>
</g>
<!-- node9 -->
<g id="node10" class="node">
<title>node9</title>
<polygon fill="none" stroke="black" points="68,-405.5 68,-563.5 348,-563.5 348,-405.5 68,-405.5"/>
<text text-anchor="start" x="76" y="-548.3" font-family="Times,serif" font-size="14.00">Join %2 %6 (= #1 #2)</text>
<text text-anchor="start" x="76" y="-533.3" font-family="Times,serif" font-size="14.00"> implementation = Unimplemented</text>
<text text-anchor="start" x="76" y="-518.3" font-family="Times,serif" font-size="14.00"> types = (integer?, integer?, integer)</text>
<text text-anchor="start" x="76" y="-503.3" font-family="Times,serif" font-size="14.00"> keys = ()</text>
<text text-anchor="start" x="76" y="-488.3" font-family="Times,serif" font-size="14.00"> Project (#0, #1)</text>
<text text-anchor="start" x="76" y="-473.3" font-family="Times,serif" font-size="14.00"> types = (integer?, integer?)</text>
<text text-anchor="start" x="76" y="-458.3" font-family="Times,serif" font-size="14.00"> keys = ()</text>
<text text-anchor="start" x="76" y="-443.3" font-family="Times,serif" font-size="14.00"> Negate</text>
<text text-anchor="start" x="76" y="-428.3" font-family="Times,serif" font-size="14.00"> types = (integer?, integer?)</text>
<text text-anchor="start" x="76" y="-413.3" font-family="Times,serif" font-size="14.00"> keys = ()</text>
</g>
<!-- node2&#45;&gt;node9 -->
<g id="edge9" class="edge">
<title>node2&#45;&gt;node9</title>
<path fill="none" stroke="black" d="M221.06,-1050.33C218.82,-953.36 213.12,-706.73 210.04,-573.72"/>
<polygon fill="black" stroke="black" points="213.54,-573.48 209.8,-563.56 206.54,-573.64 213.54,-573.48"/>
<text text-anchor="start" x="216" y="-795.8" font-family="Times,serif" font-size="14.00">%2</text>
</g>
<!-- node10 -->
<g id="node11" class="node">
<title>node10</title>
<polygon fill="none" stroke="black" points="0,-233 0,-331 356,-331 356,-233 0,-233"/>
<text text-anchor="start" x="8" y="-315.8" font-family="Times,serif" font-size="14.00">Union %9 %2</text>
<text text-anchor="start" x="8" y="-300.8" font-family="Times,serif" font-size="14.00"> types = (integer?, integer?)</text>
<text text-anchor="start" x="8" y="-285.8" font-family="Times,serif" font-size="14.00"> keys = ()</text>
<text text-anchor="start" x="8" y="-270.8" font-family="Times,serif" font-size="14.00"> Map null, null</text>
<text text-anchor="start" x="8" y="-255.8" font-family="Times,serif" font-size="14.00"> types = (integer?, integer?, integer?, integer?)</text>
<text text-anchor="start" x="8" y="-240.8" font-family="Times,serif" font-size="14.00"> keys = ()</text>
</g>
<!-- node2&#45;&gt;node10 -->
<g id="edge6" class="edge">
<title>node2&#45;&gt;node10</title>
<path fill="none" stroke="black" d="M140.32,-1050.46C91.93,-1020.1 40,-973.44 40,-913 40,-913 40,-913 40,-483.5 40,-447.6 41.63,-436.41 59,-405 72.58,-380.44 92.44,-357.33 112.05,-337.97"/>
<polygon fill="black" stroke="black" points="114.49,-340.48 119.25,-331.01 109.63,-335.44 114.49,-340.48"/>
<text text-anchor="start" x="40" y="-690.8" font-family="Times,serif" font-size="14.00">%2</text>
</g>
<!-- node3 -->
<g id="node4" class="node">
<title>node3</title>
<polygon fill="none" stroke="black" points="582,-1193 582,-1246 872,-1246 872,-1193 582,-1193"/>
<text text-anchor="start" x="590" y="-1230.8" font-family="Times,serif" font-size="14.00">Get simplify_outer_joins.public.r (u97)</text>
<text text-anchor="start" x="590" y="-1215.8" font-family="Times,serif" font-size="14.00"> types = (integer?, integer)</text>
<text text-anchor="start" x="590" y="-1200.8" font-family="Times,serif" font-size="14.00"> keys = ()</text>
</g>
<!-- node3&#45;&gt;node4 -->
<g id="edge2" class="edge">
<title>node3&#45;&gt;node4</title>
<path fill="none" stroke="black" d="M727,-1192.8C727,-1178.79 727,-1160.93 727,-1144.2"/>
<polygon fill="black" stroke="black" points="730.5,-1143.98 727,-1133.98 723.5,-1143.98 730.5,-1143.98"/>
<text text-anchor="start" x="727" y="-1155.8" font-family="Times,serif" font-size="14.00">%3</text>
</g>
<!-- node4&#45;&gt;node5 -->
<g id="edge4" class="edge">
<title>node4&#45;&gt;node5</title>
<path fill="none" stroke="black" d="M674.75,-1050.39C657.27,-1036.8 637.01,-1021.05 616.57,-1005.17"/>
<polygon fill="black" stroke="black" points="618.48,-1002.21 608.43,-998.84 614.18,-1007.74 618.48,-1002.21"/>
<text text-anchor="start" x="646" y="-1020.8" font-family="Times,serif" font-size="14.00">%4</text>
</g>
<!-- node7 -->
<g id="node8" class="node">
<title>node7</title>
<polygon fill="none" stroke="black" points="797.5,-405.5 797.5,-563.5 1068.5,-563.5 1068.5,-405.5 797.5,-405.5"/>
<text text-anchor="start" x="805.5" y="-548.3" font-family="Times,serif" font-size="14.00">Join %4 %6 (= #0 #2)</text>
<text text-anchor="start" x="805.5" y="-533.3" font-family="Times,serif" font-size="14.00"> implementation = Unimplemented</text>
<text text-anchor="start" x="805.5" y="-518.3" font-family="Times,serif" font-size="14.00"> types = (integer?, integer, integer)</text>
<text text-anchor="start" x="805.5" y="-503.3" font-family="Times,serif" font-size="14.00"> keys = ()</text>
<text text-anchor="start" x="805.5" y="-488.3" font-family="Times,serif" font-size="14.00"> Project (#0, #1)</text>
<text text-anchor="start" x="805.5" y="-473.3" font-family="Times,serif" font-size="14.00"> types = (integer?, integer)</text>
<text text-anchor="start" x="805.5" y="-458.3" font-family="Times,serif" font-size="14.00"> keys = ()</text>
<text text-anchor="start" x="805.5" y="-443.3" font-family="Times,serif" font-size="14.00"> Negate</text>
<text text-anchor="start" x="805.5" y="-428.3" font-family="Times,serif" font-size="14.00"> types = (integer?, integer)</text>
<text text-anchor="start" x="805.5" y="-413.3" font-family="Times,serif" font-size="14.00"> keys = ()</text>
</g>
<!-- node4&#45;&gt;node7 -->
<g id="edge5" class="edge">
<title>node4&#45;&gt;node7</title>
<path fill="none" stroke="black" d="M770.13,-1050.5C774.94,-1044.63 779.39,-1038.4 783,-1032 866.64,-883.73 905.74,-686.23 922.3,-573.78"/>
<polygon fill="black" stroke="black" points="925.77,-574.24 923.74,-563.84 918.84,-573.24 925.77,-574.24"/>
<text text-anchor="start" x="876" y="-795.8" font-family="Times,serif" font-size="14.00">%4</text>
</g>
<!-- node8 -->
<g id="node9" class="node">
<title>node8</title>
<polygon fill="none" stroke="black" points="595,-210.5 595,-353.5 943,-353.5 943,-210.5 595,-210.5"/>
<text text-anchor="start" x="603" y="-338.3" font-family="Times,serif" font-size="14.00">Union %7 %4</text>
<text text-anchor="start" x="603" y="-323.3" font-family="Times,serif" font-size="14.00"> types = (integer?, integer)</text>
<text text-anchor="start" x="603" y="-308.3" font-family="Times,serif" font-size="14.00"> keys = ()</text>
<text text-anchor="start" x="603" y="-293.3" font-family="Times,serif" font-size="14.00"> Map null, null</text>
<text text-anchor="start" x="603" y="-278.3" font-family="Times,serif" font-size="14.00"> types = (integer?, integer, integer?, integer?)</text>
<text text-anchor="start" x="603" y="-263.3" font-family="Times,serif" font-size="14.00"> keys = ()</text>
<text text-anchor="start" x="603" y="-248.3" font-family="Times,serif" font-size="14.00"> Project (#2, #3, #0, #1)</text>
<text text-anchor="start" x="603" y="-233.3" font-family="Times,serif" font-size="14.00"> types = (integer?, integer?, integer?, integer)</text>
<text text-anchor="start" x="603" y="-218.3" font-family="Times,serif" font-size="14.00"> keys = ()</text>
</g>
<!-- node4&#45;&gt;node8 -->
<g id="edge18" class="edge">
<title>node4&#45;&gt;node8</title>
<path fill="none" stroke="black" d="M742.28,-1050.28C754.29,-1014.61 769,-961.1 769,-913 769,-913 769,-913 769,-483.5 769,-444.05 769,-400.23 769,-363.64"/>
<polygon fill="black" stroke="black" points="772.5,-363.52 769,-353.52 765.5,-363.52 772.5,-363.52"/>
<text text-anchor="start" x="769" y="-690.8" font-family="Times,serif" font-size="14.00">%4</text>
</g>
<!-- node6 -->
<g id="node7" class="node">
<title>node6</title>
<polygon fill="none" stroke="black" points="403,-615.5 403,-773.5 733,-773.5 733,-615.5 403,-615.5"/>
<text text-anchor="start" x="411" y="-758.3" font-family="Times,serif" font-size="14.00">Let l4 =</text>
<text text-anchor="start" x="411" y="-743.3" font-family="Times,serif" font-size="14.00"> Get %5 (l3)</text>
<text text-anchor="start" x="411" y="-728.3" font-family="Times,serif" font-size="14.00"> types = (integer?, integer, integer, integer)</text>
<text text-anchor="start" x="411" y="-713.3" font-family="Times,serif" font-size="14.00"> keys = ()</text>
<text text-anchor="start" x="411" y="-698.3" font-family="Times,serif" font-size="14.00"> Project (#1)</text>
<text text-anchor="start" x="411" y="-683.3" font-family="Times,serif" font-size="14.00"> types = (integer)</text>
<text text-anchor="start" x="411" y="-668.3" font-family="Times,serif" font-size="14.00"> keys = ()</text>
<text text-anchor="start" x="411" y="-653.3" font-family="Times,serif" font-size="14.00"> Distinct group=(#0)</text>
<text text-anchor="start" x="411" y="-638.3" font-family="Times,serif" font-size="14.00"> types = (integer)</text>
<text text-anchor="start" x="411" y="-623.3" font-family="Times,serif" font-size="14.00"> keys = ((#0))</text>
</g>
<!-- node5&#45;&gt;node6 -->
<g id="edge11" class="edge">
<title>node5&#45;&gt;node6</title>
<path fill="none" stroke="black" d="M525.87,-825.21C530.36,-811.38 535.01,-797.05 539.52,-783.18"/>
<polygon fill="black" stroke="black" points="542.85,-784.25 542.61,-773.66 536.19,-782.09 542.85,-784.25"/>
<text text-anchor="start" x="535" y="-795.8" font-family="Times,serif" font-size="14.00">%5</text>
</g>
<!-- node11 -->
<g id="node12" class="node">
<title>node11</title>
<polygon fill="none" stroke="black" points="206,-105.5 206,-158.5 562,-158.5 562,-105.5 206,-105.5"/>
<text text-anchor="start" x="214" y="-143.3" font-family="Times,serif" font-size="14.00">Union %10 %5</text>
<text text-anchor="start" x="214" y="-128.3" font-family="Times,serif" font-size="14.00"> types = (integer?, integer?, integer?, integer?)</text>
<text text-anchor="start" x="214" y="-113.3" font-family="Times,serif" font-size="14.00"> keys = ()</text>
</g>
<!-- node5&#45;&gt;node11 -->
<g id="edge12" class="edge">
<title>node5&#45;&gt;node11</title>
<path fill="none" stroke="black" d="M420.26,-825.13C409.56,-809.11 400.14,-791.78 394,-774 355.03,-661.14 374.36,-287.22 381.64,-169.09"/>
<polygon fill="black" stroke="black" points="385.15,-168.99 382.28,-158.79 378.16,-168.56 385.15,-168.99"/>
<text text-anchor="start" x="371" y="-480.8" font-family="Times,serif" font-size="14.00">%5</text>
</g>
<!-- node6&#45;&gt;node7 -->
<g id="edge1" class="edge">
<title>node6&#45;&gt;node7</title>
<path fill="none" stroke="black" d="M704.95,-615.46C732.24,-599.91 760.98,-583.53 788.51,-567.84"/>
<polygon fill="black" stroke="black" points="790.45,-570.76 797.4,-562.77 786.98,-564.68 790.45,-570.76"/>
<text text-anchor="start" x="761" y="-585.8" font-family="Times,serif" font-size="14.00">%6</text>
</g>
<!-- node6&#45;&gt;node9 -->
<g id="edge3" class="edge">
<title>node6&#45;&gt;node9</title>
<path fill="none" stroke="black" d="M432.93,-615.46C406.58,-600.23 378.85,-584.22 352.22,-568.83"/>
<polygon fill="black" stroke="black" points="353.64,-565.61 343.23,-563.63 350.14,-571.67 353.64,-565.61"/>
<text text-anchor="start" x="398" y="-585.8" font-family="Times,serif" font-size="14.00">%6</text>
</g>
<!-- node7&#45;&gt;node8 -->
<g id="edge10" class="edge">
<title>node7&#45;&gt;node8</title>
<path fill="none" stroke="black" d="M869.12,-405.41C857.36,-391.03 845.08,-376.01 833.3,-361.61"/>
<polygon fill="black" stroke="black" points="835.86,-359.21 826.82,-353.69 830.44,-363.64 835.86,-359.21"/>
<text text-anchor="start" x="851" y="-375.8" font-family="Times,serif" font-size="14.00">%7</text>
</g>
<!-- node12 -->
<g id="node13" class="node">
<title>node12</title>
<polygon fill="none" stroke="black" points="389,-0.5 389,-53.5 745,-53.5 745,-0.5 389,-0.5"/>
<text text-anchor="start" x="397" y="-38.3" font-family="Times,serif" font-size="14.00">Union %8 %11</text>
<text text-anchor="start" x="397" y="-23.3" font-family="Times,serif" font-size="14.00"> types = (integer?, integer?, integer?, integer?)</text>
<text text-anchor="start" x="397" y="-8.3" font-family="Times,serif" font-size="14.00"> keys = ()</text>
</g>
<!-- node8&#45;&gt;node12 -->
<g id="edge15" class="edge">
<title>node8&#45;&gt;node12</title>
<path fill="none" stroke="black" d="M712.46,-210.19C673.73,-161.67 624.08,-99.5 593.95,-61.76"/>
<polygon fill="black" stroke="black" points="596.44,-59.26 587.47,-53.63 590.97,-63.63 596.44,-59.26"/>
<text text-anchor="start" x="671" y="-128.3" font-family="Times,serif" font-size="14.00">%8</text>
</g>
<!-- node9&#45;&gt;node10 -->
<g id="edge19" class="edge">
<title>node9&#45;&gt;node10</title>
<path fill="none" stroke="black" d="M196.32,-405.41C193.11,-383.96 189.68,-361.09 186.68,-340.99"/>
<polygon fill="black" stroke="black" points="190.13,-340.44 185.19,-331.06 183.21,-341.47 190.13,-340.44"/>
<text text-anchor="start" x="193" y="-375.8" font-family="Times,serif" font-size="14.00">%9</text>
</g>
<!-- node10&#45;&gt;node11 -->
<g id="edge8" class="edge">
<title>node10&#45;&gt;node11</title>
<path fill="none" stroke="black" d="M244.88,-232.95C276.08,-210.54 312.33,-184.49 340.01,-164.6"/>
<polygon fill="black" stroke="black" points="342.23,-167.32 348.31,-158.64 338.15,-161.63 342.23,-167.32"/>
<text text-anchor="start" x="318" y="-180.8" font-family="Times,serif" font-size="14.00">%10</text>
</g>
<!-- node11&#45;&gt;node12 -->
<g id="edge7" class="edge">
<title>node11&#45;&gt;node12</title>
<path fill="none" stroke="black" d="M429.71,-105.27C454.91,-91.09 486.36,-73.39 512.8,-58.51"/>
<polygon fill="black" stroke="black" points="514.56,-61.53 521.56,-53.58 511.13,-55.43 514.56,-61.53"/>
<text text-anchor="start" x="486" y="-75.8" font-family="Times,serif" font-size="14.00">%11</text>
</g>
</g>
</svg>
