<?xml version="1.0" encoding="UTF-8" standalone="no"?>
<!DOCTYPE svg PUBLIC "-//W3C//DTD SVG 1.1//EN"
 "http://www.w3.org/Graphics/SVG/1.1/DTD/svg11.dtd">
<!-- Generated by graphviz version 2.43.0 (0)
 -->
<!-- Title: G Pages: 1 -->
<svg width="1345pt" height="1832pt"
 viewBox="0.00 0.00 1345.00 1832.00" xmlns="http://www.w3.org/2000/svg" xmlns:xlink="http://www.w3.org/1999/xlink">
<g id="graph0" class="graph" transform="scale(1 1) rotate(0) translate(4 1828)">
<title>G</title>
<polygon fill="white" stroke="transparent" points="-4,4 -4,-1828 1341,-1828 1341,4 -4,4"/>
<!-- node0 -->
<g id="node1" class="node">
<title>node0</title>
<polygon fill="none" stroke="black" points="621.5,-1755.5 621.5,-1823.5 722.5,-1823.5 722.5,-1755.5 621.5,-1755.5"/>
<text text-anchor="start" x="629.5" y="-1808.3" font-family="Times,serif" font-size="14.00">Let l0 =</text>
<text text-anchor="start" x="629.5" y="-1793.3" font-family="Times,serif" font-size="14.00"> Constant ()</text>
<text text-anchor="start" x="629.5" y="-1778.3" font-family="Times,serif" font-size="14.00"> types = ()</text>
<text text-anchor="start" x="629.5" y="-1763.3" font-family="Times,serif" font-size="14.00"> keys = (())</text>
</g>
<!-- node2 -->
<g id="node3" class="node">
<title>node2</title>
<polygon fill="none" stroke="black" points="968.5,-1628 968.5,-1696 1237.5,-1696 1237.5,-1628 968.5,-1628"/>
<text text-anchor="start" x="976.5" y="-1680.8" font-family="Times,serif" font-size="14.00">Join %0 %1</text>
<text text-anchor="start" x="976.5" y="-1665.8" font-family="Times,serif" font-size="14.00"> implementation = Unimplemented</text>
<text text-anchor="start" x="976.5" y="-1650.8" font-family="Times,serif" font-size="14.00"> types = (integer?, integer?)</text>
<text text-anchor="start" x="976.5" y="-1635.8" font-family="Times,serif" font-size="14.00"> keys = ()</text>
</g>
<!-- node0&#45;&gt;node2 -->
<g id="edge16" class="edge">
<title>node0&#45;&gt;node2</title>
<path fill="none" stroke="black" d="M722.77,-1759.41C725.87,-1757.86 728.96,-1756.38 732,-1755 771.54,-1737.02 781.79,-1732.26 824,-1722 882.82,-1707.7 899.74,-1716.32 959,-1704 966.87,-1702.36 974.94,-1700.52 983.05,-1698.56"/>
<polygon fill="black" stroke="black" points="984.08,-1701.9 992.94,-1696.09 982.39,-1695.11 984.08,-1701.9"/>
<text text-anchor="start" x="824" y="-1725.8" font-family="Times,serif" font-size="14.00">%0</text>
</g>
<!-- node4 -->
<g id="node5" class="node">
<title>node4</title>
<polygon fill="none" stroke="black" points="681.5,-1628 681.5,-1696 950.5,-1696 950.5,-1628 681.5,-1628"/>
<text text-anchor="start" x="689.5" y="-1680.8" font-family="Times,serif" font-size="14.00">Join %0 %3</text>
<text text-anchor="start" x="689.5" y="-1665.8" font-family="Times,serif" font-size="14.00"> implementation = Unimplemented</text>
<text text-anchor="start" x="689.5" y="-1650.8" font-family="Times,serif" font-size="14.00"> types = (integer?, integer)</text>
<text text-anchor="start" x="689.5" y="-1635.8" font-family="Times,serif" font-size="14.00"> keys = ()</text>
</g>
<!-- node0&#45;&gt;node4 -->
<g id="edge4" class="edge">
<title>node0&#45;&gt;node4</title>
<path fill="none" stroke="black" d="M700.43,-1755.46C710.58,-1744.37 722.39,-1732.22 734,-1722 741.68,-1715.24 750.12,-1708.49 758.57,-1702.11"/>
<polygon fill="black" stroke="black" points="760.71,-1704.88 766.66,-1696.11 756.54,-1699.26 760.71,-1704.88"/>
<text text-anchor="start" x="734" y="-1725.8" font-family="Times,serif" font-size="14.00">%0</text>
</g>
<!-- node7 -->
<g id="node8" class="node">
<title>node7</title>
<polygon fill="none" stroke="black" points="373.5,-1620.5 373.5,-1703.5 642.5,-1703.5 642.5,-1620.5 373.5,-1620.5"/>
<text text-anchor="start" x="381.5" y="-1688.3" font-family="Times,serif" font-size="14.00">Let l2 =</text>
<text text-anchor="start" x="381.5" y="-1673.3" font-family="Times,serif" font-size="14.00"> Join %0 %6</text>
<text text-anchor="start" x="381.5" y="-1658.3" font-family="Times,serif" font-size="14.00"> implementation = Unimplemented</text>
<text text-anchor="start" x="381.5" y="-1643.3" font-family="Times,serif" font-size="14.00"> types = (integer?)</text>
<text text-anchor="start" x="381.5" y="-1628.3" font-family="Times,serif" font-size="14.00"> keys = ()</text>
</g>
<!-- node0&#45;&gt;node7 -->
<g id="edge3" class="edge">
<title>node0&#45;&gt;node7</title>
<path fill="none" stroke="black" d="M628.48,-1755.2C610.3,-1741.28 588.85,-1724.87 569.13,-1709.78"/>
<polygon fill="black" stroke="black" points="571.16,-1706.93 561.09,-1703.63 566.91,-1712.49 571.16,-1706.93"/>
<text text-anchor="start" x="605" y="-1725.8" font-family="Times,serif" font-size="14.00">%0</text>
</g>
<!-- node1 -->
<g id="node2" class="node">
<title>node1</title>
<polygon fill="none" stroke="black" points="1049,-1763 1049,-1816 1337,-1816 1337,-1763 1049,-1763"/>
<text text-anchor="start" x="1057" y="-1800.8" font-family="Times,serif" font-size="14.00">Get simplify_outer_joins.public.l (u94)</text>
<text text-anchor="start" x="1057" y="-1785.8" font-family="Times,serif" font-size="14.00"> types = (integer?, integer?)</text>
<text text-anchor="start" x="1057" y="-1770.8" font-family="Times,serif" font-size="14.00"> keys = ()</text>
</g>
<!-- node1&#45;&gt;node2 -->
<g id="edge1" class="edge">
<title>node1&#45;&gt;node2</title>
<path fill="none" stroke="black" d="M1174.57,-1762.8C1162.56,-1746.06 1146.63,-1723.84 1132.84,-1704.61"/>
<polygon fill="black" stroke="black" points="1135.55,-1702.39 1126.88,-1696.3 1129.86,-1706.47 1135.55,-1702.39"/>
<text text-anchor="start" x="1157" y="-1725.8" font-family="Times,serif" font-size="14.00">%1</text>
</g>
<!-- node5 -->
<g id="node6" class="node">
<title>node5</title>
<polygon fill="none" stroke="black" points="549,-1305.5 549,-1568.5 1125,-1568.5 1125,-1305.5 549,-1305.5"/>
<text text-anchor="start" x="557" y="-1553.3" font-family="Times,serif" font-size="14.00">Let l1 =</text>
<text text-anchor="start" x="557" y="-1538.3" font-family="Times,serif" font-size="14.00"> Join %2 %4</text>
<text text-anchor="start" x="557" y="-1523.3" font-family="Times,serif" font-size="14.00"> implementation = Unimplemented</text>
<text text-anchor="start" x="557" y="-1508.3" font-family="Times,serif" font-size="14.00"> types = (integer?, integer?, integer?, integer)</text>
<text text-anchor="start" x="557" y="-1493.3" font-family="Times,serif" font-size="14.00"> keys = ()</text>
<text text-anchor="start" x="557" y="-1478.3" font-family="Times,serif" font-size="14.00"> Project (#0..#3)</text>
<text text-anchor="start" x="557" y="-1463.3" font-family="Times,serif" font-size="14.00"> types = (integer?, integer?, integer?, integer)</text>
<text text-anchor="start" x="557" y="-1448.3" font-family="Times,serif" font-size="14.00"> keys = ()</text>
<text text-anchor="start" x="557" y="-1433.3" font-family="Times,serif" font-size="14.00"> Filter (#1 = #2)</text>
<text text-anchor="start" x="557" y="-1418.3" font-family="Times,serif" font-size="14.00"> types = (integer?, integer, integer, integer)</text>
<text text-anchor="start" x="557" y="-1403.3" font-family="Times,serif" font-size="14.00"> keys = ()</text>
<text text-anchor="start" x="557" y="-1388.3" font-family="Times,serif" font-size="14.00"> Map #0, #1, #2, #3</text>
<text text-anchor="start" x="557" y="-1373.3" font-family="Times,serif" font-size="14.00"> types = (integer?, integer, integer, integer, integer?, integer, integer, integer)</text>
<text text-anchor="start" x="557" y="-1358.3" font-family="Times,serif" font-size="14.00"> keys = ()</text>
<text text-anchor="start" x="557" y="-1343.3" font-family="Times,serif" font-size="14.00"> Project (#4..#7)</text>
<text text-anchor="start" x="557" y="-1328.3" font-family="Times,serif" font-size="14.00"> types = (integer?, integer, integer, integer)</text>
<text text-anchor="start" x="557" y="-1313.3" font-family="Times,serif" font-size="14.00"> keys = ()</text>
</g>
<!-- node2&#45;&gt;node5 -->
<g id="edge17" class="edge">
<title>node2&#45;&gt;node5</title>
<path fill="none" stroke="black" d="M1063.46,-1627.86C1045.91,-1613.14 1023.97,-1594.74 1000.69,-1575.23"/>
<polygon fill="black" stroke="black" points="1002.67,-1572.32 992.75,-1568.58 998.17,-1577.68 1002.67,-1572.32"/>
<text text-anchor="start" x="1032" y="-1590.8" font-family="Times,serif" font-size="14.00">%2</text>
</g>
<!-- node3 -->
<g id="node4" class="node">
<title>node3</title>
<polygon fill="none" stroke="black" points="741,-1763 741,-1816 1031,-1816 1031,-1763 741,-1763"/>
<text text-anchor="start" x="749" y="-1800.8" font-family="Times,serif" font-size="14.00">Get simplify_outer_joins.public.r (u96)</text>
<text text-anchor="start" x="749" y="-1785.8" font-family="Times,serif" font-size="14.00"> types = (integer?, integer)</text>
<text text-anchor="start" x="749" y="-1770.8" font-family="Times,serif" font-size="14.00"> keys = ()</text>
</g>
<!-- node3&#45;&gt;node4 -->
<g id="edge2" class="edge">
<title>node3&#45;&gt;node4</title>
<path fill="none" stroke="black" d="M871.67,-1762.8C862.41,-1746.21 850.15,-1724.23 839.5,-1705.13"/>
<polygon fill="black" stroke="black" points="842.5,-1703.33 834.57,-1696.3 836.39,-1706.74 842.5,-1703.33"/>
<text text-anchor="start" x="858" y="-1725.8" font-family="Times,serif" font-size="14.00">%3</text>
</g>
<!-- node4&#45;&gt;node5 -->
<g id="edge5" class="edge">
<title>node4&#45;&gt;node5</title>
<path fill="none" stroke="black" d="M819.14,-1627.61C820.44,-1613.88 822.03,-1596.96 823.73,-1578.94"/>
<polygon fill="black" stroke="black" points="827.23,-1579.11 824.68,-1568.83 820.26,-1578.45 827.23,-1579.11"/>
<text text-anchor="start" x="823" y="-1590.8" font-family="Times,serif" font-size="14.00">%4</text>
</g>
<!-- node8 -->
<g id="node9" class="node">
<title>node8</title>
<polygon fill="none" stroke="black" points="337.5,-1080.5 337.5,-1253.5 734.5,-1253.5 734.5,-1080.5 337.5,-1080.5"/>
<text text-anchor="start" x="345.5" y="-1238.3" font-family="Times,serif" font-size="14.00">Let l3 =</text>
<text text-anchor="start" x="345.5" y="-1223.3" font-family="Times,serif" font-size="14.00"> Join %5 %7</text>
<text text-anchor="start" x="345.5" y="-1208.3" font-family="Times,serif" font-size="14.00"> implementation = Unimplemented</text>
<text text-anchor="start" x="345.5" y="-1193.3" font-family="Times,serif" font-size="14.00"> types = (integer?, integer, integer, integer, integer?)</text>
<text text-anchor="start" x="345.5" y="-1178.3" font-family="Times,serif" font-size="14.00"> keys = ()</text>
<text text-anchor="start" x="345.5" y="-1163.3" font-family="Times,serif" font-size="14.00"> Project (#0..#4)</text>
<text text-anchor="start" x="345.5" y="-1148.3" font-family="Times,serif" font-size="14.00"> types = (integer?, integer, integer, integer, integer?)</text>
<text text-anchor="start" x="345.5" y="-1133.3" font-family="Times,serif" font-size="14.00"> keys = ()</text>
<text text-anchor="start" x="345.5" y="-1118.3" font-family="Times,serif" font-size="14.00"> Filter (#1 = #4)</text>
<text text-anchor="start" x="345.5" y="-1103.3" font-family="Times,serif" font-size="14.00"> types = (integer?, integer, integer, integer, integer)</text>
<text text-anchor="start" x="345.5" y="-1088.3" font-family="Times,serif" font-size="14.00"> keys = ()</text>
</g>
<!-- node5&#45;&gt;node8 -->
<g id="edge9" class="edge">
<title>node5&#45;&gt;node8</title>
<path fill="none" stroke="black" d="M690.03,-1305.14C673.1,-1290.07 656.11,-1274.94 639.92,-1260.53"/>
<polygon fill="black" stroke="black" points="641.84,-1257.55 632.04,-1253.51 637.18,-1262.77 641.84,-1257.55"/>
<text text-anchor="start" x="669" y="-1275.8" font-family="Times,serif" font-size="14.00">%5</text>
</g>
<!-- node10 -->
<g id="node11" class="node">
<title>node10</title>
<polygon fill="none" stroke="black" points="426.5,-660.5 426.5,-818.5 815.5,-818.5 815.5,-660.5 426.5,-660.5"/>
<text text-anchor="start" x="434.5" y="-803.3" font-family="Times,serif" font-size="14.00">Join %5 %9 (= #1 #4)</text>
<text text-anchor="start" x="434.5" y="-788.3" font-family="Times,serif" font-size="14.00"> implementation = Unimplemented</text>
<text text-anchor="start" x="434.5" y="-773.3" font-family="Times,serif" font-size="14.00"> types = (integer?, integer, integer, integer, integer)</text>
<text text-anchor="start" x="434.5" y="-758.3" font-family="Times,serif" font-size="14.00"> keys = ()</text>
<text text-anchor="start" x="434.5" y="-743.3" font-family="Times,serif" font-size="14.00"> Project (#0..#3)</text>
<text text-anchor="start" x="434.5" y="-728.3" font-family="Times,serif" font-size="14.00"> types = (integer?, integer, integer, integer)</text>
<text text-anchor="start" x="434.5" y="-713.3" font-family="Times,serif" font-size="14.00"> keys = ()</text>
<text text-anchor="start" x="434.5" y="-698.3" font-family="Times,serif" font-size="14.00"> Negate</text>
<text text-anchor="start" x="434.5" y="-683.3" font-family="Times,serif" font-size="14.00"> types = (integer?, integer, integer, integer)</text>
<text text-anchor="start" x="434.5" y="-668.3" font-family="Times,serif" font-size="14.00"> keys = ()</text>
</g>
<!-- node5&#45;&gt;node10 -->
<g id="edge6" class="edge">
<title>node5&#45;&gt;node10</title>
<path fill="none" stroke="black" d="M832.74,-1305.17C826.79,-1149.88 814.39,-907.15 794,-870 785.17,-853.91 773.39,-839.23 760.11,-826.02"/>
<polygon fill="black" stroke="black" points="762.24,-823.22 752.59,-818.84 757.4,-828.28 762.24,-823.22"/>
<text text-anchor="start" x="820" y="-1050.8" font-family="Times,serif" font-size="14.00">%5</text>
</g>
<!-- node11 -->
<g id="node12" class="node">
<title>node11</title>
<polygon fill="none" stroke="black" points="422.5,-510.5 422.5,-608.5 819.5,-608.5 819.5,-510.5 422.5,-510.5"/>
<text text-anchor="start" x="430.5" y="-593.3" font-family="Times,serif" font-size="14.00">Union %10 %5</text>
<text text-anchor="start" x="430.5" y="-578.3" font-family="Times,serif" font-size="14.00"> types = (integer?, integer, integer, integer)</text>
<text text-anchor="start" x="430.5" y="-563.3" font-family="Times,serif" font-size="14.00"> keys = ()</text>
<text text-anchor="start" x="430.5" y="-548.3" font-family="Times,serif" font-size="14.00"> Map null</text>
<text text-anchor="start" x="430.5" y="-533.3" font-family="Times,serif" font-size="14.00"> types = (integer?, integer, integer, integer, integer?)</text>
<text text-anchor="start" x="430.5" y="-518.3" font-family="Times,serif" font-size="14.00"> keys = ()</text>
</g>
<!-- node5&#45;&gt;node11 -->
<g id="edge8" class="edge">
<title>node5&#45;&gt;node11</title>
<path fill="none" stroke="black" d="M852.72,-1305.33C856.77,-1261.73 860,-1212.83 860,-1168 860,-1168 860,-1168 860,-738.5 860,-682.25 816.89,-641.67 767.29,-613.6"/>
<polygon fill="black" stroke="black" points="768.75,-610.41 758.3,-608.68 765.39,-616.55 768.75,-610.41"/>
<text text-anchor="start" x="860" y="-945.8" font-family="Times,serif" font-size="14.00">%5</text>
</g>
<!-- node6 -->
<g id="node7" class="node">
<title>node6</title>
<polygon fill="none" stroke="black" points="313,-1763 313,-1816 603,-1816 603,-1763 313,-1763"/>
<text text-anchor="start" x="321" y="-1800.8" font-family="Times,serif" font-size="14.00">Get simplify_outer_joins.public.t (u98)</text>
<text text-anchor="start" x="321" y="-1785.8" font-family="Times,serif" font-size="14.00"> types = (integer?)</text>
<text text-anchor="start" x="321" y="-1770.8" font-family="Times,serif" font-size="14.00"> keys = ()</text>
</g>
<!-- node6&#45;&gt;node7 -->
<g id="edge12" class="edge">
<title>node6&#45;&gt;node7</title>
<path fill="none" stroke="black" d="M468.24,-1762.8C473.88,-1748.65 481.07,-1730.59 487.79,-1713.73"/>
<polygon fill="black" stroke="black" points="491.22,-1714.57 491.67,-1703.98 484.72,-1711.98 491.22,-1714.57"/>
<text text-anchor="start" x="483" y="-1725.8" font-family="Times,serif" font-size="14.00">%6</text>
</g>
<!-- node7&#45;&gt;node8 -->
<g id="edge11" class="edge">
<title>node7&#45;&gt;node8</title>
<path fill="none" stroke="black" d="M507.54,-1620.34C507.13,-1554.15 507.68,-1419 517,-1305 518.09,-1291.62 519.62,-1277.54 521.33,-1263.72"/>
<polygon fill="black" stroke="black" points="524.81,-1264.07 522.61,-1253.71 517.87,-1263.18 524.81,-1264.07"/>
<text text-anchor="start" x="517" y="-1433.3" font-family="Times,serif" font-size="14.00">%7</text>
</g>
<!-- node9 -->
<g id="node10" class="node">
<title>node9</title>
<polygon fill="none" stroke="black" points="396.5,-870.5 396.5,-1028.5 785.5,-1028.5 785.5,-870.5 396.5,-870.5"/>
<text text-anchor="start" x="404.5" y="-1013.3" font-family="Times,serif" font-size="14.00">Let l4 =</text>
<text text-anchor="start" x="404.5" y="-998.3" font-family="Times,serif" font-size="14.00"> Get %8 (l3)</text>
<text text-anchor="start" x="404.5" y="-983.3" font-family="Times,serif" font-size="14.00"> types = (integer?, integer, integer, integer, integer)</text>
<text text-anchor="start" x="404.5" y="-968.3" font-family="Times,serif" font-size="14.00"> keys = ()</text>
<text text-anchor="start" x="404.5" y="-953.3" font-family="Times,serif" font-size="14.00"> Project (#1)</text>
<text text-anchor="start" x="404.5" y="-938.3" font-family="Times,serif" font-size="14.00"> types = (integer)</text>
<text text-anchor="start" x="404.5" y="-923.3" font-family="Times,serif" font-size="14.00"> keys = ()</text>
<text text-anchor="start" x="404.5" y="-908.3" font-family="Times,serif" font-size="14.00"> Distinct group=(#0)</text>
<text text-anchor="start" x="404.5" y="-893.3" font-family="Times,serif" font-size="14.00"> types = (integer)</text>
<text text-anchor="start" x="404.5" y="-878.3" font-family="Times,serif" font-size="14.00"> keys = ((#0))</text>
</g>
<!-- node8&#45;&gt;node9 -->
<g id="edge14" class="edge">
<title>node8&#45;&gt;node9</title>
<path fill="none" stroke="black" d="M557.9,-1080.21C561.39,-1066.51 565.01,-1052.32 568.52,-1038.58"/>
<polygon fill="black" stroke="black" points="571.97,-1039.21 571.05,-1028.66 565.19,-1037.48 571.97,-1039.21"/>
<text text-anchor="start" x="566" y="-1050.8" font-family="Times,serif" font-size="14.00">%8</text>
</g>
<!-- node12 -->
<g id="node13" class="node">
<title>node12</title>
<polygon fill="none" stroke="black" points="0,-0.5 0,-458.5 768,-458.5 768,-0.5 0,-0.5"/>
<text text-anchor="start" x="8" y="-443.3" font-family="Times,serif" font-size="14.00">Union %11 %8</text>
<text text-anchor="start" x="8" y="-428.3" font-family="Times,serif" font-size="14.00"> types = (integer?, integer, integer, integer, integer?)</text>
<text text-anchor="start" x="8" y="-413.3" font-family="Times,serif" font-size="14.00"> keys = ()</text>
<text text-anchor="start" x="8" y="-398.3" font-family="Times,serif" font-size="14.00"> Map #0, #1, #2, #3, #4</text>
<text text-anchor="start" x="8" y="-383.3" font-family="Times,serif" font-size="14.00"> types = (integer?, integer, integer, integer, integer?, integer?, integer, integer, integer, integer?)</text>
<text text-anchor="start" x="8" y="-368.3" font-family="Times,serif" font-size="14.00"> keys = ()</text>
<text text-anchor="start" x="8" y="-353.3" font-family="Times,serif" font-size="14.00"> Project (#5..#9)</text>
<text text-anchor="start" x="8" y="-338.3" font-family="Times,serif" font-size="14.00"> types = (integer?, integer, integer, integer, integer?)</text>
<text text-anchor="start" x="8" y="-323.3" font-family="Times,serif" font-size="14.00"> keys = ()</text>
<text text-anchor="start" x="8" y="-308.3" font-family="Times,serif" font-size="14.00"> Filter (#0 &gt; #3)</text>
<text text-anchor="start" x="8" y="-293.3" font-family="Times,serif" font-size="14.00"> types = (integer, integer, integer, integer, integer?)</text>
<text text-anchor="start" x="8" y="-278.3" font-family="Times,serif" font-size="14.00"> keys = ()</text>
<text text-anchor="start" x="8" y="-263.3" font-family="Times,serif" font-size="14.00"> Map #0, #1, #2, #3, #4</text>
<text text-anchor="start" x="8" y="-248.3" font-family="Times,serif" font-size="14.00"> types = (integer, integer, integer, integer, integer?, integer, integer, integer, integer, integer?)</text>
<text text-anchor="start" x="8" y="-233.3" font-family="Times,serif" font-size="14.00"> keys = ()</text>
<text text-anchor="start" x="8" y="-218.3" font-family="Times,serif" font-size="14.00"> Project (#5..#9)</text>
<text text-anchor="start" x="8" y="-203.3" font-family="Times,serif" font-size="14.00"> types = (integer, integer, integer, integer, integer?)</text>
<text text-anchor="start" x="8" y="-188.3" font-family="Times,serif" font-size="14.00"> keys = ()</text>
<text text-anchor="start" x="8" y="-173.3" font-family="Times,serif" font-size="14.00"> Map #0, #1, #2, #3, #4, &quot;qgm(true)&quot;</text>
<text text-anchor="start" x="8" y="-158.3" font-family="Times,serif" font-size="14.00"> types = (integer, integer, integer, integer, integer?, integer, integer, integer, integer, integer?, text)</text>
<text text-anchor="start" x="8" y="-143.3" font-family="Times,serif" font-size="14.00"> keys = ()</text>
<text text-anchor="start" x="8" y="-128.3" font-family="Times,serif" font-size="14.00"> Project (#5..#10)</text>
<text text-anchor="start" x="8" y="-113.3" font-family="Times,serif" font-size="14.00"> types = (integer, integer, integer, integer, integer?, text)</text>
<text text-anchor="start" x="8" y="-98.3" font-family="Times,serif" font-size="14.00"> keys = ()</text>
<text text-anchor="start" x="8" y="-83.3" font-family="Times,serif" font-size="14.00"> Map #5, #0, #1, #2, #3, #4</text>
<text text-anchor="start" x="8" y="-68.3" font-family="Times,serif" font-size="14.00"> types = (integer, integer, integer, integer, integer?, text, text, integer, integer, integer, integer, integer?)</text>
<text text-anchor="start" x="8" y="-53.3" font-family="Times,serif" font-size="14.00"> keys = ()</text>
<text text-anchor="start" x="8" y="-38.3" font-family="Times,serif" font-size="14.00"> Project (#6..#11)</text>
<text text-anchor="start" x="8" y="-23.3" font-family="Times,serif" font-size="14.00"> types = (text, integer, integer, integer, integer, integer?)</text>
<text text-anchor="start" x="8" y="-8.3" font-family="Times,serif" font-size="14.00"> keys = ()</text>
</g>
<!-- node8&#45;&gt;node12 -->
<g id="edge15" class="edge">
<title>node8&#45;&gt;node12</title>
<path fill="none" stroke="black" d="M426.91,-1080.39C411.8,-1064.63 397.79,-1047.32 387,-1029 368.78,-998.07 368,-986.4 368,-950.5 368,-950.5 368,-950.5 368,-558.5 368,-529.56 368.63,-499.2 369.64,-469.12"/>
<polygon fill="black" stroke="black" points="373.14,-469.05 369.99,-458.93 366.15,-468.81 373.14,-469.05"/>
<text text-anchor="start" x="368" y="-735.8" font-family="Times,serif" font-size="14.00">%8</text>
</g>
<!-- node9&#45;&gt;node10 -->
<g id="edge13" class="edge">
<title>node9&#45;&gt;node10</title>
<path fill="none" stroke="black" d="M602.26,-870.46C604.22,-856.82 606.28,-842.55 608.28,-828.66"/>
<polygon fill="black" stroke="black" points="611.77,-829.03 609.73,-818.63 604.84,-828.03 611.77,-829.03"/>
<text text-anchor="start" x="607" y="-840.8" font-family="Times,serif" font-size="14.00">%9</text>
</g>
<!-- node10&#45;&gt;node11 -->
<g id="edge10" class="edge">
<title>node10&#45;&gt;node11</title>
<path fill="none" stroke="black" d="M621,-660.43C621,-646.5 621,-632.2 621,-618.94"/>
<polygon fill="black" stroke="black" points="624.5,-618.55 621,-608.55 617.5,-618.55 624.5,-618.55"/>
<text text-anchor="start" x="621" y="-630.8" font-family="Times,serif" font-size="14.00">%10</text>
</g>
<!-- node11&#45;&gt;node12 -->
<g id="edge7" class="edge">
<title>node11&#45;&gt;node12</title>
<path fill="none" stroke="black" d="M586.28,-510.45C577.03,-497.65 566.39,-482.92 554.92,-467.05"/>
<polygon fill="black" stroke="black" points="557.54,-464.7 548.85,-458.65 551.87,-468.8 557.54,-464.7"/>
<text text-anchor="start" x="570" y="-480.8" font-family="Times,serif" font-size="14.00">%11</text>
</g>
</g>
</svg>
