<?xml version="1.0" encoding="UTF-8" standalone="no"?>
<!DOCTYPE svg PUBLIC "-//W3C//DTD SVG 1.1//EN"
 "http://www.w3.org/Graphics/SVG/1.1/DTD/svg11.dtd">
<!-- Generated by graphviz version 2.43.0 (0)
 -->
<!-- Title: G Pages: 1 -->
<svg width="684pt" height="360pt"
 viewBox="0.00 0.00 684.00 360.00" xmlns="http://www.w3.org/2000/svg" xmlns:xlink="http://www.w3.org/1999/xlink">
<g id="graph0" class="graph" transform="scale(1 1) rotate(0) translate(4 356)">
<title>G</title>
<polygon fill="white" stroke="transparent" points="-4,4 -4,-356 680,-356 680,4 -4,4"/>
<!-- node0 -->
<g id="node1" class="node">
<title>node0</title>
<polygon fill="none" stroke="black" points="290,-315.5 290,-351.5 386,-351.5 386,-315.5 290,-315.5"/>
<text text-anchor="start" x="298" y="-329.8" font-family="Times,serif" font-size="14.00">Constant ()</text>
</g>
<!-- node2 -->
<g id="node3" class="node">
<title>node2</title>
<polygon fill="none" stroke="black" points="55,-225.5 55,-263.5 329,-263.5 329,-225.5 55,-225.5"/>
<text text-anchor="start" x="63" y="-248.3" font-family="Times,serif" font-size="14.00">Join %0 %1</text>
<text text-anchor="start" x="63" y="-233.3" font-family="Times,serif" font-size="14.00">&#45; implementation = Unimplemented</text>
</g>
<!-- node0&#45;&gt;node2 -->
<g id="edge6" class="edge">
<title>node0&#45;&gt;node2</title>
<path fill="none" stroke="black" d="M309.16,-315.31C286.8,-301.99 255.6,-283.4 231.02,-268.75"/>
<polygon fill="black" stroke="black" points="232.67,-265.66 222.29,-263.55 229.09,-271.68 232.67,-265.66"/>
<text text-anchor="start" x="278" y="-285.8" font-family="Times,serif" font-size="14.00">%0</text>
</g>
<!-- node5 -->
<g id="node6" class="node">
<title>node5</title>
<polygon fill="none" stroke="black" points="347,-225.5 347,-263.5 621,-263.5 621,-225.5 347,-225.5"/>
<text text-anchor="start" x="355" y="-248.3" font-family="Times,serif" font-size="14.00">Join %0 %4</text>
<text text-anchor="start" x="355" y="-233.3" font-family="Times,serif" font-size="14.00">&#45; implementation = Unimplemented</text>
</g>
<!-- node0&#45;&gt;node5 -->
<g id="edge3" class="edge">
<title>node0&#45;&gt;node5</title>
<path fill="none" stroke="black" d="M366.84,-315.31C389.2,-301.99 420.4,-283.4 444.98,-268.75"/>
<polygon fill="black" stroke="black" points="446.91,-271.68 453.71,-263.55 443.33,-265.66 446.91,-271.68"/>
<text text-anchor="start" x="419" y="-285.8" font-family="Times,serif" font-size="14.00">%0</text>
</g>
<!-- node1 -->
<g id="node2" class="node">
<title>node1</title>
<polygon fill="none" stroke="black" points="0,-315.5 0,-351.5 272,-351.5 272,-315.5 0,-315.5"/>
<text text-anchor="start" x="8" y="-329.8" font-family="Times,serif" font-size="14.00">Get negate_threshold.public.r (u51)</text>
</g>
<!-- node1&#45;&gt;node2 -->
<g id="edge1" class="edge">
<title>node1&#45;&gt;node2</title>
<path fill="none" stroke="black" d="M147.06,-315.31C154.96,-303.04 165.74,-286.3 174.76,-272.29"/>
<polygon fill="black" stroke="black" points="177.91,-273.85 180.38,-263.55 172.03,-270.07 177.91,-273.85"/>
<text text-anchor="start" x="167" y="-285.8" font-family="Times,serif" font-size="14.00">%1</text>
</g>
<!-- node3 -->
<g id="node4" class="node">
<title>node3</title>
<polygon fill="none" stroke="black" points="215,-98 215,-166 361,-166 361,-98 215,-98"/>
<text text-anchor="start" x="223" y="-150.8" font-family="Times,serif" font-size="14.00">Map #0</text>
<text text-anchor="start" x="223" y="-135.8" font-family="Times,serif" font-size="14.00">Map #1</text>
<text text-anchor="start" x="223" y="-120.8" font-family="Times,serif" font-size="14.00">Project (#0..=#3)</text>
<text text-anchor="start" x="223" y="-105.8" font-family="Times,serif" font-size="14.00">Project (#2, #3)</text>
</g>
<!-- node2&#45;&gt;node3 -->
<g id="edge4" class="edge">
<title>node2&#45;&gt;node3</title>
<path fill="none" stroke="black" d="M207.85,-225.25C219.95,-211.33 237.1,-191.59 252.42,-173.95"/>
<polygon fill="black" stroke="black" points="255.4,-175.86 259.31,-166.02 250.11,-171.27 255.4,-175.86"/>
<text text-anchor="start" x="234" y="-195.8" font-family="Times,serif" font-size="14.00">%2</text>
</g>
<!-- node7 -->
<g id="node8" class="node">
<title>node7</title>
<polygon fill="none" stroke="black" points="313.5,-0.5 313.5,-38.5 426.5,-38.5 426.5,-0.5 313.5,-0.5"/>
<text text-anchor="start" x="321.5" y="-23.3" font-family="Times,serif" font-size="14.00">Union %3 %6</text>
<text text-anchor="start" x="321.5" y="-8.3" font-family="Times,serif" font-size="14.00">Threshold</text>
</g>
<!-- node3&#45;&gt;node7 -->
<g id="edge5" class="edge">
<title>node3&#45;&gt;node7</title>
<path fill="none" stroke="black" d="M312.6,-97.85C324.78,-81.43 339.27,-61.9 350.65,-46.58"/>
<polygon fill="black" stroke="black" points="353.46,-48.66 356.61,-38.54 347.84,-44.48 353.46,-48.66"/>
<text text-anchor="start" x="341" y="-60.8" font-family="Times,serif" font-size="14.00">%3</text>
</g>
<!-- node4 -->
<g id="node5" class="node">
<title>node4</title>
<polygon fill="none" stroke="black" points="404,-315.5 404,-351.5 676,-351.5 676,-315.5 404,-315.5"/>
<text text-anchor="start" x="412" y="-329.8" font-family="Times,serif" font-size="14.00">Get negate_threshold.public.s (u52)</text>
</g>
<!-- node4&#45;&gt;node5 -->
<g id="edge2" class="edge">
<title>node4&#45;&gt;node5</title>
<path fill="none" stroke="black" d="M528.94,-315.31C521.04,-303.04 510.26,-286.3 501.24,-272.29"/>
<polygon fill="black" stroke="black" points="503.97,-270.07 495.62,-263.55 498.09,-273.85 503.97,-270.07"/>
<text text-anchor="start" x="517" y="-285.8" font-family="Times,serif" font-size="14.00">%4</text>
</g>
<!-- node6 -->
<g id="node7" class="node">
<title>node6</title>
<polygon fill="none" stroke="black" points="395,-90.5 395,-173.5 541,-173.5 541,-90.5 395,-90.5"/>
<text text-anchor="start" x="403" y="-158.3" font-family="Times,serif" font-size="14.00">Map #0</text>
<text text-anchor="start" x="403" y="-143.3" font-family="Times,serif" font-size="14.00">Map #1</text>
<text text-anchor="start" x="403" y="-128.3" font-family="Times,serif" font-size="14.00">Project (#0..=#3)</text>
<text text-anchor="start" x="403" y="-113.3" font-family="Times,serif" font-size="14.00">Project (#2, #3)</text>
<text text-anchor="start" x="403" y="-98.3" font-family="Times,serif" font-size="14.00">Negate</text>
</g>
<!-- node5&#45;&gt;node6 -->
<g id="edge7" class="edge">
<title>node5&#45;&gt;node6</title>
<path fill="none" stroke="black" d="M481.36,-225.25C479.71,-213.9 477.51,-198.68 475.37,-183.89"/>
<polygon fill="black" stroke="black" points="478.8,-183.16 473.9,-173.76 471.87,-184.16 478.8,-183.16"/>
<text text-anchor="start" x="478" y="-195.8" font-family="Times,serif" font-size="14.00">%5</text>
</g>
<!-- node6&#45;&gt;node7 -->
<g id="edge8" class="edge">
<title>node6&#45;&gt;node7</title>
<path fill="none" stroke="black" d="M432.06,-90.48C419.04,-75.79 404.68,-59.6 393.06,-46.5"/>
<polygon fill="black" stroke="black" points="395.46,-43.94 386.21,-38.78 390.23,-48.58 395.46,-43.94"/>
<text text-anchor="start" x="413" y="-60.8" font-family="Times,serif" font-size="14.00">%6</text>
</g>
</g>
</svg>
