<?xml version="1.0" encoding="UTF-8" standalone="no"?>
<!DOCTYPE svg PUBLIC "-//W3C//DTD SVG 1.1//EN"
 "http://www.w3.org/Graphics/SVG/1.1/DTD/svg11.dtd">
<!-- Generated by graphviz version 2.43.0 (0)
 -->
<!-- Title: G Pages: 1 -->
<svg width="570pt" height="137pt"
 viewBox="0.00 0.00 570.00 137.00" xmlns="http://www.w3.org/2000/svg" xmlns:xlink="http://www.w3.org/1999/xlink">
<g id="graph0" class="graph" transform="scale(1 1) rotate(0) translate(4 133)">
<title>G</title>
<polygon fill="white" stroke="transparent" points="-4,4 -4,-133 566,-133 566,4 -4,4"/>
<!-- node0 -->
<g id="node1" class="node">
<title>node0</title>
<polygon fill="none" stroke="black" points="0,-91.5 0,-127.5 272,-127.5 272,-91.5 0,-91.5"/>
<text text-anchor="start" x="8" y="-105.8" font-family="Times,serif" font-size="14.00">Get negate_threshold.public.r (u51)</text>
</g>
<!-- node2 -->
<g id="node3" class="node">
<title>node2</title>
<polygon fill="none" stroke="black" points="224.5,-0.5 224.5,-38.5 337.5,-38.5 337.5,-0.5 224.5,-0.5"/>
<text text-anchor="start" x="232.5" y="-23.3" font-family="Times,serif" font-size="14.00">Union %0 %1</text>
<text text-anchor="start" x="232.5" y="-8.3" font-family="Times,serif" font-size="14.00">Threshold</text>
</g>
<!-- node0&#45;&gt;node2 -->
<g id="edge2" class="edge">
<title>node0&#45;&gt;node2</title>
<path fill="none" stroke="black" d="M164.3,-91.32C186.62,-77.78 217.96,-58.76 242.55,-43.83"/>
<polygon fill="black" stroke="black" points="244.54,-46.72 251.27,-38.54 240.91,-40.74 244.54,-46.72"/>
<text text-anchor="start" x="218" y="-60.8" font-family="Times,serif" font-size="14.00">%0</text>
</g>
<!-- node1 -->
<g id="node2" class="node">
<title>node1</title>
<polygon fill="none" stroke="black" points="290,-90.5 290,-128.5 562,-128.5 562,-90.5 290,-90.5"/>
<text text-anchor="start" x="298" y="-113.3" font-family="Times,serif" font-size="14.00">Get negate_threshold.public.s (u52)</text>
<text text-anchor="start" x="298" y="-98.3" font-family="Times,serif" font-size="14.00">Negate</text>
</g>
<!-- node1&#45;&gt;node2 -->
<g id="edge1" class="edge">
<title>node1&#45;&gt;node2</title>
<path fill="none" stroke="black" d="M396.31,-90.48C374.27,-77.1 344,-58.74 320.01,-44.17"/>
<polygon fill="black" stroke="black" points="321.52,-40.99 311.15,-38.8 317.88,-46.98 321.52,-40.99"/>
<text text-anchor="start" x="363" y="-60.8" font-family="Times,serif" font-size="14.00">%1</text>
</g>
</g>
</svg>
