<?xml version="1.0" encoding="UTF-8" standalone="no"?>
<!DOCTYPE svg PUBLIC "-//W3C//DTD SVG 1.1//EN"
 "http://www.w3.org/Graphics/SVG/1.1/DTD/svg11.dtd">
<!-- Generated by graphviz version 2.43.0 (0)
 -->
<!-- Title: G Pages: 1 -->
<svg width="570pt" height="167pt"
 viewBox="0.00 0.00 570.00 167.00" xmlns="http://www.w3.org/2000/svg" xmlns:xlink="http://www.w3.org/1999/xlink">
<g id="graph0" class="graph" transform="scale(1 1) rotate(0) translate(4 163)">
<title>G</title>
<polygon fill="white" stroke="transparent" points="-4,4 -4,-163 566,-163 566,4 -4,4"/>
<!-- node0 -->
<g id="node1" class="node">
<title>node0</title>
<polygon fill="none" stroke="black" points="0,-98 0,-151 272,-151 272,-98 0,-98"/>
<text text-anchor="start" x="8" y="-135.8" font-family="Times,serif" font-size="14.00">Get negate_threshold.public.r (u51)</text>
<text text-anchor="start" x="8" y="-120.8" font-family="Times,serif" font-size="14.00">Map #0, #1</text>
<text text-anchor="start" x="8" y="-105.8" font-family="Times,serif" font-size="14.00">Project (#2, #3)</text>
</g>
<!-- node2 -->
<g id="node3" class="node">
<title>node2</title>
<polygon fill="none" stroke="black" points="224.5,-0.5 224.5,-38.5 337.5,-38.5 337.5,-0.5 224.5,-0.5"/>
<text text-anchor="start" x="232.5" y="-23.3" font-family="Times,serif" font-size="14.00">Union %0 %1</text>
<text text-anchor="start" x="232.5" y="-8.3" font-family="Times,serif" font-size="14.00">Threshold</text>
</g>
<!-- node0&#45;&gt;node2 -->
<g id="edge2" class="edge">
<title>node0&#45;&gt;node2</title>
<path fill="none" stroke="black" d="M172.22,-97.77C195.12,-81.5 224.55,-60.6 247.01,-44.64"/>
<polygon fill="black" stroke="black" points="249.13,-47.43 255.26,-38.79 245.08,-41.72 249.13,-47.43"/>
<text text-anchor="start" x="226" y="-60.8" font-family="Times,serif" font-size="14.00">%0</text>
</g>
<!-- node1 -->
<g id="node2" class="node">
<title>node1</title>
<polygon fill="none" stroke="black" points="290,-90.5 290,-158.5 562,-158.5 562,-90.5 290,-90.5"/>
<text text-anchor="start" x="298" y="-143.3" font-family="Times,serif" font-size="14.00">Get negate_threshold.public.s (u52)</text>
<text text-anchor="start" x="298" y="-128.3" font-family="Times,serif" font-size="14.00">Map #0, #1</text>
<text text-anchor="start" x="298" y="-113.3" font-family="Times,serif" font-size="14.00">Project (#2, #3)</text>
<text text-anchor="start" x="298" y="-98.3" font-family="Times,serif" font-size="14.00">Negate</text>
</g>
<!-- node1&#45;&gt;node2 -->
<g id="edge1" class="edge">
<title>node1&#45;&gt;node2</title>
<path fill="none" stroke="black" d="M379.32,-90.34C358.26,-75.38 333.86,-58.05 314.64,-44.39"/>
<polygon fill="black" stroke="black" points="316.65,-41.53 306.47,-38.59 312.6,-47.24 316.65,-41.53"/>
<text text-anchor="start" x="354" y="-60.8" font-family="Times,serif" font-size="14.00">%1</text>
</g>
</g>
</svg>
