<?xml version="1.0" encoding="UTF-8" standalone="no"?>
<!DOCTYPE svg PUBLIC "-//W3C//DTD SVG 1.1//EN"
 "http://www.w3.org/Graphics/SVG/1.1/DTD/svg11.dtd">
<!-- Generated by graphviz version 2.43.0 (0)
 -->
<!-- Title: G Pages: 1 -->
<svg width="277pt" height="257pt"
 viewBox="0.00 0.00 277.00 257.00" xmlns="http://www.w3.org/2000/svg" xmlns:xlink="http://www.w3.org/1999/xlink">
<g id="graph0" class="graph" transform="scale(1 1) rotate(0) translate(4 253)">
<title>G</title>
<polygon fill="white" stroke="transparent" points="-4,4 -4,-253 273,-253 273,4 -4,4"/>
<!-- node0 -->
<g id="node1" class="node">
<title>node0</title>
<polygon fill="none" stroke="black" points="26,-210.5 26,-248.5 127,-248.5 127,-210.5 26,-210.5"/>
<text text-anchor="start" x="34" y="-233.3" font-family="Times,serif" font-size="14.00">Let l0 =</text>
<text text-anchor="start" x="34" y="-218.3" font-family="Times,serif" font-size="14.00"> Constant ()</text>
</g>
<!-- node2 -->
<g id="node3" class="node">
<title>node2</title>
<polygon fill="none" stroke="black" points="0,-105.5 0,-158.5 269,-158.5 269,-105.5 0,-105.5"/>
<text text-anchor="start" x="8" y="-143.3" font-family="Times,serif" font-size="14.00">Let l1 =</text>
<text text-anchor="start" x="8" y="-128.3" font-family="Times,serif" font-size="14.00"> Join %0 %1</text>
<text text-anchor="start" x="8" y="-113.3" font-family="Times,serif" font-size="14.00"> implementation = Unimplemented</text>
</g>
<!-- node0&#45;&gt;node2 -->
<g id="edge2" class="edge">
<title>node0&#45;&gt;node2</title>
<path fill="none" stroke="black" d="M87.68,-210.09C95.04,-197.97 104.9,-181.73 113.68,-167.29"/>
<polygon fill="black" stroke="black" points="116.77,-168.94 118.97,-158.58 110.78,-165.31 116.77,-168.94"/>
<text text-anchor="start" x="107.5" y="-180.8" font-family="Times,serif" font-size="14.00">%0</text>
</g>
<!-- node1 -->
<g id="node2" class="node">
<title>node1</title>
<polygon fill="none" stroke="black" points="145.5,-211.5 145.5,-247.5 241.5,-247.5 241.5,-211.5 145.5,-211.5"/>
<text text-anchor="start" x="153.5" y="-225.8" font-family="Times,serif" font-size="14.00">Constant ()</text>
</g>
<!-- node1&#45;&gt;node2 -->
<g id="edge3" class="edge">
<title>node1&#45;&gt;node2</title>
<path fill="none" stroke="black" d="M182.95,-211.43C175.36,-199.14 164.86,-182.15 155.58,-167.12"/>
<polygon fill="black" stroke="black" points="158.52,-165.22 150.29,-158.55 152.57,-168.9 158.52,-165.22"/>
<text text-anchor="start" x="168.5" y="-180.8" font-family="Times,serif" font-size="14.00">%1</text>
</g>
<!-- node3 -->
<g id="node4" class="node">
<title>node3</title>
<polygon fill="none" stroke="black" points="10.5,-0.5 10.5,-53.5 258.5,-53.5 258.5,-0.5 10.5,-0.5"/>
<text text-anchor="start" x="18.5" y="-38.3" font-family="Times,serif" font-size="14.00">Get %2 (l1)</text>
<text text-anchor="start" x="18.5" y="-23.3" font-family="Times,serif" font-size="14.00"> Map &quot;v0.16.1&#45;dev (a522973a7)&quot;</text>
<text text-anchor="start" x="18.5" y="-8.3" font-family="Times,serif" font-size="14.00"> Project (#0)</text>
</g>
<!-- node2&#45;&gt;node3 -->
<g id="edge1" class="edge">
<title>node2&#45;&gt;node3</title>
<path fill="none" stroke="black" d="M134.5,-105.27C134.5,-92.74 134.5,-77.46 134.5,-63.81"/>
<polygon fill="black" stroke="black" points="138,-63.75 134.5,-53.75 131,-63.75 138,-63.75"/>
<text text-anchor="start" x="134.5" y="-75.8" font-family="Times,serif" font-size="14.00">%2</text>
</g>
</g>
</svg>
