<?xml version="1.0" encoding="UTF-8" standalone="no"?>
<!DOCTYPE svg PUBLIC "-//W3C//DTD SVG 1.1//EN"
 "http://www.w3.org/Graphics/SVG/1.1/DTD/svg11.dtd">
<!-- Generated by graphviz version 2.43.0 (0)
 -->
<!-- Title: G Pages: 1 -->
<svg width="394pt" height="231pt"
 viewBox="0.00 0.00 394.00 231.09" xmlns="http://www.w3.org/2000/svg" xmlns:xlink="http://www.w3.org/1999/xlink">
<g id="graph0" class="graph" transform="scale(1 1) rotate(0) translate(4 227.09)">
<title>G</title>
<polygon fill="white" stroke="transparent" points="-4,4 -4,-227.09 390,-227.09 390,4 -4,4"/>
<g id="clust1" class="cluster">
<title>cluster1</title>
<polygon fill="none" stroke="black" points="44,-102 44,-215.09 378,-215.09 378,-102 44,-102"/>
<text text-anchor="middle" x="94.5" y="-199.89" font-family="Times,serif" font-size="14.00">Box1:Select</text>
</g>
<g id="clust3" class="cluster">
<title>cluster0</title>
<polygon fill="none" stroke="black" points="8,-8 8,-94 170,-94 170,-8 8,-8"/>
<text text-anchor="middle" x="60" y="-78.8" font-family="Times,serif" font-size="14.00">Box0:Values</text>
</g>
<!-- boxhead1 -->
<g id="node1" class="node">
<title>boxhead1</title>
<polygon fill="none" stroke="black" points="144,-124.05 144,-170.05 370,-170.05 370,-124.05 144,-124.05"/>
<text text-anchor="middle" x="257" y="-154.85" font-family="Times,serif" font-size="14.00">Distinct: Preserve</text>
<polyline fill="none" stroke="black" points="144,-147.05 370,-147.05 "/>
<text text-anchor="middle" x="257" y="-131.85" font-family="Times,serif" font-size="14.00">0: &quot;v0.16.1&#45;dev (a522973a7)&quot;</text>
</g>
<!-- Q0 -->
<g id="node2" class="node">
<title>Q0</title>
<ellipse fill="none" stroke="black" cx="89" cy="-147.05" rx="37.09" ry="37.09"/>
<text text-anchor="middle" x="89" y="-143.35" font-family="Times,serif" font-size="14.00">Q0(F)</text>
</g>
<!-- boxhead0 -->
<g id="node3" class="node">
<title>boxhead0</title>
<polygon fill="none" stroke="black" points="16,-16.5 16,-62.5 162,-62.5 162,-16.5 16,-16.5"/>
<text text-anchor="middle" x="89" y="-47.3" font-family="Times,serif" font-size="14.00">Distinct: Preserve</text>
<polyline fill="none" stroke="black" points="16,-39.5 162,-39.5 "/>
<text text-anchor="middle" x="89" y="-24.3" font-family="Times,serif" font-size="14.00">ROW:</text>
</g>
<!-- Q0&#45;&gt;boxhead0 -->
<g id="edge1" class="edge">
<title>Q0&#45;&gt;boxhead0</title>
<path fill="none" stroke="black" stroke-dasharray="5,2" d="M89,-109.72C89,-104.64 89,-99.32 89,-94"/>
</g>
</g>
</svg>
