<?xml version="1.0" encoding="UTF-8" standalone="no"?>
<!DOCTYPE svg PUBLIC "-//W3C//DTD SVG 1.1//EN"
 "http://www.w3.org/Graphics/SVG/1.1/DTD/svg11.dtd">
<!-- Generated by graphviz version 2.43.0 (0)
 -->
<!-- Title: G Pages: 1 -->
<svg width="887pt" height="332pt"
 viewBox="0.00 0.00 887.00 332.00" xmlns="http://www.w3.org/2000/svg" xmlns:xlink="http://www.w3.org/1999/xlink">
<g id="graph0" class="graph" transform="scale(1 1) rotate(0) translate(4 328)">
<title>G</title>
<polygon fill="white" stroke="transparent" points="-4,4 -4,-328 883,-328 883,4 -4,4"/>
<!-- node0 -->
<g id="node1" class="node">
<title>node0</title>
<polygon fill="none" stroke="black" points="389,-285.5 389,-323.5 490,-323.5 490,-285.5 389,-285.5"/>
<text text-anchor="start" x="397" y="-308.3" font-family="Times,serif" font-size="14.00">Let l0 =</text>
<text text-anchor="start" x="397" y="-293.3" font-family="Times,serif" font-size="14.00"> Constant ()</text>
</g>
<!-- node2 -->
<g id="node3" class="node">
<title>node2</title>
<polygon fill="none" stroke="black" points="205,-195.5 205,-233.5 474,-233.5 474,-195.5 205,-195.5"/>
<text text-anchor="start" x="213" y="-218.3" font-family="Times,serif" font-size="14.00">Join %0 %1</text>
<text text-anchor="start" x="213" y="-203.3" font-family="Times,serif" font-size="14.00"> implementation = Unimplemented</text>
</g>
<!-- node0&#45;&gt;node2 -->
<g id="edge4" class="edge">
<title>node0&#45;&gt;node2</title>
<path fill="none" stroke="black" d="M418.78,-285.27C404.03,-272.29 384.03,-254.69 367.81,-240.42"/>
<polygon fill="black" stroke="black" points="370.01,-237.69 360.19,-233.71 365.39,-242.94 370.01,-237.69"/>
<text text-anchor="start" x="394.5" y="-255.8" font-family="Times,serif" font-size="14.00">%0</text>
</g>
<!-- node4 -->
<g id="node5" class="node">
<title>node4</title>
<polygon fill="none" stroke="black" points="492,-195.5 492,-233.5 761,-233.5 761,-195.5 492,-195.5"/>
<text text-anchor="start" x="500" y="-218.3" font-family="Times,serif" font-size="14.00">Join %0 %3</text>
<text text-anchor="start" x="500" y="-203.3" font-family="Times,serif" font-size="14.00"> implementation = Unimplemented</text>
</g>
<!-- node0&#45;&gt;node4 -->
<g id="edge6" class="edge">
<title>node0&#45;&gt;node4</title>
<path fill="none" stroke="black" d="M477.79,-285.48C506.94,-271.76 547.24,-252.8 578.54,-238.07"/>
<polygon fill="black" stroke="black" points="580.38,-241.07 587.94,-233.65 577.4,-234.74 580.38,-241.07"/>
<text text-anchor="start" x="543.5" y="-255.8" font-family="Times,serif" font-size="14.00">%0</text>
</g>
<!-- node1 -->
<g id="node2" class="node">
<title>node1</title>
<polygon fill="none" stroke="black" points="0,-286.5 0,-322.5 371,-322.5 371,-286.5 0,-286.5"/>
<text text-anchor="start" x="8" y="-300.8" font-family="Times,serif" font-size="14.00">Get simplify_outer_joins.public.table_f4_f5 (u109)</text>
</g>
<!-- node1&#45;&gt;node2 -->
<g id="edge2" class="edge">
<title>node1&#45;&gt;node2</title>
<path fill="none" stroke="black" d="M215.56,-286.32C239.36,-272.72 272.84,-253.59 299.01,-238.64"/>
<polygon fill="black" stroke="black" points="300.98,-241.54 307.93,-233.54 297.51,-235.46 300.98,-241.54"/>
<text text-anchor="start" x="271.5" y="-255.8" font-family="Times,serif" font-size="14.00">%1</text>
</g>
<!-- node5 -->
<g id="node6" class="node">
<title>node5</title>
<polygon fill="none" stroke="black" points="348,-0.5 348,-143.5 617,-143.5 617,-0.5 348,-0.5"/>
<text text-anchor="start" x="356" y="-128.3" font-family="Times,serif" font-size="14.00">Join %2 %4</text>
<text text-anchor="start" x="356" y="-113.3" font-family="Times,serif" font-size="14.00"> implementation = Unimplemented</text>
<text text-anchor="start" x="356" y="-98.3" font-family="Times,serif" font-size="14.00"> Project (#0..=#3)</text>
<text text-anchor="start" x="356" y="-83.3" font-family="Times,serif" font-size="14.00"> Filter (true &amp;&amp; (#1 = #2))</text>
<text text-anchor="start" x="356" y="-68.3" font-family="Times,serif" font-size="14.00"> Project (#0..=#3)</text>
<text text-anchor="start" x="356" y="-53.3" font-family="Times,serif" font-size="14.00"> Project (#2, #0, #1, #3)</text>
<text text-anchor="start" x="356" y="-38.3" font-family="Times,serif" font-size="14.00"> Filter (true &amp;&amp; (#0 = #1))</text>
<text text-anchor="start" x="356" y="-23.3" font-family="Times,serif" font-size="14.00"> Project (#0..=#3)</text>
<text text-anchor="start" x="356" y="-8.3" font-family="Times,serif" font-size="14.00"> Project (#0, #1, #3)</text>
</g>
<!-- node2&#45;&gt;node5 -->
<g id="edge1" class="edge">
<title>node2&#45;&gt;node5</title>
<path fill="none" stroke="black" d="M357.9,-195.42C369.85,-183.68 386.33,-167.49 403.39,-150.73"/>
<polygon fill="black" stroke="black" points="406.05,-153.02 410.73,-143.52 401.14,-148.03 406.05,-153.02"/>
<text text-anchor="start" x="389.5" y="-165.8" font-family="Times,serif" font-size="14.00">%2</text>
</g>
<!-- node3 -->
<g id="node4" class="node">
<title>node3</title>
<polygon fill="none" stroke="black" points="508,-286.5 508,-322.5 879,-322.5 879,-286.5 508,-286.5"/>
<text text-anchor="start" x="516" y="-300.8" font-family="Times,serif" font-size="14.00">Get simplify_outer_joins.public.table_f5_f6 (u111)</text>
</g>
<!-- node3&#45;&gt;node4 -->
<g id="edge3" class="edge">
<title>node3&#45;&gt;node4</title>
<path fill="none" stroke="black" d="M680.26,-286.11C670.64,-273.47 657.43,-256.13 646.52,-241.79"/>
<polygon fill="black" stroke="black" points="649.24,-239.59 640.4,-233.76 643.67,-243.84 649.24,-239.59"/>
<text text-anchor="start" x="663.5" y="-255.8" font-family="Times,serif" font-size="14.00">%3</text>
</g>
<!-- node4&#45;&gt;node5 -->
<g id="edge5" class="edge">
<title>node4&#45;&gt;node5</title>
<path fill="none" stroke="black" d="M607.97,-195.42C595.94,-183.68 579.35,-167.49 562.16,-150.73"/>
<polygon fill="black" stroke="black" points="564.38,-148 554.78,-143.52 559.49,-153.01 564.38,-148"/>
<text text-anchor="start" x="587.5" y="-165.8" font-family="Times,serif" font-size="14.00">%4</text>
</g>
</g>
</svg>
