<?xml version="1.0" encoding="UTF-8" standalone="no"?>
<!DOCTYPE svg PUBLIC "-//W3C//DTD SVG 1.1//EN"
 "http://www.w3.org/Graphics/SVG/1.1/DTD/svg11.dtd">
<!-- Generated by graphviz version 2.43.0 (0)
 -->
<!-- Title: G Pages: 1 -->
<svg width="768pt" height="182pt"
 viewBox="0.00 0.00 768.00 182.00" xmlns="http://www.w3.org/2000/svg" xmlns:xlink="http://www.w3.org/1999/xlink">
<g id="graph0" class="graph" transform="scale(1 1) rotate(0) translate(4 178)">
<title>G</title>
<polygon fill="white" stroke="transparent" points="-4,4 -4,-178 764,-178 764,4 -4,4"/>
<!-- node0 -->
<g id="node1" class="node">
<title>node0</title>
<polygon fill="none" stroke="black" points="0,-105.5 0,-173.5 371,-173.5 371,-105.5 0,-105.5"/>
<text text-anchor="start" x="8" y="-158.3" font-family="Times,serif" font-size="14.00">Get simplify_outer_joins.public.table_f4_f5 (u109)</text>
<text text-anchor="start" x="8" y="-143.3" font-family="Times,serif" font-size="14.00"> Filter (#0 = #1)</text>
<text text-anchor="start" x="8" y="-128.3" font-family="Times,serif" font-size="14.00"> Project (#0)</text>
<text text-anchor="start" x="8" y="-113.3" font-family="Times,serif" font-size="14.00"> ArrangeBy (#0)</text>
</g>
<!-- node2 -->
<g id="node3" class="node">
<title>node2</title>
<polygon fill="none" stroke="black" points="216.5,-0.5 216.5,-53.5 542.5,-53.5 542.5,-0.5 216.5,-0.5"/>
<text text-anchor="start" x="224.5" y="-38.3" font-family="Times,serif" font-size="14.00">Join %0 %1 (= #0 #1)</text>
<text text-anchor="start" x="224.5" y="-23.3" font-family="Times,serif" font-size="14.00"> implementation = Differential %1 %0.(#0)</text>
<text text-anchor="start" x="224.5" y="-8.3" font-family="Times,serif" font-size="14.00"> Project (#0, #0, #2)</text>
</g>
<!-- node0&#45;&gt;node2 -->
<g id="edge2" class="edge">
<title>node0&#45;&gt;node2</title>
<path fill="none" stroke="black" d="M243.44,-105.5C269.51,-90.65 300.1,-73.23 325.66,-58.67"/>
<polygon fill="black" stroke="black" points="327.52,-61.64 334.47,-53.65 324.05,-55.55 327.52,-61.64"/>
<text text-anchor="start" x="300.5" y="-75.8" font-family="Times,serif" font-size="14.00">%0</text>
</g>
<!-- node1 -->
<g id="node2" class="node">
<title>node1</title>
<polygon fill="none" stroke="black" points="389,-120.5 389,-158.5 760,-158.5 760,-120.5 389,-120.5"/>
<text text-anchor="start" x="397" y="-143.3" font-family="Times,serif" font-size="14.00">Get simplify_outer_joins.public.table_f5_f6 (u111)</text>
<text text-anchor="start" x="397" y="-128.3" font-family="Times,serif" font-size="14.00"> Filter !(isnull(#0))</text>
</g>
<!-- node1&#45;&gt;node2 -->
<g id="edge1" class="edge">
<title>node1&#45;&gt;node2</title>
<path fill="none" stroke="black" d="M542.3,-120.25C512.81,-103.54 468.56,-78.47 433.64,-58.68"/>
<polygon fill="black" stroke="black" points="434.94,-55.39 424.52,-53.51 431.49,-61.48 434.94,-55.39"/>
<text text-anchor="start" x="483.5" y="-75.8" font-family="Times,serif" font-size="14.00">%1</text>
</g>
</g>
</svg>
