<?xml version="1.0" encoding="UTF-8" standalone="no"?>
<!DOCTYPE svg PUBLIC "-//W3C//DTD SVG 1.1//EN"
 "http://www.w3.org/Graphics/SVG/1.1/DTD/svg11.dtd">
<!-- Generated by graphviz version 2.43.0 (0)
 -->
<!-- Title: G Pages: 1 -->
<svg width="887pt" height="632pt"
 viewBox="0.00 0.00 887.00 632.00" xmlns="http://www.w3.org/2000/svg" xmlns:xlink="http://www.w3.org/1999/xlink">
<g id="graph0" class="graph" transform="scale(1 1) rotate(0) translate(4 628)">
<title>G</title>
<polygon fill="white" stroke="transparent" points="-4,4 -4,-628 883,-628 883,4 -4,4"/>
<!-- node0 -->
<g id="node1" class="node">
<title>node0</title>
<polygon fill="none" stroke="black" points="389,-555.5 389,-623.5 490,-623.5 490,-555.5 389,-555.5"/>
<text text-anchor="start" x="397" y="-608.3" font-family="Times,serif" font-size="14.00">Let l0 =</text>
<text text-anchor="start" x="397" y="-593.3" font-family="Times,serif" font-size="14.00"> Constant ()</text>
<text text-anchor="start" x="397" y="-578.3" font-family="Times,serif" font-size="14.00"> types = ()</text>
<text text-anchor="start" x="397" y="-563.3" font-family="Times,serif" font-size="14.00"> keys = (())</text>
</g>
<!-- node2 -->
<g id="node3" class="node">
<title>node2</title>
<polygon fill="none" stroke="black" points="205,-435.5 205,-503.5 474,-503.5 474,-435.5 205,-435.5"/>
<text text-anchor="start" x="213" y="-488.3" font-family="Times,serif" font-size="14.00">Join %0 %1</text>
<text text-anchor="start" x="213" y="-473.3" font-family="Times,serif" font-size="14.00"> implementation = Unimplemented</text>
<text text-anchor="start" x="213" y="-458.3" font-family="Times,serif" font-size="14.00"> types = (integer?, integer?)</text>
<text text-anchor="start" x="213" y="-443.3" font-family="Times,serif" font-size="14.00"> keys = ()</text>
</g>
<!-- node0&#45;&gt;node2 -->
<g id="edge4" class="edge">
<title>node0&#45;&gt;node2</title>
<path fill="none" stroke="black" d="M411.38,-555.32C399.88,-541.74 386.45,-525.9 374.33,-511.6"/>
<polygon fill="black" stroke="black" points="376.89,-509.21 367.76,-503.84 371.55,-513.74 376.89,-509.21"/>
<text text-anchor="start" x="394.5" y="-525.8" font-family="Times,serif" font-size="14.00">%0</text>
</g>
<!-- node4 -->
<g id="node5" class="node">
<title>node4</title>
<polygon fill="none" stroke="black" points="492,-435.5 492,-503.5 761,-503.5 761,-435.5 492,-435.5"/>
<text text-anchor="start" x="500" y="-488.3" font-family="Times,serif" font-size="14.00">Join %0 %3</text>
<text text-anchor="start" x="500" y="-473.3" font-family="Times,serif" font-size="14.00"> implementation = Unimplemented</text>
<text text-anchor="start" x="500" y="-458.3" font-family="Times,serif" font-size="14.00"> types = (integer?, integer?)</text>
<text text-anchor="start" x="500" y="-443.3" font-family="Times,serif" font-size="14.00"> keys = ()</text>
</g>
<!-- node0&#45;&gt;node4 -->
<g id="edge6" class="edge">
<title>node0&#45;&gt;node4</title>
<path fill="none" stroke="black" d="M490.1,-556.57C513.33,-541.91 541.06,-524.42 565.43,-509.04"/>
<polygon fill="black" stroke="black" points="567.31,-511.99 573.9,-503.69 563.57,-506.07 567.31,-511.99"/>
<text text-anchor="start" x="543.5" y="-525.8" font-family="Times,serif" font-size="14.00">%0</text>
</g>
<!-- node1 -->
<g id="node2" class="node">
<title>node1</title>
<polygon fill="none" stroke="black" points="0,-563 0,-616 371,-616 371,-563 0,-563"/>
<text text-anchor="start" x="8" y="-600.8" font-family="Times,serif" font-size="14.00">Get simplify_outer_joins.public.table_f4_f5 (u109)</text>
<text text-anchor="start" x="8" y="-585.8" font-family="Times,serif" font-size="14.00"> types = (integer?, integer?)</text>
<text text-anchor="start" x="8" y="-570.8" font-family="Times,serif" font-size="14.00"> keys = ()</text>
</g>
<!-- node1&#45;&gt;node2 -->
<g id="edge2" class="edge">
<title>node1&#45;&gt;node2</title>
<path fill="none" stroke="black" d="M218.92,-562.9C239.09,-547.44 265.2,-527.43 287.97,-509.98"/>
<polygon fill="black" stroke="black" points="290.38,-512.54 296.19,-503.68 286.13,-506.99 290.38,-512.54"/>
<text text-anchor="start" x="271.5" y="-525.8" font-family="Times,serif" font-size="14.00">%1</text>
</g>
<!-- node5 -->
<g id="node6" class="node">
<title>node5</title>
<polygon fill="none" stroke="black" points="304.5,-0.5 304.5,-383.5 660.5,-383.5 660.5,-0.5 304.5,-0.5"/>
<text text-anchor="start" x="312.5" y="-368.3" font-family="Times,serif" font-size="14.00">Join %2 %4</text>
<text text-anchor="start" x="312.5" y="-353.3" font-family="Times,serif" font-size="14.00"> implementation = Unimplemented</text>
<text text-anchor="start" x="312.5" y="-338.3" font-family="Times,serif" font-size="14.00"> types = (integer?, integer?, integer?, integer?)</text>
<text text-anchor="start" x="312.5" y="-323.3" font-family="Times,serif" font-size="14.00"> keys = ()</text>
<text text-anchor="start" x="312.5" y="-308.3" font-family="Times,serif" font-size="14.00"> Project (#0..=#3)</text>
<text text-anchor="start" x="312.5" y="-293.3" font-family="Times,serif" font-size="14.00"> types = (integer?, integer?, integer?, integer?)</text>
<text text-anchor="start" x="312.5" y="-278.3" font-family="Times,serif" font-size="14.00"> keys = ()</text>
<text text-anchor="start" x="312.5" y="-263.3" font-family="Times,serif" font-size="14.00"> Filter (true &amp;&amp; (#1 = #2))</text>
<text text-anchor="start" x="312.5" y="-248.3" font-family="Times,serif" font-size="14.00"> types = (integer?, integer?, integer?, integer?)</text>
<text text-anchor="start" x="312.5" y="-233.3" font-family="Times,serif" font-size="14.00"> keys = ()</text>
<text text-anchor="start" x="312.5" y="-218.3" font-family="Times,serif" font-size="14.00"> Project (#0..=#3)</text>
<text text-anchor="start" x="312.5" y="-203.3" font-family="Times,serif" font-size="14.00"> types = (integer?, integer?, integer?, integer?)</text>
<text text-anchor="start" x="312.5" y="-188.3" font-family="Times,serif" font-size="14.00"> keys = ()</text>
<text text-anchor="start" x="312.5" y="-173.3" font-family="Times,serif" font-size="14.00"> Project (#2, #0, #1, #3)</text>
<text text-anchor="start" x="312.5" y="-158.3" font-family="Times,serif" font-size="14.00"> types = (integer?, integer?, integer?, integer?)</text>
<text text-anchor="start" x="312.5" y="-143.3" font-family="Times,serif" font-size="14.00"> keys = ()</text>
<text text-anchor="start" x="312.5" y="-128.3" font-family="Times,serif" font-size="14.00"> Filter (true &amp;&amp; (#0 = #1))</text>
<text text-anchor="start" x="312.5" y="-113.3" font-family="Times,serif" font-size="14.00"> types = (integer?, integer?, integer?, integer?)</text>
<text text-anchor="start" x="312.5" y="-98.3" font-family="Times,serif" font-size="14.00"> keys = ()</text>
<text text-anchor="start" x="312.5" y="-83.3" font-family="Times,serif" font-size="14.00"> Project (#0..=#3)</text>
<text text-anchor="start" x="312.5" y="-68.3" font-family="Times,serif" font-size="14.00"> types = (integer?, integer?, integer?, integer?)</text>
<text text-anchor="start" x="312.5" y="-53.3" font-family="Times,serif" font-size="14.00"> keys = ()</text>
<text text-anchor="start" x="312.5" y="-38.3" font-family="Times,serif" font-size="14.00"> Project (#0, #1, #3)</text>
<text text-anchor="start" x="312.5" y="-23.3" font-family="Times,serif" font-size="14.00"> types = (integer?, integer?, integer?)</text>
<text text-anchor="start" x="312.5" y="-8.3" font-family="Times,serif" font-size="14.00"> keys = ()</text>
</g>
<!-- node2&#45;&gt;node5 -->
<g id="edge1" class="edge">
<title>node2&#45;&gt;node5</title>
<path fill="none" stroke="black" d="M356.75,-435.27C362.99,-423.25 370.56,-408.66 378.86,-392.67"/>
<polygon fill="black" stroke="black" points="382.04,-394.13 383.54,-383.65 375.83,-390.91 382.04,-394.13"/>
<text text-anchor="start" x="369.5" y="-405.8" font-family="Times,serif" font-size="14.00">%2</text>
</g>
<!-- node3 -->
<g id="node4" class="node">
<title>node3</title>
<polygon fill="none" stroke="black" points="508,-563 508,-616 879,-616 879,-563 508,-563"/>
<text text-anchor="start" x="516" y="-600.8" font-family="Times,serif" font-size="14.00">Get simplify_outer_joins.public.table_f5_f6 (u111)</text>
<text text-anchor="start" x="516" y="-585.8" font-family="Times,serif" font-size="14.00"> types = (integer?, integer?)</text>
<text text-anchor="start" x="516" y="-570.8" font-family="Times,serif" font-size="14.00"> keys = ()</text>
</g>
<!-- node3&#45;&gt;node4 -->
<g id="edge3" class="edge">
<title>node3&#45;&gt;node4</title>
<path fill="none" stroke="black" d="M678.96,-562.9C670.65,-548.25 660.01,-529.52 650.49,-512.76"/>
<polygon fill="black" stroke="black" points="653.32,-510.65 645.34,-503.68 647.24,-514.11 653.32,-510.65"/>
<text text-anchor="start" x="663.5" y="-525.8" font-family="Times,serif" font-size="14.00">%3</text>
</g>
<!-- node4&#45;&gt;node5 -->
<g id="edge5" class="edge">
<title>node4&#45;&gt;node5</title>
<path fill="none" stroke="black" d="M609.13,-435.27C602.85,-423.25 595.23,-408.66 586.86,-392.67"/>
<polygon fill="black" stroke="black" points="589.88,-390.89 582.15,-383.65 583.68,-394.13 589.88,-390.89"/>
<text text-anchor="start" x="598.5" y="-405.8" font-family="Times,serif" font-size="14.00">%4</text>
</g>
</g>
</svg>
