<?xml version="1.0" encoding="UTF-8" standalone="no"?>
<!DOCTYPE svg PUBLIC "-//W3C//DTD SVG 1.1//EN"
 "http://www.w3.org/Graphics/SVG/1.1/DTD/svg11.dtd">
<!-- Generated by graphviz version 2.43.0 (0)
 -->
<!-- Title: G Pages: 1 -->
<svg width="1320pt" height="482pt"
 viewBox="0.00 0.00 1319.50 482.00" xmlns="http://www.w3.org/2000/svg" xmlns:xlink="http://www.w3.org/1999/xlink">
<g id="graph0" class="graph" transform="scale(1 1) rotate(0) translate(4 478)">
<title>G</title>
<polygon fill="white" stroke="transparent" points="-4,4 -4,-478 1315.5,-478 1315.5,4 -4,4"/>
<!-- node0 -->
<g id="node1" class="node">
<title>node0</title>
<polygon fill="none" stroke="black" points="410.5,-435.5 410.5,-473.5 511.5,-473.5 511.5,-435.5 410.5,-435.5"/>
<text text-anchor="start" x="418.5" y="-458.3" font-family="Times,serif" font-size="14.00">Let l0 =</text>
<text text-anchor="start" x="418.5" y="-443.3" font-family="Times,serif" font-size="14.00"> Constant ()</text>
</g>
<!-- node2 -->
<g id="node3" class="node">
<title>node2</title>
<polygon fill="none" stroke="black" points="250.5,-345.5 250.5,-383.5 519.5,-383.5 519.5,-345.5 250.5,-345.5"/>
<text text-anchor="start" x="258.5" y="-368.3" font-family="Times,serif" font-size="14.00">Join %0 %1</text>
<text text-anchor="start" x="258.5" y="-353.3" font-family="Times,serif" font-size="14.00"> implementation = Unimplemented</text>
</g>
<!-- node0&#45;&gt;node2 -->
<g id="edge7" class="edge">
<title>node0&#45;&gt;node2</title>
<path fill="none" stroke="black" d="M445.25,-435.27C434.35,-422.64 419.67,-405.65 407.53,-391.59"/>
<polygon fill="black" stroke="black" points="409.91,-388.99 400.73,-383.71 404.61,-393.57 409.91,-388.99"/>
<text text-anchor="start" x="427" y="-405.8" font-family="Times,serif" font-size="14.00">%0</text>
</g>
<!-- node4 -->
<g id="node5" class="node">
<title>node4</title>
<polygon fill="none" stroke="black" points="537.5,-345.5 537.5,-383.5 806.5,-383.5 806.5,-345.5 537.5,-345.5"/>
<text text-anchor="start" x="545.5" y="-368.3" font-family="Times,serif" font-size="14.00">Join %0 %3</text>
<text text-anchor="start" x="545.5" y="-353.3" font-family="Times,serif" font-size="14.00"> implementation = Unimplemented</text>
</g>
<!-- node0&#45;&gt;node4 -->
<g id="edge6" class="edge">
<title>node0&#45;&gt;node4</title>
<path fill="none" stroke="black" d="M504.21,-435.48C537.52,-421.59 583.75,-402.31 619.24,-387.5"/>
<polygon fill="black" stroke="black" points="620.61,-390.73 628.49,-383.65 617.91,-384.27 620.61,-390.73"/>
<text text-anchor="start" x="579" y="-405.8" font-family="Times,serif" font-size="14.00">%0</text>
</g>
<!-- node6 -->
<g id="node7" class="node">
<title>node6</title>
<polygon fill="none" stroke="black" points="824.5,-345.5 824.5,-383.5 1093.5,-383.5 1093.5,-345.5 824.5,-345.5"/>
<text text-anchor="start" x="832.5" y="-368.3" font-family="Times,serif" font-size="14.00">Join %0 %5</text>
<text text-anchor="start" x="832.5" y="-353.3" font-family="Times,serif" font-size="14.00"> implementation = Unimplemented</text>
</g>
<!-- node0&#45;&gt;node6 -->
<g id="edge5" class="edge">
<title>node0&#45;&gt;node6</title>
<path fill="none" stroke="black" d="M511.65,-437.53C514.8,-436.65 517.94,-435.79 521,-435 558.38,-425.3 568.34,-425.54 606,-417 633.65,-410.73 640.1,-407.05 668,-402 730.15,-390.74 748.55,-392.09 814.23,-384.19"/>
<polygon fill="black" stroke="black" points="814.78,-387.65 824.28,-382.96 813.92,-380.7 814.78,-387.65"/>
<text text-anchor="start" x="668" y="-405.8" font-family="Times,serif" font-size="14.00">%0</text>
</g>
<!-- node1 -->
<g id="node2" class="node">
<title>node1</title>
<polygon fill="none" stroke="black" points="0,-436.5 0,-472.5 392,-472.5 392,-436.5 0,-436.5"/>
<text text-anchor="start" x="8" y="-450.8" font-family="Times,serif" font-size="14.00">Get simplify_outer_joins.public.table_f1_f2_f3 (u113)</text>
</g>
<!-- node1&#45;&gt;node2 -->
<g id="edge4" class="edge">
<title>node1&#45;&gt;node2</title>
<path fill="none" stroke="black" d="M232.89,-436.32C262.61,-422.48 304.63,-402.92 336.98,-387.86"/>
<polygon fill="black" stroke="black" points="338.67,-390.93 346.25,-383.54 335.71,-384.59 338.67,-390.93"/>
<text text-anchor="start" x="302" y="-405.8" font-family="Times,serif" font-size="14.00">%1</text>
</g>
<!-- node8 -->
<g id="node9" class="node">
<title>node8</title>
<polygon fill="none" stroke="black" points="322.5,-0.5 322.5,-143.5 591.5,-143.5 591.5,-0.5 322.5,-0.5"/>
<text text-anchor="start" x="330.5" y="-128.3" font-family="Times,serif" font-size="14.00">Join %2 %7</text>
<text text-anchor="start" x="330.5" y="-113.3" font-family="Times,serif" font-size="14.00"> implementation = Unimplemented</text>
<text text-anchor="start" x="330.5" y="-98.3" font-family="Times,serif" font-size="14.00"> Project (#0..=#7)</text>
<text text-anchor="start" x="330.5" y="-83.3" font-family="Times,serif" font-size="14.00"> Filter (true &amp;&amp; (#2 = #4))</text>
<text text-anchor="start" x="330.5" y="-68.3" font-family="Times,serif" font-size="14.00"> Project (#0..=#7)</text>
<text text-anchor="start" x="330.5" y="-53.3" font-family="Times,serif" font-size="14.00"> Project (#2, #0, #1, #3..=#7)</text>
<text text-anchor="start" x="330.5" y="-38.3" font-family="Times,serif" font-size="14.00"> Filter (true &amp;&amp; (#3 = 0))</text>
<text text-anchor="start" x="330.5" y="-23.3" font-family="Times,serif" font-size="14.00"> Project (#0..=#7)</text>
<text text-anchor="start" x="330.5" y="-8.3" font-family="Times,serif" font-size="14.00"> Project (#0..=#3, #5, #7)</text>
</g>
<!-- node2&#45;&gt;node8 -->
<g id="edge10" class="edge">
<title>node2&#45;&gt;node8</title>
<path fill="none" stroke="black" d="M389.5,-345.33C398.82,-307.76 420.68,-219.53 437.02,-153.62"/>
<polygon fill="black" stroke="black" points="440.48,-154.2 439.49,-143.65 433.69,-152.52 440.48,-154.2"/>
<text text-anchor="start" x="425" y="-240.8" font-family="Times,serif" font-size="14.00">%2</text>
</g>
<!-- node3 -->
<g id="node4" class="node">
<title>node3</title>
<polygon fill="none" stroke="black" points="530,-436.5 530,-472.5 922,-472.5 922,-436.5 530,-436.5"/>
<text text-anchor="start" x="538" y="-450.8" font-family="Times,serif" font-size="14.00">Get simplify_outer_joins.public.table_f3_f4_f5 (u115)</text>
</g>
<!-- node3&#45;&gt;node4 -->
<g id="edge1" class="edge">
<title>node3&#45;&gt;node4</title>
<path fill="none" stroke="black" d="M715.33,-436.11C707.72,-423.71 697.33,-406.77 688.63,-392.6"/>
<polygon fill="black" stroke="black" points="691.42,-390.45 683.2,-383.76 685.45,-394.11 691.42,-390.45"/>
<text text-anchor="start" x="702" y="-405.8" font-family="Times,serif" font-size="14.00">%3</text>
</g>
<!-- node7 -->
<g id="node8" class="node">
<title>node7</title>
<polygon fill="none" stroke="black" points="537.5,-195.5 537.5,-293.5 806.5,-293.5 806.5,-195.5 537.5,-195.5"/>
<text text-anchor="start" x="545.5" y="-278.3" font-family="Times,serif" font-size="14.00">Join %4 %6</text>
<text text-anchor="start" x="545.5" y="-263.3" font-family="Times,serif" font-size="14.00"> implementation = Unimplemented</text>
<text text-anchor="start" x="545.5" y="-248.3" font-family="Times,serif" font-size="14.00"> Project (#0..=#4)</text>
<text text-anchor="start" x="545.5" y="-233.3" font-family="Times,serif" font-size="14.00"> Filter (true &amp;&amp; (#2 = #3))</text>
<text text-anchor="start" x="545.5" y="-218.3" font-family="Times,serif" font-size="14.00"> Project (#0..=#4)</text>
<text text-anchor="start" x="545.5" y="-203.3" font-family="Times,serif" font-size="14.00"> Project (#3, #0..=#2, #4)</text>
</g>
<!-- node4&#45;&gt;node7 -->
<g id="edge9" class="edge">
<title>node4&#45;&gt;node7</title>
<path fill="none" stroke="black" d="M672,-345.32C672,-334.08 672,-318.96 672,-303.9"/>
<polygon fill="black" stroke="black" points="675.5,-303.52 672,-293.52 668.5,-303.52 675.5,-303.52"/>
<text text-anchor="start" x="672" y="-315.8" font-family="Times,serif" font-size="14.00">%4</text>
</g>
<!-- node5 -->
<g id="node6" class="node">
<title>node5</title>
<polygon fill="none" stroke="black" points="940.5,-436.5 940.5,-472.5 1311.5,-472.5 1311.5,-436.5 940.5,-436.5"/>
<text text-anchor="start" x="948.5" y="-450.8" font-family="Times,serif" font-size="14.00">Get simplify_outer_joins.public.table_f5_f6 (u111)</text>
</g>
<!-- node5&#45;&gt;node6 -->
<g id="edge8" class="edge">
<title>node5&#45;&gt;node6</title>
<path fill="none" stroke="black" d="M1093.4,-436.32C1067.37,-422.6 1030.65,-403.25 1002.17,-388.25"/>
<polygon fill="black" stroke="black" points="1003.71,-385.11 993.24,-383.54 1000.45,-391.3 1003.71,-385.11"/>
<text text-anchor="start" x="1052" y="-405.8" font-family="Times,serif" font-size="14.00">%5</text>
</g>
<!-- node6&#45;&gt;node7 -->
<g id="edge3" class="edge">
<title>node6&#45;&gt;node7</title>
<path fill="none" stroke="black" d="M915.1,-345.45C883.86,-332.61 840.19,-314.65 798.47,-297.5"/>
<polygon fill="black" stroke="black" points="799.62,-294.19 789.04,-293.62 796.96,-300.66 799.62,-294.19"/>
<text text-anchor="start" x="866" y="-315.8" font-family="Times,serif" font-size="14.00">%6</text>
</g>
<!-- node7&#45;&gt;node8 -->
<g id="edge2" class="edge">
<title>node7&#45;&gt;node8</title>
<path fill="none" stroke="black" d="M611.25,-195.33C593.46,-181.22 573.55,-165.43 554.1,-150"/>
<polygon fill="black" stroke="black" points="556.1,-147.12 546.09,-143.65 551.75,-152.61 556.1,-147.12"/>
<text text-anchor="start" x="583" y="-165.8" font-family="Times,serif" font-size="14.00">%7</text>
</g>
</g>
</svg>
