<?xml version="1.0" encoding="UTF-8" standalone="no"?>
<!DOCTYPE svg PUBLIC "-//W3C//DTD SVG 1.1//EN"
 "http://www.w3.org/Graphics/SVG/1.1/DTD/svg11.dtd">
<!-- Generated by graphviz version 2.43.0 (0)
 -->
<!-- Title: G Pages: 1 -->
<svg width="1200pt" height="182pt"
 viewBox="0.00 0.00 1199.50 182.00" xmlns="http://www.w3.org/2000/svg" xmlns:xlink="http://www.w3.org/1999/xlink">
<g id="graph0" class="graph" transform="scale(1 1) rotate(0) translate(4 178)">
<title>G</title>
<polygon fill="white" stroke="transparent" points="-4,4 -4,-178 1195.5,-178 1195.5,4 -4,4"/>
<!-- node0 -->
<g id="node1" class="node">
<title>node0</title>
<polygon fill="none" stroke="black" points="0,-113 0,-166 392,-166 392,-113 0,-113"/>
<text text-anchor="start" x="8" y="-150.8" font-family="Times,serif" font-size="14.00">Get simplify_outer_joins.public.table_f1_f2_f3 (u113)</text>
<text text-anchor="start" x="8" y="-135.8" font-family="Times,serif" font-size="14.00"> Filter !(isnull(#2))</text>
<text text-anchor="start" x="8" y="-120.8" font-family="Times,serif" font-size="14.00"> ArrangeBy ()</text>
</g>
<!-- node3 -->
<g id="node4" class="node">
<title>node3</title>
<polygon fill="none" stroke="black" points="422,-0.5 422,-53.5 790,-53.5 790,-0.5 422,-0.5"/>
<text text-anchor="start" x="430" y="-38.3" font-family="Times,serif" font-size="14.00">Join %0 %1 %2 (= #2 #3)</text>
<text text-anchor="start" x="430" y="-23.3" font-family="Times,serif" font-size="14.00"> implementation = Differential %2 %0.() %1.(#0)</text>
<text text-anchor="start" x="430" y="-8.3" font-family="Times,serif" font-size="14.00"> Project (#2, #0, #1, #5, #4, #6)</text>
</g>
<!-- node0&#45;&gt;node3 -->
<g id="edge3" class="edge">
<title>node0&#45;&gt;node3</title>
<path fill="none" stroke="black" d="M290.83,-112.94C353.83,-95.96 436.56,-73.67 501.46,-56.18"/>
<polygon fill="black" stroke="black" points="502.56,-59.5 511.31,-53.52 500.74,-52.74 502.56,-59.5"/>
<text text-anchor="start" x="438" y="-75.8" font-family="Times,serif" font-size="14.00">%0</text>
</g>
<!-- node1 -->
<g id="node2" class="node">
<title>node1</title>
<polygon fill="none" stroke="black" points="410,-105.5 410,-173.5 802,-173.5 802,-105.5 410,-105.5"/>
<text text-anchor="start" x="418" y="-158.3" font-family="Times,serif" font-size="14.00">Get simplify_outer_joins.public.table_f3_f4_f5 (u115)</text>
<text text-anchor="start" x="418" y="-143.3" font-family="Times,serif" font-size="14.00"> Filter (#2 = 0), !(isnull(#0))</text>
<text text-anchor="start" x="418" y="-128.3" font-family="Times,serif" font-size="14.00"> Project (#0, #1)</text>
<text text-anchor="start" x="418" y="-113.3" font-family="Times,serif" font-size="14.00"> ArrangeBy (#0)</text>
</g>
<!-- node1&#45;&gt;node3 -->
<g id="edge2" class="edge">
<title>node1&#45;&gt;node3</title>
<path fill="none" stroke="black" d="M606,-105.35C606,-92.3 606,-77.3 606,-63.99"/>
<polygon fill="black" stroke="black" points="609.5,-63.75 606,-53.75 602.5,-63.75 609.5,-63.75"/>
<text text-anchor="start" x="606" y="-75.8" font-family="Times,serif" font-size="14.00">%1</text>
</g>
<!-- node2 -->
<g id="node3" class="node">
<title>node2</title>
<polygon fill="none" stroke="black" points="820.5,-120.5 820.5,-158.5 1191.5,-158.5 1191.5,-120.5 820.5,-120.5"/>
<text text-anchor="start" x="828.5" y="-143.3" font-family="Times,serif" font-size="14.00">Get simplify_outer_joins.public.table_f5_f6 (u111)</text>
<text text-anchor="start" x="828.5" y="-128.3" font-family="Times,serif" font-size="14.00"> Filter (#0 = 0)</text>
</g>
<!-- node2&#45;&gt;node3 -->
<g id="edge1" class="edge">
<title>node2&#45;&gt;node3</title>
<path fill="none" stroke="black" d="M940.4,-120.38C877.4,-102.97 781.29,-76.42 708.25,-56.25"/>
<polygon fill="black" stroke="black" points="709.12,-52.86 698.55,-53.57 707.26,-59.6 709.12,-52.86"/>
<text text-anchor="start" x="818" y="-75.8" font-family="Times,serif" font-size="14.00">%2</text>
</g>
</g>
</svg>
