<?xml version="1.0" encoding="UTF-8" standalone="no"?>
<!DOCTYPE svg PUBLIC "-//W3C//DTD SVG 1.1//EN"
 "http://www.w3.org/Graphics/SVG/1.1/DTD/svg11.dtd">
<!-- Generated by graphviz version 2.43.0 (0)
 -->
<!-- Title: G Pages: 1 -->
<svg width="1081pt" height="1571pt"
 viewBox="0.00 0.00 1081.00 1571.00" xmlns="http://www.w3.org/2000/svg" xmlns:xlink="http://www.w3.org/1999/xlink">
<g id="graph0" class="graph" transform="scale(1 1) rotate(0) translate(4 1567)">
<title>G</title>
<polygon fill="white" stroke="transparent" points="-4,4 -4,-1567 1077,-1567 1077,4 -4,4"/>
<g id="clust1" class="cluster">
<title>cluster8</title>
<polygon fill="none" stroke="black" points="811,-1354 811,-1555 1065,-1555 1065,-1354 811,-1354"/>
<text text-anchor="middle" x="861.5" y="-1539.8" font-family="Times,serif" font-size="14.00">Box8:Select</text>
</g>
<g id="clust3" class="cluster">
<title>cluster7</title>
<polygon fill="none" stroke="black" points="668,-1076 668,-1346 952,-1346 952,-1076 668,-1076"/>
<text text-anchor="middle" x="718.5" y="-1330.8" font-family="Times,serif" font-size="14.00">Box7:Select</text>
</g>
<g id="clust5" class="cluster">
<title>cluster6</title>
<polygon fill="none" stroke="black" points="540,-821 540,-1068 794,-1068 794,-821 540,-821"/>
<text text-anchor="middle" x="590.5" y="-1052.8" font-family="Times,serif" font-size="14.00">Box6:Select</text>
</g>
<g id="clust7" class="cluster">
<title>cluster0</title>
<polygon fill="none" stroke="black" points="287,-543 287,-813 699,-813 699,-543 287,-543"/>
<text text-anchor="middle" x="337.5" y="-797.8" font-family="Times,serif" font-size="14.00">Box0:Select</text>
</g>
<g id="clust9" class="cluster">
<title>cluster1</title>
<polygon fill="none" stroke="black" points="166,-380 166,-512 328,-512 328,-380 166,-380"/>
<text text-anchor="middle" x="207.5" y="-496.8" font-family="Times,serif" font-size="14.00">Box1:Get</text>
</g>
<g id="clust11" class="cluster">
<title>cluster5</title>
<polygon fill="none" stroke="black" points="336,-357 336,-535 590,-535 590,-357 336,-357"/>
<text text-anchor="middle" x="386.5" y="-519.8" font-family="Times,serif" font-size="14.00">Box5:Select</text>
</g>
<g id="clust13" class="cluster">
<title>cluster2</title>
<polygon fill="none" stroke="black" points="83,-148 83,-349 495,-349 495,-148 83,-148"/>
<text text-anchor="middle" x="133.5" y="-333.8" font-family="Times,serif" font-size="14.00">Box2:Select</text>
</g>
<g id="clust15" class="cluster">
<title>cluster3</title>
<polygon fill="none" stroke="black" points="8,-8 8,-140 170,-140 170,-8 8,-8"/>
<text text-anchor="middle" x="49.5" y="-124.8" font-family="Times,serif" font-size="14.00">Box3:Get</text>
</g>
<g id="clust17" class="cluster">
<title>cluster4</title>
<polygon fill="none" stroke="black" points="178,-19.5 178,-128.5 340,-128.5 340,-19.5 178,-19.5"/>
<text text-anchor="middle" x="219.5" y="-113.3" font-family="Times,serif" font-size="14.00">Box4:Get</text>
</g>
<!-- boxhead8 -->
<g id="node1" class="node">
<title>boxhead8</title>
<polygon fill="none" stroke="black" points="911,-1362.5 911,-1523.5 1057,-1523.5 1057,-1362.5 911,-1362.5"/>
<text text-anchor="middle" x="984" y="-1508.3" font-family="Times,serif" font-size="14.00">Distinct: Preserve</text>
<polyline fill="none" stroke="black" points="911,-1500.5 1057,-1500.5 "/>
<text text-anchor="middle" x="984" y="-1485.3" font-family="Times,serif" font-size="14.00">0: Q7.C0</text>
<polyline fill="none" stroke="black" points="911,-1477.5 1057,-1477.5 "/>
<text text-anchor="middle" x="984" y="-1462.3" font-family="Times,serif" font-size="14.00">1: Q7.C1</text>
<polyline fill="none" stroke="black" points="911,-1454.5 1057,-1454.5 "/>
<text text-anchor="middle" x="984" y="-1439.3" font-family="Times,serif" font-size="14.00">2: Q7.C2</text>
<polyline fill="none" stroke="black" points="911,-1431.5 1057,-1431.5 "/>
<text text-anchor="middle" x="984" y="-1416.3" font-family="Times,serif" font-size="14.00">3: Q7.C3</text>
<polyline fill="none" stroke="black" points="911,-1408.5 1057,-1408.5 "/>
<text text-anchor="middle" x="984" y="-1393.3" font-family="Times,serif" font-size="14.00">4: Q7.C5</text>
<polyline fill="none" stroke="black" points="911,-1385.5 1057,-1385.5 "/>
<text text-anchor="middle" x="984" y="-1370.3" font-family="Times,serif" font-size="14.00">5: Q7.C7</text>
</g>
<!-- Q7 -->
<g id="node2" class="node">
<title>Q7</title>
<ellipse fill="none" stroke="black" cx="856" cy="-1443" rx="37.09" ry="37.09"/>
<text text-anchor="middle" x="856" y="-1439.3" font-family="Times,serif" font-size="14.00">Q7(F)</text>
</g>
<!-- boxhead7 -->
<g id="node3" class="node">
<title>boxhead7</title>
<polygon fill="none" stroke="black" points="768,-1084.5 768,-1314.5 944,-1314.5 944,-1084.5 768,-1084.5"/>
<text text-anchor="middle" x="856" y="-1299.3" font-family="Times,serif" font-size="14.00">Distinct: Preserve</text>
<polyline fill="none" stroke="black" points="768,-1291.5 944,-1291.5 "/>
<text text-anchor="middle" x="856" y="-1276.3" font-family="Times,serif" font-size="14.00">0: Q6.C0</text>
<polyline fill="none" stroke="black" points="768,-1268.5 944,-1268.5 "/>
<text text-anchor="middle" x="856" y="-1253.3" font-family="Times,serif" font-size="14.00">1: Q6.C1</text>
<polyline fill="none" stroke="black" points="768,-1245.5 944,-1245.5 "/>
<text text-anchor="middle" x="856" y="-1230.3" font-family="Times,serif" font-size="14.00">2: Q6.C2</text>
<polyline fill="none" stroke="black" points="768,-1222.5 944,-1222.5 "/>
<text text-anchor="middle" x="856" y="-1207.3" font-family="Times,serif" font-size="14.00">3: Q6.C3</text>
<polyline fill="none" stroke="black" points="768,-1199.5 944,-1199.5 "/>
<text text-anchor="middle" x="856" y="-1184.3" font-family="Times,serif" font-size="14.00">4: Q6.C4</text>
<polyline fill="none" stroke="black" points="768,-1176.5 944,-1176.5 "/>
<text text-anchor="middle" x="856" y="-1161.3" font-family="Times,serif" font-size="14.00">5: Q6.C5</text>
<polyline fill="none" stroke="black" points="768,-1153.5 944,-1153.5 "/>
<text text-anchor="middle" x="856" y="-1138.3" font-family="Times,serif" font-size="14.00">6: Q6.C6</text>
<polyline fill="none" stroke="black" points="768,-1130.5 944,-1130.5 "/>
<text text-anchor="middle" x="856" y="-1115.3" font-family="Times,serif" font-size="14.00">7: Q6.C7</text>
<polyline fill="none" stroke="black" points="768,-1107.5 944,-1107.5 "/>
<text text-anchor="middle" x="856" y="-1092.3" font-family="Times,serif" font-size="14.00">(true &amp;&amp; (Q6.C3 = 0))</text>
</g>
<!-- Q7&#45;&gt;boxhead7 -->
<g id="edge1" class="edge">
<title>Q7&#45;&gt;boxhead7</title>
<path fill="none" stroke="black" stroke-dasharray="5,2" d="M856,-1405.85C856,-1389.17 856,-1368.16 856,-1346"/>
</g>
<!-- Q6 -->
<g id="node4" class="node">
<title>Q6</title>
<ellipse fill="none" stroke="black" cx="713" cy="-1199.5" rx="37.09" ry="37.09"/>
<text text-anchor="middle" x="713" y="-1195.8" font-family="Times,serif" font-size="14.00">Q6(F)</text>
</g>
<!-- boxhead6 -->
<g id="node5" class="node">
<title>boxhead6</title>
<polygon fill="none" stroke="black" points="640,-829.5 640,-1036.5 786,-1036.5 786,-829.5 640,-829.5"/>
<text text-anchor="middle" x="713" y="-1021.3" font-family="Times,serif" font-size="14.00">Distinct: Preserve</text>
<polyline fill="none" stroke="black" points="640,-1013.5 786,-1013.5 "/>
<text text-anchor="middle" x="713" y="-998.3" font-family="Times,serif" font-size="14.00">0: Q5.C2</text>
<polyline fill="none" stroke="black" points="640,-990.5 786,-990.5 "/>
<text text-anchor="middle" x="713" y="-975.3" font-family="Times,serif" font-size="14.00">1: Q5.C0</text>
<polyline fill="none" stroke="black" points="640,-967.5 786,-967.5 "/>
<text text-anchor="middle" x="713" y="-952.3" font-family="Times,serif" font-size="14.00">2: Q5.C1</text>
<polyline fill="none" stroke="black" points="640,-944.5 786,-944.5 "/>
<text text-anchor="middle" x="713" y="-929.3" font-family="Times,serif" font-size="14.00">3: Q5.C3</text>
<polyline fill="none" stroke="black" points="640,-921.5 786,-921.5 "/>
<text text-anchor="middle" x="713" y="-906.3" font-family="Times,serif" font-size="14.00">4: Q5.C4</text>
<polyline fill="none" stroke="black" points="640,-898.5 786,-898.5 "/>
<text text-anchor="middle" x="713" y="-883.3" font-family="Times,serif" font-size="14.00">5: Q5.C5</text>
<polyline fill="none" stroke="black" points="640,-875.5 786,-875.5 "/>
<text text-anchor="middle" x="713" y="-860.3" font-family="Times,serif" font-size="14.00">6: Q5.C6</text>
<polyline fill="none" stroke="black" points="640,-852.5 786,-852.5 "/>
<text text-anchor="middle" x="713" y="-837.3" font-family="Times,serif" font-size="14.00">7: Q5.C7</text>
</g>
<!-- Q6&#45;&gt;boxhead6 -->
<g id="edge2" class="edge">
<title>Q6&#45;&gt;boxhead6</title>
<path fill="none" stroke="black" stroke-dasharray="5,2" d="M713,-1162.28C713,-1137.44 713,-1102.8 713,-1068"/>
</g>
<!-- Q5 -->
<g id="node6" class="node">
<title>Q5</title>
<ellipse fill="none" stroke="black" cx="585" cy="-933" rx="37.09" ry="37.09"/>
<text text-anchor="middle" x="585" y="-929.3" font-family="Times,serif" font-size="14.00">Q5(F)</text>
</g>
<!-- boxhead0 -->
<g id="node7" class="node">
<title>boxhead0</title>
<polygon fill="none" stroke="black" points="479,-551.5 479,-781.5 691,-781.5 691,-551.5 479,-551.5"/>
<text text-anchor="middle" x="585" y="-766.3" font-family="Times,serif" font-size="14.00">Distinct: Preserve</text>
<polyline fill="none" stroke="black" points="479,-758.5 691,-758.5 "/>
<text text-anchor="middle" x="585" y="-743.3" font-family="Times,serif" font-size="14.00">0: Q0.C0</text>
<polyline fill="none" stroke="black" points="479,-735.5 691,-735.5 "/>
<text text-anchor="middle" x="585" y="-720.3" font-family="Times,serif" font-size="14.00">1: Q0.C1</text>
<polyline fill="none" stroke="black" points="479,-712.5 691,-712.5 "/>
<text text-anchor="middle" x="585" y="-697.3" font-family="Times,serif" font-size="14.00">2: Q0.C2</text>
<polyline fill="none" stroke="black" points="479,-689.5 691,-689.5 "/>
<text text-anchor="middle" x="585" y="-674.3" font-family="Times,serif" font-size="14.00">3: Q4.C0</text>
<polyline fill="none" stroke="black" points="479,-666.5 691,-666.5 "/>
<text text-anchor="middle" x="585" y="-651.3" font-family="Times,serif" font-size="14.00">4: Q4.C1</text>
<polyline fill="none" stroke="black" points="479,-643.5 691,-643.5 "/>
<text text-anchor="middle" x="585" y="-628.3" font-family="Times,serif" font-size="14.00">5: Q4.C2</text>
<polyline fill="none" stroke="black" points="479,-620.5 691,-620.5 "/>
<text text-anchor="middle" x="585" y="-605.3" font-family="Times,serif" font-size="14.00">6: Q4.C3</text>
<polyline fill="none" stroke="black" points="479,-597.5 691,-597.5 "/>
<text text-anchor="middle" x="585" y="-582.3" font-family="Times,serif" font-size="14.00">7: Q4.C4</text>
<polyline fill="none" stroke="black" points="479,-574.5 691,-574.5 "/>
<text text-anchor="middle" x="585" y="-559.3" font-family="Times,serif" font-size="14.00">(true &amp;&amp; (Q0.C2 = Q4.C1))</text>
</g>
<!-- Q5&#45;&gt;boxhead0 -->
<g id="edge3" class="edge">
<title>Q5&#45;&gt;boxhead0</title>
<path fill="none" stroke="black" stroke-dasharray="5,2" d="M585,-895.78C585,-873.68 585,-843.82 585,-813"/>
</g>
<!-- Q0 -->
<g id="node8" class="node">
<title>Q0</title>
<ellipse fill="none" stroke="black" cx="332" cy="-666.5" rx="37.09" ry="37.09"/>
<text text-anchor="middle" x="332" y="-662.8" font-family="Times,serif" font-size="14.00">Q0(F)</text>
</g>
<!-- boxhead1 -->
<g id="node10" class="node">
<title>boxhead1</title>
<polygon fill="none" stroke="black" points="174,-388.5 174,-480.5 320,-480.5 320,-388.5 174,-388.5"/>
<text text-anchor="middle" x="247" y="-465.3" font-family="Times,serif" font-size="14.00">Distinct: Preserve</text>
<polyline fill="none" stroke="black" points="174,-457.5 320,-457.5 "/>
<text text-anchor="middle" x="247" y="-442.3" font-family="Times,serif" font-size="14.00">0: C0</text>
<polyline fill="none" stroke="black" points="174,-434.5 320,-434.5 "/>
<text text-anchor="middle" x="247" y="-419.3" font-family="Times,serif" font-size="14.00">1: C1</text>
<polyline fill="none" stroke="black" points="174,-411.5 320,-411.5 "/>
<text text-anchor="middle" x="247" y="-396.3" font-family="Times,serif" font-size="14.00">2: C2</text>
</g>
<!-- Q0&#45;&gt;boxhead1 -->
<g id="edge4" class="edge">
<title>Q0&#45;&gt;boxhead1</title>
<path fill="none" stroke="black" stroke-dasharray="5,2" d="M319.46,-631.56C307.87,-600.21 290.24,-552.5 275.27,-512"/>
</g>
<!-- Q4 -->
<g id="node9" class="node">
<title>Q4</title>
<ellipse fill="none" stroke="black" cx="424" cy="-666.5" rx="37.09" ry="37.09"/>
<text text-anchor="middle" x="424" y="-662.8" font-family="Times,serif" font-size="14.00">Q4(F)</text>
</g>
<!-- boxhead5 -->
<g id="node11" class="node">
<title>boxhead5</title>
<polygon fill="none" stroke="black" points="436,-365.5 436,-503.5 582,-503.5 582,-365.5 436,-365.5"/>
<text text-anchor="middle" x="509" y="-488.3" font-family="Times,serif" font-size="14.00">Distinct: Preserve</text>
<polyline fill="none" stroke="black" points="436,-480.5 582,-480.5 "/>
<text text-anchor="middle" x="509" y="-465.3" font-family="Times,serif" font-size="14.00">0: Q3.C3</text>
<polyline fill="none" stroke="black" points="436,-457.5 582,-457.5 "/>
<text text-anchor="middle" x="509" y="-442.3" font-family="Times,serif" font-size="14.00">1: Q3.C0</text>
<polyline fill="none" stroke="black" points="436,-434.5 582,-434.5 "/>
<text text-anchor="middle" x="509" y="-419.3" font-family="Times,serif" font-size="14.00">2: Q3.C1</text>
<polyline fill="none" stroke="black" points="436,-411.5 582,-411.5 "/>
<text text-anchor="middle" x="509" y="-396.3" font-family="Times,serif" font-size="14.00">3: Q3.C2</text>
<polyline fill="none" stroke="black" points="436,-388.5 582,-388.5 "/>
<text text-anchor="middle" x="509" y="-373.3" font-family="Times,serif" font-size="14.00">4: Q3.C4</text>
</g>
<!-- Q4&#45;&gt;boxhead5 -->
<g id="edge5" class="edge">
<title>Q4&#45;&gt;boxhead5</title>
<path fill="none" stroke="black" stroke-dasharray="5,2" d="M436.54,-631.56C445.99,-605.99 459.46,-569.54 472.23,-535"/>
</g>
<!-- Q3 -->
<g id="node12" class="node">
<title>Q3</title>
<ellipse fill="none" stroke="black" cx="381" cy="-434.5" rx="37.09" ry="37.09"/>
<text text-anchor="middle" x="381" y="-430.8" font-family="Times,serif" font-size="14.00">Q3(F)</text>
</g>
<!-- boxhead2 -->
<g id="node13" class="node">
<title>boxhead2</title>
<polygon fill="none" stroke="black" points="275,-156.5 275,-317.5 487,-317.5 487,-156.5 275,-156.5"/>
<text text-anchor="middle" x="381" y="-302.3" font-family="Times,serif" font-size="14.00">Distinct: Preserve</text>
<polyline fill="none" stroke="black" points="275,-294.5 487,-294.5 "/>
<text text-anchor="middle" x="381" y="-279.3" font-family="Times,serif" font-size="14.00">0: Q1.C0</text>
<polyline fill="none" stroke="black" points="275,-271.5 487,-271.5 "/>
<text text-anchor="middle" x="381" y="-256.3" font-family="Times,serif" font-size="14.00">1: Q1.C1</text>
<polyline fill="none" stroke="black" points="275,-248.5 487,-248.5 "/>
<text text-anchor="middle" x="381" y="-233.3" font-family="Times,serif" font-size="14.00">2: Q1.C2</text>
<polyline fill="none" stroke="black" points="275,-225.5 487,-225.5 "/>
<text text-anchor="middle" x="381" y="-210.3" font-family="Times,serif" font-size="14.00">3: Q2.C0</text>
<polyline fill="none" stroke="black" points="275,-202.5 487,-202.5 "/>
<text text-anchor="middle" x="381" y="-187.3" font-family="Times,serif" font-size="14.00">4: Q2.C1</text>
<polyline fill="none" stroke="black" points="275,-179.5 487,-179.5 "/>
<text text-anchor="middle" x="381" y="-164.3" font-family="Times,serif" font-size="14.00">(true &amp;&amp; (Q1.C2 = Q2.C0))</text>
</g>
<!-- Q3&#45;&gt;boxhead2 -->
<g id="edge6" class="edge">
<title>Q3&#45;&gt;boxhead2</title>
<path fill="none" stroke="black" stroke-dasharray="5,2" d="M381,-397.19C381,-383.2 381,-366.38 381,-349"/>
</g>
<!-- Q1 -->
<g id="node14" class="node">
<title>Q1</title>
<ellipse fill="none" stroke="black" cx="128" cy="-237" rx="37.09" ry="37.09"/>
<text text-anchor="middle" x="128" y="-233.3" font-family="Times,serif" font-size="14.00">Q1(F)</text>
</g>
<!-- boxhead3 -->
<g id="node16" class="node">
<title>boxhead3</title>
<polygon fill="none" stroke="black" points="16,-16.5 16,-108.5 162,-108.5 162,-16.5 16,-16.5"/>
<text text-anchor="middle" x="89" y="-93.3" font-family="Times,serif" font-size="14.00">Distinct: Preserve</text>
<polyline fill="none" stroke="black" points="16,-85.5 162,-85.5 "/>
<text text-anchor="middle" x="89" y="-70.3" font-family="Times,serif" font-size="14.00">0: C0</text>
<polyline fill="none" stroke="black" points="16,-62.5 162,-62.5 "/>
<text text-anchor="middle" x="89" y="-47.3" font-family="Times,serif" font-size="14.00">1: C1</text>
<polyline fill="none" stroke="black" points="16,-39.5 162,-39.5 "/>
<text text-anchor="middle" x="89" y="-24.3" font-family="Times,serif" font-size="14.00">2: C2</text>
</g>
<!-- Q1&#45;&gt;boxhead3 -->
<g id="edge7" class="edge">
<title>Q1&#45;&gt;boxhead3</title>
<path fill="none" stroke="black" stroke-dasharray="5,2" d="M120.01,-200.68C116.04,-183.11 111.08,-161.16 106.29,-140"/>
</g>
<!-- Q2 -->
<g id="node15" class="node">
<title>Q2</title>
<ellipse fill="none" stroke="black" cx="220" cy="-237" rx="37.09" ry="37.09"/>
<text text-anchor="middle" x="220" y="-233.3" font-family="Times,serif" font-size="14.00">Q2(F)</text>
</g>
<!-- boxhead4 -->
<g id="node17" class="node">
<title>boxhead4</title>
<polygon fill="none" stroke="black" points="186,-28 186,-97 332,-97 332,-28 186,-28"/>
<text text-anchor="middle" x="259" y="-81.8" font-family="Times,serif" font-size="14.00">Distinct: Preserve</text>
<polyline fill="none" stroke="black" points="186,-74 332,-74 "/>
<text text-anchor="middle" x="259" y="-58.8" font-family="Times,serif" font-size="14.00">0: C0</text>
<polyline fill="none" stroke="black" points="186,-51 332,-51 "/>
<text text-anchor="middle" x="259" y="-35.8" font-family="Times,serif" font-size="14.00">1: C1</text>
</g>
<!-- Q2&#45;&gt;boxhead4 -->
<g id="edge8" class="edge">
<title>Q2&#45;&gt;boxhead4</title>
<path fill="none" stroke="black" stroke-dasharray="5,2" d="M227.99,-200.68C232.68,-179.9 238.77,-152.98 244.3,-128.5"/>
</g>
</g>
</svg>
