<?xml version="1.0" encoding="UTF-8" standalone="no"?>
<!DOCTYPE svg PUBLIC "-//W3C//DTD SVG 1.1//EN"
 "http://www.w3.org/Graphics/SVG/1.1/DTD/svg11.dtd">
<!-- Generated by graphviz version 2.43.0 (0)
 -->
<!-- Title: G Pages: 1 -->
<svg width="981pt" height="255pt"
 viewBox="0.00 0.00 980.50 255.00" xmlns="http://www.w3.org/2000/svg" xmlns:xlink="http://www.w3.org/1999/xlink">
<g id="graph0" class="graph" transform="scale(1 1) rotate(0) translate(4 251)">
<title>G</title>
<polygon fill="white" stroke="transparent" points="-4,4 -4,-251 976.5,-251 976.5,4 -4,4"/>
<!-- node0 -->
<g id="node1" class="node">
<title>node0</title>
<polygon fill="none" stroke="black" points="0,-121.5 0,-157.5 392,-157.5 392,-121.5 0,-121.5"/>
<text text-anchor="start" x="8" y="-135.8" font-family="Times,serif" font-size="14.00">Get simplify_outer_joins.public.table_f1_f2_f3 (u113)</text>
</g>
<!-- node4 -->
<g id="node5" class="node">
<title>node4</title>
<polygon fill="none" stroke="black" points="48,-0.5 48,-68.5 390,-68.5 390,-0.5 48,-0.5"/>
<text text-anchor="start" x="56" y="-53.3" font-family="Times,serif" font-size="14.00">LeftOuterJoin %0 %3 on (true &amp;&amp; (#2 = #4))</text>
<text text-anchor="start" x="56" y="-38.3" font-family="Times,serif" font-size="14.00"> Project (#2, #0, #1, #3..=#7)</text>
<text text-anchor="start" x="56" y="-23.3" font-family="Times,serif" font-size="14.00"> Filter (true &amp;&amp; (#3 = 0))</text>
<text text-anchor="start" x="56" y="-8.3" font-family="Times,serif" font-size="14.00"> Project (#0..=#3, #5, #7)</text>
</g>
<!-- node0&#45;&gt;node4 -->
<g id="edge3" class="edge">
<title>node0&#45;&gt;node4</title>
<path fill="none" stroke="black" d="M199.8,-121.49C202.39,-109.89 205.95,-93.95 209.3,-78.96"/>
<polygon fill="black" stroke="black" points="212.8,-79.31 211.57,-68.79 205.97,-77.78 212.8,-79.31"/>
<text text-anchor="start" x="208" y="-90.8" font-family="Times,serif" font-size="14.00">%0</text>
</g>
<!-- node1 -->
<g id="node2" class="node">
<title>node1</title>
<polygon fill="none" stroke="black" points="191,-210.5 191,-246.5 583,-246.5 583,-210.5 191,-210.5"/>
<text text-anchor="start" x="199" y="-224.8" font-family="Times,serif" font-size="14.00">Get simplify_outer_joins.public.table_f3_f4_f5 (u115)</text>
</g>
<!-- node3 -->
<g id="node4" class="node">
<title>node3</title>
<polygon fill="none" stroke="black" points="410.5,-120.5 410.5,-158.5 763.5,-158.5 763.5,-120.5 410.5,-120.5"/>
<text text-anchor="start" x="418.5" y="-143.3" font-family="Times,serif" font-size="14.00">RightOuterJoin %1 %2 on (true &amp;&amp; (#2 = #3))</text>
<text text-anchor="start" x="418.5" y="-128.3" font-family="Times,serif" font-size="14.00"> Project (#3, #0..=#2, #4)</text>
</g>
<!-- node1&#45;&gt;node3 -->
<g id="edge2" class="edge">
<title>node1&#45;&gt;node3</title>
<path fill="none" stroke="black" d="M426.51,-210.31C457.94,-196.64 502.13,-177.42 536.19,-162.6"/>
<polygon fill="black" stroke="black" points="537.73,-165.75 545.5,-158.55 534.94,-159.33 537.73,-165.75"/>
<text text-anchor="start" x="499" y="-180.8" font-family="Times,serif" font-size="14.00">%1</text>
</g>
<!-- node2 -->
<g id="node3" class="node">
<title>node2</title>
<polygon fill="none" stroke="black" points="601.5,-210.5 601.5,-246.5 972.5,-246.5 972.5,-210.5 601.5,-210.5"/>
<text text-anchor="start" x="609.5" y="-224.8" font-family="Times,serif" font-size="14.00">Get simplify_outer_joins.public.table_f5_f6 (u111)</text>
</g>
<!-- node2&#45;&gt;node3 -->
<g id="edge1" class="edge">
<title>node2&#45;&gt;node3</title>
<path fill="none" stroke="black" d="M747.49,-210.31C716.06,-196.64 671.87,-177.42 637.81,-162.6"/>
<polygon fill="black" stroke="black" points="639.06,-159.33 628.5,-158.55 636.27,-165.75 639.06,-159.33"/>
<text text-anchor="start" x="705" y="-180.8" font-family="Times,serif" font-size="14.00">%2</text>
</g>
<!-- node3&#45;&gt;node4 -->
<g id="edge4" class="edge">
<title>node3&#45;&gt;node4</title>
<path fill="none" stroke="black" d="M522.48,-120.44C474.05,-106.89 406.18,-87.89 346.89,-71.3"/>
<polygon fill="black" stroke="black" points="347.65,-67.87 337.07,-68.55 345.76,-74.61 347.65,-67.87"/>
<text text-anchor="start" x="447" y="-90.8" font-family="Times,serif" font-size="14.00">%3</text>
</g>
</g>
</svg>
