<?xml version="1.0" encoding="UTF-8" standalone="no"?>
<!DOCTYPE svg PUBLIC "-//W3C//DTD SVG 1.1//EN"
 "http://www.w3.org/Graphics/SVG/1.1/DTD/svg11.dtd">
<!-- Generated by graphviz version 2.43.0 (0)
 -->
<!-- Title: G Pages: 1 -->
<svg width="1111pt" height="452pt"
 viewBox="0.00 0.00 1111.00 452.00" xmlns="http://www.w3.org/2000/svg" xmlns:xlink="http://www.w3.org/1999/xlink">
<g id="graph0" class="graph" transform="scale(1 1) rotate(0) translate(4 448)">
<title>G</title>
<polygon fill="white" stroke="transparent" points="-4,4 -4,-448 1107,-448 1107,4 -4,4"/>
<!-- node0 -->
<g id="node1" class="node">
<title>node0</title>
<polygon fill="none" stroke="black" points="95.5,-263 95.5,-316 487.5,-316 487.5,-263 95.5,-263"/>
<text text-anchor="start" x="103.5" y="-300.8" font-family="Times,serif" font-size="14.00">Get simplify_outer_joins.public.table_f1_f2_f3 (u113)</text>
<text text-anchor="start" x="103.5" y="-285.8" font-family="Times,serif" font-size="14.00"> types = (integer?, integer?, integer?)</text>
<text text-anchor="start" x="103.5" y="-270.8" font-family="Times,serif" font-size="14.00"> keys = ()</text>
</g>
<!-- node4 -->
<g id="node5" class="node">
<title>node4</title>
<polygon fill="none" stroke="black" points="0,-0.5 0,-188.5 629,-188.5 629,-0.5 0,-0.5"/>
<text text-anchor="start" x="8" y="-173.3" font-family="Times,serif" font-size="14.00">LeftOuterJoin %0 %3 on (true &amp;&amp; (#2 = #4))</text>
<text text-anchor="start" x="8" y="-158.3" font-family="Times,serif" font-size="14.00"> types = (integer?, integer?, integer?, integer?, integer?, integer?, integer?, integer?)</text>
<text text-anchor="start" x="8" y="-143.3" font-family="Times,serif" font-size="14.00"> keys = ()</text>
<text text-anchor="start" x="8" y="-128.3" font-family="Times,serif" font-size="14.00"> Project (#2, #0, #1, #3..=#7)</text>
<text text-anchor="start" x="8" y="-113.3" font-family="Times,serif" font-size="14.00"> types = (integer?, integer?, integer?, integer?, integer?, integer?, integer?, integer?)</text>
<text text-anchor="start" x="8" y="-98.3" font-family="Times,serif" font-size="14.00"> keys = ()</text>
<text text-anchor="start" x="8" y="-83.3" font-family="Times,serif" font-size="14.00"> Filter (true &amp;&amp; (#3 = 0))</text>
<text text-anchor="start" x="8" y="-68.3" font-family="Times,serif" font-size="14.00"> types = (integer?, integer?, integer?, integer?, integer?, integer?, integer?, integer?)</text>
<text text-anchor="start" x="8" y="-53.3" font-family="Times,serif" font-size="14.00"> keys = ()</text>
<text text-anchor="start" x="8" y="-38.3" font-family="Times,serif" font-size="14.00"> Project (#0..=#3, #5, #7)</text>
<text text-anchor="start" x="8" y="-23.3" font-family="Times,serif" font-size="14.00"> types = (integer?, integer?, integer?, integer?, integer?, integer?)</text>
<text text-anchor="start" x="8" y="-8.3" font-family="Times,serif" font-size="14.00"> keys = ()</text>
</g>
<!-- node0&#45;&gt;node4 -->
<g id="edge3" class="edge">
<title>node0&#45;&gt;node4</title>
<path fill="none" stroke="black" d="M294.55,-262.87C296.56,-246 299.34,-222.7 302.19,-198.83"/>
<polygon fill="black" stroke="black" points="305.7,-198.93 303.41,-188.59 298.75,-198.1 305.7,-198.93"/>
<text text-anchor="start" x="301.5" y="-210.8" font-family="Times,serif" font-size="14.00">%0</text>
</g>
<!-- node1 -->
<g id="node2" class="node">
<title>node1</title>
<polygon fill="none" stroke="black" points="321.5,-390.5 321.5,-443.5 713.5,-443.5 713.5,-390.5 321.5,-390.5"/>
<text text-anchor="start" x="329.5" y="-428.3" font-family="Times,serif" font-size="14.00">Get simplify_outer_joins.public.table_f3_f4_f5 (u115)</text>
<text text-anchor="start" x="329.5" y="-413.3" font-family="Times,serif" font-size="14.00"> types = (integer?, integer?, integer?)</text>
<text text-anchor="start" x="329.5" y="-398.3" font-family="Times,serif" font-size="14.00"> keys = ()</text>
</g>
<!-- node3 -->
<g id="node4" class="node">
<title>node3</title>
<polygon fill="none" stroke="black" points="505.5,-240.5 505.5,-338.5 929.5,-338.5 929.5,-240.5 505.5,-240.5"/>
<text text-anchor="start" x="513.5" y="-323.3" font-family="Times,serif" font-size="14.00">RightOuterJoin %1 %2 on (true &amp;&amp; (#2 = #3))</text>
<text text-anchor="start" x="513.5" y="-308.3" font-family="Times,serif" font-size="14.00"> types = (integer?, integer?, integer?, integer?, integer?)</text>
<text text-anchor="start" x="513.5" y="-293.3" font-family="Times,serif" font-size="14.00"> keys = ()</text>
<text text-anchor="start" x="513.5" y="-278.3" font-family="Times,serif" font-size="14.00"> Project (#3, #0..=#2, #4)</text>
<text text-anchor="start" x="513.5" y="-263.3" font-family="Times,serif" font-size="14.00"> types = (integer?, integer?, integer?, integer?, integer?)</text>
<text text-anchor="start" x="513.5" y="-248.3" font-family="Times,serif" font-size="14.00"> keys = ()</text>
</g>
<!-- node1&#45;&gt;node3 -->
<g id="edge2" class="edge">
<title>node1&#45;&gt;node3</title>
<path fill="none" stroke="black" d="M558.46,-390.3C579.71,-376.96 606.51,-360.15 632.02,-344.14"/>
<polygon fill="black" stroke="black" points="634,-347.03 640.61,-338.75 630.28,-341.1 634,-347.03"/>
<text text-anchor="start" x="612.5" y="-360.8" font-family="Times,serif" font-size="14.00">%1</text>
</g>
<!-- node2 -->
<g id="node3" class="node">
<title>node2</title>
<polygon fill="none" stroke="black" points="732,-390.5 732,-443.5 1103,-443.5 1103,-390.5 732,-390.5"/>
<text text-anchor="start" x="740" y="-428.3" font-family="Times,serif" font-size="14.00">Get simplify_outer_joins.public.table_f5_f6 (u111)</text>
<text text-anchor="start" x="740" y="-413.3" font-family="Times,serif" font-size="14.00"> types = (integer?, integer?)</text>
<text text-anchor="start" x="740" y="-398.3" font-family="Times,serif" font-size="14.00"> keys = ()</text>
</g>
<!-- node2&#45;&gt;node3 -->
<g id="edge1" class="edge">
<title>node2&#45;&gt;node3</title>
<path fill="none" stroke="black" d="M876.54,-390.3C855.29,-376.96 828.49,-360.15 802.98,-344.14"/>
<polygon fill="black" stroke="black" points="804.72,-341.1 794.39,-338.75 801,-347.03 804.72,-341.1"/>
<text text-anchor="start" x="847.5" y="-360.8" font-family="Times,serif" font-size="14.00">%2</text>
</g>
<!-- node3&#45;&gt;node4 -->
<g id="edge4" class="edge">
<title>node3&#45;&gt;node4</title>
<path fill="none" stroke="black" d="M617.11,-240.42C586.82,-225.92 552.43,-209.45 517.96,-192.94"/>
<polygon fill="black" stroke="black" points="519.25,-189.68 508.72,-188.51 516.23,-195.99 519.25,-189.68"/>
<text text-anchor="start" x="576.5" y="-210.8" font-family="Times,serif" font-size="14.00">%3</text>
</g>
</g>
</svg>
