<?xml version="1.0" encoding="UTF-8" standalone="no"?>
<!DOCTYPE svg PUBLIC "-//W3C//DTD SVG 1.1//EN"
 "http://www.w3.org/Graphics/SVG/1.1/DTD/svg11.dtd">
<!-- Generated by graphviz version 2.43.0 (0)
 -->
<!-- Title: G Pages: 1 -->
<svg width="1200pt" height="362pt"
 viewBox="0.00 0.00 1199.50 362.00" xmlns="http://www.w3.org/2000/svg" xmlns:xlink="http://www.w3.org/1999/xlink">
<g id="graph0" class="graph" transform="scale(1 1) rotate(0) translate(4 358)">
<title>G</title>
<polygon fill="white" stroke="transparent" points="-4,4 -4,-358 1195.5,-358 1195.5,4 -4,4"/>
<!-- node0 -->
<g id="node1" class="node">
<title>node0</title>
<polygon fill="none" stroke="black" points="0,-188 0,-331 392,-331 392,-188 0,-188"/>
<text text-anchor="start" x="8" y="-315.8" font-family="Times,serif" font-size="14.00">Get simplify_outer_joins.public.table_f1_f2_f3 (u113)</text>
<text text-anchor="start" x="8" y="-300.8" font-family="Times,serif" font-size="14.00"> types = (integer?, integer?, integer?)</text>
<text text-anchor="start" x="8" y="-285.8" font-family="Times,serif" font-size="14.00"> keys = ()</text>
<text text-anchor="start" x="8" y="-270.8" font-family="Times,serif" font-size="14.00"> Filter !(isnull(#2))</text>
<text text-anchor="start" x="8" y="-255.8" font-family="Times,serif" font-size="14.00"> types = (integer?, integer?, integer)</text>
<text text-anchor="start" x="8" y="-240.8" font-family="Times,serif" font-size="14.00"> keys = ()</text>
<text text-anchor="start" x="8" y="-225.8" font-family="Times,serif" font-size="14.00"> ArrangeBy ()</text>
<text text-anchor="start" x="8" y="-210.8" font-family="Times,serif" font-size="14.00"> types = (integer?, integer?, integer)</text>
<text text-anchor="start" x="8" y="-195.8" font-family="Times,serif" font-size="14.00"> keys = ()</text>
</g>
<!-- node3 -->
<g id="node4" class="node">
<title>node3</title>
<polygon fill="none" stroke="black" points="339.5,-0.5 339.5,-113.5 872.5,-113.5 872.5,-0.5 339.5,-0.5"/>
<text text-anchor="start" x="347.5" y="-98.3" font-family="Times,serif" font-size="14.00">Join %0 %1 %2 (= #2 #3)</text>
<text text-anchor="start" x="347.5" y="-83.3" font-family="Times,serif" font-size="14.00"> implementation = Differential %2 %0.() %1.(#0)</text>
<text text-anchor="start" x="347.5" y="-68.3" font-family="Times,serif" font-size="14.00"> types = (integer?, integer?, integer, integer, integer?, integer, integer?)</text>
<text text-anchor="start" x="347.5" y="-53.3" font-family="Times,serif" font-size="14.00"> keys = ()</text>
<text text-anchor="start" x="347.5" y="-38.3" font-family="Times,serif" font-size="14.00"> Project (#2, #0, #1, #5, #4, #6)</text>
<text text-anchor="start" x="347.5" y="-23.3" font-family="Times,serif" font-size="14.00"> types = (integer, integer?, integer?, integer, integer?, integer?)</text>
<text text-anchor="start" x="347.5" y="-8.3" font-family="Times,serif" font-size="14.00"> keys = ()</text>
</g>
<!-- node0&#45;&gt;node3 -->
<g id="edge3" class="edge">
<title>node0&#45;&gt;node3</title>
<path fill="none" stroke="black" d="M340.26,-187.95C386.87,-165.16 438.08,-140.12 483,-118.15"/>
<polygon fill="black" stroke="black" points="484.75,-121.19 492.2,-113.65 481.68,-114.9 484.75,-121.19"/>
<text text-anchor="start" x="450" y="-135.8" font-family="Times,serif" font-size="14.00">%0</text>
</g>
<!-- node1 -->
<g id="node2" class="node">
<title>node1</title>
<polygon fill="none" stroke="black" points="410,-165.5 410,-353.5 802,-353.5 802,-165.5 410,-165.5"/>
<text text-anchor="start" x="418" y="-338.3" font-family="Times,serif" font-size="14.00">Get simplify_outer_joins.public.table_f3_f4_f5 (u115)</text>
<text text-anchor="start" x="418" y="-323.3" font-family="Times,serif" font-size="14.00"> types = (integer?, integer?, integer?)</text>
<text text-anchor="start" x="418" y="-308.3" font-family="Times,serif" font-size="14.00"> keys = ()</text>
<text text-anchor="start" x="418" y="-293.3" font-family="Times,serif" font-size="14.00"> Filter (#2 = 0), !(isnull(#0))</text>
<text text-anchor="start" x="418" y="-278.3" font-family="Times,serif" font-size="14.00"> types = (integer, integer?, integer)</text>
<text text-anchor="start" x="418" y="-263.3" font-family="Times,serif" font-size="14.00"> keys = ()</text>
<text text-anchor="start" x="418" y="-248.3" font-family="Times,serif" font-size="14.00"> Project (#0, #1)</text>
<text text-anchor="start" x="418" y="-233.3" font-family="Times,serif" font-size="14.00"> types = (integer, integer?)</text>
<text text-anchor="start" x="418" y="-218.3" font-family="Times,serif" font-size="14.00"> keys = ()</text>
<text text-anchor="start" x="418" y="-203.3" font-family="Times,serif" font-size="14.00"> ArrangeBy (#0)</text>
<text text-anchor="start" x="418" y="-188.3" font-family="Times,serif" font-size="14.00"> types = (integer, integer?)</text>
<text text-anchor="start" x="418" y="-173.3" font-family="Times,serif" font-size="14.00"> keys = ()</text>
</g>
<!-- node1&#45;&gt;node3 -->
<g id="edge2" class="edge">
<title>node1&#45;&gt;node3</title>
<path fill="none" stroke="black" d="M606,-165.29C606,-151.2 606,-136.91 606,-123.56"/>
<polygon fill="black" stroke="black" points="609.5,-123.56 606,-113.56 602.5,-123.56 609.5,-123.56"/>
<text text-anchor="start" x="606" y="-135.8" font-family="Times,serif" font-size="14.00">%1</text>
</g>
<!-- node2 -->
<g id="node3" class="node">
<title>node2</title>
<polygon fill="none" stroke="black" points="820.5,-210.5 820.5,-308.5 1191.5,-308.5 1191.5,-210.5 820.5,-210.5"/>
<text text-anchor="start" x="828.5" y="-293.3" font-family="Times,serif" font-size="14.00">Get simplify_outer_joins.public.table_f5_f6 (u111)</text>
<text text-anchor="start" x="828.5" y="-278.3" font-family="Times,serif" font-size="14.00"> types = (integer?, integer?)</text>
<text text-anchor="start" x="828.5" y="-263.3" font-family="Times,serif" font-size="14.00"> keys = ()</text>
<text text-anchor="start" x="828.5" y="-248.3" font-family="Times,serif" font-size="14.00"> Filter (#0 = 0)</text>
<text text-anchor="start" x="828.5" y="-233.3" font-family="Times,serif" font-size="14.00"> types = (integer, integer?)</text>
<text text-anchor="start" x="828.5" y="-218.3" font-family="Times,serif" font-size="14.00"> keys = ()</text>
</g>
<!-- node2&#45;&gt;node3 -->
<g id="edge1" class="edge">
<title>node2&#45;&gt;node3</title>
<path fill="none" stroke="black" d="M910.19,-210.48C854.9,-182.76 784.87,-147.66 725.95,-118.12"/>
<polygon fill="black" stroke="black" points="727.47,-114.97 716.96,-113.62 724.33,-121.23 727.47,-114.97"/>
<text text-anchor="start" x="783" y="-135.8" font-family="Times,serif" font-size="14.00">%2</text>
</g>
</g>
</svg>
