<?xml version="1.0" encoding="UTF-8" standalone="no"?>
<!DOCTYPE svg PUBLIC "-//W3C//DTD SVG 1.1//EN"
 "http://www.w3.org/Graphics/SVG/1.1/DTD/svg11.dtd">
<!-- Generated by graphviz version 2.43.0 (0)
 -->
<!-- Title: G Pages: 1 -->
<svg width="1320pt" height="932pt"
 viewBox="0.00 0.00 1319.50 932.00" xmlns="http://www.w3.org/2000/svg" xmlns:xlink="http://www.w3.org/1999/xlink">
<g id="graph0" class="graph" transform="scale(1 1) rotate(0) translate(4 928)">
<title>G</title>
<polygon fill="white" stroke="transparent" points="-4,4 -4,-928 1315.5,-928 1315.5,4 -4,4"/>
<!-- node0 -->
<g id="node1" class="node">
<title>node0</title>
<polygon fill="none" stroke="black" points="410.5,-855.5 410.5,-923.5 511.5,-923.5 511.5,-855.5 410.5,-855.5"/>
<text text-anchor="start" x="418.5" y="-908.3" font-family="Times,serif" font-size="14.00">Let l0 =</text>
<text text-anchor="start" x="418.5" y="-893.3" font-family="Times,serif" font-size="14.00"> Constant ()</text>
<text text-anchor="start" x="418.5" y="-878.3" font-family="Times,serif" font-size="14.00"> types = ()</text>
<text text-anchor="start" x="418.5" y="-863.3" font-family="Times,serif" font-size="14.00"> keys = (())</text>
</g>
<!-- node2 -->
<g id="node3" class="node">
<title>node2</title>
<polygon fill="none" stroke="black" points="228.5,-735.5 228.5,-803.5 515.5,-803.5 515.5,-735.5 228.5,-735.5"/>
<text text-anchor="start" x="236.5" y="-788.3" font-family="Times,serif" font-size="14.00">Join %0 %1</text>
<text text-anchor="start" x="236.5" y="-773.3" font-family="Times,serif" font-size="14.00"> implementation = Unimplemented</text>
<text text-anchor="start" x="236.5" y="-758.3" font-family="Times,serif" font-size="14.00"> types = (integer?, integer?, integer?)</text>
<text text-anchor="start" x="236.5" y="-743.3" font-family="Times,serif" font-size="14.00"> keys = ()</text>
</g>
<!-- node0&#45;&gt;node2 -->
<g id="edge7" class="edge">
<title>node0&#45;&gt;node2</title>
<path fill="none" stroke="black" d="M435.97,-855.32C425.83,-841.87 414,-826.19 403.3,-812"/>
<polygon fill="black" stroke="black" points="405.96,-809.72 397.15,-803.84 400.38,-813.93 405.96,-809.72"/>
<text text-anchor="start" x="422" y="-825.8" font-family="Times,serif" font-size="14.00">%0</text>
</g>
<!-- node4 -->
<g id="node5" class="node">
<title>node4</title>
<polygon fill="none" stroke="black" points="533.5,-735.5 533.5,-803.5 820.5,-803.5 820.5,-735.5 533.5,-735.5"/>
<text text-anchor="start" x="541.5" y="-788.3" font-family="Times,serif" font-size="14.00">Join %0 %3</text>
<text text-anchor="start" x="541.5" y="-773.3" font-family="Times,serif" font-size="14.00"> implementation = Unimplemented</text>
<text text-anchor="start" x="541.5" y="-758.3" font-family="Times,serif" font-size="14.00"> types = (integer?, integer?, integer?)</text>
<text text-anchor="start" x="541.5" y="-743.3" font-family="Times,serif" font-size="14.00"> keys = ()</text>
</g>
<!-- node0&#45;&gt;node4 -->
<g id="edge6" class="edge">
<title>node0&#45;&gt;node4</title>
<path fill="none" stroke="black" d="M511.71,-860.13C514.85,-858.39 517.97,-856.67 521,-855 548.89,-839.66 579.67,-822.94 606.48,-808.45"/>
<polygon fill="black" stroke="black" points="608.27,-811.46 615.4,-803.63 604.94,-805.3 608.27,-811.46"/>
<text text-anchor="start" x="580" y="-825.8" font-family="Times,serif" font-size="14.00">%0</text>
</g>
<!-- node6 -->
<g id="node7" class="node">
<title>node6</title>
<polygon fill="none" stroke="black" points="838.5,-735.5 838.5,-803.5 1107.5,-803.5 1107.5,-735.5 838.5,-735.5"/>
<text text-anchor="start" x="846.5" y="-788.3" font-family="Times,serif" font-size="14.00">Join %0 %5</text>
<text text-anchor="start" x="846.5" y="-773.3" font-family="Times,serif" font-size="14.00"> implementation = Unimplemented</text>
<text text-anchor="start" x="846.5" y="-758.3" font-family="Times,serif" font-size="14.00"> types = (integer?, integer?)</text>
<text text-anchor="start" x="846.5" y="-743.3" font-family="Times,serif" font-size="14.00"> keys = ()</text>
</g>
<!-- node0&#45;&gt;node6 -->
<g id="edge5" class="edge">
<title>node0&#45;&gt;node6</title>
<path fill="none" stroke="black" d="M511.56,-858.9C514.71,-857.48 517.87,-856.17 521,-855 557.58,-841.33 568.88,-845.46 607,-837 635.52,-830.67 642.21,-826.99 671,-822 737.93,-810.41 758.13,-815.61 828.14,-804.22"/>
<polygon fill="black" stroke="black" points="829.08,-807.62 838.36,-802.51 827.92,-800.71 829.08,-807.62"/>
<text text-anchor="start" x="671" y="-825.8" font-family="Times,serif" font-size="14.00">%0</text>
</g>
<!-- node1 -->
<g id="node2" class="node">
<title>node1</title>
<polygon fill="none" stroke="black" points="0,-863 0,-916 392,-916 392,-863 0,-863"/>
<text text-anchor="start" x="8" y="-900.8" font-family="Times,serif" font-size="14.00">Get simplify_outer_joins.public.table_f1_f2_f3 (u113)</text>
<text text-anchor="start" x="8" y="-885.8" font-family="Times,serif" font-size="14.00"> types = (integer?, integer?, integer?)</text>
<text text-anchor="start" x="8" y="-870.8" font-family="Times,serif" font-size="14.00"> keys = ()</text>
</g>
<!-- node1&#45;&gt;node2 -->
<g id="edge4" class="edge">
<title>node1&#45;&gt;node2</title>
<path fill="none" stroke="black" d="M234.19,-862.9C257.54,-847.24 287.88,-826.9 314.14,-809.29"/>
<polygon fill="black" stroke="black" points="316.15,-812.16 322.51,-803.68 312.25,-806.35 316.15,-812.16"/>
<text text-anchor="start" x="295" y="-825.8" font-family="Times,serif" font-size="14.00">%1</text>
</g>
<!-- node8 -->
<g id="node9" class="node">
<title>node8</title>
<polygon fill="none" stroke="black" points="99.5,-0.5 99.5,-383.5 728.5,-383.5 728.5,-0.5 99.5,-0.5"/>
<text text-anchor="start" x="107.5" y="-368.3" font-family="Times,serif" font-size="14.00">Join %2 %7</text>
<text text-anchor="start" x="107.5" y="-353.3" font-family="Times,serif" font-size="14.00"> implementation = Unimplemented</text>
<text text-anchor="start" x="107.5" y="-338.3" font-family="Times,serif" font-size="14.00"> types = (integer?, integer?, integer?, integer?, integer?, integer?, integer?, integer?)</text>
<text text-anchor="start" x="107.5" y="-323.3" font-family="Times,serif" font-size="14.00"> keys = ()</text>
<text text-anchor="start" x="107.5" y="-308.3" font-family="Times,serif" font-size="14.00"> Project (#0..=#7)</text>
<text text-anchor="start" x="107.5" y="-293.3" font-family="Times,serif" font-size="14.00"> types = (integer?, integer?, integer?, integer?, integer?, integer?, integer?, integer?)</text>
<text text-anchor="start" x="107.5" y="-278.3" font-family="Times,serif" font-size="14.00"> keys = ()</text>
<text text-anchor="start" x="107.5" y="-263.3" font-family="Times,serif" font-size="14.00"> Filter (true &amp;&amp; (#2 = #4))</text>
<text text-anchor="start" x="107.5" y="-248.3" font-family="Times,serif" font-size="14.00"> types = (integer?, integer?, integer?, integer?, integer?, integer?, integer?, integer?)</text>
<text text-anchor="start" x="107.5" y="-233.3" font-family="Times,serif" font-size="14.00"> keys = ()</text>
<text text-anchor="start" x="107.5" y="-218.3" font-family="Times,serif" font-size="14.00"> Project (#0..=#7)</text>
<text text-anchor="start" x="107.5" y="-203.3" font-family="Times,serif" font-size="14.00"> types = (integer?, integer?, integer?, integer?, integer?, integer?, integer?, integer?)</text>
<text text-anchor="start" x="107.5" y="-188.3" font-family="Times,serif" font-size="14.00"> keys = ()</text>
<text text-anchor="start" x="107.5" y="-173.3" font-family="Times,serif" font-size="14.00"> Project (#2, #0, #1, #3..=#7)</text>
<text text-anchor="start" x="107.5" y="-158.3" font-family="Times,serif" font-size="14.00"> types = (integer?, integer?, integer?, integer?, integer?, integer?, integer?, integer?)</text>
<text text-anchor="start" x="107.5" y="-143.3" font-family="Times,serif" font-size="14.00"> keys = ()</text>
<text text-anchor="start" x="107.5" y="-128.3" font-family="Times,serif" font-size="14.00"> Filter (true &amp;&amp; (#3 = 0))</text>
<text text-anchor="start" x="107.5" y="-113.3" font-family="Times,serif" font-size="14.00"> types = (integer?, integer?, integer?, integer?, integer?, integer?, integer?, integer?)</text>
<text text-anchor="start" x="107.5" y="-98.3" font-family="Times,serif" font-size="14.00"> keys = ()</text>
<text text-anchor="start" x="107.5" y="-83.3" font-family="Times,serif" font-size="14.00"> Project (#0..=#7)</text>
<text text-anchor="start" x="107.5" y="-68.3" font-family="Times,serif" font-size="14.00"> types = (integer?, integer?, integer?, integer?, integer?, integer?, integer?, integer?)</text>
<text text-anchor="start" x="107.5" y="-53.3" font-family="Times,serif" font-size="14.00"> keys = ()</text>
<text text-anchor="start" x="107.5" y="-38.3" font-family="Times,serif" font-size="14.00"> Project (#0..=#3, #5, #7)</text>
<text text-anchor="start" x="107.5" y="-23.3" font-family="Times,serif" font-size="14.00"> types = (integer?, integer?, integer?, integer?, integer?, integer?)</text>
<text text-anchor="start" x="107.5" y="-8.3" font-family="Times,serif" font-size="14.00"> keys = ()</text>
</g>
<!-- node2&#45;&gt;node8 -->
<g id="edge10" class="edge">
<title>node2&#45;&gt;node8</title>
<path fill="none" stroke="black" d="M374.41,-735.49C379.18,-670.15 390.15,-519.74 399.34,-393.83"/>
<polygon fill="black" stroke="black" points="402.85,-393.88 400.09,-383.65 395.87,-393.37 402.85,-393.88"/>
<text text-anchor="start" x="396" y="-555.8" font-family="Times,serif" font-size="14.00">%2</text>
</g>
<!-- node3 -->
<g id="node4" class="node">
<title>node3</title>
<polygon fill="none" stroke="black" points="530,-863 530,-916 922,-916 922,-863 530,-863"/>
<text text-anchor="start" x="538" y="-900.8" font-family="Times,serif" font-size="14.00">Get simplify_outer_joins.public.table_f3_f4_f5 (u115)</text>
<text text-anchor="start" x="538" y="-885.8" font-family="Times,serif" font-size="14.00"> types = (integer?, integer?, integer?)</text>
<text text-anchor="start" x="538" y="-870.8" font-family="Times,serif" font-size="14.00"> keys = ()</text>
</g>
<!-- node3&#45;&gt;node4 -->
<g id="edge1" class="edge">
<title>node3&#45;&gt;node4</title>
<path fill="none" stroke="black" d="M715.37,-862.9C709.34,-848.39 701.65,-829.87 694.74,-813.22"/>
<polygon fill="black" stroke="black" points="697.85,-811.58 690.78,-803.68 691.38,-814.26 697.85,-811.58"/>
<text text-anchor="start" x="704" y="-825.8" font-family="Times,serif" font-size="14.00">%3</text>
</g>
<!-- node7 -->
<g id="node8" class="node">
<title>node7</title>
<polygon fill="none" stroke="black" points="465,-435.5 465,-683.5 889,-683.5 889,-435.5 465,-435.5"/>
<text text-anchor="start" x="473" y="-668.3" font-family="Times,serif" font-size="14.00">Join %4 %6</text>
<text text-anchor="start" x="473" y="-653.3" font-family="Times,serif" font-size="14.00"> implementation = Unimplemented</text>
<text text-anchor="start" x="473" y="-638.3" font-family="Times,serif" font-size="14.00"> types = (integer?, integer?, integer?, integer?, integer?)</text>
<text text-anchor="start" x="473" y="-623.3" font-family="Times,serif" font-size="14.00"> keys = ()</text>
<text text-anchor="start" x="473" y="-608.3" font-family="Times,serif" font-size="14.00"> Project (#0..=#4)</text>
<text text-anchor="start" x="473" y="-593.3" font-family="Times,serif" font-size="14.00"> types = (integer?, integer?, integer?, integer?, integer?)</text>
<text text-anchor="start" x="473" y="-578.3" font-family="Times,serif" font-size="14.00"> keys = ()</text>
<text text-anchor="start" x="473" y="-563.3" font-family="Times,serif" font-size="14.00"> Filter (true &amp;&amp; (#2 = #3))</text>
<text text-anchor="start" x="473" y="-548.3" font-family="Times,serif" font-size="14.00"> types = (integer?, integer?, integer?, integer?, integer?)</text>
<text text-anchor="start" x="473" y="-533.3" font-family="Times,serif" font-size="14.00"> keys = ()</text>
<text text-anchor="start" x="473" y="-518.3" font-family="Times,serif" font-size="14.00"> Project (#0..=#4)</text>
<text text-anchor="start" x="473" y="-503.3" font-family="Times,serif" font-size="14.00"> types = (integer?, integer?, integer?, integer?, integer?)</text>
<text text-anchor="start" x="473" y="-488.3" font-family="Times,serif" font-size="14.00"> keys = ()</text>
<text text-anchor="start" x="473" y="-473.3" font-family="Times,serif" font-size="14.00"> Project (#3, #0..=#2, #4)</text>
<text text-anchor="start" x="473" y="-458.3" font-family="Times,serif" font-size="14.00"> types = (integer?, integer?, integer?, integer?, integer?)</text>
<text text-anchor="start" x="473" y="-443.3" font-family="Times,serif" font-size="14.00"> keys = ()</text>
</g>
<!-- node4&#45;&gt;node7 -->
<g id="edge9" class="edge">
<title>node4&#45;&gt;node7</title>
<path fill="none" stroke="black" d="M677,-735.08C677,-723.21 677,-709.02 677,-693.93"/>
<polygon fill="black" stroke="black" points="680.5,-693.89 677,-683.89 673.5,-693.89 680.5,-693.89"/>
<text text-anchor="start" x="677" y="-705.8" font-family="Times,serif" font-size="14.00">%4</text>
</g>
<!-- node5 -->
<g id="node6" class="node">
<title>node5</title>
<polygon fill="none" stroke="black" points="940.5,-863 940.5,-916 1311.5,-916 1311.5,-863 940.5,-863"/>
<text text-anchor="start" x="948.5" y="-900.8" font-family="Times,serif" font-size="14.00">Get simplify_outer_joins.public.table_f5_f6 (u111)</text>
<text text-anchor="start" x="948.5" y="-885.8" font-family="Times,serif" font-size="14.00"> types = (integer?, integer?)</text>
<text text-anchor="start" x="948.5" y="-870.8" font-family="Times,serif" font-size="14.00"> keys = ()</text>
</g>
<!-- node5&#45;&gt;node6 -->
<g id="edge8" class="edge">
<title>node5&#45;&gt;node6</title>
<path fill="none" stroke="black" d="M1092.8,-862.9C1072.76,-847.44 1046.81,-827.43 1024.19,-809.98"/>
<polygon fill="black" stroke="black" points="1026.08,-807.02 1016.03,-803.68 1021.81,-812.56 1026.08,-807.02"/>
<text text-anchor="start" x="1058" y="-825.8" font-family="Times,serif" font-size="14.00">%5</text>
</g>
<!-- node6&#45;&gt;node7 -->
<g id="edge3" class="edge">
<title>node6&#45;&gt;node7</title>
<path fill="none" stroke="black" d="M925.77,-735.31C907.15,-722.22 884.47,-706.29 860.47,-689.42"/>
<polygon fill="black" stroke="black" points="862.48,-686.56 852.28,-683.67 858.45,-692.28 862.48,-686.56"/>
<text text-anchor="start" x="893" y="-705.8" font-family="Times,serif" font-size="14.00">%6</text>
</g>
<!-- node7&#45;&gt;node8 -->
<g id="edge2" class="edge">
<title>node7&#45;&gt;node8</title>
<path fill="none" stroke="black" d="M588.33,-435.27C578.2,-421.19 567.69,-406.59 557.08,-391.84"/>
<polygon fill="black" stroke="black" points="559.86,-389.71 551.17,-383.64 554.17,-393.8 559.86,-389.71"/>
<text text-anchor="start" x="569" y="-405.8" font-family="Times,serif" font-size="14.00">%7</text>
</g>
</g>
</svg>
