<?xml version="1.0" encoding="UTF-8" standalone="no"?>
<!DOCTYPE svg PUBLIC "-//W3C//DTD SVG 1.1//EN"
 "http://www.w3.org/Graphics/SVG/1.1/DTD/svg11.dtd">
<!-- Generated by graphviz version 2.43.0 (0)
 -->
<!-- Title: G Pages: 1 -->
<svg width="564pt" height="707pt"
 viewBox="0.00 0.00 564.00 707.00" xmlns="http://www.w3.org/2000/svg" xmlns:xlink="http://www.w3.org/1999/xlink">
<g id="graph0" class="graph" transform="scale(1 1) rotate(0) translate(4 703)">
<title>G</title>
<polygon fill="white" stroke="transparent" points="-4,4 -4,-703 560,-703 560,4 -4,4"/>
<!-- node0 -->
<g id="node1" class="node">
<title>node0</title>
<polygon fill="none" stroke="black" points="227,-660.5 227,-698.5 328,-698.5 328,-660.5 227,-660.5"/>
<text text-anchor="start" x="235" y="-683.3" font-family="Times,serif" font-size="14.00">Let l0 =</text>
<text text-anchor="start" x="235" y="-668.3" font-family="Times,serif" font-size="14.00"> Constant ()</text>
</g>
<!-- node2 -->
<g id="node3" class="node">
<title>node2</title>
<polygon fill="none" stroke="black" points="0,-555.5 0,-608.5 269,-608.5 269,-555.5 0,-555.5"/>
<text text-anchor="start" x="8" y="-593.3" font-family="Times,serif" font-size="14.00">Let l1 =</text>
<text text-anchor="start" x="8" y="-578.3" font-family="Times,serif" font-size="14.00"> Join %0 %1</text>
<text text-anchor="start" x="8" y="-563.3" font-family="Times,serif" font-size="14.00"> implementation = Unimplemented</text>
</g>
<!-- node0&#45;&gt;node2 -->
<g id="edge2" class="edge">
<title>node0&#45;&gt;node2</title>
<path fill="none" stroke="black" d="M250.27,-660.31C230.79,-647.31 204.1,-629.48 181.25,-614.22"/>
<polygon fill="black" stroke="black" points="182.96,-611.16 172.7,-608.51 179.08,-616.98 182.96,-611.16"/>
<text text-anchor="start" x="219.5" y="-630.8" font-family="Times,serif" font-size="14.00">%0</text>
</g>
<!-- node4 -->
<g id="node5" class="node">
<title>node4</title>
<polygon fill="none" stroke="black" points="287,-555.5 287,-608.5 556,-608.5 556,-555.5 287,-555.5"/>
<text text-anchor="start" x="295" y="-593.3" font-family="Times,serif" font-size="14.00">Let l2 =</text>
<text text-anchor="start" x="295" y="-578.3" font-family="Times,serif" font-size="14.00"> Join %0 %3</text>
<text text-anchor="start" x="295" y="-563.3" font-family="Times,serif" font-size="14.00"> implementation = Unimplemented</text>
</g>
<!-- node0&#45;&gt;node4 -->
<g id="edge12" class="edge">
<title>node0&#45;&gt;node4</title>
<path fill="none" stroke="black" d="M304.92,-660.31C324.53,-647.31 351.41,-629.48 374.42,-614.22"/>
<polygon fill="black" stroke="black" points="376.63,-616.96 383.03,-608.51 372.76,-611.12 376.63,-616.96"/>
<text text-anchor="start" x="353.5" y="-630.8" font-family="Times,serif" font-size="14.00">%0</text>
</g>
<!-- node1 -->
<g id="node2" class="node">
<title>node1</title>
<polygon fill="none" stroke="black" points="30,-661.5 30,-697.5 209,-697.5 209,-661.5 30,-661.5"/>
<text text-anchor="start" x="38" y="-675.8" font-family="Times,serif" font-size="14.00">Get qgm.public.r (u42)</text>
</g>
<!-- node1&#45;&gt;node2 -->
<g id="edge11" class="edge">
<title>node1&#45;&gt;node2</title>
<path fill="none" stroke="black" d="M122.18,-661.43C124.04,-649.6 126.58,-633.41 128.87,-618.82"/>
<polygon fill="black" stroke="black" points="132.39,-618.98 130.49,-608.55 125.48,-617.89 132.39,-618.98"/>
<text text-anchor="start" x="127.5" y="-630.8" font-family="Times,serif" font-size="14.00">%1</text>
</g>
<!-- node5 -->
<g id="node6" class="node">
<title>node5</title>
<polygon fill="none" stroke="black" points="227,-420.5 227,-503.5 496,-503.5 496,-420.5 227,-420.5"/>
<text text-anchor="start" x="235" y="-488.3" font-family="Times,serif" font-size="14.00">Let l3 =</text>
<text text-anchor="start" x="235" y="-473.3" font-family="Times,serif" font-size="14.00"> Join %2 %4</text>
<text text-anchor="start" x="235" y="-458.3" font-family="Times,serif" font-size="14.00"> implementation = Unimplemented</text>
<text text-anchor="start" x="235" y="-443.3" font-family="Times,serif" font-size="14.00"> Project (#0..#3)</text>
<text text-anchor="start" x="235" y="-428.3" font-family="Times,serif" font-size="14.00"> Filter (#1 = #3)</text>
</g>
<!-- node2&#45;&gt;node5 -->
<g id="edge3" class="edge">
<title>node2&#45;&gt;node5</title>
<path fill="none" stroke="black" d="M183.76,-555.4C210.22,-541.64 243.64,-524.27 274.33,-508.31"/>
<polygon fill="black" stroke="black" points="276.07,-511.35 283.33,-503.63 272.85,-505.14 276.07,-511.35"/>
<text text-anchor="start" x="248.5" y="-525.8" font-family="Times,serif" font-size="14.00">%2</text>
</g>
<!-- node7 -->
<g id="node8" class="node">
<title>node7</title>
<polygon fill="none" stroke="black" points="107,-180.5 107,-248.5 376,-248.5 376,-180.5 107,-180.5"/>
<text text-anchor="start" x="115" y="-233.3" font-family="Times,serif" font-size="14.00">Join %2 %6 (= #1 #2)</text>
<text text-anchor="start" x="115" y="-218.3" font-family="Times,serif" font-size="14.00"> implementation = Unimplemented</text>
<text text-anchor="start" x="115" y="-203.3" font-family="Times,serif" font-size="14.00"> Project (#0, #1)</text>
<text text-anchor="start" x="115" y="-188.3" font-family="Times,serif" font-size="14.00"> Negate</text>
</g>
<!-- node2&#45;&gt;node7 -->
<g id="edge13" class="edge">
<title>node2&#45;&gt;node7</title>
<path fill="none" stroke="black" d="M134.99,-555.14C136.77,-504.33 144.88,-388.69 181.5,-300 187.7,-284.99 196.98,-270.07 206.4,-257.03"/>
<polygon fill="black" stroke="black" points="209.4,-258.86 212.58,-248.75 203.8,-254.67 209.4,-258.86"/>
<text text-anchor="start" x="155.5" y="-390.8" font-family="Times,serif" font-size="14.00">%2</text>
</g>
<!-- node8 -->
<g id="node9" class="node">
<title>node8</title>
<polygon fill="none" stroke="black" points="181.5,-90.5 181.5,-128.5 301.5,-128.5 301.5,-90.5 181.5,-90.5"/>
<text text-anchor="start" x="189.5" y="-113.3" font-family="Times,serif" font-size="14.00">Union %7 %2</text>
<text text-anchor="start" x="189.5" y="-98.3" font-family="Times,serif" font-size="14.00"> Map null, null</text>
</g>
<!-- node2&#45;&gt;node8 -->
<g id="edge9" class="edge">
<title>node2&#45;&gt;node8</title>
<path fill="none" stroke="black" d="M114.28,-555.46C98.24,-532.6 78.5,-497.47 78.5,-463 78.5,-463 78.5,-463 78.5,-213.5 78.5,-166.56 127.4,-140.14 171.63,-125.85"/>
<polygon fill="black" stroke="black" points="172.73,-129.17 181.27,-122.89 170.68,-122.48 172.73,-129.17"/>
<text text-anchor="start" x="78.5" y="-330.8" font-family="Times,serif" font-size="14.00">%2</text>
</g>
<!-- node3 -->
<g id="node4" class="node">
<title>node3</title>
<polygon fill="none" stroke="black" points="346,-661.5 346,-697.5 525,-697.5 525,-661.5 346,-661.5"/>
<text text-anchor="start" x="354" y="-675.8" font-family="Times,serif" font-size="14.00">Get qgm.public.t (u56)</text>
</g>
<!-- node3&#45;&gt;node4 -->
<g id="edge1" class="edge">
<title>node3&#45;&gt;node4</title>
<path fill="none" stroke="black" d="M433,-661.43C431.26,-649.6 428.89,-633.41 426.75,-618.82"/>
<polygon fill="black" stroke="black" points="430.16,-617.94 425.25,-608.55 423.23,-618.96 430.16,-617.94"/>
<text text-anchor="start" x="429.5" y="-630.8" font-family="Times,serif" font-size="14.00">%3</text>
</g>
<!-- node4&#45;&gt;node5 -->
<g id="edge7" class="edge">
<title>node4&#45;&gt;node5</title>
<path fill="none" stroke="black" d="M408.48,-555.4C402.14,-542.93 394.3,-527.51 386.85,-512.86"/>
<polygon fill="black" stroke="black" points="389.93,-511.19 382.28,-503.86 383.69,-514.36 389.93,-511.19"/>
<text text-anchor="start" x="398.5" y="-525.8" font-family="Times,serif" font-size="14.00">%4</text>
</g>
<!-- node6 -->
<g id="node7" class="node">
<title>node6</title>
<polygon fill="none" stroke="black" points="190,-300.5 190,-368.5 357,-368.5 357,-300.5 190,-300.5"/>
<text text-anchor="start" x="198" y="-353.3" font-family="Times,serif" font-size="14.00">Let l4 =</text>
<text text-anchor="start" x="198" y="-338.3" font-family="Times,serif" font-size="14.00"> Get %5 (l3)</text>
<text text-anchor="start" x="198" y="-323.3" font-family="Times,serif" font-size="14.00"> Project (#1)</text>
<text text-anchor="start" x="198" y="-308.3" font-family="Times,serif" font-size="14.00"> Distinct group=(#0)</text>
</g>
<!-- node5&#45;&gt;node6 -->
<g id="edge4" class="edge">
<title>node5&#45;&gt;node6</title>
<path fill="none" stroke="black" d="M332.93,-420.25C323.2,-406.38 312.33,-390.87 302.56,-376.95"/>
<polygon fill="black" stroke="black" points="305.26,-374.69 296.65,-368.51 299.52,-378.71 305.26,-374.69"/>
<text text-anchor="start" x="317.5" y="-390.8" font-family="Times,serif" font-size="14.00">%5</text>
</g>
<!-- node9 -->
<g id="node10" class="node">
<title>node9</title>
<polygon fill="none" stroke="black" points="258.5,-0.5 258.5,-38.5 396.5,-38.5 396.5,-0.5 258.5,-0.5"/>
<text text-anchor="start" x="266.5" y="-23.3" font-family="Times,serif" font-size="14.00">Union %8 %5</text>
<text text-anchor="start" x="266.5" y="-8.3" font-family="Times,serif" font-size="14.00"> Project (#0, #2)</text>
</g>
<!-- node5&#45;&gt;node9 -->
<g id="edge8" class="edge">
<title>node5&#45;&gt;node9</title>
<path fill="none" stroke="black" d="M387.3,-420.27C399.95,-396.49 412.5,-365.37 412.5,-335.5 412.5,-335.5 412.5,-335.5 412.5,-108.5 412.5,-81.5 391.54,-59.61 370.44,-44.42"/>
<polygon fill="black" stroke="black" points="372.31,-41.46 362.07,-38.73 368.37,-47.25 372.31,-41.46"/>
<text text-anchor="start" x="412.5" y="-210.8" font-family="Times,serif" font-size="14.00">%5</text>
</g>
<!-- node6&#45;&gt;node7 -->
<g id="edge5" class="edge">
<title>node6&#45;&gt;node7</title>
<path fill="none" stroke="black" d="M264.5,-300.32C260.99,-287.37 256.92,-272.36 253.19,-258.6"/>
<polygon fill="black" stroke="black" points="256.54,-257.58 250.54,-248.84 249.78,-259.41 256.54,-257.58"/>
<text text-anchor="start" x="258.5" y="-270.8" font-family="Times,serif" font-size="14.00">%6</text>
</g>
<!-- node7&#45;&gt;node8 -->
<g id="edge10" class="edge">
<title>node7&#45;&gt;node8</title>
<path fill="none" stroke="black" d="M241.5,-180.34C241.5,-166.93 241.5,-151.6 241.5,-138.73"/>
<polygon fill="black" stroke="black" points="245,-138.59 241.5,-128.59 238,-138.59 245,-138.59"/>
<text text-anchor="start" x="241.5" y="-150.8" font-family="Times,serif" font-size="14.00">%7</text>
</g>
<!-- node8&#45;&gt;node9 -->
<g id="edge6" class="edge">
<title>node8&#45;&gt;node9</title>
<path fill="none" stroke="black" d="M259.32,-90.27C271.77,-77.52 288.58,-60.33 302.39,-46.2"/>
<polygon fill="black" stroke="black" points="305.22,-48.31 309.7,-38.71 300.21,-43.42 305.22,-48.31"/>
<text text-anchor="start" x="289.5" y="-60.8" font-family="Times,serif" font-size="14.00">%8</text>
</g>
</g>
</svg>
