<?xml version="1.0" encoding="UTF-8" standalone="no"?>
<!DOCTYPE svg PUBLIC "-//W3C//DTD SVG 1.1//EN"
 "http://www.w3.org/Graphics/SVG/1.1/DTD/svg11.dtd">
<!-- Generated by graphviz version 2.43.0 (0)
 -->
<!-- Title: G Pages: 1 -->
<svg width="665pt" height="609pt"
 viewBox="0.00 0.00 664.50 609.00" xmlns="http://www.w3.org/2000/svg" xmlns:xlink="http://www.w3.org/1999/xlink">
<g id="graph0" class="graph" transform="scale(1 1) rotate(0) translate(4 605)">
<title>G</title>
<polygon fill="white" stroke="transparent" points="-4,4 -4,-605 660.5,-605 660.5,4 -4,4"/>
<!-- node0 -->
<g id="node1" class="node">
<title>node0</title>
<polygon fill="none" stroke="black" points="0,-562.5 0,-600.5 179,-600.5 179,-562.5 0,-562.5"/>
<text text-anchor="start" x="8" y="-585.3" font-family="Times,serif" font-size="14.00">Get qgm.public.r (u42)</text>
<text text-anchor="start" x="8" y="-570.3" font-family="Times,serif" font-size="14.00"> ArrangeBy (#1)</text>
</g>
<!-- node2 -->
<g id="node3" class="node">
<title>node2</title>
<polygon fill="none" stroke="black" points="24.5,-442.5 24.5,-510.5 350.5,-510.5 350.5,-442.5 24.5,-442.5"/>
<text text-anchor="start" x="32.5" y="-495.3" font-family="Times,serif" font-size="14.00">Let l0 =</text>
<text text-anchor="start" x="32.5" y="-480.3" font-family="Times,serif" font-size="14.00"> Join %0 %1 (= #1 #3)</text>
<text text-anchor="start" x="32.5" y="-465.3" font-family="Times,serif" font-size="14.00"> implementation = Differential %1 %0.(#1)</text>
<text text-anchor="start" x="32.5" y="-450.3" font-family="Times,serif" font-size="14.00"> Project (#0..#2)</text>
</g>
<!-- node0&#45;&gt;node2 -->
<g id="edge2" class="edge">
<title>node0&#45;&gt;node2</title>
<path fill="none" stroke="black" d="M107.02,-562.09C118.66,-549.85 134.41,-533.3 148.89,-518.08"/>
<polygon fill="black" stroke="black" points="151.51,-520.4 155.87,-510.74 146.44,-515.58 151.51,-520.4"/>
<text text-anchor="start" x="138.5" y="-532.8" font-family="Times,serif" font-size="14.00">%0</text>
</g>
<!-- node1 -->
<g id="node2" class="node">
<title>node1</title>
<polygon fill="none" stroke="black" points="197,-562.5 197,-600.5 376,-600.5 376,-562.5 197,-562.5"/>
<text text-anchor="start" x="205" y="-585.3" font-family="Times,serif" font-size="14.00">Get qgm.public.t (u56)</text>
<text text-anchor="start" x="205" y="-570.3" font-family="Times,serif" font-size="14.00"> Filter !(isnull(#1))</text>
</g>
<!-- node1&#45;&gt;node2 -->
<g id="edge9" class="edge">
<title>node1&#45;&gt;node2</title>
<path fill="none" stroke="black" d="M268.8,-562.09C257.04,-549.85 241.13,-533.3 226.51,-518.08"/>
<polygon fill="black" stroke="black" points="228.91,-515.53 219.45,-510.74 223.86,-520.38 228.91,-515.53"/>
<text text-anchor="start" x="248.5" y="-532.8" font-family="Times,serif" font-size="14.00">%1</text>
</g>
<!-- node4 -->
<g id="node5" class="node">
<title>node4</title>
<polygon fill="none" stroke="black" points="410,-322.5 410,-390.5 577,-390.5 577,-322.5 410,-322.5"/>
<text text-anchor="start" x="418" y="-375.3" font-family="Times,serif" font-size="14.00">Get %2 (l0)</text>
<text text-anchor="start" x="418" y="-360.3" font-family="Times,serif" font-size="14.00"> Project (#1)</text>
<text text-anchor="start" x="418" y="-345.3" font-family="Times,serif" font-size="14.00"> Distinct group=(#0)</text>
<text text-anchor="start" x="418" y="-330.3" font-family="Times,serif" font-size="14.00"> ArrangeBy (#0)</text>
</g>
<!-- node2&#45;&gt;node4 -->
<g id="edge8" class="edge">
<title>node2&#45;&gt;node4</title>
<path fill="none" stroke="black" d="M273.14,-442.47C312.84,-427.17 360.09,-408.94 400.64,-393.31"/>
<polygon fill="black" stroke="black" points="401.92,-396.57 409.99,-389.7 399.4,-390.04 401.92,-396.57"/>
<text text-anchor="start" x="358.5" y="-412.8" font-family="Times,serif" font-size="14.00">%2</text>
</g>
<!-- node8 -->
<g id="node9" class="node">
<title>node8</title>
<polygon fill="none" stroke="black" points="75.5,-265.5 75.5,-303.5 213.5,-303.5 213.5,-265.5 75.5,-265.5"/>
<text text-anchor="start" x="83.5" y="-288.3" font-family="Times,serif" font-size="14.00">Get %2 (l0)</text>
<text text-anchor="start" x="83.5" y="-273.3" font-family="Times,serif" font-size="14.00"> Project (#0, #2)</text>
</g>
<!-- node2&#45;&gt;node8 -->
<g id="edge6" class="edge">
<title>node2&#45;&gt;node8</title>
<path fill="none" stroke="black" d="M180.01,-442.4C171.75,-405.89 158.59,-347.75 150.82,-313.44"/>
<polygon fill="black" stroke="black" points="154.22,-312.59 148.6,-303.61 147.39,-314.13 154.22,-312.59"/>
<text text-anchor="start" x="176.5" y="-412.8" font-family="Times,serif" font-size="14.00">%2</text>
</g>
<!-- node3 -->
<g id="node4" class="node">
<title>node3</title>
<polygon fill="none" stroke="black" points="213,-338.5 213,-374.5 392,-374.5 392,-338.5 213,-338.5"/>
<text text-anchor="start" x="221" y="-352.8" font-family="Times,serif" font-size="14.00">Get qgm.public.r (u42)</text>
</g>
<!-- node5 -->
<g id="node6" class="node">
<title>node5</title>
<polygon fill="none" stroke="black" points="330.5,-178.5 330.5,-246.5 656.5,-246.5 656.5,-178.5 330.5,-178.5"/>
<text text-anchor="start" x="338.5" y="-231.3" font-family="Times,serif" font-size="14.00">Join %3 %4 (= #1 #2)</text>
<text text-anchor="start" x="338.5" y="-216.3" font-family="Times,serif" font-size="14.00"> implementation = Differential %3 %4.(#0)</text>
<text text-anchor="start" x="338.5" y="-201.3" font-family="Times,serif" font-size="14.00"> Project (#0)</text>
<text text-anchor="start" x="338.5" y="-186.3" font-family="Times,serif" font-size="14.00"> Negate</text>
</g>
<!-- node3&#45;&gt;node5 -->
<g id="edge7" class="edge">
<title>node3&#45;&gt;node5</title>
<path fill="none" stroke="black" d="M325.54,-338.37C353.86,-317.32 402.8,-280.93 440.57,-252.85"/>
<polygon fill="black" stroke="black" points="443,-255.41 448.93,-246.63 438.82,-249.79 443,-255.41"/>
<text text-anchor="start" x="420.5" y="-280.8" font-family="Times,serif" font-size="14.00">%3</text>
</g>
<!-- node4&#45;&gt;node5 -->
<g id="edge4" class="edge">
<title>node4&#45;&gt;node5</title>
<path fill="none" stroke="black" d="M493.5,-322.21C493.5,-302.71 493.5,-277.87 493.5,-256.86"/>
<polygon fill="black" stroke="black" points="497,-256.58 493.5,-246.58 490,-256.58 497,-256.58"/>
<text text-anchor="start" x="493.5" y="-280.8" font-family="Times,serif" font-size="14.00">%4</text>
</g>
<!-- node7 -->
<g id="node8" class="node">
<title>node7</title>
<polygon fill="none" stroke="black" points="166,-88.5 166,-126.5 279,-126.5 279,-88.5 166,-88.5"/>
<text text-anchor="start" x="174" y="-111.3" font-family="Times,serif" font-size="14.00">Union %5 %6</text>
<text text-anchor="start" x="174" y="-96.3" font-family="Times,serif" font-size="14.00"> Map null</text>
</g>
<!-- node5&#45;&gt;node7 -->
<g id="edge5" class="edge">
<title>node5&#45;&gt;node7</title>
<path fill="none" stroke="black" d="M406.64,-178.49C365.14,-162.71 316.62,-144.27 279.81,-130.28"/>
<polygon fill="black" stroke="black" points="280.83,-126.92 270.24,-126.64 278.34,-133.47 280.83,-126.92"/>
<text text-anchor="start" x="357.5" y="-148.8" font-family="Times,serif" font-size="14.00">%5</text>
</g>
<!-- node6 -->
<g id="node7" class="node">
<title>node6</title>
<polygon fill="none" stroke="black" points="133,-193.5 133,-231.5 312,-231.5 312,-193.5 133,-193.5"/>
<text text-anchor="start" x="141" y="-216.3" font-family="Times,serif" font-size="14.00">Get qgm.public.r (u42)</text>
<text text-anchor="start" x="141" y="-201.3" font-family="Times,serif" font-size="14.00"> Project (#0)</text>
</g>
<!-- node6&#45;&gt;node7 -->
<g id="edge3" class="edge">
<title>node6&#45;&gt;node7</title>
<path fill="none" stroke="black" d="M222.5,-193.09C222.5,-177.49 222.5,-154.87 222.5,-136.94"/>
<polygon fill="black" stroke="black" points="226,-136.75 222.5,-126.75 219,-136.75 226,-136.75"/>
<text text-anchor="start" x="222.5" y="-148.8" font-family="Times,serif" font-size="14.00">%6</text>
</g>
<!-- node9 -->
<g id="node10" class="node">
<title>node9</title>
<polygon fill="none" stroke="black" points="64,-0.5 64,-36.5 177,-36.5 177,-0.5 64,-0.5"/>
<text text-anchor="start" x="72" y="-14.8" font-family="Times,serif" font-size="14.00">Union %7 %8</text>
</g>
<!-- node7&#45;&gt;node9 -->
<g id="edge1" class="edge">
<title>node7&#45;&gt;node9</title>
<path fill="none" stroke="black" d="M201.37,-88.47C186.02,-75.39 165.11,-57.55 148.39,-43.29"/>
<polygon fill="black" stroke="black" points="150.45,-40.44 140.57,-36.62 145.9,-45.77 150.45,-40.44"/>
<text text-anchor="start" x="178.5" y="-58.8" font-family="Times,serif" font-size="14.00">%7</text>
</g>
<!-- node8&#45;&gt;node9 -->
<g id="edge10" class="edge">
<title>node8&#45;&gt;node9</title>
<path fill="none" stroke="black" d="M131.66,-265.37C128.35,-259.74 125.24,-253.35 123.5,-247 104.29,-176.94 111.13,-90.13 116.51,-46.79"/>
<polygon fill="black" stroke="black" points="120,-47.12 117.83,-36.75 113.06,-46.21 120,-47.12"/>
<text text-anchor="start" x="111.5" y="-148.8" font-family="Times,serif" font-size="14.00">%8</text>
</g>
</g>
</svg>
