<?xml version="1.0" encoding="UTF-8" standalone="no"?>
<!DOCTYPE svg PUBLIC "-//W3C//DTD SVG 1.1//EN"
 "http://www.w3.org/Graphics/SVG/1.1/DTD/svg11.dtd">
<!-- Generated by graphviz version 2.43.0 (0)
 -->
<!-- Title: G Pages: 1 -->
<svg width="384pt" height="135pt"
 viewBox="0.00 0.00 384.00 135.00" xmlns="http://www.w3.org/2000/svg" xmlns:xlink="http://www.w3.org/1999/xlink">
<g id="graph0" class="graph" transform="scale(1 1) rotate(0) translate(4 131)">
<title>G</title>
<polygon fill="white" stroke="transparent" points="-4,4 -4,-131 380,-131 380,4 -4,4"/>
<!-- node0 -->
<g id="node1" class="node">
<title>node0</title>
<polygon fill="none" stroke="black" points="0,-90.5 0,-126.5 179,-126.5 179,-90.5 0,-90.5"/>
<text text-anchor="start" x="8" y="-104.8" font-family="Times,serif" font-size="14.00">Get qgm.public.r (u42)</text>
</g>
<!-- node2 -->
<g id="node3" class="node">
<title>node2</title>
<polygon fill="none" stroke="black" points="54,-0.5 54,-38.5 321,-38.5 321,-0.5 54,-0.5"/>
<text text-anchor="start" x="62" y="-23.3" font-family="Times,serif" font-size="14.00">LeftOuterJoin %0 %1 on (#1 = #3)</text>
<text text-anchor="start" x="62" y="-8.3" font-family="Times,serif" font-size="14.00"> Project (#0, #2)</text>
</g>
<!-- node0&#45;&gt;node2 -->
<g id="edge2" class="edge">
<title>node0&#45;&gt;node2</title>
<path fill="none" stroke="black" d="M108.86,-90.31C123.34,-77.46 143.34,-59.7 159.55,-45.31"/>
<polygon fill="black" stroke="black" points="162.01,-47.81 167.17,-38.55 157.36,-42.57 162.01,-47.81"/>
<text text-anchor="start" x="144.5" y="-60.8" font-family="Times,serif" font-size="14.00">%0</text>
</g>
<!-- node1 -->
<g id="node2" class="node">
<title>node1</title>
<polygon fill="none" stroke="black" points="197,-90.5 197,-126.5 376,-126.5 376,-90.5 197,-90.5"/>
<text text-anchor="start" x="205" y="-104.8" font-family="Times,serif" font-size="14.00">Get qgm.public.t (u56)</text>
</g>
<!-- node1&#45;&gt;node2 -->
<g id="edge1" class="edge">
<title>node1&#45;&gt;node2</title>
<path fill="none" stroke="black" d="M266.94,-90.31C252.32,-77.46 232.11,-59.7 215.73,-45.31"/>
<polygon fill="black" stroke="black" points="217.86,-42.52 208.04,-38.55 213.24,-47.78 217.86,-42.52"/>
<text text-anchor="start" x="245.5" y="-60.8" font-family="Times,serif" font-size="14.00">%1</text>
</g>
</g>
</svg>
