<?xml version="1.0" encoding="UTF-8" standalone="no"?>
<!DOCTYPE svg PUBLIC "-//W3C//DTD SVG 1.1//EN"
 "http://www.w3.org/Graphics/SVG/1.1/DTD/svg11.dtd">
<!-- Generated by graphviz version 2.43.0 (0)
 -->
<!-- Title: G Pages: 1 -->
<svg width="762pt" height="1076pt"
 viewBox="0.00 0.00 761.50 1076.00" xmlns="http://www.w3.org/2000/svg" xmlns:xlink="http://www.w3.org/1999/xlink">
<g id="graph0" class="graph" transform="scale(1 1) rotate(0) translate(4 1072)">
<title>G</title>
<polygon fill="white" stroke="transparent" points="-4,4 -4,-1072 757.5,-1072 757.5,4 -4,4"/>
<!-- node0 -->
<g id="node1" class="node">
<title>node0</title>
<polygon fill="none" stroke="black" points="0,-969.5 0,-1067.5 203,-1067.5 203,-969.5 0,-969.5"/>
<text text-anchor="start" x="8" y="-1052.3" font-family="Times,serif" font-size="14.00">Get qgm.public.r (u42)</text>
<text text-anchor="start" x="8" y="-1037.3" font-family="Times,serif" font-size="14.00"> types = (integer, integer)</text>
<text text-anchor="start" x="8" y="-1022.3" font-family="Times,serif" font-size="14.00"> keys = ()</text>
<text text-anchor="start" x="8" y="-1007.3" font-family="Times,serif" font-size="14.00"> ArrangeBy (#1)</text>
<text text-anchor="start" x="8" y="-992.3" font-family="Times,serif" font-size="14.00"> types = (integer, integer)</text>
<text text-anchor="start" x="8" y="-977.3" font-family="Times,serif" font-size="14.00"> keys = ()</text>
</g>
<!-- node2 -->
<g id="node3" class="node">
<title>node2</title>
<polygon fill="none" stroke="black" points="50.5,-789.5 50.5,-917.5 380.5,-917.5 380.5,-789.5 50.5,-789.5"/>
<text text-anchor="start" x="58.5" y="-902.3" font-family="Times,serif" font-size="14.00">Let l0 =</text>
<text text-anchor="start" x="58.5" y="-887.3" font-family="Times,serif" font-size="14.00"> Join %0 %1 (= #1 #3)</text>
<text text-anchor="start" x="58.5" y="-872.3" font-family="Times,serif" font-size="14.00"> implementation = Differential %1 %0.(#1)</text>
<text text-anchor="start" x="58.5" y="-857.3" font-family="Times,serif" font-size="14.00"> types = (integer, integer, integer?, integer)</text>
<text text-anchor="start" x="58.5" y="-842.3" font-family="Times,serif" font-size="14.00"> keys = ()</text>
<text text-anchor="start" x="58.5" y="-827.3" font-family="Times,serif" font-size="14.00"> Project (#0..#2)</text>
<text text-anchor="start" x="58.5" y="-812.3" font-family="Times,serif" font-size="14.00"> types = (integer, integer, integer?)</text>
<text text-anchor="start" x="58.5" y="-797.3" font-family="Times,serif" font-size="14.00"> keys = ()</text>
</g>
<!-- node0&#45;&gt;node2 -->
<g id="edge2" class="edge">
<title>node0&#45;&gt;node2</title>
<path fill="none" stroke="black" d="M135.09,-969.48C144.59,-955.9 155.13,-940.81 165.38,-926.16"/>
<polygon fill="black" stroke="black" points="168.51,-927.8 171.37,-917.6 162.77,-923.79 168.51,-927.8"/>
<text text-anchor="start" x="158.5" y="-939.8" font-family="Times,serif" font-size="14.00">%0</text>
</g>
<!-- node1 -->
<g id="node2" class="node">
<title>node1</title>
<polygon fill="none" stroke="black" points="221,-969.5 221,-1067.5 440,-1067.5 440,-969.5 221,-969.5"/>
<text text-anchor="start" x="229" y="-1052.3" font-family="Times,serif" font-size="14.00">Get qgm.public.t (u56)</text>
<text text-anchor="start" x="229" y="-1037.3" font-family="Times,serif" font-size="14.00"> types = (integer?, integer?)</text>
<text text-anchor="start" x="229" y="-1022.3" font-family="Times,serif" font-size="14.00"> keys = ()</text>
<text text-anchor="start" x="229" y="-1007.3" font-family="Times,serif" font-size="14.00"> Filter !(isnull(#1))</text>
<text text-anchor="start" x="229" y="-992.3" font-family="Times,serif" font-size="14.00"> types = (integer?, integer)</text>
<text text-anchor="start" x="229" y="-977.3" font-family="Times,serif" font-size="14.00"> keys = ()</text>
</g>
<!-- node1&#45;&gt;node2 -->
<g id="edge9" class="edge">
<title>node1&#45;&gt;node2</title>
<path fill="none" stroke="black" d="M296.62,-969.48C287.04,-955.9 276.4,-940.81 266.06,-926.16"/>
<polygon fill="black" stroke="black" points="268.64,-923.75 260.02,-917.6 262.92,-927.79 268.64,-923.75"/>
<text text-anchor="start" x="283.5" y="-939.8" font-family="Times,serif" font-size="14.00">%1</text>
</g>
<!-- node4 -->
<g id="node5" class="node">
<title>node4</title>
<polygon fill="none" stroke="black" points="456,-549.5 456,-737.5 725,-737.5 725,-549.5 456,-549.5"/>
<text text-anchor="start" x="464" y="-722.3" font-family="Times,serif" font-size="14.00">Get %2 (l0)</text>
<text text-anchor="start" x="464" y="-707.3" font-family="Times,serif" font-size="14.00"> types = (integer, integer, integer?)</text>
<text text-anchor="start" x="464" y="-692.3" font-family="Times,serif" font-size="14.00"> keys = ()</text>
<text text-anchor="start" x="464" y="-677.3" font-family="Times,serif" font-size="14.00"> Project (#1)</text>
<text text-anchor="start" x="464" y="-662.3" font-family="Times,serif" font-size="14.00"> types = (integer)</text>
<text text-anchor="start" x="464" y="-647.3" font-family="Times,serif" font-size="14.00"> keys = ()</text>
<text text-anchor="start" x="464" y="-632.3" font-family="Times,serif" font-size="14.00"> Distinct group=(#0)</text>
<text text-anchor="start" x="464" y="-617.3" font-family="Times,serif" font-size="14.00"> types = (integer)</text>
<text text-anchor="start" x="464" y="-602.3" font-family="Times,serif" font-size="14.00"> keys = ((#0))</text>
<text text-anchor="start" x="464" y="-587.3" font-family="Times,serif" font-size="14.00"> ArrangeBy (#0)</text>
<text text-anchor="start" x="464" y="-572.3" font-family="Times,serif" font-size="14.00"> types = (integer)</text>
<text text-anchor="start" x="464" y="-557.3" font-family="Times,serif" font-size="14.00"> keys = ((#0))</text>
</g>
<!-- node2&#45;&gt;node4 -->
<g id="edge8" class="edge">
<title>node2&#45;&gt;node4</title>
<path fill="none" stroke="black" d="M350.36,-789.36C380.06,-774.6 411.28,-758.4 446.6,-738.44"/>
<polygon fill="black" stroke="black" points="448.7,-741.27 455.66,-733.28 445.24,-735.18 448.7,-741.27"/>
<text text-anchor="start" x="409.5" y="-759.8" font-family="Times,serif" font-size="14.00">%2</text>
</g>
<!-- node8 -->
<g id="node9" class="node">
<title>node8</title>
<polygon fill="none" stroke="black" points="44,-432.5 44,-530.5 313,-530.5 313,-432.5 44,-432.5"/>
<text text-anchor="start" x="52" y="-515.3" font-family="Times,serif" font-size="14.00">Get %2 (l0)</text>
<text text-anchor="start" x="52" y="-500.3" font-family="Times,serif" font-size="14.00"> types = (integer, integer, integer?)</text>
<text text-anchor="start" x="52" y="-485.3" font-family="Times,serif" font-size="14.00"> keys = ()</text>
<text text-anchor="start" x="52" y="-470.3" font-family="Times,serif" font-size="14.00"> Project (#0, #2)</text>
<text text-anchor="start" x="52" y="-455.3" font-family="Times,serif" font-size="14.00"> types = (integer, integer?)</text>
<text text-anchor="start" x="52" y="-440.3" font-family="Times,serif" font-size="14.00"> keys = ()</text>
</g>
<!-- node2&#45;&gt;node8 -->
<g id="edge6" class="edge">
<title>node2&#45;&gt;node8</title>
<path fill="none" stroke="black" d="M209.18,-789.32C202.21,-719.62 191.09,-608.41 184.32,-540.75"/>
<polygon fill="black" stroke="black" points="187.8,-540.29 183.32,-530.69 180.83,-540.99 187.8,-540.29"/>
<text text-anchor="start" x="207.5" y="-759.8" font-family="Times,serif" font-size="14.00">%2</text>
</g>
<!-- node3 -->
<g id="node4" class="node">
<title>node3</title>
<polygon fill="none" stroke="black" points="235,-617 235,-670 438,-670 438,-617 235,-617"/>
<text text-anchor="start" x="243" y="-654.8" font-family="Times,serif" font-size="14.00">Get qgm.public.r (u42)</text>
<text text-anchor="start" x="243" y="-639.8" font-family="Times,serif" font-size="14.00"> types = (integer, integer)</text>
<text text-anchor="start" x="243" y="-624.8" font-family="Times,serif" font-size="14.00"> keys = ()</text>
</g>
<!-- node5 -->
<g id="node6" class="node">
<title>node5</title>
<polygon fill="none" stroke="black" points="427.5,-255.5 427.5,-413.5 753.5,-413.5 753.5,-255.5 427.5,-255.5"/>
<text text-anchor="start" x="435.5" y="-398.3" font-family="Times,serif" font-size="14.00">Join %3 %4 (= #1 #2)</text>
<text text-anchor="start" x="435.5" y="-383.3" font-family="Times,serif" font-size="14.00"> implementation = Differential %3 %4.(#0)</text>
<text text-anchor="start" x="435.5" y="-368.3" font-family="Times,serif" font-size="14.00"> types = (integer, integer, integer)</text>
<text text-anchor="start" x="435.5" y="-353.3" font-family="Times,serif" font-size="14.00"> keys = ()</text>
<text text-anchor="start" x="435.5" y="-338.3" font-family="Times,serif" font-size="14.00"> Project (#0)</text>
<text text-anchor="start" x="435.5" y="-323.3" font-family="Times,serif" font-size="14.00"> types = (integer)</text>
<text text-anchor="start" x="435.5" y="-308.3" font-family="Times,serif" font-size="14.00"> keys = ()</text>
<text text-anchor="start" x="435.5" y="-293.3" font-family="Times,serif" font-size="14.00"> Negate</text>
<text text-anchor="start" x="435.5" y="-278.3" font-family="Times,serif" font-size="14.00"> types = (integer)</text>
<text text-anchor="start" x="435.5" y="-263.3" font-family="Times,serif" font-size="14.00"> keys = ()</text>
</g>
<!-- node3&#45;&gt;node5 -->
<g id="edge7" class="edge">
<title>node3&#45;&gt;node5</title>
<path fill="none" stroke="black" d="M357.72,-616.85C392.84,-574.41 464.58,-487.69 519.19,-421.69"/>
<polygon fill="black" stroke="black" points="522.09,-423.68 525.76,-413.74 516.69,-419.22 522.09,-423.68"/>
<text text-anchor="start" x="507.5" y="-477.8" font-family="Times,serif" font-size="14.00">%3</text>
</g>
<!-- node4&#45;&gt;node5 -->
<g id="edge4" class="edge">
<title>node4&#45;&gt;node5</title>
<path fill="none" stroke="black" d="M590.5,-549.14C590.5,-509.3 590.5,-463.04 590.5,-423.77"/>
<polygon fill="black" stroke="black" points="594,-423.69 590.5,-413.69 587,-423.69 594,-423.69"/>
<text text-anchor="start" x="590.5" y="-477.8" font-family="Times,serif" font-size="14.00">%4</text>
</g>
<!-- node7 -->
<g id="node8" class="node">
<title>node7</title>
<polygon fill="none" stroke="black" points="205.5,-105.5 205.5,-203.5 415.5,-203.5 415.5,-105.5 205.5,-105.5"/>
<text text-anchor="start" x="213.5" y="-188.3" font-family="Times,serif" font-size="14.00">Union %5 %6</text>
<text text-anchor="start" x="213.5" y="-173.3" font-family="Times,serif" font-size="14.00"> types = (integer)</text>
<text text-anchor="start" x="213.5" y="-158.3" font-family="Times,serif" font-size="14.00"> keys = ()</text>
<text text-anchor="start" x="213.5" y="-143.3" font-family="Times,serif" font-size="14.00"> Map null</text>
<text text-anchor="start" x="213.5" y="-128.3" font-family="Times,serif" font-size="14.00"> types = (integer, integer?)</text>
<text text-anchor="start" x="213.5" y="-113.3" font-family="Times,serif" font-size="14.00"> keys = ()</text>
</g>
<!-- node5&#45;&gt;node7 -->
<g id="edge5" class="edge">
<title>node5&#45;&gt;node7</title>
<path fill="none" stroke="black" d="M467.69,-255.43C443.06,-239.77 417.72,-223.66 394.76,-209.07"/>
<polygon fill="black" stroke="black" points="396.4,-205.96 386.09,-203.55 392.65,-211.87 396.4,-205.96"/>
<text text-anchor="start" x="433.5" y="-225.8" font-family="Times,serif" font-size="14.00">%5</text>
</g>
<!-- node6 -->
<g id="node7" class="node">
<title>node6</title>
<polygon fill="none" stroke="black" points="206,-285.5 206,-383.5 409,-383.5 409,-285.5 206,-285.5"/>
<text text-anchor="start" x="214" y="-368.3" font-family="Times,serif" font-size="14.00">Get qgm.public.r (u42)</text>
<text text-anchor="start" x="214" y="-353.3" font-family="Times,serif" font-size="14.00"> types = (integer, integer)</text>
<text text-anchor="start" x="214" y="-338.3" font-family="Times,serif" font-size="14.00"> keys = ()</text>
<text text-anchor="start" x="214" y="-323.3" font-family="Times,serif" font-size="14.00"> Project (#0)</text>
<text text-anchor="start" x="214" y="-308.3" font-family="Times,serif" font-size="14.00"> types = (integer)</text>
<text text-anchor="start" x="214" y="-293.3" font-family="Times,serif" font-size="14.00"> keys = ()</text>
</g>
<!-- node6&#45;&gt;node7 -->
<g id="edge3" class="edge">
<title>node6&#45;&gt;node7</title>
<path fill="none" stroke="black" d="M308.31,-285.33C308.68,-263.27 309.13,-236.93 309.52,-213.76"/>
<polygon fill="black" stroke="black" points="313.02,-213.77 309.69,-203.71 306.02,-213.65 313.02,-213.77"/>
<text text-anchor="start" x="308.5" y="-225.8" font-family="Times,serif" font-size="14.00">%6</text>
</g>
<!-- node9 -->
<g id="node10" class="node">
<title>node9</title>
<polygon fill="none" stroke="black" points="88.5,-0.5 88.5,-53.5 298.5,-53.5 298.5,-0.5 88.5,-0.5"/>
<text text-anchor="start" x="96.5" y="-38.3" font-family="Times,serif" font-size="14.00">Union %7 %8</text>
<text text-anchor="start" x="96.5" y="-23.3" font-family="Times,serif" font-size="14.00"> types = (integer, integer?)</text>
<text text-anchor="start" x="96.5" y="-8.3" font-family="Times,serif" font-size="14.00"> keys = ()</text>
</g>
<!-- node7&#45;&gt;node9 -->
<g id="edge1" class="edge">
<title>node7&#45;&gt;node9</title>
<path fill="none" stroke="black" d="M265.6,-105.34C251.92,-90.66 237.18,-74.86 224.62,-61.38"/>
<polygon fill="black" stroke="black" points="226.88,-58.67 217.5,-53.75 221.76,-63.45 226.88,-58.67"/>
<text text-anchor="start" x="248.5" y="-75.8" font-family="Times,serif" font-size="14.00">%7</text>
</g>
<!-- node8&#45;&gt;node9 -->
<g id="edge10" class="edge">
<title>node8&#45;&gt;node9</title>
<path fill="none" stroke="black" d="M180.11,-432.07C183.14,-340.65 189.64,-144.57 192.31,-63.85"/>
<polygon fill="black" stroke="black" points="195.81,-63.81 192.65,-53.7 188.82,-63.58 195.81,-63.81"/>
<text text-anchor="start" x="187.5" y="-225.8" font-family="Times,serif" font-size="14.00">%8</text>
</g>
</g>
</svg>
