<?xml version="1.0" encoding="UTF-8" standalone="no"?>
<!DOCTYPE svg PUBLIC "-//W3C//DTD SVG 1.1//EN"
 "http://www.w3.org/Graphics/SVG/1.1/DTD/svg11.dtd">
<!-- Generated by graphviz version 2.43.0 (0)
 -->
<!-- Title: G Pages: 1 -->
<svg width="587pt" height="1157pt"
 viewBox="0.00 0.00 586.50 1157.00" xmlns="http://www.w3.org/2000/svg" xmlns:xlink="http://www.w3.org/1999/xlink">
<g id="graph0" class="graph" transform="scale(1 1) rotate(0) translate(4 1153)">
<title>G</title>
<polygon fill="white" stroke="transparent" points="-4,4 -4,-1153 582.5,-1153 582.5,4 -4,4"/>
<!-- node0 -->
<g id="node1" class="node">
<title>node0</title>
<polygon fill="none" stroke="black" points="223,-1080.5 223,-1148.5 324,-1148.5 324,-1080.5 223,-1080.5"/>
<text text-anchor="start" x="231" y="-1133.3" font-family="Times,serif" font-size="14.00">Let l0 =</text>
<text text-anchor="start" x="231" y="-1118.3" font-family="Times,serif" font-size="14.00"> Constant ()</text>
<text text-anchor="start" x="231" y="-1103.3" font-family="Times,serif" font-size="14.00"> types = ()</text>
<text text-anchor="start" x="231" y="-1088.3" font-family="Times,serif" font-size="14.00"> keys = (())</text>
</g>
<!-- node2 -->
<g id="node3" class="node">
<title>node2</title>
<polygon fill="none" stroke="black" points="0,-945.5 0,-1028.5 269,-1028.5 269,-945.5 0,-945.5"/>
<text text-anchor="start" x="8" y="-1013.3" font-family="Times,serif" font-size="14.00">Let l1 =</text>
<text text-anchor="start" x="8" y="-998.3" font-family="Times,serif" font-size="14.00"> Join %0 %1</text>
<text text-anchor="start" x="8" y="-983.3" font-family="Times,serif" font-size="14.00"> implementation = Unimplemented</text>
<text text-anchor="start" x="8" y="-968.3" font-family="Times,serif" font-size="14.00"> types = (integer, integer)</text>
<text text-anchor="start" x="8" y="-953.3" font-family="Times,serif" font-size="14.00"> keys = ()</text>
</g>
<!-- node0&#45;&gt;node2 -->
<g id="edge2" class="edge">
<title>node0&#45;&gt;node2</title>
<path fill="none" stroke="black" d="M236.62,-1080.2C221.41,-1066.47 203.51,-1050.31 186.98,-1035.39"/>
<polygon fill="black" stroke="black" points="189.27,-1032.73 179.5,-1028.63 184.58,-1037.93 189.27,-1032.73"/>
<text text-anchor="start" x="216.5" y="-1050.8" font-family="Times,serif" font-size="14.00">%0</text>
</g>
<!-- node4 -->
<g id="node5" class="node">
<title>node4</title>
<polygon fill="none" stroke="black" points="287,-945.5 287,-1028.5 556,-1028.5 556,-945.5 287,-945.5"/>
<text text-anchor="start" x="295" y="-1013.3" font-family="Times,serif" font-size="14.00">Let l2 =</text>
<text text-anchor="start" x="295" y="-998.3" font-family="Times,serif" font-size="14.00"> Join %0 %3</text>
<text text-anchor="start" x="295" y="-983.3" font-family="Times,serif" font-size="14.00"> implementation = Unimplemented</text>
<text text-anchor="start" x="295" y="-968.3" font-family="Times,serif" font-size="14.00"> types = (integer?, integer?)</text>
<text text-anchor="start" x="295" y="-953.3" font-family="Times,serif" font-size="14.00"> keys = ()</text>
</g>
<!-- node0&#45;&gt;node4 -->
<g id="edge12" class="edge">
<title>node0&#45;&gt;node4</title>
<path fill="none" stroke="black" d="M312.77,-1080.2C328.96,-1066.47 348.02,-1050.31 365.62,-1035.39"/>
<polygon fill="black" stroke="black" points="368.22,-1037.77 373.59,-1028.63 363.7,-1032.43 368.22,-1037.77"/>
<text text-anchor="start" x="347.5" y="-1050.8" font-family="Times,serif" font-size="14.00">%0</text>
</g>
<!-- node1 -->
<g id="node2" class="node">
<title>node1</title>
<polygon fill="none" stroke="black" points="2,-1088 2,-1141 205,-1141 205,-1088 2,-1088"/>
<text text-anchor="start" x="10" y="-1125.8" font-family="Times,serif" font-size="14.00">Get qgm.public.r (u42)</text>
<text text-anchor="start" x="10" y="-1110.8" font-family="Times,serif" font-size="14.00"> types = (integer, integer)</text>
<text text-anchor="start" x="10" y="-1095.8" font-family="Times,serif" font-size="14.00"> keys = ()</text>
</g>
<!-- node1&#45;&gt;node2 -->
<g id="edge11" class="edge">
<title>node1&#45;&gt;node2</title>
<path fill="none" stroke="black" d="M109.85,-1087.8C113.34,-1073.65 117.8,-1055.59 121.97,-1038.73"/>
<polygon fill="black" stroke="black" points="125.38,-1039.53 124.38,-1028.98 118.58,-1037.85 125.38,-1039.53"/>
<text text-anchor="start" x="119.5" y="-1050.8" font-family="Times,serif" font-size="14.00">%1</text>
</g>
<!-- node5 -->
<g id="node6" class="node">
<title>node5</title>
<polygon fill="none" stroke="black" points="220.5,-720.5 220.5,-893.5 558.5,-893.5 558.5,-720.5 220.5,-720.5"/>
<text text-anchor="start" x="228.5" y="-878.3" font-family="Times,serif" font-size="14.00">Let l3 =</text>
<text text-anchor="start" x="228.5" y="-863.3" font-family="Times,serif" font-size="14.00"> Join %2 %4</text>
<text text-anchor="start" x="228.5" y="-848.3" font-family="Times,serif" font-size="14.00"> implementation = Unimplemented</text>
<text text-anchor="start" x="228.5" y="-833.3" font-family="Times,serif" font-size="14.00"> types = (integer, integer, integer?, integer?)</text>
<text text-anchor="start" x="228.5" y="-818.3" font-family="Times,serif" font-size="14.00"> keys = ()</text>
<text text-anchor="start" x="228.5" y="-803.3" font-family="Times,serif" font-size="14.00"> Project (#0..#3)</text>
<text text-anchor="start" x="228.5" y="-788.3" font-family="Times,serif" font-size="14.00"> types = (integer, integer, integer?, integer?)</text>
<text text-anchor="start" x="228.5" y="-773.3" font-family="Times,serif" font-size="14.00"> keys = ()</text>
<text text-anchor="start" x="228.5" y="-758.3" font-family="Times,serif" font-size="14.00"> Filter (#1 = #3)</text>
<text text-anchor="start" x="228.5" y="-743.3" font-family="Times,serif" font-size="14.00"> types = (integer, integer, integer?, integer)</text>
<text text-anchor="start" x="228.5" y="-728.3" font-family="Times,serif" font-size="14.00"> keys = ()</text>
</g>
<!-- node2&#45;&gt;node5 -->
<g id="edge3" class="edge">
<title>node2&#45;&gt;node5</title>
<path fill="none" stroke="black" d="M192.68,-945.39C212.39,-931.63 235.26,-915.66 258.3,-899.58"/>
<polygon fill="black" stroke="black" points="260.59,-902.25 266.79,-893.66 256.58,-896.51 260.59,-902.25"/>
<text text-anchor="start" x="239.5" y="-915.8" font-family="Times,serif" font-size="14.00">%2</text>
</g>
<!-- node7 -->
<g id="node8" class="node">
<title>node7</title>
<polygon fill="none" stroke="black" points="176,-300.5 176,-458.5 445,-458.5 445,-300.5 176,-300.5"/>
<text text-anchor="start" x="184" y="-443.3" font-family="Times,serif" font-size="14.00">Join %2 %6 (= #1 #2)</text>
<text text-anchor="start" x="184" y="-428.3" font-family="Times,serif" font-size="14.00"> implementation = Unimplemented</text>
<text text-anchor="start" x="184" y="-413.3" font-family="Times,serif" font-size="14.00"> types = (integer, integer, integer)</text>
<text text-anchor="start" x="184" y="-398.3" font-family="Times,serif" font-size="14.00"> keys = ()</text>
<text text-anchor="start" x="184" y="-383.3" font-family="Times,serif" font-size="14.00"> Project (#0, #1)</text>
<text text-anchor="start" x="184" y="-368.3" font-family="Times,serif" font-size="14.00"> types = (integer, integer)</text>
<text text-anchor="start" x="184" y="-353.3" font-family="Times,serif" font-size="14.00"> keys = ()</text>
<text text-anchor="start" x="184" y="-338.3" font-family="Times,serif" font-size="14.00"> Negate</text>
<text text-anchor="start" x="184" y="-323.3" font-family="Times,serif" font-size="14.00"> types = (integer, integer)</text>
<text text-anchor="start" x="184" y="-308.3" font-family="Times,serif" font-size="14.00"> keys = ()</text>
</g>
<!-- node2&#45;&gt;node7 -->
<g id="edge13" class="edge">
<title>node2&#45;&gt;node7</title>
<path fill="none" stroke="black" d="M134.82,-945.27C136.16,-844.6 143.14,-586.69 179.5,-510 186.83,-494.54 196.82,-479.89 208.03,-466.38"/>
<polygon fill="black" stroke="black" points="210.89,-468.42 214.76,-458.56 205.59,-463.85 210.89,-468.42"/>
<text text-anchor="start" x="146.5" y="-690.8" font-family="Times,serif" font-size="14.00">%2</text>
</g>
<!-- node8 -->
<g id="node9" class="node">
<title>node8</title>
<polygon fill="none" stroke="black" points="141.5,-150.5 141.5,-248.5 479.5,-248.5 479.5,-150.5 141.5,-150.5"/>
<text text-anchor="start" x="149.5" y="-233.3" font-family="Times,serif" font-size="14.00">Union %7 %2</text>
<text text-anchor="start" x="149.5" y="-218.3" font-family="Times,serif" font-size="14.00"> types = (integer, integer)</text>
<text text-anchor="start" x="149.5" y="-203.3" font-family="Times,serif" font-size="14.00"> keys = ()</text>
<text text-anchor="start" x="149.5" y="-188.3" font-family="Times,serif" font-size="14.00"> Map null, null</text>
<text text-anchor="start" x="149.5" y="-173.3" font-family="Times,serif" font-size="14.00"> types = (integer, integer, integer?, integer?)</text>
<text text-anchor="start" x="149.5" y="-158.3" font-family="Times,serif" font-size="14.00"> keys = ()</text>
</g>
<!-- node2&#45;&gt;node8 -->
<g id="edge9" class="edge">
<title>node2&#45;&gt;node8</title>
<path fill="none" stroke="black" d="M125.47,-945.22C118.31,-909.29 109.5,-855.43 109.5,-808 109.5,-808 109.5,-808 109.5,-378.5 109.5,-324.86 150.12,-283.47 194.84,-254.16"/>
<polygon fill="black" stroke="black" points="196.96,-256.96 203.53,-248.65 193.21,-251.05 196.96,-256.96"/>
<text text-anchor="start" x="109.5" y="-585.8" font-family="Times,serif" font-size="14.00">%2</text>
</g>
<!-- node3 -->
<g id="node4" class="node">
<title>node3</title>
<polygon fill="none" stroke="black" points="342,-1088 342,-1141 561,-1141 561,-1088 342,-1088"/>
<text text-anchor="start" x="350" y="-1125.8" font-family="Times,serif" font-size="14.00">Get qgm.public.t (u56)</text>
<text text-anchor="start" x="350" y="-1110.8" font-family="Times,serif" font-size="14.00"> types = (integer?, integer?)</text>
<text text-anchor="start" x="350" y="-1095.8" font-family="Times,serif" font-size="14.00"> keys = ()</text>
</g>
<!-- node3&#45;&gt;node4 -->
<g id="edge1" class="edge">
<title>node3&#45;&gt;node4</title>
<path fill="none" stroke="black" d="M445.36,-1087.8C441.97,-1073.65 437.66,-1055.59 433.63,-1038.73"/>
<polygon fill="black" stroke="black" points="437.03,-1037.89 431.3,-1028.98 430.22,-1039.52 437.03,-1037.89"/>
<text text-anchor="start" x="438.5" y="-1050.8" font-family="Times,serif" font-size="14.00">%3</text>
</g>
<!-- node4&#45;&gt;node5 -->
<g id="edge7" class="edge">
<title>node4&#45;&gt;node5</title>
<path fill="none" stroke="black" d="M414.16,-945.16C411.91,-932.65 409.33,-918.33 406.72,-903.76"/>
<polygon fill="black" stroke="black" points="410.11,-902.88 404.9,-893.65 403.22,-904.12 410.11,-902.88"/>
<text text-anchor="start" x="409.5" y="-915.8" font-family="Times,serif" font-size="14.00">%4</text>
</g>
<!-- node6 -->
<g id="node7" class="node">
<title>node6</title>
<polygon fill="none" stroke="black" points="188.5,-510.5 188.5,-668.5 518.5,-668.5 518.5,-510.5 188.5,-510.5"/>
<text text-anchor="start" x="196.5" y="-653.3" font-family="Times,serif" font-size="14.00">Let l4 =</text>
<text text-anchor="start" x="196.5" y="-638.3" font-family="Times,serif" font-size="14.00"> Get %5 (l3)</text>
<text text-anchor="start" x="196.5" y="-623.3" font-family="Times,serif" font-size="14.00"> types = (integer, integer, integer?, integer)</text>
<text text-anchor="start" x="196.5" y="-608.3" font-family="Times,serif" font-size="14.00"> keys = ()</text>
<text text-anchor="start" x="196.5" y="-593.3" font-family="Times,serif" font-size="14.00"> Project (#1)</text>
<text text-anchor="start" x="196.5" y="-578.3" font-family="Times,serif" font-size="14.00"> types = (integer)</text>
<text text-anchor="start" x="196.5" y="-563.3" font-family="Times,serif" font-size="14.00"> keys = ()</text>
<text text-anchor="start" x="196.5" y="-548.3" font-family="Times,serif" font-size="14.00"> Distinct group=(#0)</text>
<text text-anchor="start" x="196.5" y="-533.3" font-family="Times,serif" font-size="14.00"> types = (integer)</text>
<text text-anchor="start" x="196.5" y="-518.3" font-family="Times,serif" font-size="14.00"> keys = ((#0))</text>
</g>
<!-- node5&#45;&gt;node6 -->
<g id="edge4" class="edge">
<title>node5&#45;&gt;node6</title>
<path fill="none" stroke="black" d="M375.17,-720.21C372.88,-706.51 370.51,-692.32 368.21,-678.58"/>
<polygon fill="black" stroke="black" points="371.66,-677.95 366.56,-668.66 364.75,-679.1 371.66,-677.95"/>
<text text-anchor="start" x="371.5" y="-690.8" font-family="Times,serif" font-size="14.00">%5</text>
</g>
<!-- node9 -->
<g id="node10" class="node">
<title>node9</title>
<polygon fill="none" stroke="black" points="240.5,-0.5 240.5,-98.5 578.5,-98.5 578.5,-0.5 240.5,-0.5"/>
<text text-anchor="start" x="248.5" y="-83.3" font-family="Times,serif" font-size="14.00">Union %8 %5</text>
<text text-anchor="start" x="248.5" y="-68.3" font-family="Times,serif" font-size="14.00"> types = (integer, integer, integer?, integer?)</text>
<text text-anchor="start" x="248.5" y="-53.3" font-family="Times,serif" font-size="14.00"> keys = ()</text>
<text text-anchor="start" x="248.5" y="-38.3" font-family="Times,serif" font-size="14.00"> Project (#0, #2)</text>
<text text-anchor="start" x="248.5" y="-23.3" font-family="Times,serif" font-size="14.00"> types = (integer, integer?)</text>
<text text-anchor="start" x="248.5" y="-8.3" font-family="Times,serif" font-size="14.00"> keys = ()</text>
</g>
<!-- node5&#45;&gt;node9 -->
<g id="edge8" class="edge">
<title>node5&#45;&gt;node9</title>
<path fill="none" stroke="black" d="M489.78,-720.24C504.04,-704.39 517.31,-687.09 527.5,-669 545.13,-637.73 546.5,-626.4 546.5,-590.5 546.5,-590.5 546.5,-590.5 546.5,-198.5 546.5,-161.54 523.2,-129.89 495.82,-105.46"/>
<polygon fill="black" stroke="black" points="497.87,-102.61 488,-98.76 493.32,-107.93 497.87,-102.61"/>
<text text-anchor="start" x="546.5" y="-375.8" font-family="Times,serif" font-size="14.00">%5</text>
</g>
<!-- node6&#45;&gt;node7 -->
<g id="edge5" class="edge">
<title>node6&#45;&gt;node7</title>
<path fill="none" stroke="black" d="M337.37,-510.46C334.55,-496.82 331.6,-482.55 328.73,-468.66"/>
<polygon fill="black" stroke="black" points="332.1,-467.72 326.65,-458.63 325.25,-469.14 332.1,-467.72"/>
<text text-anchor="start" x="332.5" y="-480.8" font-family="Times,serif" font-size="14.00">%6</text>
</g>
<!-- node7&#45;&gt;node8 -->
<g id="edge10" class="edge">
<title>node7&#45;&gt;node8</title>
<path fill="none" stroke="black" d="M310.5,-300.43C310.5,-286.5 310.5,-272.2 310.5,-258.94"/>
<polygon fill="black" stroke="black" points="314,-258.55 310.5,-248.55 307,-258.55 314,-258.55"/>
<text text-anchor="start" x="310.5" y="-270.8" font-family="Times,serif" font-size="14.00">%7</text>
</g>
<!-- node8&#45;&gt;node9 -->
<g id="edge6" class="edge">
<title>node8&#45;&gt;node9</title>
<path fill="none" stroke="black" d="M342.64,-150.45C351.94,-136.55 362.17,-121.25 371.78,-106.89"/>
<polygon fill="black" stroke="black" points="374.7,-108.82 377.35,-98.56 368.88,-104.93 374.7,-108.82"/>
<text text-anchor="start" x="362.5" y="-120.8" font-family="Times,serif" font-size="14.00">%8</text>
</g>
</g>
</svg>
