<?xml version="1.0" encoding="UTF-8" standalone="no"?>
<!DOCTYPE svg PUBLIC "-//W3C//DTD SVG 1.1//EN"
 "http://www.w3.org/Graphics/SVG/1.1/DTD/svg11.dtd">
<!-- Generated by graphviz version 2.43.0 (0)
 -->
<!-- Title: G Pages: 1 -->
<svg width="1147pt" height="1365pt"
 viewBox="0.00 0.00 1146.50 1365.00" xmlns="http://www.w3.org/2000/svg" xmlns:xlink="http://www.w3.org/1999/xlink">
<g id="graph0" class="graph" transform="scale(1 1) rotate(0) translate(4 1361)">
<title>G</title>
<polygon fill="white" stroke="transparent" points="-4,4 -4,-1361 1142.5,-1361 1142.5,4 -4,4"/>
<!-- node0 -->
<g id="node1" class="node">
<title>node0</title>
<polygon fill="none" stroke="black" points="308.5,-1318.5 308.5,-1356.5 409.5,-1356.5 409.5,-1318.5 308.5,-1318.5"/>
<text text-anchor="start" x="316.5" y="-1341.3" font-family="Times,serif" font-size="14.00">Let l0 =</text>
<text text-anchor="start" x="316.5" y="-1326.3" font-family="Times,serif" font-size="14.00"> Constant ()</text>
</g>
<!-- node2 -->
<g id="node3" class="node">
<title>node2</title>
<polygon fill="none" stroke="black" points="346.5,-1213.5 346.5,-1266.5 615.5,-1266.5 615.5,-1213.5 346.5,-1213.5"/>
<text text-anchor="start" x="354.5" y="-1251.3" font-family="Times,serif" font-size="14.00">Let l1 =</text>
<text text-anchor="start" x="354.5" y="-1236.3" font-family="Times,serif" font-size="14.00"> Join %0 %1</text>
<text text-anchor="start" x="354.5" y="-1221.3" font-family="Times,serif" font-size="14.00"> implementation = Unimplemented</text>
</g>
<!-- node0&#45;&gt;node2 -->
<g id="edge23" class="edge">
<title>node0&#45;&gt;node2</title>
<path fill="none" stroke="black" d="M380.26,-1318.3C392.11,-1308.3 407.21,-1295.76 421,-1285 426.08,-1281.03 431.45,-1276.94 436.82,-1272.93"/>
<polygon fill="black" stroke="black" points="439.26,-1275.48 445.2,-1266.71 435.09,-1269.86 439.26,-1275.48"/>
<text text-anchor="start" x="421" y="-1288.8" font-family="Times,serif" font-size="14.00">%0</text>
</g>
<!-- node4 -->
<g id="node5" class="node">
<title>node4</title>
<polygon fill="none" stroke="black" points="706.5,-1213.5 706.5,-1266.5 975.5,-1266.5 975.5,-1213.5 706.5,-1213.5"/>
<text text-anchor="start" x="714.5" y="-1251.3" font-family="Times,serif" font-size="14.00">Let l2 =</text>
<text text-anchor="start" x="714.5" y="-1236.3" font-family="Times,serif" font-size="14.00"> Join %0 %3</text>
<text text-anchor="start" x="714.5" y="-1221.3" font-family="Times,serif" font-size="14.00"> implementation = Unimplemented</text>
</g>
<!-- node0&#45;&gt;node4 -->
<g id="edge3" class="edge">
<title>node0&#45;&gt;node4</title>
<path fill="none" stroke="black" d="M399.88,-1318.41C426.94,-1307.15 463.49,-1293.28 497,-1285 507.11,-1282.5 606.71,-1269.86 696.15,-1258.76"/>
<polygon fill="black" stroke="black" points="696.67,-1262.23 706.16,-1257.52 695.81,-1255.28 696.67,-1262.23"/>
<text text-anchor="start" x="497" y="-1288.8" font-family="Times,serif" font-size="14.00">%0</text>
</g>
<!-- node14 -->
<g id="node15" class="node">
<title>node14</title>
<polygon fill="none" stroke="black" points="59.5,-1213.5 59.5,-1266.5 328.5,-1266.5 328.5,-1213.5 59.5,-1213.5"/>
<text text-anchor="start" x="67.5" y="-1251.3" font-family="Times,serif" font-size="14.00">Let l6 =</text>
<text text-anchor="start" x="67.5" y="-1236.3" font-family="Times,serif" font-size="14.00"> Join %0 %13</text>
<text text-anchor="start" x="67.5" y="-1221.3" font-family="Times,serif" font-size="14.00"> implementation = Unimplemented</text>
</g>
<!-- node0&#45;&gt;node14 -->
<g id="edge20" class="edge">
<title>node0&#45;&gt;node14</title>
<path fill="none" stroke="black" d="M327.58,-1318.31C304.81,-1305.14 273.49,-1287.01 246.9,-1271.62"/>
<polygon fill="black" stroke="black" points="248.49,-1268.49 238.08,-1266.51 244.98,-1274.55 248.49,-1268.49"/>
<text text-anchor="start" x="292" y="-1288.8" font-family="Times,serif" font-size="14.00">%0</text>
</g>
<!-- node1 -->
<g id="node2" class="node">
<title>node1</title>
<polygon fill="none" stroke="black" points="428,-1319.5 428,-1355.5 716,-1355.5 716,-1319.5 428,-1319.5"/>
<text text-anchor="start" x="436" y="-1333.8" font-family="Times,serif" font-size="14.00">Get simplify_outer_joins.public.l (u95)</text>
</g>
<!-- node1&#45;&gt;node2 -->
<g id="edge19" class="edge">
<title>node1&#45;&gt;node2</title>
<path fill="none" stroke="black" d="M555.73,-1319.43C543.69,-1306.79 526.92,-1289.19 512.32,-1273.86"/>
<polygon fill="black" stroke="black" points="514.78,-1271.38 505.35,-1266.55 509.72,-1276.21 514.78,-1271.38"/>
<text text-anchor="start" x="535" y="-1288.8" font-family="Times,serif" font-size="14.00">%1</text>
</g>
<!-- node5 -->
<g id="node6" class="node">
<title>node5</title>
<polygon fill="none" stroke="black" points="510.5,-1078.5 510.5,-1161.5 779.5,-1161.5 779.5,-1078.5 510.5,-1078.5"/>
<text text-anchor="start" x="518.5" y="-1146.3" font-family="Times,serif" font-size="14.00">Let l3 =</text>
<text text-anchor="start" x="518.5" y="-1131.3" font-family="Times,serif" font-size="14.00"> Join %2 %4</text>
<text text-anchor="start" x="518.5" y="-1116.3" font-family="Times,serif" font-size="14.00"> implementation = Unimplemented</text>
<text text-anchor="start" x="518.5" y="-1101.3" font-family="Times,serif" font-size="14.00"> Project (#0..=#3)</text>
<text text-anchor="start" x="518.5" y="-1086.3" font-family="Times,serif" font-size="14.00"> Filter (#1 = #2)</text>
</g>
<!-- node2&#45;&gt;node5 -->
<g id="edge12" class="edge">
<title>node2&#45;&gt;node5</title>
<path fill="none" stroke="black" d="M516.59,-1213.4C535.21,-1199.99 558.61,-1183.16 580.31,-1167.55"/>
<polygon fill="black" stroke="black" points="582.45,-1170.31 588.53,-1161.63 578.37,-1164.63 582.45,-1170.31"/>
<text text-anchor="start" x="563" y="-1183.8" font-family="Times,serif" font-size="14.00">%2</text>
</g>
<!-- node9 -->
<g id="node10" class="node">
<title>node9</title>
<polygon fill="none" stroke="black" points="305.5,-838.5 305.5,-906.5 574.5,-906.5 574.5,-838.5 305.5,-838.5"/>
<text text-anchor="start" x="313.5" y="-891.3" font-family="Times,serif" font-size="14.00">Join %2 %6 (= #1 #2)</text>
<text text-anchor="start" x="313.5" y="-876.3" font-family="Times,serif" font-size="14.00"> implementation = Unimplemented</text>
<text text-anchor="start" x="313.5" y="-861.3" font-family="Times,serif" font-size="14.00"> Project (#0, #1)</text>
<text text-anchor="start" x="313.5" y="-846.3" font-family="Times,serif" font-size="14.00"> Negate</text>
</g>
<!-- node2&#45;&gt;node9 -->
<g id="edge5" class="edge">
<title>node2&#45;&gt;node9</title>
<path fill="none" stroke="black" d="M478.12,-1213.3C471.18,-1151.45 453.49,-993.79 444.87,-916.94"/>
<polygon fill="black" stroke="black" points="448.31,-916.19 443.72,-906.65 441.35,-916.97 448.31,-916.19"/>
<text text-anchor="start" x="461" y="-1048.8" font-family="Times,serif" font-size="14.00">%2</text>
</g>
<!-- node10 -->
<g id="node11" class="node">
<title>node10</title>
<polygon fill="none" stroke="black" points="380,-741 380,-779 500,-779 500,-741 380,-741"/>
<text text-anchor="start" x="388" y="-763.8" font-family="Times,serif" font-size="14.00">Union %9 %2</text>
<text text-anchor="start" x="388" y="-748.8" font-family="Times,serif" font-size="14.00"> Map null, null</text>
</g>
<!-- node2&#45;&gt;node10 -->
<g id="edge18" class="edge">
<title>node2&#45;&gt;node10</title>
<path fill="none" stroke="black" d="M362.33,-1213.41C317.45,-1196.14 277,-1167.64 277,-1121 277,-1121 277,-1121 277,-871.5 277,-823.56 325.9,-794.99 370.13,-778.95"/>
<polygon fill="black" stroke="black" points="371.46,-782.19 379.77,-775.62 369.17,-775.57 371.46,-782.19"/>
<text text-anchor="start" x="277" y="-988.8" font-family="Times,serif" font-size="14.00">%2</text>
</g>
<!-- node3 -->
<g id="node4" class="node">
<title>node3</title>
<polygon fill="none" stroke="black" points="734,-1319.5 734,-1355.5 1024,-1355.5 1024,-1319.5 734,-1319.5"/>
<text text-anchor="start" x="742" y="-1333.8" font-family="Times,serif" font-size="14.00">Get simplify_outer_joins.public.r (u97)</text>
</g>
<!-- node3&#45;&gt;node4 -->
<g id="edge29" class="edge">
<title>node3&#45;&gt;node4</title>
<path fill="none" stroke="black" d="M872.21,-1319.43C867.41,-1307.37 860.81,-1290.78 854.91,-1275.97"/>
<polygon fill="black" stroke="black" points="858.12,-1274.55 851.17,-1266.55 851.61,-1277.14 858.12,-1274.55"/>
<text text-anchor="start" x="863" y="-1288.8" font-family="Times,serif" font-size="14.00">%3</text>
</g>
<!-- node4&#45;&gt;node5 -->
<g id="edge4" class="edge">
<title>node4&#45;&gt;node5</title>
<path fill="none" stroke="black" d="M798.47,-1213.4C775.91,-1199.82 747.51,-1182.72 721.29,-1166.93"/>
<polygon fill="black" stroke="black" points="722.87,-1163.79 712.49,-1161.63 719.25,-1169.79 722.87,-1163.79"/>
<text text-anchor="start" x="766" y="-1183.8" font-family="Times,serif" font-size="14.00">%4</text>
</g>
<!-- node7 -->
<g id="node8" class="node">
<title>node7</title>
<polygon fill="none" stroke="black" points="869.5,-838.5 869.5,-906.5 1138.5,-906.5 1138.5,-838.5 869.5,-838.5"/>
<text text-anchor="start" x="877.5" y="-891.3" font-family="Times,serif" font-size="14.00">Join %4 %6 (= #0 #2)</text>
<text text-anchor="start" x="877.5" y="-876.3" font-family="Times,serif" font-size="14.00"> implementation = Unimplemented</text>
<text text-anchor="start" x="877.5" y="-861.3" font-family="Times,serif" font-size="14.00"> Project (#0, #1)</text>
<text text-anchor="start" x="877.5" y="-846.3" font-family="Times,serif" font-size="14.00"> Negate</text>
</g>
<!-- node4&#45;&gt;node7 -->
<g id="edge24" class="edge">
<title>node4&#45;&gt;node7</title>
<path fill="none" stroke="black" d="M852.46,-1213.3C880.15,-1151.2 950.93,-992.5 985.05,-916"/>
<polygon fill="black" stroke="black" points="988.34,-917.2 989.22,-906.65 981.95,-914.35 988.34,-917.2"/>
<text text-anchor="start" x="926" y="-1048.8" font-family="Times,serif" font-size="14.00">%4</text>
</g>
<!-- node8 -->
<g id="node9" class="node">
<title>node8</title>
<polygon fill="none" stroke="black" points="742,-733.5 742,-786.5 940,-786.5 940,-733.5 742,-733.5"/>
<text text-anchor="start" x="750" y="-771.3" font-family="Times,serif" font-size="14.00">Union %7 %4</text>
<text text-anchor="start" x="750" y="-756.3" font-family="Times,serif" font-size="14.00"> Map null, null</text>
<text text-anchor="start" x="750" y="-741.3" font-family="Times,serif" font-size="14.00"> Project (#2, #3, #0, #1)</text>
</g>
<!-- node4&#45;&gt;node8 -->
<g id="edge9" class="edge">
<title>node4&#45;&gt;node8</title>
<path fill="none" stroke="black" d="M841,-1213.22C841,-1189.31 841,-1152.75 841,-1121 841,-1121 841,-1121 841,-871.5 841,-846.61 841,-818.56 841,-796.95"/>
<polygon fill="black" stroke="black" points="844.5,-796.9 841,-786.9 837.5,-796.9 844.5,-796.9"/>
<text text-anchor="start" x="841" y="-988.8" font-family="Times,serif" font-size="14.00">%4</text>
</g>
<!-- node6 -->
<g id="node7" class="node">
<title>node6</title>
<polygon fill="none" stroke="black" points="638.5,-958.5 638.5,-1026.5 805.5,-1026.5 805.5,-958.5 638.5,-958.5"/>
<text text-anchor="start" x="646.5" y="-1011.3" font-family="Times,serif" font-size="14.00">Let l4 =</text>
<text text-anchor="start" x="646.5" y="-996.3" font-family="Times,serif" font-size="14.00"> Get %5 (l3)</text>
<text text-anchor="start" x="646.5" y="-981.3" font-family="Times,serif" font-size="14.00"> Project (#1)</text>
<text text-anchor="start" x="646.5" y="-966.3" font-family="Times,serif" font-size="14.00"> Distinct group=(#0)</text>
</g>
<!-- node5&#45;&gt;node6 -->
<g id="edge2" class="edge">
<title>node5&#45;&gt;node6</title>
<path fill="none" stroke="black" d="M670,-1078.25C678.43,-1064.52 687.85,-1049.17 696.33,-1035.34"/>
<polygon fill="black" stroke="black" points="699.5,-1036.87 701.74,-1026.51 693.53,-1033.21 699.5,-1036.87"/>
<text text-anchor="start" x="690" y="-1048.8" font-family="Times,serif" font-size="14.00">%5</text>
</g>
<!-- node11 -->
<g id="node12" class="node">
<title>node11</title>
<polygon fill="none" stroke="black" points="495,-645.5 495,-681.5 617,-681.5 617,-645.5 495,-645.5"/>
<text text-anchor="start" x="503" y="-659.8" font-family="Times,serif" font-size="14.00">Union %10 %5</text>
</g>
<!-- node5&#45;&gt;node11 -->
<g id="edge6" class="edge">
<title>node5&#45;&gt;node11</title>
<path fill="none" stroke="black" d="M628.2,-1078.49C619.63,-1054.26 611,-1022.62 611,-993.5 611,-993.5 611,-993.5 611,-759 611,-732.66 594.84,-707.11 580.04,-689.24"/>
<polygon fill="black" stroke="black" points="582.6,-686.84 573.4,-681.59 577.32,-691.43 582.6,-686.84"/>
<text text-anchor="start" x="611" y="-868.8" font-family="Times,serif" font-size="14.00">%5</text>
</g>
<!-- node6&#45;&gt;node7 -->
<g id="edge27" class="edge">
<title>node6&#45;&gt;node7</title>
<path fill="none" stroke="black" d="M800.93,-958.47C836.53,-943.58 878.72,-925.92 915.4,-910.57"/>
<polygon fill="black" stroke="black" points="917.22,-913.61 925.09,-906.52 914.52,-907.15 917.22,-913.61"/>
<text text-anchor="start" x="879" y="-928.8" font-family="Times,serif" font-size="14.00">%6</text>
</g>
<!-- node6&#45;&gt;node9 -->
<g id="edge8" class="edge">
<title>node6&#45;&gt;node9</title>
<path fill="none" stroke="black" d="M643.07,-958.47C607.47,-943.58 565.28,-925.92 528.6,-910.57"/>
<polygon fill="black" stroke="black" points="529.48,-907.15 518.91,-906.52 526.78,-913.61 529.48,-907.15"/>
<text text-anchor="start" x="597" y="-928.8" font-family="Times,serif" font-size="14.00">%6</text>
</g>
<!-- node7&#45;&gt;node8 -->
<g id="edge22" class="edge">
<title>node7&#45;&gt;node8</title>
<path fill="none" stroke="black" d="M955.09,-838.35C933.58,-823.76 908.44,-806.72 887.25,-792.35"/>
<polygon fill="black" stroke="black" points="888.97,-789.29 878.73,-786.58 885.04,-795.09 888.97,-789.29"/>
<text text-anchor="start" x="927" y="-808.8" font-family="Times,serif" font-size="14.00">%7</text>
</g>
<!-- node12 -->
<g id="node13" class="node">
<title>node12</title>
<polygon fill="none" stroke="black" points="492.5,-555.5 492.5,-593.5 619.5,-593.5 619.5,-555.5 492.5,-555.5"/>
<text text-anchor="start" x="500.5" y="-578.3" font-family="Times,serif" font-size="14.00">Let l5 =</text>
<text text-anchor="start" x="500.5" y="-563.3" font-family="Times,serif" font-size="14.00"> Union %8 %11</text>
</g>
<!-- node8&#45;&gt;node12 -->
<g id="edge7" class="edge">
<title>node8&#45;&gt;node12</title>
<path fill="none" stroke="black" d="M801.37,-733.49C746.03,-697.85 646.35,-633.67 592.65,-599.1"/>
<polygon fill="black" stroke="black" points="594.43,-596.08 584.12,-593.61 590.64,-601.96 594.43,-596.08"/>
<text text-anchor="start" x="717" y="-659.8" font-family="Times,serif" font-size="14.00">%8</text>
</g>
<!-- node9&#45;&gt;node10 -->
<g id="edge25" class="edge">
<title>node9&#45;&gt;node10</title>
<path fill="none" stroke="black" d="M440,-838.35C440,-822.69 440,-804.21 440,-789.23"/>
<polygon fill="black" stroke="black" points="443.5,-789.04 440,-779.04 436.5,-789.04 443.5,-789.04"/>
<text text-anchor="start" x="440" y="-808.8" font-family="Times,serif" font-size="14.00">%9</text>
</g>
<!-- node10&#45;&gt;node11 -->
<g id="edge11" class="edge">
<title>node10&#45;&gt;node11</title>
<path fill="none" stroke="black" d="M462.37,-740.78C480.77,-725.79 506.98,-704.43 526.99,-688.13"/>
<polygon fill="black" stroke="black" points="529.33,-690.74 534.88,-681.71 524.91,-685.31 529.33,-690.74"/>
<text text-anchor="start" x="512" y="-703.8" font-family="Times,serif" font-size="14.00">%10</text>
</g>
<!-- node11&#45;&gt;node12 -->
<g id="edge10" class="edge">
<title>node11&#45;&gt;node12</title>
<path fill="none" stroke="black" d="M556,-645.31C556,-633.51 556,-617.57 556,-603.9"/>
<polygon fill="black" stroke="black" points="559.5,-603.55 556,-593.55 552.5,-603.55 559.5,-603.55"/>
<text text-anchor="start" x="556" y="-615.8" font-family="Times,serif" font-size="14.00">%11</text>
</g>
<!-- node15 -->
<g id="node16" class="node">
<title>node15</title>
<polygon fill="none" stroke="black" points="123.5,-420.5 123.5,-503.5 392.5,-503.5 392.5,-420.5 123.5,-420.5"/>
<text text-anchor="start" x="131.5" y="-488.3" font-family="Times,serif" font-size="14.00">Let l7 =</text>
<text text-anchor="start" x="131.5" y="-473.3" font-family="Times,serif" font-size="14.00"> Join %12 %14</text>
<text text-anchor="start" x="131.5" y="-458.3" font-family="Times,serif" font-size="14.00"> implementation = Unimplemented</text>
<text text-anchor="start" x="131.5" y="-443.3" font-family="Times,serif" font-size="14.00"> Project (#0..=#4)</text>
<text text-anchor="start" x="131.5" y="-428.3" font-family="Times,serif" font-size="14.00"> Filter (#1 = #4)</text>
</g>
<!-- node12&#45;&gt;node15 -->
<g id="edge15" class="edge">
<title>node12&#45;&gt;node15</title>
<path fill="none" stroke="black" d="M507.13,-555.38C471.75,-542.26 422.35,-523.94 376.86,-507.08"/>
<polygon fill="black" stroke="black" points="377.82,-503.7 367.22,-503.5 375.38,-510.26 377.82,-503.7"/>
<text text-anchor="start" x="452" y="-525.8" font-family="Times,serif" font-size="14.00">%12</text>
</g>
<!-- node17 -->
<g id="node18" class="node">
<title>node17</title>
<polygon fill="none" stroke="black" points="297.5,-180.5 297.5,-248.5 566.5,-248.5 566.5,-180.5 297.5,-180.5"/>
<text text-anchor="start" x="305.5" y="-233.3" font-family="Times,serif" font-size="14.00">Join %12 %16 (= #1 #4)</text>
<text text-anchor="start" x="305.5" y="-218.3" font-family="Times,serif" font-size="14.00"> implementation = Unimplemented</text>
<text text-anchor="start" x="305.5" y="-203.3" font-family="Times,serif" font-size="14.00"> Project (#0..=#3)</text>
<text text-anchor="start" x="305.5" y="-188.3" font-family="Times,serif" font-size="14.00"> Negate</text>
</g>
<!-- node12&#45;&gt;node17 -->
<g id="edge28" class="edge">
<title>node12&#45;&gt;node17</title>
<path fill="none" stroke="black" d="M550.94,-555.36C538.47,-511.17 504.67,-394.65 469,-300 463.82,-286.25 457.6,-271.51 451.75,-258.24"/>
<polygon fill="black" stroke="black" points="454.85,-256.59 447.58,-248.88 448.46,-259.44 454.85,-256.59"/>
<text text-anchor="start" x="504" y="-390.8" font-family="Times,serif" font-size="14.00">%12</text>
</g>
<!-- node18 -->
<g id="node19" class="node">
<title>node18</title>
<polygon fill="none" stroke="black" points="366.5,-90.5 366.5,-128.5 497.5,-128.5 497.5,-90.5 366.5,-90.5"/>
<text text-anchor="start" x="374.5" y="-113.3" font-family="Times,serif" font-size="14.00">Union %17 %12</text>
<text text-anchor="start" x="374.5" y="-98.3" font-family="Times,serif" font-size="14.00"> Map null</text>
</g>
<!-- node12&#45;&gt;node18 -->
<g id="edge16" class="edge">
<title>node12&#45;&gt;node18</title>
<path fill="none" stroke="black" d="M566.66,-555.42C578.2,-534.09 595,-497.18 595,-463 595,-463 595,-463 595,-213.5 595,-168.53 550.11,-142.39 507.45,-127.71"/>
<polygon fill="black" stroke="black" points="508.42,-124.34 497.83,-124.57 506.25,-131 508.42,-124.34"/>
<text text-anchor="start" x="595" y="-330.8" font-family="Times,serif" font-size="14.00">%12</text>
</g>
<!-- node13 -->
<g id="node14" class="node">
<title>node13</title>
<polygon fill="none" stroke="black" points="0,-1319.5 0,-1355.5 290,-1355.5 290,-1319.5 0,-1319.5"/>
<text text-anchor="start" x="8" y="-1333.8" font-family="Times,serif" font-size="14.00">Get simplify_outer_joins.public.t (u99)</text>
</g>
<!-- node13&#45;&gt;node14 -->
<g id="edge26" class="edge">
<title>node13&#45;&gt;node14</title>
<path fill="none" stroke="black" d="M153.76,-1319.43C160.01,-1307.25 168.62,-1290.47 176.27,-1275.55"/>
<polygon fill="black" stroke="black" points="179.44,-1277.05 180.89,-1266.55 173.21,-1273.85 179.44,-1277.05"/>
<text text-anchor="start" x="171" y="-1288.8" font-family="Times,serif" font-size="14.00">%13</text>
</g>
<!-- node14&#45;&gt;node15 -->
<g id="edge21" class="edge">
<title>node14&#45;&gt;node15</title>
<path fill="none" stroke="black" d="M202.39,-1213.06C209.31,-1189.36 218,-1153.19 218,-1121 218,-1121 218,-1121 218,-573.5 218,-553 224.16,-531.57 231.65,-513.09"/>
<polygon fill="black" stroke="black" points="234.94,-514.29 235.66,-503.72 228.51,-511.54 234.94,-514.29"/>
<text text-anchor="start" x="218" y="-808.8" font-family="Times,serif" font-size="14.00">%14</text>
</g>
<!-- node16 -->
<g id="node17" class="node">
<title>node16</title>
<polygon fill="none" stroke="black" points="293.5,-300.5 293.5,-368.5 460.5,-368.5 460.5,-300.5 293.5,-300.5"/>
<text text-anchor="start" x="301.5" y="-353.3" font-family="Times,serif" font-size="14.00">Let l8 =</text>
<text text-anchor="start" x="301.5" y="-338.3" font-family="Times,serif" font-size="14.00"> Get %15 (l7)</text>
<text text-anchor="start" x="301.5" y="-323.3" font-family="Times,serif" font-size="14.00"> Project (#1)</text>
<text text-anchor="start" x="301.5" y="-308.3" font-family="Times,serif" font-size="14.00"> Distinct group=(#0)</text>
</g>
<!-- node15&#45;&gt;node16 -->
<g id="edge14" class="edge">
<title>node15&#45;&gt;node16</title>
<path fill="none" stroke="black" d="M296.64,-420.25C310.16,-405.99 325.33,-389.99 338.82,-375.77"/>
<polygon fill="black" stroke="black" points="341.36,-378.18 345.7,-368.51 336.28,-373.36 341.36,-378.18"/>
<text text-anchor="start" x="329" y="-390.8" font-family="Times,serif" font-size="14.00">%15</text>
</g>
<!-- node19 -->
<g id="node20" class="node">
<title>node19</title>
<polygon fill="none" stroke="black" points="193.5,-0.5 193.5,-38.5 332.5,-38.5 332.5,-0.5 193.5,-0.5"/>
<text text-anchor="start" x="201.5" y="-23.3" font-family="Times,serif" font-size="14.00">Union %18 %15</text>
<text text-anchor="start" x="201.5" y="-8.3" font-family="Times,serif" font-size="14.00"> Filter (#0 &gt; #3)</text>
</g>
<!-- node15&#45;&gt;node19 -->
<g id="edge30" class="edge">
<title>node15&#45;&gt;node19</title>
<path fill="none" stroke="black" d="M252.63,-420.38C249.84,-395.85 247,-363.93 247,-335.5 247,-335.5 247,-335.5 247,-108.5 247,-88.18 251.18,-65.65 255.27,-48.47"/>
<polygon fill="black" stroke="black" points="258.72,-49.08 257.76,-38.53 251.93,-47.38 258.72,-49.08"/>
<text text-anchor="start" x="247" y="-210.8" font-family="Times,serif" font-size="14.00">%15</text>
</g>
<!-- node16&#45;&gt;node17 -->
<g id="edge17" class="edge">
<title>node16&#45;&gt;node17</title>
<path fill="none" stroke="black" d="M392.47,-300.32C398.56,-287.25 405.63,-272.07 412.1,-258.2"/>
<polygon fill="black" stroke="black" points="415.41,-259.39 416.46,-248.84 409.06,-256.43 415.41,-259.39"/>
<text text-anchor="start" x="408" y="-270.8" font-family="Times,serif" font-size="14.00">%16</text>
</g>
<!-- node17&#45;&gt;node18 -->
<g id="edge1" class="edge">
<title>node17&#45;&gt;node18</title>
<path fill="none" stroke="black" d="M432,-180.34C432,-166.93 432,-151.6 432,-138.73"/>
<polygon fill="black" stroke="black" points="435.5,-138.59 432,-128.59 428.5,-138.59 435.5,-138.59"/>
<text text-anchor="start" x="432" y="-150.8" font-family="Times,serif" font-size="14.00">%17</text>
</g>
<!-- node18&#45;&gt;node19 -->
<g id="edge13" class="edge">
<title>node18&#45;&gt;node19</title>
<path fill="none" stroke="black" d="M397.39,-90.48C371.28,-76.88 335.26,-58.12 307.08,-43.45"/>
<polygon fill="black" stroke="black" points="308.34,-40.16 297.85,-38.65 305.1,-46.37 308.34,-40.16"/>
<text text-anchor="start" x="358" y="-60.8" font-family="Times,serif" font-size="14.00">%18</text>
</g>
</g>
</svg>
