<?xml version="1.0" encoding="UTF-8" standalone="no"?>
<!DOCTYPE svg PUBLIC "-//W3C//DTD SVG 1.1//EN"
 "http://www.w3.org/Graphics/SVG/1.1/DTD/svg11.dtd">
<!-- Generated by graphviz version 2.43.0 (0)
 -->
<!-- Title: G Pages: 1 -->
<svg width="1032pt" height="932pt"
 viewBox="0.00 0.00 1032.00 932.00" xmlns="http://www.w3.org/2000/svg" xmlns:xlink="http://www.w3.org/1999/xlink">
<g id="graph0" class="graph" transform="scale(1 1) rotate(0) translate(4 928)">
<title>G</title>
<polygon fill="white" stroke="transparent" points="-4,4 -4,-928 1028,-928 1028,4 -4,4"/>
<!-- node0 -->
<g id="node1" class="node">
<title>node0</title>
<polygon fill="none" stroke="black" points="308.5,-885.5 308.5,-923.5 409.5,-923.5 409.5,-885.5 308.5,-885.5"/>
<text text-anchor="start" x="316.5" y="-908.3" font-family="Times,serif" font-size="14.00">Let l0 =</text>
<text text-anchor="start" x="316.5" y="-893.3" font-family="Times,serif" font-size="14.00"> Constant ()</text>
</g>
<!-- node2 -->
<g id="node3" class="node">
<title>node2</title>
<polygon fill="none" stroke="black" points="655.5,-788 655.5,-826 924.5,-826 924.5,-788 655.5,-788"/>
<text text-anchor="start" x="663.5" y="-810.8" font-family="Times,serif" font-size="14.00">Join %0 %1</text>
<text text-anchor="start" x="663.5" y="-795.8" font-family="Times,serif" font-size="14.00"> implementation = Unimplemented</text>
</g>
<!-- node0&#45;&gt;node2 -->
<g id="edge8" class="edge">
<title>node0&#45;&gt;node2</title>
<path fill="none" stroke="black" d="M403.93,-885.43C433.37,-874.25 472.95,-860.47 509,-852 568.79,-837.96 585.32,-843.46 646,-834 658.18,-832.1 670.92,-829.99 683.56,-827.81"/>
<polygon fill="black" stroke="black" points="684.42,-831.21 693.67,-826.05 683.22,-824.32 684.42,-831.21"/>
<text text-anchor="start" x="509" y="-855.8" font-family="Times,serif" font-size="14.00">%0</text>
</g>
<!-- node4 -->
<g id="node5" class="node">
<title>node4</title>
<polygon fill="none" stroke="black" points="368.5,-788 368.5,-826 637.5,-826 637.5,-788 368.5,-788"/>
<text text-anchor="start" x="376.5" y="-810.8" font-family="Times,serif" font-size="14.00">Join %0 %3</text>
<text text-anchor="start" x="376.5" y="-795.8" font-family="Times,serif" font-size="14.00"> implementation = Unimplemented</text>
</g>
<!-- node0&#45;&gt;node4 -->
<g id="edge1" class="edge">
<title>node0&#45;&gt;node4</title>
<path fill="none" stroke="black" d="M378.58,-885.5C390.4,-875.08 406.03,-862.09 421,-852 432.1,-844.52 444.61,-837.27 456.45,-830.89"/>
<polygon fill="black" stroke="black" points="458.14,-833.96 465.34,-826.19 454.87,-827.77 458.14,-833.96"/>
<text text-anchor="start" x="421" y="-855.8" font-family="Times,serif" font-size="14.00">%0</text>
</g>
<!-- node7 -->
<g id="node8" class="node">
<title>node7</title>
<polygon fill="none" stroke="black" points="81.5,-780.5 81.5,-833.5 350.5,-833.5 350.5,-780.5 81.5,-780.5"/>
<text text-anchor="start" x="89.5" y="-818.3" font-family="Times,serif" font-size="14.00">Let l2 =</text>
<text text-anchor="start" x="89.5" y="-803.3" font-family="Times,serif" font-size="14.00"> Join %0 %6</text>
<text text-anchor="start" x="89.5" y="-788.3" font-family="Times,serif" font-size="14.00"> implementation = Unimplemented</text>
</g>
<!-- node0&#45;&gt;node7 -->
<g id="edge13" class="edge">
<title>node0&#45;&gt;node7</title>
<path fill="none" stroke="black" d="M331.77,-885.31C312.29,-872.31 285.6,-854.48 262.75,-839.22"/>
<polygon fill="black" stroke="black" points="264.46,-836.16 254.2,-833.51 260.58,-841.98 264.46,-836.16"/>
<text text-anchor="start" x="301" y="-855.8" font-family="Times,serif" font-size="14.00">%0</text>
</g>
<!-- node1 -->
<g id="node2" class="node">
<title>node1</title>
<polygon fill="none" stroke="black" points="736,-886.5 736,-922.5 1024,-922.5 1024,-886.5 736,-886.5"/>
<text text-anchor="start" x="744" y="-900.8" font-family="Times,serif" font-size="14.00">Get simplify_outer_joins.public.l (u94)</text>
</g>
<!-- node1&#45;&gt;node2 -->
<g id="edge16" class="edge">
<title>node1&#45;&gt;node2</title>
<path fill="none" stroke="black" d="M863.91,-886.43C850.05,-871.72 829.86,-850.29 814.08,-833.55"/>
<polygon fill="black" stroke="black" points="816.58,-831.1 807.18,-826.23 811.49,-835.9 816.58,-831.1"/>
<text text-anchor="start" x="844" y="-855.8" font-family="Times,serif" font-size="14.00">%1</text>
</g>
<!-- node5 -->
<g id="node6" class="node">
<title>node5</title>
<polygon fill="none" stroke="black" points="368.5,-615.5 368.5,-728.5 637.5,-728.5 637.5,-615.5 368.5,-615.5"/>
<text text-anchor="start" x="376.5" y="-713.3" font-family="Times,serif" font-size="14.00">Let l1 =</text>
<text text-anchor="start" x="376.5" y="-698.3" font-family="Times,serif" font-size="14.00"> Join %2 %4</text>
<text text-anchor="start" x="376.5" y="-683.3" font-family="Times,serif" font-size="14.00"> implementation = Unimplemented</text>
<text text-anchor="start" x="376.5" y="-668.3" font-family="Times,serif" font-size="14.00"> Project (#0..#3)</text>
<text text-anchor="start" x="376.5" y="-653.3" font-family="Times,serif" font-size="14.00"> Filter (#1 = #2)</text>
<text text-anchor="start" x="376.5" y="-638.3" font-family="Times,serif" font-size="14.00"> Map #0, #1, #2, #3</text>
<text text-anchor="start" x="376.5" y="-623.3" font-family="Times,serif" font-size="14.00"> Project (#4..#7)</text>
</g>
<!-- node2&#45;&gt;node5 -->
<g id="edge15" class="edge">
<title>node2&#45;&gt;node5</title>
<path fill="none" stroke="black" d="M751,-787.92C720.16,-773.64 675.27,-752.83 632.12,-732.84"/>
<polygon fill="black" stroke="black" points="633.49,-729.61 622.95,-728.59 630.55,-735.97 633.49,-729.61"/>
<text text-anchor="start" x="689" y="-750.8" font-family="Times,serif" font-size="14.00">%2</text>
</g>
<!-- node3 -->
<g id="node4" class="node">
<title>node3</title>
<polygon fill="none" stroke="black" points="428,-886.5 428,-922.5 718,-922.5 718,-886.5 428,-886.5"/>
<text text-anchor="start" x="436" y="-900.8" font-family="Times,serif" font-size="14.00">Get simplify_outer_joins.public.r (u96)</text>
</g>
<!-- node3&#45;&gt;node4 -->
<g id="edge14" class="edge">
<title>node3&#45;&gt;node4</title>
<path fill="none" stroke="black" d="M560.49,-886.43C549.9,-871.99 534.57,-851.06 522.39,-834.46"/>
<polygon fill="black" stroke="black" points="525.09,-832.22 516.36,-826.23 519.45,-836.36 525.09,-832.22"/>
<text text-anchor="start" x="545" y="-855.8" font-family="Times,serif" font-size="14.00">%3</text>
</g>
<!-- node4&#45;&gt;node5 -->
<g id="edge17" class="edge">
<title>node4&#45;&gt;node5</title>
<path fill="none" stroke="black" d="M503,-787.79C503,-774.88 503,-756.71 503,-738.63"/>
<polygon fill="black" stroke="black" points="506.5,-738.62 503,-728.62 499.5,-738.62 506.5,-738.62"/>
<text text-anchor="start" x="503" y="-750.8" font-family="Times,serif" font-size="14.00">%4</text>
</g>
<!-- node8 -->
<g id="node9" class="node">
<title>node8</title>
<polygon fill="none" stroke="black" points="170.5,-480.5 170.5,-563.5 439.5,-563.5 439.5,-480.5 170.5,-480.5"/>
<text text-anchor="start" x="178.5" y="-548.3" font-family="Times,serif" font-size="14.00">Let l3 =</text>
<text text-anchor="start" x="178.5" y="-533.3" font-family="Times,serif" font-size="14.00"> Join %5 %7</text>
<text text-anchor="start" x="178.5" y="-518.3" font-family="Times,serif" font-size="14.00"> implementation = Unimplemented</text>
<text text-anchor="start" x="178.5" y="-503.3" font-family="Times,serif" font-size="14.00"> Project (#0..#4)</text>
<text text-anchor="start" x="178.5" y="-488.3" font-family="Times,serif" font-size="14.00"> Filter (#1 = #4)</text>
</g>
<!-- node5&#45;&gt;node8 -->
<g id="edge12" class="edge">
<title>node5&#45;&gt;node8</title>
<path fill="none" stroke="black" d="M428.71,-615.47C408.55,-600.4 386.92,-584.23 367.48,-569.7"/>
<polygon fill="black" stroke="black" points="369.4,-566.77 359.29,-563.58 365.21,-572.37 369.4,-566.77"/>
<text text-anchor="start" x="404" y="-585.8" font-family="Times,serif" font-size="14.00">%5</text>
</g>
<!-- node10 -->
<g id="node11" class="node">
<title>node10</title>
<polygon fill="none" stroke="black" points="233.5,-240.5 233.5,-308.5 502.5,-308.5 502.5,-240.5 233.5,-240.5"/>
<text text-anchor="start" x="241.5" y="-293.3" font-family="Times,serif" font-size="14.00">Join %5 %9 (= #1 #4)</text>
<text text-anchor="start" x="241.5" y="-278.3" font-family="Times,serif" font-size="14.00"> implementation = Unimplemented</text>
<text text-anchor="start" x="241.5" y="-263.3" font-family="Times,serif" font-size="14.00"> Project (#0..#3)</text>
<text text-anchor="start" x="241.5" y="-248.3" font-family="Times,serif" font-size="14.00"> Negate</text>
</g>
<!-- node5&#45;&gt;node10 -->
<g id="edge3" class="edge">
<title>node5&#45;&gt;node10</title>
<path fill="none" stroke="black" d="M495.4,-615.38C485.29,-551.58 464.11,-444.86 426,-360 419.36,-345.22 410.11,-330.26 400.94,-317.13"/>
<polygon fill="black" stroke="black" points="403.63,-314.87 394.96,-308.78 397.94,-318.94 403.63,-314.87"/>
<text text-anchor="start" x="463" y="-450.8" font-family="Times,serif" font-size="14.00">%5</text>
</g>
<!-- node11 -->
<g id="node12" class="node">
<title>node11</title>
<polygon fill="none" stroke="black" points="307,-150.5 307,-188.5 429,-188.5 429,-150.5 307,-150.5"/>
<text text-anchor="start" x="315" y="-173.3" font-family="Times,serif" font-size="14.00">Union %10 %5</text>
<text text-anchor="start" x="315" y="-158.3" font-family="Times,serif" font-size="14.00"> Map null</text>
</g>
<!-- node5&#45;&gt;node11 -->
<g id="edge11" class="edge">
<title>node5&#45;&gt;node11</title>
<path fill="none" stroke="black" d="M518.64,-615.25C525.05,-587.71 531,-553.86 531,-523 531,-523 531,-523 531,-273.5 531,-226.88 482.75,-200.5 438.75,-186.13"/>
<polygon fill="black" stroke="black" points="439.75,-182.78 429.16,-183.16 437.68,-189.46 439.75,-182.78"/>
<text text-anchor="start" x="531" y="-390.8" font-family="Times,serif" font-size="14.00">%5</text>
</g>
<!-- node6 -->
<g id="node7" class="node">
<title>node6</title>
<polygon fill="none" stroke="black" points="0,-886.5 0,-922.5 290,-922.5 290,-886.5 0,-886.5"/>
<text text-anchor="start" x="8" y="-900.8" font-family="Times,serif" font-size="14.00">Get simplify_outer_joins.public.t (u98)</text>
</g>
<!-- node6&#45;&gt;node7 -->
<g id="edge9" class="edge">
<title>node6&#45;&gt;node7</title>
<path fill="none" stroke="black" d="M157.69,-886.43C166.91,-874.02 179.7,-856.83 190.94,-841.7"/>
<polygon fill="black" stroke="black" points="193.84,-843.67 197,-833.55 188.23,-839.49 193.84,-843.67"/>
<text text-anchor="start" x="183" y="-855.8" font-family="Times,serif" font-size="14.00">%6</text>
</g>
<!-- node7&#45;&gt;node8 -->
<g id="edge2" class="edge">
<title>node7&#45;&gt;node8</title>
<path fill="none" stroke="black" d="M224.06,-780.39C238.73,-733.73 270.06,-634.12 289.15,-573.41"/>
<polygon fill="black" stroke="black" points="292.56,-574.24 292.22,-563.65 285.88,-572.14 292.56,-574.24"/>
<text text-anchor="start" x="276" y="-668.3" font-family="Times,serif" font-size="14.00">%7</text>
</g>
<!-- node9 -->
<g id="node10" class="node">
<title>node9</title>
<polygon fill="none" stroke="black" points="250.5,-360.5 250.5,-428.5 417.5,-428.5 417.5,-360.5 250.5,-360.5"/>
<text text-anchor="start" x="258.5" y="-413.3" font-family="Times,serif" font-size="14.00">Let l4 =</text>
<text text-anchor="start" x="258.5" y="-398.3" font-family="Times,serif" font-size="14.00"> Get %8 (l3)</text>
<text text-anchor="start" x="258.5" y="-383.3" font-family="Times,serif" font-size="14.00"> Project (#1)</text>
<text text-anchor="start" x="258.5" y="-368.3" font-family="Times,serif" font-size="14.00"> Distinct group=(#0)</text>
</g>
<!-- node8&#45;&gt;node9 -->
<g id="edge6" class="edge">
<title>node8&#45;&gt;node9</title>
<path fill="none" stroke="black" d="M314.42,-480.25C317.5,-466.91 320.93,-452.04 324.06,-438.53"/>
<polygon fill="black" stroke="black" points="327.53,-439.04 326.37,-428.51 320.71,-437.47 327.53,-439.04"/>
<text text-anchor="start" x="323" y="-450.8" font-family="Times,serif" font-size="14.00">%8</text>
</g>
<!-- node12 -->
<g id="node13" class="node">
<title>node12</title>
<polygon fill="none" stroke="black" points="109,-0.5 109,-98.5 307,-98.5 307,-0.5 109,-0.5"/>
<text text-anchor="start" x="117" y="-83.3" font-family="Times,serif" font-size="14.00">Union %11 %8</text>
<text text-anchor="start" x="117" y="-68.3" font-family="Times,serif" font-size="14.00"> Map #0, #1, #2, #3, #4</text>
<text text-anchor="start" x="117" y="-53.3" font-family="Times,serif" font-size="14.00"> Project (#5..#9)</text>
<text text-anchor="start" x="117" y="-38.3" font-family="Times,serif" font-size="14.00"> Filter (#0 &gt; #3)</text>
<text text-anchor="start" x="117" y="-23.3" font-family="Times,serif" font-size="14.00"> Map #0, #1, #2, #3, #4</text>
<text text-anchor="start" x="117" y="-8.3" font-family="Times,serif" font-size="14.00"> Project (#5..#9)</text>
</g>
<!-- node8&#45;&gt;node12 -->
<g id="edge7" class="edge">
<title>node8&#45;&gt;node12</title>
<path fill="none" stroke="black" d="M240.91,-480.24C215.4,-458.72 192,-429.66 192,-395.5 192,-395.5 192,-395.5 192,-168.5 192,-148.87 194.2,-127.57 196.97,-108.54"/>
<polygon fill="black" stroke="black" points="200.45,-108.94 198.51,-98.53 193.53,-107.88 200.45,-108.94"/>
<text text-anchor="start" x="192" y="-270.8" font-family="Times,serif" font-size="14.00">%8</text>
</g>
<!-- node9&#45;&gt;node10 -->
<g id="edge10" class="edge">
<title>node9&#45;&gt;node10</title>
<path fill="none" stroke="black" d="M343.56,-360.32C347.29,-347.37 351.62,-332.36 355.58,-318.6"/>
<polygon fill="black" stroke="black" points="358.99,-319.42 358.39,-308.84 352.26,-317.48 358.99,-319.42"/>
<text text-anchor="start" x="354" y="-330.8" font-family="Times,serif" font-size="14.00">%9</text>
</g>
<!-- node10&#45;&gt;node11 -->
<g id="edge4" class="edge">
<title>node10&#45;&gt;node11</title>
<path fill="none" stroke="black" d="M368,-240.34C368,-226.93 368,-211.6 368,-198.73"/>
<polygon fill="black" stroke="black" points="371.5,-198.59 368,-188.59 364.5,-198.59 371.5,-198.59"/>
<text text-anchor="start" x="368" y="-210.8" font-family="Times,serif" font-size="14.00">%10</text>
</g>
<!-- node11&#45;&gt;node12 -->
<g id="edge5" class="edge">
<title>node11&#45;&gt;node12</title>
<path fill="none" stroke="black" d="M343.35,-150.32C326.64,-138 303.62,-121.02 281.3,-104.56"/>
<polygon fill="black" stroke="black" points="283.24,-101.64 273.12,-98.52 279.09,-107.28 283.24,-101.64"/>
<text text-anchor="start" x="317" y="-120.8" font-family="Times,serif" font-size="14.00">%11</text>
</g>
</g>
</svg>
