<?xml version="1.0" encoding="UTF-8" standalone="no"?>
<!DOCTYPE svg PUBLIC "-//W3C//DTD SVG 1.1//EN"
 "http://www.w3.org/Graphics/SVG/1.1/DTD/svg11.dtd">
<!-- Generated by graphviz version 2.43.0 (0)
 -->
<!-- Title: G Pages: 1 -->
<svg width="1416pt" height="1323pt"
 viewBox="0.00 0.00 1416.00 1323.00" xmlns="http://www.w3.org/2000/svg" xmlns:xlink="http://www.w3.org/1999/xlink">
<g id="graph0" class="graph" transform="scale(1 1) rotate(0) translate(4 1319)">
<title>G</title>
<polygon fill="white" stroke="transparent" points="-4,4 -4,-1319 1412,-1319 1412,4 -4,4"/>
<!-- node0 -->
<g id="node1" class="node">
<title>node0</title>
<polygon fill="none" stroke="black" points="801,-1261.5 801,-1314.5 1089,-1314.5 1089,-1261.5 801,-1261.5"/>
<text text-anchor="start" x="809" y="-1299.3" font-family="Times,serif" font-size="14.00">Get simplify_outer_joins.public.l (u95)</text>
<text text-anchor="start" x="809" y="-1284.3" font-family="Times,serif" font-size="14.00"> Filter !(isnull(#1))</text>
<text text-anchor="start" x="809" y="-1269.3" font-family="Times,serif" font-size="14.00"> ArrangeBy (#1)</text>
</g>
<!-- node2 -->
<g id="node3" class="node">
<title>node2</title>
<polygon fill="none" stroke="black" points="935,-1141.5 935,-1209.5 1261,-1209.5 1261,-1141.5 935,-1141.5"/>
<text text-anchor="start" x="943" y="-1194.3" font-family="Times,serif" font-size="14.00">Let l0 =</text>
<text text-anchor="start" x="943" y="-1179.3" font-family="Times,serif" font-size="14.00"> Join %0 %1 (= #1 #2)</text>
<text text-anchor="start" x="943" y="-1164.3" font-family="Times,serif" font-size="14.00"> implementation = Differential %1 %0.(#1)</text>
<text text-anchor="start" x="943" y="-1149.3" font-family="Times,serif" font-size="14.00"> Project (#0, #1, #3)</text>
</g>
<!-- node0&#45;&gt;node2 -->
<g id="edge22" class="edge">
<title>node0&#45;&gt;node2</title>
<path fill="none" stroke="black" d="M980.49,-1261.37C999.35,-1247.75 1022.93,-1230.72 1044.01,-1215.5"/>
<polygon fill="black" stroke="black" points="1046.19,-1218.23 1052.25,-1209.54 1042.09,-1212.56 1046.19,-1218.23"/>
<text text-anchor="start" x="1027" y="-1231.8" font-family="Times,serif" font-size="14.00">%0</text>
</g>
<!-- node1 -->
<g id="node2" class="node">
<title>node1</title>
<polygon fill="none" stroke="black" points="1107,-1269 1107,-1307 1397,-1307 1397,-1269 1107,-1269"/>
<text text-anchor="start" x="1115" y="-1291.8" font-family="Times,serif" font-size="14.00">Get simplify_outer_joins.public.r (u97)</text>
<text text-anchor="start" x="1115" y="-1276.8" font-family="Times,serif" font-size="14.00"> Filter !(isnull(#0))</text>
</g>
<!-- node1&#45;&gt;node2 -->
<g id="edge15" class="edge">
<title>node1&#45;&gt;node2</title>
<path fill="none" stroke="black" d="M1226.57,-1268.75C1206.46,-1254.32 1177.67,-1233.66 1152.42,-1215.55"/>
<polygon fill="black" stroke="black" points="1154.18,-1212.5 1144.02,-1209.52 1150.1,-1218.19 1154.18,-1212.5"/>
<text text-anchor="start" x="1189" y="-1231.8" font-family="Times,serif" font-size="14.00">%1</text>
</g>
<!-- node3 -->
<g id="node4" class="node">
<title>node3</title>
<polygon fill="none" stroke="black" points="796.5,-1006.5 796.5,-1089.5 963.5,-1089.5 963.5,-1006.5 796.5,-1006.5"/>
<text text-anchor="start" x="804.5" y="-1074.3" font-family="Times,serif" font-size="14.00">Let l1 =</text>
<text text-anchor="start" x="804.5" y="-1059.3" font-family="Times,serif" font-size="14.00"> Get %2 (l0)</text>
<text text-anchor="start" x="804.5" y="-1044.3" font-family="Times,serif" font-size="14.00"> Project (#1)</text>
<text text-anchor="start" x="804.5" y="-1029.3" font-family="Times,serif" font-size="14.00"> Distinct group=(#0)</text>
<text text-anchor="start" x="804.5" y="-1014.3" font-family="Times,serif" font-size="14.00"> ArrangeBy (#0)</text>
</g>
<!-- node2&#45;&gt;node3 -->
<g id="edge1" class="edge">
<title>node2&#45;&gt;node3</title>
<path fill="none" stroke="black" d="M1040.44,-1141.36C1015.73,-1127.14 986.45,-1110.28 959.71,-1094.89"/>
<polygon fill="black" stroke="black" points="961.16,-1091.68 950.75,-1089.73 957.67,-1097.75 961.16,-1091.68"/>
<text text-anchor="start" x="1009" y="-1111.8" font-family="Times,serif" font-size="14.00">%2</text>
</g>
<!-- node12 -->
<g id="node13" class="node">
<title>node12</title>
<polygon fill="none" stroke="black" points="1210,-949.5 1210,-987.5 1408,-987.5 1408,-949.5 1210,-949.5"/>
<text text-anchor="start" x="1218" y="-972.3" font-family="Times,serif" font-size="14.00">Get %2 (l0)</text>
<text text-anchor="start" x="1218" y="-957.3" font-family="Times,serif" font-size="14.00"> Project (#0, #1, #1, #2)</text>
</g>
<!-- node2&#45;&gt;node12 -->
<g id="edge19" class="edge">
<title>node2&#45;&gt;node12</title>
<path fill="none" stroke="black" d="M1209.19,-1141.33C1235.24,-1128.91 1260.7,-1112.22 1279,-1090 1300.56,-1063.82 1306.95,-1024.31 1308.68,-997.74"/>
<polygon fill="black" stroke="black" points="1312.18,-997.71 1309.15,-987.56 1305.19,-997.39 1312.18,-997.71"/>
<text text-anchor="start" x="1260" y="-1111.8" font-family="Times,serif" font-size="14.00">%2</text>
</g>
<!-- node5 -->
<g id="node6" class="node">
<title>node5</title>
<polygon fill="none" stroke="black" points="308,-862.5 308,-930.5 634,-930.5 634,-862.5 308,-862.5"/>
<text text-anchor="start" x="316" y="-915.3" font-family="Times,serif" font-size="14.00">Join %4 %3 (= #0 #2)</text>
<text text-anchor="start" x="316" y="-900.3" font-family="Times,serif" font-size="14.00"> implementation = Differential %4 %3.(#0)</text>
<text text-anchor="start" x="316" y="-885.3" font-family="Times,serif" font-size="14.00"> Project (#0, #1)</text>
<text text-anchor="start" x="316" y="-870.3" font-family="Times,serif" font-size="14.00"> Negate</text>
</g>
<!-- node3&#45;&gt;node5 -->
<g id="edge14" class="edge">
<title>node3&#45;&gt;node5</title>
<path fill="none" stroke="black" d="M796.25,-1016.39C730.96,-992.52 640.09,-959.31 570.99,-934.05"/>
<polygon fill="black" stroke="black" points="571.98,-930.68 561.39,-930.54 569.58,-937.26 571.98,-930.68"/>
<text text-anchor="start" x="713" y="-964.8" font-family="Times,serif" font-size="14.00">%3</text>
</g>
<!-- node9 -->
<g id="node10" class="node">
<title>node9</title>
<polygon fill="none" stroke="black" points="958,-862.5 958,-930.5 1284,-930.5 1284,-862.5 958,-862.5"/>
<text text-anchor="start" x="966" y="-915.3" font-family="Times,serif" font-size="14.00">Join %8 %3 (= #1 #2)</text>
<text text-anchor="start" x="966" y="-900.3" font-family="Times,serif" font-size="14.00"> implementation = Differential %8 %3.(#0)</text>
<text text-anchor="start" x="966" y="-885.3" font-family="Times,serif" font-size="14.00"> Project (#0, #1)</text>
<text text-anchor="start" x="966" y="-870.3" font-family="Times,serif" font-size="14.00"> Negate</text>
</g>
<!-- node3&#45;&gt;node9 -->
<g id="edge12" class="edge">
<title>node3&#45;&gt;node9</title>
<path fill="none" stroke="black" d="M945.54,-1006.35C980.87,-984.43 1024.23,-957.53 1059.01,-935.95"/>
<polygon fill="black" stroke="black" points="1061,-938.84 1067.66,-930.59 1057.31,-932.89 1061,-938.84"/>
<text text-anchor="start" x="1037" y="-964.8" font-family="Times,serif" font-size="14.00">%3</text>
</g>
<!-- node4 -->
<g id="node5" class="node">
<title>node4</title>
<polygon fill="none" stroke="black" points="326,-1030 326,-1066 616,-1066 616,-1030 326,-1030"/>
<text text-anchor="start" x="334" y="-1044.3" font-family="Times,serif" font-size="14.00">Get simplify_outer_joins.public.r (u97)</text>
</g>
<!-- node4&#45;&gt;node5 -->
<g id="edge2" class="edge">
<title>node4&#45;&gt;node5</title>
<path fill="none" stroke="black" d="M471,-1029.85C471,-1008.31 471,-970.57 471,-940.89"/>
<polygon fill="black" stroke="black" points="474.5,-940.77 471,-930.77 467.5,-940.77 474.5,-940.77"/>
<text text-anchor="start" x="471" y="-964.8" font-family="Times,serif" font-size="14.00">%4</text>
</g>
<!-- node7 -->
<g id="node8" class="node">
<title>node7</title>
<polygon fill="none" stroke="black" points="372,-757.5 372,-810.5 570,-810.5 570,-757.5 372,-757.5"/>
<text text-anchor="start" x="380" y="-795.3" font-family="Times,serif" font-size="14.00">Union %5 %6</text>
<text text-anchor="start" x="380" y="-780.3" font-family="Times,serif" font-size="14.00"> Map null, null</text>
<text text-anchor="start" x="380" y="-765.3" font-family="Times,serif" font-size="14.00"> Project (#2, #3, #0, #1)</text>
</g>
<!-- node5&#45;&gt;node7 -->
<g id="edge11" class="edge">
<title>node5&#45;&gt;node7</title>
<path fill="none" stroke="black" d="M471,-862.35C471,-849.3 471,-834.3 471,-820.99"/>
<polygon fill="black" stroke="black" points="474.5,-820.75 471,-810.75 467.5,-820.75 474.5,-820.75"/>
<text text-anchor="start" x="471" y="-832.8" font-family="Times,serif" font-size="14.00">%5</text>
</g>
<!-- node6 -->
<g id="node7" class="node">
<title>node6</title>
<polygon fill="none" stroke="black" points="0,-878.5 0,-914.5 290,-914.5 290,-878.5 0,-878.5"/>
<text text-anchor="start" x="8" y="-892.8" font-family="Times,serif" font-size="14.00">Get simplify_outer_joins.public.r (u97)</text>
</g>
<!-- node6&#45;&gt;node7 -->
<g id="edge25" class="edge">
<title>node6&#45;&gt;node7</title>
<path fill="none" stroke="black" d="M195.22,-878.48C246,-861.27 325.41,-834.35 386.01,-813.81"/>
<polygon fill="black" stroke="black" points="387.21,-817.1 395.56,-810.57 384.97,-810.47 387.21,-817.1"/>
<text text-anchor="start" x="338" y="-832.8" font-family="Times,serif" font-size="14.00">%6</text>
</g>
<!-- node13 -->
<g id="node14" class="node">
<title>node13</title>
<polygon fill="none" stroke="black" points="821.5,-667.5 821.5,-705.5 984.5,-705.5 984.5,-667.5 821.5,-667.5"/>
<text text-anchor="start" x="829.5" y="-690.3" font-family="Times,serif" font-size="14.00">Let l2 =</text>
<text text-anchor="start" x="829.5" y="-675.3" font-family="Times,serif" font-size="14.00"> Union %7 %11 %12</text>
</g>
<!-- node7&#45;&gt;node13 -->
<g id="edge24" class="edge">
<title>node7&#45;&gt;node13</title>
<path fill="none" stroke="black" d="M570.11,-761.09C642.79,-745.02 740.74,-723.37 811.56,-707.71"/>
<polygon fill="black" stroke="black" points="812.36,-711.12 821.37,-705.55 810.85,-704.29 812.36,-711.12"/>
<text text-anchor="start" x="726" y="-727.8" font-family="Times,serif" font-size="14.00">%7</text>
</g>
<!-- node8 -->
<g id="node9" class="node">
<title>node8</title>
<polygon fill="none" stroke="black" points="982,-1030 982,-1066 1270,-1066 1270,-1030 982,-1030"/>
<text text-anchor="start" x="990" y="-1044.3" font-family="Times,serif" font-size="14.00">Get simplify_outer_joins.public.l (u95)</text>
</g>
<!-- node8&#45;&gt;node9 -->
<g id="edge13" class="edge">
<title>node8&#45;&gt;node9</title>
<path fill="none" stroke="black" d="M1125.43,-1029.85C1124.71,-1008.31 1123.44,-970.57 1122.45,-940.89"/>
<polygon fill="black" stroke="black" points="1125.94,-940.64 1122.11,-930.77 1118.95,-940.88 1125.94,-940.64"/>
<text text-anchor="start" x="1124" y="-964.8" font-family="Times,serif" font-size="14.00">%8</text>
</g>
<!-- node11 -->
<g id="node12" class="node">
<title>node11</title>
<polygon fill="none" stroke="black" points="842,-765 842,-803 964,-803 964,-765 842,-765"/>
<text text-anchor="start" x="850" y="-787.8" font-family="Times,serif" font-size="14.00">Union %9 %10</text>
<text text-anchor="start" x="850" y="-772.8" font-family="Times,serif" font-size="14.00"> Map null, null</text>
</g>
<!-- node9&#45;&gt;node11 -->
<g id="edge3" class="edge">
<title>node9&#45;&gt;node11</title>
<path fill="none" stroke="black" d="M1055.89,-862.5C1021.1,-844.86 979.14,-823.59 947.99,-807.8"/>
<polygon fill="black" stroke="black" points="949.19,-804.49 938.69,-803.09 946.03,-810.73 949.19,-804.49"/>
<text text-anchor="start" x="1019" y="-832.8" font-family="Times,serif" font-size="14.00">%9</text>
</g>
<!-- node10 -->
<g id="node11" class="node">
<title>node10</title>
<polygon fill="none" stroke="black" points="652,-878.5 652,-914.5 940,-914.5 940,-878.5 652,-878.5"/>
<text text-anchor="start" x="660" y="-892.8" font-family="Times,serif" font-size="14.00">Get simplify_outer_joins.public.l (u95)</text>
</g>
<!-- node10&#45;&gt;node11 -->
<g id="edge5" class="edge">
<title>node10&#45;&gt;node11</title>
<path fill="none" stroke="black" d="M812.72,-878.23C830.31,-860.07 858.18,-831.29 878.3,-810.51"/>
<polygon fill="black" stroke="black" points="880.89,-812.87 885.33,-803.25 875.86,-808 880.89,-812.87"/>
<text text-anchor="start" x="860" y="-832.8" font-family="Times,serif" font-size="14.00">%10</text>
</g>
<!-- node11&#45;&gt;node13 -->
<g id="edge20" class="edge">
<title>node11&#45;&gt;node13</title>
<path fill="none" stroke="black" d="M903,-764.59C903,-750.76 903,-731.57 903,-715.8"/>
<polygon fill="black" stroke="black" points="906.5,-715.53 903,-705.53 899.5,-715.53 906.5,-715.53"/>
<text text-anchor="start" x="903" y="-727.8" font-family="Times,serif" font-size="14.00">%11</text>
</g>
<!-- node12&#45;&gt;node13 -->
<g id="edge4" class="edge">
<title>node12&#45;&gt;node13</title>
<path fill="none" stroke="black" d="M1311.16,-949.47C1312.89,-926.72 1312.4,-887.51 1293,-862 1220.82,-767.11 1085.55,-722.59 994.86,-702.59"/>
<polygon fill="black" stroke="black" points="995.36,-699.12 984.85,-700.44 993.89,-705.96 995.36,-699.12"/>
<text text-anchor="start" x="1276" y="-832.8" font-family="Times,serif" font-size="14.00">%12</text>
</g>
<!-- node14 -->
<g id="node15" class="node">
<title>node14</title>
<polygon fill="none" stroke="black" points="1223,-577.5 1223,-615.5 1375,-615.5 1375,-577.5 1223,-577.5"/>
<text text-anchor="start" x="1231" y="-600.3" font-family="Times,serif" font-size="14.00">Get %13 (l2)</text>
<text text-anchor="start" x="1231" y="-585.3" font-family="Times,serif" font-size="14.00"> Filter !(isnull(#1))</text>
</g>
<!-- node13&#45;&gt;node14 -->
<g id="edge27" class="edge">
<title>node13&#45;&gt;node14</title>
<path fill="none" stroke="black" d="M984.09,-667.48C1050.73,-652.67 1144.91,-631.74 1212.89,-616.64"/>
<polygon fill="black" stroke="black" points="1213.72,-620.04 1222.72,-614.45 1212.2,-613.2 1213.72,-620.04"/>
<text text-anchor="start" x="1125" y="-637.8" font-family="Times,serif" font-size="14.00">%13</text>
</g>
<!-- node17 -->
<g id="node18" class="node">
<title>node17</title>
<polygon fill="none" stroke="black" points="817.5,-345 817.5,-398 956.5,-398 956.5,-345 817.5,-345"/>
<text text-anchor="start" x="825.5" y="-382.8" font-family="Times,serif" font-size="14.00">Let l4 =</text>
<text text-anchor="start" x="825.5" y="-367.8" font-family="Times,serif" font-size="14.00"> Get %13 (l2)</text>
<text text-anchor="start" x="825.5" y="-352.8" font-family="Times,serif" font-size="14.00"> Filter (#0 &gt; #3)</text>
</g>
<!-- node13&#45;&gt;node17 -->
<g id="edge23" class="edge">
<title>node13&#45;&gt;node17</title>
<path fill="none" stroke="black" d="M902.07,-667.32C899.5,-617.04 892.26,-475.42 888.84,-408.45"/>
<polygon fill="black" stroke="black" points="892.33,-408.17 888.32,-398.37 885.34,-408.53 892.33,-408.17"/>
<text text-anchor="start" x="897" y="-547.8" font-family="Times,serif" font-size="14.00">%13</text>
</g>
<!-- node16 -->
<g id="node17" class="node">
<title>node16</title>
<polygon fill="none" stroke="black" points="1004,-457.5 1004,-525.5 1348,-525.5 1348,-457.5 1004,-457.5"/>
<text text-anchor="start" x="1012" y="-510.3" font-family="Times,serif" font-size="14.00">Let l3 =</text>
<text text-anchor="start" x="1012" y="-495.3" font-family="Times,serif" font-size="14.00"> Join %14 %15 (= #1 #4)</text>
<text text-anchor="start" x="1012" y="-480.3" font-family="Times,serif" font-size="14.00"> implementation = Differential %14 %15.(#0)</text>
<text text-anchor="start" x="1012" y="-465.3" font-family="Times,serif" font-size="14.00"> Project (#0..=#3)</text>
</g>
<!-- node14&#45;&gt;node16 -->
<g id="edge9" class="edge">
<title>node14&#45;&gt;node16</title>
<path fill="none" stroke="black" d="M1277.29,-577.32C1262.45,-564.89 1242.18,-547.92 1223.68,-532.42"/>
<polygon fill="black" stroke="black" points="1225.79,-529.63 1215.87,-525.89 1221.29,-534.99 1225.79,-529.63"/>
<text text-anchor="start" x="1252" y="-547.8" font-family="Times,serif" font-size="14.00">%14</text>
</g>
<!-- node15 -->
<g id="node16" class="node">
<title>node15</title>
<polygon fill="none" stroke="black" points="915,-577.5 915,-615.5 1205,-615.5 1205,-577.5 915,-577.5"/>
<text text-anchor="start" x="923" y="-600.3" font-family="Times,serif" font-size="14.00">Get simplify_outer_joins.public.t (u99)</text>
<text text-anchor="start" x="923" y="-585.3" font-family="Times,serif" font-size="14.00"> ArrangeBy (#0)</text>
</g>
<!-- node15&#45;&gt;node16 -->
<g id="edge7" class="edge">
<title>node15&#45;&gt;node16</title>
<path fill="none" stroke="black" d="M1080.47,-577.32C1094.35,-565 1113.24,-548.22 1130.57,-532.84"/>
<polygon fill="black" stroke="black" points="1133.24,-535.15 1138.39,-525.89 1128.59,-529.91 1133.24,-535.15"/>
<text text-anchor="start" x="1118" y="-547.8" font-family="Times,serif" font-size="14.00">%15</text>
</g>
<!-- node18 -->
<g id="node19" class="node">
<title>node18</title>
<polygon fill="none" stroke="black" points="1023.5,-337.5 1023.5,-405.5 1190.5,-405.5 1190.5,-337.5 1023.5,-337.5"/>
<text text-anchor="start" x="1031.5" y="-390.3" font-family="Times,serif" font-size="14.00">Get %16 (l3)</text>
<text text-anchor="start" x="1031.5" y="-375.3" font-family="Times,serif" font-size="14.00"> Project (#1)</text>
<text text-anchor="start" x="1031.5" y="-360.3" font-family="Times,serif" font-size="14.00"> Distinct group=(#0)</text>
<text text-anchor="start" x="1031.5" y="-345.3" font-family="Times,serif" font-size="14.00"> ArrangeBy (#0)</text>
</g>
<!-- node16&#45;&gt;node18 -->
<g id="edge21" class="edge">
<title>node16&#45;&gt;node18</title>
<path fill="none" stroke="black" d="M1156.6,-457.32C1148.88,-444.12 1139.91,-428.78 1131.73,-414.8"/>
<polygon fill="black" stroke="black" points="1134.57,-412.71 1126.5,-405.84 1128.52,-416.24 1134.57,-412.71"/>
<text text-anchor="start" x="1146" y="-427.8" font-family="Times,serif" font-size="14.00">%16</text>
</g>
<!-- node21 -->
<g id="node22" class="node">
<title>node21</title>
<polygon fill="none" stroke="black" points="1167,-265.5 1167,-318.5 1347,-318.5 1347,-265.5 1167,-265.5"/>
<text text-anchor="start" x="1175" y="-303.3" font-family="Times,serif" font-size="14.00">Get %16 (l3)</text>
<text text-anchor="start" x="1175" y="-288.3" font-family="Times,serif" font-size="14.00"> Filter (#0 &gt; #3)</text>
<text text-anchor="start" x="1175" y="-273.3" font-family="Times,serif" font-size="14.00"> Project (#0..=#3, #1)</text>
</g>
<!-- node16&#45;&gt;node21 -->
<g id="edge17" class="edge">
<title>node16&#45;&gt;node21</title>
<path fill="none" stroke="black" d="M1189.56,-457.44C1204.28,-421.56 1227.68,-364.49 1242.69,-327.9"/>
<polygon fill="black" stroke="black" points="1245.94,-329.19 1246.5,-318.61 1239.46,-326.53 1245.94,-329.19"/>
<text text-anchor="start" x="1203" y="-427.8" font-family="Times,serif" font-size="14.00">%16</text>
</g>
<!-- node19 -->
<g id="node20" class="node">
<title>node19</title>
<polygon fill="none" stroke="black" points="904,-178.5 904,-246.5 1248,-246.5 1248,-178.5 904,-178.5"/>
<text text-anchor="start" x="912" y="-231.3" font-family="Times,serif" font-size="14.00">Join %17 %18 (= #1 #4)</text>
<text text-anchor="start" x="912" y="-216.3" font-family="Times,serif" font-size="14.00"> implementation = Differential %17 %18.(#0)</text>
<text text-anchor="start" x="912" y="-201.3" font-family="Times,serif" font-size="14.00"> Project (#0..=#3)</text>
<text text-anchor="start" x="912" y="-186.3" font-family="Times,serif" font-size="14.00"> Negate</text>
</g>
<!-- node17&#45;&gt;node19 -->
<g id="edge10" class="edge">
<title>node17&#45;&gt;node19</title>
<path fill="none" stroke="black" d="M917.79,-344.93C947.61,-320.15 993.29,-282.21 1027.91,-253.45"/>
<polygon fill="black" stroke="black" points="1030.55,-255.8 1036.01,-246.72 1026.08,-250.42 1030.55,-255.8"/>
<text text-anchor="start" x="1010" y="-288.3" font-family="Times,serif" font-size="14.00">%17</text>
</g>
<!-- node20 -->
<g id="node21" class="node">
<title>node20</title>
<polygon fill="none" stroke="black" points="1010.5,-88.5 1010.5,-126.5 1141.5,-126.5 1141.5,-88.5 1010.5,-88.5"/>
<text text-anchor="start" x="1018.5" y="-111.3" font-family="Times,serif" font-size="14.00">Union %19 %17</text>
<text text-anchor="start" x="1018.5" y="-96.3" font-family="Times,serif" font-size="14.00"> Map null</text>
</g>
<!-- node17&#45;&gt;node20 -->
<g id="edge26" class="edge">
<title>node17&#45;&gt;node20</title>
<path fill="none" stroke="black" d="M873.58,-344.96C854.77,-305.24 826.71,-228.02 863,-178 894.14,-135.09 952.5,-118.17 1000.27,-111.73"/>
<polygon fill="black" stroke="black" points="1000.79,-115.19 1010.29,-110.51 999.94,-108.24 1000.79,-115.19"/>
<text text-anchor="start" x="863" y="-208.8" font-family="Times,serif" font-size="14.00">%17</text>
</g>
<!-- node18&#45;&gt;node19 -->
<g id="edge6" class="edge">
<title>node18&#45;&gt;node19</title>
<path fill="none" stroke="black" d="M1100.43,-337.2C1095.8,-313.79 1089.57,-282.23 1084.56,-256.85"/>
<polygon fill="black" stroke="black" points="1087.94,-255.88 1082.56,-246.75 1081.07,-257.24 1087.94,-255.88"/>
<text text-anchor="start" x="1097" y="-288.3" font-family="Times,serif" font-size="14.00">%18</text>
</g>
<!-- node19&#45;&gt;node20 -->
<g id="edge8" class="edge">
<title>node19&#45;&gt;node20</title>
<path fill="none" stroke="black" d="M1076,-178.34C1076,-164.93 1076,-149.6 1076,-136.73"/>
<polygon fill="black" stroke="black" points="1079.5,-136.59 1076,-126.59 1072.5,-136.59 1079.5,-136.59"/>
<text text-anchor="start" x="1076" y="-148.8" font-family="Times,serif" font-size="14.00">%19</text>
</g>
<!-- node22 -->
<g id="node23" class="node">
<title>node22</title>
<polygon fill="none" stroke="black" points="1148.5,-0.5 1148.5,-36.5 1279.5,-36.5 1279.5,-0.5 1148.5,-0.5"/>
<text text-anchor="start" x="1156.5" y="-14.8" font-family="Times,serif" font-size="14.00">Union %20 %21</text>
</g>
<!-- node20&#45;&gt;node22 -->
<g id="edge16" class="edge">
<title>node20&#45;&gt;node22</title>
<path fill="none" stroke="black" d="M1104.59,-88.47C1125.92,-75.03 1155.2,-56.57 1178.1,-42.13"/>
<polygon fill="black" stroke="black" points="1180.26,-44.91 1186.85,-36.62 1176.53,-38.99 1180.26,-44.91"/>
<text text-anchor="start" x="1158" y="-58.8" font-family="Times,serif" font-size="14.00">%20</text>
</g>
<!-- node21&#45;&gt;node22 -->
<g id="edge18" class="edge">
<title>node21&#45;&gt;node22</title>
<path fill="none" stroke="black" d="M1258.93,-265.29C1260.19,-242.3 1260.96,-207.75 1257,-178 1250.71,-130.77 1234.31,-77.66 1223.68,-46.48"/>
<polygon fill="black" stroke="black" points="1226.9,-45.08 1220.32,-36.78 1220.28,-47.37 1226.9,-45.08"/>
<text text-anchor="start" x="1253" y="-148.8" font-family="Times,serif" font-size="14.00">%21</text>
</g>
</g>
</svg>
