<?xml version="1.0" encoding="UTF-8" standalone="no"?>
<!DOCTYPE svg PUBLIC "-//W3C//DTD SVG 1.1//EN"
 "http://www.w3.org/Graphics/SVG/1.1/DTD/svg11.dtd">
<!-- Generated by graphviz version 2.43.0 (0)
 -->
<!-- Title: G Pages: 1 -->
<svg width="776pt" height="774pt"
 viewBox="0.00 0.00 776.00 774.00" xmlns="http://www.w3.org/2000/svg" xmlns:xlink="http://www.w3.org/1999/xlink">
<g id="graph0" class="graph" transform="scale(1 1) rotate(0) translate(4 770)">
<title>G</title>
<polygon fill="white" stroke="transparent" points="-4,4 -4,-770 772,-770 772,4 -4,4"/>
<!-- node0 -->
<g id="node1" class="node">
<title>node0</title>
<polygon fill="none" stroke="black" points="0,-712.5 0,-765.5 288,-765.5 288,-712.5 0,-712.5"/>
<text text-anchor="start" x="8" y="-750.3" font-family="Times,serif" font-size="14.00">Get simplify_outer_joins.public.l (u94)</text>
<text text-anchor="start" x="8" y="-735.3" font-family="Times,serif" font-size="14.00"> Filter !(isnull(#1))</text>
<text text-anchor="start" x="8" y="-720.3" font-family="Times,serif" font-size="14.00"> ArrangeBy (#1)</text>
</g>
<!-- node2 -->
<g id="node3" class="node">
<title>node2</title>
<polygon fill="none" stroke="black" points="134,-592.5 134,-660.5 460,-660.5 460,-592.5 134,-592.5"/>
<text text-anchor="start" x="142" y="-645.3" font-family="Times,serif" font-size="14.00">Let l0 =</text>
<text text-anchor="start" x="142" y="-630.3" font-family="Times,serif" font-size="14.00"> Join %0 %1 (= #1 #2)</text>
<text text-anchor="start" x="142" y="-615.3" font-family="Times,serif" font-size="14.00"> implementation = Differential %1 %0.(#1)</text>
<text text-anchor="start" x="142" y="-600.3" font-family="Times,serif" font-size="14.00"> Project (#0, #1, #3)</text>
</g>
<!-- node0&#45;&gt;node2 -->
<g id="edge6" class="edge">
<title>node0&#45;&gt;node2</title>
<path fill="none" stroke="black" d="M179.49,-712.37C198.35,-698.75 221.93,-681.72 243.01,-666.5"/>
<polygon fill="black" stroke="black" points="245.19,-669.23 251.25,-660.54 241.09,-663.56 245.19,-669.23"/>
<text text-anchor="start" x="226" y="-682.8" font-family="Times,serif" font-size="14.00">%0</text>
</g>
<!-- node1 -->
<g id="node2" class="node">
<title>node1</title>
<polygon fill="none" stroke="black" points="306,-720 306,-758 596,-758 596,-720 306,-720"/>
<text text-anchor="start" x="314" y="-742.8" font-family="Times,serif" font-size="14.00">Get simplify_outer_joins.public.r (u96)</text>
<text text-anchor="start" x="314" y="-727.8" font-family="Times,serif" font-size="14.00"> Filter !(isnull(#0))</text>
</g>
<!-- node1&#45;&gt;node2 -->
<g id="edge12" class="edge">
<title>node1&#45;&gt;node2</title>
<path fill="none" stroke="black" d="M425.57,-719.75C405.46,-705.32 376.67,-684.66 351.42,-666.55"/>
<polygon fill="black" stroke="black" points="353.18,-663.5 343.02,-660.52 349.1,-669.19 353.18,-663.5"/>
<text text-anchor="start" x="388" y="-682.8" font-family="Times,serif" font-size="14.00">%1</text>
</g>
<!-- node4 -->
<g id="node5" class="node">
<title>node4</title>
<polygon fill="none" stroke="black" points="431,-472.5 431,-540.5 757,-540.5 757,-472.5 431,-472.5"/>
<text text-anchor="start" x="439" y="-525.3" font-family="Times,serif" font-size="14.00">Let l1 =</text>
<text text-anchor="start" x="439" y="-510.3" font-family="Times,serif" font-size="14.00"> Join %2 %3 (= #1 #3)</text>
<text text-anchor="start" x="439" y="-495.3" font-family="Times,serif" font-size="14.00"> implementation = Differential %2 %3.(#0)</text>
<text text-anchor="start" x="439" y="-480.3" font-family="Times,serif" font-size="14.00"> Project (#0..#2)</text>
</g>
<!-- node2&#45;&gt;node4 -->
<g id="edge2" class="edge">
<title>node2&#45;&gt;node4</title>
<path fill="none" stroke="black" d="M380.13,-592.47C417.78,-577.51 462.43,-559.77 501.18,-544.38"/>
<polygon fill="black" stroke="black" points="502.89,-547.46 510.89,-540.52 500.31,-540.96 502.89,-547.46"/>
<text text-anchor="start" x="463" y="-562.8" font-family="Times,serif" font-size="14.00">%2</text>
</g>
<!-- node5 -->
<g id="node6" class="node">
<title>node5</title>
<polygon fill="none" stroke="black" points="227.5,-360 227.5,-413 366.5,-413 366.5,-360 227.5,-360"/>
<text text-anchor="start" x="235.5" y="-397.8" font-family="Times,serif" font-size="14.00">Let l2 =</text>
<text text-anchor="start" x="235.5" y="-382.8" font-family="Times,serif" font-size="14.00"> Get %2 (l0)</text>
<text text-anchor="start" x="235.5" y="-367.8" font-family="Times,serif" font-size="14.00"> Filter (#0 &gt; #2)</text>
</g>
<!-- node2&#45;&gt;node5 -->
<g id="edge10" class="edge">
<title>node2&#45;&gt;node5</title>
<path fill="none" stroke="black" d="M297,-592.41C297,-547.85 297,-468.9 297,-423.09"/>
<polygon fill="black" stroke="black" points="300.5,-423.03 297,-413.03 293.5,-423.03 300.5,-423.03"/>
<text text-anchor="start" x="297" y="-502.8" font-family="Times,serif" font-size="14.00">%2</text>
</g>
<!-- node3 -->
<g id="node4" class="node">
<title>node3</title>
<polygon fill="none" stroke="black" points="478,-607.5 478,-645.5 768,-645.5 768,-607.5 478,-607.5"/>
<text text-anchor="start" x="486" y="-630.3" font-family="Times,serif" font-size="14.00">Get simplify_outer_joins.public.t (u98)</text>
<text text-anchor="start" x="486" y="-615.3" font-family="Times,serif" font-size="14.00"> ArrangeBy (#0)</text>
</g>
<!-- node3&#45;&gt;node4 -->
<g id="edge9" class="edge">
<title>node3&#45;&gt;node4</title>
<path fill="none" stroke="black" d="M618.53,-607.32C614.83,-592.24 609.4,-570.17 604.6,-550.62"/>
<polygon fill="black" stroke="black" points="607.94,-549.55 602.15,-540.67 601.14,-551.22 607.94,-549.55"/>
<text text-anchor="start" x="610" y="-562.8" font-family="Times,serif" font-size="14.00">%3</text>
</g>
<!-- node6 -->
<g id="node7" class="node">
<title>node6</title>
<polygon fill="none" stroke="black" points="413.5,-352.5 413.5,-420.5 580.5,-420.5 580.5,-352.5 413.5,-352.5"/>
<text text-anchor="start" x="421.5" y="-405.3" font-family="Times,serif" font-size="14.00">Get %4 (l1)</text>
<text text-anchor="start" x="421.5" y="-390.3" font-family="Times,serif" font-size="14.00"> Project (#1)</text>
<text text-anchor="start" x="421.5" y="-375.3" font-family="Times,serif" font-size="14.00"> Distinct group=(#0)</text>
<text text-anchor="start" x="421.5" y="-360.3" font-family="Times,serif" font-size="14.00"> ArrangeBy (#0)</text>
</g>
<!-- node4&#45;&gt;node6 -->
<g id="edge5" class="edge">
<title>node4&#45;&gt;node6</title>
<path fill="none" stroke="black" d="M566.72,-472.32C555.56,-458.74 542.54,-442.9 530.79,-428.6"/>
<polygon fill="black" stroke="black" points="533.46,-426.35 524.41,-420.84 528.06,-430.79 533.46,-426.35"/>
<text text-anchor="start" x="551" y="-442.8" font-family="Times,serif" font-size="14.00">%4</text>
</g>
<!-- node10 -->
<g id="node11" class="node">
<title>node10</title>
<polygon fill="none" stroke="black" points="532,-280.5 532,-333.5 760,-333.5 760,-280.5 532,-280.5"/>
<text text-anchor="start" x="540" y="-318.3" font-family="Times,serif" font-size="14.00">Get %4 (l1)</text>
<text text-anchor="start" x="540" y="-303.3" font-family="Times,serif" font-size="14.00"> Filter (#0 &gt; #2)</text>
<text text-anchor="start" x="540" y="-288.3" font-family="Times,serif" font-size="14.00"> Project (#0, #1, #1, #2, #1)</text>
</g>
<!-- node4&#45;&gt;node10 -->
<g id="edge14" class="edge">
<title>node4&#45;&gt;node10</title>
<path fill="none" stroke="black" d="M602.7,-472.44C612.11,-436.71 627.05,-379.97 636.69,-343.37"/>
<polygon fill="black" stroke="black" points="640.1,-344.17 639.26,-333.61 633.33,-342.39 640.1,-344.17"/>
<text text-anchor="start" x="611" y="-442.8" font-family="Times,serif" font-size="14.00">%4</text>
</g>
<!-- node7 -->
<g id="node8" class="node">
<title>node7</title>
<polygon fill="none" stroke="black" points="305,-178.5 305,-261.5 631,-261.5 631,-178.5 305,-178.5"/>
<text text-anchor="start" x="313" y="-246.3" font-family="Times,serif" font-size="14.00">Join %5 %6 (= #1 #3)</text>
<text text-anchor="start" x="313" y="-231.3" font-family="Times,serif" font-size="14.00"> implementation = Differential %5 %6.(#0)</text>
<text text-anchor="start" x="313" y="-216.3" font-family="Times,serif" font-size="14.00"> Project (#0..#2)</text>
<text text-anchor="start" x="313" y="-201.3" font-family="Times,serif" font-size="14.00"> Negate</text>
<text text-anchor="start" x="313" y="-186.3" font-family="Times,serif" font-size="14.00"> Project (#0, #1, #1, #2)</text>
</g>
<!-- node5&#45;&gt;node7 -->
<g id="edge1" class="edge">
<title>node5&#45;&gt;node7</title>
<path fill="none" stroke="black" d="M323.72,-359.8C349.02,-335.45 387.65,-298.3 418.56,-268.56"/>
<polygon fill="black" stroke="black" points="421.06,-271.01 425.84,-261.56 416.21,-265.97 421.06,-271.01"/>
<text text-anchor="start" x="403" y="-303.3" font-family="Times,serif" font-size="14.00">%5</text>
</g>
<!-- node8 -->
<g id="node9" class="node">
<title>node8</title>
<polygon fill="none" stroke="black" points="89,-201 89,-239 287,-239 287,-201 89,-201"/>
<text text-anchor="start" x="97" y="-223.8" font-family="Times,serif" font-size="14.00">Get %5 (l2)</text>
<text text-anchor="start" x="97" y="-208.8" font-family="Times,serif" font-size="14.00"> Project (#0, #1, #1, #2)</text>
</g>
<!-- node5&#45;&gt;node8 -->
<g id="edge8" class="edge">
<title>node5&#45;&gt;node8</title>
<path fill="none" stroke="black" d="M279.97,-359.8C259.81,-329.37 226.38,-278.92 205.86,-247.95"/>
<polygon fill="black" stroke="black" points="208.63,-245.79 200.19,-239.39 202.79,-249.66 208.63,-245.79"/>
<text text-anchor="start" x="262" y="-303.3" font-family="Times,serif" font-size="14.00">%5</text>
</g>
<!-- node6&#45;&gt;node7 -->
<g id="edge7" class="edge">
<title>node6&#45;&gt;node7</title>
<path fill="none" stroke="black" d="M491.13,-352.21C487.05,-329.09 481.55,-297.85 476.93,-271.65"/>
<polygon fill="black" stroke="black" points="480.33,-270.75 475.14,-261.51 473.43,-271.97 480.33,-270.75"/>
<text text-anchor="start" x="487" y="-303.3" font-family="Times,serif" font-size="14.00">%6</text>
</g>
<!-- node9 -->
<g id="node10" class="node">
<title>node9</title>
<polygon fill="none" stroke="black" points="411.5,-88.5 411.5,-126.5 524.5,-126.5 524.5,-88.5 411.5,-88.5"/>
<text text-anchor="start" x="419.5" y="-111.3" font-family="Times,serif" font-size="14.00">Union %7 %8</text>
<text text-anchor="start" x="419.5" y="-96.3" font-family="Times,serif" font-size="14.00"> Map null</text>
</g>
<!-- node7&#45;&gt;node9 -->
<g id="edge11" class="edge">
<title>node7&#45;&gt;node9</title>
<path fill="none" stroke="black" d="M468,-178.48C468,-164.76 468,-149.73 468,-137.13"/>
<polygon fill="black" stroke="black" points="471.5,-136.78 468,-126.78 464.5,-136.78 471.5,-136.78"/>
<text text-anchor="start" x="468" y="-148.8" font-family="Times,serif" font-size="14.00">%7</text>
</g>
<!-- node8&#45;&gt;node9 -->
<g id="edge4" class="edge">
<title>node8&#45;&gt;node9</title>
<path fill="none" stroke="black" d="M233.92,-200.88C282.85,-181.57 360.31,-151 412.6,-130.36"/>
<polygon fill="black" stroke="black" points="414.04,-133.56 422.05,-126.63 411.47,-127.05 414.04,-133.56"/>
<text text-anchor="start" x="370" y="-148.8" font-family="Times,serif" font-size="14.00">%8</text>
</g>
<!-- node11 -->
<g id="node12" class="node">
<title>node11</title>
<polygon fill="none" stroke="black" points="503,-0.5 503,-36.5 625,-36.5 625,-0.5 503,-0.5"/>
<text text-anchor="start" x="511" y="-14.8" font-family="Times,serif" font-size="14.00">Union %9 %10</text>
</g>
<!-- node9&#45;&gt;node11 -->
<g id="edge13" class="edge">
<title>node9&#45;&gt;node11</title>
<path fill="none" stroke="black" d="M487.89,-88.47C502.2,-75.5 521.66,-57.87 537.32,-43.68"/>
<polygon fill="black" stroke="black" points="540.05,-45.92 545.11,-36.62 535.35,-40.74 540.05,-45.92"/>
<text text-anchor="start" x="524" y="-58.8" font-family="Times,serif" font-size="14.00">%9</text>
</g>
<!-- node10&#45;&gt;node11 -->
<g id="edge3" class="edge">
<title>node10&#45;&gt;node11</title>
<path fill="none" stroke="black" d="M647.77,-280.06C648.87,-253.89 648.7,-212.51 640,-178 627.49,-128.39 598.77,-75.78 580.44,-45.37"/>
<polygon fill="black" stroke="black" points="583.32,-43.38 575.11,-36.68 577.35,-47.04 583.32,-43.38"/>
<text text-anchor="start" x="634" y="-148.8" font-family="Times,serif" font-size="14.00">%10</text>
</g>
</g>
</svg>
