<?xml version="1.0" encoding="UTF-8" standalone="no"?>
<!DOCTYPE svg PUBLIC "-//W3C//DTD SVG 1.1//EN"
 "http://www.w3.org/Graphics/SVG/1.1/DTD/svg11.dtd">
<!-- Generated by graphviz version 2.43.0 (0)
 -->
<!-- Title: G Pages: 1 -->
<svg width="1725pt" height="2360pt"
 viewBox="0.00 0.00 1724.50 2360.00" xmlns="http://www.w3.org/2000/svg" xmlns:xlink="http://www.w3.org/1999/xlink">
<g id="graph0" class="graph" transform="scale(1 1) rotate(0) translate(4 2356)">
<title>G</title>
<polygon fill="white" stroke="transparent" points="-4,4 -4,-2356 1720.5,-2356 1720.5,4 -4,4"/>
<!-- node0 -->
<g id="node1" class="node">
<title>node0</title>
<polygon fill="none" stroke="black" points="770,-2208.5 770,-2351.5 1058,-2351.5 1058,-2208.5 770,-2208.5"/>
<text text-anchor="start" x="778" y="-2336.3" font-family="Times,serif" font-size="14.00">Get simplify_outer_joins.public.l (u95)</text>
<text text-anchor="start" x="778" y="-2321.3" font-family="Times,serif" font-size="14.00"> types = (integer?, integer?)</text>
<text text-anchor="start" x="778" y="-2306.3" font-family="Times,serif" font-size="14.00"> keys = ()</text>
<text text-anchor="start" x="778" y="-2291.3" font-family="Times,serif" font-size="14.00"> Filter !(isnull(#1))</text>
<text text-anchor="start" x="778" y="-2276.3" font-family="Times,serif" font-size="14.00"> types = (integer?, integer)</text>
<text text-anchor="start" x="778" y="-2261.3" font-family="Times,serif" font-size="14.00"> keys = ()</text>
<text text-anchor="start" x="778" y="-2246.3" font-family="Times,serif" font-size="14.00"> ArrangeBy (#1)</text>
<text text-anchor="start" x="778" y="-2231.3" font-family="Times,serif" font-size="14.00"> types = (integer?, integer)</text>
<text text-anchor="start" x="778" y="-2216.3" font-family="Times,serif" font-size="14.00"> keys = ()</text>
</g>
<!-- node2 -->
<g id="node3" class="node">
<title>node2</title>
<polygon fill="none" stroke="black" points="902,-2028.5 902,-2156.5 1232,-2156.5 1232,-2028.5 902,-2028.5"/>
<text text-anchor="start" x="910" y="-2141.3" font-family="Times,serif" font-size="14.00">Let l0 =</text>
<text text-anchor="start" x="910" y="-2126.3" font-family="Times,serif" font-size="14.00"> Join %0 %1 (= #1 #2)</text>
<text text-anchor="start" x="910" y="-2111.3" font-family="Times,serif" font-size="14.00"> implementation = Differential %1 %0.(#1)</text>
<text text-anchor="start" x="910" y="-2096.3" font-family="Times,serif" font-size="14.00"> types = (integer?, integer, integer, integer)</text>
<text text-anchor="start" x="910" y="-2081.3" font-family="Times,serif" font-size="14.00"> keys = ()</text>
<text text-anchor="start" x="910" y="-2066.3" font-family="Times,serif" font-size="14.00"> Project (#0, #1, #3)</text>
<text text-anchor="start" x="910" y="-2051.3" font-family="Times,serif" font-size="14.00"> types = (integer?, integer, integer)</text>
<text text-anchor="start" x="910" y="-2036.3" font-family="Times,serif" font-size="14.00"> keys = ()</text>
</g>
<!-- node0&#45;&gt;node2 -->
<g id="edge22" class="edge">
<title>node0&#45;&gt;node2</title>
<path fill="none" stroke="black" d="M972.28,-2208.34C984.11,-2194 996.55,-2178.91 1008.39,-2164.56"/>
<polygon fill="black" stroke="black" points="1011.24,-2166.61 1014.9,-2156.67 1005.84,-2162.16 1011.24,-2166.61"/>
<text text-anchor="start" x="1000" y="-2178.8" font-family="Times,serif" font-size="14.00">%0</text>
</g>
<!-- node1 -->
<g id="node2" class="node">
<title>node1</title>
<polygon fill="none" stroke="black" points="1076,-2231 1076,-2329 1366,-2329 1366,-2231 1076,-2231"/>
<text text-anchor="start" x="1084" y="-2313.8" font-family="Times,serif" font-size="14.00">Get simplify_outer_joins.public.r (u97)</text>
<text text-anchor="start" x="1084" y="-2298.8" font-family="Times,serif" font-size="14.00"> types = (integer?, integer)</text>
<text text-anchor="start" x="1084" y="-2283.8" font-family="Times,serif" font-size="14.00"> keys = ()</text>
<text text-anchor="start" x="1084" y="-2268.8" font-family="Times,serif" font-size="14.00"> Filter !(isnull(#0))</text>
<text text-anchor="start" x="1084" y="-2253.8" font-family="Times,serif" font-size="14.00"> types = (integer, integer)</text>
<text text-anchor="start" x="1084" y="-2238.8" font-family="Times,serif" font-size="14.00"> keys = ()</text>
</g>
<!-- node1&#45;&gt;node2 -->
<g id="edge15" class="edge">
<title>node1&#45;&gt;node2</title>
<path fill="none" stroke="black" d="M1180.94,-2230.75C1164.12,-2210.48 1144.22,-2186.51 1125.79,-2164.31"/>
<polygon fill="black" stroke="black" points="1128.42,-2162 1119.34,-2156.55 1123.03,-2166.48 1128.42,-2162"/>
<text text-anchor="start" x="1144" y="-2178.8" font-family="Times,serif" font-size="14.00">%1</text>
</g>
<!-- node3 -->
<g id="node4" class="node">
<title>node3</title>
<polygon fill="none" stroke="black" points="686.5,-1773.5 686.5,-1976.5 957.5,-1976.5 957.5,-1773.5 686.5,-1773.5"/>
<text text-anchor="start" x="694.5" y="-1961.3" font-family="Times,serif" font-size="14.00">Let l1 =</text>
<text text-anchor="start" x="694.5" y="-1946.3" font-family="Times,serif" font-size="14.00"> Get %2 (l0)</text>
<text text-anchor="start" x="694.5" y="-1931.3" font-family="Times,serif" font-size="14.00"> types = (integer?, integer, integer)</text>
<text text-anchor="start" x="694.5" y="-1916.3" font-family="Times,serif" font-size="14.00"> keys = ()</text>
<text text-anchor="start" x="694.5" y="-1901.3" font-family="Times,serif" font-size="14.00"> Project (#1)</text>
<text text-anchor="start" x="694.5" y="-1886.3" font-family="Times,serif" font-size="14.00"> types = (integer)</text>
<text text-anchor="start" x="694.5" y="-1871.3" font-family="Times,serif" font-size="14.00"> keys = ()</text>
<text text-anchor="start" x="694.5" y="-1856.3" font-family="Times,serif" font-size="14.00"> Distinct group=(#0)</text>
<text text-anchor="start" x="694.5" y="-1841.3" font-family="Times,serif" font-size="14.00"> types = (integer)</text>
<text text-anchor="start" x="694.5" y="-1826.3" font-family="Times,serif" font-size="14.00"> keys = ((#0))</text>
<text text-anchor="start" x="694.5" y="-1811.3" font-family="Times,serif" font-size="14.00"> ArrangeBy (#0)</text>
<text text-anchor="start" x="694.5" y="-1796.3" font-family="Times,serif" font-size="14.00"> types = (integer)</text>
<text text-anchor="start" x="694.5" y="-1781.3" font-family="Times,serif" font-size="14.00"> keys = ((#0))</text>
</g>
<!-- node2&#45;&gt;node3 -->
<g id="edge1" class="edge">
<title>node2&#45;&gt;node3</title>
<path fill="none" stroke="black" d="M995.15,-2028.3C979.23,-2014.3 961.93,-1999.08 944.62,-1983.86"/>
<polygon fill="black" stroke="black" points="946.5,-1980.84 936.68,-1976.87 941.87,-1986.1 946.5,-1980.84"/>
<text text-anchor="start" x="974" y="-1998.8" font-family="Times,serif" font-size="14.00">%2</text>
</g>
<!-- node12 -->
<g id="node13" class="node">
<title>node12</title>
<polygon fill="none" stroke="black" points="1148,-1656.5 1148,-1754.5 1478,-1754.5 1478,-1656.5 1148,-1656.5"/>
<text text-anchor="start" x="1156" y="-1739.3" font-family="Times,serif" font-size="14.00">Get %2 (l0)</text>
<text text-anchor="start" x="1156" y="-1724.3" font-family="Times,serif" font-size="14.00"> types = (integer?, integer, integer)</text>
<text text-anchor="start" x="1156" y="-1709.3" font-family="Times,serif" font-size="14.00"> keys = ()</text>
<text text-anchor="start" x="1156" y="-1694.3" font-family="Times,serif" font-size="14.00"> Project (#0, #1, #1, #2)</text>
<text text-anchor="start" x="1156" y="-1679.3" font-family="Times,serif" font-size="14.00"> types = (integer?, integer, integer, integer)</text>
<text text-anchor="start" x="1156" y="-1664.3" font-family="Times,serif" font-size="14.00"> keys = ()</text>
</g>
<!-- node2&#45;&gt;node12 -->
<g id="edge19" class="edge">
<title>node2&#45;&gt;node12</title>
<path fill="none" stroke="black" d="M1219.8,-2028.43C1240.3,-2014.21 1259.03,-1997.19 1273,-1977 1316.44,-1914.2 1321.08,-1823.54 1318.53,-1764.81"/>
<polygon fill="black" stroke="black" points="1322.02,-1764.39 1318,-1754.59 1315.03,-1764.76 1322.02,-1764.39"/>
<text text-anchor="start" x="1255" y="-1998.8" font-family="Times,serif" font-size="14.00">%2</text>
</g>
<!-- node5 -->
<g id="node6" class="node">
<title>node5</title>
<polygon fill="none" stroke="black" points="308,-1479.5 308,-1637.5 634,-1637.5 634,-1479.5 308,-1479.5"/>
<text text-anchor="start" x="316" y="-1622.3" font-family="Times,serif" font-size="14.00">Join %4 %3 (= #0 #2)</text>
<text text-anchor="start" x="316" y="-1607.3" font-family="Times,serif" font-size="14.00"> implementation = Differential %4 %3.(#0)</text>
<text text-anchor="start" x="316" y="-1592.3" font-family="Times,serif" font-size="14.00"> types = (integer?, integer, integer)</text>
<text text-anchor="start" x="316" y="-1577.3" font-family="Times,serif" font-size="14.00"> keys = ()</text>
<text text-anchor="start" x="316" y="-1562.3" font-family="Times,serif" font-size="14.00"> Project (#0, #1)</text>
<text text-anchor="start" x="316" y="-1547.3" font-family="Times,serif" font-size="14.00"> types = (integer?, integer)</text>
<text text-anchor="start" x="316" y="-1532.3" font-family="Times,serif" font-size="14.00"> keys = ()</text>
<text text-anchor="start" x="316" y="-1517.3" font-family="Times,serif" font-size="14.00"> Negate</text>
<text text-anchor="start" x="316" y="-1502.3" font-family="Times,serif" font-size="14.00"> types = (integer?, integer)</text>
<text text-anchor="start" x="316" y="-1487.3" font-family="Times,serif" font-size="14.00"> keys = ()</text>
</g>
<!-- node3&#45;&gt;node5 -->
<g id="edge14" class="edge">
<title>node3&#45;&gt;node5</title>
<path fill="none" stroke="black" d="M709.49,-1773.19C663.15,-1731.67 610.04,-1684.08 565.73,-1644.38"/>
<polygon fill="black" stroke="black" points="567.91,-1641.63 558.13,-1637.57 563.24,-1646.85 567.91,-1641.63"/>
<text text-anchor="start" x="689" y="-1701.8" font-family="Times,serif" font-size="14.00">%3</text>
</g>
<!-- node9 -->
<g id="node10" class="node">
<title>node9</title>
<polygon fill="none" stroke="black" points="958,-1479.5 958,-1637.5 1284,-1637.5 1284,-1479.5 958,-1479.5"/>
<text text-anchor="start" x="966" y="-1622.3" font-family="Times,serif" font-size="14.00">Join %8 %3 (= #1 #2)</text>
<text text-anchor="start" x="966" y="-1607.3" font-family="Times,serif" font-size="14.00"> implementation = Differential %8 %3.(#0)</text>
<text text-anchor="start" x="966" y="-1592.3" font-family="Times,serif" font-size="14.00"> types = (integer?, integer?, integer)</text>
<text text-anchor="start" x="966" y="-1577.3" font-family="Times,serif" font-size="14.00"> keys = ()</text>
<text text-anchor="start" x="966" y="-1562.3" font-family="Times,serif" font-size="14.00"> Project (#0, #1)</text>
<text text-anchor="start" x="966" y="-1547.3" font-family="Times,serif" font-size="14.00"> types = (integer?, integer?)</text>
<text text-anchor="start" x="966" y="-1532.3" font-family="Times,serif" font-size="14.00"> keys = ()</text>
<text text-anchor="start" x="966" y="-1517.3" font-family="Times,serif" font-size="14.00"> Negate</text>
<text text-anchor="start" x="966" y="-1502.3" font-family="Times,serif" font-size="14.00"> types = (integer?, integer?)</text>
<text text-anchor="start" x="966" y="-1487.3" font-family="Times,serif" font-size="14.00"> keys = ()</text>
</g>
<!-- node3&#45;&gt;node9 -->
<g id="edge12" class="edge">
<title>node3&#45;&gt;node9</title>
<path fill="none" stroke="black" d="M917.84,-1773.19C957.16,-1731.84 1002.18,-1684.48 1039.84,-1644.87"/>
<polygon fill="black" stroke="black" points="1042.43,-1647.23 1046.78,-1637.57 1037.35,-1642.4 1042.43,-1647.23"/>
<text text-anchor="start" x="1025" y="-1701.8" font-family="Times,serif" font-size="14.00">%3</text>
</g>
<!-- node4 -->
<g id="node5" class="node">
<title>node4</title>
<polygon fill="none" stroke="black" points="326,-1848.5 326,-1901.5 616,-1901.5 616,-1848.5 326,-1848.5"/>
<text text-anchor="start" x="334" y="-1886.3" font-family="Times,serif" font-size="14.00">Get simplify_outer_joins.public.r (u97)</text>
<text text-anchor="start" x="334" y="-1871.3" font-family="Times,serif" font-size="14.00"> types = (integer?, integer)</text>
<text text-anchor="start" x="334" y="-1856.3" font-family="Times,serif" font-size="14.00"> keys = ()</text>
</g>
<!-- node4&#45;&gt;node5 -->
<g id="edge2" class="edge">
<title>node4&#45;&gt;node5</title>
<path fill="none" stroke="black" d="M471,-1848.26C471,-1805.01 471,-1715.8 471,-1647.92"/>
<polygon fill="black" stroke="black" points="474.5,-1647.64 471,-1637.64 467.5,-1647.64 474.5,-1647.64"/>
<text text-anchor="start" x="471" y="-1701.8" font-family="Times,serif" font-size="14.00">%4</text>
</g>
<!-- node7 -->
<g id="node8" class="node">
<title>node7</title>
<polygon fill="none" stroke="black" points="297,-1284.5 297,-1427.5 645,-1427.5 645,-1284.5 297,-1284.5"/>
<text text-anchor="start" x="305" y="-1412.3" font-family="Times,serif" font-size="14.00">Union %5 %6</text>
<text text-anchor="start" x="305" y="-1397.3" font-family="Times,serif" font-size="14.00"> types = (integer?, integer)</text>
<text text-anchor="start" x="305" y="-1382.3" font-family="Times,serif" font-size="14.00"> keys = ()</text>
<text text-anchor="start" x="305" y="-1367.3" font-family="Times,serif" font-size="14.00"> Map null, null</text>
<text text-anchor="start" x="305" y="-1352.3" font-family="Times,serif" font-size="14.00"> types = (integer?, integer, integer?, integer?)</text>
<text text-anchor="start" x="305" y="-1337.3" font-family="Times,serif" font-size="14.00"> keys = ()</text>
<text text-anchor="start" x="305" y="-1322.3" font-family="Times,serif" font-size="14.00"> Project (#2, #3, #0, #1)</text>
<text text-anchor="start" x="305" y="-1307.3" font-family="Times,serif" font-size="14.00"> types = (integer?, integer?, integer?, integer)</text>
<text text-anchor="start" x="305" y="-1292.3" font-family="Times,serif" font-size="14.00"> keys = ()</text>
</g>
<!-- node5&#45;&gt;node7 -->
<g id="edge11" class="edge">
<title>node5&#45;&gt;node7</title>
<path fill="none" stroke="black" d="M471,-1479.41C471,-1465.83 471,-1451.67 471,-1438.02"/>
<polygon fill="black" stroke="black" points="474.5,-1437.69 471,-1427.69 467.5,-1437.69 474.5,-1437.69"/>
<text text-anchor="start" x="471" y="-1449.8" font-family="Times,serif" font-size="14.00">%5</text>
</g>
<!-- node6 -->
<g id="node7" class="node">
<title>node6</title>
<polygon fill="none" stroke="black" points="0,-1532 0,-1585 290,-1585 290,-1532 0,-1532"/>
<text text-anchor="start" x="8" y="-1569.8" font-family="Times,serif" font-size="14.00">Get simplify_outer_joins.public.r (u97)</text>
<text text-anchor="start" x="8" y="-1554.8" font-family="Times,serif" font-size="14.00"> types = (integer?, integer)</text>
<text text-anchor="start" x="8" y="-1539.8" font-family="Times,serif" font-size="14.00"> keys = ()</text>
</g>
<!-- node6&#45;&gt;node7 -->
<g id="edge25" class="edge">
<title>node6&#45;&gt;node7</title>
<path fill="none" stroke="black" d="M186.62,-1531.9C227.11,-1507 290.66,-1467.92 347.42,-1433.01"/>
<polygon fill="black" stroke="black" points="349.42,-1435.89 356.1,-1427.67 345.75,-1429.92 349.42,-1435.89"/>
<text text-anchor="start" x="318" y="-1449.8" font-family="Times,serif" font-size="14.00">%6</text>
</g>
<!-- node13 -->
<g id="node14" class="node">
<title>node13</title>
<polygon fill="none" stroke="black" points="796,-1164.5 796,-1232.5 1152,-1232.5 1152,-1164.5 796,-1164.5"/>
<text text-anchor="start" x="804" y="-1217.3" font-family="Times,serif" font-size="14.00">Let l2 =</text>
<text text-anchor="start" x="804" y="-1202.3" font-family="Times,serif" font-size="14.00"> Union %7 %11 %12</text>
<text text-anchor="start" x="804" y="-1187.3" font-family="Times,serif" font-size="14.00"> types = (integer?, integer?, integer?, integer?)</text>
<text text-anchor="start" x="804" y="-1172.3" font-family="Times,serif" font-size="14.00"> keys = ()</text>
</g>
<!-- node7&#45;&gt;node13 -->
<g id="edge24" class="edge">
<title>node7&#45;&gt;node13</title>
<path fill="none" stroke="black" d="M645.16,-1301.16C715.36,-1279.46 794.46,-1255 857.49,-1235.52"/>
<polygon fill="black" stroke="black" points="858.55,-1238.85 867.07,-1232.56 856.48,-1232.17 858.55,-1238.85"/>
<text text-anchor="start" x="797" y="-1254.8" font-family="Times,serif" font-size="14.00">%7</text>
</g>
<!-- node8 -->
<g id="node9" class="node">
<title>node8</title>
<polygon fill="none" stroke="black" points="976,-1848.5 976,-1901.5 1264,-1901.5 1264,-1848.5 976,-1848.5"/>
<text text-anchor="start" x="984" y="-1886.3" font-family="Times,serif" font-size="14.00">Get simplify_outer_joins.public.l (u95)</text>
<text text-anchor="start" x="984" y="-1871.3" font-family="Times,serif" font-size="14.00"> types = (integer?, integer?)</text>
<text text-anchor="start" x="984" y="-1856.3" font-family="Times,serif" font-size="14.00"> keys = ()</text>
</g>
<!-- node8&#45;&gt;node9 -->
<g id="edge13" class="edge">
<title>node8&#45;&gt;node9</title>
<path fill="none" stroke="black" d="M1118.8,-1848.49C1117.05,-1807.78 1114.2,-1725.63 1116,-1656 1116.07,-1653.3 1116.15,-1650.56 1116.24,-1647.8"/>
<polygon fill="black" stroke="black" points="1119.74,-1647.82 1116.6,-1637.7 1112.75,-1647.56 1119.74,-1647.82"/>
<text text-anchor="start" x="1116" y="-1701.8" font-family="Times,serif" font-size="14.00">%8</text>
</g>
<!-- node11 -->
<g id="node12" class="node">
<title>node11</title>
<polygon fill="none" stroke="black" points="796,-1307 796,-1405 1152,-1405 1152,-1307 796,-1307"/>
<text text-anchor="start" x="804" y="-1389.8" font-family="Times,serif" font-size="14.00">Union %9 %10</text>
<text text-anchor="start" x="804" y="-1374.8" font-family="Times,serif" font-size="14.00"> types = (integer?, integer?)</text>
<text text-anchor="start" x="804" y="-1359.8" font-family="Times,serif" font-size="14.00"> keys = ()</text>
<text text-anchor="start" x="804" y="-1344.8" font-family="Times,serif" font-size="14.00"> Map null, null</text>
<text text-anchor="start" x="804" y="-1329.8" font-family="Times,serif" font-size="14.00"> types = (integer?, integer?, integer?, integer?)</text>
<text text-anchor="start" x="804" y="-1314.8" font-family="Times,serif" font-size="14.00"> keys = ()</text>
</g>
<!-- node9&#45;&gt;node11 -->
<g id="edge3" class="edge">
<title>node9&#45;&gt;node11</title>
<path fill="none" stroke="black" d="M1063.75,-1479.41C1047.59,-1457.37 1030.33,-1433.84 1015.31,-1413.35"/>
<polygon fill="black" stroke="black" points="1017.97,-1411.06 1009.24,-1405.06 1012.33,-1415.2 1017.97,-1411.06"/>
<text text-anchor="start" x="1048" y="-1449.8" font-family="Times,serif" font-size="14.00">%9</text>
</g>
<!-- node10 -->
<g id="node11" class="node">
<title>node10</title>
<polygon fill="none" stroke="black" points="652,-1532 652,-1585 940,-1585 940,-1532 652,-1532"/>
<text text-anchor="start" x="660" y="-1569.8" font-family="Times,serif" font-size="14.00">Get simplify_outer_joins.public.l (u95)</text>
<text text-anchor="start" x="660" y="-1554.8" font-family="Times,serif" font-size="14.00"> types = (integer?, integer?)</text>
<text text-anchor="start" x="660" y="-1539.8" font-family="Times,serif" font-size="14.00"> keys = ()</text>
</g>
<!-- node10&#45;&gt;node11 -->
<g id="edge5" class="edge">
<title>node10&#45;&gt;node11</title>
<path fill="none" stroke="black" d="M818.91,-1531.7C845.4,-1501.85 889.8,-1451.84 924.33,-1412.95"/>
<polygon fill="black" stroke="black" points="927.07,-1415.14 931.09,-1405.33 921.83,-1410.49 927.07,-1415.14"/>
<text text-anchor="start" x="891" y="-1449.8" font-family="Times,serif" font-size="14.00">%10</text>
</g>
<!-- node11&#45;&gt;node13 -->
<g id="edge20" class="edge">
<title>node11&#45;&gt;node13</title>
<path fill="none" stroke="black" d="M974,-1306.65C974,-1286.15 974,-1262.46 974,-1242.57"/>
<polygon fill="black" stroke="black" points="977.5,-1242.55 974,-1232.55 970.5,-1242.55 977.5,-1242.55"/>
<text text-anchor="start" x="974" y="-1254.8" font-family="Times,serif" font-size="14.00">%11</text>
</g>
<!-- node12&#45;&gt;node13 -->
<g id="edge4" class="edge">
<title>node12&#45;&gt;node13</title>
<path fill="none" stroke="black" d="M1315.6,-1656.38C1316.55,-1609.69 1313.81,-1537.51 1293,-1479 1257.92,-1380.4 1241.04,-1351.43 1161,-1284 1138.23,-1264.82 1110.41,-1249.16 1083.25,-1236.76"/>
<polygon fill="black" stroke="black" points="1084.63,-1233.55 1074.08,-1232.69 1081.79,-1239.95 1084.63,-1233.55"/>
<text text-anchor="start" x="1286" y="-1449.8" font-family="Times,serif" font-size="14.00">%12</text>
</g>
<!-- node14 -->
<g id="node15" class="node">
<title>node14</title>
<polygon fill="none" stroke="black" points="1294,-1014.5 1294,-1112.5 1650,-1112.5 1650,-1014.5 1294,-1014.5"/>
<text text-anchor="start" x="1302" y="-1097.3" font-family="Times,serif" font-size="14.00">Get %13 (l2)</text>
<text text-anchor="start" x="1302" y="-1082.3" font-family="Times,serif" font-size="14.00"> types = (integer?, integer?, integer?, integer?)</text>
<text text-anchor="start" x="1302" y="-1067.3" font-family="Times,serif" font-size="14.00"> keys = ()</text>
<text text-anchor="start" x="1302" y="-1052.3" font-family="Times,serif" font-size="14.00"> Filter !(isnull(#1))</text>
<text text-anchor="start" x="1302" y="-1037.3" font-family="Times,serif" font-size="14.00"> types = (integer?, integer, integer?, integer?)</text>
<text text-anchor="start" x="1302" y="-1022.3" font-family="Times,serif" font-size="14.00"> keys = ()</text>
</g>
<!-- node13&#45;&gt;node14 -->
<g id="edge27" class="edge">
<title>node13&#45;&gt;node14</title>
<path fill="none" stroke="black" d="M1097.74,-1164.45C1153.93,-1149.45 1221.63,-1131.37 1283.91,-1114.73"/>
<polygon fill="black" stroke="black" points="1285.1,-1118.04 1293.86,-1112.08 1283.29,-1111.27 1285.1,-1118.04"/>
<text text-anchor="start" x="1223" y="-1134.8" font-family="Times,serif" font-size="14.00">%13</text>
</g>
<!-- node17 -->
<g id="node18" class="node">
<title>node17</title>
<polygon fill="none" stroke="black" points="780,-632 780,-745 1136,-745 1136,-632 780,-632"/>
<text text-anchor="start" x="788" y="-729.8" font-family="Times,serif" font-size="14.00">Let l4 =</text>
<text text-anchor="start" x="788" y="-714.8" font-family="Times,serif" font-size="14.00"> Get %13 (l2)</text>
<text text-anchor="start" x="788" y="-699.8" font-family="Times,serif" font-size="14.00"> types = (integer?, integer?, integer?, integer?)</text>
<text text-anchor="start" x="788" y="-684.8" font-family="Times,serif" font-size="14.00"> keys = ()</text>
<text text-anchor="start" x="788" y="-669.8" font-family="Times,serif" font-size="14.00"> Filter (#0 &gt; #3)</text>
<text text-anchor="start" x="788" y="-654.8" font-family="Times,serif" font-size="14.00"> types = (integer, integer?, integer?, integer)</text>
<text text-anchor="start" x="788" y="-639.8" font-family="Times,serif" font-size="14.00"> keys = ()</text>
</g>
<!-- node13&#45;&gt;node17 -->
<g id="edge23" class="edge">
<title>node13&#45;&gt;node17</title>
<path fill="none" stroke="black" d="M972.95,-1164.17C970.34,-1081.41 963.54,-865.35 960.08,-755.57"/>
<polygon fill="black" stroke="black" points="963.57,-755.17 959.76,-745.29 956.57,-755.39 963.57,-755.17"/>
<text text-anchor="start" x="968" y="-984.8" font-family="Times,serif" font-size="14.00">%13</text>
</g>
<!-- node16 -->
<g id="node17" class="node">
<title>node16</title>
<polygon fill="none" stroke="black" points="1173.5,-834.5 1173.5,-962.5 1588.5,-962.5 1588.5,-834.5 1173.5,-834.5"/>
<text text-anchor="start" x="1181.5" y="-947.3" font-family="Times,serif" font-size="14.00">Let l3 =</text>
<text text-anchor="start" x="1181.5" y="-932.3" font-family="Times,serif" font-size="14.00"> Join %14 %15 (= #1 #4)</text>
<text text-anchor="start" x="1181.5" y="-917.3" font-family="Times,serif" font-size="14.00"> implementation = Differential %14 %15.(#0)</text>
<text text-anchor="start" x="1181.5" y="-902.3" font-family="Times,serif" font-size="14.00"> types = (integer?, integer, integer?, integer?, integer?)</text>
<text text-anchor="start" x="1181.5" y="-887.3" font-family="Times,serif" font-size="14.00"> keys = ()</text>
<text text-anchor="start" x="1181.5" y="-872.3" font-family="Times,serif" font-size="14.00"> Project (#0..=#3)</text>
<text text-anchor="start" x="1181.5" y="-857.3" font-family="Times,serif" font-size="14.00"> types = (integer?, integer, integer?, integer?)</text>
<text text-anchor="start" x="1181.5" y="-842.3" font-family="Times,serif" font-size="14.00"> keys = ()</text>
</g>
<!-- node14&#45;&gt;node16 -->
<g id="edge9" class="edge">
<title>node14&#45;&gt;node16</title>
<path fill="none" stroke="black" d="M1445.19,-1014.48C1437.68,-1001.02 1429.34,-986.1 1421.24,-971.57"/>
<polygon fill="black" stroke="black" points="1424.16,-969.63 1416.23,-962.6 1418.05,-973.04 1424.16,-969.63"/>
<text text-anchor="start" x="1434" y="-984.8" font-family="Times,serif" font-size="14.00">%14</text>
</g>
<!-- node15 -->
<g id="node16" class="node">
<title>node15</title>
<polygon fill="none" stroke="black" points="986,-1014.5 986,-1112.5 1276,-1112.5 1276,-1014.5 986,-1014.5"/>
<text text-anchor="start" x="994" y="-1097.3" font-family="Times,serif" font-size="14.00">Get simplify_outer_joins.public.t (u99)</text>
<text text-anchor="start" x="994" y="-1082.3" font-family="Times,serif" font-size="14.00"> types = (integer?)</text>
<text text-anchor="start" x="994" y="-1067.3" font-family="Times,serif" font-size="14.00"> keys = ()</text>
<text text-anchor="start" x="994" y="-1052.3" font-family="Times,serif" font-size="14.00"> ArrangeBy (#0)</text>
<text text-anchor="start" x="994" y="-1037.3" font-family="Times,serif" font-size="14.00"> types = (integer?)</text>
<text text-anchor="start" x="994" y="-1022.3" font-family="Times,serif" font-size="14.00"> keys = ()</text>
</g>
<!-- node15&#45;&gt;node16 -->
<g id="edge7" class="edge">
<title>node15&#45;&gt;node16</title>
<path fill="none" stroke="black" d="M1204.66,-1014.48C1226.95,-999.94 1251.87,-983.69 1275.8,-968.09"/>
<polygon fill="black" stroke="black" points="1277.76,-970.99 1284.22,-962.6 1273.93,-965.13 1277.76,-970.99"/>
<text text-anchor="start" x="1256" y="-984.8" font-family="Times,serif" font-size="14.00">%15</text>
</g>
<!-- node18 -->
<g id="node19" class="node">
<title>node18</title>
<polygon fill="none" stroke="black" points="1153.5,-594.5 1153.5,-782.5 1500.5,-782.5 1500.5,-594.5 1153.5,-594.5"/>
<text text-anchor="start" x="1161.5" y="-767.3" font-family="Times,serif" font-size="14.00">Get %16 (l3)</text>
<text text-anchor="start" x="1161.5" y="-752.3" font-family="Times,serif" font-size="14.00"> types = (integer?, integer, integer?, integer?)</text>
<text text-anchor="start" x="1161.5" y="-737.3" font-family="Times,serif" font-size="14.00"> keys = ()</text>
<text text-anchor="start" x="1161.5" y="-722.3" font-family="Times,serif" font-size="14.00"> Project (#1)</text>
<text text-anchor="start" x="1161.5" y="-707.3" font-family="Times,serif" font-size="14.00"> types = (integer)</text>
<text text-anchor="start" x="1161.5" y="-692.3" font-family="Times,serif" font-size="14.00"> keys = ()</text>
<text text-anchor="start" x="1161.5" y="-677.3" font-family="Times,serif" font-size="14.00"> Distinct group=(#0)</text>
<text text-anchor="start" x="1161.5" y="-662.3" font-family="Times,serif" font-size="14.00"> types = (integer)</text>
<text text-anchor="start" x="1161.5" y="-647.3" font-family="Times,serif" font-size="14.00"> keys = ((#0))</text>
<text text-anchor="start" x="1161.5" y="-632.3" font-family="Times,serif" font-size="14.00"> ArrangeBy (#0)</text>
<text text-anchor="start" x="1161.5" y="-617.3" font-family="Times,serif" font-size="14.00"> types = (integer)</text>
<text text-anchor="start" x="1161.5" y="-602.3" font-family="Times,serif" font-size="14.00"> keys = ((#0))</text>
</g>
<!-- node16&#45;&gt;node18 -->
<g id="edge21" class="edge">
<title>node16&#45;&gt;node18</title>
<path fill="none" stroke="black" d="M1364.58,-834.25C1361.15,-821.04 1357.45,-806.79 1353.76,-792.57"/>
<polygon fill="black" stroke="black" points="1357.11,-791.53 1351.21,-782.73 1350.33,-793.29 1357.11,-791.53"/>
<text text-anchor="start" x="1358" y="-804.8" font-family="Times,serif" font-size="14.00">%16</text>
</g>
<!-- node21 -->
<g id="node22" class="node">
<title>node21</title>
<polygon fill="none" stroke="black" points="1327.5,-432.5 1327.5,-575.5 1716.5,-575.5 1716.5,-432.5 1327.5,-432.5"/>
<text text-anchor="start" x="1335.5" y="-560.3" font-family="Times,serif" font-size="14.00">Get %16 (l3)</text>
<text text-anchor="start" x="1335.5" y="-545.3" font-family="Times,serif" font-size="14.00"> types = (integer?, integer, integer?, integer?)</text>
<text text-anchor="start" x="1335.5" y="-530.3" font-family="Times,serif" font-size="14.00"> keys = ()</text>
<text text-anchor="start" x="1335.5" y="-515.3" font-family="Times,serif" font-size="14.00"> Filter (#0 &gt; #3)</text>
<text text-anchor="start" x="1335.5" y="-500.3" font-family="Times,serif" font-size="14.00"> types = (integer, integer, integer?, integer)</text>
<text text-anchor="start" x="1335.5" y="-485.3" font-family="Times,serif" font-size="14.00"> keys = ()</text>
<text text-anchor="start" x="1335.5" y="-470.3" font-family="Times,serif" font-size="14.00"> Project (#0..=#3, #1)</text>
<text text-anchor="start" x="1335.5" y="-455.3" font-family="Times,serif" font-size="14.00"> types = (integer, integer, integer?, integer, integer)</text>
<text text-anchor="start" x="1335.5" y="-440.3" font-family="Times,serif" font-size="14.00"> keys = ()</text>
</g>
<!-- node16&#45;&gt;node21 -->
<g id="edge17" class="edge">
<title>node16&#45;&gt;node21</title>
<path fill="none" stroke="black" d="M1471.75,-834.3C1487.07,-819.31 1500.93,-802.06 1510,-783 1539.22,-721.58 1539.93,-643.63 1534.65,-585.91"/>
<polygon fill="black" stroke="black" points="1538.11,-585.34 1533.64,-575.74 1531.14,-586.04 1538.11,-585.34"/>
<text text-anchor="start" x="1498" y="-804.8" font-family="Times,serif" font-size="14.00">%16</text>
</g>
<!-- node19 -->
<g id="node20" class="node">
<title>node19</title>
<polygon fill="none" stroke="black" points="1074,-255.5 1074,-413.5 1472,-413.5 1472,-255.5 1074,-255.5"/>
<text text-anchor="start" x="1082" y="-398.3" font-family="Times,serif" font-size="14.00">Join %17 %18 (= #1 #4)</text>
<text text-anchor="start" x="1082" y="-383.3" font-family="Times,serif" font-size="14.00"> implementation = Differential %17 %18.(#0)</text>
<text text-anchor="start" x="1082" y="-368.3" font-family="Times,serif" font-size="14.00"> types = (integer, integer?, integer?, integer, integer)</text>
<text text-anchor="start" x="1082" y="-353.3" font-family="Times,serif" font-size="14.00"> keys = ()</text>
<text text-anchor="start" x="1082" y="-338.3" font-family="Times,serif" font-size="14.00"> Project (#0..=#3)</text>
<text text-anchor="start" x="1082" y="-323.3" font-family="Times,serif" font-size="14.00"> types = (integer, integer?, integer?, integer)</text>
<text text-anchor="start" x="1082" y="-308.3" font-family="Times,serif" font-size="14.00"> keys = ()</text>
<text text-anchor="start" x="1082" y="-293.3" font-family="Times,serif" font-size="14.00"> Negate</text>
<text text-anchor="start" x="1082" y="-278.3" font-family="Times,serif" font-size="14.00"> types = (integer, integer?, integer?, integer)</text>
<text text-anchor="start" x="1082" y="-263.3" font-family="Times,serif" font-size="14.00"> keys = ()</text>
</g>
<!-- node17&#45;&gt;node19 -->
<g id="edge10" class="edge">
<title>node17&#45;&gt;node19</title>
<path fill="none" stroke="black" d="M1007.91,-631.72C1058.61,-575.07 1137.8,-486.59 1196.43,-421.06"/>
<polygon fill="black" stroke="black" points="1199.06,-423.38 1203.12,-413.59 1193.84,-418.71 1199.06,-423.38"/>
<text text-anchor="start" x="1180" y="-500.3" font-family="Times,serif" font-size="14.00">%17</text>
</g>
<!-- node20 -->
<g id="node21" class="node">
<title>node20</title>
<polygon fill="none" stroke="black" points="1070,-105.5 1070,-203.5 1476,-203.5 1476,-105.5 1070,-105.5"/>
<text text-anchor="start" x="1078" y="-188.3" font-family="Times,serif" font-size="14.00">Union %19 %17</text>
<text text-anchor="start" x="1078" y="-173.3" font-family="Times,serif" font-size="14.00"> types = (integer, integer?, integer?, integer)</text>
<text text-anchor="start" x="1078" y="-158.3" font-family="Times,serif" font-size="14.00"> keys = ()</text>
<text text-anchor="start" x="1078" y="-143.3" font-family="Times,serif" font-size="14.00"> Map null</text>
<text text-anchor="start" x="1078" y="-128.3" font-family="Times,serif" font-size="14.00"> types = (integer, integer?, integer?, integer, integer?)</text>
<text text-anchor="start" x="1078" y="-113.3" font-family="Times,serif" font-size="14.00"> keys = ()</text>
</g>
<!-- node17&#45;&gt;node20 -->
<g id="edge26" class="edge">
<title>node17&#45;&gt;node20</title>
<path fill="none" stroke="black" d="M951.81,-631.92C944.98,-542.41 944.81,-365.24 1033,-255 1048.04,-236.19 1067.25,-220.9 1088.24,-208.48"/>
<polygon fill="black" stroke="black" points="1090.03,-211.49 1097,-203.51 1086.58,-205.4 1090.03,-211.49"/>
<text text-anchor="start" x="1033" y="-330.8" font-family="Times,serif" font-size="14.00">%17</text>
</g>
<!-- node18&#45;&gt;node19 -->
<g id="edge6" class="edge">
<title>node18&#45;&gt;node19</title>
<path fill="none" stroke="black" d="M1291.4,-594.37C1289.73,-588.2 1288.23,-582.05 1287,-576 1276.85,-526.28 1273.18,-469.67 1272.12,-423.87"/>
<polygon fill="black" stroke="black" points="1275.62,-423.6 1271.93,-413.67 1268.62,-423.74 1275.62,-423.6"/>
<text text-anchor="start" x="1287" y="-500.3" font-family="Times,serif" font-size="14.00">%18</text>
</g>
<!-- node19&#45;&gt;node20 -->
<g id="edge8" class="edge">
<title>node19&#45;&gt;node20</title>
<path fill="none" stroke="black" d="M1273,-255.43C1273,-241.5 1273,-227.2 1273,-213.94"/>
<polygon fill="black" stroke="black" points="1276.5,-213.55 1273,-203.55 1269.5,-213.55 1276.5,-213.55"/>
<text text-anchor="start" x="1273" y="-225.8" font-family="Times,serif" font-size="14.00">%19</text>
</g>
<!-- node22 -->
<g id="node23" class="node">
<title>node22</title>
<polygon fill="none" stroke="black" points="1194,-0.5 1194,-53.5 1600,-53.5 1600,-0.5 1194,-0.5"/>
<text text-anchor="start" x="1202" y="-38.3" font-family="Times,serif" font-size="14.00">Union %20 %21</text>
<text text-anchor="start" x="1202" y="-23.3" font-family="Times,serif" font-size="14.00"> types = (integer, integer?, integer?, integer, integer?)</text>
<text text-anchor="start" x="1202" y="-8.3" font-family="Times,serif" font-size="14.00"> keys = ()</text>
</g>
<!-- node20&#45;&gt;node22 -->
<g id="edge16" class="edge">
<title>node20&#45;&gt;node22</title>
<path fill="none" stroke="black" d="M1320.59,-105.34C1335.22,-90.52 1351,-74.56 1364.39,-61.01"/>
<polygon fill="black" stroke="black" points="1367.02,-63.32 1371.56,-53.75 1362.04,-58.4 1367.02,-63.32"/>
<text text-anchor="start" x="1353" y="-75.8" font-family="Times,serif" font-size="14.00">%20</text>
</g>
<!-- node21&#45;&gt;node22 -->
<g id="edge18" class="edge">
<title>node21&#45;&gt;node22</title>
<path fill="none" stroke="black" d="M1530.6,-432.16C1537.39,-349.02 1538.28,-209.28 1485,-105 1476.12,-87.61 1461.48,-72.42 1446.68,-60.23"/>
<polygon fill="black" stroke="black" points="1448.49,-57.2 1438.47,-53.77 1444.17,-62.7 1448.49,-57.2"/>
<text text-anchor="start" x="1525" y="-225.8" font-family="Times,serif" font-size="14.00">%21</text>
</g>
</g>
</svg>
