<?xml version="1.0" encoding="UTF-8" standalone="no"?>
<!DOCTYPE svg PUBLIC "-//W3C//DTD SVG 1.1//EN"
 "http://www.w3.org/Graphics/SVG/1.1/DTD/svg11.dtd">
<!-- Generated by graphviz version 2.43.0 (0)
 -->
<!-- Title: G Pages: 1 -->
<svg width="1416pt" height="2222pt"
 viewBox="0.00 0.00 1415.50 2222.00" xmlns="http://www.w3.org/2000/svg" xmlns:xlink="http://www.w3.org/1999/xlink">
<g id="graph0" class="graph" transform="scale(1 1) rotate(0) translate(4 2218)">
<title>G</title>
<polygon fill="white" stroke="transparent" points="-4,4 -4,-2218 1411.5,-2218 1411.5,4 -4,4"/>
<!-- node0 -->
<g id="node1" class="node">
<title>node0</title>
<polygon fill="none" stroke="black" points="503.5,-2145.5 503.5,-2213.5 604.5,-2213.5 604.5,-2145.5 503.5,-2145.5"/>
<text text-anchor="start" x="511.5" y="-2198.3" font-family="Times,serif" font-size="14.00">Let l0 =</text>
<text text-anchor="start" x="511.5" y="-2183.3" font-family="Times,serif" font-size="14.00"> Constant ()</text>
<text text-anchor="start" x="511.5" y="-2168.3" font-family="Times,serif" font-size="14.00"> types = ()</text>
<text text-anchor="start" x="511.5" y="-2153.3" font-family="Times,serif" font-size="14.00"> keys = (())</text>
</g>
<!-- node2 -->
<g id="node3" class="node">
<title>node2</title>
<polygon fill="none" stroke="black" points="479.5,-2010.5 479.5,-2093.5 748.5,-2093.5 748.5,-2010.5 479.5,-2010.5"/>
<text text-anchor="start" x="487.5" y="-2078.3" font-family="Times,serif" font-size="14.00">Let l1 =</text>
<text text-anchor="start" x="487.5" y="-2063.3" font-family="Times,serif" font-size="14.00"> Join %0 %1</text>
<text text-anchor="start" x="487.5" y="-2048.3" font-family="Times,serif" font-size="14.00"> implementation = Unimplemented</text>
<text text-anchor="start" x="487.5" y="-2033.3" font-family="Times,serif" font-size="14.00"> types = (integer?, integer?)</text>
<text text-anchor="start" x="487.5" y="-2018.3" font-family="Times,serif" font-size="14.00"> keys = ()</text>
</g>
<!-- node0&#45;&gt;node2 -->
<g id="edge23" class="edge">
<title>node0&#45;&gt;node2</title>
<path fill="none" stroke="black" d="M569.92,-2145.2C576.13,-2132.21 583.38,-2117.05 590.18,-2102.82"/>
<polygon fill="black" stroke="black" points="593.42,-2104.16 594.58,-2093.63 587.11,-2101.14 593.42,-2104.16"/>
<text text-anchor="start" x="584" y="-2115.8" font-family="Times,serif" font-size="14.00">%0</text>
</g>
<!-- node4 -->
<g id="node5" class="node">
<title>node4</title>
<polygon fill="none" stroke="black" points="965.5,-2010.5 965.5,-2093.5 1234.5,-2093.5 1234.5,-2010.5 965.5,-2010.5"/>
<text text-anchor="start" x="973.5" y="-2078.3" font-family="Times,serif" font-size="14.00">Let l2 =</text>
<text text-anchor="start" x="973.5" y="-2063.3" font-family="Times,serif" font-size="14.00"> Join %0 %3</text>
<text text-anchor="start" x="973.5" y="-2048.3" font-family="Times,serif" font-size="14.00"> implementation = Unimplemented</text>
<text text-anchor="start" x="973.5" y="-2033.3" font-family="Times,serif" font-size="14.00"> types = (integer?, integer)</text>
<text text-anchor="start" x="973.5" y="-2018.3" font-family="Times,serif" font-size="14.00"> keys = ()</text>
</g>
<!-- node0&#45;&gt;node4 -->
<g id="edge3" class="edge">
<title>node0&#45;&gt;node4</title>
<path fill="none" stroke="black" d="M604.65,-2148.55C629.78,-2135.11 661.09,-2120.41 691,-2112 776.94,-2087.84 875.96,-2073.23 955.04,-2064.59"/>
<polygon fill="black" stroke="black" points="955.51,-2068.06 965.08,-2063.51 954.76,-2061.1 955.51,-2068.06"/>
<text text-anchor="start" x="691" y="-2115.8" font-family="Times,serif" font-size="14.00">%0</text>
</g>
<!-- node14 -->
<g id="node15" class="node">
<title>node14</title>
<polygon fill="none" stroke="black" points="192.5,-2010.5 192.5,-2093.5 461.5,-2093.5 461.5,-2010.5 192.5,-2010.5"/>
<text text-anchor="start" x="200.5" y="-2078.3" font-family="Times,serif" font-size="14.00">Let l6 =</text>
<text text-anchor="start" x="200.5" y="-2063.3" font-family="Times,serif" font-size="14.00"> Join %0 %13</text>
<text text-anchor="start" x="200.5" y="-2048.3" font-family="Times,serif" font-size="14.00"> implementation = Unimplemented</text>
<text text-anchor="start" x="200.5" y="-2033.3" font-family="Times,serif" font-size="14.00"> types = (integer?)</text>
<text text-anchor="start" x="200.5" y="-2018.3" font-family="Times,serif" font-size="14.00"> keys = ()</text>
</g>
<!-- node0&#45;&gt;node14 -->
<g id="edge20" class="edge">
<title>node0&#45;&gt;node14</title>
<path fill="none" stroke="black" d="M503.34,-2150.49C475.63,-2135.17 440.62,-2115.82 409.12,-2098.4"/>
<polygon fill="black" stroke="black" points="410.78,-2095.32 400.33,-2093.54 407.39,-2101.44 410.78,-2095.32"/>
<text text-anchor="start" x="461" y="-2115.8" font-family="Times,serif" font-size="14.00">%0</text>
</g>
<!-- node1 -->
<g id="node2" class="node">
<title>node1</title>
<polygon fill="none" stroke="black" points="623,-2153 623,-2206 911,-2206 911,-2153 623,-2153"/>
<text text-anchor="start" x="631" y="-2190.8" font-family="Times,serif" font-size="14.00">Get simplify_outer_joins.public.l (u95)</text>
<text text-anchor="start" x="631" y="-2175.8" font-family="Times,serif" font-size="14.00"> types = (integer?, integer?)</text>
<text text-anchor="start" x="631" y="-2160.8" font-family="Times,serif" font-size="14.00"> keys = ()</text>
</g>
<!-- node1&#45;&gt;node2 -->
<g id="edge19" class="edge">
<title>node1&#45;&gt;node2</title>
<path fill="none" stroke="black" d="M751.75,-2152.78C743.02,-2139.52 731.19,-2123.71 718,-2112 713.05,-2107.6 707.71,-2103.38 702.16,-2099.37"/>
<polygon fill="black" stroke="black" points="704.12,-2096.47 693.91,-2093.63 700.13,-2102.22 704.12,-2096.47"/>
<text text-anchor="start" x="733" y="-2115.8" font-family="Times,serif" font-size="14.00">%1</text>
</g>
<!-- node5 -->
<g id="node6" class="node">
<title>node5</title>
<polygon fill="none" stroke="black" points="674,-1785.5 674,-1958.5 1022,-1958.5 1022,-1785.5 674,-1785.5"/>
<text text-anchor="start" x="682" y="-1943.3" font-family="Times,serif" font-size="14.00">Let l3 =</text>
<text text-anchor="start" x="682" y="-1928.3" font-family="Times,serif" font-size="14.00"> Join %2 %4</text>
<text text-anchor="start" x="682" y="-1913.3" font-family="Times,serif" font-size="14.00"> implementation = Unimplemented</text>
<text text-anchor="start" x="682" y="-1898.3" font-family="Times,serif" font-size="14.00"> types = (integer?, integer?, integer?, integer)</text>
<text text-anchor="start" x="682" y="-1883.3" font-family="Times,serif" font-size="14.00"> keys = ()</text>
<text text-anchor="start" x="682" y="-1868.3" font-family="Times,serif" font-size="14.00"> Project (#0..=#3)</text>
<text text-anchor="start" x="682" y="-1853.3" font-family="Times,serif" font-size="14.00"> types = (integer?, integer?, integer?, integer)</text>
<text text-anchor="start" x="682" y="-1838.3" font-family="Times,serif" font-size="14.00"> keys = ()</text>
<text text-anchor="start" x="682" y="-1823.3" font-family="Times,serif" font-size="14.00"> Filter (#1 = #2)</text>
<text text-anchor="start" x="682" y="-1808.3" font-family="Times,serif" font-size="14.00"> types = (integer?, integer, integer, integer)</text>
<text text-anchor="start" x="682" y="-1793.3" font-family="Times,serif" font-size="14.00"> keys = ()</text>
</g>
<!-- node2&#45;&gt;node5 -->
<g id="edge12" class="edge">
<title>node2&#45;&gt;node5</title>
<path fill="none" stroke="black" d="M667.39,-2010.39C685.33,-1996.74 706.14,-1980.91 727.12,-1964.96"/>
<polygon fill="black" stroke="black" points="729.32,-1967.68 735.16,-1958.84 725.08,-1962.11 729.32,-1967.68"/>
<text text-anchor="start" x="711" y="-1980.8" font-family="Times,serif" font-size="14.00">%2</text>
</g>
<!-- node9 -->
<g id="node10" class="node">
<title>node9</title>
<polygon fill="none" stroke="black" points="423,-1365.5 423,-1523.5 703,-1523.5 703,-1365.5 423,-1365.5"/>
<text text-anchor="start" x="431" y="-1508.3" font-family="Times,serif" font-size="14.00">Join %2 %6 (= #1 #2)</text>
<text text-anchor="start" x="431" y="-1493.3" font-family="Times,serif" font-size="14.00"> implementation = Unimplemented</text>
<text text-anchor="start" x="431" y="-1478.3" font-family="Times,serif" font-size="14.00"> types = (integer?, integer?, integer)</text>
<text text-anchor="start" x="431" y="-1463.3" font-family="Times,serif" font-size="14.00"> keys = ()</text>
<text text-anchor="start" x="431" y="-1448.3" font-family="Times,serif" font-size="14.00"> Project (#0, #1)</text>
<text text-anchor="start" x="431" y="-1433.3" font-family="Times,serif" font-size="14.00"> types = (integer?, integer?)</text>
<text text-anchor="start" x="431" y="-1418.3" font-family="Times,serif" font-size="14.00"> keys = ()</text>
<text text-anchor="start" x="431" y="-1403.3" font-family="Times,serif" font-size="14.00"> Negate</text>
<text text-anchor="start" x="431" y="-1388.3" font-family="Times,serif" font-size="14.00"> types = (integer?, integer?)</text>
<text text-anchor="start" x="431" y="-1373.3" font-family="Times,serif" font-size="14.00"> keys = ()</text>
</g>
<!-- node2&#45;&gt;node9 -->
<g id="edge5" class="edge">
<title>node2&#45;&gt;node9</title>
<path fill="none" stroke="black" d="M610.57,-2010.33C602.41,-1913.36 581.63,-1666.73 570.43,-1533.72"/>
<polygon fill="black" stroke="black" points="573.9,-1533.23 569.58,-1523.56 566.93,-1533.82 573.9,-1533.23"/>
<text text-anchor="start" x="590" y="-1755.8" font-family="Times,serif" font-size="14.00">%2</text>
</g>
<!-- node10 -->
<g id="node11" class="node">
<title>node10</title>
<polygon fill="none" stroke="black" points="355,-1193 355,-1291 711,-1291 711,-1193 355,-1193"/>
<text text-anchor="start" x="363" y="-1275.8" font-family="Times,serif" font-size="14.00">Union %9 %2</text>
<text text-anchor="start" x="363" y="-1260.8" font-family="Times,serif" font-size="14.00"> types = (integer?, integer?)</text>
<text text-anchor="start" x="363" y="-1245.8" font-family="Times,serif" font-size="14.00"> keys = ()</text>
<text text-anchor="start" x="363" y="-1230.8" font-family="Times,serif" font-size="14.00"> Map null, null</text>
<text text-anchor="start" x="363" y="-1215.8" font-family="Times,serif" font-size="14.00"> types = (integer?, integer?, integer?, integer?)</text>
<text text-anchor="start" x="363" y="-1200.8" font-family="Times,serif" font-size="14.00"> keys = ()</text>
</g>
<!-- node2&#45;&gt;node10 -->
<g id="edge18" class="edge">
<title>node2&#45;&gt;node10</title>
<path fill="none" stroke="black" d="M507.07,-2010.38C451.47,-1981.6 395,-1936.69 395,-1873 395,-1873 395,-1873 395,-1443.5 395,-1407.6 396.63,-1396.41 414,-1365 427.58,-1340.44 447.44,-1317.33 467.05,-1297.97"/>
<polygon fill="black" stroke="black" points="469.49,-1300.48 474.25,-1291.01 464.63,-1295.44 469.49,-1300.48"/>
<text text-anchor="start" x="395" y="-1650.8" font-family="Times,serif" font-size="14.00">%2</text>
</g>
<!-- node3 -->
<g id="node4" class="node">
<title>node3</title>
<polygon fill="none" stroke="black" points="955,-2153 955,-2206 1245,-2206 1245,-2153 955,-2153"/>
<text text-anchor="start" x="963" y="-2190.8" font-family="Times,serif" font-size="14.00">Get simplify_outer_joins.public.r (u97)</text>
<text text-anchor="start" x="963" y="-2175.8" font-family="Times,serif" font-size="14.00"> types = (integer?, integer)</text>
<text text-anchor="start" x="963" y="-2160.8" font-family="Times,serif" font-size="14.00"> keys = ()</text>
</g>
<!-- node3&#45;&gt;node4 -->
<g id="edge29" class="edge">
<title>node3&#45;&gt;node4</title>
<path fill="none" stroke="black" d="M1100,-2152.8C1100,-2138.79 1100,-2120.93 1100,-2104.2"/>
<polygon fill="black" stroke="black" points="1103.5,-2103.98 1100,-2093.98 1096.5,-2103.98 1103.5,-2103.98"/>
<text text-anchor="start" x="1100" y="-2115.8" font-family="Times,serif" font-size="14.00">%3</text>
</g>
<!-- node4&#45;&gt;node5 -->
<g id="edge4" class="edge">
<title>node4&#45;&gt;node5</title>
<path fill="none" stroke="black" d="M1042.5,-2010.39C1023.03,-1996.63 1000.42,-1980.66 977.66,-1964.58"/>
<polygon fill="black" stroke="black" points="979.46,-1961.57 969.27,-1958.66 975.42,-1967.29 979.46,-1961.57"/>
<text text-anchor="start" x="1011" y="-1980.8" font-family="Times,serif" font-size="14.00">%4</text>
</g>
<!-- node7 -->
<g id="node8" class="node">
<title>node7</title>
<polygon fill="none" stroke="black" points="1136.5,-1365.5 1136.5,-1523.5 1407.5,-1523.5 1407.5,-1365.5 1136.5,-1365.5"/>
<text text-anchor="start" x="1144.5" y="-1508.3" font-family="Times,serif" font-size="14.00">Join %4 %6 (= #0 #2)</text>
<text text-anchor="start" x="1144.5" y="-1493.3" font-family="Times,serif" font-size="14.00"> implementation = Unimplemented</text>
<text text-anchor="start" x="1144.5" y="-1478.3" font-family="Times,serif" font-size="14.00"> types = (integer?, integer, integer)</text>
<text text-anchor="start" x="1144.5" y="-1463.3" font-family="Times,serif" font-size="14.00"> keys = ()</text>
<text text-anchor="start" x="1144.5" y="-1448.3" font-family="Times,serif" font-size="14.00"> Project (#0, #1)</text>
<text text-anchor="start" x="1144.5" y="-1433.3" font-family="Times,serif" font-size="14.00"> types = (integer?, integer)</text>
<text text-anchor="start" x="1144.5" y="-1418.3" font-family="Times,serif" font-size="14.00"> keys = ()</text>
<text text-anchor="start" x="1144.5" y="-1403.3" font-family="Times,serif" font-size="14.00"> Negate</text>
<text text-anchor="start" x="1144.5" y="-1388.3" font-family="Times,serif" font-size="14.00"> types = (integer?, integer)</text>
<text text-anchor="start" x="1144.5" y="-1373.3" font-family="Times,serif" font-size="14.00"> keys = ()</text>
</g>
<!-- node4&#45;&gt;node7 -->
<g id="edge24" class="edge">
<title>node4&#45;&gt;node7</title>
<path fill="none" stroke="black" d="M1115.74,-2010.22C1117.93,-2004.14 1120.08,-1997.93 1122,-1992 1173.68,-1831.98 1223.21,-1642.04 1250.43,-1533.45"/>
<polygon fill="black" stroke="black" points="1253.88,-1534.07 1252.91,-1523.52 1247.09,-1532.37 1253.88,-1534.07"/>
<text text-anchor="start" x="1191" y="-1755.8" font-family="Times,serif" font-size="14.00">%4</text>
</g>
<!-- node8 -->
<g id="node9" class="node">
<title>node8</title>
<polygon fill="none" stroke="black" points="934,-1170.5 934,-1313.5 1282,-1313.5 1282,-1170.5 934,-1170.5"/>
<text text-anchor="start" x="942" y="-1298.3" font-family="Times,serif" font-size="14.00">Union %7 %4</text>
<text text-anchor="start" x="942" y="-1283.3" font-family="Times,serif" font-size="14.00"> types = (integer?, integer)</text>
<text text-anchor="start" x="942" y="-1268.3" font-family="Times,serif" font-size="14.00"> keys = ()</text>
<text text-anchor="start" x="942" y="-1253.3" font-family="Times,serif" font-size="14.00"> Map null, null</text>
<text text-anchor="start" x="942" y="-1238.3" font-family="Times,serif" font-size="14.00"> types = (integer?, integer, integer?, integer?)</text>
<text text-anchor="start" x="942" y="-1223.3" font-family="Times,serif" font-size="14.00"> keys = ()</text>
<text text-anchor="start" x="942" y="-1208.3" font-family="Times,serif" font-size="14.00"> Project (#2, #3, #0, #1)</text>
<text text-anchor="start" x="942" y="-1193.3" font-family="Times,serif" font-size="14.00"> types = (integer?, integer?, integer?, integer)</text>
<text text-anchor="start" x="942" y="-1178.3" font-family="Times,serif" font-size="14.00"> keys = ()</text>
</g>
<!-- node4&#45;&gt;node8 -->
<g id="edge9" class="edge">
<title>node4&#45;&gt;node8</title>
<path fill="none" stroke="black" d="M1102.87,-2010.37C1105.16,-1974.31 1108,-1920.17 1108,-1873 1108,-1873 1108,-1873 1108,-1443.5 1108,-1404.05 1108,-1360.23 1108,-1323.64"/>
<polygon fill="black" stroke="black" points="1111.5,-1323.52 1108,-1313.52 1104.5,-1323.52 1111.5,-1323.52"/>
<text text-anchor="start" x="1108" y="-1650.8" font-family="Times,serif" font-size="14.00">%4</text>
</g>
<!-- node6 -->
<g id="node7" class="node">
<title>node6</title>
<polygon fill="none" stroke="black" points="742,-1575.5 742,-1733.5 1072,-1733.5 1072,-1575.5 742,-1575.5"/>
<text text-anchor="start" x="750" y="-1718.3" font-family="Times,serif" font-size="14.00">Let l4 =</text>
<text text-anchor="start" x="750" y="-1703.3" font-family="Times,serif" font-size="14.00"> Get %5 (l3)</text>
<text text-anchor="start" x="750" y="-1688.3" font-family="Times,serif" font-size="14.00"> types = (integer?, integer, integer, integer)</text>
<text text-anchor="start" x="750" y="-1673.3" font-family="Times,serif" font-size="14.00"> keys = ()</text>
<text text-anchor="start" x="750" y="-1658.3" font-family="Times,serif" font-size="14.00"> Project (#1)</text>
<text text-anchor="start" x="750" y="-1643.3" font-family="Times,serif" font-size="14.00"> types = (integer)</text>
<text text-anchor="start" x="750" y="-1628.3" font-family="Times,serif" font-size="14.00"> keys = ()</text>
<text text-anchor="start" x="750" y="-1613.3" font-family="Times,serif" font-size="14.00"> Distinct group=(#0)</text>
<text text-anchor="start" x="750" y="-1598.3" font-family="Times,serif" font-size="14.00"> types = (integer)</text>
<text text-anchor="start" x="750" y="-1583.3" font-family="Times,serif" font-size="14.00"> keys = ((#0))</text>
</g>
<!-- node5&#45;&gt;node6 -->
<g id="edge2" class="edge">
<title>node5&#45;&gt;node6</title>
<path fill="none" stroke="black" d="M871.49,-1785.21C875.24,-1771.51 879.12,-1757.32 882.89,-1743.58"/>
<polygon fill="black" stroke="black" points="886.34,-1744.23 885.6,-1733.66 879.59,-1742.38 886.34,-1744.23"/>
<text text-anchor="start" x="879" y="-1755.8" font-family="Times,serif" font-size="14.00">%5</text>
</g>
<!-- node11 -->
<g id="node12" class="node">
<title>node11</title>
<polygon fill="none" stroke="black" points="498,-1065.5 498,-1118.5 854,-1118.5 854,-1065.5 498,-1065.5"/>
<text text-anchor="start" x="506" y="-1103.3" font-family="Times,serif" font-size="14.00">Union %10 %5</text>
<text text-anchor="start" x="506" y="-1088.3" font-family="Times,serif" font-size="14.00"> types = (integer?, integer?, integer?, integer?)</text>
<text text-anchor="start" x="506" y="-1073.3" font-family="Times,serif" font-size="14.00"> keys = ()</text>
</g>
<!-- node5&#45;&gt;node11 -->
<g id="edge6" class="edge">
<title>node5&#45;&gt;node11</title>
<path fill="none" stroke="black" d="M761.67,-1785.25C750.04,-1769.34 739.79,-1752.01 733,-1734 688.76,-1616.7 753.57,-1290.79 720,-1170 715.85,-1155.05 708.15,-1139.95 700.34,-1127.12"/>
<polygon fill="black" stroke="black" points="703.27,-1125.2 694.95,-1118.63 697.35,-1128.95 703.27,-1125.2"/>
<text text-anchor="start" x="728" y="-1440.8" font-family="Times,serif" font-size="14.00">%5</text>
</g>
<!-- node6&#45;&gt;node7 -->
<g id="edge27" class="edge">
<title>node6&#45;&gt;node7</title>
<path fill="none" stroke="black" d="M1043.95,-1575.46C1071.24,-1559.91 1099.98,-1543.53 1127.51,-1527.84"/>
<polygon fill="black" stroke="black" points="1129.45,-1530.76 1136.4,-1522.77 1125.98,-1524.68 1129.45,-1530.76"/>
<text text-anchor="start" x="1100" y="-1545.8" font-family="Times,serif" font-size="14.00">%6</text>
</g>
<!-- node6&#45;&gt;node9 -->
<g id="edge8" class="edge">
<title>node6&#45;&gt;node9</title>
<path fill="none" stroke="black" d="M777.93,-1575.46C752.75,-1560.23 726.26,-1544.22 700.81,-1528.83"/>
<polygon fill="black" stroke="black" points="702.59,-1525.81 692.22,-1523.63 698.97,-1531.8 702.59,-1525.81"/>
<text text-anchor="start" x="746" y="-1545.8" font-family="Times,serif" font-size="14.00">%6</text>
</g>
<!-- node7&#45;&gt;node8 -->
<g id="edge22" class="edge">
<title>node7&#45;&gt;node8</title>
<path fill="none" stroke="black" d="M1208.12,-1365.41C1196.36,-1351.03 1184.08,-1336.01 1172.3,-1321.61"/>
<polygon fill="black" stroke="black" points="1174.86,-1319.21 1165.82,-1313.69 1169.44,-1323.64 1174.86,-1319.21"/>
<text text-anchor="start" x="1190" y="-1335.8" font-family="Times,serif" font-size="14.00">%7</text>
</g>
<!-- node12 -->
<g id="node13" class="node">
<title>node12</title>
<polygon fill="none" stroke="black" points="498,-945.5 498,-1013.5 854,-1013.5 854,-945.5 498,-945.5"/>
<text text-anchor="start" x="506" y="-998.3" font-family="Times,serif" font-size="14.00">Let l5 =</text>
<text text-anchor="start" x="506" y="-983.3" font-family="Times,serif" font-size="14.00"> Union %8 %11</text>
<text text-anchor="start" x="506" y="-968.3" font-family="Times,serif" font-size="14.00"> types = (integer?, integer?, integer?, integer?)</text>
<text text-anchor="start" x="506" y="-953.3" font-family="Times,serif" font-size="14.00"> keys = ()</text>
</g>
<!-- node8&#45;&gt;node12 -->
<g id="edge7" class="edge">
<title>node8&#45;&gt;node12</title>
<path fill="none" stroke="black" d="M1018.69,-1170.3C973.47,-1136.22 916.86,-1096.1 863,-1065 833.08,-1047.72 799,-1031.41 768.2,-1017.81"/>
<polygon fill="black" stroke="black" points="769.32,-1014.48 758.75,-1013.68 766.51,-1020.9 769.32,-1014.48"/>
<text text-anchor="start" x="944" y="-1088.3" font-family="Times,serif" font-size="14.00">%8</text>
</g>
<!-- node9&#45;&gt;node10 -->
<g id="edge25" class="edge">
<title>node9&#45;&gt;node10</title>
<path fill="none" stroke="black" d="M551.32,-1365.41C548.11,-1343.96 544.68,-1321.09 541.68,-1300.99"/>
<polygon fill="black" stroke="black" points="545.13,-1300.44 540.19,-1291.06 538.21,-1301.47 545.13,-1300.44"/>
<text text-anchor="start" x="548" y="-1335.8" font-family="Times,serif" font-size="14.00">%9</text>
</g>
<!-- node10&#45;&gt;node11 -->
<g id="edge11" class="edge">
<title>node10&#45;&gt;node11</title>
<path fill="none" stroke="black" d="M579.43,-1192.95C600.54,-1171.09 625,-1145.78 644.02,-1126.1"/>
<polygon fill="black" stroke="black" points="646.59,-1128.47 651.02,-1118.85 641.56,-1123.61 646.59,-1128.47"/>
<text text-anchor="start" x="630" y="-1140.8" font-family="Times,serif" font-size="14.00">%10</text>
</g>
<!-- node11&#45;&gt;node12 -->
<g id="edge10" class="edge">
<title>node11&#45;&gt;node12</title>
<path fill="none" stroke="black" d="M676,-1065.37C676,-1052.96 676,-1037.71 676,-1023.58"/>
<polygon fill="black" stroke="black" points="679.5,-1023.54 676,-1013.54 672.5,-1023.54 679.5,-1023.54"/>
<text text-anchor="start" x="676" y="-1035.8" font-family="Times,serif" font-size="14.00">%11</text>
</g>
<!-- node15 -->
<g id="node16" class="node">
<title>node15</title>
<polygon fill="none" stroke="black" points="177,-720.5 177,-893.5 601,-893.5 601,-720.5 177,-720.5"/>
<text text-anchor="start" x="185" y="-878.3" font-family="Times,serif" font-size="14.00">Let l7 =</text>
<text text-anchor="start" x="185" y="-863.3" font-family="Times,serif" font-size="14.00"> Join %12 %14</text>
<text text-anchor="start" x="185" y="-848.3" font-family="Times,serif" font-size="14.00"> implementation = Unimplemented</text>
<text text-anchor="start" x="185" y="-833.3" font-family="Times,serif" font-size="14.00"> types = (integer?, integer?, integer?, integer?, integer?)</text>
<text text-anchor="start" x="185" y="-818.3" font-family="Times,serif" font-size="14.00"> keys = ()</text>
<text text-anchor="start" x="185" y="-803.3" font-family="Times,serif" font-size="14.00"> Project (#0..=#4)</text>
<text text-anchor="start" x="185" y="-788.3" font-family="Times,serif" font-size="14.00"> types = (integer?, integer?, integer?, integer?, integer?)</text>
<text text-anchor="start" x="185" y="-773.3" font-family="Times,serif" font-size="14.00"> keys = ()</text>
<text text-anchor="start" x="185" y="-758.3" font-family="Times,serif" font-size="14.00"> Filter (#1 = #4)</text>
<text text-anchor="start" x="185" y="-743.3" font-family="Times,serif" font-size="14.00"> types = (integer?, integer, integer?, integer?, integer)</text>
<text text-anchor="start" x="185" y="-728.3" font-family="Times,serif" font-size="14.00"> keys = ()</text>
</g>
<!-- node12&#45;&gt;node15 -->
<g id="edge15" class="edge">
<title>node12&#45;&gt;node15</title>
<path fill="none" stroke="black" d="M620.32,-945.42C597.5,-931.86 569.86,-915.44 541.74,-898.74"/>
<polygon fill="black" stroke="black" points="543.39,-895.65 533.01,-893.55 539.82,-901.67 543.39,-895.65"/>
<text text-anchor="start" x="584" y="-915.8" font-family="Times,serif" font-size="14.00">%12</text>
</g>
<!-- node17 -->
<g id="node18" class="node">
<title>node17</title>
<polygon fill="none" stroke="black" points="255,-300.5 255,-458.5 671,-458.5 671,-300.5 255,-300.5"/>
<text text-anchor="start" x="263" y="-443.3" font-family="Times,serif" font-size="14.00">Join %12 %16 (= #1 #4)</text>
<text text-anchor="start" x="263" y="-428.3" font-family="Times,serif" font-size="14.00"> implementation = Unimplemented</text>
<text text-anchor="start" x="263" y="-413.3" font-family="Times,serif" font-size="14.00"> types = (integer?, integer?, integer?, integer?, integer)</text>
<text text-anchor="start" x="263" y="-398.3" font-family="Times,serif" font-size="14.00"> keys = ()</text>
<text text-anchor="start" x="263" y="-383.3" font-family="Times,serif" font-size="14.00"> Project (#0..=#3)</text>
<text text-anchor="start" x="263" y="-368.3" font-family="Times,serif" font-size="14.00"> types = (integer?, integer?, integer?, integer?)</text>
<text text-anchor="start" x="263" y="-353.3" font-family="Times,serif" font-size="14.00"> keys = ()</text>
<text text-anchor="start" x="263" y="-338.3" font-family="Times,serif" font-size="14.00"> Negate</text>
<text text-anchor="start" x="263" y="-323.3" font-family="Times,serif" font-size="14.00"> types = (integer?, integer?, integer?, integer?)</text>
<text text-anchor="start" x="263" y="-308.3" font-family="Times,serif" font-size="14.00"> keys = ()</text>
</g>
<!-- node12&#45;&gt;node17 -->
<g id="edge28" class="edge">
<title>node12&#45;&gt;node17</title>
<path fill="none" stroke="black" d="M674.21,-945.26C668.51,-841.44 650.58,-529 640,-510 631.02,-493.86 619.08,-479.19 605.63,-466"/>
<polygon fill="black" stroke="black" points="607.7,-463.14 598.02,-458.83 602.9,-468.23 607.7,-463.14"/>
<text text-anchor="start" x="660" y="-690.8" font-family="Times,serif" font-size="14.00">%12</text>
</g>
<!-- node18 -->
<g id="node19" class="node">
<title>node18</title>
<polygon fill="none" stroke="black" points="251,-150.5 251,-248.5 675,-248.5 675,-150.5 251,-150.5"/>
<text text-anchor="start" x="259" y="-233.3" font-family="Times,serif" font-size="14.00">Union %17 %12</text>
<text text-anchor="start" x="259" y="-218.3" font-family="Times,serif" font-size="14.00"> types = (integer?, integer?, integer?, integer?)</text>
<text text-anchor="start" x="259" y="-203.3" font-family="Times,serif" font-size="14.00"> keys = ()</text>
<text text-anchor="start" x="259" y="-188.3" font-family="Times,serif" font-size="14.00"> Map null</text>
<text text-anchor="start" x="259" y="-173.3" font-family="Times,serif" font-size="14.00"> types = (integer?, integer?, integer?, integer?, integer?)</text>
<text text-anchor="start" x="259" y="-158.3" font-family="Times,serif" font-size="14.00"> keys = ()</text>
</g>
<!-- node12&#45;&gt;node18 -->
<g id="edge16" class="edge">
<title>node12&#45;&gt;node18</title>
<path fill="none" stroke="black" d="M685.64,-945.5C694.74,-911.39 707,-856.44 707,-808 707,-808 707,-808 707,-378.5 707,-341.61 704.77,-327.34 680,-300 663.17,-281.43 642.19,-266.07 619.95,-253.46"/>
<polygon fill="black" stroke="black" points="621.48,-250.31 611.03,-248.58 618.12,-256.45 621.48,-250.31"/>
<text text-anchor="start" x="707" y="-585.8" font-family="Times,serif" font-size="14.00">%12</text>
</g>
<!-- node13 -->
<g id="node14" class="node">
<title>node13</title>
<polygon fill="none" stroke="black" points="182,-2153 182,-2206 472,-2206 472,-2153 182,-2153"/>
<text text-anchor="start" x="190" y="-2190.8" font-family="Times,serif" font-size="14.00">Get simplify_outer_joins.public.t (u99)</text>
<text text-anchor="start" x="190" y="-2175.8" font-family="Times,serif" font-size="14.00"> types = (integer?)</text>
<text text-anchor="start" x="190" y="-2160.8" font-family="Times,serif" font-size="14.00"> keys = ()</text>
</g>
<!-- node13&#45;&gt;node14 -->
<g id="edge26" class="edge">
<title>node13&#45;&gt;node14</title>
<path fill="none" stroke="black" d="M327,-2152.8C327,-2138.79 327,-2120.93 327,-2104.2"/>
<polygon fill="black" stroke="black" points="330.5,-2103.98 327,-2093.98 323.5,-2103.98 330.5,-2103.98"/>
<text text-anchor="start" x="327" y="-2115.8" font-family="Times,serif" font-size="14.00">%13</text>
</g>
<!-- node14&#45;&gt;node15 -->
<g id="edge21" class="edge">
<title>node14&#45;&gt;node15</title>
<path fill="none" stroke="black" d="M327,-2010.35C327,-1974.27 327,-1920.13 327,-1873 327,-1873 327,-1873 327,-978.5 327,-953.34 333.04,-927.27 341.35,-903.32"/>
<polygon fill="black" stroke="black" points="344.64,-904.5 344.77,-893.9 338.06,-902.11 344.64,-904.5"/>
<text text-anchor="start" x="327" y="-1335.8" font-family="Times,serif" font-size="14.00">%14</text>
</g>
<!-- node16 -->
<g id="node17" class="node">
<title>node16</title>
<polygon fill="none" stroke="black" points="224.5,-510.5 224.5,-668.5 631.5,-668.5 631.5,-510.5 224.5,-510.5"/>
<text text-anchor="start" x="232.5" y="-653.3" font-family="Times,serif" font-size="14.00">Let l8 =</text>
<text text-anchor="start" x="232.5" y="-638.3" font-family="Times,serif" font-size="14.00"> Get %15 (l7)</text>
<text text-anchor="start" x="232.5" y="-623.3" font-family="Times,serif" font-size="14.00"> types = (integer?, integer, integer?, integer?, integer)</text>
<text text-anchor="start" x="232.5" y="-608.3" font-family="Times,serif" font-size="14.00"> keys = ()</text>
<text text-anchor="start" x="232.5" y="-593.3" font-family="Times,serif" font-size="14.00"> Project (#1)</text>
<text text-anchor="start" x="232.5" y="-578.3" font-family="Times,serif" font-size="14.00"> types = (integer)</text>
<text text-anchor="start" x="232.5" y="-563.3" font-family="Times,serif" font-size="14.00"> keys = ()</text>
<text text-anchor="start" x="232.5" y="-548.3" font-family="Times,serif" font-size="14.00"> Distinct group=(#0)</text>
<text text-anchor="start" x="232.5" y="-533.3" font-family="Times,serif" font-size="14.00"> types = (integer)</text>
<text text-anchor="start" x="232.5" y="-518.3" font-family="Times,serif" font-size="14.00"> keys = ((#0))</text>
</g>
<!-- node15&#45;&gt;node16 -->
<g id="edge14" class="edge">
<title>node15&#45;&gt;node16</title>
<path fill="none" stroke="black" d="M404.53,-720.21C407,-706.51 409.57,-692.32 412.06,-678.58"/>
<polygon fill="black" stroke="black" points="415.52,-679.12 413.86,-668.66 408.63,-677.88 415.52,-679.12"/>
<text text-anchor="start" x="410" y="-690.8" font-family="Times,serif" font-size="14.00">%15</text>
</g>
<!-- node19 -->
<g id="node20" class="node">
<title>node19</title>
<polygon fill="none" stroke="black" points="0,-0.5 0,-98.5 424,-98.5 424,-0.5 0,-0.5"/>
<text text-anchor="start" x="8" y="-83.3" font-family="Times,serif" font-size="14.00">Union %18 %15</text>
<text text-anchor="start" x="8" y="-68.3" font-family="Times,serif" font-size="14.00"> types = (integer?, integer?, integer?, integer?, integer?)</text>
<text text-anchor="start" x="8" y="-53.3" font-family="Times,serif" font-size="14.00"> keys = ()</text>
<text text-anchor="start" x="8" y="-38.3" font-family="Times,serif" font-size="14.00"> Filter (#0 &gt; #3)</text>
<text text-anchor="start" x="8" y="-23.3" font-family="Times,serif" font-size="14.00"> types = (integer, integer?, integer?, integer, integer?)</text>
<text text-anchor="start" x="8" y="-8.3" font-family="Times,serif" font-size="14.00"> keys = ()</text>
</g>
<!-- node15&#45;&gt;node19 -->
<g id="edge30" class="edge">
<title>node15&#45;&gt;node19</title>
<path fill="none" stroke="black" d="M258.93,-720.19C242.3,-704.76 226.94,-687.6 215,-669 195.61,-638.79 196,-626.4 196,-590.5 196,-590.5 196,-590.5 196,-198.5 196,-168.82 199.22,-135.99 202.77,-108.81"/>
<polygon fill="black" stroke="black" points="206.27,-109.06 204.14,-98.68 199.33,-108.12 206.27,-109.06"/>
<text text-anchor="start" x="196" y="-375.8" font-family="Times,serif" font-size="14.00">%15</text>
</g>
<!-- node16&#45;&gt;node17 -->
<g id="edge17" class="edge">
<title>node16&#45;&gt;node17</title>
<path fill="none" stroke="black" d="M441.13,-510.46C443.43,-496.82 445.83,-482.55 448.16,-468.66"/>
<polygon fill="black" stroke="black" points="451.64,-469.08 449.85,-458.63 444.74,-467.92 451.64,-469.08"/>
<text text-anchor="start" x="447" y="-480.8" font-family="Times,serif" font-size="14.00">%16</text>
</g>
<!-- node17&#45;&gt;node18 -->
<g id="edge1" class="edge">
<title>node17&#45;&gt;node18</title>
<path fill="none" stroke="black" d="M463,-300.43C463,-286.5 463,-272.2 463,-258.94"/>
<polygon fill="black" stroke="black" points="466.5,-258.55 463,-248.55 459.5,-258.55 466.5,-258.55"/>
<text text-anchor="start" x="463" y="-270.8" font-family="Times,serif" font-size="14.00">%17</text>
</g>
<!-- node18&#45;&gt;node19 -->
<g id="edge13" class="edge">
<title>node18&#45;&gt;node19</title>
<path fill="none" stroke="black" d="M381.51,-150.45C356.17,-135.51 328.1,-118.96 302.2,-103.69"/>
<polygon fill="black" stroke="black" points="303.9,-100.63 293.51,-98.56 300.35,-106.66 303.9,-100.63"/>
<text text-anchor="start" x="346" y="-120.8" font-family="Times,serif" font-size="14.00">%18</text>
</g>
</g>
</svg>
