<?xml version="1.0" encoding="UTF-8" standalone="no"?>
<!DOCTYPE svg PUBLIC "-//W3C//DTD SVG 1.1//EN"
 "http://www.w3.org/Graphics/SVG/1.1/DTD/svg11.dtd">
<!-- Generated by graphviz version 2.43.0 (0)
 -->
<!-- Title: G Pages: 1 -->
<svg width="1317pt" height="1652pt"
 viewBox="0.00 0.00 1316.50 1652.00" xmlns="http://www.w3.org/2000/svg" xmlns:xlink="http://www.w3.org/1999/xlink">
<g id="graph0" class="graph" transform="scale(1 1) rotate(0) translate(4 1648)">
<title>G</title>
<polygon fill="white" stroke="transparent" points="-4,4 -4,-1648 1312.5,-1648 1312.5,4 -4,4"/>
<!-- node0 -->
<g id="node1" class="node">
<title>node0</title>
<polygon fill="none" stroke="black" points="593,-1575.5 593,-1643.5 694,-1643.5 694,-1575.5 593,-1575.5"/>
<text text-anchor="start" x="601" y="-1628.3" font-family="Times,serif" font-size="14.00">Let l0 =</text>
<text text-anchor="start" x="601" y="-1613.3" font-family="Times,serif" font-size="14.00"> Constant ()</text>
<text text-anchor="start" x="601" y="-1598.3" font-family="Times,serif" font-size="14.00"> types = ()</text>
<text text-anchor="start" x="601" y="-1583.3" font-family="Times,serif" font-size="14.00"> keys = (())</text>
</g>
<!-- node2 -->
<g id="node3" class="node">
<title>node2</title>
<polygon fill="none" stroke="black" points="940,-1448 940,-1516 1209,-1516 1209,-1448 940,-1448"/>
<text text-anchor="start" x="948" y="-1500.8" font-family="Times,serif" font-size="14.00">Join %0 %1</text>
<text text-anchor="start" x="948" y="-1485.8" font-family="Times,serif" font-size="14.00"> implementation = Unimplemented</text>
<text text-anchor="start" x="948" y="-1470.8" font-family="Times,serif" font-size="14.00"> types = (integer?, integer?)</text>
<text text-anchor="start" x="948" y="-1455.8" font-family="Times,serif" font-size="14.00"> keys = ()</text>
</g>
<!-- node0&#45;&gt;node2 -->
<g id="edge8" class="edge">
<title>node0&#45;&gt;node2</title>
<path fill="none" stroke="black" d="M694.27,-1579.41C697.37,-1577.86 700.46,-1576.38 703.5,-1575 743.04,-1557.02 753.29,-1552.26 795.5,-1542 854.32,-1527.7 871.24,-1536.32 930.5,-1524 938.37,-1522.36 946.44,-1520.52 954.55,-1518.56"/>
<polygon fill="black" stroke="black" points="955.58,-1521.9 964.44,-1516.09 953.89,-1515.11 955.58,-1521.9"/>
<text text-anchor="start" x="795.5" y="-1545.8" font-family="Times,serif" font-size="14.00">%0</text>
</g>
<!-- node4 -->
<g id="node5" class="node">
<title>node4</title>
<polygon fill="none" stroke="black" points="653,-1448 653,-1516 922,-1516 922,-1448 653,-1448"/>
<text text-anchor="start" x="661" y="-1500.8" font-family="Times,serif" font-size="14.00">Join %0 %3</text>
<text text-anchor="start" x="661" y="-1485.8" font-family="Times,serif" font-size="14.00"> implementation = Unimplemented</text>
<text text-anchor="start" x="661" y="-1470.8" font-family="Times,serif" font-size="14.00"> types = (integer?, integer)</text>
<text text-anchor="start" x="661" y="-1455.8" font-family="Times,serif" font-size="14.00"> keys = ()</text>
</g>
<!-- node0&#45;&gt;node4 -->
<g id="edge1" class="edge">
<title>node0&#45;&gt;node4</title>
<path fill="none" stroke="black" d="M671.93,-1575.46C682.08,-1564.37 693.89,-1552.22 705.5,-1542 713.18,-1535.24 721.62,-1528.49 730.07,-1522.11"/>
<polygon fill="black" stroke="black" points="732.21,-1524.88 738.16,-1516.11 728.04,-1519.26 732.21,-1524.88"/>
<text text-anchor="start" x="705.5" y="-1545.8" font-family="Times,serif" font-size="14.00">%0</text>
</g>
<!-- node7 -->
<g id="node8" class="node">
<title>node7</title>
<polygon fill="none" stroke="black" points="345,-1440.5 345,-1523.5 614,-1523.5 614,-1440.5 345,-1440.5"/>
<text text-anchor="start" x="353" y="-1508.3" font-family="Times,serif" font-size="14.00">Let l2 =</text>
<text text-anchor="start" x="353" y="-1493.3" font-family="Times,serif" font-size="14.00"> Join %0 %6</text>
<text text-anchor="start" x="353" y="-1478.3" font-family="Times,serif" font-size="14.00"> implementation = Unimplemented</text>
<text text-anchor="start" x="353" y="-1463.3" font-family="Times,serif" font-size="14.00"> types = (integer?)</text>
<text text-anchor="start" x="353" y="-1448.3" font-family="Times,serif" font-size="14.00"> keys = ()</text>
</g>
<!-- node0&#45;&gt;node7 -->
<g id="edge13" class="edge">
<title>node0&#45;&gt;node7</title>
<path fill="none" stroke="black" d="M599.98,-1575.2C581.8,-1561.28 560.35,-1544.87 540.63,-1529.78"/>
<polygon fill="black" stroke="black" points="542.66,-1526.93 532.59,-1523.63 538.41,-1532.49 542.66,-1526.93"/>
<text text-anchor="start" x="576.5" y="-1545.8" font-family="Times,serif" font-size="14.00">%0</text>
</g>
<!-- node1 -->
<g id="node2" class="node">
<title>node1</title>
<polygon fill="none" stroke="black" points="1020.5,-1583 1020.5,-1636 1308.5,-1636 1308.5,-1583 1020.5,-1583"/>
<text text-anchor="start" x="1028.5" y="-1620.8" font-family="Times,serif" font-size="14.00">Get simplify_outer_joins.public.l (u94)</text>
<text text-anchor="start" x="1028.5" y="-1605.8" font-family="Times,serif" font-size="14.00"> types = (integer?, integer?)</text>
<text text-anchor="start" x="1028.5" y="-1590.8" font-family="Times,serif" font-size="14.00"> keys = ()</text>
</g>
<!-- node1&#45;&gt;node2 -->
<g id="edge16" class="edge">
<title>node1&#45;&gt;node2</title>
<path fill="none" stroke="black" d="M1146.07,-1582.8C1134.06,-1566.06 1118.13,-1543.84 1104.34,-1524.61"/>
<polygon fill="black" stroke="black" points="1107.05,-1522.39 1098.38,-1516.3 1101.36,-1526.47 1107.05,-1522.39"/>
<text text-anchor="start" x="1128.5" y="-1545.8" font-family="Times,serif" font-size="14.00">%1</text>
</g>
<!-- node5 -->
<g id="node6" class="node">
<title>node5</title>
<polygon fill="none" stroke="black" points="520.5,-1125.5 520.5,-1388.5 1096.5,-1388.5 1096.5,-1125.5 520.5,-1125.5"/>
<text text-anchor="start" x="528.5" y="-1373.3" font-family="Times,serif" font-size="14.00">Let l1 =</text>
<text text-anchor="start" x="528.5" y="-1358.3" font-family="Times,serif" font-size="14.00"> Join %2 %4</text>
<text text-anchor="start" x="528.5" y="-1343.3" font-family="Times,serif" font-size="14.00"> implementation = Unimplemented</text>
<text text-anchor="start" x="528.5" y="-1328.3" font-family="Times,serif" font-size="14.00"> types = (integer?, integer?, integer?, integer)</text>
<text text-anchor="start" x="528.5" y="-1313.3" font-family="Times,serif" font-size="14.00"> keys = ()</text>
<text text-anchor="start" x="528.5" y="-1298.3" font-family="Times,serif" font-size="14.00"> Project (#0..#3)</text>
<text text-anchor="start" x="528.5" y="-1283.3" font-family="Times,serif" font-size="14.00"> types = (integer?, integer?, integer?, integer)</text>
<text text-anchor="start" x="528.5" y="-1268.3" font-family="Times,serif" font-size="14.00"> keys = ()</text>
<text text-anchor="start" x="528.5" y="-1253.3" font-family="Times,serif" font-size="14.00"> Filter (#1 = #2)</text>
<text text-anchor="start" x="528.5" y="-1238.3" font-family="Times,serif" font-size="14.00"> types = (integer?, integer, integer, integer)</text>
<text text-anchor="start" x="528.5" y="-1223.3" font-family="Times,serif" font-size="14.00"> keys = ()</text>
<text text-anchor="start" x="528.5" y="-1208.3" font-family="Times,serif" font-size="14.00"> Map #0, #1, #2, #3</text>
<text text-anchor="start" x="528.5" y="-1193.3" font-family="Times,serif" font-size="14.00"> types = (integer?, integer, integer, integer, integer?, integer, integer, integer)</text>
<text text-anchor="start" x="528.5" y="-1178.3" font-family="Times,serif" font-size="14.00"> keys = ()</text>
<text text-anchor="start" x="528.5" y="-1163.3" font-family="Times,serif" font-size="14.00"> Project (#4..#7)</text>
<text text-anchor="start" x="528.5" y="-1148.3" font-family="Times,serif" font-size="14.00"> types = (integer?, integer, integer, integer)</text>
<text text-anchor="start" x="528.5" y="-1133.3" font-family="Times,serif" font-size="14.00"> keys = ()</text>
</g>
<!-- node2&#45;&gt;node5 -->
<g id="edge15" class="edge">
<title>node2&#45;&gt;node5</title>
<path fill="none" stroke="black" d="M1034.96,-1447.86C1017.41,-1433.14 995.47,-1414.74 972.19,-1395.23"/>
<polygon fill="black" stroke="black" points="974.17,-1392.32 964.25,-1388.58 969.67,-1397.68 974.17,-1392.32"/>
<text text-anchor="start" x="1003.5" y="-1410.8" font-family="Times,serif" font-size="14.00">%2</text>
</g>
<!-- node3 -->
<g id="node4" class="node">
<title>node3</title>
<polygon fill="none" stroke="black" points="712.5,-1583 712.5,-1636 1002.5,-1636 1002.5,-1583 712.5,-1583"/>
<text text-anchor="start" x="720.5" y="-1620.8" font-family="Times,serif" font-size="14.00">Get simplify_outer_joins.public.r (u96)</text>
<text text-anchor="start" x="720.5" y="-1605.8" font-family="Times,serif" font-size="14.00"> types = (integer?, integer)</text>
<text text-anchor="start" x="720.5" y="-1590.8" font-family="Times,serif" font-size="14.00"> keys = ()</text>
</g>
<!-- node3&#45;&gt;node4 -->
<g id="edge14" class="edge">
<title>node3&#45;&gt;node4</title>
<path fill="none" stroke="black" d="M843.17,-1582.8C833.91,-1566.21 821.65,-1544.23 811,-1525.13"/>
<polygon fill="black" stroke="black" points="814,-1523.33 806.07,-1516.3 807.89,-1526.74 814,-1523.33"/>
<text text-anchor="start" x="829.5" y="-1545.8" font-family="Times,serif" font-size="14.00">%3</text>
</g>
<!-- node4&#45;&gt;node5 -->
<g id="edge17" class="edge">
<title>node4&#45;&gt;node5</title>
<path fill="none" stroke="black" d="M790.64,-1447.61C791.94,-1433.88 793.53,-1416.96 795.23,-1398.94"/>
<polygon fill="black" stroke="black" points="798.73,-1399.11 796.18,-1388.83 791.76,-1398.45 798.73,-1399.11"/>
<text text-anchor="start" x="794.5" y="-1410.8" font-family="Times,serif" font-size="14.00">%4</text>
</g>
<!-- node8 -->
<g id="node9" class="node">
<title>node8</title>
<polygon fill="none" stroke="black" points="309,-900.5 309,-1073.5 706,-1073.5 706,-900.5 309,-900.5"/>
<text text-anchor="start" x="317" y="-1058.3" font-family="Times,serif" font-size="14.00">Let l3 =</text>
<text text-anchor="start" x="317" y="-1043.3" font-family="Times,serif" font-size="14.00"> Join %5 %7</text>
<text text-anchor="start" x="317" y="-1028.3" font-family="Times,serif" font-size="14.00"> implementation = Unimplemented</text>
<text text-anchor="start" x="317" y="-1013.3" font-family="Times,serif" font-size="14.00"> types = (integer?, integer, integer, integer, integer?)</text>
<text text-anchor="start" x="317" y="-998.3" font-family="Times,serif" font-size="14.00"> keys = ()</text>
<text text-anchor="start" x="317" y="-983.3" font-family="Times,serif" font-size="14.00"> Project (#0..#4)</text>
<text text-anchor="start" x="317" y="-968.3" font-family="Times,serif" font-size="14.00"> types = (integer?, integer, integer, integer, integer?)</text>
<text text-anchor="start" x="317" y="-953.3" font-family="Times,serif" font-size="14.00"> keys = ()</text>
<text text-anchor="start" x="317" y="-938.3" font-family="Times,serif" font-size="14.00"> Filter (#1 = #4)</text>
<text text-anchor="start" x="317" y="-923.3" font-family="Times,serif" font-size="14.00"> types = (integer?, integer, integer, integer, integer)</text>
<text text-anchor="start" x="317" y="-908.3" font-family="Times,serif" font-size="14.00"> keys = ()</text>
</g>
<!-- node5&#45;&gt;node8 -->
<g id="edge12" class="edge">
<title>node5&#45;&gt;node8</title>
<path fill="none" stroke="black" d="M661.53,-1125.14C644.6,-1110.07 627.61,-1094.94 611.42,-1080.53"/>
<polygon fill="black" stroke="black" points="613.34,-1077.55 603.54,-1073.51 608.68,-1082.77 613.34,-1077.55"/>
<text text-anchor="start" x="640.5" y="-1095.8" font-family="Times,serif" font-size="14.00">%5</text>
</g>
<!-- node10 -->
<g id="node11" class="node">
<title>node10</title>
<polygon fill="none" stroke="black" points="398,-480.5 398,-638.5 787,-638.5 787,-480.5 398,-480.5"/>
<text text-anchor="start" x="406" y="-623.3" font-family="Times,serif" font-size="14.00">Join %5 %9 (= #1 #4)</text>
<text text-anchor="start" x="406" y="-608.3" font-family="Times,serif" font-size="14.00"> implementation = Unimplemented</text>
<text text-anchor="start" x="406" y="-593.3" font-family="Times,serif" font-size="14.00"> types = (integer?, integer, integer, integer, integer)</text>
<text text-anchor="start" x="406" y="-578.3" font-family="Times,serif" font-size="14.00"> keys = ()</text>
<text text-anchor="start" x="406" y="-563.3" font-family="Times,serif" font-size="14.00"> Project (#0..#3)</text>
<text text-anchor="start" x="406" y="-548.3" font-family="Times,serif" font-size="14.00"> types = (integer?, integer, integer, integer)</text>
<text text-anchor="start" x="406" y="-533.3" font-family="Times,serif" font-size="14.00"> keys = ()</text>
<text text-anchor="start" x="406" y="-518.3" font-family="Times,serif" font-size="14.00"> Negate</text>
<text text-anchor="start" x="406" y="-503.3" font-family="Times,serif" font-size="14.00"> types = (integer?, integer, integer, integer)</text>
<text text-anchor="start" x="406" y="-488.3" font-family="Times,serif" font-size="14.00"> keys = ()</text>
</g>
<!-- node5&#45;&gt;node10 -->
<g id="edge3" class="edge">
<title>node5&#45;&gt;node10</title>
<path fill="none" stroke="black" d="M804.24,-1125.17C798.29,-969.88 785.89,-727.15 765.5,-690 756.67,-673.91 744.89,-659.23 731.61,-646.02"/>
<polygon fill="black" stroke="black" points="733.74,-643.22 724.09,-638.84 728.9,-648.28 733.74,-643.22"/>
<text text-anchor="start" x="791.5" y="-870.8" font-family="Times,serif" font-size="14.00">%5</text>
</g>
<!-- node11 -->
<g id="node12" class="node">
<title>node11</title>
<polygon fill="none" stroke="black" points="394,-330.5 394,-428.5 791,-428.5 791,-330.5 394,-330.5"/>
<text text-anchor="start" x="402" y="-413.3" font-family="Times,serif" font-size="14.00">Union %10 %5</text>
<text text-anchor="start" x="402" y="-398.3" font-family="Times,serif" font-size="14.00"> types = (integer?, integer, integer, integer)</text>
<text text-anchor="start" x="402" y="-383.3" font-family="Times,serif" font-size="14.00"> keys = ()</text>
<text text-anchor="start" x="402" y="-368.3" font-family="Times,serif" font-size="14.00"> Map null</text>
<text text-anchor="start" x="402" y="-353.3" font-family="Times,serif" font-size="14.00"> types = (integer?, integer, integer, integer, integer?)</text>
<text text-anchor="start" x="402" y="-338.3" font-family="Times,serif" font-size="14.00"> keys = ()</text>
</g>
<!-- node5&#45;&gt;node11 -->
<g id="edge11" class="edge">
<title>node5&#45;&gt;node11</title>
<path fill="none" stroke="black" d="M824.22,-1125.33C828.27,-1081.73 831.5,-1032.83 831.5,-988 831.5,-988 831.5,-988 831.5,-558.5 831.5,-502.25 788.39,-461.67 738.79,-433.6"/>
<polygon fill="black" stroke="black" points="740.25,-430.41 729.8,-428.68 736.89,-436.55 740.25,-430.41"/>
<text text-anchor="start" x="831.5" y="-765.8" font-family="Times,serif" font-size="14.00">%5</text>
</g>
<!-- node6 -->
<g id="node7" class="node">
<title>node6</title>
<polygon fill="none" stroke="black" points="284.5,-1583 284.5,-1636 574.5,-1636 574.5,-1583 284.5,-1583"/>
<text text-anchor="start" x="292.5" y="-1620.8" font-family="Times,serif" font-size="14.00">Get simplify_outer_joins.public.t (u98)</text>
<text text-anchor="start" x="292.5" y="-1605.8" font-family="Times,serif" font-size="14.00"> types = (integer?)</text>
<text text-anchor="start" x="292.5" y="-1590.8" font-family="Times,serif" font-size="14.00"> keys = ()</text>
</g>
<!-- node6&#45;&gt;node7 -->
<g id="edge9" class="edge">
<title>node6&#45;&gt;node7</title>
<path fill="none" stroke="black" d="M439.74,-1582.8C445.38,-1568.65 452.57,-1550.59 459.29,-1533.73"/>
<polygon fill="black" stroke="black" points="462.72,-1534.57 463.17,-1523.98 456.22,-1531.98 462.72,-1534.57"/>
<text text-anchor="start" x="454.5" y="-1545.8" font-family="Times,serif" font-size="14.00">%6</text>
</g>
<!-- node7&#45;&gt;node8 -->
<g id="edge2" class="edge">
<title>node7&#45;&gt;node8</title>
<path fill="none" stroke="black" d="M479.04,-1440.34C478.63,-1374.15 479.18,-1239 488.5,-1125 489.59,-1111.62 491.12,-1097.54 492.83,-1083.72"/>
<polygon fill="black" stroke="black" points="496.31,-1084.07 494.11,-1073.71 489.37,-1083.18 496.31,-1084.07"/>
<text text-anchor="start" x="488.5" y="-1253.3" font-family="Times,serif" font-size="14.00">%7</text>
</g>
<!-- node9 -->
<g id="node10" class="node">
<title>node9</title>
<polygon fill="none" stroke="black" points="368,-690.5 368,-848.5 757,-848.5 757,-690.5 368,-690.5"/>
<text text-anchor="start" x="376" y="-833.3" font-family="Times,serif" font-size="14.00">Let l4 =</text>
<text text-anchor="start" x="376" y="-818.3" font-family="Times,serif" font-size="14.00"> Get %8 (l3)</text>
<text text-anchor="start" x="376" y="-803.3" font-family="Times,serif" font-size="14.00"> types = (integer?, integer, integer, integer, integer)</text>
<text text-anchor="start" x="376" y="-788.3" font-family="Times,serif" font-size="14.00"> keys = ()</text>
<text text-anchor="start" x="376" y="-773.3" font-family="Times,serif" font-size="14.00"> Project (#1)</text>
<text text-anchor="start" x="376" y="-758.3" font-family="Times,serif" font-size="14.00"> types = (integer)</text>
<text text-anchor="start" x="376" y="-743.3" font-family="Times,serif" font-size="14.00"> keys = ()</text>
<text text-anchor="start" x="376" y="-728.3" font-family="Times,serif" font-size="14.00"> Distinct group=(#0)</text>
<text text-anchor="start" x="376" y="-713.3" font-family="Times,serif" font-size="14.00"> types = (integer)</text>
<text text-anchor="start" x="376" y="-698.3" font-family="Times,serif" font-size="14.00"> keys = ((#0))</text>
</g>
<!-- node8&#45;&gt;node9 -->
<g id="edge6" class="edge">
<title>node8&#45;&gt;node9</title>
<path fill="none" stroke="black" d="M529.4,-900.21C532.89,-886.51 536.51,-872.32 540.02,-858.58"/>
<polygon fill="black" stroke="black" points="543.47,-859.21 542.55,-848.66 536.69,-857.48 543.47,-859.21"/>
<text text-anchor="start" x="537.5" y="-870.8" font-family="Times,serif" font-size="14.00">%8</text>
</g>
<!-- node12 -->
<g id="node13" class="node">
<title>node12</title>
<polygon fill="none" stroke="black" points="0,-0.5 0,-278.5 711,-278.5 711,-0.5 0,-0.5"/>
<text text-anchor="start" x="8" y="-263.3" font-family="Times,serif" font-size="14.00">Union %11 %8</text>
<text text-anchor="start" x="8" y="-248.3" font-family="Times,serif" font-size="14.00"> types = (integer?, integer, integer, integer, integer?)</text>
<text text-anchor="start" x="8" y="-233.3" font-family="Times,serif" font-size="14.00"> keys = ()</text>
<text text-anchor="start" x="8" y="-218.3" font-family="Times,serif" font-size="14.00"> Map #0, #1, #2, #3, #4</text>
<text text-anchor="start" x="8" y="-203.3" font-family="Times,serif" font-size="14.00"> types = (integer?, integer, integer, integer, integer?, integer?, integer, integer, integer, integer?)</text>
<text text-anchor="start" x="8" y="-188.3" font-family="Times,serif" font-size="14.00"> keys = ()</text>
<text text-anchor="start" x="8" y="-173.3" font-family="Times,serif" font-size="14.00"> Project (#5..#9)</text>
<text text-anchor="start" x="8" y="-158.3" font-family="Times,serif" font-size="14.00"> types = (integer?, integer, integer, integer, integer?)</text>
<text text-anchor="start" x="8" y="-143.3" font-family="Times,serif" font-size="14.00"> keys = ()</text>
<text text-anchor="start" x="8" y="-128.3" font-family="Times,serif" font-size="14.00"> Filter (#0 &gt; #3)</text>
<text text-anchor="start" x="8" y="-113.3" font-family="Times,serif" font-size="14.00"> types = (integer, integer, integer, integer, integer?)</text>
<text text-anchor="start" x="8" y="-98.3" font-family="Times,serif" font-size="14.00"> keys = ()</text>
<text text-anchor="start" x="8" y="-83.3" font-family="Times,serif" font-size="14.00"> Map #0, #1, #2, #3, #4</text>
<text text-anchor="start" x="8" y="-68.3" font-family="Times,serif" font-size="14.00"> types = (integer, integer, integer, integer, integer?, integer, integer, integer, integer, integer?)</text>
<text text-anchor="start" x="8" y="-53.3" font-family="Times,serif" font-size="14.00"> keys = ()</text>
<text text-anchor="start" x="8" y="-38.3" font-family="Times,serif" font-size="14.00"> Project (#5..#9)</text>
<text text-anchor="start" x="8" y="-23.3" font-family="Times,serif" font-size="14.00"> types = (integer, integer, integer, integer, integer?)</text>
<text text-anchor="start" x="8" y="-8.3" font-family="Times,serif" font-size="14.00"> keys = ()</text>
</g>
<!-- node8&#45;&gt;node12 -->
<g id="edge7" class="edge">
<title>node8&#45;&gt;node12</title>
<path fill="none" stroke="black" d="M398.41,-900.39C383.3,-884.63 369.29,-867.32 358.5,-849 340.28,-818.07 339.5,-806.4 339.5,-770.5 339.5,-770.5 339.5,-770.5 339.5,-378.5 339.5,-349.39 340.71,-318.31 342.46,-288.55"/>
<polygon fill="black" stroke="black" points="345.95,-288.71 343.07,-278.52 338.97,-288.28 345.95,-288.71"/>
<text text-anchor="start" x="339.5" y="-555.8" font-family="Times,serif" font-size="14.00">%8</text>
</g>
<!-- node9&#45;&gt;node10 -->
<g id="edge10" class="edge">
<title>node9&#45;&gt;node10</title>
<path fill="none" stroke="black" d="M573.76,-690.46C575.72,-676.82 577.78,-662.55 579.78,-648.66"/>
<polygon fill="black" stroke="black" points="583.27,-649.03 581.23,-638.63 576.34,-648.03 583.27,-649.03"/>
<text text-anchor="start" x="578.5" y="-660.8" font-family="Times,serif" font-size="14.00">%9</text>
</g>
<!-- node10&#45;&gt;node11 -->
<g id="edge4" class="edge">
<title>node10&#45;&gt;node11</title>
<path fill="none" stroke="black" d="M592.5,-480.43C592.5,-466.5 592.5,-452.2 592.5,-438.94"/>
<polygon fill="black" stroke="black" points="596,-438.55 592.5,-428.55 589,-438.55 596,-438.55"/>
<text text-anchor="start" x="592.5" y="-450.8" font-family="Times,serif" font-size="14.00">%10</text>
</g>
<!-- node11&#45;&gt;node12 -->
<g id="edge5" class="edge">
<title>node11&#45;&gt;node12</title>
<path fill="none" stroke="black" d="M544.54,-330.34C531.29,-317.03 516.18,-301.86 500.42,-286.03"/>
<polygon fill="black" stroke="black" points="502.67,-283.33 493.13,-278.71 497.71,-288.27 502.67,-283.33"/>
<text text-anchor="start" x="522.5" y="-300.8" font-family="Times,serif" font-size="14.00">%11</text>
</g>
</g>
</svg>
