<?xml version="1.0" encoding="UTF-8" standalone="no"?>
<!DOCTYPE svg PUBLIC "-//W3C//DTD SVG 1.1//EN"
 "http://www.w3.org/Graphics/SVG/1.1/DTD/svg11.dtd">
<!-- Generated by graphviz version 2.43.0 (0)
 -->
<!-- Title: G Pages: 1 -->
<svg width="323pt" height="167pt"
 viewBox="0.00 0.00 323.00 167.00" xmlns="http://www.w3.org/2000/svg" xmlns:xlink="http://www.w3.org/1999/xlink">
<g id="graph0" class="graph" transform="scale(1 1) rotate(0) translate(4 163)">
<title>G</title>
<polygon fill="white" stroke="transparent" points="-4,4 -4,-163 319,-163 319,4 -4,4"/>
<!-- node0 -->
<g id="node1" class="node">
<title>node0</title>
<polygon fill="none" stroke="black" points="1,-120.5 1,-158.5 102,-158.5 102,-120.5 1,-120.5"/>
<text text-anchor="start" x="9" y="-143.3" font-family="Times,serif" font-size="14.00">Let l0 =</text>
<text text-anchor="start" x="9" y="-128.3" font-family="Times,serif" font-size="14.00"> Constant ()</text>
</g>
<!-- node2 -->
<g id="node3" class="node">
<title>node2</title>
<polygon fill="none" stroke="black" points="0,-0.5 0,-68.5 269,-68.5 269,-0.5 0,-0.5"/>
<text text-anchor="start" x="8" y="-53.3" font-family="Times,serif" font-size="14.00">Join %0 %1</text>
<text text-anchor="start" x="8" y="-38.3" font-family="Times,serif" font-size="14.00"> implementation = Unimplemented</text>
<text text-anchor="start" x="8" y="-23.3" font-family="Times,serif" font-size="14.00"> Filter (coalesce(#0, #1) &gt; 0)</text>
<text text-anchor="start" x="8" y="-8.3" font-family="Times,serif" font-size="14.00"> Project (#0, #1)</text>
</g>
<!-- node0&#45;&gt;node2 -->
<g id="edge1" class="edge">
<title>node0&#45;&gt;node2</title>
<path fill="none" stroke="black" d="M66.34,-120.09C76.02,-108.08 89.05,-91.9 101.13,-76.91"/>
<polygon fill="black" stroke="black" points="104.16,-78.73 107.71,-68.74 98.71,-74.33 104.16,-78.73"/>
<text text-anchor="start" x="93.5" y="-90.8" font-family="Times,serif" font-size="14.00">%0</text>
</g>
<!-- node1 -->
<g id="node2" class="node">
<title>node1</title>
<polygon fill="none" stroke="black" points="120,-121.5 120,-157.5 315,-157.5 315,-121.5 120,-121.5"/>
<text text-anchor="start" x="128" y="-135.8" font-family="Times,serif" font-size="14.00">Get types.public.t (u127)</text>
</g>
<!-- node1&#45;&gt;node2 -->
<g id="edge2" class="edge">
<title>node1&#45;&gt;node2</title>
<path fill="none" stroke="black" d="M203.79,-121.49C193.99,-109.33 180.36,-92.41 167.78,-76.8"/>
<polygon fill="black" stroke="black" points="170.32,-74.38 161.32,-68.79 164.87,-78.77 170.32,-74.38"/>
<text text-anchor="start" x="185.5" y="-90.8" font-family="Times,serif" font-size="14.00">%1</text>
</g>
</g>
</svg>
