<?xml version="1.0" encoding="UTF-8" standalone="no"?>
<!DOCTYPE svg PUBLIC "-//W3C//DTD SVG 1.1//EN"
 "http://www.w3.org/Graphics/SVG/1.1/DTD/svg11.dtd">
<!-- Generated by graphviz version 2.43.0 (0)
 -->
<!-- Title: G Pages: 1 -->
<svg width="346pt" height="287pt"
 viewBox="0.00 0.00 346.00 287.00" xmlns="http://www.w3.org/2000/svg" xmlns:xlink="http://www.w3.org/1999/xlink">
<g id="graph0" class="graph" transform="scale(1 1) rotate(0) translate(4 283)">
<title>G</title>
<polygon fill="white" stroke="transparent" points="-4,4 -4,-283 342,-283 342,4 -4,4"/>
<!-- node0 -->
<g id="node1" class="node">
<title>node0</title>
<polygon fill="none" stroke="black" points="0,-210.5 0,-278.5 101,-278.5 101,-210.5 0,-210.5"/>
<text text-anchor="start" x="8" y="-263.3" font-family="Times,serif" font-size="14.00">Let l0 =</text>
<text text-anchor="start" x="8" y="-248.3" font-family="Times,serif" font-size="14.00"> Constant ()</text>
<text text-anchor="start" x="8" y="-233.3" font-family="Times,serif" font-size="14.00"> types = ()</text>
<text text-anchor="start" x="8" y="-218.3" font-family="Times,serif" font-size="14.00"> keys = (())</text>
</g>
<!-- node2 -->
<g id="node3" class="node">
<title>node2</title>
<polygon fill="none" stroke="black" points="5,-0.5 5,-158.5 274,-158.5 274,-0.5 5,-0.5"/>
<text text-anchor="start" x="13" y="-143.3" font-family="Times,serif" font-size="14.00">Join %0 %1</text>
<text text-anchor="start" x="13" y="-128.3" font-family="Times,serif" font-size="14.00"> implementation = Unimplemented</text>
<text text-anchor="start" x="13" y="-113.3" font-family="Times,serif" font-size="14.00"> types = (integer?, integer?)</text>
<text text-anchor="start" x="13" y="-98.3" font-family="Times,serif" font-size="14.00"> keys = ()</text>
<text text-anchor="start" x="13" y="-83.3" font-family="Times,serif" font-size="14.00"> Filter (coalesce(#0, #1) &gt; 0)</text>
<text text-anchor="start" x="13" y="-68.3" font-family="Times,serif" font-size="14.00"> types = (integer?, integer?)</text>
<text text-anchor="start" x="13" y="-53.3" font-family="Times,serif" font-size="14.00"> keys = ()</text>
<text text-anchor="start" x="13" y="-38.3" font-family="Times,serif" font-size="14.00"> Project (#0, #1)</text>
<text text-anchor="start" x="13" y="-23.3" font-family="Times,serif" font-size="14.00"> types = (integer?, integer?)</text>
<text text-anchor="start" x="13" y="-8.3" font-family="Times,serif" font-size="14.00"> keys = ()</text>
</g>
<!-- node0&#45;&gt;node2 -->
<g id="edge1" class="edge">
<title>node0&#45;&gt;node2</title>
<path fill="none" stroke="black" d="M68.73,-210.12C75.57,-197.59 83.71,-182.68 91.98,-167.53"/>
<polygon fill="black" stroke="black" points="95.14,-169.04 96.86,-158.59 89,-165.69 95.14,-169.04"/>
<text text-anchor="start" x="84.5" y="-180.8" font-family="Times,serif" font-size="14.00">%0</text>
</g>
<!-- node1 -->
<g id="node2" class="node">
<title>node1</title>
<polygon fill="none" stroke="black" points="119,-218 119,-271 338,-271 338,-218 119,-218"/>
<text text-anchor="start" x="127" y="-255.8" font-family="Times,serif" font-size="14.00">Get types.public.t (u127)</text>
<text text-anchor="start" x="127" y="-240.8" font-family="Times,serif" font-size="14.00"> types = (integer?, integer?)</text>
<text text-anchor="start" x="127" y="-225.8" font-family="Times,serif" font-size="14.00"> keys = ()</text>
</g>
<!-- node1&#45;&gt;node2 -->
<g id="edge2" class="edge">
<title>node1&#45;&gt;node2</title>
<path fill="none" stroke="black" d="M214.4,-217.67C206.86,-203.86 197.09,-185.97 187.11,-167.69"/>
<polygon fill="black" stroke="black" points="190.07,-165.81 182.2,-158.71 183.92,-169.16 190.07,-165.81"/>
<text text-anchor="start" x="199.5" y="-180.8" font-family="Times,serif" font-size="14.00">%1</text>
</g>
</g>
</svg>
