<?xml version="1.0" encoding="UTF-8" standalone="no"?>
<!DOCTYPE svg PUBLIC "-//W3C//DTD SVG 1.1//EN"
 "http://www.w3.org/Graphics/SVG/1.1/DTD/svg11.dtd">
<!-- Generated by graphviz version 2.43.0 (0)
 -->
<!-- Title: G Pages: 1 -->
<svg width="1032pt" height="887pt"
 viewBox="0.00 0.00 1032.00 887.00" xmlns="http://www.w3.org/2000/svg" xmlns:xlink="http://www.w3.org/1999/xlink">
<g id="graph0" class="graph" transform="scale(1 1) rotate(0) translate(4 883)">
<title>G</title>
<polygon fill="white" stroke="transparent" points="-4,4 -4,-883 1028,-883 1028,4 -4,4"/>
<!-- node0 -->
<g id="node1" class="node">
<title>node0</title>
<polygon fill="none" stroke="black" points="308.5,-840.5 308.5,-878.5 409.5,-878.5 409.5,-840.5 308.5,-840.5"/>
<text text-anchor="start" x="316.5" y="-863.3" font-family="Times,serif" font-size="14.00">Let l0 =</text>
<text text-anchor="start" x="316.5" y="-848.3" font-family="Times,serif" font-size="14.00"> Constant ()</text>
</g>
<!-- node2 -->
<g id="node3" class="node">
<title>node2</title>
<polygon fill="none" stroke="black" points="655.5,-743 655.5,-781 924.5,-781 924.5,-743 655.5,-743"/>
<text text-anchor="start" x="663.5" y="-765.8" font-family="Times,serif" font-size="14.00">Join %0 %1</text>
<text text-anchor="start" x="663.5" y="-750.8" font-family="Times,serif" font-size="14.00"> implementation = Unimplemented</text>
</g>
<!-- node0&#45;&gt;node2 -->
<g id="edge5" class="edge">
<title>node0&#45;&gt;node2</title>
<path fill="none" stroke="black" d="M403.93,-840.43C433.37,-829.25 472.95,-815.47 509,-807 568.79,-792.96 585.32,-798.46 646,-789 658.18,-787.1 670.92,-784.99 683.56,-782.81"/>
<polygon fill="black" stroke="black" points="684.42,-786.21 693.67,-781.05 683.22,-779.32 684.42,-786.21"/>
<text text-anchor="start" x="509" y="-810.8" font-family="Times,serif" font-size="14.00">%0</text>
</g>
<!-- node4 -->
<g id="node5" class="node">
<title>node4</title>
<polygon fill="none" stroke="black" points="368.5,-743 368.5,-781 637.5,-781 637.5,-743 368.5,-743"/>
<text text-anchor="start" x="376.5" y="-765.8" font-family="Times,serif" font-size="14.00">Join %0 %3</text>
<text text-anchor="start" x="376.5" y="-750.8" font-family="Times,serif" font-size="14.00"> implementation = Unimplemented</text>
</g>
<!-- node0&#45;&gt;node4 -->
<g id="edge17" class="edge">
<title>node0&#45;&gt;node4</title>
<path fill="none" stroke="black" d="M378.58,-840.5C390.4,-830.08 406.03,-817.09 421,-807 432.1,-799.52 444.61,-792.27 456.45,-785.89"/>
<polygon fill="black" stroke="black" points="458.14,-788.96 465.34,-781.19 454.87,-782.77 458.14,-788.96"/>
<text text-anchor="start" x="421" y="-810.8" font-family="Times,serif" font-size="14.00">%0</text>
</g>
<!-- node7 -->
<g id="node8" class="node">
<title>node7</title>
<polygon fill="none" stroke="black" points="81.5,-735.5 81.5,-788.5 350.5,-788.5 350.5,-735.5 81.5,-735.5"/>
<text text-anchor="start" x="89.5" y="-773.3" font-family="Times,serif" font-size="14.00">Let l2 =</text>
<text text-anchor="start" x="89.5" y="-758.3" font-family="Times,serif" font-size="14.00"> Join %0 %6</text>
<text text-anchor="start" x="89.5" y="-743.3" font-family="Times,serif" font-size="14.00"> implementation = Unimplemented</text>
</g>
<!-- node0&#45;&gt;node7 -->
<g id="edge7" class="edge">
<title>node0&#45;&gt;node7</title>
<path fill="none" stroke="black" d="M331.77,-840.31C312.29,-827.31 285.6,-809.48 262.75,-794.22"/>
<polygon fill="black" stroke="black" points="264.46,-791.16 254.2,-788.51 260.58,-796.98 264.46,-791.16"/>
<text text-anchor="start" x="301" y="-810.8" font-family="Times,serif" font-size="14.00">%0</text>
</g>
<!-- node1 -->
<g id="node2" class="node">
<title>node1</title>
<polygon fill="none" stroke="black" points="736,-841.5 736,-877.5 1024,-877.5 1024,-841.5 736,-841.5"/>
<text text-anchor="start" x="744" y="-855.8" font-family="Times,serif" font-size="14.00">Get simplify_outer_joins.public.l (u95)</text>
</g>
<!-- node1&#45;&gt;node2 -->
<g id="edge12" class="edge">
<title>node1&#45;&gt;node2</title>
<path fill="none" stroke="black" d="M863.91,-841.43C850.05,-826.72 829.86,-805.29 814.08,-788.55"/>
<polygon fill="black" stroke="black" points="816.58,-786.1 807.18,-781.23 811.49,-790.9 816.58,-786.1"/>
<text text-anchor="start" x="844" y="-810.8" font-family="Times,serif" font-size="14.00">%1</text>
</g>
<!-- node5 -->
<g id="node6" class="node">
<title>node5</title>
<polygon fill="none" stroke="black" points="368.5,-585.5 368.5,-683.5 637.5,-683.5 637.5,-585.5 368.5,-585.5"/>
<text text-anchor="start" x="376.5" y="-668.3" font-family="Times,serif" font-size="14.00">Let l1 =</text>
<text text-anchor="start" x="376.5" y="-653.3" font-family="Times,serif" font-size="14.00"> Join %2 %4</text>
<text text-anchor="start" x="376.5" y="-638.3" font-family="Times,serif" font-size="14.00"> implementation = Unimplemented</text>
<text text-anchor="start" x="376.5" y="-623.3" font-family="Times,serif" font-size="14.00"> Project (#0..=#3)</text>
<text text-anchor="start" x="376.5" y="-608.3" font-family="Times,serif" font-size="14.00"> Filter (#1 = #2)</text>
<text text-anchor="start" x="376.5" y="-593.3" font-family="Times,serif" font-size="14.00"> Project (#0..=#3)</text>
</g>
<!-- node2&#45;&gt;node5 -->
<g id="edge11" class="edge">
<title>node2&#45;&gt;node5</title>
<path fill="none" stroke="black" d="M748.57,-742.89C715.39,-728.37 667.11,-707.26 622.12,-687.59"/>
<polygon fill="black" stroke="black" points="623.44,-684.34 612.87,-683.54 620.63,-690.76 623.44,-684.34"/>
<text text-anchor="start" x="689" y="-705.8" font-family="Times,serif" font-size="14.00">%2</text>
</g>
<!-- node3 -->
<g id="node4" class="node">
<title>node3</title>
<polygon fill="none" stroke="black" points="428,-841.5 428,-877.5 718,-877.5 718,-841.5 428,-841.5"/>
<text text-anchor="start" x="436" y="-855.8" font-family="Times,serif" font-size="14.00">Get simplify_outer_joins.public.r (u97)</text>
</g>
<!-- node3&#45;&gt;node4 -->
<g id="edge15" class="edge">
<title>node3&#45;&gt;node4</title>
<path fill="none" stroke="black" d="M560.49,-841.43C549.9,-826.99 534.57,-806.06 522.39,-789.46"/>
<polygon fill="black" stroke="black" points="525.09,-787.22 516.36,-781.23 519.45,-791.36 525.09,-787.22"/>
<text text-anchor="start" x="545" y="-810.8" font-family="Times,serif" font-size="14.00">%3</text>
</g>
<!-- node4&#45;&gt;node5 -->
<g id="edge13" class="edge">
<title>node4&#45;&gt;node5</title>
<path fill="none" stroke="black" d="M503,-742.75C503,-729.79 503,-711.62 503,-693.91"/>
<polygon fill="black" stroke="black" points="506.5,-693.58 503,-683.58 499.5,-693.58 506.5,-693.58"/>
<text text-anchor="start" x="503" y="-705.8" font-family="Times,serif" font-size="14.00">%4</text>
</g>
<!-- node8 -->
<g id="node9" class="node">
<title>node8</title>
<polygon fill="none" stroke="black" points="170.5,-450.5 170.5,-533.5 439.5,-533.5 439.5,-450.5 170.5,-450.5"/>
<text text-anchor="start" x="178.5" y="-518.3" font-family="Times,serif" font-size="14.00">Let l3 =</text>
<text text-anchor="start" x="178.5" y="-503.3" font-family="Times,serif" font-size="14.00"> Join %5 %7</text>
<text text-anchor="start" x="178.5" y="-488.3" font-family="Times,serif" font-size="14.00"> implementation = Unimplemented</text>
<text text-anchor="start" x="178.5" y="-473.3" font-family="Times,serif" font-size="14.00"> Project (#0..=#4)</text>
<text text-anchor="start" x="178.5" y="-458.3" font-family="Times,serif" font-size="14.00"> Filter (#1 = #4)</text>
</g>
<!-- node5&#45;&gt;node8 -->
<g id="edge6" class="edge">
<title>node5&#45;&gt;node8</title>
<path fill="none" stroke="black" d="M435.14,-585.34C414.28,-570.54 391.37,-554.28 370.66,-539.59"/>
<polygon fill="black" stroke="black" points="372.42,-536.55 362.23,-533.61 368.36,-542.25 372.42,-536.55"/>
<text text-anchor="start" x="404" y="-555.8" font-family="Times,serif" font-size="14.00">%5</text>
</g>
<!-- node10 -->
<g id="node11" class="node">
<title>node10</title>
<polygon fill="none" stroke="black" points="233.5,-210.5 233.5,-278.5 502.5,-278.5 502.5,-210.5 233.5,-210.5"/>
<text text-anchor="start" x="241.5" y="-263.3" font-family="Times,serif" font-size="14.00">Join %5 %9 (= #1 #4)</text>
<text text-anchor="start" x="241.5" y="-248.3" font-family="Times,serif" font-size="14.00"> implementation = Unimplemented</text>
<text text-anchor="start" x="241.5" y="-233.3" font-family="Times,serif" font-size="14.00"> Project (#0..=#3)</text>
<text text-anchor="start" x="241.5" y="-218.3" font-family="Times,serif" font-size="14.00"> Negate</text>
</g>
<!-- node5&#45;&gt;node10 -->
<g id="edge14" class="edge">
<title>node5&#45;&gt;node10</title>
<path fill="none" stroke="black" d="M496.19,-585.5C486.31,-524.16 464.78,-415.68 426,-330 419.32,-315.24 410.05,-300.29 400.89,-287.15"/>
<polygon fill="black" stroke="black" points="403.57,-284.89 394.91,-278.8 397.88,-288.97 403.57,-284.89"/>
<text text-anchor="start" x="462" y="-420.8" font-family="Times,serif" font-size="14.00">%5</text>
</g>
<!-- node11 -->
<g id="node12" class="node">
<title>node11</title>
<polygon fill="none" stroke="black" points="307,-120.5 307,-158.5 429,-158.5 429,-120.5 307,-120.5"/>
<text text-anchor="start" x="315" y="-143.3" font-family="Times,serif" font-size="14.00">Union %10 %5</text>
<text text-anchor="start" x="315" y="-128.3" font-family="Times,serif" font-size="14.00"> Map null</text>
</g>
<!-- node5&#45;&gt;node11 -->
<g id="edge9" class="edge">
<title>node5&#45;&gt;node11</title>
<path fill="none" stroke="black" d="M517.49,-585.2C524.32,-558.32 531,-524.09 531,-493 531,-493 531,-493 531,-243.5 531,-196.88 482.75,-170.5 438.75,-156.13"/>
<polygon fill="black" stroke="black" points="439.75,-152.78 429.16,-153.16 437.68,-159.46 439.75,-152.78"/>
<text text-anchor="start" x="531" y="-360.8" font-family="Times,serif" font-size="14.00">%5</text>
</g>
<!-- node6 -->
<g id="node7" class="node">
<title>node6</title>
<polygon fill="none" stroke="black" points="0,-841.5 0,-877.5 290,-877.5 290,-841.5 0,-841.5"/>
<text text-anchor="start" x="8" y="-855.8" font-family="Times,serif" font-size="14.00">Get simplify_outer_joins.public.t (u99)</text>
</g>
<!-- node6&#45;&gt;node7 -->
<g id="edge2" class="edge">
<title>node6&#45;&gt;node7</title>
<path fill="none" stroke="black" d="M157.69,-841.43C166.91,-829.02 179.7,-811.83 190.94,-796.7"/>
<polygon fill="black" stroke="black" points="193.84,-798.67 197,-788.55 188.23,-794.49 193.84,-798.67"/>
<text text-anchor="start" x="183" y="-810.8" font-family="Times,serif" font-size="14.00">%6</text>
</g>
<!-- node7&#45;&gt;node8 -->
<g id="edge10" class="edge">
<title>node7&#45;&gt;node8</title>
<path fill="none" stroke="black" d="M224.53,-735.3C239.18,-691.21 269.33,-600.4 288.28,-543.34"/>
<polygon fill="black" stroke="black" points="291.63,-544.38 291.46,-533.79 284.98,-542.17 291.63,-544.38"/>
<text text-anchor="start" x="274" y="-630.8" font-family="Times,serif" font-size="14.00">%7</text>
</g>
<!-- node9 -->
<g id="node10" class="node">
<title>node9</title>
<polygon fill="none" stroke="black" points="250.5,-330.5 250.5,-398.5 417.5,-398.5 417.5,-330.5 250.5,-330.5"/>
<text text-anchor="start" x="258.5" y="-383.3" font-family="Times,serif" font-size="14.00">Let l4 =</text>
<text text-anchor="start" x="258.5" y="-368.3" font-family="Times,serif" font-size="14.00"> Get %8 (l3)</text>
<text text-anchor="start" x="258.5" y="-353.3" font-family="Times,serif" font-size="14.00"> Project (#1)</text>
<text text-anchor="start" x="258.5" y="-338.3" font-family="Times,serif" font-size="14.00"> Distinct group=(#0)</text>
</g>
<!-- node8&#45;&gt;node9 -->
<g id="edge1" class="edge">
<title>node8&#45;&gt;node9</title>
<path fill="none" stroke="black" d="M314.42,-450.25C317.5,-436.91 320.93,-422.04 324.06,-408.53"/>
<polygon fill="black" stroke="black" points="327.53,-409.04 326.37,-398.51 320.71,-407.47 327.53,-409.04"/>
<text text-anchor="start" x="323" y="-420.8" font-family="Times,serif" font-size="14.00">%8</text>
</g>
<!-- node12 -->
<g id="node13" class="node">
<title>node12</title>
<polygon fill="none" stroke="black" points="133,-0.5 133,-68.5 283,-68.5 283,-0.5 133,-0.5"/>
<text text-anchor="start" x="141" y="-53.3" font-family="Times,serif" font-size="14.00">Union %11 %8</text>
<text text-anchor="start" x="141" y="-38.3" font-family="Times,serif" font-size="14.00"> Project (#0..=#4)</text>
<text text-anchor="start" x="141" y="-23.3" font-family="Times,serif" font-size="14.00"> Filter (#0 &gt; #3)</text>
<text text-anchor="start" x="141" y="-8.3" font-family="Times,serif" font-size="14.00"> Project (#0..=#4)</text>
</g>
<!-- node8&#45;&gt;node12 -->
<g id="edge16" class="edge">
<title>node8&#45;&gt;node12</title>
<path fill="none" stroke="black" d="M240.91,-450.24C215.4,-428.72 192,-399.66 192,-365.5 192,-365.5 192,-365.5 192,-138.5 192,-118.65 194.94,-96.9 198.29,-78.52"/>
<polygon fill="black" stroke="black" points="201.73,-79.18 200.19,-68.7 194.86,-77.85 201.73,-79.18"/>
<text text-anchor="start" x="192" y="-240.8" font-family="Times,serif" font-size="14.00">%8</text>
</g>
<!-- node9&#45;&gt;node10 -->
<g id="edge3" class="edge">
<title>node9&#45;&gt;node10</title>
<path fill="none" stroke="black" d="M343.56,-330.32C347.29,-317.37 351.62,-302.36 355.58,-288.6"/>
<polygon fill="black" stroke="black" points="358.99,-289.42 358.39,-278.84 352.26,-287.48 358.99,-289.42"/>
<text text-anchor="start" x="354" y="-300.8" font-family="Times,serif" font-size="14.00">%9</text>
</g>
<!-- node10&#45;&gt;node11 -->
<g id="edge4" class="edge">
<title>node10&#45;&gt;node11</title>
<path fill="none" stroke="black" d="M368,-210.34C368,-196.93 368,-181.6 368,-168.73"/>
<polygon fill="black" stroke="black" points="371.5,-168.59 368,-158.59 364.5,-168.59 371.5,-168.59"/>
<text text-anchor="start" x="368" y="-180.8" font-family="Times,serif" font-size="14.00">%10</text>
</g>
<!-- node11&#45;&gt;node12 -->
<g id="edge8" class="edge">
<title>node11&#45;&gt;node12</title>
<path fill="none" stroke="black" d="M339.76,-120.32C319.94,-107.56 292.69,-90.02 268.11,-74.2"/>
<polygon fill="black" stroke="black" points="269.85,-71.15 259.55,-68.68 266.06,-77.04 269.85,-71.15"/>
<text text-anchor="start" x="308" y="-90.8" font-family="Times,serif" font-size="14.00">%11</text>
</g>
</g>
</svg>
