<?xml version="1.0" encoding="UTF-8" standalone="no"?>
<!DOCTYPE svg PUBLIC "-//W3C//DTD SVG 1.1//EN"
 "http://www.w3.org/Graphics/SVG/1.1/DTD/svg11.dtd">
<!-- Generated by graphviz version 2.43.0 (0)
 -->
<!-- Title: G Pages: 1 -->
<svg width="1166pt" height="1517pt"
 viewBox="0.00 0.00 1165.50 1517.00" xmlns="http://www.w3.org/2000/svg" xmlns:xlink="http://www.w3.org/1999/xlink">
<g id="graph0" class="graph" transform="scale(1 1) rotate(0) translate(4 1513)">
<title>G</title>
<polygon fill="white" stroke="transparent" points="-4,4 -4,-1513 1161.5,-1513 1161.5,4 -4,4"/>
<!-- node0 -->
<g id="node1" class="node">
<title>node0</title>
<polygon fill="none" stroke="black" points="442,-1440.5 442,-1508.5 543,-1508.5 543,-1440.5 442,-1440.5"/>
<text text-anchor="start" x="450" y="-1493.3" font-family="Times,serif" font-size="14.00">Let l0 =</text>
<text text-anchor="start" x="450" y="-1478.3" font-family="Times,serif" font-size="14.00"> Constant ()</text>
<text text-anchor="start" x="450" y="-1463.3" font-family="Times,serif" font-size="14.00"> types = ()</text>
<text text-anchor="start" x="450" y="-1448.3" font-family="Times,serif" font-size="14.00"> keys = (())</text>
</g>
<!-- node2 -->
<g id="node3" class="node">
<title>node2</title>
<polygon fill="none" stroke="black" points="789,-1313 789,-1381 1058,-1381 1058,-1313 789,-1313"/>
<text text-anchor="start" x="797" y="-1365.8" font-family="Times,serif" font-size="14.00">Join %0 %1</text>
<text text-anchor="start" x="797" y="-1350.8" font-family="Times,serif" font-size="14.00"> implementation = Unimplemented</text>
<text text-anchor="start" x="797" y="-1335.8" font-family="Times,serif" font-size="14.00"> types = (integer?, integer?)</text>
<text text-anchor="start" x="797" y="-1320.8" font-family="Times,serif" font-size="14.00"> keys = ()</text>
</g>
<!-- node0&#45;&gt;node2 -->
<g id="edge5" class="edge">
<title>node0&#45;&gt;node2</title>
<path fill="none" stroke="black" d="M543.27,-1444.41C546.37,-1442.86 549.46,-1441.38 552.5,-1440 592.04,-1422.02 602.29,-1417.26 644.5,-1407 703.32,-1392.7 720.24,-1401.32 779.5,-1389 787.37,-1387.36 795.44,-1385.52 803.55,-1383.56"/>
<polygon fill="black" stroke="black" points="804.58,-1386.9 813.44,-1381.09 802.89,-1380.11 804.58,-1386.9"/>
<text text-anchor="start" x="644.5" y="-1410.8" font-family="Times,serif" font-size="14.00">%0</text>
</g>
<!-- node4 -->
<g id="node5" class="node">
<title>node4</title>
<polygon fill="none" stroke="black" points="502,-1313 502,-1381 771,-1381 771,-1313 502,-1313"/>
<text text-anchor="start" x="510" y="-1365.8" font-family="Times,serif" font-size="14.00">Join %0 %3</text>
<text text-anchor="start" x="510" y="-1350.8" font-family="Times,serif" font-size="14.00"> implementation = Unimplemented</text>
<text text-anchor="start" x="510" y="-1335.8" font-family="Times,serif" font-size="14.00"> types = (integer?, integer)</text>
<text text-anchor="start" x="510" y="-1320.8" font-family="Times,serif" font-size="14.00"> keys = ()</text>
</g>
<!-- node0&#45;&gt;node4 -->
<g id="edge17" class="edge">
<title>node0&#45;&gt;node4</title>
<path fill="none" stroke="black" d="M520.93,-1440.46C531.08,-1429.37 542.89,-1417.22 554.5,-1407 562.18,-1400.24 570.62,-1393.49 579.07,-1387.11"/>
<polygon fill="black" stroke="black" points="581.21,-1389.88 587.16,-1381.11 577.04,-1384.26 581.21,-1389.88"/>
<text text-anchor="start" x="554.5" y="-1410.8" font-family="Times,serif" font-size="14.00">%0</text>
</g>
<!-- node7 -->
<g id="node8" class="node">
<title>node7</title>
<polygon fill="none" stroke="black" points="215,-1305.5 215,-1388.5 484,-1388.5 484,-1305.5 215,-1305.5"/>
<text text-anchor="start" x="223" y="-1373.3" font-family="Times,serif" font-size="14.00">Let l2 =</text>
<text text-anchor="start" x="223" y="-1358.3" font-family="Times,serif" font-size="14.00"> Join %0 %6</text>
<text text-anchor="start" x="223" y="-1343.3" font-family="Times,serif" font-size="14.00"> implementation = Unimplemented</text>
<text text-anchor="start" x="223" y="-1328.3" font-family="Times,serif" font-size="14.00"> types = (integer?)</text>
<text text-anchor="start" x="223" y="-1313.3" font-family="Times,serif" font-size="14.00"> keys = ()</text>
</g>
<!-- node0&#45;&gt;node7 -->
<g id="edge7" class="edge">
<title>node0&#45;&gt;node7</title>
<path fill="none" stroke="black" d="M454.55,-1440.2C438.91,-1426.47 420.5,-1410.31 403.49,-1395.39"/>
<polygon fill="black" stroke="black" points="405.62,-1392.59 395.79,-1388.63 401,-1397.86 405.62,-1392.59"/>
<text text-anchor="start" x="434.5" y="-1410.8" font-family="Times,serif" font-size="14.00">%0</text>
</g>
<!-- node1 -->
<g id="node2" class="node">
<title>node1</title>
<polygon fill="none" stroke="black" points="869.5,-1448 869.5,-1501 1157.5,-1501 1157.5,-1448 869.5,-1448"/>
<text text-anchor="start" x="877.5" y="-1485.8" font-family="Times,serif" font-size="14.00">Get simplify_outer_joins.public.l (u95)</text>
<text text-anchor="start" x="877.5" y="-1470.8" font-family="Times,serif" font-size="14.00"> types = (integer?, integer?)</text>
<text text-anchor="start" x="877.5" y="-1455.8" font-family="Times,serif" font-size="14.00"> keys = ()</text>
</g>
<!-- node1&#45;&gt;node2 -->
<g id="edge12" class="edge">
<title>node1&#45;&gt;node2</title>
<path fill="none" stroke="black" d="M995.07,-1447.8C983.06,-1431.06 967.13,-1408.84 953.34,-1389.61"/>
<polygon fill="black" stroke="black" points="956.05,-1387.39 947.38,-1381.3 950.36,-1391.47 956.05,-1387.39"/>
<text text-anchor="start" x="977.5" y="-1410.8" font-family="Times,serif" font-size="14.00">%1</text>
</g>
<!-- node5 -->
<g id="node6" class="node">
<title>node5</title>
<polygon fill="none" stroke="black" points="462.5,-1035.5 462.5,-1253.5 810.5,-1253.5 810.5,-1035.5 462.5,-1035.5"/>
<text text-anchor="start" x="470.5" y="-1238.3" font-family="Times,serif" font-size="14.00">Let l1 =</text>
<text text-anchor="start" x="470.5" y="-1223.3" font-family="Times,serif" font-size="14.00"> Join %2 %4</text>
<text text-anchor="start" x="470.5" y="-1208.3" font-family="Times,serif" font-size="14.00"> implementation = Unimplemented</text>
<text text-anchor="start" x="470.5" y="-1193.3" font-family="Times,serif" font-size="14.00"> types = (integer?, integer?, integer?, integer)</text>
<text text-anchor="start" x="470.5" y="-1178.3" font-family="Times,serif" font-size="14.00"> keys = ()</text>
<text text-anchor="start" x="470.5" y="-1163.3" font-family="Times,serif" font-size="14.00"> Project (#0..=#3)</text>
<text text-anchor="start" x="470.5" y="-1148.3" font-family="Times,serif" font-size="14.00"> types = (integer?, integer?, integer?, integer)</text>
<text text-anchor="start" x="470.5" y="-1133.3" font-family="Times,serif" font-size="14.00"> keys = ()</text>
<text text-anchor="start" x="470.5" y="-1118.3" font-family="Times,serif" font-size="14.00"> Filter (#1 = #2)</text>
<text text-anchor="start" x="470.5" y="-1103.3" font-family="Times,serif" font-size="14.00"> types = (integer?, integer, integer, integer)</text>
<text text-anchor="start" x="470.5" y="-1088.3" font-family="Times,serif" font-size="14.00"> keys = ()</text>
<text text-anchor="start" x="470.5" y="-1073.3" font-family="Times,serif" font-size="14.00"> Project (#0..=#3)</text>
<text text-anchor="start" x="470.5" y="-1058.3" font-family="Times,serif" font-size="14.00"> types = (integer?, integer, integer, integer)</text>
<text text-anchor="start" x="470.5" y="-1043.3" font-family="Times,serif" font-size="14.00"> keys = ()</text>
</g>
<!-- node2&#45;&gt;node5 -->
<g id="edge11" class="edge">
<title>node2&#45;&gt;node5</title>
<path fill="none" stroke="black" d="M876.11,-1312.89C854.52,-1297.81 827.55,-1278.97 799.58,-1259.43"/>
<polygon fill="black" stroke="black" points="801.47,-1256.48 791.27,-1253.62 797.46,-1262.22 801.47,-1256.48"/>
<text text-anchor="start" x="839.5" y="-1275.8" font-family="Times,serif" font-size="14.00">%2</text>
</g>
<!-- node3 -->
<g id="node4" class="node">
<title>node3</title>
<polygon fill="none" stroke="black" points="561.5,-1448 561.5,-1501 851.5,-1501 851.5,-1448 561.5,-1448"/>
<text text-anchor="start" x="569.5" y="-1485.8" font-family="Times,serif" font-size="14.00">Get simplify_outer_joins.public.r (u97)</text>
<text text-anchor="start" x="569.5" y="-1470.8" font-family="Times,serif" font-size="14.00"> types = (integer?, integer)</text>
<text text-anchor="start" x="569.5" y="-1455.8" font-family="Times,serif" font-size="14.00"> keys = ()</text>
</g>
<!-- node3&#45;&gt;node4 -->
<g id="edge15" class="edge">
<title>node3&#45;&gt;node4</title>
<path fill="none" stroke="black" d="M692.17,-1447.8C682.91,-1431.21 670.65,-1409.23 660,-1390.13"/>
<polygon fill="black" stroke="black" points="663,-1388.33 655.07,-1381.3 656.89,-1391.74 663,-1388.33"/>
<text text-anchor="start" x="678.5" y="-1410.8" font-family="Times,serif" font-size="14.00">%3</text>
</g>
<!-- node4&#45;&gt;node5 -->
<g id="edge13" class="edge">
<title>node4&#45;&gt;node5</title>
<path fill="none" stroke="black" d="M636.5,-1312.89C636.5,-1298.91 636.5,-1281.7 636.5,-1263.69"/>
<polygon fill="black" stroke="black" points="640,-1263.62 636.5,-1253.62 633,-1263.62 640,-1263.62"/>
<text text-anchor="start" x="636.5" y="-1275.8" font-family="Times,serif" font-size="14.00">%4</text>
</g>
<!-- node8 -->
<g id="node9" class="node">
<title>node8</title>
<polygon fill="none" stroke="black" points="189,-810.5 189,-983.5 586,-983.5 586,-810.5 189,-810.5"/>
<text text-anchor="start" x="197" y="-968.3" font-family="Times,serif" font-size="14.00">Let l3 =</text>
<text text-anchor="start" x="197" y="-953.3" font-family="Times,serif" font-size="14.00"> Join %5 %7</text>
<text text-anchor="start" x="197" y="-938.3" font-family="Times,serif" font-size="14.00"> implementation = Unimplemented</text>
<text text-anchor="start" x="197" y="-923.3" font-family="Times,serif" font-size="14.00"> types = (integer?, integer, integer, integer, integer?)</text>
<text text-anchor="start" x="197" y="-908.3" font-family="Times,serif" font-size="14.00"> keys = ()</text>
<text text-anchor="start" x="197" y="-893.3" font-family="Times,serif" font-size="14.00"> Project (#0..=#4)</text>
<text text-anchor="start" x="197" y="-878.3" font-family="Times,serif" font-size="14.00"> types = (integer?, integer, integer, integer, integer?)</text>
<text text-anchor="start" x="197" y="-863.3" font-family="Times,serif" font-size="14.00"> keys = ()</text>
<text text-anchor="start" x="197" y="-848.3" font-family="Times,serif" font-size="14.00"> Filter (#1 = #4)</text>
<text text-anchor="start" x="197" y="-833.3" font-family="Times,serif" font-size="14.00"> types = (integer?, integer, integer, integer, integer)</text>
<text text-anchor="start" x="197" y="-818.3" font-family="Times,serif" font-size="14.00"> keys = ()</text>
</g>
<!-- node5&#45;&gt;node8 -->
<g id="edge6" class="edge">
<title>node5&#45;&gt;node8</title>
<path fill="none" stroke="black" d="M526.92,-1035.46C511.79,-1020.54 496.35,-1005.32 481.53,-990.71"/>
<polygon fill="black" stroke="black" points="483.88,-988.11 474.3,-983.58 478.97,-993.1 483.88,-988.11"/>
<text text-anchor="start" x="505.5" y="-1005.8" font-family="Times,serif" font-size="14.00">%5</text>
</g>
<!-- node10 -->
<g id="node11" class="node">
<title>node10</title>
<polygon fill="none" stroke="black" points="241,-390.5 241,-548.5 630,-548.5 630,-390.5 241,-390.5"/>
<text text-anchor="start" x="249" y="-533.3" font-family="Times,serif" font-size="14.00">Join %5 %9 (= #1 #4)</text>
<text text-anchor="start" x="249" y="-518.3" font-family="Times,serif" font-size="14.00"> implementation = Unimplemented</text>
<text text-anchor="start" x="249" y="-503.3" font-family="Times,serif" font-size="14.00"> types = (integer?, integer, integer, integer, integer)</text>
<text text-anchor="start" x="249" y="-488.3" font-family="Times,serif" font-size="14.00"> keys = ()</text>
<text text-anchor="start" x="249" y="-473.3" font-family="Times,serif" font-size="14.00"> Project (#0..=#3)</text>
<text text-anchor="start" x="249" y="-458.3" font-family="Times,serif" font-size="14.00"> types = (integer?, integer, integer, integer)</text>
<text text-anchor="start" x="249" y="-443.3" font-family="Times,serif" font-size="14.00"> keys = ()</text>
<text text-anchor="start" x="249" y="-428.3" font-family="Times,serif" font-size="14.00"> Negate</text>
<text text-anchor="start" x="249" y="-413.3" font-family="Times,serif" font-size="14.00"> types = (integer?, integer, integer, integer)</text>
<text text-anchor="start" x="249" y="-398.3" font-family="Times,serif" font-size="14.00"> keys = ()</text>
</g>
<!-- node5&#45;&gt;node10 -->
<g id="edge14" class="edge">
<title>node5&#45;&gt;node10</title>
<path fill="none" stroke="black" d="M635.82,-1035.39C634.15,-887.81 628.38,-637.28 608.5,-600 599.86,-583.8 588.2,-569.06 575,-555.82"/>
<polygon fill="black" stroke="black" points="577.14,-553.02 567.51,-548.61 572.29,-558.07 577.14,-553.02"/>
<text text-anchor="start" x="630.5" y="-780.8" font-family="Times,serif" font-size="14.00">%5</text>
</g>
<!-- node11 -->
<g id="node12" class="node">
<title>node11</title>
<polygon fill="none" stroke="black" points="237,-240.5 237,-338.5 634,-338.5 634,-240.5 237,-240.5"/>
<text text-anchor="start" x="245" y="-323.3" font-family="Times,serif" font-size="14.00">Union %10 %5</text>
<text text-anchor="start" x="245" y="-308.3" font-family="Times,serif" font-size="14.00"> types = (integer?, integer, integer, integer)</text>
<text text-anchor="start" x="245" y="-293.3" font-family="Times,serif" font-size="14.00"> keys = ()</text>
<text text-anchor="start" x="245" y="-278.3" font-family="Times,serif" font-size="14.00"> Map null</text>
<text text-anchor="start" x="245" y="-263.3" font-family="Times,serif" font-size="14.00"> types = (integer?, integer, integer, integer, integer?)</text>
<text text-anchor="start" x="245" y="-248.3" font-family="Times,serif" font-size="14.00"> keys = ()</text>
</g>
<!-- node5&#45;&gt;node11 -->
<g id="edge9" class="edge">
<title>node5&#45;&gt;node11</title>
<path fill="none" stroke="black" d="M660.57,-1035.29C668.11,-992.72 674.5,-943.29 674.5,-898 674.5,-898 674.5,-898 674.5,-468.5 674.5,-412.25 631.39,-371.67 581.79,-343.6"/>
<polygon fill="black" stroke="black" points="583.25,-340.41 572.8,-338.68 579.89,-346.55 583.25,-340.41"/>
<text text-anchor="start" x="674.5" y="-675.8" font-family="Times,serif" font-size="14.00">%5</text>
</g>
<!-- node6 -->
<g id="node7" class="node">
<title>node6</title>
<polygon fill="none" stroke="black" points="133.5,-1448 133.5,-1501 423.5,-1501 423.5,-1448 133.5,-1448"/>
<text text-anchor="start" x="141.5" y="-1485.8" font-family="Times,serif" font-size="14.00">Get simplify_outer_joins.public.t (u99)</text>
<text text-anchor="start" x="141.5" y="-1470.8" font-family="Times,serif" font-size="14.00"> types = (integer?)</text>
<text text-anchor="start" x="141.5" y="-1455.8" font-family="Times,serif" font-size="14.00"> keys = ()</text>
</g>
<!-- node6&#45;&gt;node7 -->
<g id="edge2" class="edge">
<title>node6&#45;&gt;node7</title>
<path fill="none" stroke="black" d="M293.04,-1447.8C301.19,-1433.39 311.64,-1414.91 321.33,-1397.79"/>
<polygon fill="black" stroke="black" points="324.44,-1399.41 326.31,-1388.98 318.34,-1395.96 324.44,-1399.41"/>
<text text-anchor="start" x="314.5" y="-1410.8" font-family="Times,serif" font-size="14.00">%6</text>
</g>
<!-- node7&#45;&gt;node8 -->
<g id="edge10" class="edge">
<title>node7&#45;&gt;node8</title>
<path fill="none" stroke="black" d="M352.94,-1305.45C358.87,-1235.56 371.17,-1090.58 379.38,-993.77"/>
<polygon fill="black" stroke="black" points="382.87,-993.94 380.23,-983.68 375.9,-993.35 382.87,-993.94"/>
<text text-anchor="start" x="375.5" y="-1140.8" font-family="Times,serif" font-size="14.00">%7</text>
</g>
<!-- node9 -->
<g id="node10" class="node">
<title>node9</title>
<polygon fill="none" stroke="black" points="211,-600.5 211,-758.5 600,-758.5 600,-600.5 211,-600.5"/>
<text text-anchor="start" x="219" y="-743.3" font-family="Times,serif" font-size="14.00">Let l4 =</text>
<text text-anchor="start" x="219" y="-728.3" font-family="Times,serif" font-size="14.00"> Get %8 (l3)</text>
<text text-anchor="start" x="219" y="-713.3" font-family="Times,serif" font-size="14.00"> types = (integer?, integer, integer, integer, integer)</text>
<text text-anchor="start" x="219" y="-698.3" font-family="Times,serif" font-size="14.00"> keys = ()</text>
<text text-anchor="start" x="219" y="-683.3" font-family="Times,serif" font-size="14.00"> Project (#1)</text>
<text text-anchor="start" x="219" y="-668.3" font-family="Times,serif" font-size="14.00"> types = (integer)</text>
<text text-anchor="start" x="219" y="-653.3" font-family="Times,serif" font-size="14.00"> keys = ()</text>
<text text-anchor="start" x="219" y="-638.3" font-family="Times,serif" font-size="14.00"> Distinct group=(#0)</text>
<text text-anchor="start" x="219" y="-623.3" font-family="Times,serif" font-size="14.00"> types = (integer)</text>
<text text-anchor="start" x="219" y="-608.3" font-family="Times,serif" font-size="14.00"> keys = ((#0))</text>
</g>
<!-- node8&#45;&gt;node9 -->
<g id="edge1" class="edge">
<title>node8&#45;&gt;node9</title>
<path fill="none" stroke="black" d="M394.67,-810.21C395.8,-796.65 396.97,-782.6 398.11,-768.98"/>
<polygon fill="black" stroke="black" points="401.63,-768.92 398.97,-758.66 394.65,-768.33 401.63,-768.92"/>
<text text-anchor="start" x="397.5" y="-780.8" font-family="Times,serif" font-size="14.00">%8</text>
</g>
<!-- node12 -->
<g id="node13" class="node">
<title>node12</title>
<polygon fill="none" stroke="black" points="0,-0.5 0,-188.5 397,-188.5 397,-0.5 0,-0.5"/>
<text text-anchor="start" x="8" y="-173.3" font-family="Times,serif" font-size="14.00">Union %11 %8</text>
<text text-anchor="start" x="8" y="-158.3" font-family="Times,serif" font-size="14.00"> types = (integer?, integer, integer, integer, integer?)</text>
<text text-anchor="start" x="8" y="-143.3" font-family="Times,serif" font-size="14.00"> keys = ()</text>
<text text-anchor="start" x="8" y="-128.3" font-family="Times,serif" font-size="14.00"> Project (#0..=#4)</text>
<text text-anchor="start" x="8" y="-113.3" font-family="Times,serif" font-size="14.00"> types = (integer?, integer, integer, integer, integer?)</text>
<text text-anchor="start" x="8" y="-98.3" font-family="Times,serif" font-size="14.00"> keys = ()</text>
<text text-anchor="start" x="8" y="-83.3" font-family="Times,serif" font-size="14.00"> Filter (#0 &gt; #3)</text>
<text text-anchor="start" x="8" y="-68.3" font-family="Times,serif" font-size="14.00"> types = (integer, integer, integer, integer, integer?)</text>
<text text-anchor="start" x="8" y="-53.3" font-family="Times,serif" font-size="14.00"> keys = ()</text>
<text text-anchor="start" x="8" y="-38.3" font-family="Times,serif" font-size="14.00"> Project (#0..=#4)</text>
<text text-anchor="start" x="8" y="-23.3" font-family="Times,serif" font-size="14.00"> types = (integer, integer, integer, integer, integer?)</text>
<text text-anchor="start" x="8" y="-8.3" font-family="Times,serif" font-size="14.00"> keys = ()</text>
</g>
<!-- node8&#45;&gt;node12 -->
<g id="edge16" class="edge">
<title>node8&#45;&gt;node12</title>
<path fill="none" stroke="black" d="M247.54,-810.45C230.11,-795.08 214.05,-777.87 201.5,-759 181.63,-729.11 182.5,-716.4 182.5,-680.5 182.5,-680.5 182.5,-680.5 182.5,-288.5 182.5,-259.33 184.34,-227.76 186.77,-198.77"/>
<polygon fill="black" stroke="black" points="190.27,-198.89 187.65,-188.63 183.3,-198.29 190.27,-198.89"/>
<text text-anchor="start" x="182.5" y="-465.8" font-family="Times,serif" font-size="14.00">%8</text>
</g>
<!-- node9&#45;&gt;node10 -->
<g id="edge3" class="edge">
<title>node9&#45;&gt;node10</title>
<path fill="none" stroke="black" d="M416.76,-600.46C418.72,-586.82 420.78,-572.55 422.78,-558.66"/>
<polygon fill="black" stroke="black" points="426.27,-559.03 424.23,-548.63 419.34,-558.03 426.27,-559.03"/>
<text text-anchor="start" x="421.5" y="-570.8" font-family="Times,serif" font-size="14.00">%9</text>
</g>
<!-- node10&#45;&gt;node11 -->
<g id="edge4" class="edge">
<title>node10&#45;&gt;node11</title>
<path fill="none" stroke="black" d="M435.5,-390.43C435.5,-376.5 435.5,-362.2 435.5,-348.94"/>
<polygon fill="black" stroke="black" points="439,-348.55 435.5,-338.55 432,-348.55 439,-348.55"/>
<text text-anchor="start" x="435.5" y="-360.8" font-family="Times,serif" font-size="14.00">%10</text>
</g>
<!-- node11&#45;&gt;node12 -->
<g id="edge8" class="edge">
<title>node11&#45;&gt;node12</title>
<path fill="none" stroke="black" d="M376.31,-240.3C359.32,-226.46 340.13,-210.84 320.82,-195.11"/>
<polygon fill="black" stroke="black" points="322.79,-192.2 312.83,-188.6 318.37,-197.63 322.79,-192.2"/>
<text text-anchor="start" x="352.5" y="-210.8" font-family="Times,serif" font-size="14.00">%11</text>
</g>
</g>
</svg>
