<?xml version="1.0" encoding="UTF-8" standalone="no"?>
<!DOCTYPE svg PUBLIC "-//W3C//DTD SVG 1.1//EN"
 "http://www.w3.org/Graphics/SVG/1.1/DTD/svg11.dtd">
<!-- Generated by graphviz version 2.43.0 (0)
 -->
<!-- Title: G Pages: 1 -->
<svg width="791pt" height="317pt"
 viewBox="0.00 0.00 791.00 317.00" xmlns="http://www.w3.org/2000/svg" xmlns:xlink="http://www.w3.org/1999/xlink">
<g id="graph0" class="graph" transform="scale(1 1) rotate(0) translate(4 313)">
<title>G</title>
<polygon fill="white" stroke="transparent" points="-4,4 -4,-313 787,-313 787,4 -4,4"/>
<!-- node0 -->
<g id="node1" class="node">
<title>node0</title>
<polygon fill="none" stroke="black" points="0,-255.5 0,-308.5 288,-308.5 288,-255.5 0,-255.5"/>
<text text-anchor="start" x="8" y="-293.3" font-family="Times,serif" font-size="14.00">Get simplify_outer_joins.public.l (u95)</text>
<text text-anchor="start" x="8" y="-278.3" font-family="Times,serif" font-size="14.00"> types = (integer?, integer?)</text>
<text text-anchor="start" x="8" y="-263.3" font-family="Times,serif" font-size="14.00"> keys = ()</text>
</g>
<!-- node2 -->
<g id="node3" class="node">
<title>node2</title>
<polygon fill="none" stroke="black" points="119,-150.5 119,-203.5 475,-203.5 475,-150.5 119,-150.5"/>
<text text-anchor="start" x="127" y="-188.3" font-family="Times,serif" font-size="14.00">FullOuterJoin %0 %1 on (#1 = #2)</text>
<text text-anchor="start" x="127" y="-173.3" font-family="Times,serif" font-size="14.00"> types = (integer?, integer?, integer?, integer?)</text>
<text text-anchor="start" x="127" y="-158.3" font-family="Times,serif" font-size="14.00"> keys = ()</text>
</g>
<!-- node0&#45;&gt;node2 -->
<g id="edge3" class="edge">
<title>node0&#45;&gt;node2</title>
<path fill="none" stroke="black" d="M182.21,-255.27C202.92,-241.33 228.67,-224 250.53,-209.28"/>
<polygon fill="black" stroke="black" points="252.67,-212.06 259.01,-203.58 248.76,-206.26 252.67,-212.06"/>
<text text-anchor="start" x="230" y="-225.8" font-family="Times,serif" font-size="14.00">%0</text>
</g>
<!-- node1 -->
<g id="node2" class="node">
<title>node1</title>
<polygon fill="none" stroke="black" points="306,-255.5 306,-308.5 596,-308.5 596,-255.5 306,-255.5"/>
<text text-anchor="start" x="314" y="-293.3" font-family="Times,serif" font-size="14.00">Get simplify_outer_joins.public.r (u97)</text>
<text text-anchor="start" x="314" y="-278.3" font-family="Times,serif" font-size="14.00"> types = (integer?, integer)</text>
<text text-anchor="start" x="314" y="-263.3" font-family="Times,serif" font-size="14.00"> keys = ()</text>
</g>
<!-- node1&#45;&gt;node2 -->
<g id="edge2" class="edge">
<title>node1&#45;&gt;node2</title>
<path fill="none" stroke="black" d="M412.54,-255.27C391.69,-241.33 365.78,-224 343.77,-209.28"/>
<polygon fill="black" stroke="black" points="345.5,-206.23 335.24,-203.58 341.61,-212.04 345.5,-206.23"/>
<text text-anchor="start" x="384" y="-225.8" font-family="Times,serif" font-size="14.00">%1</text>
</g>
<!-- node4 -->
<g id="node5" class="node">
<title>node4</title>
<polygon fill="none" stroke="black" points="256,-0.5 256,-98.5 680,-98.5 680,-0.5 256,-0.5"/>
<text text-anchor="start" x="264" y="-83.3" font-family="Times,serif" font-size="14.00">LeftOuterJoin %2 %3 on (#1 = #4)</text>
<text text-anchor="start" x="264" y="-68.3" font-family="Times,serif" font-size="14.00"> types = (integer?, integer?, integer?, integer?, integer?)</text>
<text text-anchor="start" x="264" y="-53.3" font-family="Times,serif" font-size="14.00"> keys = ()</text>
<text text-anchor="start" x="264" y="-38.3" font-family="Times,serif" font-size="14.00"> Filter (#0 &gt; #3)</text>
<text text-anchor="start" x="264" y="-23.3" font-family="Times,serif" font-size="14.00"> types = (integer?, integer?, integer?, integer?, integer?)</text>
<text text-anchor="start" x="264" y="-8.3" font-family="Times,serif" font-size="14.00"> keys = ()</text>
</g>
<!-- node2&#45;&gt;node4 -->
<g id="edge4" class="edge">
<title>node2&#45;&gt;node4</title>
<path fill="none" stroke="black" d="M332.02,-150.3C349.95,-137.14 372.5,-120.59 394.06,-104.77"/>
<polygon fill="black" stroke="black" points="396.27,-107.49 402.26,-98.75 392.13,-101.84 396.27,-107.49"/>
<text text-anchor="start" x="378" y="-120.8" font-family="Times,serif" font-size="14.00">%2</text>
</g>
<!-- node3 -->
<g id="node4" class="node">
<title>node3</title>
<polygon fill="none" stroke="black" points="493,-150.5 493,-203.5 783,-203.5 783,-150.5 493,-150.5"/>
<text text-anchor="start" x="501" y="-188.3" font-family="Times,serif" font-size="14.00">Get simplify_outer_joins.public.t (u99)</text>
<text text-anchor="start" x="501" y="-173.3" font-family="Times,serif" font-size="14.00"> types = (integer?)</text>
<text text-anchor="start" x="501" y="-158.3" font-family="Times,serif" font-size="14.00"> keys = ()</text>
</g>
<!-- node3&#45;&gt;node4 -->
<g id="edge1" class="edge">
<title>node3&#45;&gt;node4</title>
<path fill="none" stroke="black" d="M603.19,-150.3C585.36,-137.14 562.94,-120.59 541.51,-104.77"/>
<polygon fill="black" stroke="black" points="543.48,-101.87 533.36,-98.75 539.32,-107.5 543.48,-101.87"/>
<text text-anchor="start" x="578" y="-120.8" font-family="Times,serif" font-size="14.00">%3</text>
</g>
</g>
</svg>
