<?xml version="1.0" encoding="UTF-8" standalone="no"?>
<!DOCTYPE svg PUBLIC "-//W3C//DTD SVG 1.1//EN"
 "http://www.w3.org/Graphics/SVG/1.1/DTD/svg11.dtd">
<!-- Generated by graphviz version 2.43.0 (0)
 -->
<!-- Title: G Pages: 1 -->
<svg width="277pt" height="407pt"
 viewBox="0.00 0.00 277.00 407.00" xmlns="http://www.w3.org/2000/svg" xmlns:xlink="http://www.w3.org/1999/xlink">
<g id="graph0" class="graph" transform="scale(1 1) rotate(0) translate(4 403)">
<title>G</title>
<polygon fill="white" stroke="transparent" points="-4,4 -4,-403 273,-403 273,4 -4,4"/>
<!-- node0 -->
<g id="node1" class="node">
<title>node0</title>
<polygon fill="none" stroke="black" points="26,-330.5 26,-398.5 127,-398.5 127,-330.5 26,-330.5"/>
<text text-anchor="start" x="34" y="-383.3" font-family="Times,serif" font-size="14.00">Let l0 =</text>
<text text-anchor="start" x="34" y="-368.3" font-family="Times,serif" font-size="14.00"> Constant ()</text>
<text text-anchor="start" x="34" y="-353.3" font-family="Times,serif" font-size="14.00"> types = ()</text>
<text text-anchor="start" x="34" y="-338.3" font-family="Times,serif" font-size="14.00"> keys = (())</text>
</g>
<!-- node2 -->
<g id="node3" class="node">
<title>node2</title>
<polygon fill="none" stroke="black" points="0,-195.5 0,-278.5 269,-278.5 269,-195.5 0,-195.5"/>
<text text-anchor="start" x="8" y="-263.3" font-family="Times,serif" font-size="14.00">Let l1 =</text>
<text text-anchor="start" x="8" y="-248.3" font-family="Times,serif" font-size="14.00"> Join %0 %1</text>
<text text-anchor="start" x="8" y="-233.3" font-family="Times,serif" font-size="14.00"> implementation = Unimplemented</text>
<text text-anchor="start" x="8" y="-218.3" font-family="Times,serif" font-size="14.00"> types = ()</text>
<text text-anchor="start" x="8" y="-203.3" font-family="Times,serif" font-size="14.00"> keys = (())</text>
</g>
<!-- node0&#45;&gt;node2 -->
<g id="edge3" class="edge">
<title>node0&#45;&gt;node2</title>
<path fill="none" stroke="black" d="M91.89,-330.2C97.89,-317.21 104.9,-302.05 111.48,-287.82"/>
<polygon fill="black" stroke="black" points="114.71,-289.17 115.72,-278.63 108.35,-286.24 114.71,-289.17"/>
<text text-anchor="start" x="105.5" y="-300.8" font-family="Times,serif" font-size="14.00">%0</text>
</g>
<!-- node1 -->
<g id="node2" class="node">
<title>node1</title>
<polygon fill="none" stroke="black" points="145.5,-338 145.5,-391 241.5,-391 241.5,-338 145.5,-338"/>
<text text-anchor="start" x="153.5" y="-375.8" font-family="Times,serif" font-size="14.00">Constant ()</text>
<text text-anchor="start" x="153.5" y="-360.8" font-family="Times,serif" font-size="14.00"> types = ()</text>
<text text-anchor="start" x="153.5" y="-345.8" font-family="Times,serif" font-size="14.00"> keys = (())</text>
</g>
<!-- node1&#45;&gt;node2 -->
<g id="edge1" class="edge">
<title>node1&#45;&gt;node2</title>
<path fill="none" stroke="black" d="M181.42,-337.8C174.7,-323.52 166.12,-305.25 158.13,-288.26"/>
<polygon fill="black" stroke="black" points="161.19,-286.54 153.77,-278.98 154.85,-289.52 161.19,-286.54"/>
<text text-anchor="start" x="168.5" y="-300.8" font-family="Times,serif" font-size="14.00">%1</text>
</g>
<!-- node3 -->
<g id="node4" class="node">
<title>node3</title>
<polygon fill="none" stroke="black" points="63,-0.5 63,-143.5 206,-143.5 206,-0.5 63,-0.5"/>
<text text-anchor="start" x="71" y="-128.3" font-family="Times,serif" font-size="14.00">Get %2 (l1)</text>
<text text-anchor="start" x="71" y="-113.3" font-family="Times,serif" font-size="14.00"> types = ()</text>
<text text-anchor="start" x="71" y="-98.3" font-family="Times,serif" font-size="14.00"> keys = (())</text>
<text text-anchor="start" x="71" y="-83.3" font-family="Times,serif" font-size="14.00"> Map 1</text>
<text text-anchor="start" x="71" y="-68.3" font-family="Times,serif" font-size="14.00"> types = (integer)</text>
<text text-anchor="start" x="71" y="-53.3" font-family="Times,serif" font-size="14.00"> keys = (())</text>
<text text-anchor="start" x="71" y="-38.3" font-family="Times,serif" font-size="14.00"> Project (#0)</text>
<text text-anchor="start" x="71" y="-23.3" font-family="Times,serif" font-size="14.00"> types = (integer)</text>
<text text-anchor="start" x="71" y="-8.3" font-family="Times,serif" font-size="14.00"> keys = (())</text>
</g>
<!-- node2&#45;&gt;node3 -->
<g id="edge2" class="edge">
<title>node2&#45;&gt;node3</title>
<path fill="none" stroke="black" d="M134.5,-195.29C134.5,-182.69 134.5,-168.35 134.5,-154.02"/>
<polygon fill="black" stroke="black" points="138,-153.61 134.5,-143.61 131,-153.61 138,-153.61"/>
<text text-anchor="start" x="134.5" y="-165.8" font-family="Times,serif" font-size="14.00">%2</text>
</g>
</g>
</svg>
