<?xml version="1.0" encoding="UTF-8" standalone="no"?>
<!DOCTYPE svg PUBLIC "-//W3C//DTD SVG 1.1//EN"
 "http://www.w3.org/Graphics/SVG/1.1/DTD/svg11.dtd">
<!-- Generated by graphviz version 2.43.0 (0)
 -->
<!-- Title: G Pages: 1 -->
<svg width="974pt" height="517pt"
 viewBox="0.00 0.00 974.00 517.00" xmlns="http://www.w3.org/2000/svg" xmlns:xlink="http://www.w3.org/1999/xlink">
<g id="graph0" class="graph" transform="scale(1 1) rotate(0) translate(4 513)">
<title>G</title>
<polygon fill="white" stroke="transparent" points="-4,4 -4,-513 970,-513 970,4 -4,4"/>
<!-- node0 -->
<g id="node1" class="node">
<title>node0</title>
<polygon fill="none" stroke="black" points="290,-472.5 290,-508.5 386,-508.5 386,-472.5 290,-472.5"/>
<text text-anchor="start" x="298" y="-486.8" font-family="Times,serif" font-size="14.00">Constant ()</text>
</g>
<!-- node2 -->
<g id="node3" class="node">
<title>node2</title>
<polygon fill="none" stroke="black" points="54,-382.5 54,-420.5 328,-420.5 328,-382.5 54,-382.5"/>
<text text-anchor="start" x="62" y="-405.3" font-family="Times,serif" font-size="14.00">Join %0 %1</text>
<text text-anchor="start" x="62" y="-390.3" font-family="Times,serif" font-size="14.00">&#45; implementation = Unimplemented</text>
</g>
<!-- node0&#45;&gt;node2 -->
<g id="edge9" class="edge">
<title>node0&#45;&gt;node2</title>
<path fill="none" stroke="black" d="M308.96,-472.31C286.45,-458.99 255.04,-440.4 230.29,-425.75"/>
<polygon fill="black" stroke="black" points="231.89,-422.63 221.5,-420.55 228.32,-428.66 231.89,-422.63"/>
<text text-anchor="start" x="278" y="-442.8" font-family="Times,serif" font-size="14.00">%0</text>
</g>
<!-- node5 -->
<g id="node6" class="node">
<title>node5</title>
<polygon fill="none" stroke="black" points="346,-382.5 346,-420.5 620,-420.5 620,-382.5 346,-382.5"/>
<text text-anchor="start" x="354" y="-405.3" font-family="Times,serif" font-size="14.00">Join %0 %4</text>
<text text-anchor="start" x="354" y="-390.3" font-family="Times,serif" font-size="14.00">&#45; implementation = Unimplemented</text>
</g>
<!-- node0&#45;&gt;node5 -->
<g id="edge5" class="edge">
<title>node0&#45;&gt;node5</title>
<path fill="none" stroke="black" d="M353.92,-472.39C364.5,-461.74 379.15,-448.34 394,-439 402.38,-433.73 411.64,-428.95 420.94,-424.7"/>
<polygon fill="black" stroke="black" points="422.45,-427.86 430.21,-420.64 419.65,-421.45 422.45,-427.86"/>
<text text-anchor="start" x="394" y="-442.8" font-family="Times,serif" font-size="14.00">%0</text>
</g>
<!-- node8 -->
<g id="node9" class="node">
<title>node8</title>
<polygon fill="none" stroke="black" points="638,-382.5 638,-420.5 912,-420.5 912,-382.5 638,-382.5"/>
<text text-anchor="start" x="646" y="-405.3" font-family="Times,serif" font-size="14.00">Join %0 %7</text>
<text text-anchor="start" x="646" y="-390.3" font-family="Times,serif" font-size="14.00">&#45; implementation = Unimplemented</text>
</g>
<!-- node0&#45;&gt;node8 -->
<g id="edge6" class="edge">
<title>node0&#45;&gt;node8</title>
<path fill="none" stroke="black" d="M378.59,-472.49C406.83,-461.32 445.62,-447.29 481,-439 542.49,-424.59 561.48,-428.71 627.71,-421.11"/>
<polygon fill="black" stroke="black" points="628.32,-424.56 637.84,-419.9 627.49,-417.61 628.32,-424.56"/>
<text text-anchor="start" x="481" y="-442.8" font-family="Times,serif" font-size="14.00">%0</text>
</g>
<!-- node1 -->
<g id="node2" class="node">
<title>node1</title>
<polygon fill="none" stroke="black" points="0,-472.5 0,-508.5 272,-508.5 272,-472.5 0,-472.5"/>
<text text-anchor="start" x="8" y="-486.8" font-family="Times,serif" font-size="14.00">Get negate_threshold.public.r (u51)</text>
</g>
<!-- node1&#45;&gt;node2 -->
<g id="edge8" class="edge">
<title>node1&#45;&gt;node2</title>
<path fill="none" stroke="black" d="M146.87,-472.31C154.62,-460.04 165.2,-443.3 174.06,-429.29"/>
<polygon fill="black" stroke="black" points="177.2,-430.87 179.59,-420.55 171.29,-427.13 177.2,-430.87"/>
<text text-anchor="start" x="167" y="-442.8" font-family="Times,serif" font-size="14.00">%1</text>
</g>
<!-- node3 -->
<g id="node4" class="node">
<title>node3</title>
<polygon fill="none" stroke="black" points="310,-160.5 310,-228.5 456,-228.5 456,-160.5 310,-160.5"/>
<text text-anchor="start" x="318" y="-213.3" font-family="Times,serif" font-size="14.00">Map #0</text>
<text text-anchor="start" x="318" y="-198.3" font-family="Times,serif" font-size="14.00">Map #1</text>
<text text-anchor="start" x="318" y="-183.3" font-family="Times,serif" font-size="14.00">Project (#0..=#3)</text>
<text text-anchor="start" x="318" y="-168.3" font-family="Times,serif" font-size="14.00">Project (#2, #3)</text>
</g>
<!-- node2&#45;&gt;node3 -->
<g id="edge10" class="edge">
<title>node2&#45;&gt;node3</title>
<path fill="none" stroke="black" d="M208.04,-382.31C238.58,-349.7 303.32,-280.57 344.91,-236.17"/>
<polygon fill="black" stroke="black" points="347.6,-238.41 351.89,-228.72 342.49,-233.63 347.6,-238.41"/>
<text text-anchor="start" x="236" y="-352.8" font-family="Times,serif" font-size="14.00">%2</text>
</g>
<!-- node11 -->
<g id="node12" class="node">
<title>node11</title>
<polygon fill="none" stroke="black" points="339,-0.5 339,-36.5 461,-36.5 461,-0.5 339,-0.5"/>
<text text-anchor="start" x="347" y="-14.8" font-family="Times,serif" font-size="14.00">Union %3 %10</text>
</g>
<!-- node3&#45;&gt;node11 -->
<g id="edge11" class="edge">
<title>node3&#45;&gt;node11</title>
<path fill="none" stroke="black" d="M386.24,-160.36C389.46,-127.37 394.35,-77.35 397.35,-46.64"/>
<polygon fill="black" stroke="black" points="400.84,-46.94 398.32,-36.65 393.87,-46.26 400.84,-46.94"/>
<text text-anchor="start" x="392" y="-111.3" font-family="Times,serif" font-size="14.00">%3</text>
</g>
<!-- node4 -->
<g id="node5" class="node">
<title>node4</title>
<polygon fill="none" stroke="black" points="404,-472.5 404,-508.5 676,-508.5 676,-472.5 404,-472.5"/>
<text text-anchor="start" x="412" y="-486.8" font-family="Times,serif" font-size="14.00">Get negate_threshold.public.r (u51)</text>
</g>
<!-- node4&#45;&gt;node5 -->
<g id="edge2" class="edge">
<title>node4&#45;&gt;node5</title>
<path fill="none" stroke="black" d="M528.74,-472.31C520.7,-460.04 509.73,-443.3 500.55,-429.29"/>
<polygon fill="black" stroke="black" points="503.23,-427 494.83,-420.55 497.38,-430.83 503.23,-427"/>
<text text-anchor="start" x="516" y="-442.8" font-family="Times,serif" font-size="14.00">%4</text>
</g>
<!-- node6 -->
<g id="node7" class="node">
<title>node6</title>
<polygon fill="none" stroke="black" points="410,-255 410,-323 556,-323 556,-255 410,-255"/>
<text text-anchor="start" x="418" y="-307.8" font-family="Times,serif" font-size="14.00">Map #0</text>
<text text-anchor="start" x="418" y="-292.8" font-family="Times,serif" font-size="14.00">Map #1</text>
<text text-anchor="start" x="418" y="-277.8" font-family="Times,serif" font-size="14.00">Project (#0..=#3)</text>
<text text-anchor="start" x="418" y="-262.8" font-family="Times,serif" font-size="14.00">Project (#2, #3)</text>
</g>
<!-- node5&#45;&gt;node6 -->
<g id="edge13" class="edge">
<title>node5&#45;&gt;node6</title>
<path fill="none" stroke="black" d="M483,-382.25C483,-368.95 483,-350.36 483,-333.35"/>
<polygon fill="black" stroke="black" points="486.5,-333.02 483,-323.02 479.5,-333.02 486.5,-333.02"/>
<text text-anchor="start" x="483" y="-352.8" font-family="Times,serif" font-size="14.00">%5</text>
</g>
<!-- node10 -->
<g id="node11" class="node">
<title>node10</title>
<polygon fill="none" stroke="black" points="426.5,-88.5 426.5,-141.5 539.5,-141.5 539.5,-88.5 426.5,-88.5"/>
<text text-anchor="start" x="434.5" y="-126.3" font-family="Times,serif" font-size="14.00">Union %6 %9</text>
<text text-anchor="start" x="434.5" y="-111.3" font-family="Times,serif" font-size="14.00">Threshold</text>
<text text-anchor="start" x="434.5" y="-96.3" font-family="Times,serif" font-size="14.00">Negate</text>
</g>
<!-- node6&#45;&gt;node10 -->
<g id="edge1" class="edge">
<title>node6&#45;&gt;node10</title>
<path fill="none" stroke="black" d="M483,-254.84C483,-225.23 483,-181.99 483,-151.66"/>
<polygon fill="black" stroke="black" points="486.5,-151.51 483,-141.51 479.5,-151.51 486.5,-151.51"/>
<text text-anchor="start" x="483" y="-190.8" font-family="Times,serif" font-size="14.00">%6</text>
</g>
<!-- node7 -->
<g id="node8" class="node">
<title>node7</title>
<polygon fill="none" stroke="black" points="694,-472.5 694,-508.5 966,-508.5 966,-472.5 694,-472.5"/>
<text text-anchor="start" x="702" y="-486.8" font-family="Times,serif" font-size="14.00">Get negate_threshold.public.s (u52)</text>
</g>
<!-- node7&#45;&gt;node8 -->
<g id="edge4" class="edge">
<title>node7&#45;&gt;node8</title>
<path fill="none" stroke="black" d="M819.13,-472.31C811.38,-460.04 800.8,-443.3 791.94,-429.29"/>
<polygon fill="black" stroke="black" points="794.71,-427.13 786.41,-420.55 788.8,-430.87 794.71,-427.13"/>
<text text-anchor="start" x="807" y="-442.8" font-family="Times,serif" font-size="14.00">%7</text>
</g>
<!-- node9 -->
<g id="node10" class="node">
<title>node9</title>
<polygon fill="none" stroke="black" points="638,-247.5 638,-330.5 784,-330.5 784,-247.5 638,-247.5"/>
<text text-anchor="start" x="646" y="-315.3" font-family="Times,serif" font-size="14.00">Map #0</text>
<text text-anchor="start" x="646" y="-300.3" font-family="Times,serif" font-size="14.00">Map #1</text>
<text text-anchor="start" x="646" y="-285.3" font-family="Times,serif" font-size="14.00">Project (#0..=#3)</text>
<text text-anchor="start" x="646" y="-270.3" font-family="Times,serif" font-size="14.00">Project (#2, #3)</text>
<text text-anchor="start" x="646" y="-255.3" font-family="Times,serif" font-size="14.00">Negate</text>
</g>
<!-- node8&#45;&gt;node9 -->
<g id="edge3" class="edge">
<title>node8&#45;&gt;node9</title>
<path fill="none" stroke="black" d="M764.43,-382.25C757.66,-370.57 748.53,-354.8 739.73,-339.61"/>
<polygon fill="black" stroke="black" points="742.65,-337.66 734.61,-330.76 736.59,-341.17 742.65,-337.66"/>
<text text-anchor="start" x="752" y="-352.8" font-family="Times,serif" font-size="14.00">%8</text>
</g>
<!-- node9&#45;&gt;node10 -->
<g id="edge12" class="edge">
<title>node9&#45;&gt;node10</title>
<path fill="none" stroke="black" d="M657.26,-247.46C616.86,-216.99 562.31,-175.83 525.07,-147.74"/>
<polygon fill="black" stroke="black" points="527.02,-144.83 516.93,-141.6 522.81,-150.42 527.02,-144.83"/>
<text text-anchor="start" x="630" y="-190.8" font-family="Times,serif" font-size="14.00">%9</text>
</g>
<!-- node10&#45;&gt;node11 -->
<g id="edge7" class="edge">
<title>node10&#45;&gt;node11</title>
<path fill="none" stroke="black" d="M460.32,-88.18C448.28,-74.47 433.57,-57.72 421.68,-44.19"/>
<polygon fill="black" stroke="black" points="424.28,-41.84 415.05,-36.64 419.02,-46.46 424.28,-41.84"/>
<text text-anchor="start" x="443" y="-58.8" font-family="Times,serif" font-size="14.00">%10</text>
</g>
</g>
</svg>
