<?xml version="1.0" encoding="UTF-8" standalone="no"?>
<!DOCTYPE svg PUBLIC "-//W3C//DTD SVG 1.1//EN"
 "http://www.w3.org/Graphics/SVG/1.1/DTD/svg11.dtd">
<!-- Generated by graphviz version 2.43.0 (0)
 -->
<!-- Title: G Pages: 1 -->
<svg width="636pt" height="240pt"
 viewBox="0.00 0.00 636.00 240.00" xmlns="http://www.w3.org/2000/svg" xmlns:xlink="http://www.w3.org/1999/xlink">
<g id="graph0" class="graph" transform="scale(1 1) rotate(0) translate(4 236)">
<title>G</title>
<polygon fill="white" stroke="transparent" points="-4,4 -4,-236 632,-236 632,4 -4,4"/>
<!-- node0 -->
<g id="node1" class="node">
<title>node0</title>
<polygon fill="none" stroke="black" points="0,-97 0,-133 272,-133 272,-97 0,-97"/>
<text text-anchor="start" x="8" y="-111.3" font-family="Times,serif" font-size="14.00">Get negate_threshold.public.r (u51)</text>
</g>
<!-- node4 -->
<g id="node5" class="node">
<title>node4</title>
<polygon fill="none" stroke="black" points="102.5,-0.5 102.5,-36.5 215.5,-36.5 215.5,-0.5 102.5,-0.5"/>
<text text-anchor="start" x="110.5" y="-14.8" font-family="Times,serif" font-size="14.00">Union %0 %3</text>
</g>
<!-- node0&#45;&gt;node4 -->
<g id="edge4" class="edge">
<title>node0&#45;&gt;node4</title>
<path fill="none" stroke="black" d="M140.22,-96.67C143.62,-82.68 148.47,-62.75 152.39,-46.65"/>
<polygon fill="black" stroke="black" points="155.84,-47.27 154.81,-36.72 149.04,-45.61 155.84,-47.27"/>
<text text-anchor="start" x="151" y="-58.8" font-family="Times,serif" font-size="14.00">%0</text>
</g>
<!-- node1 -->
<g id="node2" class="node">
<title>node1</title>
<polygon fill="none" stroke="black" points="66,-194.5 66,-230.5 338,-230.5 338,-194.5 66,-194.5"/>
<text text-anchor="start" x="74" y="-208.8" font-family="Times,serif" font-size="14.00">Get negate_threshold.public.r (u51)</text>
</g>
<!-- node3 -->
<g id="node4" class="node">
<title>node3</title>
<polygon fill="none" stroke="black" points="290.5,-88.5 290.5,-141.5 403.5,-141.5 403.5,-88.5 290.5,-88.5"/>
<text text-anchor="start" x="298.5" y="-126.3" font-family="Times,serif" font-size="14.00">Union %1 %2</text>
<text text-anchor="start" x="298.5" y="-111.3" font-family="Times,serif" font-size="14.00">Threshold</text>
<text text-anchor="start" x="298.5" y="-96.3" font-family="Times,serif" font-size="14.00">Negate</text>
</g>
<!-- node1&#45;&gt;node3 -->
<g id="edge3" class="edge">
<title>node1&#45;&gt;node3</title>
<path fill="none" stroke="black" d="M227.92,-194.43C247.8,-181.33 275.78,-162.91 299.62,-147.2"/>
<polygon fill="black" stroke="black" points="301.77,-149.98 308.2,-141.55 297.92,-144.13 301.77,-149.98"/>
<text text-anchor="start" x="279" y="-163.8" font-family="Times,serif" font-size="14.00">%1</text>
</g>
<!-- node2 -->
<g id="node3" class="node">
<title>node2</title>
<polygon fill="none" stroke="black" points="356,-193.5 356,-231.5 628,-231.5 628,-193.5 356,-193.5"/>
<text text-anchor="start" x="364" y="-216.3" font-family="Times,serif" font-size="14.00">Get negate_threshold.public.s (u52)</text>
<text text-anchor="start" x="364" y="-201.3" font-family="Times,serif" font-size="14.00">Negate</text>
</g>
<!-- node2&#45;&gt;node3 -->
<g id="edge1" class="edge">
<title>node2&#45;&gt;node3</title>
<path fill="none" stroke="black" d="M464.39,-193.31C444.55,-180.25 417.33,-162.32 394.1,-147.02"/>
<polygon fill="black" stroke="black" points="396.02,-144.09 385.74,-141.51 392.17,-149.94 396.02,-144.09"/>
<text text-anchor="start" x="433" y="-163.8" font-family="Times,serif" font-size="14.00">%2</text>
</g>
<!-- node3&#45;&gt;node4 -->
<g id="edge2" class="edge">
<title>node3&#45;&gt;node4</title>
<path fill="none" stroke="black" d="M296.12,-88.43C266.72,-73.64 230.12,-55.25 202.13,-41.18"/>
<polygon fill="black" stroke="black" points="203.5,-37.95 192.99,-36.59 200.36,-44.21 203.5,-37.95"/>
<text text-anchor="start" x="259" y="-58.8" font-family="Times,serif" font-size="14.00">%3</text>
</g>
</g>
</svg>
