<?xml version="1.0" encoding="UTF-8" standalone="no"?>
<!DOCTYPE svg PUBLIC "-//W3C//DTD SVG 1.1//EN"
 "http://www.w3.org/Graphics/SVG/1.1/DTD/svg11.dtd">
<!-- Generated by graphviz version 2.43.0 (0)
 -->
<!-- Title: G Pages: 1 -->
<svg width="649pt" height="270pt"
 viewBox="0.00 0.00 649.00 270.00" xmlns="http://www.w3.org/2000/svg" xmlns:xlink="http://www.w3.org/1999/xlink">
<g id="graph0" class="graph" transform="scale(1 1) rotate(0) translate(4 266)">
<title>G</title>
<polygon fill="white" stroke="transparent" points="-4,4 -4,-266 645,-266 645,4 -4,4"/>
<!-- node0 -->
<g id="node1" class="node">
<title>node0</title>
<polygon fill="none" stroke="black" points="0,-88.5 0,-141.5 272,-141.5 272,-88.5 0,-88.5"/>
<text text-anchor="start" x="8" y="-126.3" font-family="Times,serif" font-size="14.00">Get negate_threshold.public.r (u51)</text>
<text text-anchor="start" x="8" y="-111.3" font-family="Times,serif" font-size="14.00">Map #0, #1</text>
<text text-anchor="start" x="8" y="-96.3" font-family="Times,serif" font-size="14.00">Project (#2, #3)</text>
</g>
<!-- node4 -->
<g id="node5" class="node">
<title>node4</title>
<polygon fill="none" stroke="black" points="146.5,-0.5 146.5,-36.5 259.5,-36.5 259.5,-0.5 146.5,-0.5"/>
<text text-anchor="start" x="154.5" y="-14.8" font-family="Times,serif" font-size="14.00">Union %0 %3</text>
</g>
<!-- node0&#45;&gt;node4 -->
<g id="edge4" class="edge">
<title>node0&#45;&gt;node4</title>
<path fill="none" stroke="black" d="M154.31,-88.18C163.84,-74.73 175.46,-58.34 184.96,-44.95"/>
<polygon fill="black" stroke="black" points="187.92,-46.82 190.85,-36.64 182.21,-42.77 187.92,-46.82"/>
<text text-anchor="start" x="178" y="-58.8" font-family="Times,serif" font-size="14.00">%0</text>
</g>
<!-- node1 -->
<g id="node2" class="node">
<title>node1</title>
<polygon fill="none" stroke="black" points="79,-201 79,-254 351,-254 351,-201 79,-201"/>
<text text-anchor="start" x="87" y="-238.8" font-family="Times,serif" font-size="14.00">Get negate_threshold.public.r (u51)</text>
<text text-anchor="start" x="87" y="-223.8" font-family="Times,serif" font-size="14.00">Map #0, #1</text>
<text text-anchor="start" x="87" y="-208.8" font-family="Times,serif" font-size="14.00">Project (#2, #3)</text>
</g>
<!-- node3 -->
<g id="node4" class="node">
<title>node3</title>
<polygon fill="none" stroke="black" points="290,-96 290,-134 430,-134 430,-96 290,-96"/>
<text text-anchor="start" x="298" y="-118.8" font-family="Times,serif" font-size="14.00">Union %1 %2</text>
<text text-anchor="start" x="298" y="-103.8" font-family="Times,serif" font-size="14.00">ThresholdNegate</text>
</g>
<!-- node1&#45;&gt;node3 -->
<g id="edge3" class="edge">
<title>node1&#45;&gt;node3</title>
<path fill="none" stroke="black" d="M248.63,-200.87C272.47,-182.7 304.28,-158.46 327.8,-140.54"/>
<polygon fill="black" stroke="black" points="330.22,-143.09 336.06,-134.25 325.98,-137.52 330.22,-143.09"/>
<text text-anchor="start" x="300" y="-163.8" font-family="Times,serif" font-size="14.00">%1</text>
</g>
<!-- node2 -->
<g id="node3" class="node">
<title>node2</title>
<polygon fill="none" stroke="black" points="369,-193.5 369,-261.5 641,-261.5 641,-193.5 369,-193.5"/>
<text text-anchor="start" x="377" y="-246.3" font-family="Times,serif" font-size="14.00">Get negate_threshold.public.s (u52)</text>
<text text-anchor="start" x="377" y="-231.3" font-family="Times,serif" font-size="14.00">Map #0, #1</text>
<text text-anchor="start" x="377" y="-216.3" font-family="Times,serif" font-size="14.00">Project (#2, #3)</text>
<text text-anchor="start" x="377" y="-201.3" font-family="Times,serif" font-size="14.00">Negate</text>
</g>
<!-- node2&#45;&gt;node3 -->
<g id="edge1" class="edge">
<title>node2&#45;&gt;node3</title>
<path fill="none" stroke="black" d="M461.5,-193.35C439.06,-176.25 412.19,-155.77 391.73,-140.18"/>
<polygon fill="black" stroke="black" points="393.75,-137.32 383.67,-134.04 389.5,-142.89 393.75,-137.32"/>
<text text-anchor="start" x="436" y="-163.8" font-family="Times,serif" font-size="14.00">%2</text>
</g>
<!-- node3&#45;&gt;node4 -->
<g id="edge2" class="edge">
<title>node3&#45;&gt;node4</title>
<path fill="none" stroke="black" d="M329.73,-95.78C304.19,-80.41 267.53,-58.34 240.21,-41.9"/>
<polygon fill="black" stroke="black" points="241.7,-38.71 231.33,-36.55 238.09,-44.71 241.7,-38.71"/>
<text text-anchor="start" x="286" y="-58.8" font-family="Times,serif" font-size="14.00">%3</text>
</g>
</g>
</svg>
