<?xml version="1.0" encoding="UTF-8" standalone="no"?>
<!DOCTYPE svg PUBLIC "-//W3C//DTD SVG 1.1//EN"
 "http://www.w3.org/Graphics/SVG/1.1/DTD/svg11.dtd">
<!-- Generated by graphviz version 2.43.0 (0)
 -->
<!-- Title: G Pages: 1 -->
<svg width="686pt" height="407pt"
 viewBox="0.00 0.00 686.00 407.00" xmlns="http://www.w3.org/2000/svg" xmlns:xlink="http://www.w3.org/1999/xlink">
<g id="graph0" class="graph" transform="scale(1 1) rotate(0) translate(4 403)">
<title>G</title>
<polygon fill="white" stroke="transparent" points="-4,4 -4,-403 682,-403 682,4 -4,4"/>
<!-- node0 -->
<g id="node1" class="node">
<title>node0</title>
<polygon fill="none" stroke="black" points="0,-150.5 0,-203.5 272,-203.5 272,-150.5 0,-150.5"/>
<text text-anchor="start" x="8" y="-188.3" font-family="Times,serif" font-size="14.00">Get negate_threshold.public.r (u51)</text>
<text text-anchor="start" x="8" y="-173.3" font-family="Times,serif" font-size="14.00">&#45; types = (bigint?, integer?)</text>
<text text-anchor="start" x="8" y="-158.3" font-family="Times,serif" font-size="14.00">&#45; keys = ()</text>
</g>
<!-- node4 -->
<g id="node5" class="node">
<title>node4</title>
<polygon fill="none" stroke="black" points="105,-0.5 105,-53.5 319,-53.5 319,-0.5 105,-0.5"/>
<text text-anchor="start" x="113" y="-38.3" font-family="Times,serif" font-size="14.00">Union %0 %3</text>
<text text-anchor="start" x="113" y="-23.3" font-family="Times,serif" font-size="14.00">&#45; types = (bigint?, integer?)</text>
<text text-anchor="start" x="113" y="-8.3" font-family="Times,serif" font-size="14.00">&#45; keys = ()</text>
</g>
<!-- node0&#45;&gt;node4 -->
<g id="edge4" class="edge">
<title>node0&#45;&gt;node4</title>
<path fill="none" stroke="black" d="M149.24,-150.22C161.64,-126.07 180.27,-89.78 194.02,-63.02"/>
<polygon fill="black" stroke="black" points="197.2,-64.48 198.66,-53.98 190.98,-61.28 197.2,-64.48"/>
<text text-anchor="start" x="188" y="-75.8" font-family="Times,serif" font-size="14.00">%0</text>
</g>
<!-- node1 -->
<g id="node2" class="node">
<title>node1</title>
<polygon fill="none" stroke="black" points="116,-323 116,-376 388,-376 388,-323 116,-323"/>
<text text-anchor="start" x="124" y="-360.8" font-family="Times,serif" font-size="14.00">Get negate_threshold.public.r (u51)</text>
<text text-anchor="start" x="124" y="-345.8" font-family="Times,serif" font-size="14.00">&#45; types = (bigint?, integer?)</text>
<text text-anchor="start" x="124" y="-330.8" font-family="Times,serif" font-size="14.00">&#45; keys = ()</text>
</g>
<!-- node3 -->
<g id="node4" class="node">
<title>node3</title>
<polygon fill="none" stroke="black" points="290,-105.5 290,-248.5 504,-248.5 504,-105.5 290,-105.5"/>
<text text-anchor="start" x="298" y="-233.3" font-family="Times,serif" font-size="14.00">Union %1 %2</text>
<text text-anchor="start" x="298" y="-218.3" font-family="Times,serif" font-size="14.00">&#45; types = (bigint?, integer?)</text>
<text text-anchor="start" x="298" y="-203.3" font-family="Times,serif" font-size="14.00">&#45; keys = ()</text>
<text text-anchor="start" x="298" y="-188.3" font-family="Times,serif" font-size="14.00">Threshold</text>
<text text-anchor="start" x="298" y="-173.3" font-family="Times,serif" font-size="14.00">&#45; types = (bigint?, integer?)</text>
<text text-anchor="start" x="298" y="-158.3" font-family="Times,serif" font-size="14.00">&#45; keys = ()</text>
<text text-anchor="start" x="298" y="-143.3" font-family="Times,serif" font-size="14.00">Negate</text>
<text text-anchor="start" x="298" y="-128.3" font-family="Times,serif" font-size="14.00">&#45; types = (bigint?, integer?)</text>
<text text-anchor="start" x="298" y="-113.3" font-family="Times,serif" font-size="14.00">&#45; keys = ()</text>
</g>
<!-- node1&#45;&gt;node3 -->
<g id="edge3" class="edge">
<title>node1&#45;&gt;node3</title>
<path fill="none" stroke="black" d="M273.71,-322.97C288.82,-305.2 309.85,-280.47 330.27,-256.47"/>
<polygon fill="black" stroke="black" points="333.06,-258.59 336.87,-248.71 327.72,-254.06 333.06,-258.59"/>
<text text-anchor="start" x="320" y="-270.8" font-family="Times,serif" font-size="14.00">%1</text>
</g>
<!-- node2 -->
<g id="node3" class="node">
<title>node2</title>
<polygon fill="none" stroke="black" points="406,-300.5 406,-398.5 678,-398.5 678,-300.5 406,-300.5"/>
<text text-anchor="start" x="414" y="-383.3" font-family="Times,serif" font-size="14.00">Get negate_threshold.public.s (u52)</text>
<text text-anchor="start" x="414" y="-368.3" font-family="Times,serif" font-size="14.00">&#45; types = (bigint?, integer?)</text>
<text text-anchor="start" x="414" y="-353.3" font-family="Times,serif" font-size="14.00">&#45; keys = ()</text>
<text text-anchor="start" x="414" y="-338.3" font-family="Times,serif" font-size="14.00">Negate</text>
<text text-anchor="start" x="414" y="-323.3" font-family="Times,serif" font-size="14.00">&#45; types = (bigint?, integer?)</text>
<text text-anchor="start" x="414" y="-308.3" font-family="Times,serif" font-size="14.00">&#45; keys = ()</text>
</g>
<!-- node2&#45;&gt;node3 -->
<g id="edge1" class="edge">
<title>node2&#45;&gt;node3</title>
<path fill="none" stroke="black" d="M500.84,-300.1C489.29,-286.52 476.42,-271.39 463.79,-256.54"/>
<polygon fill="black" stroke="black" points="466.36,-254.15 457.21,-248.8 461.03,-258.69 466.36,-254.15"/>
<text text-anchor="start" x="482" y="-270.8" font-family="Times,serif" font-size="14.00">%2</text>
</g>
<!-- node3&#45;&gt;node4 -->
<g id="edge2" class="edge">
<title>node3&#45;&gt;node4</title>
<path fill="none" stroke="black" d="M308.83,-105.47C289,-89.6 268.9,-73.52 252.19,-60.15"/>
<polygon fill="black" stroke="black" points="254.27,-57.34 244.28,-53.82 249.9,-62.8 254.27,-57.34"/>
<text text-anchor="start" x="282" y="-75.8" font-family="Times,serif" font-size="14.00">%3</text>
</g>
</g>
</svg>
