<?xml version="1.0" encoding="UTF-8" standalone="no"?>
<!DOCTYPE svg PUBLIC "-//W3C//DTD SVG 1.1//EN"
 "http://www.w3.org/Graphics/SVG/1.1/DTD/svg11.dtd">
<!-- Generated by graphviz version 2.43.0 (0)
 -->
<!-- Title: G Pages: 1 -->
<svg width="978pt" height="1001pt"
 viewBox="0.00 0.00 978.00 1001.00" xmlns="http://www.w3.org/2000/svg" xmlns:xlink="http://www.w3.org/1999/xlink">
<g id="graph0" class="graph" transform="scale(1 1) rotate(0) translate(4 997)">
<title>G</title>
<polygon fill="white" stroke="transparent" points="-4,4 -4,-997 974,-997 974,4 -4,4"/>
<!-- node0 -->
<g id="node1" class="node">
<title>node0</title>
<polygon fill="none" stroke="black" points="290,-939.5 290,-992.5 390,-992.5 390,-939.5 290,-939.5"/>
<text text-anchor="start" x="298" y="-977.3" font-family="Times,serif" font-size="14.00">Constant ()</text>
<text text-anchor="start" x="298" y="-962.3" font-family="Times,serif" font-size="14.00">&#45; types = ()</text>
<text text-anchor="start" x="298" y="-947.3" font-family="Times,serif" font-size="14.00">&#45; keys = (())</text>
</g>
<!-- node2 -->
<g id="node3" class="node">
<title>node2</title>
<polygon fill="none" stroke="black" points="40,-819.5 40,-887.5 314,-887.5 314,-819.5 40,-819.5"/>
<text text-anchor="start" x="48" y="-872.3" font-family="Times,serif" font-size="14.00">Join %0 %1</text>
<text text-anchor="start" x="48" y="-857.3" font-family="Times,serif" font-size="14.00">&#45; implementation = Unimplemented</text>
<text text-anchor="start" x="48" y="-842.3" font-family="Times,serif" font-size="14.00">&#45; types = (bigint?, integer?)</text>
<text text-anchor="start" x="48" y="-827.3" font-family="Times,serif" font-size="14.00">&#45; keys = ()</text>
</g>
<!-- node0&#45;&gt;node2 -->
<g id="edge9" class="edge">
<title>node0&#45;&gt;node2</title>
<path fill="none" stroke="black" d="M302.19,-939.37C282.01,-925.69 256.76,-908.57 234.23,-893.29"/>
<polygon fill="black" stroke="black" points="235.98,-890.26 225.74,-887.54 232.05,-896.05 235.98,-890.26"/>
<text text-anchor="start" x="274" y="-909.8" font-family="Times,serif" font-size="14.00">%0</text>
</g>
<!-- node5 -->
<g id="node6" class="node">
<title>node5</title>
<polygon fill="none" stroke="black" points="332,-819.5 332,-887.5 606,-887.5 606,-819.5 332,-819.5"/>
<text text-anchor="start" x="340" y="-872.3" font-family="Times,serif" font-size="14.00">Join %0 %4</text>
<text text-anchor="start" x="340" y="-857.3" font-family="Times,serif" font-size="14.00">&#45; implementation = Unimplemented</text>
<text text-anchor="start" x="340" y="-842.3" font-family="Times,serif" font-size="14.00">&#45; types = (bigint?, integer?)</text>
<text text-anchor="start" x="340" y="-827.3" font-family="Times,serif" font-size="14.00">&#45; keys = ()</text>
</g>
<!-- node0&#45;&gt;node5 -->
<g id="edge5" class="edge">
<title>node0&#45;&gt;node5</title>
<path fill="none" stroke="black" d="M362.9,-939.3C372.94,-928.57 385.14,-916.23 397,-906 401.73,-901.92 406.78,-897.83 411.93,-893.84"/>
<polygon fill="black" stroke="black" points="414.2,-896.51 420.05,-887.68 409.97,-890.93 414.2,-896.51"/>
<text text-anchor="start" x="397" y="-909.8" font-family="Times,serif" font-size="14.00">%0</text>
</g>
<!-- node8 -->
<g id="node9" class="node">
<title>node8</title>
<polygon fill="none" stroke="black" points="657,-819.5 657,-887.5 931,-887.5 931,-819.5 657,-819.5"/>
<text text-anchor="start" x="665" y="-872.3" font-family="Times,serif" font-size="14.00">Join %0 %7</text>
<text text-anchor="start" x="665" y="-857.3" font-family="Times,serif" font-size="14.00">&#45; implementation = Unimplemented</text>
<text text-anchor="start" x="665" y="-842.3" font-family="Times,serif" font-size="14.00">&#45; types = (bigint?, integer?)</text>
<text text-anchor="start" x="665" y="-827.3" font-family="Times,serif" font-size="14.00">&#45; keys = ()</text>
</g>
<!-- node0&#45;&gt;node8 -->
<g id="edge6" class="edge">
<title>node0&#45;&gt;node8</title>
<path fill="none" stroke="black" d="M389.84,-939.48C415.3,-927.5 447.13,-914.1 477,-906 536.69,-889.8 553.91,-897.69 615,-888 625.4,-886.35 636.12,-884.56 646.91,-882.7"/>
<polygon fill="black" stroke="black" points="647.58,-886.14 656.83,-880.97 646.37,-879.24 647.58,-886.14"/>
<text text-anchor="start" x="477" y="-909.8" font-family="Times,serif" font-size="14.00">%0</text>
</g>
<!-- node1 -->
<g id="node2" class="node">
<title>node1</title>
<polygon fill="none" stroke="black" points="0,-939.5 0,-992.5 272,-992.5 272,-939.5 0,-939.5"/>
<text text-anchor="start" x="8" y="-977.3" font-family="Times,serif" font-size="14.00">Get negate_threshold.public.r (u51)</text>
<text text-anchor="start" x="8" y="-962.3" font-family="Times,serif" font-size="14.00">&#45; types = (bigint?, integer?)</text>
<text text-anchor="start" x="8" y="-947.3" font-family="Times,serif" font-size="14.00">&#45; keys = ()</text>
</g>
<!-- node1&#45;&gt;node2 -->
<g id="edge8" class="edge">
<title>node1&#45;&gt;node2</title>
<path fill="none" stroke="black" d="M145.51,-939.37C150.16,-926.84 155.88,-911.41 161.17,-897.17"/>
<polygon fill="black" stroke="black" points="164.54,-898.13 164.74,-887.54 157.98,-895.7 164.54,-898.13"/>
<text text-anchor="start" x="158" y="-909.8" font-family="Times,serif" font-size="14.00">%1</text>
</g>
<!-- node3 -->
<g id="node4" class="node">
<title>node3</title>
<polygon fill="none" stroke="black" points="68.5,-267.5 68.5,-485.5 409.5,-485.5 409.5,-267.5 68.5,-267.5"/>
<text text-anchor="start" x="76.5" y="-470.3" font-family="Times,serif" font-size="14.00">&#45; types = (bigint?, integer?)</text>
<text text-anchor="start" x="76.5" y="-455.3" font-family="Times,serif" font-size="14.00">&#45; keys = ()</text>
<text text-anchor="start" x="76.5" y="-440.3" font-family="Times,serif" font-size="14.00">Map #0</text>
<text text-anchor="start" x="76.5" y="-425.3" font-family="Times,serif" font-size="14.00">&#45; types = (bigint?, integer?, bigint?)</text>
<text text-anchor="start" x="76.5" y="-410.3" font-family="Times,serif" font-size="14.00">&#45; keys = ()</text>
<text text-anchor="start" x="76.5" y="-395.3" font-family="Times,serif" font-size="14.00">Map #1</text>
<text text-anchor="start" x="76.5" y="-380.3" font-family="Times,serif" font-size="14.00">&#45; types = (bigint?, integer?, bigint?, integer?)</text>
<text text-anchor="start" x="76.5" y="-365.3" font-family="Times,serif" font-size="14.00">&#45; keys = ()</text>
<text text-anchor="start" x="76.5" y="-350.3" font-family="Times,serif" font-size="14.00">Project (#0..=#3)</text>
<text text-anchor="start" x="76.5" y="-335.3" font-family="Times,serif" font-size="14.00">&#45; types = (bigint?, integer?, bigint?, integer?)</text>
<text text-anchor="start" x="76.5" y="-320.3" font-family="Times,serif" font-size="14.00">&#45; keys = ()</text>
<text text-anchor="start" x="76.5" y="-305.3" font-family="Times,serif" font-size="14.00">Project (#2, #3)</text>
<text text-anchor="start" x="76.5" y="-290.3" font-family="Times,serif" font-size="14.00">&#45; types = (bigint?, integer?)</text>
<text text-anchor="start" x="76.5" y="-275.3" font-family="Times,serif" font-size="14.00">&#45; keys = ()</text>
</g>
<!-- node2&#45;&gt;node3 -->
<g id="edge10" class="edge">
<title>node2&#45;&gt;node3</title>
<path fill="none" stroke="black" d="M181.31,-819.48C189.9,-753.64 209.54,-603.2 223.51,-496.15"/>
<polygon fill="black" stroke="black" points="227.02,-496.3 224.85,-485.93 220.08,-495.4 227.02,-496.3"/>
<text text-anchor="start" x="186" y="-789.8" font-family="Times,serif" font-size="14.00">%2</text>
</g>
<!-- node11 -->
<g id="node12" class="node">
<title>node11</title>
<polygon fill="none" stroke="black" points="173,-0.5 173,-53.5 387,-53.5 387,-0.5 173,-0.5"/>
<text text-anchor="start" x="181" y="-38.3" font-family="Times,serif" font-size="14.00">Union %3 %10</text>
<text text-anchor="start" x="181" y="-23.3" font-family="Times,serif" font-size="14.00">&#45; types = (bigint?, integer?)</text>
<text text-anchor="start" x="181" y="-8.3" font-family="Times,serif" font-size="14.00">&#45; keys = ()</text>
</g>
<!-- node3&#45;&gt;node11 -->
<g id="edge11" class="edge">
<title>node3&#45;&gt;node11</title>
<path fill="none" stroke="black" d="M251.75,-267.45C259.97,-197.81 270.13,-111.64 275.75,-63.98"/>
<polygon fill="black" stroke="black" points="279.25,-64.19 276.95,-53.85 272.3,-63.37 279.25,-64.19"/>
<text text-anchor="start" x="271" y="-173.3" font-family="Times,serif" font-size="14.00">%3</text>
</g>
<!-- node4 -->
<g id="node5" class="node">
<title>node4</title>
<polygon fill="none" stroke="black" points="408,-939.5 408,-992.5 680,-992.5 680,-939.5 408,-939.5"/>
<text text-anchor="start" x="416" y="-977.3" font-family="Times,serif" font-size="14.00">Get negate_threshold.public.r (u51)</text>
<text text-anchor="start" x="416" y="-962.3" font-family="Times,serif" font-size="14.00">&#45; types = (bigint?, integer?)</text>
<text text-anchor="start" x="416" y="-947.3" font-family="Times,serif" font-size="14.00">&#45; keys = ()</text>
</g>
<!-- node4&#45;&gt;node5 -->
<g id="edge2" class="edge">
<title>node4&#45;&gt;node5</title>
<path fill="none" stroke="black" d="M526.6,-939.37C517.85,-926.47 507.02,-910.52 497.12,-895.94"/>
<polygon fill="black" stroke="black" points="499.94,-893.85 491.43,-887.54 494.15,-897.78 499.94,-893.85"/>
<text text-anchor="start" x="513" y="-909.8" font-family="Times,serif" font-size="14.00">%4</text>
</g>
<!-- node6 -->
<g id="node7" class="node">
<title>node6</title>
<polygon fill="none" stroke="black" points="264.5,-527 264.5,-745 605.5,-745 605.5,-527 264.5,-527"/>
<text text-anchor="start" x="272.5" y="-729.8" font-family="Times,serif" font-size="14.00">&#45; types = (bigint?, integer?)</text>
<text text-anchor="start" x="272.5" y="-714.8" font-family="Times,serif" font-size="14.00">&#45; keys = ()</text>
<text text-anchor="start" x="272.5" y="-699.8" font-family="Times,serif" font-size="14.00">Map #0</text>
<text text-anchor="start" x="272.5" y="-684.8" font-family="Times,serif" font-size="14.00">&#45; types = (bigint?, integer?, bigint?)</text>
<text text-anchor="start" x="272.5" y="-669.8" font-family="Times,serif" font-size="14.00">&#45; keys = ()</text>
<text text-anchor="start" x="272.5" y="-654.8" font-family="Times,serif" font-size="14.00">Map #1</text>
<text text-anchor="start" x="272.5" y="-639.8" font-family="Times,serif" font-size="14.00">&#45; types = (bigint?, integer?, bigint?, integer?)</text>
<text text-anchor="start" x="272.5" y="-624.8" font-family="Times,serif" font-size="14.00">&#45; keys = ()</text>
<text text-anchor="start" x="272.5" y="-609.8" font-family="Times,serif" font-size="14.00">Project (#0..=#3)</text>
<text text-anchor="start" x="272.5" y="-594.8" font-family="Times,serif" font-size="14.00">&#45; types = (bigint?, integer?, bigint?, integer?)</text>
<text text-anchor="start" x="272.5" y="-579.8" font-family="Times,serif" font-size="14.00">&#45; keys = ()</text>
<text text-anchor="start" x="272.5" y="-564.8" font-family="Times,serif" font-size="14.00">Project (#2, #3)</text>
<text text-anchor="start" x="272.5" y="-549.8" font-family="Times,serif" font-size="14.00">&#45; types = (bigint?, integer?)</text>
<text text-anchor="start" x="272.5" y="-534.8" font-family="Times,serif" font-size="14.00">&#45; keys = ()</text>
</g>
<!-- node5&#45;&gt;node6 -->
<g id="edge13" class="edge">
<title>node5&#45;&gt;node6</title>
<path fill="none" stroke="black" d="M463.76,-819.3C460.97,-801.63 457.36,-778.73 453.64,-755.15"/>
<polygon fill="black" stroke="black" points="457.06,-754.34 452.04,-745.01 450.14,-755.44 457.06,-754.34"/>
<text text-anchor="start" x="460" y="-789.8" font-family="Times,serif" font-size="14.00">%5</text>
</g>
<!-- node10 -->
<g id="node11" class="node">
<title>node10</title>
<polygon fill="none" stroke="black" points="328,-105.5 328,-248.5 542,-248.5 542,-105.5 328,-105.5"/>
<text text-anchor="start" x="336" y="-233.3" font-family="Times,serif" font-size="14.00">Union %6 %9</text>
<text text-anchor="start" x="336" y="-218.3" font-family="Times,serif" font-size="14.00">&#45; types = (bigint?, integer?)</text>
<text text-anchor="start" x="336" y="-203.3" font-family="Times,serif" font-size="14.00">&#45; keys = ()</text>
<text text-anchor="start" x="336" y="-188.3" font-family="Times,serif" font-size="14.00">Threshold</text>
<text text-anchor="start" x="336" y="-173.3" font-family="Times,serif" font-size="14.00">&#45; types = (bigint?, integer?)</text>
<text text-anchor="start" x="336" y="-158.3" font-family="Times,serif" font-size="14.00">&#45; keys = ()</text>
<text text-anchor="start" x="336" y="-143.3" font-family="Times,serif" font-size="14.00">Negate</text>
<text text-anchor="start" x="336" y="-128.3" font-family="Times,serif" font-size="14.00">&#45; types = (bigint?, integer?)</text>
<text text-anchor="start" x="336" y="-113.3" font-family="Times,serif" font-size="14.00">&#45; keys = ()</text>
</g>
<!-- node6&#45;&gt;node10 -->
<g id="edge1" class="edge">
<title>node6&#45;&gt;node10</title>
<path fill="none" stroke="black" d="M435,-526.99C435,-444.81 435,-333.53 435,-258.92"/>
<polygon fill="black" stroke="black" points="438.5,-258.64 435,-248.64 431.5,-258.64 438.5,-258.64"/>
<text text-anchor="start" x="435" y="-372.8" font-family="Times,serif" font-size="14.00">%6</text>
</g>
<!-- node7 -->
<g id="node8" class="node">
<title>node7</title>
<polygon fill="none" stroke="black" points="698,-939.5 698,-992.5 970,-992.5 970,-939.5 698,-939.5"/>
<text text-anchor="start" x="706" y="-977.3" font-family="Times,serif" font-size="14.00">Get negate_threshold.public.s (u52)</text>
<text text-anchor="start" x="706" y="-962.3" font-family="Times,serif" font-size="14.00">&#45; types = (bigint?, integer?)</text>
<text text-anchor="start" x="706" y="-947.3" font-family="Times,serif" font-size="14.00">&#45; keys = ()</text>
</g>
<!-- node7&#45;&gt;node8 -->
<g id="edge4" class="edge">
<title>node7&#45;&gt;node8</title>
<path fill="none" stroke="black" d="M824.72,-939.37C820.18,-926.84 814.6,-911.41 809.44,-897.17"/>
<polygon fill="black" stroke="black" points="812.66,-895.75 805.96,-887.54 806.07,-898.14 812.66,-895.75"/>
<text text-anchor="start" x="817" y="-909.8" font-family="Times,serif" font-size="14.00">%7</text>
</g>
<!-- node9 -->
<g id="node10" class="node">
<title>node9</title>
<polygon fill="none" stroke="black" points="623.5,-504.5 623.5,-767.5 964.5,-767.5 964.5,-504.5 623.5,-504.5"/>
<text text-anchor="start" x="631.5" y="-752.3" font-family="Times,serif" font-size="14.00">&#45; types = (bigint?, integer?)</text>
<text text-anchor="start" x="631.5" y="-737.3" font-family="Times,serif" font-size="14.00">&#45; keys = ()</text>
<text text-anchor="start" x="631.5" y="-722.3" font-family="Times,serif" font-size="14.00">Map #0</text>
<text text-anchor="start" x="631.5" y="-707.3" font-family="Times,serif" font-size="14.00">&#45; types = (bigint?, integer?, bigint?)</text>
<text text-anchor="start" x="631.5" y="-692.3" font-family="Times,serif" font-size="14.00">&#45; keys = ()</text>
<text text-anchor="start" x="631.5" y="-677.3" font-family="Times,serif" font-size="14.00">Map #1</text>
<text text-anchor="start" x="631.5" y="-662.3" font-family="Times,serif" font-size="14.00">&#45; types = (bigint?, integer?, bigint?, integer?)</text>
<text text-anchor="start" x="631.5" y="-647.3" font-family="Times,serif" font-size="14.00">&#45; keys = ()</text>
<text text-anchor="start" x="631.5" y="-632.3" font-family="Times,serif" font-size="14.00">Project (#0..=#3)</text>
<text text-anchor="start" x="631.5" y="-617.3" font-family="Times,serif" font-size="14.00">&#45; types = (bigint?, integer?, bigint?, integer?)</text>
<text text-anchor="start" x="631.5" y="-602.3" font-family="Times,serif" font-size="14.00">&#45; keys = ()</text>
<text text-anchor="start" x="631.5" y="-587.3" font-family="Times,serif" font-size="14.00">Project (#2, #3)</text>
<text text-anchor="start" x="631.5" y="-572.3" font-family="Times,serif" font-size="14.00">&#45; types = (bigint?, integer?)</text>
<text text-anchor="start" x="631.5" y="-557.3" font-family="Times,serif" font-size="14.00">&#45; keys = ()</text>
<text text-anchor="start" x="631.5" y="-542.3" font-family="Times,serif" font-size="14.00">Negate</text>
<text text-anchor="start" x="631.5" y="-527.3" font-family="Times,serif" font-size="14.00">&#45; types = (bigint?, integer?)</text>
<text text-anchor="start" x="631.5" y="-512.3" font-family="Times,serif" font-size="14.00">&#45; keys = ()</text>
</g>
<!-- node8&#45;&gt;node9 -->
<g id="edge3" class="edge">
<title>node8&#45;&gt;node9</title>
<path fill="none" stroke="black" d="M794,-819.3C794,-807.39 794,-793.09 794,-777.81"/>
<polygon fill="black" stroke="black" points="797.5,-777.64 794,-767.64 790.5,-777.64 797.5,-777.64"/>
<text text-anchor="start" x="794" y="-789.8" font-family="Times,serif" font-size="14.00">%8</text>
</g>
<!-- node9&#45;&gt;node10 -->
<g id="edge12" class="edge">
<title>node9&#45;&gt;node10</title>
<path fill="none" stroke="black" d="M691.37,-504.35C628.54,-424.37 550.23,-324.68 496.8,-256.67"/>
<polygon fill="black" stroke="black" points="499.34,-254.24 490.41,-248.53 493.83,-258.56 499.34,-254.24"/>
<text text-anchor="start" x="667" y="-372.8" font-family="Times,serif" font-size="14.00">%9</text>
</g>
<!-- node10&#45;&gt;node11 -->
<g id="edge7" class="edge">
<title>node10&#45;&gt;node11</title>
<path fill="none" stroke="black" d="M361.13,-105.47C344.82,-89.89 328.29,-74.1 314.44,-60.88"/>
<polygon fill="black" stroke="black" points="316.69,-58.2 307.04,-53.82 311.86,-63.26 316.69,-58.2"/>
<text text-anchor="start" x="340" y="-75.8" font-family="Times,serif" font-size="14.00">%10</text>
</g>
</g>
</svg>
