<?xml version="1.0" encoding="UTF-8" standalone="no"?>
<!DOCTYPE svg PUBLIC "-//W3C//DTD SVG 1.1//EN"
 "http://www.w3.org/Graphics/SVG/1.1/DTD/svg11.dtd">
<!-- Generated by graphviz version 2.43.0 (0)
 -->
<!-- Title: G Pages: 1 -->
<svg width="856pt" height="497pt"
 viewBox="0.00 0.00 856.00 497.00" xmlns="http://www.w3.org/2000/svg" xmlns:xlink="http://www.w3.org/1999/xlink">
<g id="graph0" class="graph" transform="scale(1 1) rotate(0) translate(4 493)">
<title>G</title>
<polygon fill="white" stroke="transparent" points="-4,4 -4,-493 852,-493 852,4 -4,4"/>
<!-- node0 -->
<g id="node1" class="node">
<title>node0</title>
<polygon fill="none" stroke="black" points="0,-105.5 0,-248.5 341,-248.5 341,-105.5 0,-105.5"/>
<text text-anchor="start" x="8" y="-233.3" font-family="Times,serif" font-size="14.00">Get negate_threshold.public.r (u51)</text>
<text text-anchor="start" x="8" y="-218.3" font-family="Times,serif" font-size="14.00">&#45; types = (bigint?, integer?)</text>
<text text-anchor="start" x="8" y="-203.3" font-family="Times,serif" font-size="14.00">&#45; keys = ()</text>
<text text-anchor="start" x="8" y="-188.3" font-family="Times,serif" font-size="14.00">Map #0, #1</text>
<text text-anchor="start" x="8" y="-173.3" font-family="Times,serif" font-size="14.00">&#45; types = (bigint?, integer?, bigint?, integer?)</text>
<text text-anchor="start" x="8" y="-158.3" font-family="Times,serif" font-size="14.00">&#45; keys = ()</text>
<text text-anchor="start" x="8" y="-143.3" font-family="Times,serif" font-size="14.00">Project (#2, #3)</text>
<text text-anchor="start" x="8" y="-128.3" font-family="Times,serif" font-size="14.00">&#45; types = (bigint?, integer?)</text>
<text text-anchor="start" x="8" y="-113.3" font-family="Times,serif" font-size="14.00">&#45; keys = ()</text>
</g>
<!-- node4 -->
<g id="node5" class="node">
<title>node4</title>
<polygon fill="none" stroke="black" points="86.5,-0.5 86.5,-53.5 300.5,-53.5 300.5,-0.5 86.5,-0.5"/>
<text text-anchor="start" x="94.5" y="-38.3" font-family="Times,serif" font-size="14.00">Union %0 %3</text>
<text text-anchor="start" x="94.5" y="-23.3" font-family="Times,serif" font-size="14.00">&#45; types = (bigint?, integer?)</text>
<text text-anchor="start" x="94.5" y="-8.3" font-family="Times,serif" font-size="14.00">&#45; keys = ()</text>
</g>
<!-- node0&#45;&gt;node4 -->
<g id="edge4" class="edge">
<title>node0&#45;&gt;node4</title>
<path fill="none" stroke="black" d="M181.46,-105.47C183.7,-91.04 185.97,-76.44 187.93,-63.86"/>
<polygon fill="black" stroke="black" points="191.41,-64.24 189.49,-53.82 184.49,-63.17 191.41,-64.24"/>
<text text-anchor="start" x="186.5" y="-75.8" font-family="Times,serif" font-size="14.00">%0</text>
</g>
<!-- node1 -->
<g id="node2" class="node">
<title>node1</title>
<polygon fill="none" stroke="black" points="148,-323 148,-466 489,-466 489,-323 148,-323"/>
<text text-anchor="start" x="156" y="-450.8" font-family="Times,serif" font-size="14.00">Get negate_threshold.public.r (u51)</text>
<text text-anchor="start" x="156" y="-435.8" font-family="Times,serif" font-size="14.00">&#45; types = (bigint?, integer?)</text>
<text text-anchor="start" x="156" y="-420.8" font-family="Times,serif" font-size="14.00">&#45; keys = ()</text>
<text text-anchor="start" x="156" y="-405.8" font-family="Times,serif" font-size="14.00">Map #0, #1</text>
<text text-anchor="start" x="156" y="-390.8" font-family="Times,serif" font-size="14.00">&#45; types = (bigint?, integer?, bigint?, integer?)</text>
<text text-anchor="start" x="156" y="-375.8" font-family="Times,serif" font-size="14.00">&#45; keys = ()</text>
<text text-anchor="start" x="156" y="-360.8" font-family="Times,serif" font-size="14.00">Project (#2, #3)</text>
<text text-anchor="start" x="156" y="-345.8" font-family="Times,serif" font-size="14.00">&#45; types = (bigint?, integer?)</text>
<text text-anchor="start" x="156" y="-330.8" font-family="Times,serif" font-size="14.00">&#45; keys = ()</text>
</g>
<!-- node3 -->
<g id="node4" class="node">
<title>node3</title>
<polygon fill="none" stroke="black" points="359.5,-113 359.5,-241 635.5,-241 635.5,-113 359.5,-113"/>
<text text-anchor="start" x="367.5" y="-225.8" font-family="Times,serif" font-size="14.00">Union %1 %2</text>
<text text-anchor="start" x="367.5" y="-210.8" font-family="Times,serif" font-size="14.00">&#45; types = (bigint?, integer?)</text>
<text text-anchor="start" x="367.5" y="-195.8" font-family="Times,serif" font-size="14.00">&#45; keys = ()</text>
<text text-anchor="start" x="367.5" y="-180.8" font-family="Times,serif" font-size="14.00">Thresholdtypes = (bigint?, integer?)</text>
<text text-anchor="start" x="367.5" y="-165.8" font-family="Times,serif" font-size="14.00">&#45; keys = ()</text>
<text text-anchor="start" x="367.5" y="-150.8" font-family="Times,serif" font-size="14.00">Negate</text>
<text text-anchor="start" x="367.5" y="-135.8" font-family="Times,serif" font-size="14.00">&#45; types = (bigint?, integer?)</text>
<text text-anchor="start" x="367.5" y="-120.8" font-family="Times,serif" font-size="14.00">&#45; keys = ()</text>
</g>
<!-- node1&#45;&gt;node3 -->
<g id="edge3" class="edge">
<title>node1&#45;&gt;node3</title>
<path fill="none" stroke="black" d="M377.11,-322.94C396.81,-299.23 418.78,-272.78 438.5,-249.03"/>
<polygon fill="black" stroke="black" points="441.4,-251.02 445.1,-241.09 436.02,-246.54 441.4,-251.02"/>
<text text-anchor="start" x="419.5" y="-270.8" font-family="Times,serif" font-size="14.00">%1</text>
</g>
<!-- node2 -->
<g id="node3" class="node">
<title>node2</title>
<polygon fill="none" stroke="black" points="507,-300.5 507,-488.5 848,-488.5 848,-300.5 507,-300.5"/>
<text text-anchor="start" x="515" y="-473.3" font-family="Times,serif" font-size="14.00">Get negate_threshold.public.s (u52)</text>
<text text-anchor="start" x="515" y="-458.3" font-family="Times,serif" font-size="14.00">&#45; types = (bigint?, integer?)</text>
<text text-anchor="start" x="515" y="-443.3" font-family="Times,serif" font-size="14.00">&#45; keys = ()</text>
<text text-anchor="start" x="515" y="-428.3" font-family="Times,serif" font-size="14.00">Map #0, #1</text>
<text text-anchor="start" x="515" y="-413.3" font-family="Times,serif" font-size="14.00">&#45; types = (bigint?, integer?, bigint?, integer?)</text>
<text text-anchor="start" x="515" y="-398.3" font-family="Times,serif" font-size="14.00">&#45; keys = ()</text>
<text text-anchor="start" x="515" y="-383.3" font-family="Times,serif" font-size="14.00">Project (#2, #3)</text>
<text text-anchor="start" x="515" y="-368.3" font-family="Times,serif" font-size="14.00">&#45; types = (bigint?, integer?)</text>
<text text-anchor="start" x="515" y="-353.3" font-family="Times,serif" font-size="14.00">&#45; keys = ()</text>
<text text-anchor="start" x="515" y="-338.3" font-family="Times,serif" font-size="14.00">Negate</text>
<text text-anchor="start" x="515" y="-323.3" font-family="Times,serif" font-size="14.00">&#45; types = (bigint?, integer?)</text>
<text text-anchor="start" x="515" y="-308.3" font-family="Times,serif" font-size="14.00">&#45; keys = ()</text>
</g>
<!-- node2&#45;&gt;node3 -->
<g id="edge1" class="edge">
<title>node2&#45;&gt;node3</title>
<path fill="none" stroke="black" d="M599.6,-300.23C585.31,-283.12 570.6,-265.52 556.96,-249.19"/>
<polygon fill="black" stroke="black" points="559.45,-246.71 550.36,-241.28 554.08,-251.2 559.45,-246.71"/>
<text text-anchor="start" x="582.5" y="-270.8" font-family="Times,serif" font-size="14.00">%2</text>
</g>
<!-- node3&#45;&gt;node4 -->
<g id="edge2" class="edge">
<title>node3&#45;&gt;node4</title>
<path fill="none" stroke="black" d="M367.69,-112.81C328.77,-93.86 287.86,-73.94 255.48,-58.17"/>
<polygon fill="black" stroke="black" points="256.67,-54.86 246.15,-53.63 253.61,-61.16 256.67,-54.86"/>
<text text-anchor="start" x="309.5" y="-75.8" font-family="Times,serif" font-size="14.00">%3</text>
</g>
</g>
</svg>
