<?xml version="1.0" encoding="UTF-8" standalone="no"?>
<!DOCTYPE svg PUBLIC "-//W3C//DTD SVG 1.1//EN"
 "http://www.w3.org/Graphics/SVG/1.1/DTD/svg11.dtd">
<!-- Generated by graphviz version 2.43.0 (0)
 -->
<!-- Title: G Pages: 1 -->
<svg width="383pt" height="182pt"
 viewBox="0.00 0.00 383.00 182.00" xmlns="http://www.w3.org/2000/svg" xmlns:xlink="http://www.w3.org/1999/xlink">
<g id="graph0" class="graph" transform="scale(1 1) rotate(0) translate(4 178)">
<title>G</title>
<polygon fill="white" stroke="transparent" points="-4,4 -4,-178 379,-178 379,4 -4,4"/>
<!-- node0 -->
<g id="node1" class="node">
<title>node0</title>
<polygon fill="none" stroke="black" points="51.5,-135.5 51.5,-173.5 152.5,-173.5 152.5,-135.5 51.5,-135.5"/>
<text text-anchor="start" x="59.5" y="-158.3" font-family="Times,serif" font-size="14.00">Let l0 =</text>
<text text-anchor="start" x="59.5" y="-143.3" font-family="Times,serif" font-size="14.00"> Constant ()</text>
</g>
<!-- node2 -->
<g id="node3" class="node">
<title>node2</title>
<polygon fill="none" stroke="black" points="0,-0.5 0,-83.5 374,-83.5 374,-0.5 0,-0.5"/>
<text text-anchor="start" x="8" y="-68.3" font-family="Times,serif" font-size="14.00">Join %0 %1</text>
<text text-anchor="start" x="8" y="-53.3" font-family="Times,serif" font-size="14.00"> implementation = Unimplemented</text>
<text text-anchor="start" x="8" y="-38.3" font-family="Times,serif" font-size="14.00"> Map #0, #1, if (#1 = null) then {null} else {#1}</text>
<text text-anchor="start" x="8" y="-23.3" font-family="Times,serif" font-size="14.00"> Project (#2..=#4)</text>
<text text-anchor="start" x="8" y="-8.3" font-family="Times,serif" font-size="14.00"> Project (#2)</text>
</g>
<!-- node0&#45;&gt;node2 -->
<g id="edge1" class="edge">
<title>node0&#45;&gt;node2</title>
<path fill="none" stroke="black" d="M116.04,-135.25C125.19,-123.35 137.61,-107.21 149.5,-91.76"/>
<polygon fill="black" stroke="black" points="152.32,-93.82 155.64,-83.76 146.77,-89.56 152.32,-93.82"/>
<text text-anchor="start" x="140" y="-105.8" font-family="Times,serif" font-size="14.00">%0</text>
</g>
<!-- node1 -->
<g id="node2" class="node">
<title>node1</title>
<polygon fill="none" stroke="black" points="171,-136.5 171,-172.5 375,-172.5 375,-136.5 171,-136.5"/>
<text text-anchor="start" x="179" y="-150.8" font-family="Times,serif" font-size="14.00">Get types.public.t1 (u139)</text>
</g>
<!-- node1&#45;&gt;node2 -->
<g id="edge2" class="edge">
<title>node1&#45;&gt;node2</title>
<path fill="none" stroke="black" d="M259.56,-136.23C250.23,-124.24 237.3,-107.62 224.93,-91.73"/>
<polygon fill="black" stroke="black" points="227.44,-89.26 218.53,-83.52 221.91,-93.56 227.44,-89.26"/>
<text text-anchor="start" x="242" y="-105.8" font-family="Times,serif" font-size="14.00">%1</text>
</g>
</g>
</svg>
