<?xml version="1.0" encoding="UTF-8" standalone="no"?>
<!DOCTYPE svg PUBLIC "-//W3C//DTD SVG 1.1//EN"
 "http://www.w3.org/Graphics/SVG/1.1/DTD/svg11.dtd">
<!-- Generated by graphviz version 2.43.0 (0)
 -->
<!-- Title: G Pages: 1 -->
<svg width="1145pt" height="1241pt"
 viewBox="0.00 0.00 1145.00 1240.77" xmlns="http://www.w3.org/2000/svg" xmlns:xlink="http://www.w3.org/1999/xlink">
<g id="graph0" class="graph" transform="scale(1 1) rotate(0) translate(4 1236.77)">
<title>G</title>
<polygon fill="white" stroke="transparent" points="-4,4 -4,-1236.77 1141,-1236.77 1141,4 -4,4"/>
<g id="clust1" class="cluster">
<title>cluster1</title>
<polygon fill="none" stroke="black" points="555,-976.77 555,-1131.77 1096,-1131.77 1096,-976.77 555,-976.77"/>
<text text-anchor="middle" x="605.5" y="-1116.57" font-family="Times,serif" font-size="14.00">Box1:Select</text>
</g>
<g id="clust3" class="cluster">
<title>cluster0</title>
<polygon fill="none" stroke="black" points="8,-8 8,-140 170,-140 170,-8 8,-8"/>
<text text-anchor="middle" x="49.5" y="-124.8" font-family="Times,serif" font-size="14.00">Box0:Get</text>
</g>
<g id="clust5" class="cluster">
<title>cluster6</title>
<polygon fill="none" stroke="black" points="598,-815.83 598,-951.92 852,-951.92 852,-815.83 598,-815.83"/>
<text text-anchor="middle" x="648.5" y="-936.72" font-family="Times,serif" font-size="14.00">Box6:Select</text>
</g>
<g id="clust7" class="cluster">
<title>cluster5</title>
<polygon fill="none" stroke="black" points="470,-649.04 470,-785.13 724,-785.13 724,-649.04 470,-649.04"/>
<text text-anchor="middle" x="532" y="-769.93" font-family="Times,serif" font-size="14.00">Box5:Grouping</text>
</g>
<g id="clust9" class="cluster">
<title>cluster4</title>
<polygon fill="none" stroke="black" points="331,-488.09 331,-624.19 606,-624.19 606,-488.09 331,-488.09"/>
<text text-anchor="middle" x="381.5" y="-608.99" font-family="Times,serif" font-size="14.00">Box4:Select</text>
</g>
<g id="clust11" class="cluster">
<title>cluster3</title>
<polygon fill="none" stroke="black" points="206,-333 206,-469.09 460,-469.09 460,-333 206,-333"/>
<text text-anchor="middle" x="256.5" y="-453.89" font-family="Times,serif" font-size="14.00">Box3:Select</text>
</g>
<g id="clust13" class="cluster">
<title>cluster2</title>
<polygon fill="none" stroke="black" points="86,-159 86,-314 340,-314 340,-159 86,-159"/>
<text text-anchor="middle" x="136.5" y="-298.8" font-family="Times,serif" font-size="14.00">Box2:Select</text>
</g>
<g id="clust15" class="cluster">
<title>cluster12</title>
<polygon fill="none" stroke="black" points="863,-809.98 863,-957.77 1129,-957.77 1129,-809.98 863,-809.98"/>
<text text-anchor="middle" x="918" y="-942.57" font-family="Times,serif" font-size="14.00">Box12:Select</text>
</g>
<g id="clust17" class="cluster">
<title>cluster11</title>
<polygon fill="none" stroke="black" points="739,-643.19 739,-790.98 1005,-790.98 1005,-643.19 739,-643.19"/>
<text text-anchor="middle" x="805.5" y="-775.78" font-family="Times,serif" font-size="14.00">Box11:Grouping</text>
</g>
<g id="clust19" class="cluster">
<title>cluster10</title>
<polygon fill="none" stroke="black" points="614,-488.09 614,-624.19 889,-624.19 889,-488.09 614,-488.09"/>
<text text-anchor="middle" x="669" y="-608.99" font-family="Times,serif" font-size="14.00">Box10:Select</text>
</g>
<g id="clust21" class="cluster">
<title>cluster9</title>
<polygon fill="none" stroke="black" points="486,-333 486,-469.09 740,-469.09 740,-333 486,-333"/>
<text text-anchor="middle" x="536.5" y="-453.89" font-family="Times,serif" font-size="14.00">Box9:Select</text>
</g>
<g id="clust23" class="cluster">
<title>cluster8</title>
<polygon fill="none" stroke="black" points="358,-159 358,-314 612,-314 612,-159 358,-159"/>
<text text-anchor="middle" x="408.5" y="-298.8" font-family="Times,serif" font-size="14.00">Box8:Select</text>
</g>
<g id="clust25" class="cluster">
<title>cluster7</title>
<polygon fill="none" stroke="black" points="322,-8 322,-140 484,-140 484,-8 322,-8"/>
<text text-anchor="middle" x="363.5" y="-124.8" font-family="Times,serif" font-size="14.00">Box7:Get</text>
</g>
<!-- boxhead1 -->
<g id="node1" class="node">
<title>boxhead1</title>
<polygon fill="none" stroke="black" points="929.5,-985.27 929.5,-1077.27 1088.5,-1077.27 1088.5,-985.27 929.5,-985.27"/>
<text text-anchor="middle" x="1009" y="-1062.07" font-family="Times,serif" font-size="14.00">Distinct: Preserve</text>
<polyline fill="none" stroke="black" points="929.5,-1054.27 1088.5,-1054.27 "/>
<text text-anchor="middle" x="1009" y="-1039.07" font-family="Times,serif" font-size="14.00">0: Q0.C0</text>
<polyline fill="none" stroke="black" points="929.5,-1031.27 1088.5,-1031.27 "/>
<text text-anchor="middle" x="1009" y="-1016.07" font-family="Times,serif" font-size="14.00">1: Q0.C1</text>
<polyline fill="none" stroke="black" points="929.5,-1008.27 1088.5,-1008.27 "/>
<text text-anchor="middle" x="1009" y="-993.07" font-family="Times,serif" font-size="14.00">(Q6.C0 &amp;&amp; Q12.C0)</text>
</g>
<!-- Q0 -->
<g id="node2" class="node">
<title>Q0</title>
<ellipse fill="none" stroke="black" cx="600" cy="-1031.27" rx="37.09" ry="37.09"/>
<text text-anchor="middle" x="600" y="-1027.57" font-family="Times,serif" font-size="14.00">Q0(F)</text>
</g>
<!-- boxhead0 -->
<g id="node5" class="node">
<title>boxhead0</title>
<polygon fill="none" stroke="black" points="16,-16.5 16,-85.5 162,-85.5 162,-16.5 16,-16.5"/>
<text text-anchor="middle" x="89" y="-70.3" font-family="Times,serif" font-size="14.00">Distinct: Preserve</text>
<polyline fill="none" stroke="black" points="16,-62.5 162,-62.5 "/>
<text text-anchor="middle" x="89" y="-47.3" font-family="Times,serif" font-size="14.00">0: C0</text>
<polyline fill="none" stroke="black" points="16,-39.5 162,-39.5 "/>
<text text-anchor="middle" x="89" y="-24.3" font-family="Times,serif" font-size="14.00">1: C1</text>
</g>
<!-- Q0&#45;&gt;boxhead0 -->
<g id="edge3" class="edge">
<title>Q0&#45;&gt;boxhead0</title>
<path fill="none" stroke="black" stroke-dasharray="5,2" d="M562.87,-1026.69C441.77,-1014.01 66,-966.25 66,-861.88 66,-861.88 66,-861.88 66,-212.5 66,-188.86 68.47,-163.46 71.8,-140"/>
</g>
<!-- Q6 -->
<g id="node3" class="node">
<title>Q6</title>
<ellipse fill="none" stroke="black" cx="771" cy="-1031.27" rx="37.09" ry="37.09"/>
<text text-anchor="middle" x="771" y="-1027.57" font-family="Times,serif" font-size="14.00">Q6(S)</text>
</g>
<!-- Q6&#45;&gt;Q0 -->
<g id="edge1" class="edge">
<title>Q6&#45;&gt;Q0</title>
<path fill="none" stroke="red" d="M733.67,-1031.27C708.28,-1031.27 674.47,-1031.27 647.2,-1031.27"/>
<polygon fill="red" stroke="red" points="647.1,-1027.77 637.1,-1031.27 647.1,-1034.77 647.1,-1027.77"/>
<text text-anchor="middle" x="685.5" y="-1038.07" font-family="Times,serif" font-size="14.00">correlation</text>
</g>
<!-- boxhead6 -->
<g id="node6" class="node">
<title>boxhead6</title>
<polygon fill="none" stroke="black" points="698,-837.88 698,-883.88 844,-883.88 844,-837.88 698,-837.88"/>
<text text-anchor="middle" x="771" y="-868.68" font-family="Times,serif" font-size="14.00">Distinct: Preserve</text>
<polyline fill="none" stroke="black" points="698,-860.88 844,-860.88 "/>
<text text-anchor="middle" x="771" y="-845.68" font-family="Times,serif" font-size="14.00">0: Q5.C0</text>
</g>
<!-- Q6&#45;&gt;boxhead6 -->
<g id="edge4" class="edge">
<title>Q6&#45;&gt;boxhead6</title>
<path fill="none" stroke="black" stroke-dasharray="5,2" d="M771,-994.15C771,-981.58 771,-966.88 771,-951.92"/>
</g>
<!-- Q12 -->
<g id="node4" class="node">
<title>Q12</title>
<ellipse fill="none" stroke="black" cx="869" cy="-1031.27" rx="42.79" ry="42.79"/>
<text text-anchor="middle" x="869" y="-1027.57" font-family="Times,serif" font-size="14.00">Q12(S)</text>
</g>
<!-- Q12&#45;&gt;Q0 -->
<g id="edge2" class="edge">
<title>Q12&#45;&gt;Q0</title>
<path fill="none" stroke="red" d="M857.56,-1073.13C849.68,-1093.39 836.93,-1115.87 817,-1127.77 781.89,-1148.73 763.7,-1140.97 725,-1127.77 689.18,-1115.55 655.64,-1088.45 632.34,-1066.07"/>
<polygon fill="red" stroke="red" points="634.73,-1063.51 625.14,-1058.99 629.82,-1068.5 634.73,-1063.51"/>
<text text-anchor="middle" x="731" y="-1143.57" font-family="Times,serif" font-size="14.00">correlation</text>
</g>
<!-- boxhead12 -->
<g id="node16" class="node">
<title>boxhead12</title>
<polygon fill="none" stroke="black" points="975,-837.88 975,-883.88 1121,-883.88 1121,-837.88 975,-837.88"/>
<text text-anchor="middle" x="1048" y="-868.68" font-family="Times,serif" font-size="14.00">Distinct: Preserve</text>
<polyline fill="none" stroke="black" points="975,-860.88 1121,-860.88 "/>
<text text-anchor="middle" x="1048" y="-845.68" font-family="Times,serif" font-size="14.00">0: Q11.C0</text>
</g>
<!-- Q12&#45;&gt;boxhead12 -->
<g id="edge5" class="edge">
<title>Q12&#45;&gt;boxhead12</title>
<path fill="none" stroke="black" stroke-dasharray="5,2" d="M896.26,-998.03C903.74,-990.41 912.23,-982.76 921,-976.77 938.92,-964.52 948.48,-970.59 966,-957.77"/>
</g>
<!-- Q5 -->
<g id="node7" class="node">
<title>Q5</title>
<ellipse fill="none" stroke="black" cx="643" cy="-860.88" rx="37.09" ry="37.09"/>
<text text-anchor="middle" x="643" y="-857.18" font-family="Times,serif" font-size="14.00">Q5(F)</text>
</g>
<!-- boxhead5 -->
<g id="node8" class="node">
<title>boxhead5</title>
<polygon fill="none" stroke="black" points="570,-671.08 570,-717.08 716,-717.08 716,-671.08 570,-671.08"/>
<text text-anchor="middle" x="643" y="-701.88" font-family="Times,serif" font-size="14.00">Distinct: Preserve</text>
<polyline fill="none" stroke="black" points="570,-694.08 716,-694.08 "/>
<text text-anchor="middle" x="643" y="-678.88" font-family="Times,serif" font-size="14.00">0: all(Q4.C0)</text>
</g>
<!-- Q5&#45;&gt;boxhead5 -->
<g id="edge6" class="edge">
<title>Q5&#45;&gt;boxhead5</title>
<path fill="none" stroke="black" stroke-dasharray="5,2" d="M643,-823.71C643,-812.14 643,-798.78 643,-785.13"/>
</g>
<!-- Q4 -->
<g id="node9" class="node">
<title>Q4</title>
<ellipse fill="none" stroke="black" cx="515" cy="-694.08" rx="37.09" ry="37.09"/>
<text text-anchor="middle" x="515" y="-690.38" font-family="Times,serif" font-size="14.00">Q4(F)</text>
</g>
<!-- boxhead4 -->
<g id="node10" class="node">
<title>boxhead4</title>
<polygon fill="none" stroke="black" points="431.5,-510.14 431.5,-556.14 598.5,-556.14 598.5,-510.14 431.5,-510.14"/>
<text text-anchor="middle" x="515" y="-540.94" font-family="Times,serif" font-size="14.00">Distinct: Preserve</text>
<polyline fill="none" stroke="black" points="431.5,-533.14 598.5,-533.14 "/>
<text text-anchor="middle" x="515" y="-517.94" font-family="Times,serif" font-size="14.00">0: (Q0.C1 &gt;= Q3.C0)</text>
</g>
<!-- Q4&#45;&gt;boxhead4 -->
<g id="edge7" class="edge">
<title>Q4&#45;&gt;boxhead4</title>
<path fill="none" stroke="black" stroke-dasharray="5,2" d="M515,-657.02C515,-647.05 515,-635.77 515,-624.18"/>
</g>
<!-- Q3 -->
<g id="node11" class="node">
<title>Q3</title>
<ellipse fill="none" stroke="black" cx="376" cy="-533.14" rx="37.09" ry="37.09"/>
<text text-anchor="middle" x="376" y="-529.44" font-family="Times,serif" font-size="14.00">Q3(F)</text>
</g>
<!-- boxhead3 -->
<g id="node12" class="node">
<title>boxhead3</title>
<polygon fill="none" stroke="black" points="306,-355.05 306,-401.05 452,-401.05 452,-355.05 306,-355.05"/>
<text text-anchor="middle" x="379" y="-385.85" font-family="Times,serif" font-size="14.00">Distinct: Preserve</text>
<polyline fill="none" stroke="black" points="306,-378.05 452,-378.05 "/>
<text text-anchor="middle" x="379" y="-362.85" font-family="Times,serif" font-size="14.00">0: Q2.C1</text>
</g>
<!-- Q3&#45;&gt;boxhead3 -->
<g id="edge8" class="edge">
<title>Q3&#45;&gt;boxhead3</title>
<path fill="none" stroke="black" stroke-dasharray="5,2" d="M376.71,-495.86C376.87,-487.61 377.05,-478.49 377.24,-469.09"/>
</g>
<!-- Q2 -->
<g id="node13" class="node">
<title>Q2</title>
<ellipse fill="none" stroke="black" cx="251" cy="-378.05" rx="37.09" ry="37.09"/>
<text text-anchor="middle" x="251" y="-374.35" font-family="Times,serif" font-size="14.00">Q2(F)</text>
</g>
<!-- boxhead2 -->
<g id="node14" class="node">
<title>boxhead2</title>
<polygon fill="none" stroke="black" points="186,-167.5 186,-259.5 332,-259.5 332,-167.5 186,-167.5"/>
<text text-anchor="middle" x="259" y="-244.3" font-family="Times,serif" font-size="14.00">Distinct: Preserve</text>
<polyline fill="none" stroke="black" points="186,-236.5 332,-236.5 "/>
<text text-anchor="middle" x="259" y="-221.3" font-family="Times,serif" font-size="14.00">0: Q1.C0</text>
<polyline fill="none" stroke="black" points="186,-213.5 332,-213.5 "/>
<text text-anchor="middle" x="259" y="-198.3" font-family="Times,serif" font-size="14.00">1: Q1.C1</text>
<polyline fill="none" stroke="black" points="186,-190.5 332,-190.5 "/>
<text text-anchor="middle" x="259" y="-175.3" font-family="Times,serif" font-size="14.00">(Q1.C0 = Q0.C0)</text>
</g>
<!-- Q2&#45;&gt;boxhead2 -->
<g id="edge9" class="edge">
<title>Q2&#45;&gt;boxhead2</title>
<path fill="none" stroke="black" stroke-dasharray="5,2" d="M252.78,-340.97C253.18,-332.71 253.63,-323.53 254.1,-314"/>
</g>
<!-- Q1 -->
<g id="node15" class="node">
<title>Q1</title>
<ellipse fill="none" stroke="black" cx="131" cy="-213.5" rx="37.09" ry="37.09"/>
<text text-anchor="middle" x="131" y="-209.8" font-family="Times,serif" font-size="14.00">Q1(F)</text>
</g>
<!-- Q1&#45;&gt;boxhead0 -->
<g id="edge10" class="edge">
<title>Q1&#45;&gt;boxhead0</title>
<path fill="none" stroke="black" stroke-dasharray="5,2" d="M121.78,-177.28C118.86,-166.09 115.48,-153.19 112.03,-140"/>
</g>
<!-- Q11 -->
<g id="node17" class="node">
<title>Q11</title>
<ellipse fill="none" stroke="black" cx="914" cy="-860.88" rx="42.79" ry="42.79"/>
<text text-anchor="middle" x="914" y="-857.18" font-family="Times,serif" font-size="14.00">Q11(F)</text>
</g>
<!-- boxhead11 -->
<g id="node18" class="node">
<title>boxhead11</title>
<polygon fill="none" stroke="black" points="851,-671.08 851,-717.08 997,-717.08 997,-671.08 851,-671.08"/>
<text text-anchor="middle" x="924" y="-701.88" font-family="Times,serif" font-size="14.00">Distinct: Preserve</text>
<polyline fill="none" stroke="black" points="851,-694.08 997,-694.08 "/>
<text text-anchor="middle" x="924" y="-678.88" font-family="Times,serif" font-size="14.00">0: all(Q10.C0)</text>
</g>
<!-- Q11&#45;&gt;boxhead11 -->
<g id="edge11" class="edge">
<title>Q11&#45;&gt;boxhead11</title>
<path fill="none" stroke="black" stroke-dasharray="5,2" d="M916.55,-817.86C917.06,-809.48 917.61,-800.35 918.18,-790.98"/>
</g>
<!-- Q10 -->
<g id="node19" class="node">
<title>Q10</title>
<ellipse fill="none" stroke="black" cx="790" cy="-694.08" rx="42.79" ry="42.79"/>
<text text-anchor="middle" x="790" y="-690.38" font-family="Times,serif" font-size="14.00">Q10(F)</text>
</g>
<!-- boxhead10 -->
<g id="node20" class="node">
<title>boxhead10</title>
<polygon fill="none" stroke="black" points="714.5,-510.14 714.5,-556.14 881.5,-556.14 881.5,-510.14 714.5,-510.14"/>
<text text-anchor="middle" x="798" y="-540.94" font-family="Times,serif" font-size="14.00">Distinct: Preserve</text>
<polyline fill="none" stroke="black" points="714.5,-533.14 881.5,-533.14 "/>
<text text-anchor="middle" x="798" y="-517.94" font-family="Times,serif" font-size="14.00">0: (Q0.C1 &gt;= Q9.C0)</text>
</g>
<!-- Q10&#45;&gt;boxhead10 -->
<g id="edge12" class="edge">
<title>Q10&#45;&gt;boxhead10</title>
<path fill="none" stroke="black" stroke-dasharray="5,2" d="M792.12,-650.91C792.54,-642.54 793,-633.46 793.47,-624.18"/>
</g>
<!-- Q9 -->
<g id="node21" class="node">
<title>Q9</title>
<ellipse fill="none" stroke="black" cx="659" cy="-533.14" rx="37.09" ry="37.09"/>
<text text-anchor="middle" x="659" y="-529.44" font-family="Times,serif" font-size="14.00">Q9(F)</text>
</g>
<!-- boxhead9 -->
<g id="node22" class="node">
<title>boxhead9</title>
<polygon fill="none" stroke="black" points="586,-355.05 586,-401.05 732,-401.05 732,-355.05 586,-355.05"/>
<text text-anchor="middle" x="659" y="-385.85" font-family="Times,serif" font-size="14.00">Distinct: Preserve</text>
<polyline fill="none" stroke="black" points="586,-378.05 732,-378.05 "/>
<text text-anchor="middle" x="659" y="-362.85" font-family="Times,serif" font-size="14.00">0: Q8.C1</text>
</g>
<!-- Q9&#45;&gt;boxhead9 -->
<g id="edge13" class="edge">
<title>Q9&#45;&gt;boxhead9</title>
<path fill="none" stroke="black" stroke-dasharray="5,2" d="M659,-495.86C659,-487.61 659,-478.49 659,-469.09"/>
</g>
<!-- Q8 -->
<g id="node23" class="node">
<title>Q8</title>
<ellipse fill="none" stroke="black" cx="531" cy="-378.05" rx="37.09" ry="37.09"/>
<text text-anchor="middle" x="531" y="-374.35" font-family="Times,serif" font-size="14.00">Q8(F)</text>
</g>
<!-- boxhead8 -->
<g id="node24" class="node">
<title>boxhead8</title>
<polygon fill="none" stroke="black" points="458,-167.5 458,-259.5 604,-259.5 604,-167.5 458,-167.5"/>
<text text-anchor="middle" x="531" y="-244.3" font-family="Times,serif" font-size="14.00">Distinct: Preserve</text>
<polyline fill="none" stroke="black" points="458,-236.5 604,-236.5 "/>
<text text-anchor="middle" x="531" y="-221.3" font-family="Times,serif" font-size="14.00">0: Q7.C0</text>
<polyline fill="none" stroke="black" points="458,-213.5 604,-213.5 "/>
<text text-anchor="middle" x="531" y="-198.3" font-family="Times,serif" font-size="14.00">1: Q7.C1</text>
<polyline fill="none" stroke="black" points="458,-190.5 604,-190.5 "/>
<text text-anchor="middle" x="531" y="-175.3" font-family="Times,serif" font-size="14.00">(Q7.C0 = Q0.C0)</text>
</g>
<!-- Q8&#45;&gt;boxhead8 -->
<g id="edge14" class="edge">
<title>Q8&#45;&gt;boxhead8</title>
<path fill="none" stroke="black" stroke-dasharray="5,2" d="M531,-340.97C531,-332.71 531,-323.53 531,-314"/>
</g>
<!-- Q7 -->
<g id="node25" class="node">
<title>Q7</title>
<ellipse fill="none" stroke="black" cx="403" cy="-213.5" rx="37.09" ry="37.09"/>
<text text-anchor="middle" x="403" y="-209.8" font-family="Times,serif" font-size="14.00">Q7(F)</text>
</g>
<!-- boxhead7 -->
<g id="node26" class="node">
<title>boxhead7</title>
<polygon fill="none" stroke="black" points="330,-16.5 330,-85.5 476,-85.5 476,-16.5 330,-16.5"/>
<text text-anchor="middle" x="403" y="-70.3" font-family="Times,serif" font-size="14.00">Distinct: Preserve</text>
<polyline fill="none" stroke="black" points="330,-62.5 476,-62.5 "/>
<text text-anchor="middle" x="403" y="-47.3" font-family="Times,serif" font-size="14.00">0: C0</text>
<polyline fill="none" stroke="black" points="330,-39.5 476,-39.5 "/>
<text text-anchor="middle" x="403" y="-24.3" font-family="Times,serif" font-size="14.00">1: C1</text>
</g>
<!-- Q7&#45;&gt;boxhead7 -->
<g id="edge15" class="edge">
<title>Q7&#45;&gt;boxhead7</title>
<path fill="none" stroke="black" stroke-dasharray="5,2" d="M403,-176.08C403,-165.18 403,-152.72 403,-140"/>
</g>
</g>
</svg>
