<?xml version="1.0" encoding="UTF-8" standalone="no"?>
<!DOCTYPE svg PUBLIC "-//W3C//DTD SVG 1.1//EN"
 "http://www.w3.org/Graphics/SVG/1.1/DTD/svg11.dtd">
<!-- Generated by graphviz version 2.43.0 (0)
 -->
<!-- Title: G Pages: 1 -->
<svg width="285pt" height="344pt"
 viewBox="0.00 0.00 285.00 344.00" xmlns="http://www.w3.org/2000/svg" xmlns:xlink="http://www.w3.org/1999/xlink">
<g id="graph0" class="graph" transform="scale(1 1) rotate(0) translate(4 340)">
<title>G</title>
<polygon fill="white" stroke="transparent" points="-4,4 -4,-340 281,-340 281,4 -4,4"/>
<!-- node0 -->
<g id="node1" class="node">
<title>node0</title>
<polygon fill="none" stroke="black" points="0,-0.5 0,-248.5 277,-248.5 277,-0.5 0,-0.5"/>
<text text-anchor="start" x="8" y="-233.3" font-family="Times,serif" font-size="14.00">Get hir_to_qgm.public.r (u47)</text>
<text text-anchor="start" x="8" y="-218.3" font-family="Times,serif" font-size="14.00">Filter (select(%1) &amp;&amp; select(%2))</text>
<text text-anchor="start" x="8" y="-203.3" font-family="Times,serif" font-size="14.00">&#45;</text>
<text text-anchor="start" x="8" y="-188.3" font-family="Times,serif" font-size="14.00">&#45; %1 =</text>
<text text-anchor="start" x="8" y="-173.3" font-family="Times,serif" font-size="14.00">&#45; Get hir_to_qgm.public.r (u47)</text>
<text text-anchor="start" x="8" y="-158.3" font-family="Times,serif" font-size="14.00">&#45; Filter (#0 = #^0)</text>
<text text-anchor="start" x="8" y="-143.3" font-family="Times,serif" font-size="14.00">&#45; Project (#1)</text>
<text text-anchor="start" x="8" y="-128.3" font-family="Times,serif" font-size="14.00">&#45; Reduce group=() all((#^1 &gt;= #0))</text>
<text text-anchor="start" x="8" y="-113.3" font-family="Times,serif" font-size="14.00">&#45;</text>
<text text-anchor="start" x="8" y="-98.3" font-family="Times,serif" font-size="14.00">&#45;</text>
<text text-anchor="start" x="8" y="-83.3" font-family="Times,serif" font-size="14.00">&#45; %2 =</text>
<text text-anchor="start" x="8" y="-68.3" font-family="Times,serif" font-size="14.00">&#45; Get hir_to_qgm.public.s (u48)</text>
<text text-anchor="start" x="8" y="-53.3" font-family="Times,serif" font-size="14.00">&#45; Filter (#0 = #^0)</text>
<text text-anchor="start" x="8" y="-38.3" font-family="Times,serif" font-size="14.00">&#45; Project (#1)</text>
<text text-anchor="start" x="8" y="-23.3" font-family="Times,serif" font-size="14.00">&#45; Reduce group=() all((#^1 &gt;= #0))</text>
<text text-anchor="start" x="8" y="-8.3" font-family="Times,serif" font-size="14.00">&#45;</text>
</g>
<!-- node2 -->
<g id="node2" class="node">
<title>node2</title>
<ellipse fill="none" stroke="black" cx="90.5" cy="-318" rx="38.99" ry="18"/>
<text text-anchor="middle" x="90.5" y="-314.3" font-family="Times,serif" font-size="14.00">node2</text>
</g>
<!-- node2&#45;&gt;node0 -->
<g id="edge1" class="edge">
<title>node2&#45;&gt;node0</title>
<path fill="none" stroke="black" d="M94.76,-300.01C97.41,-289.45 101.08,-274.79 105.19,-258.41"/>
<polygon fill="black" stroke="black" points="108.61,-259.14 107.65,-248.59 101.82,-257.44 108.61,-259.14"/>
<text text-anchor="start" x="102.5" y="-270.8" font-family="Times,serif" font-size="14.00">%2</text>
</g>
<!-- node1 -->
<g id="node3" class="node">
<title>node1</title>
<ellipse fill="none" stroke="black" cx="186.5" cy="-318" rx="38.99" ry="18"/>
<text text-anchor="middle" x="186.5" y="-314.3" font-family="Times,serif" font-size="14.00">node1</text>
</g>
<!-- node1&#45;&gt;node0 -->
<g id="edge2" class="edge">
<title>node1&#45;&gt;node0</title>
<path fill="none" stroke="black" d="M182.24,-300.01C179.59,-289.45 175.92,-274.79 171.81,-258.41"/>
<polygon fill="black" stroke="black" points="175.18,-257.44 169.35,-248.59 168.39,-259.14 175.18,-257.44"/>
<text text-anchor="start" x="176.5" y="-270.8" font-family="Times,serif" font-size="14.00">%1</text>
</g>
</g>
</svg>
