<?xml version="1.0" encoding="UTF-8" standalone="no"?>
<!DOCTYPE svg PUBLIC "-//W3C//DTD SVG 1.1//EN"
 "http://www.w3.org/Graphics/SVG/1.1/DTD/svg11.dtd">
<!-- Generated by graphviz version 2.43.0 (0)
 -->
<!-- Title: G Pages: 1 -->
<svg width="1224pt" height="1241pt"
 viewBox="0.00 0.00 1224.00 1240.77" xmlns="http://www.w3.org/2000/svg" xmlns:xlink="http://www.w3.org/1999/xlink">
<g id="graph0" class="graph" transform="scale(1 1) rotate(0) translate(4 1236.77)">
<title>G</title>
<polygon fill="white" stroke="transparent" points="-4,4 -4,-1236.77 1220,-1236.77 1220,4 -4,4"/>
<g id="clust1" class="cluster">
<title>cluster1</title>
<polygon fill="none" stroke="black" points="593,-976.77 593,-1131.77 1134,-1131.77 1134,-976.77 593,-976.77"/>
<text text-anchor="middle" x="643.5" y="-1116.57" font-family="Times,serif" font-size="14.00">Box1:Select</text>
</g>
<g id="clust3" class="cluster">
<title>cluster0</title>
<polygon fill="none" stroke="black" points="8,-8 8,-140 170,-140 170,-8 8,-8"/>
<text text-anchor="middle" x="49.5" y="-124.8" font-family="Times,serif" font-size="14.00">Box0:Get</text>
</g>
<g id="clust5" class="cluster">
<title>cluster6</title>
<polygon fill="none" stroke="black" points="630,-815.83 630,-951.92 896,-951.92 896,-815.83 630,-815.83"/>
<text text-anchor="middle" x="680.5" y="-936.72" font-family="Times,serif" font-size="14.00">Box6:Select</text>
</g>
<g id="clust7" class="cluster">
<title>cluster5</title>
<polygon fill="none" stroke="black" points="482,-649.04 482,-785.13 775,-785.13 775,-649.04 482,-649.04"/>
<text text-anchor="middle" x="544" y="-769.93" font-family="Times,serif" font-size="14.00">Box5:Grouping</text>
</g>
<g id="clust9" class="cluster">
<title>cluster4</title>
<polygon fill="none" stroke="black" points="304,-488.09 304,-624.19 658,-624.19 658,-488.09 304,-488.09"/>
<text text-anchor="middle" x="354.5" y="-608.99" font-family="Times,serif" font-size="14.00">Box4:Select</text>
</g>
<g id="clust11" class="cluster">
<title>cluster3</title>
<polygon fill="none" stroke="black" points="184,-333 184,-469.09 446,-469.09 446,-333 184,-333"/>
<text text-anchor="middle" x="234.5" y="-453.89" font-family="Times,serif" font-size="14.00">Box3:Select</text>
</g>
<g id="clust13" class="cluster">
<title>cluster2</title>
<polygon fill="none" stroke="black" points="86,-159 86,-314 348,-314 348,-159 86,-159"/>
<text text-anchor="middle" x="136.5" y="-298.8" font-family="Times,serif" font-size="14.00">Box2:Select</text>
</g>
<g id="clust15" class="cluster">
<title>cluster12</title>
<polygon fill="none" stroke="black" points="922,-809.98 922,-957.77 1208,-957.77 1208,-809.98 922,-809.98"/>
<text text-anchor="middle" x="977" y="-942.57" font-family="Times,serif" font-size="14.00">Box12:Select</text>
</g>
<g id="clust17" class="cluster">
<title>cluster11</title>
<polygon fill="none" stroke="black" points="810,-643.19 810,-790.98 1124,-790.98 1124,-643.19 810,-643.19"/>
<text text-anchor="middle" x="876.5" y="-775.78" font-family="Times,serif" font-size="14.00">Box11:Grouping</text>
</g>
<g id="clust19" class="cluster">
<title>cluster10</title>
<polygon fill="none" stroke="black" points="666,-488.09 666,-624.19 1020,-624.19 1020,-488.09 666,-488.09"/>
<text text-anchor="middle" x="721" y="-608.99" font-family="Times,serif" font-size="14.00">Box10:Select</text>
</g>
<g id="clust21" class="cluster">
<title>cluster9</title>
<polygon fill="none" stroke="black" points="534,-333 534,-469.09 796,-469.09 796,-333 534,-333"/>
<text text-anchor="middle" x="584.5" y="-453.89" font-family="Times,serif" font-size="14.00">Box9:Select</text>
</g>
<g id="clust23" class="cluster">
<title>cluster8</title>
<polygon fill="none" stroke="black" points="402,-159 402,-314 664,-314 664,-159 402,-159"/>
<text text-anchor="middle" x="452.5" y="-298.8" font-family="Times,serif" font-size="14.00">Box8:Select</text>
</g>
<g id="clust25" class="cluster">
<title>cluster7</title>
<polygon fill="none" stroke="black" points="366,-8 366,-140 528,-140 528,-8 366,-8"/>
<text text-anchor="middle" x="407.5" y="-124.8" font-family="Times,serif" font-size="14.00">Box7:Get</text>
</g>
<!-- boxhead1 -->
<g id="node1" class="node">
<title>boxhead1</title>
<polygon fill="none" stroke="black" points="967.5,-985.27 967.5,-1077.27 1126.5,-1077.27 1126.5,-985.27 967.5,-985.27"/>
<text text-anchor="middle" x="1047" y="-1062.07" font-family="Times,serif" font-size="14.00">Distinct: Preserve</text>
<polyline fill="none" stroke="black" points="967.5,-1054.27 1126.5,-1054.27 "/>
<text text-anchor="middle" x="1047" y="-1039.07" font-family="Times,serif" font-size="14.00">0: Q0.C0 (bigint?)</text>
<polyline fill="none" stroke="black" points="967.5,-1031.27 1126.5,-1031.27 "/>
<text text-anchor="middle" x="1047" y="-1016.07" font-family="Times,serif" font-size="14.00">1: Q0.C1 (integer?)</text>
<polyline fill="none" stroke="black" points="967.5,-1008.27 1126.5,-1008.27 "/>
<text text-anchor="middle" x="1047" y="-993.07" font-family="Times,serif" font-size="14.00">(Q6.C0 &amp;&amp; Q12.C0)</text>
</g>
<!-- Q0 -->
<g id="node2" class="node">
<title>Q0</title>
<ellipse fill="none" stroke="black" cx="638" cy="-1031.27" rx="37.09" ry="37.09"/>
<text text-anchor="middle" x="638" y="-1027.57" font-family="Times,serif" font-size="14.00">Q0(F)</text>
</g>
<!-- boxhead0 -->
<g id="node5" class="node">
<title>boxhead0</title>
<polygon fill="none" stroke="black" points="16,-16.5 16,-85.5 162,-85.5 162,-16.5 16,-16.5"/>
<text text-anchor="middle" x="89" y="-70.3" font-family="Times,serif" font-size="14.00">Distinct: Preserve</text>
<polyline fill="none" stroke="black" points="16,-62.5 162,-62.5 "/>
<text text-anchor="middle" x="89" y="-47.3" font-family="Times,serif" font-size="14.00">0: C0 (bigint?)</text>
<polyline fill="none" stroke="black" points="16,-39.5 162,-39.5 "/>
<text text-anchor="middle" x="89" y="-24.3" font-family="Times,serif" font-size="14.00">1: C1 (integer?)</text>
</g>
<!-- Q0&#45;&gt;boxhead0 -->
<g id="edge3" class="edge">
<title>Q0&#45;&gt;boxhead0</title>
<path fill="none" stroke="black" stroke-dasharray="5,2" d="M600.91,-1027.45C474.16,-1016.8 66,-973.81 66,-861.88 66,-861.88 66,-861.88 66,-212.5 66,-188.86 68.47,-163.46 71.8,-140"/>
</g>
<!-- Q6 -->
<g id="node3" class="node">
<title>Q6</title>
<ellipse fill="none" stroke="black" cx="809" cy="-1031.27" rx="37.09" ry="37.09"/>
<text text-anchor="middle" x="809" y="-1027.57" font-family="Times,serif" font-size="14.00">Q6(S)</text>
</g>
<!-- Q6&#45;&gt;Q0 -->
<g id="edge1" class="edge">
<title>Q6&#45;&gt;Q0</title>
<path fill="none" stroke="red" d="M771.67,-1031.27C746.28,-1031.27 712.47,-1031.27 685.2,-1031.27"/>
<polygon fill="red" stroke="red" points="685.1,-1027.77 675.1,-1031.27 685.1,-1034.77 685.1,-1027.77"/>
<text text-anchor="middle" x="723.5" y="-1038.07" font-family="Times,serif" font-size="14.00">correlation</text>
</g>
<!-- boxhead6 -->
<g id="node6" class="node">
<title>boxhead6</title>
<polygon fill="none" stroke="black" points="730.5,-837.88 730.5,-883.88 887.5,-883.88 887.5,-837.88 730.5,-837.88"/>
<text text-anchor="middle" x="809" y="-868.68" font-family="Times,serif" font-size="14.00">Distinct: Preserve</text>
<polyline fill="none" stroke="black" points="730.5,-860.88 887.5,-860.88 "/>
<text text-anchor="middle" x="809" y="-845.68" font-family="Times,serif" font-size="14.00">0: Q5.C0 (boolean?)</text>
</g>
<!-- Q6&#45;&gt;boxhead6 -->
<g id="edge4" class="edge">
<title>Q6&#45;&gt;boxhead6</title>
<path fill="none" stroke="black" stroke-dasharray="5,2" d="M809,-994.15C809,-981.58 809,-966.88 809,-951.92"/>
</g>
<!-- Q12 -->
<g id="node4" class="node">
<title>Q12</title>
<ellipse fill="none" stroke="black" cx="907" cy="-1031.27" rx="42.79" ry="42.79"/>
<text text-anchor="middle" x="907" y="-1027.57" font-family="Times,serif" font-size="14.00">Q12(S)</text>
</g>
<!-- Q12&#45;&gt;Q0 -->
<g id="edge2" class="edge">
<title>Q12&#45;&gt;Q0</title>
<path fill="none" stroke="red" d="M895.56,-1073.13C887.68,-1093.39 874.93,-1115.87 855,-1127.77 819.89,-1148.73 801.7,-1140.97 763,-1127.77 727.18,-1115.55 693.64,-1088.45 670.34,-1066.07"/>
<polygon fill="red" stroke="red" points="672.73,-1063.51 663.14,-1058.99 667.82,-1068.5 672.73,-1063.51"/>
<text text-anchor="middle" x="769" y="-1143.57" font-family="Times,serif" font-size="14.00">correlation</text>
</g>
<!-- boxhead12 -->
<g id="node16" class="node">
<title>boxhead12</title>
<polygon fill="none" stroke="black" points="1034,-837.88 1034,-883.88 1200,-883.88 1200,-837.88 1034,-837.88"/>
<text text-anchor="middle" x="1117" y="-868.68" font-family="Times,serif" font-size="14.00">Distinct: Preserve</text>
<polyline fill="none" stroke="black" points="1034,-860.88 1200,-860.88 "/>
<text text-anchor="middle" x="1117" y="-845.68" font-family="Times,serif" font-size="14.00">0: Q11.C0 (boolean?)</text>
</g>
<!-- Q12&#45;&gt;boxhead12 -->
<g id="edge5" class="edge">
<title>Q12&#45;&gt;boxhead12</title>
<path fill="none" stroke="black" stroke-dasharray="5,2" d="M933.79,-997.29C941.28,-989.68 949.89,-982.23 959,-976.77 985.18,-961.08 998.87,-973.55 1025,-957.77"/>
</g>
<!-- Q5 -->
<g id="node7" class="node">
<title>Q5</title>
<ellipse fill="none" stroke="black" cx="675" cy="-860.88" rx="37.09" ry="37.09"/>
<text text-anchor="middle" x="675" y="-857.18" font-family="Times,serif" font-size="14.00">Q5(F)</text>
</g>
<!-- boxhead5 -->
<g id="node8" class="node">
<title>boxhead5</title>
<polygon fill="none" stroke="black" points="582.5,-671.08 582.5,-717.08 767.5,-717.08 767.5,-671.08 582.5,-671.08"/>
<text text-anchor="middle" x="675" y="-701.88" font-family="Times,serif" font-size="14.00">Distinct: Preserve</text>
<polyline fill="none" stroke="black" points="582.5,-694.08 767.5,-694.08 "/>
<text text-anchor="middle" x="675" y="-678.88" font-family="Times,serif" font-size="14.00">0: all(Q4.C0) (boolean?)</text>
</g>
<!-- Q5&#45;&gt;boxhead5 -->
<g id="edge6" class="edge">
<title>Q5&#45;&gt;boxhead5</title>
<path fill="none" stroke="black" stroke-dasharray="5,2" d="M675,-823.71C675,-812.14 675,-798.78 675,-785.13"/>
</g>
<!-- Q4 -->
<g id="node9" class="node">
<title>Q4</title>
<ellipse fill="none" stroke="black" cx="527" cy="-694.08" rx="37.09" ry="37.09"/>
<text text-anchor="middle" x="527" y="-690.38" font-family="Times,serif" font-size="14.00">Q4(F)</text>
</g>
<!-- boxhead4 -->
<g id="node10" class="node">
<title>boxhead4</title>
<polygon fill="none" stroke="black" points="404.5,-510.14 404.5,-556.14 649.5,-556.14 649.5,-510.14 404.5,-510.14"/>
<text text-anchor="middle" x="527" y="-540.94" font-family="Times,serif" font-size="14.00">Distinct: Preserve</text>
<polyline fill="none" stroke="black" points="404.5,-533.14 649.5,-533.14 "/>
<text text-anchor="middle" x="527" y="-517.94" font-family="Times,serif" font-size="14.00">0: (Q0.C1 &gt;= Q3.C0) (boolean?)</text>
</g>
<!-- Q4&#45;&gt;boxhead4 -->
<g id="edge7" class="edge">
<title>Q4&#45;&gt;boxhead4</title>
<path fill="none" stroke="black" stroke-dasharray="5,2" d="M527,-657.02C527,-647.05 527,-635.77 527,-624.18"/>
</g>
<!-- Q3 -->
<g id="node11" class="node">
<title>Q3</title>
<ellipse fill="none" stroke="black" cx="349" cy="-533.14" rx="37.09" ry="37.09"/>
<text text-anchor="middle" x="349" y="-529.44" font-family="Times,serif" font-size="14.00">Q3(F)</text>
</g>
<!-- boxhead3 -->
<g id="node12" class="node">
<title>boxhead3</title>
<polygon fill="none" stroke="black" points="284.5,-355.05 284.5,-401.05 437.5,-401.05 437.5,-355.05 284.5,-355.05"/>
<text text-anchor="middle" x="361" y="-385.85" font-family="Times,serif" font-size="14.00">Distinct: Preserve</text>
<polyline fill="none" stroke="black" points="284.5,-378.05 437.5,-378.05 "/>
<text text-anchor="middle" x="361" y="-362.85" font-family="Times,serif" font-size="14.00">0: Q2.C1 (integer?)</text>
</g>
<!-- Q3&#45;&gt;boxhead3 -->
<g id="edge8" class="edge">
<title>Q3&#45;&gt;boxhead3</title>
<path fill="none" stroke="black" stroke-dasharray="5,2" d="M351.84,-495.86C352.49,-487.61 353.21,-478.49 353.94,-469.09"/>
</g>
<!-- Q2 -->
<g id="node13" class="node">
<title>Q2</title>
<ellipse fill="none" stroke="black" cx="229" cy="-378.05" rx="37.09" ry="37.09"/>
<text text-anchor="middle" x="229" y="-374.35" font-family="Times,serif" font-size="14.00">Q2(F)</text>
</g>
<!-- boxhead2 -->
<g id="node14" class="node">
<title>boxhead2</title>
<polygon fill="none" stroke="black" points="186.5,-167.5 186.5,-259.5 339.5,-259.5 339.5,-167.5 186.5,-167.5"/>
<text text-anchor="middle" x="263" y="-244.3" font-family="Times,serif" font-size="14.00">Distinct: Preserve</text>
<polyline fill="none" stroke="black" points="186.5,-236.5 339.5,-236.5 "/>
<text text-anchor="middle" x="263" y="-221.3" font-family="Times,serif" font-size="14.00">0: Q1.C0 (bigint)</text>
<polyline fill="none" stroke="black" points="186.5,-213.5 339.5,-213.5 "/>
<text text-anchor="middle" x="263" y="-198.3" font-family="Times,serif" font-size="14.00">1: Q1.C1 (integer?)</text>
<polyline fill="none" stroke="black" points="186.5,-190.5 339.5,-190.5 "/>
<text text-anchor="middle" x="263" y="-175.3" font-family="Times,serif" font-size="14.00">(Q1.C0 = Q0.C0)</text>
</g>
<!-- Q2&#45;&gt;boxhead2 -->
<g id="edge9" class="edge">
<title>Q2&#45;&gt;boxhead2</title>
<path fill="none" stroke="black" stroke-dasharray="5,2" d="M236.46,-341.38C238.21,-333.01 240.16,-323.68 242.19,-314"/>
</g>
<!-- Q1 -->
<g id="node15" class="node">
<title>Q1</title>
<ellipse fill="none" stroke="black" cx="131" cy="-213.5" rx="37.09" ry="37.09"/>
<text text-anchor="middle" x="131" y="-209.8" font-family="Times,serif" font-size="14.00">Q1(F)</text>
</g>
<!-- Q1&#45;&gt;boxhead0 -->
<g id="edge10" class="edge">
<title>Q1&#45;&gt;boxhead0</title>
<path fill="none" stroke="black" stroke-dasharray="5,2" d="M121.78,-177.28C118.86,-166.09 115.48,-153.19 112.03,-140"/>
</g>
<!-- Q11 -->
<g id="node17" class="node">
<title>Q11</title>
<ellipse fill="none" stroke="black" cx="973" cy="-860.88" rx="42.79" ry="42.79"/>
<text text-anchor="middle" x="973" y="-857.18" font-family="Times,serif" font-size="14.00">Q11(F)</text>
</g>
<!-- boxhead11 -->
<g id="node18" class="node">
<title>boxhead11</title>
<polygon fill="none" stroke="black" points="922,-671.08 922,-717.08 1116,-717.08 1116,-671.08 922,-671.08"/>
<text text-anchor="middle" x="1019" y="-701.88" font-family="Times,serif" font-size="14.00">Distinct: Preserve</text>
<polyline fill="none" stroke="black" points="922,-694.08 1116,-694.08 "/>
<text text-anchor="middle" x="1019" y="-678.88" font-family="Times,serif" font-size="14.00">0: all(Q10.C0) (boolean?)</text>
</g>
<!-- Q11&#45;&gt;boxhead11 -->
<g id="edge11" class="edge">
<title>Q11&#45;&gt;boxhead11</title>
<path fill="none" stroke="black" stroke-dasharray="5,2" d="M984.37,-819.14C986.81,-810.41 989.48,-800.82 992.23,-790.98"/>
</g>
<!-- Q10 -->
<g id="node19" class="node">
<title>Q10</title>
<ellipse fill="none" stroke="black" cx="861" cy="-694.08" rx="42.79" ry="42.79"/>
<text text-anchor="middle" x="861" y="-690.38" font-family="Times,serif" font-size="14.00">Q10(F)</text>
</g>
<!-- boxhead10 -->
<g id="node20" class="node">
<title>boxhead10</title>
<polygon fill="none" stroke="black" points="766.5,-510.14 766.5,-556.14 1011.5,-556.14 1011.5,-510.14 766.5,-510.14"/>
<text text-anchor="middle" x="889" y="-540.94" font-family="Times,serif" font-size="14.00">Distinct: Preserve</text>
<polyline fill="none" stroke="black" points="766.5,-533.14 1011.5,-533.14 "/>
<text text-anchor="middle" x="889" y="-517.94" font-family="Times,serif" font-size="14.00">0: (Q0.C1 &gt;= Q9.C0) (boolean?)</text>
</g>
<!-- Q10&#45;&gt;boxhead10 -->
<g id="edge12" class="edge">
<title>Q10&#45;&gt;boxhead10</title>
<path fill="none" stroke="black" stroke-dasharray="5,2" d="M868.28,-651.74C869.8,-643.14 871.45,-633.77 873.14,-624.19"/>
</g>
<!-- Q9 -->
<g id="node21" class="node">
<title>Q9</title>
<ellipse fill="none" stroke="black" cx="711" cy="-533.14" rx="37.09" ry="37.09"/>
<text text-anchor="middle" x="711" y="-529.44" font-family="Times,serif" font-size="14.00">Q9(F)</text>
</g>
<!-- boxhead9 -->
<g id="node22" class="node">
<title>boxhead9</title>
<polygon fill="none" stroke="black" points="634.5,-355.05 634.5,-401.05 787.5,-401.05 787.5,-355.05 634.5,-355.05"/>
<text text-anchor="middle" x="711" y="-385.85" font-family="Times,serif" font-size="14.00">Distinct: Preserve</text>
<polyline fill="none" stroke="black" points="634.5,-378.05 787.5,-378.05 "/>
<text text-anchor="middle" x="711" y="-362.85" font-family="Times,serif" font-size="14.00">0: Q8.C1 (integer?)</text>
</g>
<!-- Q9&#45;&gt;boxhead9 -->
<g id="edge13" class="edge">
<title>Q9&#45;&gt;boxhead9</title>
<path fill="none" stroke="black" stroke-dasharray="5,2" d="M711,-495.86C711,-487.61 711,-478.49 711,-469.09"/>
</g>
<!-- Q8 -->
<g id="node23" class="node">
<title>Q8</title>
<ellipse fill="none" stroke="black" cx="579" cy="-378.05" rx="37.09" ry="37.09"/>
<text text-anchor="middle" x="579" y="-374.35" font-family="Times,serif" font-size="14.00">Q8(F)</text>
</g>
<!-- boxhead8 -->
<g id="node24" class="node">
<title>boxhead8</title>
<polygon fill="none" stroke="black" points="502.5,-167.5 502.5,-259.5 655.5,-259.5 655.5,-167.5 502.5,-167.5"/>
<text text-anchor="middle" x="579" y="-244.3" font-family="Times,serif" font-size="14.00">Distinct: Preserve</text>
<polyline fill="none" stroke="black" points="502.5,-236.5 655.5,-236.5 "/>
<text text-anchor="middle" x="579" y="-221.3" font-family="Times,serif" font-size="14.00">0: Q7.C0 (bigint)</text>
<polyline fill="none" stroke="black" points="502.5,-213.5 655.5,-213.5 "/>
<text text-anchor="middle" x="579" y="-198.3" font-family="Times,serif" font-size="14.00">1: Q7.C1 (integer?)</text>
<polyline fill="none" stroke="black" points="502.5,-190.5 655.5,-190.5 "/>
<text text-anchor="middle" x="579" y="-175.3" font-family="Times,serif" font-size="14.00">(Q7.C0 = Q0.C0)</text>
</g>
<!-- Q8&#45;&gt;boxhead8 -->
<g id="edge14" class="edge">
<title>Q8&#45;&gt;boxhead8</title>
<path fill="none" stroke="black" stroke-dasharray="5,2" d="M579,-340.97C579,-332.71 579,-323.53 579,-314"/>
</g>
<!-- Q7 -->
<g id="node25" class="node">
<title>Q7</title>
<ellipse fill="none" stroke="black" cx="447" cy="-213.5" rx="37.09" ry="37.09"/>
<text text-anchor="middle" x="447" y="-209.8" font-family="Times,serif" font-size="14.00">Q7(F)</text>
</g>
<!-- boxhead7 -->
<g id="node26" class="node">
<title>boxhead7</title>
<polygon fill="none" stroke="black" points="374,-16.5 374,-85.5 520,-85.5 520,-16.5 374,-16.5"/>
<text text-anchor="middle" x="447" y="-70.3" font-family="Times,serif" font-size="14.00">Distinct: Preserve</text>
<polyline fill="none" stroke="black" points="374,-62.5 520,-62.5 "/>
<text text-anchor="middle" x="447" y="-47.3" font-family="Times,serif" font-size="14.00">0: C0 (bigint?)</text>
<polyline fill="none" stroke="black" points="374,-39.5 520,-39.5 "/>
<text text-anchor="middle" x="447" y="-24.3" font-family="Times,serif" font-size="14.00">1: C1 (integer?)</text>
</g>
<!-- Q7&#45;&gt;boxhead7 -->
<g id="edge15" class="edge">
<title>Q7&#45;&gt;boxhead7</title>
<path fill="none" stroke="black" stroke-dasharray="5,2" d="M447,-176.08C447,-165.18 447,-152.72 447,-140"/>
</g>
</g>
</svg>
